<?xml version="1.0" encoding="UTF-8" standalone="no"?>
<!DOCTYPE svg PUBLIC "-//W3C//DTD SVG 1.1//EN" "http://www.w3.org/Graphics/SVG/1.1/DTD/svg11.dtd">
<svg width="100%" height="100%" viewBox="0 0 3508 2481" version="1.1" xmlns="http://www.w3.org/2000/svg" xmlns:xlink="http://www.w3.org/1999/xlink" xml:space="preserve" xmlns:serif="http://www.serif.com/" style="fill-rule:evenodd;clip-rule:evenodd;stroke-linejoin:round;stroke-miterlimit:2;">
    <g>
        <g transform="matrix(0.778657,0,0,0.828571,61.7101,44.5185)">
            <path d="M572.991,316.893C572.991,309.025 566.195,302.638 557.823,302.638L315.128,302.638C306.756,302.638 299.959,309.025 299.959,316.893L299.959,544.968C299.959,552.835 306.756,559.222 315.128,559.222L557.823,559.222C566.195,559.222 572.991,552.835 572.991,544.968L572.991,316.893Z" style="fill:rgb(235,235,235);"/>
        </g>
        <g transform="matrix(0.778657,0,0,0.828571,274.308,44.5185)">
            <path d="M572.991,316.893C572.991,309.025 566.195,302.638 557.823,302.638L315.128,302.638C306.756,302.638 299.959,309.025 299.959,316.893L299.959,544.968C299.959,552.835 306.756,559.222 315.128,559.222L557.823,559.222C566.195,559.222 572.991,552.835 572.991,544.968L572.991,316.893Z" style="fill:rgb(235,235,235);"/>
        </g>
        <g transform="matrix(0.778657,0,0,0.828571,486.907,44.5185)">
            <path d="M572.991,316.893C572.991,309.025 566.195,302.638 557.823,302.638L315.128,302.638C306.756,302.638 299.959,309.025 299.959,316.893L299.959,544.968C299.959,552.835 306.756,559.222 315.128,559.222L557.823,559.222C566.195,559.222 572.991,552.835 572.991,544.968L572.991,316.893Z" style="fill:rgb(235,235,235);"/>
        </g>
        <g transform="matrix(0.778657,0,0,0.828571,699.505,44.5185)">
            <path d="M572.991,316.893C572.991,309.025 566.195,302.638 557.823,302.638L315.128,302.638C306.756,302.638 299.959,309.025 299.959,316.893L299.959,544.968C299.959,552.835 306.756,559.222 315.128,559.222L557.823,559.222C566.195,559.222 572.991,552.835 572.991,544.968L572.991,316.893Z" style="fill:rgb(235,235,235);"/>
        </g>
        <g transform="matrix(0.778657,0,0,0.828571,912.104,44.5185)">
            <path d="M572.991,316.893C572.991,309.025 566.195,302.638 557.823,302.638L315.128,302.638C306.756,302.638 299.959,309.025 299.959,316.893L299.959,544.968C299.959,552.835 306.756,559.222 315.128,559.222L557.823,559.222C566.195,559.222 572.991,552.835 572.991,544.968L572.991,316.893Z" style="fill:rgb(235,235,235);"/>
        </g>
        <g transform="matrix(0.778657,0,0,0.828571,1124.7,44.5185)">
            <path d="M572.991,316.893C572.991,309.025 566.195,302.638 557.823,302.638L315.128,302.638C306.756,302.638 299.959,309.025 299.959,316.893L299.959,544.968C299.959,552.835 306.756,559.222 315.128,559.222L557.823,559.222C566.195,559.222 572.991,552.835 572.991,544.968L572.991,316.893Z" style="fill:rgb(235,235,235);"/>
        </g>
        <g transform="matrix(0.778657,0,0,0.828571,1337.3,44.5185)">
            <path d="M572.991,316.893C572.991,309.025 566.195,302.638 557.823,302.638L315.128,302.638C306.756,302.638 299.959,309.025 299.959,316.893L299.959,544.968C299.959,552.835 306.756,559.222 315.128,559.222L557.823,559.222C566.195,559.222 572.991,552.835 572.991,544.968L572.991,316.893Z" style="fill:rgb(235,235,235);"/>
        </g>
        <g transform="matrix(0.778657,0,0,0.828571,1549.9,44.5185)">
            <path d="M572.991,316.893C572.991,309.025 566.195,302.638 557.823,302.638L315.128,302.638C306.756,302.638 299.959,309.025 299.959,316.893L299.959,544.968C299.959,552.835 306.756,559.222 315.128,559.222L557.823,559.222C566.195,559.222 572.991,552.835 572.991,544.968L572.991,316.893Z" style="fill:rgb(235,235,235);"/>
        </g>
        <g transform="matrix(0.778657,0,0,0.828571,1762.5,44.5185)">
            <path d="M572.991,316.893C572.991,309.025 566.195,302.638 557.823,302.638L315.128,302.638C306.756,302.638 299.959,309.025 299.959,316.893L299.959,544.968C299.959,552.835 306.756,559.222 315.128,559.222L557.823,559.222C566.195,559.222 572.991,552.835 572.991,544.968L572.991,316.893Z" style="fill:rgb(235,235,235);"/>
        </g>
        <g transform="matrix(0.778657,0,0,0.828571,1975.1,44.5185)">
            <path d="M572.991,316.893C572.991,309.025 566.195,302.638 557.823,302.638L315.128,302.638C306.756,302.638 299.959,309.025 299.959,316.893L299.959,544.968C299.959,552.835 306.756,559.222 315.128,559.222L557.823,559.222C566.195,559.222 572.991,552.835 572.991,544.968L572.991,316.893Z" style="fill:rgb(235,235,235);"/>
        </g>
        <g transform="matrix(0.778657,0,0,0.828571,2187.69,44.5185)">
            <path d="M572.991,316.893C572.991,309.025 566.195,302.638 557.823,302.638L315.128,302.638C306.756,302.638 299.959,309.025 299.959,316.893L299.959,544.968C299.959,552.835 306.756,559.222 315.128,559.222L557.823,559.222C566.195,559.222 572.991,552.835 572.991,544.968L572.991,316.893Z" style="fill:rgb(235,235,235);"/>
        </g>
        <g transform="matrix(0.778657,0,0,0.828571,2400.29,44.5185)">
            <path d="M572.991,316.893C572.991,309.025 566.195,302.638 557.823,302.638L315.128,302.638C306.756,302.638 299.959,309.025 299.959,316.893L299.959,544.968C299.959,552.835 306.756,559.222 315.128,559.222L557.823,559.222C566.195,559.222 572.991,552.835 572.991,544.968L572.991,316.893Z" style="fill:rgb(235,235,235);"/>
        </g>
        <g transform="matrix(0.778657,0,0,0.828571,2612.89,44.5185)">
            <path d="M572.991,316.893C572.991,309.025 566.195,302.638 557.823,302.638L315.128,302.638C306.756,302.638 299.959,309.025 299.959,316.893L299.959,544.968C299.959,552.835 306.756,559.222 315.128,559.222L557.823,559.222C566.195,559.222 572.991,552.835 572.991,544.968L572.991,316.893Z" style="fill:rgb(235,235,235);"/>
        </g>
    </g>
    <g transform="matrix(1,0,0,1,0,212.598)">
        <g transform="matrix(0.778657,0,0,0.828571,61.7101,44.5185)">
            <path d="M572.991,316.893C572.991,309.025 566.195,302.638 557.823,302.638L315.128,302.638C306.756,302.638 299.959,309.025 299.959,316.893L299.959,544.968C299.959,552.835 306.756,559.222 315.128,559.222L557.823,559.222C566.195,559.222 572.991,552.835 572.991,544.968L572.991,316.893Z" style="fill:rgb(235,235,235);"/>
        </g>
        <g transform="matrix(0.778657,0,0,0.828571,274.308,44.5185)">
            <path d="M572.991,316.893C572.991,309.025 566.195,302.638 557.823,302.638L315.128,302.638C306.756,302.638 299.959,309.025 299.959,316.893L299.959,544.968C299.959,552.835 306.756,559.222 315.128,559.222L557.823,559.222C566.195,559.222 572.991,552.835 572.991,544.968L572.991,316.893Z" style="fill:rgb(235,235,235);"/>
        </g>
        <g transform="matrix(0.778657,0,0,0.828571,486.907,44.5185)">
            <path d="M572.991,316.893C572.991,309.025 566.195,302.638 557.823,302.638L315.128,302.638C306.756,302.638 299.959,309.025 299.959,316.893L299.959,544.968C299.959,552.835 306.756,559.222 315.128,559.222L557.823,559.222C566.195,559.222 572.991,552.835 572.991,544.968L572.991,316.893Z" style="fill:rgb(235,235,235);"/>
        </g>
        <g transform="matrix(0.778657,0,0,0.828571,699.505,44.5185)">
            <path d="M572.991,316.893C572.991,309.025 566.195,302.638 557.823,302.638L315.128,302.638C306.756,302.638 299.959,309.025 299.959,316.893L299.959,544.968C299.959,552.835 306.756,559.222 315.128,559.222L557.823,559.222C566.195,559.222 572.991,552.835 572.991,544.968L572.991,316.893Z" style="fill:rgb(235,235,235);"/>
        </g>
        <g transform="matrix(0.778657,0,0,0.828571,912.104,44.5185)">
            <path d="M572.991,316.893C572.991,309.025 566.195,302.638 557.823,302.638L315.128,302.638C306.756,302.638 299.959,309.025 299.959,316.893L299.959,544.968C299.959,552.835 306.756,559.222 315.128,559.222L557.823,559.222C566.195,559.222 572.991,552.835 572.991,544.968L572.991,316.893Z" style="fill:rgb(235,235,235);"/>
        </g>
        <g transform="matrix(0.778657,0,0,0.828571,1124.7,44.5185)">
            <path d="M572.991,316.893C572.991,309.025 566.195,302.638 557.823,302.638L315.128,302.638C306.756,302.638 299.959,309.025 299.959,316.893L299.959,544.968C299.959,552.835 306.756,559.222 315.128,559.222L557.823,559.222C566.195,559.222 572.991,552.835 572.991,544.968L572.991,316.893Z" style="fill:rgb(235,235,235);"/>
        </g>
        <g transform="matrix(0.778657,0,0,0.828571,1337.3,44.5185)">
            <path d="M572.991,316.893C572.991,309.025 566.195,302.638 557.823,302.638L315.128,302.638C306.756,302.638 299.959,309.025 299.959,316.893L299.959,544.968C299.959,552.835 306.756,559.222 315.128,559.222L557.823,559.222C566.195,559.222 572.991,552.835 572.991,544.968L572.991,316.893Z" style="fill:rgb(235,235,235);"/>
        </g>
        <g transform="matrix(0.778657,0,0,0.828571,1549.9,44.5185)">
            <path d="M572.991,316.893C572.991,309.025 566.195,302.638 557.823,302.638L315.128,302.638C306.756,302.638 299.959,309.025 299.959,316.893L299.959,544.968C299.959,552.835 306.756,559.222 315.128,559.222L557.823,559.222C566.195,559.222 572.991,552.835 572.991,544.968L572.991,316.893Z" style="fill:rgb(235,235,235);"/>
        </g>
        <g transform="matrix(0.778657,0,0,0.828571,1762.5,44.5185)">
            <path d="M572.991,316.893C572.991,309.025 566.195,302.638 557.823,302.638L315.128,302.638C306.756,302.638 299.959,309.025 299.959,316.893L299.959,544.968C299.959,552.835 306.756,559.222 315.128,559.222L557.823,559.222C566.195,559.222 572.991,552.835 572.991,544.968L572.991,316.893Z" style="fill:rgb(235,235,235);"/>
        </g>
        <g transform="matrix(0.778657,0,0,0.828571,1975.1,44.5185)">
            <path d="M572.991,316.893C572.991,309.025 566.195,302.638 557.823,302.638L315.128,302.638C306.756,302.638 299.959,309.025 299.959,316.893L299.959,544.968C299.959,552.835 306.756,559.222 315.128,559.222L557.823,559.222C566.195,559.222 572.991,552.835 572.991,544.968L572.991,316.893Z" style="fill:rgb(235,235,235);"/>
        </g>
        <g transform="matrix(0.778657,0,0,0.828571,2187.69,44.5185)">
            <path d="M572.991,316.893C572.991,309.025 566.195,302.638 557.823,302.638L315.128,302.638C306.756,302.638 299.959,309.025 299.959,316.893L299.959,544.968C299.959,552.835 306.756,559.222 315.128,559.222L557.823,559.222C566.195,559.222 572.991,552.835 572.991,544.968L572.991,316.893Z" style="fill:rgb(235,235,235);"/>
        </g>
        <g transform="matrix(0.778657,0,0,0.828571,2400.29,44.5185)">
            <path d="M572.991,316.893C572.991,309.025 566.195,302.638 557.823,302.638L315.128,302.638C306.756,302.638 299.959,309.025 299.959,316.893L299.959,544.968C299.959,552.835 306.756,559.222 315.128,559.222L557.823,559.222C566.195,559.222 572.991,552.835 572.991,544.968L572.991,316.893Z" style="fill:rgb(235,235,235);"/>
        </g>
        <g transform="matrix(0.778657,0,0,0.828571,2612.89,44.5185)">
            <path d="M572.991,316.893C572.991,309.025 566.195,302.638 557.823,302.638L315.128,302.638C306.756,302.638 299.959,309.025 299.959,316.893L299.959,544.968C299.959,552.835 306.756,559.222 315.128,559.222L557.823,559.222C566.195,559.222 572.991,552.835 572.991,544.968L572.991,316.893Z" style="fill:rgb(235,235,235);"/>
        </g>
    </g>
    <g transform="matrix(1,0,0,1,0,425.197)">
        <g transform="matrix(0.778657,0,0,0.828571,61.7101,44.5185)">
            <path d="M572.991,316.893C572.991,309.025 566.195,302.638 557.823,302.638L315.128,302.638C306.756,302.638 299.959,309.025 299.959,316.893L299.959,544.968C299.959,552.835 306.756,559.222 315.128,559.222L557.823,559.222C566.195,559.222 572.991,552.835 572.991,544.968L572.991,316.893Z" style="fill:rgb(235,235,235);"/>
        </g>
        <g transform="matrix(0.778657,0,0,0.828571,274.308,44.5185)">
            <path d="M572.991,316.893C572.991,309.025 566.195,302.638 557.823,302.638L315.128,302.638C306.756,302.638 299.959,309.025 299.959,316.893L299.959,544.968C299.959,552.835 306.756,559.222 315.128,559.222L557.823,559.222C566.195,559.222 572.991,552.835 572.991,544.968L572.991,316.893Z" style="fill:rgb(235,235,235);"/>
        </g>
        <g transform="matrix(0.778657,0,0,0.828571,486.907,44.5185)">
            <path d="M572.991,316.893C572.991,309.025 566.195,302.638 557.823,302.638L315.128,302.638C306.756,302.638 299.959,309.025 299.959,316.893L299.959,544.968C299.959,552.835 306.756,559.222 315.128,559.222L557.823,559.222C566.195,559.222 572.991,552.835 572.991,544.968L572.991,316.893Z" style="fill:rgb(235,235,235);"/>
        </g>
        <g transform="matrix(0.778657,0,0,0.828571,699.505,44.5185)">
            <path d="M572.991,316.893C572.991,309.025 566.195,302.638 557.823,302.638L315.128,302.638C306.756,302.638 299.959,309.025 299.959,316.893L299.959,544.968C299.959,552.835 306.756,559.222 315.128,559.222L557.823,559.222C566.195,559.222 572.991,552.835 572.991,544.968L572.991,316.893Z" style="fill:rgb(235,235,235);"/>
        </g>
        <g transform="matrix(0.778657,0,0,0.828571,912.104,44.5185)">
            <path d="M572.991,316.893C572.991,309.025 566.195,302.638 557.823,302.638L315.128,302.638C306.756,302.638 299.959,309.025 299.959,316.893L299.959,544.968C299.959,552.835 306.756,559.222 315.128,559.222L557.823,559.222C566.195,559.222 572.991,552.835 572.991,544.968L572.991,316.893Z" style="fill:rgb(235,235,235);"/>
        </g>
        <g transform="matrix(0.778657,0,0,0.828571,1124.7,44.5185)">
            <path d="M572.991,316.893C572.991,309.025 566.195,302.638 557.823,302.638L315.128,302.638C306.756,302.638 299.959,309.025 299.959,316.893L299.959,544.968C299.959,552.835 306.756,559.222 315.128,559.222L557.823,559.222C566.195,559.222 572.991,552.835 572.991,544.968L572.991,316.893Z" style="fill:rgb(235,235,235);"/>
        </g>
        <g transform="matrix(0.778657,0,0,0.828571,1337.3,44.5185)">
            <path d="M572.991,316.893C572.991,309.025 566.195,302.638 557.823,302.638L315.128,302.638C306.756,302.638 299.959,309.025 299.959,316.893L299.959,544.968C299.959,552.835 306.756,559.222 315.128,559.222L557.823,559.222C566.195,559.222 572.991,552.835 572.991,544.968L572.991,316.893Z" style="fill:rgb(235,235,235);"/>
        </g>
        <g transform="matrix(0.778657,0,0,0.828571,1549.9,44.5185)">
            <path d="M572.991,316.893C572.991,309.025 566.195,302.638 557.823,302.638L315.128,302.638C306.756,302.638 299.959,309.025 299.959,316.893L299.959,544.968C299.959,552.835 306.756,559.222 315.128,559.222L557.823,559.222C566.195,559.222 572.991,552.835 572.991,544.968L572.991,316.893Z" style="fill:rgb(235,235,235);"/>
        </g>
        <g transform="matrix(0.778657,0,0,0.828571,1762.5,44.5185)">
            <path d="M572.991,316.893C572.991,309.025 566.195,302.638 557.823,302.638L315.128,302.638C306.756,302.638 299.959,309.025 299.959,316.893L299.959,544.968C299.959,552.835 306.756,559.222 315.128,559.222L557.823,559.222C566.195,559.222 572.991,552.835 572.991,544.968L572.991,316.893Z" style="fill:rgb(235,235,235);"/>
        </g>
        <g transform="matrix(0.778657,0,0,0.828571,1975.1,44.5185)">
            <path d="M572.991,316.893C572.991,309.025 566.195,302.638 557.823,302.638L315.128,302.638C306.756,302.638 299.959,309.025 299.959,316.893L299.959,544.968C299.959,552.835 306.756,559.222 315.128,559.222L557.823,559.222C566.195,559.222 572.991,552.835 572.991,544.968L572.991,316.893Z" style="fill:rgb(235,235,235);"/>
        </g>
        <g transform="matrix(0.778657,0,0,0.828571,2187.69,44.5185)">
            <path d="M572.991,316.893C572.991,309.025 566.195,302.638 557.823,302.638L315.128,302.638C306.756,302.638 299.959,309.025 299.959,316.893L299.959,544.968C299.959,552.835 306.756,559.222 315.128,559.222L557.823,559.222C566.195,559.222 572.991,552.835 572.991,544.968L572.991,316.893Z" style="fill:rgb(235,235,235);"/>
        </g>
        <g transform="matrix(0.778657,0,0,0.828571,2400.29,44.5185)">
            <path d="M572.991,316.893C572.991,309.025 566.195,302.638 557.823,302.638L315.128,302.638C306.756,302.638 299.959,309.025 299.959,316.893L299.959,544.968C299.959,552.835 306.756,559.222 315.128,559.222L557.823,559.222C566.195,559.222 572.991,552.835 572.991,544.968L572.991,316.893Z" style="fill:rgb(235,235,235);"/>
        </g>
        <g transform="matrix(0.778657,0,0,0.828571,2612.89,44.5185)">
            <path d="M572.991,316.893C572.991,309.025 566.195,302.638 557.823,302.638L315.128,302.638C306.756,302.638 299.959,309.025 299.959,316.893L299.959,544.968C299.959,552.835 306.756,559.222 315.128,559.222L557.823,559.222C566.195,559.222 572.991,552.835 572.991,544.968L572.991,316.893Z" style="fill:rgb(235,235,235);"/>
        </g>
    </g>
    <g transform="matrix(1,0,0,1,0,637.795)">
        <g transform="matrix(0.778657,0,0,0.828571,61.7101,44.5185)">
            <path d="M572.991,316.893C572.991,309.025 566.195,302.638 557.823,302.638L315.128,302.638C306.756,302.638 299.959,309.025 299.959,316.893L299.959,544.968C299.959,552.835 306.756,559.222 315.128,559.222L557.823,559.222C566.195,559.222 572.991,552.835 572.991,544.968L572.991,316.893Z" style="fill:rgb(235,235,235);"/>
        </g>
        <g transform="matrix(0.778657,0,0,0.828571,274.308,44.5185)">
            <path d="M572.991,316.893C572.991,309.025 566.195,302.638 557.823,302.638L315.128,302.638C306.756,302.638 299.959,309.025 299.959,316.893L299.959,544.968C299.959,552.835 306.756,559.222 315.128,559.222L557.823,559.222C566.195,559.222 572.991,552.835 572.991,544.968L572.991,316.893Z" style="fill:rgb(235,235,235);"/>
        </g>
        <g transform="matrix(0.778657,0,0,0.828571,486.907,44.5185)">
            <path d="M572.991,316.893C572.991,309.025 566.195,302.638 557.823,302.638L315.128,302.638C306.756,302.638 299.959,309.025 299.959,316.893L299.959,544.968C299.959,552.835 306.756,559.222 315.128,559.222L557.823,559.222C566.195,559.222 572.991,552.835 572.991,544.968L572.991,316.893Z" style="fill:rgb(235,235,235);"/>
        </g>
        <g transform="matrix(0.778657,0,0,0.828571,699.505,44.5185)">
            <path d="M572.991,316.893C572.991,309.025 566.195,302.638 557.823,302.638L315.128,302.638C306.756,302.638 299.959,309.025 299.959,316.893L299.959,544.968C299.959,552.835 306.756,559.222 315.128,559.222L557.823,559.222C566.195,559.222 572.991,552.835 572.991,544.968L572.991,316.893Z" style="fill:rgb(235,235,235);"/>
        </g>
        <g transform="matrix(0.778657,0,0,0.828571,912.104,44.5185)">
            <path d="M572.991,316.893C572.991,309.025 566.195,302.638 557.823,302.638L315.128,302.638C306.756,302.638 299.959,309.025 299.959,316.893L299.959,544.968C299.959,552.835 306.756,559.222 315.128,559.222L557.823,559.222C566.195,559.222 572.991,552.835 572.991,544.968L572.991,316.893Z" style="fill:rgb(235,235,235);"/>
        </g>
        <g transform="matrix(0.778657,0,0,0.828571,1124.7,44.5185)">
            <path d="M572.991,316.893C572.991,309.025 566.195,302.638 557.823,302.638L315.128,302.638C306.756,302.638 299.959,309.025 299.959,316.893L299.959,544.968C299.959,552.835 306.756,559.222 315.128,559.222L557.823,559.222C566.195,559.222 572.991,552.835 572.991,544.968L572.991,316.893Z" style="fill:rgb(235,235,235);"/>
        </g>
        <g transform="matrix(0.778657,0,0,0.828571,1337.3,44.5185)">
            <path d="M572.991,316.893C572.991,309.025 566.195,302.638 557.823,302.638L315.128,302.638C306.756,302.638 299.959,309.025 299.959,316.893L299.959,544.968C299.959,552.835 306.756,559.222 315.128,559.222L557.823,559.222C566.195,559.222 572.991,552.835 572.991,544.968L572.991,316.893Z" style="fill:rgb(235,235,235);"/>
        </g>
        <g transform="matrix(0.778657,0,0,0.828571,1549.9,44.5185)">
            <path d="M572.991,316.893C572.991,309.025 566.195,302.638 557.823,302.638L315.128,302.638C306.756,302.638 299.959,309.025 299.959,316.893L299.959,544.968C299.959,552.835 306.756,559.222 315.128,559.222L557.823,559.222C566.195,559.222 572.991,552.835 572.991,544.968L572.991,316.893Z" style="fill:rgb(235,235,235);"/>
        </g>
        <g transform="matrix(0.778657,0,0,0.828571,1762.5,44.5185)">
            <path d="M572.991,316.893C572.991,309.025 566.195,302.638 557.823,302.638L315.128,302.638C306.756,302.638 299.959,309.025 299.959,316.893L299.959,544.968C299.959,552.835 306.756,559.222 315.128,559.222L557.823,559.222C566.195,559.222 572.991,552.835 572.991,544.968L572.991,316.893Z" style="fill:rgb(235,235,235);"/>
        </g>
        <g transform="matrix(0.778657,0,0,0.828571,1975.1,44.5185)">
            <path d="M572.991,316.893C572.991,309.025 566.195,302.638 557.823,302.638L315.128,302.638C306.756,302.638 299.959,309.025 299.959,316.893L299.959,544.968C299.959,552.835 306.756,559.222 315.128,559.222L557.823,559.222C566.195,559.222 572.991,552.835 572.991,544.968L572.991,316.893Z" style="fill:rgb(235,235,235);"/>
        </g>
        <g transform="matrix(0.778657,0,0,0.828571,2187.69,44.5185)">
            <path d="M572.991,316.893C572.991,309.025 566.195,302.638 557.823,302.638L315.128,302.638C306.756,302.638 299.959,309.025 299.959,316.893L299.959,544.968C299.959,552.835 306.756,559.222 315.128,559.222L557.823,559.222C566.195,559.222 572.991,552.835 572.991,544.968L572.991,316.893Z" style="fill:rgb(235,235,235);"/>
        </g>
        <g transform="matrix(0.778657,0,0,0.828571,2400.29,44.5185)">
            <path d="M572.991,316.893C572.991,309.025 566.195,302.638 557.823,302.638L315.128,302.638C306.756,302.638 299.959,309.025 299.959,316.893L299.959,544.968C299.959,552.835 306.756,559.222 315.128,559.222L557.823,559.222C566.195,559.222 572.991,552.835 572.991,544.968L572.991,316.893Z" style="fill:rgb(235,235,235);"/>
        </g>
        <g transform="matrix(0.778657,0,0,0.828571,2612.89,44.5185)">
            <path d="M572.991,316.893C572.991,309.025 566.195,302.638 557.823,302.638L315.128,302.638C306.756,302.638 299.959,309.025 299.959,316.893L299.959,544.968C299.959,552.835 306.756,559.222 315.128,559.222L557.823,559.222C566.195,559.222 572.991,552.835 572.991,544.968L572.991,316.893Z" style="fill:rgb(235,235,235);"/>
        </g>
    </g>
    <g transform="matrix(1,0,0,1,0,850.394)">
        <g transform="matrix(0.778657,0,0,0.828571,61.7101,44.5185)">
            <path d="M572.991,316.893C572.991,309.025 566.195,302.638 557.823,302.638L315.128,302.638C306.756,302.638 299.959,309.025 299.959,316.893L299.959,544.968C299.959,552.835 306.756,559.222 315.128,559.222L557.823,559.222C566.195,559.222 572.991,552.835 572.991,544.968L572.991,316.893Z" style="fill:rgb(235,235,235);"/>
        </g>
        <g transform="matrix(0.778657,0,0,0.828571,274.308,44.5185)">
            <path d="M572.991,316.893C572.991,309.025 566.195,302.638 557.823,302.638L315.128,302.638C306.756,302.638 299.959,309.025 299.959,316.893L299.959,544.968C299.959,552.835 306.756,559.222 315.128,559.222L557.823,559.222C566.195,559.222 572.991,552.835 572.991,544.968L572.991,316.893Z" style="fill:rgb(235,235,235);"/>
        </g>
        <g transform="matrix(0.778657,0,0,0.828571,486.907,44.5185)">
            <path d="M572.991,316.893C572.991,309.025 566.195,302.638 557.823,302.638L315.128,302.638C306.756,302.638 299.959,309.025 299.959,316.893L299.959,544.968C299.959,552.835 306.756,559.222 315.128,559.222L557.823,559.222C566.195,559.222 572.991,552.835 572.991,544.968L572.991,316.893Z" style="fill:rgb(235,235,235);"/>
        </g>
        <g transform="matrix(0.778657,0,0,0.828571,699.505,44.5185)">
            <path d="M572.991,316.893C572.991,309.025 566.195,302.638 557.823,302.638L315.128,302.638C306.756,302.638 299.959,309.025 299.959,316.893L299.959,544.968C299.959,552.835 306.756,559.222 315.128,559.222L557.823,559.222C566.195,559.222 572.991,552.835 572.991,544.968L572.991,316.893Z" style="fill:rgb(235,235,235);"/>
        </g>
        <g transform="matrix(0.778657,0,0,0.828571,912.104,44.5185)">
            <path d="M572.991,316.893C572.991,309.025 566.195,302.638 557.823,302.638L315.128,302.638C306.756,302.638 299.959,309.025 299.959,316.893L299.959,544.968C299.959,552.835 306.756,559.222 315.128,559.222L557.823,559.222C566.195,559.222 572.991,552.835 572.991,544.968L572.991,316.893Z" style="fill:rgb(235,235,235);"/>
        </g>
        <g transform="matrix(0.778657,0,0,0.828571,1124.7,44.5185)">
            <path d="M572.991,316.893C572.991,309.025 566.195,302.638 557.823,302.638L315.128,302.638C306.756,302.638 299.959,309.025 299.959,316.893L299.959,544.968C299.959,552.835 306.756,559.222 315.128,559.222L557.823,559.222C566.195,559.222 572.991,552.835 572.991,544.968L572.991,316.893Z" style="fill:rgb(235,235,235);"/>
        </g>
        <g transform="matrix(0.778657,0,0,0.828571,1337.3,44.5185)">
            <path d="M572.991,316.893C572.991,309.025 566.195,302.638 557.823,302.638L315.128,302.638C306.756,302.638 299.959,309.025 299.959,316.893L299.959,544.968C299.959,552.835 306.756,559.222 315.128,559.222L557.823,559.222C566.195,559.222 572.991,552.835 572.991,544.968L572.991,316.893Z" style="fill:rgb(235,235,235);"/>
        </g>
        <g transform="matrix(0.778657,0,0,0.828571,1549.9,44.5185)">
            <path d="M572.991,316.893C572.991,309.025 566.195,302.638 557.823,302.638L315.128,302.638C306.756,302.638 299.959,309.025 299.959,316.893L299.959,544.968C299.959,552.835 306.756,559.222 315.128,559.222L557.823,559.222C566.195,559.222 572.991,552.835 572.991,544.968L572.991,316.893Z" style="fill:rgb(235,235,235);"/>
        </g>
        <g transform="matrix(0.778657,0,0,0.828571,1762.5,44.5185)">
            <path d="M572.991,316.893C572.991,309.025 566.195,302.638 557.823,302.638L315.128,302.638C306.756,302.638 299.959,309.025 299.959,316.893L299.959,544.968C299.959,552.835 306.756,559.222 315.128,559.222L557.823,559.222C566.195,559.222 572.991,552.835 572.991,544.968L572.991,316.893Z" style="fill:rgb(235,235,235);"/>
        </g>
        <g transform="matrix(0.778657,0,0,0.828571,1975.1,44.5185)">
            <path d="M572.991,316.893C572.991,309.025 566.195,302.638 557.823,302.638L315.128,302.638C306.756,302.638 299.959,309.025 299.959,316.893L299.959,544.968C299.959,552.835 306.756,559.222 315.128,559.222L557.823,559.222C566.195,559.222 572.991,552.835 572.991,544.968L572.991,316.893Z" style="fill:rgb(235,235,235);"/>
        </g>
        <g transform="matrix(0.778657,0,0,0.828571,2187.69,44.5185)">
            <path d="M572.991,316.893C572.991,309.025 566.195,302.638 557.823,302.638L315.128,302.638C306.756,302.638 299.959,309.025 299.959,316.893L299.959,544.968C299.959,552.835 306.756,559.222 315.128,559.222L557.823,559.222C566.195,559.222 572.991,552.835 572.991,544.968L572.991,316.893Z" style="fill:rgb(235,235,235);"/>
        </g>
        <g transform="matrix(0.778657,0,0,0.828571,2400.29,44.5185)">
            <path d="M572.991,316.893C572.991,309.025 566.195,302.638 557.823,302.638L315.128,302.638C306.756,302.638 299.959,309.025 299.959,316.893L299.959,544.968C299.959,552.835 306.756,559.222 315.128,559.222L557.823,559.222C566.195,559.222 572.991,552.835 572.991,544.968L572.991,316.893Z" style="fill:rgb(235,235,235);"/>
        </g>
        <g transform="matrix(0.778657,0,0,0.828571,2612.89,44.5185)">
            <path d="M572.991,316.893C572.991,309.025 566.195,302.638 557.823,302.638L315.128,302.638C306.756,302.638 299.959,309.025 299.959,316.893L299.959,544.968C299.959,552.835 306.756,559.222 315.128,559.222L557.823,559.222C566.195,559.222 572.991,552.835 572.991,544.968L572.991,316.893Z" style="fill:rgb(235,235,235);"/>
        </g>
    </g>
    <g transform="matrix(1,0,0,1,0,1062.99)">
        <g transform="matrix(0.778657,0,0,0.828571,61.7101,44.5185)">
            <path d="M572.991,316.893C572.991,309.025 566.195,302.638 557.823,302.638L315.128,302.638C306.756,302.638 299.959,309.025 299.959,316.893L299.959,544.968C299.959,552.835 306.756,559.222 315.128,559.222L557.823,559.222C566.195,559.222 572.991,552.835 572.991,544.968L572.991,316.893Z" style="fill:rgb(235,235,235);"/>
        </g>
        <g transform="matrix(0.778657,0,0,0.828571,274.308,44.5185)">
            <path d="M572.991,316.893C572.991,309.025 566.195,302.638 557.823,302.638L315.128,302.638C306.756,302.638 299.959,309.025 299.959,316.893L299.959,544.968C299.959,552.835 306.756,559.222 315.128,559.222L557.823,559.222C566.195,559.222 572.991,552.835 572.991,544.968L572.991,316.893Z" style="fill:rgb(235,235,235);"/>
        </g>
        <g transform="matrix(0.778657,0,0,0.828571,486.907,44.5185)">
            <path d="M572.991,316.893C572.991,309.025 566.195,302.638 557.823,302.638L315.128,302.638C306.756,302.638 299.959,309.025 299.959,316.893L299.959,544.968C299.959,552.835 306.756,559.222 315.128,559.222L557.823,559.222C566.195,559.222 572.991,552.835 572.991,544.968L572.991,316.893Z" style="fill:rgb(235,235,235);"/>
        </g>
        <g transform="matrix(0.778657,0,0,0.828571,699.505,44.5185)">
            <path d="M572.991,316.893C572.991,309.025 566.195,302.638 557.823,302.638L315.128,302.638C306.756,302.638 299.959,309.025 299.959,316.893L299.959,544.968C299.959,552.835 306.756,559.222 315.128,559.222L557.823,559.222C566.195,559.222 572.991,552.835 572.991,544.968L572.991,316.893Z" style="fill:rgb(235,235,235);"/>
        </g>
        <g transform="matrix(0.778657,0,0,0.828571,912.104,44.5185)">
            <path d="M572.991,316.893C572.991,309.025 566.195,302.638 557.823,302.638L315.128,302.638C306.756,302.638 299.959,309.025 299.959,316.893L299.959,544.968C299.959,552.835 306.756,559.222 315.128,559.222L557.823,559.222C566.195,559.222 572.991,552.835 572.991,544.968L572.991,316.893Z" style="fill:rgb(235,235,235);"/>
        </g>
        <g transform="matrix(0.778657,0,0,0.828571,1124.7,44.5185)">
            <path d="M572.991,316.893C572.991,309.025 566.195,302.638 557.823,302.638L315.128,302.638C306.756,302.638 299.959,309.025 299.959,316.893L299.959,544.968C299.959,552.835 306.756,559.222 315.128,559.222L557.823,559.222C566.195,559.222 572.991,552.835 572.991,544.968L572.991,316.893Z" style="fill:rgb(235,235,235);"/>
        </g>
        <g transform="matrix(0.778657,0,0,0.828571,1337.3,44.5185)">
            <path d="M572.991,316.893C572.991,309.025 566.195,302.638 557.823,302.638L315.128,302.638C306.756,302.638 299.959,309.025 299.959,316.893L299.959,544.968C299.959,552.835 306.756,559.222 315.128,559.222L557.823,559.222C566.195,559.222 572.991,552.835 572.991,544.968L572.991,316.893Z" style="fill:rgb(235,235,235);"/>
        </g>
        <g transform="matrix(0.778657,0,0,0.828571,1549.9,44.5185)">
            <path d="M572.991,316.893C572.991,309.025 566.195,302.638 557.823,302.638L315.128,302.638C306.756,302.638 299.959,309.025 299.959,316.893L299.959,544.968C299.959,552.835 306.756,559.222 315.128,559.222L557.823,559.222C566.195,559.222 572.991,552.835 572.991,544.968L572.991,316.893Z" style="fill:rgb(235,235,235);"/>
        </g>
        <g transform="matrix(0.778657,0,0,0.828571,1762.5,44.5185)">
            <path d="M572.991,316.893C572.991,309.025 566.195,302.638 557.823,302.638L315.128,302.638C306.756,302.638 299.959,309.025 299.959,316.893L299.959,544.968C299.959,552.835 306.756,559.222 315.128,559.222L557.823,559.222C566.195,559.222 572.991,552.835 572.991,544.968L572.991,316.893Z" style="fill:rgb(235,235,235);"/>
        </g>
        <g transform="matrix(0.778657,0,0,0.828571,1975.1,44.5185)">
            <path d="M572.991,316.893C572.991,309.025 566.195,302.638 557.823,302.638L315.128,302.638C306.756,302.638 299.959,309.025 299.959,316.893L299.959,544.968C299.959,552.835 306.756,559.222 315.128,559.222L557.823,559.222C566.195,559.222 572.991,552.835 572.991,544.968L572.991,316.893Z" style="fill:rgb(235,235,235);"/>
        </g>
        <g transform="matrix(0.778657,0,0,0.828571,2187.69,44.5185)">
            <path d="M572.991,316.893C572.991,309.025 566.195,302.638 557.823,302.638L315.128,302.638C306.756,302.638 299.959,309.025 299.959,316.893L299.959,544.968C299.959,552.835 306.756,559.222 315.128,559.222L557.823,559.222C566.195,559.222 572.991,552.835 572.991,544.968L572.991,316.893Z" style="fill:rgb(235,235,235);"/>
        </g>
        <g transform="matrix(0.778657,0,0,0.828571,2400.29,44.5185)">
            <path d="M572.991,316.893C572.991,309.025 566.195,302.638 557.823,302.638L315.128,302.638C306.756,302.638 299.959,309.025 299.959,316.893L299.959,544.968C299.959,552.835 306.756,559.222 315.128,559.222L557.823,559.222C566.195,559.222 572.991,552.835 572.991,544.968L572.991,316.893Z" style="fill:rgb(235,235,235);"/>
        </g>
        <g transform="matrix(0.778657,0,0,0.828571,2612.89,44.5185)">
            <path d="M572.991,316.893C572.991,309.025 566.195,302.638 557.823,302.638L315.128,302.638C306.756,302.638 299.959,309.025 299.959,316.893L299.959,544.968C299.959,552.835 306.756,559.222 315.128,559.222L557.823,559.222C566.195,559.222 572.991,552.835 572.991,544.968L572.991,316.893Z" style="fill:rgb(235,235,235);"/>
        </g>
    </g>
</svg>
