<?xml version="1.0" encoding="UTF-8" standalone="no"?>
<svg
   width="43.999683mm"
   height="3.9690001mm"
   viewBox="0 0 166.29803 15.000945"
   version="1.1"
   xml:space="preserve"
   style="clip-rule:evenodd;fill-rule:evenodd;stroke-linejoin:round;stroke-miterlimit:2"
   id="svg140"
   sodipodi:docname="DecentCase2040-logo.svg"
   inkscape:version="1.2.2 (732a01da63, 2022-12-09)"
   xmlns:inkscape="http://www.inkscape.org/namespaces/inkscape"
   xmlns:sodipodi="http://sodipodi.sourceforge.net/DTD/sodipodi-0.dtd"
   xmlns="http://www.w3.org/2000/svg"
   xmlns:svg="http://www.w3.org/2000/svg"><defs
   id="defs144" /><sodipodi:namedview
   id="namedview142"
   pagecolor="#ffffff"
   bordercolor="#000000"
   borderopacity="0.25"
   inkscape:showpageshadow="2"
   inkscape:pageopacity="0.0"
   inkscape:pagecheckerboard="0"
   inkscape:deskcolor="#d1d1d1"
   showgrid="false"
   inkscape:zoom="8"
   inkscape:cx="135.6875"
   inkscape:cy="-22.875"
   inkscape:window-width="3840"
   inkscape:window-height="1529"
   inkscape:window-x="-8"
   inkscape:window-y="-8"
   inkscape:window-maximized="1"
   inkscape:current-layer="svg140"
   inkscape:document-units="mm" />
    <g
   transform="matrix(0.07341545,0,0,0.07341545,-0.00647099,0.00241643)"
   id="g76">
        <path
   d="M 0,204.331 203.848,0 H 2265.18 l -204.8,204.331 z M 262.044,35.281 c -3.886,-0.01 -7.837,0.322 -11.798,1.022 -16.179,2.861 -29.963,11.359 -39.695,23.117 l 17.646,100.268 c 13.155,7.715 29.006,10.978 45.191,8.117 36.233,-6.407 60.425,-41.034 54.039,-77.347 -5.689,-32.342 -33.715,-55.107 -65.38,-55.177 z m -50.342,26.135 c 15.35,9.363 26.771,25.036 30.138,44.162 3.365,19.127 -2.01,37.78 -13.241,51.841 z"
   id="path74" />
    </g>
    <g
   transform="matrix(0.07341545,0,0,0.07341545,-1.548198,5.484679)"
   id="g94">
        <g
   transform="matrix(229.74,0,0,191.336,1076,96.1654)"
   id="g80">
            <path
   d="M 0.506,0.002 V -0.146 H 0.432 c -0.129,0 -0.227,-0.093 -0.227,-0.223 0,-0.123 0.103,-0.209 0.227,-0.209 H 0.504 V -0.729 H 0.432 c -0.223,0 -0.378,0.164 -0.378,0.36 0,0.203 0.161,0.371 0.378,0.371 z"
   style="fill:#ffffff;fill-rule:nonzero;stroke:#ffffff;stroke-width:0.04px"
   id="path78" />
        </g>
        <g
   transform="matrix(229.74,0,0,191.336,1194.09,96.1654)"
   id="g84">
            <path
   d="M 0.662,0 0.466,-0.657 C 0.45,-0.71 0.407,-0.747 0.35,-0.745 0.295,-0.743 0.255,-0.708 0.24,-0.655 L 0.05,0 H 0.222 L 0.255,-0.139 H 0.45 L 0.489,0 Z M 0.413,-0.29 H 0.295 l 0.06,-0.21 z"
   style="fill:#ffffff;fill-rule:nonzero;stroke:#ffffff;stroke-width:0.04px"
   id="path82" />
        </g>
        <g
   transform="matrix(229.74,0,0,191.336,1345.71,96.1654)"
   id="g88">
            <path
   d="M 0.566,0.002 0.377,-0.333 C 0.462,-0.364 0.512,-0.427 0.515,-0.517 0.518,-0.64 0.399,-0.728 0.275,-0.729 H 0.191 c -0.047,0 -0.085,0.009 -0.113,0.047 -0.018,0.024 -0.023,0.045 -0.023,0.076 V 0.001 H 0.209 V -0.334 L 0.386,0.002 Z M 0.361,-0.507 C 0.352,-0.408 0.271,-0.462 0.232,-0.41 0.22,-0.394 0.219,-0.389 0.21,-0.365 v -0.218 h 0.075 c 0.042,0 0.08,0.035 0.076,0.076 z"
   style="fill:#ffffff;fill-rule:nonzero;stroke:#ffffff;stroke-width:0.04px"
   id="path86" />
        </g>
        <g
   transform="matrix(229.74,0,0,191.336,1464.34,96.1654)"
   id="g92">
            <path
   d="M 0.482,-0.581 V -0.729 H 0.053 v 0.147 H 0.19 V 0 h 0.159 v -0.581 z"
   style="fill:#ffffff;fill-rule:nonzero;stroke:#ffffff;stroke-width:0.04px"
   id="path90" />
        </g>
    </g>
    <g
   transform="matrix(0.07341545,0,0,0.07341545,-53.131693,5.484679)"
   id="g120">
        <g
   transform="matrix(229.74,0,0,191.336,1076,96.1654)"
   id="g98">
            <path
   d="M 0.621,-0.372 C 0.618,-0.572 0.452,-0.728 0.252,-0.729 H 0.195 c -0.045,0 -0.079,0.009 -0.109,0.043 -0.027,0.03 -0.032,0.057 -0.032,0.098 v 0.463 c 0,0.036 0.006,0.061 0.029,0.088 0.029,0.035 0.065,0.039 0.11,0.039 H 0.259 C 0.46,0.003 0.625,-0.17 0.621,-0.372 Z m -0.158,0.006 c 0,0.13 -0.123,0.239 -0.253,0.222 v -0.442 c 0.129,-0.017 0.252,0.09 0.253,0.22 z"
   style="fill:#ffffff;fill-rule:nonzero"
   id="path96" />
        </g>
        <g
   transform="matrix(229.74,0,0,191.336,1219.82,96.1654)"
   id="g102">
            <path
   d="M 0.426,-0.58 V -0.729 H 0.189 c -0.043,0 -0.074,0.01 -0.103,0.043 -0.022,0.025 -0.032,0.048 -0.032,0.083 v 0.482 c 0,0.032 0.007,0.053 0.027,0.078 C 0.11,-0.007 0.152,0 0.189,0 H 0.425 V -0.148 H 0.209 V -0.309 H 0.414 V -0.455 H 0.209 V -0.58 Z"
   style="fill:#ffffff;fill-rule:nonzero"
   id="path100" />
        </g>
        <g
   transform="matrix(229.74,0,0,191.336,1317.92,96.1654)"
   id="g106">
            <path
   d="M 0.506,0.002 V -0.146 H 0.432 c -0.129,0 -0.227,-0.093 -0.227,-0.223 0,-0.123 0.103,-0.209 0.227,-0.209 H 0.504 V -0.729 H 0.432 c -0.223,0 -0.378,0.164 -0.378,0.36 0,0.203 0.161,0.371 0.378,0.371 z"
   style="fill:#ffffff;fill-rule:nonzero"
   id="path104" />
        </g>
        <g
   transform="matrix(229.74,0,0,191.336,1436,96.1654)"
   id="g110">
            <path
   d="M 0.426,-0.58 V -0.729 H 0.189 c -0.043,0 -0.074,0.01 -0.103,0.043 -0.022,0.025 -0.032,0.048 -0.032,0.083 v 0.482 c 0,0.032 0.007,0.053 0.027,0.078 C 0.11,-0.007 0.152,0 0.189,0 H 0.425 V -0.148 H 0.209 V -0.309 H 0.414 V -0.455 H 0.209 V -0.58 Z"
   style="fill:#ffffff;fill-rule:nonzero"
   id="path108" />
        </g>
        <g
   transform="matrix(229.74,0,0,191.336,1534.1,96.1654)"
   id="g114">
            <path
   d="M 0.586,-0.085 V -0.729 H 0.43 v 0.417 L 0.263,-0.661 C 0.238,-0.716 0.183,-0.756 0.125,-0.737 0.073,-0.72 0.053,-0.67 0.053,-0.616 v 0.617 h 0.15 V -0.454 L 0.39,-0.065 C 0.411,-0.021 0.445,0.01 0.493,0.007 0.544,0.002 0.586,-0.035 0.586,-0.085 Z"
   style="fill:#ffffff;fill-rule:nonzero"
   id="path112" />
        </g>
        <g
   transform="matrix(229.74,0,0,191.336,1669.42,96.1654)"
   id="g118">
            <path
   d="M 0.482,-0.581 V -0.729 H 0.053 v 0.147 H 0.19 V 0 h 0.159 v -0.581 z"
   style="fill:#ffffff;fill-rule:nonzero"
   id="path116" />
        </g>
    </g>
    <g
   transform="matrix(0.07341545,0,0,0.07341545,35.334071,5.484679)"
   id="g138">
        <g
   transform="matrix(229.74,0,0,191.336,1076,96.1654)"
   id="g124">
            <path
   d="m 0.517,-0.516 c 0,-0.124 -0.1,-0.228 -0.225,-0.229 -0.121,0 -0.227,0.092 -0.228,0.213 v 0.021 h 0.144 c -0.004,-0.043 0.033,-0.085 0.077,-0.085 0.038,0 0.069,0.025 0.077,0.062 0.008,0.03 -0.001,0.055 -0.021,0.077 L 0.09,-0.19 C 0.06,-0.158 0.044,-0.124 0.054,-0.081 0.068,-0.027 0.116,0.002 0.17,0.002 H 0.508 V -0.151 H 0.253 L 0.436,-0.34 c 0.052,-0.054 0.081,-0.101 0.081,-0.176 z"
   style="fill:#ffffff;fill-rule:nonzero"
   id="path122" />
        </g>
        <g
   transform="matrix(229.74,0,0,191.336,1194.32,96.1654)"
   id="g128">
            <path
   d="m 0.555,-0.232 v -0.254 c 0,-0.138 -0.112,-0.253 -0.249,-0.253 -0.139,-0.001 -0.252,0.114 -0.252,0.253 v 0.243 c 0,0.138 0.115,0.253 0.254,0.251 0.133,-0.001 0.247,-0.106 0.247,-0.24 z M 0.4,-0.241 c 0,0.054 -0.044,0.099 -0.097,0.099 -0.056,0.001 -0.099,-0.049 -0.099,-0.105 v -0.239 c 0,-0.057 0.044,-0.107 0.1,-0.106 C 0.359,-0.59 0.4,-0.544 0.4,-0.49 Z"
   style="fill:#ffffff;fill-rule:nonzero"
   id="path126" />
        </g>
        <g
   transform="matrix(229.74,0,0,191.336,1322.28,96.1654)"
   id="g132">
            <path
   d="m 0.573,0 v -0.729 h -0.16 v 0.363 H 0.233 L 0.402,-0.729 H 0.247 L 0.07,-0.38 c -0.018,0.038 -0.023,0.071 -0.004,0.109 0.021,0.042 0.062,0.056 0.11,0.056 H 0.414 V 0 Z"
   style="fill:#ffffff;fill-rule:nonzero"
   id="path130" />
        </g>
        <g
   transform="matrix(229.74,0,0,191.336,1454.84,96.1654)"
   id="g136">
            <path
   d="m 0.555,-0.232 v -0.254 c 0,-0.138 -0.112,-0.253 -0.249,-0.253 -0.139,-0.001 -0.252,0.114 -0.252,0.253 v 0.243 c 0,0.138 0.115,0.253 0.254,0.251 0.133,-0.001 0.247,-0.106 0.247,-0.24 z M 0.4,-0.241 c 0,0.054 -0.044,0.099 -0.097,0.099 -0.056,0.001 -0.099,-0.049 -0.099,-0.105 v -0.239 c 0,-0.057 0.044,-0.107 0.1,-0.106 C 0.359,-0.59 0.4,-0.544 0.4,-0.49 Z"
   style="fill:#ffffff;fill-rule:nonzero"
   id="path134" />
        </g>
    </g>
</svg>
