<?xml version="1.0" encoding="UTF-8" standalone="no"?>
<!DOCTYPE svg PUBLIC "-//W3C//DTD SVG 1.1//EN" "http://www.w3.org/Graphics/SVG/1.1/DTD/svg11.dtd">
<svg width="100%" height="100%" viewBox="0 0 811 308" version="1.1" xmlns="http://www.w3.org/2000/svg" xmlns:xlink="http://www.w3.org/1999/xlink" xml:space="preserve" xmlns:serif="http://www.serif.com/" style="fill-rule:evenodd;clip-rule:evenodd;stroke-linecap:round;stroke-linejoin:round;">
    <g>
        <g transform="matrix(1,0,0,1,-5.52756,-2.90551)">
            <path d="M132.52,270.213C130.965,270.213 129.685,271.492 129.685,273.047C129.685,274.602 130.965,275.882 132.52,275.882" style="fill:none;fill-rule:nonzero;stroke:black;stroke-width:0.28px;"/>
        </g>
        <g transform="matrix(1,0,0,1,-5.52756,-2.90551)">
            <path d="M132.52,275.882L206.22,275.882" style="fill:none;fill-rule:nonzero;stroke:black;stroke-width:0.28px;"/>
        </g>
        <g transform="matrix(1,0,0,1,-5.52756,-2.90551)">
            <path d="M132.52,270.213L206.22,270.213" style="fill:none;fill-rule:nonzero;stroke:black;stroke-width:0.28px;"/>
        </g>
        <g transform="matrix(1,0,0,1,-5.52756,-2.90551)">
            <path d="M206.22,275.882C207.776,275.882 209.055,274.602 209.055,273.047C209.055,271.492 207.776,270.213 206.22,270.213" style="fill:none;fill-rule:nonzero;stroke:black;stroke-width:0.28px;"/>
        </g>
        <g transform="matrix(1,0,0,1,0,-2.90551)">
            <path d="M323.858,275.882C325.413,275.882 326.693,274.602 326.693,273.047C326.693,271.492 325.413,270.213 323.858,270.213" style="fill:none;fill-rule:nonzero;stroke:black;stroke-width:0.28px;"/>
        </g>
        <g transform="matrix(1,0,0,1,0,-2.90551)">
            <path d="M250.157,270.213C248.602,270.213 247.323,271.492 247.323,273.047C247.323,274.602 248.602,275.882 250.157,275.882" style="fill:none;fill-rule:nonzero;stroke:black;stroke-width:0.28px;"/>
        </g>
        <g transform="matrix(1,0,0,1,0,-2.90551)">
            <path d="M250.157,270.213L323.858,270.213" style="fill:none;fill-rule:nonzero;stroke:black;stroke-width:0.28px;"/>
        </g>
        <g transform="matrix(1,0,0,1,0,-2.90551)">
            <path d="M250.157,275.882L323.858,275.882" style="fill:none;fill-rule:nonzero;stroke:black;stroke-width:0.28px;"/>
        </g>
        <g transform="matrix(1,0,0,1,5.81102,-2.90551)">
            <path d="M676.772,275.882C678.327,275.882 679.606,274.602 679.606,273.047C679.606,271.492 678.327,270.213 676.772,270.213" style="fill:none;fill-rule:nonzero;stroke:black;stroke-width:0.28px;"/>
        </g>
        <g transform="matrix(1,0,0,1,5.81102,-2.90551)">
            <path d="M603.071,270.213C601.516,270.213 600.236,271.492 600.236,273.047C600.236,274.602 601.516,275.882 603.071,275.882" style="fill:none;fill-rule:nonzero;stroke:black;stroke-width:0.28px;"/>
        </g>
        <g transform="matrix(1,0,0,1,5.81102,-2.90551)">
            <path d="M603.071,270.213L676.772,270.213" style="fill:none;fill-rule:nonzero;stroke:black;stroke-width:0.28px;"/>
        </g>
        <g transform="matrix(1,0,0,1,5.81102,-2.90551)">
            <path d="M603.071,275.882L676.772,275.882" style="fill:none;fill-rule:nonzero;stroke:black;stroke-width:0.28px;"/>
        </g>
        <g transform="matrix(1,0,0,1,0,-2.90551)">
            <path d="M559.134,275.882C560.689,275.882 561.969,274.602 561.969,273.047C561.969,271.492 560.689,270.213 559.134,270.213" style="fill:none;fill-rule:nonzero;stroke:black;stroke-width:0.28px;"/>
        </g>
        <g transform="matrix(1,0,0,1,0,-2.90551)">
            <path d="M485.433,270.213C483.878,270.213 482.598,271.492 482.598,273.047C482.598,274.602 483.878,275.882 485.433,275.882" style="fill:none;fill-rule:nonzero;stroke:black;stroke-width:0.28px;"/>
        </g>
        <g transform="matrix(1,0,0,1,0,-2.90551)">
            <path d="M485.433,270.213L559.134,270.213" style="fill:none;fill-rule:nonzero;stroke:black;stroke-width:0.28px;"/>
        </g>
        <g transform="matrix(1,0,0,1,0,-2.90551)">
            <path d="M485.433,275.882L559.134,275.882" style="fill:none;fill-rule:nonzero;stroke:black;stroke-width:0.28px;"/>
        </g>
        <g transform="matrix(1,0,0,1,0,-2.90551)">
            <path d="M367.795,270.213C366.24,270.213 364.961,271.492 364.961,273.047C364.961,274.602 366.24,275.882 367.795,275.882" style="fill:none;fill-rule:nonzero;stroke:black;stroke-width:0.28px;"/>
        </g>
        <g transform="matrix(1,0,0,1,0,-2.90551)">
            <path d="M441.496,275.882C443.051,275.882 444.331,274.602 444.331,273.047C444.331,271.492 443.051,270.213 441.496,270.213" style="fill:none;fill-rule:nonzero;stroke:black;stroke-width:0.28px;"/>
        </g>
        <g transform="matrix(1,0,0,1,0,-2.90551)">
            <path d="M367.795,270.213L441.496,270.213" style="fill:none;fill-rule:nonzero;stroke:black;stroke-width:0.28px;"/>
        </g>
        <g transform="matrix(1,0,0,1,0,-2.90551)">
            <path d="M367.795,275.882L441.496,275.882" style="fill:none;fill-rule:nonzero;stroke:black;stroke-width:0.28px;"/>
        </g>
    </g>
    <g>
        <g transform="matrix(1,0,0,1,0,-2.90551)">
            <path d="M183.118,108.496L228.472,108.496" style="fill:none;fill-rule:nonzero;stroke:black;stroke-width:0.43px;"/>
        </g>
        <g transform="matrix(1,0,0,1,0,-2.90551)">
            <path d="M183.118,108.496C180.786,108.496 178.866,110.415 178.866,112.748C178.866,115.081 180.786,117 183.118,117" style="fill:none;fill-rule:nonzero;stroke:black;stroke-width:0.43px;"/>
        </g>
        <g transform="matrix(1,0,0,1,0,-2.90551)">
            <path d="M228.472,117C230.805,117 232.724,115.081 232.724,112.748C232.724,110.415 230.805,108.496 228.472,108.496" style="fill:none;fill-rule:nonzero;stroke:black;stroke-width:0.43px;"/>
        </g>
        <g transform="matrix(1,0,0,1,0,-2.90551)">
            <path d="M183.118,117L228.472,117" style="fill:none;fill-rule:nonzero;stroke:black;stroke-width:0.43px;"/>
        </g>
        <g transform="matrix(1,0,0,1,0,-2.90551)">
            <path d="M580.819,108.496C578.486,108.496 576.567,110.415 576.567,112.748C576.567,115.081 578.486,117 580.819,117" style="fill:none;fill-rule:nonzero;stroke:black;stroke-width:0.43px;"/>
        </g>
        <g transform="matrix(1,0,0,1,0,-2.90551)">
            <path d="M626.173,117C628.506,117 630.425,115.081 630.425,112.748C630.425,110.415 628.506,108.496 626.173,108.496" style="fill:none;fill-rule:nonzero;stroke:black;stroke-width:0.43px;"/>
        </g>
        <g transform="matrix(1,0,0,1,0,-2.90551)">
            <path d="M580.819,108.496L626.173,108.496" style="fill:none;fill-rule:nonzero;stroke:black;stroke-width:0.43px;"/>
        </g>
        <g transform="matrix(1,0,0,1,0,-2.90551)">
            <path d="M580.819,117L626.173,117" style="fill:none;fill-rule:nonzero;stroke:black;stroke-width:0.43px;"/>
        </g>
        <g transform="matrix(1,0,0,1,-0.708661,-2.19685)">
            <circle cx="781.795" cy="161.079" r="9.213" style="fill:none;stroke:black;stroke-width:0.43px;"/>
        </g>
        <g transform="matrix(1,0,0,1,0,-2.90551)">
            <path d="M381.969,108.496C379.636,108.496 377.717,110.415 377.717,112.748C377.717,115.081 379.636,117 381.969,117" style="fill:none;fill-rule:nonzero;stroke:black;stroke-width:0.43px;"/>
        </g>
        <g transform="matrix(1,0,0,1,0,-2.90551)">
            <path d="M427.323,117C429.655,117 431.575,115.081 431.575,112.748C431.575,110.415 429.655,108.496 427.323,108.496" style="fill:none;fill-rule:nonzero;stroke:black;stroke-width:0.43px;"/>
        </g>
        <g transform="matrix(1,0,0,1,0,-2.90551)">
            <path d="M381.969,108.496L427.323,108.496" style="fill:none;fill-rule:nonzero;stroke:black;stroke-width:0.43px;"/>
        </g>
        <g transform="matrix(1,0,0,1,0,-2.90551)">
            <path d="M381.969,117L427.323,117" style="fill:none;fill-rule:nonzero;stroke:black;stroke-width:0.43px;"/>
        </g>
        <g transform="matrix(0.618025,0,0,0.699029,305.388,59.7312)">
            <rect x="737.83" y="27.283" width="64.213" height="56.772" style="fill:none;stroke:black;stroke-width:0.61px;stroke-miterlimit:1.5;"/>
        </g>
        <g transform="matrix(0.618025,0,0,0.699029,305.388,180.204)">
            <rect x="737.83" y="27.283" width="64.213" height="56.772" style="fill:none;stroke:black;stroke-width:0.61px;stroke-miterlimit:1.5;"/>
        </g>
        <g transform="matrix(0.618025,0,0,0.699029,305.388,231.227)">
            <rect x="737.83" y="27.283" width="64.213" height="56.772" style="fill:none;stroke:black;stroke-width:0.61px;stroke-miterlimit:1.5;"/>
        </g>
        <g transform="matrix(0.618025,0,0,0.699029,305.388,8.70759)">
            <rect x="737.83" y="27.283" width="64.213" height="56.772" style="fill:none;stroke:black;stroke-width:0.61px;stroke-miterlimit:1.5;"/>
        </g>
    </g>
    <g>
        <circle cx="584.929" cy="298.134" r="3.969" style="fill:none;stroke:black;stroke-width:0.28px;"/>
        <circle cx="226.063" cy="298.134" r="3.969" style="fill:none;stroke:black;stroke-width:0.28px;"/>
        <g transform="matrix(0.979532,0,0,1,16.4803,0)">
            <path d="M611.291,0.213L805.181,0.213" style="fill:none;fill-rule:nonzero;stroke:black;stroke-width:0.28px;"/>
        </g>
        <g transform="matrix(0.937879,0,0,1,33.2661,0)">
            <path d="M412.299,0.213L599.386,0.213" style="fill:none;fill-rule:nonzero;stroke:black;stroke-width:0.28px;"/>
        </g>
    </g>
    <g>
        <g transform="matrix(1,0,0,1,-3.9685,0)">
            <path d="M599.386,0.213L599.386,3.898" style="fill:none;fill-rule:nonzero;stroke:black;stroke-width:0.43px;"/>
        </g>
        <g transform="matrix(1.66667,0,0,1.66667,-403.559,-2.59843)">
            <path d="M599.386,3.898C599.386,7.163 602.073,9.85 605.339,9.85C608.604,9.85 611.291,7.163 611.291,3.898" style="fill:none;fill-rule:nonzero;stroke:black;stroke-width:0.24px;"/>
        </g>
        <g transform="matrix(1,0,0,1,3.9685,0)">
            <path d="M611.291,0.213L611.291,3.898" style="fill:none;fill-rule:nonzero;stroke:black;stroke-width:0.43px;"/>
        </g>
        <g transform="matrix(1,0,0,1,7.51181,0)">
            <path d="M412.299,0.213L412.299,3.898" style="fill:none;fill-rule:nonzero;stroke:black;stroke-width:0.43px;"/>
        </g>
        <g transform="matrix(1,0,0,1,-7.51181,0)">
            <path d="M400.394,0.213L400.394,3.898" style="fill:none;fill-rule:nonzero;stroke:black;stroke-width:0.43px;"/>
        </g>
        <g transform="matrix(2.2619,0,0,2.2619,-512.771,-4.91845)">
            <path d="M400.394,3.898C400.394,7.163 403.081,9.85 406.346,9.85C409.612,9.85 412.299,7.163 412.299,3.898" style="fill:none;fill-rule:nonzero;stroke:black;stroke-width:0.18px;"/>
        </g>
    </g>
    <g transform="matrix(0.937879,0,0,1,17.2194,0)">
        <path d="M213.307,0.213L400.394,0.213" style="fill:none;fill-rule:nonzero;stroke:black;stroke-width:0.28px;"/>
    </g>
    <g>
        <g transform="matrix(1.66667,0,0,1.66667,-138.236,-2.59843)">
            <path d="M201.402,3.898C201.402,7.163 204.089,9.85 207.354,9.85C210.62,9.85 213.307,7.163 213.307,3.898" style="fill:none;fill-rule:nonzero;stroke:black;stroke-width:0.24px;"/>
        </g>
        <g transform="matrix(1,0,0,1,3.82677,0)">
            <path d="M213.307,0.213L213.307,3.898" style="fill:none;fill-rule:nonzero;stroke:black;stroke-width:0.43px;"/>
        </g>
        <g transform="matrix(1,0,0,1,-3.82677,0)">
            <path d="M201.402,0.213L201.402,3.898" style="fill:none;fill-rule:nonzero;stroke:black;stroke-width:0.43px;"/>
        </g>
    </g>
    <g>
        <path d="M377.717,306.921L5.811,306.921" style="fill:none;fill-rule:nonzero;stroke:black;stroke-width:0.28px;"/>
        <path d="M418.819,294.165L431.575,306.921" style="fill:none;fill-rule:nonzero;stroke:black;stroke-width:0.28px;"/>
        <path d="M390.472,294.165L418.819,294.165" style="fill:none;fill-rule:nonzero;stroke:black;stroke-width:0.28px;"/>
        <path d="M377.717,306.921L390.472,294.165" style="fill:none;fill-rule:nonzero;stroke:black;stroke-width:0.28px;"/>
        <path d="M0.142,301.252C0.142,304.362 2.701,306.921 5.811,306.921" style="fill:none;fill-rule:nonzero;stroke:black;stroke-width:0.28px;"/>
        <path d="M5.811,0.213C2.701,0.213 0.142,2.772 0.142,5.882" style="fill:none;fill-rule:nonzero;stroke:black;stroke-width:0.28px;"/>
        <path d="M810.85,5.882C810.85,2.772 808.291,0.213 805.181,0.213" style="fill:none;fill-rule:nonzero;stroke:black;stroke-width:0.28px;"/>
        <path d="M805.181,306.921C808.291,306.921 810.85,304.362 810.85,301.252" style="fill:none;fill-rule:nonzero;stroke:black;stroke-width:0.28px;"/>
        <path d="M0.142,301.252L0.142,5.882" style="fill:none;fill-rule:nonzero;stroke:black;stroke-width:0.28px;"/>
        <g transform="matrix(0.981159,0,0,1,0.109483,0)">
            <path d="M5.811,0.213L201.402,0.213" style="fill:none;fill-rule:nonzero;stroke:black;stroke-width:0.28px;"/>
        </g>
        <path d="M810.85,5.882L810.85,301.252" style="fill:none;fill-rule:nonzero;stroke:black;stroke-width:0.28px;"/>
        <path d="M805.181,306.921L431.575,306.921" style="fill:none;fill-rule:nonzero;stroke:black;stroke-width:0.28px;"/>
    </g>
</svg>
