<?xml version="1.0" encoding="UTF-8" standalone="no"?>
<!DOCTYPE svg PUBLIC "-//W3C//DTD SVG 1.1//EN" "http://www.w3.org/Graphics/SVG/1.1/DTD/svg11.dtd">
<svg width="100%" height="100%" viewBox="0 0 1821 205" version="1.1" xmlns="http://www.w3.org/2000/svg" xmlns:xlink="http://www.w3.org/1999/xlink" xml:space="preserve" xmlns:serif="http://www.serif.com/" style="fill-rule:evenodd;clip-rule:evenodd;stroke-linejoin:round;stroke-miterlimit:2;">
    <path d="M0,204.331L203.848,-0L1820.18,-0L1615.38,204.331L0,204.331ZM475.982,129.92C475.982,81.147 420.414,96.239 420.414,72.68C420.414,64.214 429.99,58.14 439.934,58.14C446.01,58.14 452.451,59.245 458.701,62.374L470.467,68.447L470.467,39.389L459.437,35.529C453.002,33.507 446.379,32.404 439.934,32.404C411.221,32.404 392.469,48.397 392.469,72.68C392.469,123.294 449.141,107.834 449.141,129.92C449.141,140.411 439.749,143.907 428.701,143.907C422.072,143.907 415.082,142.62 409.567,140.411L393.021,133.601L393.021,162.66L404.419,166.52C411.589,169.094 420.046,170.749 428.701,170.749C455.76,170.749 475.982,153.467 475.982,129.92ZM1504.55,127.675C1504.55,116.442 1498.67,106.325 1491.5,98.604C1497.2,91.618 1502.34,82.603 1502.34,72.659C1502.34,50.207 1484.14,32.007 1461.51,32.007C1439.05,32.007 1420.85,50.207 1420.85,72.659C1420.85,82.972 1426,91.986 1432.07,99.156C1425.27,106.693 1419.75,116.81 1419.75,127.675C1419.75,151.048 1438.69,170.168 1462.06,170.168C1485.43,170.168 1504.55,151.048 1504.55,127.675ZM1477.16,127.675C1477.16,135.961 1470.35,142.59 1462.06,142.59C1453.77,142.59 1446.96,135.961 1446.96,127.675C1446.96,119.573 1453.77,112.576 1462.06,112.576C1470.35,112.576 1477.16,119.573 1477.16,127.675ZM1475.5,72.659C1475.5,80.393 1469.42,86.655 1461.69,86.655C1454.14,86.655 1447.88,80.393 1447.88,72.659C1447.88,65.109 1454.14,58.848 1461.69,58.848C1469.42,58.848 1475.5,65.109 1475.5,72.659ZM529.158,168.725L529.158,34.589L500.293,34.589L500.293,168.725L529.158,168.725ZM656.118,100.288C655.566,63.481 625.044,34.772 588.226,34.589L577.736,34.589C569.463,34.589 563.212,36.244 557.696,42.501C552.732,48.022 551.813,52.991 551.813,60.537L551.813,145.744C551.813,152.369 552.916,156.97 557.145,161.939C562.476,168.361 569.095,169.093 577.368,169.093L589.514,169.093C626.517,169.277 656.854,137.463 656.118,100.288ZM627.069,101.392C627.069,125.316 604.426,145.376 580.494,142.248L580.494,60.905C604.242,57.776 626.885,77.468 627.069,101.392ZM744.622,62.005L744.622,34.612L701.017,34.612C693.111,34.612 687.412,36.45 682.08,42.517C678.036,47.113 676.197,51.342 676.197,57.776L676.197,146.479C676.197,152.363 677.484,156.223 681.161,160.819C686.493,167.438 694.215,168.725 701.017,168.725L744.438,168.725L744.438,141.516L704.694,141.516L704.694,111.869L742.414,111.869L742.414,85.028L704.694,85.028L704.694,62.005L744.622,62.005ZM262.044,35.281C258.158,35.271 254.207,35.603 250.246,36.303C234.067,39.164 220.283,47.662 210.551,59.42L228.197,159.688C241.352,167.403 257.203,170.666 273.388,167.805C309.621,161.398 333.813,126.771 327.427,90.458C321.738,58.116 293.712,35.351 262.047,35.281L262.044,35.281ZM211.702,61.416C227.052,70.779 238.473,86.452 241.84,105.578C245.205,124.705 239.83,143.358 228.599,157.419L211.702,61.416ZM1297.07,168.307L1246.74,96.082L1289.14,34.471L1245.25,34.471L1225.41,66.009L1205.08,34.471L1160.94,34.471L1203.84,96.082L1154.75,168.671L1199.87,168.671L1225.66,128.721L1250.7,168.307L1297.07,168.307ZM979.602,168.725L943.538,47.841C940.594,38.086 932.682,31.279 922.194,31.645C912.074,32.013 904.714,38.455 901.954,48.209L866.994,168.725L898.642,168.725L904.714,143.149L940.594,143.149L947.77,168.725L979.602,168.725ZM933.786,115.388L912.074,115.388L923.114,76.737L933.786,115.388ZM1396.59,61.971L1396.59,34.678L1337.83,34.678C1327.17,34.678 1319.49,36.509 1312.31,42.554C1306.86,47.134 1304.38,51.347 1304.38,57.758L1304.38,146.14C1304.38,152.002 1306.11,155.849 1311.07,160.428C1318.25,167.022 1328.66,168.305 1337.83,168.305L1396.34,168.305L1396.34,141.194L1342.78,141.194L1342.78,111.655L1393.61,111.655L1393.61,84.911L1342.78,84.911L1342.78,61.971L1396.59,61.971ZM847.11,169.093L847.11,141.884L833.494,141.884C809.758,141.884 791.726,124.767 791.726,100.84C791.726,78.201 810.678,62.373 833.494,62.373L846.742,62.373L846.742,34.612L833.494,34.612C792.462,34.612 763.965,64.765 763.965,100.84C763.965,138.203 793.566,169.093 833.494,169.093L847.11,169.093ZM1613.66,126.572C1614.4,101.541 1594.36,80.031 1569.52,80.031L1553.5,80.031L1553.5,61.24L1604.47,61.24L1604.47,33.663L1526.84,33.663L1526.84,85.73C1526.84,92.164 1528.12,97.128 1532.72,101.541C1537.13,105.585 1540.99,106.872 1546.88,106.872L1566.75,106.872C1577.06,106.872 1586.45,113.868 1586.64,123.994C1586.82,133.753 1579.27,142.222 1569.7,142.591C1559.57,142.958 1551.11,134.121 1551.66,123.994L1523.34,123.994C1523.16,149.209 1543.93,170.168 1569.15,169.984C1593.26,169.8 1612.93,150.496 1613.66,126.572ZM1092.57,169.093L1057.81,107.462C1073.44,101.757 1082.63,90.163 1083.18,73.599C1083.73,50.974 1061.86,34.796 1039.03,34.612L1023.57,34.612C1014.93,34.612 1007.94,36.266 1002.79,43.253C999.484,47.665 998.565,51.526 998.565,57.225L998.565,168.91L1026.88,168.91L1026.88,107.278L1059.47,169.093L1092.57,169.093ZM1054.87,75.439C1053.21,93.659 1038.3,83.721 1031.11,93.291C1028.9,96.236 1028.72,97.156 1027.06,101.573L1027.06,61.453L1040.87,61.453C1048.61,61.453 1055.61,67.893 1054.87,75.439Z"/>
</svg>
