G04 #@! TF.GenerationSoftware,KiCad,Pcbnew,(5.1.10)-1*
G04 #@! TF.CreationDate,2021-11-03T18:24:15-07:00*
G04 #@! TF.ProjectId,AtariKeyboardTester,41746172-694b-4657-9962-6f6172645465,A*
G04 #@! TF.SameCoordinates,Original*
G04 #@! TF.FileFunction,Soldermask,Bot*
G04 #@! TF.FilePolarity,Negative*
%FSLAX46Y46*%
G04 Gerber Fmt 4.6, Leading zero omitted, Abs format (unit mm)*
G04 Created by KiCad (PCBNEW (5.1.10)-1) date 2021-11-03 18:24:15*
%MOMM*%
%LPD*%
G01*
G04 APERTURE LIST*
%ADD10C,1.600000*%
%ADD11O,1.600000X1.600000*%
%ADD12C,2.200000*%
%ADD13O,1.700000X1.700000*%
%ADD14R,1.700000X1.700000*%
%ADD15C,3.450000*%
%ADD16C,2.000000*%
%ADD17R,2.000000X2.000000*%
%ADD18R,1.800000X1.100000*%
%ADD19R,1.100000X1.800000*%
%ADD20C,1.800000*%
%ADD21R,1.800000X1.800000*%
%ADD22C,1.700000*%
G04 APERTURE END LIST*
D10*
X100965000Y-97790000D03*
D11*
X100965000Y-105410000D03*
D10*
X97790000Y-97790000D03*
D11*
X97790000Y-105410000D03*
D10*
X94615000Y-97790000D03*
D11*
X94615000Y-105410000D03*
D10*
X91440000Y-97790000D03*
D11*
X91440000Y-105410000D03*
D10*
X88265000Y-97790000D03*
D11*
X88265000Y-105410000D03*
D10*
X85090000Y-97790000D03*
D11*
X85090000Y-105410000D03*
D10*
X81915000Y-97790000D03*
D11*
X81915000Y-105410000D03*
D10*
X78740000Y-97790000D03*
D11*
X78740000Y-105410000D03*
D10*
X75565000Y-97790000D03*
D11*
X75565000Y-105410000D03*
D10*
X72390000Y-97790000D03*
D11*
X72390000Y-105410000D03*
D10*
X69215000Y-97790000D03*
D11*
X69215000Y-105410000D03*
D10*
X66040000Y-97790000D03*
D11*
X66040000Y-105410000D03*
D10*
X62865000Y-97790000D03*
D11*
X62865000Y-105410000D03*
D10*
X59690000Y-97790000D03*
D11*
X59690000Y-105410000D03*
D10*
X140970000Y-50800000D03*
D11*
X140970000Y-43180000D03*
D10*
X135890000Y-50800000D03*
D11*
X135890000Y-43180000D03*
D10*
X130810000Y-50800000D03*
D11*
X130810000Y-43180000D03*
D10*
X125730000Y-50800000D03*
D11*
X125730000Y-43180000D03*
D10*
X120650000Y-50800000D03*
D11*
X120650000Y-43180000D03*
D10*
X115570000Y-50800000D03*
D11*
X115570000Y-43180000D03*
D10*
X110490000Y-50800000D03*
D11*
X110490000Y-43180000D03*
D10*
X105410000Y-50800000D03*
D11*
X105410000Y-43180000D03*
D10*
X100330000Y-50800000D03*
D11*
X100330000Y-43180000D03*
D10*
X95250000Y-50800000D03*
D11*
X95250000Y-43180000D03*
D10*
X90170000Y-50800000D03*
D11*
X90170000Y-43180000D03*
D10*
X85090000Y-50800000D03*
D11*
X85090000Y-43180000D03*
D10*
X80010000Y-50800000D03*
D11*
X80010000Y-43180000D03*
D10*
X74930000Y-50800000D03*
D11*
X74930000Y-43180000D03*
D10*
X69850000Y-50800000D03*
D11*
X69850000Y-43180000D03*
D10*
X64770000Y-50800000D03*
D11*
X64770000Y-43180000D03*
D10*
X59690000Y-50800000D03*
D11*
X59690000Y-43180000D03*
D10*
X54610000Y-50800000D03*
D11*
X54610000Y-43180000D03*
D10*
X49530000Y-50800000D03*
D11*
X49530000Y-43180000D03*
D10*
X44450000Y-50800000D03*
D11*
X44450000Y-43180000D03*
D10*
X39370000Y-50800000D03*
D11*
X39370000Y-43180000D03*
D10*
X34290000Y-50800000D03*
D11*
X34290000Y-43180000D03*
D10*
X29210000Y-50800000D03*
D11*
X29210000Y-43180000D03*
D10*
X24130000Y-50800000D03*
D11*
X24130000Y-43180000D03*
D12*
X146685000Y-24130000D03*
X146685000Y-142875000D03*
X23495000Y-142875000D03*
X23495000Y-24130000D03*
D13*
X91440000Y-83820000D03*
X91440000Y-81280000D03*
D14*
X91440000Y-78740000D03*
D13*
X88900000Y-83820000D03*
X88900000Y-81280000D03*
D14*
X88900000Y-78740000D03*
D13*
X86360000Y-83820000D03*
X86360000Y-81280000D03*
D14*
X86360000Y-78740000D03*
D13*
X83820000Y-83820000D03*
X83820000Y-81280000D03*
D14*
X83820000Y-78740000D03*
D13*
X81280000Y-83820000D03*
X81280000Y-81280000D03*
D14*
X81280000Y-78740000D03*
D13*
X78740000Y-83820000D03*
X78740000Y-81280000D03*
D14*
X78740000Y-78740000D03*
D13*
X76200000Y-83820000D03*
X76200000Y-81280000D03*
D14*
X76200000Y-78740000D03*
D13*
X73660000Y-83820000D03*
X73660000Y-81280000D03*
D14*
X73660000Y-78740000D03*
D13*
X71120000Y-83820000D03*
X71120000Y-81280000D03*
D14*
X71120000Y-78740000D03*
D13*
X68580000Y-83820000D03*
X68580000Y-81280000D03*
D14*
X68580000Y-78740000D03*
D13*
X66040000Y-83820000D03*
X66040000Y-81280000D03*
D14*
X66040000Y-78740000D03*
D13*
X63500000Y-83820000D03*
X63500000Y-81280000D03*
D14*
X63500000Y-78740000D03*
D13*
X60960000Y-83820000D03*
X60960000Y-81280000D03*
D14*
X60960000Y-78740000D03*
D13*
X58420000Y-83820000D03*
X58420000Y-81280000D03*
D14*
X58420000Y-78740000D03*
D13*
X55880000Y-83820000D03*
X55880000Y-81280000D03*
D14*
X55880000Y-78740000D03*
D13*
X53340000Y-83820000D03*
X53340000Y-81280000D03*
D14*
X53340000Y-78740000D03*
D13*
X50800000Y-83820000D03*
X50800000Y-81280000D03*
D14*
X50800000Y-78740000D03*
D13*
X48260000Y-83850000D03*
X48260000Y-81310000D03*
D14*
X48260000Y-78770000D03*
D13*
X45720000Y-83850000D03*
X45720000Y-81310000D03*
D14*
X45720000Y-78770000D03*
D13*
X43180000Y-83790000D03*
X43180000Y-81250000D03*
D14*
X43180000Y-78710000D03*
D13*
X40640000Y-83820000D03*
X40640000Y-81280000D03*
D14*
X40640000Y-78740000D03*
D13*
X38100000Y-83820000D03*
X38100000Y-81280000D03*
D14*
X38100000Y-78740000D03*
D13*
X35560000Y-83820000D03*
X35560000Y-81280000D03*
D14*
X35560000Y-78740000D03*
D13*
X33020000Y-83820000D03*
X33020000Y-81280000D03*
D14*
X33020000Y-78740000D03*
D15*
X106805000Y-73850000D03*
D16*
X145415000Y-69850000D03*
D17*
X145415000Y-82550000D03*
D18*
X135490000Y-137160000D03*
G36*
G01*
X134865000Y-139150000D02*
X136115000Y-139150000D01*
G75*
G02*
X136390000Y-139425000I0J-275000D01*
G01*
X136390000Y-139975000D01*
G75*
G02*
X136115000Y-140250000I-275000J0D01*
G01*
X134865000Y-140250000D01*
G75*
G02*
X134590000Y-139975000I0J275000D01*
G01*
X134590000Y-139425000D01*
G75*
G02*
X134865000Y-139150000I275000J0D01*
G01*
G37*
G36*
G01*
X136935000Y-137880000D02*
X138185000Y-137880000D01*
G75*
G02*
X138460000Y-138155000I0J-275000D01*
G01*
X138460000Y-138705000D01*
G75*
G02*
X138185000Y-138980000I-275000J0D01*
G01*
X136935000Y-138980000D01*
G75*
G02*
X136660000Y-138705000I0J275000D01*
G01*
X136660000Y-138155000D01*
G75*
G02*
X136935000Y-137880000I275000J0D01*
G01*
G37*
X135490000Y-131445000D03*
G36*
G01*
X134865000Y-133435000D02*
X136115000Y-133435000D01*
G75*
G02*
X136390000Y-133710000I0J-275000D01*
G01*
X136390000Y-134260000D01*
G75*
G02*
X136115000Y-134535000I-275000J0D01*
G01*
X134865000Y-134535000D01*
G75*
G02*
X134590000Y-134260000I0J275000D01*
G01*
X134590000Y-133710000D01*
G75*
G02*
X134865000Y-133435000I275000J0D01*
G01*
G37*
G36*
G01*
X136935000Y-132165000D02*
X138185000Y-132165000D01*
G75*
G02*
X138460000Y-132440000I0J-275000D01*
G01*
X138460000Y-132990000D01*
G75*
G02*
X138185000Y-133265000I-275000J0D01*
G01*
X136935000Y-133265000D01*
G75*
G02*
X136660000Y-132990000I0J275000D01*
G01*
X136660000Y-132440000D01*
G75*
G02*
X136935000Y-132165000I275000J0D01*
G01*
G37*
X135490000Y-125730000D03*
G36*
G01*
X134865000Y-127720000D02*
X136115000Y-127720000D01*
G75*
G02*
X136390000Y-127995000I0J-275000D01*
G01*
X136390000Y-128545000D01*
G75*
G02*
X136115000Y-128820000I-275000J0D01*
G01*
X134865000Y-128820000D01*
G75*
G02*
X134590000Y-128545000I0J275000D01*
G01*
X134590000Y-127995000D01*
G75*
G02*
X134865000Y-127720000I275000J0D01*
G01*
G37*
G36*
G01*
X136935000Y-126450000D02*
X138185000Y-126450000D01*
G75*
G02*
X138460000Y-126725000I0J-275000D01*
G01*
X138460000Y-127275000D01*
G75*
G02*
X138185000Y-127550000I-275000J0D01*
G01*
X136935000Y-127550000D01*
G75*
G02*
X136660000Y-127275000I0J275000D01*
G01*
X136660000Y-126725000D01*
G75*
G02*
X136935000Y-126450000I275000J0D01*
G01*
G37*
X135490000Y-120015000D03*
G36*
G01*
X134865000Y-122005000D02*
X136115000Y-122005000D01*
G75*
G02*
X136390000Y-122280000I0J-275000D01*
G01*
X136390000Y-122830000D01*
G75*
G02*
X136115000Y-123105000I-275000J0D01*
G01*
X134865000Y-123105000D01*
G75*
G02*
X134590000Y-122830000I0J275000D01*
G01*
X134590000Y-122280000D01*
G75*
G02*
X134865000Y-122005000I275000J0D01*
G01*
G37*
G36*
G01*
X136935000Y-120735000D02*
X138185000Y-120735000D01*
G75*
G02*
X138460000Y-121010000I0J-275000D01*
G01*
X138460000Y-121560000D01*
G75*
G02*
X138185000Y-121835000I-275000J0D01*
G01*
X136935000Y-121835000D01*
G75*
G02*
X136660000Y-121560000I0J275000D01*
G01*
X136660000Y-121010000D01*
G75*
G02*
X136935000Y-120735000I275000J0D01*
G01*
G37*
X135490000Y-114300000D03*
G36*
G01*
X134865000Y-116290000D02*
X136115000Y-116290000D01*
G75*
G02*
X136390000Y-116565000I0J-275000D01*
G01*
X136390000Y-117115000D01*
G75*
G02*
X136115000Y-117390000I-275000J0D01*
G01*
X134865000Y-117390000D01*
G75*
G02*
X134590000Y-117115000I0J275000D01*
G01*
X134590000Y-116565000D01*
G75*
G02*
X134865000Y-116290000I275000J0D01*
G01*
G37*
G36*
G01*
X136935000Y-115020000D02*
X138185000Y-115020000D01*
G75*
G02*
X138460000Y-115295000I0J-275000D01*
G01*
X138460000Y-115845000D01*
G75*
G02*
X138185000Y-116120000I-275000J0D01*
G01*
X136935000Y-116120000D01*
G75*
G02*
X136660000Y-115845000I0J275000D01*
G01*
X136660000Y-115295000D01*
G75*
G02*
X136935000Y-115020000I275000J0D01*
G01*
G37*
X135490000Y-108585000D03*
G36*
G01*
X134865000Y-110575000D02*
X136115000Y-110575000D01*
G75*
G02*
X136390000Y-110850000I0J-275000D01*
G01*
X136390000Y-111400000D01*
G75*
G02*
X136115000Y-111675000I-275000J0D01*
G01*
X134865000Y-111675000D01*
G75*
G02*
X134590000Y-111400000I0J275000D01*
G01*
X134590000Y-110850000D01*
G75*
G02*
X134865000Y-110575000I275000J0D01*
G01*
G37*
G36*
G01*
X136935000Y-109305000D02*
X138185000Y-109305000D01*
G75*
G02*
X138460000Y-109580000I0J-275000D01*
G01*
X138460000Y-110130000D01*
G75*
G02*
X138185000Y-110405000I-275000J0D01*
G01*
X136935000Y-110405000D01*
G75*
G02*
X136660000Y-110130000I0J275000D01*
G01*
X136660000Y-109580000D01*
G75*
G02*
X136935000Y-109305000I275000J0D01*
G01*
G37*
X135490000Y-102870000D03*
G36*
G01*
X134865000Y-104860000D02*
X136115000Y-104860000D01*
G75*
G02*
X136390000Y-105135000I0J-275000D01*
G01*
X136390000Y-105685000D01*
G75*
G02*
X136115000Y-105960000I-275000J0D01*
G01*
X134865000Y-105960000D01*
G75*
G02*
X134590000Y-105685000I0J275000D01*
G01*
X134590000Y-105135000D01*
G75*
G02*
X134865000Y-104860000I275000J0D01*
G01*
G37*
G36*
G01*
X136935000Y-103590000D02*
X138185000Y-103590000D01*
G75*
G02*
X138460000Y-103865000I0J-275000D01*
G01*
X138460000Y-104415000D01*
G75*
G02*
X138185000Y-104690000I-275000J0D01*
G01*
X136935000Y-104690000D01*
G75*
G02*
X136660000Y-104415000I0J275000D01*
G01*
X136660000Y-103865000D01*
G75*
G02*
X136935000Y-103590000I275000J0D01*
G01*
G37*
X135490000Y-97155000D03*
G36*
G01*
X134865000Y-99145000D02*
X136115000Y-99145000D01*
G75*
G02*
X136390000Y-99420000I0J-275000D01*
G01*
X136390000Y-99970000D01*
G75*
G02*
X136115000Y-100245000I-275000J0D01*
G01*
X134865000Y-100245000D01*
G75*
G02*
X134590000Y-99970000I0J275000D01*
G01*
X134590000Y-99420000D01*
G75*
G02*
X134865000Y-99145000I275000J0D01*
G01*
G37*
G36*
G01*
X136935000Y-97875000D02*
X138185000Y-97875000D01*
G75*
G02*
X138460000Y-98150000I0J-275000D01*
G01*
X138460000Y-98700000D01*
G75*
G02*
X138185000Y-98975000I-275000J0D01*
G01*
X136935000Y-98975000D01*
G75*
G02*
X136660000Y-98700000I0J275000D01*
G01*
X136660000Y-98150000D01*
G75*
G02*
X136935000Y-97875000I275000J0D01*
G01*
G37*
X135490000Y-91440000D03*
G36*
G01*
X134865000Y-93430000D02*
X136115000Y-93430000D01*
G75*
G02*
X136390000Y-93705000I0J-275000D01*
G01*
X136390000Y-94255000D01*
G75*
G02*
X136115000Y-94530000I-275000J0D01*
G01*
X134865000Y-94530000D01*
G75*
G02*
X134590000Y-94255000I0J275000D01*
G01*
X134590000Y-93705000D01*
G75*
G02*
X134865000Y-93430000I275000J0D01*
G01*
G37*
G36*
G01*
X136935000Y-92160000D02*
X138185000Y-92160000D01*
G75*
G02*
X138460000Y-92435000I0J-275000D01*
G01*
X138460000Y-92985000D01*
G75*
G02*
X138185000Y-93260000I-275000J0D01*
G01*
X136935000Y-93260000D01*
G75*
G02*
X136660000Y-92985000I0J275000D01*
G01*
X136660000Y-92435000D01*
G75*
G02*
X136935000Y-92160000I275000J0D01*
G01*
G37*
D19*
X115570000Y-93745000D03*
G36*
G01*
X117560000Y-94370000D02*
X117560000Y-93120000D01*
G75*
G02*
X117835000Y-92845000I275000J0D01*
G01*
X118385000Y-92845000D01*
G75*
G02*
X118660000Y-93120000I0J-275000D01*
G01*
X118660000Y-94370000D01*
G75*
G02*
X118385000Y-94645000I-275000J0D01*
G01*
X117835000Y-94645000D01*
G75*
G02*
X117560000Y-94370000I0J275000D01*
G01*
G37*
G36*
G01*
X116290000Y-92300000D02*
X116290000Y-91050000D01*
G75*
G02*
X116565000Y-90775000I275000J0D01*
G01*
X117115000Y-90775000D01*
G75*
G02*
X117390000Y-91050000I0J-275000D01*
G01*
X117390000Y-92300000D01*
G75*
G02*
X117115000Y-92575000I-275000J0D01*
G01*
X116565000Y-92575000D01*
G75*
G02*
X116290000Y-92300000I0J275000D01*
G01*
G37*
X109855000Y-93745000D03*
G36*
G01*
X111845000Y-94370000D02*
X111845000Y-93120000D01*
G75*
G02*
X112120000Y-92845000I275000J0D01*
G01*
X112670000Y-92845000D01*
G75*
G02*
X112945000Y-93120000I0J-275000D01*
G01*
X112945000Y-94370000D01*
G75*
G02*
X112670000Y-94645000I-275000J0D01*
G01*
X112120000Y-94645000D01*
G75*
G02*
X111845000Y-94370000I0J275000D01*
G01*
G37*
G36*
G01*
X110575000Y-92300000D02*
X110575000Y-91050000D01*
G75*
G02*
X110850000Y-90775000I275000J0D01*
G01*
X111400000Y-90775000D01*
G75*
G02*
X111675000Y-91050000I0J-275000D01*
G01*
X111675000Y-92300000D01*
G75*
G02*
X111400000Y-92575000I-275000J0D01*
G01*
X110850000Y-92575000D01*
G75*
G02*
X110575000Y-92300000I0J275000D01*
G01*
G37*
X104140000Y-93745000D03*
G36*
G01*
X106130000Y-94370000D02*
X106130000Y-93120000D01*
G75*
G02*
X106405000Y-92845000I275000J0D01*
G01*
X106955000Y-92845000D01*
G75*
G02*
X107230000Y-93120000I0J-275000D01*
G01*
X107230000Y-94370000D01*
G75*
G02*
X106955000Y-94645000I-275000J0D01*
G01*
X106405000Y-94645000D01*
G75*
G02*
X106130000Y-94370000I0J275000D01*
G01*
G37*
G36*
G01*
X104860000Y-92300000D02*
X104860000Y-91050000D01*
G75*
G02*
X105135000Y-90775000I275000J0D01*
G01*
X105685000Y-90775000D01*
G75*
G02*
X105960000Y-91050000I0J-275000D01*
G01*
X105960000Y-92300000D01*
G75*
G02*
X105685000Y-92575000I-275000J0D01*
G01*
X105135000Y-92575000D01*
G75*
G02*
X104860000Y-92300000I0J275000D01*
G01*
G37*
X98425000Y-93745000D03*
G36*
G01*
X100415000Y-94370000D02*
X100415000Y-93120000D01*
G75*
G02*
X100690000Y-92845000I275000J0D01*
G01*
X101240000Y-92845000D01*
G75*
G02*
X101515000Y-93120000I0J-275000D01*
G01*
X101515000Y-94370000D01*
G75*
G02*
X101240000Y-94645000I-275000J0D01*
G01*
X100690000Y-94645000D01*
G75*
G02*
X100415000Y-94370000I0J275000D01*
G01*
G37*
G36*
G01*
X99145000Y-92300000D02*
X99145000Y-91050000D01*
G75*
G02*
X99420000Y-90775000I275000J0D01*
G01*
X99970000Y-90775000D01*
G75*
G02*
X100245000Y-91050000I0J-275000D01*
G01*
X100245000Y-92300000D01*
G75*
G02*
X99970000Y-92575000I-275000J0D01*
G01*
X99420000Y-92575000D01*
G75*
G02*
X99145000Y-92300000I0J275000D01*
G01*
G37*
X92710000Y-93745000D03*
G36*
G01*
X94700000Y-94370000D02*
X94700000Y-93120000D01*
G75*
G02*
X94975000Y-92845000I275000J0D01*
G01*
X95525000Y-92845000D01*
G75*
G02*
X95800000Y-93120000I0J-275000D01*
G01*
X95800000Y-94370000D01*
G75*
G02*
X95525000Y-94645000I-275000J0D01*
G01*
X94975000Y-94645000D01*
G75*
G02*
X94700000Y-94370000I0J275000D01*
G01*
G37*
G36*
G01*
X93430000Y-92300000D02*
X93430000Y-91050000D01*
G75*
G02*
X93705000Y-90775000I275000J0D01*
G01*
X94255000Y-90775000D01*
G75*
G02*
X94530000Y-91050000I0J-275000D01*
G01*
X94530000Y-92300000D01*
G75*
G02*
X94255000Y-92575000I-275000J0D01*
G01*
X93705000Y-92575000D01*
G75*
G02*
X93430000Y-92300000I0J275000D01*
G01*
G37*
X86995000Y-93745000D03*
G36*
G01*
X88985000Y-94370000D02*
X88985000Y-93120000D01*
G75*
G02*
X89260000Y-92845000I275000J0D01*
G01*
X89810000Y-92845000D01*
G75*
G02*
X90085000Y-93120000I0J-275000D01*
G01*
X90085000Y-94370000D01*
G75*
G02*
X89810000Y-94645000I-275000J0D01*
G01*
X89260000Y-94645000D01*
G75*
G02*
X88985000Y-94370000I0J275000D01*
G01*
G37*
G36*
G01*
X87715000Y-92300000D02*
X87715000Y-91050000D01*
G75*
G02*
X87990000Y-90775000I275000J0D01*
G01*
X88540000Y-90775000D01*
G75*
G02*
X88815000Y-91050000I0J-275000D01*
G01*
X88815000Y-92300000D01*
G75*
G02*
X88540000Y-92575000I-275000J0D01*
G01*
X87990000Y-92575000D01*
G75*
G02*
X87715000Y-92300000I0J275000D01*
G01*
G37*
X81280000Y-93745000D03*
G36*
G01*
X83270000Y-94370000D02*
X83270000Y-93120000D01*
G75*
G02*
X83545000Y-92845000I275000J0D01*
G01*
X84095000Y-92845000D01*
G75*
G02*
X84370000Y-93120000I0J-275000D01*
G01*
X84370000Y-94370000D01*
G75*
G02*
X84095000Y-94645000I-275000J0D01*
G01*
X83545000Y-94645000D01*
G75*
G02*
X83270000Y-94370000I0J275000D01*
G01*
G37*
G36*
G01*
X82000000Y-92300000D02*
X82000000Y-91050000D01*
G75*
G02*
X82275000Y-90775000I275000J0D01*
G01*
X82825000Y-90775000D01*
G75*
G02*
X83100000Y-91050000I0J-275000D01*
G01*
X83100000Y-92300000D01*
G75*
G02*
X82825000Y-92575000I-275000J0D01*
G01*
X82275000Y-92575000D01*
G75*
G02*
X82000000Y-92300000I0J275000D01*
G01*
G37*
X75565000Y-93745000D03*
G36*
G01*
X77555000Y-94370000D02*
X77555000Y-93120000D01*
G75*
G02*
X77830000Y-92845000I275000J0D01*
G01*
X78380000Y-92845000D01*
G75*
G02*
X78655000Y-93120000I0J-275000D01*
G01*
X78655000Y-94370000D01*
G75*
G02*
X78380000Y-94645000I-275000J0D01*
G01*
X77830000Y-94645000D01*
G75*
G02*
X77555000Y-94370000I0J275000D01*
G01*
G37*
G36*
G01*
X76285000Y-92300000D02*
X76285000Y-91050000D01*
G75*
G02*
X76560000Y-90775000I275000J0D01*
G01*
X77110000Y-90775000D01*
G75*
G02*
X77385000Y-91050000I0J-275000D01*
G01*
X77385000Y-92300000D01*
G75*
G02*
X77110000Y-92575000I-275000J0D01*
G01*
X76560000Y-92575000D01*
G75*
G02*
X76285000Y-92300000I0J275000D01*
G01*
G37*
X69850000Y-93745000D03*
G36*
G01*
X71840000Y-94370000D02*
X71840000Y-93120000D01*
G75*
G02*
X72115000Y-92845000I275000J0D01*
G01*
X72665000Y-92845000D01*
G75*
G02*
X72940000Y-93120000I0J-275000D01*
G01*
X72940000Y-94370000D01*
G75*
G02*
X72665000Y-94645000I-275000J0D01*
G01*
X72115000Y-94645000D01*
G75*
G02*
X71840000Y-94370000I0J275000D01*
G01*
G37*
G36*
G01*
X70570000Y-92300000D02*
X70570000Y-91050000D01*
G75*
G02*
X70845000Y-90775000I275000J0D01*
G01*
X71395000Y-90775000D01*
G75*
G02*
X71670000Y-91050000I0J-275000D01*
G01*
X71670000Y-92300000D01*
G75*
G02*
X71395000Y-92575000I-275000J0D01*
G01*
X70845000Y-92575000D01*
G75*
G02*
X70570000Y-92300000I0J275000D01*
G01*
G37*
X64135000Y-93745000D03*
G36*
G01*
X66125000Y-94370000D02*
X66125000Y-93120000D01*
G75*
G02*
X66400000Y-92845000I275000J0D01*
G01*
X66950000Y-92845000D01*
G75*
G02*
X67225000Y-93120000I0J-275000D01*
G01*
X67225000Y-94370000D01*
G75*
G02*
X66950000Y-94645000I-275000J0D01*
G01*
X66400000Y-94645000D01*
G75*
G02*
X66125000Y-94370000I0J275000D01*
G01*
G37*
G36*
G01*
X64855000Y-92300000D02*
X64855000Y-91050000D01*
G75*
G02*
X65130000Y-90775000I275000J0D01*
G01*
X65680000Y-90775000D01*
G75*
G02*
X65955000Y-91050000I0J-275000D01*
G01*
X65955000Y-92300000D01*
G75*
G02*
X65680000Y-92575000I-275000J0D01*
G01*
X65130000Y-92575000D01*
G75*
G02*
X64855000Y-92300000I0J275000D01*
G01*
G37*
X58420000Y-93745000D03*
G36*
G01*
X60410000Y-94370000D02*
X60410000Y-93120000D01*
G75*
G02*
X60685000Y-92845000I275000J0D01*
G01*
X61235000Y-92845000D01*
G75*
G02*
X61510000Y-93120000I0J-275000D01*
G01*
X61510000Y-94370000D01*
G75*
G02*
X61235000Y-94645000I-275000J0D01*
G01*
X60685000Y-94645000D01*
G75*
G02*
X60410000Y-94370000I0J275000D01*
G01*
G37*
G36*
G01*
X59140000Y-92300000D02*
X59140000Y-91050000D01*
G75*
G02*
X59415000Y-90775000I275000J0D01*
G01*
X59965000Y-90775000D01*
G75*
G02*
X60240000Y-91050000I0J-275000D01*
G01*
X60240000Y-92300000D01*
G75*
G02*
X59965000Y-92575000I-275000J0D01*
G01*
X59415000Y-92575000D01*
G75*
G02*
X59140000Y-92300000I0J275000D01*
G01*
G37*
X52705000Y-93745000D03*
G36*
G01*
X54695000Y-94370000D02*
X54695000Y-93120000D01*
G75*
G02*
X54970000Y-92845000I275000J0D01*
G01*
X55520000Y-92845000D01*
G75*
G02*
X55795000Y-93120000I0J-275000D01*
G01*
X55795000Y-94370000D01*
G75*
G02*
X55520000Y-94645000I-275000J0D01*
G01*
X54970000Y-94645000D01*
G75*
G02*
X54695000Y-94370000I0J275000D01*
G01*
G37*
G36*
G01*
X53425000Y-92300000D02*
X53425000Y-91050000D01*
G75*
G02*
X53700000Y-90775000I275000J0D01*
G01*
X54250000Y-90775000D01*
G75*
G02*
X54525000Y-91050000I0J-275000D01*
G01*
X54525000Y-92300000D01*
G75*
G02*
X54250000Y-92575000I-275000J0D01*
G01*
X53700000Y-92575000D01*
G75*
G02*
X53425000Y-92300000I0J275000D01*
G01*
G37*
X46990000Y-93745000D03*
G36*
G01*
X48980000Y-94370000D02*
X48980000Y-93120000D01*
G75*
G02*
X49255000Y-92845000I275000J0D01*
G01*
X49805000Y-92845000D01*
G75*
G02*
X50080000Y-93120000I0J-275000D01*
G01*
X50080000Y-94370000D01*
G75*
G02*
X49805000Y-94645000I-275000J0D01*
G01*
X49255000Y-94645000D01*
G75*
G02*
X48980000Y-94370000I0J275000D01*
G01*
G37*
G36*
G01*
X47710000Y-92300000D02*
X47710000Y-91050000D01*
G75*
G02*
X47985000Y-90775000I275000J0D01*
G01*
X48535000Y-90775000D01*
G75*
G02*
X48810000Y-91050000I0J-275000D01*
G01*
X48810000Y-92300000D01*
G75*
G02*
X48535000Y-92575000I-275000J0D01*
G01*
X47985000Y-92575000D01*
G75*
G02*
X47710000Y-92300000I0J275000D01*
G01*
G37*
X41275000Y-93745000D03*
G36*
G01*
X43265000Y-94370000D02*
X43265000Y-93120000D01*
G75*
G02*
X43540000Y-92845000I275000J0D01*
G01*
X44090000Y-92845000D01*
G75*
G02*
X44365000Y-93120000I0J-275000D01*
G01*
X44365000Y-94370000D01*
G75*
G02*
X44090000Y-94645000I-275000J0D01*
G01*
X43540000Y-94645000D01*
G75*
G02*
X43265000Y-94370000I0J275000D01*
G01*
G37*
G36*
G01*
X41995000Y-92300000D02*
X41995000Y-91050000D01*
G75*
G02*
X42270000Y-90775000I275000J0D01*
G01*
X42820000Y-90775000D01*
G75*
G02*
X43095000Y-91050000I0J-275000D01*
G01*
X43095000Y-92300000D01*
G75*
G02*
X42820000Y-92575000I-275000J0D01*
G01*
X42270000Y-92575000D01*
G75*
G02*
X41995000Y-92300000I0J275000D01*
G01*
G37*
D13*
X91440000Y-72390000D03*
X88900000Y-72390000D03*
X86360000Y-72390000D03*
X83820000Y-72390000D03*
X81280000Y-72390000D03*
X78740000Y-72390000D03*
X76200000Y-72390000D03*
X73660000Y-72390000D03*
X71120000Y-72390000D03*
X68580000Y-72390000D03*
X66040000Y-72390000D03*
X63500000Y-72390000D03*
X60960000Y-72390000D03*
X58420000Y-72390000D03*
X55880000Y-72390000D03*
X53340000Y-72390000D03*
X50800000Y-72390000D03*
X48260000Y-72390000D03*
X45720000Y-72390000D03*
X43180000Y-72390000D03*
X40640000Y-72390000D03*
X38100000Y-72390000D03*
X35560000Y-72390000D03*
D14*
X33020000Y-72390000D03*
D20*
X116674900Y-112786160D03*
D21*
X114134900Y-112786160D03*
D20*
X142240000Y-59690000D03*
D21*
X139700000Y-59690000D03*
D20*
X137160000Y-59690000D03*
D21*
X134620000Y-59690000D03*
D20*
X132080000Y-59690000D03*
D21*
X129540000Y-59690000D03*
D20*
X127000000Y-59690000D03*
D21*
X124460000Y-59690000D03*
D20*
X121920000Y-59690000D03*
D21*
X119380000Y-59690000D03*
D20*
X116840000Y-59690000D03*
D21*
X114300000Y-59690000D03*
D20*
X111760000Y-59690000D03*
D21*
X109220000Y-59690000D03*
D20*
X106680000Y-59690000D03*
D21*
X104140000Y-59690000D03*
D20*
X101600000Y-59690000D03*
D21*
X99060000Y-59690000D03*
D20*
X96520000Y-59690000D03*
D21*
X93980000Y-59690000D03*
D20*
X91440000Y-59690000D03*
D21*
X88900000Y-59690000D03*
D20*
X86360000Y-59690000D03*
D21*
X83820000Y-59690000D03*
D20*
X81280000Y-59690000D03*
D21*
X78740000Y-59690000D03*
D20*
X76200000Y-59690000D03*
D21*
X73660000Y-59690000D03*
D20*
X71120000Y-59690000D03*
D21*
X68580000Y-59690000D03*
D20*
X66040000Y-59690000D03*
D21*
X63500000Y-59690000D03*
D20*
X60960000Y-59690000D03*
D21*
X58420000Y-59690000D03*
D20*
X55880000Y-59690000D03*
D21*
X53340000Y-59690000D03*
D20*
X50800000Y-59690000D03*
D21*
X48260000Y-59690000D03*
D20*
X45720000Y-59690000D03*
D21*
X43180000Y-59690000D03*
D20*
X40640000Y-59690000D03*
D21*
X38100000Y-59690000D03*
D20*
X35560000Y-59690000D03*
D21*
X33020000Y-59690000D03*
D20*
X30480000Y-59690000D03*
D21*
X27940000Y-59690000D03*
D20*
X25400000Y-59690000D03*
D21*
X22860000Y-59690000D03*
D20*
X142240000Y-54610000D03*
D21*
X139700000Y-54610000D03*
D20*
X137160000Y-54610000D03*
D21*
X134620000Y-54610000D03*
D20*
X132080000Y-54610000D03*
D21*
X129540000Y-54610000D03*
D20*
X127000000Y-54610000D03*
D21*
X124460000Y-54610000D03*
D20*
X121920000Y-54610000D03*
D21*
X119380000Y-54610000D03*
D20*
X116840000Y-54610000D03*
D21*
X114300000Y-54610000D03*
D20*
X111680000Y-54610000D03*
D21*
X109140000Y-54610000D03*
D20*
X106680000Y-54610000D03*
D21*
X104140000Y-54610000D03*
D20*
X101600000Y-54610000D03*
D21*
X99060000Y-54610000D03*
D20*
X96520000Y-54610000D03*
D21*
X93980000Y-54610000D03*
D20*
X91440000Y-54610000D03*
D21*
X88900000Y-54610000D03*
D20*
X86360000Y-54610000D03*
D21*
X83820000Y-54610000D03*
D20*
X81280000Y-54610000D03*
D21*
X78740000Y-54610000D03*
D20*
X76200000Y-54610000D03*
D21*
X73660000Y-54610000D03*
D20*
X71120000Y-54610000D03*
D21*
X68580000Y-54610000D03*
D20*
X66040000Y-54610000D03*
D21*
X63500000Y-54610000D03*
D20*
X60960000Y-54610000D03*
D21*
X58420000Y-54610000D03*
D20*
X55880000Y-54610000D03*
D21*
X53340000Y-54610000D03*
D20*
X50800000Y-54610000D03*
D21*
X48260000Y-54610000D03*
D20*
X45720000Y-54610000D03*
D21*
X43180000Y-54610000D03*
D20*
X40640000Y-54610000D03*
D21*
X38100000Y-54610000D03*
D20*
X35560000Y-54610000D03*
D21*
X33020000Y-54610000D03*
D20*
X30480000Y-54610000D03*
D21*
X27940000Y-54610000D03*
D20*
X25400000Y-54610000D03*
D21*
X22860000Y-54610000D03*
D22*
X123825000Y-27305000D03*
X121285000Y-27305000D03*
X118745000Y-27305000D03*
X116205000Y-27305000D03*
X113665000Y-27305000D03*
X111125000Y-27305000D03*
X108585000Y-27305000D03*
X106045000Y-27305000D03*
X103505000Y-27305000D03*
X100965000Y-27305000D03*
X98425000Y-27305000D03*
X95885000Y-27305000D03*
X123825000Y-29845000D03*
X121285000Y-29845000D03*
X118745000Y-29845000D03*
X116205000Y-29845000D03*
X113665000Y-29845000D03*
X111125000Y-29845000D03*
X108585000Y-29845000D03*
X106045000Y-29845000D03*
X103505000Y-29845000D03*
X100965000Y-29845000D03*
X98425000Y-29845000D03*
G36*
G01*
X96485000Y-30695000D02*
X95285000Y-30695000D01*
G75*
G02*
X95035000Y-30445000I0J250000D01*
G01*
X95035000Y-29245000D01*
G75*
G02*
X95285000Y-28995000I250000J0D01*
G01*
X96485000Y-28995000D01*
G75*
G02*
X96735000Y-29245000I0J-250000D01*
G01*
X96735000Y-30445000D01*
G75*
G02*
X96485000Y-30695000I-250000J0D01*
G01*
G37*
D13*
X91440000Y-67310000D03*
X88900000Y-67310000D03*
X86360000Y-67310000D03*
X83820000Y-67310000D03*
X81280000Y-67310000D03*
X78740000Y-67310000D03*
X76200000Y-67310000D03*
X73660000Y-67310000D03*
X71120000Y-67310000D03*
X68580000Y-67310000D03*
X66040000Y-67310000D03*
X63500000Y-67310000D03*
X60960000Y-67310000D03*
X58420000Y-67310000D03*
X55880000Y-67310000D03*
X53340000Y-67310000D03*
X50800000Y-67310000D03*
X48260000Y-67310000D03*
X45720000Y-67310000D03*
X43180000Y-67310000D03*
X40640000Y-67310000D03*
X38100000Y-67310000D03*
X35560000Y-67310000D03*
D14*
X33020000Y-67310000D03*
D20*
X116674900Y-120406160D03*
D21*
X114134900Y-120406160D03*
D20*
X111594900Y-112786160D03*
D21*
X109054900Y-112786160D03*
D20*
X116674900Y-135646160D03*
D21*
X114134900Y-135646160D03*
D20*
X116674900Y-130566160D03*
D21*
X114134900Y-130566160D03*
D20*
X115404900Y-125486160D03*
D21*
X112864900Y-125486160D03*
D20*
X111594900Y-120406160D03*
D21*
X109054900Y-120406160D03*
D20*
X110324900Y-130566160D03*
D21*
X107784900Y-130566160D03*
D20*
X110324900Y-135646160D03*
D21*
X107784900Y-135646160D03*
D20*
X109054900Y-125486160D03*
D21*
X106514900Y-125486160D03*
D20*
X106514900Y-112786160D03*
D21*
X103974900Y-112786160D03*
D20*
X106514900Y-120406160D03*
D21*
X103974900Y-120406160D03*
D20*
X105244900Y-130566160D03*
D21*
X102704900Y-130566160D03*
D20*
X103974900Y-125486160D03*
D21*
X101434900Y-125486160D03*
D20*
X102704900Y-135646160D03*
D21*
X100164900Y-135646160D03*
D20*
X101434900Y-120406160D03*
D21*
X98894900Y-120406160D03*
D20*
X101434900Y-112786160D03*
D21*
X98894900Y-112786160D03*
D20*
X100164900Y-130566160D03*
D21*
X97624900Y-130566160D03*
D20*
X98894900Y-125486160D03*
D21*
X96354900Y-125486160D03*
D20*
X97624900Y-135646160D03*
D21*
X95084900Y-135646160D03*
D20*
X96354900Y-120406160D03*
D21*
X93814900Y-120406160D03*
D20*
X95084900Y-130566160D03*
D21*
X92544900Y-130566160D03*
D20*
X93814900Y-125486160D03*
D21*
X91274900Y-125486160D03*
D20*
X96354900Y-112786160D03*
D21*
X93814900Y-112786160D03*
D20*
X92544900Y-135646160D03*
D21*
X90004900Y-135646160D03*
D20*
X91274900Y-120406160D03*
D21*
X88734900Y-120406160D03*
D20*
X90004900Y-130566160D03*
D21*
X87464900Y-130566160D03*
D20*
X88734900Y-125486160D03*
D21*
X86194900Y-125486160D03*
D20*
X87464900Y-135646160D03*
D21*
X84924900Y-135646160D03*
D20*
X86194900Y-120406160D03*
D21*
X83654900Y-120406160D03*
D20*
X88734900Y-112786160D03*
D21*
X86194900Y-112786160D03*
D20*
X84924900Y-130566160D03*
D21*
X82384900Y-130566160D03*
D20*
X83654900Y-125486160D03*
D21*
X81114900Y-125486160D03*
D20*
X82384900Y-135646160D03*
D21*
X79844900Y-135646160D03*
D20*
X79844900Y-140726160D03*
D21*
X77304900Y-140726160D03*
D20*
X81114900Y-120406160D03*
D21*
X78574900Y-120406160D03*
D20*
X79844900Y-130566160D03*
D21*
X77304900Y-130566160D03*
D20*
X78574900Y-125486160D03*
D21*
X76034900Y-125486160D03*
D20*
X83654900Y-112786160D03*
D21*
X81114900Y-112786160D03*
D20*
X77304900Y-135646160D03*
D21*
X74764900Y-135646160D03*
D20*
X76034900Y-120406160D03*
D21*
X73494900Y-120406160D03*
D20*
X74764900Y-130566160D03*
D21*
X72224900Y-130566160D03*
D20*
X73494900Y-125486160D03*
D21*
X70954900Y-125486160D03*
D20*
X72224900Y-135646160D03*
D21*
X69684900Y-135646160D03*
D20*
X70954900Y-120406160D03*
D21*
X68414900Y-120406160D03*
D20*
X78574900Y-112786160D03*
D21*
X76034900Y-112786160D03*
D20*
X69684900Y-130566160D03*
D21*
X67144900Y-130566160D03*
D20*
X68414900Y-125486160D03*
D21*
X65874900Y-125486160D03*
D20*
X67144900Y-135646160D03*
D21*
X64604900Y-135646160D03*
D20*
X65874900Y-120406160D03*
D21*
X63334900Y-120406160D03*
D20*
X64604900Y-130566160D03*
D21*
X62064900Y-130566160D03*
D20*
X63334900Y-125486160D03*
D21*
X60794900Y-125486160D03*
D20*
X73494900Y-112786160D03*
D21*
X70954900Y-112786160D03*
D20*
X62064900Y-135646160D03*
D21*
X59524900Y-135646160D03*
D20*
X60794900Y-120406160D03*
D21*
X58254900Y-120406160D03*
D20*
X59524900Y-130566160D03*
D21*
X56984900Y-130566160D03*
D20*
X58254900Y-125486160D03*
D21*
X55714900Y-125486160D03*
D20*
X56984900Y-135646160D03*
D21*
X54444900Y-135646160D03*
D20*
X55714900Y-120406160D03*
D21*
X53174900Y-120406160D03*
D20*
X54444900Y-130566160D03*
D21*
X51904900Y-130566160D03*
D20*
X53174900Y-125486160D03*
D21*
X50634900Y-125486160D03*
D20*
X50634900Y-120406160D03*
D21*
X48094900Y-120406160D03*
D20*
X49364900Y-135646160D03*
D21*
X46824900Y-135646160D03*
D20*
X48094900Y-130566160D03*
D21*
X45554900Y-130566160D03*
D20*
X46824900Y-125486160D03*
D21*
X44284900Y-125486160D03*
D20*
X45554900Y-120406160D03*
D21*
X43014900Y-120406160D03*
D20*
X45554900Y-112786160D03*
D21*
X43014900Y-112786160D03*
M02*
