M48
; DRILL file {KiCad (5.1.10)-1} date 10/22/21 21:39:09
; FORMAT={-:-/ absolute / metric / decimal}
; #@! TF.CreationDate,2021-10-22T21:39:09-07:00
; #@! TF.GenerationSoftware,Kicad,Pcbnew,(5.1.10)-1
; #@! TF.FileFunction,Plated,1,2,PTH
FMAT,2
METRIC
T1C0.400
T2C0.750
T3C0.800
T4C0.900
T5C1.000
T6C1.020
%
G90
G05
T1
X26.035Y-64.135
X26.035Y-93.98
X28.575Y-24.765
X30.775Y-63.375
X33.0Y-87.525
X33.025Y-90.625
X36.25Y-101.4
X36.725Y-87.175
X37.465Y-63.5
X38.735Y-36.195
X39.5Y-120.225
X41.125Y-91.7
X42.125Y-96.2
X42.545Y-62.865
X42.925Y-129.825
X43.25Y-74.625
X43.7Y-88.375
X46.355Y-64.135
X48.625Y-96.125
X50.125Y-140.075
X51.15Y-116.45
X51.825Y-63.725
X54.575Y-139.575
X55.875Y-76.175
X55.88Y-63.5
X58.15Y-109.775
X58.325Y-115.1
X58.5Y-140.075
X63.65Y-139.75
X63.825Y-90.6
X67.94Y-74.275
X67.95Y-77.1
X68.6Y-139.925
X69.8Y-46.775
X71.12Y-138.43
X73.4Y-107.9
X73.66Y-138.43
X74.6Y-46.95
X75.45Y-40.275
X78.462Y-88.212
X79.05Y-47.625
X80.075Y-40.275
X81.1Y-28.45
X83.5Y-48.15
X84.525Y-41.125
X88.125Y-42.325
X88.125Y-48.65
X92.575Y-43.875
X92.925Y-48.65
X95.65Y-75.175
X97.375Y-44.2
X97.7Y-48.825
X97.79Y-116.205
X99.175Y-140.55
X99.425Y-72.45
X101.65Y-45.075
X102.0Y-78.275
X102.5Y-49.35
X103.525Y-109.1
X105.25Y-135.475
X105.425Y-83.575
X105.75Y-45.575
X105.925Y-116.8
X107.65Y-49.525
X109.175Y-109.275
X110.55Y-116.3
X110.725Y-45.75
X110.725Y-89.075
X112.125Y-102.7
X112.775Y-49.525
X115.175Y-79.375
X115.85Y-46.25
X115.983Y-89.758
X116.525Y-88.175
X116.725Y-110.475
X117.475Y-123.825
X117.525Y-87.625
X117.925Y-50.025
X118.075Y-82.55
X118.45Y-86.975
X119.38Y-62.865
X119.38Y-86.36
X120.3Y-46.1
X120.65Y-85.09
X120.775Y-126.625
X121.85Y-143.925
X123.825Y-62.865
X125.45Y-46.425
X128.875Y-135.475
X128.905Y-62.865
X129.05Y-99.075
X129.225Y-123.475
X130.425Y-46.425
X130.95Y-110.375
X131.725Y-102.825
X133.985Y-62.865
X137.95Y-46.425
X139.15Y-62.875
X140.335Y-83.82
X141.3Y-79.9
X143.5Y-84.175
X143.65Y-96.85
X144.78Y-89.535
X147.475Y-84.25
T2
X41.275Y-93.345
X42.545Y-92.075
X43.815Y-93.345
X46.99Y-93.345
X48.26Y-92.075
X49.53Y-93.345
X52.705Y-93.345
X53.975Y-92.075
X55.245Y-93.345
X58.42Y-93.345
X59.69Y-92.075
X60.96Y-93.345
X64.135Y-93.345
X65.405Y-92.075
X66.675Y-93.345
X69.85Y-93.345
X71.12Y-92.075
X72.39Y-93.345
X75.565Y-93.345
X76.835Y-92.075
X78.105Y-93.345
X81.28Y-93.345
X82.55Y-92.075
X83.82Y-93.345
X86.995Y-93.345
X88.265Y-92.075
X89.535Y-93.345
X92.71Y-93.345
X93.98Y-92.075
X95.25Y-93.345
X98.425Y-93.345
X99.695Y-92.075
X100.965Y-93.345
X104.14Y-93.345
X105.41Y-92.075
X106.68Y-93.345
X109.855Y-93.345
X111.125Y-92.075
X112.395Y-93.345
X115.57Y-93.345
X116.84Y-92.075
X118.11Y-93.345
X135.89Y-91.44
X135.89Y-93.98
X135.89Y-97.155
X135.89Y-99.695
X135.89Y-102.87
X135.89Y-105.41
X135.89Y-108.585
X135.89Y-111.125
X135.89Y-114.3
X135.89Y-116.84
X135.89Y-120.015
X135.89Y-122.555
X135.89Y-125.73
X135.89Y-128.27
X135.89Y-131.445
X135.89Y-133.985
X135.89Y-137.16
X135.89Y-139.7
X137.16Y-92.71
X137.16Y-98.425
X137.16Y-104.14
X137.16Y-109.855
X137.16Y-115.57
X137.16Y-121.285
X137.16Y-127.0
X137.16Y-132.715
X137.16Y-138.43
T3
X24.13Y-43.18
X24.13Y-50.8
X29.21Y-43.18
X29.21Y-50.8
X34.29Y-43.18
X34.29Y-50.8
X39.37Y-43.18
X39.37Y-50.8
X44.45Y-43.18
X44.45Y-50.8
X49.53Y-43.18
X49.53Y-50.8
X54.61Y-43.18
X54.61Y-50.8
X59.69Y-43.18
X59.69Y-50.8
X59.69Y-97.79
X59.69Y-105.41
X62.865Y-97.79
X62.865Y-105.41
X64.77Y-43.18
X64.77Y-50.8
X66.04Y-97.79
X66.04Y-105.41
X69.215Y-97.79
X69.215Y-105.41
X69.85Y-43.18
X69.85Y-50.8
X72.39Y-97.79
X72.39Y-105.41
X74.93Y-43.18
X74.93Y-50.8
X75.565Y-97.79
X75.565Y-105.41
X78.74Y-97.79
X78.74Y-105.41
X80.01Y-43.18
X80.01Y-50.8
X81.915Y-97.79
X81.915Y-105.41
X85.09Y-43.18
X85.09Y-50.8
X85.09Y-97.79
X85.09Y-105.41
X88.265Y-97.79
X88.265Y-105.41
X90.17Y-43.18
X90.17Y-50.8
X91.44Y-97.79
X91.44Y-105.41
X94.615Y-97.79
X94.615Y-105.41
X95.25Y-43.18
X95.25Y-50.8
X97.79Y-97.79
X97.79Y-105.41
X100.33Y-43.18
X100.33Y-50.8
X100.965Y-97.79
X100.965Y-105.41
X105.41Y-43.18
X105.41Y-50.8
X110.49Y-43.18
X110.49Y-50.8
X115.57Y-43.18
X115.57Y-50.8
X120.65Y-43.18
X120.65Y-50.8
X125.73Y-43.18
X125.73Y-50.8
X130.81Y-43.18
X130.81Y-50.8
X135.89Y-43.18
X135.89Y-50.8
X140.97Y-43.18
X140.97Y-50.8
T4
X22.86Y-54.61
X22.86Y-59.69
X25.4Y-54.61
X25.4Y-59.69
X27.94Y-54.61
X27.94Y-59.69
X30.48Y-54.61
X30.48Y-59.69
X33.02Y-54.61
X33.02Y-59.69
X35.56Y-54.61
X35.56Y-59.69
X38.1Y-54.61
X38.1Y-59.69
X40.64Y-54.61
X40.64Y-59.69
X43.015Y-112.786
X43.015Y-120.406
X43.18Y-54.61
X43.18Y-59.69
X44.285Y-125.486
X45.555Y-112.786
X45.555Y-120.406
X45.555Y-130.566
X45.72Y-54.61
X45.72Y-59.69
X46.825Y-125.486
X46.825Y-135.646
X48.095Y-120.406
X48.095Y-130.566
X48.26Y-54.61
X48.26Y-59.69
X49.365Y-135.646
X50.635Y-120.406
X50.635Y-125.486
X50.8Y-54.61
X50.8Y-59.69
X51.905Y-130.566
X53.175Y-120.406
X53.175Y-125.486
X53.34Y-54.61
X53.34Y-59.69
X54.445Y-130.566
X54.445Y-135.646
X55.715Y-120.406
X55.715Y-125.486
X55.88Y-54.61
X55.88Y-59.69
X56.985Y-130.566
X56.985Y-135.646
X58.255Y-120.406
X58.255Y-125.486
X58.42Y-54.61
X58.42Y-59.69
X59.525Y-130.566
X59.525Y-135.646
X60.795Y-120.406
X60.795Y-125.486
X60.96Y-54.61
X60.96Y-59.69
X62.065Y-130.566
X62.065Y-135.646
X63.335Y-120.406
X63.335Y-125.486
X63.5Y-54.61
X63.5Y-59.69
X64.605Y-130.566
X64.605Y-135.646
X65.875Y-120.406
X65.875Y-125.486
X66.04Y-54.61
X66.04Y-59.69
X67.145Y-130.566
X67.145Y-135.646
X68.415Y-120.406
X68.415Y-125.486
X68.58Y-54.61
X68.58Y-59.69
X69.685Y-130.566
X69.685Y-135.646
X70.955Y-112.786
X70.955Y-120.406
X70.955Y-125.486
X71.12Y-54.61
X71.12Y-59.69
X72.225Y-130.566
X72.225Y-135.646
X73.495Y-112.786
X73.495Y-120.406
X73.495Y-125.486
X73.66Y-54.61
X73.66Y-59.69
X74.765Y-130.566
X74.765Y-135.646
X76.035Y-112.786
X76.035Y-120.406
X76.035Y-125.486
X76.2Y-54.61
X76.2Y-59.69
X77.305Y-130.566
X77.305Y-135.646
X77.305Y-140.726
X78.575Y-112.786
X78.575Y-120.406
X78.575Y-125.486
X78.74Y-54.61
X78.74Y-59.69
X79.845Y-130.566
X79.845Y-135.646
X79.845Y-140.726
X81.115Y-112.786
X81.115Y-120.406
X81.115Y-125.486
X81.28Y-54.61
X81.28Y-59.69
X82.385Y-130.566
X82.385Y-135.646
X83.655Y-112.786
X83.655Y-120.406
X83.655Y-125.486
X83.82Y-54.61
X83.82Y-59.69
X84.925Y-130.566
X84.925Y-135.646
X86.195Y-112.786
X86.195Y-120.406
X86.195Y-125.486
X86.36Y-54.61
X86.36Y-59.69
X87.465Y-130.566
X87.465Y-135.646
X88.735Y-112.786
X88.735Y-120.406
X88.735Y-125.486
X88.9Y-54.61
X88.9Y-59.69
X90.005Y-130.566
X90.005Y-135.646
X91.275Y-120.406
X91.275Y-125.486
X91.44Y-54.61
X91.44Y-59.69
X92.545Y-130.566
X92.545Y-135.646
X93.815Y-112.786
X93.815Y-120.406
X93.815Y-125.486
X93.98Y-54.61
X93.98Y-59.69
X95.085Y-130.566
X95.085Y-135.646
X96.355Y-112.786
X96.355Y-120.406
X96.355Y-125.486
X96.52Y-54.61
X96.52Y-59.69
X97.625Y-130.566
X97.625Y-135.646
X98.895Y-112.786
X98.895Y-120.406
X98.895Y-125.486
X99.06Y-54.61
X99.06Y-59.69
X100.165Y-130.566
X100.165Y-135.646
X101.435Y-112.786
X101.435Y-120.406
X101.435Y-125.486
X101.6Y-54.61
X101.6Y-59.69
X102.705Y-130.566
X102.705Y-135.646
X103.975Y-112.786
X103.975Y-120.406
X103.975Y-125.486
X104.14Y-54.61
X104.14Y-59.69
X105.245Y-130.566
X106.515Y-112.786
X106.515Y-120.406
X106.515Y-125.486
X106.68Y-54.61
X106.68Y-59.69
X107.785Y-130.566
X107.785Y-135.646
X109.055Y-112.786
X109.055Y-120.406
X109.055Y-125.486
X109.14Y-54.61
X109.22Y-59.69
X110.325Y-130.566
X110.325Y-135.646
X111.595Y-112.786
X111.595Y-120.406
X111.68Y-54.61
X111.76Y-59.69
X112.865Y-125.486
X114.135Y-112.786
X114.135Y-120.406
X114.135Y-130.566
X114.135Y-135.646
X114.3Y-54.61
X114.3Y-59.69
X115.405Y-125.486
X116.675Y-112.786
X116.675Y-120.406
X116.675Y-130.566
X116.675Y-135.646
X116.84Y-54.61
X116.84Y-59.69
X119.38Y-54.61
X119.38Y-59.69
X121.92Y-54.61
X121.92Y-59.69
X124.46Y-54.61
X124.46Y-59.69
X127.0Y-54.61
X127.0Y-59.69
X129.54Y-54.61
X129.54Y-59.69
X132.08Y-54.61
X132.08Y-59.69
X134.62Y-54.61
X134.62Y-59.69
X137.16Y-54.61
X137.16Y-59.69
X139.7Y-54.61
X139.7Y-59.69
X142.24Y-54.61
X142.24Y-59.69
T5
X33.02Y-67.31
X33.02Y-72.39
X33.02Y-78.74
X33.02Y-81.28
X33.02Y-83.82
X35.56Y-67.31
X35.56Y-72.39
X35.56Y-78.74
X35.56Y-81.28
X35.56Y-83.82
X38.1Y-67.31
X38.1Y-72.39
X38.1Y-78.74
X38.1Y-81.28
X38.1Y-83.82
X40.64Y-67.31
X40.64Y-72.39
X40.64Y-78.74
X40.64Y-81.28
X40.64Y-83.82
X43.18Y-67.31
X43.18Y-72.39
X43.18Y-78.71
X43.18Y-81.25
X43.18Y-83.79
X45.72Y-67.31
X45.72Y-72.39
X45.72Y-78.77
X45.72Y-81.31
X45.72Y-83.85
X48.26Y-67.31
X48.26Y-72.39
X48.26Y-78.77
X48.26Y-81.31
X48.26Y-83.85
X50.8Y-67.31
X50.8Y-72.39
X50.8Y-78.74
X50.8Y-81.28
X50.8Y-83.82
X53.34Y-67.31
X53.34Y-72.39
X53.34Y-78.74
X53.34Y-81.28
X53.34Y-83.82
X55.88Y-67.31
X55.88Y-72.39
X55.88Y-78.74
X55.88Y-81.28
X55.88Y-83.82
X58.42Y-67.31
X58.42Y-72.39
X58.42Y-78.74
X58.42Y-81.28
X58.42Y-83.82
X60.96Y-67.31
X60.96Y-72.39
X60.96Y-78.74
X60.96Y-81.28
X60.96Y-83.82
X63.5Y-67.31
X63.5Y-72.39
X63.5Y-78.74
X63.5Y-81.28
X63.5Y-83.82
X66.04Y-67.31
X66.04Y-72.39
X66.04Y-78.74
X66.04Y-81.28
X66.04Y-83.82
X68.58Y-67.31
X68.58Y-72.39
X68.58Y-78.74
X68.58Y-81.28
X68.58Y-83.82
X71.12Y-67.31
X71.12Y-72.39
X71.12Y-78.74
X71.12Y-81.28
X71.12Y-83.82
X73.66Y-67.31
X73.66Y-72.39
X73.66Y-78.74
X73.66Y-81.28
X73.66Y-83.82
X76.2Y-67.31
X76.2Y-72.39
X76.2Y-78.74
X76.2Y-81.28
X76.2Y-83.82
X78.74Y-67.31
X78.74Y-72.39
X78.74Y-78.74
X78.74Y-81.28
X78.74Y-83.82
X81.28Y-67.31
X81.28Y-72.39
X81.28Y-78.74
X81.28Y-81.28
X81.28Y-83.82
X83.82Y-67.31
X83.82Y-72.39
X83.82Y-78.74
X83.82Y-81.28
X83.82Y-83.82
X86.36Y-67.31
X86.36Y-72.39
X86.36Y-78.74
X86.36Y-81.28
X86.36Y-83.82
X88.9Y-67.31
X88.9Y-72.39
X88.9Y-78.74
X88.9Y-81.28
X88.9Y-83.82
X91.44Y-67.31
X91.44Y-72.39
X91.44Y-78.74
X91.44Y-81.28
X91.44Y-83.82
X95.885Y-27.305
X95.885Y-29.845
X98.425Y-27.305
X98.425Y-29.845
X100.965Y-27.305
X100.965Y-29.845
X103.505Y-27.305
X103.505Y-29.845
X106.045Y-27.305
X106.045Y-29.845
X108.585Y-27.305
X108.585Y-29.845
X111.125Y-27.305
X111.125Y-29.845
X113.665Y-27.305
X113.665Y-29.845
X116.205Y-27.305
X116.205Y-29.845
X118.745Y-27.305
X118.745Y-29.845
X121.285Y-27.305
X121.285Y-29.845
X123.825Y-27.305
X123.825Y-29.845
T6
X145.415Y-69.85
X145.415Y-82.55
T0
M30
