<?xml version="1.0" encoding="UTF-8" standalone="no"?>
<!DOCTYPE svg PUBLIC "-//W3C//DTD SVG 1.1//EN" "http://www.w3.org/Graphics/SVG/1.1/DTD/svg11.dtd">
<svg width="100%" height="100%" viewBox="0 0 934 367" version="1.1" xmlns="http://www.w3.org/2000/svg" xmlns:xlink="http://www.w3.org/1999/xlink" xml:space="preserve" xmlns:serif="http://www.serif.com/" style="fill-rule:evenodd;clip-rule:evenodd;stroke-linecap:round;stroke-linejoin:round;">
    <g transform="matrix(1,0,0,1,-3.31181,-4.31181)">
        <g transform="matrix(2.83465,0,0,2.83465,-60,-59)">
            <circle cx="84.558" cy="107.24" r="1.75"/>
        </g>
        <g transform="matrix(2.83465,0,0,2.83465,-60,-59)">
            <circle cx="90.897" cy="104.7" r="1.75"/>
        </g>
        <g transform="matrix(2.83465,0,0,2.83465,-60,-59)">
            <circle cx="170.283" cy="126.29" r="1.75"/>
        </g>
        <g transform="matrix(2.83465,0,0,2.83465,-60,-59)">
            <circle cx="176.623" cy="123.75" r="1.75"/>
        </g>
        <g transform="matrix(2.83465,0,0,2.83465,-60,-59)">
            <circle cx="132.183" cy="126.29" r="1.75"/>
        </g>
        <g transform="matrix(2.83465,0,0,2.83465,-60,-59)">
            <circle cx="138.523" cy="123.75" r="1.75"/>
        </g>
        <g transform="matrix(2.83465,0,0,2.83465,-60,-59)">
            <circle cx="227.433" cy="126.29" r="1.75"/>
        </g>
        <g transform="matrix(2.83465,0,0,2.83465,-60,-59)">
            <circle cx="233.773" cy="123.75" r="1.75"/>
        </g>
        <g transform="matrix(2.83465,0,0,2.83465,-60,-59)">
            <circle cx="58.404" cy="107.24" r="1.75"/>
        </g>
        <g transform="matrix(2.83465,0,0,2.83465,-60,-59)">
            <circle cx="64.704" cy="104.7" r="1.75"/>
        </g>
        <g transform="matrix(2.83465,0,0,2.83465,-60,-59)">
            <circle cx="111.982" cy="145.34" r="1.75"/>
        </g>
        <g transform="matrix(2.83465,0,0,2.83465,-60,-59)">
            <circle cx="118.282" cy="142.8" r="1.75"/>
        </g>
        <g transform="matrix(2.83465,0,0,2.83465,-60,-59)">
            <circle cx="122.658" cy="107.24" r="1.75"/>
        </g>
        <g transform="matrix(2.83465,0,0,2.83465,-60,-59)">
            <circle cx="128.998" cy="104.7" r="1.75"/>
        </g>
        <g transform="matrix(2.83465,0,0,2.83465,-60,-59)">
            <circle cx="141.708" cy="107.24" r="1.75"/>
        </g>
        <g transform="matrix(2.83465,0,0,2.83465,-60,-59)">
            <circle cx="148.048" cy="104.7" r="1.75"/>
        </g>
        <g transform="matrix(2.83465,0,0,2.83465,-60,-59)">
            <circle cx="160.758" cy="107.24" r="1.75"/>
        </g>
        <g transform="matrix(2.83465,0,0,2.83465,-60,-59)">
            <circle cx="167.098" cy="104.7" r="1.75"/>
        </g>
        <g transform="matrix(2.83465,0,0,2.83465,-60,-59)">
            <circle cx="179.808" cy="107.24" r="1.75"/>
        </g>
        <g transform="matrix(2.83465,0,0,2.83465,-60,-59)">
            <circle cx="186.148" cy="104.7" r="1.75"/>
        </g>
        <g transform="matrix(2.83465,0,0,2.83465,-60,-59)">
            <circle cx="206.423" cy="36.41" r="1.75"/>
        </g>
        <g transform="matrix(2.83465,0,0,2.83465,-60,-59)">
            <circle cx="211.423" cy="38.51" r="1.75"/>
        </g>
        <g transform="matrix(2.83465,0,0,2.83465,-60,-59)">
            <circle cx="317.92" cy="126.29" r="1.75"/>
        </g>
        <g transform="matrix(2.83465,0,0,2.83465,-60,-59)">
            <circle cx="324.26" cy="123.75" r="1.75"/>
        </g>
        <g transform="matrix(2.83465,0,0,2.83465,-60,-59)">
            <circle cx="198.857" cy="107.24" r="1.75"/>
        </g>
        <g transform="matrix(2.83465,0,0,2.83465,-60,-59)">
            <circle cx="205.198" cy="104.7" r="1.75"/>
        </g>
        <g transform="matrix(2.83465,0,0,2.83465,-60,-59)">
            <circle cx="217.908" cy="107.24" r="1.75"/>
        </g>
        <g transform="matrix(2.83465,0,0,2.83465,-60,-59)">
            <circle cx="224.248" cy="104.7" r="1.75"/>
        </g>
        <g transform="matrix(2.83465,0,0,2.83465,-60,-59)">
            <circle cx="236.958" cy="107.24" r="1.75"/>
        </g>
        <g transform="matrix(2.83465,0,0,2.83465,-60,-59)">
            <circle cx="243.298" cy="104.7" r="1.75"/>
        </g>
        <g transform="matrix(2.83465,0,0,2.83465,-60,-59)">
            <circle cx="63.126" cy="126.29" r="1.75"/>
        </g>
        <g transform="matrix(2.83465,0,0,2.83465,-60,-59)">
            <circle cx="69.466" cy="123.82" r="1.75"/>
        </g>
        <g transform="matrix(2.83465,0,0,2.83465,-60,-59)">
            <circle cx="208.382" cy="126.29" r="1.75"/>
        </g>
        <g transform="matrix(2.83465,0,0,2.83465,-60,-59)">
            <circle cx="214.723" cy="123.75" r="1.75"/>
        </g>
        <g transform="matrix(2.83465,0,0,2.83465,-60,-59)">
            <circle cx="189.333" cy="126.29" r="1.75"/>
        </g>
        <g transform="matrix(2.83465,0,0,2.83465,-60,-59)">
            <circle cx="195.673" cy="123.75" r="1.75"/>
        </g>
        <g transform="matrix(2.83465,0,0,2.83465,-60,-59)">
            <circle cx="292.16" cy="36.41" r="1.75"/>
        </g>
        <g transform="matrix(2.83465,0,0,2.83465,-60,-59)">
            <circle cx="297.16" cy="38.51" r="1.75"/>
        </g>
        <g transform="matrix(2.83465,0,0,2.83465,-60,-59)">
            <circle cx="246.482" cy="126.29" r="1.75"/>
        </g>
        <g transform="matrix(2.83465,0,0,2.83465,-60,-59)">
            <circle cx="252.823" cy="123.75" r="1.75"/>
        </g>
        <g transform="matrix(2.83465,0,0,2.83465,-60,-59)">
            <circle cx="275.058" cy="107.24" r="1.75"/>
        </g>
        <g transform="matrix(2.83465,0,0,2.83465,-60,-59)">
            <circle cx="281.398" cy="104.7" r="1.75"/>
        </g>
        <g transform="matrix(2.83465,0,0,2.83465,-60,-59)">
            <circle cx="291.766" cy="126.29" r="1.75"/>
        </g>
        <g transform="matrix(2.83465,0,0,2.83465,-60,-59)">
            <circle cx="298.066" cy="123.75" r="1.75"/>
        </g>
        <g transform="matrix(2.83465,0,0,2.83465,-60,-59)">
            <circle cx="103.608" cy="107.24" r="1.75"/>
        </g>
        <g transform="matrix(2.83465,0,0,2.83465,-60,-59)">
            <circle cx="109.948" cy="104.7" r="1.75"/>
        </g>
        <g transform="matrix(2.83465,0,0,2.83465,-60,-59)">
            <circle cx="263.573" cy="36.41" r="1.75"/>
        </g>
        <g transform="matrix(2.83465,0,0,2.83465,-60,-59)">
            <circle cx="268.573" cy="38.51" r="1.75"/>
        </g>
        <g transform="matrix(2.83465,0,0,2.83465,-60,-59)">
            <circle cx="256.008" cy="107.24" r="1.75"/>
        </g>
        <g transform="matrix(2.83465,0,0,2.83465,-60,-59)">
            <circle cx="262.348" cy="104.7" r="1.75"/>
        </g>
        <g transform="matrix(2.83465,0,0,2.83465,-60,-59)">
            <circle cx="265.533" cy="126.29" r="1.75"/>
        </g>
        <g transform="matrix(2.83465,0,0,2.83465,-60,-59)">
            <circle cx="271.873" cy="123.75" r="1.75"/>
        </g>
        <g transform="matrix(2.83465,0,0,2.83465,-60,-59)">
            <circle cx="184.57" cy="145.34" r="1.75"/>
        </g>
        <g transform="matrix(2.83465,0,0,2.83465,-60,-59)">
            <circle cx="190.91" cy="142.8" r="1.75"/>
        </g>
        <g transform="matrix(2.83465,0,0,2.83465,-60,-59)">
            <circle cx="234.998" cy="36.41" r="1.75"/>
        </g>
        <g transform="matrix(2.83465,0,0,2.83465,-60,-59)">
            <circle cx="239.998" cy="38.51" r="1.75"/>
        </g>
        <g transform="matrix(2.83465,0,0,2.83465,-60,-59)">
            <circle cx="151.232" cy="126.29" r="1.75"/>
        </g>
        <g transform="matrix(2.83465,0,0,2.83465,-60,-59)">
            <circle cx="157.573" cy="123.75" r="1.75"/>
        </g>
        <g transform="matrix(2.83465,0,0,2.83465,-60,-59)">
            <circle cx="113.132" cy="126.29" r="1.75"/>
        </g>
        <g transform="matrix(2.83465,0,0,2.83465,-60,-59)">
            <circle cx="119.473" cy="123.75" r="1.75"/>
        </g>
        <g transform="matrix(2.83465,0,0,2.83465,-60,-59)">
            <circle cx="94.083" cy="126.29" r="1.75"/>
        </g>
        <g transform="matrix(2.83465,0,0,2.83465,-60,-59)">
            <circle cx="100.423" cy="123.75" r="1.75"/>
        </g>
        <g transform="matrix(2.83465,0,0,2.83465,-60,-59)">
            <circle cx="98.845" cy="88.19" r="1.75"/>
        </g>
        <g transform="matrix(2.83465,0,0,2.83465,-60,-59)">
            <circle cx="105.185" cy="85.65" r="1.75"/>
        </g>
        <g transform="matrix(2.83465,0,0,2.83465,-60,-59)">
            <circle cx="175.045" cy="88.19" r="1.75"/>
        </g>
        <g transform="matrix(2.83465,0,0,2.83465,-60,-59)">
            <circle cx="181.385" cy="85.65" r="1.75"/>
        </g>
        <g transform="matrix(2.83465,0,0,2.83465,-60,-59)">
            <circle cx="155.995" cy="88.19" r="1.75"/>
        </g>
        <g transform="matrix(2.83465,0,0,2.83465,-60,-59)">
            <circle cx="162.335" cy="85.65" r="1.75"/>
        </g>
        <g transform="matrix(2.83465,0,0,2.83465,-60,-59)">
            <circle cx="194.095" cy="88.19" r="1.75"/>
        </g>
        <g transform="matrix(2.83465,0,0,2.83465,-60,-59)">
            <circle cx="200.435" cy="85.65" r="1.75"/>
        </g>
        <g transform="matrix(2.83465,0,0,2.83465,-60,-59)">
            <circle cx="320.619" cy="88.915" r="1.75"/>
        </g>
        <g transform="matrix(2.83465,0,0,2.83465,-60,-59)">
            <circle cx="323.159" cy="95.175" r="1.75"/>
        </g>
        <g transform="matrix(2.83465,0,0,2.83465,-60,-59)">
            <circle cx="251.245" cy="88.19" r="1.75"/>
        </g>
        <g transform="matrix(2.83465,0,0,2.83465,-60,-59)">
            <circle cx="257.585" cy="85.65" r="1.75"/>
        </g>
        <g transform="matrix(2.83465,0,0,2.83465,-60,-59)">
            <circle cx="79.795" cy="88.19" r="1.75"/>
        </g>
        <g transform="matrix(2.83465,0,0,2.83465,-60,-59)">
            <circle cx="86.135" cy="85.65" r="1.75"/>
        </g>
        <g transform="matrix(2.83465,0,0,2.83465,-60,-59)">
            <circle cx="213.145" cy="88.19" r="1.75"/>
        </g>
        <g transform="matrix(2.83465,0,0,2.83465,-60,-59)">
            <circle cx="219.485" cy="85.65" r="1.75"/>
        </g>
        <g transform="matrix(2.83465,0,0,2.83465,-60,-59)">
            <circle cx="289.345" cy="88.19" r="1.75"/>
        </g>
        <g transform="matrix(2.83465,0,0,2.83465,-60,-59)">
            <circle cx="295.685" cy="85.65" r="1.75"/>
        </g>
        <g transform="matrix(2.83465,0,0,2.83465,-60,-59)">
            <circle cx="270.295" cy="88.19" r="1.75"/>
        </g>
        <g transform="matrix(2.83465,0,0,2.83465,-60,-59)">
            <circle cx="276.635" cy="85.65" r="1.75"/>
        </g>
        <g transform="matrix(2.83465,0,0,2.83465,-60,-59)">
            <circle cx="136.945" cy="88.19" r="1.75"/>
        </g>
        <g transform="matrix(2.83465,0,0,2.83465,-60,-59)">
            <circle cx="143.285" cy="85.65" r="1.75"/>
        </g>
        <g transform="matrix(2.83465,0,0,2.83465,-60,-59)">
            <circle cx="117.895" cy="88.19" r="1.75"/>
        </g>
        <g transform="matrix(2.83465,0,0,2.83465,-60,-59)">
            <circle cx="124.235" cy="85.65" r="1.75"/>
        </g>
        <g transform="matrix(2.83465,0,0,2.83465,-60,-59)">
            <circle cx="232.195" cy="88.19" r="1.75"/>
        </g>
        <g transform="matrix(2.83465,0,0,2.83465,-60,-59)">
            <circle cx="238.535" cy="85.65" r="1.75"/>
        </g>
        <g transform="matrix(2.83465,0,0,2.83465,-60,-59)">
            <circle cx="51.22" cy="69.14" r="1.75"/>
        </g>
        <g transform="matrix(2.83465,0,0,2.83465,-60,-59)">
            <circle cx="57.56" cy="66.6" r="1.75"/>
        </g>
        <g transform="matrix(2.83465,0,0,2.83465,-60,-59)">
            <circle cx="203.62" cy="69.14" r="1.75"/>
        </g>
        <g transform="matrix(2.83465,0,0,2.83465,-60,-59)">
            <circle cx="209.96" cy="66.6" r="1.75"/>
        </g>
        <g transform="matrix(2.83465,0,0,2.83465,-60,-59)">
            <circle cx="165.52" cy="69.14" r="1.75"/>
        </g>
        <g transform="matrix(2.83465,0,0,2.83465,-60,-59)">
            <circle cx="171.86" cy="66.6" r="1.75"/>
        </g>
        <g transform="matrix(2.83465,0,0,2.83465,-60,-59)">
            <circle cx="222.67" cy="69.14" r="1.75"/>
        </g>
        <g transform="matrix(2.83465,0,0,2.83465,-60,-59)">
            <circle cx="229.01" cy="66.6" r="1.75"/>
        </g>
        <g transform="matrix(2.83465,0,0,2.83465,-60,-59)">
            <circle cx="241.72" cy="69.14" r="1.75"/>
        </g>
        <g transform="matrix(2.83465,0,0,2.83465,-60,-59)">
            <circle cx="248.06" cy="66.6" r="1.75"/>
        </g>
        <g transform="matrix(2.83465,0,0,2.83465,-60,-59)">
            <circle cx="146.47" cy="69.14" r="1.75"/>
        </g>
        <g transform="matrix(2.83465,0,0,2.83465,-60,-59)">
            <circle cx="152.81" cy="66.6" r="1.75"/>
        </g>
        <g transform="matrix(2.83465,0,0,2.83465,-60,-59)">
            <circle cx="308.395" cy="69.14" r="1.75"/>
        </g>
        <g transform="matrix(2.83465,0,0,2.83465,-60,-59)">
            <circle cx="314.735" cy="66.67" r="1.75"/>
        </g>
        <g transform="matrix(2.83465,0,0,2.83465,-60,-59)">
            <circle cx="108.37" cy="69.14" r="1.75"/>
        </g>
        <g transform="matrix(2.83465,0,0,2.83465,-60,-59)">
            <circle cx="114.71" cy="66.6" r="1.75"/>
        </g>
        <g transform="matrix(2.83465,0,0,2.83465,-60,-59)">
            <circle cx="279.82" cy="69.14" r="1.75"/>
        </g>
        <g transform="matrix(2.83465,0,0,2.83465,-60,-59)">
            <circle cx="286.16" cy="66.6" r="1.75"/>
        </g>
        <g transform="matrix(2.83465,0,0,2.83465,-60,-59)">
            <circle cx="127.42" cy="69.14" r="1.75"/>
        </g>
        <g transform="matrix(2.83465,0,0,2.83465,-60,-59)">
            <circle cx="133.76" cy="66.6" r="1.75"/>
        </g>
        <g transform="matrix(2.83465,0,0,2.83465,-60,-59)">
            <circle cx="70.27" cy="69.14" r="1.75"/>
        </g>
        <g transform="matrix(2.83465,0,0,2.83465,-60,-59)">
            <circle cx="76.61" cy="66.6" r="1.75"/>
        </g>
        <g transform="matrix(2.83465,0,0,2.83465,-60,-59)">
            <circle cx="260.77" cy="69.14" r="1.75"/>
        </g>
        <g transform="matrix(2.83465,0,0,2.83465,-60,-59)">
            <circle cx="267.11" cy="66.6" r="1.75"/>
        </g>
        <g transform="matrix(2.83465,0,0,2.83465,-60,-59)">
            <circle cx="257.238" cy="145.34" r="1.75"/>
        </g>
        <g transform="matrix(2.83465,0,0,2.83465,-60,-59)">
            <circle cx="263.538" cy="142.8" r="1.75"/>
        </g>
        <g transform="matrix(2.83465,0,0,2.83465,-60,-59)">
            <circle cx="89.32" cy="69.14" r="1.75"/>
        </g>
        <g transform="matrix(2.83465,0,0,2.83465,-60,-59)">
            <circle cx="95.66" cy="66.6" r="1.75"/>
        </g>
        <g transform="matrix(2.83465,0,0,2.83465,-60,-59)">
            <circle cx="184.57" cy="69.14" r="1.75"/>
        </g>
        <g transform="matrix(2.83465,0,0,2.83465,-60,-59)">
            <circle cx="190.91" cy="66.6" r="1.75"/>
        </g>
        <g transform="matrix(2.83465,0,0,2.83465,-60,-59)">
            <circle cx="55.983" cy="88.19" r="1.75"/>
        </g>
        <g transform="matrix(2.83465,0,0,2.83465,-60,-59)">
            <circle cx="62.322" cy="85.65" r="1.75"/>
        </g>
        <g transform="matrix(2.83465,0,0,2.83465,-60,-59)">
            <circle cx="294.108" cy="107.24" r="1.75"/>
        </g>
        <g transform="matrix(2.83465,0,0,2.83465,-60,-59)">
            <circle cx="300.448" cy="104.7" r="1.75"/>
        </g>
        <g transform="matrix(2.83465,0,0,2.83465,-60,-59)">
            <circle cx="92.123" cy="36.41" r="1.75"/>
        </g>
        <g transform="matrix(2.83465,0,0,2.83465,-60,-59)">
            <circle cx="97.123" cy="38.51" r="1.75"/>
        </g>
        <g transform="matrix(2.83465,0,0,2.83465,-60,-59)">
            <circle cx="120.698" cy="36.41" r="1.75"/>
        </g>
        <g transform="matrix(2.83465,0,0,2.83465,-60,-59)">
            <circle cx="125.698" cy="38.51" r="1.75"/>
        </g>
        <g transform="matrix(2.83465,0,0,2.83465,-60,-59)">
            <circle cx="149.273" cy="36.41" r="1.75"/>
        </g>
        <g transform="matrix(2.83465,0,0,2.83465,-60,-59)">
            <circle cx="154.273" cy="38.51" r="1.75"/>
        </g>
        <g transform="matrix(2.83465,0,0,2.83465,-60,-59)">
            <circle cx="177.848" cy="36.41" r="1.75"/>
        </g>
        <g transform="matrix(2.83465,0,0,2.83465,-60,-59)">
            <circle cx="182.848" cy="38.51" r="1.75"/>
        </g>
        <g transform="matrix(2.83465,0,0,2.83465,-60,-59)">
            <circle cx="320.723" cy="36.41" r="1.75"/>
        </g>
        <g transform="matrix(2.83465,0,0,2.83465,-60,-59)">
            <circle cx="325.723" cy="38.51" r="1.75"/>
        </g>
        <g transform="matrix(2.83465,0,0,2.83465,-60,-59)">
            <path d="M351.56,25.36L351.56,148.66" style="fill:none;fill-rule:nonzero;stroke:black;stroke-width:0.05px;"/>
        </g>
        <g transform="matrix(2.83465,0,0,2.83465,-60,-59)">
            <path d="M22.36,148.66C22.36,150.306 23.714,151.66 25.36,151.66" style="fill:none;fill-rule:nonzero;stroke:black;stroke-width:0.05px;"/>
        </g>
        <g transform="matrix(2.83465,0,0,2.83465,-60,-59)">
            <path d="M351.56,25.36C351.56,23.714 350.206,22.36 348.56,22.36" style="fill:none;fill-rule:nonzero;stroke:black;stroke-width:0.05px;"/>
        </g>
        <g transform="matrix(2.83465,0,0,2.83465,-60,-59)">
            <path d="M348.56,151.66C350.206,151.66 351.56,150.306 351.56,148.66" style="fill:none;fill-rule:nonzero;stroke:black;stroke-width:0.05px;"/>
        </g>
        <g transform="matrix(2.83465,0,0,2.83465,-60,-59)">
            <path d="M47.36,151.66C49.006,151.66 50.36,150.306 50.36,148.66" style="fill:none;fill-rule:nonzero;stroke:black;stroke-width:0.05px;"/>
        </g>
        <g transform="matrix(2.83465,0,0,2.83465,-60,-59)">
            <path d="M72.26,148.66C72.26,150.306 73.614,151.66 75.26,151.66" style="fill:none;fill-rule:nonzero;stroke:black;stroke-width:0.05px;"/>
        </g>
        <g transform="matrix(2.83465,0,0,2.83465,-60,-59)">
            <path d="M72.26,146.56L72.26,148.66" style="fill:none;fill-rule:nonzero;stroke:black;stroke-width:0.05px;"/>
        </g>
        <g transform="matrix(2.83465,0,0,2.83465,-60,-59)">
            <path d="M75.26,151.66L296.6,151.66" style="fill:none;fill-rule:nonzero;stroke:black;stroke-width:0.05px;"/>
        </g>
        <g transform="matrix(2.83465,0,0,2.83465,-60,-59)">
            <path d="M296.6,151.66C298.246,151.66 299.6,150.306 299.6,148.66" style="fill:none;fill-rule:nonzero;stroke:black;stroke-width:0.05px;"/>
        </g>
        <g transform="matrix(2.83465,0,0,2.83465,-60,-59)">
            <path d="M299.6,146.56L321.5,146.56" style="fill:none;fill-rule:nonzero;stroke:black;stroke-width:0.05px;"/>
        </g>
        <g transform="matrix(2.83465,0,0,2.83465,-60,-59)">
            <path d="M321.5,146.56L321.5,148.66" style="fill:none;fill-rule:nonzero;stroke:black;stroke-width:0.05px;"/>
        </g>
        <g transform="matrix(2.83465,0,0,2.83465,-60,-59)">
            <path d="M299.6,146.56L299.6,148.66" style="fill:none;fill-rule:nonzero;stroke:black;stroke-width:0.05px;"/>
        </g>
        <g transform="matrix(2.83465,0,0,2.83465,-60,-59)">
            <path d="M321.5,148.66C321.5,150.306 322.854,151.66 324.5,151.66" style="fill:none;fill-rule:nonzero;stroke:black;stroke-width:0.05px;"/>
        </g>
        <g transform="matrix(2.83465,0,0,2.83465,-60,-59)">
            <path d="M324.5,151.66L348.56,151.66" style="fill:none;fill-rule:nonzero;stroke:black;stroke-width:0.05px;"/>
        </g>
        <g transform="matrix(2.83465,0,0,2.83465,-60,-59)">
            <path d="M25.36,151.66L47.36,151.66" style="fill:none;fill-rule:nonzero;stroke:black;stroke-width:0.05px;"/>
        </g>
        <g transform="matrix(2.83465,0,0,2.83465,-60,-59)">
            <path d="M25.36,22.36L348.56,22.36" style="fill:none;fill-rule:nonzero;stroke:black;stroke-width:0.05px;"/>
        </g>
        <g transform="matrix(2.83465,0,0,2.83465,-60,-59)">
            <path d="M50.36,146.56L72.26,146.56" style="fill:none;fill-rule:nonzero;stroke:black;stroke-width:0.05px;"/>
        </g>
        <g transform="matrix(2.83465,0,0,2.83465,-60,-59)">
            <path d="M25.36,22.36C23.714,22.36 22.36,23.714 22.36,25.36" style="fill:none;fill-rule:nonzero;stroke:black;stroke-width:0.05px;"/>
        </g>
        <g transform="matrix(2.83465,0,0,2.83465,-60,-59)">
            <path d="M50.36,146.56L50.36,148.66" style="fill:none;fill-rule:nonzero;stroke:black;stroke-width:0.05px;"/>
        </g>
        <g transform="matrix(2.83465,0,0,2.83465,-60,-59)">
            <path d="M22.36,25.36L22.36,148.66" style="fill:none;fill-rule:nonzero;stroke:black;stroke-width:0.05px;"/>
        </g>
    </g>
</svg>
