<?xml version="1.0" encoding="UTF-8" standalone="no"?>
<!DOCTYPE svg PUBLIC "-//W3C//DTD SVG 1.1//EN" "http://www.w3.org/Graphics/SVG/1.1/DTD/svg11.dtd">
<svg width="100%" height="100%" viewBox="0 0 1261 699" version="1.1" xmlns="http://www.w3.org/2000/svg" xmlns:xlink="http://www.w3.org/1999/xlink" xml:space="preserve" xmlns:serif="http://www.serif.com/" style="fill-rule:evenodd;clip-rule:evenodd;stroke-linejoin:round;stroke-miterlimit:2;">
    <g id="Reset" transform="matrix(1,0,0,1,699.212598,473.622047)">
        <g>
            <path d="M0,225L225,0L562.5,0L337.5,225L0,225Z" style="fill:rgb(199,187,179);"/>
            <clipPath id="_clip1">
                <path d="M0,225L225,0L562.5,0L337.5,225L0,225Z"/>
            </clipPath>
            <g clip-path="url(#_clip1)">
                <g transform="matrix(2.950503,0,0,1.008558,-447.087849,9.500163)">
                    <g transform="matrix(0.338925,0,0,0.991514,149.884299,0.206135)">
                        <g transform="matrix(50,0,0,50,226.728207,60.082954)">
                            <path d="M0.073,-0L0.073,-0.716L0.377,-0.716C0.454,-0.716 0.51,-0.709 0.544,-0.697C0.579,-0.684 0.607,-0.661 0.627,-0.628C0.648,-0.595 0.659,-0.557 0.659,-0.515C0.659,-0.461 0.643,-0.417 0.611,-0.382C0.58,-0.347 0.533,-0.325 0.47,-0.316C0.501,-0.298 0.527,-0.278 0.547,-0.256C0.567,-0.234 0.595,-0.195 0.629,-0.14L0.717,-0L0.544,-0L0.439,-0.156C0.402,-0.211 0.377,-0.247 0.363,-0.261C0.35,-0.275 0.335,-0.285 0.32,-0.291C0.305,-0.296 0.28,-0.299 0.247,-0.299L0.218,-0.299L0.218,-0L0.073,-0ZM0.218,-0.413L0.325,-0.413C0.394,-0.413 0.437,-0.416 0.455,-0.422C0.472,-0.428 0.485,-0.438 0.495,-0.452C0.505,-0.466 0.51,-0.484 0.51,-0.506C0.51,-0.53 0.503,-0.549 0.49,-0.564C0.478,-0.579 0.459,-0.588 0.436,-0.592C0.424,-0.594 0.389,-0.595 0.331,-0.595L0.218,-0.595L0.218,-0.413Z" style="fill:rgb(35,31,32);fill-rule:nonzero;"/>
                        </g>
                        <g transform="matrix(50,0,0,50,262.836605,60.082954)">
                            <path d="M0.372,-0.165L0.509,-0.142C0.491,-0.092 0.463,-0.054 0.426,-0.028C0.388,-0.001 0.34,0.012 0.283,0.012C0.193,0.012 0.126,-0.018 0.083,-0.077C0.049,-0.124 0.032,-0.183 0.032,-0.255C0.032,-0.341 0.054,-0.409 0.099,-0.457C0.144,-0.506 0.201,-0.53 0.27,-0.53C0.347,-0.53 0.408,-0.505 0.452,-0.454C0.497,-0.403 0.518,-0.325 0.516,-0.22L0.172,-0.22C0.173,-0.179 0.184,-0.147 0.206,-0.125C0.227,-0.102 0.253,-0.091 0.285,-0.091C0.306,-0.091 0.324,-0.097 0.339,-0.108C0.354,-0.12 0.365,-0.139 0.372,-0.165ZM0.38,-0.304C0.379,-0.343 0.369,-0.374 0.349,-0.394C0.33,-0.415 0.306,-0.425 0.278,-0.425C0.248,-0.425 0.223,-0.414 0.204,-0.393C0.184,-0.371 0.174,-0.341 0.175,-0.304L0.38,-0.304Z" style="fill:rgb(35,31,32);fill-rule:nonzero;"/>
                        </g>
                        <g transform="matrix(50,0,0,50,290.644222,60.082954)">
                            <path d="M0.023,-0.148L0.161,-0.169C0.167,-0.142 0.179,-0.122 0.197,-0.108C0.215,-0.094 0.24,-0.087 0.272,-0.087C0.307,-0.087 0.334,-0.094 0.352,-0.107C0.364,-0.116 0.37,-0.128 0.37,-0.144C0.37,-0.154 0.367,-0.163 0.36,-0.169C0.354,-0.176 0.338,-0.182 0.314,-0.188C0.204,-0.212 0.134,-0.234 0.104,-0.254C0.063,-0.282 0.042,-0.321 0.042,-0.371C0.042,-0.416 0.06,-0.454 0.096,-0.484C0.131,-0.515 0.186,-0.53 0.261,-0.53C0.332,-0.53 0.384,-0.519 0.419,-0.496C0.453,-0.472 0.477,-0.438 0.49,-0.393L0.361,-0.369C0.355,-0.389 0.345,-0.405 0.329,-0.416C0.314,-0.426 0.292,-0.432 0.263,-0.432C0.227,-0.432 0.201,-0.427 0.186,-0.417C0.175,-0.409 0.17,-0.4 0.17,-0.389C0.17,-0.379 0.174,-0.371 0.184,-0.364C0.196,-0.355 0.239,-0.342 0.312,-0.325C0.385,-0.309 0.436,-0.288 0.465,-0.264C0.493,-0.24 0.508,-0.206 0.508,-0.162C0.508,-0.115 0.488,-0.074 0.448,-0.04C0.409,-0.005 0.35,0.012 0.272,0.012C0.201,0.012 0.145,-0.003 0.104,-0.031C0.063,-0.06 0.036,-0.099 0.023,-0.148Z" style="fill:rgb(35,31,32);fill-rule:nonzero;"/>
                        </g>
                        <g transform="matrix(50,0,0,50,318.45184,60.082954)">
                            <path d="M0.372,-0.165L0.509,-0.142C0.491,-0.092 0.463,-0.054 0.426,-0.028C0.388,-0.001 0.34,0.012 0.283,0.012C0.193,0.012 0.126,-0.018 0.083,-0.077C0.049,-0.124 0.032,-0.183 0.032,-0.255C0.032,-0.341 0.054,-0.409 0.099,-0.457C0.144,-0.506 0.201,-0.53 0.27,-0.53C0.347,-0.53 0.408,-0.505 0.452,-0.454C0.497,-0.403 0.518,-0.325 0.516,-0.22L0.172,-0.22C0.173,-0.179 0.184,-0.147 0.206,-0.125C0.227,-0.102 0.253,-0.091 0.285,-0.091C0.306,-0.091 0.324,-0.097 0.339,-0.108C0.354,-0.12 0.365,-0.139 0.372,-0.165ZM0.38,-0.304C0.379,-0.343 0.369,-0.374 0.349,-0.394C0.33,-0.415 0.306,-0.425 0.278,-0.425C0.248,-0.425 0.223,-0.414 0.204,-0.393C0.184,-0.371 0.174,-0.341 0.175,-0.304L0.38,-0.304Z" style="fill:rgb(35,31,32);fill-rule:nonzero;"/>
                        </g>
                        <g transform="matrix(50,0,0,50,346.259457,60.082954)">
                            <path d="M0.31,-0.519L0.31,-0.409L0.216,-0.409L0.216,-0.2C0.216,-0.158 0.217,-0.133 0.219,-0.126C0.22,-0.119 0.224,-0.113 0.231,-0.109C0.237,-0.104 0.245,-0.102 0.254,-0.102C0.267,-0.102 0.285,-0.106 0.309,-0.115L0.321,-0.009C0.289,0.005 0.253,0.012 0.212,0.012C0.188,0.012 0.165,0.008 0.146,-0.001C0.126,-0.009 0.111,-0.02 0.102,-0.033C0.093,-0.046 0.086,-0.064 0.083,-0.086C0.08,-0.102 0.078,-0.135 0.078,-0.183L0.078,-0.409L0.015,-0.409L0.015,-0.519L0.078,-0.519L0.078,-0.622L0.216,-0.702L0.216,-0.519L0.31,-0.519Z" style="fill:rgb(35,31,32);fill-rule:nonzero;"/>
                        </g>
                    </g>
                </g>
            </g>
        </g>
        <g transform="matrix(2.950503,0,0,1.008558,-447.087849,9.500163)">
            <g transform="matrix(0.338925,0,0,0.991514,149.884299,0.206135)">
                <g transform="matrix(50,0,0,50,226.728207,60.082954)">
                    <path d="M0.073,-0L0.073,-0.716L0.377,-0.716C0.454,-0.716 0.51,-0.709 0.544,-0.697C0.579,-0.684 0.607,-0.661 0.627,-0.628C0.648,-0.595 0.659,-0.557 0.659,-0.515C0.659,-0.461 0.643,-0.417 0.611,-0.382C0.58,-0.347 0.533,-0.325 0.47,-0.316C0.501,-0.298 0.527,-0.278 0.547,-0.256C0.567,-0.234 0.595,-0.195 0.629,-0.14L0.717,-0L0.544,-0L0.439,-0.156C0.402,-0.211 0.377,-0.247 0.363,-0.261C0.35,-0.275 0.335,-0.285 0.32,-0.291C0.305,-0.296 0.28,-0.299 0.247,-0.299L0.218,-0.299L0.218,-0L0.073,-0ZM0.218,-0.413L0.325,-0.413C0.394,-0.413 0.437,-0.416 0.455,-0.422C0.472,-0.428 0.485,-0.438 0.495,-0.452C0.505,-0.466 0.51,-0.484 0.51,-0.506C0.51,-0.53 0.503,-0.549 0.49,-0.564C0.478,-0.579 0.459,-0.588 0.436,-0.592C0.424,-0.594 0.389,-0.595 0.331,-0.595L0.218,-0.595L0.218,-0.413Z" style="fill:rgb(233,232,226);fill-rule:nonzero;"/>
                </g>
                <g transform="matrix(50,0,0,50,262.836605,60.082954)">
                    <path d="M0.372,-0.165L0.509,-0.142C0.491,-0.092 0.463,-0.054 0.426,-0.028C0.388,-0.001 0.34,0.012 0.283,0.012C0.193,0.012 0.126,-0.018 0.083,-0.077C0.049,-0.124 0.032,-0.183 0.032,-0.255C0.032,-0.341 0.054,-0.409 0.099,-0.457C0.144,-0.506 0.201,-0.53 0.27,-0.53C0.347,-0.53 0.408,-0.505 0.452,-0.454C0.497,-0.403 0.518,-0.325 0.516,-0.22L0.172,-0.22C0.173,-0.179 0.184,-0.147 0.206,-0.125C0.227,-0.102 0.253,-0.091 0.285,-0.091C0.306,-0.091 0.324,-0.097 0.339,-0.108C0.354,-0.12 0.365,-0.139 0.372,-0.165ZM0.38,-0.304C0.379,-0.343 0.369,-0.374 0.349,-0.394C0.33,-0.415 0.306,-0.425 0.278,-0.425C0.248,-0.425 0.223,-0.414 0.204,-0.393C0.184,-0.371 0.174,-0.341 0.175,-0.304L0.38,-0.304Z" style="fill:rgb(233,232,226);fill-rule:nonzero;"/>
                </g>
                <g transform="matrix(50,0,0,50,290.644222,60.082954)">
                    <path d="M0.023,-0.148L0.161,-0.169C0.167,-0.142 0.179,-0.122 0.197,-0.108C0.215,-0.094 0.24,-0.087 0.272,-0.087C0.307,-0.087 0.334,-0.094 0.352,-0.107C0.364,-0.116 0.37,-0.128 0.37,-0.144C0.37,-0.154 0.367,-0.163 0.36,-0.169C0.354,-0.176 0.338,-0.182 0.314,-0.188C0.204,-0.212 0.134,-0.234 0.104,-0.254C0.063,-0.282 0.042,-0.321 0.042,-0.371C0.042,-0.416 0.06,-0.454 0.096,-0.484C0.131,-0.515 0.186,-0.53 0.261,-0.53C0.332,-0.53 0.384,-0.519 0.419,-0.496C0.453,-0.472 0.477,-0.438 0.49,-0.393L0.361,-0.369C0.355,-0.389 0.345,-0.405 0.329,-0.416C0.314,-0.426 0.292,-0.432 0.263,-0.432C0.227,-0.432 0.201,-0.427 0.186,-0.417C0.175,-0.409 0.17,-0.4 0.17,-0.389C0.17,-0.379 0.174,-0.371 0.184,-0.364C0.196,-0.355 0.239,-0.342 0.312,-0.325C0.385,-0.309 0.436,-0.288 0.465,-0.264C0.493,-0.24 0.508,-0.206 0.508,-0.162C0.508,-0.115 0.488,-0.074 0.448,-0.04C0.409,-0.005 0.35,0.012 0.272,0.012C0.201,0.012 0.145,-0.003 0.104,-0.031C0.063,-0.06 0.036,-0.099 0.023,-0.148Z" style="fill:rgb(233,232,226);fill-rule:nonzero;"/>
                </g>
                <g transform="matrix(50,0,0,50,318.45184,60.082954)">
                    <path d="M0.372,-0.165L0.509,-0.142C0.491,-0.092 0.463,-0.054 0.426,-0.028C0.388,-0.001 0.34,0.012 0.283,0.012C0.193,0.012 0.126,-0.018 0.083,-0.077C0.049,-0.124 0.032,-0.183 0.032,-0.255C0.032,-0.341 0.054,-0.409 0.099,-0.457C0.144,-0.506 0.201,-0.53 0.27,-0.53C0.347,-0.53 0.408,-0.505 0.452,-0.454C0.497,-0.403 0.518,-0.325 0.516,-0.22L0.172,-0.22C0.173,-0.179 0.184,-0.147 0.206,-0.125C0.227,-0.102 0.253,-0.091 0.285,-0.091C0.306,-0.091 0.324,-0.097 0.339,-0.108C0.354,-0.12 0.365,-0.139 0.372,-0.165ZM0.38,-0.304C0.379,-0.343 0.369,-0.374 0.349,-0.394C0.33,-0.415 0.306,-0.425 0.278,-0.425C0.248,-0.425 0.223,-0.414 0.204,-0.393C0.184,-0.371 0.174,-0.341 0.175,-0.304L0.38,-0.304Z" style="fill:rgb(233,232,226);fill-rule:nonzero;"/>
                </g>
                <g transform="matrix(50,0,0,50,346.259457,60.082954)">
                    <path d="M0.31,-0.519L0.31,-0.409L0.216,-0.409L0.216,-0.2C0.216,-0.158 0.217,-0.133 0.219,-0.126C0.22,-0.119 0.224,-0.113 0.231,-0.109C0.237,-0.104 0.245,-0.102 0.254,-0.102C0.267,-0.102 0.285,-0.106 0.309,-0.115L0.321,-0.009C0.289,0.005 0.253,0.012 0.212,0.012C0.188,0.012 0.165,0.008 0.146,-0.001C0.126,-0.009 0.111,-0.02 0.102,-0.033C0.093,-0.046 0.086,-0.064 0.083,-0.086C0.08,-0.102 0.078,-0.135 0.078,-0.183L0.078,-0.409L0.015,-0.409L0.015,-0.519L0.078,-0.519L0.078,-0.622L0.216,-0.702L0.216,-0.519L0.31,-0.519Z" style="fill:rgb(233,232,226);fill-rule:nonzero;"/>
                </g>
            </g>
        </g>
    </g>
    <g id="Option" transform="matrix(1,0,0,1,349.606299,473.622047)">
        <g>
            <path d="M0,225L225,0L562.5,0L337.5,225L0,225Z" style="fill:rgb(199,187,179);"/>
            <clipPath id="_clip2">
                <path d="M0,225L225,0L562.5,0L337.5,225L0,225Z"/>
            </clipPath>
            <g clip-path="url(#_clip2)">
                <g transform="matrix(2.950503,0,0,1.008558,-447.087849,9.500163)">
                    <g transform="matrix(0.338925,0,0,0.991514,149.884299,0.206135)">
                        <g transform="matrix(50,0,0,50,226.728207,60.082954)">
                            <path d="M0.043,-0.354C0.043,-0.426 0.054,-0.488 0.076,-0.537C0.092,-0.574 0.115,-0.606 0.143,-0.635C0.171,-0.664 0.202,-0.686 0.235,-0.7C0.28,-0.719 0.331,-0.728 0.39,-0.728C0.495,-0.728 0.58,-0.695 0.643,-0.63C0.706,-0.564 0.738,-0.473 0.738,-0.357C0.738,-0.241 0.706,-0.151 0.644,-0.086C0.581,-0.02 0.497,0.012 0.392,0.012C0.285,0.012 0.201,-0.02 0.138,-0.085C0.075,-0.15 0.043,-0.24 0.043,-0.354ZM0.192,-0.358C0.192,-0.277 0.211,-0.216 0.249,-0.174C0.286,-0.132 0.333,-0.111 0.391,-0.111C0.449,-0.111 0.496,-0.132 0.533,-0.174C0.57,-0.215 0.588,-0.277 0.588,-0.36C0.588,-0.442 0.57,-0.504 0.534,-0.544C0.498,-0.584 0.451,-0.604 0.391,-0.604C0.332,-0.604 0.284,-0.584 0.247,-0.543C0.211,-0.502 0.192,-0.441 0.192,-0.358Z" style="fill:rgb(35,31,32);fill-rule:nonzero;"/>
                        </g>
                        <g transform="matrix(50,0,0,50,265.619808,60.082954)">
                            <path d="M0.068,-0.519L0.196,-0.519L0.196,-0.442C0.212,-0.468 0.235,-0.49 0.263,-0.506C0.292,-0.522 0.323,-0.53 0.357,-0.53C0.418,-0.53 0.469,-0.507 0.511,-0.459C0.553,-0.412 0.574,-0.347 0.574,-0.262C0.574,-0.176 0.553,-0.108 0.51,-0.06C0.468,-0.012 0.417,0.012 0.356,0.012C0.328,0.012 0.302,0.006 0.279,-0.005C0.255,-0.017 0.231,-0.036 0.205,-0.064L0.205,0.197L0.068,0.197L0.068,-0.519ZM0.204,-0.268C0.204,-0.21 0.215,-0.167 0.238,-0.139C0.261,-0.111 0.29,-0.097 0.323,-0.097C0.355,-0.097 0.381,-0.11 0.402,-0.135C0.424,-0.161 0.434,-0.203 0.434,-0.261C0.434,-0.316 0.423,-0.356 0.401,-0.382C0.38,-0.409 0.353,-0.422 0.32,-0.422C0.287,-0.422 0.259,-0.409 0.237,-0.383C0.215,-0.357 0.204,-0.319 0.204,-0.268Z" style="fill:rgb(35,31,32);fill-rule:nonzero;"/>
                        </g>
                        <g transform="matrix(50,0,0,50,296.1618,60.082954)">
                            <path d="M0.31,-0.519L0.31,-0.409L0.216,-0.409L0.216,-0.2C0.216,-0.158 0.217,-0.133 0.219,-0.126C0.22,-0.119 0.224,-0.113 0.231,-0.109C0.237,-0.104 0.245,-0.102 0.254,-0.102C0.267,-0.102 0.285,-0.106 0.309,-0.115L0.321,-0.009C0.289,0.005 0.253,0.012 0.212,0.012C0.188,0.012 0.165,0.008 0.146,-0.001C0.126,-0.009 0.111,-0.02 0.102,-0.033C0.093,-0.046 0.086,-0.064 0.083,-0.086C0.08,-0.102 0.078,-0.135 0.078,-0.183L0.078,-0.409L0.015,-0.409L0.015,-0.519L0.078,-0.519L0.078,-0.622L0.216,-0.702L0.216,-0.519L0.31,-0.519Z" style="fill:rgb(35,31,32);fill-rule:nonzero;"/>
                        </g>
                        <g transform="matrix(50,0,0,50,312.812191,60.082954)">
                            <path d="M0.072,-0.589L0.072,-0.716L0.209,-0.716L0.209,-0.589L0.072,-0.589ZM0.072,-0L0.072,-0.519L0.209,-0.519L0.209,-0L0.072,-0Z" style="fill:rgb(35,31,32);fill-rule:nonzero;"/>
                        </g>
                        <g transform="matrix(50,0,0,50,326.703793,60.082954)">
                            <path d="M0.04,-0.267C0.04,-0.312 0.051,-0.356 0.074,-0.399C0.096,-0.442 0.128,-0.474 0.169,-0.497C0.21,-0.519 0.256,-0.53 0.307,-0.53C0.386,-0.53 0.45,-0.505 0.5,-0.454C0.55,-0.403 0.575,-0.339 0.575,-0.261C0.575,-0.182 0.55,-0.117 0.499,-0.066C0.449,-0.014 0.385,0.012 0.308,0.012C0.261,0.012 0.215,0.001 0.172,-0.021C0.129,-0.042 0.096,-0.073 0.074,-0.115C0.051,-0.156 0.04,-0.207 0.04,-0.267ZM0.181,-0.259C0.181,-0.208 0.193,-0.168 0.217,-0.141C0.242,-0.114 0.272,-0.1 0.308,-0.1C0.343,-0.1 0.373,-0.114 0.398,-0.141C0.422,-0.168 0.434,-0.208 0.434,-0.26C0.434,-0.311 0.422,-0.35 0.398,-0.377C0.373,-0.405 0.343,-0.418 0.308,-0.418C0.272,-0.418 0.242,-0.405 0.217,-0.377C0.193,-0.35 0.181,-0.311 0.181,-0.259Z" style="fill:rgb(35,31,32);fill-rule:nonzero;"/>
                        </g>
                        <g transform="matrix(50,0,0,50,357.245785,60.082954)">
                            <path d="M0.543,-0L0.406,-0L0.406,-0.265C0.406,-0.321 0.403,-0.357 0.397,-0.373C0.392,-0.39 0.382,-0.403 0.369,-0.412C0.356,-0.421 0.34,-0.425 0.321,-0.425C0.298,-0.425 0.276,-0.419 0.257,-0.406C0.238,-0.393 0.226,-0.375 0.219,-0.354C0.212,-0.333 0.208,-0.293 0.208,-0.235L0.208,-0L0.071,-0L0.071,-0.519L0.198,-0.519L0.198,-0.442C0.243,-0.501 0.3,-0.53 0.369,-0.53C0.399,-0.53 0.427,-0.525 0.452,-0.514C0.477,-0.503 0.496,-0.489 0.509,-0.472C0.522,-0.455 0.531,-0.436 0.536,-0.415C0.541,-0.393 0.543,-0.362 0.543,-0.322L0.543,-0Z" style="fill:rgb(35,31,32);fill-rule:nonzero;"/>
                        </g>
                    </g>
                </g>
            </g>
        </g>
        <g transform="matrix(2.950503,0,0,1.008558,-447.087849,9.500163)">
            <g transform="matrix(0.338925,0,0,0.991514,149.884299,0.206135)">
                <g transform="matrix(50,0,0,50,226.728207,60.082954)">
                    <path d="M0.043,-0.354C0.043,-0.426 0.054,-0.488 0.076,-0.537C0.092,-0.574 0.115,-0.606 0.143,-0.635C0.171,-0.664 0.202,-0.686 0.235,-0.7C0.28,-0.719 0.331,-0.728 0.39,-0.728C0.495,-0.728 0.58,-0.695 0.643,-0.63C0.706,-0.564 0.738,-0.473 0.738,-0.357C0.738,-0.241 0.706,-0.151 0.644,-0.086C0.581,-0.02 0.497,0.012 0.392,0.012C0.285,0.012 0.201,-0.02 0.138,-0.085C0.075,-0.15 0.043,-0.24 0.043,-0.354ZM0.192,-0.358C0.192,-0.277 0.211,-0.216 0.249,-0.174C0.286,-0.132 0.333,-0.111 0.391,-0.111C0.449,-0.111 0.496,-0.132 0.533,-0.174C0.57,-0.215 0.588,-0.277 0.588,-0.36C0.588,-0.442 0.57,-0.504 0.534,-0.544C0.498,-0.584 0.451,-0.604 0.391,-0.604C0.332,-0.604 0.284,-0.584 0.247,-0.543C0.211,-0.502 0.192,-0.441 0.192,-0.358Z" style="fill:rgb(233,232,226);fill-rule:nonzero;"/>
                </g>
                <g transform="matrix(50,0,0,50,265.619808,60.082954)">
                    <path d="M0.068,-0.519L0.196,-0.519L0.196,-0.442C0.212,-0.468 0.235,-0.49 0.263,-0.506C0.292,-0.522 0.323,-0.53 0.357,-0.53C0.418,-0.53 0.469,-0.507 0.511,-0.459C0.553,-0.412 0.574,-0.347 0.574,-0.262C0.574,-0.176 0.553,-0.108 0.51,-0.06C0.468,-0.012 0.417,0.012 0.356,0.012C0.328,0.012 0.302,0.006 0.279,-0.005C0.255,-0.017 0.231,-0.036 0.205,-0.064L0.205,0.197L0.068,0.197L0.068,-0.519ZM0.204,-0.268C0.204,-0.21 0.215,-0.167 0.238,-0.139C0.261,-0.111 0.29,-0.097 0.323,-0.097C0.355,-0.097 0.381,-0.11 0.402,-0.135C0.424,-0.161 0.434,-0.203 0.434,-0.261C0.434,-0.316 0.423,-0.356 0.401,-0.382C0.38,-0.409 0.353,-0.422 0.32,-0.422C0.287,-0.422 0.259,-0.409 0.237,-0.383C0.215,-0.357 0.204,-0.319 0.204,-0.268Z" style="fill:rgb(233,232,226);fill-rule:nonzero;"/>
                </g>
                <g transform="matrix(50,0,0,50,296.1618,60.082954)">
                    <path d="M0.31,-0.519L0.31,-0.409L0.216,-0.409L0.216,-0.2C0.216,-0.158 0.217,-0.133 0.219,-0.126C0.22,-0.119 0.224,-0.113 0.231,-0.109C0.237,-0.104 0.245,-0.102 0.254,-0.102C0.267,-0.102 0.285,-0.106 0.309,-0.115L0.321,-0.009C0.289,0.005 0.253,0.012 0.212,0.012C0.188,0.012 0.165,0.008 0.146,-0.001C0.126,-0.009 0.111,-0.02 0.102,-0.033C0.093,-0.046 0.086,-0.064 0.083,-0.086C0.08,-0.102 0.078,-0.135 0.078,-0.183L0.078,-0.409L0.015,-0.409L0.015,-0.519L0.078,-0.519L0.078,-0.622L0.216,-0.702L0.216,-0.519L0.31,-0.519Z" style="fill:rgb(233,232,226);fill-rule:nonzero;"/>
                </g>
                <g transform="matrix(50,0,0,50,312.812191,60.082954)">
                    <path d="M0.072,-0.589L0.072,-0.716L0.209,-0.716L0.209,-0.589L0.072,-0.589ZM0.072,-0L0.072,-0.519L0.209,-0.519L0.209,-0L0.072,-0Z" style="fill:rgb(233,232,226);fill-rule:nonzero;"/>
                </g>
                <g transform="matrix(50,0,0,50,326.703793,60.082954)">
                    <path d="M0.04,-0.267C0.04,-0.312 0.051,-0.356 0.074,-0.399C0.096,-0.442 0.128,-0.474 0.169,-0.497C0.21,-0.519 0.256,-0.53 0.307,-0.53C0.386,-0.53 0.45,-0.505 0.5,-0.454C0.55,-0.403 0.575,-0.339 0.575,-0.261C0.575,-0.182 0.55,-0.117 0.499,-0.066C0.449,-0.014 0.385,0.012 0.308,0.012C0.261,0.012 0.215,0.001 0.172,-0.021C0.129,-0.042 0.096,-0.073 0.074,-0.115C0.051,-0.156 0.04,-0.207 0.04,-0.267ZM0.181,-0.259C0.181,-0.208 0.193,-0.168 0.217,-0.141C0.242,-0.114 0.272,-0.1 0.308,-0.1C0.343,-0.1 0.373,-0.114 0.398,-0.141C0.422,-0.168 0.434,-0.208 0.434,-0.26C0.434,-0.311 0.422,-0.35 0.398,-0.377C0.373,-0.405 0.343,-0.418 0.308,-0.418C0.272,-0.418 0.242,-0.405 0.217,-0.377C0.193,-0.35 0.181,-0.311 0.181,-0.259Z" style="fill:rgb(233,232,226);fill-rule:nonzero;"/>
                </g>
                <g transform="matrix(50,0,0,50,357.245785,60.082954)">
                    <path d="M0.543,-0L0.406,-0L0.406,-0.265C0.406,-0.321 0.403,-0.357 0.397,-0.373C0.392,-0.39 0.382,-0.403 0.369,-0.412C0.356,-0.421 0.34,-0.425 0.321,-0.425C0.298,-0.425 0.276,-0.419 0.257,-0.406C0.238,-0.393 0.226,-0.375 0.219,-0.354C0.212,-0.333 0.208,-0.293 0.208,-0.235L0.208,-0L0.071,-0L0.071,-0.519L0.198,-0.519L0.198,-0.442C0.243,-0.501 0.3,-0.53 0.369,-0.53C0.399,-0.53 0.427,-0.525 0.452,-0.514C0.477,-0.503 0.496,-0.489 0.509,-0.472C0.522,-0.455 0.531,-0.436 0.536,-0.415C0.541,-0.393 0.543,-0.362 0.543,-0.322L0.543,-0Z" style="fill:rgb(233,232,226);fill-rule:nonzero;"/>
                </g>
            </g>
        </g>
    </g>
    <g id="Select" transform="matrix(1,0,0,1,0,473.622047)">
        <g>
            <path d="M0,225L225,0L562.5,0L337.5,225L0,225Z" style="fill:rgb(199,187,179);"/>
            <clipPath id="_clip3">
                <path d="M0,225L225,0L562.5,0L337.5,225L0,225Z"/>
            </clipPath>
            <g clip-path="url(#_clip3)">
                <g transform="matrix(2.950503,0,0,1.008558,-447.087849,9.500163)">
                    <g transform="matrix(0.338925,0,0,0.991514,149.884299,0.206135)">
                        <g transform="matrix(50,0,0,50,226.728207,60.082954)">
                            <path d="M0.036,-0.233L0.177,-0.247C0.185,-0.199 0.202,-0.165 0.228,-0.143C0.254,-0.12 0.289,-0.109 0.333,-0.109C0.38,-0.109 0.415,-0.119 0.438,-0.139C0.462,-0.159 0.474,-0.182 0.474,-0.208C0.474,-0.225 0.469,-0.239 0.459,-0.251C0.449,-0.263 0.431,-0.273 0.407,-0.282C0.39,-0.288 0.351,-0.299 0.291,-0.313C0.214,-0.333 0.159,-0.356 0.128,-0.384C0.084,-0.424 0.062,-0.472 0.062,-0.528C0.062,-0.565 0.072,-0.599 0.093,-0.631C0.114,-0.662 0.143,-0.687 0.182,-0.703C0.221,-0.72 0.268,-0.728 0.323,-0.728C0.413,-0.728 0.481,-0.708 0.526,-0.669C0.572,-0.63 0.595,-0.577 0.598,-0.511L0.453,-0.505C0.447,-0.542 0.434,-0.568 0.413,-0.584C0.393,-0.6 0.362,-0.608 0.322,-0.608C0.28,-0.608 0.247,-0.6 0.223,-0.583C0.208,-0.571 0.2,-0.557 0.2,-0.538C0.2,-0.521 0.207,-0.507 0.222,-0.495C0.24,-0.479 0.284,-0.463 0.354,-0.447C0.425,-0.43 0.477,-0.413 0.51,-0.395C0.544,-0.378 0.571,-0.353 0.59,-0.323C0.609,-0.292 0.618,-0.254 0.618,-0.208C0.618,-0.167 0.607,-0.129 0.584,-0.093C0.561,-0.057 0.529,-0.031 0.487,-0.013C0.446,0.004 0.394,0.013 0.332,0.013C0.241,0.013 0.172,-0.008 0.123,-0.05C0.075,-0.092 0.046,-0.153 0.036,-0.233Z" style="fill:rgb(35,31,32);fill-rule:nonzero;"/>
                        </g>
                        <g transform="matrix(50,0,0,50,260.077816,60.082954)">
                            <path d="M0.372,-0.165L0.509,-0.142C0.491,-0.092 0.463,-0.054 0.426,-0.028C0.388,-0.001 0.34,0.012 0.283,0.012C0.193,0.012 0.126,-0.018 0.083,-0.077C0.049,-0.124 0.032,-0.183 0.032,-0.255C0.032,-0.341 0.054,-0.409 0.099,-0.457C0.144,-0.506 0.201,-0.53 0.27,-0.53C0.347,-0.53 0.408,-0.505 0.452,-0.454C0.497,-0.403 0.518,-0.325 0.516,-0.22L0.172,-0.22C0.173,-0.179 0.184,-0.147 0.206,-0.125C0.227,-0.102 0.253,-0.091 0.285,-0.091C0.306,-0.091 0.324,-0.097 0.339,-0.108C0.354,-0.12 0.365,-0.139 0.372,-0.165ZM0.38,-0.304C0.379,-0.343 0.369,-0.374 0.349,-0.394C0.33,-0.415 0.306,-0.425 0.278,-0.425C0.248,-0.425 0.223,-0.414 0.204,-0.393C0.184,-0.371 0.174,-0.341 0.175,-0.304L0.38,-0.304Z" style="fill:rgb(35,31,32);fill-rule:nonzero;"/>
                        </g>
                        <g transform="matrix(50,0,0,50,287.885433,60.082954)">
                            <rect x="0.072" y="-0.716" width="0.137" height="0.716" style="fill:rgb(35,31,32);fill-rule:nonzero;"/>
                        </g>
                        <g transform="matrix(50,0,0,50,301.777035,60.082954)">
                            <path d="M0.372,-0.165L0.509,-0.142C0.491,-0.092 0.463,-0.054 0.426,-0.028C0.388,-0.001 0.34,0.012 0.283,0.012C0.193,0.012 0.126,-0.018 0.083,-0.077C0.049,-0.124 0.032,-0.183 0.032,-0.255C0.032,-0.341 0.054,-0.409 0.099,-0.457C0.144,-0.506 0.201,-0.53 0.27,-0.53C0.347,-0.53 0.408,-0.505 0.452,-0.454C0.497,-0.403 0.518,-0.325 0.516,-0.22L0.172,-0.22C0.173,-0.179 0.184,-0.147 0.206,-0.125C0.227,-0.102 0.253,-0.091 0.285,-0.091C0.306,-0.091 0.324,-0.097 0.339,-0.108C0.354,-0.12 0.365,-0.139 0.372,-0.165ZM0.38,-0.304C0.379,-0.343 0.369,-0.374 0.349,-0.394C0.33,-0.415 0.306,-0.425 0.278,-0.425C0.248,-0.425 0.223,-0.414 0.204,-0.393C0.184,-0.371 0.174,-0.341 0.175,-0.304L0.38,-0.304Z" style="fill:rgb(35,31,32);fill-rule:nonzero;"/>
                        </g>
                        <g transform="matrix(50,0,0,50,329.584652,60.082954)">
                            <path d="M0.524,-0.365L0.389,-0.341C0.384,-0.368 0.374,-0.388 0.358,-0.402C0.342,-0.416 0.321,-0.422 0.295,-0.422C0.261,-0.422 0.233,-0.411 0.213,-0.387C0.193,-0.363 0.183,-0.324 0.183,-0.269C0.183,-0.207 0.193,-0.164 0.214,-0.138C0.234,-0.113 0.262,-0.1 0.297,-0.1C0.323,-0.1 0.344,-0.108 0.361,-0.122C0.377,-0.137 0.389,-0.163 0.396,-0.199L0.531,-0.176C0.517,-0.114 0.49,-0.067 0.45,-0.036C0.41,-0.004 0.357,0.012 0.291,0.012C0.215,0.012 0.154,-0.012 0.109,-0.06C0.064,-0.108 0.042,-0.174 0.042,-0.259C0.042,-0.344 0.064,-0.411 0.109,-0.459C0.155,-0.506 0.216,-0.53 0.293,-0.53C0.356,-0.53 0.406,-0.517 0.444,-0.49C0.481,-0.462 0.508,-0.421 0.524,-0.365Z" style="fill:rgb(35,31,32);fill-rule:nonzero;"/>
                        </g>
                        <g transform="matrix(50,0,0,50,357.392269,60.082954)">
                            <path d="M0.31,-0.519L0.31,-0.409L0.216,-0.409L0.216,-0.2C0.216,-0.158 0.217,-0.133 0.219,-0.126C0.22,-0.119 0.224,-0.113 0.231,-0.109C0.237,-0.104 0.245,-0.102 0.254,-0.102C0.267,-0.102 0.285,-0.106 0.309,-0.115L0.321,-0.009C0.289,0.005 0.253,0.012 0.212,0.012C0.188,0.012 0.165,0.008 0.146,-0.001C0.126,-0.009 0.111,-0.02 0.102,-0.033C0.093,-0.046 0.086,-0.064 0.083,-0.086C0.08,-0.102 0.078,-0.135 0.078,-0.183L0.078,-0.409L0.015,-0.409L0.015,-0.519L0.078,-0.519L0.078,-0.622L0.216,-0.702L0.216,-0.519L0.31,-0.519Z" style="fill:rgb(35,31,32);fill-rule:nonzero;"/>
                        </g>
                    </g>
                </g>
            </g>
        </g>
        <g transform="matrix(2.950503,0,0,1.008558,-447.087849,9.500163)">
            <g transform="matrix(0.338925,0,0,0.991514,149.884299,0.206135)">
                <g transform="matrix(50,0,0,50,226.728207,60.082954)">
                    <path d="M0.036,-0.233L0.177,-0.247C0.185,-0.199 0.202,-0.165 0.228,-0.143C0.254,-0.12 0.289,-0.109 0.333,-0.109C0.38,-0.109 0.415,-0.119 0.438,-0.139C0.462,-0.159 0.474,-0.182 0.474,-0.208C0.474,-0.225 0.469,-0.239 0.459,-0.251C0.449,-0.263 0.431,-0.273 0.407,-0.282C0.39,-0.288 0.351,-0.299 0.291,-0.313C0.214,-0.333 0.159,-0.356 0.128,-0.384C0.084,-0.424 0.062,-0.472 0.062,-0.528C0.062,-0.565 0.072,-0.599 0.093,-0.631C0.114,-0.662 0.143,-0.687 0.182,-0.703C0.221,-0.72 0.268,-0.728 0.323,-0.728C0.413,-0.728 0.481,-0.708 0.526,-0.669C0.572,-0.63 0.595,-0.577 0.598,-0.511L0.453,-0.505C0.447,-0.542 0.434,-0.568 0.413,-0.584C0.393,-0.6 0.362,-0.608 0.322,-0.608C0.28,-0.608 0.247,-0.6 0.223,-0.583C0.208,-0.571 0.2,-0.557 0.2,-0.538C0.2,-0.521 0.207,-0.507 0.222,-0.495C0.24,-0.479 0.284,-0.463 0.354,-0.447C0.425,-0.43 0.477,-0.413 0.51,-0.395C0.544,-0.378 0.571,-0.353 0.59,-0.323C0.609,-0.292 0.618,-0.254 0.618,-0.208C0.618,-0.167 0.607,-0.129 0.584,-0.093C0.561,-0.057 0.529,-0.031 0.487,-0.013C0.446,0.004 0.394,0.013 0.332,0.013C0.241,0.013 0.172,-0.008 0.123,-0.05C0.075,-0.092 0.046,-0.153 0.036,-0.233Z" style="fill:rgb(233,232,226);fill-rule:nonzero;"/>
                </g>
                <g transform="matrix(50,0,0,50,260.077816,60.082954)">
                    <path d="M0.372,-0.165L0.509,-0.142C0.491,-0.092 0.463,-0.054 0.426,-0.028C0.388,-0.001 0.34,0.012 0.283,0.012C0.193,0.012 0.126,-0.018 0.083,-0.077C0.049,-0.124 0.032,-0.183 0.032,-0.255C0.032,-0.341 0.054,-0.409 0.099,-0.457C0.144,-0.506 0.201,-0.53 0.27,-0.53C0.347,-0.53 0.408,-0.505 0.452,-0.454C0.497,-0.403 0.518,-0.325 0.516,-0.22L0.172,-0.22C0.173,-0.179 0.184,-0.147 0.206,-0.125C0.227,-0.102 0.253,-0.091 0.285,-0.091C0.306,-0.091 0.324,-0.097 0.339,-0.108C0.354,-0.12 0.365,-0.139 0.372,-0.165ZM0.38,-0.304C0.379,-0.343 0.369,-0.374 0.349,-0.394C0.33,-0.415 0.306,-0.425 0.278,-0.425C0.248,-0.425 0.223,-0.414 0.204,-0.393C0.184,-0.371 0.174,-0.341 0.175,-0.304L0.38,-0.304Z" style="fill:rgb(233,232,226);fill-rule:nonzero;"/>
                </g>
                <g transform="matrix(50,0,0,50,287.885433,60.082954)">
                    <rect x="0.072" y="-0.716" width="0.137" height="0.716" style="fill:rgb(233,232,226);fill-rule:nonzero;"/>
                </g>
                <g transform="matrix(50,0,0,50,301.777035,60.082954)">
                    <path d="M0.372,-0.165L0.509,-0.142C0.491,-0.092 0.463,-0.054 0.426,-0.028C0.388,-0.001 0.34,0.012 0.283,0.012C0.193,0.012 0.126,-0.018 0.083,-0.077C0.049,-0.124 0.032,-0.183 0.032,-0.255C0.032,-0.341 0.054,-0.409 0.099,-0.457C0.144,-0.506 0.201,-0.53 0.27,-0.53C0.347,-0.53 0.408,-0.505 0.452,-0.454C0.497,-0.403 0.518,-0.325 0.516,-0.22L0.172,-0.22C0.173,-0.179 0.184,-0.147 0.206,-0.125C0.227,-0.102 0.253,-0.091 0.285,-0.091C0.306,-0.091 0.324,-0.097 0.339,-0.108C0.354,-0.12 0.365,-0.139 0.372,-0.165ZM0.38,-0.304C0.379,-0.343 0.369,-0.374 0.349,-0.394C0.33,-0.415 0.306,-0.425 0.278,-0.425C0.248,-0.425 0.223,-0.414 0.204,-0.393C0.184,-0.371 0.174,-0.341 0.175,-0.304L0.38,-0.304Z" style="fill:rgb(233,232,226);fill-rule:nonzero;"/>
                </g>
                <g transform="matrix(50,0,0,50,329.584652,60.082954)">
                    <path d="M0.524,-0.365L0.389,-0.341C0.384,-0.368 0.374,-0.388 0.358,-0.402C0.342,-0.416 0.321,-0.422 0.295,-0.422C0.261,-0.422 0.233,-0.411 0.213,-0.387C0.193,-0.363 0.183,-0.324 0.183,-0.269C0.183,-0.207 0.193,-0.164 0.214,-0.138C0.234,-0.113 0.262,-0.1 0.297,-0.1C0.323,-0.1 0.344,-0.108 0.361,-0.122C0.377,-0.137 0.389,-0.163 0.396,-0.199L0.531,-0.176C0.517,-0.114 0.49,-0.067 0.45,-0.036C0.41,-0.004 0.357,0.012 0.291,0.012C0.215,0.012 0.154,-0.012 0.109,-0.06C0.064,-0.108 0.042,-0.174 0.042,-0.259C0.042,-0.344 0.064,-0.411 0.109,-0.459C0.155,-0.506 0.216,-0.53 0.293,-0.53C0.356,-0.53 0.406,-0.517 0.444,-0.49C0.481,-0.462 0.508,-0.421 0.524,-0.365Z" style="fill:rgb(233,232,226);fill-rule:nonzero;"/>
                </g>
                <g transform="matrix(50,0,0,50,357.392269,60.082954)">
                    <path d="M0.31,-0.519L0.31,-0.409L0.216,-0.409L0.216,-0.2C0.216,-0.158 0.217,-0.133 0.219,-0.126C0.22,-0.119 0.224,-0.113 0.231,-0.109C0.237,-0.104 0.245,-0.102 0.254,-0.102C0.267,-0.102 0.285,-0.106 0.309,-0.115L0.321,-0.009C0.289,0.005 0.253,0.012 0.212,0.012C0.188,0.012 0.165,0.008 0.146,-0.001C0.126,-0.009 0.111,-0.02 0.102,-0.033C0.093,-0.046 0.086,-0.064 0.083,-0.086C0.08,-0.102 0.078,-0.135 0.078,-0.183L0.078,-0.409L0.015,-0.409L0.015,-0.519L0.078,-0.519L0.078,-0.622L0.216,-0.702L0.216,-0.519L0.31,-0.519Z" style="fill:rgb(233,232,226);fill-rule:nonzero;"/>
                </g>
            </g>
        </g>
    </g>
    <g id="Start" transform="matrix(1,0,0,1,699.212598,237.401575)">
        <g>
            <path d="M0,225L225,0L562.5,0L337.5,225L0,225Z" style="fill:rgb(199,187,179);"/>
            <clipPath id="_clip4">
                <path d="M0,225L225,0L562.5,0L337.5,225L0,225Z"/>
            </clipPath>
            <g clip-path="url(#_clip4)">
                <g transform="matrix(2.950503,0,0,1.008558,-447.087849,9.500163)">
                    <g transform="matrix(0.338925,0,0,0.991514,149.884299,0.206135)">
                        <g transform="matrix(50,0,0,50,226.728207,60.082954)">
                            <path d="M0.036,-0.233L0.177,-0.247C0.185,-0.199 0.202,-0.165 0.228,-0.143C0.254,-0.12 0.289,-0.109 0.333,-0.109C0.38,-0.109 0.415,-0.119 0.438,-0.139C0.462,-0.159 0.474,-0.182 0.474,-0.208C0.474,-0.225 0.469,-0.239 0.459,-0.251C0.449,-0.263 0.431,-0.273 0.407,-0.282C0.39,-0.288 0.351,-0.299 0.291,-0.313C0.214,-0.333 0.159,-0.356 0.128,-0.384C0.084,-0.424 0.062,-0.472 0.062,-0.528C0.062,-0.565 0.072,-0.599 0.093,-0.631C0.114,-0.662 0.143,-0.687 0.182,-0.703C0.221,-0.72 0.268,-0.728 0.323,-0.728C0.413,-0.728 0.481,-0.708 0.526,-0.669C0.572,-0.63 0.595,-0.577 0.598,-0.511L0.453,-0.505C0.447,-0.542 0.434,-0.568 0.413,-0.584C0.393,-0.6 0.362,-0.608 0.322,-0.608C0.28,-0.608 0.247,-0.6 0.223,-0.583C0.208,-0.571 0.2,-0.557 0.2,-0.538C0.2,-0.521 0.207,-0.507 0.222,-0.495C0.24,-0.479 0.284,-0.463 0.354,-0.447C0.425,-0.43 0.477,-0.413 0.51,-0.395C0.544,-0.378 0.571,-0.353 0.59,-0.323C0.609,-0.292 0.618,-0.254 0.618,-0.208C0.618,-0.167 0.607,-0.129 0.584,-0.093C0.561,-0.057 0.529,-0.031 0.487,-0.013C0.446,0.004 0.394,0.013 0.332,0.013C0.241,0.013 0.172,-0.008 0.123,-0.05C0.075,-0.092 0.046,-0.153 0.036,-0.233Z" style="fill:rgb(35,31,32);fill-rule:nonzero;"/>
                        </g>
                        <g transform="matrix(50,0,0,50,260.077816,60.082954)">
                            <path d="M0.31,-0.519L0.31,-0.409L0.216,-0.409L0.216,-0.2C0.216,-0.158 0.217,-0.133 0.219,-0.126C0.22,-0.119 0.224,-0.113 0.231,-0.109C0.237,-0.104 0.245,-0.102 0.254,-0.102C0.267,-0.102 0.285,-0.106 0.309,-0.115L0.321,-0.009C0.289,0.005 0.253,0.012 0.212,0.012C0.188,0.012 0.165,0.008 0.146,-0.001C0.126,-0.009 0.111,-0.02 0.102,-0.033C0.093,-0.046 0.086,-0.064 0.083,-0.086C0.08,-0.102 0.078,-0.135 0.078,-0.183L0.078,-0.409L0.015,-0.409L0.015,-0.519L0.078,-0.519L0.078,-0.622L0.216,-0.702L0.216,-0.519L0.31,-0.519Z" style="fill:rgb(35,31,32);fill-rule:nonzero;"/>
                        </g>
                        <g transform="matrix(50,0,0,50,276.728207,60.082954)">
                            <path d="M0.174,-0.36L0.05,-0.383C0.064,-0.433 0.088,-0.47 0.122,-0.494C0.156,-0.518 0.207,-0.53 0.274,-0.53C0.336,-0.53 0.381,-0.523 0.411,-0.509C0.441,-0.494 0.462,-0.476 0.474,-0.453C0.487,-0.431 0.493,-0.39 0.493,-0.331L0.491,-0.17C0.491,-0.125 0.493,-0.091 0.498,-0.07C0.502,-0.048 0.51,-0.025 0.522,-0L0.387,-0C0.383,-0.009 0.379,-0.023 0.374,-0.041C0.371,-0.049 0.37,-0.054 0.369,-0.057C0.345,-0.034 0.32,-0.017 0.293,-0.005C0.267,0.006 0.238,0.012 0.208,0.012C0.155,0.012 0.113,-0.003 0.082,-0.032C0.051,-0.061 0.036,-0.097 0.036,-0.142C0.036,-0.171 0.043,-0.197 0.057,-0.22C0.071,-0.243 0.09,-0.26 0.115,-0.273C0.141,-0.285 0.177,-0.296 0.225,-0.305C0.289,-0.317 0.333,-0.328 0.358,-0.338L0.358,-0.352C0.358,-0.378 0.351,-0.397 0.338,-0.408C0.325,-0.42 0.301,-0.425 0.265,-0.425C0.24,-0.425 0.221,-0.42 0.208,-0.411C0.194,-0.401 0.183,-0.384 0.174,-0.36ZM0.358,-0.249C0.34,-0.243 0.312,-0.236 0.274,-0.228C0.236,-0.22 0.211,-0.212 0.2,-0.204C0.182,-0.191 0.173,-0.175 0.173,-0.156C0.173,-0.137 0.18,-0.12 0.194,-0.106C0.209,-0.092 0.227,-0.085 0.249,-0.085C0.274,-0.085 0.297,-0.093 0.32,-0.109C0.336,-0.122 0.347,-0.137 0.353,-0.155C0.356,-0.167 0.358,-0.189 0.358,-0.222L0.358,-0.249Z" style="fill:rgb(35,31,32);fill-rule:nonzero;"/>
                        </g>
                        <g transform="matrix(50,0,0,50,304.535824,60.082954)">
                            <path d="M0.203,-0L0.066,-0L0.066,-0.519L0.193,-0.519L0.193,-0.445C0.215,-0.48 0.235,-0.503 0.252,-0.514C0.27,-0.525 0.289,-0.53 0.312,-0.53C0.343,-0.53 0.373,-0.522 0.402,-0.504L0.359,-0.385C0.336,-0.4 0.315,-0.407 0.295,-0.407C0.276,-0.407 0.259,-0.402 0.246,-0.391C0.233,-0.381 0.222,-0.362 0.215,-0.334C0.207,-0.306 0.203,-0.248 0.203,-0.16L0.203,-0Z" style="fill:rgb(35,31,32);fill-rule:nonzero;"/>
                        </g>
                        <g transform="matrix(50,0,0,50,323.993832,60.082954)">
                            <path d="M0.31,-0.519L0.31,-0.409L0.216,-0.409L0.216,-0.2C0.216,-0.158 0.217,-0.133 0.219,-0.126C0.22,-0.119 0.224,-0.113 0.231,-0.109C0.237,-0.104 0.245,-0.102 0.254,-0.102C0.267,-0.102 0.285,-0.106 0.309,-0.115L0.321,-0.009C0.289,0.005 0.253,0.012 0.212,0.012C0.188,0.012 0.165,0.008 0.146,-0.001C0.126,-0.009 0.111,-0.02 0.102,-0.033C0.093,-0.046 0.086,-0.064 0.083,-0.086C0.08,-0.102 0.078,-0.135 0.078,-0.183L0.078,-0.409L0.015,-0.409L0.015,-0.519L0.078,-0.519L0.078,-0.622L0.216,-0.702L0.216,-0.519L0.31,-0.519Z" style="fill:rgb(35,31,32);fill-rule:nonzero;"/>
                        </g>
                    </g>
                </g>
            </g>
        </g>
        <g transform="matrix(2.950503,0,0,1.008558,-447.087849,9.500163)">
            <g transform="matrix(0.338925,0,0,0.991514,149.884299,0.206135)">
                <g transform="matrix(50,0,0,50,226.728207,60.082954)">
                    <path d="M0.036,-0.233L0.177,-0.247C0.185,-0.199 0.202,-0.165 0.228,-0.143C0.254,-0.12 0.289,-0.109 0.333,-0.109C0.38,-0.109 0.415,-0.119 0.438,-0.139C0.462,-0.159 0.474,-0.182 0.474,-0.208C0.474,-0.225 0.469,-0.239 0.459,-0.251C0.449,-0.263 0.431,-0.273 0.407,-0.282C0.39,-0.288 0.351,-0.299 0.291,-0.313C0.214,-0.333 0.159,-0.356 0.128,-0.384C0.084,-0.424 0.062,-0.472 0.062,-0.528C0.062,-0.565 0.072,-0.599 0.093,-0.631C0.114,-0.662 0.143,-0.687 0.182,-0.703C0.221,-0.72 0.268,-0.728 0.323,-0.728C0.413,-0.728 0.481,-0.708 0.526,-0.669C0.572,-0.63 0.595,-0.577 0.598,-0.511L0.453,-0.505C0.447,-0.542 0.434,-0.568 0.413,-0.584C0.393,-0.6 0.362,-0.608 0.322,-0.608C0.28,-0.608 0.247,-0.6 0.223,-0.583C0.208,-0.571 0.2,-0.557 0.2,-0.538C0.2,-0.521 0.207,-0.507 0.222,-0.495C0.24,-0.479 0.284,-0.463 0.354,-0.447C0.425,-0.43 0.477,-0.413 0.51,-0.395C0.544,-0.378 0.571,-0.353 0.59,-0.323C0.609,-0.292 0.618,-0.254 0.618,-0.208C0.618,-0.167 0.607,-0.129 0.584,-0.093C0.561,-0.057 0.529,-0.031 0.487,-0.013C0.446,0.004 0.394,0.013 0.332,0.013C0.241,0.013 0.172,-0.008 0.123,-0.05C0.075,-0.092 0.046,-0.153 0.036,-0.233Z" style="fill:rgb(233,232,226);fill-rule:nonzero;"/>
                </g>
                <g transform="matrix(50,0,0,50,260.077816,60.082954)">
                    <path d="M0.31,-0.519L0.31,-0.409L0.216,-0.409L0.216,-0.2C0.216,-0.158 0.217,-0.133 0.219,-0.126C0.22,-0.119 0.224,-0.113 0.231,-0.109C0.237,-0.104 0.245,-0.102 0.254,-0.102C0.267,-0.102 0.285,-0.106 0.309,-0.115L0.321,-0.009C0.289,0.005 0.253,0.012 0.212,0.012C0.188,0.012 0.165,0.008 0.146,-0.001C0.126,-0.009 0.111,-0.02 0.102,-0.033C0.093,-0.046 0.086,-0.064 0.083,-0.086C0.08,-0.102 0.078,-0.135 0.078,-0.183L0.078,-0.409L0.015,-0.409L0.015,-0.519L0.078,-0.519L0.078,-0.622L0.216,-0.702L0.216,-0.519L0.31,-0.519Z" style="fill:rgb(233,232,226);fill-rule:nonzero;"/>
                </g>
                <g transform="matrix(50,0,0,50,276.728207,60.082954)">
                    <path d="M0.174,-0.36L0.05,-0.383C0.064,-0.433 0.088,-0.47 0.122,-0.494C0.156,-0.518 0.207,-0.53 0.274,-0.53C0.336,-0.53 0.381,-0.523 0.411,-0.509C0.441,-0.494 0.462,-0.476 0.474,-0.453C0.487,-0.431 0.493,-0.39 0.493,-0.331L0.491,-0.17C0.491,-0.125 0.493,-0.091 0.498,-0.07C0.502,-0.048 0.51,-0.025 0.522,-0L0.387,-0C0.383,-0.009 0.379,-0.023 0.374,-0.041C0.371,-0.049 0.37,-0.054 0.369,-0.057C0.345,-0.034 0.32,-0.017 0.293,-0.005C0.267,0.006 0.238,0.012 0.208,0.012C0.155,0.012 0.113,-0.003 0.082,-0.032C0.051,-0.061 0.036,-0.097 0.036,-0.142C0.036,-0.171 0.043,-0.197 0.057,-0.22C0.071,-0.243 0.09,-0.26 0.115,-0.273C0.141,-0.285 0.177,-0.296 0.225,-0.305C0.289,-0.317 0.333,-0.328 0.358,-0.338L0.358,-0.352C0.358,-0.378 0.351,-0.397 0.338,-0.408C0.325,-0.42 0.301,-0.425 0.265,-0.425C0.24,-0.425 0.221,-0.42 0.208,-0.411C0.194,-0.401 0.183,-0.384 0.174,-0.36ZM0.358,-0.249C0.34,-0.243 0.312,-0.236 0.274,-0.228C0.236,-0.22 0.211,-0.212 0.2,-0.204C0.182,-0.191 0.173,-0.175 0.173,-0.156C0.173,-0.137 0.18,-0.12 0.194,-0.106C0.209,-0.092 0.227,-0.085 0.249,-0.085C0.274,-0.085 0.297,-0.093 0.32,-0.109C0.336,-0.122 0.347,-0.137 0.353,-0.155C0.356,-0.167 0.358,-0.189 0.358,-0.222L0.358,-0.249Z" style="fill:rgb(233,232,226);fill-rule:nonzero;"/>
                </g>
                <g transform="matrix(50,0,0,50,304.535824,60.082954)">
                    <path d="M0.203,-0L0.066,-0L0.066,-0.519L0.193,-0.519L0.193,-0.445C0.215,-0.48 0.235,-0.503 0.252,-0.514C0.27,-0.525 0.289,-0.53 0.312,-0.53C0.343,-0.53 0.373,-0.522 0.402,-0.504L0.359,-0.385C0.336,-0.4 0.315,-0.407 0.295,-0.407C0.276,-0.407 0.259,-0.402 0.246,-0.391C0.233,-0.381 0.222,-0.362 0.215,-0.334C0.207,-0.306 0.203,-0.248 0.203,-0.16L0.203,-0Z" style="fill:rgb(233,232,226);fill-rule:nonzero;"/>
                </g>
                <g transform="matrix(50,0,0,50,323.993832,60.082954)">
                    <path d="M0.31,-0.519L0.31,-0.409L0.216,-0.409L0.216,-0.2C0.216,-0.158 0.217,-0.133 0.219,-0.126C0.22,-0.119 0.224,-0.113 0.231,-0.109C0.237,-0.104 0.245,-0.102 0.254,-0.102C0.267,-0.102 0.285,-0.106 0.309,-0.115L0.321,-0.009C0.289,0.005 0.253,0.012 0.212,0.012C0.188,0.012 0.165,0.008 0.146,-0.001C0.126,-0.009 0.111,-0.02 0.102,-0.033C0.093,-0.046 0.086,-0.064 0.083,-0.086C0.08,-0.102 0.078,-0.135 0.078,-0.183L0.078,-0.409L0.015,-0.409L0.015,-0.519L0.078,-0.519L0.078,-0.622L0.216,-0.702L0.216,-0.519L0.31,-0.519Z" style="fill:rgb(233,232,226);fill-rule:nonzero;"/>
                </g>
            </g>
        </g>
    </g>
    <g id="Help" transform="matrix(1,0,0,1,349.606299,237.401575)">
        <g>
            <path d="M0,225L225,0L562.5,0L337.5,225L0,225Z" style="fill:rgb(199,187,179);"/>
            <clipPath id="_clip5">
                <path d="M0,225L225,0L562.5,0L337.5,225L0,225Z"/>
            </clipPath>
            <g clip-path="url(#_clip5)">
                <g transform="matrix(2.950503,0,0,1.008558,-447.087849,9.500163)">
                    <g transform="matrix(0.338925,0,0,0.991514,149.884299,0.206135)">
                        <g transform="matrix(50,0,0,50,226.728207,60.082954)">
                            <path d="M0.073,-0L0.073,-0.716L0.218,-0.716L0.218,-0.434L0.501,-0.434L0.501,-0.716L0.646,-0.716L0.646,-0L0.501,-0L0.501,-0.313L0.218,-0.313L0.218,-0L0.073,-0Z" style="fill:rgb(35,31,32);fill-rule:nonzero;"/>
                        </g>
                        <g transform="matrix(50,0,0,50,262.836605,60.082954)">
                            <path d="M0.372,-0.165L0.509,-0.142C0.491,-0.092 0.463,-0.054 0.426,-0.028C0.388,-0.001 0.34,0.012 0.283,0.012C0.193,0.012 0.126,-0.018 0.083,-0.077C0.049,-0.124 0.032,-0.183 0.032,-0.255C0.032,-0.341 0.054,-0.409 0.099,-0.457C0.144,-0.506 0.201,-0.53 0.27,-0.53C0.347,-0.53 0.408,-0.505 0.452,-0.454C0.497,-0.403 0.518,-0.325 0.516,-0.22L0.172,-0.22C0.173,-0.179 0.184,-0.147 0.206,-0.125C0.227,-0.102 0.253,-0.091 0.285,-0.091C0.306,-0.091 0.324,-0.097 0.339,-0.108C0.354,-0.12 0.365,-0.139 0.372,-0.165ZM0.38,-0.304C0.379,-0.343 0.369,-0.374 0.349,-0.394C0.33,-0.415 0.306,-0.425 0.278,-0.425C0.248,-0.425 0.223,-0.414 0.204,-0.393C0.184,-0.371 0.174,-0.341 0.175,-0.304L0.38,-0.304Z" style="fill:rgb(35,31,32);fill-rule:nonzero;"/>
                        </g>
                        <g transform="matrix(50,0,0,50,290.644222,60.082954)">
                            <rect x="0.072" y="-0.716" width="0.137" height="0.716" style="fill:rgb(35,31,32);fill-rule:nonzero;"/>
                        </g>
                        <g transform="matrix(50,0,0,50,304.535824,60.082954)">
                            <path d="M0.068,-0.519L0.196,-0.519L0.196,-0.442C0.212,-0.468 0.235,-0.49 0.263,-0.506C0.292,-0.522 0.323,-0.53 0.357,-0.53C0.418,-0.53 0.469,-0.507 0.511,-0.459C0.553,-0.412 0.574,-0.347 0.574,-0.262C0.574,-0.176 0.553,-0.108 0.51,-0.06C0.468,-0.012 0.417,0.012 0.356,0.012C0.328,0.012 0.302,0.006 0.279,-0.005C0.255,-0.017 0.231,-0.036 0.205,-0.064L0.205,0.197L0.068,0.197L0.068,-0.519ZM0.204,-0.268C0.204,-0.21 0.215,-0.167 0.238,-0.139C0.261,-0.111 0.29,-0.097 0.323,-0.097C0.355,-0.097 0.381,-0.11 0.402,-0.135C0.424,-0.161 0.434,-0.203 0.434,-0.261C0.434,-0.316 0.423,-0.356 0.401,-0.382C0.38,-0.409 0.353,-0.422 0.32,-0.422C0.287,-0.422 0.259,-0.409 0.237,-0.383C0.215,-0.357 0.204,-0.319 0.204,-0.268Z" style="fill:rgb(35,31,32);fill-rule:nonzero;"/>
                        </g>
                    </g>
                </g>
            </g>
        </g>
        <g transform="matrix(2.950503,0,0,1.008558,-447.087849,9.500163)">
            <g transform="matrix(0.338925,0,0,0.991514,149.884299,0.206135)">
                <g transform="matrix(50,0,0,50,226.728207,60.082954)">
                    <path d="M0.073,-0L0.073,-0.716L0.218,-0.716L0.218,-0.434L0.501,-0.434L0.501,-0.716L0.646,-0.716L0.646,-0L0.501,-0L0.501,-0.313L0.218,-0.313L0.218,-0L0.073,-0Z" style="fill:rgb(233,232,226);fill-rule:nonzero;"/>
                </g>
                <g transform="matrix(50,0,0,50,262.836605,60.082954)">
                    <path d="M0.372,-0.165L0.509,-0.142C0.491,-0.092 0.463,-0.054 0.426,-0.028C0.388,-0.001 0.34,0.012 0.283,0.012C0.193,0.012 0.126,-0.018 0.083,-0.077C0.049,-0.124 0.032,-0.183 0.032,-0.255C0.032,-0.341 0.054,-0.409 0.099,-0.457C0.144,-0.506 0.201,-0.53 0.27,-0.53C0.347,-0.53 0.408,-0.505 0.452,-0.454C0.497,-0.403 0.518,-0.325 0.516,-0.22L0.172,-0.22C0.173,-0.179 0.184,-0.147 0.206,-0.125C0.227,-0.102 0.253,-0.091 0.285,-0.091C0.306,-0.091 0.324,-0.097 0.339,-0.108C0.354,-0.12 0.365,-0.139 0.372,-0.165ZM0.38,-0.304C0.379,-0.343 0.369,-0.374 0.349,-0.394C0.33,-0.415 0.306,-0.425 0.278,-0.425C0.248,-0.425 0.223,-0.414 0.204,-0.393C0.184,-0.371 0.174,-0.341 0.175,-0.304L0.38,-0.304Z" style="fill:rgb(233,232,226);fill-rule:nonzero;"/>
                </g>
                <g transform="matrix(50,0,0,50,290.644222,60.082954)">
                    <rect x="0.072" y="-0.716" width="0.137" height="0.716" style="fill:rgb(233,232,226);fill-rule:nonzero;"/>
                </g>
                <g transform="matrix(50,0,0,50,304.535824,60.082954)">
                    <path d="M0.068,-0.519L0.196,-0.519L0.196,-0.442C0.212,-0.468 0.235,-0.49 0.263,-0.506C0.292,-0.522 0.323,-0.53 0.357,-0.53C0.418,-0.53 0.469,-0.507 0.511,-0.459C0.553,-0.412 0.574,-0.347 0.574,-0.262C0.574,-0.176 0.553,-0.108 0.51,-0.06C0.468,-0.012 0.417,0.012 0.356,0.012C0.328,0.012 0.302,0.006 0.279,-0.005C0.255,-0.017 0.231,-0.036 0.205,-0.064L0.205,0.197L0.068,0.197L0.068,-0.519ZM0.204,-0.268C0.204,-0.21 0.215,-0.167 0.238,-0.139C0.261,-0.111 0.29,-0.097 0.323,-0.097C0.355,-0.097 0.381,-0.11 0.402,-0.135C0.424,-0.161 0.434,-0.203 0.434,-0.261C0.434,-0.316 0.423,-0.356 0.401,-0.382C0.38,-0.409 0.353,-0.422 0.32,-0.422C0.287,-0.422 0.259,-0.409 0.237,-0.383C0.215,-0.357 0.204,-0.319 0.204,-0.268Z" style="fill:rgb(233,232,226);fill-rule:nonzero;"/>
                </g>
            </g>
        </g>
    </g>
    <g id="F4" transform="matrix(1,0,0,1,0,237.401575)">
        <g>
            <path d="M0,225L225,0L562.5,0L337.5,225L0,225Z" style="fill:rgb(199,187,179);"/>
            <clipPath id="_clip6">
                <path d="M0,225L225,0L562.5,0L337.5,225L0,225Z"/>
            </clipPath>
            <g clip-path="url(#_clip6)">
                <g transform="matrix(2.950503,0,0,1.008558,-447.087849,9.500163)">
                    <g transform="matrix(0.338925,0,0,0.991514,149.884299,0.206135)">
                        <g transform="matrix(50,0,0,50,226.728207,60.082954)">
                            <path d="M0.074,-0L0.074,-0.716L0.564,-0.716L0.564,-0.595L0.218,-0.595L0.218,-0.425L0.517,-0.425L0.517,-0.304L0.218,-0.304L0.218,-0L0.074,-0Z" style="fill:rgb(35,31,32);fill-rule:nonzero;"/>
                        </g>
                        <g transform="matrix(50,0,0,50,257.270199,60.082954)">
                            <path d="M0.312,-0L0.312,-0.144L0.019,-0.144L0.019,-0.264L0.329,-0.719L0.444,-0.719L0.444,-0.265L0.533,-0.265L0.533,-0.144L0.444,-0.144L0.444,-0L0.312,-0ZM0.312,-0.265L0.312,-0.509L0.147,-0.265L0.312,-0.265Z" style="fill:rgb(35,31,32);fill-rule:nonzero;"/>
                        </g>
                    </g>
                </g>
            </g>
        </g>
        <g transform="matrix(2.950503,0,0,1.008558,-447.087849,9.500163)">
            <g transform="matrix(0.338925,0,0,0.991514,149.884299,0.206135)">
                <g transform="matrix(50,0,0,50,226.728207,60.082954)">
                    <path d="M0.074,-0L0.074,-0.716L0.564,-0.716L0.564,-0.595L0.218,-0.595L0.218,-0.425L0.517,-0.425L0.517,-0.304L0.218,-0.304L0.218,-0L0.074,-0Z" style="fill:rgb(233,232,226);fill-rule:nonzero;"/>
                </g>
                <g transform="matrix(50,0,0,50,257.270199,60.082954)">
                    <path d="M0.312,-0L0.312,-0.144L0.019,-0.144L0.019,-0.264L0.329,-0.719L0.444,-0.719L0.444,-0.265L0.533,-0.265L0.533,-0.144L0.444,-0.144L0.444,-0L0.312,-0ZM0.312,-0.265L0.312,-0.509L0.147,-0.265L0.312,-0.265Z" style="fill:rgb(233,232,226);fill-rule:nonzero;"/>
                </g>
            </g>
        </g>
    </g>
    <g id="F3" transform="matrix(1,0,0,1,699.212598,0)">
        <g>
            <path d="M0,225L225,0L562.5,0L337.5,225L0,225Z" style="fill:rgb(199,187,179);"/>
            <clipPath id="_clip7">
                <path d="M0,225L225,0L562.5,0L337.5,225L0,225Z"/>
            </clipPath>
            <g clip-path="url(#_clip7)">
                <g transform="matrix(2.950503,0,0,1.008558,-447.087849,9.500163)">
                    <g transform="matrix(0.338925,0,0,0.991514,149.884299,0.206135)">
                        <g transform="matrix(50,0,0,50,226.728207,60.082954)">
                            <path d="M0.074,-0L0.074,-0.716L0.564,-0.716L0.564,-0.595L0.218,-0.595L0.218,-0.425L0.517,-0.425L0.517,-0.304L0.218,-0.304L0.218,-0L0.074,-0Z" style="fill:rgb(35,31,32);fill-rule:nonzero;"/>
                        </g>
                        <g transform="matrix(50,0,0,50,257.270199,60.082954)">
                            <path d="M0.038,-0.19L0.17,-0.206C0.175,-0.172 0.186,-0.146 0.205,-0.128C0.223,-0.111 0.246,-0.102 0.272,-0.102C0.3,-0.102 0.324,-0.112 0.344,-0.134C0.363,-0.155 0.373,-0.184 0.373,-0.221C0.373,-0.255 0.363,-0.283 0.345,-0.303C0.326,-0.323 0.304,-0.333 0.277,-0.333C0.259,-0.333 0.238,-0.33 0.214,-0.323L0.229,-0.435C0.266,-0.434 0.294,-0.442 0.314,-0.459C0.333,-0.476 0.343,-0.499 0.343,-0.527C0.343,-0.551 0.336,-0.57 0.322,-0.584C0.307,-0.599 0.288,-0.606 0.265,-0.606C0.241,-0.606 0.221,-0.598 0.205,-0.582C0.188,-0.565 0.178,-0.542 0.174,-0.51L0.048,-0.532C0.057,-0.575 0.07,-0.61 0.088,-0.635C0.105,-0.661 0.13,-0.682 0.162,-0.697C0.194,-0.711 0.229,-0.719 0.269,-0.719C0.336,-0.719 0.39,-0.697 0.431,-0.654C0.464,-0.619 0.481,-0.579 0.481,-0.535C0.481,-0.472 0.447,-0.422 0.378,-0.385C0.419,-0.376 0.452,-0.356 0.476,-0.326C0.501,-0.295 0.513,-0.258 0.513,-0.215C0.513,-0.152 0.49,-0.098 0.444,-0.054C0.398,-0.01 0.341,0.012 0.273,0.012C0.208,0.012 0.154,-0.006 0.112,-0.044C0.069,-0.081 0.044,-0.13 0.038,-0.19Z" style="fill:rgb(35,31,32);fill-rule:nonzero;"/>
                        </g>
                    </g>
                </g>
            </g>
        </g>
        <g transform="matrix(2.950503,0,0,1.008558,-447.087849,9.500163)">
            <g transform="matrix(0.338925,0,0,0.991514,149.884299,0.206135)">
                <g transform="matrix(50,0,0,50,226.728207,60.082954)">
                    <path d="M0.074,-0L0.074,-0.716L0.564,-0.716L0.564,-0.595L0.218,-0.595L0.218,-0.425L0.517,-0.425L0.517,-0.304L0.218,-0.304L0.218,-0L0.074,-0Z" style="fill:rgb(233,232,226);fill-rule:nonzero;"/>
                </g>
                <g transform="matrix(50,0,0,50,257.270199,60.082954)">
                    <path d="M0.038,-0.19L0.17,-0.206C0.175,-0.172 0.186,-0.146 0.205,-0.128C0.223,-0.111 0.246,-0.102 0.272,-0.102C0.3,-0.102 0.324,-0.112 0.344,-0.134C0.363,-0.155 0.373,-0.184 0.373,-0.221C0.373,-0.255 0.363,-0.283 0.345,-0.303C0.326,-0.323 0.304,-0.333 0.277,-0.333C0.259,-0.333 0.238,-0.33 0.214,-0.323L0.229,-0.435C0.266,-0.434 0.294,-0.442 0.314,-0.459C0.333,-0.476 0.343,-0.499 0.343,-0.527C0.343,-0.551 0.336,-0.57 0.322,-0.584C0.307,-0.599 0.288,-0.606 0.265,-0.606C0.241,-0.606 0.221,-0.598 0.205,-0.582C0.188,-0.565 0.178,-0.542 0.174,-0.51L0.048,-0.532C0.057,-0.575 0.07,-0.61 0.088,-0.635C0.105,-0.661 0.13,-0.682 0.162,-0.697C0.194,-0.711 0.229,-0.719 0.269,-0.719C0.336,-0.719 0.39,-0.697 0.431,-0.654C0.464,-0.619 0.481,-0.579 0.481,-0.535C0.481,-0.472 0.447,-0.422 0.378,-0.385C0.419,-0.376 0.452,-0.356 0.476,-0.326C0.501,-0.295 0.513,-0.258 0.513,-0.215C0.513,-0.152 0.49,-0.098 0.444,-0.054C0.398,-0.01 0.341,0.012 0.273,0.012C0.208,0.012 0.154,-0.006 0.112,-0.044C0.069,-0.081 0.044,-0.13 0.038,-0.19Z" style="fill:rgb(233,232,226);fill-rule:nonzero;"/>
                </g>
            </g>
        </g>
    </g>
    <g id="F2" transform="matrix(1,0,0,1,349.606299,0)">
        <g>
            <path d="M0,225L225,0L562.5,0L337.5,225L0,225Z" style="fill:rgb(199,187,179);"/>
            <clipPath id="_clip8">
                <path d="M0,225L225,0L562.5,0L337.5,225L0,225Z"/>
            </clipPath>
            <g clip-path="url(#_clip8)">
                <g transform="matrix(2.950503,0,0,1.008558,-447.087849,9.500163)">
                    <g transform="matrix(0.338925,0,0,0.991514,149.884299,0.206135)">
                        <g transform="matrix(50,0,0,50,226.728207,60.082954)">
                            <path d="M0.074,-0L0.074,-0.716L0.564,-0.716L0.564,-0.595L0.218,-0.595L0.218,-0.425L0.517,-0.425L0.517,-0.304L0.218,-0.304L0.218,-0L0.074,-0Z" style="fill:rgb(35,31,32);fill-rule:nonzero;"/>
                        </g>
                        <g transform="matrix(50,0,0,50,257.270199,60.082954)">
                            <path d="M0.506,-0.127L0.506,-0L0.025,-0C0.03,-0.048 0.046,-0.094 0.072,-0.137C0.098,-0.18 0.149,-0.237 0.226,-0.309C0.288,-0.366 0.326,-0.405 0.34,-0.426C0.359,-0.454 0.368,-0.482 0.368,-0.51C0.368,-0.54 0.36,-0.564 0.344,-0.58C0.327,-0.597 0.304,-0.605 0.275,-0.605C0.247,-0.605 0.224,-0.596 0.207,-0.579C0.19,-0.562 0.18,-0.533 0.178,-0.493L0.041,-0.507C0.049,-0.582 0.075,-0.637 0.118,-0.669C0.161,-0.702 0.214,-0.719 0.279,-0.719C0.349,-0.719 0.405,-0.7 0.445,-0.662C0.486,-0.624 0.506,-0.576 0.506,-0.52C0.506,-0.487 0.5,-0.457 0.489,-0.427C0.477,-0.398 0.459,-0.368 0.434,-0.336C0.417,-0.315 0.387,-0.284 0.344,-0.245C0.3,-0.205 0.273,-0.179 0.261,-0.166C0.25,-0.153 0.241,-0.14 0.233,-0.127L0.506,-0.127Z" style="fill:rgb(35,31,32);fill-rule:nonzero;"/>
                        </g>
                    </g>
                </g>
            </g>
        </g>
        <g transform="matrix(2.950503,0,0,1.008558,-447.087849,9.500163)">
            <g transform="matrix(0.338925,0,0,0.991514,149.884299,0.206135)">
                <g transform="matrix(50,0,0,50,226.728207,60.082954)">
                    <path d="M0.074,-0L0.074,-0.716L0.564,-0.716L0.564,-0.595L0.218,-0.595L0.218,-0.425L0.517,-0.425L0.517,-0.304L0.218,-0.304L0.218,-0L0.074,-0Z" style="fill:rgb(233,232,226);fill-rule:nonzero;"/>
                </g>
                <g transform="matrix(50,0,0,50,257.270199,60.082954)">
                    <path d="M0.506,-0.127L0.506,-0L0.025,-0C0.03,-0.048 0.046,-0.094 0.072,-0.137C0.098,-0.18 0.149,-0.237 0.226,-0.309C0.288,-0.366 0.326,-0.405 0.34,-0.426C0.359,-0.454 0.368,-0.482 0.368,-0.51C0.368,-0.54 0.36,-0.564 0.344,-0.58C0.327,-0.597 0.304,-0.605 0.275,-0.605C0.247,-0.605 0.224,-0.596 0.207,-0.579C0.19,-0.562 0.18,-0.533 0.178,-0.493L0.041,-0.507C0.049,-0.582 0.075,-0.637 0.118,-0.669C0.161,-0.702 0.214,-0.719 0.279,-0.719C0.349,-0.719 0.405,-0.7 0.445,-0.662C0.486,-0.624 0.506,-0.576 0.506,-0.52C0.506,-0.487 0.5,-0.457 0.489,-0.427C0.477,-0.398 0.459,-0.368 0.434,-0.336C0.417,-0.315 0.387,-0.284 0.344,-0.245C0.3,-0.205 0.273,-0.179 0.261,-0.166C0.25,-0.153 0.241,-0.14 0.233,-0.127L0.506,-0.127Z" style="fill:rgb(233,232,226);fill-rule:nonzero;"/>
                </g>
            </g>
        </g>
    </g>
    <g id="F1">
        <g>
            <path d="M0,225L225,0L562.5,0L337.5,225L0,225Z" style="fill:rgb(199,187,179);"/>
            <clipPath id="_clip9">
                <path d="M0,225L225,0L562.5,0L337.5,225L0,225Z"/>
            </clipPath>
            <g clip-path="url(#_clip9)">
                <g transform="matrix(2.950503,0,0,1.008558,-447.087849,9.500163)">
                    <g transform="matrix(0.338925,0,0,0.991514,149.884299,0.206135)">
                        <g transform="matrix(50,0,0,50,226.728207,60.082954)">
                            <path d="M0.074,-0L0.074,-0.716L0.564,-0.716L0.564,-0.595L0.218,-0.595L0.218,-0.425L0.517,-0.425L0.517,-0.304L0.218,-0.304L0.218,-0L0.074,-0Z" style="fill:rgb(35,31,32);fill-rule:nonzero;"/>
                        </g>
                        <g transform="matrix(50,0,0,50,257.270199,60.082954)">
                            <path d="M0.394,-0L0.256,-0L0.256,-0.517C0.206,-0.47 0.147,-0.436 0.079,-0.413L0.079,-0.538C0.115,-0.549 0.154,-0.572 0.196,-0.604C0.238,-0.637 0.267,-0.675 0.282,-0.719L0.394,-0.719L0.394,-0Z" style="fill:rgb(35,31,32);fill-rule:nonzero;"/>
                        </g>
                    </g>
                </g>
            </g>
        </g>
        <g transform="matrix(2.950503,0,0,1.008558,-447.087849,9.500163)">
            <g transform="matrix(0.338925,0,0,0.991514,149.884299,0.206135)">
                <g transform="matrix(50,0,0,50,226.728207,60.082954)">
                    <path d="M0.074,-0L0.074,-0.716L0.564,-0.716L0.564,-0.595L0.218,-0.595L0.218,-0.425L0.517,-0.425L0.517,-0.304L0.218,-0.304L0.218,-0L0.074,-0Z" style="fill:rgb(233,232,226);fill-rule:nonzero;"/>
                </g>
                <g transform="matrix(50,0,0,50,257.270199,60.082954)">
                    <path d="M0.394,-0L0.256,-0L0.256,-0.517C0.206,-0.47 0.147,-0.436 0.079,-0.413L0.079,-0.538C0.115,-0.549 0.154,-0.572 0.196,-0.604C0.238,-0.637 0.267,-0.675 0.282,-0.719L0.394,-0.719L0.394,-0Z" style="fill:rgb(233,232,226);fill-rule:nonzero;"/>
                </g>
            </g>
        </g>
    </g>
</svg>
