<?xml version="1.0" encoding="UTF-8" standalone="no"?>
<svg
   width="205209"
   height="17161"
   viewBox="0 0 205209 17161"
   version="1.1"
   xml:space="preserve"
   style="clip-rule:evenodd;fill-rule:evenodd;stroke-linecap:square"
   id="svg269"
   xmlns="http://www.w3.org/2000/svg"
   xmlns:svg="http://www.w3.org/2000/svg"
   xmlns:serif="http://www.serif.com/"><defs
   id="defs273" />
    
    <g
   id="Artboard1"
   transform="matrix(1.00122,0,0,0.923575,-0.183641,0.0713265)">
        <rect
   x="0.183"
   y="-0.077"
   width="452.30899"
   height="141.599"
   style="fill:none"
   id="rect3" />
        <clipPath
   id="_clip1">
            <rect
   x="0.183"
   y="-0.077"
   width="452.30899"
   height="141.599"
   id="rect5" />
        </clipPath>
        <g
   clip-path="url(#_clip1)"
   id="g266">
            <g
   id="Sketch1"
   serif:id="Sketch"
   transform="matrix(0.998785,0,0,-1.08275,12.7559,43.7358)">
                <path
   id="Sketch_w0000"
   d="m 0,0 38.743,38.743 h 74.835 L 74.835,0 C 67.436,-7.398 63.496,-13.801 63.496,-18.425 v -5.646 h -74.835 v 5.646 C -11.339,-13.801 -7.398,-7.398 0,0"
   style="fill:none;stroke:#000000;stroke-width:0.99px" />
                <g
   transform="matrix(1.37357,0,0,-1.37357,-33.0505,40.0526)"
   id="g25">
                    <g
   transform="matrix(7.08661,0,0,7.08661,51.7244,11.1468)"
   id="g11">
                        <path
   d="m 0.074,-0.716 h 0.221 v 0.251 H 0.537 V -0.716 H 0.759 V 0 H 0.537 V -0.29 H 0.295 V 0 H 0.074 Z"
   style="fill-rule:nonzero"
   id="path9" />
                    </g>
                    <g
   transform="matrix(7.08661,0,0,7.08661,57.6276,11.1468)"
   id="g15">
                        <path
   d="M 0.636,-0.21 H 0.237 c 0.004,0.032 0.013,0.056 0.026,0.071 0.019,0.023 0.044,0.034 0.075,0.034 0.02,0 0.038,-0.005 0.056,-0.015 0.011,-0.006 0.022,-0.017 0.035,-0.032 l 0.196,0.018 C 0.595,-0.082 0.558,-0.045 0.516,-0.022 0.474,0 0.413,0.012 0.334,0.012 0.265,0.012 0.211,0.002 0.172,-0.017 0.132,-0.037 0.1,-0.067 0.074,-0.11 0.048,-0.152 0.035,-0.201 0.035,-0.258 c 0,-0.081 0.026,-0.147 0.078,-0.197 0.052,-0.05 0.124,-0.075 0.215,-0.075 0.074,0 0.133,0.011 0.176,0.033 0.043,0.023 0.076,0.055 0.098,0.098 0.023,0.043 0.034,0.098 0.034,0.167 z M 0.434,-0.305 C 0.43,-0.344 0.419,-0.371 0.403,-0.388 0.386,-0.404 0.364,-0.413 0.336,-0.413 c -0.031,0 -0.056,0.013 -0.075,0.038 -0.012,0.016 -0.02,0.039 -0.023,0.07 z"
   style="fill-rule:nonzero"
   id="path13" />
                    </g>
                    <g
   transform="matrix(7.08661,0,0,7.08661,62.3543,11.1468)"
   id="g19">
                        <rect
   x="0.067000002"
   y="-0.71600002"
   width="0.199"
   height="0.71600002"
   style="fill-rule:nonzero"
   id="rect17" />
                    </g>
                    <g
   transform="matrix(7.08661,0,0,7.08661,64.7142,11.1468)"
   id="g23">
                        <path
   d="m 0.061,0.197 v -0.716 h 0.186 v 0.077 c 0.026,-0.032 0.049,-0.054 0.071,-0.065 0.029,-0.016 0.061,-0.023 0.096,-0.023 0.069,0 0.123,0.026 0.161,0.079 0.038,0.053 0.057,0.119 0.057,0.197 0,0.086 -0.021,0.152 -0.062,0.198 C 0.528,-0.011 0.476,0.012 0.413,0.012 0.382,0.012 0.355,0.007 0.329,-0.004 0.304,-0.014 0.282,-0.03 0.262,-0.05 V 0.197 Z M 0.26,-0.258 c 0,0.041 0.009,0.072 0.026,0.091 0.017,0.02 0.039,0.03 0.066,0.03 0.023,0 0.042,-0.009 0.058,-0.028 0.015,-0.019 0.023,-0.052 0.023,-0.097 0,-0.042 -0.008,-0.073 -0.024,-0.093 -0.017,-0.019 -0.036,-0.029 -0.06,-0.029 -0.025,0 -0.046,0.01 -0.063,0.03 -0.017,0.019 -0.026,0.052 -0.026,0.096 z"
   style="fill-rule:nonzero"
   id="path21" />
                    </g>
                </g>
            </g>
            <g
   id="Sketch2"
   serif:id="Sketch"
   transform="matrix(0.998785,0,0,-1.08275,93.634,43.7358)">
                <path
   id="Sketch_w00001"
   serif:id="Sketch_w0000"
   d="m 0,0 38.743,38.743 h 74.835 L 74.835,0 C 67.436,-7.398 63.496,-13.801 63.496,-18.425 v -5.646 h -74.835 v 5.646 C -11.339,-13.801 -7.398,-7.398 0,0"
   style="fill:none;stroke:#000000;stroke-width:0.99px" />
                <g
   transform="matrix(1.37357,0,0,-1.37357,-33.0505,40.0526)"
   id="g49">
                    <g
   transform="matrix(7.08661,0,0,7.08661,51.7244,11.1468)"
   id="g31">
                        <path
   d="m 0.035,-0.237 0.21,-0.013 c 0.005,0.034 0.014,0.06 0.028,0.078 0.023,0.029 0.055,0.044 0.098,0.044 0.031,0 0.056,-0.008 0.073,-0.023 0.017,-0.014 0.025,-0.032 0.025,-0.051 0,-0.019 -0.008,-0.035 -0.024,-0.05 C 0.429,-0.267 0.391,-0.28 0.332,-0.293 0.235,-0.315 0.165,-0.344 0.124,-0.38 0.082,-0.417 0.062,-0.463 0.062,-0.519 c 0,-0.036 0.01,-0.071 0.032,-0.104 0.021,-0.033 0.053,-0.058 0.096,-0.077 0.043,-0.019 0.101,-0.028 0.176,-0.028 0.091,0 0.161,0.017 0.209,0.051 0.048,0.034 0.077,0.088 0.086,0.162 L 0.452,-0.502 C 0.447,-0.535 0.435,-0.558 0.417,-0.573 0.399,-0.587 0.375,-0.595 0.344,-0.595 c -0.026,0 -0.045,0.006 -0.058,0.017 -0.013,0.011 -0.02,0.024 -0.02,0.039 0,0.012 0.005,0.022 0.016,0.031 0.011,0.01 0.035,0.018 0.074,0.027 0.097,0.02 0.166,0.041 0.208,0.063 0.042,0.021 0.072,0.048 0.092,0.079 0.019,0.032 0.028,0.067 0.028,0.106 0,0.046 -0.013,0.088 -0.038,0.127 -0.025,0.039 -0.061,0.068 -0.106,0.088 -0.046,0.02 -0.103,0.03 -0.173,0.03 -0.122,0 -0.206,-0.023 -0.253,-0.07 C 0.067,-0.105 0.041,-0.165 0.035,-0.237 Z"
   style="fill-rule:nonzero"
   id="path29" />
                    </g>
                    <g
   transform="matrix(7.08661,0,0,7.08661,56.8421,11.1468)"
   id="g35">
                        <path
   d="m 0.3,-0.716 v 0.197 h 0.109 v 0.146 H 0.3 v 0.184 c 0,0.022 0.002,0.036 0.006,0.044 0.007,0.011 0.018,0.016 0.034,0.016 0.015,0 0.035,-0.004 0.062,-0.013 l 0.015,0.138 C 0.367,0.006 0.321,0.012 0.279,0.012 0.229,0.012 0.193,0.005 0.169,-0.007 0.146,-0.02 0.129,-0.039 0.117,-0.065 0.106,-0.091 0.101,-0.133 0.101,-0.191 V -0.373 H 0.027 v -0.146 h 0.074 v -0.095 z"
   style="fill-rule:nonzero"
   id="path33" />
                    </g>
                    <g
   transform="matrix(7.08661,0,0,7.08661,59.9875,11.1468)"
   id="g39">
                        <path
   d="m 0.241,-0.351 -0.19,-0.02 c 0.007,-0.033 0.018,-0.059 0.031,-0.078 0.014,-0.019 0.033,-0.036 0.059,-0.05 0.018,-0.01 0.043,-0.017 0.075,-0.023 0.032,-0.006 0.066,-0.008 0.103,-0.008 0.06,0 0.108,0.003 0.144,0.01 0.036,0.006 0.066,0.02 0.09,0.041 0.017,0.015 0.03,0.036 0.04,0.063 0.01,0.027 0.015,0.052 0.015,0.077 v 0.229 c 0,0.024 0.001,0.043 0.005,0.057 0.003,0.014 0.009,0.032 0.02,0.053 H 0.446 C 0.439,-0.013 0.434,-0.024 0.432,-0.031 0.429,-0.038 0.427,-0.049 0.425,-0.063 0.399,-0.038 0.373,-0.021 0.347,-0.01 0.312,0.005 0.271,0.012 0.225,0.012 0.163,0.012 0.116,-0.003 0.084,-0.031 0.052,-0.06 0.036,-0.095 0.036,-0.137 c 0,-0.04 0.011,-0.072 0.034,-0.097 0.023,-0.026 0.066,-0.045 0.128,-0.057 0.075,-0.015 0.123,-0.025 0.145,-0.032 0.022,-0.006 0.046,-0.013 0.071,-0.023 0,-0.025 -0.005,-0.042 -0.016,-0.051 -0.01,-0.01 -0.027,-0.015 -0.053,-0.015 -0.032,0 -0.057,0.005 -0.073,0.016 -0.013,0.008 -0.023,0.023 -0.031,0.045 z m 0.173,0.105 c -0.028,0.01 -0.056,0.018 -0.086,0.026 -0.04,0.011 -0.066,0.021 -0.077,0.032 -0.011,0.01 -0.016,0.022 -0.016,0.036 0,0.016 0.005,0.029 0.016,0.038 0.011,0.01 0.027,0.015 0.048,0.015 0.022,0 0.043,-0.005 0.062,-0.016 0.019,-0.01 0.033,-0.024 0.041,-0.039 0.008,-0.016 0.012,-0.036 0.012,-0.06 z"
   style="fill-rule:nonzero"
   id="path37" />
                    </g>
                    <g
   transform="matrix(7.08661,0,0,7.08661,64.7142,11.1468)"
   id="g43">
                        <path
   d="m 0.062,-0.519 h 0.186 v 0.085 c 0.018,-0.036 0.036,-0.062 0.055,-0.076 0.02,-0.013 0.043,-0.02 0.071,-0.02 0.029,0 0.061,0.009 0.096,0.027 l -0.061,0.142 c -0.024,-0.01 -0.042,-0.015 -0.056,-0.015 -0.026,0 -0.046,0.011 -0.061,0.032 -0.02,0.031 -0.03,0.087 -0.03,0.17 V 0 h -0.2 z"
   style="fill-rule:nonzero"
   id="path41" />
                    </g>
                    <g
   transform="matrix(7.08661,0,0,7.08661,68.2126,11.1468)"
   id="g47">
                        <path
   d="m 0.3,-0.716 v 0.197 h 0.109 v 0.146 H 0.3 v 0.184 c 0,0.022 0.002,0.036 0.006,0.044 0.007,0.011 0.018,0.016 0.034,0.016 0.015,0 0.035,-0.004 0.062,-0.013 l 0.015,0.138 C 0.367,0.006 0.321,0.012 0.279,0.012 0.229,0.012 0.193,0.005 0.169,-0.007 0.146,-0.02 0.129,-0.039 0.117,-0.065 0.106,-0.091 0.101,-0.133 0.101,-0.191 V -0.373 H 0.027 v -0.146 h 0.074 v -0.095 z"
   style="fill-rule:nonzero"
   id="path45" />
                    </g>
                </g>
            </g>
            <g
   id="Sketch3"
   serif:id="Sketch"
   transform="matrix(0.998785,0,0,-1.08275,174.606,43.7358)">
                <path
   id="Sketch_w00002"
   serif:id="Sketch_w0000"
   d="m 0,0 38.743,38.743 h 74.835 L 74.835,0 C 67.436,-7.398 63.496,-13.801 63.496,-18.425 v -5.646 h -74.835 v 5.646 C -11.339,-13.801 -7.398,-7.398 0,0"
   style="fill:none;stroke:#000000;stroke-width:0.99px" />
                <g
   transform="matrix(1.37357,0,0,-1.37357,-33.0505,40.0526)"
   id="g77">
                    <g
   transform="matrix(7.08661,0,0,7.08661,51.7244,11.1468)"
   id="g55">
                        <path
   d="m 0.035,-0.237 0.21,-0.013 c 0.005,0.034 0.014,0.06 0.028,0.078 0.023,0.029 0.055,0.044 0.098,0.044 0.031,0 0.056,-0.008 0.073,-0.023 0.017,-0.014 0.025,-0.032 0.025,-0.051 0,-0.019 -0.008,-0.035 -0.024,-0.05 C 0.429,-0.267 0.391,-0.28 0.332,-0.293 0.235,-0.315 0.165,-0.344 0.124,-0.38 0.082,-0.417 0.062,-0.463 0.062,-0.519 c 0,-0.036 0.01,-0.071 0.032,-0.104 0.021,-0.033 0.053,-0.058 0.096,-0.077 0.043,-0.019 0.101,-0.028 0.176,-0.028 0.091,0 0.161,0.017 0.209,0.051 0.048,0.034 0.077,0.088 0.086,0.162 L 0.452,-0.502 C 0.447,-0.535 0.435,-0.558 0.417,-0.573 0.399,-0.587 0.375,-0.595 0.344,-0.595 c -0.026,0 -0.045,0.006 -0.058,0.017 -0.013,0.011 -0.02,0.024 -0.02,0.039 0,0.012 0.005,0.022 0.016,0.031 0.011,0.01 0.035,0.018 0.074,0.027 0.097,0.02 0.166,0.041 0.208,0.063 0.042,0.021 0.072,0.048 0.092,0.079 0.019,0.032 0.028,0.067 0.028,0.106 0,0.046 -0.013,0.088 -0.038,0.127 -0.025,0.039 -0.061,0.068 -0.106,0.088 -0.046,0.02 -0.103,0.03 -0.173,0.03 -0.122,0 -0.206,-0.023 -0.253,-0.07 C 0.067,-0.105 0.041,-0.165 0.035,-0.237 Z"
   style="fill-rule:nonzero"
   id="path53" />
                    </g>
                    <g
   transform="matrix(7.08661,0,0,7.08661,56.8421,11.1468)"
   id="g59">
                        <path
   d="M 0.636,-0.21 H 0.237 c 0.004,0.032 0.013,0.056 0.026,0.071 0.019,0.023 0.044,0.034 0.075,0.034 0.02,0 0.038,-0.005 0.056,-0.015 0.011,-0.006 0.022,-0.017 0.035,-0.032 l 0.196,0.018 C 0.595,-0.082 0.558,-0.045 0.516,-0.022 0.474,0 0.413,0.012 0.334,0.012 0.265,0.012 0.211,0.002 0.172,-0.017 0.132,-0.037 0.1,-0.067 0.074,-0.11 0.048,-0.152 0.035,-0.201 0.035,-0.258 c 0,-0.081 0.026,-0.147 0.078,-0.197 0.052,-0.05 0.124,-0.075 0.215,-0.075 0.074,0 0.133,0.011 0.176,0.033 0.043,0.023 0.076,0.055 0.098,0.098 0.023,0.043 0.034,0.098 0.034,0.167 z M 0.434,-0.305 C 0.43,-0.344 0.419,-0.371 0.403,-0.388 0.386,-0.404 0.364,-0.413 0.336,-0.413 c -0.031,0 -0.056,0.013 -0.075,0.038 -0.012,0.016 -0.02,0.039 -0.023,0.07 z"
   style="fill-rule:nonzero"
   id="path57" />
                    </g>
                    <g
   transform="matrix(7.08661,0,0,7.08661,61.5689,11.1468)"
   id="g63">
                        <rect
   x="0.067000002"
   y="-0.71600002"
   width="0.199"
   height="0.71600002"
   style="fill-rule:nonzero"
   id="rect61" />
                    </g>
                    <g
   transform="matrix(7.08661,0,0,7.08661,63.9288,11.1468)"
   id="g67">
                        <path
   d="M 0.636,-0.21 H 0.237 c 0.004,0.032 0.013,0.056 0.026,0.071 0.019,0.023 0.044,0.034 0.075,0.034 0.02,0 0.038,-0.005 0.056,-0.015 0.011,-0.006 0.022,-0.017 0.035,-0.032 l 0.196,0.018 C 0.595,-0.082 0.558,-0.045 0.516,-0.022 0.474,0 0.413,0.012 0.334,0.012 0.265,0.012 0.211,0.002 0.172,-0.017 0.132,-0.037 0.1,-0.067 0.074,-0.11 0.048,-0.152 0.035,-0.201 0.035,-0.258 c 0,-0.081 0.026,-0.147 0.078,-0.197 0.052,-0.05 0.124,-0.075 0.215,-0.075 0.074,0 0.133,0.011 0.176,0.033 0.043,0.023 0.076,0.055 0.098,0.098 0.023,0.043 0.034,0.098 0.034,0.167 z M 0.434,-0.305 C 0.43,-0.344 0.419,-0.371 0.403,-0.388 0.386,-0.404 0.364,-0.413 0.336,-0.413 c -0.031,0 -0.056,0.013 -0.075,0.038 -0.012,0.016 -0.02,0.039 -0.023,0.07 z"
   style="fill-rule:nonzero"
   id="path65" />
                    </g>
                    <g
   transform="matrix(7.08661,0,0,7.08661,68.6555,11.1468)"
   id="g71">
                        <path
   d="m 0.447,-0.203 0.189,0.021 C 0.625,-0.142 0.608,-0.108 0.584,-0.079 0.561,-0.051 0.53,-0.028 0.493,-0.012 0.456,0.004 0.41,0.012 0.353,0.012 0.298,0.012 0.252,0.007 0.215,-0.004 0.178,-0.014 0.147,-0.03 0.121,-0.053 0.094,-0.076 0.074,-0.103 0.059,-0.134 0.044,-0.165 0.036,-0.206 0.036,-0.257 c 0,-0.053 0.009,-0.098 0.027,-0.133 0.014,-0.026 0.032,-0.05 0.055,-0.07 0.023,-0.021 0.047,-0.036 0.071,-0.046 0.039,-0.016 0.089,-0.024 0.149,-0.024 0.085,0 0.15,0.015 0.194,0.045 0.044,0.03 0.076,0.075 0.093,0.133 L 0.438,-0.327 C 0.433,-0.349 0.422,-0.366 0.406,-0.377 0.391,-0.388 0.37,-0.394 0.344,-0.394 c -0.033,0 -0.059,0.012 -0.08,0.035 -0.02,0.024 -0.03,0.06 -0.03,0.107 0,0.043 0.01,0.075 0.03,0.097 0.02,0.022 0.046,0.033 0.077,0.033 0.026,0 0.048,-0.006 0.066,-0.02 0.018,-0.013 0.031,-0.033 0.04,-0.061 z"
   style="fill-rule:nonzero"
   id="path69" />
                    </g>
                    <g
   transform="matrix(7.08661,0,0,7.08661,73.3822,11.1468)"
   id="g75">
                        <path
   d="m 0.3,-0.716 v 0.197 h 0.109 v 0.146 H 0.3 v 0.184 c 0,0.022 0.002,0.036 0.006,0.044 0.007,0.011 0.018,0.016 0.034,0.016 0.015,0 0.035,-0.004 0.062,-0.013 l 0.015,0.138 C 0.367,0.006 0.321,0.012 0.279,0.012 0.229,0.012 0.193,0.005 0.169,-0.007 0.146,-0.02 0.129,-0.039 0.117,-0.065 0.106,-0.091 0.101,-0.133 0.101,-0.191 V -0.373 H 0.027 v -0.146 h 0.074 v -0.095 z"
   style="fill-rule:nonzero"
   id="path73" />
                    </g>
                </g>
            </g>
            <g
   id="Sketch4"
   serif:id="Sketch"
   transform="matrix(0.998785,0,0,-1.08275,255.579,43.7358)">
                <path
   id="Sketch_w00003"
   serif:id="Sketch_w0000"
   d="m 0,0 38.743,38.743 h 74.835 L 74.835,0 C 67.436,-7.398 63.496,-13.801 63.496,-18.425 v -5.646 h -74.835 v 5.646 C -11.339,-13.801 -7.398,-7.398 0,0"
   style="fill:none;stroke:#000000;stroke-width:0.99px" />
                <g
   transform="matrix(1.37357,0,0,-1.37357,-33.0505,40.0526)"
   id="g105">
                    <g
   transform="matrix(7.08661,0,0,7.08661,51.7244,11.1468)"
   id="g83">
                        <path
   d="m 0.045,-0.357 c 0,-0.117 0.033,-0.208 0.098,-0.273 0.065,-0.065 0.156,-0.098 0.272,-0.098 0.119,0 0.211,0.032 0.275,0.096 0.065,0.064 0.097,0.153 0.097,0.269 0,0.083 -0.014,0.152 -0.042,0.206 C 0.717,-0.104 0.676,-0.062 0.623,-0.032 0.57,-0.003 0.503,0.012 0.424,0.012 0.343,0.012 0.276,-0.001 0.223,-0.026 0.17,-0.052 0.128,-0.093 0.095,-0.148 0.062,-0.204 0.045,-0.274 0.045,-0.357 Z m 0.222,0.001 c 0,0.072 0.013,0.124 0.04,0.155 0.027,0.032 0.063,0.048 0.11,0.048 0.047,0 0.084,-0.016 0.11,-0.047 0.026,-0.031 0.039,-0.086 0.039,-0.166 0,-0.068 -0.014,-0.117 -0.041,-0.148 -0.027,-0.031 -0.064,-0.047 -0.11,-0.047 -0.045,0 -0.081,0.016 -0.108,0.048 -0.027,0.031 -0.04,0.084 -0.04,0.157 z"
   style="fill-rule:nonzero"
   id="path81" />
                    </g>
                    <g
   transform="matrix(7.08661,0,0,7.08661,57.6276,11.1468)"
   id="g87">
                        <path
   d="m 0.061,0.197 v -0.716 h 0.186 v 0.077 c 0.026,-0.032 0.049,-0.054 0.071,-0.065 0.029,-0.016 0.061,-0.023 0.096,-0.023 0.069,0 0.123,0.026 0.161,0.079 0.038,0.053 0.057,0.119 0.057,0.197 0,0.086 -0.021,0.152 -0.062,0.198 C 0.528,-0.011 0.476,0.012 0.413,0.012 0.382,0.012 0.355,0.007 0.329,-0.004 0.304,-0.014 0.282,-0.03 0.262,-0.05 V 0.197 Z M 0.26,-0.258 c 0,0.041 0.009,0.072 0.026,0.091 0.017,0.02 0.039,0.03 0.066,0.03 0.023,0 0.042,-0.009 0.058,-0.028 0.015,-0.019 0.023,-0.052 0.023,-0.097 0,-0.042 -0.008,-0.073 -0.024,-0.093 -0.017,-0.019 -0.036,-0.029 -0.06,-0.029 -0.025,0 -0.046,0.01 -0.063,0.03 -0.017,0.019 -0.026,0.052 -0.026,0.096 z"
   style="fill-rule:nonzero"
   id="path85" />
                    </g>
                    <g
   transform="matrix(7.08661,0,0,7.08661,62.3543,11.1468)"
   id="g91">
                        <path
   d="m 0.3,-0.716 v 0.197 h 0.109 v 0.146 H 0.3 v 0.184 c 0,0.022 0.002,0.036 0.006,0.044 0.007,0.011 0.018,0.016 0.034,0.016 0.015,0 0.035,-0.004 0.062,-0.013 l 0.015,0.138 C 0.367,0.006 0.321,0.012 0.279,0.012 0.229,0.012 0.193,0.005 0.169,-0.007 0.146,-0.02 0.129,-0.039 0.117,-0.065 0.106,-0.091 0.101,-0.133 0.101,-0.191 V -0.373 H 0.027 v -0.146 h 0.074 v -0.095 z"
   style="fill-rule:nonzero"
   id="path89" />
                    </g>
                    <g
   transform="matrix(7.08661,0,0,7.08661,65.4997,11.1468)"
   id="g95">
                        <path
   d="m 0.067,-0.716 h 0.199 v 0.135 H 0.067 Z m 0,0.197 H 0.266 V 0 H 0.067 Z"
   style="fill-rule:nonzero"
   id="path93" />
                    </g>
                    <g
   transform="matrix(7.08661,0,0,7.08661,67.8596,11.1468)"
   id="g99">
                        <path
   d="m 0.036,-0.258 c 0,-0.079 0.026,-0.144 0.08,-0.195 0.053,-0.052 0.125,-0.077 0.216,-0.077 0.104,0 0.182,0.03 0.235,0.09 0.043,0.049 0.064,0.108 0.064,0.179 0,0.08 -0.026,0.145 -0.079,0.196 C 0.499,-0.014 0.426,0.012 0.333,0.012 0.249,0.012 0.182,-0.009 0.13,-0.052 0.067,-0.104 0.036,-0.173 0.036,-0.258 Z m 0.199,0 c 0,0.046 0.009,0.08 0.028,0.102 0.019,0.022 0.042,0.033 0.07,0.033 0.029,0 0.053,-0.01 0.071,-0.032 0.018,-0.022 0.028,-0.057 0.028,-0.105 0,-0.045 -0.01,-0.079 -0.028,-0.101 -0.019,-0.022 -0.042,-0.033 -0.069,-0.033 -0.029,0 -0.053,0.012 -0.072,0.034 -0.019,0.022 -0.028,0.056 -0.028,0.102 z"
   style="fill-rule:nonzero"
   id="path97" />
                    </g>
                    <g
   transform="matrix(7.08661,0,0,7.08661,72.5863,11.1468)"
   id="g103">
                        <path
   d="m 0.06,-0.519 h 0.185 v 0.085 c 0.028,-0.035 0.056,-0.059 0.084,-0.074 0.028,-0.015 0.063,-0.022 0.104,-0.022 0.055,0 0.098,0.016 0.129,0.049 0.031,0.033 0.046,0.083 0.046,0.151 V 0 H 0.409 v -0.285 c 0,-0.033 -0.006,-0.056 -0.018,-0.069 -0.012,-0.014 -0.029,-0.021 -0.051,-0.021 -0.024,0 -0.044,0.01 -0.059,0.028 -0.015,0.018 -0.022,0.051 -0.022,0.098 V 0 H 0.06 Z"
   style="fill-rule:nonzero"
   id="path101" />
                    </g>
                </g>
            </g>
            <g
   id="Sketch5"
   serif:id="Sketch"
   transform="matrix(0.998785,0,0,-1.08275,336.551,43.7358)">
                <path
   id="Sketch_w00004"
   serif:id="Sketch_w0000"
   d="m 0,0 38.743,38.743 h 74.835 L 74.835,0 C 67.436,-7.398 63.496,-13.801 63.496,-18.425 v -5.646 h -74.835 v 5.646 C -11.339,-13.801 -7.398,-7.398 0,0"
   style="fill:none;stroke:#000000;stroke-width:0.99px" />
                <g
   transform="matrix(1.37357,0,0,-1.37357,-33.0505,40.0526)"
   id="g129">
                    <g
   transform="matrix(7.08661,0,0,7.08661,51.7244,11.1468)"
   id="g111">
                        <path
   d="m 0.076,0 v -0.716 h 0.369 c 0.068,0 0.12,0.006 0.157,0.018 0.036,0.011 0.065,0.033 0.087,0.065 0.022,0.032 0.033,0.07 0.033,0.116 0,0.04 -0.008,0.074 -0.025,0.103 -0.017,0.029 -0.04,0.052 -0.07,0.07 -0.019,0.011 -0.045,0.021 -0.078,0.028 0.027,0.009 0.046,0.018 0.058,0.026 0.008,0.006 0.02,0.019 0.035,0.038 0.016,0.019 0.026,0.034 0.031,0.045 L 0.78,0 H 0.53 L 0.412,-0.219 C 0.397,-0.247 0.384,-0.265 0.372,-0.274 0.356,-0.285 0.338,-0.291 0.318,-0.291 H 0.298 V 0 Z m 0.222,-0.426 h 0.094 c 0.01,0 0.029,-0.003 0.058,-0.01 0.015,-0.002 0.027,-0.01 0.036,-0.022 C 0.495,-0.47 0.5,-0.484 0.5,-0.5 0.5,-0.523 0.493,-0.54 0.478,-0.553 0.463,-0.565 0.436,-0.571 0.396,-0.571 H 0.298 Z"
   style="fill-rule:nonzero"
   id="path109" />
                    </g>
                    <g
   transform="matrix(7.08661,0,0,7.08661,57.0601,11.1468)"
   id="g115">
                        <path
   d="M 0.636,-0.21 H 0.237 c 0.004,0.032 0.013,0.056 0.026,0.071 0.019,0.023 0.044,0.034 0.075,0.034 0.02,0 0.038,-0.005 0.056,-0.015 0.011,-0.006 0.022,-0.017 0.035,-0.032 l 0.196,0.018 C 0.595,-0.082 0.558,-0.045 0.516,-0.022 0.474,0 0.413,0.012 0.334,0.012 0.265,0.012 0.211,0.002 0.172,-0.017 0.132,-0.037 0.1,-0.067 0.074,-0.11 0.048,-0.152 0.035,-0.201 0.035,-0.258 c 0,-0.081 0.026,-0.147 0.078,-0.197 0.052,-0.05 0.124,-0.075 0.215,-0.075 0.074,0 0.133,0.011 0.176,0.033 0.043,0.023 0.076,0.055 0.098,0.098 0.023,0.043 0.034,0.098 0.034,0.167 z M 0.434,-0.305 C 0.43,-0.344 0.419,-0.371 0.403,-0.388 0.386,-0.404 0.364,-0.413 0.336,-0.413 c -0.031,0 -0.056,0.013 -0.075,0.038 -0.012,0.016 -0.02,0.039 -0.023,0.07 z"
   style="fill-rule:nonzero"
   id="path113" />
                    </g>
                    <g
   transform="matrix(7.08661,0,0,7.08661,61.7869,11.1468)"
   id="g119">
                        <path
   d="m 0.025,-0.144 0.197,-0.019 c 0.008,0.024 0.02,0.041 0.034,0.051 0.015,0.01 0.035,0.015 0.059,0.015 0.027,0 0.047,-0.006 0.062,-0.017 0.011,-0.009 0.017,-0.019 0.017,-0.032 0,-0.014 -0.007,-0.025 -0.022,-0.033 C 0.361,-0.185 0.332,-0.191 0.286,-0.2 0.217,-0.212 0.169,-0.223 0.142,-0.233 0.115,-0.243 0.093,-0.261 0.074,-0.285 0.056,-0.309 0.047,-0.337 0.047,-0.368 c 0,-0.034 0.01,-0.064 0.03,-0.089 0.02,-0.024 0.047,-0.043 0.082,-0.055 0.035,-0.012 0.081,-0.018 0.14,-0.018 0.062,0 0.107,0.004 0.137,0.014 0.029,0.009 0.054,0.024 0.074,0.044 0.019,0.02 0.036,0.047 0.049,0.08 L 0.37,-0.373 C 0.365,-0.39 0.357,-0.402 0.346,-0.41 0.33,-0.42 0.311,-0.425 0.289,-0.425 c -0.022,0 -0.039,0.004 -0.049,0.012 -0.01,0.008 -0.015,0.017 -0.015,0.029 0,0.012 0.006,0.022 0.019,0.028 0.013,0.007 0.041,0.013 0.085,0.018 0.066,0.007 0.115,0.018 0.148,0.031 0.032,0.014 0.056,0.033 0.074,0.057 0.017,0.025 0.025,0.052 0.025,0.082 0,0.03 -0.009,0.059 -0.027,0.087 C 0.531,-0.053 0.503,-0.03 0.464,-0.013 0.425,0.003 0.372,0.012 0.305,0.012 0.21,0.012 0.142,-0.002 0.102,-0.029 0.062,-0.056 0.036,-0.094 0.025,-0.144 Z"
   style="fill-rule:nonzero"
   id="path117" />
                    </g>
                    <g
   transform="matrix(7.08661,0,0,7.08661,66.1156,11.1468)"
   id="g123">
                        <path
   d="M 0.636,-0.21 H 0.237 c 0.004,0.032 0.013,0.056 0.026,0.071 0.019,0.023 0.044,0.034 0.075,0.034 0.02,0 0.038,-0.005 0.056,-0.015 0.011,-0.006 0.022,-0.017 0.035,-0.032 l 0.196,0.018 C 0.595,-0.082 0.558,-0.045 0.516,-0.022 0.474,0 0.413,0.012 0.334,0.012 0.265,0.012 0.211,0.002 0.172,-0.017 0.132,-0.037 0.1,-0.067 0.074,-0.11 0.048,-0.152 0.035,-0.201 0.035,-0.258 c 0,-0.081 0.026,-0.147 0.078,-0.197 0.052,-0.05 0.124,-0.075 0.215,-0.075 0.074,0 0.133,0.011 0.176,0.033 0.043,0.023 0.076,0.055 0.098,0.098 0.023,0.043 0.034,0.098 0.034,0.167 z M 0.434,-0.305 C 0.43,-0.344 0.419,-0.371 0.403,-0.388 0.386,-0.404 0.364,-0.413 0.336,-0.413 c -0.031,0 -0.056,0.013 -0.075,0.038 -0.012,0.016 -0.02,0.039 -0.023,0.07 z"
   style="fill-rule:nonzero"
   id="path121" />
                    </g>
                    <g
   transform="matrix(7.08661,0,0,7.08661,70.8424,11.1468)"
   id="g127">
                        <path
   d="m 0.3,-0.716 v 0.197 h 0.109 v 0.146 H 0.3 v 0.184 c 0,0.022 0.002,0.036 0.006,0.044 0.007,0.011 0.018,0.016 0.034,0.016 0.015,0 0.035,-0.004 0.062,-0.013 l 0.015,0.138 C 0.367,0.006 0.321,0.012 0.279,0.012 0.229,0.012 0.193,0.005 0.169,-0.007 0.146,-0.02 0.129,-0.039 0.117,-0.065 0.106,-0.091 0.101,-0.133 0.101,-0.191 V -0.373 H 0.027 v -0.146 h 0.074 v -0.095 z"
   style="fill-rule:nonzero"
   id="path125" />
                    </g>
                </g>
            </g>
            <g
   id="Sketch6"
   serif:id="Sketch"
   transform="matrix(0.998785,0,0,-1.08275,12.9238,120.134)">
                <g
   id="Sketch_w00005"
   serif:id="Sketch_w0000"
   transform="translate(0,5.76108)">
                    <path
   d="m 0,0 38.743,38.743 h 74.835 L 74.835,0 C 67.436,-7.398 63.496,-13.801 63.496,-18.425 v -5.761 h -74.835 v 5.761 C -11.339,-13.801 -7.398,-7.398 0,0"
   style="fill:none;stroke:#000000;stroke-width:0.99px"
   id="path132" />
                </g>
                <g
   transform="matrix(1.37357,0,0,-1.37357,-33.0505,45.8136)"
   id="g151">
                    <g
   transform="matrix(7.08661,0,0,7.08661,51.7244,11.1468)"
   id="g137">
                        <path
   d="m 0.074,-0.716 h 0.221 v 0.251 H 0.537 V -0.716 H 0.759 V 0 H 0.537 V -0.29 H 0.295 V 0 H 0.074 Z"
   style="fill-rule:nonzero"
   id="path135" />
                    </g>
                    <g
   transform="matrix(7.08661,0,0,7.08661,57.6276,11.1468)"
   id="g141">
                        <path
   d="M 0.636,-0.21 H 0.237 c 0.004,0.032 0.013,0.056 0.026,0.071 0.019,0.023 0.044,0.034 0.075,0.034 0.02,0 0.038,-0.005 0.056,-0.015 0.011,-0.006 0.022,-0.017 0.035,-0.032 l 0.196,0.018 C 0.595,-0.082 0.558,-0.045 0.516,-0.022 0.474,0 0.413,0.012 0.334,0.012 0.265,0.012 0.211,0.002 0.172,-0.017 0.132,-0.037 0.1,-0.067 0.074,-0.11 0.048,-0.152 0.035,-0.201 0.035,-0.258 c 0,-0.081 0.026,-0.147 0.078,-0.197 0.052,-0.05 0.124,-0.075 0.215,-0.075 0.074,0 0.133,0.011 0.176,0.033 0.043,0.023 0.076,0.055 0.098,0.098 0.023,0.043 0.034,0.098 0.034,0.167 z M 0.434,-0.305 C 0.43,-0.344 0.419,-0.371 0.403,-0.388 0.386,-0.404 0.364,-0.413 0.336,-0.413 c -0.031,0 -0.056,0.013 -0.075,0.038 -0.012,0.016 -0.02,0.039 -0.023,0.07 z"
   style="fill-rule:nonzero"
   id="path139" />
                    </g>
                    <g
   transform="matrix(7.08661,0,0,7.08661,62.3543,11.1468)"
   id="g145">
                        <rect
   x="0.067000002"
   y="-0.71600002"
   width="0.199"
   height="0.71600002"
   style="fill-rule:nonzero"
   id="rect143" />
                    </g>
                    <g
   transform="matrix(7.08661,0,0,7.08661,64.7142,11.1468)"
   id="g149">
                        <path
   d="m 0.061,0.197 v -0.716 h 0.186 v 0.077 c 0.026,-0.032 0.049,-0.054 0.071,-0.065 0.029,-0.016 0.061,-0.023 0.096,-0.023 0.069,0 0.123,0.026 0.161,0.079 0.038,0.053 0.057,0.119 0.057,0.197 0,0.086 -0.021,0.152 -0.062,0.198 C 0.528,-0.011 0.476,0.012 0.413,0.012 0.382,0.012 0.355,0.007 0.329,-0.004 0.304,-0.014 0.282,-0.03 0.262,-0.05 V 0.197 Z M 0.26,-0.258 c 0,0.041 0.009,0.072 0.026,0.091 0.017,0.02 0.039,0.03 0.066,0.03 0.023,0 0.042,-0.009 0.058,-0.028 0.015,-0.019 0.023,-0.052 0.023,-0.097 0,-0.042 -0.008,-0.073 -0.024,-0.093 -0.017,-0.019 -0.036,-0.029 -0.06,-0.029 -0.025,0 -0.046,0.01 -0.063,0.03 -0.017,0.019 -0.026,0.052 -0.026,0.096 z"
   style="fill-rule:nonzero"
   id="path147" />
                    </g>
                </g>
            </g>
            <g
   id="Sketch7"
   serif:id="Sketch"
   transform="matrix(0.998785,0,0,-1.08275,93.8962,120.134)">
                <g
   id="Sketch_w00006"
   serif:id="Sketch_w0000"
   transform="translate(0,5.76108)">
                    <path
   d="m 0,0 38.743,38.743 h 74.835 L 74.835,0 C 67.436,-7.398 63.496,-13.801 63.496,-18.425 v -5.761 h -74.835 v 5.761 C -11.339,-13.801 -7.398,-7.398 0,0"
   style="fill:none;stroke:#000000;stroke-width:0.99px"
   id="path154" />
                </g>
                <g
   transform="matrix(1.37357,0,0,-1.37357,-33.0505,45.8136)"
   id="g177">
                    <g
   transform="matrix(7.08661,0,0,7.08661,51.7244,11.1468)"
   id="g159">
                        <path
   d="m 0.035,-0.237 0.21,-0.013 c 0.005,0.034 0.014,0.06 0.028,0.078 0.023,0.029 0.055,0.044 0.098,0.044 0.031,0 0.056,-0.008 0.073,-0.023 0.017,-0.014 0.025,-0.032 0.025,-0.051 0,-0.019 -0.008,-0.035 -0.024,-0.05 C 0.429,-0.267 0.391,-0.28 0.332,-0.293 0.235,-0.315 0.165,-0.344 0.124,-0.38 0.082,-0.417 0.062,-0.463 0.062,-0.519 c 0,-0.036 0.01,-0.071 0.032,-0.104 0.021,-0.033 0.053,-0.058 0.096,-0.077 0.043,-0.019 0.101,-0.028 0.176,-0.028 0.091,0 0.161,0.017 0.209,0.051 0.048,0.034 0.077,0.088 0.086,0.162 L 0.452,-0.502 C 0.447,-0.535 0.435,-0.558 0.417,-0.573 0.399,-0.587 0.375,-0.595 0.344,-0.595 c -0.026,0 -0.045,0.006 -0.058,0.017 -0.013,0.011 -0.02,0.024 -0.02,0.039 0,0.012 0.005,0.022 0.016,0.031 0.011,0.01 0.035,0.018 0.074,0.027 0.097,0.02 0.166,0.041 0.208,0.063 0.042,0.021 0.072,0.048 0.092,0.079 0.019,0.032 0.028,0.067 0.028,0.106 0,0.046 -0.013,0.088 -0.038,0.127 -0.025,0.039 -0.061,0.068 -0.106,0.088 -0.046,0.02 -0.103,0.03 -0.173,0.03 -0.122,0 -0.206,-0.023 -0.253,-0.07 C 0.067,-0.105 0.041,-0.165 0.035,-0.237 Z"
   style="fill-rule:nonzero"
   id="path157" />
                    </g>
                    <g
   transform="matrix(7.08661,0,0,7.08661,56.8421,11.1468)"
   id="g163">
                        <path
   d="m 0.3,-0.716 v 0.197 h 0.109 v 0.146 H 0.3 v 0.184 c 0,0.022 0.002,0.036 0.006,0.044 0.007,0.011 0.018,0.016 0.034,0.016 0.015,0 0.035,-0.004 0.062,-0.013 l 0.015,0.138 C 0.367,0.006 0.321,0.012 0.279,0.012 0.229,0.012 0.193,0.005 0.169,-0.007 0.146,-0.02 0.129,-0.039 0.117,-0.065 0.106,-0.091 0.101,-0.133 0.101,-0.191 V -0.373 H 0.027 v -0.146 h 0.074 v -0.095 z"
   style="fill-rule:nonzero"
   id="path161" />
                    </g>
                    <g
   transform="matrix(7.08661,0,0,7.08661,59.9875,11.1468)"
   id="g167">
                        <path
   d="m 0.241,-0.351 -0.19,-0.02 c 0.007,-0.033 0.018,-0.059 0.031,-0.078 0.014,-0.019 0.033,-0.036 0.059,-0.05 0.018,-0.01 0.043,-0.017 0.075,-0.023 0.032,-0.006 0.066,-0.008 0.103,-0.008 0.06,0 0.108,0.003 0.144,0.01 0.036,0.006 0.066,0.02 0.09,0.041 0.017,0.015 0.03,0.036 0.04,0.063 0.01,0.027 0.015,0.052 0.015,0.077 v 0.229 c 0,0.024 0.001,0.043 0.005,0.057 0.003,0.014 0.009,0.032 0.02,0.053 H 0.446 C 0.439,-0.013 0.434,-0.024 0.432,-0.031 0.429,-0.038 0.427,-0.049 0.425,-0.063 0.399,-0.038 0.373,-0.021 0.347,-0.01 0.312,0.005 0.271,0.012 0.225,0.012 0.163,0.012 0.116,-0.003 0.084,-0.031 0.052,-0.06 0.036,-0.095 0.036,-0.137 c 0,-0.04 0.011,-0.072 0.034,-0.097 0.023,-0.026 0.066,-0.045 0.128,-0.057 0.075,-0.015 0.123,-0.025 0.145,-0.032 0.022,-0.006 0.046,-0.013 0.071,-0.023 0,-0.025 -0.005,-0.042 -0.016,-0.051 -0.01,-0.01 -0.027,-0.015 -0.053,-0.015 -0.032,0 -0.057,0.005 -0.073,0.016 -0.013,0.008 -0.023,0.023 -0.031,0.045 z m 0.173,0.105 c -0.028,0.01 -0.056,0.018 -0.086,0.026 -0.04,0.011 -0.066,0.021 -0.077,0.032 -0.011,0.01 -0.016,0.022 -0.016,0.036 0,0.016 0.005,0.029 0.016,0.038 0.011,0.01 0.027,0.015 0.048,0.015 0.022,0 0.043,-0.005 0.062,-0.016 0.019,-0.01 0.033,-0.024 0.041,-0.039 0.008,-0.016 0.012,-0.036 0.012,-0.06 z"
   style="fill-rule:nonzero"
   id="path165" />
                    </g>
                    <g
   transform="matrix(7.08661,0,0,7.08661,64.7142,11.1468)"
   id="g171">
                        <path
   d="m 0.062,-0.519 h 0.186 v 0.085 c 0.018,-0.036 0.036,-0.062 0.055,-0.076 0.02,-0.013 0.043,-0.02 0.071,-0.02 0.029,0 0.061,0.009 0.096,0.027 l -0.061,0.142 c -0.024,-0.01 -0.042,-0.015 -0.056,-0.015 -0.026,0 -0.046,0.011 -0.061,0.032 -0.02,0.031 -0.03,0.087 -0.03,0.17 V 0 h -0.2 z"
   style="fill-rule:nonzero"
   id="path169" />
                    </g>
                    <g
   transform="matrix(7.08661,0,0,7.08661,68.2126,11.1468)"
   id="g175">
                        <path
   d="m 0.3,-0.716 v 0.197 h 0.109 v 0.146 H 0.3 v 0.184 c 0,0.022 0.002,0.036 0.006,0.044 0.007,0.011 0.018,0.016 0.034,0.016 0.015,0 0.035,-0.004 0.062,-0.013 l 0.015,0.138 C 0.367,0.006 0.321,0.012 0.279,0.012 0.229,0.012 0.193,0.005 0.169,-0.007 0.146,-0.02 0.129,-0.039 0.117,-0.065 0.106,-0.091 0.101,-0.133 0.101,-0.191 V -0.373 H 0.027 v -0.146 h 0.074 v -0.095 z"
   style="fill-rule:nonzero"
   id="path173" />
                    </g>
                </g>
            </g>
            <g
   id="Sketch8"
   serif:id="Sketch"
   transform="matrix(0.998785,0,0,-1.08275,174.869,120.134)">
                <g
   id="Sketch_w00007"
   serif:id="Sketch_w0000"
   transform="translate(0,5.76108)">
                    <path
   d="m 0,0 38.743,38.743 h 74.835 L 74.835,0 C 67.436,-7.398 63.496,-13.801 63.496,-18.425 v -5.761 h -74.835 v 5.761 C -11.339,-13.801 -7.398,-7.398 0,0"
   style="fill:none;stroke:#000000;stroke-width:0.99px"
   id="path180" />
                </g>
                <g
   transform="matrix(1.37357,0,0,-1.37357,-33.0505,45.8136)"
   id="g207">
                    <g
   transform="matrix(7.08661,0,0,7.08661,51.7244,11.1468)"
   id="g185">
                        <path
   d="m 0.035,-0.237 0.21,-0.013 c 0.005,0.034 0.014,0.06 0.028,0.078 0.023,0.029 0.055,0.044 0.098,0.044 0.031,0 0.056,-0.008 0.073,-0.023 0.017,-0.014 0.025,-0.032 0.025,-0.051 0,-0.019 -0.008,-0.035 -0.024,-0.05 C 0.429,-0.267 0.391,-0.28 0.332,-0.293 0.235,-0.315 0.165,-0.344 0.124,-0.38 0.082,-0.417 0.062,-0.463 0.062,-0.519 c 0,-0.036 0.01,-0.071 0.032,-0.104 0.021,-0.033 0.053,-0.058 0.096,-0.077 0.043,-0.019 0.101,-0.028 0.176,-0.028 0.091,0 0.161,0.017 0.209,0.051 0.048,0.034 0.077,0.088 0.086,0.162 L 0.452,-0.502 C 0.447,-0.535 0.435,-0.558 0.417,-0.573 0.399,-0.587 0.375,-0.595 0.344,-0.595 c -0.026,0 -0.045,0.006 -0.058,0.017 -0.013,0.011 -0.02,0.024 -0.02,0.039 0,0.012 0.005,0.022 0.016,0.031 0.011,0.01 0.035,0.018 0.074,0.027 0.097,0.02 0.166,0.041 0.208,0.063 0.042,0.021 0.072,0.048 0.092,0.079 0.019,0.032 0.028,0.067 0.028,0.106 0,0.046 -0.013,0.088 -0.038,0.127 -0.025,0.039 -0.061,0.068 -0.106,0.088 -0.046,0.02 -0.103,0.03 -0.173,0.03 -0.122,0 -0.206,-0.023 -0.253,-0.07 C 0.067,-0.105 0.041,-0.165 0.035,-0.237 Z"
   style="fill-rule:nonzero"
   id="path183" />
                    </g>
                    <g
   transform="matrix(7.08661,0,0,7.08661,56.8421,11.1468)"
   id="g189">
                        <path
   d="M 0.636,-0.21 H 0.237 c 0.004,0.032 0.013,0.056 0.026,0.071 0.019,0.023 0.044,0.034 0.075,0.034 0.02,0 0.038,-0.005 0.056,-0.015 0.011,-0.006 0.022,-0.017 0.035,-0.032 l 0.196,0.018 C 0.595,-0.082 0.558,-0.045 0.516,-0.022 0.474,0 0.413,0.012 0.334,0.012 0.265,0.012 0.211,0.002 0.172,-0.017 0.132,-0.037 0.1,-0.067 0.074,-0.11 0.048,-0.152 0.035,-0.201 0.035,-0.258 c 0,-0.081 0.026,-0.147 0.078,-0.197 0.052,-0.05 0.124,-0.075 0.215,-0.075 0.074,0 0.133,0.011 0.176,0.033 0.043,0.023 0.076,0.055 0.098,0.098 0.023,0.043 0.034,0.098 0.034,0.167 z M 0.434,-0.305 C 0.43,-0.344 0.419,-0.371 0.403,-0.388 0.386,-0.404 0.364,-0.413 0.336,-0.413 c -0.031,0 -0.056,0.013 -0.075,0.038 -0.012,0.016 -0.02,0.039 -0.023,0.07 z"
   style="fill-rule:nonzero"
   id="path187" />
                    </g>
                    <g
   transform="matrix(7.08661,0,0,7.08661,61.5689,11.1468)"
   id="g193">
                        <rect
   x="0.067000002"
   y="-0.71600002"
   width="0.199"
   height="0.71600002"
   style="fill-rule:nonzero"
   id="rect191" />
                    </g>
                    <g
   transform="matrix(7.08661,0,0,7.08661,63.9288,11.1468)"
   id="g197">
                        <path
   d="M 0.636,-0.21 H 0.237 c 0.004,0.032 0.013,0.056 0.026,0.071 0.019,0.023 0.044,0.034 0.075,0.034 0.02,0 0.038,-0.005 0.056,-0.015 0.011,-0.006 0.022,-0.017 0.035,-0.032 l 0.196,0.018 C 0.595,-0.082 0.558,-0.045 0.516,-0.022 0.474,0 0.413,0.012 0.334,0.012 0.265,0.012 0.211,0.002 0.172,-0.017 0.132,-0.037 0.1,-0.067 0.074,-0.11 0.048,-0.152 0.035,-0.201 0.035,-0.258 c 0,-0.081 0.026,-0.147 0.078,-0.197 0.052,-0.05 0.124,-0.075 0.215,-0.075 0.074,0 0.133,0.011 0.176,0.033 0.043,0.023 0.076,0.055 0.098,0.098 0.023,0.043 0.034,0.098 0.034,0.167 z M 0.434,-0.305 C 0.43,-0.344 0.419,-0.371 0.403,-0.388 0.386,-0.404 0.364,-0.413 0.336,-0.413 c -0.031,0 -0.056,0.013 -0.075,0.038 -0.012,0.016 -0.02,0.039 -0.023,0.07 z"
   style="fill-rule:nonzero"
   id="path195" />
                    </g>
                    <g
   transform="matrix(7.08661,0,0,7.08661,68.6555,11.1468)"
   id="g201">
                        <path
   d="m 0.447,-0.203 0.189,0.021 C 0.625,-0.142 0.608,-0.108 0.584,-0.079 0.561,-0.051 0.53,-0.028 0.493,-0.012 0.456,0.004 0.41,0.012 0.353,0.012 0.298,0.012 0.252,0.007 0.215,-0.004 0.178,-0.014 0.147,-0.03 0.121,-0.053 0.094,-0.076 0.074,-0.103 0.059,-0.134 0.044,-0.165 0.036,-0.206 0.036,-0.257 c 0,-0.053 0.009,-0.098 0.027,-0.133 0.014,-0.026 0.032,-0.05 0.055,-0.07 0.023,-0.021 0.047,-0.036 0.071,-0.046 0.039,-0.016 0.089,-0.024 0.149,-0.024 0.085,0 0.15,0.015 0.194,0.045 0.044,0.03 0.076,0.075 0.093,0.133 L 0.438,-0.327 C 0.433,-0.349 0.422,-0.366 0.406,-0.377 0.391,-0.388 0.37,-0.394 0.344,-0.394 c -0.033,0 -0.059,0.012 -0.08,0.035 -0.02,0.024 -0.03,0.06 -0.03,0.107 0,0.043 0.01,0.075 0.03,0.097 0.02,0.022 0.046,0.033 0.077,0.033 0.026,0 0.048,-0.006 0.066,-0.02 0.018,-0.013 0.031,-0.033 0.04,-0.061 z"
   style="fill-rule:nonzero"
   id="path199" />
                    </g>
                    <g
   transform="matrix(7.08661,0,0,7.08661,73.3822,11.1468)"
   id="g205">
                        <path
   d="m 0.3,-0.716 v 0.197 h 0.109 v 0.146 H 0.3 v 0.184 c 0,0.022 0.002,0.036 0.006,0.044 0.007,0.011 0.018,0.016 0.034,0.016 0.015,0 0.035,-0.004 0.062,-0.013 l 0.015,0.138 C 0.367,0.006 0.321,0.012 0.279,0.012 0.229,0.012 0.193,0.005 0.169,-0.007 0.146,-0.02 0.129,-0.039 0.117,-0.065 0.106,-0.091 0.101,-0.133 0.101,-0.191 V -0.373 H 0.027 v -0.146 h 0.074 v -0.095 z"
   style="fill-rule:nonzero"
   id="path203" />
                    </g>
                </g>
            </g>
            <g
   id="Sketch9"
   serif:id="Sketch"
   transform="matrix(0.998785,0,0,-1.08275,255.841,120.134)">
                <g
   id="Sketch_w00008"
   serif:id="Sketch_w0000"
   transform="translate(0,5.76108)">
                    <path
   d="m 0,0 38.743,38.743 h 74.835 L 74.835,0 C 67.436,-7.398 63.496,-13.801 63.496,-18.425 v -5.761 h -74.835 v 5.761 C -11.339,-13.801 -7.398,-7.398 0,0"
   style="fill:none;stroke:#000000;stroke-width:0.99px"
   id="path210" />
                </g>
                <g
   transform="matrix(1.37357,0,0,-1.37357,-33.0505,45.8136)"
   id="g237">
                    <g
   transform="matrix(7.08661,0,0,7.08661,51.7244,11.1468)"
   id="g215">
                        <path
   d="m 0.045,-0.357 c 0,-0.117 0.033,-0.208 0.098,-0.273 0.065,-0.065 0.156,-0.098 0.272,-0.098 0.119,0 0.211,0.032 0.275,0.096 0.065,0.064 0.097,0.153 0.097,0.269 0,0.083 -0.014,0.152 -0.042,0.206 C 0.717,-0.104 0.676,-0.062 0.623,-0.032 0.57,-0.003 0.503,0.012 0.424,0.012 0.343,0.012 0.276,-0.001 0.223,-0.026 0.17,-0.052 0.128,-0.093 0.095,-0.148 0.062,-0.204 0.045,-0.274 0.045,-0.357 Z m 0.222,0.001 c 0,0.072 0.013,0.124 0.04,0.155 0.027,0.032 0.063,0.048 0.11,0.048 0.047,0 0.084,-0.016 0.11,-0.047 0.026,-0.031 0.039,-0.086 0.039,-0.166 0,-0.068 -0.014,-0.117 -0.041,-0.148 -0.027,-0.031 -0.064,-0.047 -0.11,-0.047 -0.045,0 -0.081,0.016 -0.108,0.048 -0.027,0.031 -0.04,0.084 -0.04,0.157 z"
   style="fill-rule:nonzero"
   id="path213" />
                    </g>
                    <g
   transform="matrix(7.08661,0,0,7.08661,57.6276,11.1468)"
   id="g219">
                        <path
   d="m 0.061,0.197 v -0.716 h 0.186 v 0.077 c 0.026,-0.032 0.049,-0.054 0.071,-0.065 0.029,-0.016 0.061,-0.023 0.096,-0.023 0.069,0 0.123,0.026 0.161,0.079 0.038,0.053 0.057,0.119 0.057,0.197 0,0.086 -0.021,0.152 -0.062,0.198 C 0.528,-0.011 0.476,0.012 0.413,0.012 0.382,0.012 0.355,0.007 0.329,-0.004 0.304,-0.014 0.282,-0.03 0.262,-0.05 V 0.197 Z M 0.26,-0.258 c 0,0.041 0.009,0.072 0.026,0.091 0.017,0.02 0.039,0.03 0.066,0.03 0.023,0 0.042,-0.009 0.058,-0.028 0.015,-0.019 0.023,-0.052 0.023,-0.097 0,-0.042 -0.008,-0.073 -0.024,-0.093 -0.017,-0.019 -0.036,-0.029 -0.06,-0.029 -0.025,0 -0.046,0.01 -0.063,0.03 -0.017,0.019 -0.026,0.052 -0.026,0.096 z"
   style="fill-rule:nonzero"
   id="path217" />
                    </g>
                    <g
   transform="matrix(7.08661,0,0,7.08661,62.3543,11.1468)"
   id="g223">
                        <path
   d="m 0.3,-0.716 v 0.197 h 0.109 v 0.146 H 0.3 v 0.184 c 0,0.022 0.002,0.036 0.006,0.044 0.007,0.011 0.018,0.016 0.034,0.016 0.015,0 0.035,-0.004 0.062,-0.013 l 0.015,0.138 C 0.367,0.006 0.321,0.012 0.279,0.012 0.229,0.012 0.193,0.005 0.169,-0.007 0.146,-0.02 0.129,-0.039 0.117,-0.065 0.106,-0.091 0.101,-0.133 0.101,-0.191 V -0.373 H 0.027 v -0.146 h 0.074 v -0.095 z"
   style="fill-rule:nonzero"
   id="path221" />
                    </g>
                    <g
   transform="matrix(7.08661,0,0,7.08661,65.4997,11.1468)"
   id="g227">
                        <path
   d="m 0.067,-0.716 h 0.199 v 0.135 H 0.067 Z m 0,0.197 H 0.266 V 0 H 0.067 Z"
   style="fill-rule:nonzero"
   id="path225" />
                    </g>
                    <g
   transform="matrix(7.08661,0,0,7.08661,67.8596,11.1468)"
   id="g231">
                        <path
   d="m 0.036,-0.258 c 0,-0.079 0.026,-0.144 0.08,-0.195 0.053,-0.052 0.125,-0.077 0.216,-0.077 0.104,0 0.182,0.03 0.235,0.09 0.043,0.049 0.064,0.108 0.064,0.179 0,0.08 -0.026,0.145 -0.079,0.196 C 0.499,-0.014 0.426,0.012 0.333,0.012 0.249,0.012 0.182,-0.009 0.13,-0.052 0.067,-0.104 0.036,-0.173 0.036,-0.258 Z m 0.199,0 c 0,0.046 0.009,0.08 0.028,0.102 0.019,0.022 0.042,0.033 0.07,0.033 0.029,0 0.053,-0.01 0.071,-0.032 0.018,-0.022 0.028,-0.057 0.028,-0.105 0,-0.045 -0.01,-0.079 -0.028,-0.101 -0.019,-0.022 -0.042,-0.033 -0.069,-0.033 -0.029,0 -0.053,0.012 -0.072,0.034 -0.019,0.022 -0.028,0.056 -0.028,0.102 z"
   style="fill-rule:nonzero"
   id="path229" />
                    </g>
                    <g
   transform="matrix(7.08661,0,0,7.08661,72.5863,11.1468)"
   id="g235">
                        <path
   d="m 0.06,-0.519 h 0.185 v 0.085 c 0.028,-0.035 0.056,-0.059 0.084,-0.074 0.028,-0.015 0.063,-0.022 0.104,-0.022 0.055,0 0.098,0.016 0.129,0.049 0.031,0.033 0.046,0.083 0.046,0.151 V 0 H 0.409 v -0.285 c 0,-0.033 -0.006,-0.056 -0.018,-0.069 -0.012,-0.014 -0.029,-0.021 -0.051,-0.021 -0.024,0 -0.044,0.01 -0.059,0.028 -0.015,0.018 -0.022,0.051 -0.022,0.098 V 0 H 0.06 Z"
   style="fill-rule:nonzero"
   id="path233" />
                    </g>
                </g>
            </g>
            <g
   id="Sketch10"
   serif:id="Sketch"
   transform="matrix(0.998785,0,0,-1.08275,336.813,120.134)">
                <g
   id="Sketch_w00009"
   serif:id="Sketch_w0000"
   transform="translate(0,5.76108)">
                    <path
   d="m 0,0 38.743,38.743 h 74.835 L 74.835,0 C 67.436,-7.398 63.496,-13.801 63.496,-18.425 v -5.761 h -74.835 v 5.761 C -11.339,-13.801 -7.398,-7.398 0,0"
   style="fill:none;stroke:#000000;stroke-width:0.99px"
   id="path240" />
                </g>
                <g
   transform="matrix(1.37357,0,0,-1.37357,-33.0505,45.8136)"
   id="g263">
                    <g
   transform="matrix(7.08661,0,0,7.08661,51.7244,11.1468)"
   id="g245">
                        <path
   d="m 0.076,0 v -0.716 h 0.369 c 0.068,0 0.12,0.006 0.157,0.018 0.036,0.011 0.065,0.033 0.087,0.065 0.022,0.032 0.033,0.07 0.033,0.116 0,0.04 -0.008,0.074 -0.025,0.103 -0.017,0.029 -0.04,0.052 -0.07,0.07 -0.019,0.011 -0.045,0.021 -0.078,0.028 0.027,0.009 0.046,0.018 0.058,0.026 0.008,0.006 0.02,0.019 0.035,0.038 0.016,0.019 0.026,0.034 0.031,0.045 L 0.78,0 H 0.53 L 0.412,-0.219 C 0.397,-0.247 0.384,-0.265 0.372,-0.274 0.356,-0.285 0.338,-0.291 0.318,-0.291 H 0.298 V 0 Z m 0.222,-0.426 h 0.094 c 0.01,0 0.029,-0.003 0.058,-0.01 0.015,-0.002 0.027,-0.01 0.036,-0.022 C 0.495,-0.47 0.5,-0.484 0.5,-0.5 0.5,-0.523 0.493,-0.54 0.478,-0.553 0.463,-0.565 0.436,-0.571 0.396,-0.571 H 0.298 Z"
   style="fill-rule:nonzero"
   id="path243" />
                    </g>
                    <g
   transform="matrix(7.08661,0,0,7.08661,57.0601,11.1468)"
   id="g249">
                        <path
   d="M 0.636,-0.21 H 0.237 c 0.004,0.032 0.013,0.056 0.026,0.071 0.019,0.023 0.044,0.034 0.075,0.034 0.02,0 0.038,-0.005 0.056,-0.015 0.011,-0.006 0.022,-0.017 0.035,-0.032 l 0.196,0.018 C 0.595,-0.082 0.558,-0.045 0.516,-0.022 0.474,0 0.413,0.012 0.334,0.012 0.265,0.012 0.211,0.002 0.172,-0.017 0.132,-0.037 0.1,-0.067 0.074,-0.11 0.048,-0.152 0.035,-0.201 0.035,-0.258 c 0,-0.081 0.026,-0.147 0.078,-0.197 0.052,-0.05 0.124,-0.075 0.215,-0.075 0.074,0 0.133,0.011 0.176,0.033 0.043,0.023 0.076,0.055 0.098,0.098 0.023,0.043 0.034,0.098 0.034,0.167 z M 0.434,-0.305 C 0.43,-0.344 0.419,-0.371 0.403,-0.388 0.386,-0.404 0.364,-0.413 0.336,-0.413 c -0.031,0 -0.056,0.013 -0.075,0.038 -0.012,0.016 -0.02,0.039 -0.023,0.07 z"
   style="fill-rule:nonzero"
   id="path247" />
                    </g>
                    <g
   transform="matrix(7.08661,0,0,7.08661,61.7869,11.1468)"
   id="g253">
                        <path
   d="m 0.025,-0.144 0.197,-0.019 c 0.008,0.024 0.02,0.041 0.034,0.051 0.015,0.01 0.035,0.015 0.059,0.015 0.027,0 0.047,-0.006 0.062,-0.017 0.011,-0.009 0.017,-0.019 0.017,-0.032 0,-0.014 -0.007,-0.025 -0.022,-0.033 C 0.361,-0.185 0.332,-0.191 0.286,-0.2 0.217,-0.212 0.169,-0.223 0.142,-0.233 0.115,-0.243 0.093,-0.261 0.074,-0.285 0.056,-0.309 0.047,-0.337 0.047,-0.368 c 0,-0.034 0.01,-0.064 0.03,-0.089 0.02,-0.024 0.047,-0.043 0.082,-0.055 0.035,-0.012 0.081,-0.018 0.14,-0.018 0.062,0 0.107,0.004 0.137,0.014 0.029,0.009 0.054,0.024 0.074,0.044 0.019,0.02 0.036,0.047 0.049,0.08 L 0.37,-0.373 C 0.365,-0.39 0.357,-0.402 0.346,-0.41 0.33,-0.42 0.311,-0.425 0.289,-0.425 c -0.022,0 -0.039,0.004 -0.049,0.012 -0.01,0.008 -0.015,0.017 -0.015,0.029 0,0.012 0.006,0.022 0.019,0.028 0.013,0.007 0.041,0.013 0.085,0.018 0.066,0.007 0.115,0.018 0.148,0.031 0.032,0.014 0.056,0.033 0.074,0.057 0.017,0.025 0.025,0.052 0.025,0.082 0,0.03 -0.009,0.059 -0.027,0.087 C 0.531,-0.053 0.503,-0.03 0.464,-0.013 0.425,0.003 0.372,0.012 0.305,0.012 0.21,0.012 0.142,-0.002 0.102,-0.029 0.062,-0.056 0.036,-0.094 0.025,-0.144 Z"
   style="fill-rule:nonzero"
   id="path251" />
                    </g>
                    <g
   transform="matrix(7.08661,0,0,7.08661,66.1156,11.1468)"
   id="g257">
                        <path
   d="M 0.636,-0.21 H 0.237 c 0.004,0.032 0.013,0.056 0.026,0.071 0.019,0.023 0.044,0.034 0.075,0.034 0.02,0 0.038,-0.005 0.056,-0.015 0.011,-0.006 0.022,-0.017 0.035,-0.032 l 0.196,0.018 C 0.595,-0.082 0.558,-0.045 0.516,-0.022 0.474,0 0.413,0.012 0.334,0.012 0.265,0.012 0.211,0.002 0.172,-0.017 0.132,-0.037 0.1,-0.067 0.074,-0.11 0.048,-0.152 0.035,-0.201 0.035,-0.258 c 0,-0.081 0.026,-0.147 0.078,-0.197 0.052,-0.05 0.124,-0.075 0.215,-0.075 0.074,0 0.133,0.011 0.176,0.033 0.043,0.023 0.076,0.055 0.098,0.098 0.023,0.043 0.034,0.098 0.034,0.167 z M 0.434,-0.305 C 0.43,-0.344 0.419,-0.371 0.403,-0.388 0.386,-0.404 0.364,-0.413 0.336,-0.413 c -0.031,0 -0.056,0.013 -0.075,0.038 -0.012,0.016 -0.02,0.039 -0.023,0.07 z"
   style="fill-rule:nonzero"
   id="path255" />
                    </g>
                    <g
   transform="matrix(7.08661,0,0,7.08661,70.8424,11.1468)"
   id="g261">
                        <path
   d="m 0.3,-0.716 v 0.197 h 0.109 v 0.146 H 0.3 v 0.184 c 0,0.022 0.002,0.036 0.006,0.044 0.007,0.011 0.018,0.016 0.034,0.016 0.015,0 0.035,-0.004 0.062,-0.013 l 0.015,0.138 C 0.367,0.006 0.321,0.012 0.279,0.012 0.229,0.012 0.193,0.005 0.169,-0.007 0.146,-0.02 0.129,-0.039 0.117,-0.065 0.106,-0.091 0.101,-0.133 0.101,-0.191 V -0.373 H 0.027 v -0.146 h 0.074 v -0.095 z"
   style="fill-rule:nonzero"
   id="path259" />
                    </g>
                </g>
            </g>
        </g>
    </g>
</svg>
