<?xml version="1.0" encoding="UTF-8" standalone="no"?>
<!DOCTYPE svg PUBLIC "-//W3C//DTD SVG 1.1//EN" "http://www.w3.org/Graphics/SVG/1.1/DTD/svg11.dtd">
<svg width="100%" height="100%" viewBox="0 0 954 256" version="1.1" xmlns="http://www.w3.org/2000/svg" xmlns:xlink="http://www.w3.org/1999/xlink" xml:space="preserve" xmlns:serif="http://www.serif.com/" style="fill-rule:evenodd;clip-rule:evenodd;stroke-linecap:square;">
    <g id="Part__Part2DObjectPython" transform="matrix(1.73572e-16,2.83465,2.83465,-1.73572e-16,80.8866,-90.771)">
        <path id="Part__Part2DObjectPython_w0000" d="M122.022,218.84L120.022,220.84L122.022,222.84L122.022,301.965L120.022,303.965L34.022,303.965L32.022,301.965L32.022,222.84L34.022,220.84L32.022,218.84L32.022,139.715L34.022,137.715L32.022,135.715L32.022,56.59L34.022,54.59L32.022,52.59L32.022,-26.535L34.022,-28.535L120.022,-28.535L122.022,-26.535L122.022,52.59L120.022,54.59L122.022,56.59L122.022,135.715L120.022,137.715L122.022,139.715L122.022,218.84" style="fill:none;stroke:rgb(255,0,10);stroke-width:0.35px;"/>
        <g transform="matrix(2.16014e-17,0.352778,0.352778,-2.16014e-17,32.022,-28.535)">
            <path d="M235.63,5.669L235.63,249.449" style="fill:none;stroke:rgb(252,0,255);stroke-width:1px;stroke-linecap:round;stroke-linejoin:round;stroke-miterlimit:1.5;"/>
        </g>
        <g transform="matrix(2.16014e-17,0.352778,0.369186,-2.26061e-17,29.929,-70.11)">
            <path d="M235.63,5.669L235.63,249.449" style="fill:none;stroke:rgb(252,0,255);stroke-width:0.98px;stroke-linecap:round;stroke-linejoin:round;stroke-miterlimit:1.5;"/>
        </g>
        <g transform="matrix(2.16014e-17,0.352778,0.369186,-2.26061e-17,29.929,12.94)">
            <path d="M235.63,5.669L235.63,249.449" style="fill:none;stroke:rgb(252,0,255);stroke-width:0.98px;stroke-linecap:round;stroke-linejoin:round;stroke-miterlimit:1.5;"/>
        </g>
        <g transform="matrix(2.16014e-17,0.352778,0.369186,-2.26061e-17,29.929,95.99)">
            <path d="M235.63,5.669L235.63,249.449" style="fill:none;stroke:rgb(252,0,255);stroke-width:0.98px;stroke-linecap:round;stroke-linejoin:round;stroke-miterlimit:1.5;"/>
        </g>
        <g transform="matrix(2.16014e-17,0.352778,0.369186,-2.26061e-17,29.929,179.04)">
            <path d="M235.63,5.669L235.63,249.449" style="fill:none;stroke:rgb(252,0,255);stroke-width:0.98px;stroke-linecap:round;stroke-linejoin:round;stroke-miterlimit:1.5;"/>
        </g>
        <g transform="matrix(2.16014e-17,0.352778,0.352778,-2.16014e-17,32.022,54.54)">
            <path d="M235.63,5.669L235.63,249.449" style="fill:none;stroke:rgb(252,0,255);stroke-width:1px;stroke-linecap:round;stroke-linejoin:round;stroke-miterlimit:1.5;"/>
        </g>
        <g transform="matrix(2.16014e-17,0.352778,0.352778,-2.16014e-17,32.022,137.615)">
            <path d="M235.63,5.669L235.63,249.449" style="fill:none;stroke:rgb(252,0,255);stroke-width:1px;stroke-linecap:round;stroke-linejoin:round;stroke-miterlimit:1.5;"/>
        </g>
        <g transform="matrix(2.16014e-17,0.352778,0.352778,-2.16014e-17,32.022,-28.535)">
            <path d="M0,127.559L941.811,127.559" style="fill:none;stroke:rgb(252,0,255);stroke-width:1px;stroke-linecap:round;stroke-linejoin:round;stroke-miterlimit:1.5;"/>
        </g>
    </g>
</svg>
