<?xml version="1.0" encoding="UTF-8" standalone="no"?>
<!DOCTYPE svg PUBLIC "-//W3C//DTD SVG 1.1//EN" "http://www.w3.org/Graphics/SVG/1.1/DTD/svg11.dtd">
<svg width="100%" height="100%" viewBox="0 0 459 432" version="1.1" xmlns="http://www.w3.org/2000/svg" xmlns:xlink="http://www.w3.org/1999/xlink" xml:space="preserve" xmlns:serif="http://www.serif.com/" style="fill-rule:evenodd;clip-rule:evenodd;stroke-linejoin:round;stroke-miterlimit:2;">
    <g transform="matrix(1,0,0,1,-216.929,-636.189)">
        <g transform="matrix(1,0,0,1,47.2441,188.976)">
            <g transform="matrix(0.686916,0,0,0.720588,335.183,551.855)">
                <path d="M216.535,87.578L216.535,169.532C216.535,192.148 197.274,210.509 173.55,210.509L87.578,210.509C63.854,210.509 44.593,192.148 44.593,169.532L44.593,87.578C44.593,64.963 63.854,46.601 87.578,46.601L173.55,46.601C197.274,46.601 216.535,64.963 216.535,87.578Z" style="fill:rgb(0,125,154);"/>
            </g>
        </g>
        <g transform="matrix(1,0,0,1,47.2441,188.976)">
            <g transform="matrix(0.686916,0,0,0.720588,335.183,551.855)">
                <path d="M216.535,87.578L216.535,169.532C216.535,192.148 197.274,210.509 173.55,210.509L87.578,210.509C63.854,210.509 44.593,192.148 44.593,169.532L44.593,87.578C44.593,64.963 63.854,46.601 87.578,46.601L173.55,46.601C197.274,46.601 216.535,64.963 216.535,87.578Z" style="fill:rgb(0,125,154);"/>
            </g>
        </g>
        <g transform="matrix(1,0,0,1,47.2441,188.976)">
            <g transform="matrix(0.686916,0,0,0.720588,333.208,413.632)">
                <path d="M216.535,87.578L216.535,169.532C216.535,192.148 197.274,210.509 173.55,210.509L87.578,210.509C63.854,210.509 44.593,192.148 44.593,169.532L44.593,87.578C44.593,64.963 63.854,46.601 87.578,46.601L173.55,46.601C197.274,46.601 216.535,64.963 216.535,87.578Z" style="fill:rgb(0,115,154);"/>
            </g>
        </g>
        <g transform="matrix(1,0,0,1,47.2441,188.976)">
            <g transform="matrix(0.686916,0,0,0.720588,335.183,690.078)">
                <path d="M216.535,87.578L216.535,169.532C216.535,192.148 197.274,210.509 173.55,210.509L87.578,210.509C63.854,210.509 44.593,192.148 44.593,169.532L44.593,87.578C44.593,64.963 63.854,46.601 87.578,46.601L173.55,46.601C197.274,46.601 216.535,64.963 216.535,87.578Z" style="fill:rgb(0,136,154);"/>
            </g>
        </g>
        <g transform="matrix(1,0,0,1,47.2441,188.976)">
            <g transform="matrix(0.686916,0,0,0.720588,193.011,551.855)">
                <path d="M216.535,87.578L216.535,169.532C216.535,192.148 197.274,210.509 173.55,210.509L87.578,210.509C63.854,210.509 44.593,192.148 44.593,169.532L44.593,87.578C44.593,64.963 63.854,46.601 87.578,46.601L173.55,46.601C197.274,46.601 216.535,64.963 216.535,87.578Z" style="fill:rgb(0,133,163);"/>
            </g>
        </g>
        <g transform="matrix(1,0,0,1,47.2441,188.976)">
            <g transform="matrix(0.686916,0,0,0.720588,191.036,413.632)">
                <path d="M216.535,87.578L216.535,169.532C216.535,192.148 197.274,210.509 173.55,210.509L87.578,210.509C63.854,210.509 44.593,192.148 44.593,169.532L44.593,87.578C44.593,64.963 63.854,46.601 87.578,46.601L173.55,46.601C197.274,46.601 216.535,64.963 216.535,87.578Z" style="fill:rgb(0,122,163);"/>
            </g>
        </g>
        <g transform="matrix(1,0,0,1,47.2441,188.976)">
            <g transform="matrix(0.686916,0,0,0.720588,193.011,690.078)">
                <path d="M216.535,87.578L216.535,169.532C216.535,192.148 197.274,210.509 173.55,210.509L87.578,210.509C63.854,210.509 44.593,192.148 44.593,169.532L44.593,87.578C44.593,64.963 63.854,46.601 87.578,46.601L173.55,46.601C197.274,46.601 216.535,64.963 216.535,87.578Z" style="fill:rgb(0,144,163);"/>
            </g>
        </g>
        <g transform="matrix(1,0,0,1,47.2441,188.976)">
            <g transform="matrix(0.686916,0,0,0.720588,479.329,551.855)">
                <path d="M216.535,87.578L216.535,169.532C216.535,192.148 197.274,210.509 173.55,210.509L87.578,210.509C63.854,210.509 44.593,192.148 44.593,169.532L44.593,87.578C44.593,64.963 63.854,46.601 87.578,46.601L173.55,46.601C197.274,46.601 216.535,64.963 216.535,87.578Z" style="fill:rgb(0,117,143);"/>
            </g>
        </g>
        <g transform="matrix(1,0,0,1,47.2441,188.976)">
            <g transform="matrix(0.686916,0,0,0.720588,477.354,413.632)">
                <path d="M216.535,87.578L216.535,169.532C216.535,192.148 197.274,210.509 173.55,210.509L87.578,210.509C63.854,210.509 44.593,192.148 44.593,169.532L44.593,87.578C44.593,64.963 63.854,46.601 87.578,46.601L173.55,46.601C197.274,46.601 216.535,64.963 216.535,87.578Z" style="fill:rgb(0,107,143);"/>
            </g>
        </g>
        <g transform="matrix(1,0,0,1,47.2441,188.976)">
            <g transform="matrix(0.686916,0,0,0.720588,479.329,690.078)">
                <path d="M216.535,87.578L216.535,169.532C216.535,192.148 197.274,210.509 173.55,210.509L87.578,210.509C63.854,210.509 44.593,192.148 44.593,169.532L44.593,87.578C44.593,64.963 63.854,46.601 87.578,46.601L173.55,46.601C197.274,46.601 216.535,64.963 216.535,87.578Z" style="fill:rgb(0,126,143);"/>
            </g>
        </g>
        <g transform="matrix(1,0,0,1,458.324,923.861)">
            <g transform="matrix(25,0,0,25,-2.4341,139.958)">
                <path d="M0.042,-0.189L0.13,-0.201C0.14,-0.151 0.157,-0.115 0.181,-0.093C0.206,-0.071 0.235,-0.06 0.27,-0.06C0.311,-0.06 0.346,-0.074 0.375,-0.103C0.403,-0.132 0.417,-0.167 0.417,-0.209C0.417,-0.25 0.404,-0.283 0.378,-0.309C0.352,-0.336 0.318,-0.349 0.277,-0.349C0.261,-0.349 0.24,-0.345 0.215,-0.339L0.225,-0.416C0.231,-0.415 0.236,-0.415 0.239,-0.415C0.277,-0.415 0.31,-0.425 0.34,-0.444C0.37,-0.464 0.385,-0.494 0.385,-0.535C0.385,-0.567 0.374,-0.594 0.353,-0.615C0.331,-0.636 0.303,-0.646 0.268,-0.646C0.234,-0.646 0.205,-0.636 0.183,-0.614C0.16,-0.593 0.145,-0.561 0.139,-0.518L0.051,-0.533C0.062,-0.592 0.086,-0.638 0.124,-0.67C0.162,-0.703 0.209,-0.719 0.266,-0.719C0.305,-0.719 0.341,-0.71 0.374,-0.694C0.407,-0.677 0.432,-0.654 0.449,-0.625C0.467,-0.596 0.476,-0.565 0.476,-0.533C0.476,-0.502 0.467,-0.474 0.451,-0.448C0.434,-0.423 0.41,-0.403 0.377,-0.388C0.419,-0.378 0.452,-0.358 0.476,-0.327C0.499,-0.296 0.511,-0.258 0.511,-0.211C0.511,-0.149 0.488,-0.096 0.442,-0.052C0.397,-0.009 0.339,0.013 0.27,0.013C0.207,0.013 0.155,-0.006 0.113,-0.043C0.072,-0.081 0.048,-0.129 0.042,-0.189Z" style="fill-rule:nonzero;"/>
            </g>
            <g transform="matrix(25,0,0,25,11.4697,139.958)">
                <path d="M0.042,-0.353C0.042,-0.438 0.05,-0.506 0.068,-0.557C0.085,-0.609 0.111,-0.649 0.145,-0.677C0.18,-0.705 0.223,-0.719 0.275,-0.719C0.313,-0.719 0.347,-0.711 0.376,-0.696C0.405,-0.68 0.429,-0.658 0.448,-0.629C0.467,-0.6 0.481,-0.564 0.492,-0.522C0.503,-0.48 0.508,-0.424 0.508,-0.353C0.508,-0.269 0.5,-0.201 0.482,-0.15C0.465,-0.098 0.439,-0.058 0.405,-0.03C0.371,-0.002 0.327,0.012 0.275,0.012C0.206,0.012 0.152,-0.013 0.112,-0.062C0.065,-0.122 0.042,-0.219 0.042,-0.353ZM0.132,-0.353C0.132,-0.236 0.146,-0.157 0.173,-0.118C0.201,-0.08 0.235,-0.06 0.275,-0.06C0.315,-0.06 0.349,-0.08 0.377,-0.119C0.404,-0.158 0.418,-0.236 0.418,-0.353C0.418,-0.471 0.404,-0.549 0.377,-0.588C0.349,-0.627 0.315,-0.646 0.274,-0.646C0.234,-0.646 0.201,-0.629 0.177,-0.595C0.147,-0.551 0.132,-0.471 0.132,-0.353Z" style="fill-rule:nonzero;"/>
            </g>
        </g>
        <g transform="matrix(1,0,0,1,603.364,923.861)">
            <g transform="matrix(25,0,0,25,-2.4341,139.958)">
                <path d="M0.503,-0.084L0.503,-0L0.03,-0C0.03,-0.021 0.033,-0.042 0.041,-0.061C0.053,-0.093 0.072,-0.125 0.098,-0.156C0.125,-0.188 0.163,-0.224 0.213,-0.265C0.291,-0.328 0.344,-0.379 0.371,-0.416C0.398,-0.454 0.412,-0.489 0.412,-0.522C0.412,-0.557 0.4,-0.586 0.375,-0.61C0.35,-0.634 0.317,-0.646 0.277,-0.646C0.235,-0.646 0.201,-0.633 0.176,-0.608C0.15,-0.583 0.138,-0.547 0.137,-0.502L0.047,-0.512C0.053,-0.579 0.076,-0.63 0.117,-0.666C0.157,-0.701 0.211,-0.719 0.279,-0.719C0.348,-0.719 0.402,-0.7 0.442,-0.662C0.482,-0.624 0.502,-0.576 0.502,-0.52C0.502,-0.491 0.497,-0.463 0.485,-0.436C0.473,-0.408 0.454,-0.379 0.427,-0.348C0.399,-0.318 0.354,-0.276 0.291,-0.222C0.238,-0.178 0.204,-0.148 0.189,-0.132C0.174,-0.116 0.162,-0.1 0.152,-0.084L0.503,-0.084Z" style="fill-rule:nonzero;"/>
            </g>
            <g transform="matrix(25,0,0,25,11.4697,139.958)">
                <path d="M0.177,-0.388C0.14,-0.402 0.113,-0.421 0.096,-0.445C0.078,-0.47 0.069,-0.5 0.069,-0.534C0.069,-0.586 0.088,-0.63 0.125,-0.666C0.163,-0.701 0.213,-0.719 0.275,-0.719C0.337,-0.719 0.388,-0.701 0.426,-0.664C0.464,-0.628 0.483,-0.584 0.483,-0.532C0.483,-0.499 0.474,-0.47 0.457,-0.445C0.439,-0.42 0.413,-0.402 0.377,-0.388C0.421,-0.374 0.455,-0.351 0.478,-0.319C0.501,-0.287 0.512,-0.249 0.512,-0.205C0.512,-0.143 0.491,-0.092 0.447,-0.05C0.404,-0.009 0.347,0.012 0.276,0.012C0.206,0.012 0.149,-0.009 0.105,-0.051C0.062,-0.092 0.041,-0.145 0.041,-0.207C0.041,-0.254 0.052,-0.293 0.076,-0.324C0.1,-0.355 0.133,-0.377 0.177,-0.388ZM0.159,-0.537C0.159,-0.503 0.17,-0.476 0.192,-0.454C0.214,-0.433 0.242,-0.422 0.277,-0.422C0.311,-0.422 0.338,-0.433 0.36,-0.454C0.382,-0.475 0.393,-0.501 0.393,-0.532C0.393,-0.564 0.381,-0.592 0.359,-0.614C0.337,-0.635 0.309,-0.646 0.276,-0.646C0.242,-0.646 0.215,-0.636 0.192,-0.614C0.17,-0.593 0.159,-0.567 0.159,-0.537ZM0.131,-0.207C0.131,-0.181 0.137,-0.157 0.149,-0.134C0.161,-0.11 0.178,-0.092 0.202,-0.079C0.225,-0.066 0.25,-0.06 0.277,-0.06C0.319,-0.06 0.354,-0.074 0.381,-0.101C0.409,-0.128 0.422,-0.162 0.422,-0.204C0.422,-0.246 0.408,-0.281 0.38,-0.309C0.352,-0.336 0.317,-0.35 0.274,-0.35C0.233,-0.35 0.199,-0.336 0.172,-0.309C0.144,-0.282 0.131,-0.248 0.131,-0.207Z" style="fill-rule:nonzero;"/>
            </g>
        </g>
        <g transform="matrix(1,0,0,1,309.467,927.678)">
            <g transform="matrix(25,0,0,25,-2.4341,139.958)">
                <path d="M0.042,-0.189L0.13,-0.201C0.14,-0.151 0.157,-0.115 0.181,-0.093C0.206,-0.071 0.235,-0.06 0.27,-0.06C0.311,-0.06 0.346,-0.074 0.375,-0.103C0.403,-0.132 0.417,-0.167 0.417,-0.209C0.417,-0.25 0.404,-0.283 0.378,-0.309C0.352,-0.336 0.318,-0.349 0.277,-0.349C0.261,-0.349 0.24,-0.345 0.215,-0.339L0.225,-0.416C0.231,-0.415 0.236,-0.415 0.239,-0.415C0.277,-0.415 0.31,-0.425 0.34,-0.444C0.37,-0.464 0.385,-0.494 0.385,-0.535C0.385,-0.567 0.374,-0.594 0.353,-0.615C0.331,-0.636 0.303,-0.646 0.268,-0.646C0.234,-0.646 0.205,-0.636 0.183,-0.614C0.16,-0.593 0.145,-0.561 0.139,-0.518L0.051,-0.533C0.062,-0.592 0.086,-0.638 0.124,-0.67C0.162,-0.703 0.209,-0.719 0.266,-0.719C0.305,-0.719 0.341,-0.71 0.374,-0.694C0.407,-0.677 0.432,-0.654 0.449,-0.625C0.467,-0.596 0.476,-0.565 0.476,-0.533C0.476,-0.502 0.467,-0.474 0.451,-0.448C0.434,-0.423 0.41,-0.403 0.377,-0.388C0.419,-0.378 0.452,-0.358 0.476,-0.327C0.499,-0.296 0.511,-0.258 0.511,-0.211C0.511,-0.149 0.488,-0.096 0.442,-0.052C0.397,-0.009 0.339,0.013 0.27,0.013C0.207,0.013 0.155,-0.006 0.113,-0.043C0.072,-0.081 0.048,-0.129 0.042,-0.189Z" style="fill-rule:nonzero;"/>
            </g>
            <g transform="matrix(25,0,0,25,11.4697,139.958)">
                <path d="M0.503,-0.084L0.503,-0L0.03,-0C0.03,-0.021 0.033,-0.042 0.041,-0.061C0.053,-0.093 0.072,-0.125 0.098,-0.156C0.125,-0.188 0.163,-0.224 0.213,-0.265C0.291,-0.328 0.344,-0.379 0.371,-0.416C0.398,-0.454 0.412,-0.489 0.412,-0.522C0.412,-0.557 0.4,-0.586 0.375,-0.61C0.35,-0.634 0.317,-0.646 0.277,-0.646C0.235,-0.646 0.201,-0.633 0.176,-0.608C0.15,-0.583 0.138,-0.547 0.137,-0.502L0.047,-0.512C0.053,-0.579 0.076,-0.63 0.117,-0.666C0.157,-0.701 0.211,-0.719 0.279,-0.719C0.348,-0.719 0.402,-0.7 0.442,-0.662C0.482,-0.624 0.502,-0.576 0.502,-0.52C0.502,-0.491 0.497,-0.463 0.485,-0.436C0.473,-0.408 0.454,-0.379 0.427,-0.348C0.399,-0.318 0.354,-0.276 0.291,-0.222C0.238,-0.178 0.204,-0.148 0.189,-0.132C0.174,-0.116 0.162,-0.1 0.152,-0.084L0.503,-0.084Z" style="fill-rule:nonzero;"/>
            </g>
        </g>
        <g transform="matrix(1,0,0,1,224.58,558.849)">
            <g transform="matrix(25,0,0,25,-9.386,139.958)">
                <path d="M0.373,-0L0.285,-0L0.285,-0.56C0.264,-0.54 0.236,-0.52 0.201,-0.5C0.167,-0.479 0.136,-0.464 0.109,-0.454L0.109,-0.539C0.158,-0.562 0.201,-0.59 0.238,-0.623C0.275,-0.656 0.301,-0.688 0.316,-0.719L0.373,-0.719L0.373,-0Z" style="fill-rule:nonzero;"/>
            </g>
            <g transform="matrix(25,0,0,25,4.5178,139.958)">
                <path d="M0.055,-0.166L0.139,-0.173C0.146,-0.134 0.16,-0.105 0.18,-0.087C0.2,-0.069 0.226,-0.06 0.258,-0.06C0.285,-0.06 0.309,-0.066 0.329,-0.079C0.349,-0.091 0.366,-0.108 0.379,-0.128C0.392,-0.149 0.403,-0.177 0.412,-0.212C0.42,-0.247 0.425,-0.283 0.425,-0.319C0.425,-0.323 0.425,-0.329 0.424,-0.337C0.407,-0.309 0.383,-0.286 0.352,-0.269C0.322,-0.251 0.289,-0.243 0.253,-0.243C0.194,-0.243 0.144,-0.264 0.103,-0.307C0.062,-0.35 0.042,-0.407 0.042,-0.477C0.042,-0.55 0.063,-0.608 0.106,-0.652C0.149,-0.697 0.202,-0.719 0.267,-0.719C0.313,-0.719 0.356,-0.706 0.394,-0.681C0.433,-0.656 0.462,-0.62 0.482,-0.574C0.502,-0.528 0.512,-0.46 0.512,-0.373C0.512,-0.281 0.502,-0.208 0.482,-0.154C0.463,-0.1 0.433,-0.059 0.394,-0.03C0.355,-0.002 0.309,0.012 0.256,0.012C0.2,0.012 0.154,-0.003 0.119,-0.034C0.083,-0.066 0.062,-0.109 0.055,-0.166ZM0.415,-0.481C0.415,-0.532 0.401,-0.572 0.374,-0.602C0.347,-0.631 0.315,-0.646 0.277,-0.646C0.238,-0.646 0.204,-0.63 0.175,-0.598C0.146,-0.566 0.132,-0.525 0.132,-0.474C0.132,-0.429 0.146,-0.392 0.173,-0.363C0.201,-0.335 0.235,-0.32 0.275,-0.32C0.316,-0.32 0.349,-0.335 0.375,-0.363C0.401,-0.392 0.415,-0.431 0.415,-0.481Z" style="fill-rule:nonzero;"/>
            </g>
            <g transform="matrix(25,0,0,25,18.4216,139.958)">
                <path d="M0.042,-0.188L0.134,-0.195C0.141,-0.15 0.156,-0.117 0.181,-0.094C0.206,-0.071 0.236,-0.06 0.271,-0.06C0.314,-0.06 0.35,-0.076 0.379,-0.108C0.408,-0.14 0.423,-0.182 0.423,-0.235C0.423,-0.285 0.409,-0.325 0.381,-0.354C0.352,-0.382 0.316,-0.397 0.27,-0.397C0.242,-0.397 0.216,-0.391 0.193,-0.378C0.171,-0.365 0.153,-0.348 0.14,-0.328L0.057,-0.338L0.126,-0.706L0.482,-0.706L0.482,-0.622L0.197,-0.622L0.158,-0.43C0.201,-0.46 0.246,-0.475 0.293,-0.475C0.356,-0.475 0.409,-0.453 0.452,-0.41C0.495,-0.366 0.516,-0.311 0.516,-0.243C0.516,-0.178 0.497,-0.122 0.459,-0.075C0.414,-0.017 0.351,0.012 0.271,0.012C0.206,0.012 0.153,-0.006 0.112,-0.042C0.071,-0.079 0.047,-0.127 0.042,-0.188Z" style="fill-rule:nonzero;"/>
            </g>
        </g>
        <g transform="matrix(1,0,0,1,224.58,698.607)">
            <g transform="matrix(25,0,0,25,-9.386,139.958)">
                <path d="M0.373,-0L0.285,-0L0.285,-0.56C0.264,-0.54 0.236,-0.52 0.201,-0.5C0.167,-0.479 0.136,-0.464 0.109,-0.454L0.109,-0.539C0.158,-0.562 0.201,-0.59 0.238,-0.623C0.275,-0.656 0.301,-0.688 0.316,-0.719L0.373,-0.719L0.373,-0Z" style="fill-rule:nonzero;"/>
            </g>
            <g transform="matrix(25,0,0,25,4.5178,139.958)">
                <path d="M0.055,-0.166L0.139,-0.173C0.146,-0.134 0.16,-0.105 0.18,-0.087C0.2,-0.069 0.226,-0.06 0.258,-0.06C0.285,-0.06 0.309,-0.066 0.329,-0.079C0.349,-0.091 0.366,-0.108 0.379,-0.128C0.392,-0.149 0.403,-0.177 0.412,-0.212C0.42,-0.247 0.425,-0.283 0.425,-0.319C0.425,-0.323 0.425,-0.329 0.424,-0.337C0.407,-0.309 0.383,-0.286 0.352,-0.269C0.322,-0.251 0.289,-0.243 0.253,-0.243C0.194,-0.243 0.144,-0.264 0.103,-0.307C0.062,-0.35 0.042,-0.407 0.042,-0.477C0.042,-0.55 0.063,-0.608 0.106,-0.652C0.149,-0.697 0.202,-0.719 0.267,-0.719C0.313,-0.719 0.356,-0.706 0.394,-0.681C0.433,-0.656 0.462,-0.62 0.482,-0.574C0.502,-0.528 0.512,-0.46 0.512,-0.373C0.512,-0.281 0.502,-0.208 0.482,-0.154C0.463,-0.1 0.433,-0.059 0.394,-0.03C0.355,-0.002 0.309,0.012 0.256,0.012C0.2,0.012 0.154,-0.003 0.119,-0.034C0.083,-0.066 0.062,-0.109 0.055,-0.166ZM0.415,-0.481C0.415,-0.532 0.401,-0.572 0.374,-0.602C0.347,-0.631 0.315,-0.646 0.277,-0.646C0.238,-0.646 0.204,-0.63 0.175,-0.598C0.146,-0.566 0.132,-0.525 0.132,-0.474C0.132,-0.429 0.146,-0.392 0.173,-0.363C0.201,-0.335 0.235,-0.32 0.275,-0.32C0.316,-0.32 0.349,-0.335 0.375,-0.363C0.401,-0.392 0.415,-0.431 0.415,-0.481Z" style="fill-rule:nonzero;"/>
            </g>
            <g transform="matrix(25,0,0,25,18.4216,139.958)">
                <path d="M0.373,-0L0.285,-0L0.285,-0.56C0.264,-0.54 0.236,-0.52 0.201,-0.5C0.167,-0.479 0.136,-0.464 0.109,-0.454L0.109,-0.539C0.158,-0.562 0.201,-0.59 0.238,-0.623C0.275,-0.656 0.301,-0.688 0.316,-0.719L0.373,-0.719L0.373,-0Z" style="fill-rule:nonzero;"/>
            </g>
        </g>
        <g transform="matrix(1,0,0,1,223.593,830.906)">
            <g transform="matrix(25,0,0,25,-9.386,139.958)">
                <path d="M0.373,-0L0.285,-0L0.285,-0.56C0.264,-0.54 0.236,-0.52 0.201,-0.5C0.167,-0.479 0.136,-0.464 0.109,-0.454L0.109,-0.539C0.158,-0.562 0.201,-0.59 0.238,-0.623C0.275,-0.656 0.301,-0.688 0.316,-0.719L0.373,-0.719L0.373,-0Z" style="fill-rule:nonzero;"/>
            </g>
            <g transform="matrix(25,0,0,25,4.5178,139.958)">
                <path d="M0.177,-0.388C0.14,-0.402 0.113,-0.421 0.096,-0.445C0.078,-0.47 0.069,-0.5 0.069,-0.534C0.069,-0.586 0.088,-0.63 0.125,-0.666C0.163,-0.701 0.213,-0.719 0.275,-0.719C0.337,-0.719 0.388,-0.701 0.426,-0.664C0.464,-0.628 0.483,-0.584 0.483,-0.532C0.483,-0.499 0.474,-0.47 0.457,-0.445C0.439,-0.42 0.413,-0.402 0.377,-0.388C0.421,-0.374 0.455,-0.351 0.478,-0.319C0.501,-0.287 0.512,-0.249 0.512,-0.205C0.512,-0.143 0.491,-0.092 0.447,-0.05C0.404,-0.009 0.347,0.012 0.276,0.012C0.206,0.012 0.149,-0.009 0.105,-0.051C0.062,-0.092 0.041,-0.145 0.041,-0.207C0.041,-0.254 0.052,-0.293 0.076,-0.324C0.1,-0.355 0.133,-0.377 0.177,-0.388ZM0.159,-0.537C0.159,-0.503 0.17,-0.476 0.192,-0.454C0.214,-0.433 0.242,-0.422 0.277,-0.422C0.311,-0.422 0.338,-0.433 0.36,-0.454C0.382,-0.475 0.393,-0.501 0.393,-0.532C0.393,-0.564 0.381,-0.592 0.359,-0.614C0.337,-0.635 0.309,-0.646 0.276,-0.646C0.242,-0.646 0.215,-0.636 0.192,-0.614C0.17,-0.593 0.159,-0.567 0.159,-0.537ZM0.131,-0.207C0.131,-0.181 0.137,-0.157 0.149,-0.134C0.161,-0.11 0.178,-0.092 0.202,-0.079C0.225,-0.066 0.25,-0.06 0.277,-0.06C0.319,-0.06 0.354,-0.074 0.381,-0.101C0.409,-0.128 0.422,-0.162 0.422,-0.204C0.422,-0.246 0.408,-0.281 0.38,-0.309C0.352,-0.336 0.317,-0.35 0.274,-0.35C0.233,-0.35 0.199,-0.336 0.172,-0.309C0.144,-0.282 0.131,-0.248 0.131,-0.207Z" style="fill-rule:nonzero;"/>
            </g>
            <g transform="matrix(25,0,0,25,18.4216,139.958)">
                <path d="M0.047,-0.622L0.047,-0.707L0.511,-0.707L0.511,-0.638C0.465,-0.59 0.42,-0.525 0.375,-0.445C0.33,-0.364 0.296,-0.282 0.271,-0.197C0.254,-0.137 0.243,-0.071 0.238,-0L0.147,-0C0.148,-0.056 0.16,-0.124 0.181,-0.204C0.202,-0.284 0.232,-0.361 0.272,-0.435C0.311,-0.509 0.353,-0.571 0.398,-0.622L0.047,-0.622Z" style="fill-rule:nonzero;"/>
            </g>
        </g>
    </g>
</svg>
