<?xml version="1.0" encoding="UTF-8" standalone="no"?>
<!DOCTYPE svg PUBLIC "-//W3C//DTD SVG 1.1//EN" "http://www.w3.org/Graphics/SVG/1.1/DTD/svg11.dtd">
<svg width="100%" height="100%" viewBox="0 0 934 367" version="1.1" xmlns="http://www.w3.org/2000/svg" xmlns:xlink="http://www.w3.org/1999/xlink" xml:space="preserve" xmlns:serif="http://www.serif.com/" style="fill-rule:evenodd;clip-rule:evenodd;stroke-linecap:round;stroke-linejoin:round;">
    <g transform="matrix(1,0,0,1,-5.68913,-4.96913)">
        <g>
            <path d="M938.925,13.544L938.925,363.056" style="fill:none;fill-rule:nonzero;stroke:black;stroke-width:0.14px;"/>
            <path d="M5.76,363.056C5.76,367.721 9.599,371.56 14.264,371.56" style="fill:rgb(194,194,0);fill-opacity:0;fill-rule:nonzero;stroke:black;stroke-width:0.14px;"/>
            <path d="M938.925,13.544C938.925,8.879 935.087,5.04 930.421,5.04" style="fill:rgb(194,194,0);fill-opacity:0;fill-rule:nonzero;stroke:black;stroke-width:0.14px;"/>
            <path d="M930.421,371.56C935.087,371.56 938.925,367.721 938.925,363.056" style="fill:rgb(194,194,0);fill-opacity:0;fill-rule:nonzero;stroke:black;stroke-width:0.14px;"/>
            <path d="M76.626,371.56C81.291,371.56 85.13,367.721 85.13,363.056" style="fill:rgb(194,194,0);fill-opacity:0;fill-rule:nonzero;stroke:black;stroke-width:0.14px;"/>
            <path d="M147.209,363.056C147.209,367.721 151.048,371.56 155.713,371.56" style="fill:rgb(194,194,0);fill-opacity:0;fill-rule:nonzero;stroke:black;stroke-width:0.14px;"/>
            <path d="M147.209,357.103L147.209,363.056" style="fill:none;fill-rule:nonzero;stroke:black;stroke-width:0.14px;"/>
            <path d="M155.713,371.56L783.133,371.56" style="fill:none;fill-rule:nonzero;stroke:black;stroke-width:0.14px;"/>
            <path d="M783.133,371.56C787.798,371.56 791.637,367.721 791.637,363.056" style="fill:rgb(194,194,0);fill-opacity:0;fill-rule:nonzero;stroke:black;stroke-width:0.14px;"/>
            <path d="M791.637,357.103L853.716,357.103" style="fill:none;fill-rule:nonzero;stroke:black;stroke-width:0.14px;"/>
            <path d="M853.716,357.103L853.716,363.056" style="fill:none;fill-rule:nonzero;stroke:black;stroke-width:0.14px;"/>
            <path d="M791.637,357.103L791.637,363.056" style="fill:none;fill-rule:nonzero;stroke:black;stroke-width:0.14px;"/>
            <path d="M853.716,363.056C853.716,367.721 857.555,371.56 862.22,371.56" style="fill:rgb(194,194,0);fill-opacity:0;fill-rule:nonzero;stroke:black;stroke-width:0.14px;"/>
            <path d="M862.22,371.56L930.421,371.56" style="fill:none;fill-rule:nonzero;stroke:black;stroke-width:0.14px;"/>
            <path d="M14.264,371.56L76.626,371.56" style="fill:none;fill-rule:nonzero;stroke:black;stroke-width:0.14px;"/>
            <path d="M14.264,5.04L930.421,5.04" style="fill:none;fill-rule:nonzero;stroke:black;stroke-width:0.14px;"/>
            <path d="M85.13,357.103L147.209,357.103" style="fill:none;fill-rule:nonzero;stroke:black;stroke-width:0.14px;"/>
            <path d="M14.264,5.04C9.599,5.04 5.76,8.879 5.76,13.544" style="fill:rgb(194,194,0);fill-opacity:0;fill-rule:nonzero;stroke:black;stroke-width:0.14px;"/>
            <path d="M85.13,357.103L85.13,363.056" style="fill:none;fill-rule:nonzero;stroke:black;stroke-width:0.14px;"/>
            <path d="M5.76,13.544L5.76,363.056" style="fill:none;fill-rule:nonzero;stroke:black;stroke-width:0.14px;"/>
        </g>
        <g>
            <path d="M168.008,209.985L168.008,249.67" style="fill:none;fill-rule:nonzero;stroke:black;stroke-width:0.34px;"/>
            <path d="M207.693,209.985L207.693,249.67" style="fill:none;fill-rule:nonzero;stroke:black;stroke-width:0.34px;"/>
            <path d="M168.008,209.985L207.693,209.985" style="fill:none;fill-rule:nonzero;stroke:black;stroke-width:0.34px;"/>
            <path d="M168.008,249.67L207.693,249.67" style="fill:none;fill-rule:nonzero;stroke:black;stroke-width:0.34px;"/>
            <path d="M411.008,303.67L450.693,303.67" style="fill:none;fill-rule:nonzero;stroke:black;stroke-width:0.34px;"/>
            <path d="M450.693,263.985L450.693,303.67" style="fill:none;fill-rule:nonzero;stroke:black;stroke-width:0.34px;"/>
            <path d="M411.008,263.985L411.008,303.67" style="fill:none;fill-rule:nonzero;stroke:black;stroke-width:0.34px;"/>
            <path d="M411.008,263.985L450.693,263.985" style="fill:none;fill-rule:nonzero;stroke:black;stroke-width:0.34px;"/>
            <path d="M303.008,303.67L342.693,303.67" style="fill:none;fill-rule:nonzero;stroke:black;stroke-width:0.34px;"/>
            <path d="M342.693,263.985L342.693,303.67" style="fill:none;fill-rule:nonzero;stroke:black;stroke-width:0.34px;"/>
            <path d="M303.008,263.985L342.693,263.985" style="fill:none;fill-rule:nonzero;stroke:black;stroke-width:0.34px;"/>
            <path d="M303.008,263.985L303.008,303.67" style="fill:none;fill-rule:nonzero;stroke:black;stroke-width:0.34px;"/>
            <path d="M612.693,263.985L612.693,303.67" style="fill:none;fill-rule:nonzero;stroke:black;stroke-width:0.34px;"/>
            <path d="M573.008,303.67L612.693,303.67" style="fill:none;fill-rule:nonzero;stroke:black;stroke-width:0.34px;"/>
            <path d="M573.008,263.985L573.008,303.67" style="fill:none;fill-rule:nonzero;stroke:black;stroke-width:0.34px;"/>
            <path d="M573.008,263.985L612.693,263.985" style="fill:none;fill-rule:nonzero;stroke:black;stroke-width:0.34px;"/>
            <path d="M245.633,357.67L285.318,357.67" style="fill:none;fill-rule:nonzero;stroke:black;stroke-width:0.34px;"/>
            <path d="M285.318,317.985L285.318,357.67" style="fill:none;fill-rule:nonzero;stroke:black;stroke-width:0.34px;"/>
            <path d="M245.633,317.985L245.633,357.67" style="fill:none;fill-rule:nonzero;stroke:black;stroke-width:0.34px;"/>
            <path d="M245.633,317.985L285.318,317.985" style="fill:none;fill-rule:nonzero;stroke:black;stroke-width:0.34px;"/>
            <path d="M315.693,209.985L315.693,249.67" style="fill:none;fill-rule:nonzero;stroke:black;stroke-width:0.34px;"/>
            <path d="M276.008,209.985L276.008,249.67" style="fill:none;fill-rule:nonzero;stroke:black;stroke-width:0.34px;"/>
            <path d="M276.008,249.67L315.693,249.67" style="fill:none;fill-rule:nonzero;stroke:black;stroke-width:0.34px;"/>
            <path d="M276.008,209.985L315.693,209.985" style="fill:none;fill-rule:nonzero;stroke:black;stroke-width:0.34px;"/>
            <path d="M369.693,209.985L369.693,249.67" style="fill:none;fill-rule:nonzero;stroke:black;stroke-width:0.34px;"/>
            <path d="M330.008,209.985L369.693,209.985" style="fill:none;fill-rule:nonzero;stroke:black;stroke-width:0.34px;"/>
            <path d="M330.008,249.67L369.693,249.67" style="fill:none;fill-rule:nonzero;stroke:black;stroke-width:0.34px;"/>
            <path d="M330.008,209.985L330.008,249.67" style="fill:none;fill-rule:nonzero;stroke:black;stroke-width:0.34px;"/>
            <path d="M384.008,249.67L423.693,249.67" style="fill:none;fill-rule:nonzero;stroke:black;stroke-width:0.34px;"/>
            <path d="M384.008,209.985L384.008,249.67" style="fill:none;fill-rule:nonzero;stroke:black;stroke-width:0.34px;"/>
            <path d="M384.008,209.985L423.693,209.985" style="fill:none;fill-rule:nonzero;stroke:black;stroke-width:0.34px;"/>
            <path d="M423.693,209.985L423.693,249.67" style="fill:none;fill-rule:nonzero;stroke:black;stroke-width:0.34px;"/>
            <path d="M477.693,209.985L477.693,249.67" style="fill:none;fill-rule:nonzero;stroke:black;stroke-width:0.34px;"/>
            <path d="M438.008,209.985L438.008,249.67" style="fill:none;fill-rule:nonzero;stroke:black;stroke-width:0.34px;"/>
            <path d="M438.008,209.985L477.693,209.985" style="fill:none;fill-rule:nonzero;stroke:black;stroke-width:0.34px;"/>
            <path d="M438.008,249.67L477.693,249.67" style="fill:none;fill-rule:nonzero;stroke:black;stroke-width:0.34px;"/>
            <path d="M519.008,52.52L558.693,52.52" style="fill:none;fill-rule:nonzero;stroke:black;stroke-width:0.34px;"/>
            <path d="M519.008,12.835L519.008,52.52" style="fill:none;fill-rule:nonzero;stroke:black;stroke-width:0.34px;"/>
            <path d="M519.008,12.835L558.693,12.835" style="fill:none;fill-rule:nonzero;stroke:black;stroke-width:0.34px;"/>
            <path d="M558.693,12.835L558.693,52.52" style="fill:none;fill-rule:nonzero;stroke:black;stroke-width:0.34px;"/>
            <path d="M869.193,263.985L869.193,303.67" style="fill:none;fill-rule:nonzero;stroke:black;stroke-width:0.34px;"/>
            <path d="M829.508,303.67L869.193,303.67" style="fill:none;fill-rule:nonzero;stroke:black;stroke-width:0.34px;"/>
            <path d="M829.508,263.985L869.193,263.985" style="fill:none;fill-rule:nonzero;stroke:black;stroke-width:0.34px;"/>
            <path d="M829.508,263.985L829.508,303.67" style="fill:none;fill-rule:nonzero;stroke:black;stroke-width:0.34px;"/>
            <path d="M492.008,249.67L531.693,249.67" style="fill:none;fill-rule:nonzero;stroke:black;stroke-width:0.34px;"/>
            <path d="M492.008,209.985L531.693,209.985" style="fill:none;fill-rule:nonzero;stroke:black;stroke-width:0.34px;"/>
            <path d="M531.693,209.985L531.693,249.67" style="fill:none;fill-rule:nonzero;stroke:black;stroke-width:0.34px;"/>
            <path d="M492.008,209.985L492.008,249.67" style="fill:none;fill-rule:nonzero;stroke:black;stroke-width:0.34px;"/>
            <path d="M546.008,209.985L585.693,209.985" style="fill:none;fill-rule:nonzero;stroke:black;stroke-width:0.34px;"/>
            <path d="M585.693,209.985L585.693,249.67" style="fill:none;fill-rule:nonzero;stroke:black;stroke-width:0.34px;"/>
            <path d="M546.008,209.985L546.008,249.67" style="fill:none;fill-rule:nonzero;stroke:black;stroke-width:0.34px;"/>
            <path d="M546.008,249.67L585.693,249.67" style="fill:none;fill-rule:nonzero;stroke:black;stroke-width:0.34px;"/>
            <path d="M600.008,209.985L600.008,249.67" style="fill:none;fill-rule:nonzero;stroke:black;stroke-width:0.34px;"/>
            <path d="M600.008,249.67L639.693,249.67" style="fill:none;fill-rule:nonzero;stroke:black;stroke-width:0.34px;"/>
            <path d="M639.693,209.985L639.693,249.67" style="fill:none;fill-rule:nonzero;stroke:black;stroke-width:0.34px;"/>
            <path d="M600.008,209.985L639.693,209.985" style="fill:none;fill-rule:nonzero;stroke:black;stroke-width:0.34px;"/>
            <path d="M107.258,303.67L146.943,303.67" style="fill:none;fill-rule:nonzero;stroke:black;stroke-width:0.34px;"/>
            <path d="M151.677,299.667L146.943,299.667" style="fill:none;fill-rule:nonzero;stroke:black;stroke-width:0.34px;"/>
            <path d="M146.943,263.985L146.943,268.707" style="fill:none;fill-rule:nonzero;stroke:black;stroke-width:0.34px;"/>
            <path d="M173.068,277.347L173.068,285.267" style="fill:none;fill-rule:nonzero;stroke:black;stroke-width:0.34px;"/>
            <path d="M107.258,303.67L107.258,299.667" style="fill:none;fill-rule:nonzero;stroke:black;stroke-width:0.34px;"/>
            <path d="M102.524,266.403L102.524,268.707" style="fill:none;fill-rule:nonzero;stroke:black;stroke-width:0.34px;"/>
            <path d="M102.524,266.403L83.645,266.403" style="fill:none;fill-rule:nonzero;stroke:black;stroke-width:0.34px;"/>
            <path d="M97.405,301.251L97.405,304.563" style="fill:none;fill-rule:nonzero;stroke:black;stroke-width:0.34px;"/>
            <path d="M170.556,285.267L170.556,301.251" style="fill:none;fill-rule:nonzero;stroke:black;stroke-width:0.34px;"/>
            <path d="M170.556,285.267L173.068,285.267" style="fill:none;fill-rule:nonzero;stroke:black;stroke-width:0.34px;"/>
            <path d="M88.765,301.251L88.765,304.563" style="fill:none;fill-rule:nonzero;stroke:black;stroke-width:0.34px;"/>
            <path d="M165.436,301.251L170.556,301.251" style="fill:none;fill-rule:nonzero;stroke:black;stroke-width:0.34px;"/>
            <path d="M156.796,301.251L156.796,304.563" style="fill:none;fill-rule:nonzero;stroke:black;stroke-width:0.34px;"/>
            <path d="M102.524,299.667L107.258,299.667" style="fill:none;fill-rule:nonzero;stroke:black;stroke-width:0.34px;"/>
            <path d="M83.645,277.347L81.133,277.347" style="fill:none;fill-rule:nonzero;stroke:black;stroke-width:0.34px;"/>
            <path d="M151.677,266.403L151.677,268.707" style="fill:none;fill-rule:nonzero;stroke:black;stroke-width:0.34px;"/>
            <path d="M156.796,304.563L165.436,304.563" style="fill:none;fill-rule:nonzero;stroke:black;stroke-width:0.34px;"/>
            <path d="M97.405,304.563L88.765,304.563" style="fill:none;fill-rule:nonzero;stroke:black;stroke-width:0.34px;"/>
            <path d="M83.645,266.403L83.645,277.347" style="fill:none;fill-rule:nonzero;stroke:black;stroke-width:0.34px;"/>
            <path d="M83.645,285.267L83.645,301.251" style="fill:none;fill-rule:nonzero;stroke:black;stroke-width:0.34px;"/>
            <path d="M170.556,277.347L173.068,277.347" style="fill:none;fill-rule:nonzero;stroke:black;stroke-width:0.34px;"/>
            <path d="M107.258,263.985L146.943,263.985" style="fill:none;fill-rule:nonzero;stroke:black;stroke-width:0.34px;"/>
            <path d="M83.645,285.267L81.133,285.267" style="fill:none;fill-rule:nonzero;stroke:black;stroke-width:0.34px;"/>
            <path d="M88.765,301.251L83.645,301.251" style="fill:none;fill-rule:nonzero;stroke:black;stroke-width:0.34px;"/>
            <path d="M151.677,266.403L170.556,266.403" style="fill:none;fill-rule:nonzero;stroke:black;stroke-width:0.34px;"/>
            <path d="M102.524,301.251L97.405,301.251" style="fill:none;fill-rule:nonzero;stroke:black;stroke-width:0.34px;"/>
            <path d="M151.677,301.251L156.796,301.251" style="fill:none;fill-rule:nonzero;stroke:black;stroke-width:0.34px;"/>
            <path d="M102.524,301.251L102.524,299.667" style="fill:none;fill-rule:nonzero;stroke:black;stroke-width:0.34px;"/>
            <path d="M107.258,263.985L107.258,268.707" style="fill:none;fill-rule:nonzero;stroke:black;stroke-width:0.34px;"/>
            <path d="M151.677,268.707L146.943,268.707" style="fill:none;fill-rule:nonzero;stroke:black;stroke-width:0.34px;"/>
            <path d="M81.133,277.347L81.133,285.267" style="fill:none;fill-rule:nonzero;stroke:black;stroke-width:0.34px;"/>
            <path d="M146.943,303.67L146.943,299.667" style="fill:none;fill-rule:nonzero;stroke:black;stroke-width:0.34px;"/>
            <path d="M170.556,266.403L170.556,277.347" style="fill:none;fill-rule:nonzero;stroke:black;stroke-width:0.34px;"/>
            <path d="M151.677,301.251L151.677,299.667" style="fill:none;fill-rule:nonzero;stroke:black;stroke-width:0.34px;"/>
            <path d="M102.524,268.707L107.258,268.707" style="fill:none;fill-rule:nonzero;stroke:black;stroke-width:0.34px;"/>
            <path d="M165.436,301.251L165.436,304.563" style="fill:none;fill-rule:nonzero;stroke:black;stroke-width:0.34px;"/>
            <path d="M519.008,263.985L558.693,263.985" style="fill:none;fill-rule:nonzero;stroke:black;stroke-width:0.34px;"/>
            <path d="M519.008,263.985L519.008,303.67" style="fill:none;fill-rule:nonzero;stroke:black;stroke-width:0.34px;"/>
            <path d="M519.008,303.67L558.693,303.67" style="fill:none;fill-rule:nonzero;stroke:black;stroke-width:0.34px;"/>
            <path d="M558.693,263.985L558.693,303.67" style="fill:none;fill-rule:nonzero;stroke:black;stroke-width:0.34px;"/>
            <path d="M465.008,263.985L504.693,263.985" style="fill:none;fill-rule:nonzero;stroke:black;stroke-width:0.34px;"/>
            <path d="M504.693,263.985L504.693,303.67" style="fill:none;fill-rule:nonzero;stroke:black;stroke-width:0.34px;"/>
            <path d="M465.008,263.985L465.008,303.67" style="fill:none;fill-rule:nonzero;stroke:black;stroke-width:0.34px;"/>
            <path d="M465.008,303.67L504.693,303.67" style="fill:none;fill-rule:nonzero;stroke:black;stroke-width:0.34px;"/>
            <path d="M762.043,12.835L801.729,12.835" style="fill:none;fill-rule:nonzero;stroke:black;stroke-width:0.34px;"/>
            <path d="M762.043,12.835L762.043,52.52" style="fill:none;fill-rule:nonzero;stroke:black;stroke-width:0.34px;"/>
            <path d="M801.729,12.835L801.729,52.52" style="fill:none;fill-rule:nonzero;stroke:black;stroke-width:0.34px;"/>
            <path d="M762.043,52.52L801.729,52.52" style="fill:none;fill-rule:nonzero;stroke:black;stroke-width:0.34px;"/>
            <path d="M627.008,263.985L627.008,303.67" style="fill:none;fill-rule:nonzero;stroke:black;stroke-width:0.34px;"/>
            <path d="M627.008,263.985L666.693,263.985" style="fill:none;fill-rule:nonzero;stroke:black;stroke-width:0.34px;"/>
            <path d="M627.008,303.67L666.693,303.67" style="fill:none;fill-rule:nonzero;stroke:black;stroke-width:0.34px;"/>
            <path d="M666.693,263.985L666.693,303.67" style="fill:none;fill-rule:nonzero;stroke:black;stroke-width:0.34px;"/>
            <path d="M708.008,209.985L747.693,209.985" style="fill:none;fill-rule:nonzero;stroke:black;stroke-width:0.34px;"/>
            <path d="M708.008,249.67L747.693,249.67" style="fill:none;fill-rule:nonzero;stroke:black;stroke-width:0.34px;"/>
            <path d="M747.693,209.985L747.693,249.67" style="fill:none;fill-rule:nonzero;stroke:black;stroke-width:0.34px;"/>
            <path d="M708.008,209.985L708.008,249.67" style="fill:none;fill-rule:nonzero;stroke:black;stroke-width:0.34px;"/>
            <path d="M755.258,263.985L794.943,263.985" style="fill:none;fill-rule:nonzero;stroke:black;stroke-width:0.34px;"/>
            <path d="M755.258,303.67L794.943,303.67" style="fill:none;fill-rule:nonzero;stroke:black;stroke-width:0.34px;"/>
            <path d="M794.943,263.985L794.943,303.67" style="fill:none;fill-rule:nonzero;stroke:black;stroke-width:0.34px;"/>
            <path d="M755.258,263.985L755.258,303.67" style="fill:none;fill-rule:nonzero;stroke:black;stroke-width:0.34px;"/>
            <path d="M222.008,209.985L261.693,209.985" style="fill:none;fill-rule:nonzero;stroke:black;stroke-width:0.34px;"/>
            <path d="M261.693,209.985L261.693,249.67" style="fill:none;fill-rule:nonzero;stroke:black;stroke-width:0.34px;"/>
            <path d="M222.008,209.985L222.008,249.67" style="fill:none;fill-rule:nonzero;stroke:black;stroke-width:0.34px;"/>
            <path d="M222.008,249.67L261.693,249.67" style="fill:none;fill-rule:nonzero;stroke:black;stroke-width:0.34px;"/>
            <path d="M681.008,12.835L681.008,52.52" style="fill:none;fill-rule:nonzero;stroke:black;stroke-width:0.34px;"/>
            <path d="M681.008,12.835L720.693,12.835" style="fill:none;fill-rule:nonzero;stroke:black;stroke-width:0.34px;"/>
            <path d="M720.693,12.835L720.693,52.52" style="fill:none;fill-rule:nonzero;stroke:black;stroke-width:0.34px;"/>
            <path d="M681.008,52.52L720.693,52.52" style="fill:none;fill-rule:nonzero;stroke:black;stroke-width:0.34px;"/>
            <path d="M654.008,209.985L693.693,209.985" style="fill:none;fill-rule:nonzero;stroke:black;stroke-width:0.34px;"/>
            <path d="M693.693,209.985L693.693,249.67" style="fill:none;fill-rule:nonzero;stroke:black;stroke-width:0.34px;"/>
            <path d="M654.008,249.67L693.693,249.67" style="fill:none;fill-rule:nonzero;stroke:black;stroke-width:0.34px;"/>
            <path d="M654.008,209.985L654.008,249.67" style="fill:none;fill-rule:nonzero;stroke:black;stroke-width:0.34px;"/>
            <path d="M681.008,303.67L720.693,303.67" style="fill:none;fill-rule:nonzero;stroke:black;stroke-width:0.34px;"/>
            <path d="M681.008,263.985L681.008,303.67" style="fill:none;fill-rule:nonzero;stroke:black;stroke-width:0.34px;"/>
            <path d="M720.693,263.985L720.693,303.67" style="fill:none;fill-rule:nonzero;stroke:black;stroke-width:0.34px;"/>
            <path d="M681.008,263.985L720.693,263.985" style="fill:none;fill-rule:nonzero;stroke:black;stroke-width:0.34px;"/>
            <path d="M339.058,320.403L339.058,331.449" style="fill:none;fill-rule:nonzero;stroke:black;stroke-width:0.34px;"/>
            <path d="M603.643,331.449L491.193,331.449" style="fill:none;fill-rule:nonzero;stroke:black;stroke-width:0.34px;"/>
            <path d="M603.643,355.251L603.643,344.205" style="fill:none;fill-rule:nonzero;stroke:black;stroke-width:0.34px;"/>
            <path d="M622.522,339.267L625.035,339.267" style="fill:none;fill-rule:nonzero;stroke:black;stroke-width:0.34px;"/>
            <path d="M339.058,320.403L320.179,320.403" style="fill:none;fill-rule:nonzero;stroke:black;stroke-width:0.34px;"/>
            <path d="M317.666,331.347L317.666,339.267" style="fill:none;fill-rule:nonzero;stroke:black;stroke-width:0.34px;"/>
            <path d="M603.643,320.403L603.643,331.449" style="fill:none;fill-rule:nonzero;stroke:black;stroke-width:0.34px;"/>
            <path d="M451.508,317.985L491.193,317.985" style="fill:none;fill-rule:nonzero;stroke:black;stroke-width:0.34px;"/>
            <path d="M603.643,344.205L491.193,344.205" style="fill:none;fill-rule:nonzero;stroke:black;stroke-width:0.34px;"/>
            <path d="M333.938,358.563L325.298,358.563" style="fill:none;fill-rule:nonzero;stroke:black;stroke-width:0.34px;"/>
            <path d="M608.763,358.563L617.403,358.563" style="fill:none;fill-rule:nonzero;stroke:black;stroke-width:0.34px;"/>
            <path d="M622.522,339.267L622.522,355.251" style="fill:none;fill-rule:nonzero;stroke:black;stroke-width:0.34px;"/>
            <path d="M451.508,357.67L451.508,344.205" style="fill:none;fill-rule:nonzero;stroke:black;stroke-width:0.34px;"/>
            <path d="M625.035,331.347L625.035,339.267" style="fill:none;fill-rule:nonzero;stroke:black;stroke-width:0.34px;"/>
            <path d="M622.522,331.347L625.035,331.347" style="fill:none;fill-rule:nonzero;stroke:black;stroke-width:0.34px;"/>
            <path d="M451.508,357.67L491.193,357.67" style="fill:none;fill-rule:nonzero;stroke:black;stroke-width:0.34px;"/>
            <path d="M617.403,355.251L622.522,355.251" style="fill:none;fill-rule:nonzero;stroke:black;stroke-width:0.34px;"/>
            <path d="M339.058,355.251L339.058,344.205" style="fill:none;fill-rule:nonzero;stroke:black;stroke-width:0.34px;"/>
            <path d="M325.298,355.251L320.179,355.251" style="fill:none;fill-rule:nonzero;stroke:black;stroke-width:0.34px;"/>
            <path d="M325.298,355.251L325.298,358.563" style="fill:none;fill-rule:nonzero;stroke:black;stroke-width:0.34px;"/>
            <path d="M320.179,339.267L320.179,355.251" style="fill:none;fill-rule:nonzero;stroke:black;stroke-width:0.34px;"/>
            <path d="M320.179,320.403L320.179,331.347" style="fill:none;fill-rule:nonzero;stroke:black;stroke-width:0.34px;"/>
            <path d="M603.643,355.251L608.763,355.251" style="fill:none;fill-rule:nonzero;stroke:black;stroke-width:0.34px;"/>
            <path d="M320.179,331.347L317.666,331.347" style="fill:none;fill-rule:nonzero;stroke:black;stroke-width:0.34px;"/>
            <path d="M339.058,344.205L451.508,344.205" style="fill:none;fill-rule:nonzero;stroke:black;stroke-width:0.34px;"/>
            <path d="M603.643,320.403L622.522,320.403" style="fill:none;fill-rule:nonzero;stroke:black;stroke-width:0.34px;"/>
            <path d="M617.403,355.251L617.403,358.563" style="fill:none;fill-rule:nonzero;stroke:black;stroke-width:0.34px;"/>
            <path d="M339.058,355.251L333.938,355.251" style="fill:none;fill-rule:nonzero;stroke:black;stroke-width:0.34px;"/>
            <path d="M622.522,320.403L622.522,331.347" style="fill:none;fill-rule:nonzero;stroke:black;stroke-width:0.34px;"/>
            <path d="M608.763,355.251L608.763,358.563" style="fill:none;fill-rule:nonzero;stroke:black;stroke-width:0.34px;"/>
            <path d="M451.508,317.985L451.508,331.449" style="fill:none;fill-rule:nonzero;stroke:black;stroke-width:0.34px;"/>
            <path d="M491.193,317.985L491.193,331.449" style="fill:none;fill-rule:nonzero;stroke:black;stroke-width:0.34px;"/>
            <path d="M320.179,339.267L317.666,339.267" style="fill:none;fill-rule:nonzero;stroke:black;stroke-width:0.34px;"/>
            <path d="M333.938,355.251L333.938,358.563" style="fill:none;fill-rule:nonzero;stroke:black;stroke-width:0.34px;"/>
            <path d="M339.058,331.449L451.508,331.449" style="fill:none;fill-rule:nonzero;stroke:black;stroke-width:0.34px;"/>
            <path d="M491.193,357.67L491.193,344.205" style="fill:none;fill-rule:nonzero;stroke:black;stroke-width:0.34px;"/>
            <path d="M600.008,12.835L600.008,52.52" style="fill:none;fill-rule:nonzero;stroke:black;stroke-width:0.34px;"/>
            <path d="M639.693,12.835L639.693,52.52" style="fill:none;fill-rule:nonzero;stroke:black;stroke-width:0.34px;"/>
            <path d="M600.008,12.835L639.693,12.835" style="fill:none;fill-rule:nonzero;stroke:black;stroke-width:0.34px;"/>
            <path d="M600.008,52.52L639.693,52.52" style="fill:none;fill-rule:nonzero;stroke:black;stroke-width:0.34px;"/>
            <path d="M396.693,263.985L396.693,303.67" style="fill:none;fill-rule:nonzero;stroke:black;stroke-width:0.34px;"/>
            <path d="M357.008,263.985L357.008,303.67" style="fill:none;fill-rule:nonzero;stroke:black;stroke-width:0.34px;"/>
            <path d="M357.008,303.67L396.693,303.67" style="fill:none;fill-rule:nonzero;stroke:black;stroke-width:0.34px;"/>
            <path d="M357.008,263.985L396.693,263.985" style="fill:none;fill-rule:nonzero;stroke:black;stroke-width:0.34px;"/>
            <path d="M288.693,263.985L288.693,303.67" style="fill:none;fill-rule:nonzero;stroke:black;stroke-width:0.34px;"/>
            <path d="M249.008,263.985L288.693,263.985" style="fill:none;fill-rule:nonzero;stroke:black;stroke-width:0.34px;"/>
            <path d="M249.008,303.67L288.693,303.67" style="fill:none;fill-rule:nonzero;stroke:black;stroke-width:0.34px;"/>
            <path d="M249.008,263.985L249.008,303.67" style="fill:none;fill-rule:nonzero;stroke:black;stroke-width:0.34px;"/>
            <path d="M195.008,303.67L234.693,303.67" style="fill:none;fill-rule:nonzero;stroke:black;stroke-width:0.34px;"/>
            <path d="M195.008,263.985L234.693,263.985" style="fill:none;fill-rule:nonzero;stroke:black;stroke-width:0.34px;"/>
            <path d="M234.693,263.985L234.693,303.67" style="fill:none;fill-rule:nonzero;stroke:black;stroke-width:0.34px;"/>
            <path d="M195.008,263.985L195.008,303.67" style="fill:none;fill-rule:nonzero;stroke:black;stroke-width:0.34px;"/>
            <path d="M248.193,155.985L248.193,195.67" style="fill:none;fill-rule:nonzero;stroke:black;stroke-width:0.34px;"/>
            <path d="M208.508,195.67L248.193,195.67" style="fill:none;fill-rule:nonzero;stroke:black;stroke-width:0.34px;"/>
            <path d="M208.508,155.985L248.193,155.985" style="fill:none;fill-rule:nonzero;stroke:black;stroke-width:0.34px;"/>
            <path d="M208.508,155.985L208.508,195.67" style="fill:none;fill-rule:nonzero;stroke:black;stroke-width:0.34px;"/>
            <path d="M464.193,155.985L464.193,195.67" style="fill:none;fill-rule:nonzero;stroke:black;stroke-width:0.34px;"/>
            <path d="M424.508,155.985L424.508,195.67" style="fill:none;fill-rule:nonzero;stroke:black;stroke-width:0.34px;"/>
            <path d="M424.508,195.67L464.193,195.67" style="fill:none;fill-rule:nonzero;stroke:black;stroke-width:0.34px;"/>
            <path d="M424.508,155.985L464.193,155.985" style="fill:none;fill-rule:nonzero;stroke:black;stroke-width:0.34px;"/>
            <path d="M370.508,195.67L410.193,195.67" style="fill:none;fill-rule:nonzero;stroke:black;stroke-width:0.34px;"/>
            <path d="M370.508,155.985L370.508,195.67" style="fill:none;fill-rule:nonzero;stroke:black;stroke-width:0.34px;"/>
            <path d="M410.193,155.985L410.193,195.67" style="fill:none;fill-rule:nonzero;stroke:black;stroke-width:0.34px;"/>
            <path d="M370.508,155.985L410.193,155.985" style="fill:none;fill-rule:nonzero;stroke:black;stroke-width:0.34px;"/>
            <path d="M478.508,155.985L518.193,155.985" style="fill:none;fill-rule:nonzero;stroke:black;stroke-width:0.34px;"/>
            <path d="M478.508,195.67L518.193,195.67" style="fill:none;fill-rule:nonzero;stroke:black;stroke-width:0.34px;"/>
            <path d="M518.193,155.985L518.193,195.67" style="fill:none;fill-rule:nonzero;stroke:black;stroke-width:0.34px;"/>
            <path d="M478.508,155.985L478.508,195.67" style="fill:none;fill-rule:nonzero;stroke:black;stroke-width:0.34px;"/>
            <path d="M640.508,195.67L680.193,195.67" style="fill:none;fill-rule:nonzero;stroke:black;stroke-width:0.34px;"/>
            <path d="M680.193,155.985L680.193,195.67" style="fill:none;fill-rule:nonzero;stroke:black;stroke-width:0.34px;"/>
            <path d="M640.508,155.985L640.508,195.67" style="fill:none;fill-rule:nonzero;stroke:black;stroke-width:0.34px;"/>
            <path d="M640.508,155.985L680.193,155.985" style="fill:none;fill-rule:nonzero;stroke:black;stroke-width:0.34px;"/>
            <path d="M154.508,195.67L194.193,195.67" style="fill:none;fill-rule:nonzero;stroke:black;stroke-width:0.34px;"/>
            <path d="M194.193,155.985L194.193,195.67" style="fill:none;fill-rule:nonzero;stroke:black;stroke-width:0.34px;"/>
            <path d="M154.508,155.985L154.508,195.67" style="fill:none;fill-rule:nonzero;stroke:black;stroke-width:0.34px;"/>
            <path d="M154.508,155.985L194.193,155.985" style="fill:none;fill-rule:nonzero;stroke:black;stroke-width:0.34px;"/>
            <path d="M532.508,155.985L532.508,195.67" style="fill:none;fill-rule:nonzero;stroke:black;stroke-width:0.34px;"/>
            <path d="M572.193,155.985L572.193,195.67" style="fill:none;fill-rule:nonzero;stroke:black;stroke-width:0.34px;"/>
            <path d="M532.508,195.67L572.193,195.67" style="fill:none;fill-rule:nonzero;stroke:black;stroke-width:0.34px;"/>
            <path d="M532.508,155.985L572.193,155.985" style="fill:none;fill-rule:nonzero;stroke:black;stroke-width:0.34px;"/>
            <path d="M788.193,155.985L788.193,195.67" style="fill:none;fill-rule:nonzero;stroke:black;stroke-width:0.34px;"/>
            <path d="M748.508,195.67L788.193,195.67" style="fill:none;fill-rule:nonzero;stroke:black;stroke-width:0.34px;"/>
            <path d="M748.508,155.985L748.508,195.67" style="fill:none;fill-rule:nonzero;stroke:black;stroke-width:0.34px;"/>
            <path d="M748.508,155.985L788.193,155.985" style="fill:none;fill-rule:nonzero;stroke:black;stroke-width:0.34px;"/>
            <path d="M734.193,155.985L734.193,195.67" style="fill:none;fill-rule:nonzero;stroke:black;stroke-width:0.34px;"/>
            <path d="M694.508,155.985L694.508,195.67" style="fill:none;fill-rule:nonzero;stroke:black;stroke-width:0.34px;"/>
            <path d="M694.508,155.985L734.193,155.985" style="fill:none;fill-rule:nonzero;stroke:black;stroke-width:0.34px;"/>
            <path d="M694.508,195.67L734.193,195.67" style="fill:none;fill-rule:nonzero;stroke:black;stroke-width:0.34px;"/>
            <path d="M316.508,155.985L316.508,195.67" style="fill:none;fill-rule:nonzero;stroke:black;stroke-width:0.34px;"/>
            <path d="M316.508,155.985L356.193,155.985" style="fill:none;fill-rule:nonzero;stroke:black;stroke-width:0.34px;"/>
            <path d="M356.193,155.985L356.193,195.67" style="fill:none;fill-rule:nonzero;stroke:black;stroke-width:0.34px;"/>
            <path d="M316.508,195.67L356.193,195.67" style="fill:none;fill-rule:nonzero;stroke:black;stroke-width:0.34px;"/>
            <path d="M262.508,155.985L302.193,155.985" style="fill:none;fill-rule:nonzero;stroke:black;stroke-width:0.34px;"/>
            <path d="M302.193,155.985L302.193,195.67" style="fill:none;fill-rule:nonzero;stroke:black;stroke-width:0.34px;"/>
            <path d="M262.508,155.985L262.508,195.67" style="fill:none;fill-rule:nonzero;stroke:black;stroke-width:0.34px;"/>
            <path d="M262.508,195.67L302.193,195.67" style="fill:none;fill-rule:nonzero;stroke:black;stroke-width:0.34px;"/>
            <path d="M626.193,155.985L626.193,195.67" style="fill:none;fill-rule:nonzero;stroke:black;stroke-width:0.34px;"/>
            <path d="M586.508,155.985L586.508,195.67" style="fill:none;fill-rule:nonzero;stroke:black;stroke-width:0.34px;"/>
            <path d="M586.508,155.985L626.193,155.985" style="fill:none;fill-rule:nonzero;stroke:black;stroke-width:0.34px;"/>
            <path d="M586.508,195.67L626.193,195.67" style="fill:none;fill-rule:nonzero;stroke:black;stroke-width:0.34px;"/>
            <path d="M73.508,101.985L73.508,141.67" style="fill:none;fill-rule:nonzero;stroke:black;stroke-width:0.34px;"/>
            <path d="M73.508,101.985L113.193,101.985" style="fill:none;fill-rule:nonzero;stroke:black;stroke-width:0.34px;"/>
            <path d="M113.193,101.985L113.193,141.67" style="fill:none;fill-rule:nonzero;stroke:black;stroke-width:0.34px;"/>
            <path d="M73.508,141.67L113.193,141.67" style="fill:none;fill-rule:nonzero;stroke:black;stroke-width:0.34px;"/>
            <path d="M545.193,101.985L545.193,141.67" style="fill:none;fill-rule:nonzero;stroke:black;stroke-width:0.34px;"/>
            <path d="M505.508,141.67L545.193,141.67" style="fill:none;fill-rule:nonzero;stroke:black;stroke-width:0.34px;"/>
            <path d="M505.508,101.985L505.508,141.67" style="fill:none;fill-rule:nonzero;stroke:black;stroke-width:0.34px;"/>
            <path d="M505.508,101.985L545.193,101.985" style="fill:none;fill-rule:nonzero;stroke:black;stroke-width:0.34px;"/>
            <path d="M437.193,101.985L437.193,141.67" style="fill:none;fill-rule:nonzero;stroke:black;stroke-width:0.34px;"/>
            <path d="M397.508,101.985L397.508,141.67" style="fill:none;fill-rule:nonzero;stroke:black;stroke-width:0.34px;"/>
            <path d="M397.508,141.67L437.193,141.67" style="fill:none;fill-rule:nonzero;stroke:black;stroke-width:0.34px;"/>
            <path d="M397.508,101.985L437.193,101.985" style="fill:none;fill-rule:nonzero;stroke:black;stroke-width:0.34px;"/>
            <path d="M559.508,101.985L599.193,101.985" style="fill:none;fill-rule:nonzero;stroke:black;stroke-width:0.34px;"/>
            <path d="M599.193,101.985L599.193,141.67" style="fill:none;fill-rule:nonzero;stroke:black;stroke-width:0.34px;"/>
            <path d="M559.508,141.67L599.193,141.67" style="fill:none;fill-rule:nonzero;stroke:black;stroke-width:0.34px;"/>
            <path d="M559.508,101.985L559.508,141.67" style="fill:none;fill-rule:nonzero;stroke:black;stroke-width:0.34px;"/>
            <path d="M613.508,101.985L613.508,141.67" style="fill:none;fill-rule:nonzero;stroke:black;stroke-width:0.34px;"/>
            <path d="M613.508,141.67L653.193,141.67" style="fill:none;fill-rule:nonzero;stroke:black;stroke-width:0.34px;"/>
            <path d="M613.508,101.985L653.193,101.985" style="fill:none;fill-rule:nonzero;stroke:black;stroke-width:0.34px;"/>
            <path d="M653.193,101.985L653.193,141.67" style="fill:none;fill-rule:nonzero;stroke:black;stroke-width:0.34px;"/>
            <path d="M343.508,101.985L383.193,101.985" style="fill:none;fill-rule:nonzero;stroke:black;stroke-width:0.34px;"/>
            <path d="M343.508,101.985L343.508,141.67" style="fill:none;fill-rule:nonzero;stroke:black;stroke-width:0.34px;"/>
            <path d="M383.193,101.985L383.193,141.67" style="fill:none;fill-rule:nonzero;stroke:black;stroke-width:0.34px;"/>
            <path d="M343.508,141.67L383.193,141.67" style="fill:none;fill-rule:nonzero;stroke:black;stroke-width:0.34px;"/>
            <path d="M235.508,141.67L275.193,141.67" style="fill:none;fill-rule:nonzero;stroke:black;stroke-width:0.34px;"/>
            <path d="M235.508,101.985L275.193,101.985" style="fill:none;fill-rule:nonzero;stroke:black;stroke-width:0.34px;"/>
            <path d="M235.508,101.985L235.508,141.67" style="fill:none;fill-rule:nonzero;stroke:black;stroke-width:0.34px;"/>
            <path d="M275.193,101.985L275.193,141.67" style="fill:none;fill-rule:nonzero;stroke:black;stroke-width:0.34px;"/>
            <path d="M721.508,101.985L761.193,101.985" style="fill:none;fill-rule:nonzero;stroke:black;stroke-width:0.34px;"/>
            <path d="M721.508,141.67L761.193,141.67" style="fill:none;fill-rule:nonzero;stroke:black;stroke-width:0.34px;"/>
            <path d="M761.193,101.985L761.193,141.67" style="fill:none;fill-rule:nonzero;stroke:black;stroke-width:0.34px;"/>
            <path d="M721.508,101.985L721.508,141.67" style="fill:none;fill-rule:nonzero;stroke:black;stroke-width:0.34px;"/>
            <path d="M289.508,101.985L289.508,141.67" style="fill:none;fill-rule:nonzero;stroke:black;stroke-width:0.34px;"/>
            <path d="M289.508,141.67L329.193,141.67" style="fill:none;fill-rule:nonzero;stroke:black;stroke-width:0.34px;"/>
            <path d="M289.508,101.985L329.193,101.985" style="fill:none;fill-rule:nonzero;stroke:black;stroke-width:0.34px;"/>
            <path d="M329.193,101.985L329.193,141.67" style="fill:none;fill-rule:nonzero;stroke:black;stroke-width:0.34px;"/>
            <path d="M127.508,101.985L127.508,141.67" style="fill:none;fill-rule:nonzero;stroke:black;stroke-width:0.34px;"/>
            <path d="M127.508,141.67L167.193,141.67" style="fill:none;fill-rule:nonzero;stroke:black;stroke-width:0.34px;"/>
            <path d="M167.193,101.985L167.193,141.67" style="fill:none;fill-rule:nonzero;stroke:black;stroke-width:0.34px;"/>
            <path d="M127.508,101.985L167.193,101.985" style="fill:none;fill-rule:nonzero;stroke:black;stroke-width:0.34px;"/>
            <path d="M707.193,101.985L707.193,141.67" style="fill:none;fill-rule:nonzero;stroke:black;stroke-width:0.34px;"/>
            <path d="M667.508,141.67L707.193,141.67" style="fill:none;fill-rule:nonzero;stroke:black;stroke-width:0.34px;"/>
            <path d="M667.508,101.985L707.193,101.985" style="fill:none;fill-rule:nonzero;stroke:black;stroke-width:0.34px;"/>
            <path d="M667.508,101.985L667.508,141.67" style="fill:none;fill-rule:nonzero;stroke:black;stroke-width:0.34px;"/>
            <path d="M181.508,141.67L221.193,141.67" style="fill:none;fill-rule:nonzero;stroke:black;stroke-width:0.34px;"/>
            <path d="M181.508,101.985L221.193,101.985" style="fill:none;fill-rule:nonzero;stroke:black;stroke-width:0.34px;"/>
            <path d="M221.193,101.985L221.193,141.67" style="fill:none;fill-rule:nonzero;stroke:black;stroke-width:0.34px;"/>
            <path d="M181.508,101.985L181.508,141.67" style="fill:none;fill-rule:nonzero;stroke:black;stroke-width:0.34px;"/>
            <path d="M451.508,101.985L491.193,101.985" style="fill:none;fill-rule:nonzero;stroke:black;stroke-width:0.34px;"/>
            <path d="M451.508,141.67L491.193,141.67" style="fill:none;fill-rule:nonzero;stroke:black;stroke-width:0.34px;"/>
            <path d="M451.508,101.985L451.508,141.67" style="fill:none;fill-rule:nonzero;stroke:black;stroke-width:0.34px;"/>
            <path d="M491.193,101.985L491.193,141.67" style="fill:none;fill-rule:nonzero;stroke:black;stroke-width:0.34px;"/>
            <path d="M87.008,155.985L87.008,195.67" style="fill:none;fill-rule:nonzero;stroke:black;stroke-width:0.34px;"/>
            <path d="M126.693,155.985L126.693,195.67" style="fill:none;fill-rule:nonzero;stroke:black;stroke-width:0.34px;"/>
            <path d="M87.008,195.67L126.693,195.67" style="fill:none;fill-rule:nonzero;stroke:black;stroke-width:0.34px;"/>
            <path d="M87.008,155.985L126.693,155.985" style="fill:none;fill-rule:nonzero;stroke:black;stroke-width:0.34px;"/>
            <path d="M801.693,209.985L801.693,249.67" style="fill:none;fill-rule:nonzero;stroke:black;stroke-width:0.34px;"/>
            <path d="M762.008,209.985L762.008,249.67" style="fill:none;fill-rule:nonzero;stroke:black;stroke-width:0.34px;"/>
            <path d="M762.008,249.67L801.693,249.67" style="fill:none;fill-rule:nonzero;stroke:black;stroke-width:0.34px;"/>
            <path d="M762.008,209.985L801.693,209.985" style="fill:none;fill-rule:nonzero;stroke:black;stroke-width:0.34px;"/>
            <path d="M195.008,12.835L195.008,52.52" style="fill:none;fill-rule:nonzero;stroke:black;stroke-width:0.34px;"/>
            <path d="M234.693,12.835L234.693,52.52" style="fill:none;fill-rule:nonzero;stroke:black;stroke-width:0.34px;"/>
            <path d="M195.008,52.52L234.693,52.52" style="fill:none;fill-rule:nonzero;stroke:black;stroke-width:0.34px;"/>
            <path d="M195.008,12.835L234.693,12.835" style="fill:none;fill-rule:nonzero;stroke:black;stroke-width:0.34px;"/>
            <path d="M276.008,52.52L315.693,52.52" style="fill:none;fill-rule:nonzero;stroke:black;stroke-width:0.34px;"/>
            <path d="M315.693,12.835L315.693,52.52" style="fill:none;fill-rule:nonzero;stroke:black;stroke-width:0.34px;"/>
            <path d="M276.008,12.835L276.008,52.52" style="fill:none;fill-rule:nonzero;stroke:black;stroke-width:0.34px;"/>
            <path d="M276.008,12.835L315.693,12.835" style="fill:none;fill-rule:nonzero;stroke:black;stroke-width:0.34px;"/>
            <path d="M357.008,52.52L396.693,52.52" style="fill:none;fill-rule:nonzero;stroke:black;stroke-width:0.34px;"/>
            <path d="M396.693,12.835L396.693,52.52" style="fill:none;fill-rule:nonzero;stroke:black;stroke-width:0.34px;"/>
            <path d="M357.008,12.835L396.693,12.835" style="fill:none;fill-rule:nonzero;stroke:black;stroke-width:0.34px;"/>
            <path d="M357.008,12.835L357.008,52.52" style="fill:none;fill-rule:nonzero;stroke:black;stroke-width:0.34px;"/>
            <path d="M438.008,12.835L438.008,52.52" style="fill:none;fill-rule:nonzero;stroke:black;stroke-width:0.34px;"/>
            <path d="M438.008,12.835L477.693,12.835" style="fill:none;fill-rule:nonzero;stroke:black;stroke-width:0.34px;"/>
            <path d="M477.693,12.835L477.693,52.52" style="fill:none;fill-rule:nonzero;stroke:black;stroke-width:0.34px;"/>
            <path d="M438.008,52.52L477.693,52.52" style="fill:none;fill-rule:nonzero;stroke:black;stroke-width:0.34px;"/>
            <path d="M843.008,52.52L882.693,52.52" style="fill:none;fill-rule:nonzero;stroke:black;stroke-width:0.34px;"/>
            <path d="M843.008,12.835L843.008,52.52" style="fill:none;fill-rule:nonzero;stroke:black;stroke-width:0.34px;"/>
            <path d="M882.693,12.835L882.693,52.52" style="fill:none;fill-rule:nonzero;stroke:black;stroke-width:0.34px;"/>
            <path d="M843.008,12.835L882.693,12.835" style="fill:none;fill-rule:nonzero;stroke:black;stroke-width:0.34px;"/>
            <path d="M784.015,141.67L784.015,142.563" style="fill:none;fill-rule:nonzero;stroke:black;stroke-width:0.34px;"/>
            <path d="M775.522,101.985L775.522,141.67" style="fill:none;fill-rule:nonzero;stroke:black;stroke-width:0.34px;"/>
            <path d="M792.655,141.67L792.655,142.563" style="fill:none;fill-rule:nonzero;stroke:black;stroke-width:0.34px;"/>
            <path d="M775.522,141.67L784.015,141.67" style="fill:none;fill-rule:nonzero;stroke:black;stroke-width:0.34px;"/>
            <path d="M852.046,141.67L852.046,142.563" style="fill:none;fill-rule:nonzero;stroke:black;stroke-width:0.34px;"/>
            <path d="M860.686,141.67L869.179,141.67" style="fill:none;fill-rule:nonzero;stroke:black;stroke-width:0.34px;"/>
            <path d="M792.655,142.563L784.015,142.563" style="fill:none;fill-rule:nonzero;stroke:black;stroke-width:0.34px;"/>
            <path d="M860.686,141.67L860.686,142.563" style="fill:none;fill-rule:nonzero;stroke:black;stroke-width:0.34px;"/>
            <path d="M852.046,142.563L860.686,142.563" style="fill:none;fill-rule:nonzero;stroke:black;stroke-width:0.34px;"/>
            <path d="M792.655,141.67L852.046,141.67" style="fill:none;fill-rule:nonzero;stroke:black;stroke-width:0.34px;"/>
            <path d="M775.522,101.985L869.179,101.985" style="fill:none;fill-rule:nonzero;stroke:black;stroke-width:0.34px;"/>
            <path d="M869.179,101.985L869.179,141.67" style="fill:none;fill-rule:nonzero;stroke:black;stroke-width:0.34px;"/>
            <path d="M133.443,209.985L133.443,249.67" style="fill:none;fill-rule:nonzero;stroke:black;stroke-width:0.34px;"/>
            <path d="M93.758,249.67L133.443,249.67" style="fill:none;fill-rule:nonzero;stroke:black;stroke-width:0.34px;"/>
            <path d="M93.758,209.985L133.443,209.985" style="fill:none;fill-rule:nonzero;stroke:black;stroke-width:0.34px;"/>
            <path d="M93.758,209.985L93.758,249.67" style="fill:none;fill-rule:nonzero;stroke:black;stroke-width:0.34px;"/>
            <path d="M862.443,232.523L862.443,182.985" style="fill:none;fill-rule:nonzero;stroke:black;stroke-width:0.34px;"/>
            <path d="M862.443,182.985L858.441,182.985" style="fill:none;fill-rule:nonzero;stroke:black;stroke-width:0.34px;"/>
            <path d="M860.025,173.132L863.337,173.132" style="fill:none;fill-rule:nonzero;stroke:black;stroke-width:0.34px;"/>
            <path d="M822.758,249.67L822.758,195.67" style="fill:none;fill-rule:nonzero;stroke:black;stroke-width:0.34px;"/>
            <path d="M860.025,178.251L858.441,178.251" style="fill:none;fill-rule:nonzero;stroke:black;stroke-width:0.34px;"/>
            <path d="M858.441,178.251L858.441,182.985" style="fill:none;fill-rule:nonzero;stroke:black;stroke-width:0.34px;"/>
            <path d="M860.025,164.492L860.025,159.372" style="fill:none;fill-rule:nonzero;stroke:black;stroke-width:0.34px;"/>
            <path d="M860.025,178.251L860.025,173.132" style="fill:none;fill-rule:nonzero;stroke:black;stroke-width:0.34px;"/>
            <path d="M855.693,155.985L855.693,159.372" style="fill:none;fill-rule:nonzero;stroke:black;stroke-width:0.34px;"/>
            <path d="M862.443,241.163L862.443,249.67" style="fill:none;fill-rule:nonzero;stroke:black;stroke-width:0.34px;"/>
            <path d="M862.443,249.67L822.758,249.67" style="fill:none;fill-rule:nonzero;stroke:black;stroke-width:0.34px;"/>
            <path d="M860.025,164.492L863.337,164.492" style="fill:none;fill-rule:nonzero;stroke:black;stroke-width:0.34px;"/>
            <path d="M863.337,173.132L863.337,164.492" style="fill:none;fill-rule:nonzero;stroke:black;stroke-width:0.34px;"/>
            <path d="M855.693,159.372L860.025,159.372" style="fill:none;fill-rule:nonzero;stroke:black;stroke-width:0.34px;"/>
            <path d="M862.443,241.163L863.337,241.163" style="fill:none;fill-rule:nonzero;stroke:black;stroke-width:0.34px;"/>
            <path d="M816.008,195.67L816.008,155.985" style="fill:none;fill-rule:nonzero;stroke:black;stroke-width:0.34px;"/>
            <path d="M822.758,195.67L816.008,195.67" style="fill:none;fill-rule:nonzero;stroke:black;stroke-width:0.34px;"/>
            <path d="M863.337,232.523L863.337,241.163" style="fill:none;fill-rule:nonzero;stroke:black;stroke-width:0.34px;"/>
            <path d="M862.443,232.523L863.337,232.523" style="fill:none;fill-rule:nonzero;stroke:black;stroke-width:0.34px;"/>
            <path d="M816.008,155.985L855.693,155.985" style="fill:none;fill-rule:nonzero;stroke:black;stroke-width:0.34px;"/>
            <path d="M657.383,317.985L657.383,357.67" style="fill:none;fill-rule:nonzero;stroke:black;stroke-width:0.34px;"/>
            <path d="M657.383,317.985L697.068,317.985" style="fill:none;fill-rule:nonzero;stroke:black;stroke-width:0.34px;"/>
            <path d="M697.068,317.985L697.068,357.67" style="fill:none;fill-rule:nonzero;stroke:black;stroke-width:0.34px;"/>
            <path d="M657.383,357.67L697.068,357.67" style="fill:none;fill-rule:nonzero;stroke:black;stroke-width:0.34px;"/>
        </g>
    </g>
</svg>
