<?xml version="1.0" encoding="UTF-8" standalone="no"?>
<!DOCTYPE svg PUBLIC "-//W3C//DTD SVG 1.1//EN" "http://www.w3.org/Graphics/SVG/1.1/DTD/svg11.dtd">
<svg width="100%" height="100%" viewBox="0 0 539 131" version="1.1" xmlns="http://www.w3.org/2000/svg" xmlns:xlink="http://www.w3.org/1999/xlink" xml:space="preserve" xmlns:serif="http://www.serif.com/" style="fill-rule:evenodd;clip-rule:evenodd;stroke-linecap:square;">
    <g id="Sketch" transform="matrix(1,0,0,-1,12.5877,39.992)">
        <path id="Sketch_w0000" d="M0,-0L38.743,38.743L113.578,38.743L74.835,0C67.436,-7.398 63.496,-13.801 63.496,-18.425L63.496,-24.071L-11.339,-24.071L-11.339,-18.425C-11.339,-13.801 -7.398,-7.398 0,-0" style="fill:none;stroke:black;stroke-width:0.99px;"/>
        <g transform="matrix(1.37357,0,0,-1.37357,-33.0505,40.0526)">
            <g transform="matrix(7.08661,0,0,7.08661,61.1779,11.1468)">
            </g>
            <text x="51.724px" y="11.147px" style="font-family:'Arial-Black', 'Arial';font-weight:900;font-size:7.087px;">F1</text>
        </g>
    </g>
    <g id="Sketch1" serif:id="Sketch" transform="matrix(1,0,0,-1,93.5642,39.992)">
        <path id="Sketch_w00001" serif:id="Sketch_w0000" d="M0,-0L38.743,38.743L113.578,38.743L74.835,0C67.436,-7.398 63.496,-13.801 63.496,-18.425L63.496,-24.071L-11.339,-24.071L-11.339,-18.425C-11.339,-13.801 -7.398,-7.398 0,-0" style="fill:none;stroke:black;stroke-width:0.99px;"/>
        <g transform="matrix(1.37357,0,0,-1.37357,-33.0505,40.0526)">
            <g transform="matrix(7.08661,0,0,7.08661,61.1779,11.1468)">
            </g>
            <text x="51.724px" y="11.147px" style="font-family:'Arial-Black', 'Arial';font-weight:900;font-size:7.087px;">F2</text>
        </g>
    </g>
    <g id="Sketch2" serif:id="Sketch" transform="matrix(1,0,0,-1,174.635,39.992)">
        <path id="Sketch_w00002" serif:id="Sketch_w0000" d="M0,-0L38.743,38.743L113.578,38.743L74.835,0C67.436,-7.398 63.496,-13.801 63.496,-18.425L63.496,-24.071L-11.339,-24.071L-11.339,-18.425C-11.339,-13.801 -7.398,-7.398 0,-0" style="fill:none;stroke:black;stroke-width:0.99px;"/>
        <g transform="matrix(1.37357,0,0,-1.37357,-33.0505,40.0526)">
            <g transform="matrix(7.08661,0,0,7.08661,61.1779,11.1468)">
            </g>
            <text x="51.724px" y="11.147px" style="font-family:'Arial-Black', 'Arial';font-weight:900;font-size:7.087px;">F3</text>
        </g>
    </g>
    <g id="Sketch3" serif:id="Sketch" transform="matrix(1,0,0,-1,255.706,39.992)">
        <path id="Sketch_w00003" serif:id="Sketch_w0000" d="M0,-0L38.743,38.743L113.578,38.743L74.835,0C67.436,-7.398 63.496,-13.801 63.496,-18.425L63.496,-24.071L-11.339,-24.071L-11.339,-18.425C-11.339,-13.801 -7.398,-7.398 0,-0" style="fill:none;stroke:black;stroke-width:0.99px;"/>
        <g transform="matrix(1.37357,0,0,-1.37357,-33.0505,40.0526)">
            <g transform="matrix(7.08661,0,0,7.08661,61.1779,11.1468)">
            </g>
            <text x="51.724px" y="11.147px" style="font-family:'Arial-Black', 'Arial';font-weight:900;font-size:7.087px;">F4</text>
        </g>
    </g>
    <g id="Sketch4" serif:id="Sketch" transform="matrix(1,0,0,-1,336.777,39.992)">
        <path id="Sketch_w00004" serif:id="Sketch_w0000" d="M0,-0L38.743,38.743L113.578,38.743L74.835,0C67.436,-7.398 63.496,-13.801 63.496,-18.425L63.496,-24.071L-11.339,-24.071L-11.339,-18.425C-11.339,-13.801 -7.398,-7.398 0,-0" style="fill:none;stroke:black;stroke-width:0.99px;"/>
        <g transform="matrix(1.37357,0,0,-1.37357,-33.0505,40.0526)">
            <g transform="matrix(7.08661,0,0,7.08661,83.1747,11.1468)">
            </g>
            <text x="51.724px" y="11.147px" style="font-family:'Arial-Black', 'Arial';font-weight:900;font-size:7.087px;">F5 Star<tspan x="80.029px " y="11.147px ">t</tspan></text>
        </g>
    </g>
    <g id="Sketch5" serif:id="Sketch" transform="matrix(1,0,0,-1,12.7559,110.551)">
        <g id="Sketch_w00005" serif:id="Sketch_w0000" transform="matrix(1,0,0,1,0,5.76108)">
            <path d="M0,-0L38.743,38.743L113.578,38.743L74.835,0C67.436,-7.398 63.496,-13.801 63.496,-18.425L63.496,-24.186L-11.339,-24.186L-11.339,-18.425C-11.339,-13.801 -7.398,-7.398 0,-0" style="fill:none;stroke:black;stroke-width:0.99px;"/>
        </g>
        <g transform="matrix(1.37357,0,0,-1.37357,-33.0505,45.8136)">
            <g transform="matrix(7.08661,0,0,7.08661,88.3444,11.1468)">
            </g>
            <text x="51.724px" y="11.147px" style="font-family:'Arial-Black', 'Arial';font-weight:900;font-size:7.087px;">F6 Select</text>
        </g>
    </g>
    <g id="Sketch6" serif:id="Sketch" transform="matrix(1,0,0,-1,93.8268,110.551)">
        <g id="Sketch_w00006" serif:id="Sketch_w0000" transform="matrix(1,0,0,1,0,5.76108)">
            <path d="M0,-0L38.743,38.743L113.578,38.743L74.835,0C67.436,-7.398 63.496,-13.801 63.496,-18.425L63.496,-24.186L-11.339,-24.186L-11.339,-18.425C-11.339,-13.801 -7.398,-7.398 0,-0" style="fill:none;stroke:black;stroke-width:0.99px;"/>
        </g>
        <g transform="matrix(1.37357,0,0,-1.37357,-33.0505,45.8136)">
            <g transform="matrix(7.08661,0,0,7.08661,89.1298,11.1468)">
            </g>
            <text x="51.724px" y="11.147px" style="font-family:'Arial-Black', 'Arial';font-weight:900;font-size:7.087px;">F7 Option</text>
        </g>
    </g>
    <g id="Sketch7" serif:id="Sketch" transform="matrix(1,0,0,-1,174.898,110.551)">
        <g id="Sketch_w00007" serif:id="Sketch_w0000" transform="matrix(1,0,0,1,0,5.76108)">
            <path d="M0,-0L38.743,38.743L113.578,38.743L74.835,0C67.436,-7.398 63.496,-13.801 63.496,-18.425L63.496,-24.186L-11.339,-24.186L-11.339,-18.425C-11.339,-13.801 -7.398,-7.398 0,-0" style="fill:none;stroke:black;stroke-width:0.99px;"/>
        </g>
        <g transform="matrix(1.37357,0,0,-1.37357,-33.0505,45.8136)">
            <g transform="matrix(7.08661,0,0,7.08661,85.8045,11.1468)">
            </g>
            <text x="51.724px" y="11.147px" style="font-family:'Arial-Black', 'Arial';font-weight:900;font-size:7.087px;">F8 R<tspan x="68.877px 73.604px " y="11.147px 11.147px ">es</tspan>et</text>
        </g>
    </g>
    <g id="Sketch8" serif:id="Sketch" transform="matrix(1,0,0,-1,255.969,110.551)">
        <g id="Sketch_w00008" serif:id="Sketch_w0000" transform="matrix(1,0,0,1,0,5.76108)">
            <path d="M0,-0L38.743,38.743L113.578,38.743L74.835,0C67.436,-7.398 63.496,-13.801 63.496,-18.425L63.496,-24.186L-11.339,-24.186L-11.339,-18.425C-11.339,-13.801 -7.398,-7.398 0,-0" style="fill:none;stroke:black;stroke-width:0.99px;"/>
        </g>
        <g transform="matrix(1.37357,0,0,-1.37357,-33.0505,45.8136)">
            <g transform="matrix(7.08661,0,0,7.08661,86.4931,11.1468)">
            </g>
            <text x="51.724px" y="11.147px" style="font-family:'Arial-Black', 'Arial';font-weight:900;font-size:7.087px;">F9 Br<tspan x="72.313px 77.04px " y="11.147px 11.147px ">ea</tspan>k</text>
        </g>
    </g>
    <g id="Sketch9" serif:id="Sketch" transform="matrix(1,0,0,-1,337.039,110.551)">
        <g id="Sketch_w00009" serif:id="Sketch_w0000" transform="matrix(1,0,0,1,0,5.76108)">
            <path d="M0,-0L38.743,38.743L113.578,38.743L74.835,0C67.436,-7.398 63.496,-13.801 63.496,-18.425L63.496,-24.186L-11.339,-24.186L-11.339,-18.425C-11.339,-13.801 -7.398,-7.398 0,-0" style="fill:none;stroke:black;stroke-width:0.99px;"/>
        </g>
        <g transform="matrix(1.37357,0,0,-1.37357,-33.0505,45.8136)">
            <g transform="matrix(7.08661,0,0,7.08661,85.9845,11.1468)">
            </g>
            <text x="51.724px" y="11.147px" style="font-family:'Arial-Black', 'Arial';font-weight:900;font-size:7.087px;">F10 Help</text>
        </g>
    </g>
    <g id="Sketch10" serif:id="Sketch" transform="matrix(1,0,0,-1,418.11,110.551)">
        <g id="Sketch_w000010" serif:id="Sketch_w0000" transform="matrix(1,0,0,1,0,5.76108)">
            <path d="M0,-0L38.743,38.743L113.578,38.743L74.835,0C67.436,-7.398 63.496,-13.801 63.496,-18.425L63.496,-24.186L-11.339,-24.186L-11.339,-18.425C-11.339,-13.801 -7.398,-7.398 0,-0" style="fill:none;stroke:black;stroke-width:0.99px;"/>
        </g>
        <g transform="matrix(1.37357,0,0,-1.37357,-33.0505,45.8136)">
            <g transform="matrix(7.08661,0,0,7.08661,65.8976,11.1468)">
            </g>
            <text x="51.724px" y="11.147px" style="font-family:'Arial-Black', 'Arial';font-weight:900;font-size:7.087px;">Esc</text>
        </g>
    </g>
</svg>
