<?xml version="1.0" encoding="UTF-8" standalone="no"?>
<!DOCTYPE svg PUBLIC "-//W3C//DTD SVG 1.1//EN" "http://www.w3.org/Graphics/SVG/1.1/DTD/svg11.dtd">
<svg width="100%" height="100%" viewBox="0 0 539 131" version="1.1" xmlns="http://www.w3.org/2000/svg" xmlns:xlink="http://www.w3.org/1999/xlink" xml:space="preserve" xmlns:serif="http://www.serif.com/" style="fill-rule:evenodd;clip-rule:evenodd;stroke-linecap:square;">
    <g id="Sketch" transform="matrix(1,0,0,-1,12.5877,39.992)">
        <path id="Sketch_w0000" d="M0,-0L38.743,38.743L113.578,38.743L74.835,0C67.436,-7.398 63.496,-13.801 63.496,-18.425L63.496,-24.071L-11.339,-24.071L-11.339,-18.425C-11.339,-13.801 -7.398,-7.398 0,-0" style="fill:none;stroke:black;stroke-width:0.99px;"/>
        <g transform="matrix(1.37357,0,0,-1.37357,-33.0505,40.0526)">
            <g transform="matrix(7.08661,0,0,7.08661,51.7244,11.1468)">
                <path d="M0.074,-0.716L0.621,-0.716L0.621,-0.562L0.296,-0.562L0.296,-0.437L0.574,-0.437L0.574,-0.292L0.296,-0.292L0.296,-0L0.074,-0L0.074,-0.716Z" style="fill-rule:nonzero;"/>
            </g>
            <g transform="matrix(7.08661,0,0,7.08661,56.4511,11.1468)">
                <path d="M0.492,-0.728L0.492,-0L0.291,-0L0.291,-0.477C0.258,-0.452 0.226,-0.432 0.196,-0.417C0.166,-0.402 0.127,-0.387 0.082,-0.373L0.082,-0.536C0.149,-0.558 0.202,-0.584 0.239,-0.615C0.277,-0.645 0.306,-0.683 0.327,-0.728L0.492,-0.728Z" style="fill-rule:nonzero;"/>
            </g>
        </g>
    </g>
    <g id="Sketch1" serif:id="Sketch" transform="matrix(1,0,0,-1,93.5642,39.992)">
        <path id="Sketch_w00001" serif:id="Sketch_w0000" d="M0,-0L38.743,38.743L113.578,38.743L74.835,0C67.436,-7.398 63.496,-13.801 63.496,-18.425L63.496,-24.071L-11.339,-24.071L-11.339,-18.425C-11.339,-13.801 -7.398,-7.398 0,-0" style="fill:none;stroke:black;stroke-width:0.99px;"/>
        <g transform="matrix(1.37357,0,0,-1.37357,-33.0505,40.0526)">
            <g transform="matrix(7.08661,0,0,7.08661,51.7244,11.1468)">
                <path d="M0.074,-0.716L0.621,-0.716L0.621,-0.562L0.296,-0.562L0.296,-0.437L0.574,-0.437L0.574,-0.292L0.296,-0.292L0.296,-0L0.074,-0L0.074,-0.716Z" style="fill-rule:nonzero;"/>
            </g>
            <g transform="matrix(7.08661,0,0,7.08661,56.4511,11.1468)">
                <path d="M0.623,-0L0.026,-0C0.033,-0.059 0.054,-0.114 0.088,-0.166C0.123,-0.218 0.188,-0.279 0.284,-0.35C0.342,-0.393 0.379,-0.426 0.396,-0.449C0.412,-0.471 0.42,-0.493 0.42,-0.513C0.42,-0.535 0.412,-0.553 0.396,-0.568C0.38,-0.584 0.359,-0.592 0.335,-0.592C0.31,-0.592 0.289,-0.584 0.272,-0.568C0.257,-0.552 0.246,-0.524 0.24,-0.483L0.041,-0.5C0.049,-0.556 0.063,-0.599 0.084,-0.63C0.105,-0.662 0.134,-0.686 0.172,-0.703C0.21,-0.72 0.263,-0.728 0.33,-0.728C0.4,-0.728 0.454,-0.72 0.493,-0.704C0.532,-0.688 0.562,-0.664 0.584,-0.63C0.607,-0.597 0.618,-0.561 0.618,-0.52C0.618,-0.476 0.605,-0.434 0.58,-0.395C0.554,-0.355 0.508,-0.311 0.44,-0.264C0.4,-0.236 0.374,-0.217 0.36,-0.206C0.347,-0.194 0.331,-0.18 0.313,-0.162L0.623,-0.162L0.623,-0Z" style="fill-rule:nonzero;"/>
            </g>
        </g>
    </g>
    <g id="Sketch2" serif:id="Sketch" transform="matrix(1,0,0,-1,174.635,39.992)">
        <path id="Sketch_w00002" serif:id="Sketch_w0000" d="M0,-0L38.743,38.743L113.578,38.743L74.835,0C67.436,-7.398 63.496,-13.801 63.496,-18.425L63.496,-24.071L-11.339,-24.071L-11.339,-18.425C-11.339,-13.801 -7.398,-7.398 0,-0" style="fill:none;stroke:black;stroke-width:0.99px;"/>
        <g transform="matrix(1.37357,0,0,-1.37357,-33.0505,40.0526)">
            <g transform="matrix(7.08661,0,0,7.08661,51.7244,11.1468)">
                <path d="M0.074,-0.716L0.621,-0.716L0.621,-0.562L0.296,-0.562L0.296,-0.437L0.574,-0.437L0.574,-0.292L0.296,-0.292L0.296,-0L0.074,-0L0.074,-0.716Z" style="fill-rule:nonzero;"/>
            </g>
            <g transform="matrix(7.08661,0,0,7.08661,56.4511,11.1468)">
                <path d="M0.234,-0.509L0.046,-0.542C0.062,-0.602 0.091,-0.648 0.136,-0.68C0.18,-0.712 0.243,-0.728 0.325,-0.728C0.418,-0.728 0.486,-0.711 0.527,-0.676C0.569,-0.641 0.59,-0.597 0.59,-0.544C0.59,-0.514 0.581,-0.486 0.564,-0.46C0.548,-0.435 0.522,-0.413 0.488,-0.395C0.515,-0.388 0.537,-0.38 0.551,-0.371C0.575,-0.356 0.593,-0.337 0.606,-0.313C0.62,-0.289 0.626,-0.26 0.626,-0.227C0.626,-0.185 0.616,-0.145 0.594,-0.107C0.572,-0.069 0.541,-0.039 0.5,-0.019C0.458,0.002 0.405,0.012 0.338,0.012C0.273,0.012 0.221,0.005 0.184,-0.011C0.146,-0.026 0.115,-0.048 0.091,-0.078C0.067,-0.107 0.048,-0.144 0.035,-0.189L0.234,-0.215C0.242,-0.175 0.254,-0.147 0.27,-0.132C0.287,-0.117 0.308,-0.109 0.333,-0.109C0.36,-0.109 0.382,-0.119 0.399,-0.138C0.417,-0.158 0.426,-0.184 0.426,-0.216C0.426,-0.25 0.418,-0.275 0.4,-0.293C0.383,-0.312 0.36,-0.321 0.331,-0.321C0.315,-0.321 0.294,-0.317 0.267,-0.309L0.277,-0.451C0.288,-0.45 0.297,-0.449 0.303,-0.449C0.329,-0.449 0.35,-0.457 0.368,-0.474C0.385,-0.49 0.394,-0.51 0.394,-0.533C0.394,-0.555 0.388,-0.572 0.375,-0.585C0.361,-0.598 0.344,-0.604 0.321,-0.604C0.297,-0.604 0.278,-0.597 0.264,-0.583C0.249,-0.569 0.239,-0.544 0.234,-0.509Z" style="fill-rule:nonzero;"/>
            </g>
        </g>
    </g>
    <g id="Sketch3" serif:id="Sketch" transform="matrix(1,0,0,-1,255.706,39.992)">
        <path id="Sketch_w00003" serif:id="Sketch_w0000" d="M0,-0L38.743,38.743L113.578,38.743L74.835,0C67.436,-7.398 63.496,-13.801 63.496,-18.425L63.496,-24.071L-11.339,-24.071L-11.339,-18.425C-11.339,-13.801 -7.398,-7.398 0,-0" style="fill:none;stroke:black;stroke-width:0.99px;"/>
        <g transform="matrix(1.37357,0,0,-1.37357,-33.0505,40.0526)">
            <g transform="matrix(7.08661,0,0,7.08661,51.7244,11.1468)">
                <path d="M0.074,-0.716L0.621,-0.716L0.621,-0.562L0.296,-0.562L0.296,-0.437L0.574,-0.437L0.574,-0.292L0.296,-0.292L0.296,-0L0.074,-0L0.074,-0.716Z" style="fill-rule:nonzero;"/>
            </g>
            <g transform="matrix(7.08661,0,0,7.08661,56.4511,11.1468)">
                <path d="M0.383,-0.134L0.021,-0.134L0.021,-0.297L0.383,-0.728L0.556,-0.728L0.556,-0.288L0.646,-0.288L0.646,-0.134L0.556,-0.134L0.556,-0L0.383,-0L0.383,-0.134ZM0.383,-0.288L0.383,-0.513L0.191,-0.288L0.383,-0.288Z" style="fill-rule:nonzero;"/>
            </g>
        </g>
    </g>
    <g id="Sketch4" serif:id="Sketch" transform="matrix(1,0,0,-1,336.777,39.992)">
        <path id="Sketch_w00004" serif:id="Sketch_w0000" d="M0,-0L38.743,38.743L113.578,38.743L74.835,0C67.436,-7.398 63.496,-13.801 63.496,-18.425L63.496,-24.071L-11.339,-24.071L-11.339,-18.425C-11.339,-13.801 -7.398,-7.398 0,-0" style="fill:none;stroke:black;stroke-width:0.99px;"/>
        <g transform="matrix(1.37357,0,0,-1.37357,-33.0505,40.0526)">
            <g transform="matrix(7.08661,0,0,7.08661,51.7244,11.1468)">
                <path d="M0.074,-0.716L0.621,-0.716L0.621,-0.562L0.296,-0.562L0.296,-0.437L0.574,-0.437L0.574,-0.292L0.296,-0.292L0.296,-0L0.074,-0L0.074,-0.716Z" style="fill-rule:nonzero;"/>
            </g>
            <g transform="matrix(7.08661,0,0,7.08661,56.4511,11.1468)">
                <path d="M0.122,-0.716L0.594,-0.716L0.594,-0.557L0.274,-0.557L0.257,-0.45C0.279,-0.46 0.301,-0.468 0.322,-0.473C0.344,-0.478 0.366,-0.481 0.387,-0.481C0.458,-0.481 0.516,-0.459 0.561,-0.416C0.606,-0.373 0.628,-0.318 0.628,-0.252C0.628,-0.206 0.616,-0.162 0.593,-0.119C0.57,-0.076 0.538,-0.044 0.496,-0.021C0.454,0.001 0.4,0.012 0.334,0.012C0.287,0.012 0.246,0.008 0.212,-0.001C0.179,-0.01 0.15,-0.023 0.126,-0.041C0.103,-0.059 0.084,-0.079 0.069,-0.102C0.055,-0.124 0.042,-0.152 0.033,-0.186L0.234,-0.208C0.239,-0.175 0.25,-0.151 0.268,-0.134C0.286,-0.117 0.307,-0.109 0.332,-0.109C0.36,-0.109 0.382,-0.119 0.4,-0.14C0.419,-0.161 0.428,-0.193 0.428,-0.234C0.428,-0.277 0.419,-0.308 0.4,-0.328C0.382,-0.348 0.358,-0.358 0.328,-0.358C0.308,-0.358 0.29,-0.353 0.272,-0.344C0.259,-0.337 0.244,-0.325 0.228,-0.307L0.059,-0.331L0.122,-0.716Z" style="fill-rule:nonzero;"/>
            </g>
            <g transform="matrix(7.08661,0,0,7.08661,63.5412,11.1468)">
                <path d="M0.035,-0.237L0.245,-0.25C0.25,-0.216 0.259,-0.19 0.273,-0.172C0.296,-0.143 0.328,-0.128 0.371,-0.128C0.402,-0.128 0.426,-0.136 0.443,-0.15C0.461,-0.165 0.469,-0.183 0.469,-0.202C0.469,-0.221 0.461,-0.237 0.445,-0.252C0.429,-0.267 0.391,-0.28 0.332,-0.293C0.235,-0.315 0.165,-0.344 0.124,-0.38C0.082,-0.417 0.062,-0.463 0.062,-0.519C0.062,-0.555 0.072,-0.59 0.093,-0.623C0.115,-0.655 0.147,-0.681 0.189,-0.7C0.232,-0.719 0.291,-0.728 0.366,-0.728C0.457,-0.728 0.527,-0.711 0.575,-0.677C0.623,-0.643 0.652,-0.589 0.661,-0.515L0.452,-0.502C0.447,-0.535 0.435,-0.558 0.417,-0.573C0.399,-0.587 0.375,-0.595 0.344,-0.595C0.318,-0.595 0.299,-0.589 0.286,-0.578C0.273,-0.567 0.266,-0.554 0.266,-0.539C0.266,-0.527 0.271,-0.517 0.282,-0.508C0.293,-0.498 0.317,-0.49 0.356,-0.481C0.453,-0.461 0.522,-0.439 0.564,-0.418C0.606,-0.397 0.636,-0.37 0.655,-0.339C0.674,-0.307 0.684,-0.272 0.684,-0.233C0.684,-0.187 0.671,-0.145 0.646,-0.106C0.621,-0.067 0.585,-0.038 0.54,-0.018C0.494,0.002 0.437,0.012 0.367,0.012C0.245,0.012 0.161,-0.011 0.114,-0.058C0.067,-0.105 0.041,-0.165 0.035,-0.237Z" style="fill-rule:nonzero;"/>
            </g>
            <g transform="matrix(7.08661,0,0,7.08661,68.6589,11.1468)">
                <path d="M0.3,-0.716L0.3,-0.519L0.409,-0.519L0.409,-0.374L0.3,-0.374L0.3,-0.189C0.3,-0.167 0.302,-0.153 0.306,-0.146C0.313,-0.134 0.324,-0.129 0.34,-0.129C0.355,-0.129 0.375,-0.133 0.402,-0.142L0.417,-0.004C0.367,0.006 0.321,0.012 0.279,0.012C0.229,0.012 0.193,0.005 0.169,-0.007C0.146,-0.02 0.129,-0.039 0.117,-0.065C0.106,-0.091 0.101,-0.133 0.101,-0.191L0.101,-0.374L0.027,-0.374L0.027,-0.519L0.101,-0.519L0.101,-0.614L0.3,-0.716Z" style="fill-rule:nonzero;"/>
            </g>
            <g transform="matrix(7.08661,0,0,7.08661,71.8043,11.1468)">
                <path d="M0.241,-0.351L0.051,-0.371C0.058,-0.404 0.069,-0.43 0.082,-0.449C0.096,-0.468 0.115,-0.485 0.141,-0.499C0.159,-0.509 0.184,-0.516 0.216,-0.522C0.248,-0.528 0.282,-0.53 0.319,-0.53C0.379,-0.53 0.427,-0.527 0.463,-0.52C0.499,-0.514 0.529,-0.5 0.553,-0.479C0.57,-0.464 0.583,-0.443 0.593,-0.416C0.603,-0.389 0.608,-0.364 0.608,-0.339L0.608,-0.11C0.608,-0.086 0.609,-0.067 0.612,-0.053C0.616,-0.039 0.622,-0.021 0.633,-0L0.446,-0C0.439,-0.013 0.434,-0.023 0.432,-0.03C0.429,-0.037 0.427,-0.049 0.425,-0.063C0.399,-0.038 0.373,-0.021 0.347,-0.01C0.312,0.005 0.271,0.012 0.225,0.012C0.163,0.012 0.116,-0.003 0.083,-0.031C0.052,-0.06 0.036,-0.095 0.036,-0.137C0.036,-0.177 0.047,-0.209 0.07,-0.234C0.093,-0.26 0.136,-0.279 0.198,-0.291C0.273,-0.306 0.321,-0.316 0.343,-0.322C0.365,-0.328 0.389,-0.336 0.414,-0.346C0.414,-0.371 0.409,-0.388 0.398,-0.397C0.388,-0.407 0.371,-0.412 0.345,-0.412C0.313,-0.412 0.288,-0.407 0.272,-0.396C0.259,-0.388 0.249,-0.373 0.241,-0.351ZM0.414,-0.246C0.386,-0.236 0.358,-0.228 0.328,-0.22C0.288,-0.209 0.262,-0.199 0.251,-0.188C0.24,-0.178 0.235,-0.166 0.235,-0.152C0.235,-0.136 0.24,-0.123 0.251,-0.113C0.262,-0.104 0.278,-0.099 0.299,-0.099C0.321,-0.099 0.342,-0.104 0.361,-0.115C0.38,-0.125 0.394,-0.139 0.401,-0.154C0.41,-0.169 0.414,-0.19 0.414,-0.214L0.414,-0.246Z" style="fill-rule:nonzero;"/>
            </g>
            <g transform="matrix(7.08661,0,0,7.08661,76.531,11.1468)">
                <path d="M0.062,-0.519L0.248,-0.519L0.248,-0.434C0.266,-0.47 0.284,-0.496 0.303,-0.509C0.322,-0.523 0.346,-0.53 0.374,-0.53C0.403,-0.53 0.435,-0.521 0.47,-0.503L0.409,-0.361C0.385,-0.371 0.367,-0.376 0.353,-0.376C0.327,-0.376 0.307,-0.365 0.292,-0.344C0.272,-0.313 0.262,-0.257 0.262,-0.174L0.262,-0L0.062,-0L0.062,-0.519Z" style="fill-rule:nonzero;"/>
            </g>
            <g transform="matrix(7.08661,0,0,7.08661,80.0294,11.1468)">
                <path d="M0.3,-0.716L0.3,-0.519L0.409,-0.519L0.409,-0.374L0.3,-0.374L0.3,-0.189C0.3,-0.167 0.302,-0.153 0.306,-0.146C0.313,-0.134 0.324,-0.129 0.34,-0.129C0.355,-0.129 0.375,-0.133 0.402,-0.142L0.417,-0.004C0.367,0.006 0.321,0.012 0.279,0.012C0.229,0.012 0.193,0.005 0.169,-0.007C0.146,-0.02 0.129,-0.039 0.117,-0.065C0.106,-0.091 0.101,-0.133 0.101,-0.191L0.101,-0.374L0.027,-0.374L0.027,-0.519L0.101,-0.519L0.101,-0.614L0.3,-0.716Z" style="fill-rule:nonzero;"/>
            </g>
        </g>
    </g>
    <g id="Sketch5" serif:id="Sketch" transform="matrix(1,0,0,-1,12.7559,110.551)">
        <g id="Sketch_w00005" serif:id="Sketch_w0000" transform="matrix(1,0,0,1,0,5.76108)">
            <path d="M0,-0L38.743,38.743L113.578,38.743L74.835,0C67.436,-7.398 63.496,-13.801 63.496,-18.425L63.496,-24.186L-11.339,-24.186L-11.339,-18.425C-11.339,-13.801 -7.398,-7.398 0,-0" style="fill:none;stroke:black;stroke-width:0.99px;"/>
        </g>
        <g transform="matrix(1.37357,0,0,-1.37357,-33.0505,45.8136)">
            <g transform="matrix(7.08661,0,0,7.08661,51.7244,11.1468)">
                <path d="M0.074,-0.716L0.621,-0.716L0.621,-0.562L0.296,-0.562L0.296,-0.437L0.574,-0.437L0.574,-0.292L0.296,-0.292L0.296,-0L0.074,-0L0.074,-0.716Z" style="fill-rule:nonzero;"/>
            </g>
            <g transform="matrix(7.08661,0,0,7.08661,56.4511,11.1468)">
                <path d="M0.617,-0.555L0.419,-0.53C0.414,-0.558 0.405,-0.577 0.393,-0.589C0.381,-0.6 0.366,-0.606 0.348,-0.606C0.315,-0.606 0.29,-0.59 0.272,-0.557C0.259,-0.534 0.25,-0.484 0.244,-0.407C0.267,-0.431 0.292,-0.449 0.317,-0.46C0.342,-0.472 0.371,-0.478 0.404,-0.478C0.468,-0.478 0.521,-0.455 0.565,-0.409C0.61,-0.364 0.632,-0.306 0.632,-0.236C0.632,-0.189 0.621,-0.146 0.598,-0.106C0.576,-0.067 0.545,-0.038 0.505,-0.018C0.466,0.002 0.417,0.012 0.357,0.012C0.285,0.012 0.228,0 0.185,-0.024C0.141,-0.049 0.107,-0.088 0.081,-0.141C0.055,-0.195 0.042,-0.266 0.042,-0.354C0.042,-0.483 0.069,-0.578 0.124,-0.638C0.178,-0.698 0.253,-0.728 0.35,-0.728C0.407,-0.728 0.451,-0.721 0.484,-0.708C0.518,-0.695 0.545,-0.676 0.567,-0.65C0.589,-0.625 0.605,-0.593 0.617,-0.555ZM0.25,-0.236C0.25,-0.197 0.26,-0.167 0.28,-0.145C0.299,-0.123 0.323,-0.112 0.352,-0.112C0.378,-0.112 0.399,-0.122 0.417,-0.142C0.435,-0.161 0.443,-0.191 0.443,-0.23C0.443,-0.271 0.434,-0.302 0.416,-0.323C0.398,-0.344 0.375,-0.354 0.348,-0.354C0.32,-0.354 0.297,-0.344 0.278,-0.324C0.26,-0.303 0.25,-0.274 0.25,-0.236Z" style="fill-rule:nonzero;"/>
            </g>
            <g transform="matrix(7.08661,0,0,7.08661,63.5412,11.1468)">
                <path d="M0.035,-0.237L0.245,-0.25C0.25,-0.216 0.259,-0.19 0.273,-0.172C0.296,-0.143 0.328,-0.128 0.371,-0.128C0.402,-0.128 0.426,-0.136 0.443,-0.15C0.461,-0.165 0.469,-0.183 0.469,-0.202C0.469,-0.221 0.461,-0.237 0.445,-0.252C0.429,-0.267 0.391,-0.28 0.332,-0.293C0.235,-0.315 0.165,-0.344 0.124,-0.38C0.082,-0.417 0.062,-0.463 0.062,-0.519C0.062,-0.555 0.072,-0.59 0.093,-0.623C0.115,-0.655 0.147,-0.681 0.189,-0.7C0.232,-0.719 0.291,-0.728 0.366,-0.728C0.457,-0.728 0.527,-0.711 0.575,-0.677C0.623,-0.643 0.652,-0.589 0.661,-0.515L0.452,-0.502C0.447,-0.535 0.435,-0.558 0.417,-0.573C0.399,-0.587 0.375,-0.595 0.344,-0.595C0.318,-0.595 0.299,-0.589 0.286,-0.578C0.273,-0.567 0.266,-0.554 0.266,-0.539C0.266,-0.527 0.271,-0.517 0.282,-0.508C0.293,-0.498 0.317,-0.49 0.356,-0.481C0.453,-0.461 0.522,-0.439 0.564,-0.418C0.606,-0.397 0.636,-0.37 0.655,-0.339C0.674,-0.307 0.684,-0.272 0.684,-0.233C0.684,-0.187 0.671,-0.145 0.646,-0.106C0.621,-0.067 0.585,-0.038 0.54,-0.018C0.494,0.002 0.437,0.012 0.367,0.012C0.245,0.012 0.161,-0.011 0.114,-0.058C0.067,-0.105 0.041,-0.165 0.035,-0.237Z" style="fill-rule:nonzero;"/>
            </g>
            <g transform="matrix(7.08661,0,0,7.08661,68.6589,11.1468)">
                <path d="M0.636,-0.21L0.237,-0.21C0.241,-0.178 0.25,-0.154 0.263,-0.139C0.282,-0.116 0.307,-0.105 0.338,-0.105C0.358,-0.105 0.376,-0.11 0.394,-0.12C0.405,-0.126 0.416,-0.137 0.429,-0.152L0.625,-0.134C0.595,-0.082 0.558,-0.045 0.516,-0.022C0.474,0 0.413,0.012 0.334,0.012C0.265,0.012 0.211,0.002 0.172,-0.017C0.132,-0.037 0.1,-0.067 0.074,-0.109C0.048,-0.152 0.035,-0.201 0.035,-0.258C0.035,-0.339 0.061,-0.405 0.113,-0.455C0.165,-0.505 0.237,-0.53 0.328,-0.53C0.402,-0.53 0.461,-0.519 0.504,-0.497C0.547,-0.474 0.58,-0.442 0.602,-0.399C0.625,-0.356 0.636,-0.301 0.636,-0.232L0.636,-0.21ZM0.434,-0.305C0.43,-0.344 0.419,-0.371 0.402,-0.388C0.386,-0.404 0.364,-0.413 0.336,-0.413C0.305,-0.413 0.28,-0.4 0.261,-0.375C0.249,-0.359 0.241,-0.336 0.238,-0.305L0.434,-0.305Z" style="fill-rule:nonzero;"/>
            </g>
            <g transform="matrix(7.08661,0,0,7.08661,73.3857,11.1468)">
                <rect x="0.067" y="-0.716" width="0.199" height="0.716" style="fill-rule:nonzero;"/>
            </g>
            <g transform="matrix(7.08661,0,0,7.08661,75.7456,11.1468)">
                <path d="M0.636,-0.21L0.237,-0.21C0.241,-0.178 0.25,-0.154 0.263,-0.139C0.282,-0.116 0.307,-0.105 0.338,-0.105C0.358,-0.105 0.376,-0.11 0.394,-0.12C0.405,-0.126 0.416,-0.137 0.429,-0.152L0.625,-0.134C0.595,-0.082 0.558,-0.045 0.516,-0.022C0.474,0 0.413,0.012 0.334,0.012C0.265,0.012 0.211,0.002 0.172,-0.017C0.132,-0.037 0.1,-0.067 0.074,-0.109C0.048,-0.152 0.035,-0.201 0.035,-0.258C0.035,-0.339 0.061,-0.405 0.113,-0.455C0.165,-0.505 0.237,-0.53 0.328,-0.53C0.402,-0.53 0.461,-0.519 0.504,-0.497C0.547,-0.474 0.58,-0.442 0.602,-0.399C0.625,-0.356 0.636,-0.301 0.636,-0.232L0.636,-0.21ZM0.434,-0.305C0.43,-0.344 0.419,-0.371 0.402,-0.388C0.386,-0.404 0.364,-0.413 0.336,-0.413C0.305,-0.413 0.28,-0.4 0.261,-0.375C0.249,-0.359 0.241,-0.336 0.238,-0.305L0.434,-0.305Z" style="fill-rule:nonzero;"/>
            </g>
            <g transform="matrix(7.08661,0,0,7.08661,80.4723,11.1468)">
                <path d="M0.447,-0.203L0.636,-0.181C0.625,-0.142 0.608,-0.108 0.584,-0.079C0.561,-0.05 0.53,-0.028 0.493,-0.012C0.456,0.004 0.41,0.012 0.353,0.012C0.298,0.012 0.252,0.007 0.215,-0.003C0.178,-0.013 0.147,-0.03 0.121,-0.053C0.094,-0.076 0.074,-0.103 0.059,-0.134C0.044,-0.165 0.036,-0.206 0.036,-0.257C0.036,-0.31 0.045,-0.355 0.063,-0.39C0.077,-0.416 0.095,-0.439 0.118,-0.46C0.141,-0.481 0.165,-0.496 0.189,-0.506C0.228,-0.522 0.278,-0.53 0.338,-0.53C0.423,-0.53 0.487,-0.515 0.532,-0.485C0.576,-0.455 0.608,-0.41 0.625,-0.352L0.438,-0.327C0.433,-0.349 0.422,-0.366 0.406,-0.377C0.391,-0.388 0.37,-0.394 0.344,-0.394C0.311,-0.394 0.285,-0.382 0.264,-0.358C0.244,-0.335 0.234,-0.299 0.234,-0.251C0.234,-0.209 0.244,-0.176 0.264,-0.154C0.284,-0.132 0.31,-0.121 0.341,-0.121C0.367,-0.121 0.389,-0.128 0.407,-0.141C0.425,-0.154 0.438,-0.175 0.447,-0.203Z" style="fill-rule:nonzero;"/>
            </g>
            <g transform="matrix(7.08661,0,0,7.08661,85.199,11.1468)">
                <path d="M0.3,-0.716L0.3,-0.519L0.409,-0.519L0.409,-0.374L0.3,-0.374L0.3,-0.189C0.3,-0.167 0.302,-0.153 0.306,-0.146C0.313,-0.134 0.324,-0.129 0.34,-0.129C0.355,-0.129 0.375,-0.133 0.402,-0.142L0.417,-0.004C0.367,0.006 0.321,0.012 0.279,0.012C0.229,0.012 0.193,0.005 0.169,-0.007C0.146,-0.02 0.129,-0.039 0.117,-0.065C0.106,-0.091 0.101,-0.133 0.101,-0.191L0.101,-0.374L0.027,-0.374L0.027,-0.519L0.101,-0.519L0.101,-0.614L0.3,-0.716Z" style="fill-rule:nonzero;"/>
            </g>
        </g>
    </g>
    <g id="Sketch6" serif:id="Sketch" transform="matrix(1,0,0,-1,93.8268,110.551)">
        <g id="Sketch_w00006" serif:id="Sketch_w0000" transform="matrix(1,0,0,1,0,5.76108)">
            <path d="M0,-0L38.743,38.743L113.578,38.743L74.835,0C67.436,-7.398 63.496,-13.801 63.496,-18.425L63.496,-24.186L-11.339,-24.186L-11.339,-18.425C-11.339,-13.801 -7.398,-7.398 0,-0" style="fill:none;stroke:black;stroke-width:0.99px;"/>
        </g>
        <g transform="matrix(1.37357,0,0,-1.37357,-33.0505,45.8136)">
            <g transform="matrix(7.08661,0,0,7.08661,51.7244,11.1468)">
                <path d="M0.074,-0.716L0.621,-0.716L0.621,-0.562L0.296,-0.562L0.296,-0.437L0.574,-0.437L0.574,-0.292L0.296,-0.292L0.296,-0L0.074,-0L0.074,-0.716Z" style="fill-rule:nonzero;"/>
            </g>
            <g transform="matrix(7.08661,0,0,7.08661,56.4511,11.1468)">
                <path d="M0.044,-0.716L0.625,-0.716L0.625,-0.582C0.575,-0.536 0.532,-0.487 0.499,-0.434C0.458,-0.369 0.425,-0.297 0.401,-0.218C0.382,-0.157 0.37,-0.084 0.363,-0L0.165,-0C0.181,-0.117 0.205,-0.215 0.239,-0.294C0.272,-0.373 0.325,-0.458 0.398,-0.548L0.044,-0.548L0.044,-0.716Z" style="fill-rule:nonzero;"/>
            </g>
            <g transform="matrix(7.08661,0,0,7.08661,63.5412,11.1468)">
                <path d="M0.045,-0.357C0.045,-0.474 0.078,-0.565 0.143,-0.63C0.208,-0.695 0.299,-0.728 0.415,-0.728C0.534,-0.728 0.626,-0.696 0.69,-0.632C0.755,-0.568 0.787,-0.479 0.787,-0.363C0.787,-0.28 0.773,-0.211 0.745,-0.157C0.717,-0.104 0.676,-0.062 0.623,-0.032C0.569,-0.003 0.503,0.012 0.424,0.012C0.343,0.012 0.276,-0.001 0.223,-0.026C0.17,-0.052 0.128,-0.093 0.095,-0.148C0.062,-0.204 0.045,-0.274 0.045,-0.357ZM0.267,-0.356C0.267,-0.284 0.28,-0.232 0.307,-0.201C0.334,-0.169 0.37,-0.153 0.417,-0.153C0.464,-0.153 0.501,-0.169 0.527,-0.2C0.553,-0.231 0.566,-0.286 0.566,-0.366C0.566,-0.434 0.552,-0.483 0.525,-0.514C0.498,-0.545 0.461,-0.561 0.415,-0.561C0.37,-0.561 0.334,-0.545 0.307,-0.513C0.28,-0.482 0.267,-0.429 0.267,-0.356Z" style="fill-rule:nonzero;"/>
            </g>
            <g transform="matrix(7.08661,0,0,7.08661,69.4444,11.1468)">
                <path d="M0.061,0.197L0.061,-0.519L0.247,-0.519L0.247,-0.442C0.273,-0.474 0.296,-0.496 0.318,-0.507C0.347,-0.523 0.379,-0.53 0.414,-0.53C0.483,-0.53 0.537,-0.504 0.575,-0.451C0.613,-0.398 0.632,-0.332 0.632,-0.254C0.632,-0.168 0.611,-0.102 0.57,-0.056C0.528,-0.011 0.476,0.012 0.413,0.012C0.382,0.012 0.354,0.007 0.329,-0.004C0.304,-0.014 0.282,-0.03 0.262,-0.05L0.262,0.197L0.061,0.197ZM0.26,-0.258C0.26,-0.217 0.269,-0.186 0.286,-0.167C0.303,-0.147 0.325,-0.137 0.352,-0.137C0.375,-0.137 0.394,-0.146 0.41,-0.165C0.425,-0.184 0.433,-0.217 0.433,-0.262C0.433,-0.304 0.425,-0.335 0.409,-0.354C0.392,-0.374 0.373,-0.384 0.349,-0.384C0.324,-0.384 0.303,-0.374 0.286,-0.354C0.269,-0.335 0.26,-0.302 0.26,-0.258Z" style="fill-rule:nonzero;"/>
            </g>
            <g transform="matrix(7.08661,0,0,7.08661,74.1711,11.1468)">
                <path d="M0.3,-0.716L0.3,-0.519L0.409,-0.519L0.409,-0.374L0.3,-0.374L0.3,-0.189C0.3,-0.167 0.302,-0.153 0.306,-0.146C0.313,-0.134 0.324,-0.129 0.34,-0.129C0.355,-0.129 0.375,-0.133 0.402,-0.142L0.417,-0.004C0.367,0.006 0.321,0.012 0.279,0.012C0.229,0.012 0.193,0.005 0.169,-0.007C0.146,-0.02 0.129,-0.039 0.117,-0.065C0.106,-0.091 0.101,-0.133 0.101,-0.191L0.101,-0.374L0.027,-0.374L0.027,-0.519L0.101,-0.519L0.101,-0.614L0.3,-0.716Z" style="fill-rule:nonzero;"/>
            </g>
            <g transform="matrix(7.08661,0,0,7.08661,77.3165,11.1468)">
                <path d="M0.067,-0.716L0.266,-0.716L0.266,-0.581L0.067,-0.581L0.067,-0.716ZM0.067,-0.519L0.266,-0.519L0.266,-0L0.067,-0L0.067,-0.519Z" style="fill-rule:nonzero;"/>
            </g>
            <g transform="matrix(7.08661,0,0,7.08661,79.6764,11.1468)">
                <path d="M0.036,-0.258C0.036,-0.337 0.062,-0.402 0.116,-0.453C0.169,-0.505 0.241,-0.53 0.332,-0.53C0.436,-0.53 0.514,-0.5 0.567,-0.44C0.61,-0.391 0.631,-0.332 0.631,-0.261C0.631,-0.181 0.605,-0.116 0.552,-0.064C0.499,-0.014 0.426,0.012 0.333,0.012C0.249,0.012 0.182,-0.009 0.13,-0.052C0.067,-0.104 0.036,-0.173 0.036,-0.258ZM0.235,-0.258C0.235,-0.212 0.244,-0.178 0.263,-0.156C0.282,-0.134 0.305,-0.123 0.333,-0.123C0.362,-0.123 0.386,-0.133 0.404,-0.155C0.422,-0.177 0.432,-0.212 0.432,-0.26C0.432,-0.305 0.422,-0.339 0.404,-0.36C0.385,-0.382 0.362,-0.394 0.335,-0.394C0.306,-0.394 0.282,-0.382 0.263,-0.36C0.244,-0.338 0.235,-0.304 0.235,-0.258Z" style="fill-rule:nonzero;"/>
            </g>
            <g transform="matrix(7.08661,0,0,7.08661,84.4031,11.1468)">
                <path d="M0.06,-0.519L0.245,-0.519L0.245,-0.434C0.273,-0.469 0.301,-0.493 0.329,-0.508C0.357,-0.523 0.392,-0.53 0.433,-0.53C0.488,-0.53 0.531,-0.514 0.562,-0.481C0.593,-0.448 0.608,-0.398 0.608,-0.33L0.608,-0L0.409,-0L0.409,-0.285C0.409,-0.318 0.403,-0.341 0.391,-0.354C0.379,-0.368 0.362,-0.375 0.34,-0.375C0.316,-0.375 0.296,-0.365 0.281,-0.347C0.266,-0.329 0.259,-0.296 0.259,-0.249L0.259,-0L0.06,-0L0.06,-0.519Z" style="fill-rule:nonzero;"/>
            </g>
        </g>
    </g>
    <g id="Sketch7" serif:id="Sketch" transform="matrix(1,0,0,-1,174.898,110.551)">
        <g id="Sketch_w00007" serif:id="Sketch_w0000" transform="matrix(1,0,0,1,0,5.76108)">
            <path d="M0,-0L38.743,38.743L113.578,38.743L74.835,0C67.436,-7.398 63.496,-13.801 63.496,-18.425L63.496,-24.186L-11.339,-24.186L-11.339,-18.425C-11.339,-13.801 -7.398,-7.398 0,-0" style="fill:none;stroke:black;stroke-width:0.99px;"/>
        </g>
        <g transform="matrix(1.37357,0,0,-1.37357,-33.0505,45.8136)">
            <g transform="matrix(7.08661,0,0,7.08661,51.7244,11.1468)">
                <path d="M0.074,-0.716L0.621,-0.716L0.621,-0.562L0.296,-0.562L0.296,-0.437L0.574,-0.437L0.574,-0.292L0.296,-0.292L0.296,-0L0.074,-0L0.074,-0.716Z" style="fill-rule:nonzero;"/>
            </g>
            <g transform="matrix(7.08661,0,0,7.08661,56.4511,11.1468)">
                <path d="M0.161,-0.385C0.129,-0.401 0.107,-0.42 0.092,-0.44C0.073,-0.468 0.063,-0.501 0.063,-0.537C0.063,-0.597 0.091,-0.646 0.147,-0.684C0.191,-0.713 0.25,-0.728 0.322,-0.728C0.417,-0.728 0.488,-0.71 0.534,-0.673C0.58,-0.637 0.603,-0.591 0.603,-0.536C0.603,-0.503 0.593,-0.473 0.575,-0.445C0.562,-0.424 0.54,-0.404 0.511,-0.385C0.549,-0.366 0.578,-0.342 0.597,-0.311C0.616,-0.28 0.626,-0.247 0.626,-0.209C0.626,-0.174 0.618,-0.14 0.601,-0.109C0.585,-0.078 0.565,-0.054 0.541,-0.037C0.517,-0.02 0.487,-0.008 0.451,-0C0.416,0.008 0.378,0.012 0.337,0.012C0.262,0.012 0.204,0.003 0.164,-0.015C0.124,-0.033 0.093,-0.059 0.072,-0.094C0.051,-0.129 0.041,-0.167 0.041,-0.21C0.041,-0.252 0.051,-0.288 0.07,-0.317C0.09,-0.346 0.12,-0.369 0.161,-0.385ZM0.25,-0.525C0.25,-0.501 0.258,-0.481 0.273,-0.465C0.289,-0.45 0.309,-0.443 0.335,-0.443C0.358,-0.443 0.376,-0.45 0.391,-0.465C0.406,-0.48 0.413,-0.5 0.413,-0.523C0.413,-0.548 0.405,-0.568 0.39,-0.583C0.375,-0.599 0.355,-0.607 0.332,-0.607C0.307,-0.607 0.288,-0.599 0.272,-0.584C0.257,-0.569 0.25,-0.549 0.25,-0.525ZM0.239,-0.217C0.239,-0.186 0.249,-0.16 0.268,-0.14C0.287,-0.12 0.309,-0.11 0.334,-0.11C0.358,-0.11 0.379,-0.12 0.398,-0.14C0.417,-0.161 0.426,-0.187 0.426,-0.218C0.426,-0.249 0.417,-0.275 0.397,-0.295C0.379,-0.316 0.357,-0.326 0.332,-0.326C0.307,-0.326 0.285,-0.316 0.267,-0.296C0.248,-0.277 0.239,-0.25 0.239,-0.217Z" style="fill-rule:nonzero;"/>
            </g>
            <g transform="matrix(7.08661,0,0,7.08661,63.5412,11.1468)">
                <path d="M0.076,-0L0.076,-0.716L0.445,-0.716C0.513,-0.716 0.565,-0.71 0.602,-0.698C0.638,-0.687 0.667,-0.665 0.689,-0.633C0.711,-0.601 0.722,-0.563 0.722,-0.517C0.722,-0.477 0.714,-0.443 0.697,-0.414C0.68,-0.385 0.657,-0.362 0.627,-0.344C0.608,-0.333 0.582,-0.323 0.549,-0.316C0.576,-0.307 0.595,-0.298 0.607,-0.29C0.615,-0.284 0.627,-0.271 0.642,-0.252C0.658,-0.233 0.668,-0.218 0.673,-0.208L0.78,-0L0.53,-0L0.412,-0.219C0.397,-0.247 0.384,-0.265 0.372,-0.274C0.356,-0.285 0.338,-0.291 0.318,-0.291L0.298,-0.291L0.298,-0L0.076,-0ZM0.298,-0.426L0.392,-0.426C0.402,-0.426 0.421,-0.429 0.45,-0.436C0.465,-0.438 0.477,-0.446 0.486,-0.458C0.495,-0.47 0.5,-0.484 0.5,-0.5C0.5,-0.523 0.493,-0.54 0.478,-0.553C0.463,-0.565 0.436,-0.571 0.396,-0.571L0.298,-0.571L0.298,-0.426Z" style="fill-rule:nonzero;"/>
            </g>
            <g transform="matrix(7.08661,0,0,7.08661,68.8769,11.1468)">
                <path d="M0.636,-0.21L0.237,-0.21C0.241,-0.178 0.25,-0.154 0.263,-0.139C0.282,-0.116 0.307,-0.105 0.338,-0.105C0.358,-0.105 0.376,-0.11 0.394,-0.12C0.405,-0.126 0.416,-0.137 0.429,-0.152L0.625,-0.134C0.595,-0.082 0.558,-0.045 0.516,-0.022C0.474,0 0.413,0.012 0.334,0.012C0.265,0.012 0.211,0.002 0.172,-0.017C0.132,-0.037 0.1,-0.067 0.074,-0.109C0.048,-0.152 0.035,-0.201 0.035,-0.258C0.035,-0.339 0.061,-0.405 0.113,-0.455C0.165,-0.505 0.237,-0.53 0.328,-0.53C0.402,-0.53 0.461,-0.519 0.504,-0.497C0.547,-0.474 0.58,-0.442 0.602,-0.399C0.625,-0.356 0.636,-0.301 0.636,-0.232L0.636,-0.21ZM0.434,-0.305C0.43,-0.344 0.419,-0.371 0.402,-0.388C0.386,-0.404 0.364,-0.413 0.336,-0.413C0.305,-0.413 0.28,-0.4 0.261,-0.375C0.249,-0.359 0.241,-0.336 0.238,-0.305L0.434,-0.305Z" style="fill-rule:nonzero;"/>
            </g>
            <g transform="matrix(7.08661,0,0,7.08661,73.6036,11.1468)">
                <path d="M0.025,-0.144L0.222,-0.162C0.23,-0.139 0.242,-0.122 0.256,-0.112C0.271,-0.102 0.291,-0.097 0.315,-0.097C0.342,-0.097 0.362,-0.102 0.377,-0.114C0.388,-0.122 0.394,-0.133 0.394,-0.146C0.394,-0.16 0.387,-0.171 0.372,-0.179C0.361,-0.184 0.332,-0.191 0.286,-0.199C0.217,-0.211 0.169,-0.222 0.142,-0.232C0.115,-0.243 0.093,-0.26 0.074,-0.285C0.056,-0.309 0.047,-0.337 0.047,-0.368C0.047,-0.402 0.057,-0.432 0.077,-0.457C0.097,-0.481 0.124,-0.5 0.159,-0.512C0.194,-0.524 0.24,-0.53 0.299,-0.53C0.361,-0.53 0.406,-0.526 0.436,-0.516C0.465,-0.507 0.49,-0.492 0.509,-0.472C0.529,-0.452 0.546,-0.425 0.559,-0.392L0.37,-0.373C0.365,-0.39 0.357,-0.402 0.346,-0.41C0.33,-0.42 0.311,-0.425 0.289,-0.425C0.267,-0.425 0.25,-0.421 0.24,-0.413C0.23,-0.405 0.225,-0.396 0.225,-0.384C0.225,-0.372 0.231,-0.362 0.244,-0.355C0.257,-0.349 0.285,-0.343 0.329,-0.338C0.395,-0.33 0.444,-0.32 0.477,-0.307C0.509,-0.293 0.533,-0.274 0.55,-0.25C0.568,-0.225 0.576,-0.198 0.576,-0.168C0.576,-0.138 0.567,-0.109 0.549,-0.081C0.531,-0.052 0.502,-0.03 0.463,-0.013C0.425,0.004 0.372,0.012 0.305,0.012C0.21,0.012 0.142,-0.001 0.102,-0.028C0.062,-0.055 0.036,-0.094 0.025,-0.144Z" style="fill-rule:nonzero;"/>
            </g>
            <g transform="matrix(7.08661,0,0,7.08661,77.9324,11.1468)">
                <path d="M0.636,-0.21L0.237,-0.21C0.241,-0.178 0.25,-0.154 0.263,-0.139C0.282,-0.116 0.307,-0.105 0.338,-0.105C0.358,-0.105 0.376,-0.11 0.394,-0.12C0.405,-0.126 0.416,-0.137 0.429,-0.152L0.625,-0.134C0.595,-0.082 0.558,-0.045 0.516,-0.022C0.474,0 0.413,0.012 0.334,0.012C0.265,0.012 0.211,0.002 0.172,-0.017C0.132,-0.037 0.1,-0.067 0.074,-0.109C0.048,-0.152 0.035,-0.201 0.035,-0.258C0.035,-0.339 0.061,-0.405 0.113,-0.455C0.165,-0.505 0.237,-0.53 0.328,-0.53C0.402,-0.53 0.461,-0.519 0.504,-0.497C0.547,-0.474 0.58,-0.442 0.602,-0.399C0.625,-0.356 0.636,-0.301 0.636,-0.232L0.636,-0.21ZM0.434,-0.305C0.43,-0.344 0.419,-0.371 0.402,-0.388C0.386,-0.404 0.364,-0.413 0.336,-0.413C0.305,-0.413 0.28,-0.4 0.261,-0.375C0.249,-0.359 0.241,-0.336 0.238,-0.305L0.434,-0.305Z" style="fill-rule:nonzero;"/>
            </g>
            <g transform="matrix(7.08661,0,0,7.08661,82.6592,11.1468)">
                <path d="M0.3,-0.716L0.3,-0.519L0.409,-0.519L0.409,-0.374L0.3,-0.374L0.3,-0.189C0.3,-0.167 0.302,-0.153 0.306,-0.146C0.313,-0.134 0.324,-0.129 0.34,-0.129C0.355,-0.129 0.375,-0.133 0.402,-0.142L0.417,-0.004C0.367,0.006 0.321,0.012 0.279,0.012C0.229,0.012 0.193,0.005 0.169,-0.007C0.146,-0.02 0.129,-0.039 0.117,-0.065C0.106,-0.091 0.101,-0.133 0.101,-0.191L0.101,-0.374L0.027,-0.374L0.027,-0.519L0.101,-0.519L0.101,-0.614L0.3,-0.716Z" style="fill-rule:nonzero;"/>
            </g>
        </g>
    </g>
    <g id="Sketch8" serif:id="Sketch" transform="matrix(1,0,0,-1,255.969,110.551)">
        <g id="Sketch_w00008" serif:id="Sketch_w0000" transform="matrix(1,0,0,1,0,5.76108)">
            <path d="M0,-0L38.743,38.743L113.578,38.743L74.835,0C67.436,-7.398 63.496,-13.801 63.496,-18.425L63.496,-24.186L-11.339,-24.186L-11.339,-18.425C-11.339,-13.801 -7.398,-7.398 0,-0" style="fill:none;stroke:black;stroke-width:0.99px;"/>
        </g>
        <g transform="matrix(1.37357,0,0,-1.37357,-33.0505,45.8136)">
            <g transform="matrix(7.08661,0,0,7.08661,51.7244,11.1468)">
                <path d="M0.074,-0.716L0.621,-0.716L0.621,-0.562L0.296,-0.562L0.296,-0.437L0.574,-0.437L0.574,-0.292L0.296,-0.292L0.296,-0L0.074,-0L0.074,-0.716Z" style="fill-rule:nonzero;"/>
            </g>
            <g transform="matrix(7.08661,0,0,7.08661,56.4511,11.1468)">
                <path d="M0.05,-0.161L0.248,-0.186C0.253,-0.158 0.262,-0.138 0.274,-0.127C0.286,-0.116 0.301,-0.11 0.319,-0.11C0.351,-0.11 0.376,-0.126 0.394,-0.158C0.407,-0.182 0.417,-0.232 0.423,-0.309C0.4,-0.285 0.375,-0.267 0.35,-0.255C0.325,-0.244 0.296,-0.238 0.263,-0.238C0.199,-0.238 0.145,-0.261 0.101,-0.307C0.057,-0.352 0.035,-0.41 0.035,-0.479C0.035,-0.527 0.046,-0.57 0.068,-0.609C0.091,-0.648 0.122,-0.678 0.161,-0.698C0.201,-0.718 0.25,-0.728 0.31,-0.728C0.381,-0.728 0.439,-0.716 0.482,-0.691C0.525,-0.667 0.56,-0.627 0.585,-0.574C0.611,-0.52 0.625,-0.45 0.625,-0.362C0.625,-0.233 0.597,-0.138 0.543,-0.078C0.489,-0.018 0.413,0.012 0.317,0.012C0.26,0.012 0.215,0.006 0.182,-0.007C0.149,-0.021 0.122,-0.04 0.1,-0.065C0.078,-0.091 0.062,-0.123 0.05,-0.161ZM0.416,-0.48C0.416,-0.519 0.406,-0.549 0.387,-0.571C0.367,-0.593 0.343,-0.604 0.315,-0.604C0.289,-0.604 0.267,-0.594 0.25,-0.574C0.232,-0.554 0.224,-0.525 0.224,-0.485C0.224,-0.445 0.233,-0.414 0.25,-0.393C0.269,-0.372 0.291,-0.361 0.318,-0.361C0.346,-0.361 0.37,-0.372 0.388,-0.392C0.407,-0.413 0.416,-0.442 0.416,-0.48Z" style="fill-rule:nonzero;"/>
            </g>
            <g transform="matrix(7.08661,0,0,7.08661,63.5412,11.1468)">
                <path d="M0.074,-0.716L0.488,-0.716C0.557,-0.716 0.61,-0.699 0.646,-0.665C0.684,-0.63 0.702,-0.588 0.702,-0.538C0.702,-0.495 0.689,-0.459 0.663,-0.429C0.645,-0.409 0.619,-0.393 0.585,-0.381C0.637,-0.368 0.675,-0.347 0.699,-0.317C0.723,-0.287 0.735,-0.249 0.735,-0.204C0.735,-0.167 0.727,-0.133 0.709,-0.104C0.692,-0.074 0.669,-0.05 0.639,-0.033C0.62,-0.022 0.592,-0.015 0.555,-0.01C0.505,-0.003 0.472,-0 0.456,-0L0.074,-0L0.074,-0.716ZM0.297,-0.435L0.393,-0.435C0.428,-0.435 0.451,-0.441 0.465,-0.453C0.479,-0.465 0.485,-0.482 0.485,-0.504C0.485,-0.525 0.479,-0.542 0.465,-0.553C0.451,-0.565 0.428,-0.571 0.395,-0.571L0.297,-0.571L0.297,-0.435ZM0.297,-0.154L0.41,-0.154C0.448,-0.154 0.475,-0.16 0.49,-0.174C0.506,-0.188 0.514,-0.206 0.514,-0.229C0.514,-0.25 0.506,-0.267 0.49,-0.279C0.475,-0.292 0.448,-0.299 0.409,-0.299L0.297,-0.299L0.297,-0.154Z" style="fill-rule:nonzero;"/>
            </g>
            <g transform="matrix(7.08661,0,0,7.08661,69.0534,11.1468)">
                <path d="M0.062,-0.519L0.248,-0.519L0.248,-0.434C0.266,-0.47 0.284,-0.496 0.303,-0.509C0.322,-0.523 0.346,-0.53 0.374,-0.53C0.403,-0.53 0.435,-0.521 0.47,-0.503L0.409,-0.361C0.385,-0.371 0.367,-0.376 0.353,-0.376C0.327,-0.376 0.307,-0.365 0.292,-0.344C0.272,-0.313 0.262,-0.257 0.262,-0.174L0.262,-0L0.062,-0L0.062,-0.519Z" style="fill-rule:nonzero;"/>
            </g>
            <g transform="matrix(7.08661,0,0,7.08661,72.313,11.1468)">
                <path d="M0.636,-0.21L0.237,-0.21C0.241,-0.178 0.25,-0.154 0.263,-0.139C0.282,-0.116 0.307,-0.105 0.338,-0.105C0.358,-0.105 0.376,-0.11 0.394,-0.12C0.405,-0.126 0.416,-0.137 0.429,-0.152L0.625,-0.134C0.595,-0.082 0.558,-0.045 0.516,-0.022C0.474,0 0.413,0.012 0.334,0.012C0.265,0.012 0.211,0.002 0.172,-0.017C0.132,-0.037 0.1,-0.067 0.074,-0.109C0.048,-0.152 0.035,-0.201 0.035,-0.258C0.035,-0.339 0.061,-0.405 0.113,-0.455C0.165,-0.505 0.237,-0.53 0.328,-0.53C0.402,-0.53 0.461,-0.519 0.504,-0.497C0.547,-0.474 0.58,-0.442 0.602,-0.399C0.625,-0.356 0.636,-0.301 0.636,-0.232L0.636,-0.21ZM0.434,-0.305C0.43,-0.344 0.419,-0.371 0.402,-0.388C0.386,-0.404 0.364,-0.413 0.336,-0.413C0.305,-0.413 0.28,-0.4 0.261,-0.375C0.249,-0.359 0.241,-0.336 0.238,-0.305L0.434,-0.305Z" style="fill-rule:nonzero;"/>
            </g>
            <g transform="matrix(7.08661,0,0,7.08661,77.0397,11.1468)">
                <path d="M0.241,-0.351L0.051,-0.371C0.058,-0.404 0.069,-0.43 0.082,-0.449C0.096,-0.468 0.115,-0.485 0.141,-0.499C0.159,-0.509 0.184,-0.516 0.216,-0.522C0.248,-0.528 0.282,-0.53 0.319,-0.53C0.379,-0.53 0.427,-0.527 0.463,-0.52C0.499,-0.514 0.529,-0.5 0.553,-0.479C0.57,-0.464 0.583,-0.443 0.593,-0.416C0.603,-0.389 0.608,-0.364 0.608,-0.339L0.608,-0.11C0.608,-0.086 0.609,-0.067 0.612,-0.053C0.616,-0.039 0.622,-0.021 0.633,-0L0.446,-0C0.439,-0.013 0.434,-0.023 0.432,-0.03C0.429,-0.037 0.427,-0.049 0.425,-0.063C0.399,-0.038 0.373,-0.021 0.347,-0.01C0.312,0.005 0.271,0.012 0.225,0.012C0.163,0.012 0.116,-0.003 0.083,-0.031C0.052,-0.06 0.036,-0.095 0.036,-0.137C0.036,-0.177 0.047,-0.209 0.07,-0.234C0.093,-0.26 0.136,-0.279 0.198,-0.291C0.273,-0.306 0.321,-0.316 0.343,-0.322C0.365,-0.328 0.389,-0.336 0.414,-0.346C0.414,-0.371 0.409,-0.388 0.398,-0.397C0.388,-0.407 0.371,-0.412 0.345,-0.412C0.313,-0.412 0.288,-0.407 0.272,-0.396C0.259,-0.388 0.249,-0.373 0.241,-0.351ZM0.414,-0.246C0.386,-0.236 0.358,-0.228 0.328,-0.22C0.288,-0.209 0.262,-0.199 0.251,-0.188C0.24,-0.178 0.235,-0.166 0.235,-0.152C0.235,-0.136 0.24,-0.123 0.251,-0.113C0.262,-0.104 0.278,-0.099 0.299,-0.099C0.321,-0.099 0.342,-0.104 0.361,-0.115C0.38,-0.125 0.394,-0.139 0.401,-0.154C0.41,-0.169 0.414,-0.19 0.414,-0.214L0.414,-0.246Z" style="fill-rule:nonzero;"/>
            </g>
            <g transform="matrix(7.08661,0,0,7.08661,81.7664,11.1468)">
                <path d="M0.06,-0.716L0.263,-0.716L0.263,-0.347L0.412,-0.519L0.656,-0.519L0.47,-0.337L0.667,-0L0.443,-0L0.338,-0.208L0.263,-0.135L0.263,-0L0.06,-0L0.06,-0.716Z" style="fill-rule:nonzero;"/>
            </g>
        </g>
    </g>
    <g id="Sketch9" serif:id="Sketch" transform="matrix(1,0,0,-1,337.039,110.551)">
        <g id="Sketch_w00009" serif:id="Sketch_w0000" transform="matrix(1,0,0,1,0,5.76108)">
            <path d="M0,-0L38.743,38.743L113.578,38.743L74.835,0C67.436,-7.398 63.496,-13.801 63.496,-18.425L63.496,-24.186L-11.339,-24.186L-11.339,-18.425C-11.339,-13.801 -7.398,-7.398 0,-0" style="fill:none;stroke:black;stroke-width:0.99px;"/>
        </g>
        <g transform="matrix(1.37357,0,0,-1.37357,-33.0505,45.8136)">
            <g transform="matrix(7.08661,0,0,7.08661,51.7244,11.1468)">
                <path d="M0.074,-0.716L0.621,-0.716L0.621,-0.562L0.296,-0.562L0.296,-0.437L0.574,-0.437L0.574,-0.292L0.296,-0.292L0.296,-0L0.074,-0L0.074,-0.716Z" style="fill-rule:nonzero;"/>
            </g>
            <g transform="matrix(7.08661,0,0,7.08661,56.4511,11.1468)">
                <path d="M0.492,-0.728L0.492,-0L0.291,-0L0.291,-0.477C0.258,-0.452 0.226,-0.432 0.196,-0.417C0.166,-0.402 0.127,-0.387 0.082,-0.373L0.082,-0.536C0.149,-0.558 0.202,-0.584 0.239,-0.615C0.277,-0.645 0.306,-0.683 0.327,-0.728L0.492,-0.728Z" style="fill-rule:nonzero;"/>
            </g>
            <g transform="matrix(7.08661,0,0,7.08661,61.1779,11.1468)">
                <path d="M0.041,-0.361C0.041,-0.497 0.065,-0.592 0.114,-0.646C0.163,-0.701 0.238,-0.728 0.338,-0.728C0.387,-0.728 0.426,-0.722 0.457,-0.71C0.488,-0.698 0.513,-0.683 0.533,-0.664C0.552,-0.645 0.568,-0.625 0.579,-0.604C0.59,-0.583 0.599,-0.558 0.606,-0.53C0.619,-0.477 0.626,-0.421 0.626,-0.363C0.626,-0.233 0.604,-0.138 0.56,-0.078C0.516,-0.018 0.44,0.012 0.333,0.012C0.273,0.012 0.224,0.003 0.187,-0.017C0.15,-0.036 0.119,-0.064 0.096,-0.101C0.078,-0.127 0.065,-0.163 0.055,-0.209C0.046,-0.255 0.041,-0.306 0.041,-0.361ZM0.238,-0.36C0.238,-0.269 0.246,-0.207 0.262,-0.173C0.278,-0.14 0.302,-0.124 0.333,-0.124C0.353,-0.124 0.37,-0.131 0.385,-0.145C0.4,-0.159 0.411,-0.181 0.417,-0.212C0.425,-0.243 0.428,-0.29 0.428,-0.355C0.428,-0.45 0.42,-0.514 0.404,-0.546C0.388,-0.579 0.364,-0.596 0.332,-0.596C0.299,-0.596 0.275,-0.579 0.26,-0.545C0.246,-0.512 0.238,-0.451 0.238,-0.36Z" style="fill-rule:nonzero;"/>
            </g>
            <g transform="matrix(7.08661,0,0,7.08661,68.2679,11.1468)">
                <path d="M0.074,-0.716L0.295,-0.716L0.295,-0.465L0.537,-0.465L0.537,-0.716L0.759,-0.716L0.759,-0L0.537,-0L0.537,-0.29L0.295,-0.29L0.295,-0L0.074,-0L0.074,-0.716Z" style="fill-rule:nonzero;"/>
            </g>
            <g transform="matrix(7.08661,0,0,7.08661,74.1711,11.1468)">
                <path d="M0.636,-0.21L0.237,-0.21C0.241,-0.178 0.25,-0.154 0.263,-0.139C0.282,-0.116 0.307,-0.105 0.338,-0.105C0.358,-0.105 0.376,-0.11 0.394,-0.12C0.405,-0.126 0.416,-0.137 0.429,-0.152L0.625,-0.134C0.595,-0.082 0.558,-0.045 0.516,-0.022C0.474,0 0.413,0.012 0.334,0.012C0.265,0.012 0.211,0.002 0.172,-0.017C0.132,-0.037 0.1,-0.067 0.074,-0.109C0.048,-0.152 0.035,-0.201 0.035,-0.258C0.035,-0.339 0.061,-0.405 0.113,-0.455C0.165,-0.505 0.237,-0.53 0.328,-0.53C0.402,-0.53 0.461,-0.519 0.504,-0.497C0.547,-0.474 0.58,-0.442 0.602,-0.399C0.625,-0.356 0.636,-0.301 0.636,-0.232L0.636,-0.21ZM0.434,-0.305C0.43,-0.344 0.419,-0.371 0.402,-0.388C0.386,-0.404 0.364,-0.413 0.336,-0.413C0.305,-0.413 0.28,-0.4 0.261,-0.375C0.249,-0.359 0.241,-0.336 0.238,-0.305L0.434,-0.305Z" style="fill-rule:nonzero;"/>
            </g>
            <g transform="matrix(7.08661,0,0,7.08661,78.8978,11.1468)">
                <rect x="0.067" y="-0.716" width="0.199" height="0.716" style="fill-rule:nonzero;"/>
            </g>
            <g transform="matrix(7.08661,0,0,7.08661,81.2577,11.1468)">
                <path d="M0.061,0.197L0.061,-0.519L0.247,-0.519L0.247,-0.442C0.273,-0.474 0.296,-0.496 0.318,-0.507C0.347,-0.523 0.379,-0.53 0.414,-0.53C0.483,-0.53 0.537,-0.504 0.575,-0.451C0.613,-0.398 0.632,-0.332 0.632,-0.254C0.632,-0.168 0.611,-0.102 0.57,-0.056C0.528,-0.011 0.476,0.012 0.413,0.012C0.382,0.012 0.354,0.007 0.329,-0.004C0.304,-0.014 0.282,-0.03 0.262,-0.05L0.262,0.197L0.061,0.197ZM0.26,-0.258C0.26,-0.217 0.269,-0.186 0.286,-0.167C0.303,-0.147 0.325,-0.137 0.352,-0.137C0.375,-0.137 0.394,-0.146 0.41,-0.165C0.425,-0.184 0.433,-0.217 0.433,-0.262C0.433,-0.304 0.425,-0.335 0.409,-0.354C0.392,-0.374 0.373,-0.384 0.349,-0.384C0.324,-0.384 0.303,-0.374 0.286,-0.354C0.269,-0.335 0.26,-0.302 0.26,-0.258Z" style="fill-rule:nonzero;"/>
            </g>
        </g>
    </g>
    <g id="Sketch10" serif:id="Sketch" transform="matrix(1,0,0,-1,418.11,110.551)">
        <g id="Sketch_w000010" serif:id="Sketch_w0000" transform="matrix(1,0,0,1,0,5.76108)">
            <path d="M0,-0L38.743,38.743L113.578,38.743L74.835,0C67.436,-7.398 63.496,-13.801 63.496,-18.425L63.496,-24.186L-11.339,-24.186L-11.339,-18.425C-11.339,-13.801 -7.398,-7.398 0,-0" style="fill:none;stroke:black;stroke-width:0.99px;"/>
        </g>
        <g transform="matrix(1.37357,0,0,-1.37357,-33.0505,45.8136)">
            <g transform="matrix(7.08661,0,0,7.08661,51.7244,11.1468)">
                <path d="M0.073,-0.716L0.666,-0.716L0.666,-0.563L0.294,-0.563L0.294,-0.449L0.639,-0.449L0.639,-0.303L0.294,-0.303L0.294,-0.162L0.676,-0.162L0.676,-0L0.073,-0L0.073,-0.716Z" style="fill-rule:nonzero;"/>
            </g>
            <g transform="matrix(7.08661,0,0,7.08661,56.8421,11.1468)">
                <path d="M0.025,-0.144L0.222,-0.162C0.23,-0.139 0.242,-0.122 0.256,-0.112C0.271,-0.102 0.291,-0.097 0.315,-0.097C0.342,-0.097 0.362,-0.102 0.377,-0.114C0.388,-0.122 0.394,-0.133 0.394,-0.146C0.394,-0.16 0.387,-0.171 0.372,-0.179C0.361,-0.184 0.332,-0.191 0.286,-0.199C0.217,-0.211 0.169,-0.222 0.142,-0.232C0.115,-0.243 0.093,-0.26 0.074,-0.285C0.056,-0.309 0.047,-0.337 0.047,-0.368C0.047,-0.402 0.057,-0.432 0.077,-0.457C0.097,-0.481 0.124,-0.5 0.159,-0.512C0.194,-0.524 0.24,-0.53 0.299,-0.53C0.361,-0.53 0.406,-0.526 0.436,-0.516C0.465,-0.507 0.49,-0.492 0.509,-0.472C0.529,-0.452 0.546,-0.425 0.559,-0.392L0.37,-0.373C0.365,-0.39 0.357,-0.402 0.346,-0.41C0.33,-0.42 0.311,-0.425 0.289,-0.425C0.267,-0.425 0.25,-0.421 0.24,-0.413C0.23,-0.405 0.225,-0.396 0.225,-0.384C0.225,-0.372 0.231,-0.362 0.244,-0.355C0.257,-0.349 0.285,-0.343 0.329,-0.338C0.395,-0.33 0.444,-0.32 0.477,-0.307C0.509,-0.293 0.533,-0.274 0.55,-0.25C0.568,-0.225 0.576,-0.198 0.576,-0.168C0.576,-0.138 0.567,-0.109 0.549,-0.081C0.531,-0.052 0.502,-0.03 0.463,-0.013C0.425,0.004 0.372,0.012 0.305,0.012C0.21,0.012 0.142,-0.001 0.102,-0.028C0.062,-0.055 0.036,-0.094 0.025,-0.144Z" style="fill-rule:nonzero;"/>
            </g>
            <g transform="matrix(7.08661,0,0,7.08661,61.1709,11.1468)">
                <path d="M0.447,-0.203L0.636,-0.181C0.625,-0.142 0.608,-0.108 0.584,-0.079C0.561,-0.05 0.53,-0.028 0.493,-0.012C0.456,0.004 0.41,0.012 0.353,0.012C0.298,0.012 0.252,0.007 0.215,-0.003C0.178,-0.013 0.147,-0.03 0.121,-0.053C0.094,-0.076 0.074,-0.103 0.059,-0.134C0.044,-0.165 0.036,-0.206 0.036,-0.257C0.036,-0.31 0.045,-0.355 0.063,-0.39C0.077,-0.416 0.095,-0.439 0.118,-0.46C0.141,-0.481 0.165,-0.496 0.189,-0.506C0.228,-0.522 0.278,-0.53 0.338,-0.53C0.423,-0.53 0.487,-0.515 0.532,-0.485C0.576,-0.455 0.608,-0.41 0.625,-0.352L0.438,-0.327C0.433,-0.349 0.422,-0.366 0.406,-0.377C0.391,-0.388 0.37,-0.394 0.344,-0.394C0.311,-0.394 0.285,-0.382 0.264,-0.358C0.244,-0.335 0.234,-0.299 0.234,-0.251C0.234,-0.209 0.244,-0.176 0.264,-0.154C0.284,-0.132 0.31,-0.121 0.341,-0.121C0.367,-0.121 0.389,-0.128 0.407,-0.141C0.425,-0.154 0.438,-0.175 0.447,-0.203Z" style="fill-rule:nonzero;"/>
            </g>
        </g>
    </g>
</svg>
