<?xml version="1.0"?>
<!DOCTYPE svg PUBLIC "-//W3C//DTD SVG 1.1//EN" "http://www.w3.org/Graphics/SVG/1.1/DTD/svg11.dtd">
<svg width="99.44999999999999mm" height="26.450000000000003mm" viewBox="0 0 99.44999999999999 26.450000000000003" xmlns="http://www.w3.org/2000/svg" version="1.1">
<g id="Sketch019" transform="translate(-37.281180,-40.514735) scale(1,-1)">
<path id="Sketch019_w0000"  d="M 38.25618 -41.489735 L 38.25618 -44.989735 L 41.75618 -44.989735 L 41.75618 -41.489735 L 38.25618 -41.489735 " stroke="#f1f3f5" stroke-width="0.7 px" style="stroke-width:0.7;stroke-miterlimit:4;stroke-dasharray:none;stroke-linecap:square;fill:none;fill-opacity:1;fill-rule: evenodd"/>
<path id="Sketch019_w0001"  d="M 46.25618 -41.489735 L 46.25618 -44.989735 L 49.75618 -44.989735 L 49.75618 -41.489735 L 46.25618 -41.489735 " stroke="#f1f3f5" stroke-width="0.7 px" style="stroke-width:0.7;stroke-miterlimit:4;stroke-dasharray:none;stroke-linecap:square;fill:none;fill-opacity:1;fill-rule: evenodd"/>
<path id="Sketch019_w0002"  d="M 50.25618 -41.489735 L 50.25618 -44.989735 L 53.75618 -44.989735 L 53.75618 -41.489735 L 50.25618 -41.489735 " stroke="#f1f3f5" stroke-width="0.7 px" style="stroke-width:0.7;stroke-miterlimit:4;stroke-dasharray:none;stroke-linecap:square;fill:none;fill-opacity:1;fill-rule: evenodd"/>
<path id="Sketch019_w0003"  d="M 54.25618 -41.489735 L 54.25618 -44.989735 L 57.75618 -44.989735 L 57.75618 -41.489735 L 54.25618 -41.489735 " stroke="#f1f3f5" stroke-width="0.7 px" style="stroke-width:0.7;stroke-miterlimit:4;stroke-dasharray:none;stroke-linecap:square;fill:none;fill-opacity:1;fill-rule: evenodd"/>
<path id="Sketch019_w0004"  d="M 58.25618 -41.489735 L 58.25618 -44.989735 L 61.75618 -44.989735 L 61.75618 -41.489735 L 58.25618 -41.489735 " stroke="#f1f3f5" stroke-width="0.7 px" style="stroke-width:0.7;stroke-miterlimit:4;stroke-dasharray:none;stroke-linecap:square;fill:none;fill-opacity:1;fill-rule: evenodd"/>
<path id="Sketch019_w0005"  d="M 64.25618 -41.489735 L 64.25618 -44.989735 L 67.75618 -44.989735 L 67.75618 -41.489735 L 64.25618 -41.489735 " stroke="#f1f3f5" stroke-width="0.7 px" style="stroke-width:0.7;stroke-miterlimit:4;stroke-dasharray:none;stroke-linecap:square;fill:none;fill-opacity:1;fill-rule: evenodd"/>
<path id="Sketch019_w0006"  d="M 68.25618 -41.489735 L 68.25618 -44.989735 L 71.75618 -44.989735 L 71.75618 -41.489735 L 68.25618 -41.489735 " stroke="#f1f3f5" stroke-width="0.7 px" style="stroke-width:0.7;stroke-miterlimit:4;stroke-dasharray:none;stroke-linecap:square;fill:none;fill-opacity:1;fill-rule: evenodd"/>
<path id="Sketch019_w0007"  d="M 72.25618 -41.489735 L 72.25618 -44.989735 L 75.75618 -44.989735 L 75.75618 -41.489735 L 72.25618 -41.489735 " stroke="#f1f3f5" stroke-width="0.7 px" style="stroke-width:0.7;stroke-miterlimit:4;stroke-dasharray:none;stroke-linecap:square;fill:none;fill-opacity:1;fill-rule: evenodd"/>
<path id="Sketch019_w0008"  d="M 76.25618 -41.489735 L 76.25618 -44.989735 L 79.75618 -44.989735 L 79.75618 -41.489735 L 76.25618 -41.489735 " stroke="#f1f3f5" stroke-width="0.7 px" style="stroke-width:0.7;stroke-miterlimit:4;stroke-dasharray:none;stroke-linecap:square;fill:none;fill-opacity:1;fill-rule: evenodd"/>
<path id="Sketch019_w0009"  d="M 82.25618 -41.489735 L 82.25618 -44.989735 L 85.75618 -44.989735 L 85.75618 -41.489735 L 82.25618 -41.489735 " stroke="#f1f3f5" stroke-width="0.7 px" style="stroke-width:0.7;stroke-miterlimit:4;stroke-dasharray:none;stroke-linecap:square;fill:none;fill-opacity:1;fill-rule: evenodd"/>
<path id="Sketch019_w0010"  d="M 86.25618 -41.489735 L 86.25618 -44.989735 L 89.75618 -44.989735 L 89.75618 -41.489735 L 86.25618 -41.489735 " stroke="#f1f3f5" stroke-width="0.7 px" style="stroke-width:0.7;stroke-miterlimit:4;stroke-dasharray:none;stroke-linecap:square;fill:none;fill-opacity:1;fill-rule: evenodd"/>
<path id="Sketch019_w0011"  d="M 90.25618 -41.489735 L 90.25618 -44.989735 L 93.75618 -44.989735 L 93.75618 -41.489735 L 90.25618 -41.489735 " stroke="#f1f3f5" stroke-width="0.7 px" style="stroke-width:0.7;stroke-miterlimit:4;stroke-dasharray:none;stroke-linecap:square;fill:none;fill-opacity:1;fill-rule: evenodd"/>
<path id="Sketch019_w0012"  d="M 94.25618 -41.489735 L 94.25618 -44.989735 L 97.75618 -44.989735 L 97.75618 -41.489735 L 94.25618 -41.489735 " stroke="#f1f3f5" stroke-width="0.7 px" style="stroke-width:0.7;stroke-miterlimit:4;stroke-dasharray:none;stroke-linecap:square;fill:none;fill-opacity:1;fill-rule: evenodd"/>
<path id="Sketch019_w0013"  d="M 100.25618 -41.489735 L 100.25618 -44.989735 L 103.75618 -44.989735 L 103.75618 -41.489735 L 100.25618 -41.489735 " stroke="#f1f3f5" stroke-width="0.7 px" style="stroke-width:0.7;stroke-miterlimit:4;stroke-dasharray:none;stroke-linecap:square;fill:none;fill-opacity:1;fill-rule: evenodd"/>
<path id="Sketch019_w0014"  d="M 104.25618 -41.489735 L 104.25618 -44.989735 L 107.75618 -44.989735 L 107.75618 -41.489735 L 104.25618 -41.489735 " stroke="#f1f3f5" stroke-width="0.7 px" style="stroke-width:0.7;stroke-miterlimit:4;stroke-dasharray:none;stroke-linecap:square;fill:none;fill-opacity:1;fill-rule: evenodd"/>
<path id="Sketch019_w0015"  d="M 108.25618 -41.489735 L 108.25618 -44.989735 L 111.75618 -44.989735 L 111.75618 -41.489735 L 108.25618 -41.489735 " stroke="#f1f3f5" stroke-width="0.7 px" style="stroke-width:0.7;stroke-miterlimit:4;stroke-dasharray:none;stroke-linecap:square;fill:none;fill-opacity:1;fill-rule: evenodd"/>
<path id="Sketch019_w0016"  d="M 114.25618 -41.489735 L 114.25618 -44.989735 L 117.75618 -44.989735 L 117.75618 -41.489735 L 114.25618 -41.489735 " stroke="#f1f3f5" stroke-width="0.7 px" style="stroke-width:0.7;stroke-miterlimit:4;stroke-dasharray:none;stroke-linecap:square;fill:none;fill-opacity:1;fill-rule: evenodd"/>
<path id="Sketch019_w0017"  d="M 118.25618 -41.489735 L 118.25618 -44.989735 L 121.75618 -44.989735 L 121.75618 -41.489735 L 118.25618 -41.489735 " stroke="#f1f3f5" stroke-width="0.7 px" style="stroke-width:0.7;stroke-miterlimit:4;stroke-dasharray:none;stroke-linecap:square;fill:none;fill-opacity:1;fill-rule: evenodd"/>
<path id="Sketch019_w0018"  d="M 126.25618 -41.489735 L 126.25618 -44.989735 L 129.75618 -44.989735 L 129.75618 -41.489735 L 126.25618 -41.489735 " stroke="#f1f3f5" stroke-width="0.7 px" style="stroke-width:0.7;stroke-miterlimit:4;stroke-dasharray:none;stroke-linecap:square;fill:none;fill-opacity:1;fill-rule: evenodd"/>
<path id="Sketch019_w0019"  d="M 38.25618 -46.489735 L 38.25618 -49.989735 L 41.75618 -49.989735 L 41.75618 -46.489735 L 38.25618 -46.489735 " stroke="#f1f3f5" stroke-width="0.7 px" style="stroke-width:0.7;stroke-miterlimit:4;stroke-dasharray:none;stroke-linecap:square;fill:none;fill-opacity:1;fill-rule: evenodd"/>
<path id="Sketch019_w0020"  d="M 42.25618 -46.489735 L 42.25618 -49.989735 L 45.75618 -49.989735 L 45.75618 -46.489735 L 42.25618 -46.489735 " stroke="#f1f3f5" stroke-width="0.7 px" style="stroke-width:0.7;stroke-miterlimit:4;stroke-dasharray:none;stroke-linecap:square;fill:none;fill-opacity:1;fill-rule: evenodd"/>
<path id="Sketch019_w0021"  d="M 46.25618 -46.489735 L 46.25618 -49.989735 L 49.75618 -49.989735 L 49.75618 -46.489735 L 46.25618 -46.489735 " stroke="#f1f3f5" stroke-width="0.7 px" style="stroke-width:0.7;stroke-miterlimit:4;stroke-dasharray:none;stroke-linecap:square;fill:none;fill-opacity:1;fill-rule: evenodd"/>
<path id="Sketch019_w0022"  d="M 50.25618 -46.489735 L 50.25618 -49.989735 L 53.75618 -49.989735 L 53.75618 -46.489735 L 50.25618 -46.489735 " stroke="#f1f3f5" stroke-width="0.7 px" style="stroke-width:0.7;stroke-miterlimit:4;stroke-dasharray:none;stroke-linecap:square;fill:none;fill-opacity:1;fill-rule: evenodd"/>
<path id="Sketch019_w0023"  d="M 54.25618 -46.489735 L 54.25618 -49.989735 L 57.75618 -49.989735 L 57.75618 -46.489735 L 54.25618 -46.489735 " stroke="#f1f3f5" stroke-width="0.7 px" style="stroke-width:0.7;stroke-miterlimit:4;stroke-dasharray:none;stroke-linecap:square;fill:none;fill-opacity:1;fill-rule: evenodd"/>
<path id="Sketch019_w0024"  d="M 58.25618 -46.489735 L 58.25618 -49.989735 L 61.75618 -49.989735 L 61.75618 -46.489735 L 58.25618 -46.489735 " stroke="#f1f3f5" stroke-width="0.7 px" style="stroke-width:0.7;stroke-miterlimit:4;stroke-dasharray:none;stroke-linecap:square;fill:none;fill-opacity:1;fill-rule: evenodd"/>
<path id="Sketch019_w0025"  d="M 62.25618 -46.489735 L 62.25618 -49.989735 L 65.75618 -49.989735 L 65.75618 -46.489735 L 62.25618 -46.489735 " stroke="#f1f3f5" stroke-width="0.7 px" style="stroke-width:0.7;stroke-miterlimit:4;stroke-dasharray:none;stroke-linecap:square;fill:none;fill-opacity:1;fill-rule: evenodd"/>
<path id="Sketch019_w0026"  d="M 66.25618 -46.489735 L 66.25618 -49.989735 L 69.75618 -49.989735 L 69.75618 -46.489735 L 66.25618 -46.489735 " stroke="#f1f3f5" stroke-width="0.7 px" style="stroke-width:0.7;stroke-miterlimit:4;stroke-dasharray:none;stroke-linecap:square;fill:none;fill-opacity:1;fill-rule: evenodd"/>
<path id="Sketch019_w0027"  d="M 70.25618 -46.489735 L 70.25618 -49.989735 L 73.75618 -49.989735 L 73.75618 -46.489735 L 70.25618 -46.489735 " stroke="#f1f3f5" stroke-width="0.7 px" style="stroke-width:0.7;stroke-miterlimit:4;stroke-dasharray:none;stroke-linecap:square;fill:none;fill-opacity:1;fill-rule: evenodd"/>
<path id="Sketch019_w0028"  d="M 74.25618 -46.489735 L 74.25618 -49.989735 L 77.75618 -49.989735 L 77.75618 -46.489735 L 74.25618 -46.489735 " stroke="#f1f3f5" stroke-width="0.7 px" style="stroke-width:0.7;stroke-miterlimit:4;stroke-dasharray:none;stroke-linecap:square;fill:none;fill-opacity:1;fill-rule: evenodd"/>
<path id="Sketch019_w0029"  d="M 78.25618 -46.489735 L 78.25618 -49.989735 L 81.75618 -49.989735 L 81.75618 -46.489735 L 78.25618 -46.489735 " stroke="#f1f3f5" stroke-width="0.7 px" style="stroke-width:0.7;stroke-miterlimit:4;stroke-dasharray:none;stroke-linecap:square;fill:none;fill-opacity:1;fill-rule: evenodd"/>
<path id="Sketch019_w0030"  d="M 82.25618 -46.489735 L 82.25618 -49.989735 L 85.75618 -49.989735 L 85.75618 -46.489735 L 82.25618 -46.489735 " stroke="#f1f3f5" stroke-width="0.7 px" style="stroke-width:0.7;stroke-miterlimit:4;stroke-dasharray:none;stroke-linecap:square;fill:none;fill-opacity:1;fill-rule: evenodd"/>
<path id="Sketch019_w0031"  d="M 86.25618 -46.489735 L 86.25618 -49.989735 L 89.75618 -49.989735 L 89.75618 -46.489735 L 86.25618 -46.489735 " stroke="#f1f3f5" stroke-width="0.7 px" style="stroke-width:0.7;stroke-miterlimit:4;stroke-dasharray:none;stroke-linecap:square;fill:none;fill-opacity:1;fill-rule: evenodd"/>
<path id="Sketch019_w0032"  d="M 90.25618 -46.489735 L 90.25618 -49.989735 L 97.75618 -49.989735 L 97.75618 -46.489735 L 90.25618 -46.489735 " stroke="#f1f3f5" stroke-width="0.7 px" style="stroke-width:0.7;stroke-miterlimit:4;stroke-dasharray:none;stroke-linecap:square;fill:none;fill-opacity:1;fill-rule: evenodd"/>
<path id="Sketch019_w0033"  d="M 38.25618 -50.489735 L 38.25618 -53.989735 L 43.75618 -53.989735 L 43.75618 -50.489735 L 38.25618 -50.489735 " stroke="#f1f3f5" stroke-width="0.7 px" style="stroke-width:0.7;stroke-miterlimit:4;stroke-dasharray:none;stroke-linecap:square;fill:none;fill-opacity:1;fill-rule: evenodd"/>
<path id="Sketch019_w0034"  d="M 38.25618 -54.489735 L 38.25618 -57.989735 L 44.75618 -57.989735 L 44.75618 -54.489735 L 38.25618 -54.489735 " stroke="#f1f3f5" stroke-width="0.7 px" style="stroke-width:0.7;stroke-miterlimit:4;stroke-dasharray:none;stroke-linecap:square;fill:none;fill-opacity:1;fill-rule: evenodd"/>
<path id="Sketch019_w0035"  d="M 38.25618 -58.489735 L 38.25618 -61.989735 L 46.75618 -61.989735 L 46.75618 -58.489735 L 38.25618 -58.489735 " stroke="#f1f3f5" stroke-width="0.7 px" style="stroke-width:0.7;stroke-miterlimit:4;stroke-dasharray:none;stroke-linecap:square;fill:none;fill-opacity:1;fill-rule: evenodd"/>
<path id="Sketch019_w0036"  d="M 42.75618 -65.98973500000001 L 42.75618 -62.489735 L 38.25618 -62.489735 L 38.25618 -65.98973500000001 L 42.75618 -65.98973500000001 " stroke="#f1f3f5" stroke-width="0.7 px" style="stroke-width:0.7;stroke-miterlimit:4;stroke-dasharray:none;stroke-linecap:square;fill:none;fill-opacity:1;fill-rule: evenodd"/>
<path id="Sketch019_w0037"  d="M 43.25618 -62.489735 L 43.25618 -65.98973500000001 L 47.75618 -65.98973500000001 L 47.75618 -62.489735 L 43.25618 -62.489735 " stroke="#f1f3f5" stroke-width="0.7 px" style="stroke-width:0.7;stroke-miterlimit:4;stroke-dasharray:none;stroke-linecap:square;fill:none;fill-opacity:1;fill-rule: evenodd"/>
<path id="Sketch019_w0038"  d="M 48.25618 -62.489735 L 48.25618 -65.98973500000001 L 52.75618 -65.98973500000001 L 52.75618 -62.489735 L 48.25618 -62.489735 " stroke="#f1f3f5" stroke-width="0.7 px" style="stroke-width:0.7;stroke-miterlimit:4;stroke-dasharray:none;stroke-linecap:square;fill:none;fill-opacity:1;fill-rule: evenodd"/>
<path id="Sketch019_w0039"  d="M 53.25618 -62.489735 L 53.25618 -65.98973500000001 L 77.75618 -65.98973500000001 L 77.75618 -62.489735 L 53.25618 -62.489735 " stroke="#f1f3f5" stroke-width="0.7 px" style="stroke-width:0.7;stroke-miterlimit:4;stroke-dasharray:none;stroke-linecap:square;fill:none;fill-opacity:1;fill-rule: evenodd"/>
<path id="Sketch019_w0040"  d="M 78.25618 -62.489735 L 78.25618 -65.98973500000001 L 82.75618 -65.98973500000001 L 82.75618 -62.489735 L 78.25618 -62.489735 " stroke="#f1f3f5" stroke-width="0.7 px" style="stroke-width:0.7;stroke-miterlimit:4;stroke-dasharray:none;stroke-linecap:square;fill:none;fill-opacity:1;fill-rule: evenodd"/>
<path id="Sketch019_w0041"  d="M 83.25618 -62.489735 L 83.25618 -65.98973500000001 L 87.75618 -65.98973500000001 L 87.75618 -62.489735 L 83.25618 -62.489735 " stroke="#f1f3f5" stroke-width="0.7 px" style="stroke-width:0.7;stroke-miterlimit:4;stroke-dasharray:none;stroke-linecap:square;fill:none;fill-opacity:1;fill-rule: evenodd"/>
<path id="Sketch019_w0042"  d="M 88.25618 -62.489735 L 88.25618 -65.98973500000001 L 92.75618 -65.98973500000001 L 92.75618 -62.489735 L 88.25618 -62.489735 " stroke="#f1f3f5" stroke-width="0.7 px" style="stroke-width:0.7;stroke-miterlimit:4;stroke-dasharray:none;stroke-linecap:square;fill:none;fill-opacity:1;fill-rule: evenodd"/>
<path id="Sketch019_w0043"  d="M 93.25618 -62.489735 L 93.25618 -65.98973500000001 L 97.75618 -65.98973500000001 L 97.75618 -62.489735 L 93.25618 -62.489735 " stroke="#f1f3f5" stroke-width="0.7 px" style="stroke-width:0.7;stroke-miterlimit:4;stroke-dasharray:none;stroke-linecap:square;fill:none;fill-opacity:1;fill-rule: evenodd"/>
<path id="Sketch019_w0044"  d="M 87.25618 -58.489735 L 87.25618 -61.989735 L 97.75618 -61.989735 L 97.75618 -58.489735 L 87.25618 -58.489735 " stroke="#f1f3f5" stroke-width="0.7 px" style="stroke-width:0.7;stroke-miterlimit:4;stroke-dasharray:none;stroke-linecap:square;fill:none;fill-opacity:1;fill-rule: evenodd"/>
<path id="Sketch019_w0045"  d="M 89.25618 -54.489735 L 89.25618 -57.989735 L 97.75618 -57.989735 L 97.75618 -54.489735 L 89.25618 -54.489735 " stroke="#f1f3f5" stroke-width="0.7 px" style="stroke-width:0.7;stroke-miterlimit:4;stroke-dasharray:none;stroke-linecap:square;fill:none;fill-opacity:1;fill-rule: evenodd"/>
<path id="Sketch019_w0046"  d="M 92.25618 -50.489735 L 92.25618 -53.989735 L 97.75618 -53.989735 L 97.75618 -50.489735 L 92.25618 -50.489735 " stroke="#f1f3f5" stroke-width="0.7 px" style="stroke-width:0.7;stroke-miterlimit:4;stroke-dasharray:none;stroke-linecap:square;fill:none;fill-opacity:1;fill-rule: evenodd"/>
<path id="Sketch019_w0047"  d="M 44.25618 -50.489735 L 44.25618 -53.989735 L 47.75618 -53.989735 L 47.75618 -50.489735 L 44.25618 -50.489735 " stroke="#f1f3f5" stroke-width="0.7 px" style="stroke-width:0.7;stroke-miterlimit:4;stroke-dasharray:none;stroke-linecap:square;fill:none;fill-opacity:1;fill-rule: evenodd"/>
<path id="Sketch019_w0048"  d="M 48.25618 -50.489735 L 48.25618 -53.989735 L 51.75618 -53.989735 L 51.75618 -50.489735 L 48.25618 -50.489735 " stroke="#f1f3f5" stroke-width="0.7 px" style="stroke-width:0.7;stroke-miterlimit:4;stroke-dasharray:none;stroke-linecap:square;fill:none;fill-opacity:1;fill-rule: evenodd"/>
<path id="Sketch019_w0049"  d="M 52.25618 -50.489735 L 52.25618 -53.989735 L 55.75618 -53.989735 L 55.75618 -50.489735 L 52.25618 -50.489735 " stroke="#f1f3f5" stroke-width="0.7 px" style="stroke-width:0.7;stroke-miterlimit:4;stroke-dasharray:none;stroke-linecap:square;fill:none;fill-opacity:1;fill-rule: evenodd"/>
<path id="Sketch019_w0050"  d="M 56.25618 -50.489735 L 56.25618 -53.989735 L 59.75618 -53.989735 L 59.75618 -50.489735 L 56.25618 -50.489735 " stroke="#f1f3f5" stroke-width="0.7 px" style="stroke-width:0.7;stroke-miterlimit:4;stroke-dasharray:none;stroke-linecap:square;fill:none;fill-opacity:1;fill-rule: evenodd"/>
<path id="Sketch019_w0051"  d="M 60.25618 -50.489735 L 60.25618 -53.989735 L 63.75618 -53.989735 L 63.75618 -50.489735 L 60.25618 -50.489735 " stroke="#f1f3f5" stroke-width="0.7 px" style="stroke-width:0.7;stroke-miterlimit:4;stroke-dasharray:none;stroke-linecap:square;fill:none;fill-opacity:1;fill-rule: evenodd"/>
<path id="Sketch019_w0052"  d="M 64.25618 -50.489735 L 64.25618 -53.989735 L 67.75618 -53.989735 L 67.75618 -50.489735 L 64.25618 -50.489735 " stroke="#f1f3f5" stroke-width="0.7 px" style="stroke-width:0.7;stroke-miterlimit:4;stroke-dasharray:none;stroke-linecap:square;fill:none;fill-opacity:1;fill-rule: evenodd"/>
<path id="Sketch019_w0053"  d="M 68.25618 -50.489735 L 68.25618 -53.989735 L 71.75618 -53.989735 L 71.75618 -50.489735 L 68.25618 -50.489735 " stroke="#f1f3f5" stroke-width="0.7 px" style="stroke-width:0.7;stroke-miterlimit:4;stroke-dasharray:none;stroke-linecap:square;fill:none;fill-opacity:1;fill-rule: evenodd"/>
<path id="Sketch019_w0054"  d="M 72.25618 -50.489735 L 72.25618 -53.989735 L 75.75618 -53.989735 L 75.75618 -50.489735 L 72.25618 -50.489735 " stroke="#f1f3f5" stroke-width="0.7 px" style="stroke-width:0.7;stroke-miterlimit:4;stroke-dasharray:none;stroke-linecap:square;fill:none;fill-opacity:1;fill-rule: evenodd"/>
<path id="Sketch019_w0055"  d="M 76.25618 -50.489735 L 76.25618 -53.989735 L 79.75618 -53.989735 L 79.75618 -50.489735 L 76.25618 -50.489735 " stroke="#f1f3f5" stroke-width="0.7 px" style="stroke-width:0.7;stroke-miterlimit:4;stroke-dasharray:none;stroke-linecap:square;fill:none;fill-opacity:1;fill-rule: evenodd"/>
<path id="Sketch019_w0056"  d="M 80.25618 -50.489735 L 80.25618 -53.989735 L 83.75618 -53.989735 L 83.75618 -50.489735 L 80.25618 -50.489735 " stroke="#f1f3f5" stroke-width="0.7 px" style="stroke-width:0.7;stroke-miterlimit:4;stroke-dasharray:none;stroke-linecap:square;fill:none;fill-opacity:1;fill-rule: evenodd"/>
<path id="Sketch019_w0057"  d="M 84.25618 -50.489735 L 84.25618 -53.989735 L 87.75618 -53.989735 L 87.75618 -50.489735 L 84.25618 -50.489735 " stroke="#f1f3f5" stroke-width="0.7 px" style="stroke-width:0.7;stroke-miterlimit:4;stroke-dasharray:none;stroke-linecap:square;fill:none;fill-opacity:1;fill-rule: evenodd"/>
<path id="Sketch019_w0058"  d="M 88.25618 -50.489735 L 88.25618 -53.989735 L 91.75618 -53.989735 L 91.75618 -50.489735 L 88.25618 -50.489735 " stroke="#f1f3f5" stroke-width="0.7 px" style="stroke-width:0.7;stroke-miterlimit:4;stroke-dasharray:none;stroke-linecap:square;fill:none;fill-opacity:1;fill-rule: evenodd"/>
<path id="Sketch019_w0059"  d="M 45.25618 -54.489735 L 45.25618 -57.989735 L 48.75618 -57.989735 L 48.75618 -54.489735 L 45.25618 -54.489735 " stroke="#f1f3f5" stroke-width="0.7 px" style="stroke-width:0.7;stroke-miterlimit:4;stroke-dasharray:none;stroke-linecap:square;fill:none;fill-opacity:1;fill-rule: evenodd"/>
<path id="Sketch019_w0060"  d="M 49.25618 -54.489735 L 49.25618 -57.989735 L 52.75618 -57.989735 L 52.75618 -54.489735 L 49.25618 -54.489735 " stroke="#f1f3f5" stroke-width="0.7 px" style="stroke-width:0.7;stroke-miterlimit:4;stroke-dasharray:none;stroke-linecap:square;fill:none;fill-opacity:1;fill-rule: evenodd"/>
<path id="Sketch019_w0061"  d="M 53.25618 -54.489735 L 53.25618 -57.989735 L 56.75618 -57.989735 L 56.75618 -54.489735 L 53.25618 -54.489735 " stroke="#f1f3f5" stroke-width="0.7 px" style="stroke-width:0.7;stroke-miterlimit:4;stroke-dasharray:none;stroke-linecap:square;fill:none;fill-opacity:1;fill-rule: evenodd"/>
<path id="Sketch019_w0062"  d="M 57.25618 -54.489735 L 57.25618 -57.989735 L 60.75618 -57.989735 L 60.75618 -54.489735 L 57.25618 -54.489735 " stroke="#f1f3f5" stroke-width="0.7 px" style="stroke-width:0.7;stroke-miterlimit:4;stroke-dasharray:none;stroke-linecap:square;fill:none;fill-opacity:1;fill-rule: evenodd"/>
<path id="Sketch019_w0063"  d="M 61.25618 -54.489735 L 61.25618 -57.989735 L 64.75618 -57.989735 L 64.75618 -54.489735 L 61.25618 -54.489735 " stroke="#f1f3f5" stroke-width="0.7 px" style="stroke-width:0.7;stroke-miterlimit:4;stroke-dasharray:none;stroke-linecap:square;fill:none;fill-opacity:1;fill-rule: evenodd"/>
<path id="Sketch019_w0064"  d="M 65.25618 -54.489735 L 65.25618 -57.989735 L 68.75618 -57.989735 L 68.75618 -54.489735 L 65.25618 -54.489735 " stroke="#f1f3f5" stroke-width="0.7 px" style="stroke-width:0.7;stroke-miterlimit:4;stroke-dasharray:none;stroke-linecap:square;fill:none;fill-opacity:1;fill-rule: evenodd"/>
<path id="Sketch019_w0065"  d="M 69.25618 -54.489735 L 69.25618 -57.989735 L 72.75618 -57.989735 L 72.75618 -54.489735 L 69.25618 -54.489735 " stroke="#f1f3f5" stroke-width="0.7 px" style="stroke-width:0.7;stroke-miterlimit:4;stroke-dasharray:none;stroke-linecap:square;fill:none;fill-opacity:1;fill-rule: evenodd"/>
<path id="Sketch019_w0066"  d="M 73.25618 -54.489735 L 73.25618 -57.989735 L 76.75618 -57.989735 L 76.75618 -54.489735 L 73.25618 -54.489735 " stroke="#f1f3f5" stroke-width="0.7 px" style="stroke-width:0.7;stroke-miterlimit:4;stroke-dasharray:none;stroke-linecap:square;fill:none;fill-opacity:1;fill-rule: evenodd"/>
<path id="Sketch019_w0067"  d="M 77.25618 -54.489735 L 77.25618 -57.989735 L 80.75618 -57.989735 L 80.75618 -54.489735 L 77.25618 -54.489735 " stroke="#f1f3f5" stroke-width="0.7 px" style="stroke-width:0.7;stroke-miterlimit:4;stroke-dasharray:none;stroke-linecap:square;fill:none;fill-opacity:1;fill-rule: evenodd"/>
<path id="Sketch019_w0068"  d="M 81.25618 -54.489735 L 81.25618 -57.989735 L 84.75618 -57.989735 L 84.75618 -54.489735 L 81.25618 -54.489735 " stroke="#f1f3f5" stroke-width="0.7 px" style="stroke-width:0.7;stroke-miterlimit:4;stroke-dasharray:none;stroke-linecap:square;fill:none;fill-opacity:1;fill-rule: evenodd"/>
<path id="Sketch019_w0069"  d="M 85.25618 -54.489735 L 85.25618 -57.989735 L 88.75618 -57.989735 L 88.75618 -54.489735 L 85.25618 -54.489735 " stroke="#f1f3f5" stroke-width="0.7 px" style="stroke-width:0.7;stroke-miterlimit:4;stroke-dasharray:none;stroke-linecap:square;fill:none;fill-opacity:1;fill-rule: evenodd"/>
<path id="Sketch019_w0070"  d="M 47.25618 -58.489735 L 47.25618 -61.989735 L 50.75618 -61.989735 L 50.75618 -58.489735 L 47.25618 -58.489735 " stroke="#f1f3f5" stroke-width="0.7 px" style="stroke-width:0.7;stroke-miterlimit:4;stroke-dasharray:none;stroke-linecap:square;fill:none;fill-opacity:1;fill-rule: evenodd"/>
<path id="Sketch019_w0071"  d="M 51.25618 -58.489735 L 51.25618 -61.989735 L 54.75618 -61.989735 L 54.75618 -58.489735 L 51.25618 -58.489735 " stroke="#f1f3f5" stroke-width="0.7 px" style="stroke-width:0.7;stroke-miterlimit:4;stroke-dasharray:none;stroke-linecap:square;fill:none;fill-opacity:1;fill-rule: evenodd"/>
<path id="Sketch019_w0072"  d="M 55.25618 -58.489735 L 55.25618 -61.989735 L 58.75618 -61.989735 L 58.75618 -58.489735 L 55.25618 -58.489735 " stroke="#f1f3f5" stroke-width="0.7 px" style="stroke-width:0.7;stroke-miterlimit:4;stroke-dasharray:none;stroke-linecap:square;fill:none;fill-opacity:1;fill-rule: evenodd"/>
<path id="Sketch019_w0073"  d="M 59.25618 -58.489735 L 59.25618 -61.989735 L 62.75618 -61.989735 L 62.75618 -58.489735 L 59.25618 -58.489735 " stroke="#f1f3f5" stroke-width="0.7 px" style="stroke-width:0.7;stroke-miterlimit:4;stroke-dasharray:none;stroke-linecap:square;fill:none;fill-opacity:1;fill-rule: evenodd"/>
<path id="Sketch019_w0074"  d="M 63.25618 -58.489735 L 63.25618 -61.989735 L 66.75618 -61.989735 L 66.75618 -58.489735 L 63.25618 -58.489735 " stroke="#f1f3f5" stroke-width="0.7 px" style="stroke-width:0.7;stroke-miterlimit:4;stroke-dasharray:none;stroke-linecap:square;fill:none;fill-opacity:1;fill-rule: evenodd"/>
<path id="Sketch019_w0075"  d="M 67.25618 -58.489735 L 67.25618 -61.989735 L 70.75618 -61.989735 L 70.75618 -58.489735 L 67.25618 -58.489735 " stroke="#f1f3f5" stroke-width="0.7 px" style="stroke-width:0.7;stroke-miterlimit:4;stroke-dasharray:none;stroke-linecap:square;fill:none;fill-opacity:1;fill-rule: evenodd"/>
<path id="Sketch019_w0076"  d="M 71.25618 -58.489735 L 71.25618 -61.989735 L 74.75618 -61.989735 L 74.75618 -58.489735 L 71.25618 -58.489735 " stroke="#f1f3f5" stroke-width="0.7 px" style="stroke-width:0.7;stroke-miterlimit:4;stroke-dasharray:none;stroke-linecap:square;fill:none;fill-opacity:1;fill-rule: evenodd"/>
<path id="Sketch019_w0077"  d="M 75.25618 -58.489735 L 75.25618 -61.989735 L 78.75618 -61.989735 L 78.75618 -58.489735 L 75.25618 -58.489735 " stroke="#f1f3f5" stroke-width="0.7 px" style="stroke-width:0.7;stroke-miterlimit:4;stroke-dasharray:none;stroke-linecap:square;fill:none;fill-opacity:1;fill-rule: evenodd"/>
<path id="Sketch019_w0078"  d="M 79.25618 -58.489735 L 79.25618 -61.989735 L 82.75618 -61.989735 L 82.75618 -58.489735 L 79.25618 -58.489735 " stroke="#f1f3f5" stroke-width="0.7 px" style="stroke-width:0.7;stroke-miterlimit:4;stroke-dasharray:none;stroke-linecap:square;fill:none;fill-opacity:1;fill-rule: evenodd"/>
<path id="Sketch019_w0079"  d="M 83.25618 -58.489735 L 83.25618 -61.989735 L 86.75618 -61.989735 L 86.75618 -58.489735 L 83.25618 -58.489735 " stroke="#f1f3f5" stroke-width="0.7 px" style="stroke-width:0.7;stroke-miterlimit:4;stroke-dasharray:none;stroke-linecap:square;fill:none;fill-opacity:1;fill-rule: evenodd"/>
<path id="Sketch019_w0080"  d="M 100.25618 -46.489735 L 100.25618 -49.989735 L 103.75618 -49.989735 L 103.75618 -46.489735 L 100.25618 -46.489735 " stroke="#f1f3f5" stroke-width="0.7 px" style="stroke-width:0.7;stroke-miterlimit:4;stroke-dasharray:none;stroke-linecap:square;fill:none;fill-opacity:1;fill-rule: evenodd"/>
<path id="Sketch019_w0081"  d="M 104.25618 -46.489735 L 104.25618 -49.989735 L 107.75618 -49.989735 L 107.75618 -46.489735 L 104.25618 -46.489735 " stroke="#f1f3f5" stroke-width="0.7 px" style="stroke-width:0.7;stroke-miterlimit:4;stroke-dasharray:none;stroke-linecap:square;fill:none;fill-opacity:1;fill-rule: evenodd"/>
<path id="Sketch019_w0082"  d="M 108.25618 -46.489735 L 108.25618 -49.989735 L 111.75618 -49.989735 L 111.75618 -46.489735 L 108.25618 -46.489735 " stroke="#f1f3f5" stroke-width="0.7 px" style="stroke-width:0.7;stroke-miterlimit:4;stroke-dasharray:none;stroke-linecap:square;fill:none;fill-opacity:1;fill-rule: evenodd"/>
<path id="Sketch019_w0083"  d="M 100.25618 -50.489735 L 100.25618 -53.989735 L 103.75618 -53.989735 L 103.75618 -50.489735 L 100.25618 -50.489735 " stroke="#f1f3f5" stroke-width="0.7 px" style="stroke-width:0.7;stroke-miterlimit:4;stroke-dasharray:none;stroke-linecap:square;fill:none;fill-opacity:1;fill-rule: evenodd"/>
<path id="Sketch019_w0084"  d="M 104.25618 -50.489735 L 104.25618 -53.989735 L 107.75618 -53.989735 L 107.75618 -50.489735 L 104.25618 -50.489735 " stroke="#f1f3f5" stroke-width="0.7 px" style="stroke-width:0.7;stroke-miterlimit:4;stroke-dasharray:none;stroke-linecap:square;fill:none;fill-opacity:1;fill-rule: evenodd"/>
<path id="Sketch019_w0085"  d="M 108.25618 -50.489735 L 108.25618 -53.989735 L 111.75618 -53.989735 L 111.75618 -50.489735 L 108.25618 -50.489735 " stroke="#f1f3f5" stroke-width="0.7 px" style="stroke-width:0.7;stroke-miterlimit:4;stroke-dasharray:none;stroke-linecap:square;fill:none;fill-opacity:1;fill-rule: evenodd"/>
<path id="Sketch019_w0086"  d="M 104.25618 -58.489735 L 104.25618 -61.989735 L 107.75618 -61.989735 L 107.75618 -58.489735 L 104.25618 -58.489735 " stroke="#f1f3f5" stroke-width="0.7 px" style="stroke-width:0.7;stroke-miterlimit:4;stroke-dasharray:none;stroke-linecap:square;fill:none;fill-opacity:1;fill-rule: evenodd"/>
<path id="Sketch019_w0087"  d="M 100.25618 -62.489735 L 100.25618 -65.98973500000001 L 103.75618 -65.98973500000001 L 103.75618 -62.489735 L 100.25618 -62.489735 " stroke="#f1f3f5" stroke-width="0.7 px" style="stroke-width:0.7;stroke-miterlimit:4;stroke-dasharray:none;stroke-linecap:square;fill:none;fill-opacity:1;fill-rule: evenodd"/>
<path id="Sketch019_w0088"  d="M 104.25618 -62.489735 L 104.25618 -65.98973500000001 L 107.75618 -65.98973500000001 L 107.75618 -62.489735 L 104.25618 -62.489735 " stroke="#f1f3f5" stroke-width="0.7 px" style="stroke-width:0.7;stroke-miterlimit:4;stroke-dasharray:none;stroke-linecap:square;fill:none;fill-opacity:1;fill-rule: evenodd"/>
<path id="Sketch019_w0089"  d="M 108.25618 -62.489735 L 108.25618 -65.98973500000001 L 111.75618 -65.98973500000001 L 111.75618 -62.489735 L 108.25618 -62.489735 " stroke="#f1f3f5" stroke-width="0.7 px" style="stroke-width:0.7;stroke-miterlimit:4;stroke-dasharray:none;stroke-linecap:square;fill:none;fill-opacity:1;fill-rule: evenodd"/>
<path id="Sketch019_w0090"  d="M 114.25618 -46.489735 L 114.25618 -49.989735 L 117.75618 -49.989735 L 117.75618 -46.489735 L 114.25618 -46.489735 " stroke="#f1f3f5" stroke-width="0.7 px" style="stroke-width:0.7;stroke-miterlimit:4;stroke-dasharray:none;stroke-linecap:square;fill:none;fill-opacity:1;fill-rule: evenodd"/>
<path id="Sketch019_w0091"  d="M 118.25618 -46.489735 L 118.25618 -49.989735 L 121.75618 -49.989735 L 121.75618 -46.489735 L 118.25618 -46.489735 " stroke="#f1f3f5" stroke-width="0.7 px" style="stroke-width:0.7;stroke-miterlimit:4;stroke-dasharray:none;stroke-linecap:square;fill:none;fill-opacity:1;fill-rule: evenodd"/>
<path id="Sketch019_w0092"  d="M 122.25618 -46.489735 L 122.25618 -49.989735 L 125.75618 -49.989735 L 125.75618 -46.489735 L 122.25618 -46.489735 " stroke="#f1f3f5" stroke-width="0.7 px" style="stroke-width:0.7;stroke-miterlimit:4;stroke-dasharray:none;stroke-linecap:square;fill:none;fill-opacity:1;fill-rule: evenodd"/>
<path id="Sketch019_w0093"  d="M 126.25618 -46.489735 L 126.25618 -49.989735 L 129.75618 -49.989735 L 129.75618 -46.489735 L 126.25618 -46.489735 " stroke="#f1f3f5" stroke-width="0.7 px" style="stroke-width:0.7;stroke-miterlimit:4;stroke-dasharray:none;stroke-linecap:square;fill:none;fill-opacity:1;fill-rule: evenodd"/>
<path id="Sketch019_w0094"  d="M 114.25618 -50.489735 L 114.25618 -53.989735 L 117.75618 -53.989735 L 117.75618 -50.489735 L 114.25618 -50.489735 " stroke="#f1f3f5" stroke-width="0.7 px" style="stroke-width:0.7;stroke-miterlimit:4;stroke-dasharray:none;stroke-linecap:square;fill:none;fill-opacity:1;fill-rule: evenodd"/>
<path id="Sketch019_w0095"  d="M 114.25618 -54.489735 L 114.25618 -57.989735 L 117.75618 -57.989735 L 117.75618 -54.489735 L 114.25618 -54.489735 " stroke="#f1f3f5" stroke-width="0.7 px" style="stroke-width:0.7;stroke-miterlimit:4;stroke-dasharray:none;stroke-linecap:square;fill:none;fill-opacity:1;fill-rule: evenodd"/>
<path id="Sketch019_w0096"  d="M 118.25618 -54.489735 L 118.25618 -57.989735 L 121.75618 -57.989735 L 121.75618 -54.489735 L 118.25618 -54.489735 " stroke="#f1f3f5" stroke-width="0.7 px" style="stroke-width:0.7;stroke-miterlimit:4;stroke-dasharray:none;stroke-linecap:square;fill:none;fill-opacity:1;fill-rule: evenodd"/>
<path id="Sketch019_w0097"  d="M 118.25618 -50.489735 L 118.25618 -53.989735 L 121.75618 -53.989735 L 121.75618 -50.489735 L 118.25618 -50.489735 " stroke="#f1f3f5" stroke-width="0.7 px" style="stroke-width:0.7;stroke-miterlimit:4;stroke-dasharray:none;stroke-linecap:square;fill:none;fill-opacity:1;fill-rule: evenodd"/>
<path id="Sketch019_w0098"  d="M 122.25618 -50.489735 L 122.25618 -53.989735 L 125.75618 -53.989735 L 125.75618 -50.489735 L 122.25618 -50.489735 " stroke="#f1f3f5" stroke-width="0.7 px" style="stroke-width:0.7;stroke-miterlimit:4;stroke-dasharray:none;stroke-linecap:square;fill:none;fill-opacity:1;fill-rule: evenodd"/>
<path id="Sketch019_w0099"  d="M 126.25618 -50.489735 L 126.25618 -57.989735 L 129.75618 -57.989735 L 129.75618 -50.489735 L 126.25618 -50.489735 " stroke="#f1f3f5" stroke-width="0.7 px" style="stroke-width:0.7;stroke-miterlimit:4;stroke-dasharray:none;stroke-linecap:square;fill:none;fill-opacity:1;fill-rule: evenodd"/>
<path id="Sketch019_w0100"  d="M 126.25618 -58.489735 L 126.25618 -65.98973500000001 L 129.75618 -65.98973500000001 L 129.75618 -58.489735 L 126.25618 -58.489735 " stroke="#f1f3f5" stroke-width="0.7 px" style="stroke-width:0.7;stroke-miterlimit:4;stroke-dasharray:none;stroke-linecap:square;fill:none;fill-opacity:1;fill-rule: evenodd"/>
<path id="Sketch019_w0101"  d="M 114.25618 -58.489735 L 114.25618 -61.989735 L 117.75618 -61.989735 L 117.75618 -58.489735 L 114.25618 -58.489735 " stroke="#f1f3f5" stroke-width="0.7 px" style="stroke-width:0.7;stroke-miterlimit:4;stroke-dasharray:none;stroke-linecap:square;fill:none;fill-opacity:1;fill-rule: evenodd"/>
<path id="Sketch019_w0102"  d="M 122.25618 -54.489735 L 122.25618 -57.989735 L 125.75618 -57.989735 L 125.75618 -54.489735 L 122.25618 -54.489735 " stroke="#f1f3f5" stroke-width="0.7 px" style="stroke-width:0.7;stroke-miterlimit:4;stroke-dasharray:none;stroke-linecap:square;fill:none;fill-opacity:1;fill-rule: evenodd"/>
<path id="Sketch019_w0103"  d="M 118.25618 -58.489735 L 118.25618 -61.989735 L 121.75618 -61.989735 L 121.75618 -58.489735 L 118.25618 -58.489735 " stroke="#f1f3f5" stroke-width="0.7 px" style="stroke-width:0.7;stroke-miterlimit:4;stroke-dasharray:none;stroke-linecap:square;fill:none;fill-opacity:1;fill-rule: evenodd"/>
<path id="Sketch019_w0104"  d="M 122.25618 -58.489735 L 122.25618 -61.989735 L 125.75618 -61.989735 L 125.75618 -58.489735 L 122.25618 -58.489735 " stroke="#f1f3f5" stroke-width="0.7 px" style="stroke-width:0.7;stroke-miterlimit:4;stroke-dasharray:none;stroke-linecap:square;fill:none;fill-opacity:1;fill-rule: evenodd"/>
<path id="Sketch019_w0105"  d="M 114.25618 -62.489735 L 114.25618 -65.98973500000001 L 121.75618 -65.98973500000001 L 121.75618 -62.489735 L 114.25618 -62.489735 " stroke="#f1f3f5" stroke-width="0.7 px" style="stroke-width:0.7;stroke-miterlimit:4;stroke-dasharray:none;stroke-linecap:square;fill:none;fill-opacity:1;fill-rule: evenodd"/>
<path id="Sketch019_w0106"  d="M 122.25618 -62.489735 L 122.25618 -65.98973500000001 L 125.75618 -65.98973500000001 L 125.75618 -62.489735 L 122.25618 -62.489735 " stroke="#f1f3f5" stroke-width="0.7 px" style="stroke-width:0.7;stroke-miterlimit:4;stroke-dasharray:none;stroke-linecap:square;fill:none;fill-opacity:1;fill-rule: evenodd"/>
<path id="Sketch019_w0107"  d="M 132.25618 -46.489735 L 132.25618 -49.989735 L 135.75618 -49.989735 L 135.75618 -46.489735 L 132.25618 -46.489735 " stroke="#f1f3f5" stroke-width="0.7 px" style="stroke-width:0.7;stroke-miterlimit:4;stroke-dasharray:none;stroke-linecap:square;fill:none;fill-opacity:1;fill-rule: evenodd"/>
<path id="Sketch019_w0108"  d="M 132.25618 -50.489735 L 132.25618 -53.989735 L 135.75618 -53.989735 L 135.75618 -50.489735 L 132.25618 -50.489735 " stroke="#f1f3f5" stroke-width="0.7 px" style="stroke-width:0.7;stroke-miterlimit:4;stroke-dasharray:none;stroke-linecap:square;fill:none;fill-opacity:1;fill-rule: evenodd"/>
<path id="Sketch019_w0109"  d="M 132.25618 -54.489735 L 132.25618 -57.989735 L 135.75618 -57.989735 L 135.75618 -54.489735 L 132.25618 -54.489735 " stroke="#f1f3f5" stroke-width="0.7 px" style="stroke-width:0.7;stroke-miterlimit:4;stroke-dasharray:none;stroke-linecap:square;fill:none;fill-opacity:1;fill-rule: evenodd"/>
<path id="Sketch019_w0110"  d="M 132.25618 -58.489735 L 132.25618 -61.989735 L 135.75618 -61.989735 L 135.75618 -58.489735 L 132.25618 -58.489735 " stroke="#f1f3f5" stroke-width="0.7 px" style="stroke-width:0.7;stroke-miterlimit:4;stroke-dasharray:none;stroke-linecap:square;fill:none;fill-opacity:1;fill-rule: evenodd"/>
<path id="Sketch019_w0111"  d="M 132.25618 -62.489735 L 132.25618 -65.98973500000001 L 135.75618 -65.98973500000001 L 135.75618 -62.489735 L 132.25618 -62.489735 " stroke="#f1f3f5" stroke-width="0.7 px" style="stroke-width:0.7;stroke-miterlimit:4;stroke-dasharray:none;stroke-linecap:square;fill:none;fill-opacity:1;fill-rule: evenodd"/>
<title>b'Sketch019'</title>
</g>
</svg>