<?xml version="1.0" encoding="UTF-8" standalone="no"?>
<!DOCTYPE svg PUBLIC "-//W3C//DTD SVG 1.1//EN" "http://www.w3.org/Graphics/SVG/1.1/DTD/svg11.dtd">
<svg width="100%" height="100%" viewBox="0 0 14 15" version="1.1" xmlns="http://www.w3.org/2000/svg" xmlns:xlink="http://www.w3.org/1999/xlink" xml:space="preserve" xmlns:serif="http://www.serif.com/" style="fill-rule:evenodd;clip-rule:evenodd;stroke-linejoin:round;stroke-miterlimit:2;">
    <g id="Part__Part2DObjectPython_w0000" transform="matrix(0.65646,0,0,0.65646,-0.118335,-0.131962)">
        <path d="M13.446,17.479L11.896,16.038L13.768,14.025L15.579,15.709C16.669,14.364 17.27,12.642 17.27,10.862C17.27,6.803 14.148,3.463 10.353,3.463C6.559,3.463 3.437,6.803 3.437,10.862C3.437,14.92 6.559,18.26 10.353,18.26C11.427,18.26 12.486,17.993 13.447,17.479M17.969,17.931L19.956,19.778L18.085,21.791L15.923,19.782C14.268,20.914 12.333,21.518 10.357,21.518C4.774,21.518 0.18,16.706 0.18,10.859C0.18,5.012 4.774,0.201 10.357,0.201C15.939,0.201 20.533,5.012 20.533,10.859C20.533,13.465 19.621,15.981 17.971,17.931" style="fill:rgb(96,96,96);"/>
    </g>
</svg>
