<?xml version="1.0" encoding="UTF-8" standalone="no"?>
<!DOCTYPE svg PUBLIC "-//W3C//DTD SVG 1.1//EN" "http://www.w3.org/Graphics/SVG/1.1/DTD/svg11.dtd">
<svg width="100%" height="100%" viewBox="0 0 14 15" version="1.1" xmlns="http://www.w3.org/2000/svg" xmlns:xlink="http://www.w3.org/1999/xlink" xml:space="preserve" xmlns:serif="http://www.serif.com/" style="fill-rule:evenodd;clip-rule:evenodd;stroke-linejoin:round;stroke-miterlimit:2;">
    <g id="Part__Part2DObjectPython003_w0000" transform="matrix(0.203537,0,0,-0.203537,-4.37885,15.1196)">
        <path d="M22.495,4.649C22.27,4.649 22.058,4.759 21.927,4.943C21.797,5.127 21.764,5.363 21.838,5.576C24.575,13.394 43.761,68.191 45.731,73.818C45.828,74.097 46.092,74.284 46.388,74.284C48.696,74.284 58.407,74.284 60.715,74.284C61.011,74.284 61.275,74.097 61.373,73.818C63.343,68.191 82.528,13.394 85.265,5.576C85.34,5.363 85.306,5.127 85.176,4.943C85.045,4.759 84.833,4.649 84.608,4.649C81.925,4.649 74.538,4.649 72.557,4.649C72.261,4.649 71.998,4.836 71.9,5.116C71.104,7.389 67.638,17.288 66.842,19.561C66.745,19.84 66.481,20.027 66.185,20.027C62.897,20.027 44.207,20.027 40.918,20.027C40.622,20.027 40.359,19.84 40.261,19.561C39.465,17.288 35.999,7.389 35.203,5.116C35.106,4.836 34.842,4.649 34.546,4.649C32.565,4.649 25.178,4.649 22.495,4.649ZM44.029,30.448C43.966,30.238 44.006,30.009 44.137,29.832C44.268,29.655 44.476,29.551 44.696,29.551C48.003,29.551 59.1,29.551 62.407,29.551C62.628,29.551 62.835,29.655 62.966,29.832C63.098,30.009 63.137,30.238 63.074,30.448C61.901,34.333 57.217,49.847 54.885,57.572C54.707,58.16 54.166,58.562 53.552,58.562C52.937,58.562 52.396,58.16 52.218,57.572C49.886,49.847 45.202,34.333 44.029,30.448Z" style="fill:rgb(96,96,96);"/>
    </g>
</svg>
