M48
; DRILL file {KiCad (6.0.1)} date Wed Nov 23 19:00:38 2022
; FORMAT={-:-/ absolute / metric / decimal}
; #@! TF.CreationDate,2022-11-23T19:00:38-08:00
; #@! TF.GenerationSoftware,Kicad,Pcbnew,(6.0.1)
; #@! TF.FileFunction,Plated,1,2,PTH
FMAT,2
METRIC
; #@! TA.AperFunction,Plated,PTH,ViaDrill
T1C0.400
; #@! TA.AperFunction,Plated,PTH,ComponentDrill
T2C0.660
; #@! TA.AperFunction,Plated,PTH,ComponentDrill
T3C0.800
; #@! TA.AperFunction,Plated,PTH,ComponentDrill
T4C0.900
; #@! TA.AperFunction,Plated,PTH,ComponentDrill
T5C1.000
; #@! TA.AperFunction,Plated,PTH,ComponentDrill
T6C1.100
; #@! TA.AperFunction,Plated,PTH,ComponentDrill
T7C3.200
%
G90
G05
T1
X53.848Y-125.476
X53.848Y-138.176
X53.848Y-150.876
X53.848Y-163.576
X54.356Y-112.776
X54.864Y-100.076
X55.372Y-74.676
X55.372Y-87.376
X56.388Y-65.532
X64.516Y-51.308
X80.772Y-159.512
X93.98Y-59.436
X93.98Y-173.736
X95.504Y-45.72
X102.616Y-141.224
X103.632Y-59.436
X111.76Y-80.772
X112.268Y-137.668
X129.032Y-173.99
X148.844Y-90.932
T3
X68.58Y-59.69
X68.58Y-67.31
X71.12Y-53.38
X71.12Y-55.88
X71.12Y-72.39
X71.12Y-80.01
X71.12Y-97.79
X71.12Y-105.41
X73.66Y-59.69
X73.66Y-67.31
X76.2Y-48.26
X78.74Y-59.69
X78.74Y-67.31
X81.28Y-53.34
X81.28Y-55.84
X83.82Y-48.26
X83.82Y-59.69
X83.82Y-67.31
X90.18Y-45.72
X90.18Y-48.26
X90.18Y-50.8
X90.18Y-53.34
X90.18Y-55.88
X90.18Y-58.42
X90.18Y-60.96
X90.18Y-63.5
X90.18Y-66.04
X93.98Y-72.39
X93.98Y-80.01
X93.98Y-97.79
X93.98Y-105.41
X93.98Y-120.65
X93.98Y-128.27
X97.8Y-45.72
X97.8Y-48.26
X97.8Y-50.8
X97.8Y-53.34
X97.8Y-55.88
X97.8Y-58.42
X97.8Y-60.96
X97.8Y-63.5
X97.8Y-66.04
X107.96Y-45.72
X107.96Y-48.26
X107.96Y-50.8
X107.96Y-53.34
X107.96Y-55.88
X107.96Y-58.42
X107.96Y-60.96
X107.96Y-63.5
X107.96Y-66.04
X115.58Y-45.72
X115.58Y-48.26
X115.58Y-50.8
X115.58Y-53.34
X115.58Y-55.88
X115.58Y-58.42
X115.58Y-60.96
X115.58Y-63.5
X115.58Y-66.04
X116.84Y-72.39
X116.84Y-80.01
X116.84Y-97.79
X116.84Y-105.41
T4
X55.88Y-55.88
X55.88Y-68.58
X55.88Y-81.28
X55.88Y-93.98
X55.88Y-106.68
X55.88Y-119.38
X55.88Y-132.08
X55.88Y-144.78
X55.88Y-157.48
X55.88Y-170.18
X58.42Y-55.88
X58.42Y-68.58
X58.42Y-81.28
X58.42Y-93.98
X58.42Y-106.68
X58.42Y-119.38
X58.42Y-132.08
X58.42Y-144.78
X58.42Y-157.48
X58.42Y-170.18
X78.74Y-76.2
X78.74Y-101.6
X81.28Y-76.2
X81.28Y-101.6
X101.6Y-76.2
X101.6Y-101.6
X101.6Y-124.46
X104.14Y-76.2
X104.14Y-101.6
X104.14Y-124.46
X124.46Y-76.2
X124.46Y-101.6
X127.0Y-76.2
X127.0Y-101.6
X148.59Y-55.88
X148.59Y-68.58
X148.59Y-81.28
X148.59Y-93.98
X148.59Y-106.68
X148.59Y-119.38
X148.59Y-132.08
X148.59Y-144.78
X148.59Y-157.48
X148.59Y-170.18
X151.13Y-55.88
X151.13Y-68.58
X151.13Y-81.28
X151.13Y-93.98
X151.13Y-106.68
X151.13Y-119.38
X151.13Y-132.08
X151.13Y-144.78
X151.13Y-157.48
X151.13Y-170.18
T5
X97.69Y-169.755
X99.075Y-172.595
X100.46Y-169.755
X101.845Y-172.595
X103.23Y-169.755
X104.615Y-172.595
X106.0Y-169.755
X107.385Y-172.595
X108.77Y-169.755
T6
X124.46Y-65.1
X127.0Y-65.1
X129.54Y-65.1
T7
X90.73Y-170.055
X115.73Y-170.055
T2
X129.54Y-142.865G85X129.54Y-141.255
G05
X129.54Y-155.745G85X129.54Y-154.135
G05
T3
X128.554Y-167.729G85X129.754Y-167.729
G05
X133.154Y-167.729G85X134.354Y-167.729
G05
X137.754Y-167.729G85X138.954Y-167.729
G05
T5
X76.782Y-169.26G85X78.782Y-169.26
G05
X76.782Y-175.26G85X78.782Y-175.26
G05
X82.483Y-173.26G85X82.483Y-171.26
G05
T0
M30
