M48
; DRILL file {KiCad (7.0.0)} date Mon Mar 20 18:56:09 2023
; FORMAT={-:-/ absolute / metric / decimal}
; #@! TF.CreationDate,2023-03-20T18:56:09-07:00
; #@! TF.GenerationSoftware,Kicad,Pcbnew,(7.0.0)
; #@! TF.FileFunction,NonPlated,1,2,NPTH
FMAT,2
METRIC
; #@! TA.AperFunction,NonPlated,NPTH,ComponentDrill
T1C1.800
; #@! TA.AperFunction,NonPlated,NPTH,ComponentDrill
T2C2.000
; #@! TA.AperFunction,NonPlated,NPTH,ComponentDrill
T3C3.200
; #@! TA.AperFunction,NonPlated,NPTH,ComponentDrill
T4C5.250
%
G90
G05
T3
X26.474Y-28.206
X26.474Y-69.364
X109.326Y-28.139
X109.326Y-69.364
T4
X39.313Y-39.419
X58.363Y-58.469
X77.413Y-39.419
X77.413Y-58.469
X96.463Y-58.469
T1
X34.183Y-39.419G85X33.783Y-39.419
G05
X44.843Y-39.419G85X44.443Y-39.419
G05
X53.233Y-58.469G85X52.833Y-58.469
G05
X63.893Y-58.469G85X63.493Y-58.469
G05
X72.283Y-39.419G85X71.883Y-39.419
G05
X72.283Y-58.469G85X71.883Y-58.469
G05
X82.943Y-39.419G85X82.543Y-39.419
G05
X82.943Y-58.469G85X82.543Y-58.469
G05
X91.333Y-58.469G85X90.933Y-58.469
G05
X101.993Y-58.469G85X101.593Y-58.469
G05
T2
X53.062Y-25.988G85X53.062Y-27.188
G05
X63.857Y-25.988G85X63.857Y-27.188
G05
T0
M30
