M48
; DRILL file {KiCad (6.0.1)} date Sun Dec 18 00:47:26 2022
; FORMAT={-:-/ absolute / metric / decimal}
; #@! TF.CreationDate,2022-12-18T00:47:26-08:00
; #@! TF.GenerationSoftware,Kicad,Pcbnew,(6.0.1)
; #@! TF.FileFunction,NonPlated,1,2,NPTH
FMAT,2
METRIC
; #@! TA.AperFunction,NonPlated,NPTH,ComponentDrill
T1C1.800
; #@! TA.AperFunction,NonPlated,NPTH,ComponentDrill
T2C2.000
; #@! TA.AperFunction,NonPlated,NPTH,ComponentDrill
T3C3.200
; #@! TA.AperFunction,NonPlated,NPTH,ComponentDrill
T4C5.250
%
G90
G05
T2
X81.706Y-81.346
X90.506Y-81.346
X163.444Y-81.346
X172.244Y-81.346
T3
X74.93Y-63.5
X74.93Y-140.017
X179.07Y-63.5
X179.07Y-140.017
T4
X82.55Y-127.0
X88.9Y-107.95
X107.95Y-127.0
X127.0Y-107.95
X127.0Y-127.0
X146.05Y-127.0
X171.45Y-127.0
T1
X77.42Y-127.0G85X77.02Y-127.0
G05
X83.77Y-107.95G85X83.37Y-107.95
G05
X88.08Y-127.0G85X87.68Y-127.0
G05
X94.43Y-107.95G85X94.03Y-107.95
G05
X102.82Y-127.0G85X102.42Y-127.0
G05
X113.48Y-127.0G85X113.08Y-127.0
G05
X121.87Y-107.95G85X121.47Y-107.95
G05
X121.87Y-127.0G85X121.47Y-127.0
G05
X132.53Y-107.95G85X132.13Y-107.95
G05
X132.53Y-127.0G85X132.13Y-127.0
G05
X140.92Y-127.0G85X140.52Y-127.0
G05
X151.58Y-127.0G85X151.18Y-127.0
G05
X166.32Y-127.0G85X165.92Y-127.0
G05
X176.98Y-127.0G85X176.58Y-127.0
G05
T2
X90.805Y-60.995G85X90.805Y-62.195
G05
X101.6Y-60.995G85X101.6Y-62.195
G05
T0
M30
