%TF.GenerationSoftware,KiCad,Pcbnew,(7.0.0)*%
%TF.CreationDate,2023-03-01T23:29:27-08:00*%
%TF.ProjectId,JoyKeyMini,4a6f794b-6579-44d6-996e-692e6b696361,1*%
%TF.SameCoordinates,Original*%
%TF.FileFunction,Soldermask,Top*%
%TF.FilePolarity,Negative*%
%FSLAX46Y46*%
G04 Gerber Fmt 4.6, Leading zero omitted, Abs format (unit mm)*
G04 Created by KiCad (PCBNEW (7.0.0)) date 2023-03-01 23:29:27*
%MOMM*%
%LPD*%
G01*
G04 APERTURE LIST*
G04 Aperture macros list*
%AMRoundRect*
0 Rectangle with rounded corners*
0 $1 Rounding radius*
0 $2 $3 $4 $5 $6 $7 $8 $9 X,Y pos of 4 corners*
0 Add a 4 corners polygon primitive as box body*
4,1,4,$2,$3,$4,$5,$6,$7,$8,$9,$2,$3,0*
0 Add four circle primitives for the rounded corners*
1,1,$1+$1,$2,$3*
1,1,$1+$1,$4,$5*
1,1,$1+$1,$6,$7*
1,1,$1+$1,$8,$9*
0 Add four rect primitives between the rounded corners*
20,1,$1+$1,$2,$3,$4,$5,0*
20,1,$1+$1,$4,$5,$6,$7,0*
20,1,$1+$1,$6,$7,$8,$9,0*
20,1,$1+$1,$8,$9,$2,$3,0*%
%AMHorizOval*
0 Thick line with rounded ends*
0 $1 width*
0 $2 $3 position (X,Y) of the first rounded end (center of the circle)*
0 $4 $5 position (X,Y) of the second rounded end (center of the circle)*
0 Add line between two ends*
20,1,$1,$2,$3,$4,$5,0*
0 Add two circle primitives to create the rounded ends*
1,1,$1,$2,$3*
1,1,$1,$4,$5*%
%AMFreePoly0*
4,1,19,0.500000,-0.750000,0.000000,-0.750000,0.000000,-0.744911,-0.071157,-0.744911,-0.207708,-0.704816,-0.327430,-0.627875,-0.420627,-0.520320,-0.479746,-0.390866,-0.500000,-0.250000,-0.500000,0.250000,-0.479746,0.390866,-0.420627,0.520320,-0.327430,0.627875,-0.207708,0.704816,-0.071157,0.744911,0.000000,0.744911,0.000000,0.750000,0.500000,0.750000,0.500000,-0.750000,0.500000,-0.750000,
$1*%
%AMFreePoly1*
4,1,19,0.000000,0.744911,0.071157,0.744911,0.207708,0.704816,0.327430,0.627875,0.420627,0.520320,0.479746,0.390866,0.500000,0.250000,0.500000,-0.250000,0.479746,-0.390866,0.420627,-0.520320,0.327430,-0.627875,0.207708,-0.704816,0.071157,-0.744911,0.000000,-0.744911,0.000000,-0.750000,-0.500000,-0.750000,-0.500000,0.750000,0.000000,0.750000,0.000000,0.744911,0.000000,0.744911,
$1*%
G04 Aperture macros list end*
%ADD10O,2.000000X3.200000*%
%ADD11FreePoly0,270.000000*%
%ADD12FreePoly1,270.000000*%
%ADD13R,0.800000X0.800000*%
%ADD14O,2.500000X1.400000*%
%ADD15R,1.758000X0.284000*%
%ADD16C,2.200000*%
%ADD17R,1.312000X0.254000*%
%ADD18C,1.900000*%
%ADD19HorizOval,2.200000X-0.353553X-0.353553X0.353553X0.353553X0*%
%ADD20R,6.832600X0.228600*%
%ADD21HorizOval,1.400000X-0.169047X0.362523X0.169047X-0.362523X0*%
%ADD22O,2.200000X1.800000*%
%ADD23C,5.250000*%
%ADD24RoundRect,0.237500X-0.250000X-0.237500X0.250000X-0.237500X0.250000X0.237500X-0.250000X0.237500X0*%
%ADD25RoundRect,0.237500X0.250000X0.237500X-0.250000X0.237500X-0.250000X-0.237500X0.250000X-0.237500X0*%
%ADD26C,3.200000*%
%ADD27R,1.600000X1.600000*%
%ADD28C,1.600000*%
G04 APERTURE END LIST*
D10*
%TO.C,*%
X63856799Y-26587599D03*
%TD*%
%TO.C,*%
X53061799Y-26587599D03*
%TD*%
D11*
%TO.C,JP1*%
X56963165Y-48068850D03*
D12*
X56963165Y-49368850D03*
%TD*%
D13*
%TO.C,SW1*%
X38563164Y-34338849D03*
X40063164Y-34338849D03*
D14*
X41913164Y-45168849D03*
D15*
X40573164Y-44610849D03*
D16*
X39313165Y-45418850D03*
D17*
X38043164Y-44625849D03*
D18*
X36773165Y-44498850D03*
D19*
X42813164Y-42288849D03*
D20*
X38093964Y-43101849D03*
D21*
X34613164Y-43668849D03*
D22*
X44643164Y-39418849D03*
D23*
X39313165Y-39418850D03*
D22*
X33983164Y-39418849D03*
%TD*%
D24*
%TO.C,R7*%
X95300665Y-49968850D03*
X97125665Y-49968850D03*
%TD*%
%TO.C,R6*%
X76300665Y-49968850D03*
X78125665Y-49968850D03*
%TD*%
%TO.C,R5*%
X76300665Y-30968850D03*
X78125665Y-30968850D03*
%TD*%
D25*
%TO.C,R4*%
X61125665Y-49968850D03*
X59300665Y-49968850D03*
%TD*%
D24*
%TO.C,R1*%
X38050665Y-30968850D03*
X39875665Y-30968850D03*
%TD*%
D22*
%TO.C,SW6*%
X91133164Y-58468849D03*
D23*
X96463165Y-58468850D03*
D22*
X101793164Y-58468849D03*
D21*
X91763164Y-62718849D03*
D20*
X95243964Y-62151849D03*
D19*
X99963164Y-61338849D03*
D18*
X93923165Y-63548850D03*
D17*
X95193164Y-63675849D03*
D16*
X96463165Y-64468850D03*
D15*
X97723164Y-63660849D03*
D14*
X99063164Y-64218849D03*
D13*
X97213164Y-53388849D03*
X95713164Y-53388849D03*
%TD*%
D22*
%TO.C,SW4*%
X72083164Y-39418849D03*
D23*
X77413165Y-39418850D03*
D22*
X82743164Y-39418849D03*
D21*
X72713164Y-43668849D03*
D20*
X76193964Y-43101849D03*
D19*
X80913164Y-42288849D03*
D18*
X74873165Y-44498850D03*
D17*
X76143164Y-44625849D03*
D16*
X77413165Y-45418850D03*
D15*
X78673164Y-44610849D03*
D14*
X80013164Y-45168849D03*
D13*
X78163164Y-34338849D03*
X76663164Y-34338849D03*
%TD*%
D22*
%TO.C,SW5*%
X72083164Y-58468849D03*
D23*
X77413165Y-58468850D03*
D22*
X82743164Y-58468849D03*
D21*
X72713164Y-62718849D03*
D20*
X76193964Y-62151849D03*
D19*
X80913164Y-61338849D03*
D18*
X74873165Y-63548850D03*
D17*
X76143164Y-63675849D03*
D16*
X77413165Y-64468850D03*
D15*
X78673164Y-63660849D03*
D14*
X80013164Y-64218849D03*
D13*
X78163164Y-53388849D03*
X76663164Y-53388849D03*
%TD*%
D22*
%TO.C,SW3*%
X53033164Y-58468849D03*
D23*
X58363165Y-58468850D03*
D22*
X63693164Y-58468849D03*
D21*
X53663164Y-62718849D03*
D20*
X57143964Y-62151849D03*
D19*
X61863164Y-61338849D03*
D18*
X55823165Y-63548850D03*
D17*
X57093164Y-63675849D03*
D16*
X58363165Y-64468850D03*
D15*
X59623164Y-63660849D03*
D14*
X60963164Y-64218849D03*
D13*
X59113164Y-53388849D03*
X57613164Y-53388849D03*
%TD*%
D26*
%TO.C,REF\u002A\u002A*%
X111145165Y-28365850D03*
%TD*%
%TO.C,REF\u002A\u002A*%
X24835165Y-63468850D03*
%TD*%
%TO.C,REF\u002A\u002A*%
X24835165Y-28433350D03*
%TD*%
D27*
%TO.C,J1*%
X52813164Y-36136580D03*
D28*
X55583165Y-36136581D03*
X58353165Y-36136581D03*
X61123165Y-36136581D03*
X63893165Y-36136581D03*
X54198165Y-33596581D03*
X56968165Y-33596581D03*
X59738165Y-33596581D03*
X62508165Y-33596581D03*
%TD*%
D26*
%TO.C,REF\u002A\u002A*%
X111145165Y-63468850D03*
%TD*%
M02*
