M48
; DRILL file {KiCad (7.0.0)} date Thu Mar  2 09:25:27 2023
; FORMAT={-:-/ absolute / metric / decimal}
; #@! TF.CreationDate,2023-03-02T09:25:27-08:00
; #@! TF.GenerationSoftware,Kicad,Pcbnew,(7.0.0)
; #@! TF.FileFunction,Plated,1,2,PTH
FMAT,2
METRIC
; #@! TA.AperFunction,Plated,PTH,ComponentDrill
T1C0.900
; #@! TA.AperFunction,Plated,PTH,ComponentDrill
T2C1.000
; #@! TA.AperFunction,Plated,PTH,ComponentDrill
T3C1.200
; #@! TA.AperFunction,Plated,PTH,ComponentDrill
T4C1.500
%
G90
G05
T2
X52.813Y-36.137
X54.198Y-33.597
X55.583Y-36.137
X56.968Y-33.597
X58.353Y-36.137
X59.738Y-33.597
X61.123Y-36.137
X62.508Y-33.597
X63.893Y-36.137
T3
X36.773Y-44.499
X55.823Y-63.549
X74.873Y-44.499
X74.873Y-63.549
X93.923Y-63.549
T4
X39.313Y-45.419
X58.363Y-64.469
X77.413Y-45.419
X77.413Y-64.469
X96.463Y-64.469
T1
X34.782Y-44.031G85X34.444Y-43.306
G05
X42.463Y-45.169G85X41.363Y-45.169
G05
X53.832Y-63.081G85X53.494Y-62.356
G05
X61.513Y-64.219G85X60.413Y-64.219
G05
X72.882Y-44.031G85X72.544Y-43.306
G05
X72.882Y-63.081G85X72.544Y-62.356
G05
X80.563Y-45.169G85X79.463Y-45.169
G05
X80.563Y-64.219G85X79.463Y-64.219
G05
X91.932Y-63.081G85X91.594Y-62.356
G05
X99.613Y-64.219G85X98.513Y-64.219
G05
T4
X43.167Y-41.935G85X42.46Y-42.642
G05
X62.217Y-60.985G85X61.51Y-61.692
G05
X81.267Y-41.935G85X80.56Y-42.642
G05
X81.267Y-60.985G85X80.56Y-61.692
G05
X100.317Y-60.985G85X99.61Y-61.692
G05
T0
M30
