M48
; DRILL file {KiCad (6.0.1)} date Sun Dec 18 00:47:26 2022
; FORMAT={-:-/ absolute / metric / decimal}
; #@! TF.CreationDate,2022-12-18T00:47:26-08:00
; #@! TF.GenerationSoftware,Kicad,Pcbnew,(6.0.1)
; #@! TF.FileFunction,Plated,1,2,PTH
FMAT,2
METRIC
; #@! TA.AperFunction,Plated,PTH,ViaDrill
T1C0.400
; #@! TA.AperFunction,Plated,PTH,ComponentDrill
T2C0.750
; #@! TA.AperFunction,Plated,PTH,ComponentDrill
T3C0.800
; #@! TA.AperFunction,Plated,PTH,ComponentDrill
T4C0.900
; #@! TA.AperFunction,Plated,PTH,ComponentDrill
T5C1.000
; #@! TA.AperFunction,Plated,PTH,ComponentDrill
T6C1.200
; #@! TA.AperFunction,Plated,PTH,ComponentDrill
T7C1.500
%
G90
G05
T1
X85.09Y-73.914
X105.41Y-83.058
X108.458Y-82.042
X112.776Y-121.92
X113.792Y-108.204
X117.856Y-80.772
X119.634Y-66.294
X128.778Y-77.216
X130.556Y-106.426
X131.064Y-64.516
X132.588Y-112.522
X133.35Y-81.534
X133.35Y-85.852
X135.89Y-115.824
X136.652Y-66.04
X137.16Y-111.76
X138.43Y-78.486
X138.43Y-114.554
X140.716Y-112.776
X144.018Y-108.712
X144.018Y-115.062
X145.796Y-82.55
X155.702Y-114.808
X157.988Y-116.84
X158.496Y-98.806
X165.608Y-92.964
X165.862Y-66.548
T3
X107.95Y-87.63
X107.95Y-95.25
X112.712Y-87.63
X112.712Y-95.25
X117.475Y-87.63
X117.475Y-95.25
X122.237Y-87.63
X122.237Y-95.25
X127.0Y-87.63
X127.0Y-95.25
X131.762Y-87.63
X131.762Y-95.25
X136.525Y-87.63
X136.525Y-95.25
X141.287Y-87.63
X141.287Y-95.25
X146.05Y-87.63
X146.05Y-95.25
T5
X83.606Y-88.346
X86.106Y-88.346
X88.606Y-88.346
X90.487Y-71.438
X91.873Y-68.897
X93.257Y-71.438
X94.642Y-68.897
X96.027Y-71.438
X97.412Y-68.897
X98.797Y-71.438
X100.182Y-68.897
X101.567Y-71.438
X105.41Y-71.438
X107.95Y-71.438
X110.49Y-71.438
X113.03Y-71.438
X115.57Y-71.438
X118.11Y-71.438
X120.65Y-71.438
X123.19Y-71.438
X125.73Y-71.438
X128.27Y-71.438
X130.81Y-71.438
X133.35Y-71.438
X135.89Y-71.438
X138.43Y-71.438
X140.97Y-71.438
X143.51Y-71.438
X146.05Y-71.438
X148.59Y-71.438
X152.4Y-71.438
X154.94Y-71.438
X157.48Y-71.438
X162.067Y-71.438
X164.607Y-71.438
X165.344Y-88.346
X167.147Y-71.438
X167.844Y-88.346
X170.344Y-88.346
X173.672Y-71.438
X176.213Y-71.438
T6
X80.01Y-132.08
X86.36Y-113.03
X105.41Y-132.08
X124.46Y-113.03
X124.46Y-132.08
X143.51Y-132.08
X168.91Y-132.08
T7
X82.55Y-133.0
X88.9Y-113.95
X107.95Y-133.0
X127.0Y-113.95
X127.0Y-133.0
X146.05Y-133.0
X171.45Y-133.0
T2
X81.28Y-122.17G85X81.28Y-121.67
G05
X83.82Y-122.17G85X83.82Y-121.67
G05
X87.63Y-103.12G85X87.63Y-102.62
G05
X90.17Y-103.12G85X90.17Y-102.62
G05
X106.68Y-122.17G85X106.68Y-121.67
G05
X109.22Y-122.17G85X109.22Y-121.67
G05
X125.73Y-103.12G85X125.73Y-102.62
G05
X125.73Y-122.17G85X125.73Y-121.67
G05
X128.27Y-103.12G85X128.27Y-102.62
G05
X128.27Y-122.17G85X128.27Y-121.67
G05
X144.78Y-122.17G85X144.78Y-121.67
G05
X147.32Y-122.17G85X147.32Y-121.67
G05
X170.18Y-122.17G85X170.18Y-121.67
G05
X172.72Y-122.17G85X172.72Y-121.67
G05
T4
X78.019Y-131.613G85X77.681Y-130.887
G05
X84.369Y-112.563G85X84.031Y-111.837
G05
X85.7Y-132.75G85X84.6Y-132.75
G05
X92.05Y-113.7G85X90.95Y-113.7
G05
X103.419Y-131.613G85X103.081Y-130.887
G05
X111.1Y-132.75G85X110.0Y-132.75
G05
X122.469Y-112.563G85X122.131Y-111.837
G05
X122.469Y-131.613G85X122.131Y-130.887
G05
X130.15Y-113.7G85X129.05Y-113.7
G05
X130.15Y-132.75G85X129.05Y-132.75
G05
X141.519Y-131.613G85X141.181Y-130.887
G05
X149.2Y-132.75G85X148.1Y-132.75
G05
X166.919Y-131.613G85X166.581Y-130.887
G05
X174.6Y-132.75G85X173.5Y-132.75
G05
T7
X86.404Y-129.516G85X85.696Y-130.224
G05
X92.754Y-110.466G85X92.046Y-111.174
G05
X111.804Y-129.516G85X111.096Y-130.224
G05
X130.854Y-110.466G85X130.146Y-111.174
G05
X130.854Y-129.516G85X130.146Y-130.224
G05
X149.904Y-129.516G85X149.196Y-130.224
G05
X175.304Y-129.516G85X174.596Y-130.224
G05
T0
M30
