M48
; DRILL file {KiCad (7.0.0)} date Fri Mar 31 16:52:05 2023
; FORMAT={-:-/ absolute / metric / decimal}
; #@! TF.CreationDate,2023-03-31T16:52:05-07:00
; #@! TF.GenerationSoftware,Kicad,Pcbnew,(7.0.0)
; #@! TF.FileFunction,Plated,1,2,PTH
FMAT,2
METRIC
; #@! TA.AperFunction,Plated,PTH,ViaDrill
T1C0.400
; #@! TA.AperFunction,Plated,PTH,ComponentDrill
T2C0.900
; #@! TA.AperFunction,Plated,PTH,ComponentDrill
T3C1.000
; #@! TA.AperFunction,Plated,PTH,ComponentDrill
T4C1.200
; #@! TA.AperFunction,Plated,PTH,ComponentDrill
T5C1.500
%
G90
G05
T1
X84.836Y-94.742
X114.3Y-107.696
X114.3Y-115.316
X137.16Y-67.056
X146.558Y-67.056
T2
X156.8Y-61.45
X156.8Y-64.75
X159.3Y-61.45
X159.3Y-64.75
X161.8Y-61.45
X161.8Y-64.75
T3
X83.606Y-88.346
X86.106Y-88.346
X88.606Y-88.346
X90.487Y-71.438
X91.873Y-68.897
X93.257Y-71.438
X94.642Y-68.897
X96.027Y-71.438
X97.412Y-68.897
X98.797Y-71.438
X100.182Y-68.897
X101.567Y-71.438
X113.274Y-62.35
X115.814Y-62.35
X118.354Y-62.35
X120.894Y-62.35
X123.434Y-62.35
X125.974Y-62.35
X128.514Y-62.35
X131.054Y-62.35
X133.594Y-62.35
X139.925Y-62.35
X142.465Y-62.35
X147.725Y-62.35
X150.265Y-62.35
X165.444Y-88.346
X167.944Y-88.346
X170.444Y-88.346
T4
X80.01Y-132.08
X86.36Y-113.03
X105.41Y-132.08
X124.46Y-113.03
X124.46Y-132.08
X143.51Y-132.08
X168.91Y-132.08
T5
X82.55Y-133.0
X88.9Y-113.95
X107.95Y-133.0
X127.0Y-113.95
X127.0Y-133.0
X146.05Y-133.0
X171.45Y-133.0
T2
X78.019Y-131.613G85X77.681Y-130.887
G05
X84.369Y-112.563G85X84.031Y-111.837
G05
X85.7Y-132.75G85X84.6Y-132.75
G05
X92.05Y-113.7G85X90.95Y-113.7
G05
X103.419Y-131.613G85X103.081Y-130.887
G05
X111.1Y-132.75G85X110.0Y-132.75
G05
X122.469Y-112.563G85X122.131Y-111.837
G05
X122.469Y-131.613G85X122.131Y-130.887
G05
X130.15Y-113.7G85X129.05Y-113.7
G05
X130.15Y-132.75G85X129.05Y-132.75
G05
X141.519Y-131.613G85X141.181Y-130.887
G05
X149.2Y-132.75G85X148.1Y-132.75
G05
X166.919Y-131.613G85X166.581Y-130.887
G05
X174.6Y-132.75G85X173.5Y-132.75
G05
T5
X86.404Y-129.516G85X85.696Y-130.224
G05
X92.754Y-110.466G85X92.046Y-111.174
G05
X111.804Y-129.516G85X111.096Y-130.224
G05
X130.854Y-110.466G85X130.146Y-111.174
G05
X130.854Y-129.516G85X130.146Y-130.224
G05
X149.904Y-129.516G85X149.196Y-130.224
G05
X175.304Y-129.516G85X174.596Y-130.224
G05
T0
M30
