%TF.GenerationSoftware,KiCad,Pcbnew,(7.0.0)*%
%TF.CreationDate,2023-03-31T17:22:56-07:00*%
%TF.ProjectId,JoyKeyMX,4a6f794b-6579-44d5-982e-6b696361645f,C*%
%TF.SameCoordinates,Original*%
%TF.FileFunction,Soldermask,Bot*%
%TF.FilePolarity,Negative*%
%FSLAX46Y46*%
G04 Gerber Fmt 4.6, Leading zero omitted, Abs format (unit mm)*
G04 Created by KiCad (PCBNEW (7.0.0)) date 2023-03-31 17:22:56*
%MOMM*%
%LPD*%
G01*
G04 APERTURE LIST*
G04 Aperture macros list*
%AMHorizOval*
0 Thick line with rounded ends*
0 $1 width*
0 $2 $3 position (X,Y) of the first rounded end (center of the circle)*
0 $4 $5 position (X,Y) of the second rounded end (center of the circle)*
0 Add line between two ends*
20,1,$1,$2,$3,$4,$5,0*
0 Add two circle primitives to create the rounded ends*
1,1,$1,$2,$3*
1,1,$1,$4,$5*%
G04 Aperture macros list end*
%ADD10O,2.200000X1.800000*%
%ADD11C,5.250000*%
%ADD12HorizOval,1.400000X-0.169047X0.362523X0.169047X-0.362523X0*%
%ADD13HorizOval,2.200000X-0.353553X-0.353553X0.353553X0.353553X0*%
%ADD14C,1.900000*%
%ADD15C,2.200000*%
%ADD16O,2.500000X1.400000*%
%ADD17R,1.400000X1.400000*%
%ADD18C,1.400000*%
%ADD19R,1.700000X1.700000*%
%ADD20O,1.700000X1.700000*%
%ADD21R,1.600000X1.600000*%
%ADD22C,1.600000*%
%ADD23C,3.200000*%
%ADD24O,2.000000X3.200000*%
%ADD25C,4.000000*%
%ADD26C,1.800000*%
G04 APERTURE END LIST*
D10*
%TO.C,SW7*%
X140719999Y-126999999D03*
D11*
X146050000Y-127000000D03*
D10*
X151379999Y-126999999D03*
D12*
X141349999Y-131249999D03*
D13*
X149549999Y-129869999D03*
D14*
X143510000Y-132080000D03*
D15*
X146050000Y-133000000D03*
D16*
X148649999Y-132749999D03*
%TD*%
D10*
%TO.C,SW6*%
X102619999Y-126999999D03*
D11*
X107950000Y-127000000D03*
D10*
X113279999Y-126999999D03*
D12*
X103249999Y-131249999D03*
D13*
X111449999Y-129869999D03*
D14*
X105410000Y-132080000D03*
D15*
X107950000Y-133000000D03*
D16*
X110549999Y-132749999D03*
%TD*%
D10*
%TO.C,SW5*%
X121669999Y-126999999D03*
D11*
X127000000Y-127000000D03*
D10*
X132329999Y-126999999D03*
D12*
X122299999Y-131249999D03*
D13*
X130499999Y-129869999D03*
D14*
X124460000Y-132080000D03*
D15*
X127000000Y-133000000D03*
D16*
X129599999Y-132749999D03*
%TD*%
D10*
%TO.C,SW4*%
X121669999Y-107949999D03*
D11*
X127000000Y-107950000D03*
D10*
X132329999Y-107949999D03*
D12*
X122299999Y-112199999D03*
D13*
X130499999Y-110819999D03*
D14*
X124460000Y-113030000D03*
D15*
X127000000Y-113950000D03*
D16*
X129599999Y-113699999D03*
%TD*%
D10*
%TO.C,SW3*%
X83569999Y-107949999D03*
D11*
X88900000Y-107950000D03*
D10*
X94229999Y-107949999D03*
D12*
X84199999Y-112199999D03*
D13*
X92399999Y-110819999D03*
D14*
X86360000Y-113030000D03*
D15*
X88900000Y-113950000D03*
D16*
X91499999Y-113699999D03*
%TD*%
D10*
%TO.C,SW2*%
X166119999Y-126999999D03*
D11*
X171450000Y-127000000D03*
D10*
X176779999Y-126999999D03*
D12*
X166749999Y-131249999D03*
D13*
X174949999Y-129869999D03*
D14*
X168910000Y-132080000D03*
D15*
X171450000Y-133000000D03*
D16*
X174049999Y-132749999D03*
%TD*%
D10*
%TO.C,SW1*%
X77219999Y-126999999D03*
D11*
X82550000Y-127000000D03*
D10*
X87879999Y-126999999D03*
D12*
X77849999Y-131249999D03*
D13*
X86049999Y-129869999D03*
D14*
X80010000Y-132080000D03*
D15*
X82550000Y-133000000D03*
D16*
X85149999Y-132749999D03*
%TD*%
D17*
%TO.C,JP1*%
X161799999Y-64749999D03*
D18*
X159300000Y-64750000D03*
X156800000Y-64750000D03*
X161800000Y-61450000D03*
X159300000Y-61450000D03*
X156800000Y-61450000D03*
%TD*%
D19*
%TO.C,J4*%
X147724999Y-62349999D03*
D20*
X150264999Y-62349999D03*
%TD*%
D19*
%TO.C,J2*%
X133593999Y-62349999D03*
D20*
X131053999Y-62349999D03*
X128513999Y-62349999D03*
X125973999Y-62349999D03*
X123433999Y-62349999D03*
X120893999Y-62349999D03*
X118353999Y-62349999D03*
X115813999Y-62349999D03*
X113273999Y-62349999D03*
%TD*%
D21*
%TO.C,J1*%
X90487499Y-71437499D03*
D22*
X93257500Y-71437500D03*
X96027500Y-71437500D03*
X98797500Y-71437500D03*
X101567500Y-71437500D03*
X91872500Y-68897500D03*
X94642500Y-68897500D03*
X97412500Y-68897500D03*
X100182500Y-68897500D03*
%TD*%
D23*
%TO.C,REF\u002A\u002A*%
X179070000Y-140017500D03*
%TD*%
D19*
%TO.C,J3*%
X139924999Y-62349999D03*
D20*
X142464999Y-62349999D03*
%TD*%
D24*
%TO.C,REF\u002A\u002A*%
X90804999Y-61594999D03*
%TD*%
%TO.C,REF\u002A\u002A*%
X101599999Y-61594999D03*
%TD*%
D25*
%TO.C,RV1*%
X81706000Y-81346000D03*
X90506000Y-81346000D03*
D26*
X88606000Y-88346000D03*
X86106000Y-88346000D03*
X83606000Y-88346000D03*
%TD*%
D23*
%TO.C,REF\u002A\u002A*%
X74930000Y-63500000D03*
%TD*%
D25*
%TO.C,RV2*%
X163544000Y-81346000D03*
X172344000Y-81346000D03*
D26*
X170444000Y-88346000D03*
X167944000Y-88346000D03*
X165444000Y-88346000D03*
%TD*%
D23*
%TO.C,REF\u002A\u002A*%
X179070000Y-63500000D03*
%TD*%
%TO.C,REF\u002A\u002A*%
X74930000Y-140017500D03*
%TD*%
M02*
