%TF.GenerationSoftware,KiCad,Pcbnew,(7.0.0)*%
%TF.CreationDate,2023-04-17T19:04:10-07:00*%
%TF.ProjectId,JoyKeyMX,4a6f794b-6579-44d5-982e-6b696361645f,C*%
%TF.SameCoordinates,Original*%
%TF.FileFunction,Soldermask,Top*%
%TF.FilePolarity,Negative*%
%FSLAX46Y46*%
G04 Gerber Fmt 4.6, Leading zero omitted, Abs format (unit mm)*
G04 Created by KiCad (PCBNEW (7.0.0)) date 2023-04-17 19:04:10*
%MOMM*%
%LPD*%
G01*
G04 APERTURE LIST*
G04 Aperture macros list*
%AMRoundRect*
0 Rectangle with rounded corners*
0 $1 Rounding radius*
0 $2 $3 $4 $5 $6 $7 $8 $9 X,Y pos of 4 corners*
0 Add a 4 corners polygon primitive as box body*
4,1,4,$2,$3,$4,$5,$6,$7,$8,$9,$2,$3,0*
0 Add four circle primitives for the rounded corners*
1,1,$1+$1,$2,$3*
1,1,$1+$1,$4,$5*
1,1,$1+$1,$6,$7*
1,1,$1+$1,$8,$9*
0 Add four rect primitives between the rounded corners*
20,1,$1+$1,$2,$3,$4,$5,0*
20,1,$1+$1,$4,$5,$6,$7,0*
20,1,$1+$1,$6,$7,$8,$9,0*
20,1,$1+$1,$8,$9,$2,$3,0*%
%AMHorizOval*
0 Thick line with rounded ends*
0 $1 width*
0 $2 $3 position (X,Y) of the first rounded end (center of the circle)*
0 $4 $5 position (X,Y) of the second rounded end (center of the circle)*
0 Add line between two ends*
20,1,$1,$2,$3,$4,$5,0*
0 Add two circle primitives to create the rounded ends*
1,1,$1,$2,$3*
1,1,$1,$4,$5*%
G04 Aperture macros list end*
%ADD10O,2.200000X1.800000*%
%ADD11C,5.250000*%
%ADD12HorizOval,1.400000X-0.169047X0.362523X0.169047X-0.362523X0*%
%ADD13R,6.832600X0.228600*%
%ADD14HorizOval,2.200000X-0.353553X-0.353553X0.353553X0.353553X0*%
%ADD15C,1.900000*%
%ADD16R,1.312000X0.254000*%
%ADD17C,2.200000*%
%ADD18R,1.758000X0.284000*%
%ADD19O,2.500000X1.400000*%
%ADD20R,0.800000X0.800000*%
%ADD21RoundRect,0.200000X0.200000X0.275000X-0.200000X0.275000X-0.200000X-0.275000X0.200000X-0.275000X0*%
%ADD22R,1.600000X1.600000*%
%ADD23C,1.600000*%
%ADD24R,1.400000X1.400000*%
%ADD25C,1.400000*%
%ADD26R,1.700000X1.700000*%
%ADD27O,1.700000X1.700000*%
%ADD28C,3.200000*%
%ADD29O,2.000000X3.200000*%
%ADD30RoundRect,0.200000X-0.200000X-0.275000X0.200000X-0.275000X0.200000X0.275000X-0.200000X0.275000X0*%
%ADD31C,4.000000*%
%ADD32C,1.800000*%
G04 APERTURE END LIST*
D10*
%TO.C,SW7*%
X140719999Y-126999999D03*
D11*
X146050000Y-127000000D03*
D10*
X151379999Y-126999999D03*
D12*
X141349999Y-131249999D03*
D13*
X144830799Y-130682999D03*
D14*
X149549999Y-129869999D03*
D15*
X143510000Y-132080000D03*
D16*
X144779999Y-132206999D03*
D17*
X146050000Y-133000000D03*
D18*
X147309999Y-132191999D03*
D19*
X148649999Y-132749999D03*
D20*
X146799999Y-121919999D03*
X145299999Y-121919999D03*
%TD*%
D21*
%TO.C,R6*%
X110425000Y-115350000D03*
X108775000Y-115350000D03*
%TD*%
D22*
%TO.C,J1*%
X90487499Y-71437499D03*
D23*
X93257500Y-71437500D03*
X96027500Y-71437500D03*
X98797500Y-71437500D03*
X101567500Y-71437500D03*
X91872500Y-68897500D03*
X94642500Y-68897500D03*
X97412500Y-68897500D03*
X100182500Y-68897500D03*
%TD*%
D24*
%TO.C,JP1*%
X161799999Y-64749999D03*
D25*
X159300000Y-64750000D03*
X156800000Y-64750000D03*
X161800000Y-61450000D03*
X159300000Y-61450000D03*
X156800000Y-61450000D03*
%TD*%
D10*
%TO.C,SW3*%
X83569999Y-107949999D03*
D11*
X88900000Y-107950000D03*
D10*
X94229999Y-107949999D03*
D12*
X84199999Y-112199999D03*
D13*
X87680799Y-111632999D03*
D14*
X92399999Y-110819999D03*
D15*
X86360000Y-113030000D03*
D16*
X87629999Y-113156999D03*
D17*
X88900000Y-113950000D03*
D18*
X90159999Y-113141999D03*
D19*
X91499999Y-113699999D03*
D20*
X89649999Y-102869999D03*
X88149999Y-102869999D03*
%TD*%
D21*
%TO.C,R1*%
X94825000Y-121950000D03*
X93175000Y-121950000D03*
%TD*%
D26*
%TO.C,J2*%
X133593999Y-62349999D03*
D27*
X131053999Y-62349999D03*
X128513999Y-62349999D03*
X125973999Y-62349999D03*
X123433999Y-62349999D03*
X120893999Y-62349999D03*
X118353999Y-62349999D03*
X115813999Y-62349999D03*
X113273999Y-62349999D03*
%TD*%
D28*
%TO.C,REF\u002A\u002A*%
X179070000Y-140017500D03*
%TD*%
D10*
%TO.C,SW4*%
X121669999Y-107949999D03*
D11*
X127000000Y-107950000D03*
D10*
X132329999Y-107949999D03*
D12*
X122299999Y-112199999D03*
D13*
X125780799Y-111632999D03*
D14*
X130499999Y-110819999D03*
D15*
X124460000Y-113030000D03*
D16*
X125729999Y-113156999D03*
D17*
X127000000Y-113950000D03*
D18*
X128259999Y-113141999D03*
D19*
X129599999Y-113699999D03*
D20*
X127749999Y-102869999D03*
X126249999Y-102869999D03*
%TD*%
D21*
%TO.C,R4*%
X139225000Y-102950000D03*
X137575000Y-102950000D03*
%TD*%
D26*
%TO.C,J3*%
X139924999Y-62349999D03*
D27*
X142464999Y-62349999D03*
%TD*%
D21*
%TO.C,R5*%
X139225000Y-115350000D03*
X137575000Y-115350000D03*
%TD*%
D26*
%TO.C,J4*%
X147724999Y-62349999D03*
D27*
X150264999Y-62349999D03*
%TD*%
D21*
%TO.C,R8*%
X167225000Y-64750000D03*
X165575000Y-64750000D03*
%TD*%
D29*
%TO.C,REF\u002A\u002A*%
X90804999Y-61594999D03*
%TD*%
%TO.C,REF\u002A\u002A*%
X101599999Y-61594999D03*
%TD*%
D10*
%TO.C,SW2*%
X166119999Y-126999999D03*
D11*
X171450000Y-127000000D03*
D10*
X176779999Y-126999999D03*
D12*
X166749999Y-131249999D03*
D13*
X170230799Y-130682999D03*
D14*
X174949999Y-129869999D03*
D15*
X168910000Y-132080000D03*
D16*
X170179999Y-132206999D03*
D17*
X171450000Y-133000000D03*
D18*
X172709999Y-132191999D03*
D19*
X174049999Y-132749999D03*
D20*
X172199999Y-121919999D03*
X170699999Y-121919999D03*
%TD*%
D30*
%TO.C,R7*%
X145175000Y-115350000D03*
X146825000Y-115350000D03*
%TD*%
D31*
%TO.C,RV1*%
X81706000Y-81346000D03*
X90506000Y-81346000D03*
D32*
X88606000Y-88346000D03*
X86106000Y-88346000D03*
X83606000Y-88346000D03*
%TD*%
D30*
%TO.C,R2*%
X170575000Y-115350000D03*
X172225000Y-115350000D03*
%TD*%
D28*
%TO.C,REF\u002A\u002A*%
X74930000Y-63500000D03*
%TD*%
D10*
%TO.C,SW1*%
X77219999Y-126999999D03*
D11*
X82550000Y-127000000D03*
D10*
X87879999Y-126999999D03*
D12*
X77849999Y-131249999D03*
D13*
X81330799Y-130682999D03*
D14*
X86049999Y-129869999D03*
D15*
X80010000Y-132080000D03*
D16*
X81279999Y-132206999D03*
D17*
X82550000Y-133000000D03*
D18*
X83809999Y-132191999D03*
D19*
X85149999Y-132749999D03*
D20*
X83299999Y-121919999D03*
X81799999Y-121919999D03*
%TD*%
D21*
%TO.C,R9*%
X167225000Y-69150000D03*
X165575000Y-69150000D03*
%TD*%
D10*
%TO.C,SW5*%
X121669999Y-126999999D03*
D11*
X127000000Y-127000000D03*
D10*
X132329999Y-126999999D03*
D12*
X122299999Y-131249999D03*
D13*
X125780799Y-130682999D03*
D14*
X130499999Y-129869999D03*
D15*
X124460000Y-132080000D03*
D16*
X125729999Y-132206999D03*
D17*
X127000000Y-133000000D03*
D18*
X128259999Y-132191999D03*
D19*
X129599999Y-132749999D03*
D20*
X127749999Y-121919999D03*
X126249999Y-121919999D03*
%TD*%
D10*
%TO.C,SW6*%
X102619999Y-126999999D03*
D11*
X107950000Y-127000000D03*
D10*
X113279999Y-126999999D03*
D12*
X103249999Y-131249999D03*
D13*
X106730799Y-130682999D03*
D14*
X111449999Y-129869999D03*
D15*
X105410000Y-132080000D03*
D16*
X106679999Y-132206999D03*
D17*
X107950000Y-133000000D03*
D18*
X109209999Y-132191999D03*
D19*
X110549999Y-132749999D03*
D20*
X108699999Y-121919999D03*
X107199999Y-121919999D03*
%TD*%
D21*
%TO.C,R3*%
X101225000Y-102950000D03*
X99575000Y-102950000D03*
%TD*%
D31*
%TO.C,RV2*%
X163544000Y-81346000D03*
X172344000Y-81346000D03*
D32*
X170444000Y-88346000D03*
X167944000Y-88346000D03*
X165444000Y-88346000D03*
%TD*%
D28*
%TO.C,REF\u002A\u002A*%
X179070000Y-63500000D03*
%TD*%
%TO.C,REF\u002A\u002A*%
X74930000Y-140017500D03*
%TD*%
M02*
