%TF.GenerationSoftware,KiCad,Pcbnew,(6.0.1)*%
%TF.CreationDate,2022-11-23T18:56:56-08:00*%
%TF.ProjectId,JoyKeyMX-plate,4a6f794b-6579-44d5-982d-706c6174652e,rev?*%
%TF.SameCoordinates,Original*%
%TF.FileFunction,Profile,NP*%
%FSLAX46Y46*%
G04 Gerber Fmt 4.6, Leading zero omitted, Abs format (unit mm)*
G04 Created by KiCad (PCBNEW (6.0.1)) date 2022-11-23 18:56:56*
%MOMM*%
%LPD*%
G01*
G04 APERTURE LIST*
%TA.AperFunction,Profile*%
%ADD10C,0.100000*%
%TD*%
%TA.AperFunction,Profile*%
%ADD11C,0.120000*%
%TD*%
G04 APERTURE END LIST*
D10*
X74612500Y-97157096D02*
G75*
G03*
X69850000Y-101919596I0J-4762500D01*
G01*
X69850000Y-101919596D02*
X69850000Y-140335000D01*
X184150000Y-101919596D02*
G75*
G03*
X179387500Y-97157096I-4762500J0D01*
G01*
X179387500Y-145097500D02*
G75*
G03*
X184150000Y-140335000I0J4762500D01*
G01*
X74612500Y-145097500D02*
X179387500Y-145097500D01*
X184150000Y-101919596D02*
X184150000Y-140335000D01*
X74612500Y-97157096D02*
X179387500Y-97157096D01*
X69850000Y-140335000D02*
G75*
G03*
X74612500Y-145097500I4762500J0D01*
G01*
D11*
%TO.C,SW7*%
X153050000Y-120500000D02*
X153050000Y-133500000D01*
X139550000Y-120000000D02*
X152550000Y-120000000D01*
X139550000Y-134000000D02*
X152550000Y-134000000D01*
X139050000Y-120500000D02*
X139050000Y-133500000D01*
X139550000Y-120000000D02*
G75*
G03*
X139050000Y-120500000I1J-500001D01*
G01*
X153050000Y-120500000D02*
G75*
G03*
X152550000Y-120000000I-500001J-1D01*
G01*
X139050000Y-133500000D02*
G75*
G03*
X139550000Y-134000000I500001J1D01*
G01*
X152550000Y-134000000D02*
G75*
G03*
X153050000Y-133500000I-1J500001D01*
G01*
%TO.C,SW3*%
X95900000Y-101450000D02*
X95900000Y-114450000D01*
X82400000Y-100950000D02*
X95400000Y-100950000D01*
X82400000Y-114950000D02*
X95400000Y-114950000D01*
X81900000Y-101450000D02*
X81900000Y-114450000D01*
X82400000Y-100950000D02*
G75*
G03*
X81900000Y-101450000I1J-500001D01*
G01*
X95900000Y-101450000D02*
G75*
G03*
X95400000Y-100950000I-500001J-1D01*
G01*
X81900000Y-114450000D02*
G75*
G03*
X82400000Y-114950000I500001J1D01*
G01*
X95400000Y-114950000D02*
G75*
G03*
X95900000Y-114450000I-1J500001D01*
G01*
%TO.C,SW4*%
X134000000Y-101450000D02*
X134000000Y-114450000D01*
X120500000Y-100950000D02*
X133500000Y-100950000D01*
X120500000Y-114950000D02*
X133500000Y-114950000D01*
X120000000Y-101450000D02*
X120000000Y-114450000D01*
X120500000Y-100950000D02*
G75*
G03*
X120000000Y-101450000I1J-500001D01*
G01*
X134000000Y-101450000D02*
G75*
G03*
X133500000Y-100950000I-500001J-1D01*
G01*
X120000000Y-114450000D02*
G75*
G03*
X120500000Y-114950000I500001J1D01*
G01*
X133500000Y-114950000D02*
G75*
G03*
X134000000Y-114450000I-1J500001D01*
G01*
%TO.C,SW2*%
X178450000Y-120500000D02*
X178450000Y-133500000D01*
X164950000Y-120000000D02*
X177950000Y-120000000D01*
X164950000Y-134000000D02*
X177950000Y-134000000D01*
X164450000Y-120500000D02*
X164450000Y-133500000D01*
X164950000Y-120000000D02*
G75*
G03*
X164450000Y-120500000I1J-500001D01*
G01*
X178450000Y-120500000D02*
G75*
G03*
X177950000Y-120000000I-500001J-1D01*
G01*
X164450000Y-133500000D02*
G75*
G03*
X164950000Y-134000000I500001J1D01*
G01*
X177950000Y-134000000D02*
G75*
G03*
X178450000Y-133500000I-1J500001D01*
G01*
%TO.C,SW1*%
X89550000Y-120500000D02*
X89550000Y-133500000D01*
X76050000Y-120000000D02*
X89050000Y-120000000D01*
X76050000Y-134000000D02*
X89050000Y-134000000D01*
X75550000Y-120500000D02*
X75550000Y-133500000D01*
X76050000Y-120000000D02*
G75*
G03*
X75550000Y-120500000I1J-500001D01*
G01*
X89550000Y-120500000D02*
G75*
G03*
X89050000Y-120000000I-500001J-1D01*
G01*
X75550000Y-133500000D02*
G75*
G03*
X76050000Y-134000000I500001J1D01*
G01*
X89050000Y-134000000D02*
G75*
G03*
X89550000Y-133500000I-1J500001D01*
G01*
%TO.C,SW5*%
X134000000Y-120500000D02*
X134000000Y-133500000D01*
X120500000Y-120000000D02*
X133500000Y-120000000D01*
X120500000Y-134000000D02*
X133500000Y-134000000D01*
X120000000Y-120500000D02*
X120000000Y-133500000D01*
X120500000Y-120000000D02*
G75*
G03*
X120000000Y-120500000I1J-500001D01*
G01*
X134000000Y-120500000D02*
G75*
G03*
X133500000Y-120000000I-500001J-1D01*
G01*
X120000000Y-133500000D02*
G75*
G03*
X120500000Y-134000000I500001J1D01*
G01*
X133500000Y-134000000D02*
G75*
G03*
X134000000Y-133500000I-1J500001D01*
G01*
%TO.C,SW6*%
X114950000Y-120500000D02*
X114950000Y-133500000D01*
X101450000Y-120000000D02*
X114450000Y-120000000D01*
X101450000Y-134000000D02*
X114450000Y-134000000D01*
X100950000Y-120500000D02*
X100950000Y-133500000D01*
X101450000Y-120000000D02*
G75*
G03*
X100950000Y-120500000I1J-500001D01*
G01*
X114950000Y-120500000D02*
G75*
G03*
X114450000Y-120000000I-500001J-1D01*
G01*
X100950000Y-133500000D02*
G75*
G03*
X101450000Y-134000000I500001J1D01*
G01*
X114450000Y-134000000D02*
G75*
G03*
X114950000Y-133500000I-1J500001D01*
G01*
%TD*%
M02*
