%TF.GenerationSoftware,KiCad,Pcbnew,(7.0.0)*%
%TF.CreationDate,2023-03-02T11:53:53-08:00*%
%TF.ProjectId,JoyKeyMini-plate,4a6f794b-6579-44d6-996e-692d706c6174,1*%
%TF.SameCoordinates,Original*%
%TF.FileFunction,Profile,NP*%
%FSLAX46Y46*%
G04 Gerber Fmt 4.6, Leading zero omitted, Abs format (unit mm)*
G04 Created by KiCad (PCBNEW (7.0.0)) date 2023-03-02 11:53:53*
%MOMM*%
%LPD*%
G01*
G04 APERTURE LIST*
%TA.AperFunction,Profile*%
%ADD10C,0.100000*%
%TD*%
%TA.AperFunction,Profile*%
%ADD11C,0.120000*%
%TD*%
G04 APERTURE END LIST*
D10*
X26144665Y-74443850D02*
X109631665Y-74443850D01*
X21382165Y-28206350D02*
X21382165Y-69681350D01*
X109631665Y-74443855D02*
G75*
G03*
X114394165Y-69681350I-5J4762505D01*
G01*
X114394165Y-28206350D02*
X114394165Y-69681350D01*
X26156665Y-23431845D02*
G75*
G03*
X21382165Y-28206350I5J-4774505D01*
G01*
X26156665Y-23443850D02*
X109643665Y-23443850D01*
X114394150Y-28206350D02*
G75*
G03*
X109643665Y-23443865I-4762450J50D01*
G01*
X21382170Y-69681350D02*
G75*
G03*
X26144665Y-74443850I4762500J0D01*
G01*
D11*
%TO.C,SW6*%
X103463165Y-51968850D02*
X103463165Y-64968850D01*
X89963165Y-51468850D02*
X102963165Y-51468850D01*
X89963165Y-65468850D02*
X102963165Y-65468850D01*
X89463165Y-51968850D02*
X89463165Y-64968850D01*
X89963165Y-51468850D02*
G75*
G03*
X89463165Y-51968850I1J-500001D01*
G01*
X103463165Y-51968850D02*
G75*
G03*
X102963165Y-51468850I-500000J0D01*
G01*
X89463165Y-64968850D02*
G75*
G03*
X89963165Y-65468850I500001J1D01*
G01*
X102963165Y-65468850D02*
G75*
G03*
X103463165Y-64968850I0J500000D01*
G01*
%TO.C,SW5*%
X84413165Y-51968850D02*
X84413165Y-64968850D01*
X70913165Y-51468850D02*
X83913165Y-51468850D01*
X70913165Y-65468850D02*
X83913165Y-65468850D01*
X70413165Y-51968850D02*
X70413165Y-64968850D01*
X70913165Y-51468850D02*
G75*
G03*
X70413165Y-51968850I1J-500001D01*
G01*
X84413165Y-51968850D02*
G75*
G03*
X83913165Y-51468850I-500000J0D01*
G01*
X70413165Y-64968850D02*
G75*
G03*
X70913165Y-65468850I500001J1D01*
G01*
X83913165Y-65468850D02*
G75*
G03*
X84413165Y-64968850I0J500000D01*
G01*
%TO.C,SW4*%
X83913165Y-46418850D02*
G75*
G03*
X84413165Y-45918850I0J500000D01*
G01*
X70413165Y-45918850D02*
G75*
G03*
X70913165Y-46418850I500001J1D01*
G01*
X84413165Y-32918850D02*
G75*
G03*
X83913165Y-32418850I-500000J0D01*
G01*
X70913165Y-32418850D02*
G75*
G03*
X70413165Y-32918850I1J-500001D01*
G01*
X70413165Y-32918850D02*
X70413165Y-45918850D01*
X70913165Y-46418850D02*
X83913165Y-46418850D01*
X70913165Y-32418850D02*
X83913165Y-32418850D01*
X84413165Y-32918850D02*
X84413165Y-45918850D01*
%TO.C,SW3*%
X65363165Y-51968850D02*
X65363165Y-64968850D01*
X51863165Y-51468850D02*
X64863165Y-51468850D01*
X51863165Y-65468850D02*
X64863165Y-65468850D01*
X51363165Y-51968850D02*
X51363165Y-64968850D01*
X51863165Y-51468850D02*
G75*
G03*
X51363165Y-51968850I1J-500001D01*
G01*
X65363165Y-51968850D02*
G75*
G03*
X64863165Y-51468850I-500000J0D01*
G01*
X51363165Y-64968850D02*
G75*
G03*
X51863165Y-65468850I500001J1D01*
G01*
X64863165Y-65468850D02*
G75*
G03*
X65363165Y-64968850I0J500000D01*
G01*
%TO.C,SW1*%
X45813165Y-46418850D02*
G75*
G03*
X46313165Y-45918850I0J500000D01*
G01*
X32313165Y-45918850D02*
G75*
G03*
X32813165Y-46418850I500001J1D01*
G01*
X46313165Y-32918850D02*
G75*
G03*
X45813165Y-32418850I-500000J0D01*
G01*
X32813165Y-32418850D02*
G75*
G03*
X32313165Y-32918850I1J-500001D01*
G01*
X32313165Y-32918850D02*
X32313165Y-45918850D01*
X32813165Y-46418850D02*
X45813165Y-46418850D01*
X32813165Y-32418850D02*
X45813165Y-32418850D01*
X46313165Y-32918850D02*
X46313165Y-45918850D01*
%TD*%
M02*
