M48
; DRILL file {KiCad (7.0.0)} date Sun Apr  9 14:20:36 2023
; FORMAT={-:-/ absolute / metric / decimal}
; #@! TF.CreationDate,2023-04-09T14:20:36-07:00
; #@! TF.GenerationSoftware,Kicad,Pcbnew,(7.0.0)
; #@! TF.FileFunction,Plated,1,2,PTH
FMAT,2
METRIC
; #@! TA.AperFunction,Plated,PTH,ComponentDrill
T1C0.800
; #@! TA.AperFunction,Plated,PTH,ComponentDrill
T2C1.000
; #@! TA.AperFunction,Plated,PTH,ComponentDrill
T3C3.200
%
G90
G05
T1
X29.675Y-41.5
X29.675Y-49.12
X32.215Y-41.5
X32.215Y-49.12
X32.3Y-38.06
X34.755Y-41.5
X34.755Y-49.12
X37.295Y-41.5
X37.295Y-49.12
X37.3Y-38.06
X39.835Y-41.5
X39.835Y-49.12
X39.88Y-38.06
X42.375Y-41.5
X42.375Y-49.12
X44.88Y-38.06
X44.915Y-41.5
X44.915Y-49.12
X47.455Y-41.5
X47.455Y-49.12
X49.995Y-41.5
X49.995Y-49.12
X52.535Y-41.5
X52.535Y-49.12
X62.705Y-41.5
X62.705Y-49.12
X65.245Y-41.5
X65.245Y-49.12
X67.785Y-41.5
X67.785Y-49.12
X70.325Y-41.5
X70.325Y-49.12
X72.865Y-41.5
X72.865Y-49.12
X75.405Y-41.5
X75.405Y-49.12
X77.945Y-41.5
X77.945Y-49.12
X78.02Y-53.34
X83.02Y-53.34
T2
X20.93Y-24.845
X20.93Y-27.615
X20.93Y-30.385
X20.93Y-33.155
X20.93Y-56.845
X20.93Y-59.615
X20.93Y-62.385
X20.93Y-65.155
X23.77Y-23.46
X23.77Y-26.23
X23.77Y-29.0
X23.77Y-31.77
X23.77Y-34.54
X23.77Y-55.46
X23.77Y-58.23
X23.77Y-61.0
X23.77Y-63.77
X23.77Y-66.54
X32.22Y-69.233
X32.22Y-71.772
X34.76Y-69.233
X34.76Y-71.772
X37.3Y-69.233
X37.3Y-71.772
X39.84Y-69.233
X39.84Y-71.772
X42.38Y-69.233
X42.38Y-71.772
X44.92Y-69.233
X44.92Y-71.772
X46.975Y-12.7
X47.46Y-69.233
X47.46Y-71.772
X49.515Y-12.7
X50.0Y-69.233
X50.0Y-71.772
X52.055Y-12.7
X168.91Y-23.46
X168.91Y-26.23
X168.91Y-29.0
X168.91Y-31.77
X168.91Y-34.54
X168.91Y-55.42
X168.91Y-58.19
X168.91Y-60.96
X168.91Y-63.73
X168.91Y-66.5
X171.75Y-24.845
X171.75Y-27.615
X171.75Y-30.385
X171.75Y-33.155
X171.75Y-56.805
X171.75Y-59.575
X171.75Y-62.345
X171.75Y-65.115
T3
X22.35Y-16.5
X22.35Y-41.5
X22.35Y-48.5
X22.35Y-73.5
X170.33Y-16.5
X170.33Y-41.5
X170.33Y-48.46
X170.33Y-73.46
T0
M30
