%TF.GenerationSoftware,KiCad,Pcbnew,(7.0.0)*%
%TF.CreationDate,2023-04-09T14:12:24-07:00*%
%TF.ProjectId,SidecarXE85-plate,53696465-6361-4725-9845-38352d706c61,rev?*%
%TF.SameCoordinates,Original*%
%TF.FileFunction,Copper,L1,Top*%
%TF.FilePolarity,Positive*%
%FSLAX46Y46*%
G04 Gerber Fmt 4.6, Leading zero omitted, Abs format (unit mm)*
G04 Created by KiCad (PCBNEW (7.0.0)) date 2023-04-09 14:12:24*
%MOMM*%
%LPD*%
G01*
G04 APERTURE LIST*
G04 APERTURE END LIST*
%TA.AperFunction,Conductor*%
%TO.N,GND*%
G36*
X185741235Y-28575726D02*
G01*
X185758225Y-28576753D01*
X185833310Y-28581295D01*
X185833577Y-28581312D01*
X186025791Y-28593941D01*
X186039994Y-28595702D01*
X186162762Y-28618200D01*
X186164562Y-28618544D01*
X186320791Y-28649620D01*
X186333435Y-28652837D01*
X186460125Y-28692315D01*
X186462881Y-28693213D01*
X186606385Y-28741925D01*
X186617411Y-28746266D01*
X186741168Y-28801964D01*
X186745044Y-28803791D01*
X186878115Y-28869414D01*
X186887421Y-28874509D01*
X187004837Y-28945488D01*
X187009559Y-28948490D01*
X187131729Y-29030120D01*
X187139270Y-29035582D01*
X187247876Y-29120667D01*
X187253135Y-29125028D01*
X187363143Y-29221500D01*
X187369040Y-29227024D01*
X187466727Y-29324708D01*
X187472274Y-29330630D01*
X187568733Y-29440618D01*
X187573116Y-29445904D01*
X187658173Y-29554469D01*
X187663664Y-29562051D01*
X187745277Y-29684190D01*
X187748292Y-29688931D01*
X187819259Y-29806322D01*
X187824354Y-29815627D01*
X187889972Y-29948679D01*
X187891836Y-29952633D01*
X187947514Y-30076342D01*
X187951858Y-30087374D01*
X188000536Y-30230768D01*
X188001501Y-30233735D01*
X188040940Y-30360288D01*
X188044173Y-30372988D01*
X188075236Y-30529142D01*
X188075587Y-30530981D01*
X188098081Y-30653714D01*
X188099847Y-30667955D01*
X188112881Y-30866745D01*
X188112921Y-30867368D01*
X188118024Y-30951694D01*
X188118250Y-30959184D01*
X188118250Y-159539995D01*
X188118024Y-159547486D01*
X188112083Y-159645654D01*
X188112045Y-159646256D01*
X188099949Y-159831201D01*
X188098182Y-159845461D01*
X188074353Y-159975481D01*
X188074001Y-159977322D01*
X188044402Y-160126106D01*
X188041170Y-160138804D01*
X188000288Y-160269992D01*
X187999322Y-160272961D01*
X187952239Y-160411654D01*
X187947895Y-160422685D01*
X187890620Y-160549941D01*
X187888756Y-160553895D01*
X187824919Y-160683338D01*
X187819824Y-160692643D01*
X187747091Y-160812956D01*
X187744076Y-160817697D01*
X187664452Y-160936859D01*
X187658960Y-160944442D01*
X187571947Y-161055502D01*
X187567566Y-161060787D01*
X187473330Y-161168241D01*
X187467782Y-161174163D01*
X187367932Y-161274011D01*
X187362010Y-161279558D01*
X187254542Y-161373803D01*
X187249256Y-161378186D01*
X187138209Y-161465184D01*
X187130627Y-161470675D01*
X187011433Y-161550317D01*
X187006692Y-161553331D01*
X186886409Y-161626044D01*
X186877103Y-161631140D01*
X186747638Y-161694984D01*
X186743686Y-161696847D01*
X186616442Y-161754114D01*
X186605408Y-161758458D01*
X186466690Y-161805545D01*
X186463723Y-161806511D01*
X186332555Y-161847384D01*
X186319856Y-161850615D01*
X186171090Y-161880206D01*
X186169250Y-161880558D01*
X186039185Y-161904393D01*
X186024944Y-161906159D01*
X185846568Y-161917850D01*
X185845946Y-161917889D01*
X185740410Y-161924274D01*
X185732922Y-161924500D01*
X26197501Y-161924500D01*
X26190015Y-161924274D01*
X26183272Y-161923866D01*
X26095223Y-161918539D01*
X26094602Y-161918500D01*
X25905872Y-161906130D01*
X25891630Y-161904364D01*
X25765244Y-161881203D01*
X25763405Y-161880851D01*
X25610939Y-161850524D01*
X25598239Y-161847292D01*
X25469357Y-161807130D01*
X25466390Y-161806164D01*
X25325360Y-161758291D01*
X25314327Y-161753948D01*
X25188830Y-161697467D01*
X25184877Y-161695603D01*
X25053641Y-161630884D01*
X25044336Y-161625789D01*
X24925477Y-161553937D01*
X24920735Y-161550922D01*
X24800082Y-161470304D01*
X24792499Y-161464812D01*
X24682685Y-161378777D01*
X24677401Y-161374396D01*
X24568681Y-161279052D01*
X24562758Y-161273504D01*
X24463994Y-161174740D01*
X24458446Y-161168817D01*
X24363102Y-161060097D01*
X24358721Y-161054813D01*
X24272686Y-160944999D01*
X24267194Y-160937416D01*
X24266822Y-160936859D01*
X24186559Y-160816737D01*
X24183561Y-160812021D01*
X24111709Y-160693162D01*
X24106614Y-160683857D01*
X24106358Y-160683338D01*
X24041875Y-160552578D01*
X24040051Y-160548711D01*
X23983549Y-160423169D01*
X23979207Y-160412138D01*
X23931334Y-160271108D01*
X23930368Y-160268141D01*
X23921349Y-160239201D01*
X23890203Y-160139249D01*
X23886977Y-160126571D01*
X23856635Y-159974030D01*
X23856295Y-159972254D01*
X23833134Y-159845868D01*
X23831369Y-159831626D01*
X23818998Y-159642885D01*
X23818970Y-159642452D01*
X23813225Y-159547485D01*
X23813000Y-159540001D01*
X23813000Y-148463000D01*
X93320559Y-148463000D01*
X93320600Y-148463099D01*
X93320717Y-148463383D01*
X93321100Y-148463541D01*
X93321199Y-148463500D01*
X94083000Y-148463500D01*
X94145000Y-148480113D01*
X94190387Y-148525500D01*
X94207000Y-148587500D01*
X94207000Y-154101701D01*
X94206959Y-154101800D01*
X94207000Y-154101899D01*
X94207117Y-154102183D01*
X94207500Y-154102341D01*
X94207599Y-154102300D01*
X95889000Y-154102300D01*
X95951000Y-154118913D01*
X95996387Y-154164300D01*
X96013000Y-154226300D01*
X96013000Y-155270101D01*
X96012959Y-155270200D01*
X96013000Y-155270299D01*
X96013117Y-155270583D01*
X96013500Y-155270741D01*
X96013599Y-155270700D01*
X99061401Y-155270700D01*
X99061500Y-155270741D01*
X99061883Y-155270583D01*
X99062000Y-155270299D01*
X99062041Y-155270200D01*
X99062000Y-155270101D01*
X99062000Y-154226300D01*
X99078613Y-154164300D01*
X99124000Y-154118913D01*
X99186000Y-154102300D01*
X100867401Y-154102300D01*
X100867500Y-154102341D01*
X100867883Y-154102183D01*
X100868000Y-154101899D01*
X100868041Y-154101800D01*
X100868000Y-154101701D01*
X100868000Y-150329500D01*
X100884613Y-150267500D01*
X100930000Y-150222113D01*
X100992000Y-150205500D01*
X102413000Y-150205500D01*
X102475000Y-150222113D01*
X102520387Y-150267500D01*
X102537000Y-150329500D01*
X102537000Y-154954901D01*
X102536959Y-154955000D01*
X102537000Y-154955099D01*
X102537117Y-154955383D01*
X102537500Y-154955541D01*
X102537599Y-154955500D01*
X116537401Y-154955500D01*
X116537500Y-154955541D01*
X116537883Y-154955383D01*
X116538000Y-154955099D01*
X116538041Y-154955000D01*
X116538000Y-154954901D01*
X116538000Y-150329500D01*
X116554613Y-150267500D01*
X116600000Y-150222113D01*
X116662000Y-150205500D01*
X118083000Y-150205500D01*
X118145000Y-150222113D01*
X118190387Y-150267500D01*
X118207000Y-150329500D01*
X118207000Y-154101701D01*
X118206959Y-154101800D01*
X118207000Y-154101899D01*
X118207117Y-154102183D01*
X118207500Y-154102341D01*
X118207599Y-154102300D01*
X119889000Y-154102300D01*
X119951000Y-154118913D01*
X119996387Y-154164300D01*
X120013000Y-154226300D01*
X120013000Y-155270101D01*
X120012959Y-155270200D01*
X120013000Y-155270299D01*
X120013117Y-155270583D01*
X120013500Y-155270741D01*
X120013599Y-155270700D01*
X123061401Y-155270700D01*
X123061500Y-155270741D01*
X123061883Y-155270583D01*
X123062000Y-155270299D01*
X123062041Y-155270200D01*
X123062000Y-155270101D01*
X123062000Y-154955000D01*
X131111959Y-154955000D01*
X131112000Y-154955099D01*
X131112117Y-154955383D01*
X131112500Y-154955541D01*
X131112599Y-154955500D01*
X145112401Y-154955500D01*
X145112500Y-154955541D01*
X145112883Y-154955383D01*
X145113000Y-154955099D01*
X145113041Y-154955000D01*
X145113000Y-154954901D01*
X145113000Y-145430000D01*
X150161959Y-145430000D01*
X150162000Y-145430099D01*
X150162117Y-145430383D01*
X150162500Y-145430541D01*
X150162599Y-145430500D01*
X154788000Y-145430500D01*
X154850000Y-145447113D01*
X154895387Y-145492500D01*
X154912000Y-145554500D01*
X154912000Y-146975500D01*
X154895387Y-147037500D01*
X154850000Y-147082887D01*
X154788000Y-147099500D01*
X151015799Y-147099500D01*
X151015700Y-147099459D01*
X151015601Y-147099500D01*
X151015317Y-147099617D01*
X151015159Y-147100000D01*
X151015200Y-147100099D01*
X151015200Y-153759901D01*
X151015159Y-153760000D01*
X151015200Y-153760099D01*
X151015317Y-153760383D01*
X151015700Y-153760541D01*
X151015799Y-153760500D01*
X154752000Y-153760500D01*
X154814000Y-153777113D01*
X154859387Y-153822500D01*
X154876000Y-153884500D01*
X154876000Y-154646301D01*
X154875959Y-154646400D01*
X154876000Y-154646499D01*
X154876117Y-154646783D01*
X154876500Y-154646941D01*
X154876599Y-154646900D01*
X157670401Y-154646900D01*
X157670500Y-154646941D01*
X157670883Y-154646783D01*
X157671000Y-154646499D01*
X157671041Y-154646400D01*
X157671000Y-154646301D01*
X157671000Y-153884500D01*
X157687613Y-153822500D01*
X157733000Y-153777113D01*
X157795000Y-153760500D01*
X163309201Y-153760500D01*
X163309300Y-153760541D01*
X163309683Y-153760383D01*
X163309800Y-153760099D01*
X163309841Y-153760000D01*
X163309800Y-153759901D01*
X163309800Y-152078500D01*
X163326413Y-152016500D01*
X163371800Y-151971113D01*
X163433800Y-151954500D01*
X164477601Y-151954500D01*
X164477700Y-151954541D01*
X164478083Y-151954383D01*
X164478200Y-151954099D01*
X164478241Y-151954000D01*
X164478200Y-151953901D01*
X164478200Y-148906099D01*
X164478241Y-148906000D01*
X164478083Y-148905617D01*
X164477799Y-148905500D01*
X164477700Y-148905459D01*
X164477601Y-148905500D01*
X163433800Y-148905500D01*
X163371800Y-148888887D01*
X163326413Y-148843500D01*
X163309800Y-148781500D01*
X163309800Y-147112025D01*
X163309800Y-147100099D01*
X163309841Y-147100000D01*
X163309683Y-147099617D01*
X163309399Y-147099500D01*
X163309300Y-147099459D01*
X163309201Y-147099500D01*
X159537000Y-147099500D01*
X159475000Y-147082887D01*
X159429613Y-147037500D01*
X159413000Y-146975500D01*
X159413000Y-145554500D01*
X159429613Y-145492500D01*
X159475000Y-145447113D01*
X159537000Y-145430500D01*
X164162401Y-145430500D01*
X164162500Y-145430541D01*
X164162883Y-145430383D01*
X164163000Y-145430099D01*
X164163041Y-145430000D01*
X164163000Y-145429901D01*
X164163000Y-131430099D01*
X164163041Y-131430000D01*
X164162883Y-131429617D01*
X164162599Y-131429500D01*
X164162500Y-131429459D01*
X164162401Y-131429500D01*
X159537000Y-131429500D01*
X159475000Y-131412887D01*
X159429613Y-131367500D01*
X159413000Y-131305500D01*
X159413000Y-129884500D01*
X159429613Y-129822500D01*
X159475000Y-129777113D01*
X159537000Y-129760500D01*
X163309201Y-129760500D01*
X163309300Y-129760541D01*
X163309683Y-129760383D01*
X163309800Y-129760099D01*
X163309841Y-129760000D01*
X163309800Y-129759901D01*
X163309800Y-128078500D01*
X163326413Y-128016500D01*
X163371800Y-127971113D01*
X163433800Y-127954500D01*
X164477601Y-127954500D01*
X164477700Y-127954541D01*
X164478083Y-127954383D01*
X164478200Y-127954099D01*
X164478241Y-127954000D01*
X164478200Y-127953901D01*
X164478200Y-124906099D01*
X164478241Y-124906000D01*
X164478083Y-124905617D01*
X164477799Y-124905500D01*
X164477700Y-124905459D01*
X164477601Y-124905500D01*
X163433800Y-124905500D01*
X163371800Y-124888887D01*
X163326413Y-124843500D01*
X163309800Y-124781500D01*
X163309800Y-123112025D01*
X163309800Y-123100099D01*
X163309841Y-123100000D01*
X163309683Y-123099617D01*
X163309399Y-123099500D01*
X163309300Y-123099459D01*
X163309201Y-123099500D01*
X157795000Y-123099500D01*
X157733000Y-123082887D01*
X157687613Y-123037500D01*
X157671000Y-122975500D01*
X157671000Y-122225625D01*
X157671000Y-122213699D01*
X157671041Y-122213600D01*
X157670883Y-122213217D01*
X157670599Y-122213100D01*
X157670500Y-122213059D01*
X157670401Y-122213100D01*
X154876599Y-122213100D01*
X154876500Y-122213059D01*
X154876401Y-122213100D01*
X154876117Y-122213217D01*
X154875959Y-122213600D01*
X154876000Y-122213699D01*
X154876000Y-122225625D01*
X154876000Y-122975500D01*
X154859387Y-123037500D01*
X154814000Y-123082887D01*
X154752000Y-123099500D01*
X151015799Y-123099500D01*
X151015700Y-123099459D01*
X151015601Y-123099500D01*
X151015317Y-123099617D01*
X151015159Y-123100000D01*
X151015200Y-123100099D01*
X151015200Y-129759901D01*
X151015159Y-129760000D01*
X151015200Y-129760099D01*
X151015317Y-129760383D01*
X151015700Y-129760541D01*
X151015799Y-129760500D01*
X154788000Y-129760500D01*
X154850000Y-129777113D01*
X154895387Y-129822500D01*
X154912000Y-129884500D01*
X154912000Y-131305500D01*
X154895387Y-131367500D01*
X154850000Y-131412887D01*
X154788000Y-131429500D01*
X150162599Y-131429500D01*
X150162500Y-131429459D01*
X150162401Y-131429500D01*
X150162117Y-131429617D01*
X150161959Y-131430000D01*
X150162000Y-131430099D01*
X150162000Y-145429901D01*
X150161959Y-145430000D01*
X145113000Y-145430000D01*
X145113000Y-140955099D01*
X145113041Y-140955000D01*
X145112883Y-140954617D01*
X145112599Y-140954500D01*
X145112500Y-140954459D01*
X145112401Y-140954500D01*
X131112599Y-140954500D01*
X131112500Y-140954459D01*
X131112401Y-140954500D01*
X131112117Y-140954617D01*
X131111959Y-140955000D01*
X131112000Y-140955099D01*
X131112000Y-154954901D01*
X131111959Y-154955000D01*
X123062000Y-154955000D01*
X123062000Y-154226300D01*
X123078613Y-154164300D01*
X123124000Y-154118913D01*
X123186000Y-154102300D01*
X124867401Y-154102300D01*
X124867500Y-154102341D01*
X124867883Y-154102183D01*
X124868000Y-154101899D01*
X124868041Y-154101800D01*
X124868000Y-154101701D01*
X124868000Y-148587500D01*
X124884613Y-148525500D01*
X124930000Y-148480113D01*
X124992000Y-148463500D01*
X125753801Y-148463500D01*
X125753900Y-148463541D01*
X125754283Y-148463383D01*
X125754400Y-148463099D01*
X125754441Y-148463000D01*
X125754400Y-148462901D01*
X125754400Y-145669099D01*
X125754441Y-145669000D01*
X125754283Y-145668617D01*
X125753999Y-145668500D01*
X125753900Y-145668459D01*
X125753801Y-145668500D01*
X124992000Y-145668500D01*
X124930000Y-145651887D01*
X124884613Y-145606500D01*
X124868000Y-145544500D01*
X124868000Y-141820225D01*
X124868000Y-141808299D01*
X124868041Y-141808200D01*
X124867883Y-141807817D01*
X124867599Y-141807700D01*
X124867500Y-141807659D01*
X124867401Y-141807700D01*
X118207599Y-141807700D01*
X118207500Y-141807659D01*
X118207401Y-141807700D01*
X118207117Y-141807817D01*
X118206959Y-141808200D01*
X118207000Y-141808299D01*
X118207000Y-141820225D01*
X118207000Y-145580500D01*
X118190387Y-145642500D01*
X118145000Y-145687887D01*
X118083000Y-145704500D01*
X116662000Y-145704500D01*
X116600000Y-145687887D01*
X116554613Y-145642500D01*
X116538000Y-145580500D01*
X116538000Y-140967025D01*
X116538000Y-140955099D01*
X116538041Y-140955000D01*
X116537883Y-140954617D01*
X116537599Y-140954500D01*
X116537500Y-140954459D01*
X116537401Y-140954500D01*
X102537599Y-140954500D01*
X102537500Y-140954459D01*
X102537401Y-140954500D01*
X102537117Y-140954617D01*
X102536959Y-140955000D01*
X102537000Y-140955099D01*
X102537000Y-140967025D01*
X102537000Y-145580500D01*
X102520387Y-145642500D01*
X102475000Y-145687887D01*
X102413000Y-145704500D01*
X100992000Y-145704500D01*
X100930000Y-145687887D01*
X100884613Y-145642500D01*
X100868000Y-145580500D01*
X100868000Y-141820225D01*
X100868000Y-141808299D01*
X100868041Y-141808200D01*
X100867883Y-141807817D01*
X100867599Y-141807700D01*
X100867500Y-141807659D01*
X100867401Y-141807700D01*
X94207599Y-141807700D01*
X94207500Y-141807659D01*
X94207401Y-141807700D01*
X94207117Y-141807817D01*
X94206959Y-141808200D01*
X94207000Y-141808299D01*
X94207000Y-141820225D01*
X94207000Y-145544500D01*
X94190387Y-145606500D01*
X94145000Y-145651887D01*
X94083000Y-145668500D01*
X93321199Y-145668500D01*
X93321100Y-145668459D01*
X93321001Y-145668500D01*
X93320717Y-145668617D01*
X93320559Y-145669000D01*
X93320600Y-145669099D01*
X93320600Y-148462901D01*
X93320559Y-148463000D01*
X23813000Y-148463000D01*
X23813000Y-135905000D01*
X93011959Y-135905000D01*
X93012000Y-135905099D01*
X93012117Y-135905383D01*
X93012500Y-135905541D01*
X93012599Y-135905500D01*
X107012401Y-135905500D01*
X107012500Y-135905541D01*
X107012883Y-135905383D01*
X107013000Y-135905099D01*
X107013041Y-135905000D01*
X112061959Y-135905000D01*
X112062000Y-135905099D01*
X112062117Y-135905383D01*
X112062500Y-135905541D01*
X112062599Y-135905500D01*
X126062401Y-135905500D01*
X126062500Y-135905541D01*
X126062883Y-135905383D01*
X126063000Y-135905099D01*
X126063041Y-135905000D01*
X131111959Y-135905000D01*
X131112000Y-135905099D01*
X131112117Y-135905383D01*
X131112500Y-135905541D01*
X131112599Y-135905500D01*
X145112401Y-135905500D01*
X145112500Y-135905541D01*
X145112883Y-135905383D01*
X145113000Y-135905099D01*
X145113041Y-135905000D01*
X145113000Y-135904901D01*
X145113000Y-121905099D01*
X145113041Y-121905000D01*
X145112883Y-121904617D01*
X145112599Y-121904500D01*
X145112500Y-121904459D01*
X145112401Y-121904500D01*
X131112599Y-121904500D01*
X131112500Y-121904459D01*
X131112401Y-121904500D01*
X131112117Y-121904617D01*
X131111959Y-121905000D01*
X131112000Y-121905099D01*
X131112000Y-135904901D01*
X131111959Y-135905000D01*
X126063041Y-135905000D01*
X126063000Y-135904901D01*
X126063000Y-121905099D01*
X126063041Y-121905000D01*
X126062883Y-121904617D01*
X126062599Y-121904500D01*
X126062500Y-121904459D01*
X126062401Y-121904500D01*
X112062599Y-121904500D01*
X112062500Y-121904459D01*
X112062401Y-121904500D01*
X112062117Y-121904617D01*
X112061959Y-121905000D01*
X112062000Y-121905099D01*
X112062000Y-135904901D01*
X112061959Y-135905000D01*
X107013041Y-135905000D01*
X107013000Y-135904901D01*
X107013000Y-121905099D01*
X107013041Y-121905000D01*
X107012883Y-121904617D01*
X107012599Y-121904500D01*
X107012500Y-121904459D01*
X107012401Y-121904500D01*
X93012599Y-121904500D01*
X93012500Y-121904459D01*
X93012401Y-121904500D01*
X93012117Y-121904617D01*
X93011959Y-121905000D01*
X93012000Y-121905099D01*
X93012000Y-135904901D01*
X93011959Y-135905000D01*
X23813000Y-135905000D01*
X23813000Y-116855000D01*
X31099459Y-116855000D01*
X31099500Y-116855099D01*
X31099617Y-116855383D01*
X31100000Y-116855541D01*
X31100099Y-116855500D01*
X45099901Y-116855500D01*
X45100000Y-116855541D01*
X45100383Y-116855383D01*
X45100500Y-116855099D01*
X45100541Y-116855000D01*
X50149459Y-116855000D01*
X50149500Y-116855099D01*
X50149617Y-116855383D01*
X50150000Y-116855541D01*
X50150099Y-116855500D01*
X64149901Y-116855500D01*
X64150000Y-116855541D01*
X64150383Y-116855383D01*
X64150500Y-116855099D01*
X64150541Y-116855000D01*
X69199459Y-116855000D01*
X69199500Y-116855099D01*
X69199617Y-116855383D01*
X69200000Y-116855541D01*
X69200099Y-116855500D01*
X83199901Y-116855500D01*
X83200000Y-116855541D01*
X83200383Y-116855383D01*
X83200500Y-116855099D01*
X83200541Y-116855000D01*
X93011959Y-116855000D01*
X93012000Y-116855099D01*
X93012117Y-116855383D01*
X93012500Y-116855541D01*
X93012599Y-116855500D01*
X107012401Y-116855500D01*
X107012500Y-116855541D01*
X107012883Y-116855383D01*
X107013000Y-116855099D01*
X107013041Y-116855000D01*
X112061959Y-116855000D01*
X112062000Y-116855099D01*
X112062117Y-116855383D01*
X112062500Y-116855541D01*
X112062599Y-116855500D01*
X126062401Y-116855500D01*
X126062500Y-116855541D01*
X126062883Y-116855383D01*
X126063000Y-116855099D01*
X126063041Y-116855000D01*
X131111959Y-116855000D01*
X131112000Y-116855099D01*
X131112117Y-116855383D01*
X131112500Y-116855541D01*
X131112599Y-116855500D01*
X145112401Y-116855500D01*
X145112500Y-116855541D01*
X145112883Y-116855383D01*
X145113000Y-116855099D01*
X145113041Y-116855000D01*
X150161959Y-116855000D01*
X150162000Y-116855099D01*
X150162117Y-116855383D01*
X150162500Y-116855541D01*
X150162599Y-116855500D01*
X164162401Y-116855500D01*
X164162500Y-116855541D01*
X164162883Y-116855383D01*
X164163000Y-116855099D01*
X164163041Y-116855000D01*
X164163000Y-116854901D01*
X164163000Y-102855099D01*
X164163041Y-102855000D01*
X164162883Y-102854617D01*
X164162599Y-102854500D01*
X164162500Y-102854459D01*
X164162401Y-102854500D01*
X150162599Y-102854500D01*
X150162500Y-102854459D01*
X150162401Y-102854500D01*
X150162117Y-102854617D01*
X150161959Y-102855000D01*
X150162000Y-102855099D01*
X150162000Y-116854901D01*
X150161959Y-116855000D01*
X145113041Y-116855000D01*
X145113000Y-116854901D01*
X145113000Y-102855099D01*
X145113041Y-102855000D01*
X145112883Y-102854617D01*
X145112599Y-102854500D01*
X145112500Y-102854459D01*
X145112401Y-102854500D01*
X131112599Y-102854500D01*
X131112500Y-102854459D01*
X131112401Y-102854500D01*
X131112117Y-102854617D01*
X131111959Y-102855000D01*
X131112000Y-102855099D01*
X131112000Y-116854901D01*
X131111959Y-116855000D01*
X126063041Y-116855000D01*
X126063000Y-116854901D01*
X126063000Y-102855099D01*
X126063041Y-102855000D01*
X126062883Y-102854617D01*
X126062599Y-102854500D01*
X126062500Y-102854459D01*
X126062401Y-102854500D01*
X112062599Y-102854500D01*
X112062500Y-102854459D01*
X112062401Y-102854500D01*
X112062117Y-102854617D01*
X112061959Y-102855000D01*
X112062000Y-102855099D01*
X112062000Y-116854901D01*
X112061959Y-116855000D01*
X107013041Y-116855000D01*
X107013000Y-116854901D01*
X107013000Y-102855099D01*
X107013041Y-102855000D01*
X107012883Y-102854617D01*
X107012599Y-102854500D01*
X107012500Y-102854459D01*
X107012401Y-102854500D01*
X93012599Y-102854500D01*
X93012500Y-102854459D01*
X93012401Y-102854500D01*
X93012117Y-102854617D01*
X93011959Y-102855000D01*
X93012000Y-102855099D01*
X93012000Y-116854901D01*
X93011959Y-116855000D01*
X83200541Y-116855000D01*
X83200500Y-116854901D01*
X83200500Y-102855099D01*
X83200541Y-102855000D01*
X83200383Y-102854617D01*
X83200099Y-102854500D01*
X83200000Y-102854459D01*
X83199901Y-102854500D01*
X69200099Y-102854500D01*
X69200000Y-102854459D01*
X69199901Y-102854500D01*
X69199617Y-102854617D01*
X69199459Y-102855000D01*
X69199500Y-102855099D01*
X69199500Y-116854901D01*
X69199459Y-116855000D01*
X64150541Y-116855000D01*
X64150500Y-116854901D01*
X64150500Y-102855099D01*
X64150541Y-102855000D01*
X64150383Y-102854617D01*
X64150099Y-102854500D01*
X64150000Y-102854459D01*
X64149901Y-102854500D01*
X50150099Y-102854500D01*
X50150000Y-102854459D01*
X50149901Y-102854500D01*
X50149617Y-102854617D01*
X50149459Y-102855000D01*
X50149500Y-102855099D01*
X50149500Y-116854901D01*
X50149459Y-116855000D01*
X45100541Y-116855000D01*
X45100500Y-116854901D01*
X45100500Y-102855099D01*
X45100541Y-102855000D01*
X45100383Y-102854617D01*
X45100099Y-102854500D01*
X45100000Y-102854459D01*
X45099901Y-102854500D01*
X31100099Y-102854500D01*
X31100000Y-102854459D01*
X31099901Y-102854500D01*
X31099617Y-102854617D01*
X31099459Y-102855000D01*
X31099500Y-102855099D01*
X31099500Y-116854901D01*
X31099459Y-116855000D01*
X23813000Y-116855000D01*
X23813000Y-97805000D01*
X31099459Y-97805000D01*
X31099500Y-97805099D01*
X31099617Y-97805383D01*
X31100000Y-97805541D01*
X31100099Y-97805500D01*
X45099901Y-97805500D01*
X45100000Y-97805541D01*
X45100383Y-97805383D01*
X45100500Y-97805099D01*
X45100541Y-97805000D01*
X50149459Y-97805000D01*
X50149500Y-97805099D01*
X50149617Y-97805383D01*
X50150000Y-97805541D01*
X50150099Y-97805500D01*
X64149901Y-97805500D01*
X64150000Y-97805541D01*
X64150383Y-97805383D01*
X64150500Y-97805099D01*
X64150541Y-97805000D01*
X69199459Y-97805000D01*
X69199500Y-97805099D01*
X69199617Y-97805383D01*
X69200000Y-97805541D01*
X69200099Y-97805500D01*
X83199901Y-97805500D01*
X83200000Y-97805541D01*
X83200383Y-97805383D01*
X83200500Y-97805099D01*
X83200541Y-97805000D01*
X93011959Y-97805000D01*
X93012000Y-97805099D01*
X93012117Y-97805383D01*
X93012500Y-97805541D01*
X93012599Y-97805500D01*
X107012401Y-97805500D01*
X107012500Y-97805541D01*
X107012883Y-97805383D01*
X107013000Y-97805099D01*
X107013041Y-97805000D01*
X112061959Y-97805000D01*
X112062000Y-97805099D01*
X112062117Y-97805383D01*
X112062500Y-97805541D01*
X112062599Y-97805500D01*
X126062401Y-97805500D01*
X126062500Y-97805541D01*
X126062883Y-97805383D01*
X126063000Y-97805099D01*
X126063041Y-97805000D01*
X131111959Y-97805000D01*
X131112000Y-97805099D01*
X131112117Y-97805383D01*
X131112500Y-97805541D01*
X131112599Y-97805500D01*
X145112401Y-97805500D01*
X145112500Y-97805541D01*
X145112883Y-97805383D01*
X145113000Y-97805099D01*
X145113041Y-97805000D01*
X150161959Y-97805000D01*
X150162000Y-97805099D01*
X150162117Y-97805383D01*
X150162500Y-97805541D01*
X150162599Y-97805500D01*
X164162401Y-97805500D01*
X164162500Y-97805541D01*
X164162883Y-97805383D01*
X164163000Y-97805099D01*
X164163041Y-97805000D01*
X164163000Y-97804901D01*
X164163000Y-83805099D01*
X164163041Y-83805000D01*
X164162883Y-83804617D01*
X164162599Y-83804500D01*
X164162500Y-83804459D01*
X164162401Y-83804500D01*
X150162599Y-83804500D01*
X150162500Y-83804459D01*
X150162401Y-83804500D01*
X150162117Y-83804617D01*
X150161959Y-83805000D01*
X150162000Y-83805099D01*
X150162000Y-97804901D01*
X150161959Y-97805000D01*
X145113041Y-97805000D01*
X145113000Y-97804901D01*
X145113000Y-83805099D01*
X145113041Y-83805000D01*
X145112883Y-83804617D01*
X145112599Y-83804500D01*
X145112500Y-83804459D01*
X145112401Y-83804500D01*
X131112599Y-83804500D01*
X131112500Y-83804459D01*
X131112401Y-83804500D01*
X131112117Y-83804617D01*
X131111959Y-83805000D01*
X131112000Y-83805099D01*
X131112000Y-97804901D01*
X131111959Y-97805000D01*
X126063041Y-97805000D01*
X126063000Y-97804901D01*
X126063000Y-83805099D01*
X126063041Y-83805000D01*
X126062883Y-83804617D01*
X126062599Y-83804500D01*
X126062500Y-83804459D01*
X126062401Y-83804500D01*
X112062599Y-83804500D01*
X112062500Y-83804459D01*
X112062401Y-83804500D01*
X112062117Y-83804617D01*
X112061959Y-83805000D01*
X112062000Y-83805099D01*
X112062000Y-97804901D01*
X112061959Y-97805000D01*
X107013041Y-97805000D01*
X107013000Y-97804901D01*
X107013000Y-83805099D01*
X107013041Y-83805000D01*
X107012883Y-83804617D01*
X107012599Y-83804500D01*
X107012500Y-83804459D01*
X107012401Y-83804500D01*
X93012599Y-83804500D01*
X93012500Y-83804459D01*
X93012401Y-83804500D01*
X93012117Y-83804617D01*
X93011959Y-83805000D01*
X93012000Y-83805099D01*
X93012000Y-97804901D01*
X93011959Y-97805000D01*
X83200541Y-97805000D01*
X83200500Y-97804901D01*
X83200500Y-83805099D01*
X83200541Y-83805000D01*
X83200383Y-83804617D01*
X83200099Y-83804500D01*
X83200000Y-83804459D01*
X83199901Y-83804500D01*
X69200099Y-83804500D01*
X69200000Y-83804459D01*
X69199901Y-83804500D01*
X69199617Y-83804617D01*
X69199459Y-83805000D01*
X69199500Y-83805099D01*
X69199500Y-97804901D01*
X69199459Y-97805000D01*
X64150541Y-97805000D01*
X64150500Y-97804901D01*
X64150500Y-83805099D01*
X64150541Y-83805000D01*
X64150383Y-83804617D01*
X64150099Y-83804500D01*
X64150000Y-83804459D01*
X64149901Y-83804500D01*
X50150099Y-83804500D01*
X50150000Y-83804459D01*
X50149901Y-83804500D01*
X50149617Y-83804617D01*
X50149459Y-83805000D01*
X50149500Y-83805099D01*
X50149500Y-97804901D01*
X50149459Y-97805000D01*
X45100541Y-97805000D01*
X45100500Y-97804901D01*
X45100500Y-83805099D01*
X45100541Y-83805000D01*
X45100383Y-83804617D01*
X45100099Y-83804500D01*
X45100000Y-83804459D01*
X45099901Y-83804500D01*
X31100099Y-83804500D01*
X31100000Y-83804459D01*
X31099901Y-83804500D01*
X31099617Y-83804617D01*
X31099459Y-83805000D01*
X31099500Y-83805099D01*
X31099500Y-97804901D01*
X31099459Y-97805000D01*
X23813000Y-97805000D01*
X23813000Y-78755000D01*
X35861959Y-78755000D01*
X35862000Y-78755099D01*
X35862117Y-78755383D01*
X35862500Y-78755541D01*
X35862599Y-78755500D01*
X49862401Y-78755500D01*
X49862500Y-78755541D01*
X49862883Y-78755383D01*
X49863000Y-78755099D01*
X49863041Y-78755000D01*
X64436959Y-78755000D01*
X64437000Y-78755099D01*
X64437117Y-78755383D01*
X64437500Y-78755541D01*
X64437599Y-78755500D01*
X78437401Y-78755500D01*
X78437500Y-78755541D01*
X78437883Y-78755383D01*
X78438000Y-78755099D01*
X78438041Y-78755000D01*
X93011959Y-78755000D01*
X93012000Y-78755099D01*
X93012117Y-78755383D01*
X93012500Y-78755541D01*
X93012599Y-78755500D01*
X107012401Y-78755500D01*
X107012500Y-78755541D01*
X107012883Y-78755383D01*
X107013000Y-78755099D01*
X107013041Y-78755000D01*
X112061959Y-78755000D01*
X112062000Y-78755099D01*
X112062117Y-78755383D01*
X112062500Y-78755541D01*
X112062599Y-78755500D01*
X126062401Y-78755500D01*
X126062500Y-78755541D01*
X126062883Y-78755383D01*
X126063000Y-78755099D01*
X126063041Y-78755000D01*
X131111959Y-78755000D01*
X131112000Y-78755099D01*
X131112117Y-78755383D01*
X131112500Y-78755541D01*
X131112599Y-78755500D01*
X145112401Y-78755500D01*
X145112500Y-78755541D01*
X145112883Y-78755383D01*
X145113000Y-78755099D01*
X145113041Y-78755000D01*
X150161959Y-78755000D01*
X150162000Y-78755099D01*
X150162117Y-78755383D01*
X150162500Y-78755541D01*
X150162599Y-78755500D01*
X164162401Y-78755500D01*
X164162500Y-78755541D01*
X164162883Y-78755383D01*
X164163000Y-78755099D01*
X164163041Y-78755000D01*
X164163000Y-78754901D01*
X164163000Y-64755099D01*
X164163041Y-64755000D01*
X164162883Y-64754617D01*
X164162599Y-64754500D01*
X164162500Y-64754459D01*
X164162401Y-64754500D01*
X150162599Y-64754500D01*
X150162500Y-64754459D01*
X150162401Y-64754500D01*
X150162117Y-64754617D01*
X150161959Y-64755000D01*
X150162000Y-64755099D01*
X150162000Y-78754901D01*
X150161959Y-78755000D01*
X145113041Y-78755000D01*
X145113000Y-78754901D01*
X145113000Y-64755099D01*
X145113041Y-64755000D01*
X145112883Y-64754617D01*
X145112599Y-64754500D01*
X145112500Y-64754459D01*
X145112401Y-64754500D01*
X131112599Y-64754500D01*
X131112500Y-64754459D01*
X131112401Y-64754500D01*
X131112117Y-64754617D01*
X131111959Y-64755000D01*
X131112000Y-64755099D01*
X131112000Y-78754901D01*
X131111959Y-78755000D01*
X126063041Y-78755000D01*
X126063000Y-78754901D01*
X126063000Y-64755099D01*
X126063041Y-64755000D01*
X126062883Y-64754617D01*
X126062599Y-64754500D01*
X126062500Y-64754459D01*
X126062401Y-64754500D01*
X112062599Y-64754500D01*
X112062500Y-64754459D01*
X112062401Y-64754500D01*
X112062117Y-64754617D01*
X112061959Y-64755000D01*
X112062000Y-64755099D01*
X112062000Y-78754901D01*
X112061959Y-78755000D01*
X107013041Y-78755000D01*
X107013000Y-78754901D01*
X107013000Y-64755099D01*
X107013041Y-64755000D01*
X107012883Y-64754617D01*
X107012599Y-64754500D01*
X107012500Y-64754459D01*
X107012401Y-64754500D01*
X93012599Y-64754500D01*
X93012500Y-64754459D01*
X93012401Y-64754500D01*
X93012117Y-64754617D01*
X93011959Y-64755000D01*
X93012000Y-64755099D01*
X93012000Y-78754901D01*
X93011959Y-78755000D01*
X78438041Y-78755000D01*
X78438000Y-78754901D01*
X78438000Y-64755099D01*
X78438041Y-64755000D01*
X78437883Y-64754617D01*
X78437599Y-64754500D01*
X78437500Y-64754459D01*
X78437401Y-64754500D01*
X64437599Y-64754500D01*
X64437500Y-64754459D01*
X64437401Y-64754500D01*
X64437117Y-64754617D01*
X64436959Y-64755000D01*
X64437000Y-64755099D01*
X64437000Y-78754901D01*
X64436959Y-78755000D01*
X49863041Y-78755000D01*
X49863000Y-78754901D01*
X49863000Y-64755099D01*
X49863041Y-64755000D01*
X49862883Y-64754617D01*
X49862599Y-64754500D01*
X49862500Y-64754459D01*
X49862401Y-64754500D01*
X35862599Y-64754500D01*
X35862500Y-64754459D01*
X35862401Y-64754500D01*
X35862117Y-64754617D01*
X35861959Y-64755000D01*
X35862000Y-64755099D01*
X35862000Y-78754901D01*
X35861959Y-78755000D01*
X23813000Y-78755000D01*
X23813000Y-44977798D01*
X61039543Y-44977798D01*
X61039637Y-44981211D01*
X61039637Y-44981215D01*
X61049331Y-45332911D01*
X61049332Y-45332923D01*
X61049426Y-45336332D01*
X61049893Y-45339705D01*
X61049895Y-45339720D01*
X61074617Y-45517998D01*
X61098691Y-45691603D01*
X61099526Y-45694902D01*
X61099528Y-45694910D01*
X61185901Y-46035991D01*
X61185903Y-46036000D01*
X61186739Y-46039298D01*
X61187936Y-46042496D01*
X61187937Y-46042498D01*
X61251442Y-46212114D01*
X61312502Y-46375197D01*
X61314047Y-46378251D01*
X61314048Y-46378252D01*
X61394607Y-46537441D01*
X61474454Y-46695221D01*
X61476317Y-46698074D01*
X61476322Y-46698081D01*
X61576107Y-46850813D01*
X61670628Y-46995488D01*
X61898643Y-47272352D01*
X61901086Y-47274728D01*
X61901091Y-47274734D01*
X62033141Y-47403194D01*
X62155731Y-47522451D01*
X62438772Y-47742751D01*
X62744330Y-47930577D01*
X63068696Y-48083649D01*
X63248175Y-48145264D01*
X63404702Y-48199000D01*
X63404705Y-48199000D01*
X63407933Y-48200109D01*
X63411262Y-48200855D01*
X63754579Y-48277794D01*
X63754582Y-48277794D01*
X63757922Y-48278543D01*
X64114415Y-48318000D01*
X64381642Y-48318000D01*
X64383345Y-48318000D01*
X64651875Y-48303185D01*
X65005654Y-48244150D01*
X65350791Y-48146554D01*
X65683096Y-48011583D01*
X65998537Y-47840875D01*
X66293284Y-47636502D01*
X66563760Y-47400945D01*
X66652083Y-47305000D01*
X69199459Y-47305000D01*
X69199500Y-47305099D01*
X69199617Y-47305383D01*
X69200000Y-47305541D01*
X69200099Y-47305500D01*
X83199901Y-47305500D01*
X83200000Y-47305541D01*
X83200383Y-47305383D01*
X83200500Y-47305099D01*
X83200541Y-47305000D01*
X83200500Y-47304901D01*
X83200500Y-44977798D01*
X89614543Y-44977798D01*
X89614637Y-44981211D01*
X89614637Y-44981215D01*
X89624331Y-45332911D01*
X89624332Y-45332923D01*
X89624426Y-45336332D01*
X89624893Y-45339705D01*
X89624895Y-45339720D01*
X89649617Y-45517998D01*
X89673691Y-45691603D01*
X89674526Y-45694902D01*
X89674528Y-45694910D01*
X89760901Y-46035991D01*
X89760903Y-46036000D01*
X89761739Y-46039298D01*
X89762936Y-46042496D01*
X89762937Y-46042498D01*
X89826442Y-46212114D01*
X89887502Y-46375197D01*
X89889047Y-46378251D01*
X89889048Y-46378252D01*
X89969607Y-46537441D01*
X90049454Y-46695221D01*
X90051317Y-46698074D01*
X90051322Y-46698081D01*
X90151107Y-46850813D01*
X90245628Y-46995488D01*
X90473643Y-47272352D01*
X90476086Y-47274728D01*
X90476091Y-47274734D01*
X90608141Y-47403194D01*
X90730731Y-47522451D01*
X91013772Y-47742751D01*
X91319330Y-47930577D01*
X91643696Y-48083649D01*
X91823175Y-48145264D01*
X91979702Y-48199000D01*
X91979705Y-48199000D01*
X91982933Y-48200109D01*
X91986262Y-48200855D01*
X92329579Y-48277794D01*
X92329582Y-48277794D01*
X92332922Y-48278543D01*
X92689415Y-48318000D01*
X92956642Y-48318000D01*
X92958345Y-48318000D01*
X93226875Y-48303185D01*
X93580654Y-48244150D01*
X93925791Y-48146554D01*
X94258096Y-48011583D01*
X94573537Y-47840875D01*
X94868284Y-47636502D01*
X95138760Y-47400945D01*
X95227083Y-47305000D01*
X97774459Y-47305000D01*
X97774500Y-47305099D01*
X97774617Y-47305383D01*
X97775000Y-47305541D01*
X97775099Y-47305500D01*
X111774901Y-47305500D01*
X111775000Y-47305541D01*
X111775383Y-47305383D01*
X111775500Y-47305099D01*
X111775541Y-47305000D01*
X111775500Y-47304901D01*
X111775500Y-44977798D01*
X118189543Y-44977798D01*
X118189637Y-44981211D01*
X118189637Y-44981215D01*
X118199331Y-45332911D01*
X118199332Y-45332923D01*
X118199426Y-45336332D01*
X118199893Y-45339705D01*
X118199895Y-45339720D01*
X118224617Y-45517998D01*
X118248691Y-45691603D01*
X118249526Y-45694902D01*
X118249528Y-45694910D01*
X118335901Y-46035991D01*
X118335903Y-46036000D01*
X118336739Y-46039298D01*
X118337936Y-46042496D01*
X118337937Y-46042498D01*
X118401442Y-46212114D01*
X118462502Y-46375197D01*
X118464047Y-46378251D01*
X118464048Y-46378252D01*
X118544607Y-46537441D01*
X118624454Y-46695221D01*
X118626317Y-46698074D01*
X118626322Y-46698081D01*
X118726107Y-46850813D01*
X118820628Y-46995488D01*
X119048643Y-47272352D01*
X119051086Y-47274728D01*
X119051091Y-47274734D01*
X119183141Y-47403194D01*
X119305731Y-47522451D01*
X119588772Y-47742751D01*
X119894330Y-47930577D01*
X120218696Y-48083649D01*
X120398175Y-48145264D01*
X120554702Y-48199000D01*
X120554705Y-48199000D01*
X120557933Y-48200109D01*
X120561262Y-48200855D01*
X120904579Y-48277794D01*
X120904582Y-48277794D01*
X120907922Y-48278543D01*
X121264415Y-48318000D01*
X121531642Y-48318000D01*
X121533345Y-48318000D01*
X121801875Y-48303185D01*
X122155654Y-48244150D01*
X122500791Y-48146554D01*
X122833096Y-48011583D01*
X123148537Y-47840875D01*
X123443284Y-47636502D01*
X123713760Y-47400945D01*
X123802083Y-47305000D01*
X126349459Y-47305000D01*
X126349500Y-47305099D01*
X126349617Y-47305383D01*
X126350000Y-47305541D01*
X126350099Y-47305500D01*
X140349901Y-47305500D01*
X140350000Y-47305541D01*
X140350383Y-47305383D01*
X140350500Y-47305099D01*
X140350541Y-47305000D01*
X140350500Y-47304901D01*
X140350500Y-44977798D01*
X146764543Y-44977798D01*
X146764637Y-44981211D01*
X146764637Y-44981215D01*
X146774331Y-45332911D01*
X146774332Y-45332923D01*
X146774426Y-45336332D01*
X146774893Y-45339705D01*
X146774895Y-45339720D01*
X146799617Y-45517998D01*
X146823691Y-45691603D01*
X146824526Y-45694902D01*
X146824528Y-45694910D01*
X146910901Y-46035991D01*
X146910903Y-46036000D01*
X146911739Y-46039298D01*
X146912936Y-46042496D01*
X146912937Y-46042498D01*
X146976442Y-46212114D01*
X147037502Y-46375197D01*
X147039047Y-46378251D01*
X147039048Y-46378252D01*
X147119607Y-46537441D01*
X147199454Y-46695221D01*
X147201317Y-46698074D01*
X147201322Y-46698081D01*
X147301107Y-46850813D01*
X147395628Y-46995488D01*
X147623643Y-47272352D01*
X147626086Y-47274728D01*
X147626091Y-47274734D01*
X147758141Y-47403194D01*
X147880731Y-47522451D01*
X148163772Y-47742751D01*
X148469330Y-47930577D01*
X148793696Y-48083649D01*
X148973175Y-48145264D01*
X149129702Y-48199000D01*
X149129705Y-48199000D01*
X149132933Y-48200109D01*
X149136262Y-48200855D01*
X149479579Y-48277794D01*
X149479582Y-48277794D01*
X149482922Y-48278543D01*
X149839415Y-48318000D01*
X150106642Y-48318000D01*
X150108345Y-48318000D01*
X150376875Y-48303185D01*
X150730654Y-48244150D01*
X151075791Y-48146554D01*
X151408096Y-48011583D01*
X151723537Y-47840875D01*
X152018284Y-47636502D01*
X152288760Y-47400945D01*
X152377083Y-47305000D01*
X154924459Y-47305000D01*
X154924500Y-47305099D01*
X154924617Y-47305383D01*
X154925000Y-47305541D01*
X154925099Y-47305500D01*
X168924901Y-47305500D01*
X168925000Y-47305541D01*
X168925383Y-47305383D01*
X168925500Y-47305099D01*
X168925541Y-47305000D01*
X168925500Y-47304901D01*
X168925500Y-35452798D01*
X170577043Y-35452798D01*
X170577137Y-35456211D01*
X170577137Y-35456215D01*
X170586831Y-35807911D01*
X170586832Y-35807923D01*
X170586926Y-35811332D01*
X170587393Y-35814705D01*
X170587395Y-35814720D01*
X170612117Y-35992998D01*
X170636191Y-36166603D01*
X170637026Y-36169902D01*
X170637028Y-36169910D01*
X170723401Y-36510991D01*
X170723403Y-36511000D01*
X170724239Y-36514298D01*
X170725436Y-36517496D01*
X170725437Y-36517498D01*
X170788942Y-36687114D01*
X170850002Y-36850197D01*
X170851547Y-36853251D01*
X170851548Y-36853252D01*
X170932107Y-37012441D01*
X171011954Y-37170221D01*
X171013817Y-37173074D01*
X171013822Y-37173081D01*
X171113607Y-37325813D01*
X171208128Y-37470488D01*
X171436143Y-37747352D01*
X171438586Y-37749728D01*
X171438591Y-37749734D01*
X171570641Y-37878194D01*
X171693231Y-37997451D01*
X171976272Y-38217751D01*
X172281830Y-38405577D01*
X172606196Y-38558649D01*
X172785675Y-38620264D01*
X172942202Y-38674000D01*
X172942205Y-38674000D01*
X172945433Y-38675109D01*
X172948762Y-38675855D01*
X173292079Y-38752794D01*
X173292082Y-38752794D01*
X173295422Y-38753543D01*
X173651915Y-38793000D01*
X173919142Y-38793000D01*
X173920845Y-38793000D01*
X174189375Y-38778185D01*
X174543154Y-38719150D01*
X174888291Y-38621554D01*
X175220596Y-38486583D01*
X175536037Y-38315875D01*
X175830784Y-38111502D01*
X176101260Y-37875945D01*
X176344181Y-37612062D01*
X176556598Y-37323059D01*
X176735933Y-37012441D01*
X176880009Y-36683981D01*
X176987077Y-36341664D01*
X177055838Y-35989647D01*
X177085457Y-35632202D01*
X177075574Y-35273668D01*
X177026309Y-34918397D01*
X176938261Y-34570702D01*
X176812498Y-34234803D01*
X176650546Y-33914779D01*
X176454372Y-33614512D01*
X176226357Y-33337648D01*
X176223913Y-33335270D01*
X176223908Y-33335265D01*
X175971720Y-33089933D01*
X175971716Y-33089929D01*
X175969269Y-33087549D01*
X175820232Y-32971549D01*
X175688929Y-32869351D01*
X175688925Y-32869348D01*
X175686228Y-32867249D01*
X175529776Y-32771078D01*
X175383578Y-32681210D01*
X175383570Y-32681206D01*
X175380670Y-32679423D01*
X175377584Y-32677967D01*
X175377581Y-32677965D01*
X175059406Y-32527815D01*
X175059407Y-32527815D01*
X175056304Y-32526351D01*
X175053065Y-32525239D01*
X175053060Y-32525237D01*
X174720297Y-32410999D01*
X174720282Y-32410994D01*
X174717067Y-32409891D01*
X174713749Y-32409147D01*
X174713737Y-32409144D01*
X174370420Y-32332205D01*
X174370403Y-32332202D01*
X174367078Y-32331457D01*
X174363678Y-32331080D01*
X174363668Y-32331079D01*
X174013997Y-32292377D01*
X174013985Y-32292376D01*
X174010585Y-32292000D01*
X173741655Y-32292000D01*
X173739979Y-32292092D01*
X173739959Y-32292093D01*
X173476527Y-32306627D01*
X173476521Y-32306627D01*
X173473125Y-32306815D01*
X173469781Y-32307373D01*
X173469763Y-32307375D01*
X173122715Y-32365287D01*
X173122700Y-32365290D01*
X173119346Y-32365850D01*
X173116069Y-32366776D01*
X173116054Y-32366780D01*
X172777503Y-32462514D01*
X172777494Y-32462517D01*
X172774209Y-32463446D01*
X172771037Y-32464734D01*
X172771035Y-32464735D01*
X172445078Y-32597127D01*
X172445065Y-32597132D01*
X172441904Y-32598417D01*
X172438907Y-32600038D01*
X172438894Y-32600045D01*
X172129473Y-32767495D01*
X172129458Y-32767503D01*
X172126463Y-32769125D01*
X172123649Y-32771075D01*
X172123646Y-32771078D01*
X171834525Y-32971549D01*
X171834509Y-32971560D01*
X171831716Y-32973498D01*
X171829150Y-32975732D01*
X171829138Y-32975742D01*
X171563822Y-33206805D01*
X171563808Y-33206817D01*
X171561240Y-33209055D01*
X171558931Y-33211562D01*
X171558923Y-33211571D01*
X171320630Y-33470426D01*
X171320617Y-33470440D01*
X171318319Y-33472938D01*
X171316298Y-33475686D01*
X171316296Y-33475690D01*
X171107926Y-33759186D01*
X171107918Y-33759197D01*
X171105902Y-33761941D01*
X171104196Y-33764895D01*
X171104192Y-33764902D01*
X170928276Y-34069598D01*
X170928272Y-34069605D01*
X170926567Y-34072559D01*
X170925197Y-34075680D01*
X170925194Y-34075688D01*
X170783865Y-34397885D01*
X170783860Y-34397895D01*
X170782491Y-34401019D01*
X170781470Y-34404283D01*
X170781469Y-34404286D01*
X170730420Y-34567501D01*
X170675423Y-34743336D01*
X170674769Y-34746683D01*
X170674768Y-34746688D01*
X170607316Y-35092001D01*
X170607314Y-35092014D01*
X170606662Y-35095353D01*
X170606380Y-35098747D01*
X170606379Y-35098760D01*
X170577326Y-35449381D01*
X170577043Y-35452798D01*
X168925500Y-35452798D01*
X168925500Y-33305099D01*
X168925541Y-33305000D01*
X168925383Y-33304617D01*
X168925099Y-33304500D01*
X168925000Y-33304459D01*
X168924901Y-33304500D01*
X154925099Y-33304500D01*
X154925000Y-33304459D01*
X154924901Y-33304500D01*
X154924617Y-33304617D01*
X154924459Y-33305000D01*
X154924500Y-33305099D01*
X154924500Y-47304901D01*
X154924459Y-47305000D01*
X152377083Y-47305000D01*
X152531681Y-47137062D01*
X152744098Y-46848059D01*
X152923433Y-46537441D01*
X153067509Y-46208981D01*
X153174577Y-45866664D01*
X153243338Y-45514647D01*
X153272957Y-45157202D01*
X153263074Y-44798668D01*
X153213809Y-44443397D01*
X153125761Y-44095702D01*
X152999998Y-43759803D01*
X152838046Y-43439779D01*
X152641872Y-43139512D01*
X152413857Y-42862648D01*
X152411413Y-42860270D01*
X152411408Y-42860265D01*
X152159220Y-42614933D01*
X152159216Y-42614929D01*
X152156769Y-42612549D01*
X152007732Y-42496549D01*
X151876429Y-42394351D01*
X151876425Y-42394348D01*
X151873728Y-42392249D01*
X151717276Y-42296078D01*
X151571078Y-42206210D01*
X151571070Y-42206206D01*
X151568170Y-42204423D01*
X151565084Y-42202967D01*
X151565081Y-42202965D01*
X151246906Y-42052815D01*
X151246907Y-42052815D01*
X151243804Y-42051351D01*
X151240565Y-42050239D01*
X151240560Y-42050237D01*
X150907797Y-41935999D01*
X150907782Y-41935994D01*
X150904567Y-41934891D01*
X150901249Y-41934147D01*
X150901237Y-41934144D01*
X150557920Y-41857205D01*
X150557903Y-41857202D01*
X150554578Y-41856457D01*
X150551178Y-41856080D01*
X150551168Y-41856079D01*
X150201497Y-41817377D01*
X150201485Y-41817376D01*
X150198085Y-41817000D01*
X149929155Y-41817000D01*
X149927479Y-41817092D01*
X149927459Y-41817093D01*
X149664027Y-41831627D01*
X149664021Y-41831627D01*
X149660625Y-41831815D01*
X149657281Y-41832373D01*
X149657263Y-41832375D01*
X149310215Y-41890287D01*
X149310200Y-41890290D01*
X149306846Y-41890850D01*
X149303569Y-41891776D01*
X149303554Y-41891780D01*
X148965003Y-41987514D01*
X148964994Y-41987517D01*
X148961709Y-41988446D01*
X148958537Y-41989734D01*
X148958535Y-41989735D01*
X148632578Y-42122127D01*
X148632565Y-42122132D01*
X148629404Y-42123417D01*
X148626407Y-42125038D01*
X148626394Y-42125045D01*
X148316973Y-42292495D01*
X148316958Y-42292503D01*
X148313963Y-42294125D01*
X148311149Y-42296075D01*
X148311146Y-42296078D01*
X148022025Y-42496549D01*
X148022009Y-42496560D01*
X148019216Y-42498498D01*
X148016650Y-42500732D01*
X148016638Y-42500742D01*
X147751322Y-42731805D01*
X147751308Y-42731817D01*
X147748740Y-42734055D01*
X147746431Y-42736562D01*
X147746423Y-42736571D01*
X147508130Y-42995426D01*
X147508117Y-42995440D01*
X147505819Y-42997938D01*
X147503798Y-43000686D01*
X147503796Y-43000690D01*
X147295426Y-43284186D01*
X147295418Y-43284197D01*
X147293402Y-43286941D01*
X147291696Y-43289895D01*
X147291692Y-43289902D01*
X147115776Y-43594598D01*
X147115772Y-43594605D01*
X147114067Y-43597559D01*
X147112697Y-43600680D01*
X147112694Y-43600688D01*
X146971365Y-43922885D01*
X146971360Y-43922895D01*
X146969991Y-43926019D01*
X146968970Y-43929283D01*
X146968969Y-43929286D01*
X146917920Y-44092501D01*
X146862923Y-44268336D01*
X146862269Y-44271683D01*
X146862268Y-44271688D01*
X146794816Y-44617001D01*
X146794814Y-44617014D01*
X146794162Y-44620353D01*
X146793880Y-44623747D01*
X146793879Y-44623760D01*
X146764826Y-44974381D01*
X146764543Y-44977798D01*
X140350500Y-44977798D01*
X140350500Y-35452798D01*
X142002043Y-35452798D01*
X142002137Y-35456211D01*
X142002137Y-35456215D01*
X142011831Y-35807911D01*
X142011832Y-35807923D01*
X142011926Y-35811332D01*
X142012393Y-35814705D01*
X142012395Y-35814720D01*
X142037117Y-35992998D01*
X142061191Y-36166603D01*
X142062026Y-36169902D01*
X142062028Y-36169910D01*
X142148401Y-36510991D01*
X142148403Y-36511000D01*
X142149239Y-36514298D01*
X142150436Y-36517496D01*
X142150437Y-36517498D01*
X142213942Y-36687114D01*
X142275002Y-36850197D01*
X142276547Y-36853251D01*
X142276548Y-36853252D01*
X142357107Y-37012441D01*
X142436954Y-37170221D01*
X142438817Y-37173074D01*
X142438822Y-37173081D01*
X142538607Y-37325813D01*
X142633128Y-37470488D01*
X142861143Y-37747352D01*
X142863586Y-37749728D01*
X142863591Y-37749734D01*
X142995641Y-37878194D01*
X143118231Y-37997451D01*
X143401272Y-38217751D01*
X143706830Y-38405577D01*
X144031196Y-38558649D01*
X144210675Y-38620264D01*
X144367202Y-38674000D01*
X144367205Y-38674000D01*
X144370433Y-38675109D01*
X144373762Y-38675855D01*
X144717079Y-38752794D01*
X144717082Y-38752794D01*
X144720422Y-38753543D01*
X145076915Y-38793000D01*
X145344142Y-38793000D01*
X145345845Y-38793000D01*
X145614375Y-38778185D01*
X145968154Y-38719150D01*
X146313291Y-38621554D01*
X146645596Y-38486583D01*
X146961037Y-38315875D01*
X147255784Y-38111502D01*
X147526260Y-37875945D01*
X147769181Y-37612062D01*
X147981598Y-37323059D01*
X148160933Y-37012441D01*
X148305009Y-36683981D01*
X148412077Y-36341664D01*
X148480838Y-35989647D01*
X148510457Y-35632202D01*
X148500574Y-35273668D01*
X148451309Y-34918397D01*
X148363261Y-34570702D01*
X148237498Y-34234803D01*
X148075546Y-33914779D01*
X147879372Y-33614512D01*
X147651357Y-33337648D01*
X147648913Y-33335270D01*
X147648908Y-33335265D01*
X147396720Y-33089933D01*
X147396716Y-33089929D01*
X147394269Y-33087549D01*
X147245232Y-32971549D01*
X147113929Y-32869351D01*
X147113925Y-32869348D01*
X147111228Y-32867249D01*
X146954776Y-32771078D01*
X146808578Y-32681210D01*
X146808570Y-32681206D01*
X146805670Y-32679423D01*
X146802584Y-32677967D01*
X146802581Y-32677965D01*
X146484406Y-32527815D01*
X146484407Y-32527815D01*
X146481304Y-32526351D01*
X146478065Y-32525239D01*
X146478060Y-32525237D01*
X146145297Y-32410999D01*
X146145282Y-32410994D01*
X146142067Y-32409891D01*
X146138749Y-32409147D01*
X146138737Y-32409144D01*
X145795420Y-32332205D01*
X145795403Y-32332202D01*
X145792078Y-32331457D01*
X145788678Y-32331080D01*
X145788668Y-32331079D01*
X145438997Y-32292377D01*
X145438985Y-32292376D01*
X145435585Y-32292000D01*
X145166655Y-32292000D01*
X145164979Y-32292092D01*
X145164959Y-32292093D01*
X144901527Y-32306627D01*
X144901521Y-32306627D01*
X144898125Y-32306815D01*
X144894781Y-32307373D01*
X144894763Y-32307375D01*
X144547715Y-32365287D01*
X144547700Y-32365290D01*
X144544346Y-32365850D01*
X144541069Y-32366776D01*
X144541054Y-32366780D01*
X144202503Y-32462514D01*
X144202494Y-32462517D01*
X144199209Y-32463446D01*
X144196037Y-32464734D01*
X144196035Y-32464735D01*
X143870078Y-32597127D01*
X143870065Y-32597132D01*
X143866904Y-32598417D01*
X143863907Y-32600038D01*
X143863894Y-32600045D01*
X143554473Y-32767495D01*
X143554458Y-32767503D01*
X143551463Y-32769125D01*
X143548649Y-32771075D01*
X143548646Y-32771078D01*
X143259525Y-32971549D01*
X143259509Y-32971560D01*
X143256716Y-32973498D01*
X143254150Y-32975732D01*
X143254138Y-32975742D01*
X142988822Y-33206805D01*
X142988808Y-33206817D01*
X142986240Y-33209055D01*
X142983931Y-33211562D01*
X142983923Y-33211571D01*
X142745630Y-33470426D01*
X142745617Y-33470440D01*
X142743319Y-33472938D01*
X142741298Y-33475686D01*
X142741296Y-33475690D01*
X142532926Y-33759186D01*
X142532918Y-33759197D01*
X142530902Y-33761941D01*
X142529196Y-33764895D01*
X142529192Y-33764902D01*
X142353276Y-34069598D01*
X142353272Y-34069605D01*
X142351567Y-34072559D01*
X142350197Y-34075680D01*
X142350194Y-34075688D01*
X142208865Y-34397885D01*
X142208860Y-34397895D01*
X142207491Y-34401019D01*
X142206470Y-34404283D01*
X142206469Y-34404286D01*
X142155420Y-34567501D01*
X142100423Y-34743336D01*
X142099769Y-34746683D01*
X142099768Y-34746688D01*
X142032316Y-35092001D01*
X142032314Y-35092014D01*
X142031662Y-35095353D01*
X142031380Y-35098747D01*
X142031379Y-35098760D01*
X142002326Y-35449381D01*
X142002043Y-35452798D01*
X140350500Y-35452798D01*
X140350500Y-33305099D01*
X140350541Y-33305000D01*
X140350383Y-33304617D01*
X140350099Y-33304500D01*
X140350000Y-33304459D01*
X140349901Y-33304500D01*
X126350099Y-33304500D01*
X126350000Y-33304459D01*
X126349901Y-33304500D01*
X126349617Y-33304617D01*
X126349459Y-33305000D01*
X126349500Y-33305099D01*
X126349500Y-47304901D01*
X126349459Y-47305000D01*
X123802083Y-47305000D01*
X123956681Y-47137062D01*
X124169098Y-46848059D01*
X124348433Y-46537441D01*
X124492509Y-46208981D01*
X124599577Y-45866664D01*
X124668338Y-45514647D01*
X124697957Y-45157202D01*
X124688074Y-44798668D01*
X124638809Y-44443397D01*
X124550761Y-44095702D01*
X124424998Y-43759803D01*
X124263046Y-43439779D01*
X124066872Y-43139512D01*
X123838857Y-42862648D01*
X123836413Y-42860270D01*
X123836408Y-42860265D01*
X123584220Y-42614933D01*
X123584216Y-42614929D01*
X123581769Y-42612549D01*
X123432732Y-42496549D01*
X123301429Y-42394351D01*
X123301425Y-42394348D01*
X123298728Y-42392249D01*
X123142276Y-42296078D01*
X122996078Y-42206210D01*
X122996070Y-42206206D01*
X122993170Y-42204423D01*
X122990084Y-42202967D01*
X122990081Y-42202965D01*
X122671906Y-42052815D01*
X122671907Y-42052815D01*
X122668804Y-42051351D01*
X122665565Y-42050239D01*
X122665560Y-42050237D01*
X122332797Y-41935999D01*
X122332782Y-41935994D01*
X122329567Y-41934891D01*
X122326249Y-41934147D01*
X122326237Y-41934144D01*
X121982920Y-41857205D01*
X121982903Y-41857202D01*
X121979578Y-41856457D01*
X121976178Y-41856080D01*
X121976168Y-41856079D01*
X121626497Y-41817377D01*
X121626485Y-41817376D01*
X121623085Y-41817000D01*
X121354155Y-41817000D01*
X121352479Y-41817092D01*
X121352459Y-41817093D01*
X121089027Y-41831627D01*
X121089021Y-41831627D01*
X121085625Y-41831815D01*
X121082281Y-41832373D01*
X121082263Y-41832375D01*
X120735215Y-41890287D01*
X120735200Y-41890290D01*
X120731846Y-41890850D01*
X120728569Y-41891776D01*
X120728554Y-41891780D01*
X120390003Y-41987514D01*
X120389994Y-41987517D01*
X120386709Y-41988446D01*
X120383537Y-41989734D01*
X120383535Y-41989735D01*
X120057578Y-42122127D01*
X120057565Y-42122132D01*
X120054404Y-42123417D01*
X120051407Y-42125038D01*
X120051394Y-42125045D01*
X119741973Y-42292495D01*
X119741958Y-42292503D01*
X119738963Y-42294125D01*
X119736149Y-42296075D01*
X119736146Y-42296078D01*
X119447025Y-42496549D01*
X119447009Y-42496560D01*
X119444216Y-42498498D01*
X119441650Y-42500732D01*
X119441638Y-42500742D01*
X119176322Y-42731805D01*
X119176308Y-42731817D01*
X119173740Y-42734055D01*
X119171431Y-42736562D01*
X119171423Y-42736571D01*
X118933130Y-42995426D01*
X118933117Y-42995440D01*
X118930819Y-42997938D01*
X118928798Y-43000686D01*
X118928796Y-43000690D01*
X118720426Y-43284186D01*
X118720418Y-43284197D01*
X118718402Y-43286941D01*
X118716696Y-43289895D01*
X118716692Y-43289902D01*
X118540776Y-43594598D01*
X118540772Y-43594605D01*
X118539067Y-43597559D01*
X118537697Y-43600680D01*
X118537694Y-43600688D01*
X118396365Y-43922885D01*
X118396360Y-43922895D01*
X118394991Y-43926019D01*
X118393970Y-43929283D01*
X118393969Y-43929286D01*
X118342920Y-44092501D01*
X118287923Y-44268336D01*
X118287269Y-44271683D01*
X118287268Y-44271688D01*
X118219816Y-44617001D01*
X118219814Y-44617014D01*
X118219162Y-44620353D01*
X118218880Y-44623747D01*
X118218879Y-44623760D01*
X118189826Y-44974381D01*
X118189543Y-44977798D01*
X111775500Y-44977798D01*
X111775500Y-35452798D01*
X113427043Y-35452798D01*
X113427137Y-35456211D01*
X113427137Y-35456215D01*
X113436831Y-35807911D01*
X113436832Y-35807923D01*
X113436926Y-35811332D01*
X113437393Y-35814705D01*
X113437395Y-35814720D01*
X113462117Y-35992998D01*
X113486191Y-36166603D01*
X113487026Y-36169902D01*
X113487028Y-36169910D01*
X113573401Y-36510991D01*
X113573403Y-36511000D01*
X113574239Y-36514298D01*
X113575436Y-36517496D01*
X113575437Y-36517498D01*
X113638942Y-36687114D01*
X113700002Y-36850197D01*
X113701547Y-36853251D01*
X113701548Y-36853252D01*
X113782107Y-37012441D01*
X113861954Y-37170221D01*
X113863817Y-37173074D01*
X113863822Y-37173081D01*
X113963607Y-37325813D01*
X114058128Y-37470488D01*
X114286143Y-37747352D01*
X114288586Y-37749728D01*
X114288591Y-37749734D01*
X114420641Y-37878194D01*
X114543231Y-37997451D01*
X114826272Y-38217751D01*
X115131830Y-38405577D01*
X115456196Y-38558649D01*
X115635675Y-38620264D01*
X115792202Y-38674000D01*
X115792205Y-38674000D01*
X115795433Y-38675109D01*
X115798762Y-38675855D01*
X116142079Y-38752794D01*
X116142082Y-38752794D01*
X116145422Y-38753543D01*
X116501915Y-38793000D01*
X116769142Y-38793000D01*
X116770845Y-38793000D01*
X117039375Y-38778185D01*
X117393154Y-38719150D01*
X117738291Y-38621554D01*
X118070596Y-38486583D01*
X118386037Y-38315875D01*
X118680784Y-38111502D01*
X118951260Y-37875945D01*
X119194181Y-37612062D01*
X119406598Y-37323059D01*
X119585933Y-37012441D01*
X119730009Y-36683981D01*
X119837077Y-36341664D01*
X119905838Y-35989647D01*
X119935457Y-35632202D01*
X119925574Y-35273668D01*
X119876309Y-34918397D01*
X119788261Y-34570702D01*
X119662498Y-34234803D01*
X119500546Y-33914779D01*
X119304372Y-33614512D01*
X119076357Y-33337648D01*
X119073913Y-33335270D01*
X119073908Y-33335265D01*
X118821720Y-33089933D01*
X118821716Y-33089929D01*
X118819269Y-33087549D01*
X118670232Y-32971549D01*
X118538929Y-32869351D01*
X118538925Y-32869348D01*
X118536228Y-32867249D01*
X118379776Y-32771078D01*
X118233578Y-32681210D01*
X118233570Y-32681206D01*
X118230670Y-32679423D01*
X118227584Y-32677967D01*
X118227581Y-32677965D01*
X117909406Y-32527815D01*
X117909407Y-32527815D01*
X117906304Y-32526351D01*
X117903065Y-32525239D01*
X117903060Y-32525237D01*
X117570297Y-32410999D01*
X117570282Y-32410994D01*
X117567067Y-32409891D01*
X117563749Y-32409147D01*
X117563737Y-32409144D01*
X117220420Y-32332205D01*
X117220403Y-32332202D01*
X117217078Y-32331457D01*
X117213678Y-32331080D01*
X117213668Y-32331079D01*
X116863997Y-32292377D01*
X116863985Y-32292376D01*
X116860585Y-32292000D01*
X116591655Y-32292000D01*
X116589979Y-32292092D01*
X116589959Y-32292093D01*
X116326527Y-32306627D01*
X116326521Y-32306627D01*
X116323125Y-32306815D01*
X116319781Y-32307373D01*
X116319763Y-32307375D01*
X115972715Y-32365287D01*
X115972700Y-32365290D01*
X115969346Y-32365850D01*
X115966069Y-32366776D01*
X115966054Y-32366780D01*
X115627503Y-32462514D01*
X115627494Y-32462517D01*
X115624209Y-32463446D01*
X115621037Y-32464734D01*
X115621035Y-32464735D01*
X115295078Y-32597127D01*
X115295065Y-32597132D01*
X115291904Y-32598417D01*
X115288907Y-32600038D01*
X115288894Y-32600045D01*
X114979473Y-32767495D01*
X114979458Y-32767503D01*
X114976463Y-32769125D01*
X114973649Y-32771075D01*
X114973646Y-32771078D01*
X114684525Y-32971549D01*
X114684509Y-32971560D01*
X114681716Y-32973498D01*
X114679150Y-32975732D01*
X114679138Y-32975742D01*
X114413822Y-33206805D01*
X114413808Y-33206817D01*
X114411240Y-33209055D01*
X114408931Y-33211562D01*
X114408923Y-33211571D01*
X114170630Y-33470426D01*
X114170617Y-33470440D01*
X114168319Y-33472938D01*
X114166298Y-33475686D01*
X114166296Y-33475690D01*
X113957926Y-33759186D01*
X113957918Y-33759197D01*
X113955902Y-33761941D01*
X113954196Y-33764895D01*
X113954192Y-33764902D01*
X113778276Y-34069598D01*
X113778272Y-34069605D01*
X113776567Y-34072559D01*
X113775197Y-34075680D01*
X113775194Y-34075688D01*
X113633865Y-34397885D01*
X113633860Y-34397895D01*
X113632491Y-34401019D01*
X113631470Y-34404283D01*
X113631469Y-34404286D01*
X113580420Y-34567501D01*
X113525423Y-34743336D01*
X113524769Y-34746683D01*
X113524768Y-34746688D01*
X113457316Y-35092001D01*
X113457314Y-35092014D01*
X113456662Y-35095353D01*
X113456380Y-35098747D01*
X113456379Y-35098760D01*
X113427326Y-35449381D01*
X113427043Y-35452798D01*
X111775500Y-35452798D01*
X111775500Y-33305099D01*
X111775541Y-33305000D01*
X111775383Y-33304617D01*
X111775099Y-33304500D01*
X111775000Y-33304459D01*
X111774901Y-33304500D01*
X97775099Y-33304500D01*
X97775000Y-33304459D01*
X97774901Y-33304500D01*
X97774617Y-33304617D01*
X97774459Y-33305000D01*
X97774500Y-33305099D01*
X97774500Y-47304901D01*
X97774459Y-47305000D01*
X95227083Y-47305000D01*
X95381681Y-47137062D01*
X95594098Y-46848059D01*
X95773433Y-46537441D01*
X95917509Y-46208981D01*
X96024577Y-45866664D01*
X96093338Y-45514647D01*
X96122957Y-45157202D01*
X96113074Y-44798668D01*
X96063809Y-44443397D01*
X95975761Y-44095702D01*
X95849998Y-43759803D01*
X95688046Y-43439779D01*
X95491872Y-43139512D01*
X95263857Y-42862648D01*
X95261413Y-42860270D01*
X95261408Y-42860265D01*
X95009220Y-42614933D01*
X95009216Y-42614929D01*
X95006769Y-42612549D01*
X94857732Y-42496549D01*
X94726429Y-42394351D01*
X94726425Y-42394348D01*
X94723728Y-42392249D01*
X94567276Y-42296078D01*
X94421078Y-42206210D01*
X94421070Y-42206206D01*
X94418170Y-42204423D01*
X94415084Y-42202967D01*
X94415081Y-42202965D01*
X94096906Y-42052815D01*
X94096907Y-42052815D01*
X94093804Y-42051351D01*
X94090565Y-42050239D01*
X94090560Y-42050237D01*
X93757797Y-41935999D01*
X93757782Y-41935994D01*
X93754567Y-41934891D01*
X93751249Y-41934147D01*
X93751237Y-41934144D01*
X93407920Y-41857205D01*
X93407903Y-41857202D01*
X93404578Y-41856457D01*
X93401178Y-41856080D01*
X93401168Y-41856079D01*
X93051497Y-41817377D01*
X93051485Y-41817376D01*
X93048085Y-41817000D01*
X92779155Y-41817000D01*
X92777479Y-41817092D01*
X92777459Y-41817093D01*
X92514027Y-41831627D01*
X92514021Y-41831627D01*
X92510625Y-41831815D01*
X92507281Y-41832373D01*
X92507263Y-41832375D01*
X92160215Y-41890287D01*
X92160200Y-41890290D01*
X92156846Y-41890850D01*
X92153569Y-41891776D01*
X92153554Y-41891780D01*
X91815003Y-41987514D01*
X91814994Y-41987517D01*
X91811709Y-41988446D01*
X91808537Y-41989734D01*
X91808535Y-41989735D01*
X91482578Y-42122127D01*
X91482565Y-42122132D01*
X91479404Y-42123417D01*
X91476407Y-42125038D01*
X91476394Y-42125045D01*
X91166973Y-42292495D01*
X91166958Y-42292503D01*
X91163963Y-42294125D01*
X91161149Y-42296075D01*
X91161146Y-42296078D01*
X90872025Y-42496549D01*
X90872009Y-42496560D01*
X90869216Y-42498498D01*
X90866650Y-42500732D01*
X90866638Y-42500742D01*
X90601322Y-42731805D01*
X90601308Y-42731817D01*
X90598740Y-42734055D01*
X90596431Y-42736562D01*
X90596423Y-42736571D01*
X90358130Y-42995426D01*
X90358117Y-42995440D01*
X90355819Y-42997938D01*
X90353798Y-43000686D01*
X90353796Y-43000690D01*
X90145426Y-43284186D01*
X90145418Y-43284197D01*
X90143402Y-43286941D01*
X90141696Y-43289895D01*
X90141692Y-43289902D01*
X89965776Y-43594598D01*
X89965772Y-43594605D01*
X89964067Y-43597559D01*
X89962697Y-43600680D01*
X89962694Y-43600688D01*
X89821365Y-43922885D01*
X89821360Y-43922895D01*
X89819991Y-43926019D01*
X89818970Y-43929283D01*
X89818969Y-43929286D01*
X89767920Y-44092501D01*
X89712923Y-44268336D01*
X89712269Y-44271683D01*
X89712268Y-44271688D01*
X89644816Y-44617001D01*
X89644814Y-44617014D01*
X89644162Y-44620353D01*
X89643880Y-44623747D01*
X89643879Y-44623760D01*
X89614826Y-44974381D01*
X89614543Y-44977798D01*
X83200500Y-44977798D01*
X83200500Y-35452798D01*
X84852043Y-35452798D01*
X84852137Y-35456211D01*
X84852137Y-35456215D01*
X84861831Y-35807911D01*
X84861832Y-35807923D01*
X84861926Y-35811332D01*
X84862393Y-35814705D01*
X84862395Y-35814720D01*
X84887117Y-35992998D01*
X84911191Y-36166603D01*
X84912026Y-36169902D01*
X84912028Y-36169910D01*
X84998401Y-36510991D01*
X84998403Y-36511000D01*
X84999239Y-36514298D01*
X85000436Y-36517496D01*
X85000437Y-36517498D01*
X85063942Y-36687114D01*
X85125002Y-36850197D01*
X85126547Y-36853251D01*
X85126548Y-36853252D01*
X85207107Y-37012441D01*
X85286954Y-37170221D01*
X85288817Y-37173074D01*
X85288822Y-37173081D01*
X85388607Y-37325813D01*
X85483128Y-37470488D01*
X85711143Y-37747352D01*
X85713586Y-37749728D01*
X85713591Y-37749734D01*
X85845641Y-37878194D01*
X85968231Y-37997451D01*
X86251272Y-38217751D01*
X86556830Y-38405577D01*
X86881196Y-38558649D01*
X87060675Y-38620264D01*
X87217202Y-38674000D01*
X87217205Y-38674000D01*
X87220433Y-38675109D01*
X87223762Y-38675855D01*
X87567079Y-38752794D01*
X87567082Y-38752794D01*
X87570422Y-38753543D01*
X87926915Y-38793000D01*
X88194142Y-38793000D01*
X88195845Y-38793000D01*
X88464375Y-38778185D01*
X88818154Y-38719150D01*
X89163291Y-38621554D01*
X89495596Y-38486583D01*
X89811037Y-38315875D01*
X90105784Y-38111502D01*
X90376260Y-37875945D01*
X90619181Y-37612062D01*
X90831598Y-37323059D01*
X91010933Y-37012441D01*
X91155009Y-36683981D01*
X91262077Y-36341664D01*
X91330838Y-35989647D01*
X91360457Y-35632202D01*
X91350574Y-35273668D01*
X91301309Y-34918397D01*
X91213261Y-34570702D01*
X91087498Y-34234803D01*
X90925546Y-33914779D01*
X90729372Y-33614512D01*
X90501357Y-33337648D01*
X90498913Y-33335270D01*
X90498908Y-33335265D01*
X90246720Y-33089933D01*
X90246716Y-33089929D01*
X90244269Y-33087549D01*
X90095232Y-32971549D01*
X89963929Y-32869351D01*
X89963925Y-32869348D01*
X89961228Y-32867249D01*
X89804776Y-32771078D01*
X89658578Y-32681210D01*
X89658570Y-32681206D01*
X89655670Y-32679423D01*
X89652584Y-32677967D01*
X89652581Y-32677965D01*
X89334406Y-32527815D01*
X89334407Y-32527815D01*
X89331304Y-32526351D01*
X89328065Y-32525239D01*
X89328060Y-32525237D01*
X88995297Y-32410999D01*
X88995282Y-32410994D01*
X88992067Y-32409891D01*
X88988749Y-32409147D01*
X88988737Y-32409144D01*
X88645420Y-32332205D01*
X88645403Y-32332202D01*
X88642078Y-32331457D01*
X88638678Y-32331080D01*
X88638668Y-32331079D01*
X88288997Y-32292377D01*
X88288985Y-32292376D01*
X88285585Y-32292000D01*
X88016655Y-32292000D01*
X88014979Y-32292092D01*
X88014959Y-32292093D01*
X87751527Y-32306627D01*
X87751521Y-32306627D01*
X87748125Y-32306815D01*
X87744781Y-32307373D01*
X87744763Y-32307375D01*
X87397715Y-32365287D01*
X87397700Y-32365290D01*
X87394346Y-32365850D01*
X87391069Y-32366776D01*
X87391054Y-32366780D01*
X87052503Y-32462514D01*
X87052494Y-32462517D01*
X87049209Y-32463446D01*
X87046037Y-32464734D01*
X87046035Y-32464735D01*
X86720078Y-32597127D01*
X86720065Y-32597132D01*
X86716904Y-32598417D01*
X86713907Y-32600038D01*
X86713894Y-32600045D01*
X86404473Y-32767495D01*
X86404458Y-32767503D01*
X86401463Y-32769125D01*
X86398649Y-32771075D01*
X86398646Y-32771078D01*
X86109525Y-32971549D01*
X86109509Y-32971560D01*
X86106716Y-32973498D01*
X86104150Y-32975732D01*
X86104138Y-32975742D01*
X85838822Y-33206805D01*
X85838808Y-33206817D01*
X85836240Y-33209055D01*
X85833931Y-33211562D01*
X85833923Y-33211571D01*
X85595630Y-33470426D01*
X85595617Y-33470440D01*
X85593319Y-33472938D01*
X85591298Y-33475686D01*
X85591296Y-33475690D01*
X85382926Y-33759186D01*
X85382918Y-33759197D01*
X85380902Y-33761941D01*
X85379196Y-33764895D01*
X85379192Y-33764902D01*
X85203276Y-34069598D01*
X85203272Y-34069605D01*
X85201567Y-34072559D01*
X85200197Y-34075680D01*
X85200194Y-34075688D01*
X85058865Y-34397885D01*
X85058860Y-34397895D01*
X85057491Y-34401019D01*
X85056470Y-34404283D01*
X85056469Y-34404286D01*
X85005420Y-34567501D01*
X84950423Y-34743336D01*
X84949769Y-34746683D01*
X84949768Y-34746688D01*
X84882316Y-35092001D01*
X84882314Y-35092014D01*
X84881662Y-35095353D01*
X84881380Y-35098747D01*
X84881379Y-35098760D01*
X84852326Y-35449381D01*
X84852043Y-35452798D01*
X83200500Y-35452798D01*
X83200500Y-33305099D01*
X83200541Y-33305000D01*
X83200383Y-33304617D01*
X83200099Y-33304500D01*
X83200000Y-33304459D01*
X83199901Y-33304500D01*
X69200099Y-33304500D01*
X69200000Y-33304459D01*
X69199901Y-33304500D01*
X69199617Y-33304617D01*
X69199459Y-33305000D01*
X69199500Y-33305099D01*
X69199500Y-47304901D01*
X69199459Y-47305000D01*
X66652083Y-47305000D01*
X66806681Y-47137062D01*
X67019098Y-46848059D01*
X67198433Y-46537441D01*
X67342509Y-46208981D01*
X67449577Y-45866664D01*
X67518338Y-45514647D01*
X67547957Y-45157202D01*
X67538074Y-44798668D01*
X67488809Y-44443397D01*
X67400761Y-44095702D01*
X67274998Y-43759803D01*
X67113046Y-43439779D01*
X66916872Y-43139512D01*
X66688857Y-42862648D01*
X66686413Y-42860270D01*
X66686408Y-42860265D01*
X66434220Y-42614933D01*
X66434216Y-42614929D01*
X66431769Y-42612549D01*
X66282732Y-42496549D01*
X66151429Y-42394351D01*
X66151425Y-42394348D01*
X66148728Y-42392249D01*
X65992276Y-42296078D01*
X65846078Y-42206210D01*
X65846070Y-42206206D01*
X65843170Y-42204423D01*
X65840084Y-42202967D01*
X65840081Y-42202965D01*
X65521906Y-42052815D01*
X65521907Y-42052815D01*
X65518804Y-42051351D01*
X65515565Y-42050239D01*
X65515560Y-42050237D01*
X65182797Y-41935999D01*
X65182782Y-41935994D01*
X65179567Y-41934891D01*
X65176249Y-41934147D01*
X65176237Y-41934144D01*
X64832920Y-41857205D01*
X64832903Y-41857202D01*
X64829578Y-41856457D01*
X64826178Y-41856080D01*
X64826168Y-41856079D01*
X64476497Y-41817377D01*
X64476485Y-41817376D01*
X64473085Y-41817000D01*
X64204155Y-41817000D01*
X64202479Y-41817092D01*
X64202459Y-41817093D01*
X63939027Y-41831627D01*
X63939021Y-41831627D01*
X63935625Y-41831815D01*
X63932281Y-41832373D01*
X63932263Y-41832375D01*
X63585215Y-41890287D01*
X63585200Y-41890290D01*
X63581846Y-41890850D01*
X63578569Y-41891776D01*
X63578554Y-41891780D01*
X63240003Y-41987514D01*
X63239994Y-41987517D01*
X63236709Y-41988446D01*
X63233537Y-41989734D01*
X63233535Y-41989735D01*
X62907578Y-42122127D01*
X62907565Y-42122132D01*
X62904404Y-42123417D01*
X62901407Y-42125038D01*
X62901394Y-42125045D01*
X62591973Y-42292495D01*
X62591958Y-42292503D01*
X62588963Y-42294125D01*
X62586149Y-42296075D01*
X62586146Y-42296078D01*
X62297025Y-42496549D01*
X62297009Y-42496560D01*
X62294216Y-42498498D01*
X62291650Y-42500732D01*
X62291638Y-42500742D01*
X62026322Y-42731805D01*
X62026308Y-42731817D01*
X62023740Y-42734055D01*
X62021431Y-42736562D01*
X62021423Y-42736571D01*
X61783130Y-42995426D01*
X61783117Y-42995440D01*
X61780819Y-42997938D01*
X61778798Y-43000686D01*
X61778796Y-43000690D01*
X61570426Y-43284186D01*
X61570418Y-43284197D01*
X61568402Y-43286941D01*
X61566696Y-43289895D01*
X61566692Y-43289902D01*
X61390776Y-43594598D01*
X61390772Y-43594605D01*
X61389067Y-43597559D01*
X61387697Y-43600680D01*
X61387694Y-43600688D01*
X61246365Y-43922885D01*
X61246360Y-43922895D01*
X61244991Y-43926019D01*
X61243970Y-43929283D01*
X61243969Y-43929286D01*
X61192920Y-44092501D01*
X61137923Y-44268336D01*
X61137269Y-44271683D01*
X61137268Y-44271688D01*
X61069816Y-44617001D01*
X61069814Y-44617014D01*
X61069162Y-44620353D01*
X61068880Y-44623747D01*
X61068879Y-44623760D01*
X61039826Y-44974381D01*
X61039543Y-44977798D01*
X23813000Y-44977798D01*
X23813000Y-30959999D01*
X23813226Y-30952513D01*
X23818376Y-30867368D01*
X23818972Y-30857512D01*
X23818998Y-30857113D01*
X23831369Y-30668372D01*
X23833132Y-30654142D01*
X23856316Y-30527632D01*
X23856624Y-30526020D01*
X23886978Y-30373419D01*
X23890200Y-30360759D01*
X23930378Y-30231823D01*
X23931334Y-30228890D01*
X23979213Y-30087844D01*
X23983543Y-30076844D01*
X24040071Y-29951243D01*
X24041853Y-29947465D01*
X24106626Y-29816117D01*
X24111700Y-29806851D01*
X24183591Y-29687929D01*
X24186533Y-29683301D01*
X24267217Y-29562549D01*
X24272665Y-29555027D01*
X24358731Y-29445172D01*
X24363085Y-29439921D01*
X24458477Y-29331147D01*
X24463964Y-29325289D01*
X24562789Y-29226464D01*
X24568647Y-29220977D01*
X24677421Y-29125585D01*
X24682672Y-29121231D01*
X24792527Y-29035165D01*
X24800049Y-29029717D01*
X24920801Y-28949033D01*
X24925429Y-28946091D01*
X25044351Y-28874200D01*
X25053617Y-28869126D01*
X25184965Y-28804353D01*
X25188743Y-28802571D01*
X25314344Y-28746043D01*
X25325344Y-28741713D01*
X25466424Y-28693822D01*
X25469322Y-28692879D01*
X25598259Y-28652700D01*
X25610919Y-28649478D01*
X25763520Y-28619124D01*
X25765132Y-28618816D01*
X25891642Y-28595632D01*
X25905872Y-28593869D01*
X26094613Y-28581498D01*
X26095012Y-28581472D01*
X26190014Y-28575725D01*
X26197499Y-28575500D01*
X185733749Y-28575500D01*
X185741235Y-28575726D01*
G37*
%TD.AperFunction*%
%TD*%
M02*
