%TF.GenerationSoftware,KiCad,Pcbnew,(7.0.0)*%
%TF.CreationDate,2023-04-09T14:25:35-07:00*%
%TF.ProjectId,SidecarXE85-keyboard,53696465-6361-4725-9845-38352d6b6579,rev?*%
%TF.SameCoordinates,Original*%
%TF.FileFunction,Soldermask,Bot*%
%TF.FilePolarity,Negative*%
%FSLAX46Y46*%
G04 Gerber Fmt 4.6, Leading zero omitted, Abs format (unit mm)*
G04 Created by KiCad (PCBNEW (7.0.0)) date 2023-04-09 14:25:35*
%MOMM*%
%LPD*%
G01*
G04 APERTURE LIST*
G04 Aperture macros list*
%AMRoundRect*
0 Rectangle with rounded corners*
0 $1 Rounding radius*
0 $2 $3 $4 $5 $6 $7 $8 $9 X,Y pos of 4 corners*
0 Add a 4 corners polygon primitive as box body*
4,1,4,$2,$3,$4,$5,$6,$7,$8,$9,$2,$3,0*
0 Add four circle primitives for the rounded corners*
1,1,$1+$1,$2,$3*
1,1,$1+$1,$4,$5*
1,1,$1+$1,$6,$7*
1,1,$1+$1,$8,$9*
0 Add four rect primitives between the rounded corners*
20,1,$1+$1,$2,$3,$4,$5,0*
20,1,$1+$1,$4,$5,$6,$7,0*
20,1,$1+$1,$6,$7,$8,$9,0*
20,1,$1+$1,$8,$9,$2,$3,0*%
%AMHorizOval*
0 Thick line with rounded ends*
0 $1 width*
0 $2 $3 position (X,Y) of the first rounded end (center of the circle)*
0 $4 $5 position (X,Y) of the second rounded end (center of the circle)*
0 Add line between two ends*
20,1,$1,$2,$3,$4,$5,0*
0 Add two circle primitives to create the rounded ends*
1,1,$1,$2,$3*
1,1,$1,$4,$5*%
G04 Aperture macros list end*
%ADD10O,2.200000X1.800000*%
%ADD11C,5.250000*%
%ADD12HorizOval,1.400000X-0.169047X0.362523X0.169047X-0.362523X0*%
%ADD13HorizOval,2.200000X-0.353553X-0.353553X0.353553X0.353553X0*%
%ADD14C,1.900000*%
%ADD15C,2.200000*%
%ADD16O,2.500000X1.400000*%
%ADD17C,3.048000*%
%ADD18C,3.987800*%
%ADD19C,1.620000*%
%ADD20RoundRect,0.250000X0.600000X-0.600000X0.600000X0.600000X-0.600000X0.600000X-0.600000X-0.600000X0*%
%ADD21C,1.700000*%
%ADD22RoundRect,0.250000X-0.725000X0.600000X-0.725000X-0.600000X0.725000X-0.600000X0.725000X0.600000X0*%
%ADD23O,1.950000X1.700000*%
G04 APERTURE END LIST*
D10*
%TO.C,SW8*%
X132782499Y-128904999D03*
D11*
X138112500Y-128905000D03*
D10*
X143442499Y-128904999D03*
D12*
X133412499Y-133154999D03*
D13*
X141612499Y-131774999D03*
D14*
X135572500Y-133985000D03*
D15*
X138112500Y-134905000D03*
D16*
X140712499Y-134654999D03*
%TD*%
D10*
%TO.C,SW5*%
X70869999Y-40304999D03*
D11*
X76200000Y-40305000D03*
D10*
X81529999Y-40304999D03*
D12*
X71499999Y-44554999D03*
D13*
X79699999Y-43174999D03*
D14*
X73660000Y-45385000D03*
D15*
X76200000Y-46305000D03*
D16*
X78799999Y-46054999D03*
%TD*%
D10*
%TO.C,SW23*%
X94682499Y-109854999D03*
D11*
X100012500Y-109855000D03*
D10*
X105342499Y-109854999D03*
D12*
X95312499Y-114104999D03*
D13*
X103512499Y-112724999D03*
D14*
X97472500Y-114935000D03*
D15*
X100012500Y-115855000D03*
D16*
X102612499Y-115604999D03*
%TD*%
D17*
%TO.C,SW4*%
X97537500Y-140970000D03*
D18*
X97537500Y-156210000D03*
D10*
X104207499Y-147954999D03*
D11*
X109537500Y-147955000D03*
D10*
X114867499Y-147954999D03*
D17*
X121537500Y-140970000D03*
D18*
X121537500Y-156210000D03*
D12*
X104837499Y-152204999D03*
D13*
X113037499Y-150824999D03*
D14*
X106997500Y-153035000D03*
D15*
X109537500Y-153955000D03*
D16*
X112137499Y-153704999D03*
%TD*%
D10*
%TO.C,SW11*%
X94682499Y-71754999D03*
D11*
X100012500Y-71755000D03*
D10*
X105342499Y-71754999D03*
D12*
X95312499Y-76004999D03*
D13*
X103512499Y-74624999D03*
D14*
X97472500Y-76835000D03*
D15*
X100012500Y-77755000D03*
D16*
X102612499Y-77504999D03*
%TD*%
D10*
%TO.C,SW27*%
X151832499Y-71754999D03*
D11*
X157162500Y-71755000D03*
D10*
X162492499Y-71754999D03*
D12*
X152462499Y-76004999D03*
D13*
X160662499Y-74624999D03*
D14*
X154622500Y-76835000D03*
D15*
X157162500Y-77755000D03*
D16*
X159762499Y-77504999D03*
%TD*%
D10*
%TO.C,SW18*%
X113732499Y-71754999D03*
D11*
X119062500Y-71755000D03*
D10*
X124392499Y-71754999D03*
D12*
X114362499Y-76004999D03*
D13*
X122562499Y-74624999D03*
D14*
X116522500Y-76835000D03*
D15*
X119062500Y-77755000D03*
D16*
X121662499Y-77504999D03*
%TD*%
D10*
%TO.C,SW30*%
X70869999Y-90804999D03*
D11*
X76200000Y-90805000D03*
D10*
X81529999Y-90804999D03*
D12*
X71499999Y-95054999D03*
D13*
X79699999Y-93674999D03*
D14*
X73660000Y-95885000D03*
D15*
X76200000Y-96805000D03*
D16*
X78799999Y-96554999D03*
%TD*%
D10*
%TO.C,SW6*%
X128019999Y-40304999D03*
D11*
X133350000Y-40305000D03*
D10*
X138679999Y-40304999D03*
D12*
X128649999Y-44554999D03*
D13*
X136849999Y-43174999D03*
D14*
X130810000Y-45385000D03*
D15*
X133350000Y-46305000D03*
D16*
X135949999Y-46054999D03*
%TD*%
D10*
%TO.C,SW9*%
X113732499Y-128904999D03*
D11*
X119062500Y-128905000D03*
D10*
X124392499Y-128904999D03*
D12*
X114362499Y-133154999D03*
D13*
X122562499Y-131774999D03*
D14*
X116522500Y-133985000D03*
D15*
X119062500Y-134905000D03*
D16*
X121662499Y-134654999D03*
%TD*%
D10*
%TO.C,SW16*%
X113732499Y-90804999D03*
D11*
X119062500Y-90805000D03*
D10*
X124392499Y-90804999D03*
D12*
X114362499Y-95054999D03*
D13*
X122562499Y-93674999D03*
D14*
X116522500Y-95885000D03*
D15*
X119062500Y-96805000D03*
D16*
X121662499Y-96554999D03*
%TD*%
D17*
%TO.C,SW2*%
X150177500Y-126430000D03*
X150177500Y-150430000D03*
D10*
X151832499Y-138429999D03*
D11*
X157162500Y-138430000D03*
D10*
X162492499Y-138429999D03*
D18*
X165417500Y-126430000D03*
X165417500Y-150430000D03*
D12*
X152462499Y-142679999D03*
D13*
X160662499Y-141299999D03*
D14*
X154622500Y-143510000D03*
D15*
X157162500Y-144430000D03*
D16*
X159762499Y-144179999D03*
%TD*%
D10*
%TO.C,SW15*%
X132782499Y-90804999D03*
D11*
X138112500Y-90805000D03*
D10*
X143442499Y-90804999D03*
D12*
X133412499Y-95054999D03*
D13*
X141612499Y-93674999D03*
D14*
X135572500Y-95885000D03*
D15*
X138112500Y-96805000D03*
D16*
X140712499Y-96554999D03*
%TD*%
D10*
%TO.C,SW3*%
X132782499Y-147954999D03*
D11*
X138112500Y-147955000D03*
D10*
X143442499Y-147954999D03*
D12*
X133412499Y-152204999D03*
D13*
X141612499Y-150824999D03*
D14*
X135572500Y-153035000D03*
D15*
X138112500Y-153955000D03*
D16*
X140712499Y-153704999D03*
%TD*%
D10*
%TO.C,SW13*%
X156594999Y-40304999D03*
D11*
X161925000Y-40305000D03*
D10*
X167254999Y-40304999D03*
D12*
X157224999Y-44554999D03*
D13*
X165424999Y-43174999D03*
D14*
X159385000Y-45385000D03*
D15*
X161925000Y-46305000D03*
D16*
X164524999Y-46054999D03*
%TD*%
D10*
%TO.C,SW29*%
X37532499Y-71754999D03*
D11*
X42862500Y-71755000D03*
D10*
X48192499Y-71754999D03*
D12*
X38162499Y-76004999D03*
D13*
X46362499Y-74624999D03*
D14*
X40322500Y-76835000D03*
D15*
X42862500Y-77755000D03*
D16*
X45462499Y-77504999D03*
%TD*%
D10*
%TO.C,SW24*%
X66107499Y-71754999D03*
D11*
X71437500Y-71755000D03*
D10*
X76767499Y-71754999D03*
D12*
X66737499Y-76004999D03*
D13*
X74937499Y-74624999D03*
D14*
X68897500Y-76835000D03*
D15*
X71437500Y-77755000D03*
D16*
X74037499Y-77504999D03*
%TD*%
D10*
%TO.C,SW26*%
X132782499Y-71754999D03*
D11*
X138112500Y-71755000D03*
D10*
X143442499Y-71754999D03*
D12*
X133412499Y-76004999D03*
D13*
X141612499Y-74624999D03*
D14*
X135572500Y-76835000D03*
D15*
X138112500Y-77755000D03*
D16*
X140712499Y-77504999D03*
%TD*%
D10*
%TO.C,SW20*%
X51819999Y-109854999D03*
D11*
X57150000Y-109855000D03*
D10*
X62479999Y-109854999D03*
D12*
X52449999Y-114104999D03*
D13*
X60649999Y-112724999D03*
D14*
X54610000Y-114935000D03*
D15*
X57150000Y-115855000D03*
D16*
X59749999Y-115604999D03*
%TD*%
D10*
%TO.C,SW17*%
X94682499Y-90804999D03*
D11*
X100012500Y-90805000D03*
D10*
X105342499Y-90804999D03*
D12*
X95312499Y-95054999D03*
D13*
X103512499Y-93674999D03*
D14*
X97472500Y-95885000D03*
D15*
X100012500Y-96805000D03*
D16*
X102612499Y-96554999D03*
%TD*%
D10*
%TO.C,SW21*%
X132782499Y-109854999D03*
D11*
X138112500Y-109855000D03*
D10*
X143442499Y-109854999D03*
D12*
X133412499Y-114104999D03*
D13*
X141612499Y-112724999D03*
D14*
X135572500Y-114935000D03*
D15*
X138112500Y-115855000D03*
D16*
X140712499Y-115604999D03*
%TD*%
D10*
%TO.C,SW7*%
X32769999Y-90804999D03*
D11*
X38100000Y-90805000D03*
D10*
X43429999Y-90804999D03*
D12*
X33399999Y-95054999D03*
D13*
X41599999Y-93674999D03*
D14*
X35560000Y-95885000D03*
D15*
X38100000Y-96805000D03*
D16*
X40699999Y-96554999D03*
%TD*%
D10*
%TO.C,SW22*%
X113732499Y-109854999D03*
D11*
X119062500Y-109855000D03*
D10*
X124392499Y-109854999D03*
D12*
X114362499Y-114104999D03*
D13*
X122562499Y-112724999D03*
D14*
X116522500Y-114935000D03*
D15*
X119062500Y-115855000D03*
D16*
X121662499Y-115604999D03*
%TD*%
D10*
%TO.C,SW25*%
X70869999Y-109854999D03*
D11*
X76200000Y-109855000D03*
D10*
X81529999Y-109854999D03*
D12*
X71499999Y-114104999D03*
D13*
X79699999Y-112724999D03*
D14*
X73660000Y-114935000D03*
D15*
X76200000Y-115855000D03*
D16*
X78799999Y-115604999D03*
%TD*%
D10*
%TO.C,SW12*%
X99444999Y-40304999D03*
D11*
X104775000Y-40305000D03*
D10*
X110104999Y-40304999D03*
D12*
X100074999Y-44554999D03*
D13*
X108274999Y-43174999D03*
D14*
X102235000Y-45385000D03*
D15*
X104775000Y-46305000D03*
D16*
X107374999Y-46054999D03*
%TD*%
D10*
%TO.C,SW19*%
X51819999Y-90804999D03*
D11*
X57150000Y-90805000D03*
D10*
X62479999Y-90804999D03*
D12*
X52449999Y-95054999D03*
D13*
X60649999Y-93674999D03*
D14*
X54610000Y-95885000D03*
D15*
X57150000Y-96805000D03*
D16*
X59749999Y-96554999D03*
%TD*%
D10*
%TO.C,SW1*%
X151832499Y-90804999D03*
D11*
X157162500Y-90805000D03*
D10*
X162492499Y-90804999D03*
D12*
X152462499Y-95054999D03*
D13*
X160662499Y-93674999D03*
D14*
X154622500Y-95885000D03*
D15*
X157162500Y-96805000D03*
D16*
X159762499Y-96554999D03*
%TD*%
D19*
%TO.C,RV1*%
X47625000Y-57150000D03*
X45125000Y-52150000D03*
X42625000Y-57150000D03*
%TD*%
D10*
%TO.C,SW28*%
X151832499Y-109854999D03*
D11*
X157162500Y-109855000D03*
D10*
X162492499Y-109854999D03*
D12*
X152462499Y-114104999D03*
D13*
X160662499Y-112724999D03*
D14*
X154622500Y-114935000D03*
D15*
X157162500Y-115855000D03*
D16*
X159762499Y-115604999D03*
%TD*%
D10*
%TO.C,SW10*%
X94682499Y-128904999D03*
D11*
X100012500Y-128905000D03*
D10*
X105342499Y-128904999D03*
D12*
X95312499Y-133154999D03*
D13*
X103512499Y-131774999D03*
D14*
X97472500Y-133985000D03*
D15*
X100012500Y-134905000D03*
D16*
X102612499Y-134654999D03*
%TD*%
D10*
%TO.C,SW14*%
X32769999Y-109854999D03*
D11*
X38100000Y-109855000D03*
D10*
X43429999Y-109854999D03*
D12*
X33399999Y-114104999D03*
D13*
X41599999Y-112724999D03*
D14*
X35560000Y-114935000D03*
D15*
X38100000Y-115855000D03*
D16*
X40699999Y-115604999D03*
%TD*%
D20*
%TO.C,J2*%
X50006250Y-42862500D03*
D21*
X50006250Y-40322500D03*
X47466250Y-42862500D03*
X47466250Y-40322500D03*
X44926250Y-42862500D03*
X44926250Y-40322500D03*
X42386250Y-42862500D03*
X42386250Y-40322500D03*
X39846250Y-42862500D03*
X39846250Y-40322500D03*
X37306250Y-42862500D03*
X37306250Y-40322500D03*
X34766250Y-42862500D03*
X34766250Y-40322500D03*
X32226250Y-42862500D03*
X32226250Y-40322500D03*
%TD*%
D22*
%TO.C,J3*%
X33337500Y-48637500D03*
D23*
X33337499Y-51137499D03*
X33337499Y-53637499D03*
X33337499Y-56137499D03*
%TD*%
M02*
