%TF.GenerationSoftware,KiCad,Pcbnew,(7.0.0)*%
%TF.CreationDate,2023-04-09T14:25:35-07:00*%
%TF.ProjectId,SidecarXE85-keyboard,53696465-6361-4725-9845-38352d6b6579,rev?*%
%TF.SameCoordinates,Original*%
%TF.FileFunction,Paste,Top*%
%TF.FilePolarity,Positive*%
%FSLAX46Y46*%
G04 Gerber Fmt 4.6, Leading zero omitted, Abs format (unit mm)*
G04 Created by KiCad (PCBNEW (7.0.0)) date 2023-04-09 14:25:35*
%MOMM*%
%LPD*%
G01*
G04 APERTURE LIST*
G04 Aperture macros list*
%AMRoundRect*
0 Rectangle with rounded corners*
0 $1 Rounding radius*
0 $2 $3 $4 $5 $6 $7 $8 $9 X,Y pos of 4 corners*
0 Add a 4 corners polygon primitive as box body*
4,1,4,$2,$3,$4,$5,$6,$7,$8,$9,$2,$3,0*
0 Add four circle primitives for the rounded corners*
1,1,$1+$1,$2,$3*
1,1,$1+$1,$4,$5*
1,1,$1+$1,$6,$7*
1,1,$1+$1,$8,$9*
0 Add four rect primitives between the rounded corners*
20,1,$1+$1,$2,$3,$4,$5,0*
20,1,$1+$1,$4,$5,$6,$7,0*
20,1,$1+$1,$6,$7,$8,$9,0*
20,1,$1+$1,$8,$9,$2,$3,0*%
G04 Aperture macros list end*
%ADD10RoundRect,0.200000X0.200000X0.275000X-0.200000X0.275000X-0.200000X-0.275000X0.200000X-0.275000X0*%
%ADD11R,6.832600X0.228600*%
%ADD12R,1.312000X0.254000*%
%ADD13R,1.758000X0.284000*%
%ADD14R,0.800000X0.800000*%
G04 APERTURE END LIST*
D10*
%TO.C,R6*%
X134175000Y-32146875D03*
X132525000Y-32146875D03*
%TD*%
D11*
%TO.C,SW8*%
X136893299Y-132587999D03*
D12*
X136842499Y-134111999D03*
D13*
X139372499Y-134096999D03*
D14*
X138862499Y-123824999D03*
X137362499Y-123824999D03*
%TD*%
D10*
%TO.C,R28*%
X157987500Y-101203125D03*
X156337500Y-101203125D03*
%TD*%
%TO.C,R11*%
X100837500Y-63103125D03*
X99187500Y-63103125D03*
%TD*%
%TO.C,R24*%
X72262500Y-63103125D03*
X70612500Y-63103125D03*
%TD*%
D11*
%TO.C,SW5*%
X74980799Y-43987999D03*
D12*
X74929999Y-45511999D03*
D13*
X77459999Y-45496999D03*
D14*
X76949999Y-35224999D03*
X75449999Y-35224999D03*
%TD*%
D10*
%TO.C,R16*%
X119887500Y-82153125D03*
X118237500Y-82153125D03*
%TD*%
D11*
%TO.C,SW23*%
X98793299Y-113537999D03*
D12*
X98742499Y-115061999D03*
D13*
X101272499Y-115046999D03*
D14*
X100762499Y-104774999D03*
X99262499Y-104774999D03*
%TD*%
D11*
%TO.C,SW4*%
X108318299Y-151637999D03*
D12*
X108267499Y-153161999D03*
D13*
X110797499Y-153146999D03*
D14*
X110287499Y-142874999D03*
X108787499Y-142874999D03*
%TD*%
D11*
%TO.C,SW11*%
X98793299Y-75437999D03*
D12*
X98742499Y-76961999D03*
D13*
X101272499Y-76946999D03*
D14*
X100762499Y-66674999D03*
X99262499Y-66674999D03*
%TD*%
D10*
%TO.C,R17*%
X100837500Y-82153125D03*
X99187500Y-82153125D03*
%TD*%
%TO.C,R14*%
X38925000Y-101203125D03*
X37275000Y-101203125D03*
%TD*%
D11*
%TO.C,SW27*%
X155943299Y-75437999D03*
D12*
X155892499Y-76961999D03*
D13*
X158422499Y-76946999D03*
D14*
X157912499Y-66674999D03*
X156412499Y-66674999D03*
%TD*%
D10*
%TO.C,R20*%
X57975000Y-101203125D03*
X56325000Y-101203125D03*
%TD*%
%TO.C,R19*%
X57975000Y-82153125D03*
X56325000Y-82153125D03*
%TD*%
%TO.C,R1*%
X157987500Y-82153125D03*
X156337500Y-82153125D03*
%TD*%
D11*
%TO.C,SW18*%
X117843299Y-75437999D03*
D12*
X117792499Y-76961999D03*
D13*
X120322499Y-76946999D03*
D14*
X119812499Y-66674999D03*
X118312499Y-66674999D03*
%TD*%
D11*
%TO.C,SW30*%
X74980799Y-94487999D03*
D12*
X74929999Y-96011999D03*
D13*
X77459999Y-95996999D03*
D14*
X76949999Y-85724999D03*
X75449999Y-85724999D03*
%TD*%
D11*
%TO.C,SW6*%
X132130799Y-43987999D03*
D12*
X132079999Y-45511999D03*
D13*
X134609999Y-45496999D03*
D14*
X134099999Y-35224999D03*
X132599999Y-35224999D03*
%TD*%
D11*
%TO.C,SW9*%
X117843299Y-132587999D03*
D12*
X117792499Y-134111999D03*
D13*
X120322499Y-134096999D03*
D14*
X119812499Y-123824999D03*
X118312499Y-123824999D03*
%TD*%
D11*
%TO.C,SW16*%
X117843299Y-94487999D03*
D12*
X117792499Y-96011999D03*
D13*
X120322499Y-95996999D03*
D14*
X119812499Y-85724999D03*
X118312499Y-85724999D03*
%TD*%
D10*
%TO.C,R29*%
X43687500Y-63103125D03*
X42037500Y-63103125D03*
%TD*%
D11*
%TO.C,SW2*%
X155943299Y-142112999D03*
D12*
X155892499Y-143636999D03*
D13*
X158422499Y-143621999D03*
D14*
X157912499Y-133349999D03*
X156412499Y-133349999D03*
%TD*%
D10*
%TO.C,R25*%
X77025000Y-101203125D03*
X75375000Y-101203125D03*
%TD*%
%TO.C,R21*%
X138937500Y-101203125D03*
X137287500Y-101203125D03*
%TD*%
%TO.C,R7*%
X38925000Y-82153125D03*
X37275000Y-82153125D03*
%TD*%
%TO.C,R12*%
X105600000Y-32146875D03*
X103950000Y-32146875D03*
%TD*%
%TO.C,R13*%
X162750000Y-32146875D03*
X161100000Y-32146875D03*
%TD*%
D11*
%TO.C,SW15*%
X136893299Y-94487999D03*
D12*
X136842499Y-96011999D03*
D13*
X139372499Y-95996999D03*
D14*
X138862499Y-85724999D03*
X137362499Y-85724999D03*
%TD*%
D10*
%TO.C,R10*%
X100837500Y-120253125D03*
X99187500Y-120253125D03*
%TD*%
D11*
%TO.C,SW3*%
X136893299Y-151637999D03*
D12*
X136842499Y-153161999D03*
D13*
X139372499Y-153146999D03*
D14*
X138862499Y-142874999D03*
X137362499Y-142874999D03*
%TD*%
D11*
%TO.C,SW13*%
X160705799Y-43987999D03*
D12*
X160654999Y-45511999D03*
D13*
X163184999Y-45496999D03*
D14*
X162674999Y-35224999D03*
X161174999Y-35224999D03*
%TD*%
D11*
%TO.C,SW29*%
X41643299Y-75437999D03*
D12*
X41592499Y-76961999D03*
D13*
X44122499Y-76946999D03*
D14*
X43612499Y-66674999D03*
X42112499Y-66674999D03*
%TD*%
D11*
%TO.C,SW24*%
X70218299Y-75437999D03*
D12*
X70167499Y-76961999D03*
D13*
X72697499Y-76946999D03*
D14*
X72187499Y-66674999D03*
X70687499Y-66674999D03*
%TD*%
D10*
%TO.C,R23*%
X100837500Y-101203125D03*
X99187500Y-101203125D03*
%TD*%
%TO.C,R27*%
X157987500Y-63103125D03*
X156337500Y-63103125D03*
%TD*%
%TO.C,R8*%
X138937500Y-120253125D03*
X137287500Y-120253125D03*
%TD*%
%TO.C,R22*%
X119887500Y-101203125D03*
X118237500Y-101203125D03*
%TD*%
%TO.C,R5*%
X77025000Y-32146875D03*
X75375000Y-32146875D03*
%TD*%
D11*
%TO.C,SW26*%
X136893299Y-75437999D03*
D12*
X136842499Y-76961999D03*
D13*
X139372499Y-76946999D03*
D14*
X138862499Y-66674999D03*
X137362499Y-66674999D03*
%TD*%
D10*
%TO.C,R3*%
X138937500Y-139303125D03*
X137287500Y-139303125D03*
%TD*%
D11*
%TO.C,SW20*%
X55930799Y-113537999D03*
D12*
X55879999Y-115061999D03*
D13*
X58409999Y-115046999D03*
D14*
X57899999Y-104774999D03*
X56399999Y-104774999D03*
%TD*%
D10*
%TO.C,R30*%
X77025000Y-82153125D03*
X75375000Y-82153125D03*
%TD*%
%TO.C,R26*%
X138937500Y-63103125D03*
X137287500Y-63103125D03*
%TD*%
D11*
%TO.C,SW17*%
X98793299Y-94487999D03*
D12*
X98742499Y-96011999D03*
D13*
X101272499Y-95996999D03*
D14*
X100762499Y-85724999D03*
X99262499Y-85724999D03*
%TD*%
D11*
%TO.C,SW21*%
X136893299Y-113537999D03*
D12*
X136842499Y-115061999D03*
D13*
X139372499Y-115046999D03*
D14*
X138862499Y-104774999D03*
X137362499Y-104774999D03*
%TD*%
D10*
%TO.C,R18*%
X119887500Y-63103125D03*
X118237500Y-63103125D03*
%TD*%
D11*
%TO.C,SW7*%
X36880799Y-94487999D03*
D12*
X36829999Y-96011999D03*
D13*
X39359999Y-95996999D03*
D14*
X38849999Y-85724999D03*
X37349999Y-85724999D03*
%TD*%
D11*
%TO.C,SW22*%
X117843299Y-113537999D03*
D12*
X117792499Y-115061999D03*
D13*
X120322499Y-115046999D03*
D14*
X119812499Y-104774999D03*
X118312499Y-104774999D03*
%TD*%
D11*
%TO.C,SW25*%
X74980799Y-113537999D03*
D12*
X74929999Y-115061999D03*
D13*
X77459999Y-115046999D03*
D14*
X76949999Y-104774999D03*
X75449999Y-104774999D03*
%TD*%
D11*
%TO.C,SW12*%
X103555799Y-43987999D03*
D12*
X103504999Y-45511999D03*
D13*
X106034999Y-45496999D03*
D14*
X105524999Y-35224999D03*
X104024999Y-35224999D03*
%TD*%
D11*
%TO.C,SW19*%
X55930799Y-94487999D03*
D12*
X55879999Y-96011999D03*
D13*
X58409999Y-95996999D03*
D14*
X57899999Y-85724999D03*
X56399999Y-85724999D03*
%TD*%
D11*
%TO.C,SW1*%
X155943299Y-94487999D03*
D12*
X155892499Y-96011999D03*
D13*
X158422499Y-95996999D03*
D14*
X157912499Y-85724999D03*
X156412499Y-85724999D03*
%TD*%
D10*
%TO.C,R2*%
X157987500Y-120253125D03*
X156337500Y-120253125D03*
%TD*%
D11*
%TO.C,SW28*%
X155943299Y-113537999D03*
D12*
X155892499Y-115061999D03*
D13*
X158422499Y-115046999D03*
D14*
X157912499Y-104774999D03*
X156412499Y-104774999D03*
%TD*%
D11*
%TO.C,SW10*%
X98793299Y-132587999D03*
D12*
X98742499Y-134111999D03*
D13*
X101272499Y-134096999D03*
D14*
X100762499Y-123824999D03*
X99262499Y-123824999D03*
%TD*%
D10*
%TO.C,R4*%
X110362500Y-139303125D03*
X108712500Y-139303125D03*
%TD*%
%TO.C,R15*%
X138937500Y-82153125D03*
X137287500Y-82153125D03*
%TD*%
%TO.C,R9*%
X119887500Y-120253125D03*
X118237500Y-120253125D03*
%TD*%
D11*
%TO.C,SW14*%
X36880799Y-113537999D03*
D12*
X36829999Y-115061999D03*
D13*
X39359999Y-115046999D03*
D14*
X38849999Y-104774999D03*
X37349999Y-104774999D03*
%TD*%
M02*
