%TF.GenerationSoftware,KiCad,Pcbnew,(7.0.0)*%
%TF.CreationDate,2023-04-09T14:25:35-07:00*%
%TF.ProjectId,SidecarXE85-keyboard,53696465-6361-4725-9845-38352d6b6579,rev?*%
%TF.SameCoordinates,Original*%
%TF.FileFunction,Soldermask,Top*%
%TF.FilePolarity,Negative*%
%FSLAX46Y46*%
G04 Gerber Fmt 4.6, Leading zero omitted, Abs format (unit mm)*
G04 Created by KiCad (PCBNEW (7.0.0)) date 2023-04-09 14:25:35*
%MOMM*%
%LPD*%
G01*
G04 APERTURE LIST*
G04 Aperture macros list*
%AMRoundRect*
0 Rectangle with rounded corners*
0 $1 Rounding radius*
0 $2 $3 $4 $5 $6 $7 $8 $9 X,Y pos of 4 corners*
0 Add a 4 corners polygon primitive as box body*
4,1,4,$2,$3,$4,$5,$6,$7,$8,$9,$2,$3,0*
0 Add four circle primitives for the rounded corners*
1,1,$1+$1,$2,$3*
1,1,$1+$1,$4,$5*
1,1,$1+$1,$6,$7*
1,1,$1+$1,$8,$9*
0 Add four rect primitives between the rounded corners*
20,1,$1+$1,$2,$3,$4,$5,0*
20,1,$1+$1,$4,$5,$6,$7,0*
20,1,$1+$1,$6,$7,$8,$9,0*
20,1,$1+$1,$8,$9,$2,$3,0*%
%AMHorizOval*
0 Thick line with rounded ends*
0 $1 width*
0 $2 $3 position (X,Y) of the first rounded end (center of the circle)*
0 $4 $5 position (X,Y) of the second rounded end (center of the circle)*
0 Add line between two ends*
20,1,$1,$2,$3,$4,$5,0*
0 Add two circle primitives to create the rounded ends*
1,1,$1,$2,$3*
1,1,$1,$4,$5*%
G04 Aperture macros list end*
%ADD10RoundRect,0.200000X0.200000X0.275000X-0.200000X0.275000X-0.200000X-0.275000X0.200000X-0.275000X0*%
%ADD11O,2.200000X1.800000*%
%ADD12C,5.250000*%
%ADD13HorizOval,1.400000X-0.169047X0.362523X0.169047X-0.362523X0*%
%ADD14R,6.832600X0.228600*%
%ADD15HorizOval,2.200000X-0.353553X-0.353553X0.353553X0.353553X0*%
%ADD16C,1.900000*%
%ADD17R,1.312000X0.254000*%
%ADD18C,2.200000*%
%ADD19R,1.758000X0.284000*%
%ADD20O,2.500000X1.400000*%
%ADD21R,0.800000X0.800000*%
%ADD22C,3.048000*%
%ADD23C,3.987800*%
%ADD24C,1.620000*%
%ADD25RoundRect,0.250000X0.600000X-0.600000X0.600000X0.600000X-0.600000X0.600000X-0.600000X-0.600000X0*%
%ADD26C,1.700000*%
%ADD27RoundRect,0.250000X-0.725000X0.600000X-0.725000X-0.600000X0.725000X-0.600000X0.725000X0.600000X0*%
%ADD28O,1.950000X1.700000*%
G04 APERTURE END LIST*
D10*
%TO.C,R6*%
X134175000Y-32146875D03*
X132525000Y-32146875D03*
%TD*%
D11*
%TO.C,SW8*%
X132782499Y-128904999D03*
D12*
X138112500Y-128905000D03*
D11*
X143442499Y-128904999D03*
D13*
X133412499Y-133154999D03*
D14*
X136893299Y-132587999D03*
D15*
X141612499Y-131774999D03*
D16*
X135572500Y-133985000D03*
D17*
X136842499Y-134111999D03*
D18*
X138112500Y-134905000D03*
D19*
X139372499Y-134096999D03*
D20*
X140712499Y-134654999D03*
D21*
X138862499Y-123824999D03*
X137362499Y-123824999D03*
%TD*%
D10*
%TO.C,R28*%
X157987500Y-101203125D03*
X156337500Y-101203125D03*
%TD*%
%TO.C,R11*%
X100837500Y-63103125D03*
X99187500Y-63103125D03*
%TD*%
%TO.C,R24*%
X72262500Y-63103125D03*
X70612500Y-63103125D03*
%TD*%
D11*
%TO.C,SW5*%
X70869999Y-40304999D03*
D12*
X76200000Y-40305000D03*
D11*
X81529999Y-40304999D03*
D13*
X71499999Y-44554999D03*
D14*
X74980799Y-43987999D03*
D15*
X79699999Y-43174999D03*
D16*
X73660000Y-45385000D03*
D17*
X74929999Y-45511999D03*
D18*
X76200000Y-46305000D03*
D19*
X77459999Y-45496999D03*
D20*
X78799999Y-46054999D03*
D21*
X76949999Y-35224999D03*
X75449999Y-35224999D03*
%TD*%
D10*
%TO.C,R16*%
X119887500Y-82153125D03*
X118237500Y-82153125D03*
%TD*%
D11*
%TO.C,SW23*%
X94682499Y-109854999D03*
D12*
X100012500Y-109855000D03*
D11*
X105342499Y-109854999D03*
D13*
X95312499Y-114104999D03*
D14*
X98793299Y-113537999D03*
D15*
X103512499Y-112724999D03*
D16*
X97472500Y-114935000D03*
D17*
X98742499Y-115061999D03*
D18*
X100012500Y-115855000D03*
D19*
X101272499Y-115046999D03*
D20*
X102612499Y-115604999D03*
D21*
X100762499Y-104774999D03*
X99262499Y-104774999D03*
%TD*%
D22*
%TO.C,SW4*%
X97537500Y-140970000D03*
D23*
X97537500Y-156210000D03*
D11*
X104207499Y-147954999D03*
D12*
X109537500Y-147955000D03*
D11*
X114867499Y-147954999D03*
D22*
X121537500Y-140970000D03*
D23*
X121537500Y-156210000D03*
D13*
X104837499Y-152204999D03*
D14*
X108318299Y-151637999D03*
D15*
X113037499Y-150824999D03*
D16*
X106997500Y-153035000D03*
D17*
X108267499Y-153161999D03*
D18*
X109537500Y-153955000D03*
D19*
X110797499Y-153146999D03*
D20*
X112137499Y-153704999D03*
D21*
X110287499Y-142874999D03*
X108787499Y-142874999D03*
%TD*%
D11*
%TO.C,SW11*%
X94682499Y-71754999D03*
D12*
X100012500Y-71755000D03*
D11*
X105342499Y-71754999D03*
D13*
X95312499Y-76004999D03*
D14*
X98793299Y-75437999D03*
D15*
X103512499Y-74624999D03*
D16*
X97472500Y-76835000D03*
D17*
X98742499Y-76961999D03*
D18*
X100012500Y-77755000D03*
D19*
X101272499Y-76946999D03*
D20*
X102612499Y-77504999D03*
D21*
X100762499Y-66674999D03*
X99262499Y-66674999D03*
%TD*%
D10*
%TO.C,R17*%
X100837500Y-82153125D03*
X99187500Y-82153125D03*
%TD*%
%TO.C,R14*%
X38925000Y-101203125D03*
X37275000Y-101203125D03*
%TD*%
D11*
%TO.C,SW27*%
X151832499Y-71754999D03*
D12*
X157162500Y-71755000D03*
D11*
X162492499Y-71754999D03*
D13*
X152462499Y-76004999D03*
D14*
X155943299Y-75437999D03*
D15*
X160662499Y-74624999D03*
D16*
X154622500Y-76835000D03*
D17*
X155892499Y-76961999D03*
D18*
X157162500Y-77755000D03*
D19*
X158422499Y-76946999D03*
D20*
X159762499Y-77504999D03*
D21*
X157912499Y-66674999D03*
X156412499Y-66674999D03*
%TD*%
D10*
%TO.C,R20*%
X57975000Y-101203125D03*
X56325000Y-101203125D03*
%TD*%
%TO.C,R19*%
X57975000Y-82153125D03*
X56325000Y-82153125D03*
%TD*%
%TO.C,R1*%
X157987500Y-82153125D03*
X156337500Y-82153125D03*
%TD*%
D11*
%TO.C,SW18*%
X113732499Y-71754999D03*
D12*
X119062500Y-71755000D03*
D11*
X124392499Y-71754999D03*
D13*
X114362499Y-76004999D03*
D14*
X117843299Y-75437999D03*
D15*
X122562499Y-74624999D03*
D16*
X116522500Y-76835000D03*
D17*
X117792499Y-76961999D03*
D18*
X119062500Y-77755000D03*
D19*
X120322499Y-76946999D03*
D20*
X121662499Y-77504999D03*
D21*
X119812499Y-66674999D03*
X118312499Y-66674999D03*
%TD*%
D11*
%TO.C,SW30*%
X70869999Y-90804999D03*
D12*
X76200000Y-90805000D03*
D11*
X81529999Y-90804999D03*
D13*
X71499999Y-95054999D03*
D14*
X74980799Y-94487999D03*
D15*
X79699999Y-93674999D03*
D16*
X73660000Y-95885000D03*
D17*
X74929999Y-96011999D03*
D18*
X76200000Y-96805000D03*
D19*
X77459999Y-95996999D03*
D20*
X78799999Y-96554999D03*
D21*
X76949999Y-85724999D03*
X75449999Y-85724999D03*
%TD*%
D11*
%TO.C,SW6*%
X128019999Y-40304999D03*
D12*
X133350000Y-40305000D03*
D11*
X138679999Y-40304999D03*
D13*
X128649999Y-44554999D03*
D14*
X132130799Y-43987999D03*
D15*
X136849999Y-43174999D03*
D16*
X130810000Y-45385000D03*
D17*
X132079999Y-45511999D03*
D18*
X133350000Y-46305000D03*
D19*
X134609999Y-45496999D03*
D20*
X135949999Y-46054999D03*
D21*
X134099999Y-35224999D03*
X132599999Y-35224999D03*
%TD*%
D11*
%TO.C,SW9*%
X113732499Y-128904999D03*
D12*
X119062500Y-128905000D03*
D11*
X124392499Y-128904999D03*
D13*
X114362499Y-133154999D03*
D14*
X117843299Y-132587999D03*
D15*
X122562499Y-131774999D03*
D16*
X116522500Y-133985000D03*
D17*
X117792499Y-134111999D03*
D18*
X119062500Y-134905000D03*
D19*
X120322499Y-134096999D03*
D20*
X121662499Y-134654999D03*
D21*
X119812499Y-123824999D03*
X118312499Y-123824999D03*
%TD*%
D11*
%TO.C,SW16*%
X113732499Y-90804999D03*
D12*
X119062500Y-90805000D03*
D11*
X124392499Y-90804999D03*
D13*
X114362499Y-95054999D03*
D14*
X117843299Y-94487999D03*
D15*
X122562499Y-93674999D03*
D16*
X116522500Y-95885000D03*
D17*
X117792499Y-96011999D03*
D18*
X119062500Y-96805000D03*
D19*
X120322499Y-95996999D03*
D20*
X121662499Y-96554999D03*
D21*
X119812499Y-85724999D03*
X118312499Y-85724999D03*
%TD*%
D10*
%TO.C,R29*%
X43687500Y-63103125D03*
X42037500Y-63103125D03*
%TD*%
D22*
%TO.C,SW2*%
X150177500Y-126430000D03*
X150177500Y-150430000D03*
D11*
X151832499Y-138429999D03*
D12*
X157162500Y-138430000D03*
D11*
X162492499Y-138429999D03*
D23*
X165417500Y-126430000D03*
X165417500Y-150430000D03*
D13*
X152462499Y-142679999D03*
D14*
X155943299Y-142112999D03*
D15*
X160662499Y-141299999D03*
D16*
X154622500Y-143510000D03*
D17*
X155892499Y-143636999D03*
D18*
X157162500Y-144430000D03*
D19*
X158422499Y-143621999D03*
D20*
X159762499Y-144179999D03*
D21*
X157912499Y-133349999D03*
X156412499Y-133349999D03*
%TD*%
D10*
%TO.C,R25*%
X77025000Y-101203125D03*
X75375000Y-101203125D03*
%TD*%
%TO.C,R21*%
X138937500Y-101203125D03*
X137287500Y-101203125D03*
%TD*%
%TO.C,R7*%
X38925000Y-82153125D03*
X37275000Y-82153125D03*
%TD*%
%TO.C,R12*%
X105600000Y-32146875D03*
X103950000Y-32146875D03*
%TD*%
%TO.C,R13*%
X162750000Y-32146875D03*
X161100000Y-32146875D03*
%TD*%
D11*
%TO.C,SW15*%
X132782499Y-90804999D03*
D12*
X138112500Y-90805000D03*
D11*
X143442499Y-90804999D03*
D13*
X133412499Y-95054999D03*
D14*
X136893299Y-94487999D03*
D15*
X141612499Y-93674999D03*
D16*
X135572500Y-95885000D03*
D17*
X136842499Y-96011999D03*
D18*
X138112500Y-96805000D03*
D19*
X139372499Y-95996999D03*
D20*
X140712499Y-96554999D03*
D21*
X138862499Y-85724999D03*
X137362499Y-85724999D03*
%TD*%
D10*
%TO.C,R10*%
X100837500Y-120253125D03*
X99187500Y-120253125D03*
%TD*%
D11*
%TO.C,SW3*%
X132782499Y-147954999D03*
D12*
X138112500Y-147955000D03*
D11*
X143442499Y-147954999D03*
D13*
X133412499Y-152204999D03*
D14*
X136893299Y-151637999D03*
D15*
X141612499Y-150824999D03*
D16*
X135572500Y-153035000D03*
D17*
X136842499Y-153161999D03*
D18*
X138112500Y-153955000D03*
D19*
X139372499Y-153146999D03*
D20*
X140712499Y-153704999D03*
D21*
X138862499Y-142874999D03*
X137362499Y-142874999D03*
%TD*%
D11*
%TO.C,SW13*%
X156594999Y-40304999D03*
D12*
X161925000Y-40305000D03*
D11*
X167254999Y-40304999D03*
D13*
X157224999Y-44554999D03*
D14*
X160705799Y-43987999D03*
D15*
X165424999Y-43174999D03*
D16*
X159385000Y-45385000D03*
D17*
X160654999Y-45511999D03*
D18*
X161925000Y-46305000D03*
D19*
X163184999Y-45496999D03*
D20*
X164524999Y-46054999D03*
D21*
X162674999Y-35224999D03*
X161174999Y-35224999D03*
%TD*%
D11*
%TO.C,SW29*%
X37532499Y-71754999D03*
D12*
X42862500Y-71755000D03*
D11*
X48192499Y-71754999D03*
D13*
X38162499Y-76004999D03*
D14*
X41643299Y-75437999D03*
D15*
X46362499Y-74624999D03*
D16*
X40322500Y-76835000D03*
D17*
X41592499Y-76961999D03*
D18*
X42862500Y-77755000D03*
D19*
X44122499Y-76946999D03*
D20*
X45462499Y-77504999D03*
D21*
X43612499Y-66674999D03*
X42112499Y-66674999D03*
%TD*%
D11*
%TO.C,SW24*%
X66107499Y-71754999D03*
D12*
X71437500Y-71755000D03*
D11*
X76767499Y-71754999D03*
D13*
X66737499Y-76004999D03*
D14*
X70218299Y-75437999D03*
D15*
X74937499Y-74624999D03*
D16*
X68897500Y-76835000D03*
D17*
X70167499Y-76961999D03*
D18*
X71437500Y-77755000D03*
D19*
X72697499Y-76946999D03*
D20*
X74037499Y-77504999D03*
D21*
X72187499Y-66674999D03*
X70687499Y-66674999D03*
%TD*%
D10*
%TO.C,R23*%
X100837500Y-101203125D03*
X99187500Y-101203125D03*
%TD*%
%TO.C,R27*%
X157987500Y-63103125D03*
X156337500Y-63103125D03*
%TD*%
%TO.C,R8*%
X138937500Y-120253125D03*
X137287500Y-120253125D03*
%TD*%
%TO.C,R22*%
X119887500Y-101203125D03*
X118237500Y-101203125D03*
%TD*%
%TO.C,R5*%
X77025000Y-32146875D03*
X75375000Y-32146875D03*
%TD*%
D11*
%TO.C,SW26*%
X132782499Y-71754999D03*
D12*
X138112500Y-71755000D03*
D11*
X143442499Y-71754999D03*
D13*
X133412499Y-76004999D03*
D14*
X136893299Y-75437999D03*
D15*
X141612499Y-74624999D03*
D16*
X135572500Y-76835000D03*
D17*
X136842499Y-76961999D03*
D18*
X138112500Y-77755000D03*
D19*
X139372499Y-76946999D03*
D20*
X140712499Y-77504999D03*
D21*
X138862499Y-66674999D03*
X137362499Y-66674999D03*
%TD*%
D10*
%TO.C,R3*%
X138937500Y-139303125D03*
X137287500Y-139303125D03*
%TD*%
D11*
%TO.C,SW20*%
X51819999Y-109854999D03*
D12*
X57150000Y-109855000D03*
D11*
X62479999Y-109854999D03*
D13*
X52449999Y-114104999D03*
D14*
X55930799Y-113537999D03*
D15*
X60649999Y-112724999D03*
D16*
X54610000Y-114935000D03*
D17*
X55879999Y-115061999D03*
D18*
X57150000Y-115855000D03*
D19*
X58409999Y-115046999D03*
D20*
X59749999Y-115604999D03*
D21*
X57899999Y-104774999D03*
X56399999Y-104774999D03*
%TD*%
D10*
%TO.C,R30*%
X77025000Y-82153125D03*
X75375000Y-82153125D03*
%TD*%
%TO.C,R26*%
X138937500Y-63103125D03*
X137287500Y-63103125D03*
%TD*%
D11*
%TO.C,SW17*%
X94682499Y-90804999D03*
D12*
X100012500Y-90805000D03*
D11*
X105342499Y-90804999D03*
D13*
X95312499Y-95054999D03*
D14*
X98793299Y-94487999D03*
D15*
X103512499Y-93674999D03*
D16*
X97472500Y-95885000D03*
D17*
X98742499Y-96011999D03*
D18*
X100012500Y-96805000D03*
D19*
X101272499Y-95996999D03*
D20*
X102612499Y-96554999D03*
D21*
X100762499Y-85724999D03*
X99262499Y-85724999D03*
%TD*%
D11*
%TO.C,SW21*%
X132782499Y-109854999D03*
D12*
X138112500Y-109855000D03*
D11*
X143442499Y-109854999D03*
D13*
X133412499Y-114104999D03*
D14*
X136893299Y-113537999D03*
D15*
X141612499Y-112724999D03*
D16*
X135572500Y-114935000D03*
D17*
X136842499Y-115061999D03*
D18*
X138112500Y-115855000D03*
D19*
X139372499Y-115046999D03*
D20*
X140712499Y-115604999D03*
D21*
X138862499Y-104774999D03*
X137362499Y-104774999D03*
%TD*%
D10*
%TO.C,R18*%
X119887500Y-63103125D03*
X118237500Y-63103125D03*
%TD*%
D11*
%TO.C,SW7*%
X32769999Y-90804999D03*
D12*
X38100000Y-90805000D03*
D11*
X43429999Y-90804999D03*
D13*
X33399999Y-95054999D03*
D14*
X36880799Y-94487999D03*
D15*
X41599999Y-93674999D03*
D16*
X35560000Y-95885000D03*
D17*
X36829999Y-96011999D03*
D18*
X38100000Y-96805000D03*
D19*
X39359999Y-95996999D03*
D20*
X40699999Y-96554999D03*
D21*
X38849999Y-85724999D03*
X37349999Y-85724999D03*
%TD*%
D11*
%TO.C,SW22*%
X113732499Y-109854999D03*
D12*
X119062500Y-109855000D03*
D11*
X124392499Y-109854999D03*
D13*
X114362499Y-114104999D03*
D14*
X117843299Y-113537999D03*
D15*
X122562499Y-112724999D03*
D16*
X116522500Y-114935000D03*
D17*
X117792499Y-115061999D03*
D18*
X119062500Y-115855000D03*
D19*
X120322499Y-115046999D03*
D20*
X121662499Y-115604999D03*
D21*
X119812499Y-104774999D03*
X118312499Y-104774999D03*
%TD*%
D11*
%TO.C,SW25*%
X70869999Y-109854999D03*
D12*
X76200000Y-109855000D03*
D11*
X81529999Y-109854999D03*
D13*
X71499999Y-114104999D03*
D14*
X74980799Y-113537999D03*
D15*
X79699999Y-112724999D03*
D16*
X73660000Y-114935000D03*
D17*
X74929999Y-115061999D03*
D18*
X76200000Y-115855000D03*
D19*
X77459999Y-115046999D03*
D20*
X78799999Y-115604999D03*
D21*
X76949999Y-104774999D03*
X75449999Y-104774999D03*
%TD*%
D11*
%TO.C,SW12*%
X99444999Y-40304999D03*
D12*
X104775000Y-40305000D03*
D11*
X110104999Y-40304999D03*
D13*
X100074999Y-44554999D03*
D14*
X103555799Y-43987999D03*
D15*
X108274999Y-43174999D03*
D16*
X102235000Y-45385000D03*
D17*
X103504999Y-45511999D03*
D18*
X104775000Y-46305000D03*
D19*
X106034999Y-45496999D03*
D20*
X107374999Y-46054999D03*
D21*
X105524999Y-35224999D03*
X104024999Y-35224999D03*
%TD*%
D11*
%TO.C,SW19*%
X51819999Y-90804999D03*
D12*
X57150000Y-90805000D03*
D11*
X62479999Y-90804999D03*
D13*
X52449999Y-95054999D03*
D14*
X55930799Y-94487999D03*
D15*
X60649999Y-93674999D03*
D16*
X54610000Y-95885000D03*
D17*
X55879999Y-96011999D03*
D18*
X57150000Y-96805000D03*
D19*
X58409999Y-95996999D03*
D20*
X59749999Y-96554999D03*
D21*
X57899999Y-85724999D03*
X56399999Y-85724999D03*
%TD*%
D11*
%TO.C,SW1*%
X151832499Y-90804999D03*
D12*
X157162500Y-90805000D03*
D11*
X162492499Y-90804999D03*
D13*
X152462499Y-95054999D03*
D14*
X155943299Y-94487999D03*
D15*
X160662499Y-93674999D03*
D16*
X154622500Y-95885000D03*
D17*
X155892499Y-96011999D03*
D18*
X157162500Y-96805000D03*
D19*
X158422499Y-95996999D03*
D20*
X159762499Y-96554999D03*
D21*
X157912499Y-85724999D03*
X156412499Y-85724999D03*
%TD*%
D10*
%TO.C,R2*%
X157987500Y-120253125D03*
X156337500Y-120253125D03*
%TD*%
D24*
%TO.C,RV1*%
X47625000Y-57150000D03*
X45125000Y-52150000D03*
X42625000Y-57150000D03*
%TD*%
D11*
%TO.C,SW28*%
X151832499Y-109854999D03*
D12*
X157162500Y-109855000D03*
D11*
X162492499Y-109854999D03*
D13*
X152462499Y-114104999D03*
D14*
X155943299Y-113537999D03*
D15*
X160662499Y-112724999D03*
D16*
X154622500Y-114935000D03*
D17*
X155892499Y-115061999D03*
D18*
X157162500Y-115855000D03*
D19*
X158422499Y-115046999D03*
D20*
X159762499Y-115604999D03*
D21*
X157912499Y-104774999D03*
X156412499Y-104774999D03*
%TD*%
D11*
%TO.C,SW10*%
X94682499Y-128904999D03*
D12*
X100012500Y-128905000D03*
D11*
X105342499Y-128904999D03*
D13*
X95312499Y-133154999D03*
D14*
X98793299Y-132587999D03*
D15*
X103512499Y-131774999D03*
D16*
X97472500Y-133985000D03*
D17*
X98742499Y-134111999D03*
D18*
X100012500Y-134905000D03*
D19*
X101272499Y-134096999D03*
D20*
X102612499Y-134654999D03*
D21*
X100762499Y-123824999D03*
X99262499Y-123824999D03*
%TD*%
D10*
%TO.C,R4*%
X110362500Y-139303125D03*
X108712500Y-139303125D03*
%TD*%
%TO.C,R15*%
X138937500Y-82153125D03*
X137287500Y-82153125D03*
%TD*%
%TO.C,R9*%
X119887500Y-120253125D03*
X118237500Y-120253125D03*
%TD*%
D11*
%TO.C,SW14*%
X32769999Y-109854999D03*
D12*
X38100000Y-109855000D03*
D11*
X43429999Y-109854999D03*
D13*
X33399999Y-114104999D03*
D14*
X36880799Y-113537999D03*
D15*
X41599999Y-112724999D03*
D16*
X35560000Y-114935000D03*
D17*
X36829999Y-115061999D03*
D18*
X38100000Y-115855000D03*
D19*
X39359999Y-115046999D03*
D20*
X40699999Y-115604999D03*
D21*
X38849999Y-104774999D03*
X37349999Y-104774999D03*
%TD*%
D25*
%TO.C,J2*%
X50006250Y-42862500D03*
D26*
X50006250Y-40322500D03*
X47466250Y-42862500D03*
X47466250Y-40322500D03*
X44926250Y-42862500D03*
X44926250Y-40322500D03*
X42386250Y-42862500D03*
X42386250Y-40322500D03*
X39846250Y-42862500D03*
X39846250Y-40322500D03*
X37306250Y-42862500D03*
X37306250Y-40322500D03*
X34766250Y-42862500D03*
X34766250Y-40322500D03*
X32226250Y-42862500D03*
X32226250Y-40322500D03*
%TD*%
D27*
%TO.C,J3*%
X33337500Y-48637500D03*
D28*
X33337499Y-51137499D03*
X33337499Y-53637499D03*
X33337499Y-56137499D03*
%TD*%
M02*
