M48
; DRILL file {KiCad (7.0.0)} date Sun Apr  9 14:25:45 2023
; FORMAT={-:-/ absolute / metric / decimal}
; #@! TF.CreationDate,2023-04-09T14:25:45-07:00
; #@! TF.GenerationSoftware,Kicad,Pcbnew,(7.0.0)
; #@! TF.FileFunction,NonPlated,1,2,NPTH
FMAT,2
METRIC
; #@! TA.AperFunction,NonPlated,NPTH,ComponentDrill
T1C1.800
; #@! TA.AperFunction,NonPlated,NPTH,ComponentDrill
T2C3.048
; #@! TA.AperFunction,NonPlated,NPTH,ComponentDrill
T3C3.988
; #@! TA.AperFunction,NonPlated,NPTH,ComponentDrill
T4C5.250
%
G90
G05
T2
X97.537Y-140.97
X121.537Y-140.97
X150.177Y-126.43
X150.177Y-150.43
T3
X97.537Y-156.21
X121.537Y-156.21
X165.417Y-126.43
X165.417Y-150.43
T4
X38.1Y-90.805
X38.1Y-109.855
X42.862Y-71.755
X57.15Y-90.805
X57.15Y-109.855
X71.438Y-71.755
X76.2Y-40.305
X76.2Y-90.805
X76.2Y-109.855
X100.012Y-71.755
X100.012Y-90.805
X100.012Y-109.855
X100.012Y-128.905
X104.775Y-40.305
X109.537Y-147.955
X119.062Y-71.755
X119.062Y-90.805
X119.062Y-109.855
X119.062Y-128.905
X133.35Y-40.305
X138.112Y-71.755
X138.112Y-90.805
X138.112Y-109.855
X138.112Y-128.905
X138.112Y-147.955
X157.162Y-71.755
X157.162Y-90.805
X157.162Y-109.855
X157.162Y-138.43
X161.925Y-40.305
T1
X32.97Y-90.805G85X32.57Y-90.805
G05
X32.97Y-109.855G85X32.57Y-109.855
G05
X37.733Y-71.755G85X37.332Y-71.755
G05
X43.63Y-90.805G85X43.23Y-90.805
G05
X43.63Y-109.855G85X43.23Y-109.855
G05
X48.392Y-71.755G85X47.992Y-71.755
G05
X52.02Y-90.805G85X51.62Y-90.805
G05
X52.02Y-109.855G85X51.62Y-109.855
G05
X62.68Y-90.805G85X62.28Y-90.805
G05
X62.68Y-109.855G85X62.28Y-109.855
G05
X66.307Y-71.755G85X65.907Y-71.755
G05
X71.07Y-40.305G85X70.67Y-40.305
G05
X71.07Y-90.805G85X70.67Y-90.805
G05
X71.07Y-109.855G85X70.67Y-109.855
G05
X76.968Y-71.755G85X76.567Y-71.755
G05
X81.73Y-40.305G85X81.33Y-40.305
G05
X81.73Y-90.805G85X81.33Y-90.805
G05
X81.73Y-109.855G85X81.33Y-109.855
G05
X94.882Y-71.755G85X94.483Y-71.755
G05
X94.882Y-90.805G85X94.483Y-90.805
G05
X94.882Y-109.855G85X94.483Y-109.855
G05
X94.882Y-128.905G85X94.483Y-128.905
G05
X99.645Y-40.305G85X99.245Y-40.305
G05
X104.407Y-147.955G85X104.007Y-147.955
G05
X105.542Y-71.755G85X105.142Y-71.755
G05
X105.542Y-90.805G85X105.142Y-90.805
G05
X105.542Y-109.855G85X105.142Y-109.855
G05
X105.542Y-128.905G85X105.142Y-128.905
G05
X110.305Y-40.305G85X109.905Y-40.305
G05
X113.932Y-71.755G85X113.532Y-71.755
G05
X113.932Y-90.805G85X113.532Y-90.805
G05
X113.932Y-109.855G85X113.532Y-109.855
G05
X113.932Y-128.905G85X113.532Y-128.905
G05
X115.067Y-147.955G85X114.667Y-147.955
G05
X124.593Y-71.755G85X124.192Y-71.755
G05
X124.593Y-90.805G85X124.192Y-90.805
G05
X124.593Y-109.855G85X124.192Y-109.855
G05
X124.593Y-128.905G85X124.192Y-128.905
G05
X128.22Y-40.305G85X127.82Y-40.305
G05
X132.982Y-71.755G85X132.582Y-71.755
G05
X132.982Y-90.805G85X132.582Y-90.805
G05
X132.982Y-109.855G85X132.582Y-109.855
G05
X132.982Y-128.905G85X132.582Y-128.905
G05
X132.982Y-147.955G85X132.582Y-147.955
G05
X138.88Y-40.305G85X138.48Y-40.305
G05
X143.642Y-71.755G85X143.243Y-71.755
G05
X143.642Y-90.805G85X143.243Y-90.805
G05
X143.642Y-109.855G85X143.243Y-109.855
G05
X143.642Y-128.905G85X143.243Y-128.905
G05
X143.642Y-147.955G85X143.243Y-147.955
G05
X152.032Y-71.755G85X151.632Y-71.755
G05
X152.032Y-90.805G85X151.632Y-90.805
G05
X152.032Y-109.855G85X151.632Y-109.855
G05
X152.032Y-138.43G85X151.632Y-138.43
G05
X156.795Y-40.305G85X156.395Y-40.305
G05
X162.692Y-71.755G85X162.292Y-71.755
G05
X162.692Y-90.805G85X162.292Y-90.805
G05
X162.692Y-109.855G85X162.292Y-109.855
G05
X162.692Y-138.43G85X162.292Y-138.43
G05
X167.455Y-40.305G85X167.055Y-40.305
G05
T0
M30
