M48
; DRILL file {KiCad (7.0.0)} date Sun Apr  9 14:25:45 2023
; FORMAT={-:-/ absolute / metric / decimal}
; #@! TF.CreationDate,2023-04-09T14:25:45-07:00
; #@! TF.GenerationSoftware,Kicad,Pcbnew,(7.0.0)
; #@! TF.FileFunction,Plated,1,2,PTH
FMAT,2
METRIC
; #@! TA.AperFunction,Plated,PTH,ViaDrill
T1C0.400
; #@! TA.AperFunction,Plated,PTH,ComponentDrill
T2C0.900
; #@! TA.AperFunction,Plated,PTH,ComponentDrill
T3C0.950
; #@! TA.AperFunction,Plated,PTH,ComponentDrill
T4C1.000
; #@! TA.AperFunction,Plated,PTH,ComponentDrill
T5C1.200
; #@! TA.AperFunction,Plated,PTH,ComponentDrill
T6C1.500
%
G90
G05
T1
X50.006Y-61.912
X54.769Y-71.438
X57.15Y-54.769
X61.912Y-47.625
X64.294Y-57.15
X88.106Y-119.062
X90.487Y-33.337
X121.444Y-42.862
X150.019Y-42.862
X150.019Y-57.15
X152.4Y-121.444
X154.781Y-130.969
X161.925Y-123.825
T2
X42.625Y-57.15
X45.125Y-52.15
X47.625Y-57.15
T3
X33.337Y-48.637
X33.337Y-51.137
X33.337Y-53.637
X33.337Y-56.137
T4
X32.226Y-40.322
X32.226Y-42.862
X34.766Y-40.322
X34.766Y-42.862
X37.306Y-40.322
X37.306Y-42.862
X39.846Y-40.322
X39.846Y-42.862
X42.386Y-40.322
X42.386Y-42.862
X44.926Y-40.322
X44.926Y-42.862
X47.466Y-40.322
X47.466Y-42.862
X50.006Y-40.322
X50.006Y-42.862
T5
X35.56Y-95.885
X35.56Y-114.935
X40.322Y-76.835
X54.61Y-95.885
X54.61Y-114.935
X68.897Y-76.835
X73.66Y-45.385
X73.66Y-95.885
X73.66Y-114.935
X97.472Y-76.835
X97.472Y-95.885
X97.472Y-114.935
X97.472Y-133.985
X102.235Y-45.385
X106.997Y-153.035
X116.522Y-76.835
X116.522Y-95.885
X116.522Y-114.935
X116.522Y-133.985
X130.81Y-45.385
X135.572Y-76.835
X135.572Y-95.885
X135.572Y-114.935
X135.572Y-133.985
X135.572Y-153.035
X154.623Y-76.835
X154.623Y-95.885
X154.623Y-114.935
X154.623Y-143.51
X159.385Y-45.385
T6
X38.1Y-96.805
X38.1Y-115.855
X42.862Y-77.755
X57.15Y-96.805
X57.15Y-115.855
X71.438Y-77.755
X76.2Y-46.305
X76.2Y-96.805
X76.2Y-115.855
X100.012Y-77.755
X100.012Y-96.805
X100.012Y-115.855
X100.012Y-134.905
X104.775Y-46.305
X109.537Y-153.955
X119.062Y-77.755
X119.062Y-96.805
X119.062Y-115.855
X119.062Y-134.905
X133.35Y-46.305
X138.112Y-77.755
X138.112Y-96.805
X138.112Y-115.855
X138.112Y-134.905
X138.112Y-153.955
X157.162Y-77.755
X157.162Y-96.805
X157.162Y-115.855
X157.162Y-144.43
X161.925Y-46.305
T2
X33.569Y-95.418G85X33.231Y-94.692
G05
X33.569Y-114.468G85X33.231Y-113.742
G05
X38.332Y-76.368G85X37.993Y-75.642
G05
X41.25Y-96.555G85X40.15Y-96.555
G05
X41.25Y-115.605G85X40.15Y-115.605
G05
X46.012Y-77.505G85X44.913Y-77.505
G05
X52.619Y-95.418G85X52.281Y-94.692
G05
X52.619Y-114.468G85X52.281Y-113.742
G05
X60.3Y-96.555G85X59.2Y-96.555
G05
X60.3Y-115.605G85X59.2Y-115.605
G05
X66.907Y-76.368G85X66.568Y-75.642
G05
X71.669Y-44.918G85X71.331Y-44.192
G05
X71.669Y-95.418G85X71.331Y-94.692
G05
X71.669Y-114.468G85X71.331Y-113.742
G05
X74.587Y-77.505G85X73.487Y-77.505
G05
X79.35Y-46.055G85X78.25Y-46.055
G05
X79.35Y-96.555G85X78.25Y-96.555
G05
X79.35Y-115.605G85X78.25Y-115.605
G05
X95.482Y-76.368G85X95.143Y-75.642
G05
X95.482Y-95.418G85X95.143Y-94.692
G05
X95.482Y-114.468G85X95.143Y-113.742
G05
X95.482Y-133.518G85X95.143Y-132.792
G05
X100.244Y-44.918G85X99.906Y-44.192
G05
X103.162Y-77.505G85X102.062Y-77.505
G05
X103.162Y-96.555G85X102.062Y-96.555
G05
X103.162Y-115.605G85X102.062Y-115.605
G05
X103.162Y-134.655G85X102.062Y-134.655
G05
X105.007Y-152.568G85X104.668Y-151.842
G05
X107.925Y-46.055G85X106.825Y-46.055
G05
X112.688Y-153.705G85X111.587Y-153.705
G05
X114.532Y-76.368G85X114.193Y-75.642
G05
X114.532Y-95.418G85X114.193Y-94.692
G05
X114.532Y-114.468G85X114.193Y-113.742
G05
X114.532Y-133.518G85X114.193Y-132.792
G05
X122.212Y-77.505G85X121.112Y-77.505
G05
X122.212Y-96.555G85X121.112Y-96.555
G05
X122.212Y-115.605G85X121.112Y-115.605
G05
X122.212Y-134.655G85X121.112Y-134.655
G05
X128.819Y-44.918G85X128.481Y-44.192
G05
X133.582Y-76.368G85X133.243Y-75.642
G05
X133.582Y-95.418G85X133.243Y-94.692
G05
X133.582Y-114.468G85X133.243Y-113.742
G05
X133.582Y-133.518G85X133.243Y-132.792
G05
X133.582Y-152.568G85X133.243Y-151.842
G05
X136.5Y-46.055G85X135.4Y-46.055
G05
X141.262Y-77.505G85X140.162Y-77.505
G05
X141.262Y-96.555G85X140.162Y-96.555
G05
X141.262Y-115.605G85X140.162Y-115.605
G05
X141.262Y-134.655G85X140.162Y-134.655
G05
X141.262Y-153.705G85X140.162Y-153.705
G05
X152.632Y-76.368G85X152.293Y-75.642
G05
X152.632Y-95.418G85X152.293Y-94.692
G05
X152.632Y-114.468G85X152.293Y-113.742
G05
X152.632Y-143.043G85X152.293Y-142.317
G05
X157.394Y-44.918G85X157.056Y-44.192
G05
X160.312Y-77.505G85X159.213Y-77.505
G05
X160.312Y-96.555G85X159.213Y-96.555
G05
X160.312Y-115.605G85X159.213Y-115.605
G05
X160.312Y-144.18G85X159.213Y-144.18
G05
X165.075Y-46.055G85X163.975Y-46.055
G05
T6
X41.954Y-93.321G85X41.246Y-94.029
G05
X41.954Y-112.371G85X41.246Y-113.079
G05
X46.716Y-74.271G85X46.009Y-74.979
G05
X61.004Y-93.321G85X60.296Y-94.029
G05
X61.004Y-112.371G85X60.296Y-113.079
G05
X75.291Y-74.271G85X74.584Y-74.979
G05
X80.054Y-42.821G85X79.346Y-43.529
G05
X80.054Y-93.321G85X79.346Y-94.029
G05
X80.054Y-112.371G85X79.346Y-113.079
G05
X103.866Y-74.271G85X103.159Y-74.979
G05
X103.866Y-93.321G85X103.159Y-94.029
G05
X103.866Y-112.371G85X103.159Y-113.079
G05
X103.866Y-131.421G85X103.159Y-132.129
G05
X108.629Y-42.821G85X107.921Y-43.529
G05
X113.391Y-150.471G85X112.684Y-151.179
G05
X122.916Y-74.271G85X122.209Y-74.979
G05
X122.916Y-93.321G85X122.209Y-94.029
G05
X122.916Y-112.371G85X122.209Y-113.079
G05
X122.916Y-131.421G85X122.209Y-132.129
G05
X137.204Y-42.821G85X136.496Y-43.529
G05
X141.966Y-74.271G85X141.259Y-74.979
G05
X141.966Y-93.321G85X141.259Y-94.029
G05
X141.966Y-112.371G85X141.259Y-113.079
G05
X141.966Y-131.421G85X141.259Y-132.129
G05
X141.966Y-150.471G85X141.259Y-151.179
G05
X161.016Y-74.271G85X160.309Y-74.979
G05
X161.016Y-93.321G85X160.309Y-94.029
G05
X161.016Y-112.371G85X160.309Y-113.079
G05
X161.016Y-140.946G85X160.309Y-141.654
G05
X165.779Y-42.821G85X165.071Y-43.529
G05
T0
M30
