%TF.GenerationSoftware,KiCad,Pcbnew,(7.0.0)*%
%TF.CreationDate,2023-04-09T14:20:33-07:00*%
%TF.ProjectId,SidecarXE85,53696465-6361-4725-9845-38352e6b6963,1*%
%TF.SameCoordinates,Original*%
%TF.FileFunction,Soldermask,Bot*%
%TF.FilePolarity,Negative*%
%FSLAX46Y46*%
G04 Gerber Fmt 4.6, Leading zero omitted, Abs format (unit mm)*
G04 Created by KiCad (PCBNEW (7.0.0)) date 2023-04-09 14:20:33*
%MOMM*%
%LPD*%
G01*
G04 APERTURE LIST*
G04 Aperture macros list*
%AMRoundRect*
0 Rectangle with rounded corners*
0 $1 Rounding radius*
0 $2 $3 $4 $5 $6 $7 $8 $9 X,Y pos of 4 corners*
0 Add a 4 corners polygon primitive as box body*
4,1,4,$2,$3,$4,$5,$6,$7,$8,$9,$2,$3,0*
0 Add four circle primitives for the rounded corners*
1,1,$1+$1,$2,$3*
1,1,$1+$1,$4,$5*
1,1,$1+$1,$6,$7*
1,1,$1+$1,$8,$9*
0 Add four rect primitives between the rounded corners*
20,1,$1+$1,$2,$3,$4,$5,0*
20,1,$1+$1,$4,$5,$6,$7,0*
20,1,$1+$1,$6,$7,$8,$9,0*
20,1,$1+$1,$8,$9,$2,$3,0*%
G04 Aperture macros list end*
%ADD10RoundRect,0.250000X-0.600000X0.600000X-0.600000X-0.600000X0.600000X-0.600000X0.600000X0.600000X0*%
%ADD11C,1.700000*%
%ADD12C,4.000000*%
%ADD13R,1.600000X1.600000*%
%ADD14C,1.600000*%
%ADD15O,1.600000X1.600000*%
%ADD16R,1.700000X1.700000*%
%ADD17O,1.700000X1.700000*%
G04 APERTURE END LIST*
D10*
%TO.C,J4*%
X50000000Y-69232500D03*
D11*
X50000000Y-71772500D03*
X47460000Y-69232500D03*
X47460000Y-71772500D03*
X44920000Y-69232500D03*
X44920000Y-71772500D03*
X42380000Y-69232500D03*
X42380000Y-71772500D03*
X39840000Y-69232500D03*
X39840000Y-71772500D03*
X37300000Y-69232500D03*
X37300000Y-71772500D03*
X34760000Y-69232500D03*
X34760000Y-71772500D03*
X32220000Y-69232500D03*
X32220000Y-71772500D03*
%TD*%
D12*
%TO.C,J3*%
X170330000Y-41500000D03*
X170330000Y-16500000D03*
D13*
X168909999Y-34539999D03*
D14*
X168910000Y-31770000D03*
X168910000Y-29000000D03*
X168910000Y-26230000D03*
X168910000Y-23460000D03*
X171750000Y-33155000D03*
X171750000Y-30385000D03*
X171750000Y-27615000D03*
X171750000Y-24845000D03*
%TD*%
%TO.C,C1*%
X83020000Y-53340000D03*
X78020000Y-53340000D03*
%TD*%
D13*
%TO.C,U1*%
X52534999Y-41499999D03*
D15*
X49994999Y-41499999D03*
X47454999Y-41499999D03*
X44914999Y-41499999D03*
X42374999Y-41499999D03*
X39834999Y-41499999D03*
X37294999Y-41499999D03*
X34754999Y-41499999D03*
X32214999Y-41499999D03*
X29674999Y-41499999D03*
X29674999Y-49119999D03*
X32214999Y-49119999D03*
X34754999Y-49119999D03*
X37294999Y-49119999D03*
X39834999Y-49119999D03*
X42374999Y-49119999D03*
X44914999Y-49119999D03*
X47454999Y-49119999D03*
X49994999Y-49119999D03*
X52534999Y-49119999D03*
%TD*%
D12*
%TO.C,J2*%
X22350331Y-16500000D03*
X22350331Y-41500000D03*
D13*
X23770330Y-34539999D03*
D14*
X23770331Y-31770000D03*
X23770331Y-29000000D03*
X23770331Y-26230000D03*
X23770331Y-23460000D03*
X20930331Y-33155000D03*
X20930331Y-30385000D03*
X20930331Y-27615000D03*
X20930331Y-24845000D03*
%TD*%
D12*
%TO.C,J5*%
X170330000Y-73460000D03*
X170330000Y-48460000D03*
D13*
X168909999Y-66499999D03*
D14*
X168910000Y-63730000D03*
X168910000Y-60960000D03*
X168910000Y-58190000D03*
X168910000Y-55420000D03*
X171750000Y-65115000D03*
X171750000Y-62345000D03*
X171750000Y-59575000D03*
X171750000Y-56805000D03*
%TD*%
D16*
%TO.C,SW1*%
X52054999Y-12699999D03*
D17*
X49514999Y-12699999D03*
X46974999Y-12699999D03*
%TD*%
D14*
%TO.C,C3*%
X39880000Y-38060000D03*
X44880000Y-38060000D03*
%TD*%
D13*
%TO.C,U2*%
X77944999Y-41499999D03*
D15*
X75404999Y-41499999D03*
X72864999Y-41499999D03*
X70324999Y-41499999D03*
X67784999Y-41499999D03*
X65244999Y-41499999D03*
X62704999Y-41499999D03*
X62704999Y-49119999D03*
X65244999Y-49119999D03*
X67784999Y-49119999D03*
X70324999Y-49119999D03*
X72864999Y-49119999D03*
X75404999Y-49119999D03*
X77944999Y-49119999D03*
%TD*%
D14*
%TO.C,C2*%
X37300000Y-38060000D03*
X32300000Y-38060000D03*
%TD*%
D12*
%TO.C,J1*%
X22350331Y-48500000D03*
X22350331Y-73500000D03*
D13*
X23770330Y-66539999D03*
D14*
X23770331Y-63770000D03*
X23770331Y-61000000D03*
X23770331Y-58230000D03*
X23770331Y-55460000D03*
X20930331Y-65155000D03*
X20930331Y-62385000D03*
X20930331Y-59615000D03*
X20930331Y-56845000D03*
%TD*%
M02*
