G04 #@! TF.GenerationSoftware,KiCad,Pcbnew,(5.1.10)-1*
G04 #@! TF.CreationDate,2021-09-25T20:55:18-07:00*
G04 #@! TF.ProjectId,Atari130MX-adapter,41746172-6931-4333-904d-582d61646170,rev?*
G04 #@! TF.SameCoordinates,Original*
G04 #@! TF.FileFunction,Copper,L2,Bot*
G04 #@! TF.FilePolarity,Positive*
%FSLAX46Y46*%
G04 Gerber Fmt 4.6, Leading zero omitted, Abs format (unit mm)*
G04 Created by KiCad (PCBNEW (5.1.10)-1) date 2021-09-25 20:55:18*
%MOMM*%
%LPD*%
G01*
G04 APERTURE LIST*
G04 #@! TA.AperFunction,ComponentPad*
%ADD10O,1.524000X2.540000*%
G04 #@! TD*
G04 #@! TA.AperFunction,ComponentPad*
%ADD11C,1.700000*%
G04 #@! TD*
G04 #@! TA.AperFunction,ViaPad*
%ADD12C,0.800000*%
G04 #@! TD*
G04 #@! TA.AperFunction,Conductor*
%ADD13C,0.250000*%
G04 #@! TD*
G04 #@! TA.AperFunction,Conductor*
%ADD14C,0.254000*%
G04 #@! TD*
G04 #@! TA.AperFunction,Conductor*
%ADD15C,0.100000*%
G04 #@! TD*
G04 APERTURE END LIST*
D10*
X25400000Y-39116000D03*
X27940000Y-39116000D03*
X30480000Y-39116000D03*
X33020000Y-39116000D03*
X35560000Y-39116000D03*
X38100000Y-39116000D03*
X40640000Y-39116000D03*
X43180000Y-39116000D03*
X45720000Y-39116000D03*
X48260000Y-39116000D03*
X50800000Y-39116000D03*
X53340000Y-39116000D03*
X55880000Y-39116000D03*
X58420000Y-39116000D03*
X60960000Y-39116000D03*
X63500000Y-39116000D03*
X66040000Y-39116000D03*
X68580000Y-39116000D03*
X71120000Y-39116000D03*
X73660000Y-39116000D03*
X76200000Y-39116000D03*
X78740000Y-39116000D03*
X81280000Y-39116000D03*
X83820000Y-39116000D03*
D11*
X85440000Y-29460000D03*
X82900000Y-29460000D03*
X80360000Y-29460000D03*
X77820000Y-29460000D03*
X75280000Y-29460000D03*
X72740000Y-29460000D03*
X70200000Y-29460000D03*
X67660000Y-29460000D03*
X65120000Y-29460000D03*
X62580000Y-29460000D03*
X60040000Y-29460000D03*
X57500000Y-29460000D03*
X85440000Y-32000000D03*
X82900000Y-32000000D03*
X80360000Y-32000000D03*
X77820000Y-32000000D03*
X75280000Y-32000000D03*
X72740000Y-32000000D03*
X70200000Y-32000000D03*
X67660000Y-32000000D03*
X65120000Y-32000000D03*
X62580000Y-32000000D03*
X60040000Y-32000000D03*
G04 #@! TA.AperFunction,ComponentPad*
G36*
G01*
X58100000Y-32850000D02*
X56900000Y-32850000D01*
G75*
G02*
X56650000Y-32600000I0J250000D01*
G01*
X56650000Y-31400000D01*
G75*
G02*
X56900000Y-31150000I250000J0D01*
G01*
X58100000Y-31150000D01*
G75*
G02*
X58350000Y-31400000I0J-250000D01*
G01*
X58350000Y-32600000D01*
G75*
G02*
X58100000Y-32850000I-250000J0D01*
G01*
G37*
G04 #@! TD.AperFunction*
D12*
X28253600Y-29911300D03*
X26135600Y-29790300D03*
X26870100Y-34653100D03*
X28748800Y-31372500D03*
X31482700Y-30390800D03*
X81582100Y-26634500D03*
X31235500Y-34054100D03*
X33194400Y-31724100D03*
X87204200Y-30445600D03*
X29733000Y-34204200D03*
X51414100Y-36628600D03*
X49742000Y-36288200D03*
X45500000Y-35894500D03*
X43650303Y-30799801D03*
X42145003Y-35354997D03*
X42892400Y-34612200D03*
X43770900Y-34030800D03*
X42313300Y-31757800D03*
X38204300Y-31358400D03*
X21000000Y-33000000D03*
X25000000Y-35000000D03*
X51500000Y-33500000D03*
X34500000Y-36000000D03*
D13*
X85440000Y-29460000D02*
X85440000Y-29707100D01*
X85440000Y-29707100D02*
X86617300Y-30884400D01*
X86617300Y-30884400D02*
X86617300Y-32547300D01*
X86617300Y-32547300D02*
X83820000Y-35344600D01*
X83820000Y-35344600D02*
X83820000Y-39116000D01*
X28253600Y-29911300D02*
X31263000Y-26901900D01*
X31263000Y-26901900D02*
X80823800Y-26901900D01*
X80823800Y-26901900D02*
X81281700Y-27359800D01*
X81281700Y-27359800D02*
X82474800Y-27359800D01*
X82474800Y-27359800D02*
X84075400Y-28960400D01*
X84075400Y-28960400D02*
X84075400Y-29757600D01*
X84075400Y-29757600D02*
X85440000Y-31122200D01*
X85440000Y-31122200D02*
X85440000Y-32000000D01*
X85440000Y-32000000D02*
X81280000Y-36160000D01*
X81280000Y-36160000D02*
X81280000Y-37520700D01*
X81280000Y-39116000D02*
X81280000Y-37520700D01*
X78740000Y-39116000D02*
X78740000Y-37520700D01*
X82900000Y-29460000D02*
X84115300Y-30675300D01*
X84115300Y-30675300D02*
X84115300Y-32450300D01*
X84115300Y-32450300D02*
X79044900Y-37520700D01*
X79044900Y-37520700D02*
X78740000Y-37520700D01*
X26870100Y-34653100D02*
X26135600Y-33918600D01*
X26135600Y-33918600D02*
X26135600Y-29790300D01*
X76200000Y-37520700D02*
X77379300Y-37520700D01*
X77379300Y-37520700D02*
X82900000Y-32000000D01*
X76200000Y-39116000D02*
X76200000Y-37520700D01*
X28748800Y-31372500D02*
X32769000Y-27352300D01*
X32769000Y-27352300D02*
X78252300Y-27352300D01*
X78252300Y-27352300D02*
X80360000Y-29460000D01*
X73660000Y-39116000D02*
X73660000Y-37520700D01*
X80360000Y-29460000D02*
X81575300Y-30675300D01*
X81575300Y-30675300D02*
X81575300Y-32450400D01*
X81575300Y-32450400D02*
X77287500Y-36738200D01*
X77287500Y-36738200D02*
X74442500Y-36738200D01*
X74442500Y-36738200D02*
X73660000Y-37520700D01*
X31482700Y-30390800D02*
X34070800Y-27802700D01*
X34070800Y-27802700D02*
X77851700Y-27802700D01*
X77851700Y-27802700D02*
X79035100Y-28986100D01*
X79035100Y-28986100D02*
X79035100Y-29797200D01*
X79035100Y-29797200D02*
X80360000Y-31122100D01*
X80360000Y-31122100D02*
X80360000Y-32000000D01*
X71120000Y-39116000D02*
X71120000Y-37520700D01*
X80360000Y-32000000D02*
X77359500Y-35000500D01*
X77359500Y-35000500D02*
X73640200Y-35000500D01*
X73640200Y-35000500D02*
X71120000Y-37520700D01*
X68580000Y-39116000D02*
X68580000Y-37520700D01*
X77820000Y-29460000D02*
X79035300Y-30675300D01*
X79035300Y-30675300D02*
X79035300Y-32464000D01*
X79035300Y-32464000D02*
X77288800Y-34210500D01*
X77288800Y-34210500D02*
X71890200Y-34210500D01*
X71890200Y-34210500D02*
X68580000Y-37520700D01*
X31235500Y-34054100D02*
X30129100Y-32947700D01*
X30129100Y-32947700D02*
X29240400Y-32947700D01*
X29240400Y-32947700D02*
X27496300Y-31203600D01*
X27496300Y-31203600D02*
X27496300Y-29636800D01*
X27496300Y-29636800D02*
X30681600Y-26451500D01*
X30681600Y-26451500D02*
X81399100Y-26451500D01*
X81399100Y-26451500D02*
X81582100Y-26634500D01*
X77820000Y-32000000D02*
X76080800Y-33739200D01*
X76080800Y-33739200D02*
X71416800Y-33739200D01*
X71416800Y-33739200D02*
X66040000Y-39116000D01*
X74010000Y-29460000D02*
X74010000Y-32406800D01*
X74010000Y-32406800D02*
X73169900Y-33246900D01*
X73169900Y-33246900D02*
X71272200Y-33246900D01*
X71272200Y-33246900D02*
X66998400Y-37520700D01*
X66998400Y-37520700D02*
X63500000Y-37520700D01*
X75280000Y-29460000D02*
X74010000Y-29460000D01*
X33194400Y-31724100D02*
X36633900Y-28284600D01*
X36633900Y-28284600D02*
X73239900Y-28284600D01*
X73239900Y-28284600D02*
X74010000Y-29054700D01*
X74010000Y-29054700D02*
X74010000Y-29460000D01*
X63500000Y-39116000D02*
X63500000Y-37520700D01*
X29733000Y-34204200D02*
X27045900Y-31517100D01*
X27045900Y-31517100D02*
X27045900Y-29435700D01*
X27045900Y-29435700D02*
X30602200Y-25879400D01*
X30602200Y-25879400D02*
X83537600Y-25879400D01*
X83537600Y-25879400D02*
X87204200Y-29546000D01*
X87204200Y-29546000D02*
X87204200Y-30445600D01*
X58420000Y-39116000D02*
X58420000Y-37520700D01*
X72740000Y-29460000D02*
X71564600Y-30635400D01*
X71564600Y-30635400D02*
X71564600Y-32298700D01*
X71564600Y-32298700D02*
X67161100Y-36702200D01*
X67161100Y-36702200D02*
X59238500Y-36702200D01*
X59238500Y-36702200D02*
X58420000Y-37520700D01*
X53340000Y-39116000D02*
X53340000Y-37520700D01*
X70200000Y-29460000D02*
X69024600Y-30635400D01*
X69024600Y-30635400D02*
X69024600Y-32297700D01*
X69024600Y-32297700D02*
X65344900Y-35977400D01*
X65344900Y-35977400D02*
X54883300Y-35977400D01*
X54883300Y-35977400D02*
X53340000Y-37520700D01*
X50800000Y-39116000D02*
X50800000Y-37520700D01*
X51414100Y-36628600D02*
X51414100Y-36906600D01*
X51414100Y-36906600D02*
X50800000Y-37520700D01*
X48260000Y-39116000D02*
X48260000Y-37520700D01*
X49742000Y-36288200D02*
X48509500Y-37520700D01*
X48509500Y-37520700D02*
X48260000Y-37520700D01*
X45720000Y-39116000D02*
X45720000Y-37520700D01*
X64132610Y-35527390D02*
X67660000Y-32000000D01*
X47027390Y-35527390D02*
X64132610Y-35527390D01*
X45720000Y-36114500D02*
X45500000Y-35894500D01*
X45720000Y-39116000D02*
X45720000Y-36114500D01*
X46660280Y-35894500D02*
X47027390Y-35527390D01*
X45500000Y-35894500D02*
X46660280Y-35894500D01*
X65120000Y-29460000D02*
X65120000Y-30672300D01*
X65509200Y-30672300D02*
X65120000Y-30672300D01*
X66335300Y-32472800D02*
X66335300Y-31498400D01*
X64904050Y-33904050D02*
X66335300Y-32472800D01*
X66335300Y-31498400D02*
X65509200Y-30672300D01*
X63906550Y-34906550D02*
X64904050Y-33909050D01*
X44906550Y-34906550D02*
X63906550Y-34906550D01*
X43180000Y-36633100D02*
X44906550Y-34906550D01*
X64904050Y-33909050D02*
X64904050Y-33904050D01*
X43180000Y-39116000D02*
X43180000Y-36633100D01*
X64992500Y-30799800D02*
X65120000Y-30672300D01*
X56700200Y-30799800D02*
X64992500Y-30799800D01*
X54900400Y-29000000D02*
X56700200Y-30799800D01*
X45450104Y-29000000D02*
X54900400Y-29000000D01*
X43650303Y-30799801D02*
X45450104Y-29000000D01*
X42225300Y-35359900D02*
X43796700Y-35359900D01*
X44348390Y-34828300D02*
X44720150Y-34456540D01*
X44328300Y-34828300D02*
X44348390Y-34828300D01*
X43796700Y-35359900D02*
X44328300Y-34828300D01*
X62663460Y-34456540D02*
X65120000Y-32000000D01*
X44720150Y-34456540D02*
X62663460Y-34456540D01*
X42225300Y-37530700D02*
X40640000Y-39116000D01*
X42225300Y-35359900D02*
X42225300Y-37530700D01*
X42149906Y-35359900D02*
X42145003Y-35354997D01*
X42225300Y-35359900D02*
X42149906Y-35359900D01*
X42892400Y-34612200D02*
X41008500Y-34612200D01*
X41008500Y-34612200D02*
X38100000Y-37520700D01*
X38100000Y-39116000D02*
X38100000Y-37520700D01*
X35560000Y-37520700D02*
X39193800Y-33886900D01*
X39193800Y-33886900D02*
X43627000Y-33886900D01*
X43627000Y-33886900D02*
X43770900Y-34030800D01*
X35560000Y-39116000D02*
X35560000Y-37520700D01*
X41631910Y-31076410D02*
X42313300Y-31757800D01*
X38552301Y-32083401D02*
X39559292Y-31076410D01*
X37856299Y-32083401D02*
X38552301Y-32083401D01*
X37581308Y-31808410D02*
X37856299Y-32083401D01*
X36201710Y-31808410D02*
X37581308Y-31808410D01*
X33020000Y-34990120D02*
X36201710Y-31808410D01*
X39559292Y-31076410D02*
X41631910Y-31076410D01*
X33020000Y-39116000D02*
X33020000Y-34990120D01*
X28348090Y-37151910D02*
X30221801Y-37151909D01*
X27940000Y-37560000D02*
X28348090Y-37151910D01*
X27940000Y-39116000D02*
X27940000Y-37560000D01*
X36015310Y-31358400D02*
X38204300Y-31358400D01*
X30221801Y-37151909D02*
X36015310Y-31358400D01*
X23000000Y-35000000D02*
X25000000Y-35000000D01*
X21000000Y-33000000D02*
X23000000Y-35000000D01*
X58540000Y-33500000D02*
X60040000Y-32000000D01*
X51500000Y-33500000D02*
X58540000Y-33500000D01*
X25400000Y-39116000D02*
X25400000Y-37520700D01*
X42401700Y-30626400D02*
X36110900Y-30626400D01*
X36110900Y-30626400D02*
X30035400Y-36701900D01*
X30035400Y-36701900D02*
X26218800Y-36701900D01*
X26218800Y-36701900D02*
X25400000Y-37520700D01*
X57024801Y-31524801D02*
X57500000Y-32000000D01*
X43300101Y-31524801D02*
X57024801Y-31524801D01*
X42401700Y-30626400D02*
X43300101Y-31524801D01*
D14*
X26560695Y-28846104D02*
X26437498Y-28795074D01*
X26237539Y-28755300D01*
X26033661Y-28755300D01*
X25833702Y-28795074D01*
X25645344Y-28873095D01*
X25475826Y-28986363D01*
X25331663Y-29130526D01*
X25218395Y-29300044D01*
X25140374Y-29488402D01*
X25100600Y-29688361D01*
X25100600Y-29892239D01*
X25140374Y-30092198D01*
X25218395Y-30280556D01*
X25331663Y-30450074D01*
X25375601Y-30494012D01*
X25375600Y-33881277D01*
X25371924Y-33918600D01*
X25375600Y-33955922D01*
X25375600Y-33955932D01*
X25386597Y-34067585D01*
X25425640Y-34196296D01*
X25430054Y-34210846D01*
X25500626Y-34342876D01*
X25520055Y-34366550D01*
X25595599Y-34458601D01*
X25624602Y-34482403D01*
X25835100Y-34692901D01*
X25835100Y-34755039D01*
X25874874Y-34954998D01*
X25952895Y-35143356D01*
X26066163Y-35312874D01*
X26210326Y-35457037D01*
X26379844Y-35570305D01*
X26568202Y-35648326D01*
X26768161Y-35688100D01*
X26972039Y-35688100D01*
X27171998Y-35648326D01*
X27360356Y-35570305D01*
X27529874Y-35457037D01*
X27674037Y-35312874D01*
X27787305Y-35143356D01*
X27865326Y-34954998D01*
X27905100Y-34755039D01*
X27905100Y-34551161D01*
X27865326Y-34351202D01*
X27787305Y-34162844D01*
X27674037Y-33993326D01*
X27529874Y-33849163D01*
X27360356Y-33735895D01*
X27171998Y-33657874D01*
X26972039Y-33618100D01*
X26909901Y-33618100D01*
X26895600Y-33603799D01*
X26895600Y-32441601D01*
X28698000Y-34244002D01*
X28698000Y-34306139D01*
X28737774Y-34506098D01*
X28815795Y-34694456D01*
X28929063Y-34863974D01*
X29073226Y-35008137D01*
X29242744Y-35121405D01*
X29431102Y-35199426D01*
X29631061Y-35239200D01*
X29834939Y-35239200D01*
X30034898Y-35199426D01*
X30223256Y-35121405D01*
X30392774Y-35008137D01*
X30536937Y-34863974D01*
X30554852Y-34837163D01*
X30575726Y-34858037D01*
X30712843Y-34949655D01*
X29720599Y-35941900D01*
X26256122Y-35941900D01*
X26218799Y-35938224D01*
X26181476Y-35941900D01*
X26181467Y-35941900D01*
X26069814Y-35952897D01*
X25959691Y-35986302D01*
X25926553Y-35996354D01*
X25794523Y-36066926D01*
X25726603Y-36122667D01*
X25678799Y-36161899D01*
X25655001Y-36190898D01*
X24888998Y-36956901D01*
X24860000Y-36980699D01*
X24836202Y-37009697D01*
X24836201Y-37009698D01*
X24765026Y-37096424D01*
X24694454Y-37228454D01*
X24672480Y-37300896D01*
X24650998Y-37371714D01*
X24645530Y-37427231D01*
X24620113Y-37440817D01*
X24407392Y-37615393D01*
X24232817Y-37828114D01*
X24103096Y-38070806D01*
X24023214Y-38334141D01*
X24003000Y-38539376D01*
X24003000Y-39692625D01*
X24015348Y-39818000D01*
X23755000Y-39818000D01*
X23755000Y-36033865D01*
X23744943Y-35931756D01*
X23705202Y-35800748D01*
X23640667Y-35680011D01*
X23553817Y-35574183D01*
X23447989Y-35487333D01*
X23327252Y-35422798D01*
X23196244Y-35383057D01*
X23060000Y-35369638D01*
X22923757Y-35383057D01*
X22841531Y-35408000D01*
X18694000Y-35408000D01*
X18694000Y-25679000D01*
X29727798Y-25679000D01*
X26560695Y-28846104D01*
G04 #@! TA.AperFunction,Conductor*
D15*
G36*
X26560695Y-28846104D02*
G01*
X26437498Y-28795074D01*
X26237539Y-28755300D01*
X26033661Y-28755300D01*
X25833702Y-28795074D01*
X25645344Y-28873095D01*
X25475826Y-28986363D01*
X25331663Y-29130526D01*
X25218395Y-29300044D01*
X25140374Y-29488402D01*
X25100600Y-29688361D01*
X25100600Y-29892239D01*
X25140374Y-30092198D01*
X25218395Y-30280556D01*
X25331663Y-30450074D01*
X25375601Y-30494012D01*
X25375600Y-33881277D01*
X25371924Y-33918600D01*
X25375600Y-33955922D01*
X25375600Y-33955932D01*
X25386597Y-34067585D01*
X25425640Y-34196296D01*
X25430054Y-34210846D01*
X25500626Y-34342876D01*
X25520055Y-34366550D01*
X25595599Y-34458601D01*
X25624602Y-34482403D01*
X25835100Y-34692901D01*
X25835100Y-34755039D01*
X25874874Y-34954998D01*
X25952895Y-35143356D01*
X26066163Y-35312874D01*
X26210326Y-35457037D01*
X26379844Y-35570305D01*
X26568202Y-35648326D01*
X26768161Y-35688100D01*
X26972039Y-35688100D01*
X27171998Y-35648326D01*
X27360356Y-35570305D01*
X27529874Y-35457037D01*
X27674037Y-35312874D01*
X27787305Y-35143356D01*
X27865326Y-34954998D01*
X27905100Y-34755039D01*
X27905100Y-34551161D01*
X27865326Y-34351202D01*
X27787305Y-34162844D01*
X27674037Y-33993326D01*
X27529874Y-33849163D01*
X27360356Y-33735895D01*
X27171998Y-33657874D01*
X26972039Y-33618100D01*
X26909901Y-33618100D01*
X26895600Y-33603799D01*
X26895600Y-32441601D01*
X28698000Y-34244002D01*
X28698000Y-34306139D01*
X28737774Y-34506098D01*
X28815795Y-34694456D01*
X28929063Y-34863974D01*
X29073226Y-35008137D01*
X29242744Y-35121405D01*
X29431102Y-35199426D01*
X29631061Y-35239200D01*
X29834939Y-35239200D01*
X30034898Y-35199426D01*
X30223256Y-35121405D01*
X30392774Y-35008137D01*
X30536937Y-34863974D01*
X30554852Y-34837163D01*
X30575726Y-34858037D01*
X30712843Y-34949655D01*
X29720599Y-35941900D01*
X26256122Y-35941900D01*
X26218799Y-35938224D01*
X26181476Y-35941900D01*
X26181467Y-35941900D01*
X26069814Y-35952897D01*
X25959691Y-35986302D01*
X25926553Y-35996354D01*
X25794523Y-36066926D01*
X25726603Y-36122667D01*
X25678799Y-36161899D01*
X25655001Y-36190898D01*
X24888998Y-36956901D01*
X24860000Y-36980699D01*
X24836202Y-37009697D01*
X24836201Y-37009698D01*
X24765026Y-37096424D01*
X24694454Y-37228454D01*
X24672480Y-37300896D01*
X24650998Y-37371714D01*
X24645530Y-37427231D01*
X24620113Y-37440817D01*
X24407392Y-37615393D01*
X24232817Y-37828114D01*
X24103096Y-38070806D01*
X24023214Y-38334141D01*
X24003000Y-38539376D01*
X24003000Y-39692625D01*
X24015348Y-39818000D01*
X23755000Y-39818000D01*
X23755000Y-36033865D01*
X23744943Y-35931756D01*
X23705202Y-35800748D01*
X23640667Y-35680011D01*
X23553817Y-35574183D01*
X23447989Y-35487333D01*
X23327252Y-35422798D01*
X23196244Y-35383057D01*
X23060000Y-35369638D01*
X22923757Y-35383057D01*
X22841531Y-35408000D01*
X18694000Y-35408000D01*
X18694000Y-25679000D01*
X29727798Y-25679000D01*
X26560695Y-28846104D01*
G37*
G04 #@! TD.AperFunction*
D14*
X30607000Y-38989000D02*
X30627000Y-38989000D01*
X30627000Y-39243000D01*
X30607000Y-39243000D01*
X30607000Y-39263000D01*
X30353000Y-39263000D01*
X30353000Y-39243000D01*
X30333000Y-39243000D01*
X30333000Y-38989000D01*
X30353000Y-38989000D01*
X30353000Y-38969000D01*
X30607000Y-38969000D01*
X30607000Y-38989000D01*
G04 #@! TA.AperFunction,Conductor*
D15*
G36*
X30607000Y-38989000D02*
G01*
X30627000Y-38989000D01*
X30627000Y-39243000D01*
X30607000Y-39243000D01*
X30607000Y-39263000D01*
X30353000Y-39263000D01*
X30353000Y-39243000D01*
X30333000Y-39243000D01*
X30333000Y-38989000D01*
X30353000Y-38989000D01*
X30353000Y-38969000D01*
X30607000Y-38969000D01*
X30607000Y-38989000D01*
G37*
G04 #@! TD.AperFunction*
D14*
X60233748Y-31985858D02*
X60219605Y-32000000D01*
X61068397Y-32848792D01*
X61310689Y-32773271D01*
X61426525Y-32946632D01*
X61633368Y-33153475D01*
X61876589Y-33315990D01*
X62146842Y-33427932D01*
X62433740Y-33485000D01*
X62560199Y-33485000D01*
X62348659Y-33696540D01*
X44757472Y-33696540D01*
X44752519Y-33696052D01*
X44688105Y-33540544D01*
X44574837Y-33371026D01*
X44430674Y-33226863D01*
X44261156Y-33113595D01*
X44072798Y-33035574D01*
X43872839Y-32995800D01*
X43668961Y-32995800D01*
X43469002Y-33035574D01*
X43280644Y-33113595D01*
X43260732Y-33126900D01*
X39231122Y-33126900D01*
X39193799Y-33123224D01*
X39156476Y-33126900D01*
X39156467Y-33126900D01*
X39044814Y-33137897D01*
X38901553Y-33181354D01*
X38769524Y-33251926D01*
X38653799Y-33346899D01*
X38630001Y-33375897D01*
X35048998Y-36956901D01*
X35020000Y-36980699D01*
X34996202Y-37009697D01*
X34996201Y-37009698D01*
X34925026Y-37096424D01*
X34854454Y-37228454D01*
X34832480Y-37300896D01*
X34810998Y-37371714D01*
X34805530Y-37427231D01*
X34780113Y-37440817D01*
X34567392Y-37615393D01*
X34392817Y-37828114D01*
X34290000Y-38020471D01*
X34187183Y-37828113D01*
X34012607Y-37615392D01*
X33799886Y-37440817D01*
X33780000Y-37430188D01*
X33780000Y-35304921D01*
X36516513Y-32568410D01*
X37266507Y-32568410D01*
X37292495Y-32594398D01*
X37316298Y-32623402D01*
X37432023Y-32718375D01*
X37564052Y-32788947D01*
X37707313Y-32832404D01*
X37818966Y-32843401D01*
X37818976Y-32843401D01*
X37856298Y-32847077D01*
X37893621Y-32843401D01*
X38514979Y-32843401D01*
X38552301Y-32847077D01*
X38589623Y-32843401D01*
X38589634Y-32843401D01*
X38701287Y-32832404D01*
X38844548Y-32788947D01*
X38976577Y-32718375D01*
X39092302Y-32623402D01*
X39116105Y-32594399D01*
X39874094Y-31836410D01*
X41278300Y-31836410D01*
X41278300Y-31859739D01*
X41318074Y-32059698D01*
X41396095Y-32248056D01*
X41509363Y-32417574D01*
X41653526Y-32561737D01*
X41823044Y-32675005D01*
X42011402Y-32753026D01*
X42211361Y-32792800D01*
X42415239Y-32792800D01*
X42615198Y-32753026D01*
X42803556Y-32675005D01*
X42973074Y-32561737D01*
X43117237Y-32417574D01*
X43209461Y-32279551D01*
X43262768Y-32284801D01*
X43262778Y-32284801D01*
X43300101Y-32288477D01*
X43337424Y-32284801D01*
X56011928Y-32284801D01*
X56011928Y-32600000D01*
X56028992Y-32773254D01*
X56079528Y-32939850D01*
X56161595Y-33093386D01*
X56272038Y-33227962D01*
X56406614Y-33338405D01*
X56560150Y-33420472D01*
X56726746Y-33471008D01*
X56900000Y-33488072D01*
X58100000Y-33488072D01*
X58273254Y-33471008D01*
X58439850Y-33420472D01*
X58593386Y-33338405D01*
X58727962Y-33227962D01*
X58838405Y-33093386D01*
X58873142Y-33028397D01*
X59191208Y-33028397D01*
X59268843Y-33277472D01*
X59532883Y-33403371D01*
X59816411Y-33475339D01*
X60108531Y-33490611D01*
X60398019Y-33448599D01*
X60673747Y-33350919D01*
X60811157Y-33277472D01*
X60888792Y-33028397D01*
X60040000Y-32179605D01*
X59191208Y-33028397D01*
X58873142Y-33028397D01*
X58920472Y-32939850D01*
X58953580Y-32830707D01*
X59011603Y-32848792D01*
X59860395Y-32000000D01*
X59846253Y-31985858D01*
X60025858Y-31806253D01*
X60040000Y-31820395D01*
X60054143Y-31806253D01*
X60233748Y-31985858D01*
G04 #@! TA.AperFunction,Conductor*
D15*
G36*
X60233748Y-31985858D02*
G01*
X60219605Y-32000000D01*
X61068397Y-32848792D01*
X61310689Y-32773271D01*
X61426525Y-32946632D01*
X61633368Y-33153475D01*
X61876589Y-33315990D01*
X62146842Y-33427932D01*
X62433740Y-33485000D01*
X62560199Y-33485000D01*
X62348659Y-33696540D01*
X44757472Y-33696540D01*
X44752519Y-33696052D01*
X44688105Y-33540544D01*
X44574837Y-33371026D01*
X44430674Y-33226863D01*
X44261156Y-33113595D01*
X44072798Y-33035574D01*
X43872839Y-32995800D01*
X43668961Y-32995800D01*
X43469002Y-33035574D01*
X43280644Y-33113595D01*
X43260732Y-33126900D01*
X39231122Y-33126900D01*
X39193799Y-33123224D01*
X39156476Y-33126900D01*
X39156467Y-33126900D01*
X39044814Y-33137897D01*
X38901553Y-33181354D01*
X38769524Y-33251926D01*
X38653799Y-33346899D01*
X38630001Y-33375897D01*
X35048998Y-36956901D01*
X35020000Y-36980699D01*
X34996202Y-37009697D01*
X34996201Y-37009698D01*
X34925026Y-37096424D01*
X34854454Y-37228454D01*
X34832480Y-37300896D01*
X34810998Y-37371714D01*
X34805530Y-37427231D01*
X34780113Y-37440817D01*
X34567392Y-37615393D01*
X34392817Y-37828114D01*
X34290000Y-38020471D01*
X34187183Y-37828113D01*
X34012607Y-37615392D01*
X33799886Y-37440817D01*
X33780000Y-37430188D01*
X33780000Y-35304921D01*
X36516513Y-32568410D01*
X37266507Y-32568410D01*
X37292495Y-32594398D01*
X37316298Y-32623402D01*
X37432023Y-32718375D01*
X37564052Y-32788947D01*
X37707313Y-32832404D01*
X37818966Y-32843401D01*
X37818976Y-32843401D01*
X37856298Y-32847077D01*
X37893621Y-32843401D01*
X38514979Y-32843401D01*
X38552301Y-32847077D01*
X38589623Y-32843401D01*
X38589634Y-32843401D01*
X38701287Y-32832404D01*
X38844548Y-32788947D01*
X38976577Y-32718375D01*
X39092302Y-32623402D01*
X39116105Y-32594399D01*
X39874094Y-31836410D01*
X41278300Y-31836410D01*
X41278300Y-31859739D01*
X41318074Y-32059698D01*
X41396095Y-32248056D01*
X41509363Y-32417574D01*
X41653526Y-32561737D01*
X41823044Y-32675005D01*
X42011402Y-32753026D01*
X42211361Y-32792800D01*
X42415239Y-32792800D01*
X42615198Y-32753026D01*
X42803556Y-32675005D01*
X42973074Y-32561737D01*
X43117237Y-32417574D01*
X43209461Y-32279551D01*
X43262768Y-32284801D01*
X43262778Y-32284801D01*
X43300101Y-32288477D01*
X43337424Y-32284801D01*
X56011928Y-32284801D01*
X56011928Y-32600000D01*
X56028992Y-32773254D01*
X56079528Y-32939850D01*
X56161595Y-33093386D01*
X56272038Y-33227962D01*
X56406614Y-33338405D01*
X56560150Y-33420472D01*
X56726746Y-33471008D01*
X56900000Y-33488072D01*
X58100000Y-33488072D01*
X58273254Y-33471008D01*
X58439850Y-33420472D01*
X58593386Y-33338405D01*
X58727962Y-33227962D01*
X58838405Y-33093386D01*
X58873142Y-33028397D01*
X59191208Y-33028397D01*
X59268843Y-33277472D01*
X59532883Y-33403371D01*
X59816411Y-33475339D01*
X60108531Y-33490611D01*
X60398019Y-33448599D01*
X60673747Y-33350919D01*
X60811157Y-33277472D01*
X60888792Y-33028397D01*
X60040000Y-32179605D01*
X59191208Y-33028397D01*
X58873142Y-33028397D01*
X58920472Y-32939850D01*
X58953580Y-32830707D01*
X59011603Y-32848792D01*
X59860395Y-32000000D01*
X59846253Y-31985858D01*
X60025858Y-31806253D01*
X60040000Y-31820395D01*
X60054143Y-31806253D01*
X60233748Y-31985858D01*
G37*
G04 #@! TD.AperFunction*
M02*
