M48
; DRILL file {KiCad (5.1.10)-1} date 10/24/21 19:11:08
; FORMAT={-:-/ absolute / metric / decimal}
; #@! TF.CreationDate,2021-10-24T19:11:08-07:00
; #@! TF.GenerationSoftware,Kicad,Pcbnew,(5.1.10)-1
; #@! TF.FileFunction,Plated,1,2,PTH
FMAT,2
METRIC
T1C0.400
T2C0.762
%
G90
G05
T1
X107.2Y-56.56
X122.57Y-57.67
X123.68Y-57.62
X124.68Y-57.62
X136.67Y-57.67
X137.69Y-56.86
X138.75Y-56.0
X139.67Y-55.08
X140.73Y-54.17
X145.44Y-60.59
X159.28Y-60.37
T2
X100.904Y-63.015
X103.444Y-63.015
X105.984Y-63.015
X108.524Y-63.015
X111.064Y-63.015
X113.604Y-63.015
X116.144Y-63.015
X118.684Y-63.015
X121.224Y-63.015
X123.764Y-63.015
X126.304Y-63.015
X128.844Y-63.015
X131.384Y-63.015
X133.924Y-63.015
X136.464Y-63.015
X139.004Y-63.015
X141.544Y-63.015
X144.084Y-63.015
X146.624Y-63.015
X149.164Y-63.015
X151.704Y-63.015
X154.244Y-63.015
X156.784Y-63.015
X159.324Y-63.015
T0
M30
