M48
; DRILL file {KiCad (5.1.10)-1} date 10/24/21 19:20:29
; FORMAT={-:-/ absolute / metric / decimal}
; #@! TF.CreationDate,2021-10-24T19:20:29-07:00
; #@! TF.GenerationSoftware,Kicad,Pcbnew,(5.1.10)-1
; #@! TF.FileFunction,Plated,1,2,PTH
FMAT,2
METRIC
T1C0.400
T2C0.800
T3C0.900
T4C1.000
T5C1.020
T6C1.500
%
G90
G05
T1
X39.456Y-47.088
X39.71Y-36.674
X39.964Y-29.308
X41.996Y-27.784
X42.25Y-37.944
X44.282Y-60.296
X45.044Y-36.42
X53.172Y-38.198
X57.236Y-29.054
X59.268Y-36.42
X63.332Y-28.292
X69.682Y-28.546
X69.682Y-36.42
X72.222Y-102.46
X72.73Y-82.648
X74.254Y-29.562
X76.54Y-29.562
X78.826Y-25.244
X79.842Y-29.816
X85.176Y-45.818
X88.224Y-26.768
X90.256Y-50.644
X92.288Y-52.422
X95.59Y-54.2
X96.606Y-101.19
X96.86Y-48.104
X99.908Y-130.146
X107.528Y-28.546
X115.402Y-101.19
X120.228Y-48.104
X134.452Y-101.952
X146.898Y-47.088
X152.486Y-46.326
X153.502Y-101.952
X163.916Y-53.692
X167.726Y-79.854
X170.52Y-28.038
X172.552Y-101.952
X184.236Y-47.342
X195.92Y-28.546
X206.588Y-41.754
X207.096Y-26.768
X210.652Y-101.952
X210.652Y-112.62
X211.414Y-48.104
X212.43Y-37.944
X214.97Y-34.134
X217.002Y-126.082
X221.32Y-115.922
X229.956Y-102.206
X238.846Y-121.002
X247.482Y-28.292
X249.006Y-101.952
X251.292Y-30.578
X253.324Y-27.022
X257.134Y-121.002
X267.802Y-39.468
X268.056Y-101.698
X271.612Y-125.574
X272.12Y-63.852
X273.39Y-53.438
X274.406Y-38.452
X274.66Y-34.134
X276.946Y-120.494
X277.962Y-36.42
X278.216Y-65.376
X278.978Y-86.458
X279.486Y-52.676
X279.74Y-31.086
X282.534Y-38.198
X284.82Y-52.676
X286.598Y-101.444
X286.852Y-29.562
X300.822Y-83.156
X301.076Y-52.422
X304.505Y-45.945
X305.648Y-103.73
X307.172Y-29.308
X309.712Y-52.93
X309.966Y-48.358
X310.22Y-130.908
X310.474Y-62.582
X311.236Y-55.216
X311.236Y-121.002
X311.49Y-44.802
X313.395Y-42.77
X313.395Y-44.04
X313.776Y-121.002
X314.284Y-54.708
X317.205Y-54.835
X317.586Y-33.626
X317.586Y-48.358
X319.11Y-43.278
X320.634Y-75.028
X321.396Y-54.454
X321.904Y-47.85
X324.698Y-48.866
X324.825Y-42.135
X324.825Y-61.185
X324.952Y-105.762
X326.095Y-68.17
X327.365Y-40.865
X328.0Y-55.47
X329.016Y-40.23
X330.794Y-39.468
X331.556Y-43.532
X332.572Y-38.706
X334.35Y-37.944
X335.366Y-44.802
X336.128Y-37.182
X337.906Y-36.42
X338.16Y-40.738
X339.684Y-35.658
T2
X37.22Y-60.425
X37.22Y-68.045
T3
X29.36Y-143.2
X31.9Y-143.2
T4
X38.44Y-25.5
X40.98Y-25.5
X43.52Y-25.5
X46.06Y-25.5
X48.6Y-25.5
X51.14Y-25.5
X53.68Y-25.5
X56.22Y-25.5
X58.76Y-25.5
X61.3Y-25.5
X63.84Y-25.5
X66.38Y-25.5
X68.92Y-25.5
X71.46Y-25.5
X270.9Y-45.82
X270.9Y-48.36
X273.44Y-45.82
X273.44Y-48.36
X275.98Y-45.82
X275.98Y-48.36
X278.52Y-45.82
X278.52Y-48.36
X281.06Y-45.82
X281.06Y-48.36
X283.6Y-45.82
X283.6Y-48.36
X286.14Y-45.82
X286.14Y-48.36
X288.68Y-45.82
X288.68Y-48.36
X291.22Y-45.82
X291.22Y-48.36
X293.76Y-45.82
X293.76Y-48.36
X296.3Y-45.82
X296.3Y-48.36
X298.84Y-45.82
X298.84Y-48.36
T5
X39.71Y-33.245
X39.71Y-51.025
X39.94Y-39.595
X39.94Y-42.135
X39.94Y-44.675
X42.25Y-33.245
X42.25Y-51.025
X44.79Y-33.245
X44.79Y-51.025
X47.33Y-33.245
X47.33Y-51.025
X49.87Y-33.245
X49.87Y-51.025
X52.41Y-33.245
X52.41Y-51.025
X54.95Y-33.245
X54.95Y-51.025
X57.49Y-33.245
X57.49Y-51.025
X60.03Y-33.245
X60.03Y-51.025
X62.57Y-33.245
X62.57Y-51.025
X65.11Y-33.245
X65.11Y-51.025
X67.65Y-33.245
X67.65Y-51.025
X70.19Y-33.245
X70.19Y-51.025
X72.73Y-33.245
X72.73Y-51.025
X75.27Y-33.245
X75.27Y-51.025
X77.81Y-33.245
X77.81Y-51.025
X80.35Y-33.245
X80.35Y-51.025
X82.89Y-33.245
X82.89Y-51.025
X85.43Y-33.245
X85.43Y-51.025
X87.97Y-33.245
X87.97Y-51.025
T6
X49.95Y-61.52
X54.71Y-80.62
X56.3Y-58.98
X56.99Y-99.69
X61.06Y-78.08
X61.8Y-118.79
X63.34Y-97.15
X68.15Y-116.25
X68.95Y-61.52
X75.3Y-58.98
X78.41Y-80.62
X83.19Y-99.69
X84.76Y-78.08
X87.95Y-61.52
X89.54Y-97.15
X92.65Y-118.79
X93.05Y-30.07
X94.3Y-58.98
X97.41Y-80.62
X99.0Y-116.25
X99.4Y-27.53
X102.19Y-99.69
X103.76Y-78.08
X106.95Y-61.52
X108.54Y-97.15
X111.65Y-118.79
X113.3Y-58.98
X116.41Y-80.62
X118.0Y-116.25
X121.19Y-99.69
X121.625Y-30.07
X122.76Y-78.08
X125.95Y-61.52
X127.54Y-97.15
X127.975Y-27.53
X130.65Y-118.79
X132.3Y-58.98
X135.41Y-80.62
X137.0Y-116.25
X140.19Y-99.69
X141.76Y-78.08
X144.95Y-61.52
X146.54Y-97.15
X149.65Y-118.79
X150.2Y-30.07
X151.3Y-58.98
X154.41Y-80.62
X156.0Y-116.25
X156.55Y-27.53
X159.19Y-99.69
X160.76Y-78.08
X163.95Y-61.52
X165.54Y-97.15
X168.65Y-118.79
X170.3Y-58.98
X173.41Y-80.62
X175.0Y-116.25
X178.19Y-99.69
X178.775Y-30.07
X179.76Y-78.08
X182.95Y-61.52
X183.05Y-137.84
X184.54Y-97.15
X185.125Y-27.53
X187.65Y-118.79
X189.3Y-58.98
X189.4Y-135.3
X192.41Y-80.62
X194.0Y-116.25
X197.19Y-99.69
X198.76Y-78.08
X201.95Y-61.52
X203.54Y-97.15
X206.65Y-118.79
X207.35Y-30.07
X208.3Y-58.98
X211.41Y-80.62
X213.0Y-116.25
X213.7Y-27.53
X216.19Y-99.69
X217.76Y-78.08
X220.95Y-61.52
X222.54Y-97.15
X225.65Y-118.79
X227.3Y-58.98
X230.41Y-80.62
X232.0Y-116.25
X235.19Y-99.69
X235.85Y-30.07
X236.76Y-78.08
X239.95Y-61.52
X241.54Y-97.15
X242.2Y-27.53
X244.65Y-118.79
X246.3Y-58.98
X249.41Y-80.62
X251.0Y-116.25
X254.19Y-99.69
X255.76Y-78.08
X258.95Y-61.52
X260.54Y-97.15
X263.65Y-118.79
X264.35Y-30.07
X265.3Y-58.98
X268.41Y-80.62
X270.0Y-116.25
X270.7Y-27.53
X273.19Y-99.69
X274.76Y-78.08
X277.95Y-61.52
X279.54Y-97.15
X284.3Y-58.98
X287.41Y-80.62
X289.775Y-118.79
X292.19Y-99.69
X292.85Y-30.07
X293.76Y-78.08
X296.125Y-116.25
X296.95Y-61.52
X298.54Y-97.15
X299.2Y-27.53
X303.3Y-58.98
X311.21Y-80.62
X313.59Y-99.69
X315.95Y-61.52
X315.95Y-118.79
X317.56Y-78.08
X319.94Y-97.15
X321.35Y-30.07
X322.3Y-58.98
X322.3Y-116.25
X327.7Y-27.53
T0
M30
