M48
; DRILL file {KiCad (5.1.10)-1} date 07/11/21 17:05:39
; FORMAT={-:-/ absolute / metric / decimal}
; #@! TF.CreationDate,2021-07-11T17:05:39-07:00
; #@! TF.GenerationSoftware,Kicad,Pcbnew,(5.1.10)-1
; #@! TF.FileFunction,NonPlated,1,2,NPTH
FMAT,2
METRIC
T1C3.200
T2C4.000
%
G90
G05
T1
X37.22Y-52.17
X37.22Y-139.8
X185.81Y-44.55
X336.94Y-40.74
X336.94Y-139.8
T2
X53.76Y-64.06
X58.52Y-83.16
X60.8Y-102.23
X65.61Y-121.33
X72.76Y-64.06
X82.22Y-83.16
X87.0Y-102.23
X91.76Y-64.06
X96.46Y-121.33
X101.22Y-83.16
X106.0Y-102.23
X110.76Y-64.06
X115.46Y-121.33
X120.22Y-83.16
X125.0Y-102.23
X129.76Y-64.06
X134.46Y-121.33
X139.22Y-83.16
X144.0Y-102.23
X148.76Y-64.06
X153.46Y-121.33
X158.22Y-83.16
X163.0Y-102.23
X167.76Y-64.06
X172.46Y-121.33
X177.22Y-83.16
X182.0Y-102.23
X186.76Y-64.06
X186.86Y-140.38
X191.46Y-121.33
X196.22Y-83.16
X201.0Y-102.23
X205.76Y-64.06
X210.46Y-121.33
X211.16Y-32.61
X215.22Y-83.16
X220.0Y-102.23
X224.76Y-64.06
X229.46Y-121.33
X234.22Y-83.16
X239.0Y-102.23
X239.66Y-32.61
X243.76Y-64.06
X248.46Y-121.33
X253.22Y-83.16
X258.0Y-102.23
X262.76Y-64.06
X267.46Y-121.33
X268.16Y-32.61
X272.22Y-83.16
X277.0Y-102.23
X281.76Y-64.06
X291.22Y-83.16
X293.585Y-121.33
X296.0Y-102.23
X296.66Y-32.61
X300.76Y-64.06
X315.02Y-83.16
X317.4Y-102.23
X319.76Y-64.06
X319.76Y-121.33
X325.16Y-32.61
T0
M30
