G04 #@! TF.GenerationSoftware,KiCad,Pcbnew,(5.1.10)-1*
G04 #@! TF.CreationDate,2021-11-02T18:04:13-07:00*
G04 #@! TF.ProjectId,Atari130MX,41746172-6931-4333-904d-582e6b696361,D*
G04 #@! TF.SameCoordinates,Original*
G04 #@! TF.FileFunction,Profile,NP*
%FSLAX46Y46*%
G04 Gerber Fmt 4.6, Leading zero omitted, Abs format (unit mm)*
G04 Created by KiCad (PCBNEW (5.1.10)-1) date 2021-11-02 18:04:13*
%MOMM*%
%LPD*%
G01*
G04 APERTURE LIST*
G04 #@! TA.AperFunction,Profile*
%ADD10C,0.050000*%
G04 #@! TD*
G04 APERTURE END LIST*
D10*
X325000000Y-152160000D02*
X349060000Y-152160000D01*
X322000000Y-149160000D02*
G75*
G03*
X325000000Y-152160000I3000000J0D01*
G01*
X300100000Y-147060000D02*
X300100000Y-149160000D01*
X322000000Y-147060000D02*
X322000000Y-149160000D01*
X300100000Y-147060000D02*
X322000000Y-147060000D01*
X300100000Y-149160000D02*
G75*
G02*
X297100000Y-152160000I-3000000J0D01*
G01*
X75760000Y-152160000D02*
X297100000Y-152160000D01*
X72760000Y-147060000D02*
X72760000Y-149160000D01*
X72760000Y-149160000D02*
G75*
G03*
X75760000Y-152160000I3000000J0D01*
G01*
X50860000Y-147060000D02*
X72760000Y-147060000D01*
X50860000Y-147060000D02*
X50860000Y-149160000D01*
X50860000Y-149160000D02*
G75*
G02*
X47860000Y-152160000I-3000000J0D01*
G01*
X25860000Y-152160000D02*
X47860000Y-152160000D01*
X352060000Y-149160000D02*
G75*
G02*
X349060000Y-152160000I-3000000J0D01*
G01*
X349060000Y-22860000D02*
G75*
G02*
X352060000Y-25860000I0J-3000000D01*
G01*
X25860000Y-152160000D02*
G75*
G02*
X22860000Y-149160000I0J3000000D01*
G01*
X22860000Y-25860000D02*
G75*
G02*
X25860000Y-22860000I3000000J0D01*
G01*
X352060000Y-25860000D02*
X352060000Y-149160000D01*
X25860000Y-22860000D02*
X349060000Y-22860000D01*
X22860000Y-25860000D02*
X22860000Y-149160000D01*
M02*
