M48
; DRILL file {KiCad (5.1.10)-1} date 09/25/21 20:55:39
; FORMAT={-:-/ absolute / metric / decimal}
; #@! TF.CreationDate,2021-09-25T20:55:39-07:00
; #@! TF.GenerationSoftware,Kicad,Pcbnew,(5.1.10)-1
; #@! TF.FileFunction,Plated,1,2,PTH
FMAT,2
METRIC
T1C0.400
T2C0.762
T3C1.000
%
G90
G05
T1
X21.0Y-33.0
X25.0Y-35.0
X26.136Y-29.79
X26.87Y-34.653
X28.254Y-29.911
X28.749Y-31.372
X29.733Y-34.204
X31.235Y-34.054
X31.483Y-30.391
X33.194Y-31.724
X34.5Y-36.0
X38.204Y-31.358
X42.145Y-35.355
X42.313Y-31.758
X42.892Y-34.612
X43.65Y-30.8
X43.771Y-34.031
X45.5Y-35.895
X49.742Y-36.288
X51.414Y-36.629
X51.5Y-33.5
X81.582Y-26.634
X87.204Y-30.446
T2
X25.4Y-39.116
X27.94Y-39.116
X30.48Y-39.116
X33.02Y-39.116
X35.56Y-39.116
X38.1Y-39.116
X40.64Y-39.116
X43.18Y-39.116
X45.72Y-39.116
X48.26Y-39.116
X50.8Y-39.116
X53.34Y-39.116
X55.88Y-39.116
X58.42Y-39.116
X60.96Y-39.116
X63.5Y-39.116
X66.04Y-39.116
X68.58Y-39.116
X71.12Y-39.116
X73.66Y-39.116
X76.2Y-39.116
X78.74Y-39.116
X81.28Y-39.116
X83.82Y-39.116
T3
X57.5Y-29.46
X57.5Y-32.0
X60.04Y-29.46
X60.04Y-32.0
X62.58Y-29.46
X62.58Y-32.0
X65.12Y-29.46
X65.12Y-32.0
X67.66Y-29.46
X67.66Y-32.0
X70.2Y-29.46
X70.2Y-32.0
X72.74Y-29.46
X72.74Y-32.0
X75.28Y-29.46
X75.28Y-32.0
X77.82Y-29.46
X77.82Y-32.0
X80.36Y-29.46
X80.36Y-32.0
X82.9Y-29.46
X82.9Y-32.0
X85.44Y-29.46
X85.44Y-32.0
T0
M30
