M48
; DRILL file {KiCad (7.0.0)} date Fri Mar 31 21:54:39 2023
; FORMAT={-:-/ absolute / metric / decimal}
; #@! TF.CreationDate,2023-03-31T21:54:39-07:00
; #@! TF.GenerationSoftware,Kicad,Pcbnew,(7.0.0)
; #@! TF.FileFunction,Plated,1,2,PTH
FMAT,2
METRIC
; #@! TA.AperFunction,Plated,PTH,ViaDrill
T1C0.400
; #@! TA.AperFunction,Plated,PTH,ComponentDrill
T2C0.762
; #@! TA.AperFunction,Plated,PTH,ComponentDrill
T3C1.000
%
G90
G05
T1
X67.488Y-61.595
X69.063Y-62.433
X71.095Y-62.535
X73.101Y-62.484
X75.082Y-62.459
X77.089Y-62.459
X79.07Y-62.484
X81.102Y-62.509
X83.109Y-62.459
X85.065Y-62.459
X87.097Y-62.459
X89.865Y-61.112
X90.388Y-62.141
X92.227Y-62.001
T2
X100.889Y-63.043
X103.429Y-63.043
X105.969Y-63.043
X108.509Y-63.043
X111.049Y-63.043
X113.589Y-63.043
X116.129Y-63.043
X118.669Y-63.043
X121.209Y-63.043
X123.749Y-63.043
X126.289Y-63.043
X128.829Y-63.043
X131.369Y-63.043
X133.909Y-63.043
X136.449Y-63.043
X138.989Y-63.043
X141.529Y-63.043
X144.069Y-63.043
X146.609Y-63.043
X149.149Y-63.043
X151.689Y-63.043
X154.229Y-63.043
X156.769Y-63.043
X159.309Y-63.043
T3
X55.247Y-60.975
X60.247Y-58.475
X60.247Y-63.475
T0
M30
