M48
; DRILL file {KiCad (6.0.1)} date Mon Sep 12 22:19:58 2022
; FORMAT={-:-/ absolute / metric / decimal}
; #@! TF.CreationDate,2022-09-12T22:19:58-07:00
; #@! TF.GenerationSoftware,Kicad,Pcbnew,(6.0.1)
; #@! TF.FileFunction,NonPlated,1,2,NPTH
FMAT,2
METRIC
; #@! TA.AperFunction,NonPlated,NPTH,ComponentDrill
T1C3.050
; #@! TA.AperFunction,NonPlated,NPTH,ComponentDrill
T2C3.200
; #@! TA.AperFunction,NonPlated,NPTH,ComponentDrill
T3C4.000
%
G90
G05
T1
X53.778Y-114.304
X77.578Y-114.304
X137.122Y-133.354
X237.122Y-133.354
X296.665Y-95.254
X299.034Y-56.916
X320.465Y-95.254
X322.834Y-56.916
T2
X37.22Y-139.8
X185.81Y-44.55
X336.94Y-40.74
X336.94Y-139.8
T3
X53.76Y-64.06
X53.778Y-129.544
X58.528Y-83.135
X60.909Y-102.23
X65.672Y-121.21
X72.815Y-64.06
X77.578Y-129.544
X82.34Y-83.11
X87.103Y-102.23
X91.865Y-64.06
X96.628Y-121.21
X96.86Y-32.61
X101.39Y-83.11
X106.153Y-102.23
X110.915Y-64.06
X114.487Y-140.26
X115.678Y-121.21
X120.44Y-83.11
X125.203Y-102.23
X125.435Y-32.61
X129.965Y-64.06
X134.728Y-121.21
X137.122Y-148.594
X139.49Y-83.11
X144.253Y-102.23
X149.015Y-64.06
X153.778Y-121.21
X154.01Y-32.61
X158.54Y-83.11
X163.303Y-102.23
X168.065Y-64.06
X172.828Y-121.21
X177.59Y-83.11
X182.353Y-102.23
X182.585Y-32.61
X187.115Y-64.06
X187.115Y-140.26
X191.878Y-121.21
X196.64Y-83.11
X201.403Y-102.23
X206.165Y-64.06
X210.928Y-121.21
X211.16Y-32.61
X215.69Y-83.11
X220.453Y-102.23
X225.215Y-64.06
X229.978Y-121.21
X234.74Y-83.11
X237.122Y-148.594
X239.503Y-102.23
X239.66Y-32.61
X244.265Y-64.06
X249.028Y-121.21
X253.79Y-83.11
X258.553Y-102.16
X259.743Y-140.26
X263.315Y-64.06
X268.078Y-121.21
X268.16Y-32.61
X272.84Y-83.11
X277.603Y-102.16
X282.365Y-64.06
X287.128Y-121.21
X291.89Y-83.11
X296.66Y-32.61
X296.665Y-110.494
X299.034Y-72.156
X308.559Y-102.16
X310.94Y-64.06
X313.322Y-121.21
X315.703Y-83.11
X320.465Y-110.494
X322.834Y-72.156
X325.16Y-32.61
T0
M30
