%FSLAX45Y45*%
G04 Gerber Fmt 4.5, Leading zero omitted, Abs format (unit mm)*
G04 Created by KiCad (PCBNEW (5.1.10)-1) date 2021-07-11 17:05:41*
%MOMM*%
%LPD*%
G01*
G04 APERTURE LIST*
%TA.AperFunction,Profile*%
%ADD10C,0.050000*%
%TD*%
%ADD11C,0.200000*%
%ADD12C,0.300000*%
G04 APERTURE END LIST*
D10*
X32500000Y-15016000D02*
X34806000Y-15016000D01*
X32200000Y-14716000D02*
G75*
G03*
X32500000Y-15016000I300000J0D01*
G01*
X30010000Y-14506000D02*
X30010000Y-14716000D01*
X32200000Y-14506000D02*
X32200000Y-14716000D01*
X30010000Y-14506000D02*
X32200000Y-14506000D01*
X30010000Y-14716000D02*
G75*
G02*
X29710000Y-15016000I-300000J0D01*
G01*
X7576000Y-15016000D02*
X29710000Y-15016000D01*
X7276000Y-14506000D02*
X7276000Y-14716000D01*
X7276000Y-14716000D02*
G75*
G03*
X7576000Y-15016000I300000J0D01*
G01*
X5086000Y-14506000D02*
X7276000Y-14506000D01*
X5086000Y-14506000D02*
X5086000Y-14716000D01*
X5086000Y-14716000D02*
G75*
G02*
X4786000Y-15016000I-300000J0D01*
G01*
X2586000Y-15016000D02*
X4786000Y-15016000D01*
X35106000Y-14716000D02*
G75*
G02*
X34806000Y-15016000I-300000J0D01*
G01*
X34806000Y-2286000D02*
G75*
G02*
X35106000Y-2586000I0J-300000D01*
G01*
X2586000Y-15016000D02*
G75*
G02*
X2286000Y-14716000I0J300000D01*
G01*
X2286000Y-2586000D02*
G75*
G02*
X2586000Y-2286000I300000J0D01*
G01*
X35106000Y-2586000D02*
X35106000Y-14716000D01*
X2586000Y-2286000D02*
X34806000Y-2286000D01*
X2286000Y-2586000D02*
X2286000Y-14716000D01*
D11*
X2891000Y-14275000D02*
X2981000Y-14365000D01*
X2981000Y-14275000D02*
X2891000Y-14365000D01*
X3145000Y-14275000D02*
X3235000Y-14365000D01*
X3235000Y-14275000D02*
X3145000Y-14365000D01*
X27775000Y-4845000D02*
G75*
G03*
X27775000Y-4845000I-50000J0D01*
G01*
X28029000Y-4845000D02*
G75*
G03*
X28029000Y-4845000I-50000J0D01*
G01*
X28283000Y-4845000D02*
G75*
G03*
X28283000Y-4845000I-50000J0D01*
G01*
X28537000Y-4845000D02*
G75*
G03*
X28537000Y-4845000I-50000J0D01*
G01*
X28791000Y-4845000D02*
G75*
G03*
X28791000Y-4845000I-50000J0D01*
G01*
X29045000Y-4845000D02*
G75*
G03*
X29045000Y-4845000I-50000J0D01*
G01*
X29299000Y-4845000D02*
G75*
G03*
X29299000Y-4845000I-50000J0D01*
G01*
X29553000Y-4845000D02*
G75*
G03*
X29553000Y-4845000I-50000J0D01*
G01*
X29807000Y-4845000D02*
G75*
G03*
X29807000Y-4845000I-50000J0D01*
G01*
X30061000Y-4845000D02*
G75*
G03*
X30061000Y-4845000I-50000J0D01*
G01*
X30315000Y-4845000D02*
G75*
G03*
X30315000Y-4845000I-50000J0D01*
G01*
X30569000Y-4845000D02*
G75*
G03*
X30569000Y-4845000I-50000J0D01*
G01*
X30823000Y-4845000D02*
G75*
G03*
X30823000Y-4845000I-50000J0D01*
G01*
X31077000Y-4845000D02*
G75*
G03*
X31077000Y-4845000I-50000J0D01*
G01*
X31331000Y-4845000D02*
G75*
G03*
X31331000Y-4845000I-50000J0D01*
G01*
X31585000Y-4845000D02*
G75*
G03*
X31585000Y-4845000I-50000J0D01*
G01*
X31839000Y-4845000D02*
G75*
G03*
X31839000Y-4845000I-50000J0D01*
G01*
X32093000Y-4845000D02*
G75*
G03*
X32093000Y-4845000I-50000J0D01*
G01*
X32347000Y-4845000D02*
G75*
G03*
X32347000Y-4845000I-50000J0D01*
G01*
X32601000Y-4845000D02*
G75*
G03*
X32601000Y-4845000I-50000J0D01*
G01*
X32855000Y-4845000D02*
G75*
G03*
X32855000Y-4845000I-50000J0D01*
G01*
X33109000Y-4845000D02*
G75*
G03*
X33109000Y-4845000I-50000J0D01*
G01*
X33363000Y-4845000D02*
G75*
G03*
X33363000Y-4845000I-50000J0D01*
G01*
X33617000Y-4845000D02*
G75*
G03*
X33617000Y-4845000I-50000J0D01*
G01*
X4995000Y-6077000D02*
X4995000Y-6227000D01*
X4920000Y-6152000D02*
X5070000Y-6152000D01*
X5471000Y-7987000D02*
X5471000Y-8137000D01*
X5396000Y-8062000D02*
X5546000Y-8062000D01*
X5630000Y-5823000D02*
X5630000Y-5973000D01*
X5555000Y-5898000D02*
X5705000Y-5898000D01*
X5699000Y-9894000D02*
X5699000Y-10044000D01*
X5624000Y-9969000D02*
X5774000Y-9969000D01*
X6106000Y-7733000D02*
X6106000Y-7883000D01*
X6031000Y-7808000D02*
X6181000Y-7808000D01*
X6180000Y-11804000D02*
X6180000Y-11954000D01*
X6105000Y-11879000D02*
X6255000Y-11879000D01*
X6334000Y-9640000D02*
X6334000Y-9790000D01*
X6259000Y-9715000D02*
X6409000Y-9715000D01*
X6815000Y-11550000D02*
X6815000Y-11700000D01*
X6740000Y-11625000D02*
X6890000Y-11625000D01*
X6895000Y-6077000D02*
X6895000Y-6227000D01*
X6820000Y-6152000D02*
X6970000Y-6152000D01*
X7530000Y-5823000D02*
X7530000Y-5973000D01*
X7455000Y-5898000D02*
X7605000Y-5898000D01*
X7841000Y-7987000D02*
X7841000Y-8137000D01*
X7766000Y-8062000D02*
X7916000Y-8062000D01*
X8319000Y-9894000D02*
X8319000Y-10044000D01*
X8244000Y-9969000D02*
X8394000Y-9969000D01*
X8476000Y-7733000D02*
X8476000Y-7883000D01*
X8401000Y-7808000D02*
X8551000Y-7808000D01*
X8795000Y-6077000D02*
X8795000Y-6227000D01*
X8720000Y-6152000D02*
X8870000Y-6152000D01*
X8954000Y-9640000D02*
X8954000Y-9790000D01*
X8879000Y-9715000D02*
X9029000Y-9715000D01*
X9265000Y-11804000D02*
X9265000Y-11954000D01*
X9190000Y-11879000D02*
X9340000Y-11879000D01*
X9430000Y-5823000D02*
X9430000Y-5973000D01*
X9355000Y-5898000D02*
X9505000Y-5898000D01*
X9741000Y-7987000D02*
X9741000Y-8137000D01*
X9666000Y-8062000D02*
X9816000Y-8062000D01*
X9900000Y-11550000D02*
X9900000Y-11700000D01*
X9825000Y-11625000D02*
X9975000Y-11625000D01*
X10219000Y-9894000D02*
X10219000Y-10044000D01*
X10144000Y-9969000D02*
X10294000Y-9969000D01*
X10376000Y-7733000D02*
X10376000Y-7883000D01*
X10301000Y-7808000D02*
X10451000Y-7808000D01*
X10695000Y-6077000D02*
X10695000Y-6227000D01*
X10620000Y-6152000D02*
X10770000Y-6152000D01*
X10854000Y-9640000D02*
X10854000Y-9790000D01*
X10779000Y-9715000D02*
X10929000Y-9715000D01*
X11165000Y-11804000D02*
X11165000Y-11954000D01*
X11090000Y-11879000D02*
X11240000Y-11879000D01*
X11330000Y-5823000D02*
X11330000Y-5973000D01*
X11255000Y-5898000D02*
X11405000Y-5898000D01*
X11641000Y-7987000D02*
X11641000Y-8137000D01*
X11566000Y-8062000D02*
X11716000Y-8062000D01*
X11800000Y-11550000D02*
X11800000Y-11700000D01*
X11725000Y-11625000D02*
X11875000Y-11625000D01*
X12119000Y-9894000D02*
X12119000Y-10044000D01*
X12044000Y-9969000D02*
X12194000Y-9969000D01*
X12276000Y-7733000D02*
X12276000Y-7883000D01*
X12201000Y-7808000D02*
X12351000Y-7808000D01*
X12595000Y-6077000D02*
X12595000Y-6227000D01*
X12520000Y-6152000D02*
X12670000Y-6152000D01*
X12754000Y-9640000D02*
X12754000Y-9790000D01*
X12679000Y-9715000D02*
X12829000Y-9715000D01*
X13065000Y-11804000D02*
X13065000Y-11954000D01*
X12990000Y-11879000D02*
X13140000Y-11879000D01*
X13230000Y-5823000D02*
X13230000Y-5973000D01*
X13155000Y-5898000D02*
X13305000Y-5898000D01*
X13541000Y-7987000D02*
X13541000Y-8137000D01*
X13466000Y-8062000D02*
X13616000Y-8062000D01*
X13700000Y-11550000D02*
X13700000Y-11700000D01*
X13625000Y-11625000D02*
X13775000Y-11625000D01*
X14019000Y-9894000D02*
X14019000Y-10044000D01*
X13944000Y-9969000D02*
X14094000Y-9969000D01*
X14176000Y-7733000D02*
X14176000Y-7883000D01*
X14101000Y-7808000D02*
X14251000Y-7808000D01*
X14495000Y-6077000D02*
X14495000Y-6227000D01*
X14420000Y-6152000D02*
X14570000Y-6152000D01*
X14654000Y-9640000D02*
X14654000Y-9790000D01*
X14579000Y-9715000D02*
X14729000Y-9715000D01*
X14965000Y-11804000D02*
X14965000Y-11954000D01*
X14890000Y-11879000D02*
X15040000Y-11879000D01*
X15130000Y-5823000D02*
X15130000Y-5973000D01*
X15055000Y-5898000D02*
X15205000Y-5898000D01*
X15441000Y-7987000D02*
X15441000Y-8137000D01*
X15366000Y-8062000D02*
X15516000Y-8062000D01*
X15600000Y-11550000D02*
X15600000Y-11700000D01*
X15525000Y-11625000D02*
X15675000Y-11625000D01*
X15919000Y-9894000D02*
X15919000Y-10044000D01*
X15844000Y-9969000D02*
X15994000Y-9969000D01*
X16076000Y-7733000D02*
X16076000Y-7883000D01*
X16001000Y-7808000D02*
X16151000Y-7808000D01*
X16395000Y-6077000D02*
X16395000Y-6227000D01*
X16320000Y-6152000D02*
X16470000Y-6152000D01*
X16554000Y-9640000D02*
X16554000Y-9790000D01*
X16479000Y-9715000D02*
X16629000Y-9715000D01*
X16865000Y-11804000D02*
X16865000Y-11954000D01*
X16790000Y-11879000D02*
X16940000Y-11879000D01*
X17030000Y-5823000D02*
X17030000Y-5973000D01*
X16955000Y-5898000D02*
X17105000Y-5898000D01*
X17341000Y-7987000D02*
X17341000Y-8137000D01*
X17266000Y-8062000D02*
X17416000Y-8062000D01*
X17500000Y-11550000D02*
X17500000Y-11700000D01*
X17425000Y-11625000D02*
X17575000Y-11625000D01*
X17819000Y-9894000D02*
X17819000Y-10044000D01*
X17744000Y-9969000D02*
X17894000Y-9969000D01*
X17976000Y-7733000D02*
X17976000Y-7883000D01*
X17901000Y-7808000D02*
X18051000Y-7808000D01*
X18295000Y-6077000D02*
X18295000Y-6227000D01*
X18220000Y-6152000D02*
X18370000Y-6152000D01*
X18305000Y-13709000D02*
X18305000Y-13859000D01*
X18230000Y-13784000D02*
X18380000Y-13784000D01*
X18454000Y-9640000D02*
X18454000Y-9790000D01*
X18379000Y-9715000D02*
X18529000Y-9715000D01*
X18765000Y-11804000D02*
X18765000Y-11954000D01*
X18690000Y-11879000D02*
X18840000Y-11879000D01*
X18930000Y-5823000D02*
X18930000Y-5973000D01*
X18855000Y-5898000D02*
X19005000Y-5898000D01*
X18940000Y-13455000D02*
X18940000Y-13605000D01*
X18865000Y-13530000D02*
X19015000Y-13530000D01*
X19241000Y-7987000D02*
X19241000Y-8137000D01*
X19166000Y-8062000D02*
X19316000Y-8062000D01*
X19400000Y-11550000D02*
X19400000Y-11700000D01*
X19325000Y-11625000D02*
X19475000Y-11625000D01*
X19719000Y-9894000D02*
X19719000Y-10044000D01*
X19644000Y-9969000D02*
X19794000Y-9969000D01*
X19876000Y-7733000D02*
X19876000Y-7883000D01*
X19801000Y-7808000D02*
X19951000Y-7808000D01*
X20195000Y-6077000D02*
X20195000Y-6227000D01*
X20120000Y-6152000D02*
X20270000Y-6152000D01*
X20354000Y-9640000D02*
X20354000Y-9790000D01*
X20279000Y-9715000D02*
X20429000Y-9715000D01*
X20665000Y-11804000D02*
X20665000Y-11954000D01*
X20590000Y-11879000D02*
X20740000Y-11879000D01*
X20735000Y-2932000D02*
X20735000Y-3082000D01*
X20660000Y-3007000D02*
X20810000Y-3007000D01*
X20830000Y-5823000D02*
X20830000Y-5973000D01*
X20755000Y-5898000D02*
X20905000Y-5898000D01*
X21141000Y-7987000D02*
X21141000Y-8137000D01*
X21066000Y-8062000D02*
X21216000Y-8062000D01*
X21300000Y-11550000D02*
X21300000Y-11700000D01*
X21225000Y-11625000D02*
X21375000Y-11625000D01*
X21370000Y-2678000D02*
X21370000Y-2828000D01*
X21295000Y-2753000D02*
X21445000Y-2753000D01*
X21619000Y-9894000D02*
X21619000Y-10044000D01*
X21544000Y-9969000D02*
X21694000Y-9969000D01*
X21776000Y-7733000D02*
X21776000Y-7883000D01*
X21701000Y-7808000D02*
X21851000Y-7808000D01*
X22095000Y-6077000D02*
X22095000Y-6227000D01*
X22020000Y-6152000D02*
X22170000Y-6152000D01*
X22254000Y-9640000D02*
X22254000Y-9790000D01*
X22179000Y-9715000D02*
X22329000Y-9715000D01*
X22565000Y-11804000D02*
X22565000Y-11954000D01*
X22490000Y-11879000D02*
X22640000Y-11879000D01*
X22730000Y-5823000D02*
X22730000Y-5973000D01*
X22655000Y-5898000D02*
X22805000Y-5898000D01*
X23041000Y-7987000D02*
X23041000Y-8137000D01*
X22966000Y-8062000D02*
X23116000Y-8062000D01*
X23200000Y-11550000D02*
X23200000Y-11700000D01*
X23125000Y-11625000D02*
X23275000Y-11625000D01*
X23519000Y-9894000D02*
X23519000Y-10044000D01*
X23444000Y-9969000D02*
X23594000Y-9969000D01*
X23585000Y-2932000D02*
X23585000Y-3082000D01*
X23510000Y-3007000D02*
X23660000Y-3007000D01*
X23676000Y-7733000D02*
X23676000Y-7883000D01*
X23601000Y-7808000D02*
X23751000Y-7808000D01*
X23995000Y-6077000D02*
X23995000Y-6227000D01*
X23920000Y-6152000D02*
X24070000Y-6152000D01*
X24154000Y-9640000D02*
X24154000Y-9790000D01*
X24079000Y-9715000D02*
X24229000Y-9715000D01*
X24220000Y-2678000D02*
X24220000Y-2828000D01*
X24145000Y-2753000D02*
X24295000Y-2753000D01*
X24465000Y-11804000D02*
X24465000Y-11954000D01*
X24390000Y-11879000D02*
X24540000Y-11879000D01*
X24630000Y-5823000D02*
X24630000Y-5973000D01*
X24555000Y-5898000D02*
X24705000Y-5898000D01*
X24941000Y-7987000D02*
X24941000Y-8137000D01*
X24866000Y-8062000D02*
X25016000Y-8062000D01*
X25100000Y-11550000D02*
X25100000Y-11700000D01*
X25025000Y-11625000D02*
X25175000Y-11625000D01*
X25419000Y-9894000D02*
X25419000Y-10044000D01*
X25344000Y-9969000D02*
X25494000Y-9969000D01*
X25576000Y-7733000D02*
X25576000Y-7883000D01*
X25501000Y-7808000D02*
X25651000Y-7808000D01*
X25895000Y-6077000D02*
X25895000Y-6227000D01*
X25820000Y-6152000D02*
X25970000Y-6152000D01*
X26054000Y-9640000D02*
X26054000Y-9790000D01*
X25979000Y-9715000D02*
X26129000Y-9715000D01*
X26365000Y-11804000D02*
X26365000Y-11954000D01*
X26290000Y-11879000D02*
X26440000Y-11879000D01*
X26435000Y-2932000D02*
X26435000Y-3082000D01*
X26360000Y-3007000D02*
X26510000Y-3007000D01*
X26530000Y-5823000D02*
X26530000Y-5973000D01*
X26455000Y-5898000D02*
X26605000Y-5898000D01*
X26841000Y-7987000D02*
X26841000Y-8137000D01*
X26766000Y-8062000D02*
X26916000Y-8062000D01*
X27000000Y-11550000D02*
X27000000Y-11700000D01*
X26925000Y-11625000D02*
X27075000Y-11625000D01*
X27070000Y-2678000D02*
X27070000Y-2828000D01*
X26995000Y-2753000D02*
X27145000Y-2753000D01*
X27319000Y-9894000D02*
X27319000Y-10044000D01*
X27244000Y-9969000D02*
X27394000Y-9969000D01*
X27476000Y-7733000D02*
X27476000Y-7883000D01*
X27401000Y-7808000D02*
X27551000Y-7808000D01*
X27795000Y-6077000D02*
X27795000Y-6227000D01*
X27720000Y-6152000D02*
X27870000Y-6152000D01*
X27954000Y-9640000D02*
X27954000Y-9790000D01*
X27879000Y-9715000D02*
X28029000Y-9715000D01*
X28430000Y-5823000D02*
X28430000Y-5973000D01*
X28355000Y-5898000D02*
X28505000Y-5898000D01*
X28741000Y-7987000D02*
X28741000Y-8137000D01*
X28666000Y-8062000D02*
X28816000Y-8062000D01*
X28977500Y-11804000D02*
X28977500Y-11954000D01*
X28902500Y-11879000D02*
X29052500Y-11879000D01*
X29219000Y-9894000D02*
X29219000Y-10044000D01*
X29144000Y-9969000D02*
X29294000Y-9969000D01*
X29285000Y-2932000D02*
X29285000Y-3082000D01*
X29210000Y-3007000D02*
X29360000Y-3007000D01*
X29376000Y-7733000D02*
X29376000Y-7883000D01*
X29301000Y-7808000D02*
X29451000Y-7808000D01*
X29612500Y-11550000D02*
X29612500Y-11700000D01*
X29537500Y-11625000D02*
X29687500Y-11625000D01*
X29695000Y-6077000D02*
X29695000Y-6227000D01*
X29620000Y-6152000D02*
X29770000Y-6152000D01*
X29854000Y-9640000D02*
X29854000Y-9790000D01*
X29779000Y-9715000D02*
X29929000Y-9715000D01*
X29920000Y-2678000D02*
X29920000Y-2828000D01*
X29845000Y-2753000D02*
X29995000Y-2753000D01*
X30330000Y-5823000D02*
X30330000Y-5973000D01*
X30255000Y-5898000D02*
X30405000Y-5898000D01*
X31121000Y-7987000D02*
X31121000Y-8137000D01*
X31046000Y-8062000D02*
X31196000Y-8062000D01*
X31359000Y-9894000D02*
X31359000Y-10044000D01*
X31284000Y-9969000D02*
X31434000Y-9969000D01*
X31595000Y-6077000D02*
X31595000Y-6227000D01*
X31520000Y-6152000D02*
X31670000Y-6152000D01*
X31595000Y-11804000D02*
X31595000Y-11954000D01*
X31520000Y-11879000D02*
X31670000Y-11879000D01*
X31756000Y-7733000D02*
X31756000Y-7883000D01*
X31681000Y-7808000D02*
X31831000Y-7808000D01*
X31994000Y-9640000D02*
X31994000Y-9790000D01*
X31919000Y-9715000D02*
X32069000Y-9715000D01*
X32135000Y-2932000D02*
X32135000Y-3082000D01*
X32060000Y-3007000D02*
X32210000Y-3007000D01*
X32230000Y-5823000D02*
X32230000Y-5973000D01*
X32155000Y-5898000D02*
X32305000Y-5898000D01*
X32230000Y-11550000D02*
X32230000Y-11700000D01*
X32155000Y-11625000D02*
X32305000Y-11625000D01*
X32770000Y-2678000D02*
X32770000Y-2828000D01*
X32695000Y-2753000D02*
X32845000Y-2753000D01*
D12*
X2569928Y-15484214D02*
X2569928Y-15184214D01*
X2641357Y-15184214D01*
X2684214Y-15198500D01*
X2712786Y-15227071D01*
X2727071Y-15255643D01*
X2741357Y-15312786D01*
X2741357Y-15355643D01*
X2727071Y-15412786D01*
X2712786Y-15441357D01*
X2684214Y-15469929D01*
X2641357Y-15484214D01*
X2569928Y-15484214D01*
X2869928Y-15484214D02*
X2869928Y-15284214D01*
X2869928Y-15341357D02*
X2884214Y-15312786D01*
X2898500Y-15298500D01*
X2927071Y-15284214D01*
X2955643Y-15284214D01*
X3055643Y-15484214D02*
X3055643Y-15284214D01*
X3055643Y-15184214D02*
X3041357Y-15198500D01*
X3055643Y-15212786D01*
X3069928Y-15198500D01*
X3055643Y-15184214D01*
X3055643Y-15212786D01*
X3241357Y-15484214D02*
X3212786Y-15469929D01*
X3198500Y-15441357D01*
X3198500Y-15184214D01*
X3398500Y-15484214D02*
X3369928Y-15469929D01*
X3355643Y-15441357D01*
X3355643Y-15184214D01*
X3741357Y-15484214D02*
X3741357Y-15184214D01*
X3841357Y-15398500D01*
X3941357Y-15184214D01*
X3941357Y-15484214D01*
X4212786Y-15484214D02*
X4212786Y-15327071D01*
X4198500Y-15298500D01*
X4169928Y-15284214D01*
X4112786Y-15284214D01*
X4084214Y-15298500D01*
X4212786Y-15469929D02*
X4184214Y-15484214D01*
X4112786Y-15484214D01*
X4084214Y-15469929D01*
X4069928Y-15441357D01*
X4069928Y-15412786D01*
X4084214Y-15384214D01*
X4112786Y-15369929D01*
X4184214Y-15369929D01*
X4212786Y-15355643D01*
X4355643Y-15284214D02*
X4355643Y-15584214D01*
X4355643Y-15298500D02*
X4384214Y-15284214D01*
X4441357Y-15284214D01*
X4469928Y-15298500D01*
X4484214Y-15312786D01*
X4498500Y-15341357D01*
X4498500Y-15427071D01*
X4484214Y-15455643D01*
X4469928Y-15469929D01*
X4441357Y-15484214D01*
X4384214Y-15484214D01*
X4355643Y-15469929D01*
X4627071Y-15455643D02*
X4641357Y-15469929D01*
X4627071Y-15484214D01*
X4612786Y-15469929D01*
X4627071Y-15455643D01*
X4627071Y-15484214D01*
X4627071Y-15298500D02*
X4641357Y-15312786D01*
X4627071Y-15327071D01*
X4612786Y-15312786D01*
X4627071Y-15298500D01*
X4627071Y-15327071D01*
X2193500Y-15933500D02*
X2283500Y-16023500D01*
X2283500Y-15933500D02*
X2193500Y-16023500D01*
X2627071Y-15814214D02*
X2655643Y-15814214D01*
X2684214Y-15828500D01*
X2698500Y-15842786D01*
X2712786Y-15871357D01*
X2727071Y-15928500D01*
X2727071Y-15999929D01*
X2712786Y-16057071D01*
X2698500Y-16085643D01*
X2684214Y-16099929D01*
X2655643Y-16114214D01*
X2627071Y-16114214D01*
X2598500Y-16099929D01*
X2584214Y-16085643D01*
X2569928Y-16057071D01*
X2555643Y-15999929D01*
X2555643Y-15928500D01*
X2569928Y-15871357D01*
X2584214Y-15842786D01*
X2598500Y-15828500D01*
X2627071Y-15814214D01*
X2855643Y-16085643D02*
X2869928Y-16099929D01*
X2855643Y-16114214D01*
X2841357Y-16099929D01*
X2855643Y-16085643D01*
X2855643Y-16114214D01*
X3012786Y-16114214D02*
X3069928Y-16114214D01*
X3098500Y-16099929D01*
X3112786Y-16085643D01*
X3141357Y-16042786D01*
X3155643Y-15985643D01*
X3155643Y-15871357D01*
X3141357Y-15842786D01*
X3127071Y-15828500D01*
X3098500Y-15814214D01*
X3041357Y-15814214D01*
X3012786Y-15828500D01*
X2998500Y-15842786D01*
X2984214Y-15871357D01*
X2984214Y-15942786D01*
X2998500Y-15971357D01*
X3012786Y-15985643D01*
X3041357Y-15999929D01*
X3098500Y-15999929D01*
X3127071Y-15985643D01*
X3141357Y-15971357D01*
X3155643Y-15942786D01*
X3341357Y-15814214D02*
X3369928Y-15814214D01*
X3398500Y-15828500D01*
X3412786Y-15842786D01*
X3427071Y-15871357D01*
X3441357Y-15928500D01*
X3441357Y-15999929D01*
X3427071Y-16057071D01*
X3412786Y-16085643D01*
X3398500Y-16099929D01*
X3369928Y-16114214D01*
X3341357Y-16114214D01*
X3312786Y-16099929D01*
X3298500Y-16085643D01*
X3284214Y-16057071D01*
X3269928Y-15999929D01*
X3269928Y-15928500D01*
X3284214Y-15871357D01*
X3298500Y-15842786D01*
X3312786Y-15828500D01*
X3341357Y-15814214D01*
X3627071Y-15814214D02*
X3655643Y-15814214D01*
X3684214Y-15828500D01*
X3698500Y-15842786D01*
X3712786Y-15871357D01*
X3727071Y-15928500D01*
X3727071Y-15999929D01*
X3712786Y-16057071D01*
X3698500Y-16085643D01*
X3684214Y-16099929D01*
X3655643Y-16114214D01*
X3627071Y-16114214D01*
X3598500Y-16099929D01*
X3584214Y-16085643D01*
X3569928Y-16057071D01*
X3555643Y-15999929D01*
X3555643Y-15928500D01*
X3569928Y-15871357D01*
X3584214Y-15842786D01*
X3598500Y-15828500D01*
X3627071Y-15814214D01*
X3855643Y-16114214D02*
X3855643Y-15914214D01*
X3855643Y-15942786D02*
X3869928Y-15928500D01*
X3898500Y-15914214D01*
X3941357Y-15914214D01*
X3969928Y-15928500D01*
X3984214Y-15957071D01*
X3984214Y-16114214D01*
X3984214Y-15957071D02*
X3998500Y-15928500D01*
X4027071Y-15914214D01*
X4069928Y-15914214D01*
X4098500Y-15928500D01*
X4112786Y-15957071D01*
X4112786Y-16114214D01*
X4255643Y-16114214D02*
X4255643Y-15914214D01*
X4255643Y-15942786D02*
X4269928Y-15928500D01*
X4298500Y-15914214D01*
X4341357Y-15914214D01*
X4369928Y-15928500D01*
X4384214Y-15957071D01*
X4384214Y-16114214D01*
X4384214Y-15957071D02*
X4398500Y-15928500D01*
X4427071Y-15914214D01*
X4469928Y-15914214D01*
X4498500Y-15928500D01*
X4512786Y-15957071D01*
X4512786Y-16114214D01*
X5098500Y-15799929D02*
X4841357Y-16185643D01*
X5484214Y-15814214D02*
X5512786Y-15814214D01*
X5541357Y-15828500D01*
X5555643Y-15842786D01*
X5569928Y-15871357D01*
X5584214Y-15928500D01*
X5584214Y-15999929D01*
X5569928Y-16057071D01*
X5555643Y-16085643D01*
X5541357Y-16099929D01*
X5512786Y-16114214D01*
X5484214Y-16114214D01*
X5455643Y-16099929D01*
X5441357Y-16085643D01*
X5427071Y-16057071D01*
X5412786Y-15999929D01*
X5412786Y-15928500D01*
X5427071Y-15871357D01*
X5441357Y-15842786D01*
X5455643Y-15828500D01*
X5484214Y-15814214D01*
X5712786Y-16085643D02*
X5727071Y-16099929D01*
X5712786Y-16114214D01*
X5698500Y-16099929D01*
X5712786Y-16085643D01*
X5712786Y-16114214D01*
X5912786Y-15814214D02*
X5941357Y-15814214D01*
X5969928Y-15828500D01*
X5984214Y-15842786D01*
X5998500Y-15871357D01*
X6012786Y-15928500D01*
X6012786Y-15999929D01*
X5998500Y-16057071D01*
X5984214Y-16085643D01*
X5969928Y-16099929D01*
X5941357Y-16114214D01*
X5912786Y-16114214D01*
X5884214Y-16099929D01*
X5869928Y-16085643D01*
X5855643Y-16057071D01*
X5841357Y-15999929D01*
X5841357Y-15928500D01*
X5855643Y-15871357D01*
X5869928Y-15842786D01*
X5884214Y-15828500D01*
X5912786Y-15814214D01*
X6112786Y-15814214D02*
X6298500Y-15814214D01*
X6198500Y-15928500D01*
X6241357Y-15928500D01*
X6269928Y-15942786D01*
X6284214Y-15957071D01*
X6298500Y-15985643D01*
X6298500Y-16057071D01*
X6284214Y-16085643D01*
X6269928Y-16099929D01*
X6241357Y-16114214D01*
X6155643Y-16114214D01*
X6127071Y-16099929D01*
X6112786Y-16085643D01*
X6569928Y-15814214D02*
X6427071Y-15814214D01*
X6412786Y-15957071D01*
X6427071Y-15942786D01*
X6455643Y-15928500D01*
X6527071Y-15928500D01*
X6555643Y-15942786D01*
X6569928Y-15957071D01*
X6584214Y-15985643D01*
X6584214Y-16057071D01*
X6569928Y-16085643D01*
X6555643Y-16099929D01*
X6527071Y-16114214D01*
X6455643Y-16114214D01*
X6427071Y-16099929D01*
X6412786Y-16085643D01*
X6841357Y-15914214D02*
X6841357Y-16114214D01*
X6769928Y-15799929D02*
X6698500Y-16014214D01*
X6884214Y-16014214D01*
X6984214Y-15814214D02*
X6984214Y-15871357D01*
X7098500Y-15814214D02*
X7098500Y-15871357D01*
X7541357Y-16228500D02*
X7527071Y-16214214D01*
X7498500Y-16171357D01*
X7484214Y-16142786D01*
X7469928Y-16099929D01*
X7455643Y-16028500D01*
X7455643Y-15971357D01*
X7469928Y-15899929D01*
X7484214Y-15857071D01*
X7498500Y-15828500D01*
X7527071Y-15785643D01*
X7541357Y-15771357D01*
X7641357Y-15842786D02*
X7655643Y-15828500D01*
X7684214Y-15814214D01*
X7755643Y-15814214D01*
X7784214Y-15828500D01*
X7798500Y-15842786D01*
X7812786Y-15871357D01*
X7812786Y-15899929D01*
X7798500Y-15942786D01*
X7627071Y-16114214D01*
X7812786Y-16114214D01*
X8169928Y-16114214D02*
X8169928Y-15814214D01*
X8298500Y-16114214D02*
X8298500Y-15957071D01*
X8284214Y-15928500D01*
X8255643Y-15914214D01*
X8212786Y-15914214D01*
X8184214Y-15928500D01*
X8169928Y-15942786D01*
X8484214Y-16114214D02*
X8455643Y-16099929D01*
X8441357Y-16085643D01*
X8427071Y-16057071D01*
X8427071Y-15971357D01*
X8441357Y-15942786D01*
X8455643Y-15928500D01*
X8484214Y-15914214D01*
X8527071Y-15914214D01*
X8555643Y-15928500D01*
X8569928Y-15942786D01*
X8584214Y-15971357D01*
X8584214Y-16057071D01*
X8569928Y-16085643D01*
X8555643Y-16099929D01*
X8527071Y-16114214D01*
X8484214Y-16114214D01*
X8755643Y-16114214D02*
X8727071Y-16099929D01*
X8712786Y-16071357D01*
X8712786Y-15814214D01*
X8984214Y-16099929D02*
X8955643Y-16114214D01*
X8898500Y-16114214D01*
X8869928Y-16099929D01*
X8855643Y-16071357D01*
X8855643Y-15957071D01*
X8869928Y-15928500D01*
X8898500Y-15914214D01*
X8955643Y-15914214D01*
X8984214Y-15928500D01*
X8998500Y-15957071D01*
X8998500Y-15985643D01*
X8855643Y-16014214D01*
X9112786Y-16099929D02*
X9141357Y-16114214D01*
X9198500Y-16114214D01*
X9227071Y-16099929D01*
X9241357Y-16071357D01*
X9241357Y-16057071D01*
X9227071Y-16028500D01*
X9198500Y-16014214D01*
X9155643Y-16014214D01*
X9127071Y-15999929D01*
X9112786Y-15971357D01*
X9112786Y-15957071D01*
X9127071Y-15928500D01*
X9155643Y-15914214D01*
X9198500Y-15914214D01*
X9227071Y-15928500D01*
X9341357Y-16228500D02*
X9355643Y-16214214D01*
X9384214Y-16171357D01*
X9398500Y-16142786D01*
X9412786Y-16099929D01*
X9427071Y-16028500D01*
X9427071Y-15971357D01*
X9412786Y-15899929D01*
X9398500Y-15857071D01*
X9384214Y-15828500D01*
X9355643Y-15785643D01*
X9341357Y-15771357D01*
X2283500Y-16374500D02*
G75*
G03*
X2283500Y-16374500I-50000J0D01*
G01*
X2727071Y-16510214D02*
X2555643Y-16510214D01*
X2641357Y-16510214D02*
X2641357Y-16210214D01*
X2612786Y-16253071D01*
X2584214Y-16281643D01*
X2555643Y-16295929D01*
X2855643Y-16481643D02*
X2869928Y-16495929D01*
X2855643Y-16510214D01*
X2841357Y-16495929D01*
X2855643Y-16481643D01*
X2855643Y-16510214D01*
X3055643Y-16210214D02*
X3084214Y-16210214D01*
X3112786Y-16224500D01*
X3127071Y-16238786D01*
X3141357Y-16267357D01*
X3155643Y-16324500D01*
X3155643Y-16395929D01*
X3141357Y-16453071D01*
X3127071Y-16481643D01*
X3112786Y-16495929D01*
X3084214Y-16510214D01*
X3055643Y-16510214D01*
X3027071Y-16495929D01*
X3012786Y-16481643D01*
X2998500Y-16453071D01*
X2984214Y-16395929D01*
X2984214Y-16324500D01*
X2998500Y-16267357D01*
X3012786Y-16238786D01*
X3027071Y-16224500D01*
X3055643Y-16210214D01*
X3341357Y-16210214D02*
X3369928Y-16210214D01*
X3398500Y-16224500D01*
X3412786Y-16238786D01*
X3427071Y-16267357D01*
X3441357Y-16324500D01*
X3441357Y-16395929D01*
X3427071Y-16453071D01*
X3412786Y-16481643D01*
X3398500Y-16495929D01*
X3369928Y-16510214D01*
X3341357Y-16510214D01*
X3312786Y-16495929D01*
X3298500Y-16481643D01*
X3284214Y-16453071D01*
X3269928Y-16395929D01*
X3269928Y-16324500D01*
X3284214Y-16267357D01*
X3298500Y-16238786D01*
X3312786Y-16224500D01*
X3341357Y-16210214D01*
X3627071Y-16210214D02*
X3655643Y-16210214D01*
X3684214Y-16224500D01*
X3698500Y-16238786D01*
X3712786Y-16267357D01*
X3727071Y-16324500D01*
X3727071Y-16395929D01*
X3712786Y-16453071D01*
X3698500Y-16481643D01*
X3684214Y-16495929D01*
X3655643Y-16510214D01*
X3627071Y-16510214D01*
X3598500Y-16495929D01*
X3584214Y-16481643D01*
X3569928Y-16453071D01*
X3555643Y-16395929D01*
X3555643Y-16324500D01*
X3569928Y-16267357D01*
X3584214Y-16238786D01*
X3598500Y-16224500D01*
X3627071Y-16210214D01*
X3855643Y-16510214D02*
X3855643Y-16310214D01*
X3855643Y-16338786D02*
X3869928Y-16324500D01*
X3898500Y-16310214D01*
X3941357Y-16310214D01*
X3969928Y-16324500D01*
X3984214Y-16353071D01*
X3984214Y-16510214D01*
X3984214Y-16353071D02*
X3998500Y-16324500D01*
X4027071Y-16310214D01*
X4069928Y-16310214D01*
X4098500Y-16324500D01*
X4112786Y-16353071D01*
X4112786Y-16510214D01*
X4255643Y-16510214D02*
X4255643Y-16310214D01*
X4255643Y-16338786D02*
X4269928Y-16324500D01*
X4298500Y-16310214D01*
X4341357Y-16310214D01*
X4369928Y-16324500D01*
X4384214Y-16353071D01*
X4384214Y-16510214D01*
X4384214Y-16353071D02*
X4398500Y-16324500D01*
X4427071Y-16310214D01*
X4469928Y-16310214D01*
X4498500Y-16324500D01*
X4512786Y-16353071D01*
X4512786Y-16510214D01*
X5098500Y-16195929D02*
X4841357Y-16581643D01*
X5484214Y-16210214D02*
X5512786Y-16210214D01*
X5541357Y-16224500D01*
X5555643Y-16238786D01*
X5569928Y-16267357D01*
X5584214Y-16324500D01*
X5584214Y-16395929D01*
X5569928Y-16453071D01*
X5555643Y-16481643D01*
X5541357Y-16495929D01*
X5512786Y-16510214D01*
X5484214Y-16510214D01*
X5455643Y-16495929D01*
X5441357Y-16481643D01*
X5427071Y-16453071D01*
X5412786Y-16395929D01*
X5412786Y-16324500D01*
X5427071Y-16267357D01*
X5441357Y-16238786D01*
X5455643Y-16224500D01*
X5484214Y-16210214D01*
X5712786Y-16481643D02*
X5727071Y-16495929D01*
X5712786Y-16510214D01*
X5698500Y-16495929D01*
X5712786Y-16481643D01*
X5712786Y-16510214D01*
X5912786Y-16210214D02*
X5941357Y-16210214D01*
X5969928Y-16224500D01*
X5984214Y-16238786D01*
X5998500Y-16267357D01*
X6012786Y-16324500D01*
X6012786Y-16395929D01*
X5998500Y-16453071D01*
X5984214Y-16481643D01*
X5969928Y-16495929D01*
X5941357Y-16510214D01*
X5912786Y-16510214D01*
X5884214Y-16495929D01*
X5869928Y-16481643D01*
X5855643Y-16453071D01*
X5841357Y-16395929D01*
X5841357Y-16324500D01*
X5855643Y-16267357D01*
X5869928Y-16238786D01*
X5884214Y-16224500D01*
X5912786Y-16210214D01*
X6112786Y-16210214D02*
X6298500Y-16210214D01*
X6198500Y-16324500D01*
X6241357Y-16324500D01*
X6269928Y-16338786D01*
X6284214Y-16353071D01*
X6298500Y-16381643D01*
X6298500Y-16453071D01*
X6284214Y-16481643D01*
X6269928Y-16495929D01*
X6241357Y-16510214D01*
X6155643Y-16510214D01*
X6127071Y-16495929D01*
X6112786Y-16481643D01*
X6441357Y-16510214D02*
X6498500Y-16510214D01*
X6527071Y-16495929D01*
X6541357Y-16481643D01*
X6569928Y-16438786D01*
X6584214Y-16381643D01*
X6584214Y-16267357D01*
X6569928Y-16238786D01*
X6555643Y-16224500D01*
X6527071Y-16210214D01*
X6469928Y-16210214D01*
X6441357Y-16224500D01*
X6427071Y-16238786D01*
X6412786Y-16267357D01*
X6412786Y-16338786D01*
X6427071Y-16367357D01*
X6441357Y-16381643D01*
X6469928Y-16395929D01*
X6527071Y-16395929D01*
X6555643Y-16381643D01*
X6569928Y-16367357D01*
X6584214Y-16338786D01*
X6841357Y-16310214D02*
X6841357Y-16510214D01*
X6769928Y-16195929D02*
X6698500Y-16410214D01*
X6884214Y-16410214D01*
X6984214Y-16210214D02*
X6984214Y-16267357D01*
X7098500Y-16210214D02*
X7098500Y-16267357D01*
X7541357Y-16624500D02*
X7527071Y-16610214D01*
X7498500Y-16567357D01*
X7484214Y-16538786D01*
X7469928Y-16495929D01*
X7455643Y-16424500D01*
X7455643Y-16367357D01*
X7469928Y-16295929D01*
X7484214Y-16253071D01*
X7498500Y-16224500D01*
X7527071Y-16181643D01*
X7541357Y-16167357D01*
X7641357Y-16238786D02*
X7655643Y-16224500D01*
X7684214Y-16210214D01*
X7755643Y-16210214D01*
X7784214Y-16224500D01*
X7798500Y-16238786D01*
X7812786Y-16267357D01*
X7812786Y-16295929D01*
X7798500Y-16338786D01*
X7627071Y-16510214D01*
X7812786Y-16510214D01*
X8069928Y-16310214D02*
X8069928Y-16510214D01*
X7998500Y-16195929D02*
X7927071Y-16410214D01*
X8112786Y-16410214D01*
X8455643Y-16510214D02*
X8455643Y-16210214D01*
X8584214Y-16510214D02*
X8584214Y-16353071D01*
X8569928Y-16324500D01*
X8541357Y-16310214D01*
X8498500Y-16310214D01*
X8469928Y-16324500D01*
X8455643Y-16338786D01*
X8769928Y-16510214D02*
X8741357Y-16495929D01*
X8727071Y-16481643D01*
X8712786Y-16453071D01*
X8712786Y-16367357D01*
X8727071Y-16338786D01*
X8741357Y-16324500D01*
X8769928Y-16310214D01*
X8812786Y-16310214D01*
X8841357Y-16324500D01*
X8855643Y-16338786D01*
X8869928Y-16367357D01*
X8869928Y-16453071D01*
X8855643Y-16481643D01*
X8841357Y-16495929D01*
X8812786Y-16510214D01*
X8769928Y-16510214D01*
X9041357Y-16510214D02*
X9012786Y-16495929D01*
X8998500Y-16467357D01*
X8998500Y-16210214D01*
X9269928Y-16495929D02*
X9241357Y-16510214D01*
X9184214Y-16510214D01*
X9155643Y-16495929D01*
X9141357Y-16467357D01*
X9141357Y-16353071D01*
X9155643Y-16324500D01*
X9184214Y-16310214D01*
X9241357Y-16310214D01*
X9269928Y-16324500D01*
X9284214Y-16353071D01*
X9284214Y-16381643D01*
X9141357Y-16410214D01*
X9398500Y-16495929D02*
X9427071Y-16510214D01*
X9484214Y-16510214D01*
X9512786Y-16495929D01*
X9527071Y-16467357D01*
X9527071Y-16453071D01*
X9512786Y-16424500D01*
X9484214Y-16410214D01*
X9441357Y-16410214D01*
X9412786Y-16395929D01*
X9398500Y-16367357D01*
X9398500Y-16353071D01*
X9412786Y-16324500D01*
X9441357Y-16310214D01*
X9484214Y-16310214D01*
X9512786Y-16324500D01*
X9627071Y-16624500D02*
X9641357Y-16610214D01*
X9669928Y-16567357D01*
X9684214Y-16538786D01*
X9698500Y-16495929D01*
X9712786Y-16424500D01*
X9712786Y-16367357D01*
X9698500Y-16295929D01*
X9684214Y-16253071D01*
X9669928Y-16224500D01*
X9641357Y-16181643D01*
X9627071Y-16167357D01*
X2208500Y-16695500D02*
X2208500Y-16845500D01*
X2133500Y-16770500D02*
X2283500Y-16770500D01*
X2727071Y-16906214D02*
X2555643Y-16906214D01*
X2641357Y-16906214D02*
X2641357Y-16606214D01*
X2612786Y-16649071D01*
X2584214Y-16677643D01*
X2555643Y-16691929D01*
X2855643Y-16877643D02*
X2869928Y-16891929D01*
X2855643Y-16906214D01*
X2841357Y-16891929D01*
X2855643Y-16877643D01*
X2855643Y-16906214D01*
X3141357Y-16606214D02*
X2998500Y-16606214D01*
X2984214Y-16749071D01*
X2998500Y-16734786D01*
X3027071Y-16720500D01*
X3098500Y-16720500D01*
X3127071Y-16734786D01*
X3141357Y-16749071D01*
X3155643Y-16777643D01*
X3155643Y-16849072D01*
X3141357Y-16877643D01*
X3127071Y-16891929D01*
X3098500Y-16906214D01*
X3027071Y-16906214D01*
X2998500Y-16891929D01*
X2984214Y-16877643D01*
X3341357Y-16606214D02*
X3369928Y-16606214D01*
X3398500Y-16620500D01*
X3412786Y-16634786D01*
X3427071Y-16663357D01*
X3441357Y-16720500D01*
X3441357Y-16791929D01*
X3427071Y-16849072D01*
X3412786Y-16877643D01*
X3398500Y-16891929D01*
X3369928Y-16906214D01*
X3341357Y-16906214D01*
X3312786Y-16891929D01*
X3298500Y-16877643D01*
X3284214Y-16849072D01*
X3269928Y-16791929D01*
X3269928Y-16720500D01*
X3284214Y-16663357D01*
X3298500Y-16634786D01*
X3312786Y-16620500D01*
X3341357Y-16606214D01*
X3627071Y-16606214D02*
X3655643Y-16606214D01*
X3684214Y-16620500D01*
X3698500Y-16634786D01*
X3712786Y-16663357D01*
X3727071Y-16720500D01*
X3727071Y-16791929D01*
X3712786Y-16849072D01*
X3698500Y-16877643D01*
X3684214Y-16891929D01*
X3655643Y-16906214D01*
X3627071Y-16906214D01*
X3598500Y-16891929D01*
X3584214Y-16877643D01*
X3569928Y-16849072D01*
X3555643Y-16791929D01*
X3555643Y-16720500D01*
X3569928Y-16663357D01*
X3584214Y-16634786D01*
X3598500Y-16620500D01*
X3627071Y-16606214D01*
X3855643Y-16906214D02*
X3855643Y-16706214D01*
X3855643Y-16734786D02*
X3869928Y-16720500D01*
X3898500Y-16706214D01*
X3941357Y-16706214D01*
X3969928Y-16720500D01*
X3984214Y-16749071D01*
X3984214Y-16906214D01*
X3984214Y-16749071D02*
X3998500Y-16720500D01*
X4027071Y-16706214D01*
X4069928Y-16706214D01*
X4098500Y-16720500D01*
X4112786Y-16749071D01*
X4112786Y-16906214D01*
X4255643Y-16906214D02*
X4255643Y-16706214D01*
X4255643Y-16734786D02*
X4269928Y-16720500D01*
X4298500Y-16706214D01*
X4341357Y-16706214D01*
X4369928Y-16720500D01*
X4384214Y-16749071D01*
X4384214Y-16906214D01*
X4384214Y-16749071D02*
X4398500Y-16720500D01*
X4427071Y-16706214D01*
X4469928Y-16706214D01*
X4498500Y-16720500D01*
X4512786Y-16749071D01*
X4512786Y-16906214D01*
X5098500Y-16591929D02*
X4841357Y-16977643D01*
X5484214Y-16606214D02*
X5512786Y-16606214D01*
X5541357Y-16620500D01*
X5555643Y-16634786D01*
X5569928Y-16663357D01*
X5584214Y-16720500D01*
X5584214Y-16791929D01*
X5569928Y-16849072D01*
X5555643Y-16877643D01*
X5541357Y-16891929D01*
X5512786Y-16906214D01*
X5484214Y-16906214D01*
X5455643Y-16891929D01*
X5441357Y-16877643D01*
X5427071Y-16849072D01*
X5412786Y-16791929D01*
X5412786Y-16720500D01*
X5427071Y-16663357D01*
X5441357Y-16634786D01*
X5455643Y-16620500D01*
X5484214Y-16606214D01*
X5712786Y-16877643D02*
X5727071Y-16891929D01*
X5712786Y-16906214D01*
X5698500Y-16891929D01*
X5712786Y-16877643D01*
X5712786Y-16906214D01*
X5912786Y-16606214D02*
X5941357Y-16606214D01*
X5969928Y-16620500D01*
X5984214Y-16634786D01*
X5998500Y-16663357D01*
X6012786Y-16720500D01*
X6012786Y-16791929D01*
X5998500Y-16849072D01*
X5984214Y-16877643D01*
X5969928Y-16891929D01*
X5941357Y-16906214D01*
X5912786Y-16906214D01*
X5884214Y-16891929D01*
X5869928Y-16877643D01*
X5855643Y-16849072D01*
X5841357Y-16791929D01*
X5841357Y-16720500D01*
X5855643Y-16663357D01*
X5869928Y-16634786D01*
X5884214Y-16620500D01*
X5912786Y-16606214D01*
X6284214Y-16606214D02*
X6141357Y-16606214D01*
X6127071Y-16749071D01*
X6141357Y-16734786D01*
X6169928Y-16720500D01*
X6241357Y-16720500D01*
X6269928Y-16734786D01*
X6284214Y-16749071D01*
X6298500Y-16777643D01*
X6298500Y-16849072D01*
X6284214Y-16877643D01*
X6269928Y-16891929D01*
X6241357Y-16906214D01*
X6169928Y-16906214D01*
X6141357Y-16891929D01*
X6127071Y-16877643D01*
X6441357Y-16906214D02*
X6498500Y-16906214D01*
X6527071Y-16891929D01*
X6541357Y-16877643D01*
X6569928Y-16834786D01*
X6584214Y-16777643D01*
X6584214Y-16663357D01*
X6569928Y-16634786D01*
X6555643Y-16620500D01*
X6527071Y-16606214D01*
X6469928Y-16606214D01*
X6441357Y-16620500D01*
X6427071Y-16634786D01*
X6412786Y-16663357D01*
X6412786Y-16734786D01*
X6427071Y-16763357D01*
X6441357Y-16777643D01*
X6469928Y-16791929D01*
X6527071Y-16791929D01*
X6555643Y-16777643D01*
X6569928Y-16763357D01*
X6584214Y-16734786D01*
X6869928Y-16906214D02*
X6698500Y-16906214D01*
X6784214Y-16906214D02*
X6784214Y-16606214D01*
X6755643Y-16649071D01*
X6727071Y-16677643D01*
X6698500Y-16691929D01*
X6984214Y-16606214D02*
X6984214Y-16663357D01*
X7098500Y-16606214D02*
X7098500Y-16663357D01*
X7541357Y-17020500D02*
X7527071Y-17006214D01*
X7498500Y-16963357D01*
X7484214Y-16934786D01*
X7469928Y-16891929D01*
X7455643Y-16820500D01*
X7455643Y-16763357D01*
X7469928Y-16691929D01*
X7484214Y-16649071D01*
X7498500Y-16620500D01*
X7527071Y-16577643D01*
X7541357Y-16563357D01*
X7812786Y-16906214D02*
X7641357Y-16906214D01*
X7727071Y-16906214D02*
X7727071Y-16606214D01*
X7698500Y-16649071D01*
X7669928Y-16677643D01*
X7641357Y-16691929D01*
X7927071Y-16634786D02*
X7941357Y-16620500D01*
X7969928Y-16606214D01*
X8041357Y-16606214D01*
X8069928Y-16620500D01*
X8084214Y-16634786D01*
X8098500Y-16663357D01*
X8098500Y-16691929D01*
X8084214Y-16734786D01*
X7912786Y-16906214D01*
X8098500Y-16906214D01*
X8355643Y-16706214D02*
X8355643Y-16906214D01*
X8284214Y-16591929D02*
X8212786Y-16806214D01*
X8398500Y-16806214D01*
X8741357Y-16906214D02*
X8741357Y-16606214D01*
X8869928Y-16906214D02*
X8869928Y-16749071D01*
X8855643Y-16720500D01*
X8827071Y-16706214D01*
X8784214Y-16706214D01*
X8755643Y-16720500D01*
X8741357Y-16734786D01*
X9055643Y-16906214D02*
X9027071Y-16891929D01*
X9012786Y-16877643D01*
X8998500Y-16849072D01*
X8998500Y-16763357D01*
X9012786Y-16734786D01*
X9027071Y-16720500D01*
X9055643Y-16706214D01*
X9098500Y-16706214D01*
X9127071Y-16720500D01*
X9141357Y-16734786D01*
X9155643Y-16763357D01*
X9155643Y-16849072D01*
X9141357Y-16877643D01*
X9127071Y-16891929D01*
X9098500Y-16906214D01*
X9055643Y-16906214D01*
X9327071Y-16906214D02*
X9298500Y-16891929D01*
X9284214Y-16863357D01*
X9284214Y-16606214D01*
X9555643Y-16891929D02*
X9527071Y-16906214D01*
X9469928Y-16906214D01*
X9441357Y-16891929D01*
X9427071Y-16863357D01*
X9427071Y-16749071D01*
X9441357Y-16720500D01*
X9469928Y-16706214D01*
X9527071Y-16706214D01*
X9555643Y-16720500D01*
X9569928Y-16749071D01*
X9569928Y-16777643D01*
X9427071Y-16806214D01*
X9684214Y-16891929D02*
X9712786Y-16906214D01*
X9769928Y-16906214D01*
X9798500Y-16891929D01*
X9812786Y-16863357D01*
X9812786Y-16849072D01*
X9798500Y-16820500D01*
X9769928Y-16806214D01*
X9727071Y-16806214D01*
X9698500Y-16791929D01*
X9684214Y-16763357D01*
X9684214Y-16749071D01*
X9698500Y-16720500D01*
X9727071Y-16706214D01*
X9769928Y-16706214D01*
X9798500Y-16720500D01*
X9912786Y-17020500D02*
X9927071Y-17006214D01*
X9955643Y-16963357D01*
X9969928Y-16934786D01*
X9984214Y-16891929D01*
X9998500Y-16820500D01*
X9998500Y-16763357D01*
X9984214Y-16691929D01*
X9969928Y-16649071D01*
X9955643Y-16620500D01*
X9927071Y-16577643D01*
X9912786Y-16563357D01*
M02*
