%TF.GenerationSoftware,KiCad,Pcbnew,(5.1.10)-1*%
%TF.CreationDate,2021-09-20T19:48:49-07:00*%
%TF.ProjectId,Atari130MX,41746172-6931-4333-904d-582e6b696361,C*%
%TF.SameCoordinates,Original*%
%TF.FileFunction,Soldermask,Top*%
%TF.FilePolarity,Negative*%
%FSLAX46Y46*%
G04 Gerber Fmt 4.6, Leading zero omitted, Abs format (unit mm)*
G04 Created by KiCad (PCBNEW (5.1.10)-1) date 2021-09-20 19:48:49*
%MOMM*%
%LPD*%
G01*
G04 APERTURE LIST*
%TA.AperFunction,Profile*%
%ADD10C,0.050000*%
%TD*%
%ADD11O,1.600000X1.600000*%
%ADD12C,1.600000*%
%ADD13O,1.700000X1.700000*%
%ADD14R,1.700000X1.700000*%
%ADD15C,1.700000*%
%ADD16C,3.200000*%
%ADD17C,4.000000*%
%ADD18C,2.200000*%
%ADD19C,1.800000*%
%ADD20R,1.800000X1.800000*%
G04 APERTURE END LIST*
D10*
X325000000Y-152160000D02*
X349060000Y-152160000D01*
X322000000Y-149160000D02*
G75*
G03*
X325000000Y-152160000I3000000J0D01*
G01*
X300100000Y-147060000D02*
X300100000Y-149160000D01*
X322000000Y-147060000D02*
X322000000Y-149160000D01*
X300100000Y-147060000D02*
X322000000Y-147060000D01*
X300100000Y-149160000D02*
G75*
G02*
X297100000Y-152160000I-3000000J0D01*
G01*
X75760000Y-152160000D02*
X297100000Y-152160000D01*
X72760000Y-147060000D02*
X72760000Y-149160000D01*
X72760000Y-149160000D02*
G75*
G03*
X75760000Y-152160000I3000000J0D01*
G01*
X50860000Y-147060000D02*
X72760000Y-147060000D01*
X50860000Y-147060000D02*
X50860000Y-149160000D01*
X50860000Y-149160000D02*
G75*
G02*
X47860000Y-152160000I-3000000J0D01*
G01*
X25860000Y-152160000D02*
X47860000Y-152160000D01*
X352060000Y-149160000D02*
G75*
G02*
X349060000Y-152160000I-3000000J0D01*
G01*
X349060000Y-22860000D02*
G75*
G02*
X352060000Y-25860000I0J-3000000D01*
G01*
X25860000Y-152160000D02*
G75*
G02*
X22860000Y-149160000I0J3000000D01*
G01*
X22860000Y-25860000D02*
G75*
G02*
X25860000Y-22860000I3000000J0D01*
G01*
X352060000Y-25860000D02*
X352060000Y-149160000D01*
X25860000Y-22860000D02*
X349060000Y-22860000D01*
X22860000Y-25860000D02*
X22860000Y-149160000D01*
D11*
X37220000Y-60425000D03*
D12*
X37220000Y-68045000D03*
D13*
X57540000Y-33120000D03*
X60080000Y-33120000D03*
D14*
X62620000Y-33120000D03*
D13*
X65160000Y-33120000D03*
X67700000Y-33120000D03*
X70240000Y-33120000D03*
X72780000Y-33120000D03*
D14*
X75320000Y-33120000D03*
D13*
X77860000Y-33120000D03*
X80400000Y-33120000D03*
X82940000Y-33120000D03*
X85480000Y-33120000D03*
D14*
X88020000Y-33120000D03*
D13*
X90560000Y-33120000D03*
X93100000Y-33120000D03*
X95640000Y-33120000D03*
X98180000Y-33120000D03*
D14*
X100720000Y-33120000D03*
D13*
X103260000Y-33120000D03*
X105800000Y-33120000D03*
X105800000Y-50900000D03*
X103260000Y-50900000D03*
D14*
X100720000Y-50900000D03*
D13*
X98180000Y-50900000D03*
X95640000Y-50900000D03*
X93100000Y-50900000D03*
X90560000Y-50900000D03*
D14*
X88020000Y-50900000D03*
D13*
X85480000Y-50900000D03*
X82940000Y-50900000D03*
X80400000Y-50900000D03*
X77860000Y-50900000D03*
D14*
X75320000Y-50900000D03*
D13*
X72780000Y-50900000D03*
X70240000Y-50900000D03*
X67700000Y-50900000D03*
X65160000Y-50900000D03*
D14*
X62620000Y-50900000D03*
D13*
X60080000Y-50900000D03*
X57540000Y-50900000D03*
X105570000Y-39470000D03*
D14*
X105570000Y-42010000D03*
D13*
X105570000Y-44550000D03*
D14*
X65160000Y-25500000D03*
D13*
X67700000Y-25500000D03*
X70240000Y-25500000D03*
X72780000Y-25500000D03*
X75320000Y-25500000D03*
X77860000Y-25500000D03*
X80400000Y-25500000D03*
X82940000Y-25500000D03*
X85480000Y-25500000D03*
X88020000Y-25500000D03*
X90560000Y-25500000D03*
X93100000Y-25500000D03*
X95640000Y-25500000D03*
X98180000Y-25500000D03*
G36*
G01*
X270300000Y-44970000D02*
X271500000Y-44970000D01*
G75*
G02*
X271750000Y-45220000I0J-250000D01*
G01*
X271750000Y-46420000D01*
G75*
G02*
X271500000Y-46670000I-250000J0D01*
G01*
X270300000Y-46670000D01*
G75*
G02*
X270050000Y-46420000I0J250000D01*
G01*
X270050000Y-45220000D01*
G75*
G02*
X270300000Y-44970000I250000J0D01*
G01*
G37*
D15*
X273440000Y-45820000D03*
X275980000Y-45820000D03*
X278520000Y-45820000D03*
X281060000Y-45820000D03*
X283600000Y-45820000D03*
X286140000Y-45820000D03*
X288680000Y-45820000D03*
X291220000Y-45820000D03*
X293760000Y-45820000D03*
X296300000Y-45820000D03*
X298840000Y-45820000D03*
X270900000Y-48360000D03*
X273440000Y-48360000D03*
X275980000Y-48360000D03*
X278520000Y-48360000D03*
X281060000Y-48360000D03*
X283600000Y-48360000D03*
X286140000Y-48360000D03*
X288680000Y-48360000D03*
X291220000Y-48360000D03*
X293760000Y-48360000D03*
X296300000Y-48360000D03*
X298840000Y-48360000D03*
D16*
X37220000Y-139800000D03*
X336940000Y-139800000D03*
X336940000Y-40740000D03*
X185810000Y-44550000D03*
X37220000Y-52170000D03*
D17*
X293585000Y-121330000D03*
D18*
X289775000Y-118790000D03*
X296125000Y-116250000D03*
D17*
X60800000Y-102230000D03*
D18*
X56990000Y-99690000D03*
X63340000Y-97150000D03*
D17*
X65610000Y-121330000D03*
D18*
X61800000Y-118790000D03*
X68150000Y-116250000D03*
X242200000Y-27530000D03*
D17*
X239660000Y-32610000D03*
D18*
X235850000Y-30070000D03*
X270700000Y-27530000D03*
D17*
X268160000Y-32610000D03*
D18*
X264350000Y-30070000D03*
X327700000Y-27530000D03*
D17*
X325160000Y-32610000D03*
D18*
X321350000Y-30070000D03*
X299200000Y-27530000D03*
D17*
X296660000Y-32610000D03*
D18*
X292850000Y-30070000D03*
X213700000Y-27530000D03*
D17*
X211160000Y-32610000D03*
D18*
X207350000Y-30070000D03*
D17*
X186860000Y-140380000D03*
D18*
X183050000Y-137840000D03*
X189400000Y-135300000D03*
D19*
X31900000Y-143200000D03*
D20*
X29360000Y-143200000D03*
D17*
X96460000Y-121330000D03*
D18*
X92650000Y-118790000D03*
X99000000Y-116250000D03*
D17*
X177220000Y-83160000D03*
D18*
X173410000Y-80620000D03*
X179760000Y-78080000D03*
D17*
X115460000Y-121330000D03*
D18*
X111650000Y-118790000D03*
X118000000Y-116250000D03*
D17*
X101220000Y-83160000D03*
D18*
X97410000Y-80620000D03*
X103760000Y-78080000D03*
D17*
X153460000Y-121330000D03*
D18*
X149650000Y-118790000D03*
X156000000Y-116250000D03*
D17*
X196220000Y-83160000D03*
D18*
X192410000Y-80620000D03*
X198760000Y-78080000D03*
D17*
X58520000Y-83160000D03*
D18*
X54710000Y-80620000D03*
X61060000Y-78080000D03*
D17*
X158220000Y-83160000D03*
D18*
X154410000Y-80620000D03*
X160760000Y-78080000D03*
D17*
X296000000Y-102230000D03*
D18*
X292190000Y-99690000D03*
X298540000Y-97150000D03*
D17*
X267460000Y-121330000D03*
D18*
X263650000Y-118790000D03*
X270000000Y-116250000D03*
D17*
X258000000Y-102230000D03*
D18*
X254190000Y-99690000D03*
X260540000Y-97150000D03*
D17*
X106000000Y-102230000D03*
D18*
X102190000Y-99690000D03*
X108540000Y-97150000D03*
D17*
X315020000Y-83160000D03*
D18*
X311210000Y-80620000D03*
X317560000Y-78080000D03*
D17*
X139220000Y-83160000D03*
D18*
X135410000Y-80620000D03*
X141760000Y-78080000D03*
D17*
X82220000Y-83160000D03*
D18*
X78410000Y-80620000D03*
X84760000Y-78080000D03*
D17*
X277000000Y-102230000D03*
D18*
X273190000Y-99690000D03*
X279540000Y-97150000D03*
D17*
X248460000Y-121330000D03*
D18*
X244650000Y-118790000D03*
X251000000Y-116250000D03*
D17*
X253220000Y-83160000D03*
D18*
X249410000Y-80620000D03*
X255760000Y-78080000D03*
D17*
X234220000Y-83160000D03*
D18*
X230410000Y-80620000D03*
X236760000Y-78080000D03*
D17*
X191460000Y-121330000D03*
D18*
X187650000Y-118790000D03*
X194000000Y-116250000D03*
D17*
X210460000Y-121330000D03*
D18*
X206650000Y-118790000D03*
X213000000Y-116250000D03*
D17*
X262760000Y-64060000D03*
D18*
X258950000Y-61520000D03*
X265300000Y-58980000D03*
D17*
X239000000Y-102230000D03*
D18*
X235190000Y-99690000D03*
X241540000Y-97150000D03*
D17*
X220000000Y-102230000D03*
D18*
X216190000Y-99690000D03*
X222540000Y-97150000D03*
D17*
X201000000Y-102230000D03*
D18*
X197190000Y-99690000D03*
X203540000Y-97150000D03*
D17*
X319760000Y-121330000D03*
D18*
X315950000Y-118790000D03*
X322300000Y-116250000D03*
D17*
X215220000Y-83160000D03*
D18*
X211410000Y-80620000D03*
X217760000Y-78080000D03*
D17*
X182000000Y-102230000D03*
D18*
X178190000Y-99690000D03*
X184540000Y-97150000D03*
D17*
X281760000Y-64060000D03*
D18*
X277950000Y-61520000D03*
X284300000Y-58980000D03*
D17*
X163000000Y-102230000D03*
D18*
X159190000Y-99690000D03*
X165540000Y-97150000D03*
D17*
X144000000Y-102230000D03*
D18*
X140190000Y-99690000D03*
X146540000Y-97150000D03*
D17*
X53760000Y-64060000D03*
D18*
X49950000Y-61520000D03*
X56300000Y-58980000D03*
D17*
X291220000Y-83160000D03*
D18*
X287410000Y-80620000D03*
X293760000Y-78080000D03*
D17*
X120220000Y-83160000D03*
D18*
X116410000Y-80620000D03*
X122760000Y-78080000D03*
D17*
X300760000Y-64060000D03*
D18*
X296950000Y-61520000D03*
X303300000Y-58980000D03*
D17*
X272220000Y-83160000D03*
D18*
X268410000Y-80620000D03*
X274760000Y-78080000D03*
D17*
X125000000Y-102230000D03*
D18*
X121190000Y-99690000D03*
X127540000Y-97150000D03*
D17*
X317400000Y-102230000D03*
D18*
X313590000Y-99690000D03*
X319940000Y-97150000D03*
D17*
X229460000Y-121330000D03*
D18*
X225650000Y-118790000D03*
X232000000Y-116250000D03*
D17*
X134460000Y-121330000D03*
D18*
X130650000Y-118790000D03*
X137000000Y-116250000D03*
D17*
X319760000Y-64060000D03*
D18*
X315950000Y-61520000D03*
X322300000Y-58980000D03*
D17*
X172460000Y-121330000D03*
D18*
X168650000Y-118790000D03*
X175000000Y-116250000D03*
D17*
X87000000Y-102230000D03*
D18*
X83190000Y-99690000D03*
X89540000Y-97150000D03*
D17*
X224760000Y-64060000D03*
D18*
X220950000Y-61520000D03*
X227300000Y-58980000D03*
D17*
X205760000Y-64060000D03*
D18*
X201950000Y-61520000D03*
X208300000Y-58980000D03*
D17*
X186760000Y-64060000D03*
D18*
X182950000Y-61520000D03*
X189300000Y-58980000D03*
D17*
X167760000Y-64060000D03*
D18*
X163950000Y-61520000D03*
X170300000Y-58980000D03*
D17*
X148760000Y-64060000D03*
D18*
X144950000Y-61520000D03*
X151300000Y-58980000D03*
D17*
X129760000Y-64060000D03*
D18*
X125950000Y-61520000D03*
X132300000Y-58980000D03*
D17*
X110760000Y-64060000D03*
D18*
X106950000Y-61520000D03*
X113300000Y-58980000D03*
D17*
X91760000Y-64060000D03*
D18*
X87950000Y-61520000D03*
X94300000Y-58980000D03*
D17*
X72760000Y-64060000D03*
D18*
X68950000Y-61520000D03*
X75300000Y-58980000D03*
D17*
X243760000Y-64060000D03*
D18*
X239950000Y-61520000D03*
X246300000Y-58980000D03*
M02*
