G04 #@! TF.GenerationSoftware,KiCad,Pcbnew,(5.1.10)-1*
G04 #@! TF.CreationDate,2021-09-25T20:55:18-07:00*
G04 #@! TF.ProjectId,Atari130MX-adapter,41746172-6931-4333-904d-582d61646170,rev?*
G04 #@! TF.SameCoordinates,Original*
G04 #@! TF.FileFunction,Soldermask,Top*
G04 #@! TF.FilePolarity,Negative*
%FSLAX46Y46*%
G04 Gerber Fmt 4.6, Leading zero omitted, Abs format (unit mm)*
G04 Created by KiCad (PCBNEW (5.1.10)-1) date 2021-09-25 20:55:18*
%MOMM*%
%LPD*%
G01*
G04 APERTURE LIST*
%ADD10R,0.400000X1.000000*%
%ADD11R,2.000000X1.300000*%
%ADD12O,1.524000X2.540000*%
%ADD13C,1.700000*%
G04 APERTURE END LIST*
D10*
X22500000Y-32910000D03*
X23500000Y-32910000D03*
X24500000Y-32910000D03*
X25500000Y-32910000D03*
X26500000Y-32910000D03*
X27500000Y-32910000D03*
X28500000Y-32910000D03*
X29500000Y-32910000D03*
X30500000Y-32910000D03*
X31500000Y-32910000D03*
X32500000Y-32910000D03*
X33500000Y-32910000D03*
X34500000Y-32910000D03*
X35500000Y-32910000D03*
X36500000Y-32910000D03*
X37500000Y-32910000D03*
X38500000Y-32910000D03*
X39500000Y-32910000D03*
X40500000Y-32910000D03*
X41500000Y-32910000D03*
X42500000Y-32910000D03*
X43500000Y-32910000D03*
X44500000Y-32910000D03*
X45500000Y-32910000D03*
X46500000Y-32910000D03*
X47500000Y-32910000D03*
D11*
X19700000Y-30210000D03*
X50300000Y-30210000D03*
D12*
X25400000Y-39116000D03*
X27940000Y-39116000D03*
X30480000Y-39116000D03*
X33020000Y-39116000D03*
X35560000Y-39116000D03*
X38100000Y-39116000D03*
X40640000Y-39116000D03*
X43180000Y-39116000D03*
X45720000Y-39116000D03*
X48260000Y-39116000D03*
X50800000Y-39116000D03*
X53340000Y-39116000D03*
X55880000Y-39116000D03*
X58420000Y-39116000D03*
X60960000Y-39116000D03*
X63500000Y-39116000D03*
X66040000Y-39116000D03*
X68580000Y-39116000D03*
X71120000Y-39116000D03*
X73660000Y-39116000D03*
X76200000Y-39116000D03*
X78740000Y-39116000D03*
X81280000Y-39116000D03*
X83820000Y-39116000D03*
D13*
X85440000Y-29460000D03*
X82900000Y-29460000D03*
X80360000Y-29460000D03*
X77820000Y-29460000D03*
X75280000Y-29460000D03*
X72740000Y-29460000D03*
X70200000Y-29460000D03*
X67660000Y-29460000D03*
X65120000Y-29460000D03*
X62580000Y-29460000D03*
X60040000Y-29460000D03*
X57500000Y-29460000D03*
X85440000Y-32000000D03*
X82900000Y-32000000D03*
X80360000Y-32000000D03*
X77820000Y-32000000D03*
X75280000Y-32000000D03*
X72740000Y-32000000D03*
X70200000Y-32000000D03*
X67660000Y-32000000D03*
X65120000Y-32000000D03*
X62580000Y-32000000D03*
X60040000Y-32000000D03*
G36*
G01*
X58100000Y-32850000D02*
X56900000Y-32850000D01*
G75*
G02*
X56650000Y-32600000I0J250000D01*
G01*
X56650000Y-31400000D01*
G75*
G02*
X56900000Y-31150000I250000J0D01*
G01*
X58100000Y-31150000D01*
G75*
G02*
X58350000Y-31400000I0J-250000D01*
G01*
X58350000Y-32600000D01*
G75*
G02*
X58100000Y-32850000I-250000J0D01*
G01*
G37*
M02*
