G04 #@! TF.GenerationSoftware,KiCad,Pcbnew,(5.1.10)-1*
G04 #@! TF.CreationDate,2021-10-24T19:11:05-07:00*
G04 #@! TF.ProjectId,Atari130MX-adapter,41746172-6931-4333-904d-582d61646170,rev?*
G04 #@! TF.SameCoordinates,Original*
G04 #@! TF.FileFunction,Copper,L2,Bot*
G04 #@! TF.FilePolarity,Positive*
%FSLAX46Y46*%
G04 Gerber Fmt 4.6, Leading zero omitted, Abs format (unit mm)*
G04 Created by KiCad (PCBNEW (5.1.10)-1) date 2021-10-24 19:11:05*
%MOMM*%
%LPD*%
G01*
G04 APERTURE LIST*
G04 #@! TA.AperFunction,ComponentPad*
%ADD10O,1.524000X2.540000*%
G04 #@! TD*
G04 #@! TA.AperFunction,SMDPad,CuDef*
%ADD11R,0.400000X1.000000*%
G04 #@! TD*
G04 #@! TA.AperFunction,SMDPad,CuDef*
%ADD12R,2.000000X1.300000*%
G04 #@! TD*
G04 #@! TA.AperFunction,ViaPad*
%ADD13C,0.800000*%
G04 #@! TD*
G04 #@! TA.AperFunction,Conductor*
%ADD14C,0.250000*%
G04 #@! TD*
G04 #@! TA.AperFunction,Conductor*
%ADD15C,0.254000*%
G04 #@! TD*
G04 #@! TA.AperFunction,Conductor*
%ADD16C,0.100000*%
G04 #@! TD*
G04 APERTURE END LIST*
D10*
X159324040Y-63014860D03*
X156784040Y-63014860D03*
X154244040Y-63014860D03*
X151704040Y-63014860D03*
X149164040Y-63014860D03*
X146624040Y-63014860D03*
X144084040Y-63014860D03*
X141544040Y-63014860D03*
X139004040Y-63014860D03*
X136464040Y-63014860D03*
X133924040Y-63014860D03*
X131384040Y-63014860D03*
X128844040Y-63014860D03*
X126304040Y-63014860D03*
X123764040Y-63014860D03*
X121224040Y-63014860D03*
X118684040Y-63014860D03*
X116144040Y-63014860D03*
X113604040Y-63014860D03*
X111064040Y-63014860D03*
X108524040Y-63014860D03*
X105984040Y-63014860D03*
X103444040Y-63014860D03*
X100904040Y-63014860D03*
D11*
X142687700Y-58910000D03*
X141687700Y-58910000D03*
X140687700Y-58910000D03*
X139687700Y-58910000D03*
X138687700Y-58910000D03*
X137687700Y-58910000D03*
X136687700Y-58910000D03*
X135687700Y-58910000D03*
X134687700Y-58910000D03*
X133687700Y-58910000D03*
X132687700Y-58910000D03*
X131687700Y-58910000D03*
X130687700Y-58910000D03*
X129687700Y-58910000D03*
X128687700Y-58910000D03*
X127687700Y-58910000D03*
X126687700Y-58910000D03*
X125687700Y-58910000D03*
X124687700Y-58910000D03*
X123687700Y-58910000D03*
X122687700Y-58910000D03*
X121687700Y-58910000D03*
X120687700Y-58910000D03*
X119687700Y-58910000D03*
X118687700Y-58910000D03*
X117687700Y-58910000D03*
D12*
X145487700Y-56210000D03*
X114887700Y-56210000D03*
D13*
X140730000Y-54170000D03*
X139670000Y-55080000D03*
X138750000Y-56000000D03*
X137690000Y-56860000D03*
X136670000Y-57670000D03*
X124680003Y-57620000D03*
X123680000Y-57620000D03*
X122570000Y-57670000D03*
X145440000Y-60590000D03*
X107200000Y-56560000D03*
X159280000Y-60370000D03*
D14*
X140687700Y-58910000D02*
X140687700Y-54212300D01*
X140687700Y-54212300D02*
X140730000Y-54170000D01*
X139687700Y-58910000D02*
X139687700Y-55097700D01*
X139687700Y-55097700D02*
X139670000Y-55080000D01*
X138687700Y-58910000D02*
X138687700Y-56062300D01*
X138687700Y-56062300D02*
X138750000Y-56000000D01*
X137687700Y-58910000D02*
X137687700Y-56862300D01*
X137687700Y-56862300D02*
X137690000Y-56860000D01*
X136687700Y-58910000D02*
X136687700Y-57687700D01*
X136687700Y-57687700D02*
X136670000Y-57670000D01*
X143679000Y-60069820D02*
X136097520Y-60069820D01*
X135687700Y-59660000D02*
X135687700Y-58910000D01*
X136097520Y-60069820D02*
X135687700Y-59660000D01*
X146624040Y-63014860D02*
X143679000Y-60069820D01*
X135878240Y-60519830D02*
X134687700Y-59329290D01*
X141589010Y-60519830D02*
X135878240Y-60519830D01*
X144084040Y-63014860D02*
X141589010Y-60519830D01*
X134687700Y-59329290D02*
X134687700Y-58910000D01*
X133687700Y-59660000D02*
X133687700Y-58910000D01*
X139499020Y-60969840D02*
X135691840Y-60969840D01*
X135241830Y-60519830D02*
X134547530Y-60519830D01*
X134547530Y-60519830D02*
X133687700Y-59660000D01*
X135691840Y-60969840D02*
X135241830Y-60519830D01*
X141544040Y-63014860D02*
X139499020Y-60969840D01*
X135055430Y-60969840D02*
X133997540Y-60969840D01*
X137409030Y-61419850D02*
X135505440Y-61419850D01*
X135505440Y-61419850D02*
X135055430Y-60969840D01*
X133997540Y-60969840D02*
X132687700Y-59660000D01*
X132687700Y-59660000D02*
X132687700Y-58910000D01*
X139004040Y-63014860D02*
X137409030Y-61419850D01*
X134869030Y-61419850D02*
X133447550Y-61419850D01*
X133447550Y-61419850D02*
X131687700Y-59660000D01*
X136464040Y-63014860D02*
X134869030Y-61419850D01*
X131687700Y-59660000D02*
X131687700Y-58910000D01*
X133924040Y-63014860D02*
X130687700Y-59778520D01*
X130687700Y-59778520D02*
X130687700Y-58910000D01*
X129687700Y-61318520D02*
X129687700Y-58910000D01*
X131384040Y-63014860D02*
X129687700Y-61318520D01*
X128844040Y-63014860D02*
X128844040Y-59066340D01*
X128844040Y-59066340D02*
X128687700Y-58910000D01*
X126304040Y-63014860D02*
X127687700Y-61631200D01*
X127687700Y-61631200D02*
X127687700Y-58910000D01*
X126687700Y-60091200D02*
X126687700Y-58910000D01*
X123764040Y-63014860D02*
X126687700Y-60091200D01*
X122819050Y-61419850D02*
X123927850Y-61419850D01*
X125687700Y-59660000D02*
X125687700Y-58910000D01*
X121224040Y-63014860D02*
X122819050Y-61419850D01*
X123927850Y-61419850D02*
X125687700Y-59660000D01*
X124680003Y-57620000D02*
X124680003Y-58902303D01*
X124680003Y-58902303D02*
X124687700Y-58910000D01*
X123680000Y-58902300D02*
X123687700Y-58910000D01*
X123680000Y-57620000D02*
X123680000Y-58902300D01*
X122570000Y-58792300D02*
X122687700Y-58910000D01*
X122570000Y-57670000D02*
X122570000Y-58792300D01*
X120262669Y-61085031D02*
X112993869Y-61085031D01*
X121687700Y-58910000D02*
X121687700Y-59660000D01*
X121687700Y-59660000D02*
X120262669Y-61085031D01*
X112993869Y-61085031D02*
X111064040Y-63014860D01*
X119349089Y-60635021D02*
X110903879Y-60635021D01*
X110903879Y-60635021D02*
X108524040Y-63014860D01*
X120687700Y-58910000D02*
X120687700Y-59296410D01*
X120687700Y-59296410D02*
X119349089Y-60635021D01*
X106723899Y-59735001D02*
X103444040Y-63014860D01*
X118687700Y-58910000D02*
X118687700Y-59660000D01*
X118687700Y-59660000D02*
X118612699Y-59735001D01*
X118612699Y-59735001D02*
X106723899Y-59735001D01*
X117687700Y-58910000D02*
X105008900Y-58910000D01*
X105008900Y-58910000D02*
X100904040Y-63014860D01*
X141687700Y-58910000D02*
X141687700Y-54054698D01*
X117687700Y-58160000D02*
X117687700Y-58910000D01*
X141687700Y-54054698D02*
X141078001Y-53444999D01*
X141078001Y-53444999D02*
X122402701Y-53444999D01*
X122402701Y-53444999D02*
X117687700Y-58160000D01*
X119687700Y-59660000D02*
X119162689Y-60185011D01*
X119162689Y-60185011D02*
X108813889Y-60185011D01*
X119687700Y-58910000D02*
X119687700Y-59660000D01*
X108813889Y-60185011D02*
X105984040Y-63014860D01*
D15*
X117176703Y-57596196D02*
X117147699Y-57619999D01*
X117106665Y-57670000D01*
X117052726Y-57735724D01*
X117008222Y-57818985D01*
X116982154Y-57867754D01*
X116938697Y-58011015D01*
X116929154Y-58107907D01*
X116906654Y-58150000D01*
X105046225Y-58150000D01*
X105008900Y-58146324D01*
X104971575Y-58150000D01*
X104971567Y-58150000D01*
X104859914Y-58160997D01*
X104716653Y-58204454D01*
X104584624Y-58275026D01*
X104468899Y-58369999D01*
X104445101Y-58398997D01*
X101566948Y-61277151D01*
X101441234Y-61209956D01*
X101177899Y-61130074D01*
X100904040Y-61103101D01*
X100630180Y-61130074D01*
X100366845Y-61209956D01*
X100124153Y-61339677D01*
X99911432Y-61514253D01*
X99736857Y-61726974D01*
X99607136Y-61969666D01*
X99527254Y-62233001D01*
X99507040Y-62438236D01*
X99507040Y-63591485D01*
X99527254Y-63796720D01*
X99607136Y-64060055D01*
X99695226Y-64224860D01*
X99259040Y-64224860D01*
X99259040Y-61710725D01*
X99248983Y-61608616D01*
X99223548Y-61524769D01*
X99220611Y-60212769D01*
X103873380Y-55560000D01*
X113249628Y-55560000D01*
X113249628Y-56860000D01*
X113261888Y-56984482D01*
X113298198Y-57104180D01*
X113357163Y-57214494D01*
X113436515Y-57311185D01*
X113533206Y-57390537D01*
X113643520Y-57449502D01*
X113763218Y-57485812D01*
X113887700Y-57498072D01*
X115887700Y-57498072D01*
X116012182Y-57485812D01*
X116131880Y-57449502D01*
X116242194Y-57390537D01*
X116338885Y-57311185D01*
X116418237Y-57214494D01*
X116477202Y-57104180D01*
X116513512Y-56984482D01*
X116525772Y-56860000D01*
X116525772Y-55560000D01*
X116513512Y-55435518D01*
X116477202Y-55315820D01*
X116418237Y-55205506D01*
X116338885Y-55108815D01*
X116242194Y-55029463D01*
X116131880Y-54970498D01*
X116012182Y-54934188D01*
X115887700Y-54921928D01*
X113887700Y-54921928D01*
X113763218Y-54934188D01*
X113643520Y-54970498D01*
X113533206Y-55029463D01*
X113436515Y-55108815D01*
X113357163Y-55205506D01*
X113298198Y-55315820D01*
X113261888Y-55435518D01*
X113249628Y-55560000D01*
X103873380Y-55560000D01*
X105793381Y-53640000D01*
X121132898Y-53640000D01*
X117176703Y-57596196D01*
G04 #@! TA.AperFunction,Conductor*
D16*
G36*
X117176703Y-57596196D02*
G01*
X117147699Y-57619999D01*
X117106665Y-57670000D01*
X117052726Y-57735724D01*
X117008222Y-57818985D01*
X116982154Y-57867754D01*
X116938697Y-58011015D01*
X116929154Y-58107907D01*
X116906654Y-58150000D01*
X105046225Y-58150000D01*
X105008900Y-58146324D01*
X104971575Y-58150000D01*
X104971567Y-58150000D01*
X104859914Y-58160997D01*
X104716653Y-58204454D01*
X104584624Y-58275026D01*
X104468899Y-58369999D01*
X104445101Y-58398997D01*
X101566948Y-61277151D01*
X101441234Y-61209956D01*
X101177899Y-61130074D01*
X100904040Y-61103101D01*
X100630180Y-61130074D01*
X100366845Y-61209956D01*
X100124153Y-61339677D01*
X99911432Y-61514253D01*
X99736857Y-61726974D01*
X99607136Y-61969666D01*
X99527254Y-62233001D01*
X99507040Y-62438236D01*
X99507040Y-63591485D01*
X99527254Y-63796720D01*
X99607136Y-64060055D01*
X99695226Y-64224860D01*
X99259040Y-64224860D01*
X99259040Y-61710725D01*
X99248983Y-61608616D01*
X99223548Y-61524769D01*
X99220611Y-60212769D01*
X103873380Y-55560000D01*
X113249628Y-55560000D01*
X113249628Y-56860000D01*
X113261888Y-56984482D01*
X113298198Y-57104180D01*
X113357163Y-57214494D01*
X113436515Y-57311185D01*
X113533206Y-57390537D01*
X113643520Y-57449502D01*
X113763218Y-57485812D01*
X113887700Y-57498072D01*
X115887700Y-57498072D01*
X116012182Y-57485812D01*
X116131880Y-57449502D01*
X116242194Y-57390537D01*
X116338885Y-57311185D01*
X116418237Y-57214494D01*
X116477202Y-57104180D01*
X116513512Y-56984482D01*
X116525772Y-56860000D01*
X116525772Y-55560000D01*
X116513512Y-55435518D01*
X116477202Y-55315820D01*
X116418237Y-55205506D01*
X116338885Y-55108815D01*
X116242194Y-55029463D01*
X116131880Y-54970498D01*
X116012182Y-54934188D01*
X115887700Y-54921928D01*
X113887700Y-54921928D01*
X113763218Y-54934188D01*
X113643520Y-54970498D01*
X113533206Y-55029463D01*
X113436515Y-55108815D01*
X113357163Y-55205506D01*
X113298198Y-55315820D01*
X113261888Y-55435518D01*
X113249628Y-55560000D01*
X103873380Y-55560000D01*
X105793381Y-53640000D01*
X121132898Y-53640000D01*
X117176703Y-57596196D01*
G37*
G04 #@! TD.AperFunction*
D15*
X161000648Y-60314029D02*
X161003525Y-61528092D01*
X160979098Y-61608616D01*
X160969041Y-61710725D01*
X160969040Y-64224860D01*
X160532854Y-64224860D01*
X160620944Y-64060055D01*
X160700826Y-63796720D01*
X160721040Y-63591485D01*
X160721040Y-62438235D01*
X160700826Y-62233000D01*
X160620944Y-61969665D01*
X160491223Y-61726973D01*
X160316647Y-61514252D01*
X160103926Y-61339677D01*
X159861234Y-61209956D01*
X159597899Y-61130074D01*
X159324040Y-61103101D01*
X159050180Y-61130074D01*
X158786845Y-61209956D01*
X158544153Y-61339677D01*
X158331432Y-61514253D01*
X158156857Y-61726974D01*
X158054040Y-61919331D01*
X157951223Y-61726973D01*
X157776647Y-61514252D01*
X157563926Y-61339677D01*
X157321234Y-61209956D01*
X157057899Y-61130074D01*
X156784040Y-61103101D01*
X156510180Y-61130074D01*
X156246845Y-61209956D01*
X156004153Y-61339677D01*
X155791432Y-61514253D01*
X155616857Y-61726974D01*
X155514040Y-61919331D01*
X155411223Y-61726973D01*
X155236647Y-61514252D01*
X155023926Y-61339677D01*
X154781234Y-61209956D01*
X154517899Y-61130074D01*
X154244040Y-61103101D01*
X153970180Y-61130074D01*
X153706845Y-61209956D01*
X153464153Y-61339677D01*
X153251432Y-61514253D01*
X153076857Y-61726974D01*
X152974040Y-61919331D01*
X152871223Y-61726973D01*
X152696647Y-61514252D01*
X152483926Y-61339677D01*
X152241234Y-61209956D01*
X151977899Y-61130074D01*
X151704040Y-61103101D01*
X151430180Y-61130074D01*
X151166845Y-61209956D01*
X150924153Y-61339677D01*
X150711432Y-61514253D01*
X150536857Y-61726974D01*
X150434040Y-61919331D01*
X150331223Y-61726973D01*
X150156647Y-61514252D01*
X149943926Y-61339677D01*
X149701234Y-61209956D01*
X149437899Y-61130074D01*
X149164040Y-61103101D01*
X148890180Y-61130074D01*
X148626845Y-61209956D01*
X148384153Y-61339677D01*
X148171432Y-61514253D01*
X147996857Y-61726974D01*
X147894040Y-61919331D01*
X147791223Y-61726973D01*
X147616647Y-61514252D01*
X147403926Y-61339677D01*
X147161234Y-61209956D01*
X146897899Y-61130074D01*
X146624040Y-61103101D01*
X146350180Y-61130074D01*
X146086845Y-61209956D01*
X145961132Y-61277151D01*
X144242804Y-59558823D01*
X144219001Y-59529819D01*
X144103276Y-59434846D01*
X143971247Y-59364274D01*
X143827986Y-59320817D01*
X143716333Y-59309820D01*
X143716322Y-59309820D01*
X143679000Y-59306144D01*
X143641678Y-59309820D01*
X143524368Y-59309820D01*
X143522700Y-59195750D01*
X143363950Y-59037000D01*
X142760700Y-59037000D01*
X142760700Y-59057000D01*
X142614700Y-59057000D01*
X142614700Y-59037000D01*
X142540700Y-59037000D01*
X142540700Y-58783000D01*
X142614700Y-58783000D01*
X142614700Y-57933750D01*
X142760700Y-57933750D01*
X142760700Y-58783000D01*
X143363950Y-58783000D01*
X143522700Y-58624250D01*
X143525652Y-58422388D01*
X143515811Y-58297692D01*
X143481831Y-58177312D01*
X143425020Y-58065874D01*
X143347560Y-57967660D01*
X143252428Y-57886445D01*
X143143279Y-57825350D01*
X143024309Y-57786723D01*
X142919450Y-57775000D01*
X142760700Y-57933750D01*
X142614700Y-57933750D01*
X142455950Y-57775000D01*
X142447700Y-57775922D01*
X142447700Y-55560000D01*
X143849628Y-55560000D01*
X143849628Y-56860000D01*
X143861888Y-56984482D01*
X143898198Y-57104180D01*
X143957163Y-57214494D01*
X144036515Y-57311185D01*
X144133206Y-57390537D01*
X144243520Y-57449502D01*
X144363218Y-57485812D01*
X144487700Y-57498072D01*
X146487700Y-57498072D01*
X146612182Y-57485812D01*
X146731880Y-57449502D01*
X146842194Y-57390537D01*
X146938885Y-57311185D01*
X147018237Y-57214494D01*
X147077202Y-57104180D01*
X147113512Y-56984482D01*
X147125772Y-56860000D01*
X147125772Y-55560000D01*
X147113512Y-55435518D01*
X147077202Y-55315820D01*
X147018237Y-55205506D01*
X146938885Y-55108815D01*
X146842194Y-55029463D01*
X146731880Y-54970498D01*
X146612182Y-54934188D01*
X146487700Y-54921928D01*
X144487700Y-54921928D01*
X144363218Y-54934188D01*
X144243520Y-54970498D01*
X144133206Y-55029463D01*
X144036515Y-55108815D01*
X143957163Y-55205506D01*
X143898198Y-55315820D01*
X143861888Y-55435518D01*
X143849628Y-55560000D01*
X142447700Y-55560000D01*
X142447700Y-54092031D01*
X142451377Y-54054698D01*
X142436703Y-53905712D01*
X142393246Y-53762451D01*
X142327794Y-53640000D01*
X154326620Y-53640000D01*
X161000648Y-60314029D01*
G04 #@! TA.AperFunction,Conductor*
D16*
G36*
X161000648Y-60314029D02*
G01*
X161003525Y-61528092D01*
X160979098Y-61608616D01*
X160969041Y-61710725D01*
X160969040Y-64224860D01*
X160532854Y-64224860D01*
X160620944Y-64060055D01*
X160700826Y-63796720D01*
X160721040Y-63591485D01*
X160721040Y-62438235D01*
X160700826Y-62233000D01*
X160620944Y-61969665D01*
X160491223Y-61726973D01*
X160316647Y-61514252D01*
X160103926Y-61339677D01*
X159861234Y-61209956D01*
X159597899Y-61130074D01*
X159324040Y-61103101D01*
X159050180Y-61130074D01*
X158786845Y-61209956D01*
X158544153Y-61339677D01*
X158331432Y-61514253D01*
X158156857Y-61726974D01*
X158054040Y-61919331D01*
X157951223Y-61726973D01*
X157776647Y-61514252D01*
X157563926Y-61339677D01*
X157321234Y-61209956D01*
X157057899Y-61130074D01*
X156784040Y-61103101D01*
X156510180Y-61130074D01*
X156246845Y-61209956D01*
X156004153Y-61339677D01*
X155791432Y-61514253D01*
X155616857Y-61726974D01*
X155514040Y-61919331D01*
X155411223Y-61726973D01*
X155236647Y-61514252D01*
X155023926Y-61339677D01*
X154781234Y-61209956D01*
X154517899Y-61130074D01*
X154244040Y-61103101D01*
X153970180Y-61130074D01*
X153706845Y-61209956D01*
X153464153Y-61339677D01*
X153251432Y-61514253D01*
X153076857Y-61726974D01*
X152974040Y-61919331D01*
X152871223Y-61726973D01*
X152696647Y-61514252D01*
X152483926Y-61339677D01*
X152241234Y-61209956D01*
X151977899Y-61130074D01*
X151704040Y-61103101D01*
X151430180Y-61130074D01*
X151166845Y-61209956D01*
X150924153Y-61339677D01*
X150711432Y-61514253D01*
X150536857Y-61726974D01*
X150434040Y-61919331D01*
X150331223Y-61726973D01*
X150156647Y-61514252D01*
X149943926Y-61339677D01*
X149701234Y-61209956D01*
X149437899Y-61130074D01*
X149164040Y-61103101D01*
X148890180Y-61130074D01*
X148626845Y-61209956D01*
X148384153Y-61339677D01*
X148171432Y-61514253D01*
X147996857Y-61726974D01*
X147894040Y-61919331D01*
X147791223Y-61726973D01*
X147616647Y-61514252D01*
X147403926Y-61339677D01*
X147161234Y-61209956D01*
X146897899Y-61130074D01*
X146624040Y-61103101D01*
X146350180Y-61130074D01*
X146086845Y-61209956D01*
X145961132Y-61277151D01*
X144242804Y-59558823D01*
X144219001Y-59529819D01*
X144103276Y-59434846D01*
X143971247Y-59364274D01*
X143827986Y-59320817D01*
X143716333Y-59309820D01*
X143716322Y-59309820D01*
X143679000Y-59306144D01*
X143641678Y-59309820D01*
X143524368Y-59309820D01*
X143522700Y-59195750D01*
X143363950Y-59037000D01*
X142760700Y-59037000D01*
X142760700Y-59057000D01*
X142614700Y-59057000D01*
X142614700Y-59037000D01*
X142540700Y-59037000D01*
X142540700Y-58783000D01*
X142614700Y-58783000D01*
X142614700Y-57933750D01*
X142760700Y-57933750D01*
X142760700Y-58783000D01*
X143363950Y-58783000D01*
X143522700Y-58624250D01*
X143525652Y-58422388D01*
X143515811Y-58297692D01*
X143481831Y-58177312D01*
X143425020Y-58065874D01*
X143347560Y-57967660D01*
X143252428Y-57886445D01*
X143143279Y-57825350D01*
X143024309Y-57786723D01*
X142919450Y-57775000D01*
X142760700Y-57933750D01*
X142614700Y-57933750D01*
X142455950Y-57775000D01*
X142447700Y-57775922D01*
X142447700Y-55560000D01*
X143849628Y-55560000D01*
X143849628Y-56860000D01*
X143861888Y-56984482D01*
X143898198Y-57104180D01*
X143957163Y-57214494D01*
X144036515Y-57311185D01*
X144133206Y-57390537D01*
X144243520Y-57449502D01*
X144363218Y-57485812D01*
X144487700Y-57498072D01*
X146487700Y-57498072D01*
X146612182Y-57485812D01*
X146731880Y-57449502D01*
X146842194Y-57390537D01*
X146938885Y-57311185D01*
X147018237Y-57214494D01*
X147077202Y-57104180D01*
X147113512Y-56984482D01*
X147125772Y-56860000D01*
X147125772Y-55560000D01*
X147113512Y-55435518D01*
X147077202Y-55315820D01*
X147018237Y-55205506D01*
X146938885Y-55108815D01*
X146842194Y-55029463D01*
X146731880Y-54970498D01*
X146612182Y-54934188D01*
X146487700Y-54921928D01*
X144487700Y-54921928D01*
X144363218Y-54934188D01*
X144243520Y-54970498D01*
X144133206Y-55029463D01*
X144036515Y-55108815D01*
X143957163Y-55205506D01*
X143898198Y-55315820D01*
X143861888Y-55435518D01*
X143849628Y-55560000D01*
X142447700Y-55560000D01*
X142447700Y-54092031D01*
X142451377Y-54054698D01*
X142436703Y-53905712D01*
X142393246Y-53762451D01*
X142327794Y-53640000D01*
X154326620Y-53640000D01*
X161000648Y-60314029D01*
G37*
G04 #@! TD.AperFunction*
D15*
X106111040Y-62887860D02*
X106131040Y-62887860D01*
X106131040Y-63141860D01*
X106111040Y-63141860D01*
X106111040Y-63161860D01*
X105857040Y-63161860D01*
X105857040Y-63141860D01*
X105837040Y-63141860D01*
X105837040Y-62887860D01*
X105857040Y-62887860D01*
X105857040Y-62867860D01*
X106111040Y-62867860D01*
X106111040Y-62887860D01*
G04 #@! TA.AperFunction,Conductor*
D16*
G36*
X106111040Y-62887860D02*
G01*
X106131040Y-62887860D01*
X106131040Y-63141860D01*
X106111040Y-63141860D01*
X106111040Y-63161860D01*
X105857040Y-63161860D01*
X105857040Y-63141860D01*
X105837040Y-63141860D01*
X105837040Y-62887860D01*
X105857040Y-62887860D01*
X105857040Y-62867860D01*
X106111040Y-62867860D01*
X106111040Y-62887860D01*
G37*
G04 #@! TD.AperFunction*
D15*
X139010226Y-54276063D02*
X138866063Y-54420226D01*
X138752795Y-54589744D01*
X138674774Y-54778102D01*
X138637167Y-54967167D01*
X138448102Y-55004774D01*
X138259744Y-55082795D01*
X138090226Y-55196063D01*
X137946063Y-55340226D01*
X137832795Y-55509744D01*
X137754774Y-55698102D01*
X137729533Y-55825000D01*
X137588061Y-55825000D01*
X137388102Y-55864774D01*
X137199744Y-55942795D01*
X137030226Y-56056063D01*
X136886063Y-56200226D01*
X136772795Y-56369744D01*
X136694774Y-56558102D01*
X136679478Y-56635000D01*
X136568061Y-56635000D01*
X136368102Y-56674774D01*
X136179744Y-56752795D01*
X136010226Y-56866063D01*
X135866063Y-57010226D01*
X135752795Y-57179744D01*
X135674774Y-57368102D01*
X135635000Y-57568061D01*
X135635000Y-57771928D01*
X135487700Y-57771928D01*
X135363218Y-57784188D01*
X135243520Y-57820498D01*
X135187700Y-57850335D01*
X135131880Y-57820498D01*
X135012182Y-57784188D01*
X134887700Y-57771928D01*
X134487700Y-57771928D01*
X134363218Y-57784188D01*
X134243520Y-57820498D01*
X134187700Y-57850335D01*
X134131880Y-57820498D01*
X134012182Y-57784188D01*
X133887700Y-57771928D01*
X133487700Y-57771928D01*
X133363218Y-57784188D01*
X133243520Y-57820498D01*
X133187700Y-57850335D01*
X133131880Y-57820498D01*
X133012182Y-57784188D01*
X132887700Y-57771928D01*
X132487700Y-57771928D01*
X132363218Y-57784188D01*
X132243520Y-57820498D01*
X132187700Y-57850335D01*
X132131880Y-57820498D01*
X132012182Y-57784188D01*
X131887700Y-57771928D01*
X131487700Y-57771928D01*
X131363218Y-57784188D01*
X131243520Y-57820498D01*
X131187700Y-57850335D01*
X131131880Y-57820498D01*
X131012182Y-57784188D01*
X130887700Y-57771928D01*
X130487700Y-57771928D01*
X130363218Y-57784188D01*
X130243520Y-57820498D01*
X130187700Y-57850335D01*
X130131880Y-57820498D01*
X130012182Y-57784188D01*
X129887700Y-57771928D01*
X129487700Y-57771928D01*
X129363218Y-57784188D01*
X129243520Y-57820498D01*
X129187700Y-57850335D01*
X129131880Y-57820498D01*
X129012182Y-57784188D01*
X128887700Y-57771928D01*
X128487700Y-57771928D01*
X128363218Y-57784188D01*
X128243520Y-57820498D01*
X128187700Y-57850335D01*
X128131880Y-57820498D01*
X128012182Y-57784188D01*
X127887700Y-57771928D01*
X127487700Y-57771928D01*
X127363218Y-57784188D01*
X127243520Y-57820498D01*
X127187700Y-57850335D01*
X127131880Y-57820498D01*
X127012182Y-57784188D01*
X126887700Y-57771928D01*
X126487700Y-57771928D01*
X126363218Y-57784188D01*
X126243520Y-57820498D01*
X126187700Y-57850335D01*
X126131880Y-57820498D01*
X126012182Y-57784188D01*
X125887700Y-57771928D01*
X125705060Y-57771928D01*
X125715003Y-57721939D01*
X125715003Y-57518061D01*
X125675229Y-57318102D01*
X125597208Y-57129744D01*
X125483940Y-56960226D01*
X125339777Y-56816063D01*
X125170259Y-56702795D01*
X124981901Y-56624774D01*
X124781942Y-56585000D01*
X124578064Y-56585000D01*
X124378105Y-56624774D01*
X124189747Y-56702795D01*
X124180002Y-56709307D01*
X124170256Y-56702795D01*
X123981898Y-56624774D01*
X123781939Y-56585000D01*
X123578061Y-56585000D01*
X123378102Y-56624774D01*
X123189744Y-56702795D01*
X123087585Y-56771055D01*
X123060256Y-56752795D01*
X122871898Y-56674774D01*
X122671939Y-56635000D01*
X122468061Y-56635000D01*
X122268102Y-56674774D01*
X122079744Y-56752795D01*
X121910226Y-56866063D01*
X121766063Y-57010226D01*
X121652795Y-57179744D01*
X121574774Y-57368102D01*
X121535000Y-57568061D01*
X121535000Y-57771928D01*
X121487700Y-57771928D01*
X121363218Y-57784188D01*
X121243520Y-57820498D01*
X121187700Y-57850335D01*
X121131880Y-57820498D01*
X121012182Y-57784188D01*
X120887700Y-57771928D01*
X120487700Y-57771928D01*
X120363218Y-57784188D01*
X120243520Y-57820498D01*
X120187810Y-57850276D01*
X120143279Y-57825350D01*
X120024309Y-57786723D01*
X119919450Y-57775000D01*
X119760700Y-57933750D01*
X119760700Y-58783000D01*
X119834700Y-58783000D01*
X119834700Y-59037000D01*
X119760700Y-59037000D01*
X119760700Y-59057000D01*
X119614700Y-59057000D01*
X119614700Y-59037000D01*
X119540700Y-59037000D01*
X119540700Y-58783000D01*
X119614700Y-58783000D01*
X119614700Y-57933750D01*
X119455950Y-57775000D01*
X119351091Y-57786723D01*
X119232121Y-57825350D01*
X119187590Y-57850276D01*
X119131880Y-57820498D01*
X119108957Y-57813544D01*
X122717503Y-54204999D01*
X139116581Y-54204999D01*
X139010226Y-54276063D01*
G04 #@! TA.AperFunction,Conductor*
D16*
G36*
X139010226Y-54276063D02*
G01*
X138866063Y-54420226D01*
X138752795Y-54589744D01*
X138674774Y-54778102D01*
X138637167Y-54967167D01*
X138448102Y-55004774D01*
X138259744Y-55082795D01*
X138090226Y-55196063D01*
X137946063Y-55340226D01*
X137832795Y-55509744D01*
X137754774Y-55698102D01*
X137729533Y-55825000D01*
X137588061Y-55825000D01*
X137388102Y-55864774D01*
X137199744Y-55942795D01*
X137030226Y-56056063D01*
X136886063Y-56200226D01*
X136772795Y-56369744D01*
X136694774Y-56558102D01*
X136679478Y-56635000D01*
X136568061Y-56635000D01*
X136368102Y-56674774D01*
X136179744Y-56752795D01*
X136010226Y-56866063D01*
X135866063Y-57010226D01*
X135752795Y-57179744D01*
X135674774Y-57368102D01*
X135635000Y-57568061D01*
X135635000Y-57771928D01*
X135487700Y-57771928D01*
X135363218Y-57784188D01*
X135243520Y-57820498D01*
X135187700Y-57850335D01*
X135131880Y-57820498D01*
X135012182Y-57784188D01*
X134887700Y-57771928D01*
X134487700Y-57771928D01*
X134363218Y-57784188D01*
X134243520Y-57820498D01*
X134187700Y-57850335D01*
X134131880Y-57820498D01*
X134012182Y-57784188D01*
X133887700Y-57771928D01*
X133487700Y-57771928D01*
X133363218Y-57784188D01*
X133243520Y-57820498D01*
X133187700Y-57850335D01*
X133131880Y-57820498D01*
X133012182Y-57784188D01*
X132887700Y-57771928D01*
X132487700Y-57771928D01*
X132363218Y-57784188D01*
X132243520Y-57820498D01*
X132187700Y-57850335D01*
X132131880Y-57820498D01*
X132012182Y-57784188D01*
X131887700Y-57771928D01*
X131487700Y-57771928D01*
X131363218Y-57784188D01*
X131243520Y-57820498D01*
X131187700Y-57850335D01*
X131131880Y-57820498D01*
X131012182Y-57784188D01*
X130887700Y-57771928D01*
X130487700Y-57771928D01*
X130363218Y-57784188D01*
X130243520Y-57820498D01*
X130187700Y-57850335D01*
X130131880Y-57820498D01*
X130012182Y-57784188D01*
X129887700Y-57771928D01*
X129487700Y-57771928D01*
X129363218Y-57784188D01*
X129243520Y-57820498D01*
X129187700Y-57850335D01*
X129131880Y-57820498D01*
X129012182Y-57784188D01*
X128887700Y-57771928D01*
X128487700Y-57771928D01*
X128363218Y-57784188D01*
X128243520Y-57820498D01*
X128187700Y-57850335D01*
X128131880Y-57820498D01*
X128012182Y-57784188D01*
X127887700Y-57771928D01*
X127487700Y-57771928D01*
X127363218Y-57784188D01*
X127243520Y-57820498D01*
X127187700Y-57850335D01*
X127131880Y-57820498D01*
X127012182Y-57784188D01*
X126887700Y-57771928D01*
X126487700Y-57771928D01*
X126363218Y-57784188D01*
X126243520Y-57820498D01*
X126187700Y-57850335D01*
X126131880Y-57820498D01*
X126012182Y-57784188D01*
X125887700Y-57771928D01*
X125705060Y-57771928D01*
X125715003Y-57721939D01*
X125715003Y-57518061D01*
X125675229Y-57318102D01*
X125597208Y-57129744D01*
X125483940Y-56960226D01*
X125339777Y-56816063D01*
X125170259Y-56702795D01*
X124981901Y-56624774D01*
X124781942Y-56585000D01*
X124578064Y-56585000D01*
X124378105Y-56624774D01*
X124189747Y-56702795D01*
X124180002Y-56709307D01*
X124170256Y-56702795D01*
X123981898Y-56624774D01*
X123781939Y-56585000D01*
X123578061Y-56585000D01*
X123378102Y-56624774D01*
X123189744Y-56702795D01*
X123087585Y-56771055D01*
X123060256Y-56752795D01*
X122871898Y-56674774D01*
X122671939Y-56635000D01*
X122468061Y-56635000D01*
X122268102Y-56674774D01*
X122079744Y-56752795D01*
X121910226Y-56866063D01*
X121766063Y-57010226D01*
X121652795Y-57179744D01*
X121574774Y-57368102D01*
X121535000Y-57568061D01*
X121535000Y-57771928D01*
X121487700Y-57771928D01*
X121363218Y-57784188D01*
X121243520Y-57820498D01*
X121187700Y-57850335D01*
X121131880Y-57820498D01*
X121012182Y-57784188D01*
X120887700Y-57771928D01*
X120487700Y-57771928D01*
X120363218Y-57784188D01*
X120243520Y-57820498D01*
X120187810Y-57850276D01*
X120143279Y-57825350D01*
X120024309Y-57786723D01*
X119919450Y-57775000D01*
X119760700Y-57933750D01*
X119760700Y-58783000D01*
X119834700Y-58783000D01*
X119834700Y-59037000D01*
X119760700Y-59037000D01*
X119760700Y-59057000D01*
X119614700Y-59057000D01*
X119614700Y-59037000D01*
X119540700Y-59037000D01*
X119540700Y-58783000D01*
X119614700Y-58783000D01*
X119614700Y-57933750D01*
X119455950Y-57775000D01*
X119351091Y-57786723D01*
X119232121Y-57825350D01*
X119187590Y-57850276D01*
X119131880Y-57820498D01*
X119108957Y-57813544D01*
X122717503Y-54204999D01*
X139116581Y-54204999D01*
X139010226Y-54276063D01*
G37*
G04 #@! TD.AperFunction*
M02*
