M48
; DRILL file {KiCad (5.1.10)-1} date 07/11/21 17:05:39
; FORMAT={-:-/ absolute / metric / decimal}
; #@! TF.CreationDate,2021-07-11T17:05:39-07:00
; #@! TF.GenerationSoftware,Kicad,Pcbnew,(5.1.10)-1
; #@! TF.FileFunction,Plated,1,2,PTH
FMAT,2
METRIC
T1C0.900
T2C1.000
T3C1.500
%
G90
G05
T1
X29.36Y-143.2
X31.9Y-143.2
T2
X277.25Y-48.45
X279.79Y-48.45
X282.33Y-48.45
X284.87Y-48.45
X287.41Y-48.45
X289.95Y-48.45
X292.49Y-48.45
X295.03Y-48.45
X297.57Y-48.45
X300.11Y-48.45
X302.65Y-48.45
X305.19Y-48.45
X307.73Y-48.45
X310.27Y-48.45
X312.81Y-48.45
X315.35Y-48.45
X317.89Y-48.45
X320.43Y-48.45
X322.97Y-48.45
X325.51Y-48.45
X328.05Y-48.45
X330.59Y-48.45
X333.13Y-48.45
X335.67Y-48.45
T3
X49.95Y-61.52
X54.71Y-80.62
X56.3Y-58.98
X56.99Y-99.69
X61.06Y-78.08
X61.8Y-118.79
X63.34Y-97.15
X68.15Y-116.25
X68.95Y-61.52
X75.3Y-58.98
X78.41Y-80.62
X83.19Y-99.69
X84.76Y-78.08
X87.95Y-61.52
X89.54Y-97.15
X92.65Y-118.79
X94.3Y-58.98
X97.41Y-80.62
X99.0Y-116.25
X102.19Y-99.69
X103.76Y-78.08
X106.95Y-61.52
X108.54Y-97.15
X111.65Y-118.79
X113.3Y-58.98
X116.41Y-80.62
X118.0Y-116.25
X121.19Y-99.69
X122.76Y-78.08
X125.95Y-61.52
X127.54Y-97.15
X130.65Y-118.79
X132.3Y-58.98
X135.41Y-80.62
X137.0Y-116.25
X140.19Y-99.69
X141.76Y-78.08
X144.95Y-61.52
X146.54Y-97.15
X149.65Y-118.79
X151.3Y-58.98
X154.41Y-80.62
X156.0Y-116.25
X159.19Y-99.69
X160.76Y-78.08
X163.95Y-61.52
X165.54Y-97.15
X168.65Y-118.79
X170.3Y-58.98
X173.41Y-80.62
X175.0Y-116.25
X178.19Y-99.69
X179.76Y-78.08
X182.95Y-61.52
X183.05Y-137.84
X184.54Y-97.15
X187.65Y-118.79
X189.3Y-58.98
X189.4Y-135.3
X192.41Y-80.62
X194.0Y-116.25
X197.19Y-99.69
X198.76Y-78.08
X201.95Y-61.52
X203.54Y-97.15
X206.65Y-118.79
X207.35Y-30.07
X208.3Y-58.98
X211.41Y-80.62
X213.0Y-116.25
X213.7Y-27.53
X216.19Y-99.69
X217.76Y-78.08
X220.95Y-61.52
X222.54Y-97.15
X225.65Y-118.79
X227.3Y-58.98
X230.41Y-80.62
X232.0Y-116.25
X235.19Y-99.69
X235.85Y-30.07
X236.76Y-78.08
X239.95Y-61.52
X241.54Y-97.15
X242.2Y-27.53
X244.65Y-118.79
X246.3Y-58.98
X249.41Y-80.62
X251.0Y-116.25
X254.19Y-99.69
X255.76Y-78.08
X258.95Y-61.52
X260.54Y-97.15
X263.65Y-118.79
X264.35Y-30.07
X265.3Y-58.98
X268.41Y-80.62
X270.0Y-116.25
X270.7Y-27.53
X273.19Y-99.69
X274.76Y-78.08
X277.95Y-61.52
X279.54Y-97.15
X284.3Y-58.98
X287.41Y-80.62
X289.775Y-118.79
X292.19Y-99.69
X292.85Y-30.07
X293.76Y-78.08
X296.125Y-116.25
X296.95Y-61.52
X298.54Y-97.15
X299.2Y-27.53
X303.3Y-58.98
X311.21Y-80.62
X313.59Y-99.69
X315.95Y-61.52
X315.95Y-118.79
X317.56Y-78.08
X319.94Y-97.15
X321.35Y-30.07
X322.3Y-58.98
X322.3Y-116.25
X327.7Y-27.53
T0
M30
