%TF.GenerationSoftware,KiCad,Pcbnew,(5.1.9)-1*%
%TF.CreationDate,2021-05-03T00:03:20-07:00*%
%TF.ProjectId,Atari130MX,41746172-6931-4333-904d-582e6b696361,rev?*%
%TF.SameCoordinates,Original*%
%TF.FileFunction,Legend,Top*%
%TF.FilePolarity,Positive*%
%FSLAX46Y46*%
G04 Gerber Fmt 4.6, Leading zero omitted, Abs format (unit mm)*
G04 Created by KiCad (PCBNEW (5.1.9)-1) date 2021-05-03 00:03:20*
%MOMM*%
%LPD*%
G01*
G04 APERTURE LIST*
%ADD10C,0.150000*%
%ADD11C,0.090000*%
%ADD12C,0.120000*%
%ADD13C,0.200000*%
G04 APERTURE END LIST*
D10*
X45461309Y-134728333D02*
X45413690Y-134680714D01*
X45318452Y-134537857D01*
X45270833Y-134442619D01*
X45223214Y-134299761D01*
X45175595Y-134061666D01*
X45175595Y-133871190D01*
X45223214Y-133633095D01*
X45270833Y-133490238D01*
X45318452Y-133395000D01*
X45413690Y-133252142D01*
X45461309Y-133204523D01*
X46270833Y-134299761D02*
X46175595Y-134347380D01*
X45985119Y-134347380D01*
X45889880Y-134299761D01*
X45842261Y-134252142D01*
X45794642Y-134156904D01*
X45794642Y-133871190D01*
X45842261Y-133775952D01*
X45889880Y-133728333D01*
X45985119Y-133680714D01*
X46175595Y-133680714D01*
X46270833Y-133728333D01*
X46604166Y-134728333D02*
X46651785Y-134680714D01*
X46747023Y-134537857D01*
X46794642Y-134442619D01*
X46842261Y-134299761D01*
X46889880Y-134061666D01*
X46889880Y-133871190D01*
X46842261Y-133633095D01*
X46794642Y-133490238D01*
X46747023Y-133395000D01*
X46651785Y-133252142D01*
X46604166Y-133204523D01*
X48461309Y-133823571D02*
X48604166Y-133871190D01*
X48651785Y-133918809D01*
X48699404Y-134014047D01*
X48699404Y-134156904D01*
X48651785Y-134252142D01*
X48604166Y-134299761D01*
X48508928Y-134347380D01*
X48127976Y-134347380D01*
X48127976Y-133347380D01*
X48461309Y-133347380D01*
X48556547Y-133395000D01*
X48604166Y-133442619D01*
X48651785Y-133537857D01*
X48651785Y-133633095D01*
X48604166Y-133728333D01*
X48556547Y-133775952D01*
X48461309Y-133823571D01*
X48127976Y-133823571D01*
X49508928Y-134299761D02*
X49413690Y-134347380D01*
X49223214Y-134347380D01*
X49127976Y-134299761D01*
X49080357Y-134204523D01*
X49080357Y-133823571D01*
X49127976Y-133728333D01*
X49223214Y-133680714D01*
X49413690Y-133680714D01*
X49508928Y-133728333D01*
X49556547Y-133823571D01*
X49556547Y-133918809D01*
X49080357Y-134014047D01*
X49985119Y-134347380D02*
X49985119Y-133680714D01*
X49985119Y-133871190D02*
X50032738Y-133775952D01*
X50080357Y-133728333D01*
X50175595Y-133680714D01*
X50270833Y-133680714D01*
X50461309Y-133680714D02*
X50842261Y-133680714D01*
X50604166Y-133347380D02*
X50604166Y-134204523D01*
X50651785Y-134299761D01*
X50747023Y-134347380D01*
X50842261Y-134347380D01*
X51175595Y-134347380D02*
X51175595Y-133680714D01*
X51175595Y-133871190D02*
X51223214Y-133775952D01*
X51270833Y-133728333D01*
X51366071Y-133680714D01*
X51461309Y-133680714D01*
X52223214Y-134347380D02*
X52223214Y-133823571D01*
X52175595Y-133728333D01*
X52080357Y-133680714D01*
X51889880Y-133680714D01*
X51794642Y-133728333D01*
X52223214Y-134299761D02*
X52127976Y-134347380D01*
X51889880Y-134347380D01*
X51794642Y-134299761D01*
X51747023Y-134204523D01*
X51747023Y-134109285D01*
X51794642Y-134014047D01*
X51889880Y-133966428D01*
X52127976Y-133966428D01*
X52223214Y-133918809D01*
X52699404Y-133680714D02*
X52699404Y-134347380D01*
X52699404Y-133775952D02*
X52747023Y-133728333D01*
X52842261Y-133680714D01*
X52985119Y-133680714D01*
X53080357Y-133728333D01*
X53127976Y-133823571D01*
X53127976Y-134347380D01*
X54032738Y-134347380D02*
X54032738Y-133347380D01*
X54032738Y-134299761D02*
X53937500Y-134347380D01*
X53747023Y-134347380D01*
X53651785Y-134299761D01*
X53604166Y-134252142D01*
X53556547Y-134156904D01*
X53556547Y-133871190D01*
X53604166Y-133775952D01*
X53651785Y-133728333D01*
X53747023Y-133680714D01*
X53937500Y-133680714D01*
X54032738Y-133728333D01*
X55747023Y-134347380D02*
X55270833Y-134347380D01*
X55270833Y-133347380D01*
X56461309Y-134299761D02*
X56366071Y-134347380D01*
X56175595Y-134347380D01*
X56080357Y-134299761D01*
X56032738Y-134204523D01*
X56032738Y-133823571D01*
X56080357Y-133728333D01*
X56175595Y-133680714D01*
X56366071Y-133680714D01*
X56461309Y-133728333D01*
X56508928Y-133823571D01*
X56508928Y-133918809D01*
X56032738Y-134014047D01*
X58270833Y-134347380D02*
X57937500Y-133871190D01*
X57699404Y-134347380D02*
X57699404Y-133347380D01*
X58080357Y-133347380D01*
X58175595Y-133395000D01*
X58223214Y-133442619D01*
X58270833Y-133537857D01*
X58270833Y-133680714D01*
X58223214Y-133775952D01*
X58175595Y-133823571D01*
X58080357Y-133871190D01*
X57699404Y-133871190D01*
X58842261Y-134347380D02*
X58747023Y-134299761D01*
X58699404Y-134252142D01*
X58651785Y-134156904D01*
X58651785Y-133871190D01*
X58699404Y-133775952D01*
X58747023Y-133728333D01*
X58842261Y-133680714D01*
X58985119Y-133680714D01*
X59080357Y-133728333D01*
X59127976Y-133775952D01*
X59175595Y-133871190D01*
X59175595Y-134156904D01*
X59127976Y-134252142D01*
X59080357Y-134299761D01*
X58985119Y-134347380D01*
X58842261Y-134347380D01*
X59508928Y-133680714D02*
X59747023Y-134347380D01*
X59985119Y-133680714D02*
X59747023Y-134347380D01*
X59651785Y-134585476D01*
X59604166Y-134633095D01*
X59508928Y-134680714D01*
X61080357Y-133442619D02*
X61127976Y-133395000D01*
X61223214Y-133347380D01*
X61461309Y-133347380D01*
X61556547Y-133395000D01*
X61604166Y-133442619D01*
X61651785Y-133537857D01*
X61651785Y-133633095D01*
X61604166Y-133775952D01*
X61032738Y-134347380D01*
X61651785Y-134347380D01*
X62270833Y-133347380D02*
X62366071Y-133347380D01*
X62461309Y-133395000D01*
X62508928Y-133442619D01*
X62556547Y-133537857D01*
X62604166Y-133728333D01*
X62604166Y-133966428D01*
X62556547Y-134156904D01*
X62508928Y-134252142D01*
X62461309Y-134299761D01*
X62366071Y-134347380D01*
X62270833Y-134347380D01*
X62175595Y-134299761D01*
X62127976Y-134252142D01*
X62080357Y-134156904D01*
X62032738Y-133966428D01*
X62032738Y-133728333D01*
X62080357Y-133537857D01*
X62127976Y-133442619D01*
X62175595Y-133395000D01*
X62270833Y-133347380D01*
X62985119Y-133442619D02*
X63032738Y-133395000D01*
X63127976Y-133347380D01*
X63366071Y-133347380D01*
X63461309Y-133395000D01*
X63508928Y-133442619D01*
X63556547Y-133537857D01*
X63556547Y-133633095D01*
X63508928Y-133775952D01*
X62937500Y-134347380D01*
X63556547Y-134347380D01*
X64508928Y-134347380D02*
X63937500Y-134347380D01*
X64223214Y-134347380D02*
X64223214Y-133347380D01*
X64127976Y-133490238D01*
X64032738Y-133585476D01*
X63937500Y-133633095D01*
X45175595Y-135997380D02*
X45175595Y-134997380D01*
X45604166Y-135997380D02*
X45604166Y-135473571D01*
X45556547Y-135378333D01*
X45461309Y-135330714D01*
X45318452Y-135330714D01*
X45223214Y-135378333D01*
X45175595Y-135425952D01*
X45937500Y-135330714D02*
X46318452Y-135330714D01*
X46080357Y-134997380D02*
X46080357Y-135854523D01*
X46127976Y-135949761D01*
X46223214Y-135997380D01*
X46318452Y-135997380D01*
X46508928Y-135330714D02*
X46889880Y-135330714D01*
X46651785Y-134997380D02*
X46651785Y-135854523D01*
X46699404Y-135949761D01*
X46794642Y-135997380D01*
X46889880Y-135997380D01*
X47223214Y-135330714D02*
X47223214Y-136330714D01*
X47223214Y-135378333D02*
X47318452Y-135330714D01*
X47508928Y-135330714D01*
X47604166Y-135378333D01*
X47651785Y-135425952D01*
X47699404Y-135521190D01*
X47699404Y-135806904D01*
X47651785Y-135902142D01*
X47604166Y-135949761D01*
X47508928Y-135997380D01*
X47318452Y-135997380D01*
X47223214Y-135949761D01*
X48080357Y-135949761D02*
X48175595Y-135997380D01*
X48366071Y-135997380D01*
X48461309Y-135949761D01*
X48508928Y-135854523D01*
X48508928Y-135806904D01*
X48461309Y-135711666D01*
X48366071Y-135664047D01*
X48223214Y-135664047D01*
X48127976Y-135616428D01*
X48080357Y-135521190D01*
X48080357Y-135473571D01*
X48127976Y-135378333D01*
X48223214Y-135330714D01*
X48366071Y-135330714D01*
X48461309Y-135378333D01*
X48937500Y-135902142D02*
X48985119Y-135949761D01*
X48937500Y-135997380D01*
X48889880Y-135949761D01*
X48937500Y-135902142D01*
X48937500Y-135997380D01*
X48937500Y-135378333D02*
X48985119Y-135425952D01*
X48937500Y-135473571D01*
X48889880Y-135425952D01*
X48937500Y-135378333D01*
X48937500Y-135473571D01*
X50127976Y-134949761D02*
X49270833Y-136235476D01*
X51175595Y-134949761D02*
X50318452Y-136235476D01*
X51937500Y-135330714D02*
X51937500Y-136140238D01*
X51889880Y-136235476D01*
X51842261Y-136283095D01*
X51747023Y-136330714D01*
X51604166Y-136330714D01*
X51508928Y-136283095D01*
X51937500Y-135949761D02*
X51842261Y-135997380D01*
X51651785Y-135997380D01*
X51556547Y-135949761D01*
X51508928Y-135902142D01*
X51461309Y-135806904D01*
X51461309Y-135521190D01*
X51508928Y-135425952D01*
X51556547Y-135378333D01*
X51651785Y-135330714D01*
X51842261Y-135330714D01*
X51937500Y-135378333D01*
X52413690Y-135997380D02*
X52413690Y-135330714D01*
X52413690Y-134997380D02*
X52366071Y-135045000D01*
X52413690Y-135092619D01*
X52461309Y-135045000D01*
X52413690Y-134997380D01*
X52413690Y-135092619D01*
X52747023Y-135330714D02*
X53127976Y-135330714D01*
X52889880Y-134997380D02*
X52889880Y-135854523D01*
X52937500Y-135949761D01*
X53032738Y-135997380D01*
X53127976Y-135997380D01*
X53461309Y-135997380D02*
X53461309Y-134997380D01*
X53889880Y-135997380D02*
X53889880Y-135473571D01*
X53842261Y-135378333D01*
X53747023Y-135330714D01*
X53604166Y-135330714D01*
X53508928Y-135378333D01*
X53461309Y-135425952D01*
X54794642Y-135330714D02*
X54794642Y-135997380D01*
X54366071Y-135330714D02*
X54366071Y-135854523D01*
X54413690Y-135949761D01*
X54508928Y-135997380D01*
X54651785Y-135997380D01*
X54747023Y-135949761D01*
X54794642Y-135902142D01*
X55270833Y-135997380D02*
X55270833Y-134997380D01*
X55270833Y-135378333D02*
X55366071Y-135330714D01*
X55556547Y-135330714D01*
X55651785Y-135378333D01*
X55699404Y-135425952D01*
X55747023Y-135521190D01*
X55747023Y-135806904D01*
X55699404Y-135902142D01*
X55651785Y-135949761D01*
X55556547Y-135997380D01*
X55366071Y-135997380D01*
X55270833Y-135949761D01*
X56175595Y-135902142D02*
X56223214Y-135949761D01*
X56175595Y-135997380D01*
X56127976Y-135949761D01*
X56175595Y-135902142D01*
X56175595Y-135997380D01*
X57080357Y-135949761D02*
X56985119Y-135997380D01*
X56794642Y-135997380D01*
X56699404Y-135949761D01*
X56651785Y-135902142D01*
X56604166Y-135806904D01*
X56604166Y-135521190D01*
X56651785Y-135425952D01*
X56699404Y-135378333D01*
X56794642Y-135330714D01*
X56985119Y-135330714D01*
X57080357Y-135378333D01*
X57651785Y-135997380D02*
X57556547Y-135949761D01*
X57508928Y-135902142D01*
X57461309Y-135806904D01*
X57461309Y-135521190D01*
X57508928Y-135425952D01*
X57556547Y-135378333D01*
X57651785Y-135330714D01*
X57794642Y-135330714D01*
X57889880Y-135378333D01*
X57937500Y-135425952D01*
X57985119Y-135521190D01*
X57985119Y-135806904D01*
X57937500Y-135902142D01*
X57889880Y-135949761D01*
X57794642Y-135997380D01*
X57651785Y-135997380D01*
X58413690Y-135997380D02*
X58413690Y-135330714D01*
X58413690Y-135425952D02*
X58461309Y-135378333D01*
X58556547Y-135330714D01*
X58699404Y-135330714D01*
X58794642Y-135378333D01*
X58842261Y-135473571D01*
X58842261Y-135997380D01*
X58842261Y-135473571D02*
X58889880Y-135378333D01*
X58985119Y-135330714D01*
X59127976Y-135330714D01*
X59223214Y-135378333D01*
X59270833Y-135473571D01*
X59270833Y-135997380D01*
X60461309Y-134949761D02*
X59604166Y-136235476D01*
X60794642Y-135997380D02*
X60794642Y-134997380D01*
X60794642Y-135378333D02*
X60889880Y-135330714D01*
X61080357Y-135330714D01*
X61175595Y-135378333D01*
X61223214Y-135425952D01*
X61270833Y-135521190D01*
X61270833Y-135806904D01*
X61223214Y-135902142D01*
X61175595Y-135949761D01*
X61080357Y-135997380D01*
X60889880Y-135997380D01*
X60794642Y-135949761D01*
X61842261Y-135997380D02*
X61747023Y-135949761D01*
X61699404Y-135854523D01*
X61699404Y-134997380D01*
X62604166Y-135949761D02*
X62508928Y-135997380D01*
X62318452Y-135997380D01*
X62223214Y-135949761D01*
X62175595Y-135854523D01*
X62175595Y-135473571D01*
X62223214Y-135378333D01*
X62318452Y-135330714D01*
X62508928Y-135330714D01*
X62604166Y-135378333D01*
X62651785Y-135473571D01*
X62651785Y-135568809D01*
X62175595Y-135664047D01*
X63080357Y-135997380D02*
X63080357Y-135330714D01*
X63080357Y-135521190D02*
X63127976Y-135425952D01*
X63175595Y-135378333D01*
X63270833Y-135330714D01*
X63366071Y-135330714D01*
X63842261Y-135997380D02*
X63747023Y-135949761D01*
X63699404Y-135902142D01*
X63651785Y-135806904D01*
X63651785Y-135521190D01*
X63699404Y-135425952D01*
X63747023Y-135378333D01*
X63842261Y-135330714D01*
X63985119Y-135330714D01*
X64080357Y-135378333D01*
X64127976Y-135425952D01*
X64175595Y-135521190D01*
X64175595Y-135806904D01*
X64127976Y-135902142D01*
X64080357Y-135949761D01*
X63985119Y-135997380D01*
X63842261Y-135997380D01*
X64508928Y-135330714D02*
X64747023Y-135997380D01*
X64985119Y-135330714D02*
X64747023Y-135997380D01*
X64651785Y-136235476D01*
X64604166Y-136283095D01*
X64508928Y-136330714D01*
X66080357Y-134949761D02*
X65223214Y-136235476D01*
X66318452Y-134997380D02*
X66937500Y-134997380D01*
X66604166Y-135378333D01*
X66747023Y-135378333D01*
X66842261Y-135425952D01*
X66889880Y-135473571D01*
X66937500Y-135568809D01*
X66937500Y-135806904D01*
X66889880Y-135902142D01*
X66842261Y-135949761D01*
X66747023Y-135997380D01*
X66461309Y-135997380D01*
X66366071Y-135949761D01*
X66318452Y-135902142D01*
X67794642Y-135997380D02*
X67794642Y-134997380D01*
X67794642Y-135949761D02*
X67699404Y-135997380D01*
X67508928Y-135997380D01*
X67413690Y-135949761D01*
X67366071Y-135902142D01*
X67318452Y-135806904D01*
X67318452Y-135521190D01*
X67366071Y-135425952D01*
X67413690Y-135378333D01*
X67508928Y-135330714D01*
X67699404Y-135330714D01*
X67794642Y-135378333D01*
X68270833Y-135616428D02*
X69032738Y-135616428D01*
X69508928Y-135330714D02*
X69508928Y-136187857D01*
X69461309Y-136283095D01*
X69366071Y-136330714D01*
X69318452Y-136330714D01*
X69508928Y-134997380D02*
X69461309Y-135045000D01*
X69508928Y-135092619D01*
X69556547Y-135045000D01*
X69508928Y-134997380D01*
X69508928Y-135092619D01*
X70413690Y-135330714D02*
X70413690Y-135997380D01*
X69985119Y-135330714D02*
X69985119Y-135854523D01*
X70032738Y-135949761D01*
X70127976Y-135997380D01*
X70270833Y-135997380D01*
X70366071Y-135949761D01*
X70413690Y-135902142D01*
X70889880Y-135330714D02*
X70889880Y-135997380D01*
X70889880Y-135425952D02*
X70937500Y-135378333D01*
X71032738Y-135330714D01*
X71175595Y-135330714D01*
X71270833Y-135378333D01*
X71318452Y-135473571D01*
X71318452Y-135997380D01*
X71794642Y-135997380D02*
X71794642Y-134997380D01*
X71889880Y-135616428D02*
X72175595Y-135997380D01*
X72175595Y-135330714D02*
X71794642Y-135711666D01*
X72508928Y-135330714D02*
X72747023Y-135997380D01*
X72985119Y-135330714D02*
X72747023Y-135997380D01*
X72651785Y-136235476D01*
X72604166Y-136283095D01*
X72508928Y-136330714D01*
X73794642Y-135997380D02*
X73794642Y-135473571D01*
X73747023Y-135378333D01*
X73651785Y-135330714D01*
X73461309Y-135330714D01*
X73366071Y-135378333D01*
X73794642Y-135949761D02*
X73699404Y-135997380D01*
X73461309Y-135997380D01*
X73366071Y-135949761D01*
X73318452Y-135854523D01*
X73318452Y-135759285D01*
X73366071Y-135664047D01*
X73461309Y-135616428D01*
X73699404Y-135616428D01*
X73794642Y-135568809D01*
X74270833Y-135997380D02*
X74270833Y-135330714D01*
X74270833Y-135521190D02*
X74318452Y-135425952D01*
X74366071Y-135378333D01*
X74461309Y-135330714D01*
X74556547Y-135330714D01*
X75318452Y-135997380D02*
X75318452Y-134997380D01*
X75318452Y-135949761D02*
X75223214Y-135997380D01*
X75032738Y-135997380D01*
X74937500Y-135949761D01*
X74889880Y-135902142D01*
X74842261Y-135806904D01*
X74842261Y-135521190D01*
X74889880Y-135425952D01*
X74937500Y-135378333D01*
X75032738Y-135330714D01*
X75223214Y-135330714D01*
X75318452Y-135378333D01*
X76508928Y-134949761D02*
X75651785Y-136235476D01*
X76699404Y-135330714D02*
X77080357Y-135330714D01*
X76842261Y-134997380D02*
X76842261Y-135854523D01*
X76889880Y-135949761D01*
X76985119Y-135997380D01*
X77080357Y-135997380D01*
X77413690Y-135997380D02*
X77413690Y-135330714D01*
X77413690Y-135521190D02*
X77461309Y-135425952D01*
X77508928Y-135378333D01*
X77604166Y-135330714D01*
X77699404Y-135330714D01*
X78413690Y-135949761D02*
X78318452Y-135997380D01*
X78127976Y-135997380D01*
X78032738Y-135949761D01*
X77985119Y-135854523D01*
X77985119Y-135473571D01*
X78032738Y-135378333D01*
X78127976Y-135330714D01*
X78318452Y-135330714D01*
X78413690Y-135378333D01*
X78461309Y-135473571D01*
X78461309Y-135568809D01*
X77985119Y-135664047D01*
X79270833Y-135949761D02*
X79175595Y-135997380D01*
X78985119Y-135997380D01*
X78889880Y-135949761D01*
X78842261Y-135854523D01*
X78842261Y-135473571D01*
X78889880Y-135378333D01*
X78985119Y-135330714D01*
X79175595Y-135330714D01*
X79270833Y-135378333D01*
X79318452Y-135473571D01*
X79318452Y-135568809D01*
X78842261Y-135664047D01*
X80461309Y-134949761D02*
X79604166Y-136235476D01*
X80794642Y-135997380D02*
X80794642Y-135330714D01*
X80794642Y-135425952D02*
X80842261Y-135378333D01*
X80937499Y-135330714D01*
X81080357Y-135330714D01*
X81175595Y-135378333D01*
X81223214Y-135473571D01*
X81223214Y-135997380D01*
X81223214Y-135473571D02*
X81270833Y-135378333D01*
X81366071Y-135330714D01*
X81508928Y-135330714D01*
X81604166Y-135378333D01*
X81651785Y-135473571D01*
X81651785Y-135997380D01*
X82556547Y-135997380D02*
X82556547Y-135473571D01*
X82508928Y-135378333D01*
X82413690Y-135330714D01*
X82223214Y-135330714D01*
X82127976Y-135378333D01*
X82556547Y-135949761D02*
X82461309Y-135997380D01*
X82223214Y-135997380D01*
X82127976Y-135949761D01*
X82080357Y-135854523D01*
X82080357Y-135759285D01*
X82127976Y-135664047D01*
X82223214Y-135616428D01*
X82461309Y-135616428D01*
X82556547Y-135568809D01*
X83032738Y-135997380D02*
X83032738Y-135330714D01*
X83032738Y-134997380D02*
X82985119Y-135045000D01*
X83032738Y-135092619D01*
X83080357Y-135045000D01*
X83032738Y-134997380D01*
X83032738Y-135092619D01*
X83508928Y-135330714D02*
X83508928Y-135997380D01*
X83508928Y-135425952D02*
X83556547Y-135378333D01*
X83651785Y-135330714D01*
X83794642Y-135330714D01*
X83889880Y-135378333D01*
X83937499Y-135473571D01*
X83937499Y-135997380D01*
X85127976Y-134949761D02*
X84270833Y-136235476D01*
X85413690Y-135711666D02*
X85889880Y-135711666D01*
X85318452Y-135997380D02*
X85651785Y-134997380D01*
X85985119Y-135997380D01*
X86175595Y-135330714D02*
X86556547Y-135330714D01*
X86318452Y-134997380D02*
X86318452Y-135854523D01*
X86366071Y-135949761D01*
X86461309Y-135997380D01*
X86556547Y-135997380D01*
X87318452Y-135997380D02*
X87318452Y-135473571D01*
X87270833Y-135378333D01*
X87175595Y-135330714D01*
X86985119Y-135330714D01*
X86889880Y-135378333D01*
X87318452Y-135949761D02*
X87223214Y-135997380D01*
X86985119Y-135997380D01*
X86889880Y-135949761D01*
X86842261Y-135854523D01*
X86842261Y-135759285D01*
X86889880Y-135664047D01*
X86985119Y-135616428D01*
X87223214Y-135616428D01*
X87318452Y-135568809D01*
X87794642Y-135997380D02*
X87794642Y-135330714D01*
X87794642Y-135521190D02*
X87842261Y-135425952D01*
X87889880Y-135378333D01*
X87985119Y-135330714D01*
X88080357Y-135330714D01*
X88413690Y-135997380D02*
X88413690Y-135330714D01*
X88413690Y-134997380D02*
X88366071Y-135045000D01*
X88413690Y-135092619D01*
X88461309Y-135045000D01*
X88413690Y-134997380D01*
X88413690Y-135092619D01*
X89413690Y-135997380D02*
X88842261Y-135997380D01*
X89127976Y-135997380D02*
X89127976Y-134997380D01*
X89032738Y-135140238D01*
X88937499Y-135235476D01*
X88842261Y-135283095D01*
X89747023Y-134997380D02*
X90366071Y-134997380D01*
X90032738Y-135378333D01*
X90175595Y-135378333D01*
X90270833Y-135425952D01*
X90318452Y-135473571D01*
X90366071Y-135568809D01*
X90366071Y-135806904D01*
X90318452Y-135902142D01*
X90270833Y-135949761D01*
X90175595Y-135997380D01*
X89889880Y-135997380D01*
X89794642Y-135949761D01*
X89747023Y-135902142D01*
X90985119Y-134997380D02*
X91080357Y-134997380D01*
X91175595Y-135045000D01*
X91223214Y-135092619D01*
X91270833Y-135187857D01*
X91318452Y-135378333D01*
X91318452Y-135616428D01*
X91270833Y-135806904D01*
X91223214Y-135902142D01*
X91175595Y-135949761D01*
X91080357Y-135997380D01*
X90985119Y-135997380D01*
X90889880Y-135949761D01*
X90842261Y-135902142D01*
X90794642Y-135806904D01*
X90747023Y-135616428D01*
X90747023Y-135378333D01*
X90794642Y-135187857D01*
X90842261Y-135092619D01*
X90889880Y-135045000D01*
X90985119Y-134997380D01*
X91747023Y-135997380D02*
X91747023Y-134997380D01*
X92080357Y-135711666D01*
X92413690Y-134997380D01*
X92413690Y-135997380D01*
X92794642Y-134997380D02*
X93461309Y-135997380D01*
X93461309Y-134997380D02*
X92794642Y-135997380D01*
X314653690Y-130544761D02*
X314653690Y-128544761D01*
X315606071Y-129211428D02*
X315606071Y-130544761D01*
X315606071Y-129401904D02*
X315701309Y-129306666D01*
X315891785Y-129211428D01*
X316177500Y-129211428D01*
X316367976Y-129306666D01*
X316463214Y-129497142D01*
X316463214Y-130544761D01*
X317225119Y-129211428D02*
X317701309Y-130544761D01*
X318177500Y-129211428D01*
X319701309Y-130449523D02*
X319510833Y-130544761D01*
X319129880Y-130544761D01*
X318939404Y-130449523D01*
X318844166Y-130259047D01*
X318844166Y-129497142D01*
X318939404Y-129306666D01*
X319129880Y-129211428D01*
X319510833Y-129211428D01*
X319701309Y-129306666D01*
X319796547Y-129497142D01*
X319796547Y-129687619D01*
X318844166Y-129878095D01*
X320653690Y-130544761D02*
X320653690Y-129211428D01*
X320653690Y-129592380D02*
X320748928Y-129401904D01*
X320844166Y-129306666D01*
X321034642Y-129211428D01*
X321225119Y-129211428D01*
X321606071Y-129211428D02*
X322367976Y-129211428D01*
X321891785Y-128544761D02*
X321891785Y-130259047D01*
X321987023Y-130449523D01*
X322177500Y-130544761D01*
X322367976Y-130544761D01*
X288378452Y-130449523D02*
X288664166Y-130544761D01*
X289140357Y-130544761D01*
X289330833Y-130449523D01*
X289426071Y-130354285D01*
X289521309Y-130163809D01*
X289521309Y-129973333D01*
X289426071Y-129782857D01*
X289330833Y-129687619D01*
X289140357Y-129592380D01*
X288759404Y-129497142D01*
X288568928Y-129401904D01*
X288473690Y-129306666D01*
X288378452Y-129116190D01*
X288378452Y-128925714D01*
X288473690Y-128735238D01*
X288568928Y-128640000D01*
X288759404Y-128544761D01*
X289235595Y-128544761D01*
X289521309Y-128640000D01*
X290378452Y-130544761D02*
X290378452Y-128544761D01*
X291235595Y-130544761D02*
X291235595Y-129497142D01*
X291140357Y-129306666D01*
X290949880Y-129211428D01*
X290664166Y-129211428D01*
X290473690Y-129306666D01*
X290378452Y-129401904D01*
X292187976Y-130544761D02*
X292187976Y-129211428D01*
X292187976Y-128544761D02*
X292092738Y-128640000D01*
X292187976Y-128735238D01*
X292283214Y-128640000D01*
X292187976Y-128544761D01*
X292187976Y-128735238D01*
X292854642Y-129211428D02*
X293616547Y-129211428D01*
X293140357Y-130544761D02*
X293140357Y-128830476D01*
X293235595Y-128640000D01*
X293426071Y-128544761D01*
X293616547Y-128544761D01*
X293997500Y-129211428D02*
X294759404Y-129211428D01*
X294283214Y-128544761D02*
X294283214Y-130259047D01*
X294378452Y-130449523D01*
X294568928Y-130544761D01*
X294759404Y-130544761D01*
X263782261Y-128449523D02*
X262067976Y-131020952D01*
X243303690Y-130354285D02*
X243398928Y-130449523D01*
X243303690Y-130544761D01*
X243208452Y-130449523D01*
X243303690Y-130354285D01*
X243303690Y-130544761D01*
X224348928Y-130449523D02*
X224348928Y-130544761D01*
X224253690Y-130735238D01*
X224158452Y-130830476D01*
X205203690Y-130544761D02*
X205203690Y-128544761D01*
X205870357Y-129973333D01*
X206537023Y-128544761D01*
X206537023Y-130544761D01*
X186153690Y-130544761D02*
X186153690Y-128544761D01*
X187296547Y-130544761D01*
X187296547Y-128544761D01*
X167770357Y-129497142D02*
X168056071Y-129592380D01*
X168151309Y-129687619D01*
X168246547Y-129878095D01*
X168246547Y-130163809D01*
X168151309Y-130354285D01*
X168056071Y-130449523D01*
X167865595Y-130544761D01*
X167103690Y-130544761D01*
X167103690Y-128544761D01*
X167770357Y-128544761D01*
X167960833Y-128640000D01*
X168056071Y-128735238D01*
X168151309Y-128925714D01*
X168151309Y-129116190D01*
X168056071Y-129306666D01*
X167960833Y-129401904D01*
X167770357Y-129497142D01*
X167103690Y-129497142D01*
X147767976Y-128544761D02*
X148434642Y-130544761D01*
X149101309Y-128544761D01*
X130146547Y-130354285D02*
X130051309Y-130449523D01*
X129765595Y-130544761D01*
X129575119Y-130544761D01*
X129289404Y-130449523D01*
X129098928Y-130259047D01*
X129003690Y-130068571D01*
X128908452Y-129687619D01*
X128908452Y-129401904D01*
X129003690Y-129020952D01*
X129098928Y-128830476D01*
X129289404Y-128640000D01*
X129575119Y-128544761D01*
X129765595Y-128544761D01*
X130051309Y-128640000D01*
X130146547Y-128735238D01*
X109763214Y-128544761D02*
X111096547Y-130544761D01*
X111096547Y-128544761D02*
X109763214Y-130544761D01*
X90713214Y-128544761D02*
X92046547Y-128544761D01*
X90713214Y-130544761D01*
X92046547Y-130544761D01*
X60328452Y-130449523D02*
X60614166Y-130544761D01*
X61090357Y-130544761D01*
X61280833Y-130449523D01*
X61376071Y-130354285D01*
X61471309Y-130163809D01*
X61471309Y-129973333D01*
X61376071Y-129782857D01*
X61280833Y-129687619D01*
X61090357Y-129592380D01*
X60709404Y-129497142D01*
X60518928Y-129401904D01*
X60423690Y-129306666D01*
X60328452Y-129116190D01*
X60328452Y-128925714D01*
X60423690Y-128735238D01*
X60518928Y-128640000D01*
X60709404Y-128544761D01*
X61185595Y-128544761D01*
X61471309Y-128640000D01*
X62328452Y-130544761D02*
X62328452Y-128544761D01*
X63185595Y-130544761D02*
X63185595Y-129497142D01*
X63090357Y-129306666D01*
X62899880Y-129211428D01*
X62614166Y-129211428D01*
X62423690Y-129306666D01*
X62328452Y-129401904D01*
X64137976Y-130544761D02*
X64137976Y-129211428D01*
X64137976Y-128544761D02*
X64042738Y-128640000D01*
X64137976Y-128735238D01*
X64233214Y-128640000D01*
X64137976Y-128544761D01*
X64137976Y-128735238D01*
X64804642Y-129211428D02*
X65566547Y-129211428D01*
X65090357Y-130544761D02*
X65090357Y-128830476D01*
X65185595Y-128640000D01*
X65376071Y-128544761D01*
X65566547Y-128544761D01*
X65947500Y-129211428D02*
X66709404Y-129211428D01*
X66233214Y-128544761D02*
X66233214Y-130259047D01*
X66328452Y-130449523D01*
X66518928Y-130544761D01*
X66709404Y-130544761D01*
X313356547Y-111304285D02*
X313261309Y-111399523D01*
X312975595Y-111494761D01*
X312785119Y-111494761D01*
X312499404Y-111399523D01*
X312308928Y-111209047D01*
X312213690Y-111018571D01*
X312118452Y-110637619D01*
X312118452Y-110351904D01*
X312213690Y-109970952D01*
X312308928Y-109780476D01*
X312499404Y-109590000D01*
X312785119Y-109494761D01*
X312975595Y-109494761D01*
X313261309Y-109590000D01*
X313356547Y-109685238D01*
X315070833Y-111494761D02*
X315070833Y-110447142D01*
X314975595Y-110256666D01*
X314785119Y-110161428D01*
X314404166Y-110161428D01*
X314213690Y-110256666D01*
X315070833Y-111399523D02*
X314880357Y-111494761D01*
X314404166Y-111494761D01*
X314213690Y-111399523D01*
X314118452Y-111209047D01*
X314118452Y-111018571D01*
X314213690Y-110828095D01*
X314404166Y-110732857D01*
X314880357Y-110732857D01*
X315070833Y-110637619D01*
X316023214Y-110161428D02*
X316023214Y-112161428D01*
X316023214Y-110256666D02*
X316213690Y-110161428D01*
X316594642Y-110161428D01*
X316785119Y-110256666D01*
X316880357Y-110351904D01*
X316975595Y-110542380D01*
X316975595Y-111113809D01*
X316880357Y-111304285D01*
X316785119Y-111399523D01*
X316594642Y-111494761D01*
X316213690Y-111494761D01*
X316023214Y-111399523D01*
X317737500Y-111399523D02*
X317927976Y-111494761D01*
X318308928Y-111494761D01*
X318499404Y-111399523D01*
X318594642Y-111209047D01*
X318594642Y-111113809D01*
X318499404Y-110923333D01*
X318308928Y-110828095D01*
X318023214Y-110828095D01*
X317832738Y-110732857D01*
X317737500Y-110542380D01*
X317737500Y-110447142D01*
X317832738Y-110256666D01*
X318023214Y-110161428D01*
X318308928Y-110161428D01*
X318499404Y-110256666D01*
X291089404Y-109494761D02*
X291089404Y-109970952D01*
X290613214Y-109780476D02*
X291089404Y-109970952D01*
X291565595Y-109780476D01*
X290803690Y-110351904D02*
X291089404Y-109970952D01*
X291375119Y-110351904D01*
X271753690Y-110732857D02*
X273277500Y-110732857D01*
X272515595Y-111494761D02*
X272515595Y-109970952D01*
X252798928Y-111399523D02*
X252798928Y-111494761D01*
X252703690Y-111685238D01*
X252608452Y-111780476D01*
X252703690Y-110256666D02*
X252798928Y-110351904D01*
X252703690Y-110447142D01*
X252608452Y-110351904D01*
X252703690Y-110256666D01*
X252703690Y-110447142D01*
X234606071Y-111494761D02*
X233653690Y-111494761D01*
X233653690Y-109494761D01*
X214603690Y-111494761D02*
X214603690Y-109494761D01*
X215746547Y-111494761D02*
X214889404Y-110351904D01*
X215746547Y-109494761D02*
X214603690Y-110637619D01*
X196125119Y-109494761D02*
X196125119Y-110923333D01*
X196029880Y-111209047D01*
X195839404Y-111399523D01*
X195553690Y-111494761D01*
X195363214Y-111494761D01*
X176503690Y-111494761D02*
X176503690Y-109494761D01*
X176503690Y-110447142D02*
X177646547Y-110447142D01*
X177646547Y-111494761D02*
X177646547Y-109494761D01*
X158501309Y-109590000D02*
X158310833Y-109494761D01*
X158025119Y-109494761D01*
X157739404Y-109590000D01*
X157548928Y-109780476D01*
X157453690Y-109970952D01*
X157358452Y-110351904D01*
X157358452Y-110637619D01*
X157453690Y-111018571D01*
X157548928Y-111209047D01*
X157739404Y-111399523D01*
X158025119Y-111494761D01*
X158215595Y-111494761D01*
X158501309Y-111399523D01*
X158596547Y-111304285D01*
X158596547Y-110637619D01*
X158215595Y-110637619D01*
X139070357Y-110447142D02*
X138403690Y-110447142D01*
X138403690Y-111494761D02*
X138403690Y-109494761D01*
X139356071Y-109494761D01*
X119353690Y-111494761D02*
X119353690Y-109494761D01*
X119829880Y-109494761D01*
X120115595Y-109590000D01*
X120306071Y-109780476D01*
X120401309Y-109970952D01*
X120496547Y-110351904D01*
X120496547Y-110637619D01*
X120401309Y-111018571D01*
X120306071Y-111209047D01*
X120115595Y-111399523D01*
X119829880Y-111494761D01*
X119353690Y-111494761D01*
X100208452Y-111399523D02*
X100494166Y-111494761D01*
X100970357Y-111494761D01*
X101160833Y-111399523D01*
X101256071Y-111304285D01*
X101351309Y-111113809D01*
X101351309Y-110923333D01*
X101256071Y-110732857D01*
X101160833Y-110637619D01*
X100970357Y-110542380D01*
X100589404Y-110447142D01*
X100398928Y-110351904D01*
X100303690Y-110256666D01*
X100208452Y-110066190D01*
X100208452Y-109875714D01*
X100303690Y-109685238D01*
X100398928Y-109590000D01*
X100589404Y-109494761D01*
X101065595Y-109494761D01*
X101351309Y-109590000D01*
X81158452Y-110923333D02*
X82110833Y-110923333D01*
X80967976Y-111494761D02*
X81634642Y-109494761D01*
X82301309Y-111494761D01*
X54777976Y-109494761D02*
X55920833Y-109494761D01*
X55349404Y-111494761D02*
X55349404Y-109494761D01*
X57444642Y-111494761D02*
X57444642Y-110447142D01*
X57349404Y-110256666D01*
X57158928Y-110161428D01*
X56777976Y-110161428D01*
X56587500Y-110256666D01*
X57444642Y-111399523D02*
X57254166Y-111494761D01*
X56777976Y-111494761D01*
X56587500Y-111399523D01*
X56492261Y-111209047D01*
X56492261Y-111018571D01*
X56587500Y-110828095D01*
X56777976Y-110732857D01*
X57254166Y-110732857D01*
X57444642Y-110637619D01*
X58397023Y-111494761D02*
X58397023Y-109494761D01*
X58397023Y-110256666D02*
X58587500Y-110161428D01*
X58968452Y-110161428D01*
X59158928Y-110256666D01*
X59254166Y-110351904D01*
X59349404Y-110542380D01*
X59349404Y-111113809D01*
X59254166Y-111304285D01*
X59158928Y-111399523D01*
X58968452Y-111494761D01*
X58587500Y-111494761D01*
X58397023Y-111399523D01*
X310426547Y-92434761D02*
X309759880Y-91482380D01*
X309283690Y-92434761D02*
X309283690Y-90434761D01*
X310045595Y-90434761D01*
X310236071Y-90530000D01*
X310331309Y-90625238D01*
X310426547Y-90815714D01*
X310426547Y-91101428D01*
X310331309Y-91291904D01*
X310236071Y-91387142D01*
X310045595Y-91482380D01*
X309283690Y-91482380D01*
X312045595Y-92339523D02*
X311855119Y-92434761D01*
X311474166Y-92434761D01*
X311283690Y-92339523D01*
X311188452Y-92149047D01*
X311188452Y-91387142D01*
X311283690Y-91196666D01*
X311474166Y-91101428D01*
X311855119Y-91101428D01*
X312045595Y-91196666D01*
X312140833Y-91387142D01*
X312140833Y-91577619D01*
X311188452Y-91768095D01*
X312712261Y-91101428D02*
X313474166Y-91101428D01*
X312997976Y-90434761D02*
X312997976Y-92149047D01*
X313093214Y-92339523D01*
X313283690Y-92434761D01*
X313474166Y-92434761D01*
X314997976Y-91101428D02*
X314997976Y-92434761D01*
X314140833Y-91101428D02*
X314140833Y-92149047D01*
X314236071Y-92339523D01*
X314426547Y-92434761D01*
X314712261Y-92434761D01*
X314902738Y-92339523D01*
X314997976Y-92244285D01*
X315950357Y-92434761D02*
X315950357Y-91101428D01*
X315950357Y-91482380D02*
X316045595Y-91291904D01*
X316140833Y-91196666D01*
X316331309Y-91101428D01*
X316521785Y-91101428D01*
X317188452Y-91101428D02*
X317188452Y-92434761D01*
X317188452Y-91291904D02*
X317283690Y-91196666D01*
X317474166Y-91101428D01*
X317759880Y-91101428D01*
X317950357Y-91196666D01*
X318045595Y-91387142D01*
X318045595Y-92434761D01*
X285573690Y-91487142D02*
X287097500Y-91487142D01*
X287097500Y-92058571D02*
X285573690Y-92058571D01*
X266523690Y-91772857D02*
X268047500Y-91772857D01*
X247593690Y-92404761D02*
X247593690Y-90404761D01*
X248355595Y-90404761D01*
X248546071Y-90500000D01*
X248641309Y-90595238D01*
X248736547Y-90785714D01*
X248736547Y-91071428D01*
X248641309Y-91261904D01*
X248546071Y-91357142D01*
X248355595Y-91452380D01*
X247593690Y-91452380D01*
X228974642Y-90404761D02*
X229355595Y-90404761D01*
X229546071Y-90500000D01*
X229736547Y-90690476D01*
X229831785Y-91071428D01*
X229831785Y-91738095D01*
X229736547Y-92119047D01*
X229546071Y-92309523D01*
X229355595Y-92404761D01*
X228974642Y-92404761D01*
X228784166Y-92309523D01*
X228593690Y-92119047D01*
X228498452Y-91738095D01*
X228498452Y-91071428D01*
X228593690Y-90690476D01*
X228784166Y-90500000D01*
X228974642Y-90404761D01*
X209593690Y-92404761D02*
X209593690Y-90404761D01*
X190593690Y-90404761D02*
X190593690Y-92023809D01*
X190688928Y-92214285D01*
X190784166Y-92309523D01*
X190974642Y-92404761D01*
X191355595Y-92404761D01*
X191546071Y-92309523D01*
X191641309Y-92214285D01*
X191736547Y-92023809D01*
X191736547Y-90404761D01*
X171974642Y-91452380D02*
X171974642Y-92404761D01*
X171307976Y-90404761D02*
X171974642Y-91452380D01*
X172641309Y-90404761D01*
X152307976Y-90404761D02*
X153450833Y-90404761D01*
X152879404Y-92404761D02*
X152879404Y-90404761D01*
X134736547Y-92404761D02*
X134069880Y-91452380D01*
X133593690Y-92404761D02*
X133593690Y-90404761D01*
X134355595Y-90404761D01*
X134546071Y-90500000D01*
X134641309Y-90595238D01*
X134736547Y-90785714D01*
X134736547Y-91071428D01*
X134641309Y-91261904D01*
X134546071Y-91357142D01*
X134355595Y-91452380D01*
X133593690Y-91452380D01*
X114593690Y-91357142D02*
X115260357Y-91357142D01*
X115546071Y-92404761D02*
X114593690Y-92404761D01*
X114593690Y-90404761D01*
X115546071Y-90404761D01*
X95403214Y-90404761D02*
X95879404Y-92404761D01*
X96260357Y-90976190D01*
X96641309Y-92404761D01*
X97117500Y-90404761D01*
X77927023Y-92595238D02*
X77736547Y-92500000D01*
X77546071Y-92309523D01*
X77260357Y-92023809D01*
X77069880Y-91928571D01*
X76879404Y-91928571D01*
X76974642Y-92404761D02*
X76784166Y-92309523D01*
X76593690Y-92119047D01*
X76498452Y-91738095D01*
X76498452Y-91071428D01*
X76593690Y-90690476D01*
X76784166Y-90500000D01*
X76974642Y-90404761D01*
X77355595Y-90404761D01*
X77546071Y-90500000D01*
X77736547Y-90690476D01*
X77831785Y-91071428D01*
X77831785Y-91738095D01*
X77736547Y-92119047D01*
X77546071Y-92309523D01*
X77355595Y-92404761D01*
X76974642Y-92404761D01*
X52893690Y-91357142D02*
X53560357Y-91357142D01*
X53846071Y-92404761D02*
X52893690Y-92404761D01*
X52893690Y-90404761D01*
X53846071Y-90404761D01*
X54607976Y-92309523D02*
X54798452Y-92404761D01*
X55179404Y-92404761D01*
X55369880Y-92309523D01*
X55465119Y-92119047D01*
X55465119Y-92023809D01*
X55369880Y-91833333D01*
X55179404Y-91738095D01*
X54893690Y-91738095D01*
X54703214Y-91642857D01*
X54607976Y-91452380D01*
X54607976Y-91357142D01*
X54703214Y-91166666D01*
X54893690Y-91071428D01*
X55179404Y-91071428D01*
X55369880Y-91166666D01*
X57179404Y-92309523D02*
X56988928Y-92404761D01*
X56607976Y-92404761D01*
X56417500Y-92309523D01*
X56322261Y-92214285D01*
X56227023Y-92023809D01*
X56227023Y-91452380D01*
X56322261Y-91261904D01*
X56417500Y-91166666D01*
X56607976Y-91071428D01*
X56988928Y-91071428D01*
X57179404Y-91166666D01*
X314800357Y-72257142D02*
X315086071Y-72352380D01*
X315181309Y-72447619D01*
X315276547Y-72638095D01*
X315276547Y-72923809D01*
X315181309Y-73114285D01*
X315086071Y-73209523D01*
X314895595Y-73304761D01*
X314133690Y-73304761D01*
X314133690Y-71304761D01*
X314800357Y-71304761D01*
X314990833Y-71400000D01*
X315086071Y-71495238D01*
X315181309Y-71685714D01*
X315181309Y-71876190D01*
X315086071Y-72066666D01*
X314990833Y-72161904D01*
X314800357Y-72257142D01*
X314133690Y-72257142D01*
X316133690Y-73304761D02*
X316133690Y-71971428D01*
X316133690Y-72352380D02*
X316228928Y-72161904D01*
X316324166Y-72066666D01*
X316514642Y-71971428D01*
X316705119Y-71971428D01*
X318133690Y-73209523D02*
X317943214Y-73304761D01*
X317562261Y-73304761D01*
X317371785Y-73209523D01*
X317276547Y-73019047D01*
X317276547Y-72257142D01*
X317371785Y-72066666D01*
X317562261Y-71971428D01*
X317943214Y-71971428D01*
X318133690Y-72066666D01*
X318228928Y-72257142D01*
X318228928Y-72447619D01*
X317276547Y-72638095D01*
X319943214Y-73304761D02*
X319943214Y-72257142D01*
X319847976Y-72066666D01*
X319657500Y-71971428D01*
X319276547Y-71971428D01*
X319086071Y-72066666D01*
X319943214Y-73209523D02*
X319752738Y-73304761D01*
X319276547Y-73304761D01*
X319086071Y-73209523D01*
X318990833Y-73019047D01*
X318990833Y-72828571D01*
X319086071Y-72638095D01*
X319276547Y-72542857D01*
X319752738Y-72542857D01*
X319943214Y-72447619D01*
X320895595Y-73304761D02*
X320895595Y-71304761D01*
X321086071Y-72542857D02*
X321657500Y-73304761D01*
X321657500Y-71971428D02*
X320895595Y-72733333D01*
X295133690Y-73304761D02*
X295133690Y-71304761D01*
X295609880Y-71304761D01*
X295895595Y-71400000D01*
X296086071Y-71590476D01*
X296181309Y-71780952D01*
X296276547Y-72161904D01*
X296276547Y-72447619D01*
X296181309Y-72828571D01*
X296086071Y-73019047D01*
X295895595Y-73209523D01*
X295609880Y-73304761D01*
X295133690Y-73304761D01*
X297895595Y-73209523D02*
X297705119Y-73304761D01*
X297324166Y-73304761D01*
X297133690Y-73209523D01*
X297038452Y-73019047D01*
X297038452Y-72257142D01*
X297133690Y-72066666D01*
X297324166Y-71971428D01*
X297705119Y-71971428D01*
X297895595Y-72066666D01*
X297990833Y-72257142D01*
X297990833Y-72447619D01*
X297038452Y-72638095D01*
X299133690Y-73304761D02*
X298943214Y-73209523D01*
X298847976Y-73019047D01*
X298847976Y-71304761D01*
X276133690Y-71971428D02*
X277657500Y-72542857D01*
X276133690Y-73114285D01*
X258657500Y-71971428D02*
X257133690Y-72542857D01*
X258657500Y-73114285D01*
X238514642Y-71304761D02*
X238705119Y-71304761D01*
X238895595Y-71400000D01*
X238990833Y-71495238D01*
X239086071Y-71685714D01*
X239181309Y-72066666D01*
X239181309Y-72542857D01*
X239086071Y-72923809D01*
X238990833Y-73114285D01*
X238895595Y-73209523D01*
X238705119Y-73304761D01*
X238514642Y-73304761D01*
X238324166Y-73209523D01*
X238228928Y-73114285D01*
X238133690Y-72923809D01*
X238038452Y-72542857D01*
X238038452Y-72066666D01*
X238133690Y-71685714D01*
X238228928Y-71495238D01*
X238324166Y-71400000D01*
X238514642Y-71304761D01*
X219228928Y-73304761D02*
X219609880Y-73304761D01*
X219800357Y-73209523D01*
X219895595Y-73114285D01*
X220086071Y-72828571D01*
X220181309Y-72447619D01*
X220181309Y-71685714D01*
X220086071Y-71495238D01*
X219990833Y-71400000D01*
X219800357Y-71304761D01*
X219419404Y-71304761D01*
X219228928Y-71400000D01*
X219133690Y-71495238D01*
X219038452Y-71685714D01*
X219038452Y-72161904D01*
X219133690Y-72352380D01*
X219228928Y-72447619D01*
X219419404Y-72542857D01*
X219800357Y-72542857D01*
X219990833Y-72447619D01*
X220086071Y-72352380D01*
X220181309Y-72161904D01*
X200419404Y-72161904D02*
X200228928Y-72066666D01*
X200133690Y-71971428D01*
X200038452Y-71780952D01*
X200038452Y-71685714D01*
X200133690Y-71495238D01*
X200228928Y-71400000D01*
X200419404Y-71304761D01*
X200800357Y-71304761D01*
X200990833Y-71400000D01*
X201086071Y-71495238D01*
X201181309Y-71685714D01*
X201181309Y-71780952D01*
X201086071Y-71971428D01*
X200990833Y-72066666D01*
X200800357Y-72161904D01*
X200419404Y-72161904D01*
X200228928Y-72257142D01*
X200133690Y-72352380D01*
X200038452Y-72542857D01*
X200038452Y-72923809D01*
X200133690Y-73114285D01*
X200228928Y-73209523D01*
X200419404Y-73304761D01*
X200800357Y-73304761D01*
X200990833Y-73209523D01*
X201086071Y-73114285D01*
X201181309Y-72923809D01*
X201181309Y-72542857D01*
X201086071Y-72352380D01*
X200990833Y-72257142D01*
X200800357Y-72161904D01*
X180943214Y-71304761D02*
X182276547Y-71304761D01*
X181419404Y-73304761D01*
X162990833Y-71304761D02*
X162609880Y-71304761D01*
X162419404Y-71400000D01*
X162324166Y-71495238D01*
X162133690Y-71780952D01*
X162038452Y-72161904D01*
X162038452Y-72923809D01*
X162133690Y-73114285D01*
X162228928Y-73209523D01*
X162419404Y-73304761D01*
X162800357Y-73304761D01*
X162990833Y-73209523D01*
X163086071Y-73114285D01*
X163181309Y-72923809D01*
X163181309Y-72447619D01*
X163086071Y-72257142D01*
X162990833Y-72161904D01*
X162800357Y-72066666D01*
X162419404Y-72066666D01*
X162228928Y-72161904D01*
X162133690Y-72257142D01*
X162038452Y-72447619D01*
X144086071Y-71304761D02*
X143133690Y-71304761D01*
X143038452Y-72257142D01*
X143133690Y-72161904D01*
X143324166Y-72066666D01*
X143800357Y-72066666D01*
X143990833Y-72161904D01*
X144086071Y-72257142D01*
X144181309Y-72447619D01*
X144181309Y-72923809D01*
X144086071Y-73114285D01*
X143990833Y-73209523D01*
X143800357Y-73304761D01*
X143324166Y-73304761D01*
X143133690Y-73209523D01*
X143038452Y-73114285D01*
X124990833Y-71971428D02*
X124990833Y-73304761D01*
X124514642Y-71209523D02*
X124038452Y-72638095D01*
X125276547Y-72638095D01*
X104943214Y-71304761D02*
X106181309Y-71304761D01*
X105514642Y-72066666D01*
X105800357Y-72066666D01*
X105990833Y-72161904D01*
X106086071Y-72257142D01*
X106181309Y-72447619D01*
X106181309Y-72923809D01*
X106086071Y-73114285D01*
X105990833Y-73209523D01*
X105800357Y-73304761D01*
X105228928Y-73304761D01*
X105038452Y-73209523D01*
X104943214Y-73114285D01*
X86038452Y-71495238D02*
X86133690Y-71400000D01*
X86324166Y-71304761D01*
X86800357Y-71304761D01*
X86990833Y-71400000D01*
X87086071Y-71495238D01*
X87181309Y-71685714D01*
X87181309Y-71876190D01*
X87086071Y-72161904D01*
X85943214Y-73304761D01*
X87181309Y-73304761D01*
X68181309Y-73304761D02*
X67038452Y-73304761D01*
X67609880Y-73304761D02*
X67609880Y-71304761D01*
X67419404Y-71590476D01*
X67228928Y-71780952D01*
X67038452Y-71876190D01*
X48133690Y-72257142D02*
X48800357Y-72257142D01*
X49086071Y-73304761D02*
X48133690Y-73304761D01*
X48133690Y-71304761D01*
X49086071Y-71304761D01*
X49847976Y-73209523D02*
X50038452Y-73304761D01*
X50419404Y-73304761D01*
X50609880Y-73209523D01*
X50705119Y-73019047D01*
X50705119Y-72923809D01*
X50609880Y-72733333D01*
X50419404Y-72638095D01*
X50133690Y-72638095D01*
X49943214Y-72542857D01*
X49847976Y-72352380D01*
X49847976Y-72257142D01*
X49943214Y-72066666D01*
X50133690Y-71971428D01*
X50419404Y-71971428D01*
X50609880Y-72066666D01*
X52419404Y-73209523D02*
X52228928Y-73304761D01*
X51847976Y-73304761D01*
X51657500Y-73209523D01*
X51562261Y-73114285D01*
X51467023Y-72923809D01*
X51467023Y-72352380D01*
X51562261Y-72161904D01*
X51657500Y-72066666D01*
X51847976Y-71971428D01*
X52228928Y-71971428D01*
X52419404Y-72066666D01*
X320976547Y-44664761D02*
X320309880Y-43712380D01*
X319833690Y-44664761D02*
X319833690Y-42664761D01*
X320595595Y-42664761D01*
X320786071Y-42760000D01*
X320881309Y-42855238D01*
X320976547Y-43045714D01*
X320976547Y-43331428D01*
X320881309Y-43521904D01*
X320786071Y-43617142D01*
X320595595Y-43712380D01*
X319833690Y-43712380D01*
X322595595Y-44569523D02*
X322405119Y-44664761D01*
X322024166Y-44664761D01*
X321833690Y-44569523D01*
X321738452Y-44379047D01*
X321738452Y-43617142D01*
X321833690Y-43426666D01*
X322024166Y-43331428D01*
X322405119Y-43331428D01*
X322595595Y-43426666D01*
X322690833Y-43617142D01*
X322690833Y-43807619D01*
X321738452Y-43998095D01*
X323452738Y-44569523D02*
X323643214Y-44664761D01*
X324024166Y-44664761D01*
X324214642Y-44569523D01*
X324309880Y-44379047D01*
X324309880Y-44283809D01*
X324214642Y-44093333D01*
X324024166Y-43998095D01*
X323738452Y-43998095D01*
X323547976Y-43902857D01*
X323452738Y-43712380D01*
X323452738Y-43617142D01*
X323547976Y-43426666D01*
X323738452Y-43331428D01*
X324024166Y-43331428D01*
X324214642Y-43426666D01*
X325928928Y-44569523D02*
X325738452Y-44664761D01*
X325357500Y-44664761D01*
X325167023Y-44569523D01*
X325071785Y-44379047D01*
X325071785Y-43617142D01*
X325167023Y-43426666D01*
X325357500Y-43331428D01*
X325738452Y-43331428D01*
X325928928Y-43426666D01*
X326024166Y-43617142D01*
X326024166Y-43807619D01*
X325071785Y-43998095D01*
X326595595Y-43331428D02*
X327357500Y-43331428D01*
X326881309Y-42664761D02*
X326881309Y-44379047D01*
X326976547Y-44569523D01*
X327167023Y-44664761D01*
X327357500Y-44664761D01*
X291714642Y-42664761D02*
X292095595Y-42664761D01*
X292286071Y-42760000D01*
X292476547Y-42950476D01*
X292571785Y-43331428D01*
X292571785Y-43998095D01*
X292476547Y-44379047D01*
X292286071Y-44569523D01*
X292095595Y-44664761D01*
X291714642Y-44664761D01*
X291524166Y-44569523D01*
X291333690Y-44379047D01*
X291238452Y-43998095D01*
X291238452Y-43331428D01*
X291333690Y-42950476D01*
X291524166Y-42760000D01*
X291714642Y-42664761D01*
X293428928Y-43331428D02*
X293428928Y-45331428D01*
X293428928Y-43426666D02*
X293619404Y-43331428D01*
X294000357Y-43331428D01*
X294190833Y-43426666D01*
X294286071Y-43521904D01*
X294381309Y-43712380D01*
X294381309Y-44283809D01*
X294286071Y-44474285D01*
X294190833Y-44569523D01*
X294000357Y-44664761D01*
X293619404Y-44664761D01*
X293428928Y-44569523D01*
X294952738Y-43331428D02*
X295714642Y-43331428D01*
X295238452Y-42664761D02*
X295238452Y-44379047D01*
X295333690Y-44569523D01*
X295524166Y-44664761D01*
X295714642Y-44664761D01*
X296381309Y-44664761D02*
X296381309Y-43331428D01*
X296381309Y-42664761D02*
X296286071Y-42760000D01*
X296381309Y-42855238D01*
X296476547Y-42760000D01*
X296381309Y-42664761D01*
X296381309Y-42855238D01*
X297619404Y-44664761D02*
X297428928Y-44569523D01*
X297333690Y-44474285D01*
X297238452Y-44283809D01*
X297238452Y-43712380D01*
X297333690Y-43521904D01*
X297428928Y-43426666D01*
X297619404Y-43331428D01*
X297905119Y-43331428D01*
X298095595Y-43426666D01*
X298190833Y-43521904D01*
X298286071Y-43712380D01*
X298286071Y-44283809D01*
X298190833Y-44474285D01*
X298095595Y-44569523D01*
X297905119Y-44664761D01*
X297619404Y-44664761D01*
X299143214Y-43331428D02*
X299143214Y-44664761D01*
X299143214Y-43521904D02*
X299238452Y-43426666D01*
X299428928Y-43331428D01*
X299714642Y-43331428D01*
X299905119Y-43426666D01*
X300000357Y-43617142D01*
X300000357Y-44664761D01*
X262738452Y-44569523D02*
X263024166Y-44664761D01*
X263500357Y-44664761D01*
X263690833Y-44569523D01*
X263786071Y-44474285D01*
X263881309Y-44283809D01*
X263881309Y-44093333D01*
X263786071Y-43902857D01*
X263690833Y-43807619D01*
X263500357Y-43712380D01*
X263119404Y-43617142D01*
X262928928Y-43521904D01*
X262833690Y-43426666D01*
X262738452Y-43236190D01*
X262738452Y-43045714D01*
X262833690Y-42855238D01*
X262928928Y-42760000D01*
X263119404Y-42664761D01*
X263595595Y-42664761D01*
X263881309Y-42760000D01*
X265500357Y-44569523D02*
X265309880Y-44664761D01*
X264928928Y-44664761D01*
X264738452Y-44569523D01*
X264643214Y-44379047D01*
X264643214Y-43617142D01*
X264738452Y-43426666D01*
X264928928Y-43331428D01*
X265309880Y-43331428D01*
X265500357Y-43426666D01*
X265595595Y-43617142D01*
X265595595Y-43807619D01*
X264643214Y-43998095D01*
X266738452Y-44664761D02*
X266547976Y-44569523D01*
X266452738Y-44379047D01*
X266452738Y-42664761D01*
X268262261Y-44569523D02*
X268071785Y-44664761D01*
X267690833Y-44664761D01*
X267500357Y-44569523D01*
X267405119Y-44379047D01*
X267405119Y-43617142D01*
X267500357Y-43426666D01*
X267690833Y-43331428D01*
X268071785Y-43331428D01*
X268262261Y-43426666D01*
X268357500Y-43617142D01*
X268357500Y-43807619D01*
X267405119Y-43998095D01*
X270071785Y-44569523D02*
X269881309Y-44664761D01*
X269500357Y-44664761D01*
X269309880Y-44569523D01*
X269214642Y-44474285D01*
X269119404Y-44283809D01*
X269119404Y-43712380D01*
X269214642Y-43521904D01*
X269309880Y-43426666D01*
X269500357Y-43331428D01*
X269881309Y-43331428D01*
X270071785Y-43426666D01*
X270643214Y-43331428D02*
X271405119Y-43331428D01*
X270928928Y-42664761D02*
X270928928Y-44379047D01*
X271024166Y-44569523D01*
X271214642Y-44664761D01*
X271405119Y-44664761D01*
X234238452Y-44569523D02*
X234524166Y-44664761D01*
X235000357Y-44664761D01*
X235190833Y-44569523D01*
X235286071Y-44474285D01*
X235381309Y-44283809D01*
X235381309Y-44093333D01*
X235286071Y-43902857D01*
X235190833Y-43807619D01*
X235000357Y-43712380D01*
X234619404Y-43617142D01*
X234428928Y-43521904D01*
X234333690Y-43426666D01*
X234238452Y-43236190D01*
X234238452Y-43045714D01*
X234333690Y-42855238D01*
X234428928Y-42760000D01*
X234619404Y-42664761D01*
X235095595Y-42664761D01*
X235381309Y-42760000D01*
X235952738Y-43331428D02*
X236714642Y-43331428D01*
X236238452Y-42664761D02*
X236238452Y-44379047D01*
X236333690Y-44569523D01*
X236524166Y-44664761D01*
X236714642Y-44664761D01*
X238238452Y-44664761D02*
X238238452Y-43617142D01*
X238143214Y-43426666D01*
X237952738Y-43331428D01*
X237571785Y-43331428D01*
X237381309Y-43426666D01*
X238238452Y-44569523D02*
X238047976Y-44664761D01*
X237571785Y-44664761D01*
X237381309Y-44569523D01*
X237286071Y-44379047D01*
X237286071Y-44188571D01*
X237381309Y-43998095D01*
X237571785Y-43902857D01*
X238047976Y-43902857D01*
X238238452Y-43807619D01*
X239190833Y-44664761D02*
X239190833Y-43331428D01*
X239190833Y-43712380D02*
X239286071Y-43521904D01*
X239381309Y-43426666D01*
X239571785Y-43331428D01*
X239762261Y-43331428D01*
X240143214Y-43331428D02*
X240905119Y-43331428D01*
X240428928Y-42664761D02*
X240428928Y-44379047D01*
X240524166Y-44569523D01*
X240714642Y-44664761D01*
X240905119Y-44664761D01*
X205833690Y-44664761D02*
X205833690Y-42664761D01*
X205833690Y-43617142D02*
X206976547Y-43617142D01*
X206976547Y-44664761D02*
X206976547Y-42664761D01*
X208690833Y-44569523D02*
X208500357Y-44664761D01*
X208119404Y-44664761D01*
X207928928Y-44569523D01*
X207833690Y-44379047D01*
X207833690Y-43617142D01*
X207928928Y-43426666D01*
X208119404Y-43331428D01*
X208500357Y-43331428D01*
X208690833Y-43426666D01*
X208786071Y-43617142D01*
X208786071Y-43807619D01*
X207833690Y-43998095D01*
X209928928Y-44664761D02*
X209738452Y-44569523D01*
X209643214Y-44379047D01*
X209643214Y-42664761D01*
X210690833Y-43331428D02*
X210690833Y-45331428D01*
X210690833Y-43426666D02*
X210881309Y-43331428D01*
X211262261Y-43331428D01*
X211452738Y-43426666D01*
X211547976Y-43521904D01*
X211643214Y-43712380D01*
X211643214Y-44283809D01*
X211547976Y-44474285D01*
X211452738Y-44569523D01*
X211262261Y-44664761D01*
X210881309Y-44664761D01*
X210690833Y-44569523D01*
D11*
%TO.C,REF\u002A\u002A*%
X77974272Y-145990422D02*
G75*
G02*
X78106982Y-145964440I133171J-328301D01*
G01*
X79985192Y-143323098D02*
G75*
G02*
X80808647Y-143323098I411727J894542D01*
G01*
X77079094Y-147686083D02*
G75*
G02*
X77138587Y-147646382I124060J-121481D01*
G01*
X77283931Y-147646382D02*
G75*
G02*
X77342901Y-147686082I-66233J-162026D01*
G01*
X80822981Y-138942839D02*
G75*
G02*
X80867167Y-138979314I1J-45000D01*
G01*
X79926672Y-138979315D02*
G75*
G02*
X79970857Y-138942839I44185J-8524D01*
G01*
X77783728Y-143060099D02*
G75*
G02*
X77816778Y-143087064I-8525J-44185D01*
G01*
X78102544Y-141027319D02*
G75*
G02*
X78106848Y-141069755I-37270J-25216D01*
G01*
X79417670Y-144826887D02*
G75*
G02*
X79358788Y-144851452I-41661J17010D01*
G01*
X77576300Y-147694461D02*
G75*
G02*
X77582607Y-147768711I-409563J-72184D01*
G01*
X77557378Y-147629652D02*
G75*
G02*
X77576300Y-147694461I-286071J-118690D01*
G01*
X77267163Y-146916823D02*
G75*
G02*
X77136549Y-146887343I-4614J283646D01*
G01*
X77212072Y-147633148D02*
G75*
G02*
X77283932Y-147646382I2182J-189857D01*
G01*
X78233416Y-139662510D02*
G75*
G02*
X78290453Y-139657058I31821J-31820D01*
G01*
X77630873Y-144592058D02*
G75*
G02*
X77625422Y-144535022I31820J31820D01*
G01*
X76947679Y-142898803D02*
G75*
G02*
X76911203Y-142854618I8524J44185D01*
G01*
X77039708Y-147749346D02*
G75*
G02*
X77079094Y-147686082I159890J-55652D01*
G01*
X77382288Y-147749346D02*
G75*
G02*
X77395398Y-147833264I-235787J-79820D01*
G01*
X77272336Y-147445942D02*
G75*
G02*
X77378900Y-147466545I-537J-288680D01*
G01*
X77346512Y-146908431D02*
G75*
G02*
X77267163Y-146916823I-76878J347569D01*
G01*
X77342900Y-147686083D02*
G75*
G02*
X77382287Y-147749346I-120503J-118915D01*
G01*
X77481690Y-147528354D02*
G75*
G02*
X77557378Y-147629652I-162236J-200146D01*
G01*
X77030041Y-147556115D02*
G75*
G02*
X77134291Y-147473486I220933J-171665D01*
G01*
X81798156Y-140134181D02*
G75*
G02*
X81755719Y-140138485I-25216J37271D01*
G01*
X81055428Y-139848414D02*
G75*
G02*
X81028463Y-139815364I17220J41575D01*
G01*
X79765375Y-139815363D02*
G75*
G02*
X79738411Y-139848414I-44185J8524D01*
G01*
X77138587Y-147646382D02*
G75*
G02*
X77212072Y-147633147I71034J-183787D01*
G01*
X77378900Y-147466546D02*
G75*
G02*
X77481690Y-147528355I-146135J-359402D01*
G01*
X77026598Y-147833264D02*
G75*
G02*
X77039708Y-147749346I248897J4098D01*
G01*
X79038119Y-140138485D02*
G75*
G02*
X78995682Y-140134181I-17221J41575D01*
G01*
X77625421Y-140322088D02*
G75*
G02*
X77630874Y-140265053I37272J25215D01*
G01*
X77816778Y-141770047D02*
G75*
G02*
X77783728Y-141797012I-41575J17220D01*
G01*
X76911203Y-142002494D02*
G75*
G02*
X76947678Y-141958308I45000J1D01*
G01*
X78290453Y-145200052D02*
G75*
G02*
X78233417Y-145194601I-25216J37271D01*
G01*
X78995682Y-144722929D02*
G75*
G02*
X79038119Y-144718627I25216J-37272D01*
G01*
X77136549Y-146887344D02*
G75*
G02*
X77026592Y-146807512I210458J405518D01*
G01*
X77134291Y-147473486D02*
G75*
G02*
X77272336Y-147445943I132122J-302485D01*
G01*
X78106849Y-143787355D02*
G75*
G02*
X78102545Y-143829792I-41575J-17221D01*
G01*
X79985191Y-143323097D02*
G75*
G02*
X80008038Y-143380986I-18815J-40879D01*
G01*
X77568844Y-146202428D02*
G75*
G02*
X77579173Y-146295600I-669909J-121421D01*
G01*
X84448323Y-146154820D02*
G75*
G02*
X84524700Y-146140886I73934J-188964D01*
G01*
X80198653Y-146172732D02*
G75*
G02*
X80247321Y-146148849I72564J-86343D01*
G01*
X80532171Y-145998868D02*
G75*
G02*
X80688174Y-146090964I-204712J-524946D01*
G01*
X80459210Y-146539774D02*
G75*
G02*
X80494850Y-146558118I-32455J-106853D01*
G01*
X80474027Y-146898210D02*
G75*
G02*
X80324965Y-146916823I-144062J547532D01*
G01*
X80436377Y-145973045D02*
G75*
G02*
X80532171Y-145998869I-72922J-461086D01*
G01*
X80052537Y-146438909D02*
G75*
G02*
X79995413Y-146358379I140755J160369D01*
G01*
X84524701Y-146140885D02*
G75*
G02*
X84600058Y-146154820I2309J-198248D01*
G01*
X80075783Y-146037170D02*
G75*
G02*
X80187360Y-145982621I210853J-289900D01*
G01*
X80244484Y-146514867D02*
G75*
G02*
X80138609Y-146491574I23206J357743D01*
G01*
X80440729Y-146351761D02*
G75*
G02*
X80507906Y-146361056I-29233J-458636D01*
G01*
X77516342Y-146085371D02*
G75*
G02*
X77568844Y-146202428I-225120J-171272D01*
G01*
X80507906Y-146361056D02*
G75*
G02*
X80564837Y-146379036I-65636J-306948D01*
G01*
X80226884Y-146330621D02*
G75*
G02*
X80189619Y-146309801I24717J88002D01*
G01*
X80457722Y-146165201D02*
G75*
G02*
X80572411Y-146227387I-238745J-577164D01*
G01*
X80494850Y-146558118D02*
G75*
G02*
X80516223Y-146585394I-44990J-57266D01*
G01*
X77414130Y-145998868D02*
G75*
G02*
X77516342Y-146085370I-159303J-291875D01*
G01*
X80247322Y-146148849D02*
G75*
G02*
X80323230Y-146140886I70147J-302915D01*
G01*
X80001225Y-146127114D02*
G75*
G02*
X80075784Y-146037170I208798J-97208D01*
G01*
X77135582Y-145991551D02*
G75*
G02*
X77267163Y-145964440I128193J-289313D01*
G01*
X80598440Y-146842371D02*
G75*
G02*
X80474028Y-146898210I-233929J354687D01*
G01*
X80409302Y-146530360D02*
G75*
G02*
X80459210Y-146539774I-16623J-225117D01*
G01*
X84344074Y-146264666D02*
G75*
G02*
X84386132Y-146196616I174181J-60631D01*
G01*
X77414130Y-146883254D02*
G75*
G02*
X77346512Y-146908431I-124997J232323D01*
G01*
X77516342Y-146796753D02*
G75*
G02*
X77414130Y-146883255I-251650J193714D01*
G01*
X77267164Y-145964441D02*
G75*
G02*
X77346512Y-145973045I2466J-347421D01*
G01*
X80286653Y-146341001D02*
G75*
G02*
X80226885Y-146330621I14214J259086D01*
G01*
X77346512Y-145973045D02*
G75*
G02*
X77414130Y-145998869I-57952J-253176D01*
G01*
X80170091Y-146282636D02*
G75*
G02*
X80163563Y-146253209I63119J29439D01*
G01*
X77568845Y-146680126D02*
G75*
G02*
X77516342Y-146796753I-271281J51992D01*
G01*
X80323230Y-146140886D02*
G75*
G02*
X80457722Y-146165201I5952J-351190D01*
G01*
X77579173Y-146586953D02*
G75*
G02*
X77568844Y-146680126I-685777J28863D01*
G01*
X84386132Y-146196616D02*
G75*
G02*
X84448324Y-146154820I130861J-127550D01*
G01*
X80682528Y-146752211D02*
G75*
G02*
X80598439Y-146842371I-217089J118177D01*
G01*
X80647934Y-146441060D02*
G75*
G02*
X80694895Y-146528154I-221813J-175809D01*
G01*
X80189619Y-146309801D02*
G75*
G02*
X80170091Y-146282636I65933J67997D01*
G01*
X84600058Y-146154820D02*
G75*
G02*
X84661782Y-146196616I-69393J-168951D01*
G01*
X80138610Y-146491574D02*
G75*
G02*
X80052538Y-146438909I105983J269880D01*
G01*
X80106328Y-146875401D02*
G75*
G02*
X79915263Y-146751135I236730J573002D01*
G01*
X80163563Y-146253209D02*
G75*
G02*
X80198653Y-146172731I103992J2546D01*
G01*
X84328043Y-146357357D02*
G75*
G02*
X84344073Y-146264667I297408J-3703D01*
G01*
X84661781Y-146196617D02*
G75*
G02*
X84704005Y-146264667I-135058J-130924D01*
G01*
X84704005Y-146264667D02*
G75*
G02*
X84720944Y-146357357I-286972J-100336D01*
G01*
X80564837Y-146379037D02*
G75*
G02*
X80647934Y-146441060I-79219J-192811D01*
G01*
X79995413Y-146358378D02*
G75*
G02*
X79976381Y-146251487I262888J101947D01*
G01*
X79976381Y-146251487D02*
G75*
G02*
X80001225Y-146127114I292665J6207D01*
G01*
X80187360Y-145982621D02*
G75*
G02*
X80323230Y-145964440I131006J-462243D01*
G01*
X77026592Y-146072888D02*
G75*
G02*
X77135582Y-145991551I246390J-216466D01*
G01*
X80324965Y-146916823D02*
G75*
G02*
X80106329Y-146875401I-3818J577567D01*
G01*
X80710567Y-146630633D02*
G75*
G02*
X80682528Y-146752211I-255872J-5012D01*
G01*
X80323230Y-145964441D02*
G75*
G02*
X80436376Y-145973045I3896J-696994D01*
G01*
X80694895Y-146528154D02*
G75*
G02*
X80710567Y-146630633I-309198J-99723D01*
G01*
X77210356Y-146151643D02*
G75*
G02*
X77269813Y-146157348I2861J-282908D01*
G01*
X80339591Y-146741237D02*
G75*
G02*
X80180585Y-146711327I-3839J417197D01*
G01*
X77052628Y-146245894D02*
G75*
G02*
X77105078Y-146175207I110906J-27490D01*
G01*
X80180585Y-146711327D02*
G75*
G02*
X80046093Y-146621596I159372J384531D01*
G01*
X77105079Y-146175207D02*
G75*
G02*
X77151114Y-146157536I77963J-134300D01*
G01*
X84878986Y-146195542D02*
G75*
G02*
X84907713Y-146357357I-402944J-154993D01*
G01*
X79640804Y-147445943D02*
G75*
G02*
X79770972Y-147476497I3859J-276115D01*
G01*
X84524700Y-145964440D02*
G75*
G02*
X84668337Y-145991014I2840J-386133D01*
G01*
X84391998Y-145990421D02*
G75*
G02*
X84524700Y-145964440I133167J-328280D01*
G01*
X79560764Y-147454548D02*
G75*
G02*
X79640804Y-147445943I77500J-344341D01*
G01*
X84343632Y-146611967D02*
G75*
G02*
X84328043Y-146511424I279371J94797D01*
G01*
X84149235Y-146575668D02*
G75*
G02*
X84140834Y-146444288I936559J125843D01*
G01*
X77269813Y-146157349D02*
G75*
G02*
X77316063Y-146174455I-31659J-156668D01*
G01*
X84216467Y-146765566D02*
G75*
G02*
X84174436Y-146682762I273036J190661D01*
G01*
X84411995Y-146893638D02*
G75*
G02*
X84275299Y-146824081I176444J515856D01*
G01*
X84733861Y-146882394D02*
G75*
G02*
X84553097Y-146916823I-179361J449964D01*
G01*
X84461434Y-146726874D02*
G75*
G02*
X84390428Y-146683784I70284J195867D01*
G01*
X77151114Y-146157535D02*
G75*
G02*
X77210356Y-146151644I56390J-266236D01*
G01*
X77316063Y-146174455D02*
G75*
G02*
X77368943Y-146242880I-55007J-97156D01*
G01*
X84553097Y-146916824D02*
G75*
G02*
X84411994Y-146893638I318J442885D01*
G01*
X77368943Y-146639887D02*
G75*
G02*
X77316063Y-146707830I-107161J28853D01*
G01*
X77210356Y-146730478D02*
G75*
G02*
X77151114Y-146724614I-2858J273330D01*
G01*
X77105078Y-146707023D02*
G75*
G02*
X77052628Y-146636659I57952J97928D01*
G01*
X77395409Y-146441707D02*
G75*
G02*
X77368943Y-146639887I-704468J-6779D01*
G01*
X84148573Y-146318799D02*
G75*
G02*
X84171875Y-146214315I576798J-73794D01*
G01*
X84754078Y-146651290D02*
G75*
G02*
X84658642Y-146718750I-222903J214105D01*
G01*
X80516223Y-146585394D02*
G75*
G02*
X80523357Y-146621596I-80347J-34636D01*
G01*
X77368943Y-146242880D02*
G75*
G02*
X77395409Y-146441707I-684827J-192333D01*
G01*
X80523356Y-146621596D02*
G75*
G02*
X80510329Y-146673670I-101661J-2233D01*
G01*
X80471273Y-146711111D02*
G75*
G02*
X80412331Y-146733705I-104091J183368D01*
G01*
X84668337Y-145991014D02*
G75*
G02*
X84792804Y-146070737I-149751J-370819D01*
G01*
X84174437Y-146682761D02*
G75*
G02*
X84149235Y-146575668I522251J179411D01*
G01*
X84264970Y-146068370D02*
G75*
G02*
X84391998Y-145990421I307351J-358388D01*
G01*
X84275298Y-146824081D02*
G75*
G02*
X84216467Y-146765565I136263J195832D01*
G01*
X84816050Y-146836346D02*
G75*
G02*
X84733862Y-146882394I-217549J291915D01*
G01*
X84658642Y-146718751D02*
G75*
G02*
X84549654Y-146741237I-107386J245116D01*
G01*
X79492761Y-147480372D02*
G75*
G02*
X79560764Y-147454548I125726J-228628D01*
G01*
X79770972Y-147476497D02*
G75*
G02*
X79881364Y-147556115I-233683J-440345D01*
G01*
X84210656Y-146130841D02*
G75*
G02*
X84264970Y-146068371I228733J-144025D01*
G01*
X84171875Y-146214316D02*
G75*
G02*
X84210655Y-146130841I352840J-113176D01*
G01*
X84792804Y-146070736D02*
G75*
G02*
X84878986Y-146195542I-230508J-251331D01*
G01*
X80510329Y-146673670D02*
G75*
G02*
X80471273Y-146711111I-89053J53804D01*
G01*
X84889645Y-146767058D02*
G75*
G02*
X84816050Y-146836346I-342538J290102D01*
G01*
X77052628Y-146636659D02*
G75*
G02*
X77026592Y-146441707I699607J192649D01*
G01*
X77269813Y-146724816D02*
G75*
G02*
X77210356Y-146730478I-56585J279193D01*
G01*
X84140833Y-146444289D02*
G75*
G02*
X84148573Y-146318800I941221J4933D01*
G01*
X79391623Y-147566873D02*
G75*
G02*
X79492761Y-147480372I252035J-192305D01*
G01*
X77026592Y-146441707D02*
G75*
G02*
X77052628Y-146245893I731988J2309D01*
G01*
X84390428Y-146683783D02*
G75*
G02*
X84343633Y-146611967I121541J130349D01*
G01*
X84549654Y-146741237D02*
G75*
G02*
X84461434Y-146726873I-3215J258357D01*
G01*
X77151113Y-146724614D02*
G75*
G02*
X77105078Y-146707023I31866J152423D01*
G01*
X77316063Y-146707830D02*
G75*
G02*
X77269813Y-146724816I-77818J140429D01*
G01*
X80412331Y-146733705D02*
G75*
G02*
X80339590Y-146741237I-69783J318953D01*
G01*
X82316053Y-146807511D02*
G75*
G02*
X82212547Y-146889495I-219941J171350D01*
G01*
X82208443Y-146717353D02*
G75*
G02*
X82136583Y-146730478I-69661J178106D01*
G01*
X82136584Y-146730478D02*
G75*
G02*
X82063099Y-146717352I-2467J198455D01*
G01*
X82003605Y-146677974D02*
G75*
G02*
X81964219Y-146614818I118613J117831D01*
G01*
X79391622Y-148278255D02*
G75*
G02*
X79338685Y-148161198I209556J165266D01*
G01*
X81967772Y-146896327D02*
G75*
G02*
X81864596Y-146834840I142621J356626D01*
G01*
X82212546Y-146889495D02*
G75*
G02*
X82075906Y-146916823I-130855J299014D01*
G01*
X82306798Y-146614818D02*
G75*
G02*
X82267412Y-146677974I-157998J54675D01*
G01*
X82920893Y-146258213D02*
G75*
G02*
X82963034Y-146197908I132452J-47680D01*
G01*
X83014567Y-145991983D02*
G75*
G02*
X83152612Y-145964440I132123J-302485D01*
G01*
X81746292Y-148189603D02*
G75*
G02*
X81715609Y-148152162I75831J93438D01*
G01*
X79492761Y-148364758D02*
G75*
G02*
X79391623Y-148278256I141802J268170D01*
G01*
X83252428Y-145982406D02*
G75*
G02*
X83347121Y-146036308I-125272J-330202D01*
G01*
X81770178Y-146668653D02*
G75*
G02*
X81763899Y-146594053I414017J72416D01*
G01*
X82267412Y-146677974D02*
G75*
G02*
X82208443Y-146717352I-124728J122941D01*
G01*
X79560765Y-148389934D02*
G75*
G02*
X79492761Y-148364758I57155J258815D01*
G01*
X82906873Y-146346599D02*
G75*
G02*
X82920893Y-146258213I250099J5635D01*
G01*
X81876680Y-148226182D02*
G75*
G02*
X81798678Y-148217037I-5378J291345D01*
G01*
X81964219Y-146614818D02*
G75*
G02*
X81951109Y-146530360I238145J80214D01*
G01*
X82038054Y-148198209D02*
G75*
G02*
X81974265Y-148220050I-87886J152611D01*
G01*
X79881364Y-148290736D02*
G75*
G02*
X79772156Y-148371429I-246516J219385D01*
G01*
X83088051Y-146151644D02*
G75*
G02*
X83150436Y-146163157I-587J-177963D01*
G01*
X83152612Y-145964440D02*
G75*
G02*
X83252428Y-145982406I75J-285845D01*
G01*
X82319909Y-146530360D02*
G75*
G02*
X82306799Y-146614818I-251255J-4244D01*
G01*
X81798679Y-148217037D02*
G75*
G02*
X81746292Y-148189602I30567J122101D01*
G01*
X82963034Y-146197908D02*
G75*
G02*
X83088052Y-146151644I124938J-145569D01*
G01*
X82081105Y-148063936D02*
G75*
G02*
X82070335Y-148150008I-287481J-7740D01*
G01*
X83150436Y-146163157D02*
G75*
G02*
X83211995Y-146197693I-87317J-227769D01*
G01*
X82075906Y-146916823D02*
G75*
G02*
X81967772Y-146896327I206J296579D01*
G01*
X81715608Y-148152162D02*
G75*
G02*
X81705390Y-148108693I84809J42872D01*
G01*
X82070335Y-148150008D02*
G75*
G02*
X82056894Y-148178843I-109309J33402D01*
G01*
X82056893Y-148178843D02*
G75*
G02*
X82038054Y-148198209I-58934J38484D01*
G01*
X79338685Y-147683931D02*
G75*
G02*
X79391623Y-147566873I268174J-50779D01*
G01*
X82910317Y-146074612D02*
G75*
G02*
X83014567Y-145991983I220933J-171665D01*
G01*
X79328686Y-147776566D02*
G75*
G02*
X79338685Y-147683931I698491J-28531D01*
G01*
X81789074Y-146733651D02*
G75*
G02*
X81770179Y-146668653I287453J118805D01*
G01*
X81864597Y-146834839D02*
G75*
G02*
X81789074Y-146733651I160828J198813D01*
G01*
X81974265Y-148220050D02*
G75*
G02*
X81876680Y-148226183I-82182J528225D01*
G01*
X82063099Y-146717351D02*
G75*
G02*
X82003606Y-146677974I64104J161480D01*
G01*
X79338685Y-148161199D02*
G75*
G02*
X79328687Y-148067379I706241J122705D01*
G01*
X79640804Y-148398326D02*
G75*
G02*
X79560764Y-148389934I-2544J361627D01*
G01*
X79772156Y-148371428D02*
G75*
G02*
X79640804Y-148398326I-128047J291134D01*
G01*
X83581108Y-147636324D02*
G75*
G02*
X83642832Y-147678120I-69393J-168951D01*
G01*
X78873108Y-147828102D02*
G75*
G02*
X78887128Y-147739717I250098J5635D01*
G01*
X79054286Y-147633147D02*
G75*
G02*
X79116671Y-147644660I-588J-177963D01*
G01*
X83642831Y-147678120D02*
G75*
G02*
X83685055Y-147746170I-135058J-130924D01*
G01*
X83121884Y-147925792D02*
G75*
G02*
X83129624Y-147800303I941221J4933D01*
G01*
X83130285Y-148057171D02*
G75*
G02*
X83121884Y-147925791I936559J125843D01*
G01*
X83197517Y-148247069D02*
G75*
G02*
X83155486Y-148164265I273036J190661D01*
G01*
X83246020Y-147549874D02*
G75*
G02*
X83373048Y-147471925I307351J-358387D01*
G01*
X83685055Y-147746170D02*
G75*
G02*
X83701994Y-147838860I-286972J-100336D01*
G01*
X78929268Y-147679411D02*
G75*
G02*
X79054286Y-147633147I124938J-145569D01*
G01*
X79116670Y-147644660D02*
G75*
G02*
X79178229Y-147679196I-87317J-227769D01*
G01*
X78876551Y-147556115D02*
G75*
G02*
X78980801Y-147473486I220933J-171665D01*
G01*
X83152925Y-147695819D02*
G75*
G02*
X83191705Y-147612344I352840J-113176D01*
G01*
X83505750Y-147445943D02*
G75*
G02*
X83649387Y-147472517I2840J-386133D01*
G01*
X83324683Y-148093470D02*
G75*
G02*
X83309094Y-147992927I279370J94796D01*
G01*
X79118846Y-147445944D02*
G75*
G02*
X79218662Y-147463910I75J-285844D01*
G01*
X83129623Y-147800303D02*
G75*
G02*
X83152925Y-147695819I576798J-73793D01*
G01*
X83373048Y-147471925D02*
G75*
G02*
X83505750Y-147445943I133168J-328279D01*
G01*
X83797100Y-148317850D02*
G75*
G02*
X83714912Y-148363898I-217549J291915D01*
G01*
X83860036Y-147677045D02*
G75*
G02*
X83888763Y-147838860I-402944J-154993D01*
G01*
X83442484Y-148208377D02*
G75*
G02*
X83371478Y-148165287I70284J195867D01*
G01*
X83256349Y-148305584D02*
G75*
G02*
X83197517Y-148247069I136262J195832D01*
G01*
X83714911Y-148363897D02*
G75*
G02*
X83534147Y-148398326I-179361J449964D01*
G01*
X83639692Y-148200254D02*
G75*
G02*
X83530704Y-148222740I-107386J245116D01*
G01*
X81705390Y-148108693D02*
G75*
G02*
X81714424Y-148060953I107020J4473D01*
G01*
X81793198Y-148004361D02*
G75*
G02*
X81862909Y-147995511I74923J-311206D01*
G01*
X83309094Y-147838860D02*
G75*
G02*
X83325124Y-147746170I297408J-3703D01*
G01*
X83191706Y-147612344D02*
G75*
G02*
X83246020Y-147549874I228733J-144025D01*
G01*
X78887127Y-147739716D02*
G75*
G02*
X78929268Y-147679411I132452J-47680D01*
G01*
X83371478Y-148165286D02*
G75*
G02*
X83324683Y-148093470I121541J130349D01*
G01*
X79218662Y-147463909D02*
G75*
G02*
X79313355Y-147517811I-125272J-330203D01*
G01*
X83870695Y-148248561D02*
G75*
G02*
X83797100Y-148317849I-342538J290102D01*
G01*
X83534148Y-148398327D02*
G75*
G02*
X83393045Y-148375141I317J442885D01*
G01*
X83735129Y-148132794D02*
G75*
G02*
X83639692Y-148200254I-222904J214106D01*
G01*
X83393045Y-148375141D02*
G75*
G02*
X83256349Y-148305584I176445J515856D01*
G01*
X81714425Y-148060953D02*
G75*
G02*
X81743703Y-148026175I79832J-37494D01*
G01*
X81743703Y-148026175D02*
G75*
G02*
X81793197Y-148004361I82949J-121148D01*
G01*
X78980802Y-147473486D02*
G75*
G02*
X79118847Y-147445943I132122J-302485D01*
G01*
X83649387Y-147472517D02*
G75*
G02*
X83773854Y-147552240I-149751J-370820D01*
G01*
X83530704Y-148222741D02*
G75*
G02*
X83442484Y-148208377I-3215J258357D01*
G01*
X83155486Y-148164264D02*
G75*
G02*
X83130285Y-148057171I522252J179410D01*
G01*
X83429373Y-147636323D02*
G75*
G02*
X83505750Y-147622389I73934J-188964D01*
G01*
X83325124Y-147746170D02*
G75*
G02*
X83367182Y-147678120I174181J-60630D01*
G01*
X83367182Y-147678119D02*
G75*
G02*
X83429374Y-147636323I130861J-127550D01*
G01*
X83505750Y-147622388D02*
G75*
G02*
X83581108Y-147636323I2310J-198249D01*
G01*
X83773854Y-147552239D02*
G75*
G02*
X83860036Y-147677045I-230508J-251332D01*
G01*
X81609431Y-147921919D02*
G75*
G02*
X81701314Y-147862421I169992J-161823D01*
G01*
X79157213Y-146204579D02*
G75*
G02*
X79196600Y-146267842I-120503J-118916D01*
G01*
X81709053Y-147478973D02*
G75*
G02*
X81791517Y-147453983I145525J-331661D01*
G01*
X79196601Y-146267842D02*
G75*
G02*
X79209711Y-146351760I-235787J-79820D01*
G01*
X81723899Y-147695119D02*
G75*
G02*
X81787606Y-147637020I116176J-63412D01*
G01*
X78952900Y-146164879D02*
G75*
G02*
X79026385Y-146151644I71034J-183787D01*
G01*
X81787606Y-147637020D02*
G75*
G02*
X81836027Y-147626047I81225J-246098D01*
G01*
X81836027Y-147626047D02*
G75*
G02*
X81895189Y-147622389I56722J-437164D01*
G01*
X81404487Y-146527887D02*
G75*
G02*
X81396748Y-146584157I-345256J18820D01*
G01*
X81976854Y-147628630D02*
G75*
G02*
X82035052Y-147650791I-29555J-165116D01*
G01*
X81853875Y-148401769D02*
G75*
G02*
X81718639Y-148379498I2254J435420D01*
G01*
X81935208Y-148395958D02*
G75*
G02*
X81853874Y-148401768I-77481J512481D01*
G01*
X78854021Y-146267843D02*
G75*
G02*
X78893407Y-146204579I159890J-55652D01*
G01*
X81701314Y-147862420D02*
G75*
G02*
X81828921Y-147841441I125101J-362353D01*
G01*
X82069811Y-147688881D02*
G75*
G02*
X82081104Y-147742890I-106147J-50379D01*
G01*
X81621053Y-148319571D02*
G75*
G02*
X81556493Y-148229518I174687J193406D01*
G01*
X79390613Y-146212958D02*
G75*
G02*
X79396920Y-146287208I-409563J-72184D01*
G01*
X81534982Y-148117733D02*
G75*
G02*
X81553601Y-148010464I299476J3269D01*
G01*
X78893407Y-146204580D02*
G75*
G02*
X78952900Y-146164879I124060J-121481D01*
G01*
X79193213Y-145985042D02*
G75*
G02*
X79296003Y-146046851I-146135J-359403D01*
G01*
X81553601Y-148010464D02*
G75*
G02*
X81609431Y-147921919I249196J-95250D01*
G01*
X81999329Y-148378530D02*
G75*
G02*
X81935209Y-148395959I-105250J260534D01*
G01*
X79296003Y-146046852D02*
G75*
G02*
X79371691Y-146148149I-162235J-200145D01*
G01*
X79371691Y-146148149D02*
G75*
G02*
X79390613Y-146212958I-286071J-118690D01*
G01*
X82255010Y-147675027D02*
G75*
G02*
X82262282Y-147753648I-456368J-81854D01*
G01*
X82235399Y-147608724D02*
G75*
G02*
X82255010Y-147675026I-287454J-121075D01*
G01*
X82158995Y-147513077D02*
G75*
G02*
X82235400Y-147608725I-127016J-179801D01*
G01*
X82039156Y-147462511D02*
G75*
G02*
X82158996Y-147513077I-85011J-368762D01*
G01*
X81556493Y-148229518D02*
G75*
G02*
X81534982Y-148117733I260610J108112D01*
G01*
X81886155Y-147446803D02*
G75*
G02*
X82039156Y-147462510I13417J-622317D01*
G01*
X82077220Y-148308812D02*
G75*
G02*
X81999329Y-148378530I-133284J70540D01*
G01*
X81396748Y-146584156D02*
G75*
G02*
X81361025Y-146662051I-229113J57934D01*
G01*
X82035052Y-147650792D02*
G75*
G02*
X82069811Y-147688881I-51287J-81708D01*
G01*
X81791518Y-147453984D02*
G75*
G02*
X81886155Y-147446803I83688J-475757D01*
G01*
X81580593Y-147582366D02*
G75*
G02*
X81709054Y-147478973I259148J-190478D01*
G01*
X81718639Y-148379499D02*
G75*
G02*
X81621054Y-148319571I81914J242805D01*
G01*
X79026385Y-146151645D02*
G75*
G02*
X79098245Y-146164879I2182J-189857D01*
G01*
X78948604Y-145991983D02*
G75*
G02*
X79086649Y-145964440I132122J-302485D01*
G01*
X78844354Y-146074612D02*
G75*
G02*
X78948604Y-145991983I220933J-171665D01*
G01*
X81298833Y-146713371D02*
G75*
G02*
X81210392Y-146730478I-83594J195002D01*
G01*
X78840911Y-146351760D02*
G75*
G02*
X78854021Y-146267842I248897J4098D01*
G01*
X79098244Y-146164879D02*
G75*
G02*
X79157214Y-146204579I-66233J-162026D01*
G01*
X81361025Y-146662051D02*
G75*
G02*
X81298833Y-146713371I-125391J88611D01*
G01*
X81210392Y-146730478D02*
G75*
G02*
X81121318Y-146713371I-5122J213784D01*
G01*
X81895189Y-147622389D02*
G75*
G02*
X81976854Y-147628630I12112J-378921D01*
G01*
X79086649Y-145964440D02*
G75*
G02*
X79193213Y-145985042I-537J-288678D01*
G01*
X81121318Y-146713371D02*
G75*
G02*
X81059787Y-146662051I61118J135825D01*
G01*
X76435066Y-146662052D02*
G75*
G02*
X76372879Y-146713371I-125388J88602D01*
G01*
X76097665Y-146583725D02*
G75*
G02*
X76090564Y-146526810I375680J75770D01*
G01*
X83597381Y-146889388D02*
G75*
G02*
X83459253Y-146807082I169391J441333D01*
G01*
X83402184Y-146139716D02*
G75*
G02*
X83459253Y-146075257I256639J-169723D01*
G01*
X83947701Y-146632357D02*
G75*
G02*
X83861216Y-146705947I-215232J165331D01*
G01*
X81298833Y-146168751D02*
G75*
G02*
X81361025Y-146220072I-63201J-139932D01*
G01*
X76372879Y-146168751D02*
G75*
G02*
X76435066Y-146220072I-63203J-139922D01*
G01*
X81361025Y-146220072D02*
G75*
G02*
X81396748Y-146298828I-202658J-139404D01*
G01*
X76097664Y-146298829D02*
G75*
G02*
X76133814Y-146220072I213722J-50425D01*
G01*
X76470786Y-146298828D02*
G75*
G02*
X76478531Y-146355203I-337915J-75144D01*
G01*
X83597382Y-145992142D02*
G75*
G02*
X83751044Y-145964440I151695J-401409D01*
G01*
X83402184Y-146743093D02*
G75*
G02*
X83361448Y-146660867I310532J205047D01*
G01*
X76372879Y-146713371D02*
G75*
G02*
X76284441Y-146730478I-83592J194996D01*
G01*
X76195356Y-146713371D02*
G75*
G02*
X76133814Y-146662051I61112J135845D01*
G01*
X83861216Y-146705947D02*
G75*
G02*
X83758343Y-146730478I-101035J195731D01*
G01*
X83860774Y-146175960D02*
G75*
G02*
X83947700Y-146248907I-129664J-242775D01*
G01*
X83336989Y-146322942D02*
G75*
G02*
X83361448Y-146222278I528931J-75210D01*
G01*
X76133814Y-146220072D02*
G75*
G02*
X76195356Y-146168751I122656J-84525D01*
G01*
X83531195Y-146568044D02*
G75*
G02*
X83516047Y-146441707I456169J118774D01*
G01*
X81059787Y-146662052D02*
G75*
G02*
X81023623Y-146583725I169721J125874D01*
G01*
X83652329Y-146712430D02*
G75*
G02*
X83576614Y-146658286I67705J174693D01*
G01*
X83758342Y-146151644D02*
G75*
G02*
X83860775Y-146175959I1661J-220922D01*
G01*
X83751044Y-145964441D02*
G75*
G02*
X83851410Y-145975843I2176J-428256D01*
G01*
X83361448Y-146660867D02*
G75*
G02*
X83336990Y-146560404I501468J175293D01*
G01*
X83336990Y-146560403D02*
G75*
G02*
X83328837Y-146441707I800284J114595D01*
G01*
X83940815Y-146010057D02*
G75*
G02*
X84085856Y-146125823I-246445J-457510D01*
G01*
X76478532Y-146527887D02*
G75*
G02*
X76470786Y-146584157I-345260J18854D01*
G01*
X81023623Y-146583725D02*
G75*
G02*
X81016517Y-146526810I375679J75807D01*
G01*
X76284441Y-146730478D02*
G75*
G02*
X76195356Y-146713371I-5128J213810D01*
G01*
X83751043Y-146916823D02*
G75*
G02*
X83597381Y-146889388I-1996J432855D01*
G01*
X81016517Y-146354666D02*
G75*
G02*
X81023623Y-146298828I373058J-19106D01*
G01*
X83459253Y-146807082D02*
G75*
G02*
X83402184Y-146743093I196041J232284D01*
G01*
X81023623Y-146298828D02*
G75*
G02*
X81059787Y-146220072I213728J-50460D01*
G01*
X81121318Y-146168751D02*
G75*
G02*
X81210392Y-146151644I83952J-196677D01*
G01*
X76435065Y-146220072D02*
G75*
G02*
X76470786Y-146298828I-202659J-139396D01*
G01*
X83851411Y-145975843D02*
G75*
G02*
X83940815Y-146010057I-84576J-354922D01*
G01*
X81059787Y-146220072D02*
G75*
G02*
X81121318Y-146168751I122651J-84505D01*
G01*
X81396747Y-146298828D02*
G75*
G02*
X81404487Y-146355203I-337918J-75111D01*
G01*
X76470786Y-146584157D02*
G75*
G02*
X76435066Y-146662051I-229111J57928D01*
G01*
X81210392Y-146151644D02*
G75*
G02*
X81298833Y-146168751I4847J-212109D01*
G01*
X76133814Y-146662052D02*
G75*
G02*
X76097664Y-146583725I169728J125841D01*
G01*
X83459253Y-146075257D02*
G75*
G02*
X83597381Y-145992143I308727J-356741D01*
G01*
X83361448Y-146222278D02*
G75*
G02*
X83402184Y-146139715I354833J-123742D01*
G01*
X76090563Y-146354666D02*
G75*
G02*
X76097664Y-146298828I373056J-19069D01*
G01*
X83576614Y-146224159D02*
G75*
G02*
X83652330Y-146169773I143738J-120212D01*
G01*
X76284441Y-146151644D02*
G75*
G02*
X76372879Y-146168751I4846J-212102D01*
G01*
X76195356Y-146168752D02*
G75*
G02*
X76284441Y-146151644I83958J-196702D01*
G01*
X83516048Y-146441707D02*
G75*
G02*
X83531196Y-146314806I475427J7601D01*
G01*
X83531196Y-146314806D02*
G75*
G02*
X83576614Y-146224159I231982J-59532D01*
G01*
X83652330Y-146169773D02*
G75*
G02*
X83758343Y-146151644I100163J-266697D01*
G01*
X83328837Y-146441707D02*
G75*
G02*
X83336990Y-146322942I809831J4071D01*
G01*
X83758343Y-146730478D02*
G75*
G02*
X83652330Y-146712430I-5859J285966D01*
G01*
X83576614Y-146658285D02*
G75*
G02*
X83531196Y-146568044I185069J149694D01*
G01*
X78183178Y-147628630D02*
G75*
G02*
X78241376Y-147650791I-29555J-165116D01*
G01*
X78441723Y-147608725D02*
G75*
G02*
X78461334Y-147675026I-287453J-121074D01*
G01*
X78365319Y-147513077D02*
G75*
G02*
X78441724Y-147608725I-127016J-179801D01*
G01*
X77786917Y-147582366D02*
G75*
G02*
X77915378Y-147478973I259148J-190478D01*
G01*
X77907638Y-147862420D02*
G75*
G02*
X78035245Y-147841441I125101J-362353D01*
G01*
X78101513Y-147622389D02*
G75*
G02*
X78183178Y-147628630I12112J-378921D01*
G01*
X83851411Y-146905525D02*
G75*
G02*
X83751044Y-146916823I-98190J420854D01*
G01*
X83940815Y-146871636D02*
G75*
G02*
X83851410Y-146905526I-173676J323289D01*
G01*
X77827377Y-148319571D02*
G75*
G02*
X77762817Y-148229518I174687J193406D01*
G01*
X78060199Y-148401769D02*
G75*
G02*
X77924963Y-148379498I2254J435420D01*
G01*
X84085856Y-146756299D02*
G75*
G02*
X83940815Y-146871635I-386662J337381D01*
G01*
X78106982Y-146140886D02*
G75*
G02*
X78182350Y-146154820I2315J-198275D01*
G01*
X77762817Y-148229518D02*
G75*
G02*
X77741306Y-148117733I260610J108112D01*
G01*
X77999522Y-148004361D02*
G75*
G02*
X78069233Y-147995511I74923J-311206D01*
G01*
X78287429Y-148063936D02*
G75*
G02*
X78276659Y-148150008I-287481J-7740D01*
G01*
X78276659Y-148150008D02*
G75*
G02*
X78263218Y-148178843I-109309J33402D01*
G01*
X78263217Y-148178843D02*
G75*
G02*
X78244378Y-148198209I-58934J38484D01*
G01*
X77915377Y-147478973D02*
G75*
G02*
X77997841Y-147453983I145525J-331661D01*
G01*
X78244378Y-148198209D02*
G75*
G02*
X78180589Y-148220050I-87886J152611D01*
G01*
X78461334Y-147675027D02*
G75*
G02*
X78468606Y-147753648I-456368J-81854D01*
G01*
X78241376Y-147650792D02*
G75*
G02*
X78276135Y-147688881I-51287J-81708D01*
G01*
X77911714Y-148108693D02*
G75*
G02*
X77920749Y-148060953I107020J4473D01*
G01*
X77968407Y-146196616D02*
G75*
G02*
X78030594Y-146154820I130859J-127537D01*
G01*
X78244052Y-146196617D02*
G75*
G02*
X78286281Y-146264667I-135055J-130936D01*
G01*
X78092479Y-147446803D02*
G75*
G02*
X78245480Y-147462510I13417J-622317D01*
G01*
X77930223Y-147695119D02*
G75*
G02*
X77993930Y-147637020I116176J-63412D01*
G01*
X78042351Y-147626047D02*
G75*
G02*
X78101513Y-147622389I56722J-437164D01*
G01*
X77741306Y-148117733D02*
G75*
G02*
X77759925Y-148010464I299476J3269D01*
G01*
X78276135Y-147688881D02*
G75*
G02*
X78287428Y-147742890I-106147J-50379D01*
G01*
X77815755Y-147921920D02*
G75*
G02*
X77907638Y-147862421I169993J-161822D01*
G01*
X77926338Y-146264666D02*
G75*
G02*
X77968408Y-146196616I174188J-60655D01*
G01*
X78030594Y-146154820D02*
G75*
G02*
X78106982Y-146140886I73939J-188992D01*
G01*
X77924963Y-148379499D02*
G75*
G02*
X77827378Y-148319571I81914J242805D01*
G01*
X78205653Y-148378530D02*
G75*
G02*
X78141533Y-148395959I-105250J260534D01*
G01*
X78005003Y-148217037D02*
G75*
G02*
X77952616Y-148189602I30567J122101D01*
G01*
X78180589Y-148220050D02*
G75*
G02*
X78083004Y-148226183I-82181J528225D01*
G01*
X78283544Y-148308812D02*
G75*
G02*
X78205653Y-148378530I-133284J70540D01*
G01*
X78083004Y-148226182D02*
G75*
G02*
X78005002Y-148217037I-5378J291345D01*
G01*
X78141533Y-148395958D02*
G75*
G02*
X78060199Y-148401768I-77482J512481D01*
G01*
X77952616Y-148189603D02*
G75*
G02*
X77921933Y-148152162I75831J93438D01*
G01*
X77997842Y-147453984D02*
G75*
G02*
X78092479Y-147446803I83688J-475757D01*
G01*
X77921932Y-148152162D02*
G75*
G02*
X77911714Y-148108693I84809J42872D01*
G01*
X77993930Y-147637020D02*
G75*
G02*
X78042351Y-147626047I81225J-246098D01*
G01*
X77759925Y-148010464D02*
G75*
G02*
X77815755Y-147921919I249196J-95250D01*
G01*
X77910308Y-146357357D02*
G75*
G02*
X77926338Y-146264667I297408J-3703D01*
G01*
X77920749Y-148060953D02*
G75*
G02*
X77950027Y-148026175I79832J-37494D01*
G01*
X77950027Y-148026175D02*
G75*
G02*
X77999521Y-148004361I82949J-121148D01*
G01*
X78182350Y-146154820D02*
G75*
G02*
X78244052Y-146196616I-69404J-168899D01*
G01*
X78245480Y-147462511D02*
G75*
G02*
X78365320Y-147513077I-85011J-368762D01*
G01*
X78286281Y-146264667D02*
G75*
G02*
X78303225Y-146357357I-286969J-100354D01*
G01*
X75900562Y-146439556D02*
G75*
G02*
X75906425Y-146308887I1268356J8550D01*
G01*
X76107349Y-146002956D02*
G75*
G02*
X76185513Y-145974069I133680J-241527D01*
G01*
X78106982Y-145964440D02*
G75*
G02*
X78250616Y-145991014I2838J-386126D01*
G01*
X81033318Y-146002956D02*
G75*
G02*
X81111485Y-145974069I133682J-241536D01*
G01*
X76521085Y-146840166D02*
G75*
G02*
X76460243Y-146879167I-305500J409624D01*
G01*
X76284441Y-145964440D02*
G75*
G02*
X76382186Y-145974069I4262J-457654D01*
G01*
X80849965Y-146216414D02*
G75*
G02*
X80927223Y-146083649I341592J-109916D01*
G01*
X76644222Y-146216414D02*
G75*
G02*
X76661651Y-146308887I-456540J-133927D01*
G01*
X78375096Y-146070737D02*
G75*
G02*
X78461275Y-146195542I-230509J-251324D01*
G01*
X76046936Y-146840165D02*
G75*
G02*
X76001264Y-146798474I192586J256837D01*
G01*
X76567187Y-146798474D02*
G75*
G02*
X76521085Y-146840165I-240365J219457D01*
G01*
X81111485Y-145974069D02*
G75*
G02*
X81210392Y-145964440I94414J-457002D01*
G01*
X80832392Y-146308887D02*
G75*
G02*
X80849965Y-146216414I470061J-41419D01*
G01*
X76185512Y-146907409D02*
G75*
G02*
X76107348Y-146879167I55028J274580D01*
G01*
X76382185Y-146907409D02*
G75*
G02*
X76284441Y-146916823I-93469J458334D01*
G01*
X76661650Y-146572482D02*
G75*
G02*
X76644221Y-146665709I-475476J40649D01*
G01*
X76521086Y-146042387D02*
G75*
G02*
X76567187Y-146083649I-204210J-274544D01*
G01*
X78461276Y-146195542D02*
G75*
G02*
X78490003Y-146357357I-402944J-154993D01*
G01*
X81570186Y-146216414D02*
G75*
G02*
X81587621Y-146308887I-456537J-133955D01*
G01*
X76107348Y-146879166D02*
G75*
G02*
X76046936Y-146840165I242545J441982D01*
G01*
X76001264Y-146083649D02*
G75*
G02*
X76046936Y-146042387I247999J-228596D01*
G01*
X81447041Y-146840166D02*
G75*
G02*
X81386199Y-146879167I-305500J409624D01*
G01*
X76460243Y-146002957D02*
G75*
G02*
X76521085Y-146042387I-268104J-480346D01*
G01*
X80832393Y-146572481D02*
G75*
G02*
X80826526Y-146439556I1302595J124082D01*
G01*
X80849964Y-146665710D02*
G75*
G02*
X80832392Y-146572482I453980J133841D01*
G01*
X81493148Y-146798474D02*
G75*
G02*
X81447041Y-146840165I-240367J219486D01*
G01*
X81587620Y-146308887D02*
G75*
G02*
X81593432Y-146439556I-1274201J-122135D01*
G01*
X81493148Y-146083648D02*
G75*
G02*
X81570186Y-146216414I-262465J-241031D01*
G01*
X76001264Y-146798474D02*
G75*
G02*
X75924015Y-146665709I264339J242661D01*
G01*
X75924015Y-146216414D02*
G75*
G02*
X76001264Y-146083649I341588J-109896D01*
G01*
X76046936Y-146042387D02*
G75*
G02*
X76107348Y-146002956I326096J-433620D01*
G01*
X76382186Y-145974068D02*
G75*
G02*
X76460243Y-146002956I-56888J-273622D01*
G01*
X80927223Y-146798474D02*
G75*
G02*
X80849965Y-146665709I264334J242681D01*
G01*
X80972889Y-146840165D02*
G75*
G02*
X80927223Y-146798474I192588J256807D01*
G01*
X81033318Y-146879167D02*
G75*
G02*
X80972889Y-146840165I242536J442104D01*
G01*
X81111485Y-146907409D02*
G75*
G02*
X81033318Y-146879167I55026J274590D01*
G01*
X81210392Y-146916824D02*
G75*
G02*
X81111485Y-146907409I-4506J476932D01*
G01*
X81308142Y-146907409D02*
G75*
G02*
X81210392Y-146916823I-93472J458361D01*
G01*
X81386199Y-146879167D02*
G75*
G02*
X81308142Y-146907409I-134447J249599D01*
G01*
X81570186Y-146665709D02*
G75*
G02*
X81493148Y-146798474I-339503J108264D01*
G01*
X81587620Y-146572482D02*
G75*
G02*
X81570186Y-146665709I-475478J40677D01*
G01*
X81593432Y-146439557D02*
G75*
G02*
X81587621Y-146572482I-1320488J-8856D01*
G01*
X81447041Y-146042387D02*
G75*
G02*
X81493148Y-146083649I-204206J-274575D01*
G01*
X81386199Y-146002956D02*
G75*
G02*
X81447041Y-146042387I-268103J-480347D01*
G01*
X81308142Y-145974069D02*
G75*
G02*
X81386199Y-146002956I-56887J-273621D01*
G01*
X80826526Y-146439556D02*
G75*
G02*
X80832392Y-146308887I1268359J8521D01*
G01*
X76667460Y-146439557D02*
G75*
G02*
X76661651Y-146572482I-1320486J-8884D01*
G01*
X76284442Y-146916823D02*
G75*
G02*
X76185513Y-146907409I-4518J477036D01*
G01*
X75924016Y-146665709D02*
G75*
G02*
X75906425Y-146572482I453969J133932D01*
G01*
X75906426Y-146572481D02*
G75*
G02*
X75900562Y-146439556I1302596J124052D01*
G01*
X76185512Y-145974069D02*
G75*
G02*
X76284441Y-145964440I94425J-457104D01*
G01*
X75906424Y-146308887D02*
G75*
G02*
X75924015Y-146216414I470071J-41511D01*
G01*
X76661650Y-146308887D02*
G75*
G02*
X76667459Y-146439556I-1274201J-122108D01*
G01*
X76567186Y-146083648D02*
G75*
G02*
X76644221Y-146216414I-262466J-241024D01*
G01*
X81210392Y-145964440D02*
G75*
G02*
X81308142Y-145974069I4265J-457679D01*
G01*
X80972889Y-146042387D02*
G75*
G02*
X81033318Y-146002956I326104J-433750D01*
G01*
X76644222Y-146665708D02*
G75*
G02*
X76567187Y-146798474I-339502J108257D01*
G01*
X78250616Y-145991014D02*
G75*
G02*
X78375096Y-146070737I-149745J-370856D01*
G01*
X80927223Y-146083649D02*
G75*
G02*
X80972889Y-146042387I247995J-228564D01*
G01*
X76460243Y-146879167D02*
G75*
G02*
X76382186Y-146907409I-134447J249599D01*
G01*
X82503385Y-139657059D02*
G75*
G02*
X82560421Y-139662510I25216J-37271D01*
G01*
X83162965Y-140265053D02*
G75*
G02*
X83168416Y-140322089I-31820J-31820D01*
G01*
X83168416Y-144535022D02*
G75*
G02*
X83162965Y-144592058I-37271J-25216D01*
G01*
X83882636Y-142854618D02*
G75*
G02*
X83846160Y-142898803I-45000J0D01*
G01*
X83846160Y-141958308D02*
G75*
G02*
X83882636Y-142002493I-8524J-44185D01*
G01*
X83010110Y-141797011D02*
G75*
G02*
X82977061Y-141770047I8525J44184D01*
G01*
X82977061Y-143087063D02*
G75*
G02*
X83010111Y-143060099I41574J-17221D01*
G01*
X81755719Y-144718626D02*
G75*
G02*
X81798156Y-144722930I17221J-41575D01*
G01*
X80785801Y-143380987D02*
G75*
G02*
X80808647Y-143323098I41661J17011D01*
G01*
X82560422Y-145194601D02*
G75*
G02*
X82503385Y-145200053I-31821J31820D01*
G01*
X81435051Y-144851451D02*
G75*
G02*
X81376169Y-144826888I-17221J41574D01*
G01*
X82691294Y-143829793D02*
G75*
G02*
X82686990Y-143787356I37271J25217D01*
G01*
X82686990Y-141069756D02*
G75*
G02*
X82691293Y-141027319I41575J17221D01*
G01*
X82915422Y-147445943D02*
G75*
G02*
X83015238Y-147463910I74J-285845D01*
G01*
X82673127Y-147556115D02*
G75*
G02*
X82777377Y-147473486I220933J-171665D01*
G01*
X82850861Y-147633147D02*
G75*
G02*
X82913246Y-147644660I-588J-177963D01*
G01*
X79591998Y-147655796D02*
G75*
G02*
X79638380Y-147638810I77986J-141134D01*
G01*
X79854895Y-147727397D02*
G75*
G02*
X79881364Y-147921060I-686429J-192457D01*
G01*
X79539033Y-148121391D02*
G75*
G02*
X79512564Y-147921060I686253J192586D01*
G01*
X79881364Y-147921060D02*
G75*
G02*
X79854895Y-148117733I-724022J-2677D01*
G01*
X79802454Y-147656711D02*
G75*
G02*
X79854895Y-147727397I-59363J-98836D01*
G01*
X79698038Y-148211981D02*
G75*
G02*
X79638380Y-148206319I-2891J286665D01*
G01*
X82683703Y-147739716D02*
G75*
G02*
X82725844Y-147679411I132452J-47680D01*
G01*
X82725843Y-147679411D02*
G75*
G02*
X82850861Y-147633147I124939J-145569D01*
G01*
X82669683Y-147828102D02*
G75*
G02*
X82683703Y-147739717I250098J5635D01*
G01*
X79638380Y-147638809D02*
G75*
G02*
X79698038Y-147633147I56771J-281004D01*
G01*
X79698038Y-147633148D02*
G75*
G02*
X79756732Y-147639039I2797J-267455D01*
G01*
X79854896Y-148117733D02*
G75*
G02*
X79802454Y-148188419I-111804J28151D01*
G01*
X79591999Y-148189333D02*
G75*
G02*
X79539033Y-148121391I54088J96781D01*
G01*
X79756732Y-148206091D02*
G75*
G02*
X79698038Y-148211981I-55893J261565D01*
G01*
X79638380Y-148206319D02*
G75*
G02*
X79591998Y-148189333I31604J158120D01*
G01*
X82777377Y-147473486D02*
G75*
G02*
X82915422Y-147445943I132122J-302485D01*
G01*
X79756732Y-147639039D02*
G75*
G02*
X79802454Y-147656710I-31955J-150661D01*
G01*
X79802454Y-148188419D02*
G75*
G02*
X79756732Y-148206090I-77677J132990D01*
G01*
X79512564Y-147921059D02*
G75*
G02*
X79539033Y-147723739I701202J6375D01*
G01*
X79539033Y-147723739D02*
G75*
G02*
X79591998Y-147655796I107054J-28838D01*
G01*
X82913246Y-147644660D02*
G75*
G02*
X82974805Y-147679196I-87318J-227769D01*
G01*
X83015237Y-147463909D02*
G75*
G02*
X83109930Y-147517811I-125272J-330203D01*
G01*
X78398334Y-146836345D02*
G75*
G02*
X78316138Y-146882394I-217553J291945D01*
G01*
X77756723Y-146682761D02*
G75*
G02*
X77731508Y-146575668I522245J179479D01*
G01*
X78471926Y-146767058D02*
G75*
G02*
X78398334Y-146836346I-342536J290090D01*
G01*
X77847259Y-146068370D02*
G75*
G02*
X77974271Y-145990421I307343J-358337D01*
G01*
X77857588Y-146824081D02*
G75*
G02*
X77798751Y-146765565I136260J195847D01*
G01*
X78135386Y-146916824D02*
G75*
G02*
X77994281Y-146893638I317J442893D01*
G01*
X77798751Y-146765566D02*
G75*
G02*
X77756723Y-146682762I273038J190651D01*
G01*
X77925909Y-146611967D02*
G75*
G02*
X77910308Y-146511424I279364J94828D01*
G01*
X77792942Y-146130841D02*
G75*
G02*
X77847260Y-146068371I228735J-144034D01*
G01*
X77972710Y-146683784D02*
G75*
G02*
X77925909Y-146611967I121538J130361D01*
G01*
X77731508Y-146575668D02*
G75*
G02*
X77723102Y-146444288I936557J125883D01*
G01*
X77723101Y-146444289D02*
G75*
G02*
X77730863Y-146318800I941232J4769D01*
G01*
X77994281Y-146893638D02*
G75*
G02*
X77857588Y-146824081I176447J515846D01*
G01*
X77730862Y-146318799D02*
G75*
G02*
X77754142Y-146214315I576788J-73675D01*
G01*
X78131943Y-146741237D02*
G75*
G02*
X78043718Y-146726873I-3217J258372D01*
G01*
X77754142Y-146214315D02*
G75*
G02*
X77792942Y-146130841I352850J-113254D01*
G01*
X78316138Y-146882394D02*
G75*
G02*
X78135387Y-146916823I-179355J449928D01*
G01*
X78336362Y-146651290D02*
G75*
G02*
X78240931Y-146718750I-222900J214091D01*
G01*
X78240932Y-146718751D02*
G75*
G02*
X78131944Y-146741237I-107386J245116D01*
G01*
X78043719Y-146726873D02*
G75*
G02*
X77972710Y-146683784I70281J195873D01*
G01*
X78490003Y-146511424D02*
X77910308Y-146511424D01*
X80908607Y-147456702D02*
X81119062Y-148108693D01*
X81122946Y-148108693D02*
X81301094Y-147456702D01*
X81201691Y-148387567D02*
X81036874Y-148387567D01*
X81036874Y-148387567D02*
X81036874Y-148387567D01*
X81499486Y-147456702D02*
X81201691Y-148387567D01*
X78336362Y-146651290D02*
X78471926Y-146767058D01*
X81301094Y-147456702D02*
X81499486Y-147456702D01*
X81119062Y-148108693D02*
X81122946Y-148108693D01*
X82669684Y-147556115D02*
X82673126Y-147556115D01*
X82482474Y-148387567D02*
X82482474Y-148387567D01*
X82669684Y-147828102D02*
X82669684Y-148387567D01*
X82669684Y-148387567D02*
X82482474Y-148387567D01*
X80841925Y-147736433D02*
X80838455Y-147736433D01*
X80643946Y-148387567D02*
X80478688Y-148387567D01*
X83109930Y-147517811D02*
X82974805Y-147679196D01*
X81036874Y-148387567D02*
X80841925Y-147736433D01*
X80478688Y-148387567D02*
X80181307Y-147456702D01*
X82669684Y-147456702D02*
X82669684Y-147556115D01*
X80181307Y-147456702D02*
X80379286Y-147456702D01*
X80379286Y-147456702D02*
X80557874Y-148108693D01*
X79698038Y-147633147D02*
X79698038Y-147633147D01*
X80557874Y-148108693D02*
X80561317Y-148108693D01*
X80838455Y-147736433D02*
X80643946Y-148387567D01*
X80772186Y-147456702D02*
X80908607Y-147456702D01*
X82482474Y-148387567D02*
X82482474Y-147456702D01*
X80561317Y-148108693D02*
X80772186Y-147456702D01*
X82482474Y-147456702D02*
X82669684Y-147456702D01*
X82503385Y-145200053D02*
X81798156Y-144722930D01*
X81755719Y-144718627D02*
X81435050Y-144851452D01*
X83882636Y-142002493D02*
X83882636Y-142854618D01*
X83010111Y-141797012D02*
X83846160Y-141958308D01*
X81376169Y-144826888D02*
X80785801Y-143380986D01*
X82977061Y-143087064D02*
X82686990Y-143787356D01*
X83168416Y-140322089D02*
X82691293Y-141027319D01*
X83162965Y-144592058D02*
X82560421Y-145194601D01*
X83846160Y-142898803D02*
X83010111Y-143060099D01*
X82686990Y-141069755D02*
X82977061Y-141770047D01*
X82691293Y-143829792D02*
X83168416Y-144535022D01*
X82560421Y-139662510D02*
X83162965Y-140265053D01*
X81798156Y-140134181D02*
X82503385Y-139657058D01*
X78490003Y-146357357D02*
X78490003Y-146511424D01*
X78490003Y-146511424D02*
X78490003Y-146511424D01*
X75900562Y-146439556D02*
X75900562Y-146439556D01*
X80826526Y-146439556D02*
X80826526Y-146439556D01*
X78468606Y-148391010D02*
X78287428Y-148391010D01*
X77910308Y-146357357D02*
X78303225Y-146357357D01*
X78287428Y-148308812D02*
X78283545Y-148308812D01*
X78287428Y-148063936D02*
X78287428Y-147995511D01*
X77930223Y-147695119D02*
X77786917Y-147582366D01*
X78468606Y-147753648D02*
X78468606Y-148391010D01*
X78287428Y-148391010D02*
X78287428Y-148391010D01*
X77910308Y-146357357D02*
X77910308Y-146357357D01*
X78287428Y-147995511D02*
X78069233Y-147995511D01*
X78035245Y-147841441D02*
X78287428Y-147841441D01*
X78287428Y-147841441D02*
X78287428Y-147742890D01*
X78287428Y-148391010D02*
X78287428Y-148308812D01*
X78287428Y-148063936D02*
X78287428Y-148063936D01*
X83947700Y-146632357D02*
X84085856Y-146756299D01*
X84085856Y-146125823D02*
X83947700Y-146248907D01*
X76090564Y-146354666D02*
X76088198Y-146439556D01*
X76478531Y-146527887D02*
X76481115Y-146441707D01*
X81407076Y-146441707D02*
X81404487Y-146355203D01*
X83947700Y-146632357D02*
X83947700Y-146632357D01*
X81016517Y-146354666D02*
X81014148Y-146439556D01*
X76481115Y-146441707D02*
X76481115Y-146441707D01*
X76088198Y-146439556D02*
X76090564Y-146526810D01*
X76481115Y-146441707D02*
X76478531Y-146355203D01*
X81014148Y-146439556D02*
X81016517Y-146526810D01*
X78840911Y-146351760D02*
X78840911Y-146906064D01*
X78840911Y-145975198D02*
X78840911Y-146074612D01*
X82081104Y-147841441D02*
X82081104Y-147742890D01*
X82081104Y-148391010D02*
X82081104Y-148308812D01*
X78653701Y-145975198D02*
X78840911Y-145975198D01*
X81407076Y-146441707D02*
X81407076Y-146441707D01*
X81828921Y-147841441D02*
X82081104Y-147841441D01*
X82262282Y-147753648D02*
X82262282Y-148391010D01*
X78840911Y-146906064D02*
X78653701Y-146906064D01*
X78653701Y-146906064D02*
X78653701Y-146906064D01*
X78653701Y-146906064D02*
X78653701Y-145975198D01*
X78840911Y-146074612D02*
X78844353Y-146074612D01*
X82081104Y-148308812D02*
X82077220Y-148308812D01*
X79209711Y-146906064D02*
X79209711Y-146351760D01*
X79396920Y-146287208D02*
X79396920Y-146906064D01*
X81404487Y-146527887D02*
X81407076Y-146441707D01*
X81723899Y-147695119D02*
X81580593Y-147582366D01*
X79396920Y-146906064D02*
X79209711Y-146906064D01*
X83309094Y-147838860D02*
X83701994Y-147838860D01*
X83888763Y-147992927D02*
X83888763Y-147992927D01*
X83309094Y-147838860D02*
X83309094Y-147838860D01*
X82081104Y-148063936D02*
X82081104Y-147995511D01*
X82081104Y-147995511D02*
X81862909Y-147995511D01*
X83735128Y-148132793D02*
X83870695Y-148248561D01*
X83888763Y-147992927D02*
X83309094Y-147992927D01*
X78685899Y-147456702D02*
X78873108Y-147456702D01*
X78873108Y-148387567D02*
X78685899Y-148387567D01*
X83888763Y-147838860D02*
X83888763Y-147992927D01*
X82262282Y-148391010D02*
X82081104Y-148391010D01*
X78685899Y-148387567D02*
X78685899Y-147456702D01*
X78873108Y-147456702D02*
X78873108Y-147556115D01*
X82081104Y-148391010D02*
X82081104Y-148391010D01*
X79313355Y-147517811D02*
X79178229Y-147679196D01*
X78873108Y-147556115D02*
X78876551Y-147556115D01*
X78873108Y-147828102D02*
X78873108Y-148387567D01*
X78685899Y-148387567D02*
X78685899Y-148387567D01*
X82319909Y-146530360D02*
X82319909Y-145975198D01*
X82507119Y-145975198D02*
X82507119Y-146906064D01*
X82719664Y-145975198D02*
X82906874Y-145975198D01*
X82719664Y-146906064D02*
X82719664Y-145975198D01*
X79881364Y-148387567D02*
X79881364Y-148290736D01*
X79325354Y-147921060D02*
X79328687Y-147776566D01*
X81951109Y-145975198D02*
X81951109Y-146530360D01*
X81763899Y-145975198D02*
X81951109Y-145975198D01*
X82906874Y-146346599D02*
X82906874Y-146906064D01*
X81763899Y-146594053D02*
X81763899Y-145975198D01*
X82319909Y-145975198D02*
X82507119Y-145975198D01*
X82319909Y-146807512D02*
X82316053Y-146807512D01*
X82081104Y-148063936D02*
X82081104Y-148063936D01*
X82507119Y-146906064D02*
X82319909Y-146906064D01*
X82719664Y-146906064D02*
X82719664Y-146906064D01*
X81763899Y-146594053D02*
X81763899Y-146594053D01*
X82906874Y-146906064D02*
X82719664Y-146906064D01*
X82906874Y-145975198D02*
X82906874Y-146074612D01*
X82319909Y-146906064D02*
X82319909Y-146807512D01*
X82906874Y-146074612D02*
X82910317Y-146074612D01*
X83347121Y-146036308D02*
X83211995Y-146197693D01*
X79328687Y-148067379D02*
X79325354Y-147921060D01*
X80068574Y-147080999D02*
X80068574Y-148387567D01*
X79881364Y-147080999D02*
X80068574Y-147080999D01*
X84907713Y-146511424D02*
X84907713Y-146511424D01*
X79881364Y-148387567D02*
X79881364Y-148387567D01*
X79881364Y-147556115D02*
X79881364Y-147080999D01*
X80068574Y-148387567D02*
X79881364Y-148387567D01*
X77210356Y-146730478D02*
X77210356Y-146730478D01*
X84907713Y-146511424D02*
X84328043Y-146511424D01*
X84754078Y-146651290D02*
X84889645Y-146767058D01*
X84907713Y-146357357D02*
X84907713Y-146511424D01*
X79915263Y-146751135D02*
X80046093Y-146621596D01*
X84328043Y-146357357D02*
X84328043Y-146357357D01*
X84328043Y-146357357D02*
X84720944Y-146357357D01*
X80688174Y-146090964D02*
X80572411Y-146227387D01*
X76839388Y-145975198D02*
X77026592Y-145975198D01*
X80286653Y-146341002D02*
X80440728Y-146351760D01*
X77026592Y-145975198D02*
X77026592Y-146072888D01*
X79915263Y-146751135D02*
X79915263Y-146751135D01*
X76839388Y-148387567D02*
X76839388Y-145975198D01*
X80409302Y-146530360D02*
X80244485Y-146514867D01*
X77579173Y-146295600D02*
X77582616Y-146441707D01*
X77582616Y-146441707D02*
X77579173Y-146586953D01*
X77026592Y-146807512D02*
X77026598Y-147556115D01*
X78995682Y-144722930D02*
X78290453Y-145200053D01*
X79358788Y-144851452D02*
X79038119Y-144718627D01*
X78102545Y-141027319D02*
X77625422Y-140322089D01*
X77026598Y-147833264D02*
X77026598Y-148387567D01*
X78106848Y-143787356D02*
X77816778Y-143087064D01*
X77582607Y-147768711D02*
X77582607Y-148387567D01*
X77816778Y-141770047D02*
X78106848Y-141069755D01*
X79765376Y-139815364D02*
X79926671Y-138979314D01*
X77630874Y-140265053D02*
X78233417Y-139662510D01*
X79038119Y-140138485D02*
X79738411Y-139848414D01*
X77395398Y-148387567D02*
X77395398Y-147833264D01*
X79970857Y-138942839D02*
X80822982Y-138942839D01*
X80867167Y-138979314D02*
X81028463Y-139815364D01*
X81055427Y-139848414D02*
X81755719Y-140138485D01*
X77026598Y-147556115D02*
X77030040Y-147556115D01*
X78233417Y-145194601D02*
X77630874Y-144592058D01*
X77625422Y-144535022D02*
X78102545Y-143829792D01*
X77783728Y-143060099D02*
X76947678Y-142898803D01*
X77582607Y-148387567D02*
X77395398Y-148387567D01*
X77026598Y-148387567D02*
X76839388Y-148387567D01*
X76911203Y-142854618D02*
X76911203Y-142002493D01*
X76839388Y-148387567D02*
X76839388Y-148387567D01*
X80008038Y-143380986D02*
X79417670Y-144826888D01*
X76947678Y-141958308D02*
X77783728Y-141797012D01*
X78290453Y-139657058D02*
X78995682Y-140134181D01*
D12*
%TO.C,J1*%
X337310000Y-132020000D02*
X337310000Y-133350000D01*
X335980000Y-132020000D02*
X337310000Y-132020000D01*
X334710000Y-132020000D02*
X334710000Y-134680000D01*
X334710000Y-134680000D02*
X276230000Y-134680000D01*
X334710000Y-132020000D02*
X276230000Y-132020000D01*
X276230000Y-132020000D02*
X276230000Y-134680000D01*
%TO.C,D1*%
X29070000Y-144590000D02*
X29070000Y-144746000D01*
X29070000Y-142274000D02*
X29070000Y-142430000D01*
X31671130Y-144589837D02*
G75*
G02*
X29589039Y-144590000I-1041130J1079837D01*
G01*
X31671130Y-142430163D02*
G75*
G03*
X29589039Y-142430000I-1041130J-1079837D01*
G01*
X32302335Y-144588608D02*
G75*
G02*
X29070000Y-144745516I-1672335J1078608D01*
G01*
X32302335Y-142431392D02*
G75*
G03*
X29070000Y-142274484I-1672335J-1078608D01*
G01*
D10*
%TO.C,SWZ1*%
X86935000Y-111805000D02*
X105985000Y-111805000D01*
X105985000Y-111805000D02*
X105985000Y-130855000D01*
X105985000Y-130855000D02*
X86935000Y-130855000D01*
X86935000Y-130855000D02*
X86935000Y-111805000D01*
D12*
X89475000Y-114345000D02*
X103445000Y-114345000D01*
X103445000Y-114345000D02*
X103445000Y-128315000D01*
X103445000Y-128315000D02*
X89475000Y-128315000D01*
X89475000Y-128315000D02*
X89475000Y-114345000D01*
D10*
%TO.C,SWY1*%
X167695000Y-73635000D02*
X186745000Y-73635000D01*
X186745000Y-73635000D02*
X186745000Y-92685000D01*
X186745000Y-92685000D02*
X167695000Y-92685000D01*
X167695000Y-92685000D02*
X167695000Y-73635000D01*
D12*
X170235000Y-76175000D02*
X184205000Y-76175000D01*
X184205000Y-76175000D02*
X184205000Y-90145000D01*
X184205000Y-90145000D02*
X170235000Y-90145000D01*
X170235000Y-90145000D02*
X170235000Y-76175000D01*
D10*
%TO.C,SWX1*%
X105935000Y-111805000D02*
X124985000Y-111805000D01*
X124985000Y-111805000D02*
X124985000Y-130855000D01*
X124985000Y-130855000D02*
X105935000Y-130855000D01*
X105935000Y-130855000D02*
X105935000Y-111805000D01*
D12*
X108475000Y-114345000D02*
X122445000Y-114345000D01*
X122445000Y-114345000D02*
X122445000Y-128315000D01*
X122445000Y-128315000D02*
X108475000Y-128315000D01*
X108475000Y-128315000D02*
X108475000Y-114345000D01*
D10*
%TO.C,SWW1*%
X91695000Y-73635000D02*
X110745000Y-73635000D01*
X110745000Y-73635000D02*
X110745000Y-92685000D01*
X110745000Y-92685000D02*
X91695000Y-92685000D01*
X91695000Y-92685000D02*
X91695000Y-73635000D01*
D12*
X94235000Y-76175000D02*
X108205000Y-76175000D01*
X108205000Y-76175000D02*
X108205000Y-90145000D01*
X108205000Y-90145000D02*
X94235000Y-90145000D01*
X94235000Y-90145000D02*
X94235000Y-76175000D01*
D10*
%TO.C,SWV1*%
X143935000Y-111805000D02*
X162985000Y-111805000D01*
X162985000Y-111805000D02*
X162985000Y-130855000D01*
X162985000Y-130855000D02*
X143935000Y-130855000D01*
X143935000Y-130855000D02*
X143935000Y-111805000D01*
D12*
X146475000Y-114345000D02*
X160445000Y-114345000D01*
X160445000Y-114345000D02*
X160445000Y-128315000D01*
X160445000Y-128315000D02*
X146475000Y-128315000D01*
X146475000Y-128315000D02*
X146475000Y-114345000D01*
D10*
%TO.C,SWU1*%
X186695000Y-73635000D02*
X205745000Y-73635000D01*
X205745000Y-73635000D02*
X205745000Y-92685000D01*
X205745000Y-92685000D02*
X186695000Y-92685000D01*
X186695000Y-92685000D02*
X186695000Y-73635000D01*
D12*
X189235000Y-76175000D02*
X203205000Y-76175000D01*
X203205000Y-76175000D02*
X203205000Y-90145000D01*
X203205000Y-90145000D02*
X189235000Y-90145000D01*
X189235000Y-90145000D02*
X189235000Y-76175000D01*
%TO.C,SWTab1*%
X51535000Y-90145000D02*
X51535000Y-76175000D01*
X65505000Y-90145000D02*
X51535000Y-90145000D01*
X65505000Y-76175000D02*
X65505000Y-90145000D01*
X51535000Y-76175000D02*
X65505000Y-76175000D01*
D10*
X44232500Y-92685000D02*
X44232500Y-73635000D01*
X72807500Y-92685000D02*
X44232500Y-92685000D01*
X72807500Y-73635000D02*
X72807500Y-92685000D01*
X44232500Y-73635000D02*
X72807500Y-73635000D01*
%TO.C,SWT1*%
X148695000Y-73635000D02*
X167745000Y-73635000D01*
X167745000Y-73635000D02*
X167745000Y-92685000D01*
X167745000Y-92685000D02*
X148695000Y-92685000D01*
X148695000Y-92685000D02*
X148695000Y-73635000D01*
D12*
X151235000Y-76175000D02*
X165205000Y-76175000D01*
X165205000Y-76175000D02*
X165205000Y-90145000D01*
X165205000Y-90145000D02*
X151235000Y-90145000D01*
X151235000Y-90145000D02*
X151235000Y-76175000D01*
D10*
%TO.C,SWStart1*%
X244660000Y-41680000D02*
X216660000Y-41680000D01*
X262660000Y-23680000D02*
X244660000Y-41680000D01*
X216660000Y-41680000D02*
X234660000Y-23680000D01*
X234660000Y-23680000D02*
X262660000Y-23680000D01*
D12*
X246645000Y-25625000D02*
X246645000Y-39595000D01*
X232675000Y-39595000D02*
X232675000Y-25625000D01*
X232675000Y-25625000D02*
X246645000Y-25625000D01*
X246645000Y-39595000D02*
X232675000Y-39595000D01*
D10*
%TO.C,SWStar1*%
X286475000Y-92705000D02*
X305525000Y-92705000D01*
X305525000Y-92705000D02*
X305525000Y-111755000D01*
X305525000Y-111755000D02*
X286475000Y-111755000D01*
X286475000Y-111755000D02*
X286475000Y-92705000D01*
D12*
X289015000Y-95245000D02*
X302985000Y-95245000D01*
X302985000Y-95245000D02*
X302985000Y-109215000D01*
X302985000Y-109215000D02*
X289015000Y-109215000D01*
X289015000Y-109215000D02*
X289015000Y-95245000D01*
%TO.C,SWSpc1*%
X193845000Y-147365000D02*
X179875000Y-147365000D01*
X179875000Y-147365000D02*
X179875000Y-133395000D01*
X193845000Y-133395000D02*
X193845000Y-147365000D01*
X179875000Y-133395000D02*
X193845000Y-133395000D01*
D10*
X274400000Y-130855000D02*
X274400000Y-149905000D01*
X104400000Y-130855000D02*
X274400000Y-130855000D01*
X104400000Y-149905000D02*
X274400000Y-149905000D01*
X104400000Y-149905000D02*
X104400000Y-130855000D01*
%TO.C,SWSlash1*%
X257935000Y-111805000D02*
X276985000Y-111805000D01*
X276985000Y-111805000D02*
X276985000Y-130855000D01*
X276985000Y-130855000D02*
X257935000Y-130855000D01*
X257935000Y-130855000D02*
X257935000Y-111805000D01*
D12*
X260475000Y-114345000D02*
X274445000Y-114345000D01*
X274445000Y-114345000D02*
X274445000Y-128315000D01*
X274445000Y-128315000D02*
X260475000Y-128315000D01*
X260475000Y-128315000D02*
X260475000Y-114345000D01*
D10*
%TO.C,SWSemi1*%
X248475000Y-92705000D02*
X267525000Y-92705000D01*
X267525000Y-92705000D02*
X267525000Y-111755000D01*
X267525000Y-111755000D02*
X248475000Y-111755000D01*
X248475000Y-111755000D02*
X248475000Y-92705000D01*
D12*
X251015000Y-95245000D02*
X264985000Y-95245000D01*
X264985000Y-95245000D02*
X264985000Y-109215000D01*
X264985000Y-109215000D02*
X251015000Y-109215000D01*
X251015000Y-109215000D02*
X251015000Y-95245000D01*
D10*
%TO.C,SWSelect1*%
X273160000Y-41680000D02*
X245160000Y-41680000D01*
X291160000Y-23680000D02*
X273160000Y-41680000D01*
X245160000Y-41680000D02*
X263160000Y-23680000D01*
X263160000Y-23680000D02*
X291160000Y-23680000D01*
D12*
X275145000Y-25625000D02*
X275145000Y-39595000D01*
X261175000Y-39595000D02*
X261175000Y-25625000D01*
X261175000Y-25625000D02*
X275145000Y-25625000D01*
X275145000Y-39595000D02*
X261175000Y-39595000D01*
D10*
%TO.C,SWS1*%
X96475000Y-92705000D02*
X115525000Y-92705000D01*
X115525000Y-92705000D02*
X115525000Y-111755000D01*
X115525000Y-111755000D02*
X96475000Y-111755000D01*
X96475000Y-111755000D02*
X96475000Y-92705000D01*
D12*
X99015000Y-95245000D02*
X112985000Y-95245000D01*
X112985000Y-95245000D02*
X112985000Y-109215000D01*
X112985000Y-109215000D02*
X99015000Y-109215000D01*
X99015000Y-109215000D02*
X99015000Y-95245000D01*
D10*
%TO.C,SWRightSft1*%
X276916250Y-111805000D02*
X310253750Y-111805000D01*
X310253750Y-111805000D02*
X310253750Y-130855000D01*
X310253750Y-130855000D02*
X276916250Y-130855000D01*
X276916250Y-130855000D02*
X276916250Y-111805000D01*
D12*
X286600000Y-114345000D02*
X300570000Y-114345000D01*
X300570000Y-114345000D02*
X300570000Y-128315000D01*
X300570000Y-128315000D02*
X286600000Y-128315000D01*
X286600000Y-128315000D02*
X286600000Y-114345000D01*
%TO.C,SWRet1*%
X308035000Y-90145000D02*
X308035000Y-76175000D01*
X322005000Y-90145000D02*
X308035000Y-90145000D01*
X322005000Y-76175000D02*
X322005000Y-90145000D01*
X308035000Y-76175000D02*
X322005000Y-76175000D01*
D10*
X300732500Y-92685000D02*
X300732500Y-73635000D01*
X329307500Y-92685000D02*
X300732500Y-92685000D01*
X329307500Y-73635000D02*
X329307500Y-92685000D01*
X300732500Y-73635000D02*
X329307500Y-73635000D01*
%TO.C,SWReset1*%
X330160000Y-41680000D02*
X302160000Y-41680000D01*
X348160000Y-23680000D02*
X330160000Y-41680000D01*
X302160000Y-41680000D02*
X320160000Y-23680000D01*
X320160000Y-23680000D02*
X348160000Y-23680000D01*
D12*
X332145000Y-25625000D02*
X332145000Y-39595000D01*
X318175000Y-39595000D02*
X318175000Y-25625000D01*
X318175000Y-25625000D02*
X332145000Y-25625000D01*
X332145000Y-39595000D02*
X318175000Y-39595000D01*
D10*
%TO.C,SWR1*%
X129695000Y-73635000D02*
X148745000Y-73635000D01*
X148745000Y-73635000D02*
X148745000Y-92685000D01*
X148745000Y-92685000D02*
X129695000Y-92685000D01*
X129695000Y-92685000D02*
X129695000Y-73635000D01*
D12*
X132235000Y-76175000D02*
X146205000Y-76175000D01*
X146205000Y-76175000D02*
X146205000Y-90145000D01*
X146205000Y-90145000D02*
X132235000Y-90145000D01*
X132235000Y-90145000D02*
X132235000Y-76175000D01*
D10*
%TO.C,SWQ1*%
X72695000Y-73635000D02*
X91745000Y-73635000D01*
X91745000Y-73635000D02*
X91745000Y-92685000D01*
X91745000Y-92685000D02*
X72695000Y-92685000D01*
X72695000Y-92685000D02*
X72695000Y-73635000D01*
D12*
X75235000Y-76175000D02*
X89205000Y-76175000D01*
X89205000Y-76175000D02*
X89205000Y-90145000D01*
X89205000Y-90145000D02*
X75235000Y-90145000D01*
X75235000Y-90145000D02*
X75235000Y-76175000D01*
D10*
%TO.C,SWPlus1*%
X267475000Y-92705000D02*
X286525000Y-92705000D01*
X286525000Y-92705000D02*
X286525000Y-111755000D01*
X286525000Y-111755000D02*
X267475000Y-111755000D01*
X267475000Y-111755000D02*
X267475000Y-92705000D01*
D12*
X270015000Y-95245000D02*
X283985000Y-95245000D01*
X283985000Y-95245000D02*
X283985000Y-109215000D01*
X283985000Y-109215000D02*
X270015000Y-109215000D01*
X270015000Y-109215000D02*
X270015000Y-95245000D01*
D10*
%TO.C,SWPeriod1*%
X238935000Y-111805000D02*
X257985000Y-111805000D01*
X257985000Y-111805000D02*
X257985000Y-130855000D01*
X257985000Y-130855000D02*
X238935000Y-130855000D01*
X238935000Y-130855000D02*
X238935000Y-111805000D01*
D12*
X241475000Y-114345000D02*
X255445000Y-114345000D01*
X255445000Y-114345000D02*
X255445000Y-128315000D01*
X255445000Y-128315000D02*
X241475000Y-128315000D01*
X241475000Y-128315000D02*
X241475000Y-114345000D01*
D10*
%TO.C,SWP1*%
X243695000Y-73635000D02*
X262745000Y-73635000D01*
X262745000Y-73635000D02*
X262745000Y-92685000D01*
X262745000Y-92685000D02*
X243695000Y-92685000D01*
X243695000Y-92685000D02*
X243695000Y-73635000D01*
D12*
X246235000Y-76175000D02*
X260205000Y-76175000D01*
X260205000Y-76175000D02*
X260205000Y-90145000D01*
X260205000Y-90145000D02*
X246235000Y-90145000D01*
X246235000Y-90145000D02*
X246235000Y-76175000D01*
D10*
%TO.C,SWOption1*%
X301660000Y-41680000D02*
X273660000Y-41680000D01*
X319660000Y-23680000D02*
X301660000Y-41680000D01*
X273660000Y-41680000D02*
X291660000Y-23680000D01*
X291660000Y-23680000D02*
X319660000Y-23680000D01*
D12*
X303645000Y-25625000D02*
X303645000Y-39595000D01*
X289675000Y-39595000D02*
X289675000Y-25625000D01*
X289675000Y-25625000D02*
X303645000Y-25625000D01*
X303645000Y-39595000D02*
X289675000Y-39595000D01*
D10*
%TO.C,SWO1*%
X224695000Y-73635000D02*
X243745000Y-73635000D01*
X243745000Y-73635000D02*
X243745000Y-92685000D01*
X243745000Y-92685000D02*
X224695000Y-92685000D01*
X224695000Y-92685000D02*
X224695000Y-73635000D01*
D12*
X227235000Y-76175000D02*
X241205000Y-76175000D01*
X241205000Y-76175000D02*
X241205000Y-90145000D01*
X241205000Y-90145000D02*
X227235000Y-90145000D01*
X227235000Y-90145000D02*
X227235000Y-76175000D01*
D10*
%TO.C,SWN1*%
X181935000Y-111805000D02*
X200985000Y-111805000D01*
X200985000Y-111805000D02*
X200985000Y-130855000D01*
X200985000Y-130855000D02*
X181935000Y-130855000D01*
X181935000Y-130855000D02*
X181935000Y-111805000D01*
D12*
X184475000Y-114345000D02*
X198445000Y-114345000D01*
X198445000Y-114345000D02*
X198445000Y-128315000D01*
X198445000Y-128315000D02*
X184475000Y-128315000D01*
X184475000Y-128315000D02*
X184475000Y-114345000D01*
D10*
%TO.C,SWM1*%
X200935000Y-111805000D02*
X219985000Y-111805000D01*
X219985000Y-111805000D02*
X219985000Y-130855000D01*
X219985000Y-130855000D02*
X200935000Y-130855000D01*
X200935000Y-130855000D02*
X200935000Y-111805000D01*
D12*
X203475000Y-114345000D02*
X217445000Y-114345000D01*
X217445000Y-114345000D02*
X217445000Y-128315000D01*
X217445000Y-128315000D02*
X203475000Y-128315000D01*
X203475000Y-128315000D02*
X203475000Y-114345000D01*
D10*
%TO.C,SWLT1*%
X253235000Y-54535000D02*
X272285000Y-54535000D01*
X272285000Y-54535000D02*
X272285000Y-73585000D01*
X272285000Y-73585000D02*
X253235000Y-73585000D01*
X253235000Y-73585000D02*
X253235000Y-54535000D01*
D12*
X255775000Y-57075000D02*
X269745000Y-57075000D01*
X269745000Y-57075000D02*
X269745000Y-71045000D01*
X269745000Y-71045000D02*
X255775000Y-71045000D01*
X255775000Y-71045000D02*
X255775000Y-57075000D01*
%TO.C,SWLeftSft1*%
X58625000Y-128315000D02*
X58625000Y-114345000D01*
X72595000Y-128315000D02*
X58625000Y-128315000D01*
X72595000Y-114345000D02*
X72595000Y-128315000D01*
X58625000Y-114345000D02*
X72595000Y-114345000D01*
D10*
X44178750Y-130855000D02*
X44178750Y-111805000D01*
X87041250Y-130855000D02*
X44178750Y-130855000D01*
X87041250Y-111805000D02*
X87041250Y-130855000D01*
X44178750Y-111805000D02*
X87041250Y-111805000D01*
%TO.C,SWL1*%
X229475000Y-92705000D02*
X248525000Y-92705000D01*
X248525000Y-92705000D02*
X248525000Y-111755000D01*
X248525000Y-111755000D02*
X229475000Y-111755000D01*
X229475000Y-111755000D02*
X229475000Y-92705000D01*
D12*
X232015000Y-95245000D02*
X245985000Y-95245000D01*
X245985000Y-95245000D02*
X245985000Y-109215000D01*
X245985000Y-109215000D02*
X232015000Y-109215000D01*
X232015000Y-109215000D02*
X232015000Y-95245000D01*
D10*
%TO.C,SWK1*%
X210475000Y-92705000D02*
X229525000Y-92705000D01*
X229525000Y-92705000D02*
X229525000Y-111755000D01*
X229525000Y-111755000D02*
X210475000Y-111755000D01*
X210475000Y-111755000D02*
X210475000Y-92705000D01*
D12*
X213015000Y-95245000D02*
X226985000Y-95245000D01*
X226985000Y-95245000D02*
X226985000Y-109215000D01*
X226985000Y-109215000D02*
X213015000Y-109215000D01*
X213015000Y-109215000D02*
X213015000Y-95245000D01*
D10*
%TO.C,SWJ1*%
X191475000Y-92705000D02*
X210525000Y-92705000D01*
X210525000Y-92705000D02*
X210525000Y-111755000D01*
X210525000Y-111755000D02*
X191475000Y-111755000D01*
X191475000Y-111755000D02*
X191475000Y-92705000D01*
D12*
X194015000Y-95245000D02*
X207985000Y-95245000D01*
X207985000Y-95245000D02*
X207985000Y-109215000D01*
X207985000Y-109215000D02*
X194015000Y-109215000D01*
X194015000Y-109215000D02*
X194015000Y-95245000D01*
D10*
%TO.C,SWInv1*%
X310235000Y-111805000D02*
X329285000Y-111805000D01*
X329285000Y-111805000D02*
X329285000Y-130855000D01*
X329285000Y-130855000D02*
X310235000Y-130855000D01*
X310235000Y-130855000D02*
X310235000Y-111805000D01*
D12*
X312775000Y-114345000D02*
X326745000Y-114345000D01*
X326745000Y-114345000D02*
X326745000Y-128315000D01*
X326745000Y-128315000D02*
X312775000Y-128315000D01*
X312775000Y-128315000D02*
X312775000Y-114345000D01*
D10*
%TO.C,SWI1*%
X205695000Y-73635000D02*
X224745000Y-73635000D01*
X224745000Y-73635000D02*
X224745000Y-92685000D01*
X224745000Y-92685000D02*
X205695000Y-92685000D01*
X205695000Y-92685000D02*
X205695000Y-73635000D01*
D12*
X208235000Y-76175000D02*
X222205000Y-76175000D01*
X222205000Y-76175000D02*
X222205000Y-90145000D01*
X222205000Y-90145000D02*
X208235000Y-90145000D01*
X208235000Y-90145000D02*
X208235000Y-76175000D01*
D10*
%TO.C,SWHlp1*%
X216160000Y-41680000D02*
X188160000Y-41680000D01*
X234160000Y-23680000D02*
X216160000Y-41680000D01*
X188160000Y-41680000D02*
X206160000Y-23680000D01*
X206160000Y-23680000D02*
X234160000Y-23680000D01*
D12*
X218145000Y-25625000D02*
X218145000Y-39595000D01*
X204175000Y-39595000D02*
X204175000Y-25625000D01*
X204175000Y-25625000D02*
X218145000Y-25625000D01*
X218145000Y-39595000D02*
X204175000Y-39595000D01*
D10*
%TO.C,SWH1*%
X172475000Y-92705000D02*
X191525000Y-92705000D01*
X191525000Y-92705000D02*
X191525000Y-111755000D01*
X191525000Y-111755000D02*
X172475000Y-111755000D01*
X172475000Y-111755000D02*
X172475000Y-92705000D01*
D12*
X175015000Y-95245000D02*
X188985000Y-95245000D01*
X188985000Y-95245000D02*
X188985000Y-109215000D01*
X188985000Y-109215000D02*
X175015000Y-109215000D01*
X175015000Y-109215000D02*
X175015000Y-95245000D01*
D10*
%TO.C,SWGT1*%
X272235000Y-54535000D02*
X291285000Y-54535000D01*
X291285000Y-54535000D02*
X291285000Y-73585000D01*
X291285000Y-73585000D02*
X272235000Y-73585000D01*
X272235000Y-73585000D02*
X272235000Y-54535000D01*
D12*
X274775000Y-57075000D02*
X288745000Y-57075000D01*
X288745000Y-57075000D02*
X288745000Y-71045000D01*
X288745000Y-71045000D02*
X274775000Y-71045000D01*
X274775000Y-71045000D02*
X274775000Y-57075000D01*
D10*
%TO.C,SWG1*%
X153475000Y-92705000D02*
X172525000Y-92705000D01*
X172525000Y-92705000D02*
X172525000Y-111755000D01*
X172525000Y-111755000D02*
X153475000Y-111755000D01*
X153475000Y-111755000D02*
X153475000Y-92705000D01*
D12*
X156015000Y-95245000D02*
X169985000Y-95245000D01*
X169985000Y-95245000D02*
X169985000Y-109215000D01*
X169985000Y-109215000D02*
X156015000Y-109215000D01*
X156015000Y-109215000D02*
X156015000Y-95245000D01*
D10*
%TO.C,SWF1*%
X134475000Y-92705000D02*
X153525000Y-92705000D01*
X153525000Y-92705000D02*
X153525000Y-111755000D01*
X153525000Y-111755000D02*
X134475000Y-111755000D01*
X134475000Y-111755000D02*
X134475000Y-92705000D01*
D12*
X137015000Y-95245000D02*
X150985000Y-95245000D01*
X150985000Y-95245000D02*
X150985000Y-109215000D01*
X150985000Y-109215000D02*
X137015000Y-109215000D01*
X137015000Y-109215000D02*
X137015000Y-95245000D01*
D10*
%TO.C,SWEsc1*%
X44235000Y-54535000D02*
X63285000Y-54535000D01*
X63285000Y-54535000D02*
X63285000Y-73585000D01*
X63285000Y-73585000D02*
X44235000Y-73585000D01*
X44235000Y-73585000D02*
X44235000Y-54535000D01*
D12*
X46775000Y-57075000D02*
X60745000Y-57075000D01*
X60745000Y-57075000D02*
X60745000Y-71045000D01*
X60745000Y-71045000D02*
X46775000Y-71045000D01*
X46775000Y-71045000D02*
X46775000Y-57075000D01*
D10*
%TO.C,SWEqual1*%
X281695000Y-73635000D02*
X300745000Y-73635000D01*
X300745000Y-73635000D02*
X300745000Y-92685000D01*
X300745000Y-92685000D02*
X281695000Y-92685000D01*
X281695000Y-92685000D02*
X281695000Y-73635000D01*
D12*
X284235000Y-76175000D02*
X298205000Y-76175000D01*
X298205000Y-76175000D02*
X298205000Y-90145000D01*
X298205000Y-90145000D02*
X284235000Y-90145000D01*
X284235000Y-90145000D02*
X284235000Y-76175000D01*
D10*
%TO.C,SWE1*%
X110695000Y-73635000D02*
X129745000Y-73635000D01*
X129745000Y-73635000D02*
X129745000Y-92685000D01*
X129745000Y-92685000D02*
X110695000Y-92685000D01*
X110695000Y-92685000D02*
X110695000Y-73635000D01*
D12*
X113235000Y-76175000D02*
X127205000Y-76175000D01*
X127205000Y-76175000D02*
X127205000Y-90145000D01*
X127205000Y-90145000D02*
X113235000Y-90145000D01*
X113235000Y-90145000D02*
X113235000Y-76175000D01*
D10*
%TO.C,SWDel1*%
X291235000Y-54535000D02*
X310285000Y-54535000D01*
X310285000Y-54535000D02*
X310285000Y-73585000D01*
X310285000Y-73585000D02*
X291235000Y-73585000D01*
X291235000Y-73585000D02*
X291235000Y-54535000D01*
D12*
X293775000Y-57075000D02*
X307745000Y-57075000D01*
X307745000Y-57075000D02*
X307745000Y-71045000D01*
X307745000Y-71045000D02*
X293775000Y-71045000D01*
X293775000Y-71045000D02*
X293775000Y-57075000D01*
D10*
%TO.C,SWDash1*%
X262695000Y-73635000D02*
X281745000Y-73635000D01*
X281745000Y-73635000D02*
X281745000Y-92685000D01*
X281745000Y-92685000D02*
X262695000Y-92685000D01*
X262695000Y-92685000D02*
X262695000Y-73635000D01*
D12*
X265235000Y-76175000D02*
X279205000Y-76175000D01*
X279205000Y-76175000D02*
X279205000Y-90145000D01*
X279205000Y-90145000D02*
X265235000Y-90145000D01*
X265235000Y-90145000D02*
X265235000Y-76175000D01*
D10*
%TO.C,SWD1*%
X115475000Y-92705000D02*
X134525000Y-92705000D01*
X134525000Y-92705000D02*
X134525000Y-111755000D01*
X134525000Y-111755000D02*
X115475000Y-111755000D01*
X115475000Y-111755000D02*
X115475000Y-92705000D01*
D12*
X118015000Y-95245000D02*
X131985000Y-95245000D01*
X131985000Y-95245000D02*
X131985000Y-109215000D01*
X131985000Y-109215000D02*
X118015000Y-109215000D01*
X118015000Y-109215000D02*
X118015000Y-95245000D01*
D10*
%TO.C,SWCtl1*%
X44131250Y-92705000D02*
X77468750Y-92705000D01*
X77468750Y-92705000D02*
X77468750Y-111755000D01*
X77468750Y-111755000D02*
X44131250Y-111755000D01*
X44131250Y-111755000D02*
X44131250Y-92705000D01*
D12*
X53815000Y-95245000D02*
X67785000Y-95245000D01*
X67785000Y-95245000D02*
X67785000Y-109215000D01*
X67785000Y-109215000D02*
X53815000Y-109215000D01*
X53815000Y-109215000D02*
X53815000Y-95245000D01*
%TO.C,SWCps1*%
X310415000Y-109215000D02*
X310415000Y-95245000D01*
X324385000Y-109215000D02*
X310415000Y-109215000D01*
X324385000Y-95245000D02*
X324385000Y-109215000D01*
X310415000Y-95245000D02*
X324385000Y-95245000D01*
D10*
X305493750Y-111755000D02*
X305493750Y-92705000D01*
X329306250Y-111755000D02*
X305493750Y-111755000D01*
X329306250Y-92705000D02*
X329306250Y-111755000D01*
X305493750Y-92705000D02*
X329306250Y-92705000D01*
%TO.C,SWComma1*%
X219935000Y-111805000D02*
X238985000Y-111805000D01*
X238985000Y-111805000D02*
X238985000Y-130855000D01*
X238985000Y-130855000D02*
X219935000Y-130855000D01*
X219935000Y-130855000D02*
X219935000Y-111805000D01*
D12*
X222475000Y-114345000D02*
X236445000Y-114345000D01*
X236445000Y-114345000D02*
X236445000Y-128315000D01*
X236445000Y-128315000D02*
X222475000Y-128315000D01*
X222475000Y-128315000D02*
X222475000Y-114345000D01*
D10*
%TO.C,SWC1*%
X124935000Y-111805000D02*
X143985000Y-111805000D01*
X143985000Y-111805000D02*
X143985000Y-130855000D01*
X143985000Y-130855000D02*
X124935000Y-130855000D01*
X124935000Y-130855000D02*
X124935000Y-111805000D01*
D12*
X127475000Y-114345000D02*
X141445000Y-114345000D01*
X141445000Y-114345000D02*
X141445000Y-128315000D01*
X141445000Y-128315000D02*
X127475000Y-128315000D01*
X127475000Y-128315000D02*
X127475000Y-114345000D01*
D10*
%TO.C,SWBrk1*%
X310235000Y-54535000D02*
X329285000Y-54535000D01*
X329285000Y-54535000D02*
X329285000Y-73585000D01*
X329285000Y-73585000D02*
X310235000Y-73585000D01*
X310235000Y-73585000D02*
X310235000Y-54535000D01*
D12*
X312775000Y-57075000D02*
X326745000Y-57075000D01*
X326745000Y-57075000D02*
X326745000Y-71045000D01*
X326745000Y-71045000D02*
X312775000Y-71045000D01*
X312775000Y-71045000D02*
X312775000Y-57075000D01*
D10*
%TO.C,SWB1*%
X162935000Y-111805000D02*
X181985000Y-111805000D01*
X181985000Y-111805000D02*
X181985000Y-130855000D01*
X181985000Y-130855000D02*
X162935000Y-130855000D01*
X162935000Y-130855000D02*
X162935000Y-111805000D01*
D12*
X165475000Y-114345000D02*
X179445000Y-114345000D01*
X179445000Y-114345000D02*
X179445000Y-128315000D01*
X179445000Y-128315000D02*
X165475000Y-128315000D01*
X165475000Y-128315000D02*
X165475000Y-114345000D01*
D10*
%TO.C,SWA1*%
X77475000Y-92705000D02*
X96525000Y-92705000D01*
X96525000Y-92705000D02*
X96525000Y-111755000D01*
X96525000Y-111755000D02*
X77475000Y-111755000D01*
X77475000Y-111755000D02*
X77475000Y-92705000D01*
D12*
X80015000Y-95245000D02*
X93985000Y-95245000D01*
X93985000Y-95245000D02*
X93985000Y-109215000D01*
X93985000Y-109215000D02*
X80015000Y-109215000D01*
X80015000Y-109215000D02*
X80015000Y-95245000D01*
D10*
%TO.C,SW9*%
X215235000Y-54535000D02*
X234285000Y-54535000D01*
X234285000Y-54535000D02*
X234285000Y-73585000D01*
X234285000Y-73585000D02*
X215235000Y-73585000D01*
X215235000Y-73585000D02*
X215235000Y-54535000D01*
D12*
X217775000Y-57075000D02*
X231745000Y-57075000D01*
X231745000Y-57075000D02*
X231745000Y-71045000D01*
X231745000Y-71045000D02*
X217775000Y-71045000D01*
X217775000Y-71045000D02*
X217775000Y-57075000D01*
D10*
%TO.C,SW8*%
X196235000Y-54535000D02*
X215285000Y-54535000D01*
X215285000Y-54535000D02*
X215285000Y-73585000D01*
X215285000Y-73585000D02*
X196235000Y-73585000D01*
X196235000Y-73585000D02*
X196235000Y-54535000D01*
D12*
X198775000Y-57075000D02*
X212745000Y-57075000D01*
X212745000Y-57075000D02*
X212745000Y-71045000D01*
X212745000Y-71045000D02*
X198775000Y-71045000D01*
X198775000Y-71045000D02*
X198775000Y-57075000D01*
D10*
%TO.C,SW7*%
X177235000Y-54535000D02*
X196285000Y-54535000D01*
X196285000Y-54535000D02*
X196285000Y-73585000D01*
X196285000Y-73585000D02*
X177235000Y-73585000D01*
X177235000Y-73585000D02*
X177235000Y-54535000D01*
D12*
X179775000Y-57075000D02*
X193745000Y-57075000D01*
X193745000Y-57075000D02*
X193745000Y-71045000D01*
X193745000Y-71045000D02*
X179775000Y-71045000D01*
X179775000Y-71045000D02*
X179775000Y-57075000D01*
D10*
%TO.C,SW6*%
X158235000Y-54535000D02*
X177285000Y-54535000D01*
X177285000Y-54535000D02*
X177285000Y-73585000D01*
X177285000Y-73585000D02*
X158235000Y-73585000D01*
X158235000Y-73585000D02*
X158235000Y-54535000D01*
D12*
X160775000Y-57075000D02*
X174745000Y-57075000D01*
X174745000Y-57075000D02*
X174745000Y-71045000D01*
X174745000Y-71045000D02*
X160775000Y-71045000D01*
X160775000Y-71045000D02*
X160775000Y-57075000D01*
D10*
%TO.C,SW5*%
X139235000Y-54535000D02*
X158285000Y-54535000D01*
X158285000Y-54535000D02*
X158285000Y-73585000D01*
X158285000Y-73585000D02*
X139235000Y-73585000D01*
X139235000Y-73585000D02*
X139235000Y-54535000D01*
D12*
X141775000Y-57075000D02*
X155745000Y-57075000D01*
X155745000Y-57075000D02*
X155745000Y-71045000D01*
X155745000Y-71045000D02*
X141775000Y-71045000D01*
X141775000Y-71045000D02*
X141775000Y-57075000D01*
D10*
%TO.C,SW4*%
X120235000Y-54535000D02*
X139285000Y-54535000D01*
X139285000Y-54535000D02*
X139285000Y-73585000D01*
X139285000Y-73585000D02*
X120235000Y-73585000D01*
X120235000Y-73585000D02*
X120235000Y-54535000D01*
D12*
X122775000Y-57075000D02*
X136745000Y-57075000D01*
X136745000Y-57075000D02*
X136745000Y-71045000D01*
X136745000Y-71045000D02*
X122775000Y-71045000D01*
X122775000Y-71045000D02*
X122775000Y-57075000D01*
D10*
%TO.C,SW3*%
X101235000Y-54535000D02*
X120285000Y-54535000D01*
X120285000Y-54535000D02*
X120285000Y-73585000D01*
X120285000Y-73585000D02*
X101235000Y-73585000D01*
X101235000Y-73585000D02*
X101235000Y-54535000D01*
D12*
X103775000Y-57075000D02*
X117745000Y-57075000D01*
X117745000Y-57075000D02*
X117745000Y-71045000D01*
X117745000Y-71045000D02*
X103775000Y-71045000D01*
X103775000Y-71045000D02*
X103775000Y-57075000D01*
D10*
%TO.C,SW2*%
X82235000Y-54535000D02*
X101285000Y-54535000D01*
X101285000Y-54535000D02*
X101285000Y-73585000D01*
X101285000Y-73585000D02*
X82235000Y-73585000D01*
X82235000Y-73585000D02*
X82235000Y-54535000D01*
D12*
X84775000Y-57075000D02*
X98745000Y-57075000D01*
X98745000Y-57075000D02*
X98745000Y-71045000D01*
X98745000Y-71045000D02*
X84775000Y-71045000D01*
X84775000Y-71045000D02*
X84775000Y-57075000D01*
D10*
%TO.C,SW1*%
X63235000Y-54535000D02*
X82285000Y-54535000D01*
X82285000Y-54535000D02*
X82285000Y-73585000D01*
X82285000Y-73585000D02*
X63235000Y-73585000D01*
X63235000Y-73585000D02*
X63235000Y-54535000D01*
D12*
X65775000Y-57075000D02*
X79745000Y-57075000D01*
X79745000Y-57075000D02*
X79745000Y-71045000D01*
X79745000Y-71045000D02*
X65775000Y-71045000D01*
X65775000Y-71045000D02*
X65775000Y-57075000D01*
D10*
%TO.C,SW0*%
X234235000Y-54535000D02*
X253285000Y-54535000D01*
X253285000Y-54535000D02*
X253285000Y-73585000D01*
X253285000Y-73585000D02*
X234235000Y-73585000D01*
X234235000Y-73585000D02*
X234235000Y-54535000D01*
D12*
X236775000Y-57075000D02*
X250745000Y-57075000D01*
X250745000Y-57075000D02*
X250745000Y-71045000D01*
X250745000Y-71045000D02*
X236775000Y-71045000D01*
X236775000Y-71045000D02*
X236775000Y-57075000D01*
%TO.C,LABEL1*%
X106110000Y-35100000D02*
X50610000Y-35100000D01*
X100610000Y-40600000D02*
X106110000Y-35100000D01*
X45110000Y-40600000D02*
X100610000Y-40600000D01*
X50610000Y-35100000D02*
X45110000Y-40600000D01*
D13*
X53110000Y-37100000D02*
X53335694Y-37511780D01*
X53450168Y-37858460D02*
X53471328Y-37977280D01*
X53471328Y-37977280D02*
X53491948Y-38095560D01*
X52539796Y-36532520D02*
X52807808Y-36750620D01*
X53491948Y-38095560D02*
X53502798Y-38460680D01*
X53502798Y-38460680D02*
X53431728Y-38924550D01*
X53431728Y-38924550D02*
X53267336Y-39356406D01*
X53267336Y-39356406D02*
X53090469Y-39653717D01*
X53335694Y-37511780D02*
X53450168Y-37858460D01*
X53090469Y-39653717D02*
X53019397Y-39743234D01*
X53019397Y-39743234D02*
X52442682Y-36473380D01*
X52442682Y-36473380D02*
X52539796Y-36532520D01*
X52807808Y-36750620D02*
X53110000Y-37100000D01*
X52442682Y-36473380D02*
X52442682Y-36473380D01*
X54053468Y-35597730D02*
X53787087Y-35626480D01*
X53787087Y-35626480D02*
X53753448Y-35632450D01*
X52997696Y-35911310D02*
X52489339Y-36317130D01*
X52489339Y-36317130D02*
X52406875Y-36416950D01*
X52406875Y-36416950D02*
X53005291Y-39819188D01*
X53005291Y-39819188D02*
X53116511Y-39884292D01*
X53116511Y-39884292D02*
X53733368Y-40090999D01*
X53733368Y-40090999D02*
X54401228Y-40118126D01*
X54401228Y-40118126D02*
X54538488Y-40094254D01*
X54153838Y-35597730D02*
X54053468Y-35597730D01*
X54538488Y-40094254D02*
X54754968Y-40055734D01*
X53753448Y-35632450D02*
X53616188Y-35656320D01*
X53616188Y-35656320D02*
X52997696Y-35911310D01*
X54754968Y-40055734D02*
X55373988Y-39765478D01*
X53429008Y-38926720D02*
X53265708Y-39356949D01*
X55276878Y-35901550D02*
X54926408Y-35736620D01*
X54549338Y-35633530D02*
X54252578Y-35597730D01*
X56410238Y-37687030D02*
X56372258Y-37470020D01*
X53447458Y-37864980D02*
X53468078Y-37983250D01*
X55868238Y-36395800D02*
X55593188Y-36123440D01*
X52445937Y-36484770D02*
X52445937Y-36484770D01*
X55373988Y-39765478D02*
X55997368Y-39162721D01*
X55997368Y-39162721D02*
X56349478Y-38368990D01*
X53109458Y-37109770D02*
X53333525Y-37519920D01*
X54926408Y-35736620D02*
X54549338Y-35633530D01*
X53488688Y-38100980D02*
X53499538Y-38464480D01*
X56354348Y-37369640D02*
X56265378Y-37074500D01*
X56095028Y-36714810D02*
X55868238Y-36395800D01*
X54153838Y-35597730D02*
X54153838Y-35597730D01*
X53333525Y-37519920D02*
X53447458Y-37864980D01*
X52445937Y-36484770D02*
X52542509Y-36543370D01*
X54252578Y-35597730D02*
X54153838Y-35597730D01*
X52808893Y-36761460D02*
X53109458Y-37109770D01*
X53468078Y-37983250D02*
X53488688Y-38100980D01*
X53018854Y-39742149D02*
X52445937Y-36484770D01*
X53499538Y-38464480D02*
X53429008Y-38926720D01*
X56349478Y-38368990D02*
X56410238Y-37687030D01*
X52542509Y-36543370D02*
X52808893Y-36761460D01*
X55593188Y-36123440D02*
X55276878Y-35901550D01*
X56265378Y-37074500D02*
X56095028Y-36714810D01*
X53265708Y-39356949D02*
X53089384Y-39653173D01*
X53089384Y-39653173D02*
X53018854Y-39742149D01*
X56372258Y-37470020D02*
X56354348Y-37369640D01*
%TO.C,J1*%
D10*
X337702380Y-138068333D02*
X338416666Y-138068333D01*
X338559523Y-138115952D01*
X338654761Y-138211190D01*
X338702380Y-138354047D01*
X338702380Y-138449285D01*
X338702380Y-137068333D02*
X338702380Y-137639761D01*
X338702380Y-137354047D02*
X337702380Y-137354047D01*
X337845238Y-137449285D01*
X337940476Y-137544523D01*
X337988095Y-137639761D01*
%TO.C,D1*%
X29891904Y-142002380D02*
X29891904Y-141002380D01*
X30130000Y-141002380D01*
X30272857Y-141050000D01*
X30368095Y-141145238D01*
X30415714Y-141240476D01*
X30463333Y-141430952D01*
X30463333Y-141573809D01*
X30415714Y-141764285D01*
X30368095Y-141859523D01*
X30272857Y-141954761D01*
X30130000Y-142002380D01*
X29891904Y-142002380D01*
X31415714Y-142002380D02*
X30844285Y-142002380D01*
X31130000Y-142002380D02*
X31130000Y-141002380D01*
X31034761Y-141145238D01*
X30939523Y-141240476D01*
X30844285Y-141288095D01*
%TO.C,LABEL1*%
X58702976Y-39230952D02*
X58702976Y-36730952D01*
X59298214Y-36730952D01*
X59655357Y-36850000D01*
X59893452Y-37088095D01*
X60012500Y-37326190D01*
X60131547Y-37802380D01*
X60131547Y-38159523D01*
X60012500Y-38635714D01*
X59893452Y-38873809D01*
X59655357Y-39111904D01*
X59298214Y-39230952D01*
X58702976Y-39230952D01*
X62155357Y-39111904D02*
X61917261Y-39230952D01*
X61441071Y-39230952D01*
X61202976Y-39111904D01*
X61083928Y-38873809D01*
X61083928Y-37921428D01*
X61202976Y-37683333D01*
X61441071Y-37564285D01*
X61917261Y-37564285D01*
X62155357Y-37683333D01*
X62274404Y-37921428D01*
X62274404Y-38159523D01*
X61083928Y-38397619D01*
X64417261Y-39111904D02*
X64179166Y-39230952D01*
X63702976Y-39230952D01*
X63464880Y-39111904D01*
X63345833Y-38992857D01*
X63226785Y-38754761D01*
X63226785Y-38040476D01*
X63345833Y-37802380D01*
X63464880Y-37683333D01*
X63702976Y-37564285D01*
X64179166Y-37564285D01*
X64417261Y-37683333D01*
X66441071Y-39111904D02*
X66202976Y-39230952D01*
X65726785Y-39230952D01*
X65488690Y-39111904D01*
X65369642Y-38873809D01*
X65369642Y-37921428D01*
X65488690Y-37683333D01*
X65726785Y-37564285D01*
X66202976Y-37564285D01*
X66441071Y-37683333D01*
X66560119Y-37921428D01*
X66560119Y-38159523D01*
X65369642Y-38397619D01*
X67631547Y-37564285D02*
X67631547Y-39230952D01*
X67631547Y-37802380D02*
X67750595Y-37683333D01*
X67988690Y-37564285D01*
X68345833Y-37564285D01*
X68583928Y-37683333D01*
X68702976Y-37921428D01*
X68702976Y-39230952D01*
X69536309Y-37564285D02*
X70488690Y-37564285D01*
X69893452Y-36730952D02*
X69893452Y-38873809D01*
X70012500Y-39111904D01*
X70250595Y-39230952D01*
X70488690Y-39230952D01*
X74536309Y-39230952D02*
X73107738Y-39230952D01*
X73822023Y-39230952D02*
X73822023Y-36730952D01*
X73583928Y-37088095D01*
X73345833Y-37326190D01*
X73107738Y-37445238D01*
X75369642Y-36730952D02*
X76917261Y-36730952D01*
X76083928Y-37683333D01*
X76441071Y-37683333D01*
X76679166Y-37802380D01*
X76798214Y-37921428D01*
X76917261Y-38159523D01*
X76917261Y-38754761D01*
X76798214Y-38992857D01*
X76679166Y-39111904D01*
X76441071Y-39230952D01*
X75726785Y-39230952D01*
X75488690Y-39111904D01*
X75369642Y-38992857D01*
X78464880Y-36730952D02*
X78702976Y-36730952D01*
X78941071Y-36850000D01*
X79060119Y-36969047D01*
X79179166Y-37207142D01*
X79298214Y-37683333D01*
X79298214Y-38278571D01*
X79179166Y-38754761D01*
X79060119Y-38992857D01*
X78941071Y-39111904D01*
X78702976Y-39230952D01*
X78464880Y-39230952D01*
X78226785Y-39111904D01*
X78107738Y-38992857D01*
X77988690Y-38754761D01*
X77869642Y-38278571D01*
X77869642Y-37683333D01*
X77988690Y-37207142D01*
X78107738Y-36969047D01*
X78226785Y-36850000D01*
X78464880Y-36730952D01*
X80369642Y-39230952D02*
X80369642Y-36730952D01*
X81202976Y-38516666D01*
X82036309Y-36730952D01*
X82036309Y-39230952D01*
X82988690Y-36730952D02*
X84655357Y-39230952D01*
X84655357Y-36730952D02*
X82988690Y-39230952D01*
%TD*%
M02*
