M48
; DRILL file {KiCad (5.1.10)-1} date 09/19/21 19:11:55
; FORMAT={-:-/ absolute / inch / decimal}
; #@! TF.CreationDate,2021-09-19T19:11:55-07:00
; #@! TF.GenerationSoftware,Kicad,Pcbnew,(5.1.10)-1
FMAT,2
INCH
T1C0.0157
T2C0.0315
T3C0.0354
T4C0.0394
T5C0.0402
T6C0.0591
T7C0.1260
T8C0.1575
%
G90
G05
T1
X3.0054Y-1.1185
X3.1255Y-1.5304
X3.4729Y-1.4026
X3.4897Y-1.4524
X3.9625Y-2.1923
X4.1162Y-1.86
X4.4116Y-1.4454
X4.888Y-1.8486
X6.7486Y-2.4041
X6.7499Y-1.952
X10.6116Y-1.692
X10.7169Y-1.2278
X10.7551Y-1.6919
X10.9628Y-2.5227
X11.1581Y-1.6832
X11.1661Y-2.0563
X11.4007Y-1.6018
X11.822Y-1.8344
X12.1491Y-1.8691
X12.1869Y-1.7982
X12.223Y-1.6631
X12.2881Y-1.8671
X12.3399Y-1.7739
X12.357Y-1.9603
X12.3869Y-2.1121
X12.4186Y-1.7732
X12.5134Y-2.0642
X12.5189Y-3.1746
X12.561Y-3.4452
X12.5653Y-1.9213
X12.5841Y-2.1233
X12.8582Y-1.7211
X13.0484Y-1.7488
X13.0629Y-1.6873
X13.1615Y-1.9076
T2
X1.4654Y-2.3789
X1.4654Y-2.6789
T3
X1.1559Y-5.6378
X1.2559Y-5.6378
T4
X2.5654Y-1.0039
X2.6654Y-1.0039
X2.7654Y-1.0039
X2.8654Y-1.0039
X2.9654Y-1.0039
X3.0654Y-1.0039
X3.1654Y-1.0039
X3.2654Y-1.0039
X3.3654Y-1.0039
X3.4654Y-1.0039
X3.5654Y-1.0039
X3.6654Y-1.0039
X3.7654Y-1.0039
X3.8654Y-1.0039
X10.6654Y-1.8039
X10.6654Y-1.9039
X10.7654Y-1.8039
X10.7654Y-1.9039
X10.8654Y-1.8039
X10.8654Y-1.9039
X10.9654Y-1.8039
X10.9654Y-1.9039
X11.0654Y-1.8039
X11.0654Y-1.9039
X11.1654Y-1.8039
X11.1654Y-1.9039
X11.2654Y-1.8039
X11.2654Y-1.9039
X11.3654Y-1.8039
X11.3654Y-1.9039
X11.4654Y-1.8039
X11.4654Y-1.9039
X11.5654Y-1.8039
X11.5654Y-1.9039
X11.6654Y-1.8039
X11.6654Y-1.9039
X11.7654Y-1.8039
X11.7654Y-1.9039
T5
X2.2654Y-1.3039
X2.2654Y-2.0039
X2.3654Y-1.3039
X2.3654Y-2.0039
X2.4654Y-1.3039
X2.4654Y-2.0039
X2.5654Y-1.3039
X2.5654Y-2.0039
X2.6654Y-1.3039
X2.6654Y-2.0039
X2.7654Y-1.3039
X2.7654Y-2.0039
X2.8654Y-1.3039
X2.8654Y-2.0039
X2.9654Y-1.3039
X2.9654Y-2.0039
X3.0654Y-1.3039
X3.0654Y-2.0039
X3.1654Y-1.3039
X3.1654Y-2.0039
X3.2654Y-1.3039
X3.2654Y-2.0039
X3.3654Y-1.3039
X3.3654Y-2.0039
X3.4654Y-1.3039
X3.4654Y-2.0039
X3.5654Y-1.3039
X3.5654Y-2.0039
X3.6654Y-1.3039
X3.6654Y-2.0039
X3.7654Y-1.3039
X3.7654Y-2.0039
X3.8654Y-1.3039
X3.8654Y-2.0039
X3.9654Y-1.3039
X3.9654Y-2.0039
X4.0654Y-1.3039
X4.0654Y-2.0039
X4.1563Y-1.5539
X4.1563Y-1.6539
X4.1563Y-1.7539
X4.1654Y-1.3039
X4.1654Y-2.0039
T6
X1.9665Y-2.422
X2.1539Y-3.174
X2.2165Y-2.322
X2.2437Y-3.9248
X2.4039Y-3.074
X2.4331Y-4.6768
X2.4937Y-3.8248
X2.6831Y-4.5768
X2.7146Y-2.422
X2.9646Y-2.322
X3.087Y-3.174
X3.2752Y-3.9248
X3.337Y-3.074
X3.4626Y-2.422
X3.5252Y-3.8248
X3.6476Y-4.6768
X3.7126Y-2.322
X3.835Y-3.174
X3.8976Y-4.5768
X4.0232Y-3.9248
X4.085Y-3.074
X4.2106Y-2.422
X4.2732Y-3.8248
X4.3957Y-4.6768
X4.4606Y-2.322
X4.5831Y-3.174
X4.6457Y-4.5768
X4.7713Y-3.9248
X4.8331Y-3.074
X4.9587Y-2.422
X5.0213Y-3.8248
X5.1437Y-4.6768
X5.2087Y-2.322
X5.3311Y-3.174
X5.3937Y-4.5768
X5.5193Y-3.9248
X5.5811Y-3.074
X5.7067Y-2.422
X5.7693Y-3.8248
X5.8917Y-4.6768
X5.9567Y-2.322
X6.0791Y-3.174
X6.1417Y-4.5768
X6.2673Y-3.9248
X6.3291Y-3.074
X6.4547Y-2.422
X6.5173Y-3.8248
X6.6398Y-4.6768
X6.7047Y-2.322
X6.8272Y-3.174
X6.8898Y-4.5768
X7.0154Y-3.9248
X7.0772Y-3.074
X7.2028Y-2.422
X7.2067Y-5.4268
X7.2654Y-3.8248
X7.3878Y-4.6768
X7.4528Y-2.322
X7.4567Y-5.3268
X7.5752Y-3.174
X7.6378Y-4.5768
X7.7634Y-3.9248
X7.8252Y-3.074
X7.9508Y-2.422
X8.0134Y-3.8248
X8.1358Y-4.6768
X8.1634Y-1.1839
X8.2008Y-2.322
X8.3232Y-3.174
X8.3858Y-4.5768
X8.4134Y-1.0839
X8.5114Y-3.9248
X8.5732Y-3.074
X8.6988Y-2.422
X8.7614Y-3.8248
X8.8839Y-4.6768
X8.9488Y-2.322
X9.0713Y-3.174
X9.1339Y-4.5768
X9.2594Y-3.9248
X9.2854Y-1.1839
X9.3213Y-3.074
X9.4469Y-2.422
X9.5094Y-3.8248
X9.5354Y-1.0839
X9.6319Y-4.6768
X9.6969Y-2.322
X9.8193Y-3.174
X9.8819Y-4.5768
X10.0075Y-3.9248
X10.0693Y-3.074
X10.1949Y-2.422
X10.2575Y-3.8248
X10.3799Y-4.6768
X10.4075Y-1.1839
X10.4449Y-2.322
X10.5673Y-3.174
X10.6299Y-4.5768
X10.6575Y-1.0839
X10.7555Y-3.9248
X10.8173Y-3.074
X10.9429Y-2.422
X11.0055Y-3.8248
X11.1929Y-2.322
X11.3154Y-3.174
X11.4085Y-4.6768
X11.5035Y-3.9248
X11.5295Y-1.1839
X11.5654Y-3.074
X11.6585Y-4.5768
X11.6909Y-2.422
X11.7535Y-3.8248
X11.7795Y-1.0839
X11.9409Y-2.322
X12.2524Y-3.174
X12.3461Y-3.9248
X12.439Y-2.422
X12.439Y-4.6768
X12.5024Y-3.074
X12.5961Y-3.8248
X12.6516Y-1.1839
X12.689Y-2.322
X12.689Y-4.5768
X12.9016Y-1.0839
T7
X1.4654Y-2.0539
X1.4654Y-5.5039
X7.3154Y-1.7539
X13.2654Y-1.6039
X13.2654Y-5.5039
T8
X2.1165Y-2.522
X2.3039Y-3.274
X2.3937Y-4.0248
X2.5831Y-4.7768
X2.8646Y-2.522
X3.237Y-3.274
X3.4252Y-4.0248
X3.6126Y-2.522
X3.7976Y-4.7768
X3.985Y-3.274
X4.1732Y-4.0248
X4.3606Y-2.522
X4.5457Y-4.7768
X4.7331Y-3.274
X4.9213Y-4.0248
X5.1087Y-2.522
X5.2937Y-4.7768
X5.4811Y-3.274
X5.6693Y-4.0248
X5.8567Y-2.522
X6.0417Y-4.7768
X6.2291Y-3.274
X6.4173Y-4.0248
X6.6047Y-2.522
X6.7898Y-4.7768
X6.9772Y-3.274
X7.1654Y-4.0248
X7.3528Y-2.522
X7.3567Y-5.5268
X7.5378Y-4.7768
X7.7252Y-3.274
X7.9134Y-4.0248
X8.1008Y-2.522
X8.2858Y-4.7768
X8.3134Y-1.2839
X8.4732Y-3.274
X8.6614Y-4.0248
X8.8488Y-2.522
X9.0339Y-4.7768
X9.2213Y-3.274
X9.4094Y-4.0248
X9.4354Y-1.2839
X9.5969Y-2.522
X9.7819Y-4.7768
X9.9693Y-3.274
X10.1575Y-4.0248
X10.3449Y-2.522
X10.5299Y-4.7768
X10.5575Y-1.2839
X10.7173Y-3.274
X10.9055Y-4.0248
X11.0929Y-2.522
X11.4654Y-3.274
X11.5585Y-4.7768
X11.6535Y-4.0248
X11.6795Y-1.2839
X11.8409Y-2.522
X12.4024Y-3.274
X12.4961Y-4.0248
X12.589Y-2.522
X12.589Y-4.7768
X12.8016Y-1.2839
T0
M30
