<?xml version="1.0" standalone="no"?>
 <!DOCTYPE svg PUBLIC "-//W3C//DTD SVG 1.1//EN" 
 "http://www.w3.org/Graphics/SVG/1.1/DTD/svg11.dtd"> 
<svg
  xmlns:svg="http://www.w3.org/2000/svg"
  xmlns="http://www.w3.org/2000/svg"
  xmlns:xlink="http://www.w3.org/1999/xlink"
  version="1.1"
  width="41.998900cm" height="29.700220cm" viewBox="0 0 165350 116930">
<title>SVG Picture created as Atari130MXPlate-Edge_Cuts.svg date 2021/09/24 22:47:42 </title>
  <desc>Picture generated by PCBNEW </desc>
<g style="fill:#000000; fill-opacity:1;stroke:#000000; stroke-opacity:1;
stroke-linecap:round; stroke-linejoin:round;"
 transform="translate(0 0) scale(1 1)">
</g>
<g style="fill:#000000; fill-opacity:0.0; 
stroke:#000000; stroke-width:-0.000393701; stroke-opacity:1; 
stroke-linecap:round; stroke-linejoin:round;">
</g>
<g style="fill:#000000; fill-opacity:0.0; 
stroke:#000000; stroke-width:19.685; stroke-opacity:1; 
stroke-linecap:round; stroke-linejoin:round;">
<path d="M80066.9 8539.37 A1968.5 1968.5 0.0 0 0 78675 9115.93" />
<path d="M68635.6 18381.9 A1968.5 1968.5 0.0 0 0 70027.6 17805.3" />
<path d="M14712.6 18381.9 A1968.5 1968.5 0.0 0 0 12744.1 20350.4" />
<path d="M12744.1 54208.7 A1968.5 1968.5 0.0 0 0 14712.6 56177.2" />
<path d="M37139 56183
L14712 56177
" />
<path d="M39385.8 57555.1 A2378.02 2378.02 0.0 0 0 37139.2 56183.8" />
<path d="M39385.8 57555.1 A1968.5 1968.5 0.0 0 0 41090.6 58539.4" />
<path d="M111577 56183.8 A2378.02 2378.02 0.0 0 0 109331 57555.1" />
<path d="M107626 58539.4 A1968.5 1968.5 0.0 0 0 109331 57555.1" />
<path d="M132035 56177.2 A1968.5 1968.5 0.0 0 0 134004 54208.7" />
<path d="M134004 10507.9 A1968.5 1968.5 0.0 0 0 132035 8539.37" />
<path d="M70027 17805
L78674 9115
" />
<path d="M14712 18381
L68635 18381
" />
<path d="M12744 54208
L12744 20350
" />
<path d="M107625 58539
L41090 58539
" />
<path d="M132035 8539
L80066 8539
" />
<path d="M134003 54208
L134003 10507
" />
<path d="M111577 56183
L132035 56177
" />
</g>
<g style="fill:#000000; fill-opacity:0.0; 
stroke:#000000; stroke-width:47.2441; stroke-opacity:1; 
stroke-linecap:round; stroke-linejoin:round;">
<path d="M95460.6 56618.1 A196.85 196.85 0.0 0 0 95460.6 56224.4" />
<path d="M95460.6 51421.3 A196.85 196.85 0.0 0 0 95460.6 51027.6" />
<path d="M94161.4 56224.4 A196.85 196.85 0.0 0 0 94161.4 56618.1" />
<path d="M94161.4 51027.6 A196.85 196.85 0.0 0 0 94161.4 51421.3" />
<path d="M51366.1 56224.4 A196.85 196.85 0.0 0 0 51366.1 56618.1" />
<path d="M51366.1 51027.6 A196.85 196.85 0.0 0 0 51366.1 51421.3" />
<path d="M52665.4 56618.1 A196.85 196.85 0.0 0 0 52665.4 56224.4" />
<path d="M52665.4 51421.3 A196.85 196.85 0.0 0 0 52665.4 51027.6" />
<path d="M70657.5 51972.4 A196.85 196.85 0.0 0 0 70657.5 52366.1" />
<path d="M76169.3 52366.1 A196.85 196.85 0.0 0 0 76169.3 51972.4" />
<path d="M76169.3 57484.3 A196.85 196.85 0.0 0 0 76169.3 57090.6" />
<path d="M70657.5 57090.6 A196.85 196.85 0.0 0 0 70657.5 57484.3" />
<path d="M70657 51972
L76169 51972
" />
<path d="M70657 57484
L76169 57484
" />
<path d="M70657 52366
L70657 57090
" />
<path d="M76169 52366
L76169 57090
" />
<path d="M51366 56618
L52665 56618
" />
<path d="M51366 51421
L51366 56224
" />
<path d="M52665 51027
L51366 51027
" />
<path d="M52665 51421
L52665 56224
" />
<path d="M94161 56618
L95460 56618
" />
<path d="M94161 51421
L94161 56224
" />
<path d="M95460 51027
L94161 51027
" />
<path d="M95460 51421
L95460 56224
" />
<path d="M49633 51381
L47665 51381
" />
<path d="M47665 51381
L47665 55122
" />
<path d="M49633 51381
L49633 55122
" />
<path d="M49633 56500
L49633 57681
" />
<path d="M47665 56500
L47665 57681
" />
<path d="M47665 57681
L49633 57681
" />
<path d="M46917 55122
L46917 56500
" />
<path d="M50381 55122
L50381 56500
" />
<path d="M46917 55122
L47665 55122
" />
<path d="M46917 56500
L47665 56500
" />
<path d="M49633 56500
L50381 56500
" />
<path d="M49633 55122
L50381 55122
" />
<path d="M96444 56500
L97192 56500
" />
<path d="M99161 56500
L99909 56500
" />
<path d="M99161 55122
L99909 55122
" />
<path d="M96444 55122
L97192 55122
" />
<path d="M99909 55122
L99909 56500
" />
<path d="M99161 56500
L99161 57681
" />
<path d="M97192 51381
L97192 55122
" />
<path d="M97192 56500
L97192 57681
" />
<path d="M99161 51381
L99161 55122
" />
<path d="M96444 55122
L96444 56500
" />
<path d="M99161 51381
L97192 51381
" />
<path d="M97192 57681
L99161 57681
" />
<path d="M30401.6 49118.1 A196.85 196.85 0.0 0 0 30795.3 49118.1" />
<path d="M29496.1 48724.4 A196.85 196.85 0.0 0 0 29496.1 49118.1" />
<path d="M30795.3 43921.3 A196.85 196.85 0.0 0 0 30795.3 43527.6" />
<path d="M29496.1 43527.6 A196.85 196.85 0.0 0 0 29496.1 43921.3" />
<path d="M20559.1 49118.1 A196.85 196.85 0.0 0 0 20952.8 49118.1" />
<path d="M21858.3 49118.1 A196.85 196.85 0.0 0 0 21858.3 48724.4" />
<path d="M21858.3 43921.3 A196.85 196.85 0.0 0 0 21858.3 43527.6" />
<path d="M20559.1 43527.6 A196.85 196.85 0.0 0 0 20559.1 43921.3" />
<path d="M22921.3 49590.6 A196.85 196.85 0.0 0 0 22921.3 49984.3" />
<path d="M28433.1 44866.1 A196.85 196.85 0.0 0 0 28433.1 44472.4" />
<path d="M22921.3 44472.4 A196.85 196.85 0.0 0 0 22921.3 44866.1" />
<path d="M28433.1 49984.3 A196.85 196.85 0.0 0 0 28433.1 49590.6" />
<path d="M19889 44511
L18511 44511
" />
<path d="M19889 46874
L19889 44511
" />
<path d="M20559 46874
L19889 46874
" />
<path d="M20559 43921
L20559 46874
" />
<path d="M21858 43527
L20559 43527
" />
<path d="M21858 43921
L21858 48724
" />
<path d="M21858 49118
L20952 49118
" />
<path d="M20559 49118
L20559 48803
" />
<path d="M20559 48803
L19889 48803
" />
<path d="M19889 48803
L19889 50220
" />
<path d="M19889 50220
L18511 50220
" />
<path d="M18511 50220
L18511 48803
" />
<path d="M18511 48803
L17803 48803
" />
<path d="M17803 48803
L17803 46874
" />
<path d="M17803 46874
L18511 46874
" />
<path d="M18511 44511
L18511 46874
" />
<path d="M22921 44866
L22921 49590
" />
<path d="M22921 44472
L28433 44472
" />
<path d="M22921 49984
L28433 49984
" />
<path d="M28433 44866
L28433 49590
" />
<path d="M30795 46874
L31464 46874
" />
<path d="M29496 43527
L30795 43527
" />
<path d="M30795 43921
L30795 46874
" />
<path d="M29496 43921
L29496 48724
" />
<path d="M29496 49118
L30401 49118
" />
<path d="M30795 49118
L30795 48803
" />
<path d="M31464 44511
L32842 44511
" />
<path d="M31464 46874
L31464 44511
" />
<path d="M33551 46874
L32842 46874
" />
<path d="M31464 48803
L31464 50220
" />
<path d="M31464 50220
L32842 50220
" />
<path d="M33551 48803
L33551 46874
" />
<path d="M32842 48803
L33551 48803
" />
<path d="M32842 44511
L32842 46874
" />
<path d="M30795 48803
L31464 48803
" />
<path d="M32842 50220
L32842 48803
" />
<path d="M122051 42070.9 A196.85 196.85 0.0 0 0 122051 42464.6" />
<path d="M127563 42464.6 A196.85 196.85 0.0 0 0 127563 42070.9" />
<path d="M122051 36952.8 A196.85 196.85 0.0 0 0 122051 37346.5" />
<path d="M127563 37346.5 A196.85 196.85 0.0 0 0 127563 36952.8" />
<path d="M127562 37346
L127562 42070
" />
<path d="M122051 36952
L127562 36952
" />
<path d="M122051 42464
L127562 42464
" />
<path d="M122051 37346
L122051 42070
" />
<path d="M26539.4 37346.5 A196.85 196.85 0.0 0 0 26539.4 36952.8" />
<path d="M21027.6 36952.8 A196.85 196.85 0.0 0 0 21027.6 37346.5" />
<path d="M26539.4 42464.6 A196.85 196.85 0.0 0 0 26539.4 42070.9" />
<path d="M21027.6 42070.9 A196.85 196.85 0.0 0 0 21027.6 42464.6" />
<path d="M21027 42464
L26539 42464
" />
<path d="M21027 36952
L26539 36952
" />
<path d="M21027 37346
L21027 42070
" />
<path d="M26539 37346
L26539 42070
" />
<path d="M118187 44866.1 A196.85 196.85 0.0 0 0 118187 44472.4" />
<path d="M112675 44472.4 A196.85 196.85 0.0 0 0 112675 44866.1" />
<path d="M118187 49984.3 A196.85 196.85 0.0 0 0 118187 49590.6" />
<path d="M112675 49590.6 A196.85 196.85 0.0 0 0 112675 49984.3" />
<path d="M112675 49984
L118187 49984
" />
<path d="M112675 44472
L118187 44472
" />
<path d="M112675 44866
L112675 49590
" />
<path d="M118187 44866
L118187 49590
" />
<path d="M119398 9937.01 A196.85 196.85 0.0 0 0 119398 9543.31" />
<path d="M113886 9543.31 A196.85 196.85 0.0 0 0 113886 9937.01" />
<path d="M119398 15055.1 A196.85 196.85 0.0 0 0 119398 14661.4" />
<path d="M113886 14661.4 A196.85 196.85 0.0 0 0 113886 15055.1" />
<path d="M119397 9937
L119397 14661
" />
<path d="M113885 9937
L113885 14661
" />
<path d="M113885 9543
L119397 9543
" />
<path d="M113885 15055
L119397 15055
" />
<path d="M96956.7 9937.01 A196.85 196.85 0.0 0 0 96956.7 9543.31" />
<path d="M91444.9 9543.31 A196.85 196.85 0.0 0 0 91444.9 9937.01" />
<path d="M96956.7 15055.1 A196.85 196.85 0.0 0 0 96956.7 14661.4" />
<path d="M91444.9 14661.4 A196.85 196.85 0.0 0 0 91444.9 15055.1" />
<path d="M96956 9937
L96956 14661
" />
<path d="M91444 9937
L91444 14661
" />
<path d="M91444 9543
L96956 9543
" />
<path d="M91444 15055
L96956 15055
" />
<path d="M85736.2 9937.01 A196.85 196.85 0.0 0 0 85736.2 9543.31" />
<path d="M80224.4 9543.31 A196.85 196.85 0.0 0 0 80224.4 9937.01" />
<path d="M85736.2 15055.1 A196.85 196.85 0.0 0 0 85736.2 14661.4" />
<path d="M80224.4 14661.4 A196.85 196.85 0.0 0 0 80224.4 15055.1" />
<path d="M85736 9937
L85736 14661
" />
<path d="M80224 9937
L80224 14661
" />
<path d="M80224 9543
L85736 9543
" />
<path d="M80224 15055
L85736 15055
" />
<path d="M130618 9937.01 A196.85 196.85 0.0 0 0 130618 9543.31" />
<path d="M125106 9543.31 A196.85 196.85 0.0 0 0 125106 9937.01" />
<path d="M130618 15055.1 A196.85 196.85 0.0 0 0 130618 14661.4" />
<path d="M125106 14661.4 A196.85 196.85 0.0 0 0 125106 15055.1" />
<path d="M130618 9937
L130618 14661
" />
<path d="M125106 9937
L125106 14661
" />
<path d="M125106 9543
L130618 9543
" />
<path d="M125106 15055
L130618 15055
" />
<path d="M108177 9937.01 A196.85 196.85 0.0 0 0 108177 9543.31" />
<path d="M102665 9543.31 A196.85 196.85 0.0 0 0 102665 9937.01" />
<path d="M108177 15055.1 A196.85 196.85 0.0 0 0 108177 14661.4" />
<path d="M102665 14661.4 A196.85 196.85 0.0 0 0 102665 15055.1" />
<path d="M108177 9937
L108177 14661
" />
<path d="M102665 9937
L102665 14661
" />
<path d="M102665 9543
L108177 9543
" />
<path d="M102665 15055
L108177 15055
" />
<path d="M25641.7 29838.6 A196.85 196.85 0.0 0 0 25641.7 29444.9" />
<path d="M20129.9 29444.9 A196.85 196.85 0.0 0 0 20129.9 29838.6" />
<path d="M25641.7 34956.7 A196.85 196.85 0.0 0 0 25641.7 34563" />
<path d="M20129.9 34563 A196.85 196.85 0.0 0 0 20129.9 34956.7" />
<path d="M20129 34956
L25641 34956
" />
<path d="M20129 29444
L25641 29444
" />
<path d="M20129 29838
L20129 34562
" />
<path d="M25641 29838
L25641 34562
" />
<path d="M126626 29838.6 A196.85 196.85 0.0 0 0 126626 29444.9" />
<path d="M121114 29444.9 A196.85 196.85 0.0 0 0 121114 29838.6" />
<path d="M126626 34956.7 A196.85 196.85 0.0 0 0 126626 34563" />
<path d="M121114 34563 A196.85 196.85 0.0 0 0 121114 34956.7" />
<path d="M121114 34956
L126625 34956
" />
<path d="M121114 29444
L126625 29444
" />
<path d="M121114 29838
L121114 34562
" />
<path d="M126625 29838
L126625 34562
" />
<path d="M18255.9 27043.3 A196.85 196.85 0.0 0 0 18255.9 27437" />
<path d="M23767.7 27437 A196.85 196.85 0.0 0 0 23767.7 27043.3" />
<path d="M18255.9 21925.2 A196.85 196.85 0.0 0 0 18255.9 22318.9" />
<path d="M23767.7 22318.9 A196.85 196.85 0.0 0 0 23767.7 21925.2" />
<path d="M23767 22318
L23767 27043
" />
<path d="M18255 21925
L23767 21925
" />
<path d="M18255 27437
L23767 27437
" />
<path d="M18255 22318
L18255 27043
" />
<path d="M76224.4 42070.9 A196.85 196.85 0.0 0 0 76224.4 42464.6" />
<path d="M81736.2 42464.6 A196.85 196.85 0.0 0 0 81736.2 42070.9" />
<path d="M76224.4 36952.8 A196.85 196.85 0.0 0 0 76224.4 37346.5" />
<path d="M81736.2 37346.5 A196.85 196.85 0.0 0 0 81736.2 36952.8" />
<path d="M81736 37346
L81736 42070
" />
<path d="M76224 36952
L81736 36952
" />
<path d="M76224 42464
L81736 42464
" />
<path d="M76224 37346
L76224 42070
" />
<path d="M53783.5 42070.9 A196.85 196.85 0.0 0 0 53783.5 42464.6" />
<path d="M59295.3 42464.6 A196.85 196.85 0.0 0 0 59295.3 42070.9" />
<path d="M53783.5 36952.8 A196.85 196.85 0.0 0 0 53783.5 37346.5" />
<path d="M59295.3 37346.5 A196.85 196.85 0.0 0 0 59295.3 36952.8" />
<path d="M59295 37346
L59295 42070
" />
<path d="M53783 36952
L59295 36952
" />
<path d="M53783 42464
L59295 42464
" />
<path d="M53783 37346
L53783 42070
" />
<path d="M50027.6 49590.6 A196.85 196.85 0.0 0 0 50027.6 49984.3" />
<path d="M55539.4 49984.3 A196.85 196.85 0.0 0 0 55539.4 49590.6" />
<path d="M50027.6 44472.4 A196.85 196.85 0.0 0 0 50027.6 44866.1" />
<path d="M55539.4 44866.1 A196.85 196.85 0.0 0 0 55539.4 44472.4" />
<path d="M55539 44866
L55539 49590
" />
<path d="M50027 44472
L55539 44472
" />
<path d="M50027 49984
L55539 49984
" />
<path d="M50027 44866
L50027 49590
" />
<path d="M87429.1 49590.6 A196.85 196.85 0.0 0 0 87429.1 49984.3" />
<path d="M92940.9 49984.3 A196.85 196.85 0.0 0 0 92940.9 49590.6" />
<path d="M87429.1 44472.4 A196.85 196.85 0.0 0 0 87429.1 44866.1" />
<path d="M92940.9 44866.1 A196.85 196.85 0.0 0 0 92940.9 44472.4" />
<path d="M92940 44866
L92940 49590
" />
<path d="M87429 44472
L92940 44472
" />
<path d="M87429 49984
L92940 49984
" />
<path d="M87429 44866
L87429 49590
" />
<path d="M46303.1 42070.9 A196.85 196.85 0.0 0 0 46303.1 42464.6" />
<path d="M51815 42464.6 A196.85 196.85 0.0 0 0 51815 42070.9" />
<path d="M46303.1 36952.8 A196.85 196.85 0.0 0 0 46303.1 37346.5" />
<path d="M51815 37346.5 A196.85 196.85 0.0 0 0 51815 36952.8" />
<path d="M51814 37346
L51814 42070
" />
<path d="M46303 36952
L51814 36952
" />
<path d="M46303 42464
L51814 42464
" />
<path d="M46303 37346
L46303 42070
" />
<path d="M111744 34563 A196.85 196.85 0.0 0 0 111744 34956.7" />
<path d="M117256 34956.7 A196.85 196.85 0.0 0 0 117256 34563" />
<path d="M111744 29444.9 A196.85 196.85 0.0 0 0 111744 29838.6" />
<path d="M117256 29838.6 A196.85 196.85 0.0 0 0 117256 29444.9" />
<path d="M117255 29838
L117255 34562
" />
<path d="M111744 29444
L117255 29444
" />
<path d="M111744 34956
L117255 34956
" />
<path d="M111744 29838
L111744 34562
" />
<path d="M61263.8 42070.9 A196.85 196.85 0.0 0 0 61263.8 42464.6" />
<path d="M66775.6 42464.6 A196.85 196.85 0.0 0 0 66775.6 42070.9" />
<path d="M61263.8 36952.8 A196.85 196.85 0.0 0 0 61263.8 37346.5" />
<path d="M66775.6 37346.5 A196.85 196.85 0.0 0 0 66775.6 36952.8" />
<path d="M66775 37346
L66775 42070
" />
<path d="M61263 36952
L66775 36952
" />
<path d="M61263 42464
L66775 42464
" />
<path d="M61263 37346
L61263 42070
" />
<path d="M81822.8 34563 A196.85 196.85 0.0 0 0 81822.8 34956.7" />
<path d="M87334.6 34956.7 A196.85 196.85 0.0 0 0 87334.6 34563" />
<path d="M81822.8 29444.9 A196.85 196.85 0.0 0 0 81822.8 29838.6" />
<path d="M87334.6 29838.6 A196.85 196.85 0.0 0 0 87334.6 29444.9" />
<path d="M87334 29838
L87334 34562
" />
<path d="M81822 29444
L87334 29444
" />
<path d="M81822 34956
L87334 34956
" />
<path d="M81822 29838
L81822 34562
" />
<path d="M64988.2 49590.6 A196.85 196.85 0.0 0 0 64988.2 49984.3" />
<path d="M70500 49984.3 A196.85 196.85 0.0 0 0 70500 49590.6" />
<path d="M64988.2 44472.4 A196.85 196.85 0.0 0 0 64988.2 44866.1" />
<path d="M70500 44866.1 A196.85 196.85 0.0 0 0 70500 44472.4" />
<path d="M70500 44866
L70500 49590
" />
<path d="M64988 44472
L70500 44472
" />
<path d="M64988 49984
L70500 49984
" />
<path d="M64988 44866
L64988 49590
" />
<path d="M122980 27043.3 A196.85 196.85 0.0 0 0 122980 27437" />
<path d="M128492 27437 A196.85 196.85 0.0 0 0 128492 27043.3" />
<path d="M122980 21925.2 A196.85 196.85 0.0 0 0 122980 22318.9" />
<path d="M128492 22318.9 A196.85 196.85 0.0 0 0 128492 21925.2" />
<path d="M128492 22318
L128492 27043
" />
<path d="M122980 21925
L128492 21925
" />
<path d="M122980 27437
L128492 27437
" />
<path d="M122980 22318
L122980 27043
" />
<path d="M44421.3 34563 A196.85 196.85 0.0 0 0 44421.3 34956.7" />
<path d="M49933.1 34956.7 A196.85 196.85 0.0 0 0 49933.1 34563" />
<path d="M44421.3 29444.9 A196.85 196.85 0.0 0 0 44421.3 29838.6" />
<path d="M49933.1 29838.6 A196.85 196.85 0.0 0 0 49933.1 29444.9" />
<path d="M49933 29838
L49933 34562
" />
<path d="M44421 29444
L49933 29444
" />
<path d="M44421 34956
L49933 34956
" />
<path d="M44421 29838
L44421 34562
" />
<path d="M122980 49590.6 A196.85 196.85 0.0 0 0 122980 49984.3" />
<path d="M128492 49984.3 A196.85 196.85 0.0 0 0 128492 49590.6" />
<path d="M122980 44472.4 A196.85 196.85 0.0 0 0 122980 44866.1" />
<path d="M128492 44866.1 A196.85 196.85 0.0 0 0 128492 44472.4" />
<path d="M128492 44866
L128492 49590
" />
<path d="M122980 44472
L128492 44472
" />
<path d="M122980 49984
L128492 49984
" />
<path d="M122980 44866
L122980 49590
" />
<path d="M104264 34563 A196.85 196.85 0.0 0 0 104264 34956.7" />
<path d="M109776 34956.7 A196.85 196.85 0.0 0 0 109776 34563" />
<path d="M104264 29444.9 A196.85 196.85 0.0 0 0 104264 29838.6" />
<path d="M109776 29838.6 A196.85 196.85 0.0 0 0 109776 29444.9" />
<path d="M109775 29838
L109775 34562
" />
<path d="M104263 29444
L109775 29444
" />
<path d="M104263 34956
L109775 34956
" />
<path d="M104263 29838
L104263 34562
" />
<path d="M115500 27043.3 A196.85 196.85 0.0 0 0 115500 27437" />
<path d="M121012 27437 A196.85 196.85 0.0 0 0 121012 27043.3" />
<path d="M115500 21925.2 A196.85 196.85 0.0 0 0 115500 22318.9" />
<path d="M121012 22318.9 A196.85 196.85 0.0 0 0 121012 21925.2" />
<path d="M121011 22318
L121011 27043
" />
<path d="M115500 21925
L121011 21925
" />
<path d="M115500 27437
L121011 27437
" />
<path d="M115500 22318
L115500 27043
" />
<path d="M108020 27043.3 A196.85 196.85 0.0 0 0 108020 27437" />
<path d="M113531 27437 A196.85 196.85 0.0 0 0 113531 27043.3" />
<path d="M108020 21925.2 A196.85 196.85 0.0 0 0 108020 22318.9" />
<path d="M113531 22318.9 A196.85 196.85 0.0 0 0 113531 21925.2" />
<path d="M113531 22318
L113531 27043
" />
<path d="M108019 21925
L113531 21925
" />
<path d="M108019 27437
L113531 27437
" />
<path d="M108019 22318
L108019 27043
" />
<path d="M68744.1 42070.9 A196.85 196.85 0.0 0 0 68744.1 42464.6" />
<path d="M74255.9 42464.6 A196.85 196.85 0.0 0 0 74255.9 42070.9" />
<path d="M68744.1 36952.8 A196.85 196.85 0.0 0 0 68744.1 37346.5" />
<path d="M74255.9 37346.5 A196.85 196.85 0.0 0 0 74255.9 36952.8" />
<path d="M74255 37346
L74255 42070
" />
<path d="M68744 36952
L74255 36952
" />
<path d="M68744 42464
L74255 42464
" />
<path d="M68744 37346
L68744 42070
" />
<path d="M96783.5 34563 A196.85 196.85 0.0 0 0 96783.5 34956.7" />
<path d="M102295 34956.7 A196.85 196.85 0.0 0 0 102295 34563" />
<path d="M96783.5 29444.9 A196.85 196.85 0.0 0 0 96783.5 29838.6" />
<path d="M102295 29838.6 A196.85 196.85 0.0 0 0 102295 29444.9" />
<path d="M102295 29838
L102295 34562
" />
<path d="M96783 29444
L102295 29444
" />
<path d="M96783 34956
L102295 34956
" />
<path d="M96783 29838
L96783 34562
" />
<path d="M102390 49590.6 A196.85 196.85 0.0 0 0 102390 49984.3" />
<path d="M107902 49984.3 A196.85 196.85 0.0 0 0 107902 49590.6" />
<path d="M102390 44472.4 A196.85 196.85 0.0 0 0 102390 44866.1" />
<path d="M107902 44866.1 A196.85 196.85 0.0 0 0 107902 44472.4" />
<path d="M107901 44866
L107901 49590
" />
<path d="M102389 44472
L107901 44472
" />
<path d="M102389 49984
L107901 49984
" />
<path d="M102389 44866
L102389 49590
" />
<path d="M98665.4 42070.9 A196.85 196.85 0.0 0 0 98665.4 42464.6" />
<path d="M104177 42464.6 A196.85 196.85 0.0 0 0 104177 42070.9" />
<path d="M98665.4 36952.8 A196.85 196.85 0.0 0 0 98665.4 37346.5" />
<path d="M104177 37346.5 A196.85 196.85 0.0 0 0 104177 36952.8" />
<path d="M104177 37346
L104177 42070
" />
<path d="M98665 36952
L104177 36952
" />
<path d="M98665 42464
L104177 42464
" />
<path d="M98665 37346
L98665 42070
" />
<path d="M100539 27043.3 A196.85 196.85 0.0 0 0 100539 27437" />
<path d="M106051 27437 A196.85 196.85 0.0 0 0 106051 27043.3" />
<path d="M100539 21925.2 A196.85 196.85 0.0 0 0 100539 22318.9" />
<path d="M106051 22318.9 A196.85 196.85 0.0 0 0 106051 21925.2" />
<path d="M106051 22318
L106051 27043
" />
<path d="M100539 21925
L106051 21925
" />
<path d="M100539 27437
L106051 27437
" />
<path d="M100539 22318
L100539 27043
" />
<path d="M72468.5 49590.6 A196.85 196.85 0.0 0 0 72468.5 49984.3" />
<path d="M77980.3 49984.3 A196.85 196.85 0.0 0 0 77980.3 49590.6" />
<path d="M72468.5 44472.4 A196.85 196.85 0.0 0 0 72468.5 44866.1" />
<path d="M77980.3 44866.1 A196.85 196.85 0.0 0 0 77980.3 44472.4" />
<path d="M77980 44866
L77980 49590
" />
<path d="M72468 44472
L77980 44472
" />
<path d="M72468 49984
L77980 49984
" />
<path d="M72468 44866
L72468 49590
" />
<path d="M59381.9 34563 A196.85 196.85 0.0 0 0 59381.9 34956.7" />
<path d="M64893.7 34956.7 A196.85 196.85 0.0 0 0 64893.7 34563" />
<path d="M59381.9 29444.9 A196.85 196.85 0.0 0 0 59381.9 29838.6" />
<path d="M64893.7 29838.6 A196.85 196.85 0.0 0 0 64893.7 29444.9" />
<path d="M64893 29838
L64893 34562
" />
<path d="M59381 29444
L64893 29444
" />
<path d="M59381 34956
L64893 34956
" />
<path d="M59381 29838
L59381 34562
" />
<path d="M79948.8 49590.6 A196.85 196.85 0.0 0 0 79948.8 49984.3" />
<path d="M85460.6 49984.3 A196.85 196.85 0.0 0 0 85460.6 49590.6" />
<path d="M79948.8 44472.4 A196.85 196.85 0.0 0 0 79948.8 44866.1" />
<path d="M85460.6 44866.1 A196.85 196.85 0.0 0 0 85460.6 44472.4" />
<path d="M85460 44866
L85460 49590
" />
<path d="M79948 44472
L85460 44472
" />
<path d="M79948 49984
L85460 49984
" />
<path d="M79948 44866
L79948 49590
" />
<path d="M38822.8 42070.9 A196.85 196.85 0.0 0 0 38822.8 42464.6" />
<path d="M44334.6 42464.6 A196.85 196.85 0.0 0 0 44334.6 42070.9" />
<path d="M38822.8 36952.8 A196.85 196.85 0.0 0 0 38822.8 37346.5" />
<path d="M44334.6 37346.5 A196.85 196.85 0.0 0 0 44334.6 36952.8" />
<path d="M44334 37346
L44334 42070
" />
<path d="M38822 36952
L44334 36952
" />
<path d="M38822 42464
L44334 42464
" />
<path d="M38822 37346
L38822 42070
" />
<path d="M51901.6 34563 A196.85 196.85 0.0 0 0 51901.6 34956.7" />
<path d="M57413.4 34956.7 A196.85 196.85 0.0 0 0 57413.4 34563" />
<path d="M51901.6 29444.9 A196.85 196.85 0.0 0 0 51901.6 29838.6" />
<path d="M57413.4 29838.6 A196.85 196.85 0.0 0 0 57413.4 29444.9" />
<path d="M57413 29838
L57413 34562
" />
<path d="M51901 29444
L57413 29444
" />
<path d="M51901 34956
L57413 34956
" />
<path d="M51901 29838
L51901 34562
" />
<path d="M29460.6 34563 A196.85 196.85 0.0 0 0 29460.6 34956.7" />
<path d="M34972.4 34956.7 A196.85 196.85 0.0 0 0 34972.4 34563" />
<path d="M29460.6 29444.9 A196.85 196.85 0.0 0 0 29460.6 29838.6" />
<path d="M34972.4 29838.6 A196.85 196.85 0.0 0 0 34972.4 29444.9" />
<path d="M34972 29838
L34972 34562
" />
<path d="M29460 29444
L34972 29444
" />
<path d="M29460 34956
L34972 34956
" />
<path d="M29460 29838
L29460 34562
" />
<path d="M83704.7 42070.9 A196.85 196.85 0.0 0 0 83704.7 42464.6" />
<path d="M89216.5 42464.6 A196.85 196.85 0.0 0 0 89216.5 42070.9" />
<path d="M83704.7 36952.8 A196.85 196.85 0.0 0 0 83704.7 37346.5" />
<path d="M89216.5 37346.5 A196.85 196.85 0.0 0 0 89216.5 36952.8" />
<path d="M89216 37346
L89216 42070
" />
<path d="M83704 36952
L89216 36952
" />
<path d="M83704 42464
L89216 42464
" />
<path d="M83704 37346
L83704 42070
" />
<path d="M113626 42070.9 A196.85 196.85 0.0 0 0 113626 42464.6" />
<path d="M119138 42464.6 A196.85 196.85 0.0 0 0 119138 42070.9" />
<path d="M113626 36952.8 A196.85 196.85 0.0 0 0 113626 37346.5" />
<path d="M119138 37346.5 A196.85 196.85 0.0 0 0 119138 36952.8" />
<path d="M119137 37346
L119137 42070
" />
<path d="M113625 36952
L119137 36952
" />
<path d="M113625 42464
L119137 42464
" />
<path d="M113625 37346
L113625 42070
" />
<path d="M94909.4 49590.6 A196.85 196.85 0.0 0 0 94909.4 49984.3" />
<path d="M100421 49984.3 A196.85 196.85 0.0 0 0 100421 49590.6" />
<path d="M94909.4 44472.4 A196.85 196.85 0.0 0 0 94909.4 44866.1" />
<path d="M100421 44866.1 A196.85 196.85 0.0 0 0 100421 44472.4" />
<path d="M100421 44866
L100421 49590
" />
<path d="M94909 44472
L100421 44472
" />
<path d="M94909 49984
L100421 49984
" />
<path d="M94909 44866
L94909 49590
" />
<path d="M106146 42070.9 A196.85 196.85 0.0 0 0 106146 42464.6" />
<path d="M111657 42464.6 A196.85 196.85 0.0 0 0 111657 42070.9" />
<path d="M106146 36952.8 A196.85 196.85 0.0 0 0 106146 37346.5" />
<path d="M111657 37346.5 A196.85 196.85 0.0 0 0 111657 36952.8" />
<path d="M111657 37346
L111657 42070
" />
<path d="M106145 36952
L111657 36952
" />
<path d="M106145 42464
L111657 42464
" />
<path d="M106145 37346
L106145 42070
" />
<path d="M91185 42070.9 A196.85 196.85 0.0 0 0 91185 42464.6" />
<path d="M96696.9 42464.6 A196.85 196.85 0.0 0 0 96696.9 42070.9" />
<path d="M91185 36952.8 A196.85 196.85 0.0 0 0 91185 37346.5" />
<path d="M96696.9 37346.5 A196.85 196.85 0.0 0 0 96696.9 36952.8" />
<path d="M96696 37346
L96696 42070
" />
<path d="M91185 36952
L96696 36952
" />
<path d="M91185 42464
L96696 42464
" />
<path d="M91185 37346
L91185 42070
" />
<path d="M89303.1 34563 A196.85 196.85 0.0 0 0 89303.1 34956.7" />
<path d="M94815 34956.7 A196.85 196.85 0.0 0 0 94815 34563" />
<path d="M89303.1 29444.9 A196.85 196.85 0.0 0 0 89303.1 29838.6" />
<path d="M94815 29838.6 A196.85 196.85 0.0 0 0 94815 29444.9" />
<path d="M94814 29838
L94814 34562
" />
<path d="M89303 29444
L94814 29444
" />
<path d="M89303 34956
L94814 34956
" />
<path d="M89303 29838
L89303 34562
" />
<path d="M74342.5 34563 A196.85 196.85 0.0 0 0 74342.5 34956.7" />
<path d="M79854.3 34956.7 A196.85 196.85 0.0 0 0 79854.3 34563" />
<path d="M74342.5 29444.9 A196.85 196.85 0.0 0 0 74342.5 29838.6" />
<path d="M79854.3 29838.6 A196.85 196.85 0.0 0 0 79854.3 29444.9" />
<path d="M79854 29838
L79854 34562
" />
<path d="M74342 29444
L79854 29444
" />
<path d="M74342 34956
L79854 34956
" />
<path d="M74342 29838
L74342 34562
" />
<path d="M57507.9 49590.6 A196.85 196.85 0.0 0 0 57507.9 49984.3" />
<path d="M63019.7 49984.3 A196.85 196.85 0.0 0 0 63019.7 49590.6" />
<path d="M57507.9 44472.4 A196.85 196.85 0.0 0 0 57507.9 44866.1" />
<path d="M63019.7 44866.1 A196.85 196.85 0.0 0 0 63019.7 44472.4" />
<path d="M63019 44866
L63019 49590
" />
<path d="M57507 44472
L63019 44472
" />
<path d="M57507 49984
L63019 49984
" />
<path d="M57507 44866
L57507 49590
" />
<path d="M42547.2 49590.6 A196.85 196.85 0.0 0 0 42547.2 49984.3" />
<path d="M48059.1 49984.3 A196.85 196.85 0.0 0 0 48059.1 49590.6" />
<path d="M42547.2 44472.4 A196.85 196.85 0.0 0 0 42547.2 44866.1" />
<path d="M48059.1 44866.1 A196.85 196.85 0.0 0 0 48059.1 44472.4" />
<path d="M48059 44866
L48059 49590
" />
<path d="M42547 44472
L48059 44472
" />
<path d="M42547 49984
L48059 49984
" />
<path d="M42547 44866
L42547 49590
" />
<path d="M66862.2 34563 A196.85 196.85 0.0 0 0 66862.2 34956.7" />
<path d="M72374 34956.7 A196.85 196.85 0.0 0 0 72374 34563" />
<path d="M66862.2 29444.9 A196.85 196.85 0.0 0 0 66862.2 29838.6" />
<path d="M72374 29838.6 A196.85 196.85 0.0 0 0 72374 29444.9" />
<path d="M72374 29838
L72374 34562
" />
<path d="M66862 29444
L72374 29444
" />
<path d="M66862 34956
L72374 34956
" />
<path d="M66862 29838
L66862 34562
" />
<path d="M35066.9 49590.6 A196.85 196.85 0.0 0 0 35066.9 49984.3" />
<path d="M40578.7 49984.3 A196.85 196.85 0.0 0 0 40578.7 49590.6" />
<path d="M35066.9 44472.4 A196.85 196.85 0.0 0 0 35066.9 44866.1" />
<path d="M40578.7 44866.1 A196.85 196.85 0.0 0 0 40578.7 44472.4" />
<path d="M40578 44866
L40578 49590
" />
<path d="M35066 44472
L40578 44472
" />
<path d="M35066 49984
L40578 49984
" />
<path d="M35066 44866
L35066 49590
" />
<path d="M36940.9 34563 A196.85 196.85 0.0 0 0 36940.9 34956.7" />
<path d="M42452.8 34956.7 A196.85 196.85 0.0 0 0 42452.8 34563" />
<path d="M36940.9 29444.9 A196.85 196.85 0.0 0 0 36940.9 29838.6" />
<path d="M42452.8 29838.6 A196.85 196.85 0.0 0 0 42452.8 29444.9" />
<path d="M42452 29838
L42452 34562
" />
<path d="M36940 29444
L42452 29444
" />
<path d="M36940 34956
L42452 34956
" />
<path d="M36940 29838
L36940 34562
" />
<path d="M33216.5 27043.3 A196.85 196.85 0.0 0 0 33216.5 27437" />
<path d="M38728.3 27437 A196.85 196.85 0.0 0 0 38728.3 27043.3" />
<path d="M33216.5 21925.2 A196.85 196.85 0.0 0 0 33216.5 22318.9" />
<path d="M38728.3 22318.9 A196.85 196.85 0.0 0 0 38728.3 21925.2" />
<path d="M38728 22318
L38728 27043
" />
<path d="M33216 21925
L38728 21925
" />
<path d="M33216 27437
L38728 27437
" />
<path d="M33216 22318
L33216 27043
" />
<path d="M25736.2 27043.3 A196.85 196.85 0.0 0 0 25736.2 27437" />
<path d="M31248 27437 A196.85 196.85 0.0 0 0 31248 27043.3" />
<path d="M25736.2 21925.2 A196.85 196.85 0.0 0 0 25736.2 22318.9" />
<path d="M31248 22318.9 A196.85 196.85 0.0 0 0 31248 21925.2" />
<path d="M31248 22318
L31248 27043
" />
<path d="M25736 21925
L31248 21925
" />
<path d="M25736 27437
L31248 27437
" />
<path d="M25736 22318
L25736 27043
" />
<path d="M40696.9 27043.3 A196.85 196.85 0.0 0 0 40696.9 27437" />
<path d="M46208.7 27437 A196.85 196.85 0.0 0 0 46208.7 27043.3" />
<path d="M40696.9 21925.2 A196.85 196.85 0.0 0 0 40696.9 22318.9" />
<path d="M46208.7 22318.9 A196.85 196.85 0.0 0 0 46208.7 21925.2" />
<path d="M46208 22318
L46208 27043
" />
<path d="M40696 21925
L46208 21925
" />
<path d="M40696 27437
L46208 27437
" />
<path d="M40696 22318
L40696 27043
" />
<path d="M55657.5 27043.3 A196.85 196.85 0.0 0 0 55657.5 27437" />
<path d="M61169.3 27437 A196.85 196.85 0.0 0 0 61169.3 27043.3" />
<path d="M55657.5 21925.2 A196.85 196.85 0.0 0 0 55657.5 22318.9" />
<path d="M61169.3 22318.9 A196.85 196.85 0.0 0 0 61169.3 21925.2" />
<path d="M61169 22318
L61169 27043
" />
<path d="M55657 21925
L61169 21925
" />
<path d="M55657 27437
L61169 27437
" />
<path d="M55657 22318
L55657 27043
" />
<path d="M31342.5 42070.9 A196.85 196.85 0.0 0 0 31342.5 42464.6" />
<path d="M36854.3 42464.6 A196.85 196.85 0.0 0 0 36854.3 42070.9" />
<path d="M31342.5 36952.8 A196.85 196.85 0.0 0 0 31342.5 37346.5" />
<path d="M36854.3 37346.5 A196.85 196.85 0.0 0 0 36854.3 36952.8" />
<path d="M36854 37346
L36854 42070
" />
<path d="M31342 36952
L36854 36952
" />
<path d="M31342 42464
L36854 42464
" />
<path d="M31342 37346
L31342 42070
" />
<path d="M63137.8 27043.3 A196.85 196.85 0.0 0 0 63137.8 27437" />
<path d="M68649.6 27437 A196.85 196.85 0.0 0 0 68649.6 27043.3" />
<path d="M63137.8 21925.2 A196.85 196.85 0.0 0 0 63137.8 22318.9" />
<path d="M68649.6 22318.9 A196.85 196.85 0.0 0 0 68649.6 21925.2" />
<path d="M68649 22318
L68649 27043
" />
<path d="M63137 21925
L68649 21925
" />
<path d="M63137 27437
L68649 27437
" />
<path d="M63137 22318
L63137 27043
" />
<path d="M70618.1 27043.3 A196.85 196.85 0.0 0 0 70618.1 27437" />
<path d="M76129.9 27437 A196.85 196.85 0.0 0 0 76129.9 27043.3" />
<path d="M70618.1 21925.2 A196.85 196.85 0.0 0 0 70618.1 22318.9" />
<path d="M76129.9 22318.9 A196.85 196.85 0.0 0 0 76129.9 21925.2" />
<path d="M76129 22318
L76129 27043
" />
<path d="M70618 21925
L76129 21925
" />
<path d="M70618 27437
L76129 27437
" />
<path d="M70618 22318
L70618 27043
" />
<path d="M85578.7 27043.3 A196.85 196.85 0.0 0 0 85578.7 27437" />
<path d="M91090.6 27437 A196.85 196.85 0.0 0 0 91090.6 27043.3" />
<path d="M85578.7 21925.2 A196.85 196.85 0.0 0 0 85578.7 22318.9" />
<path d="M91090.6 22318.9 A196.85 196.85 0.0 0 0 91090.6 21925.2" />
<path d="M91090 22318
L91090 27043
" />
<path d="M85578 21925
L91090 21925
" />
<path d="M85578 27437
L91090 27437
" />
<path d="M85578 22318
L85578 27043
" />
<path d="M78098.4 27043.3 A196.85 196.85 0.0 0 0 78098.4 27437" />
<path d="M83610.2 27437 A196.85 196.85 0.0 0 0 83610.2 27043.3" />
<path d="M78098.4 21925.2 A196.85 196.85 0.0 0 0 78098.4 22318.9" />
<path d="M83610.2 22318.9 A196.85 196.85 0.0 0 0 83610.2 21925.2" />
<path d="M83610 22318
L83610 27043
" />
<path d="M78098 21925
L83610 21925
" />
<path d="M78098 27437
L83610 27437
" />
<path d="M78098 22318
L78098 27043
" />
<path d="M48177.2 27043.3 A196.85 196.85 0.0 0 0 48177.2 27437" />
<path d="M53689 27437 A196.85 196.85 0.0 0 0 53689 27043.3" />
<path d="M48177.2 21925.2 A196.85 196.85 0.0 0 0 48177.2 22318.9" />
<path d="M53689 22318.9 A196.85 196.85 0.0 0 0 53689 21925.2" />
<path d="M53688 22318
L53688 27043
" />
<path d="M48177 21925
L53688 21925
" />
<path d="M48177 27437
L53688 27437
" />
<path d="M48177 22318
L48177 27043
" />
<path d="M93059.1 27043.3 A196.85 196.85 0.0 0 0 93059.1 27437" />
<path d="M98570.9 27437 A196.85 196.85 0.0 0 0 98570.9 27043.3" />
<path d="M93059.1 21925.2 A196.85 196.85 0.0 0 0 93059.1 22318.9" />
<path d="M98570.9 22318.9 A196.85 196.85 0.0 0 0 98570.9 21925.2" />
<path d="M98570 22318
L98570 27043
" />
<path d="M93059 21925
L98570 21925
" />
<path d="M93059 27437
L98570 27437
" />
<path d="M93059 22318
L93059 27043
" />
<g >
</g>
<g >
</g>
<g >
</g>
<g >
</g>
<g >
</g>
<g >
</g>
<g >
</g>
<g >
</g>
<g >
</g>
<g >
</g>
<g >
</g>
<g >
</g>
<g >
</g>
<g >
</g>
<g >
</g>
<g >
</g>
<g >
</g>
<g >
</g>
<g >
</g>
<g >
</g>
<g >
</g>
<g >
</g>
<g >
</g>
<g >
</g>
<g >
</g>
<g >
</g>
<g >
</g>
<g >
</g>
<g >
</g>
<g >
</g>
<g >
</g>
<g >
</g>
<g >
</g>
<g >
</g>
<g >
</g>
<g >
</g>
<g >
</g>
<g >
</g>
<g >
</g>
<g >
</g>
<g >
</g>
<g >
</g>
<g >
</g>
<g >
</g>
<g >
</g>
<g >
</g>
<g >
</g>
<g >
</g>
<g >
</g>
<g >
</g>
<g >
</g>
<g >
</g>
<g >
</g>
<g >
</g>
<g >
</g>
<g >
</g>
<g >
</g>
<g >
</g>
<g >
</g>
<g >
</g>
<g >
</g>
<g >
</g>
<g >
</g>
<g >
</g>
<g >
</g>
<g >
</g>
<g >
</g>
<g >
</g>
<g >
</g>
<g >
</g>
<g >
</g>
</g> 
</svg>
