G04 #@! TF.GenerationSoftware,KiCad,Pcbnew,(6.0.1)*
G04 #@! TF.CreationDate,2022-09-12T22:19:50-07:00*
G04 #@! TF.ProjectId,Atari130MX_wasdkb,41746172-6931-4333-904d-585f77617364,Ds*
G04 #@! TF.SameCoordinates,Original*
G04 #@! TF.FileFunction,Soldermask,Top*
G04 #@! TF.FilePolarity,Negative*
%FSLAX46Y46*%
G04 Gerber Fmt 4.6, Leading zero omitted, Abs format (unit mm)*
G04 Created by KiCad (PCBNEW (6.0.1)) date 2022-09-12 22:19:50*
%MOMM*%
%LPD*%
G01*
G04 APERTURE LIST*
G04 Aperture macros list*
%AMRoundRect*
0 Rectangle with rounded corners*
0 $1 Rounding radius*
0 $2 $3 $4 $5 $6 $7 $8 $9 X,Y pos of 4 corners*
0 Add a 4 corners polygon primitive as box body*
4,1,4,$2,$3,$4,$5,$6,$7,$8,$9,$2,$3,0*
0 Add four circle primitives for the rounded corners*
1,1,$1+$1,$2,$3*
1,1,$1+$1,$4,$5*
1,1,$1+$1,$6,$7*
1,1,$1+$1,$8,$9*
0 Add four rect primitives between the rounded corners*
20,1,$1+$1,$2,$3,$4,$5,0*
20,1,$1+$1,$4,$5,$6,$7,0*
20,1,$1+$1,$6,$7,$8,$9,0*
20,1,$1+$1,$8,$9,$2,$3,0*%
G04 Aperture macros list end*
%ADD10C,3.050000*%
%ADD11C,4.000000*%
%ADD12C,2.200000*%
%ADD13C,3.200000*%
%ADD14RoundRect,0.250000X-0.600000X0.600000X-0.600000X-0.600000X0.600000X-0.600000X0.600000X0.600000X0*%
%ADD15C,1.700000*%
%ADD16O,1.700000X1.700000*%
%ADD17R,1.700000X1.700000*%
%ADD18O,1.600000X1.600000*%
%ADD19C,1.600000*%
%ADD20C,1.800000*%
%ADD21R,1.800000X1.800000*%
G04 APERTURE END LIST*
D10*
X322834050Y-56916250D03*
D11*
X310940300Y-64060000D03*
D10*
X299034050Y-56916250D03*
D11*
X322834050Y-72156250D03*
X299034050Y-72156250D03*
D12*
X313480300Y-58980000D03*
X307130300Y-61520000D03*
X315861550Y-116130000D03*
X309511550Y-118670000D03*
D11*
X313321550Y-121210000D03*
D10*
X53777800Y-114304375D03*
D11*
X65671550Y-121210000D03*
X77577800Y-129544375D03*
X53777800Y-129544375D03*
D10*
X77577800Y-114304375D03*
D12*
X68211550Y-116130000D03*
X61861550Y-118670000D03*
X304749050Y-99620000D03*
X311099050Y-97080000D03*
D10*
X320465300Y-95254375D03*
D11*
X296665300Y-110494375D03*
X320465300Y-110494375D03*
X308559050Y-102160000D03*
D10*
X296665300Y-95254375D03*
D12*
X63449050Y-97150000D03*
X57099050Y-99690000D03*
D11*
X60909050Y-102230000D03*
D12*
X318242800Y-78030000D03*
X311892800Y-80570000D03*
D11*
X315702800Y-83110000D03*
D12*
X61067800Y-78055400D03*
X54717800Y-80595400D03*
D11*
X58527800Y-83135400D03*
D10*
X237121550Y-133354375D03*
X137121550Y-133354375D03*
D11*
X137121550Y-148594375D03*
X237121550Y-148594375D03*
X187115300Y-140260000D03*
D12*
X189655300Y-135180000D03*
X183305300Y-137720000D03*
X117027175Y-135180000D03*
X110677175Y-137720000D03*
D11*
X114487175Y-140260000D03*
D12*
X262283425Y-135180000D03*
X255933425Y-137720000D03*
D11*
X259743425Y-140260000D03*
D13*
X185810000Y-44550000D03*
X336940000Y-139800000D03*
X336940000Y-40740000D03*
X37220000Y-139800000D03*
D14*
X270900000Y-45820000D03*
D15*
X273440000Y-45820000D03*
X275980000Y-45820000D03*
X278520000Y-45820000D03*
X281060000Y-45820000D03*
X283600000Y-45820000D03*
X286140000Y-45820000D03*
X288680000Y-45820000D03*
X291220000Y-45820000D03*
X293760000Y-45820000D03*
X296300000Y-45820000D03*
X298840000Y-45820000D03*
X270900000Y-48360000D03*
X273440000Y-48360000D03*
X275980000Y-48360000D03*
X278520000Y-48360000D03*
X281060000Y-48360000D03*
X283600000Y-48360000D03*
X286140000Y-48360000D03*
X288680000Y-48360000D03*
X291220000Y-48360000D03*
X293760000Y-48360000D03*
X296300000Y-48360000D03*
X298840000Y-48360000D03*
D16*
X87970000Y-51025000D03*
X85430000Y-51025000D03*
D17*
X82890000Y-51025000D03*
D16*
X80350000Y-51025000D03*
X77810000Y-51025000D03*
X75270000Y-51025000D03*
X72730000Y-51025000D03*
D17*
X70190000Y-51025000D03*
D16*
X67650000Y-51025000D03*
X65110000Y-51025000D03*
X62570000Y-51025000D03*
X60030000Y-51025000D03*
D17*
X57490000Y-51025000D03*
D16*
X54950000Y-51025000D03*
X52410000Y-51025000D03*
X49870000Y-51025000D03*
X47330000Y-51025000D03*
D17*
X44790000Y-51025000D03*
D16*
X42250000Y-51025000D03*
X39710000Y-51025000D03*
X39710000Y-33245000D03*
X42250000Y-33245000D03*
D17*
X44790000Y-33245000D03*
D16*
X47330000Y-33245000D03*
X49870000Y-33245000D03*
X52410000Y-33245000D03*
X54950000Y-33245000D03*
D17*
X57490000Y-33245000D03*
D16*
X60030000Y-33245000D03*
X62570000Y-33245000D03*
X65110000Y-33245000D03*
X67650000Y-33245000D03*
D17*
X70190000Y-33245000D03*
D16*
X72730000Y-33245000D03*
X75270000Y-33245000D03*
X77810000Y-33245000D03*
X80350000Y-33245000D03*
D17*
X82890000Y-33245000D03*
D16*
X85430000Y-33245000D03*
X87970000Y-33245000D03*
X39940000Y-44675000D03*
D17*
X39940000Y-42135000D03*
D16*
X39940000Y-39595000D03*
D12*
X185125000Y-27530000D03*
D11*
X182585000Y-32610000D03*
D12*
X178775000Y-30070000D03*
X156550000Y-27530000D03*
D11*
X154010000Y-32610000D03*
D12*
X150200000Y-30070000D03*
X127975000Y-27530000D03*
D11*
X125435000Y-32610000D03*
D12*
X121625000Y-30070000D03*
X99400000Y-27530000D03*
D11*
X96860000Y-32610000D03*
D12*
X93050000Y-30070000D03*
D18*
X37220000Y-60425000D03*
D19*
X37220000Y-68045000D03*
D17*
X38440000Y-25500000D03*
D16*
X40980000Y-25500000D03*
X43520000Y-25500000D03*
X46060000Y-25500000D03*
X48600000Y-25500000D03*
X51140000Y-25500000D03*
X53680000Y-25500000D03*
X56220000Y-25500000D03*
X58760000Y-25500000D03*
X61300000Y-25500000D03*
X63840000Y-25500000D03*
X66380000Y-25500000D03*
X68920000Y-25500000D03*
X71460000Y-25500000D03*
D12*
X242200000Y-27530000D03*
D11*
X239660000Y-32610000D03*
D12*
X235850000Y-30070000D03*
X270700000Y-27530000D03*
D11*
X268160000Y-32610000D03*
D12*
X264350000Y-30070000D03*
X327700000Y-27530000D03*
D11*
X325160000Y-32610000D03*
D12*
X321350000Y-30070000D03*
X299200000Y-27530000D03*
D11*
X296660000Y-32610000D03*
D12*
X292850000Y-30070000D03*
X213700000Y-27530000D03*
D11*
X211160000Y-32610000D03*
D12*
X207350000Y-30070000D03*
D20*
X31900000Y-143200000D03*
D21*
X29360000Y-143200000D03*
D11*
X96627800Y-121210000D03*
D12*
X92817800Y-118670000D03*
X99167800Y-116130000D03*
X180130300Y-78030000D03*
X173780300Y-80570000D03*
D11*
X177590300Y-83110000D03*
X115677800Y-121210000D03*
D12*
X111867800Y-118670000D03*
X118217800Y-116130000D03*
X103930300Y-78030000D03*
X97580300Y-80570000D03*
D11*
X101390300Y-83110000D03*
X153777800Y-121210000D03*
D12*
X149967800Y-118670000D03*
X156317800Y-116130000D03*
X199180300Y-78030000D03*
X192830300Y-80570000D03*
D11*
X196640300Y-83110000D03*
D12*
X161080300Y-78030000D03*
X154730300Y-80570000D03*
D11*
X158540300Y-83110000D03*
D12*
X280142800Y-97080000D03*
X273792800Y-99620000D03*
D11*
X277602800Y-102160000D03*
X268077800Y-121210000D03*
D12*
X264267800Y-118670000D03*
X270617800Y-116130000D03*
D11*
X287127800Y-121210000D03*
D12*
X283317800Y-118670000D03*
X289667800Y-116130000D03*
D11*
X106152800Y-102230000D03*
D12*
X102342800Y-99690000D03*
X108692800Y-97150000D03*
X142030300Y-78030000D03*
X135680300Y-80570000D03*
D11*
X139490300Y-83110000D03*
X82340300Y-83110000D03*
D12*
X78530300Y-80570000D03*
X84880300Y-78030000D03*
X261092800Y-97080000D03*
X254742800Y-99620000D03*
D11*
X258552800Y-102160000D03*
X249027800Y-121210000D03*
D12*
X245217800Y-118670000D03*
X251567800Y-116130000D03*
X256330300Y-78030000D03*
X249980300Y-80570000D03*
D11*
X253790300Y-83110000D03*
D12*
X237280300Y-78030000D03*
X230930300Y-80570000D03*
D11*
X234740300Y-83110000D03*
X191877800Y-121210000D03*
D12*
X188067800Y-118670000D03*
X194417800Y-116130000D03*
D11*
X210927800Y-121210000D03*
D12*
X207117800Y-118670000D03*
X213467800Y-116130000D03*
D11*
X263315300Y-64060000D03*
D12*
X259505300Y-61520000D03*
X265855300Y-58980000D03*
D11*
X239502800Y-102230000D03*
D12*
X235692800Y-99690000D03*
X242042800Y-97150000D03*
D11*
X220452800Y-102230000D03*
D12*
X216642800Y-99690000D03*
X222992800Y-97150000D03*
D11*
X201402800Y-102230000D03*
D12*
X197592800Y-99690000D03*
X203942800Y-97150000D03*
X218230300Y-78030000D03*
X211880300Y-80570000D03*
D11*
X215690300Y-83110000D03*
X182352800Y-102230000D03*
D12*
X178542800Y-99690000D03*
X184892800Y-97150000D03*
D11*
X282365300Y-64060000D03*
D12*
X278555300Y-61520000D03*
X284905300Y-58980000D03*
D11*
X163302800Y-102230000D03*
D12*
X159492800Y-99690000D03*
X165842800Y-97150000D03*
D11*
X144252800Y-102230000D03*
D12*
X140442800Y-99690000D03*
X146792800Y-97150000D03*
D11*
X53760000Y-64060000D03*
D12*
X49950000Y-61520000D03*
X56300000Y-58980000D03*
X294430300Y-78030000D03*
X288080300Y-80570000D03*
D11*
X291890300Y-83110000D03*
D12*
X122980300Y-78030000D03*
X116630300Y-80570000D03*
D11*
X120440300Y-83110000D03*
D12*
X275380300Y-78030000D03*
X269030300Y-80570000D03*
D11*
X272840300Y-83110000D03*
X125202800Y-102230000D03*
D12*
X121392800Y-99690000D03*
X127742800Y-97150000D03*
D11*
X229977800Y-121210000D03*
D12*
X226167800Y-118670000D03*
X232517800Y-116130000D03*
D11*
X134727800Y-121210000D03*
D12*
X130917800Y-118670000D03*
X137267800Y-116130000D03*
D11*
X172827800Y-121210000D03*
D12*
X169017800Y-118670000D03*
X175367800Y-116130000D03*
D11*
X87102800Y-102230000D03*
D12*
X83292800Y-99690000D03*
X89642800Y-97150000D03*
D11*
X225215300Y-64060000D03*
D12*
X221405300Y-61520000D03*
X227755300Y-58980000D03*
D11*
X206165300Y-64060000D03*
D12*
X202355300Y-61520000D03*
X208705300Y-58980000D03*
D11*
X187115300Y-64060000D03*
D12*
X183305300Y-61520000D03*
X189655300Y-58980000D03*
D11*
X168065300Y-64060000D03*
D12*
X164255300Y-61520000D03*
X170605300Y-58980000D03*
D11*
X149015300Y-64060000D03*
D12*
X145205300Y-61520000D03*
X151555300Y-58980000D03*
D11*
X129965300Y-64060000D03*
D12*
X126155300Y-61520000D03*
X132505300Y-58980000D03*
D11*
X110915300Y-64060000D03*
D12*
X107105300Y-61520000D03*
X113455300Y-58980000D03*
D11*
X91865300Y-64060000D03*
D12*
X88055300Y-61520000D03*
X94405300Y-58980000D03*
D11*
X72815300Y-64060000D03*
D12*
X69005300Y-61520000D03*
X75355300Y-58980000D03*
D11*
X244265300Y-64060000D03*
D12*
X240455300Y-61520000D03*
X246805300Y-58980000D03*
M02*
