G04 #@! TF.GenerationSoftware,KiCad,Pcbnew,(6.0.10)*
G04 #@! TF.CreationDate,2023-01-22T18:02:13-08:00*
G04 #@! TF.ProjectId,AtariChocXE,41746172-6943-4686-9f63-58452e6b6963,11*
G04 #@! TF.SameCoordinates,Original*
G04 #@! TF.FileFunction,Legend,Bot*
G04 #@! TF.FilePolarity,Positive*
%FSLAX46Y46*%
G04 Gerber Fmt 4.6, Leading zero omitted, Abs format (unit mm)*
G04 Created by KiCad (PCBNEW (6.0.10)) date 2023-01-22 18:02:13*
%MOMM*%
%LPD*%
G01*
G04 APERTURE LIST*
G04 Aperture macros list*
%AMRoundRect*
0 Rectangle with rounded corners*
0 $1 Rounding radius*
0 $2 $3 $4 $5 $6 $7 $8 $9 X,Y pos of 4 corners*
0 Add a 4 corners polygon primitive as box body*
4,1,4,$2,$3,$4,$5,$6,$7,$8,$9,$2,$3,0*
0 Add four circle primitives for the rounded corners*
1,1,$1+$1,$2,$3*
1,1,$1+$1,$4,$5*
1,1,$1+$1,$6,$7*
1,1,$1+$1,$8,$9*
0 Add four rect primitives between the rounded corners*
20,1,$1+$1,$2,$3,$4,$5,0*
20,1,$1+$1,$4,$5,$6,$7,0*
20,1,$1+$1,$6,$7,$8,$9,0*
20,1,$1+$1,$8,$9,$2,$3,0*%
%AMHorizOval*
0 Thick line with rounded ends*
0 $1 width*
0 $2 $3 position (X,Y) of the first rounded end (center of the circle)*
0 $4 $5 position (X,Y) of the second rounded end (center of the circle)*
0 Add line between two ends*
20,1,$1,$2,$3,$4,$5,0*
0 Add two circle primitives to create the rounded ends*
1,1,$1,$2,$3*
1,1,$1,$4,$5*%
G04 Aperture macros list end*
%ADD10C,0.150000*%
%ADD11C,0.100000*%
%ADD12C,0.120000*%
%ADD13R,1.800000X1.800000*%
%ADD14C,1.800000*%
%ADD15O,2.200000X1.800000*%
%ADD16C,5.250000*%
%ADD17HorizOval,2.200000X-0.353553X-0.353553X0.353553X0.353553X0*%
%ADD18HorizOval,1.400000X-0.169047X0.362523X0.169047X-0.362523X0*%
%ADD19C,1.900000*%
%ADD20O,2.500000X1.400000*%
%ADD21C,2.200000*%
%ADD22R,1.500000X2.300000*%
%ADD23R,2.300000X1.500000*%
%ADD24C,3.987800*%
%ADD25C,3.048000*%
%ADD26O,1.800000X2.200000*%
%ADD27HorizOval,1.400000X-0.362523X-0.169047X0.362523X0.169047X0*%
%ADD28HorizOval,2.200000X0.353553X-0.353553X-0.353553X0.353553X0*%
%ADD29O,1.400000X2.500000*%
%ADD30HorizOval,2.200000X-0.353553X0.353553X0.353553X-0.353553X0*%
%ADD31HorizOval,1.400000X0.362523X0.169047X-0.362523X-0.169047X0*%
%ADD32R,1.700000X1.700000*%
%ADD33O,1.700000X1.700000*%
%ADD34RoundRect,0.250000X0.600000X-0.600000X0.600000X0.600000X-0.600000X0.600000X-0.600000X-0.600000X0*%
%ADD35C,1.700000*%
%ADD36R,0.400000X1.000000*%
%ADD37R,2.000000X1.300000*%
G04 APERTURE END LIST*
D10*
X101264404Y-139726380D02*
X101264404Y-138726380D01*
X101169166Y-139345428D02*
X100883452Y-139726380D01*
X100883452Y-139059714D02*
X101264404Y-139440666D01*
X100073928Y-139678761D02*
X100169166Y-139726380D01*
X100359642Y-139726380D01*
X100454880Y-139678761D01*
X100502500Y-139583523D01*
X100502500Y-139202571D01*
X100454880Y-139107333D01*
X100359642Y-139059714D01*
X100169166Y-139059714D01*
X100073928Y-139107333D01*
X100026309Y-139202571D01*
X100026309Y-139297809D01*
X100502500Y-139393047D01*
X99692976Y-139059714D02*
X99454880Y-139726380D01*
X99216785Y-139059714D02*
X99454880Y-139726380D01*
X99550119Y-139964476D01*
X99597738Y-140012095D01*
X99692976Y-140059714D01*
X98835833Y-139726380D02*
X98835833Y-138726380D01*
X98835833Y-139107333D02*
X98740595Y-139059714D01*
X98550119Y-139059714D01*
X98454880Y-139107333D01*
X98407261Y-139154952D01*
X98359642Y-139250190D01*
X98359642Y-139535904D01*
X98407261Y-139631142D01*
X98454880Y-139678761D01*
X98550119Y-139726380D01*
X98740595Y-139726380D01*
X98835833Y-139678761D01*
X97788214Y-139726380D02*
X97883452Y-139678761D01*
X97931071Y-139631142D01*
X97978690Y-139535904D01*
X97978690Y-139250190D01*
X97931071Y-139154952D01*
X97883452Y-139107333D01*
X97788214Y-139059714D01*
X97645357Y-139059714D01*
X97550119Y-139107333D01*
X97502500Y-139154952D01*
X97454880Y-139250190D01*
X97454880Y-139535904D01*
X97502500Y-139631142D01*
X97550119Y-139678761D01*
X97645357Y-139726380D01*
X97788214Y-139726380D01*
X96597738Y-139726380D02*
X96597738Y-139202571D01*
X96645357Y-139107333D01*
X96740595Y-139059714D01*
X96931071Y-139059714D01*
X97026309Y-139107333D01*
X96597738Y-139678761D02*
X96692976Y-139726380D01*
X96931071Y-139726380D01*
X97026309Y-139678761D01*
X97073928Y-139583523D01*
X97073928Y-139488285D01*
X97026309Y-139393047D01*
X96931071Y-139345428D01*
X96692976Y-139345428D01*
X96597738Y-139297809D01*
X96121547Y-139726380D02*
X96121547Y-139059714D01*
X96121547Y-139250190D02*
X96073928Y-139154952D01*
X96026309Y-139107333D01*
X95931071Y-139059714D01*
X95835833Y-139059714D01*
X95073928Y-139726380D02*
X95073928Y-138726380D01*
X95073928Y-139678761D02*
X95169166Y-139726380D01*
X95359642Y-139726380D01*
X95454880Y-139678761D01*
X95502500Y-139631142D01*
X95550119Y-139535904D01*
X95550119Y-139250190D01*
X95502500Y-139154952D01*
X95454880Y-139107333D01*
X95359642Y-139059714D01*
X95169166Y-139059714D01*
X95073928Y-139107333D01*
X93835833Y-139726380D02*
X93835833Y-139059714D01*
X93835833Y-139250190D02*
X93788214Y-139154952D01*
X93740595Y-139107333D01*
X93645357Y-139059714D01*
X93550119Y-139059714D01*
X92835833Y-139678761D02*
X92931071Y-139726380D01*
X93121547Y-139726380D01*
X93216785Y-139678761D01*
X93264404Y-139583523D01*
X93264404Y-139202571D01*
X93216785Y-139107333D01*
X93121547Y-139059714D01*
X92931071Y-139059714D01*
X92835833Y-139107333D01*
X92788214Y-139202571D01*
X92788214Y-139297809D01*
X93264404Y-139393047D01*
X92454880Y-139059714D02*
X92216785Y-139726380D01*
X91978690Y-139059714D01*
X91597738Y-139631142D02*
X91550119Y-139678761D01*
X91597738Y-139726380D01*
X91645357Y-139678761D01*
X91597738Y-139631142D01*
X91597738Y-139726380D01*
X89835833Y-139726380D02*
X90407261Y-139726380D01*
X90121547Y-139726380D02*
X90121547Y-138726380D01*
X90216785Y-138869238D01*
X90312023Y-138964476D01*
X90407261Y-139012095D01*
X88883452Y-139726380D02*
X89454880Y-139726380D01*
X89169166Y-139726380D02*
X89169166Y-138726380D01*
X89264404Y-138869238D01*
X89359642Y-138964476D01*
X89454880Y-139012095D01*
X87407261Y-140107333D02*
X87454880Y-140059714D01*
X87550119Y-139916857D01*
X87597738Y-139821619D01*
X87645357Y-139678761D01*
X87692976Y-139440666D01*
X87692976Y-139250190D01*
X87645357Y-139012095D01*
X87597738Y-138869238D01*
X87550119Y-138774000D01*
X87454880Y-138631142D01*
X87407261Y-138583523D01*
X86597738Y-139678761D02*
X86692976Y-139726380D01*
X86883452Y-139726380D01*
X86978690Y-139678761D01*
X87026309Y-139631142D01*
X87073928Y-139535904D01*
X87073928Y-139250190D01*
X87026309Y-139154952D01*
X86978690Y-139107333D01*
X86883452Y-139059714D01*
X86692976Y-139059714D01*
X86597738Y-139107333D01*
X86264404Y-140107333D02*
X86216785Y-140059714D01*
X86121547Y-139916857D01*
X86073928Y-139821619D01*
X86026309Y-139678761D01*
X85978690Y-139440666D01*
X85978690Y-139250190D01*
X86026309Y-139012095D01*
X86073928Y-138869238D01*
X86121547Y-138774000D01*
X86216785Y-138631142D01*
X86264404Y-138583523D01*
X84407261Y-139202571D02*
X84264404Y-139250190D01*
X84216785Y-139297809D01*
X84169166Y-139393047D01*
X84169166Y-139535904D01*
X84216785Y-139631142D01*
X84264404Y-139678761D01*
X84359642Y-139726380D01*
X84740595Y-139726380D01*
X84740595Y-138726380D01*
X84407261Y-138726380D01*
X84312023Y-138774000D01*
X84264404Y-138821619D01*
X84216785Y-138916857D01*
X84216785Y-139012095D01*
X84264404Y-139107333D01*
X84312023Y-139154952D01*
X84407261Y-139202571D01*
X84740595Y-139202571D01*
X83359642Y-139678761D02*
X83454880Y-139726380D01*
X83645357Y-139726380D01*
X83740595Y-139678761D01*
X83788214Y-139583523D01*
X83788214Y-139202571D01*
X83740595Y-139107333D01*
X83645357Y-139059714D01*
X83454880Y-139059714D01*
X83359642Y-139107333D01*
X83312023Y-139202571D01*
X83312023Y-139297809D01*
X83788214Y-139393047D01*
X82883452Y-139726380D02*
X82883452Y-139059714D01*
X82883452Y-139250190D02*
X82835833Y-139154952D01*
X82788214Y-139107333D01*
X82692976Y-139059714D01*
X82597738Y-139059714D01*
X82407261Y-139059714D02*
X82026309Y-139059714D01*
X82264404Y-138726380D02*
X82264404Y-139583523D01*
X82216785Y-139678761D01*
X82121547Y-139726380D01*
X82026309Y-139726380D01*
X81692976Y-139726380D02*
X81692976Y-139059714D01*
X81692976Y-139250190D02*
X81645357Y-139154952D01*
X81597738Y-139107333D01*
X81502500Y-139059714D01*
X81407261Y-139059714D01*
X80645357Y-139726380D02*
X80645357Y-139202571D01*
X80692976Y-139107333D01*
X80788214Y-139059714D01*
X80978690Y-139059714D01*
X81073928Y-139107333D01*
X80645357Y-139678761D02*
X80740595Y-139726380D01*
X80978690Y-139726380D01*
X81073928Y-139678761D01*
X81121547Y-139583523D01*
X81121547Y-139488285D01*
X81073928Y-139393047D01*
X80978690Y-139345428D01*
X80740595Y-139345428D01*
X80645357Y-139297809D01*
X80169166Y-139059714D02*
X80169166Y-139726380D01*
X80169166Y-139154952D02*
X80121547Y-139107333D01*
X80026309Y-139059714D01*
X79883452Y-139059714D01*
X79788214Y-139107333D01*
X79740595Y-139202571D01*
X79740595Y-139726380D01*
X78835833Y-139726380D02*
X78835833Y-138726380D01*
X78835833Y-139678761D02*
X78931071Y-139726380D01*
X79121547Y-139726380D01*
X79216785Y-139678761D01*
X79264404Y-139631142D01*
X79312023Y-139535904D01*
X79312023Y-139250190D01*
X79264404Y-139154952D01*
X79216785Y-139107333D01*
X79121547Y-139059714D01*
X78931071Y-139059714D01*
X78835833Y-139107333D01*
X77121547Y-139726380D02*
X77597738Y-139726380D01*
X77597738Y-138726380D01*
X76407261Y-139678761D02*
X76502500Y-139726380D01*
X76692976Y-139726380D01*
X76788214Y-139678761D01*
X76835833Y-139583523D01*
X76835833Y-139202571D01*
X76788214Y-139107333D01*
X76692976Y-139059714D01*
X76502500Y-139059714D01*
X76407261Y-139107333D01*
X76359642Y-139202571D01*
X76359642Y-139297809D01*
X76835833Y-139393047D01*
X74597738Y-139726380D02*
X74931071Y-139250190D01*
X75169166Y-139726380D02*
X75169166Y-138726380D01*
X74788214Y-138726380D01*
X74692976Y-138774000D01*
X74645357Y-138821619D01*
X74597738Y-138916857D01*
X74597738Y-139059714D01*
X74645357Y-139154952D01*
X74692976Y-139202571D01*
X74788214Y-139250190D01*
X75169166Y-139250190D01*
X74026309Y-139726380D02*
X74121547Y-139678761D01*
X74169166Y-139631142D01*
X74216785Y-139535904D01*
X74216785Y-139250190D01*
X74169166Y-139154952D01*
X74121547Y-139107333D01*
X74026309Y-139059714D01*
X73883452Y-139059714D01*
X73788214Y-139107333D01*
X73740595Y-139154952D01*
X73692976Y-139250190D01*
X73692976Y-139535904D01*
X73740595Y-139631142D01*
X73788214Y-139678761D01*
X73883452Y-139726380D01*
X74026309Y-139726380D01*
X73359642Y-139059714D02*
X73121547Y-139726380D01*
X72883452Y-139059714D02*
X73121547Y-139726380D01*
X73216785Y-139964476D01*
X73264404Y-140012095D01*
X73359642Y-140059714D01*
X71788214Y-138821619D02*
X71740595Y-138774000D01*
X71645357Y-138726380D01*
X71407261Y-138726380D01*
X71312023Y-138774000D01*
X71264404Y-138821619D01*
X71216785Y-138916857D01*
X71216785Y-139012095D01*
X71264404Y-139154952D01*
X71835833Y-139726380D01*
X71216785Y-139726380D01*
X70597738Y-138726380D02*
X70502500Y-138726380D01*
X70407261Y-138774000D01*
X70359642Y-138821619D01*
X70312023Y-138916857D01*
X70264404Y-139107333D01*
X70264404Y-139345428D01*
X70312023Y-139535904D01*
X70359642Y-139631142D01*
X70407261Y-139678761D01*
X70502500Y-139726380D01*
X70597738Y-139726380D01*
X70692976Y-139678761D01*
X70740595Y-139631142D01*
X70788214Y-139535904D01*
X70835833Y-139345428D01*
X70835833Y-139107333D01*
X70788214Y-138916857D01*
X70740595Y-138821619D01*
X70692976Y-138774000D01*
X70597738Y-138726380D01*
X69883452Y-138821619D02*
X69835833Y-138774000D01*
X69740595Y-138726380D01*
X69502500Y-138726380D01*
X69407261Y-138774000D01*
X69359642Y-138821619D01*
X69312023Y-138916857D01*
X69312023Y-139012095D01*
X69359642Y-139154952D01*
X69931071Y-139726380D01*
X69312023Y-139726380D01*
X68978690Y-138726380D02*
X68359642Y-138726380D01*
X68692976Y-139107333D01*
X68550119Y-139107333D01*
X68454880Y-139154952D01*
X68407261Y-139202571D01*
X68359642Y-139297809D01*
X68359642Y-139535904D01*
X68407261Y-139631142D01*
X68454880Y-139678761D01*
X68550119Y-139726380D01*
X68835833Y-139726380D01*
X68931071Y-139678761D01*
X68978690Y-139631142D01*
X101264404Y-141336380D02*
X101264404Y-140336380D01*
X100835833Y-141336380D02*
X100835833Y-140812571D01*
X100883452Y-140717333D01*
X100978690Y-140669714D01*
X101121547Y-140669714D01*
X101216785Y-140717333D01*
X101264404Y-140764952D01*
X100502500Y-140669714D02*
X100121547Y-140669714D01*
X100359642Y-140336380D02*
X100359642Y-141193523D01*
X100312023Y-141288761D01*
X100216785Y-141336380D01*
X100121547Y-141336380D01*
X99931071Y-140669714D02*
X99550119Y-140669714D01*
X99788214Y-140336380D02*
X99788214Y-141193523D01*
X99740595Y-141288761D01*
X99645357Y-141336380D01*
X99550119Y-141336380D01*
X99216785Y-140669714D02*
X99216785Y-141669714D01*
X99216785Y-140717333D02*
X99121547Y-140669714D01*
X98931071Y-140669714D01*
X98835833Y-140717333D01*
X98788214Y-140764952D01*
X98740595Y-140860190D01*
X98740595Y-141145904D01*
X98788214Y-141241142D01*
X98835833Y-141288761D01*
X98931071Y-141336380D01*
X99121547Y-141336380D01*
X99216785Y-141288761D01*
X98359642Y-141288761D02*
X98264404Y-141336380D01*
X98073928Y-141336380D01*
X97978690Y-141288761D01*
X97931071Y-141193523D01*
X97931071Y-141145904D01*
X97978690Y-141050666D01*
X98073928Y-141003047D01*
X98216785Y-141003047D01*
X98312023Y-140955428D01*
X98359642Y-140860190D01*
X98359642Y-140812571D01*
X98312023Y-140717333D01*
X98216785Y-140669714D01*
X98073928Y-140669714D01*
X97978690Y-140717333D01*
X97502500Y-141241142D02*
X97454880Y-141288761D01*
X97502500Y-141336380D01*
X97550119Y-141288761D01*
X97502500Y-141241142D01*
X97502500Y-141336380D01*
X97502500Y-140717333D02*
X97454880Y-140764952D01*
X97502500Y-140812571D01*
X97550119Y-140764952D01*
X97502500Y-140717333D01*
X97502500Y-140812571D01*
X96312023Y-140288761D02*
X97169166Y-141574476D01*
X95264404Y-140288761D02*
X96121547Y-141574476D01*
X94502500Y-140669714D02*
X94502500Y-141479238D01*
X94550119Y-141574476D01*
X94597738Y-141622095D01*
X94692976Y-141669714D01*
X94835833Y-141669714D01*
X94931071Y-141622095D01*
X94502500Y-141288761D02*
X94597738Y-141336380D01*
X94788214Y-141336380D01*
X94883452Y-141288761D01*
X94931071Y-141241142D01*
X94978690Y-141145904D01*
X94978690Y-140860190D01*
X94931071Y-140764952D01*
X94883452Y-140717333D01*
X94788214Y-140669714D01*
X94597738Y-140669714D01*
X94502500Y-140717333D01*
X94026309Y-141336380D02*
X94026309Y-140669714D01*
X94026309Y-140336380D02*
X94073928Y-140384000D01*
X94026309Y-140431619D01*
X93978690Y-140384000D01*
X94026309Y-140336380D01*
X94026309Y-140431619D01*
X93692976Y-140669714D02*
X93312023Y-140669714D01*
X93550119Y-140336380D02*
X93550119Y-141193523D01*
X93502500Y-141288761D01*
X93407261Y-141336380D01*
X93312023Y-141336380D01*
X92978690Y-141336380D02*
X92978690Y-140336380D01*
X92550119Y-141336380D02*
X92550119Y-140812571D01*
X92597738Y-140717333D01*
X92692976Y-140669714D01*
X92835833Y-140669714D01*
X92931071Y-140717333D01*
X92978690Y-140764952D01*
X91645357Y-140669714D02*
X91645357Y-141336380D01*
X92073928Y-140669714D02*
X92073928Y-141193523D01*
X92026309Y-141288761D01*
X91931071Y-141336380D01*
X91788214Y-141336380D01*
X91692976Y-141288761D01*
X91645357Y-141241142D01*
X91169166Y-141336380D02*
X91169166Y-140336380D01*
X91169166Y-140717333D02*
X91073928Y-140669714D01*
X90883452Y-140669714D01*
X90788214Y-140717333D01*
X90740595Y-140764952D01*
X90692976Y-140860190D01*
X90692976Y-141145904D01*
X90740595Y-141241142D01*
X90788214Y-141288761D01*
X90883452Y-141336380D01*
X91073928Y-141336380D01*
X91169166Y-141288761D01*
X90264404Y-141241142D02*
X90216785Y-141288761D01*
X90264404Y-141336380D01*
X90312023Y-141288761D01*
X90264404Y-141241142D01*
X90264404Y-141336380D01*
X89359642Y-141288761D02*
X89454880Y-141336380D01*
X89645357Y-141336380D01*
X89740595Y-141288761D01*
X89788214Y-141241142D01*
X89835833Y-141145904D01*
X89835833Y-140860190D01*
X89788214Y-140764952D01*
X89740595Y-140717333D01*
X89645357Y-140669714D01*
X89454880Y-140669714D01*
X89359642Y-140717333D01*
X88788214Y-141336380D02*
X88883452Y-141288761D01*
X88931071Y-141241142D01*
X88978690Y-141145904D01*
X88978690Y-140860190D01*
X88931071Y-140764952D01*
X88883452Y-140717333D01*
X88788214Y-140669714D01*
X88645357Y-140669714D01*
X88550119Y-140717333D01*
X88502500Y-140764952D01*
X88454880Y-140860190D01*
X88454880Y-141145904D01*
X88502500Y-141241142D01*
X88550119Y-141288761D01*
X88645357Y-141336380D01*
X88788214Y-141336380D01*
X88026309Y-141336380D02*
X88026309Y-140669714D01*
X88026309Y-140764952D02*
X87978690Y-140717333D01*
X87883452Y-140669714D01*
X87740595Y-140669714D01*
X87645357Y-140717333D01*
X87597738Y-140812571D01*
X87597738Y-141336380D01*
X87597738Y-140812571D02*
X87550119Y-140717333D01*
X87454880Y-140669714D01*
X87312023Y-140669714D01*
X87216785Y-140717333D01*
X87169166Y-140812571D01*
X87169166Y-141336380D01*
X85978690Y-140288761D02*
X86835833Y-141574476D01*
X85645357Y-141336380D02*
X85645357Y-140336380D01*
X85645357Y-140717333D02*
X85550119Y-140669714D01*
X85359642Y-140669714D01*
X85264404Y-140717333D01*
X85216785Y-140764952D01*
X85169166Y-140860190D01*
X85169166Y-141145904D01*
X85216785Y-141241142D01*
X85264404Y-141288761D01*
X85359642Y-141336380D01*
X85550119Y-141336380D01*
X85645357Y-141288761D01*
X84597738Y-141336380D02*
X84692976Y-141288761D01*
X84740595Y-141193523D01*
X84740595Y-140336380D01*
X83835833Y-141288761D02*
X83931071Y-141336380D01*
X84121547Y-141336380D01*
X84216785Y-141288761D01*
X84264404Y-141193523D01*
X84264404Y-140812571D01*
X84216785Y-140717333D01*
X84121547Y-140669714D01*
X83931071Y-140669714D01*
X83835833Y-140717333D01*
X83788214Y-140812571D01*
X83788214Y-140907809D01*
X84264404Y-141003047D01*
X83359642Y-141336380D02*
X83359642Y-140669714D01*
X83359642Y-140860190D02*
X83312023Y-140764952D01*
X83264404Y-140717333D01*
X83169166Y-140669714D01*
X83073928Y-140669714D01*
X82597738Y-141336380D02*
X82692976Y-141288761D01*
X82740595Y-141241142D01*
X82788214Y-141145904D01*
X82788214Y-140860190D01*
X82740595Y-140764952D01*
X82692976Y-140717333D01*
X82597738Y-140669714D01*
X82454880Y-140669714D01*
X82359642Y-140717333D01*
X82312023Y-140764952D01*
X82264404Y-140860190D01*
X82264404Y-141145904D01*
X82312023Y-141241142D01*
X82359642Y-141288761D01*
X82454880Y-141336380D01*
X82597738Y-141336380D01*
X81931071Y-140669714D02*
X81692976Y-141336380D01*
X81454880Y-140669714D02*
X81692976Y-141336380D01*
X81788214Y-141574476D01*
X81835833Y-141622095D01*
X81931071Y-141669714D01*
X80359642Y-140288761D02*
X81216785Y-141574476D01*
X80121547Y-140336380D02*
X79502500Y-140336380D01*
X79835833Y-140717333D01*
X79692976Y-140717333D01*
X79597738Y-140764952D01*
X79550119Y-140812571D01*
X79502500Y-140907809D01*
X79502500Y-141145904D01*
X79550119Y-141241142D01*
X79597738Y-141288761D01*
X79692976Y-141336380D01*
X79978690Y-141336380D01*
X80073928Y-141288761D01*
X80121547Y-141241142D01*
X78645357Y-141336380D02*
X78645357Y-140336380D01*
X78645357Y-141288761D02*
X78740595Y-141336380D01*
X78931071Y-141336380D01*
X79026309Y-141288761D01*
X79073928Y-141241142D01*
X79121547Y-141145904D01*
X79121547Y-140860190D01*
X79073928Y-140764952D01*
X79026309Y-140717333D01*
X78931071Y-140669714D01*
X78740595Y-140669714D01*
X78645357Y-140717333D01*
X78169166Y-140955428D02*
X77407261Y-140955428D01*
X76931071Y-140669714D02*
X76931071Y-141526857D01*
X76978690Y-141622095D01*
X77073928Y-141669714D01*
X77121547Y-141669714D01*
X76931071Y-140336380D02*
X76978690Y-140384000D01*
X76931071Y-140431619D01*
X76883452Y-140384000D01*
X76931071Y-140336380D01*
X76931071Y-140431619D01*
X76026309Y-140669714D02*
X76026309Y-141336380D01*
X76454880Y-140669714D02*
X76454880Y-141193523D01*
X76407261Y-141288761D01*
X76312023Y-141336380D01*
X76169166Y-141336380D01*
X76073928Y-141288761D01*
X76026309Y-141241142D01*
X75550119Y-140669714D02*
X75550119Y-141336380D01*
X75550119Y-140764952D02*
X75502500Y-140717333D01*
X75407261Y-140669714D01*
X75264404Y-140669714D01*
X75169166Y-140717333D01*
X75121547Y-140812571D01*
X75121547Y-141336380D01*
X74645357Y-141336380D02*
X74645357Y-140336380D01*
X74550119Y-140955428D02*
X74264404Y-141336380D01*
X74264404Y-140669714D02*
X74645357Y-141050666D01*
X73931071Y-140669714D02*
X73692976Y-141336380D01*
X73454880Y-140669714D02*
X73692976Y-141336380D01*
X73788214Y-141574476D01*
X73835833Y-141622095D01*
X73931071Y-141669714D01*
X72645357Y-141336380D02*
X72645357Y-140812571D01*
X72692976Y-140717333D01*
X72788214Y-140669714D01*
X72978690Y-140669714D01*
X73073928Y-140717333D01*
X72645357Y-141288761D02*
X72740595Y-141336380D01*
X72978690Y-141336380D01*
X73073928Y-141288761D01*
X73121547Y-141193523D01*
X73121547Y-141098285D01*
X73073928Y-141003047D01*
X72978690Y-140955428D01*
X72740595Y-140955428D01*
X72645357Y-140907809D01*
X72169166Y-141336380D02*
X72169166Y-140669714D01*
X72169166Y-140860190D02*
X72121547Y-140764952D01*
X72073928Y-140717333D01*
X71978690Y-140669714D01*
X71883452Y-140669714D01*
X71121547Y-141336380D02*
X71121547Y-140336380D01*
X71121547Y-141288761D02*
X71216785Y-141336380D01*
X71407261Y-141336380D01*
X71502500Y-141288761D01*
X71550119Y-141241142D01*
X71597738Y-141145904D01*
X71597738Y-140860190D01*
X71550119Y-140764952D01*
X71502500Y-140717333D01*
X71407261Y-140669714D01*
X71216785Y-140669714D01*
X71121547Y-140717333D01*
X69931071Y-140288761D02*
X70788214Y-141574476D01*
X69740595Y-140669714D02*
X69359642Y-140669714D01*
X69597738Y-140336380D02*
X69597738Y-141193523D01*
X69550119Y-141288761D01*
X69454880Y-141336380D01*
X69359642Y-141336380D01*
X69026309Y-141336380D02*
X69026309Y-140669714D01*
X69026309Y-140860190D02*
X68978690Y-140764952D01*
X68931071Y-140717333D01*
X68835833Y-140669714D01*
X68740595Y-140669714D01*
X68026309Y-141288761D02*
X68121547Y-141336380D01*
X68312023Y-141336380D01*
X68407261Y-141288761D01*
X68454880Y-141193523D01*
X68454880Y-140812571D01*
X68407261Y-140717333D01*
X68312023Y-140669714D01*
X68121547Y-140669714D01*
X68026309Y-140717333D01*
X67978690Y-140812571D01*
X67978690Y-140907809D01*
X68454880Y-141003047D01*
X67169166Y-141288761D02*
X67264404Y-141336380D01*
X67454880Y-141336380D01*
X67550119Y-141288761D01*
X67597738Y-141193523D01*
X67597738Y-140812571D01*
X67550119Y-140717333D01*
X67454880Y-140669714D01*
X67264404Y-140669714D01*
X67169166Y-140717333D01*
X67121547Y-140812571D01*
X67121547Y-140907809D01*
X67597738Y-141003047D01*
X65978690Y-140288761D02*
X66835833Y-141574476D01*
X65645357Y-141336380D02*
X65645357Y-140669714D01*
X65645357Y-140764952D02*
X65597738Y-140717333D01*
X65502500Y-140669714D01*
X65359642Y-140669714D01*
X65264404Y-140717333D01*
X65216785Y-140812571D01*
X65216785Y-141336380D01*
X65216785Y-140812571D02*
X65169166Y-140717333D01*
X65073928Y-140669714D01*
X64931071Y-140669714D01*
X64835833Y-140717333D01*
X64788214Y-140812571D01*
X64788214Y-141336380D01*
X63883452Y-141336380D02*
X63883452Y-140812571D01*
X63931071Y-140717333D01*
X64026309Y-140669714D01*
X64216785Y-140669714D01*
X64312023Y-140717333D01*
X63883452Y-141288761D02*
X63978690Y-141336380D01*
X64216785Y-141336380D01*
X64312023Y-141288761D01*
X64359642Y-141193523D01*
X64359642Y-141098285D01*
X64312023Y-141003047D01*
X64216785Y-140955428D01*
X63978690Y-140955428D01*
X63883452Y-140907809D01*
X63407261Y-141336380D02*
X63407261Y-140669714D01*
X63407261Y-140336380D02*
X63454880Y-140384000D01*
X63407261Y-140431619D01*
X63359642Y-140384000D01*
X63407261Y-140336380D01*
X63407261Y-140431619D01*
X62931071Y-140669714D02*
X62931071Y-141336380D01*
X62931071Y-140764952D02*
X62883452Y-140717333D01*
X62788214Y-140669714D01*
X62645357Y-140669714D01*
X62550119Y-140717333D01*
X62502500Y-140812571D01*
X62502500Y-141336380D01*
X61312023Y-140288761D02*
X62169166Y-141574476D01*
X61026309Y-141050666D02*
X60550119Y-141050666D01*
X61121547Y-141336380D02*
X60788214Y-140336380D01*
X60454880Y-141336380D01*
X60264404Y-140669714D02*
X59883452Y-140669714D01*
X60121547Y-140336380D02*
X60121547Y-141193523D01*
X60073928Y-141288761D01*
X59978690Y-141336380D01*
X59883452Y-141336380D01*
X59121547Y-141336380D02*
X59121547Y-140812571D01*
X59169166Y-140717333D01*
X59264404Y-140669714D01*
X59454880Y-140669714D01*
X59550119Y-140717333D01*
X59121547Y-141288761D02*
X59216785Y-141336380D01*
X59454880Y-141336380D01*
X59550119Y-141288761D01*
X59597738Y-141193523D01*
X59597738Y-141098285D01*
X59550119Y-141003047D01*
X59454880Y-140955428D01*
X59216785Y-140955428D01*
X59121547Y-140907809D01*
X58645357Y-141336380D02*
X58645357Y-140669714D01*
X58645357Y-140860190D02*
X58597738Y-140764952D01*
X58550119Y-140717333D01*
X58454880Y-140669714D01*
X58359642Y-140669714D01*
X58026309Y-141336380D02*
X58026309Y-140669714D01*
X58026309Y-140336380D02*
X58073928Y-140384000D01*
X58026309Y-140431619D01*
X57978690Y-140384000D01*
X58026309Y-140336380D01*
X58026309Y-140431619D01*
X57026309Y-141336380D02*
X57597738Y-141336380D01*
X57312023Y-141336380D02*
X57312023Y-140336380D01*
X57407261Y-140479238D01*
X57502500Y-140574476D01*
X57597738Y-140622095D01*
X56692976Y-140336380D02*
X56073928Y-140336380D01*
X56407261Y-140717333D01*
X56264404Y-140717333D01*
X56169166Y-140764952D01*
X56121547Y-140812571D01*
X56073928Y-140907809D01*
X56073928Y-141145904D01*
X56121547Y-141241142D01*
X56169166Y-141288761D01*
X56264404Y-141336380D01*
X56550119Y-141336380D01*
X56645357Y-141288761D01*
X56692976Y-141241142D01*
X55454880Y-140336380D02*
X55359642Y-140336380D01*
X55264404Y-140384000D01*
X55216785Y-140431619D01*
X55169166Y-140526857D01*
X55121547Y-140717333D01*
X55121547Y-140955428D01*
X55169166Y-141145904D01*
X55216785Y-141241142D01*
X55264404Y-141288761D01*
X55359642Y-141336380D01*
X55454880Y-141336380D01*
X55550119Y-141288761D01*
X55597738Y-141241142D01*
X55645357Y-141145904D01*
X55692976Y-140955428D01*
X55692976Y-140717333D01*
X55645357Y-140526857D01*
X55597738Y-140431619D01*
X55550119Y-140384000D01*
X55454880Y-140336380D01*
X54692976Y-141336380D02*
X54692976Y-140336380D01*
X54359642Y-141050666D01*
X54026309Y-140336380D01*
X54026309Y-141336380D01*
X53645357Y-140336380D02*
X52978690Y-141336380D01*
X52978690Y-140336380D02*
X53645357Y-141336380D01*
X101264404Y-142946380D02*
X101264404Y-141946380D01*
X100835833Y-142946380D02*
X100835833Y-142422571D01*
X100883452Y-142327333D01*
X100978690Y-142279714D01*
X101121547Y-142279714D01*
X101216785Y-142327333D01*
X101264404Y-142374952D01*
X100502500Y-142279714D02*
X100121547Y-142279714D01*
X100359642Y-141946380D02*
X100359642Y-142803523D01*
X100312023Y-142898761D01*
X100216785Y-142946380D01*
X100121547Y-142946380D01*
X99931071Y-142279714D02*
X99550119Y-142279714D01*
X99788214Y-141946380D02*
X99788214Y-142803523D01*
X99740595Y-142898761D01*
X99645357Y-142946380D01*
X99550119Y-142946380D01*
X99216785Y-142279714D02*
X99216785Y-143279714D01*
X99216785Y-142327333D02*
X99121547Y-142279714D01*
X98931071Y-142279714D01*
X98835833Y-142327333D01*
X98788214Y-142374952D01*
X98740595Y-142470190D01*
X98740595Y-142755904D01*
X98788214Y-142851142D01*
X98835833Y-142898761D01*
X98931071Y-142946380D01*
X99121547Y-142946380D01*
X99216785Y-142898761D01*
X98359642Y-142898761D02*
X98264404Y-142946380D01*
X98073928Y-142946380D01*
X97978690Y-142898761D01*
X97931071Y-142803523D01*
X97931071Y-142755904D01*
X97978690Y-142660666D01*
X98073928Y-142613047D01*
X98216785Y-142613047D01*
X98312023Y-142565428D01*
X98359642Y-142470190D01*
X98359642Y-142422571D01*
X98312023Y-142327333D01*
X98216785Y-142279714D01*
X98073928Y-142279714D01*
X97978690Y-142327333D01*
X97502500Y-142851142D02*
X97454880Y-142898761D01*
X97502500Y-142946380D01*
X97550119Y-142898761D01*
X97502500Y-142851142D01*
X97502500Y-142946380D01*
X97502500Y-142327333D02*
X97454880Y-142374952D01*
X97502500Y-142422571D01*
X97550119Y-142374952D01*
X97502500Y-142327333D01*
X97502500Y-142422571D01*
X96312023Y-141898761D02*
X97169166Y-143184476D01*
X95264404Y-141898761D02*
X96121547Y-143184476D01*
X94502500Y-142946380D02*
X94502500Y-142422571D01*
X94550119Y-142327333D01*
X94645357Y-142279714D01*
X94835833Y-142279714D01*
X94931071Y-142327333D01*
X94502500Y-142898761D02*
X94597738Y-142946380D01*
X94835833Y-142946380D01*
X94931071Y-142898761D01*
X94978690Y-142803523D01*
X94978690Y-142708285D01*
X94931071Y-142613047D01*
X94835833Y-142565428D01*
X94597738Y-142565428D01*
X94502500Y-142517809D01*
X94169166Y-142279714D02*
X93788214Y-142279714D01*
X94026309Y-141946380D02*
X94026309Y-142803523D01*
X93978690Y-142898761D01*
X93883452Y-142946380D01*
X93788214Y-142946380D01*
X93026309Y-142946380D02*
X93026309Y-142422571D01*
X93073928Y-142327333D01*
X93169166Y-142279714D01*
X93359642Y-142279714D01*
X93454880Y-142327333D01*
X93026309Y-142898761D02*
X93121547Y-142946380D01*
X93359642Y-142946380D01*
X93454880Y-142898761D01*
X93502500Y-142803523D01*
X93502500Y-142708285D01*
X93454880Y-142613047D01*
X93359642Y-142565428D01*
X93121547Y-142565428D01*
X93026309Y-142517809D01*
X92550119Y-142946380D02*
X92550119Y-142279714D01*
X92550119Y-142470190D02*
X92502500Y-142374952D01*
X92454880Y-142327333D01*
X92359642Y-142279714D01*
X92264404Y-142279714D01*
X91931071Y-142946380D02*
X91931071Y-142279714D01*
X91931071Y-141946380D02*
X91978690Y-141994000D01*
X91931071Y-142041619D01*
X91883452Y-141994000D01*
X91931071Y-141946380D01*
X91931071Y-142041619D01*
X91026309Y-142946380D02*
X91026309Y-142422571D01*
X91073928Y-142327333D01*
X91169166Y-142279714D01*
X91359642Y-142279714D01*
X91454880Y-142327333D01*
X91026309Y-142898761D02*
X91121547Y-142946380D01*
X91359642Y-142946380D01*
X91454880Y-142898761D01*
X91502500Y-142803523D01*
X91502500Y-142708285D01*
X91454880Y-142613047D01*
X91359642Y-142565428D01*
X91121547Y-142565428D01*
X91026309Y-142517809D01*
X90121547Y-142279714D02*
X90121547Y-143089238D01*
X90169166Y-143184476D01*
X90216785Y-143232095D01*
X90312023Y-143279714D01*
X90454880Y-143279714D01*
X90550119Y-143232095D01*
X90121547Y-142898761D02*
X90216785Y-142946380D01*
X90407261Y-142946380D01*
X90502500Y-142898761D01*
X90550119Y-142851142D01*
X90597738Y-142755904D01*
X90597738Y-142470190D01*
X90550119Y-142374952D01*
X90502500Y-142327333D01*
X90407261Y-142279714D01*
X90216785Y-142279714D01*
X90121547Y-142327333D01*
X89264404Y-142898761D02*
X89359642Y-142946380D01*
X89550119Y-142946380D01*
X89645357Y-142898761D01*
X89692976Y-142803523D01*
X89692976Y-142422571D01*
X89645357Y-142327333D01*
X89550119Y-142279714D01*
X89359642Y-142279714D01*
X89264404Y-142327333D01*
X89216785Y-142422571D01*
X89216785Y-142517809D01*
X89692976Y-142613047D01*
X88788214Y-142851142D02*
X88740595Y-142898761D01*
X88788214Y-142946380D01*
X88835833Y-142898761D01*
X88788214Y-142851142D01*
X88788214Y-142946380D01*
X87883452Y-142898761D02*
X87978690Y-142946380D01*
X88169166Y-142946380D01*
X88264404Y-142898761D01*
X88312023Y-142851142D01*
X88359642Y-142755904D01*
X88359642Y-142470190D01*
X88312023Y-142374952D01*
X88264404Y-142327333D01*
X88169166Y-142279714D01*
X87978690Y-142279714D01*
X87883452Y-142327333D01*
X87312023Y-142946380D02*
X87407261Y-142898761D01*
X87454880Y-142851142D01*
X87502500Y-142755904D01*
X87502500Y-142470190D01*
X87454880Y-142374952D01*
X87407261Y-142327333D01*
X87312023Y-142279714D01*
X87169166Y-142279714D01*
X87073928Y-142327333D01*
X87026309Y-142374952D01*
X86978690Y-142470190D01*
X86978690Y-142755904D01*
X87026309Y-142851142D01*
X87073928Y-142898761D01*
X87169166Y-142946380D01*
X87312023Y-142946380D01*
X86550119Y-142946380D02*
X86550119Y-142279714D01*
X86550119Y-142374952D02*
X86502500Y-142327333D01*
X86407261Y-142279714D01*
X86264404Y-142279714D01*
X86169166Y-142327333D01*
X86121547Y-142422571D01*
X86121547Y-142946380D01*
X86121547Y-142422571D02*
X86073928Y-142327333D01*
X85978690Y-142279714D01*
X85835833Y-142279714D01*
X85740595Y-142327333D01*
X85692976Y-142422571D01*
X85692976Y-142946380D01*
X84502500Y-141898761D02*
X85359642Y-143184476D01*
X84312023Y-142279714D02*
X83931071Y-142279714D01*
X84169166Y-142946380D02*
X84169166Y-142089238D01*
X84121547Y-141994000D01*
X84026309Y-141946380D01*
X83931071Y-141946380D01*
X83454880Y-142946380D02*
X83550119Y-142898761D01*
X83597738Y-142851142D01*
X83645357Y-142755904D01*
X83645357Y-142470190D01*
X83597738Y-142374952D01*
X83550119Y-142327333D01*
X83454880Y-142279714D01*
X83312023Y-142279714D01*
X83216785Y-142327333D01*
X83169166Y-142374952D01*
X83121547Y-142470190D01*
X83121547Y-142755904D01*
X83169166Y-142851142D01*
X83216785Y-142898761D01*
X83312023Y-142946380D01*
X83454880Y-142946380D01*
X82692976Y-142946380D02*
X82692976Y-142279714D01*
X82692976Y-142470190D02*
X82645357Y-142374952D01*
X82597738Y-142327333D01*
X82502500Y-142279714D01*
X82407261Y-142279714D01*
X81645357Y-142279714D02*
X81645357Y-142946380D01*
X82073928Y-142279714D02*
X82073928Y-142803523D01*
X82026309Y-142898761D01*
X81931071Y-142946380D01*
X81788214Y-142946380D01*
X81692976Y-142898761D01*
X81645357Y-142851142D01*
X81169166Y-142946380D02*
X81169166Y-142279714D01*
X81169166Y-142374952D02*
X81121547Y-142327333D01*
X81026309Y-142279714D01*
X80883452Y-142279714D01*
X80788214Y-142327333D01*
X80740595Y-142422571D01*
X80740595Y-142946380D01*
X80740595Y-142422571D02*
X80692976Y-142327333D01*
X80597738Y-142279714D01*
X80454880Y-142279714D01*
X80359642Y-142327333D01*
X80312023Y-142422571D01*
X80312023Y-142946380D01*
X79883452Y-142898761D02*
X79788214Y-142946380D01*
X79597738Y-142946380D01*
X79502500Y-142898761D01*
X79454880Y-142803523D01*
X79454880Y-142755904D01*
X79502500Y-142660666D01*
X79597738Y-142613047D01*
X79740595Y-142613047D01*
X79835833Y-142565428D01*
X79883452Y-142470190D01*
X79883452Y-142422571D01*
X79835833Y-142327333D01*
X79740595Y-142279714D01*
X79597738Y-142279714D01*
X79502500Y-142327333D01*
X78312023Y-141898761D02*
X79169166Y-143184476D01*
X77978690Y-142279714D02*
X77978690Y-143279714D01*
X77978690Y-142327333D02*
X77883452Y-142279714D01*
X77692976Y-142279714D01*
X77597738Y-142327333D01*
X77550119Y-142374952D01*
X77502500Y-142470190D01*
X77502500Y-142755904D01*
X77550119Y-142851142D01*
X77597738Y-142898761D01*
X77692976Y-142946380D01*
X77883452Y-142946380D01*
X77978690Y-142898761D01*
X77073928Y-142946380D02*
X77073928Y-142279714D01*
X77073928Y-142470190D02*
X77026309Y-142374952D01*
X76978690Y-142327333D01*
X76883452Y-142279714D01*
X76788214Y-142279714D01*
X76312023Y-142946380D02*
X76407261Y-142898761D01*
X76454880Y-142851142D01*
X76502500Y-142755904D01*
X76502500Y-142470190D01*
X76454880Y-142374952D01*
X76407261Y-142327333D01*
X76312023Y-142279714D01*
X76169166Y-142279714D01*
X76073928Y-142327333D01*
X76026309Y-142374952D01*
X75978690Y-142470190D01*
X75978690Y-142755904D01*
X76026309Y-142851142D01*
X76073928Y-142898761D01*
X76169166Y-142946380D01*
X76312023Y-142946380D01*
X75692976Y-142279714D02*
X75312023Y-142279714D01*
X75550119Y-142946380D02*
X75550119Y-142089238D01*
X75502500Y-141994000D01*
X75407261Y-141946380D01*
X75312023Y-141946380D01*
X74978690Y-142946380D02*
X74978690Y-142279714D01*
X74978690Y-141946380D02*
X75026309Y-141994000D01*
X74978690Y-142041619D01*
X74931071Y-141994000D01*
X74978690Y-141946380D01*
X74978690Y-142041619D01*
X74359642Y-142946380D02*
X74454880Y-142898761D01*
X74502500Y-142803523D01*
X74502500Y-141946380D01*
X73597738Y-142898761D02*
X73692976Y-142946380D01*
X73883452Y-142946380D01*
X73978690Y-142898761D01*
X74026309Y-142803523D01*
X74026309Y-142422571D01*
X73978690Y-142327333D01*
X73883452Y-142279714D01*
X73692976Y-142279714D01*
X73597738Y-142327333D01*
X73550119Y-142422571D01*
X73550119Y-142517809D01*
X74026309Y-142613047D01*
X72407261Y-141898761D02*
X73264404Y-143184476D01*
X72169166Y-141946380D02*
X71502500Y-141946380D01*
X71931071Y-142946380D01*
X70692976Y-141946380D02*
X70883452Y-141946380D01*
X70978690Y-141994000D01*
X71026309Y-142041619D01*
X71121547Y-142184476D01*
X71169166Y-142374952D01*
X71169166Y-142755904D01*
X71121547Y-142851142D01*
X71073928Y-142898761D01*
X70978690Y-142946380D01*
X70788214Y-142946380D01*
X70692976Y-142898761D01*
X70645357Y-142851142D01*
X70597738Y-142755904D01*
X70597738Y-142517809D01*
X70645357Y-142422571D01*
X70692976Y-142374952D01*
X70788214Y-142327333D01*
X70978690Y-142327333D01*
X71073928Y-142374952D01*
X71121547Y-142422571D01*
X71169166Y-142517809D01*
X70026309Y-142374952D02*
X70121547Y-142327333D01*
X70169166Y-142279714D01*
X70216785Y-142184476D01*
X70216785Y-142136857D01*
X70169166Y-142041619D01*
X70121547Y-141994000D01*
X70026309Y-141946380D01*
X69835833Y-141946380D01*
X69740595Y-141994000D01*
X69692976Y-142041619D01*
X69645357Y-142136857D01*
X69645357Y-142184476D01*
X69692976Y-142279714D01*
X69740595Y-142327333D01*
X69835833Y-142374952D01*
X70026309Y-142374952D01*
X70121547Y-142422571D01*
X70169166Y-142470190D01*
X70216785Y-142565428D01*
X70216785Y-142755904D01*
X70169166Y-142851142D01*
X70121547Y-142898761D01*
X70026309Y-142946380D01*
X69835833Y-142946380D01*
X69740595Y-142898761D01*
X69692976Y-142851142D01*
X69645357Y-142755904D01*
X69645357Y-142565428D01*
X69692976Y-142470190D01*
X69740595Y-142422571D01*
X69835833Y-142374952D01*
X68740595Y-141946380D02*
X69216785Y-141946380D01*
X69264404Y-142422571D01*
X69216785Y-142374952D01*
X69121547Y-142327333D01*
X68883452Y-142327333D01*
X68788214Y-142374952D01*
X68740595Y-142422571D01*
X68692976Y-142517809D01*
X68692976Y-142755904D01*
X68740595Y-142851142D01*
X68788214Y-142898761D01*
X68883452Y-142946380D01*
X69121547Y-142946380D01*
X69216785Y-142898761D01*
X69264404Y-142851142D01*
X68073928Y-141946380D02*
X67978690Y-141946380D01*
X67883452Y-141994000D01*
X67835833Y-142041619D01*
X67788214Y-142136857D01*
X67740595Y-142327333D01*
X67740595Y-142565428D01*
X67788214Y-142755904D01*
X67835833Y-142851142D01*
X67883452Y-142898761D01*
X67978690Y-142946380D01*
X68073928Y-142946380D01*
X68169166Y-142898761D01*
X68216785Y-142851142D01*
X68264404Y-142755904D01*
X68312023Y-142565428D01*
X68312023Y-142327333D01*
X68264404Y-142136857D01*
X68216785Y-142041619D01*
X68169166Y-141994000D01*
X68073928Y-141946380D01*
X67312023Y-142565428D02*
X66550119Y-142565428D01*
X66121547Y-142898761D02*
X66026309Y-142946380D01*
X65835833Y-142946380D01*
X65740595Y-142898761D01*
X65692976Y-142803523D01*
X65692976Y-142755904D01*
X65740595Y-142660666D01*
X65835833Y-142613047D01*
X65978690Y-142613047D01*
X66073928Y-142565428D01*
X66121547Y-142470190D01*
X66121547Y-142422571D01*
X66073928Y-142327333D01*
X65978690Y-142279714D01*
X65835833Y-142279714D01*
X65740595Y-142327333D01*
X64835833Y-142898761D02*
X64931071Y-142946380D01*
X65121547Y-142946380D01*
X65216785Y-142898761D01*
X65264404Y-142851142D01*
X65312023Y-142755904D01*
X65312023Y-142470190D01*
X65264404Y-142374952D01*
X65216785Y-142327333D01*
X65121547Y-142279714D01*
X64931071Y-142279714D01*
X64835833Y-142327333D01*
X64407261Y-142946380D02*
X64407261Y-142279714D01*
X64407261Y-142470190D02*
X64359642Y-142374952D01*
X64312023Y-142327333D01*
X64216785Y-142279714D01*
X64121547Y-142279714D01*
X63407261Y-142898761D02*
X63502500Y-142946380D01*
X63692976Y-142946380D01*
X63788214Y-142898761D01*
X63835833Y-142803523D01*
X63835833Y-142422571D01*
X63788214Y-142327333D01*
X63692976Y-142279714D01*
X63502500Y-142279714D01*
X63407261Y-142327333D01*
X63359642Y-142422571D01*
X63359642Y-142517809D01*
X63835833Y-142613047D01*
X62502500Y-142946380D02*
X62502500Y-142422571D01*
X62550119Y-142327333D01*
X62645357Y-142279714D01*
X62835833Y-142279714D01*
X62931071Y-142327333D01*
X62502500Y-142898761D02*
X62597738Y-142946380D01*
X62835833Y-142946380D01*
X62931071Y-142898761D01*
X62978690Y-142803523D01*
X62978690Y-142708285D01*
X62931071Y-142613047D01*
X62835833Y-142565428D01*
X62597738Y-142565428D01*
X62502500Y-142517809D01*
X62026309Y-142946380D02*
X62026309Y-142279714D01*
X62026309Y-142374952D02*
X61978690Y-142327333D01*
X61883452Y-142279714D01*
X61740595Y-142279714D01*
X61645357Y-142327333D01*
X61597738Y-142422571D01*
X61597738Y-142946380D01*
X61597738Y-142422571D02*
X61550119Y-142327333D01*
X61454880Y-142279714D01*
X61312023Y-142279714D01*
X61216785Y-142327333D01*
X61169166Y-142422571D01*
X61169166Y-142946380D01*
X60692976Y-142946380D02*
X60692976Y-142279714D01*
X60692976Y-141946380D02*
X60740595Y-141994000D01*
X60692976Y-142041619D01*
X60645357Y-141994000D01*
X60692976Y-141946380D01*
X60692976Y-142041619D01*
X60216785Y-142279714D02*
X60216785Y-142946380D01*
X60216785Y-142374952D02*
X60169166Y-142327333D01*
X60073928Y-142279714D01*
X59931071Y-142279714D01*
X59835833Y-142327333D01*
X59788214Y-142422571D01*
X59788214Y-142946380D01*
X58883452Y-142279714D02*
X58883452Y-143089238D01*
X58931071Y-143184476D01*
X58978690Y-143232095D01*
X59073928Y-143279714D01*
X59216785Y-143279714D01*
X59312023Y-143232095D01*
X58883452Y-142898761D02*
X58978690Y-142946380D01*
X59169166Y-142946380D01*
X59264404Y-142898761D01*
X59312023Y-142851142D01*
X59359642Y-142755904D01*
X59359642Y-142470190D01*
X59312023Y-142374952D01*
X59264404Y-142327333D01*
X59169166Y-142279714D01*
X58978690Y-142279714D01*
X58883452Y-142327333D01*
X57978690Y-142946380D02*
X57978690Y-142422571D01*
X58026309Y-142327333D01*
X58121547Y-142279714D01*
X58312023Y-142279714D01*
X58407261Y-142327333D01*
X57978690Y-142898761D02*
X58073928Y-142946380D01*
X58312023Y-142946380D01*
X58407261Y-142898761D01*
X58454880Y-142803523D01*
X58454880Y-142708285D01*
X58407261Y-142613047D01*
X58312023Y-142565428D01*
X58073928Y-142565428D01*
X57978690Y-142517809D01*
X57645357Y-142279714D02*
X57264404Y-142279714D01*
X57502500Y-141946380D02*
X57502500Y-142803523D01*
X57454880Y-142898761D01*
X57359642Y-142946380D01*
X57264404Y-142946380D01*
X57073928Y-142279714D02*
X56692976Y-142279714D01*
X56931071Y-141946380D02*
X56931071Y-142803523D01*
X56883452Y-142898761D01*
X56788214Y-142946380D01*
X56692976Y-142946380D01*
X56359642Y-142946380D02*
X56359642Y-141946380D01*
X55931071Y-142946380D02*
X55931071Y-142422571D01*
X55978690Y-142327333D01*
X56073928Y-142279714D01*
X56216785Y-142279714D01*
X56312023Y-142327333D01*
X56359642Y-142374952D01*
X55073928Y-142898761D02*
X55169166Y-142946380D01*
X55359642Y-142946380D01*
X55454880Y-142898761D01*
X55502500Y-142803523D01*
X55502500Y-142422571D01*
X55454880Y-142327333D01*
X55359642Y-142279714D01*
X55169166Y-142279714D01*
X55073928Y-142327333D01*
X55026309Y-142422571D01*
X55026309Y-142517809D01*
X55502500Y-142613047D01*
X54597738Y-142946380D02*
X54597738Y-142279714D01*
X54597738Y-142470190D02*
X54550119Y-142374952D01*
X54502500Y-142327333D01*
X54407261Y-142279714D01*
X54312023Y-142279714D01*
X53550119Y-142946380D02*
X53550119Y-142422571D01*
X53597738Y-142327333D01*
X53692976Y-142279714D01*
X53883452Y-142279714D01*
X53978690Y-142327333D01*
X53550119Y-142898761D02*
X53645357Y-142946380D01*
X53883452Y-142946380D01*
X53978690Y-142898761D01*
X54026309Y-142803523D01*
X54026309Y-142708285D01*
X53978690Y-142613047D01*
X53883452Y-142565428D01*
X53645357Y-142565428D01*
X53550119Y-142517809D01*
X52645357Y-142946380D02*
X52645357Y-141946380D01*
X52645357Y-142898761D02*
X52740595Y-142946380D01*
X52931071Y-142946380D01*
X53026309Y-142898761D01*
X53073928Y-142851142D01*
X53121547Y-142755904D01*
X53121547Y-142470190D01*
X53073928Y-142374952D01*
X53026309Y-142327333D01*
X52931071Y-142279714D01*
X52740595Y-142279714D01*
X52645357Y-142327333D01*
X52169166Y-142946380D02*
X52169166Y-142279714D01*
X52169166Y-141946380D02*
X52216785Y-141994000D01*
X52169166Y-142041619D01*
X52121547Y-141994000D01*
X52169166Y-141946380D01*
X52169166Y-142041619D01*
X51550119Y-142946380D02*
X51645357Y-142898761D01*
X51692976Y-142851142D01*
X51740595Y-142755904D01*
X51740595Y-142470190D01*
X51692976Y-142374952D01*
X51645357Y-142327333D01*
X51550119Y-142279714D01*
X51407261Y-142279714D01*
X51312023Y-142327333D01*
X51264404Y-142374952D01*
X51216785Y-142470190D01*
X51216785Y-142755904D01*
X51264404Y-142851142D01*
X51312023Y-142898761D01*
X51407261Y-142946380D01*
X51550119Y-142946380D01*
X50073928Y-141898761D02*
X50931071Y-143184476D01*
X101264404Y-144556380D02*
X101264404Y-143556380D01*
X100835833Y-144556380D02*
X100835833Y-144032571D01*
X100883452Y-143937333D01*
X100978690Y-143889714D01*
X101121547Y-143889714D01*
X101216785Y-143937333D01*
X101264404Y-143984952D01*
X100502500Y-143889714D02*
X100121547Y-143889714D01*
X100359642Y-143556380D02*
X100359642Y-144413523D01*
X100312023Y-144508761D01*
X100216785Y-144556380D01*
X100121547Y-144556380D01*
X99931071Y-143889714D02*
X99550119Y-143889714D01*
X99788214Y-143556380D02*
X99788214Y-144413523D01*
X99740595Y-144508761D01*
X99645357Y-144556380D01*
X99550119Y-144556380D01*
X99216785Y-143889714D02*
X99216785Y-144889714D01*
X99216785Y-143937333D02*
X99121547Y-143889714D01*
X98931071Y-143889714D01*
X98835833Y-143937333D01*
X98788214Y-143984952D01*
X98740595Y-144080190D01*
X98740595Y-144365904D01*
X98788214Y-144461142D01*
X98835833Y-144508761D01*
X98931071Y-144556380D01*
X99121547Y-144556380D01*
X99216785Y-144508761D01*
X98359642Y-144508761D02*
X98264404Y-144556380D01*
X98073928Y-144556380D01*
X97978690Y-144508761D01*
X97931071Y-144413523D01*
X97931071Y-144365904D01*
X97978690Y-144270666D01*
X98073928Y-144223047D01*
X98216785Y-144223047D01*
X98312023Y-144175428D01*
X98359642Y-144080190D01*
X98359642Y-144032571D01*
X98312023Y-143937333D01*
X98216785Y-143889714D01*
X98073928Y-143889714D01*
X97978690Y-143937333D01*
X97502500Y-144461142D02*
X97454880Y-144508761D01*
X97502500Y-144556380D01*
X97550119Y-144508761D01*
X97502500Y-144461142D01*
X97502500Y-144556380D01*
X97502500Y-143937333D02*
X97454880Y-143984952D01*
X97502500Y-144032571D01*
X97550119Y-143984952D01*
X97502500Y-143937333D01*
X97502500Y-144032571D01*
X96312023Y-143508761D02*
X97169166Y-144794476D01*
X95264404Y-143508761D02*
X96121547Y-144794476D01*
X95026309Y-143889714D02*
X94835833Y-144556380D01*
X94645357Y-144080190D01*
X94454880Y-144556380D01*
X94264404Y-143889714D01*
X93978690Y-143889714D02*
X93788214Y-144556380D01*
X93597738Y-144080190D01*
X93407261Y-144556380D01*
X93216785Y-143889714D01*
X92931071Y-143889714D02*
X92740595Y-144556380D01*
X92550119Y-144080190D01*
X92359642Y-144556380D01*
X92169166Y-143889714D01*
X91788214Y-144461142D02*
X91740595Y-144508761D01*
X91788214Y-144556380D01*
X91835833Y-144508761D01*
X91788214Y-144461142D01*
X91788214Y-144556380D01*
X91454880Y-143889714D02*
X91073928Y-143889714D01*
X91312023Y-143556380D02*
X91312023Y-144413523D01*
X91264404Y-144508761D01*
X91169166Y-144556380D01*
X91073928Y-144556380D01*
X90835833Y-143889714D02*
X90645357Y-144556380D01*
X90454880Y-144080190D01*
X90264404Y-144556380D01*
X90073928Y-143889714D01*
X89692976Y-144556380D02*
X89692976Y-143889714D01*
X89692976Y-143556380D02*
X89740595Y-143604000D01*
X89692976Y-143651619D01*
X89645357Y-143604000D01*
X89692976Y-143556380D01*
X89692976Y-143651619D01*
X89359642Y-143889714D02*
X88978690Y-143889714D01*
X89216785Y-143556380D02*
X89216785Y-144413523D01*
X89169166Y-144508761D01*
X89073928Y-144556380D01*
X88978690Y-144556380D01*
X88216785Y-144508761D02*
X88312023Y-144556380D01*
X88502500Y-144556380D01*
X88597738Y-144508761D01*
X88645357Y-144461142D01*
X88692976Y-144365904D01*
X88692976Y-144080190D01*
X88645357Y-143984952D01*
X88597738Y-143937333D01*
X88502500Y-143889714D01*
X88312023Y-143889714D01*
X88216785Y-143937333D01*
X87788214Y-144556380D02*
X87788214Y-143556380D01*
X87359642Y-144556380D02*
X87359642Y-144032571D01*
X87407261Y-143937333D01*
X87502500Y-143889714D01*
X87645357Y-143889714D01*
X87740595Y-143937333D01*
X87788214Y-143984952D01*
X86883452Y-144461142D02*
X86835833Y-144508761D01*
X86883452Y-144556380D01*
X86931071Y-144508761D01*
X86883452Y-144461142D01*
X86883452Y-144556380D01*
X86550119Y-143889714D02*
X86169166Y-143889714D01*
X86407261Y-143556380D02*
X86407261Y-144413523D01*
X86359642Y-144508761D01*
X86264404Y-144556380D01*
X86169166Y-144556380D01*
X85931071Y-143889714D02*
X85692976Y-144556380D01*
X85454880Y-143889714D01*
X84359642Y-143508761D02*
X85216785Y-144794476D01*
X84073928Y-144508761D02*
X83978690Y-144556380D01*
X83788214Y-144556380D01*
X83692976Y-144508761D01*
X83645357Y-144413523D01*
X83645357Y-144365904D01*
X83692976Y-144270666D01*
X83788214Y-144223047D01*
X83931071Y-144223047D01*
X84026309Y-144175428D01*
X84073928Y-144080190D01*
X84073928Y-144032571D01*
X84026309Y-143937333D01*
X83931071Y-143889714D01*
X83788214Y-143889714D01*
X83692976Y-143937333D01*
X82788214Y-144508761D02*
X82883452Y-144556380D01*
X83073928Y-144556380D01*
X83169166Y-144508761D01*
X83216785Y-144461142D01*
X83264404Y-144365904D01*
X83264404Y-144080190D01*
X83216785Y-143984952D01*
X83169166Y-143937333D01*
X83073928Y-143889714D01*
X82883452Y-143889714D01*
X82788214Y-143937333D01*
X82359642Y-144556380D02*
X82359642Y-143889714D01*
X82359642Y-144080190D02*
X82312023Y-143984952D01*
X82264404Y-143937333D01*
X82169166Y-143889714D01*
X82073928Y-143889714D01*
X81359642Y-144508761D02*
X81454880Y-144556380D01*
X81645357Y-144556380D01*
X81740595Y-144508761D01*
X81788214Y-144413523D01*
X81788214Y-144032571D01*
X81740595Y-143937333D01*
X81645357Y-143889714D01*
X81454880Y-143889714D01*
X81359642Y-143937333D01*
X81312023Y-144032571D01*
X81312023Y-144127809D01*
X81788214Y-144223047D01*
X80454880Y-144556380D02*
X80454880Y-144032571D01*
X80502500Y-143937333D01*
X80597738Y-143889714D01*
X80788214Y-143889714D01*
X80883452Y-143937333D01*
X80454880Y-144508761D02*
X80550119Y-144556380D01*
X80788214Y-144556380D01*
X80883452Y-144508761D01*
X80931071Y-144413523D01*
X80931071Y-144318285D01*
X80883452Y-144223047D01*
X80788214Y-144175428D01*
X80550119Y-144175428D01*
X80454880Y-144127809D01*
X79978690Y-144556380D02*
X79978690Y-143889714D01*
X79978690Y-143984952D02*
X79931071Y-143937333D01*
X79835833Y-143889714D01*
X79692976Y-143889714D01*
X79597738Y-143937333D01*
X79550119Y-144032571D01*
X79550119Y-144556380D01*
X79550119Y-144032571D02*
X79502500Y-143937333D01*
X79407261Y-143889714D01*
X79264404Y-143889714D01*
X79169166Y-143937333D01*
X79121547Y-144032571D01*
X79121547Y-144556380D01*
X78645357Y-144556380D02*
X78645357Y-143889714D01*
X78645357Y-143556380D02*
X78692976Y-143604000D01*
X78645357Y-143651619D01*
X78597738Y-143604000D01*
X78645357Y-143556380D01*
X78645357Y-143651619D01*
X78169166Y-143889714D02*
X78169166Y-144556380D01*
X78169166Y-143984952D02*
X78121547Y-143937333D01*
X78026309Y-143889714D01*
X77883452Y-143889714D01*
X77788214Y-143937333D01*
X77740595Y-144032571D01*
X77740595Y-144556380D01*
X76835833Y-143889714D02*
X76835833Y-144699238D01*
X76883452Y-144794476D01*
X76931071Y-144842095D01*
X77026309Y-144889714D01*
X77169166Y-144889714D01*
X77264404Y-144842095D01*
X76835833Y-144508761D02*
X76931071Y-144556380D01*
X77121547Y-144556380D01*
X77216785Y-144508761D01*
X77264404Y-144461142D01*
X77312023Y-144365904D01*
X77312023Y-144080190D01*
X77264404Y-143984952D01*
X77216785Y-143937333D01*
X77121547Y-143889714D01*
X76931071Y-143889714D01*
X76835833Y-143937333D01*
X75931071Y-144556380D02*
X75931071Y-144032571D01*
X75978690Y-143937333D01*
X76073928Y-143889714D01*
X76264404Y-143889714D01*
X76359642Y-143937333D01*
X75931071Y-144508761D02*
X76026309Y-144556380D01*
X76264404Y-144556380D01*
X76359642Y-144508761D01*
X76407261Y-144413523D01*
X76407261Y-144318285D01*
X76359642Y-144223047D01*
X76264404Y-144175428D01*
X76026309Y-144175428D01*
X75931071Y-144127809D01*
X75597738Y-143889714D02*
X75216785Y-143889714D01*
X75454880Y-143556380D02*
X75454880Y-144413523D01*
X75407261Y-144508761D01*
X75312023Y-144556380D01*
X75216785Y-144556380D01*
X75026309Y-143889714D02*
X74645357Y-143889714D01*
X74883452Y-143556380D02*
X74883452Y-144413523D01*
X74835833Y-144508761D01*
X74740595Y-144556380D01*
X74645357Y-144556380D01*
X74312023Y-144556380D02*
X74312023Y-143556380D01*
X73883452Y-144556380D02*
X73883452Y-144032571D01*
X73931071Y-143937333D01*
X74026309Y-143889714D01*
X74169166Y-143889714D01*
X74264404Y-143937333D01*
X74312023Y-143984952D01*
X73026309Y-144508761D02*
X73121547Y-144556380D01*
X73312023Y-144556380D01*
X73407261Y-144508761D01*
X73454880Y-144413523D01*
X73454880Y-144032571D01*
X73407261Y-143937333D01*
X73312023Y-143889714D01*
X73121547Y-143889714D01*
X73026309Y-143937333D01*
X72978690Y-144032571D01*
X72978690Y-144127809D01*
X73454880Y-144223047D01*
X72550119Y-144556380D02*
X72550119Y-143889714D01*
X72550119Y-144080190D02*
X72502500Y-143984952D01*
X72454880Y-143937333D01*
X72359642Y-143889714D01*
X72264404Y-143889714D01*
X71502500Y-144556380D02*
X71502500Y-144032571D01*
X71550119Y-143937333D01*
X71645357Y-143889714D01*
X71835833Y-143889714D01*
X71931071Y-143937333D01*
X71502500Y-144508761D02*
X71597738Y-144556380D01*
X71835833Y-144556380D01*
X71931071Y-144508761D01*
X71978690Y-144413523D01*
X71978690Y-144318285D01*
X71931071Y-144223047D01*
X71835833Y-144175428D01*
X71597738Y-144175428D01*
X71502500Y-144127809D01*
X70597738Y-144556380D02*
X70597738Y-143556380D01*
X70597738Y-144508761D02*
X70692976Y-144556380D01*
X70883452Y-144556380D01*
X70978690Y-144508761D01*
X71026309Y-144461142D01*
X71073928Y-144365904D01*
X71073928Y-144080190D01*
X71026309Y-143984952D01*
X70978690Y-143937333D01*
X70883452Y-143889714D01*
X70692976Y-143889714D01*
X70597738Y-143937333D01*
X70121547Y-144556380D02*
X70121547Y-143889714D01*
X70121547Y-143556380D02*
X70169166Y-143604000D01*
X70121547Y-143651619D01*
X70073928Y-143604000D01*
X70121547Y-143556380D01*
X70121547Y-143651619D01*
X69502500Y-144556380D02*
X69597738Y-144508761D01*
X69645357Y-144461142D01*
X69692976Y-144365904D01*
X69692976Y-144080190D01*
X69645357Y-143984952D01*
X69597738Y-143937333D01*
X69502500Y-143889714D01*
X69359642Y-143889714D01*
X69264404Y-143937333D01*
X69216785Y-143984952D01*
X69169166Y-144080190D01*
X69169166Y-144365904D01*
X69216785Y-144461142D01*
X69264404Y-144508761D01*
X69359642Y-144556380D01*
X69502500Y-144556380D01*
X101264404Y-146166380D02*
X101264404Y-145166380D01*
X100835833Y-146166380D02*
X100835833Y-145642571D01*
X100883452Y-145547333D01*
X100978690Y-145499714D01*
X101121547Y-145499714D01*
X101216785Y-145547333D01*
X101264404Y-145594952D01*
X100502500Y-145499714D02*
X100121547Y-145499714D01*
X100359642Y-145166380D02*
X100359642Y-146023523D01*
X100312023Y-146118761D01*
X100216785Y-146166380D01*
X100121547Y-146166380D01*
X99931071Y-145499714D02*
X99550119Y-145499714D01*
X99788214Y-145166380D02*
X99788214Y-146023523D01*
X99740595Y-146118761D01*
X99645357Y-146166380D01*
X99550119Y-146166380D01*
X99216785Y-145499714D02*
X99216785Y-146499714D01*
X99216785Y-145547333D02*
X99121547Y-145499714D01*
X98931071Y-145499714D01*
X98835833Y-145547333D01*
X98788214Y-145594952D01*
X98740595Y-145690190D01*
X98740595Y-145975904D01*
X98788214Y-146071142D01*
X98835833Y-146118761D01*
X98931071Y-146166380D01*
X99121547Y-146166380D01*
X99216785Y-146118761D01*
X98359642Y-146118761D02*
X98264404Y-146166380D01*
X98073928Y-146166380D01*
X97978690Y-146118761D01*
X97931071Y-146023523D01*
X97931071Y-145975904D01*
X97978690Y-145880666D01*
X98073928Y-145833047D01*
X98216785Y-145833047D01*
X98312023Y-145785428D01*
X98359642Y-145690190D01*
X98359642Y-145642571D01*
X98312023Y-145547333D01*
X98216785Y-145499714D01*
X98073928Y-145499714D01*
X97978690Y-145547333D01*
X97502500Y-146071142D02*
X97454880Y-146118761D01*
X97502500Y-146166380D01*
X97550119Y-146118761D01*
X97502500Y-146071142D01*
X97502500Y-146166380D01*
X97502500Y-145547333D02*
X97454880Y-145594952D01*
X97502500Y-145642571D01*
X97550119Y-145594952D01*
X97502500Y-145547333D01*
X97502500Y-145642571D01*
X96312023Y-145118761D02*
X97169166Y-146404476D01*
X95264404Y-145118761D02*
X96121547Y-146404476D01*
X95026309Y-145499714D02*
X94835833Y-146166380D01*
X94645357Y-145690190D01*
X94454880Y-146166380D01*
X94264404Y-145499714D01*
X93978690Y-145499714D02*
X93788214Y-146166380D01*
X93597738Y-145690190D01*
X93407261Y-146166380D01*
X93216785Y-145499714D01*
X92931071Y-145499714D02*
X92740595Y-146166380D01*
X92550119Y-145690190D01*
X92359642Y-146166380D01*
X92169166Y-145499714D01*
X91788214Y-146071142D02*
X91740595Y-146118761D01*
X91788214Y-146166380D01*
X91835833Y-146118761D01*
X91788214Y-146071142D01*
X91788214Y-146166380D01*
X91407261Y-145499714D02*
X91169166Y-146166380D01*
X90931071Y-145499714D02*
X91169166Y-146166380D01*
X91264404Y-146404476D01*
X91312023Y-146452095D01*
X91407261Y-146499714D01*
X90407261Y-146166380D02*
X90502500Y-146118761D01*
X90550119Y-146071142D01*
X90597738Y-145975904D01*
X90597738Y-145690190D01*
X90550119Y-145594952D01*
X90502500Y-145547333D01*
X90407261Y-145499714D01*
X90264404Y-145499714D01*
X90169166Y-145547333D01*
X90121547Y-145594952D01*
X90073928Y-145690190D01*
X90073928Y-145975904D01*
X90121547Y-146071142D01*
X90169166Y-146118761D01*
X90264404Y-146166380D01*
X90407261Y-146166380D01*
X89216785Y-145499714D02*
X89216785Y-146166380D01*
X89645357Y-145499714D02*
X89645357Y-146023523D01*
X89597738Y-146118761D01*
X89502500Y-146166380D01*
X89359642Y-146166380D01*
X89264404Y-146118761D01*
X89216785Y-146071142D01*
X88883452Y-145499714D02*
X88502500Y-145499714D01*
X88740595Y-145166380D02*
X88740595Y-146023523D01*
X88692976Y-146118761D01*
X88597738Y-146166380D01*
X88502500Y-146166380D01*
X87740595Y-145499714D02*
X87740595Y-146166380D01*
X88169166Y-145499714D02*
X88169166Y-146023523D01*
X88121547Y-146118761D01*
X88026309Y-146166380D01*
X87883452Y-146166380D01*
X87788214Y-146118761D01*
X87740595Y-146071142D01*
X87264404Y-146166380D02*
X87264404Y-145166380D01*
X87264404Y-145547333D02*
X87169166Y-145499714D01*
X86978690Y-145499714D01*
X86883452Y-145547333D01*
X86835833Y-145594952D01*
X86788214Y-145690190D01*
X86788214Y-145975904D01*
X86835833Y-146071142D01*
X86883452Y-146118761D01*
X86978690Y-146166380D01*
X87169166Y-146166380D01*
X87264404Y-146118761D01*
X85978690Y-146118761D02*
X86073928Y-146166380D01*
X86264404Y-146166380D01*
X86359642Y-146118761D01*
X86407261Y-146023523D01*
X86407261Y-145642571D01*
X86359642Y-145547333D01*
X86264404Y-145499714D01*
X86073928Y-145499714D01*
X85978690Y-145547333D01*
X85931071Y-145642571D01*
X85931071Y-145737809D01*
X86407261Y-145833047D01*
X85502500Y-146071142D02*
X85454880Y-146118761D01*
X85502500Y-146166380D01*
X85550119Y-146118761D01*
X85502500Y-146071142D01*
X85502500Y-146166380D01*
X84597738Y-146118761D02*
X84692976Y-146166380D01*
X84883452Y-146166380D01*
X84978690Y-146118761D01*
X85026309Y-146071142D01*
X85073928Y-145975904D01*
X85073928Y-145690190D01*
X85026309Y-145594952D01*
X84978690Y-145547333D01*
X84883452Y-145499714D01*
X84692976Y-145499714D01*
X84597738Y-145547333D01*
X84026309Y-146166380D02*
X84121547Y-146118761D01*
X84169166Y-146071142D01*
X84216785Y-145975904D01*
X84216785Y-145690190D01*
X84169166Y-145594952D01*
X84121547Y-145547333D01*
X84026309Y-145499714D01*
X83883452Y-145499714D01*
X83788214Y-145547333D01*
X83740595Y-145594952D01*
X83692976Y-145690190D01*
X83692976Y-145975904D01*
X83740595Y-146071142D01*
X83788214Y-146118761D01*
X83883452Y-146166380D01*
X84026309Y-146166380D01*
X83264404Y-146166380D02*
X83264404Y-145499714D01*
X83264404Y-145594952D02*
X83216785Y-145547333D01*
X83121547Y-145499714D01*
X82978690Y-145499714D01*
X82883452Y-145547333D01*
X82835833Y-145642571D01*
X82835833Y-146166380D01*
X82835833Y-145642571D02*
X82788214Y-145547333D01*
X82692976Y-145499714D01*
X82550119Y-145499714D01*
X82454880Y-145547333D01*
X82407261Y-145642571D01*
X82407261Y-146166380D01*
X81216785Y-145118761D02*
X82073928Y-146404476D01*
X80264404Y-145690190D02*
X80312023Y-145642571D01*
X80407261Y-145594952D01*
X80502500Y-145594952D01*
X80597738Y-145642571D01*
X80645357Y-145690190D01*
X80692976Y-145785428D01*
X80692976Y-145880666D01*
X80645357Y-145975904D01*
X80597738Y-146023523D01*
X80502500Y-146071142D01*
X80407261Y-146071142D01*
X80312023Y-146023523D01*
X80264404Y-145975904D01*
X80264404Y-145594952D02*
X80264404Y-145975904D01*
X80216785Y-146023523D01*
X80169166Y-146023523D01*
X80073928Y-145975904D01*
X80026309Y-145880666D01*
X80026309Y-145642571D01*
X80121547Y-145499714D01*
X80264404Y-145404476D01*
X80454880Y-145356857D01*
X80645357Y-145404476D01*
X80788214Y-145499714D01*
X80883452Y-145642571D01*
X80931071Y-145833047D01*
X80883452Y-146023523D01*
X80788214Y-146166380D01*
X80645357Y-146261619D01*
X80454880Y-146309238D01*
X80264404Y-146261619D01*
X80121547Y-146166380D01*
X79645357Y-146118761D02*
X79502500Y-146166380D01*
X79264404Y-146166380D01*
X79169166Y-146118761D01*
X79121547Y-146071142D01*
X79073928Y-145975904D01*
X79073928Y-145880666D01*
X79121547Y-145785428D01*
X79169166Y-145737809D01*
X79264404Y-145690190D01*
X79454880Y-145642571D01*
X79550119Y-145594952D01*
X79597738Y-145547333D01*
X79645357Y-145452095D01*
X79645357Y-145356857D01*
X79597738Y-145261619D01*
X79550119Y-145214000D01*
X79454880Y-145166380D01*
X79216785Y-145166380D01*
X79073928Y-145214000D01*
X78216785Y-146118761D02*
X78312023Y-146166380D01*
X78502500Y-146166380D01*
X78597738Y-146118761D01*
X78645357Y-146071142D01*
X78692976Y-145975904D01*
X78692976Y-145690190D01*
X78645357Y-145594952D01*
X78597738Y-145547333D01*
X78502500Y-145499714D01*
X78312023Y-145499714D01*
X78216785Y-145547333D01*
X77788214Y-146166380D02*
X77788214Y-145499714D01*
X77788214Y-145690190D02*
X77740595Y-145594952D01*
X77692976Y-145547333D01*
X77597738Y-145499714D01*
X77502500Y-145499714D01*
X76788214Y-146118761D02*
X76883452Y-146166380D01*
X77073928Y-146166380D01*
X77169166Y-146118761D01*
X77216785Y-146023523D01*
X77216785Y-145642571D01*
X77169166Y-145547333D01*
X77073928Y-145499714D01*
X76883452Y-145499714D01*
X76788214Y-145547333D01*
X76740595Y-145642571D01*
X76740595Y-145737809D01*
X77216785Y-145833047D01*
X75883452Y-146166380D02*
X75883452Y-145642571D01*
X75931071Y-145547333D01*
X76026309Y-145499714D01*
X76216785Y-145499714D01*
X76312023Y-145547333D01*
X75883452Y-146118761D02*
X75978690Y-146166380D01*
X76216785Y-146166380D01*
X76312023Y-146118761D01*
X76359642Y-146023523D01*
X76359642Y-145928285D01*
X76312023Y-145833047D01*
X76216785Y-145785428D01*
X75978690Y-145785428D01*
X75883452Y-145737809D01*
X75407261Y-146166380D02*
X75407261Y-145499714D01*
X75407261Y-145594952D02*
X75359642Y-145547333D01*
X75264404Y-145499714D01*
X75121547Y-145499714D01*
X75026309Y-145547333D01*
X74978690Y-145642571D01*
X74978690Y-146166380D01*
X74978690Y-145642571D02*
X74931071Y-145547333D01*
X74835833Y-145499714D01*
X74692976Y-145499714D01*
X74597738Y-145547333D01*
X74550119Y-145642571D01*
X74550119Y-146166380D01*
X74073928Y-146166380D02*
X74073928Y-145499714D01*
X74073928Y-145166380D02*
X74121547Y-145214000D01*
X74073928Y-145261619D01*
X74026309Y-145214000D01*
X74073928Y-145166380D01*
X74073928Y-145261619D01*
X73597738Y-145499714D02*
X73597738Y-146166380D01*
X73597738Y-145594952D02*
X73550119Y-145547333D01*
X73454880Y-145499714D01*
X73312023Y-145499714D01*
X73216785Y-145547333D01*
X73169166Y-145642571D01*
X73169166Y-146166380D01*
X72264404Y-145499714D02*
X72264404Y-146309238D01*
X72312023Y-146404476D01*
X72359642Y-146452095D01*
X72454880Y-146499714D01*
X72597738Y-146499714D01*
X72692976Y-146452095D01*
X72264404Y-146118761D02*
X72359642Y-146166380D01*
X72550119Y-146166380D01*
X72645357Y-146118761D01*
X72692976Y-146071142D01*
X72740595Y-145975904D01*
X72740595Y-145690190D01*
X72692976Y-145594952D01*
X72645357Y-145547333D01*
X72550119Y-145499714D01*
X72359642Y-145499714D01*
X72264404Y-145547333D01*
X71835833Y-145880666D02*
X71359642Y-145880666D01*
X71931071Y-146166380D02*
X71597738Y-145166380D01*
X71264404Y-146166380D01*
X71073928Y-145499714D02*
X70692976Y-145499714D01*
X70931071Y-145166380D02*
X70931071Y-146023523D01*
X70883452Y-146118761D01*
X70788214Y-146166380D01*
X70692976Y-146166380D01*
X70502500Y-145166380D02*
X69931071Y-145166380D01*
X70216785Y-146166380D02*
X70216785Y-145166380D01*
X69597738Y-146166380D02*
X69597738Y-145166380D01*
X69169166Y-146166380D02*
X69169166Y-145642571D01*
X69216785Y-145547333D01*
X69312023Y-145499714D01*
X69454880Y-145499714D01*
X69550119Y-145547333D01*
X69597738Y-145594952D01*
X68312023Y-146118761D02*
X68407261Y-146166380D01*
X68597738Y-146166380D01*
X68692976Y-146118761D01*
X68740595Y-146023523D01*
X68740595Y-145642571D01*
X68692976Y-145547333D01*
X68597738Y-145499714D01*
X68407261Y-145499714D01*
X68312023Y-145547333D01*
X68264404Y-145642571D01*
X68264404Y-145737809D01*
X68740595Y-145833047D01*
X67264404Y-146166380D02*
X67597738Y-145690190D01*
X67835833Y-146166380D02*
X67835833Y-145166380D01*
X67454880Y-145166380D01*
X67359642Y-145214000D01*
X67312023Y-145261619D01*
X67264404Y-145356857D01*
X67264404Y-145499714D01*
X67312023Y-145594952D01*
X67359642Y-145642571D01*
X67454880Y-145690190D01*
X67835833Y-145690190D01*
X66407261Y-146166380D02*
X66407261Y-145642571D01*
X66454880Y-145547333D01*
X66550119Y-145499714D01*
X66740595Y-145499714D01*
X66835833Y-145547333D01*
X66407261Y-146118761D02*
X66502500Y-146166380D01*
X66740595Y-146166380D01*
X66835833Y-146118761D01*
X66883452Y-146023523D01*
X66883452Y-145928285D01*
X66835833Y-145833047D01*
X66740595Y-145785428D01*
X66502500Y-145785428D01*
X66407261Y-145737809D01*
X65502500Y-146166380D02*
X65502500Y-145166380D01*
X65502500Y-146118761D02*
X65597738Y-146166380D01*
X65788214Y-146166380D01*
X65883452Y-146118761D01*
X65931071Y-146071142D01*
X65978690Y-145975904D01*
X65978690Y-145690190D01*
X65931071Y-145594952D01*
X65883452Y-145547333D01*
X65788214Y-145499714D01*
X65597738Y-145499714D01*
X65502500Y-145547333D01*
X65026309Y-146166380D02*
X65026309Y-145499714D01*
X65026309Y-145166380D02*
X65073928Y-145214000D01*
X65026309Y-145261619D01*
X64978690Y-145214000D01*
X65026309Y-145166380D01*
X65026309Y-145261619D01*
X64407261Y-146166380D02*
X64502500Y-146118761D01*
X64550119Y-146071142D01*
X64597738Y-145975904D01*
X64597738Y-145690190D01*
X64550119Y-145594952D01*
X64502500Y-145547333D01*
X64407261Y-145499714D01*
X64264404Y-145499714D01*
X64169166Y-145547333D01*
X64121547Y-145594952D01*
X64073928Y-145690190D01*
X64073928Y-145975904D01*
X64121547Y-146071142D01*
X64169166Y-146118761D01*
X64264404Y-146166380D01*
X64407261Y-146166380D01*
D11*
G36*
X336305000Y-52805000D02*
G01*
X335035000Y-52805000D01*
X335670000Y-51535000D01*
X336305000Y-52805000D01*
G37*
X336305000Y-52805000D02*
X335035000Y-52805000D01*
X335670000Y-51535000D01*
X336305000Y-52805000D01*
D10*
X335384285Y-54527380D02*
X335955714Y-54527380D01*
X335670000Y-54527380D02*
X335670000Y-53527380D01*
X335765238Y-53670238D01*
X335860476Y-53765476D01*
X335955714Y-53813095D01*
X330330380Y-44168666D02*
X331044666Y-44168666D01*
X331187523Y-44121047D01*
X331282761Y-44025809D01*
X331330380Y-43882952D01*
X331330380Y-43787714D01*
X331330380Y-45168666D02*
X331330380Y-44597238D01*
X331330380Y-44882952D02*
X330330380Y-44882952D01*
X330473238Y-44787714D01*
X330568476Y-44692476D01*
X330616095Y-44597238D01*
X326358285Y-46172380D02*
X326929714Y-46172380D01*
X326644000Y-46172380D02*
X326644000Y-45172380D01*
X326739238Y-45315238D01*
X326834476Y-45410476D01*
X326929714Y-45458095D01*
X311141333Y-50304380D02*
X311141333Y-51018666D01*
X311188952Y-51161523D01*
X311284190Y-51256761D01*
X311427047Y-51304380D01*
X311522285Y-51304380D01*
X310712761Y-50399619D02*
X310665142Y-50352000D01*
X310569904Y-50304380D01*
X310331809Y-50304380D01*
X310236571Y-50352000D01*
X310188952Y-50399619D01*
X310141333Y-50494857D01*
X310141333Y-50590095D01*
X310188952Y-50732952D01*
X310760380Y-51304380D01*
X310141333Y-51304380D01*
G36*
X332142774Y-26117061D02*
G01*
X332346871Y-26158563D01*
X332690011Y-26230701D01*
X333157508Y-26330320D01*
X333734676Y-26454262D01*
X334406829Y-26599373D01*
X335159280Y-26762497D01*
X335977344Y-26940478D01*
X336846333Y-27130161D01*
X337116215Y-27189180D01*
X338082940Y-27401025D01*
X338899778Y-27581140D01*
X339579206Y-27732725D01*
X340133698Y-27858976D01*
X340575732Y-27963092D01*
X340917782Y-28048271D01*
X341172325Y-28117710D01*
X341351837Y-28174608D01*
X341468793Y-28222163D01*
X341535669Y-28263572D01*
X341564942Y-28302033D01*
X341569086Y-28340745D01*
X341567147Y-28353560D01*
X341537714Y-28503822D01*
X341475951Y-28801423D01*
X341384961Y-29231887D01*
X341267850Y-29780740D01*
X341127724Y-30433507D01*
X340967688Y-31175711D01*
X340790846Y-31992880D01*
X340600306Y-32870536D01*
X340399170Y-33794207D01*
X340244469Y-34505033D01*
X339916645Y-36023488D01*
X339620219Y-37417186D01*
X339349828Y-38713952D01*
X339100108Y-39941609D01*
X338865697Y-41127980D01*
X338641232Y-42300889D01*
X338421349Y-43488160D01*
X338200687Y-44717616D01*
X337973882Y-46017081D01*
X337735571Y-47414379D01*
X337480392Y-48937333D01*
X337344166Y-49762335D01*
X336828585Y-53017898D01*
X336369075Y-56154737D01*
X335962023Y-59204463D01*
X335603818Y-62198682D01*
X335290846Y-65169004D01*
X335019496Y-68147037D01*
X334786155Y-71164388D01*
X334587211Y-74252667D01*
X334585702Y-74278818D01*
X334558858Y-74858634D01*
X334535859Y-75574443D01*
X334516707Y-76404440D01*
X334501400Y-77326818D01*
X334489940Y-78319771D01*
X334482328Y-79361495D01*
X334478562Y-80430182D01*
X334478645Y-81504027D01*
X334482575Y-82561225D01*
X334490354Y-83579968D01*
X334501982Y-84538451D01*
X334517459Y-85414868D01*
X334536786Y-86187414D01*
X334559963Y-86834282D01*
X334586990Y-87333667D01*
X334621853Y-87820428D01*
X334891492Y-90812584D01*
X335252000Y-93700133D01*
X335709994Y-96520080D01*
X336272088Y-99309426D01*
X336944897Y-102105176D01*
X337735034Y-104944333D01*
X338603049Y-107673852D01*
X339736653Y-110769509D01*
X341003859Y-113787284D01*
X342400310Y-116719115D01*
X343921650Y-119556937D01*
X345563521Y-122292688D01*
X347321567Y-124918304D01*
X349191431Y-127425721D01*
X351168757Y-129806876D01*
X351959333Y-130708753D01*
X351959333Y-152569333D01*
X348039773Y-152569333D01*
X347650053Y-152253275D01*
X346453158Y-151263244D01*
X344292135Y-149370877D01*
X342250419Y-147442253D01*
X340340384Y-145489755D01*
X338574410Y-143525765D01*
X336964870Y-141562667D01*
X336484539Y-140939874D01*
X335667514Y-139853416D01*
X334821554Y-138698278D01*
X333966379Y-137502773D01*
X333121706Y-136295214D01*
X332307255Y-135103911D01*
X331542745Y-133957178D01*
X330847895Y-132883326D01*
X330242422Y-131910667D01*
X329120371Y-130002662D01*
X327661810Y-127316789D01*
X326335567Y-124619412D01*
X325148883Y-121926307D01*
X324108997Y-119253251D01*
X323223150Y-116616020D01*
X323127923Y-116303477D01*
X322573612Y-114321249D01*
X322062763Y-112211393D01*
X321601254Y-110006271D01*
X321194959Y-107738244D01*
X320849754Y-105439671D01*
X320571515Y-103142914D01*
X320366117Y-100880333D01*
X320362182Y-100827053D01*
X320291755Y-99538737D01*
X320256748Y-98108525D01*
X320256698Y-96559007D01*
X320291143Y-94912773D01*
X320359620Y-93192411D01*
X320461666Y-91420513D01*
X320596818Y-89619667D01*
X320736912Y-88050970D01*
X320968215Y-85761537D01*
X321241450Y-83339894D01*
X321553948Y-80803772D01*
X321903041Y-78170904D01*
X322286060Y-75459022D01*
X322700338Y-72685859D01*
X323143206Y-69869148D01*
X323611995Y-67026621D01*
X324104037Y-64176009D01*
X324616664Y-61335047D01*
X325147208Y-58521467D01*
X325692999Y-55753000D01*
X325932024Y-54567667D01*
X327914000Y-54519959D01*
X327914000Y-45201372D01*
X329993990Y-35661919D01*
X330123666Y-35067293D01*
X330390057Y-33846473D01*
X330645354Y-32677424D01*
X330887291Y-31570480D01*
X331113601Y-30535977D01*
X331322018Y-29584249D01*
X331510273Y-28725632D01*
X331676101Y-27970462D01*
X331817235Y-27329072D01*
X331931408Y-26811798D01*
X332016352Y-26428974D01*
X332069802Y-26190937D01*
X332089490Y-26108021D01*
X332142774Y-26117061D01*
G37*
G36*
X313796894Y-54525540D02*
G01*
X315353673Y-54527122D01*
X316751452Y-54530252D01*
X317989084Y-54534919D01*
X319065422Y-54541114D01*
X319979317Y-54548825D01*
X320729623Y-54558042D01*
X321315192Y-54568754D01*
X321734876Y-54580950D01*
X321987528Y-54594621D01*
X322072000Y-54609755D01*
X322070654Y-54617715D01*
X322043189Y-54750173D01*
X321981316Y-55040341D01*
X321886355Y-55482149D01*
X321759626Y-56069526D01*
X321602449Y-56796401D01*
X321416141Y-57656702D01*
X321202024Y-58644358D01*
X320961415Y-59753297D01*
X320695635Y-60977450D01*
X320406003Y-62310743D01*
X320093839Y-63747107D01*
X319760461Y-65280469D01*
X319407189Y-66904759D01*
X319035343Y-68613905D01*
X318646241Y-70401837D01*
X318241204Y-72262482D01*
X317821551Y-74189769D01*
X317388601Y-76177629D01*
X316943673Y-78219988D01*
X316488086Y-80310776D01*
X316023161Y-82443922D01*
X315821498Y-83369095D01*
X315328584Y-85630619D01*
X314833187Y-87903771D01*
X314337336Y-90179229D01*
X313843062Y-92447676D01*
X313352392Y-94699790D01*
X312867357Y-96926253D01*
X312389987Y-99117745D01*
X311922310Y-101264946D01*
X311466356Y-103358536D01*
X311024154Y-105389197D01*
X310597733Y-107347607D01*
X310189124Y-109224449D01*
X309800356Y-111010402D01*
X309433457Y-112696146D01*
X309090458Y-114272362D01*
X308773387Y-115729730D01*
X308484274Y-117058931D01*
X308225149Y-118250645D01*
X307998041Y-119295552D01*
X307804979Y-120184333D01*
X307294732Y-122532774D01*
X306683222Y-125343054D01*
X306104578Y-127997297D01*
X305557617Y-130500873D01*
X305041157Y-132859155D01*
X304554018Y-135077515D01*
X304095016Y-137161324D01*
X303662971Y-139115956D01*
X303256701Y-140946781D01*
X302875023Y-142659171D01*
X302516756Y-144258499D01*
X302180718Y-145750137D01*
X302140215Y-145929436D01*
X301959127Y-146732785D01*
X301790678Y-147482777D01*
X301638414Y-148163445D01*
X301505882Y-148758819D01*
X301396628Y-149252931D01*
X301314199Y-149629813D01*
X301262141Y-149873495D01*
X301244000Y-149968009D01*
X301218660Y-150000849D01*
X301095833Y-149995633D01*
X301058487Y-149985517D01*
X300857733Y-149937201D01*
X300510890Y-149857304D01*
X300031640Y-149748841D01*
X299433669Y-149614827D01*
X298730661Y-149458276D01*
X297936299Y-149282202D01*
X297064269Y-149089621D01*
X296128254Y-148883547D01*
X295141939Y-148666995D01*
X294119009Y-148442978D01*
X293073148Y-148214512D01*
X292018039Y-147984612D01*
X290967367Y-147756292D01*
X289934818Y-147532566D01*
X288934074Y-147316449D01*
X288854158Y-147299219D01*
X287957427Y-147105437D01*
X287111984Y-146921935D01*
X286332112Y-146751868D01*
X285632099Y-146598387D01*
X285026228Y-146464645D01*
X284528786Y-146353793D01*
X284154059Y-146268985D01*
X283916330Y-146213372D01*
X283829886Y-146190108D01*
X283833114Y-146171361D01*
X283865897Y-146012590D01*
X283932921Y-145696811D01*
X284032932Y-145229769D01*
X284164681Y-144617211D01*
X284326918Y-143864883D01*
X284518390Y-142978532D01*
X284737847Y-141963905D01*
X284984040Y-140826746D01*
X285255715Y-139572803D01*
X285551624Y-138207823D01*
X285870516Y-136737550D01*
X286211138Y-135167733D01*
X286572242Y-133504116D01*
X286952575Y-131752447D01*
X287350887Y-129918472D01*
X287765928Y-128007937D01*
X288196446Y-126026588D01*
X288641191Y-123980172D01*
X289098912Y-121874435D01*
X289568359Y-119715123D01*
X290048279Y-117507984D01*
X290537424Y-115258762D01*
X291034541Y-112973205D01*
X291538381Y-110657059D01*
X292047692Y-108316070D01*
X292561223Y-105955984D01*
X293077724Y-103582548D01*
X293595944Y-101201509D01*
X294114633Y-98818612D01*
X294632539Y-96439604D01*
X295148411Y-94070231D01*
X295661000Y-91716239D01*
X296169053Y-89383376D01*
X296671321Y-87077386D01*
X297166553Y-84804018D01*
X297653497Y-82569016D01*
X298130903Y-80378127D01*
X298597521Y-78237098D01*
X299052099Y-76151675D01*
X299493387Y-74127604D01*
X299920133Y-72170632D01*
X300331088Y-70286504D01*
X300725000Y-68480968D01*
X301100619Y-66759770D01*
X301456693Y-65128656D01*
X301791973Y-63593372D01*
X302105207Y-62159664D01*
X302395144Y-60833280D01*
X302660534Y-59619964D01*
X302900125Y-58525465D01*
X303112668Y-57555527D01*
X303296912Y-56715898D01*
X303451604Y-56012324D01*
X303575496Y-55450550D01*
X303667336Y-55036324D01*
X303725873Y-54775392D01*
X303749856Y-54673500D01*
X303763050Y-54650985D01*
X303795345Y-54630077D01*
X303855852Y-54611619D01*
X303953978Y-54595457D01*
X304099132Y-54581441D01*
X304300722Y-54569418D01*
X304568157Y-54559237D01*
X304910843Y-54550746D01*
X305338190Y-54543794D01*
X305859605Y-54538227D01*
X306484496Y-54533896D01*
X307222272Y-54530647D01*
X308082341Y-54528329D01*
X309074111Y-54526791D01*
X310206989Y-54525880D01*
X311490385Y-54525445D01*
X312933706Y-54525333D01*
X313796894Y-54525540D01*
G37*
G36*
X173016024Y-138091333D02*
G01*
X49402690Y-138091333D01*
X40724667Y-129413000D01*
X37295789Y-125984000D01*
X61552667Y-125984000D01*
X66124667Y-125984000D01*
X66124667Y-128016000D01*
X61806667Y-128016000D01*
X61806667Y-130217333D01*
X66124667Y-130217333D01*
X66124667Y-132754567D01*
X61596601Y-132799667D01*
X61594137Y-133879167D01*
X61591672Y-134958667D01*
X64472003Y-134950162D01*
X64958231Y-134947681D01*
X65628321Y-134940760D01*
X66241111Y-134930418D01*
X66567200Y-134922357D01*
X70104000Y-134922357D01*
X70124410Y-134927674D01*
X70280305Y-134937607D01*
X70569667Y-134946132D01*
X70968538Y-134952789D01*
X71452957Y-134957121D01*
X71998965Y-134958667D01*
X73893930Y-134958667D01*
X74936639Y-133307407D01*
X75049581Y-133129138D01*
X75400048Y-132586068D01*
X75672680Y-132182317D01*
X75871971Y-131911680D01*
X76002415Y-131767954D01*
X76068507Y-131744935D01*
X76089166Y-131770442D01*
X76195216Y-131921091D01*
X76371738Y-132182900D01*
X76604256Y-132534076D01*
X76878297Y-132952827D01*
X77179384Y-133417361D01*
X78201102Y-135001000D01*
X80083681Y-135023798D01*
X81966261Y-135046597D01*
X80124535Y-132314465D01*
X80061201Y-132220524D01*
X79645143Y-131604016D01*
X79252023Y-131022516D01*
X78893773Y-130493604D01*
X78582327Y-130034860D01*
X78329616Y-129663865D01*
X78147574Y-129398197D01*
X78048134Y-129255438D01*
X77813460Y-128928543D01*
X78081397Y-128535771D01*
X78102084Y-128505480D01*
X78292693Y-128228125D01*
X78549919Y-127855939D01*
X78857457Y-127412327D01*
X79199000Y-126920687D01*
X79558243Y-126404422D01*
X79851232Y-125984000D01*
X87968667Y-125984000D01*
X90000667Y-125984000D01*
X90000667Y-134958667D01*
X92371333Y-134958667D01*
X92371333Y-128868233D01*
X96266000Y-128868233D01*
X96266453Y-129640523D01*
X96269061Y-130726102D01*
X96274086Y-131652623D01*
X96281639Y-132426369D01*
X96291833Y-133053625D01*
X96304779Y-133540672D01*
X96320589Y-133893795D01*
X96339374Y-134119276D01*
X96361247Y-134223399D01*
X96461739Y-134388425D01*
X96729527Y-134695810D01*
X97028000Y-134914366D01*
X97072936Y-134936047D01*
X97436958Y-135044361D01*
X97464097Y-135046597D01*
X97837302Y-135077345D01*
X98184912Y-135026378D01*
X98260194Y-134999472D01*
X98409387Y-134927908D01*
X98553728Y-134824669D01*
X98701654Y-134676196D01*
X98861599Y-134468930D01*
X99041999Y-134189316D01*
X99251290Y-133823793D01*
X99497909Y-133358805D01*
X99790289Y-132780793D01*
X100136868Y-132076200D01*
X100546080Y-131231467D01*
X100668064Y-130978793D01*
X100987233Y-130320341D01*
X101282588Y-129714781D01*
X101545897Y-129178749D01*
X101768931Y-128728878D01*
X101943460Y-128381802D01*
X102061252Y-128154153D01*
X102114077Y-128062566D01*
X102133394Y-128122009D01*
X102150620Y-128341213D01*
X102165190Y-128711227D01*
X102176892Y-129222719D01*
X102185514Y-129866356D01*
X102190843Y-130632805D01*
X102192667Y-131512733D01*
X102192667Y-135043333D01*
X104478667Y-135043333D01*
X113622667Y-135043333D01*
X114363500Y-135032232D01*
X114596922Y-135026736D01*
X115538376Y-134954871D01*
X116360955Y-134800480D01*
X117091673Y-134557085D01*
X117757542Y-134218208D01*
X118422367Y-133758234D01*
X119135606Y-133092187D01*
X119707925Y-132334525D01*
X120135784Y-131491153D01*
X120415642Y-130567978D01*
X120543957Y-129570903D01*
X120527396Y-128714906D01*
X120362112Y-127780992D01*
X120045803Y-126914630D01*
X119584348Y-126125602D01*
X119463160Y-125984000D01*
X122258667Y-125984000D01*
X125645333Y-125984000D01*
X125645333Y-128016000D01*
X122512667Y-128016000D01*
X122512667Y-130217333D01*
X125645333Y-130217333D01*
X125645333Y-132757333D01*
X122343333Y-132757333D01*
X122343333Y-134958667D01*
X124438833Y-134954950D01*
X125065087Y-134951881D01*
X125660595Y-134942999D01*
X126120789Y-134927541D01*
X126464020Y-134904582D01*
X126708640Y-134873201D01*
X126873000Y-134832473D01*
X127136673Y-134698436D01*
X127476691Y-134408390D01*
X127753817Y-134041888D01*
X127921129Y-133651785D01*
X127937012Y-133549383D01*
X127958214Y-133268710D01*
X127976265Y-132854770D01*
X127991161Y-132329175D01*
X128002899Y-131713537D01*
X128011475Y-131029469D01*
X128016885Y-130298583D01*
X128019125Y-129542490D01*
X128018866Y-129331030D01*
X129794035Y-129331030D01*
X129804699Y-129542490D01*
X129832179Y-130087427D01*
X129958009Y-130767921D01*
X130186676Y-131462854D01*
X130506633Y-132126935D01*
X130928951Y-132741985D01*
X131483148Y-133358136D01*
X131781028Y-133642519D01*
X132452397Y-134168478D01*
X133160243Y-134559283D01*
X133942667Y-134837857D01*
X134123122Y-134875888D01*
X134490514Y-134924284D01*
X134948152Y-134964082D01*
X135452961Y-134993463D01*
X135961865Y-135010608D01*
X136431790Y-135013697D01*
X136819660Y-135000913D01*
X137082399Y-134970437D01*
X137464292Y-134839097D01*
X137903236Y-134541508D01*
X138240249Y-134125798D01*
X138472333Y-133731000D01*
X138472333Y-129455333D01*
X138472333Y-129413000D01*
X145203333Y-129413000D01*
X145231174Y-130102285D01*
X145328641Y-130721822D01*
X145511772Y-131315877D01*
X145796575Y-131953000D01*
X145972149Y-132276481D01*
X146520944Y-133050078D01*
X147188738Y-133713313D01*
X147213944Y-133731000D01*
X147959687Y-134254280D01*
X148817946Y-134661076D01*
X149747674Y-134921795D01*
X150237803Y-134997052D01*
X151056644Y-135025444D01*
X151851269Y-134918910D01*
X152075007Y-134861821D01*
X152419081Y-134754794D01*
X152781628Y-134626461D01*
X153117372Y-134493948D01*
X153381040Y-134374382D01*
X153527360Y-134284888D01*
X153531862Y-134277784D01*
X153509071Y-134162324D01*
X153410721Y-133953618D01*
X153254976Y-133691253D01*
X153167978Y-133552477D01*
X152737074Y-132687383D01*
X152466491Y-131783636D01*
X152356936Y-130856862D01*
X152409118Y-129922691D01*
X152623743Y-128996751D01*
X153001520Y-128094671D01*
X153093811Y-127924695D01*
X153532413Y-127263837D01*
X154044364Y-126685064D01*
X154592406Y-126231999D01*
X154786435Y-126090954D01*
X154956269Y-125944521D01*
X155022484Y-125854108D01*
X155019813Y-125835723D01*
X154933078Y-125697409D01*
X154746888Y-125493808D01*
X154492248Y-125253040D01*
X154200162Y-125003228D01*
X153901633Y-124772494D01*
X153627667Y-124588959D01*
X153197611Y-124354339D01*
X152459230Y-124062285D01*
X151671737Y-123893404D01*
X150791333Y-123836071D01*
X150474760Y-123838338D01*
X149877075Y-123877099D01*
X149356173Y-123973310D01*
X148851534Y-124140494D01*
X148302634Y-124392176D01*
X147612950Y-124793494D01*
X146879209Y-125379965D01*
X146274880Y-126070698D01*
X145792570Y-126873000D01*
X145520859Y-127485254D01*
X145333570Y-128084739D01*
X145233171Y-128703858D01*
X145203333Y-129413000D01*
X138472333Y-129413000D01*
X138472332Y-129312590D01*
X138472125Y-128374273D01*
X138471149Y-127588365D01*
X138468816Y-126939998D01*
X138464537Y-126414305D01*
X138457723Y-125996420D01*
X138447785Y-125671475D01*
X138434134Y-125424603D01*
X138416183Y-125240937D01*
X138393341Y-125105611D01*
X138365021Y-125003758D01*
X138330632Y-124920510D01*
X138289588Y-124841000D01*
X138165734Y-124636392D01*
X137774788Y-124200329D01*
X137287000Y-123899931D01*
X137278646Y-123896410D01*
X136980567Y-123819200D01*
X136557973Y-123770794D01*
X136051567Y-123750666D01*
X135502052Y-123758290D01*
X134950133Y-123793138D01*
X134436512Y-123854686D01*
X134001893Y-123942406D01*
X133223021Y-124210980D01*
X132386676Y-124654202D01*
X131634486Y-125224156D01*
X130985119Y-125903837D01*
X130457244Y-126676239D01*
X130069530Y-127524358D01*
X129971980Y-127847281D01*
X129841371Y-128562919D01*
X129794035Y-129331030D01*
X128018866Y-129331030D01*
X128018193Y-128782803D01*
X128014085Y-128041134D01*
X128006796Y-127339096D01*
X127996324Y-126698299D01*
X127982665Y-126140357D01*
X127965816Y-125686882D01*
X127945772Y-125359486D01*
X127922530Y-125179780D01*
X127828017Y-124924493D01*
X127578246Y-124528829D01*
X127245309Y-124182296D01*
X126877725Y-123942359D01*
X126810570Y-123913889D01*
X126678513Y-123871463D01*
X126513361Y-123839426D01*
X126292409Y-123816334D01*
X125992952Y-123800742D01*
X125592284Y-123791206D01*
X125067702Y-123786282D01*
X124396500Y-123784526D01*
X122258667Y-123782667D01*
X122258667Y-125984000D01*
X119463160Y-125984000D01*
X118983626Y-125423690D01*
X118249518Y-124818675D01*
X117387905Y-124320341D01*
X116914251Y-124120560D01*
X116247401Y-123928978D01*
X115510245Y-123819651D01*
X114659833Y-123784137D01*
X113707333Y-123782667D01*
X113707333Y-125984000D01*
X114194167Y-125985677D01*
X115014981Y-126034601D01*
X115857120Y-126205256D01*
X116583906Y-126497794D01*
X117193729Y-126911718D01*
X117630028Y-127358099D01*
X117994402Y-127935998D01*
X118208851Y-128586981D01*
X118278417Y-129322249D01*
X118275750Y-129371067D01*
X118253088Y-129785911D01*
X118094354Y-130513881D01*
X117788565Y-131160095D01*
X117334097Y-131728690D01*
X116908366Y-132106602D01*
X116426659Y-132409657D01*
X115893641Y-132610367D01*
X115274102Y-132721647D01*
X114532833Y-132756417D01*
X113622667Y-132757333D01*
X113622667Y-135043333D01*
X104478667Y-135043333D01*
X104478658Y-134958667D01*
X106172000Y-134958667D01*
X108267500Y-134954950D01*
X108893754Y-134951881D01*
X109489262Y-134942999D01*
X109949456Y-134927541D01*
X110292687Y-134904582D01*
X110537307Y-134873201D01*
X110701667Y-134832473D01*
X111008434Y-134665146D01*
X111330856Y-134380463D01*
X111598041Y-134040400D01*
X111758115Y-133700536D01*
X111760133Y-133692519D01*
X111780581Y-133517237D01*
X111798202Y-133195617D01*
X111813007Y-132748700D01*
X111825006Y-132197525D01*
X111834209Y-131563133D01*
X111840628Y-130866566D01*
X111844271Y-130128864D01*
X111845149Y-129371067D01*
X111843274Y-128614216D01*
X111838654Y-127879353D01*
X111831301Y-127187517D01*
X111821225Y-126559749D01*
X111808435Y-126017090D01*
X111792944Y-125580581D01*
X111774760Y-125271262D01*
X111753894Y-125110174D01*
X111629835Y-124827084D01*
X111374161Y-124474249D01*
X111048584Y-124160771D01*
X110701667Y-123940626D01*
X110651202Y-123918832D01*
X110520672Y-123874948D01*
X110358344Y-123841746D01*
X110141297Y-123817757D01*
X109846610Y-123801510D01*
X109451362Y-123791536D01*
X108932632Y-123786364D01*
X108267500Y-123784526D01*
X106172000Y-123782667D01*
X106172000Y-125984000D01*
X109474000Y-125984000D01*
X109474000Y-128016000D01*
X106341333Y-128016000D01*
X106341333Y-130217333D01*
X109474000Y-130217333D01*
X109474000Y-132757333D01*
X106172000Y-132757333D01*
X106172000Y-134958667D01*
X104478658Y-134958667D01*
X104478176Y-130323167D01*
X104477274Y-129253984D01*
X104474239Y-128299567D01*
X104468380Y-127487551D01*
X104459000Y-126804238D01*
X104445405Y-126235925D01*
X104426899Y-125768914D01*
X104402786Y-125389503D01*
X104372372Y-125083992D01*
X104334960Y-124838681D01*
X104289854Y-124639868D01*
X104236361Y-124473855D01*
X104173783Y-124326940D01*
X104026799Y-124092740D01*
X103699797Y-123800681D01*
X103293397Y-123619003D01*
X102848837Y-123563511D01*
X102407361Y-123650010D01*
X102379295Y-123660906D01*
X102194401Y-123745075D01*
X102023443Y-123853251D01*
X101857074Y-123999888D01*
X101685947Y-124199442D01*
X101500714Y-124466368D01*
X101292028Y-124815121D01*
X101050543Y-125260156D01*
X100766910Y-125815927D01*
X100431783Y-126496890D01*
X100035815Y-127317500D01*
X100020428Y-127349564D01*
X99712869Y-127986653D01*
X99426913Y-128572043D01*
X99171058Y-129088852D01*
X98953802Y-129520200D01*
X98783642Y-129849205D01*
X98669078Y-130058988D01*
X98618607Y-130132667D01*
X98616125Y-130130446D01*
X98601397Y-130023074D01*
X98587889Y-129767746D01*
X98575984Y-129382850D01*
X98566062Y-128886772D01*
X98558504Y-128297902D01*
X98553690Y-127634626D01*
X98552000Y-126915333D01*
X98552000Y-123698000D01*
X96266000Y-123698000D01*
X96266000Y-128868233D01*
X92371333Y-128868233D01*
X92371333Y-125984000D01*
X94488000Y-125984000D01*
X94488000Y-123782667D01*
X87968667Y-123782667D01*
X87968667Y-125984000D01*
X79851232Y-125984000D01*
X79918877Y-125886933D01*
X80264598Y-125391621D01*
X80579099Y-124941887D01*
X80846072Y-124561132D01*
X81049212Y-124272758D01*
X81172213Y-124100167D01*
X81463755Y-123698000D01*
X79615044Y-123702275D01*
X77766333Y-123706551D01*
X76933448Y-125014609D01*
X76675767Y-125414254D01*
X76434768Y-125777913D01*
X76237091Y-126065544D01*
X76098224Y-126254634D01*
X76033655Y-126322667D01*
X75973816Y-126259850D01*
X75838969Y-126074671D01*
X75645322Y-125789616D01*
X75408223Y-125427298D01*
X75143018Y-125010333D01*
X74319288Y-123698000D01*
X70688343Y-123698000D01*
X71576392Y-124989167D01*
X71737527Y-125223591D01*
X72136283Y-125804578D01*
X72568549Y-126435324D01*
X72992049Y-127054123D01*
X73364509Y-127599267D01*
X74264578Y-128918200D01*
X73978647Y-129328333D01*
X72184289Y-131902124D01*
X71914012Y-132290112D01*
X71493308Y-132895324D01*
X71110119Y-133448141D01*
X70774363Y-133934164D01*
X70495955Y-134338996D01*
X70284814Y-134648237D01*
X70150856Y-134847490D01*
X70104000Y-134922357D01*
X66567200Y-134922357D01*
X66774196Y-134917240D01*
X67205168Y-134901811D01*
X67511621Y-134884717D01*
X67671149Y-134866545D01*
X67871778Y-134809468D01*
X68339480Y-134599615D01*
X68746708Y-134312840D01*
X69057262Y-133977916D01*
X69234943Y-133623614D01*
X69247932Y-133494425D01*
X69260064Y-133213451D01*
X69271058Y-132798374D01*
X69280649Y-132266820D01*
X69288571Y-131636414D01*
X69294558Y-130924780D01*
X69298345Y-130149545D01*
X69299667Y-129328333D01*
X69299449Y-128638730D01*
X69298167Y-127806419D01*
X69295299Y-127117939D01*
X69290348Y-126558405D01*
X69282820Y-126112930D01*
X69272221Y-125766629D01*
X69258054Y-125504617D01*
X69239827Y-125312007D01*
X69217042Y-125173913D01*
X69189207Y-125075451D01*
X69155825Y-125001735D01*
X69085599Y-124889082D01*
X68795092Y-124557842D01*
X68412611Y-124247285D01*
X67991635Y-124003279D01*
X67907428Y-123966208D01*
X67794577Y-123926008D01*
X67660774Y-123893817D01*
X67487471Y-123868529D01*
X67256120Y-123849039D01*
X66948175Y-123834240D01*
X66545087Y-123823027D01*
X66028311Y-123814294D01*
X65379297Y-123806935D01*
X64579500Y-123799845D01*
X61552667Y-123774690D01*
X61552667Y-125984000D01*
X37295789Y-125984000D01*
X32046643Y-120734667D01*
X155659977Y-120734667D01*
X160779235Y-125854108D01*
X164338000Y-129413000D01*
X173016024Y-138091333D01*
G37*
G36*
X297929192Y-18706723D02*
G01*
X298213185Y-18758665D01*
X298620026Y-18837678D01*
X299131707Y-18939954D01*
X299730218Y-19061688D01*
X300397552Y-19199073D01*
X301115698Y-19348303D01*
X301866649Y-19505571D01*
X302632394Y-19667071D01*
X303394926Y-19828996D01*
X304136236Y-19987540D01*
X304838313Y-20138897D01*
X305483150Y-20279260D01*
X306052738Y-20404823D01*
X306529067Y-20511779D01*
X306894129Y-20596322D01*
X307129915Y-20654645D01*
X307218416Y-20682943D01*
X307218231Y-20684823D01*
X307196959Y-20789588D01*
X307142578Y-21045980D01*
X307057719Y-21441895D01*
X306945017Y-21965233D01*
X306807102Y-22603890D01*
X306646608Y-23345764D01*
X306466167Y-24178754D01*
X306268412Y-25090757D01*
X306055975Y-26069671D01*
X305831489Y-27103393D01*
X305597586Y-28179823D01*
X305356899Y-29286857D01*
X305112059Y-30412393D01*
X304865701Y-31544329D01*
X304620455Y-32670563D01*
X304378956Y-33778993D01*
X304143834Y-34857516D01*
X303917723Y-35894031D01*
X303703256Y-36876434D01*
X303503064Y-37792625D01*
X303319780Y-38630501D01*
X303156038Y-39377959D01*
X303014468Y-40022898D01*
X302897704Y-40553216D01*
X302808378Y-40956809D01*
X302672091Y-41569951D01*
X297830545Y-41591809D01*
X292989000Y-41613667D01*
X292967305Y-48069500D01*
X292945609Y-54525333D01*
X296338510Y-54525333D01*
X296608861Y-54525358D01*
X297408814Y-54525996D01*
X298059075Y-54528000D01*
X298574767Y-54532039D01*
X298971011Y-54538782D01*
X299262931Y-54548899D01*
X299465648Y-54563058D01*
X299594284Y-54581928D01*
X299663962Y-54606179D01*
X299689804Y-54636480D01*
X299686931Y-54673500D01*
X299673807Y-54721351D01*
X299621679Y-54922427D01*
X299538640Y-55248776D01*
X299431080Y-55675118D01*
X299305388Y-56176174D01*
X299167955Y-56726667D01*
X298948638Y-57601992D01*
X298278776Y-60215791D01*
X297585150Y-62837548D01*
X296872937Y-65449769D01*
X296147313Y-68034956D01*
X295413453Y-70575615D01*
X294676536Y-73054248D01*
X293941736Y-75453359D01*
X293214230Y-77755453D01*
X292499195Y-79943033D01*
X291801807Y-81998603D01*
X291127242Y-83904667D01*
X290308213Y-86081578D01*
X289252396Y-88653232D01*
X288141583Y-91101856D01*
X286963021Y-93451409D01*
X285703958Y-95725853D01*
X284351642Y-97949147D01*
X282893320Y-100145251D01*
X281316239Y-102338126D01*
X281231681Y-102451230D01*
X279476374Y-104694292D01*
X277642511Y-106839258D01*
X275718860Y-108896195D01*
X273694188Y-110875173D01*
X271557260Y-112786258D01*
X269296843Y-114639518D01*
X266901706Y-116445021D01*
X264360614Y-118212835D01*
X261662333Y-119953028D01*
X260893778Y-120420598D01*
X259957080Y-120970209D01*
X258935639Y-121552480D01*
X257861965Y-122149746D01*
X256768564Y-122744343D01*
X255687943Y-123318608D01*
X254652609Y-123854876D01*
X253695071Y-124335482D01*
X252847835Y-124742762D01*
X251708989Y-125260815D01*
X248704743Y-126502072D01*
X245608529Y-127604269D01*
X242419348Y-128567642D01*
X239136202Y-129392427D01*
X235758093Y-130078859D01*
X232284022Y-130627175D01*
X228712990Y-131037610D01*
X225044000Y-131310399D01*
X224959552Y-131314900D01*
X224335748Y-131341479D01*
X223631763Y-131361600D01*
X222865418Y-131375538D01*
X222054534Y-131383566D01*
X221216932Y-131385959D01*
X220370434Y-131382992D01*
X219532859Y-131374938D01*
X218722030Y-131362072D01*
X217955766Y-131344668D01*
X217251890Y-131323001D01*
X216628222Y-131297344D01*
X216102583Y-131267972D01*
X215692794Y-131235159D01*
X215416676Y-131199180D01*
X215292050Y-131160309D01*
X215291343Y-131151025D01*
X215311743Y-131016085D01*
X215365654Y-130729412D01*
X215450854Y-130301542D01*
X215565121Y-129743011D01*
X215706231Y-129064355D01*
X215871963Y-128276112D01*
X216060094Y-127388817D01*
X216268402Y-126413006D01*
X216494664Y-125359216D01*
X216736658Y-124237983D01*
X216992162Y-123059843D01*
X217258953Y-121835333D01*
X217339452Y-121466685D01*
X217603877Y-120255594D01*
X217857330Y-119094518D01*
X218097523Y-117993950D01*
X218322167Y-116964383D01*
X218528976Y-116016310D01*
X218715662Y-115160222D01*
X218879936Y-114406612D01*
X219019512Y-113765972D01*
X219132101Y-113248795D01*
X219215415Y-112865573D01*
X219267167Y-112626798D01*
X219285069Y-112542964D01*
X219299868Y-112540696D01*
X219444691Y-112538868D01*
X219724248Y-112541747D01*
X220114223Y-112548918D01*
X220590301Y-112559965D01*
X221128167Y-112574472D01*
X221545017Y-112584272D01*
X223877538Y-112564098D01*
X226297398Y-112421914D01*
X228782606Y-112160907D01*
X231311171Y-111784266D01*
X233861101Y-111295180D01*
X236410405Y-110696837D01*
X238937091Y-109992426D01*
X240223208Y-109588851D01*
X243238072Y-108518043D01*
X246204236Y-107288737D01*
X249112114Y-105905972D01*
X251952117Y-104374785D01*
X254714657Y-102700215D01*
X257390148Y-100887299D01*
X259969000Y-98941075D01*
X261865178Y-97376476D01*
X264417603Y-95084205D01*
X266871625Y-92658168D01*
X269222850Y-90103677D01*
X271466887Y-87426041D01*
X273599343Y-84630571D01*
X275615825Y-81722578D01*
X277511941Y-78707372D01*
X279283297Y-75590265D01*
X279845869Y-74529548D01*
X281144762Y-71945432D01*
X282430547Y-69198469D01*
X283701820Y-66292939D01*
X284957177Y-63233121D01*
X286195215Y-60023297D01*
X287414528Y-56667747D01*
X288613714Y-53170750D01*
X289791368Y-49536587D01*
X290946087Y-45769539D01*
X292076467Y-41873884D01*
X293181103Y-37853904D01*
X294258593Y-33713879D01*
X295307532Y-29458089D01*
X296326517Y-25090813D01*
X297314143Y-20616333D01*
X297372182Y-20348029D01*
X297486648Y-19831472D01*
X297589734Y-19382491D01*
X297675613Y-19025626D01*
X297738456Y-18785418D01*
X297772436Y-18686411D01*
X297786057Y-18685658D01*
X297929192Y-18706723D01*
G37*
G36*
X196083761Y-74405196D02*
G01*
X196283797Y-77357466D01*
X196482338Y-80287580D01*
X196678389Y-83180858D01*
X196870955Y-86022621D01*
X197059041Y-88798191D01*
X197241654Y-91492888D01*
X197417797Y-94092033D01*
X197586478Y-96580948D01*
X197746700Y-98944954D01*
X197897470Y-101169371D01*
X198037792Y-103239520D01*
X198095610Y-104092711D01*
X198229461Y-106069760D01*
X198360102Y-108002000D01*
X198487073Y-109882534D01*
X198609914Y-111704467D01*
X198728165Y-113460901D01*
X198841365Y-115144940D01*
X198949054Y-116749689D01*
X199050773Y-118268250D01*
X199146060Y-119693728D01*
X199234457Y-121019226D01*
X199315502Y-122237848D01*
X199388736Y-123342697D01*
X199453698Y-124326878D01*
X199509929Y-125183493D01*
X199556967Y-125905648D01*
X199594354Y-126486445D01*
X199621628Y-126918987D01*
X199638331Y-127196380D01*
X199644000Y-127311726D01*
X199643933Y-127340671D01*
X199631973Y-127558089D01*
X199588051Y-127646839D01*
X199495833Y-127643495D01*
X199488432Y-127641576D01*
X199356186Y-127611374D01*
X199068913Y-127547425D01*
X198635176Y-127451605D01*
X198063541Y-127325786D01*
X197362572Y-127171845D01*
X196540833Y-126991655D01*
X195606889Y-126787090D01*
X194569304Y-126560025D01*
X193436642Y-126312335D01*
X192217467Y-126045893D01*
X190920345Y-125762574D01*
X189553840Y-125464253D01*
X188126515Y-125152804D01*
X186646936Y-124830101D01*
X185123667Y-124498019D01*
X184765011Y-124419844D01*
X183253816Y-124090365D01*
X181789649Y-123771002D01*
X180380968Y-123463606D01*
X179036232Y-123170028D01*
X177763902Y-122892119D01*
X176572435Y-122631730D01*
X175470291Y-122390712D01*
X174465930Y-122170916D01*
X173567810Y-121974193D01*
X172784391Y-121802394D01*
X172124132Y-121657371D01*
X171595492Y-121540974D01*
X171206929Y-121455054D01*
X170966905Y-121401463D01*
X170883876Y-121382051D01*
X170880774Y-121306662D01*
X170874649Y-121071055D01*
X170865794Y-120684506D01*
X170854396Y-120156475D01*
X170840644Y-119496423D01*
X170824724Y-118713810D01*
X170806824Y-117818096D01*
X170787132Y-116818743D01*
X170765835Y-115725211D01*
X170743121Y-114546961D01*
X170719178Y-113293453D01*
X170694193Y-111974147D01*
X170668354Y-110598505D01*
X170641849Y-109175987D01*
X170616875Y-107837935D01*
X170590834Y-106458874D01*
X170565535Y-105135465D01*
X170541175Y-103877177D01*
X170517945Y-102693483D01*
X170496040Y-101593853D01*
X170475654Y-100587759D01*
X170456980Y-99684671D01*
X170440214Y-98894062D01*
X170425548Y-98225403D01*
X170413176Y-97688164D01*
X170403292Y-97291816D01*
X170396091Y-97045832D01*
X170391766Y-96959682D01*
X170383026Y-96957126D01*
X170249944Y-96926079D01*
X169964129Y-96861821D01*
X169535224Y-96766454D01*
X168972868Y-96642083D01*
X168286702Y-96490813D01*
X167486367Y-96314747D01*
X166581503Y-96115989D01*
X165581752Y-95896645D01*
X164496754Y-95658817D01*
X163336151Y-95404609D01*
X162109582Y-95136128D01*
X160826688Y-94855475D01*
X159497111Y-94564756D01*
X158130491Y-94266074D01*
X156736469Y-93961534D01*
X155324686Y-93653240D01*
X153904782Y-93343296D01*
X152486398Y-93033806D01*
X151079175Y-92726875D01*
X149692753Y-92424606D01*
X148336774Y-92129104D01*
X147020879Y-91842472D01*
X145754707Y-91566816D01*
X144547900Y-91304238D01*
X143410099Y-91056844D01*
X142350944Y-90826737D01*
X141380076Y-90616022D01*
X140507136Y-90426802D01*
X139741765Y-90261182D01*
X139093603Y-90121266D01*
X138572291Y-90009159D01*
X138187471Y-89926963D01*
X137948781Y-89876784D01*
X137865865Y-89860726D01*
X137865839Y-89860755D01*
X137824326Y-89937441D01*
X137707905Y-90155286D01*
X137520995Y-90505976D01*
X137268015Y-90981196D01*
X136953384Y-91572631D01*
X136581523Y-92271967D01*
X136156848Y-93070889D01*
X135683780Y-93961082D01*
X135166738Y-94934233D01*
X134610141Y-95982026D01*
X134018408Y-97096148D01*
X133395958Y-98268282D01*
X132747210Y-99490116D01*
X132076583Y-100753333D01*
X132068600Y-100768371D01*
X131398193Y-102031210D01*
X130749728Y-103252614D01*
X130127624Y-104424264D01*
X129536301Y-105537843D01*
X128980177Y-106585032D01*
X128463670Y-107557513D01*
X127991200Y-108446969D01*
X127567186Y-109245080D01*
X127196046Y-109943529D01*
X126882199Y-110533998D01*
X126630064Y-111008169D01*
X126444060Y-111357723D01*
X126328606Y-111574343D01*
X126288120Y-111649710D01*
X126277112Y-111649027D01*
X126137918Y-111623261D01*
X125847164Y-111563902D01*
X125415077Y-111473193D01*
X124851881Y-111353382D01*
X124167803Y-111206713D01*
X123373069Y-111035432D01*
X122477903Y-110841785D01*
X121492533Y-110628016D01*
X120427183Y-110396372D01*
X119292079Y-110149098D01*
X118097448Y-109888439D01*
X116853515Y-109616640D01*
X115570505Y-109335948D01*
X114258644Y-109048607D01*
X112928159Y-108756864D01*
X111589275Y-108462963D01*
X110252218Y-108169150D01*
X108927212Y-107877670D01*
X107624486Y-107590769D01*
X106354263Y-107310693D01*
X105126770Y-107039686D01*
X103952232Y-106779995D01*
X102840875Y-106533865D01*
X101802926Y-106303540D01*
X100848609Y-106091268D01*
X99988151Y-105899292D01*
X99231777Y-105729859D01*
X98589713Y-105585214D01*
X98072185Y-105467602D01*
X97689418Y-105379270D01*
X97451639Y-105322462D01*
X97369073Y-105299423D01*
X97372628Y-105290026D01*
X97436553Y-105165082D01*
X97577838Y-104900275D01*
X97793012Y-104501926D01*
X98078603Y-103976355D01*
X98431142Y-103329884D01*
X98847157Y-102568832D01*
X99323177Y-101699522D01*
X99855733Y-100728273D01*
X100441353Y-99661407D01*
X101076567Y-98505244D01*
X101757903Y-97266105D01*
X102481891Y-95950311D01*
X103245061Y-94564183D01*
X104043942Y-93114042D01*
X104875062Y-91606208D01*
X105734952Y-90047001D01*
X106620141Y-88442744D01*
X107527157Y-86799757D01*
X108224628Y-85536660D01*
X109134219Y-83889425D01*
X110114778Y-82113672D01*
X111160359Y-80220167D01*
X112265017Y-78219680D01*
X113422804Y-76122979D01*
X114627775Y-73940833D01*
X115873983Y-71684009D01*
X117155482Y-69363277D01*
X118466326Y-66989405D01*
X119064327Y-65906456D01*
X149621004Y-65906456D01*
X149645168Y-65912666D01*
X149812039Y-65950759D01*
X150128685Y-66021373D01*
X150584792Y-66122249D01*
X151170047Y-66251127D01*
X151874136Y-66405747D01*
X152686745Y-66583850D01*
X153597561Y-66783176D01*
X154596269Y-67001466D01*
X155672556Y-67236460D01*
X156816108Y-67485899D01*
X158016612Y-67747522D01*
X159263754Y-68019070D01*
X159893878Y-68156229D01*
X161123593Y-68423998D01*
X162303689Y-68681092D01*
X163423636Y-68925209D01*
X164472900Y-69154049D01*
X165440951Y-69365312D01*
X166317258Y-69556697D01*
X167091287Y-69725903D01*
X167752509Y-69870630D01*
X168290390Y-69988577D01*
X168694401Y-70077444D01*
X168954008Y-70134930D01*
X169058681Y-70158734D01*
X169145955Y-70174792D01*
X169203238Y-70140713D01*
X169216211Y-70012333D01*
X169197518Y-69752671D01*
X169189332Y-69640242D01*
X169170692Y-69363454D01*
X169142372Y-68933091D01*
X169104883Y-68357160D01*
X169058737Y-67643666D01*
X169004446Y-66800614D01*
X168942521Y-65836009D01*
X168873474Y-64757856D01*
X168797816Y-63574160D01*
X168716060Y-62292927D01*
X168628716Y-60922161D01*
X168536296Y-59469867D01*
X168439313Y-57944051D01*
X168338277Y-56352718D01*
X168233700Y-54703873D01*
X168126094Y-53005521D01*
X168015971Y-51265667D01*
X167909778Y-49588224D01*
X167802585Y-47897362D01*
X167698552Y-46258756D01*
X167598181Y-44680189D01*
X167501970Y-43169443D01*
X167410419Y-41734302D01*
X167324029Y-40382549D01*
X167243297Y-39121965D01*
X167168725Y-37960334D01*
X167100811Y-36905439D01*
X167040056Y-35965062D01*
X166986959Y-35146986D01*
X166942019Y-34458994D01*
X166905737Y-33908869D01*
X166878612Y-33504393D01*
X166861143Y-33253349D01*
X166853831Y-33163521D01*
X166852010Y-33164998D01*
X166796588Y-33260163D01*
X166666714Y-33497221D01*
X166465959Y-33869423D01*
X166197897Y-34370021D01*
X165866098Y-34992264D01*
X165474134Y-35729405D01*
X165025576Y-36574694D01*
X164523997Y-37521382D01*
X163972967Y-38562721D01*
X163376059Y-39691961D01*
X162736844Y-40902353D01*
X162058894Y-42187149D01*
X161345780Y-43539600D01*
X160601074Y-44952956D01*
X159828348Y-46420469D01*
X159031174Y-47935389D01*
X158213122Y-49490969D01*
X158060105Y-49782044D01*
X157245684Y-51331646D01*
X156453239Y-52840070D01*
X155686324Y-54300524D01*
X154948493Y-55706216D01*
X154243303Y-57050354D01*
X153574308Y-58326145D01*
X152945063Y-59526798D01*
X152359124Y-60645521D01*
X151820045Y-61675521D01*
X151331382Y-62610006D01*
X150896690Y-63442185D01*
X150519523Y-64165264D01*
X150203437Y-64772453D01*
X149951987Y-65256959D01*
X149768728Y-65611989D01*
X149657215Y-65830752D01*
X149621004Y-65906456D01*
X119064327Y-65906456D01*
X119800568Y-64573161D01*
X121152262Y-62125314D01*
X122515461Y-59656632D01*
X123884220Y-57177884D01*
X125252592Y-54699837D01*
X126614631Y-52233262D01*
X127964391Y-49788925D01*
X129295924Y-47377596D01*
X130603285Y-45010042D01*
X131880528Y-42697034D01*
X133121706Y-40449337D01*
X148538587Y-12530343D01*
X170216519Y-12551671D01*
X191894451Y-12573000D01*
X192167257Y-16594667D01*
X192175781Y-16720347D01*
X192206576Y-17174532D01*
X192248145Y-17787802D01*
X192300002Y-18552950D01*
X192361657Y-19462770D01*
X192432622Y-20510054D01*
X192512410Y-21687593D01*
X192600531Y-22988181D01*
X192696497Y-24404610D01*
X192799821Y-25929673D01*
X192910013Y-27556162D01*
X193026586Y-29276870D01*
X193149051Y-31084589D01*
X193276921Y-32972112D01*
X193409706Y-34932231D01*
X193546918Y-36957739D01*
X193688069Y-39041428D01*
X193832672Y-41176092D01*
X193980236Y-43354521D01*
X194130275Y-45569510D01*
X194282301Y-47813849D01*
X194435823Y-50080333D01*
X194548979Y-51750861D01*
X194725175Y-54351944D01*
X194907831Y-57048301D01*
X195095955Y-59825255D01*
X195288550Y-62668125D01*
X195484623Y-65562233D01*
X195683179Y-68492900D01*
X195786125Y-70012333D01*
X195883223Y-71445448D01*
X196083761Y-74405196D01*
G37*
G36*
X92827077Y-12530744D02*
G01*
X94453055Y-12531009D01*
X95925489Y-12531543D01*
X97251931Y-12532427D01*
X98439934Y-12533740D01*
X99497051Y-12535564D01*
X100430834Y-12537978D01*
X101248835Y-12541064D01*
X101958607Y-12544900D01*
X102567702Y-12549569D01*
X103083674Y-12555150D01*
X103514074Y-12561724D01*
X103866455Y-12569371D01*
X104148370Y-12578171D01*
X104367371Y-12588206D01*
X104531010Y-12599555D01*
X104646840Y-12612299D01*
X104722414Y-12626519D01*
X104765284Y-12642294D01*
X104783003Y-12659705D01*
X104783123Y-12678833D01*
X104771769Y-12728962D01*
X104725977Y-12936410D01*
X104646332Y-13299174D01*
X104534102Y-13811443D01*
X104390553Y-14467407D01*
X104216953Y-15261255D01*
X104014570Y-16187177D01*
X103784669Y-17239362D01*
X103528519Y-18412000D01*
X103247386Y-19699279D01*
X102942539Y-21095390D01*
X102615243Y-22594521D01*
X102266767Y-24190863D01*
X101898378Y-25878604D01*
X101511343Y-27651935D01*
X101106929Y-29505044D01*
X100686403Y-31432121D01*
X100251033Y-33427356D01*
X99802086Y-35484937D01*
X99340828Y-37599055D01*
X98868529Y-39763899D01*
X98386453Y-41973658D01*
X97895870Y-44222521D01*
X97398045Y-46504679D01*
X96894247Y-48814320D01*
X96385743Y-51145634D01*
X95873799Y-53492811D01*
X95359683Y-55850040D01*
X94844662Y-58211509D01*
X94330004Y-60571410D01*
X93816976Y-62923931D01*
X93306844Y-65263261D01*
X92800877Y-67583590D01*
X92300341Y-69879108D01*
X91806504Y-72144004D01*
X91320633Y-74372467D01*
X90843995Y-76558688D01*
X90377857Y-78696854D01*
X89923487Y-80781156D01*
X89482151Y-82805783D01*
X89055118Y-84764925D01*
X88643654Y-86652771D01*
X88249027Y-88463510D01*
X87872503Y-90191333D01*
X87515351Y-91830427D01*
X87178836Y-93374984D01*
X86864228Y-94819191D01*
X86572791Y-96157240D01*
X86305795Y-97383318D01*
X86064507Y-98491616D01*
X85850192Y-99476323D01*
X85664120Y-100331628D01*
X85507556Y-101051722D01*
X85381768Y-101630792D01*
X85288024Y-102063030D01*
X85227591Y-102342623D01*
X85201735Y-102463763D01*
X85179543Y-102552808D01*
X85100546Y-102654518D01*
X84932064Y-102647642D01*
X84858945Y-102632835D01*
X84465422Y-102551264D01*
X83939496Y-102439990D01*
X83291801Y-102301369D01*
X82532976Y-102137754D01*
X81673655Y-101951499D01*
X80724476Y-101744958D01*
X79696075Y-101520485D01*
X78599089Y-101280434D01*
X77444154Y-101027161D01*
X76241905Y-100763017D01*
X75002981Y-100490359D01*
X73738017Y-100211539D01*
X72457649Y-99928912D01*
X71172515Y-99644832D01*
X69893250Y-99361652D01*
X68630491Y-99081729D01*
X67394874Y-98807414D01*
X66197036Y-98541063D01*
X65047613Y-98285029D01*
X63957242Y-98041666D01*
X62936559Y-97813329D01*
X61996201Y-97602372D01*
X61146803Y-97411149D01*
X60399003Y-97242013D01*
X59763436Y-97097320D01*
X59250740Y-96979422D01*
X58871551Y-96890675D01*
X58636504Y-96833432D01*
X58556237Y-96810047D01*
X58557121Y-96805525D01*
X58582848Y-96685203D01*
X58643337Y-96405367D01*
X58737518Y-95970938D01*
X58864319Y-95386838D01*
X59022668Y-94657987D01*
X59211495Y-93789309D01*
X59429727Y-92785725D01*
X59676293Y-91652155D01*
X59950122Y-90393523D01*
X60250143Y-89014749D01*
X60575284Y-87520755D01*
X60924473Y-85916463D01*
X61296640Y-84206794D01*
X61690713Y-82396670D01*
X62105620Y-80491013D01*
X62540290Y-78494744D01*
X62993652Y-76412784D01*
X63464634Y-74250057D01*
X63952165Y-72011482D01*
X64455174Y-69701983D01*
X64972588Y-67326480D01*
X65503338Y-64889894D01*
X66046350Y-62397149D01*
X66600555Y-59853165D01*
X67164880Y-57262863D01*
X67738254Y-54631166D01*
X76911033Y-12530667D01*
X91040002Y-12530667D01*
X92827077Y-12530744D01*
G37*
G36*
X38255186Y-22881167D02*
G01*
X38255676Y-22888406D01*
X38316441Y-23785730D01*
X38388031Y-24842799D01*
X38469830Y-26050494D01*
X38561218Y-27399695D01*
X38661578Y-28881283D01*
X38770292Y-30486137D01*
X38886742Y-32205139D01*
X39010311Y-34029168D01*
X39140380Y-35949105D01*
X39276332Y-37955831D01*
X39417549Y-40040225D01*
X39563412Y-42193169D01*
X39713305Y-44405543D01*
X39866610Y-46668227D01*
X40022708Y-48972101D01*
X40180981Y-51308047D01*
X40340812Y-53666943D01*
X40501583Y-56039672D01*
X40662677Y-58417113D01*
X40823474Y-60790147D01*
X40983358Y-63149654D01*
X41112509Y-65056008D01*
X41261774Y-67260282D01*
X41407735Y-69416883D01*
X41549986Y-71519747D01*
X41688118Y-73562810D01*
X41821722Y-75540010D01*
X41950391Y-77445282D01*
X42073717Y-79272563D01*
X42191291Y-81015789D01*
X42302706Y-82668896D01*
X42407552Y-84225822D01*
X42505423Y-85680503D01*
X42595910Y-87026874D01*
X42678604Y-88258873D01*
X42753098Y-89370435D01*
X42818984Y-90355498D01*
X42875853Y-91207998D01*
X42923298Y-91921870D01*
X42960910Y-92491052D01*
X42988280Y-92909481D01*
X43005002Y-93171091D01*
X43010667Y-93269820D01*
X42991260Y-93399829D01*
X42928321Y-93472000D01*
X42921840Y-93471088D01*
X42795306Y-93445665D01*
X42518184Y-93387305D01*
X42102588Y-93298643D01*
X41560628Y-93182315D01*
X40904417Y-93040958D01*
X40146066Y-92877208D01*
X39297689Y-92693700D01*
X38371396Y-92493071D01*
X37379299Y-92277956D01*
X36333512Y-92050992D01*
X35246144Y-91814814D01*
X34129310Y-91572059D01*
X32995120Y-91325363D01*
X31855686Y-91077361D01*
X30723121Y-90830690D01*
X29609536Y-90587986D01*
X28527044Y-90351884D01*
X27487755Y-90125021D01*
X26503784Y-89910033D01*
X25587240Y-89709556D01*
X24750237Y-89526225D01*
X24004886Y-89362677D01*
X23363299Y-89221548D01*
X22837589Y-89105474D01*
X22439866Y-89017090D01*
X22182244Y-88959033D01*
X22076833Y-88933940D01*
X22066099Y-88926230D01*
X22054905Y-88904934D01*
X22044334Y-88865763D01*
X22034368Y-88804127D01*
X22024990Y-88715436D01*
X22016182Y-88595100D01*
X22007926Y-88438531D01*
X22000204Y-88241137D01*
X21992999Y-87998330D01*
X21986292Y-87705520D01*
X21980066Y-87358118D01*
X21974304Y-86951533D01*
X21968986Y-86481176D01*
X21964097Y-85942458D01*
X21959617Y-85330788D01*
X21955529Y-84641578D01*
X21951815Y-83870237D01*
X21948457Y-83012176D01*
X21945439Y-82062806D01*
X21942740Y-81017536D01*
X21940345Y-79871777D01*
X21938235Y-78620940D01*
X21936393Y-77260435D01*
X21934800Y-75785671D01*
X21933439Y-74192061D01*
X21932292Y-72475013D01*
X21931342Y-70629939D01*
X21930569Y-68652248D01*
X21929958Y-66537351D01*
X21929489Y-64280659D01*
X21929146Y-61877582D01*
X21928910Y-59323530D01*
X21928763Y-56613913D01*
X21928688Y-53744142D01*
X21928667Y-50709628D01*
X21928667Y-12530667D01*
X37554322Y-12530667D01*
X38255186Y-22881167D01*
G37*
G36*
X311083803Y-21653038D02*
G01*
X311336029Y-21694738D01*
X311725826Y-21767775D01*
X312240011Y-21869264D01*
X312865397Y-21996320D01*
X313588802Y-22146057D01*
X314397041Y-22315591D01*
X315276928Y-22502035D01*
X316215281Y-22702505D01*
X317198913Y-22914115D01*
X318214641Y-23133979D01*
X319249280Y-23359213D01*
X320289646Y-23586931D01*
X321322555Y-23814247D01*
X322334821Y-24038276D01*
X323313261Y-24256133D01*
X324244689Y-24464932D01*
X325115922Y-24661789D01*
X325913775Y-24843817D01*
X326625064Y-25008131D01*
X327236603Y-25151847D01*
X327735210Y-25272078D01*
X328107698Y-25365939D01*
X328340884Y-25430544D01*
X328421583Y-25463010D01*
X328418981Y-25480860D01*
X328388179Y-25637195D01*
X328324622Y-25943073D01*
X328230781Y-26387007D01*
X328109127Y-26957509D01*
X327962131Y-27643093D01*
X327792263Y-28432273D01*
X327601995Y-29313560D01*
X327393797Y-30275469D01*
X327170140Y-31306513D01*
X326933495Y-32395204D01*
X326686333Y-33530057D01*
X326588276Y-33979922D01*
X326345146Y-35095902D01*
X326113472Y-36160080D01*
X325895719Y-37161091D01*
X325694353Y-38087571D01*
X325511839Y-38928158D01*
X325350640Y-39671488D01*
X325213223Y-40306196D01*
X325102052Y-40820920D01*
X325019593Y-41204295D01*
X324968309Y-41444959D01*
X324950667Y-41531547D01*
X324949869Y-41532073D01*
X324851143Y-41537392D01*
X324595030Y-41542496D01*
X324192415Y-41547338D01*
X323654186Y-41551871D01*
X322991230Y-41556047D01*
X322214435Y-41559819D01*
X321334687Y-41563141D01*
X320362874Y-41565964D01*
X319309883Y-41568242D01*
X318186600Y-41569928D01*
X317003914Y-41570974D01*
X315772711Y-41571333D01*
X306594756Y-41571333D01*
X306756831Y-40830500D01*
X306760086Y-40815613D01*
X306804308Y-40612916D01*
X306881651Y-40257983D01*
X306989575Y-39762486D01*
X307125539Y-39138095D01*
X307287002Y-38396481D01*
X307471424Y-37549316D01*
X307676263Y-36608271D01*
X307898981Y-35585017D01*
X308137035Y-34491225D01*
X308387885Y-33338566D01*
X308648990Y-32138712D01*
X308917811Y-30903333D01*
X308980041Y-30617455D01*
X309243945Y-29407539D01*
X309498083Y-28246269D01*
X309740086Y-27144270D01*
X309967586Y-26112164D01*
X310178216Y-25160575D01*
X310369606Y-24300126D01*
X310539389Y-23541441D01*
X310685197Y-22895141D01*
X310804662Y-22371852D01*
X310895416Y-21982195D01*
X310955091Y-21736794D01*
X310981319Y-21646272D01*
X310982332Y-21645562D01*
X311083803Y-21653038D01*
G37*
G36*
X136144000Y-132866441D02*
G01*
X135530167Y-132819541D01*
X134856430Y-132710541D01*
X134173033Y-132465113D01*
X133579046Y-132107338D01*
X133081038Y-131655249D01*
X132685575Y-131126879D01*
X132399227Y-130540259D01*
X132228561Y-129913423D01*
X132180144Y-129264404D01*
X132260545Y-128611233D01*
X132476332Y-127971944D01*
X132834071Y-127364569D01*
X133340332Y-126807140D01*
X133380850Y-126771044D01*
X134003819Y-126330470D01*
X134691212Y-126046488D01*
X135442756Y-125919213D01*
X136144000Y-125875464D01*
X136144000Y-132866441D01*
G37*
D12*
X291628000Y-39942000D02*
X291628000Y-49062000D01*
X291628000Y-49062000D02*
X329988000Y-49062000D01*
X312858000Y-47752000D02*
X328688000Y-47752000D01*
X328688000Y-41252000D02*
X292928000Y-41252000D01*
X328688000Y-47752000D02*
X328688000Y-41252000D01*
X308758000Y-47752000D02*
X308758000Y-49062000D01*
X329988000Y-39942000D02*
X291628000Y-39942000D01*
X292928000Y-47752000D02*
X308758000Y-47752000D01*
X329988000Y-49062000D02*
X329988000Y-39942000D01*
X325278000Y-50534500D02*
X324278000Y-50534500D01*
X312858000Y-49062000D02*
X312858000Y-47752000D01*
X324278000Y-50534500D02*
X324778000Y-49534500D01*
X324778000Y-49534500D02*
X325278000Y-50534500D01*
X292928000Y-41252000D02*
X292928000Y-47752000D01*
X308758000Y-47752000D02*
X308758000Y-47752000D01*
X326518000Y-52462000D02*
X325718000Y-52462000D01*
X295098000Y-50342000D02*
X295098000Y-48292000D01*
X326518000Y-52162000D02*
X326518000Y-52462000D01*
X295898000Y-53762000D02*
X295898000Y-52462000D01*
X325718000Y-53762000D02*
X295898000Y-53762000D01*
X295098000Y-52462000D02*
X295098000Y-52162000D01*
X295098000Y-48292000D02*
X295868000Y-48292000D01*
X325748000Y-48292000D02*
X326518000Y-48292000D01*
X325718000Y-52462000D02*
X325718000Y-53762000D01*
X295898000Y-52462000D02*
X295098000Y-52462000D01*
X325748000Y-48642000D02*
X325748000Y-48292000D01*
X295868000Y-48292000D02*
X295868000Y-48642000D01*
X323768000Y-48642000D02*
X325748000Y-48642000D01*
X295868000Y-48642000D02*
X297848000Y-48642000D01*
X326518000Y-48292000D02*
X326518000Y-50342000D01*
X323768000Y-48052000D02*
X323768000Y-48642000D01*
%LPC*%
D13*
X29360000Y-143200000D03*
D14*
X31900000Y-143200000D03*
D15*
X81767500Y-102160000D03*
D16*
X87097500Y-102160000D03*
D15*
X92427500Y-102160000D03*
D17*
X90597500Y-105030000D03*
D18*
X82397500Y-106410000D03*
D19*
X84557500Y-107240000D03*
D20*
X89697500Y-107910000D03*
D21*
X87097500Y-108160000D03*
D22*
X88367500Y-97080000D03*
X85827500Y-97080000D03*
D16*
X172822500Y-121210000D03*
D15*
X167492500Y-121210000D03*
X178152500Y-121210000D03*
D18*
X168122500Y-125460000D03*
D17*
X176322500Y-124080000D03*
D21*
X172822500Y-127210000D03*
D19*
X170282500Y-126290000D03*
D20*
X175422500Y-126960000D03*
D22*
X174092500Y-116130000D03*
X171552500Y-116130000D03*
D15*
X140052500Y-121210000D03*
X129392500Y-121210000D03*
D16*
X134722500Y-121210000D03*
D17*
X138222500Y-124080000D03*
D18*
X130022500Y-125460000D03*
D19*
X132182500Y-126290000D03*
D20*
X137322500Y-126960000D03*
D21*
X134722500Y-127210000D03*
D22*
X135992500Y-116130000D03*
X133452500Y-116130000D03*
D15*
X224642500Y-121210000D03*
D16*
X229972500Y-121210000D03*
D15*
X235302500Y-121210000D03*
D18*
X225272500Y-125460000D03*
D17*
X233472500Y-124080000D03*
D21*
X229972500Y-127210000D03*
D19*
X227432500Y-126290000D03*
D20*
X232572500Y-126960000D03*
D22*
X231242500Y-116130000D03*
X228702500Y-116130000D03*
D15*
X312748750Y-102160000D03*
X323408750Y-102160000D03*
D16*
X318078750Y-102160000D03*
D17*
X321578750Y-105030000D03*
D18*
X313378750Y-106410000D03*
D19*
X315538750Y-107240000D03*
D21*
X318078750Y-108160000D03*
D20*
X320678750Y-107910000D03*
D23*
X327603750Y-97397500D03*
X327603750Y-99937500D03*
D15*
X119811875Y-140260000D03*
D16*
X114481875Y-140260000D03*
D15*
X109151875Y-140260000D03*
D17*
X117981875Y-143130000D03*
D18*
X109781875Y-144510000D03*
D20*
X117081875Y-146010000D03*
D19*
X111941875Y-145340000D03*
D21*
X114481875Y-146260000D03*
D22*
X115751875Y-135180000D03*
X113211875Y-135180000D03*
D16*
X125197500Y-102160000D03*
D15*
X130527500Y-102160000D03*
X119867500Y-102160000D03*
D17*
X128697500Y-105030000D03*
D18*
X120497500Y-106410000D03*
D21*
X125197500Y-108160000D03*
D19*
X122657500Y-107240000D03*
D20*
X127797500Y-107910000D03*
D22*
X126467500Y-97080000D03*
X123927500Y-97080000D03*
D15*
X138917500Y-102160000D03*
X149577500Y-102160000D03*
D16*
X144247500Y-102160000D03*
D17*
X147747500Y-105030000D03*
D18*
X139547500Y-106410000D03*
D20*
X146847500Y-107910000D03*
D19*
X141707500Y-107240000D03*
D21*
X144247500Y-108160000D03*
D22*
X145517500Y-97080000D03*
X142977500Y-97080000D03*
D15*
X168627500Y-102160000D03*
D16*
X163297500Y-102160000D03*
D15*
X157967500Y-102160000D03*
D18*
X158597500Y-106410000D03*
D17*
X166797500Y-105030000D03*
D19*
X160757500Y-107240000D03*
D21*
X163297500Y-108160000D03*
D20*
X165897500Y-107910000D03*
D22*
X164567500Y-97080000D03*
X162027500Y-97080000D03*
D15*
X177017500Y-102160000D03*
X187677500Y-102160000D03*
D16*
X182347500Y-102160000D03*
D17*
X185847500Y-105030000D03*
D18*
X177647500Y-106410000D03*
D20*
X184947500Y-107910000D03*
D19*
X179807500Y-107240000D03*
D21*
X182347500Y-108160000D03*
D22*
X183617500Y-97080000D03*
X181077500Y-97080000D03*
D15*
X205592500Y-32610000D03*
D16*
X210922500Y-32610000D03*
D15*
X216252500Y-32610000D03*
D18*
X206222500Y-36860000D03*
D17*
X214422500Y-35480000D03*
D21*
X210922500Y-38610000D03*
D20*
X213522500Y-38360000D03*
D19*
X208382500Y-37690000D03*
D22*
X212192500Y-27530000D03*
X209652500Y-27530000D03*
D15*
X325790000Y-121210000D03*
X315130000Y-121210000D03*
D16*
X320460000Y-121210000D03*
D18*
X315760000Y-125460000D03*
D17*
X323960000Y-124080000D03*
D21*
X320460000Y-127210000D03*
D19*
X317920000Y-126290000D03*
D20*
X323060000Y-126960000D03*
D22*
X321730000Y-116130000D03*
X319190000Y-116130000D03*
D15*
X206727500Y-102160000D03*
X196067500Y-102160000D03*
D16*
X201397500Y-102160000D03*
D17*
X204897500Y-105030000D03*
D18*
X196697500Y-106410000D03*
D19*
X198857500Y-107240000D03*
D20*
X203997500Y-107910000D03*
D21*
X201397500Y-108160000D03*
D22*
X202667500Y-97080000D03*
X200127500Y-97080000D03*
D15*
X225777500Y-102160000D03*
X215117500Y-102160000D03*
D16*
X220447500Y-102160000D03*
D17*
X223947500Y-105030000D03*
D18*
X215747500Y-106410000D03*
D20*
X223047500Y-107910000D03*
D19*
X217907500Y-107240000D03*
D21*
X220447500Y-108160000D03*
D22*
X221717500Y-97080000D03*
X219177500Y-97080000D03*
D15*
X244827500Y-102160000D03*
D16*
X239497500Y-102160000D03*
D15*
X234167500Y-102160000D03*
D17*
X242997500Y-105030000D03*
D18*
X234797500Y-106410000D03*
D19*
X236957500Y-107240000D03*
D21*
X239497500Y-108160000D03*
D20*
X242097500Y-107910000D03*
D22*
X240767500Y-97080000D03*
X238227500Y-97080000D03*
D24*
X53666250Y-129465000D03*
D15*
X70996250Y-121210000D03*
D24*
X77666250Y-129465000D03*
D15*
X60336250Y-121210000D03*
D25*
X53666250Y-114225000D03*
D16*
X65666250Y-121210000D03*
D25*
X77666250Y-114225000D03*
D18*
X60966250Y-125460000D03*
D17*
X69166250Y-124080000D03*
D21*
X65666250Y-127210000D03*
D20*
X68266250Y-126960000D03*
D19*
X63126250Y-126290000D03*
D22*
X66936250Y-116130000D03*
X64396250Y-116130000D03*
D15*
X205592500Y-121210000D03*
X216252500Y-121210000D03*
D16*
X210922500Y-121210000D03*
D18*
X206222500Y-125460000D03*
D17*
X214422500Y-124080000D03*
D19*
X208382500Y-126290000D03*
D20*
X213522500Y-126960000D03*
D21*
X210922500Y-127210000D03*
D22*
X212192500Y-116130000D03*
X209652500Y-116130000D03*
D15*
X186542500Y-121210000D03*
D16*
X191872500Y-121210000D03*
D15*
X197202500Y-121210000D03*
D17*
X195372500Y-124080000D03*
D18*
X187172500Y-125460000D03*
D21*
X191872500Y-127210000D03*
D19*
X189332500Y-126290000D03*
D20*
X194472500Y-126960000D03*
D22*
X193142500Y-116130000D03*
X190602500Y-116130000D03*
D16*
X296660000Y-32610000D03*
D15*
X291330000Y-32610000D03*
X301990000Y-32610000D03*
D18*
X291960000Y-36860000D03*
D17*
X300160000Y-35480000D03*
D20*
X299260000Y-38360000D03*
D21*
X296660000Y-38610000D03*
D19*
X294120000Y-37690000D03*
D22*
X297930000Y-27530000D03*
X295390000Y-27530000D03*
D15*
X243692500Y-121210000D03*
X254352500Y-121210000D03*
D16*
X249022500Y-121210000D03*
D17*
X252522500Y-124080000D03*
D18*
X244322500Y-125460000D03*
D20*
X251622500Y-126960000D03*
D21*
X249022500Y-127210000D03*
D19*
X246482500Y-126290000D03*
D22*
X250292500Y-116130000D03*
X247752500Y-116130000D03*
D16*
X277597500Y-102160000D03*
D15*
X272267500Y-102160000D03*
X282927500Y-102160000D03*
D18*
X272897500Y-106410000D03*
D17*
X281097500Y-105030000D03*
D19*
X275057500Y-107240000D03*
D20*
X280197500Y-107910000D03*
D21*
X277597500Y-108160000D03*
D22*
X278867500Y-97080000D03*
X276327500Y-97080000D03*
D25*
X282266250Y-114225000D03*
X306266250Y-114225000D03*
D15*
X288936250Y-121210000D03*
X299596250Y-121210000D03*
D16*
X294266250Y-121210000D03*
D24*
X306266250Y-129465000D03*
X282266250Y-129465000D03*
D18*
X289566250Y-125460000D03*
D17*
X297766250Y-124080000D03*
D21*
X294266250Y-127210000D03*
D19*
X291726250Y-126290000D03*
D20*
X296866250Y-126960000D03*
D22*
X295536250Y-116130000D03*
X292996250Y-116130000D03*
D15*
X100817500Y-102160000D03*
X111477500Y-102160000D03*
D16*
X106147500Y-102160000D03*
D18*
X101447500Y-106410000D03*
D17*
X109647500Y-105030000D03*
D21*
X106147500Y-108160000D03*
D19*
X103607500Y-107240000D03*
D20*
X108747500Y-107910000D03*
D22*
X107417500Y-97080000D03*
X104877500Y-97080000D03*
D16*
X268072500Y-32610000D03*
D15*
X262742500Y-32610000D03*
X273402500Y-32610000D03*
D18*
X263372500Y-36860000D03*
D17*
X271572500Y-35480000D03*
D21*
X268072500Y-38610000D03*
D20*
X270672500Y-38360000D03*
D19*
X265532500Y-37690000D03*
D22*
X269342500Y-27530000D03*
X266802500Y-27530000D03*
D15*
X263877500Y-102160000D03*
X253217500Y-102160000D03*
D16*
X258547500Y-102160000D03*
D17*
X262047500Y-105030000D03*
D18*
X253847500Y-106410000D03*
D20*
X261147500Y-107910000D03*
D21*
X258547500Y-108160000D03*
D19*
X256007500Y-107240000D03*
D22*
X259817500Y-97080000D03*
X257277500Y-97080000D03*
D16*
X268072500Y-121210000D03*
D15*
X273402500Y-121210000D03*
X262742500Y-121210000D03*
D17*
X271572500Y-124080000D03*
D18*
X263372500Y-125460000D03*
D19*
X265532500Y-126290000D03*
D20*
X270672500Y-126960000D03*
D21*
X268072500Y-127210000D03*
D22*
X269342500Y-116130000D03*
X266802500Y-116130000D03*
D25*
X237110000Y-133275000D03*
D15*
X192440000Y-140260000D03*
D16*
X187110000Y-140260000D03*
D24*
X137110000Y-148515000D03*
X237110000Y-148515000D03*
D25*
X137110000Y-133275000D03*
D15*
X181780000Y-140260000D03*
D18*
X182410000Y-144510000D03*
D17*
X190610000Y-143130000D03*
D19*
X184570000Y-145340000D03*
D20*
X189710000Y-146010000D03*
D21*
X187110000Y-146260000D03*
D22*
X188380000Y-135180000D03*
X185840000Y-135180000D03*
D15*
X244827500Y-32610000D03*
X234167500Y-32610000D03*
D16*
X239497500Y-32610000D03*
D17*
X242997500Y-35480000D03*
D18*
X234797500Y-36860000D03*
D20*
X242097500Y-38360000D03*
D19*
X236957500Y-37690000D03*
D21*
X239497500Y-38610000D03*
D22*
X240767500Y-27530000D03*
X238227500Y-27530000D03*
D15*
X159102500Y-121210000D03*
X148442500Y-121210000D03*
D16*
X153772500Y-121210000D03*
D18*
X149072500Y-125460000D03*
D17*
X157272500Y-124080000D03*
D19*
X151232500Y-126290000D03*
D21*
X153772500Y-127210000D03*
D20*
X156372500Y-126960000D03*
D22*
X155042500Y-116130000D03*
X152502500Y-116130000D03*
D15*
X110342500Y-121210000D03*
D16*
X115672500Y-121210000D03*
D15*
X121002500Y-121210000D03*
D18*
X110972500Y-125460000D03*
D17*
X119172500Y-124080000D03*
D20*
X118272500Y-126960000D03*
D19*
X113132500Y-126290000D03*
D21*
X115672500Y-127210000D03*
D22*
X116942500Y-116130000D03*
X114402500Y-116130000D03*
D16*
X96622500Y-121210000D03*
D15*
X101952500Y-121210000D03*
X91292500Y-121210000D03*
D18*
X91922500Y-125460000D03*
D17*
X100122500Y-124080000D03*
D20*
X99222500Y-126960000D03*
D19*
X94082500Y-126290000D03*
D21*
X96622500Y-127210000D03*
D22*
X97892500Y-116130000D03*
X95352500Y-116130000D03*
D16*
X101385000Y-83110000D03*
D15*
X106715000Y-83110000D03*
X96055000Y-83110000D03*
D18*
X96685000Y-87360000D03*
D17*
X104885000Y-85980000D03*
D20*
X103985000Y-88860000D03*
D19*
X98845000Y-88190000D03*
D21*
X101385000Y-89110000D03*
D22*
X102655000Y-78030000D03*
X100115000Y-78030000D03*
D15*
X182915000Y-83110000D03*
D16*
X177585000Y-83110000D03*
D15*
X172255000Y-83110000D03*
D18*
X172885000Y-87360000D03*
D17*
X181085000Y-85980000D03*
D21*
X177585000Y-89110000D03*
D19*
X175045000Y-88190000D03*
D20*
X180185000Y-88860000D03*
D22*
X178855000Y-78030000D03*
X176315000Y-78030000D03*
D15*
X163865000Y-83110000D03*
X153205000Y-83110000D03*
D16*
X158535000Y-83110000D03*
D17*
X162035000Y-85980000D03*
D18*
X153835000Y-87360000D03*
D19*
X155995000Y-88190000D03*
D20*
X161135000Y-88860000D03*
D21*
X158535000Y-89110000D03*
D22*
X159805000Y-78030000D03*
X157265000Y-78030000D03*
D15*
X201965000Y-83110000D03*
D16*
X196635000Y-83110000D03*
D15*
X191305000Y-83110000D03*
D17*
X200135000Y-85980000D03*
D18*
X191935000Y-87360000D03*
D19*
X194095000Y-88190000D03*
D21*
X196635000Y-89110000D03*
D20*
X199235000Y-88860000D03*
D22*
X197905000Y-78030000D03*
X195365000Y-78030000D03*
D26*
X315697500Y-77780000D03*
D16*
X315697500Y-83110000D03*
D27*
X319947500Y-87810000D03*
D28*
X318567500Y-79610000D03*
D19*
X320777500Y-85650000D03*
D29*
X321447500Y-80510000D03*
D21*
X321697500Y-83110000D03*
D23*
X306172500Y-78188750D03*
X306172500Y-80728750D03*
D15*
X248455000Y-83110000D03*
D16*
X253785000Y-83110000D03*
D15*
X259115000Y-83110000D03*
D17*
X257285000Y-85980000D03*
D18*
X249085000Y-87360000D03*
D19*
X251245000Y-88190000D03*
D21*
X253785000Y-89110000D03*
D20*
X256385000Y-88860000D03*
D22*
X255055000Y-78030000D03*
X252515000Y-78030000D03*
D15*
X87665000Y-83110000D03*
D16*
X82335000Y-83110000D03*
D15*
X77005000Y-83110000D03*
D17*
X85835000Y-85980000D03*
D18*
X77635000Y-87360000D03*
D21*
X82335000Y-89110000D03*
D19*
X79795000Y-88190000D03*
D20*
X84935000Y-88860000D03*
D22*
X83605000Y-78030000D03*
X81065000Y-78030000D03*
D16*
X215685000Y-83110000D03*
D15*
X210355000Y-83110000D03*
X221015000Y-83110000D03*
D17*
X219185000Y-85980000D03*
D18*
X210985000Y-87360000D03*
D20*
X218285000Y-88860000D03*
D21*
X215685000Y-89110000D03*
D19*
X213145000Y-88190000D03*
D22*
X216955000Y-78030000D03*
X214415000Y-78030000D03*
D15*
X286555000Y-83110000D03*
X297215000Y-83110000D03*
D16*
X291885000Y-83110000D03*
D18*
X287185000Y-87360000D03*
D17*
X295385000Y-85980000D03*
D21*
X291885000Y-89110000D03*
D19*
X289345000Y-88190000D03*
D20*
X294485000Y-88860000D03*
D22*
X293155000Y-78030000D03*
X290615000Y-78030000D03*
D15*
X278165000Y-83110000D03*
X267505000Y-83110000D03*
D16*
X272835000Y-83110000D03*
D18*
X268135000Y-87360000D03*
D17*
X276335000Y-85980000D03*
D21*
X272835000Y-89110000D03*
D20*
X275435000Y-88860000D03*
D19*
X270295000Y-88190000D03*
D22*
X274105000Y-78030000D03*
X271565000Y-78030000D03*
D15*
X134155000Y-83110000D03*
X144815000Y-83110000D03*
D16*
X139485000Y-83110000D03*
D18*
X134785000Y-87360000D03*
D17*
X142985000Y-85980000D03*
D20*
X142085000Y-88860000D03*
D19*
X136945000Y-88190000D03*
D21*
X139485000Y-89110000D03*
D22*
X140755000Y-78030000D03*
X138215000Y-78030000D03*
D16*
X120435000Y-83110000D03*
D15*
X125765000Y-83110000D03*
X115105000Y-83110000D03*
D18*
X115735000Y-87360000D03*
D17*
X123935000Y-85980000D03*
D19*
X117895000Y-88190000D03*
D20*
X123035000Y-88860000D03*
D21*
X120435000Y-89110000D03*
D22*
X121705000Y-78030000D03*
X119165000Y-78030000D03*
D15*
X229405000Y-83110000D03*
X240065000Y-83110000D03*
D16*
X234735000Y-83110000D03*
D17*
X238235000Y-85980000D03*
D18*
X230035000Y-87360000D03*
D20*
X237335000Y-88860000D03*
D19*
X232195000Y-88190000D03*
D21*
X234735000Y-89110000D03*
D22*
X236005000Y-78030000D03*
X233465000Y-78030000D03*
D16*
X53760000Y-64060000D03*
D15*
X48430000Y-64060000D03*
X59090000Y-64060000D03*
D18*
X49060000Y-68310000D03*
D17*
X57260000Y-66930000D03*
D19*
X51220000Y-69140000D03*
D21*
X53760000Y-70060000D03*
D20*
X56360000Y-69810000D03*
D22*
X55030000Y-58980000D03*
X52490000Y-58980000D03*
D15*
X200830000Y-64060000D03*
X211490000Y-64060000D03*
D16*
X206160000Y-64060000D03*
D18*
X201460000Y-68310000D03*
D17*
X209660000Y-66930000D03*
D19*
X203620000Y-69140000D03*
D21*
X206160000Y-70060000D03*
D20*
X208760000Y-69810000D03*
D22*
X207430000Y-58980000D03*
X204890000Y-58980000D03*
D16*
X168060000Y-64060000D03*
D15*
X162730000Y-64060000D03*
X173390000Y-64060000D03*
D18*
X163360000Y-68310000D03*
D17*
X171560000Y-66930000D03*
D20*
X170660000Y-69810000D03*
D21*
X168060000Y-70060000D03*
D19*
X165520000Y-69140000D03*
D22*
X169330000Y-58980000D03*
X166790000Y-58980000D03*
D15*
X230540000Y-64060000D03*
X219880000Y-64060000D03*
D16*
X225210000Y-64060000D03*
D17*
X228710000Y-66930000D03*
D18*
X220510000Y-68310000D03*
D21*
X225210000Y-70060000D03*
D20*
X227810000Y-69810000D03*
D19*
X222670000Y-69140000D03*
D22*
X226480000Y-58980000D03*
X223940000Y-58980000D03*
D15*
X238930000Y-64060000D03*
D16*
X244260000Y-64060000D03*
D15*
X249590000Y-64060000D03*
D17*
X247760000Y-66930000D03*
D18*
X239560000Y-68310000D03*
D19*
X241720000Y-69140000D03*
D20*
X246860000Y-69810000D03*
D21*
X244260000Y-70060000D03*
D22*
X245530000Y-58980000D03*
X242990000Y-58980000D03*
D15*
X154340000Y-64060000D03*
D16*
X149010000Y-64060000D03*
D15*
X143680000Y-64060000D03*
D18*
X144310000Y-68310000D03*
D17*
X152510000Y-66930000D03*
D19*
X146470000Y-69140000D03*
D21*
X149010000Y-70060000D03*
D20*
X151610000Y-69810000D03*
D22*
X150280000Y-58980000D03*
X147740000Y-58980000D03*
D26*
X301410000Y-69390000D03*
D16*
X301410000Y-64060000D03*
D26*
X301410000Y-58730000D03*
D30*
X298540000Y-67560000D03*
D31*
X297160000Y-59360000D03*
D21*
X295410000Y-64060000D03*
D29*
X295660000Y-66660000D03*
D19*
X296330000Y-61520000D03*
D22*
X301722571Y-55556974D03*
X304262571Y-55556974D03*
D16*
X110910000Y-64060000D03*
D15*
X105580000Y-64060000D03*
X116240000Y-64060000D03*
D17*
X114410000Y-66930000D03*
D18*
X106210000Y-68310000D03*
D20*
X113510000Y-69810000D03*
D19*
X108370000Y-69140000D03*
D21*
X110910000Y-70060000D03*
D22*
X112180000Y-58980000D03*
X109640000Y-58980000D03*
D16*
X282360000Y-64060000D03*
D15*
X277030000Y-64060000D03*
X287690000Y-64060000D03*
D18*
X277660000Y-68310000D03*
D17*
X285860000Y-66930000D03*
D19*
X279820000Y-69140000D03*
D21*
X282360000Y-70060000D03*
D20*
X284960000Y-69810000D03*
D22*
X283630000Y-58980000D03*
X281090000Y-58980000D03*
D15*
X124630000Y-64060000D03*
X135290000Y-64060000D03*
D16*
X129960000Y-64060000D03*
D17*
X133460000Y-66930000D03*
D18*
X125260000Y-68310000D03*
D20*
X132560000Y-69810000D03*
D19*
X127420000Y-69140000D03*
D21*
X129960000Y-70060000D03*
D22*
X131230000Y-58980000D03*
X128690000Y-58980000D03*
D16*
X72810000Y-64060000D03*
D15*
X67480000Y-64060000D03*
X78140000Y-64060000D03*
D17*
X76310000Y-66930000D03*
D18*
X68110000Y-68310000D03*
D21*
X72810000Y-70060000D03*
D19*
X70270000Y-69140000D03*
D20*
X75410000Y-69810000D03*
D22*
X74080000Y-58980000D03*
X71540000Y-58980000D03*
D15*
X268640000Y-64060000D03*
X257980000Y-64060000D03*
D16*
X263310000Y-64060000D03*
D17*
X266810000Y-66930000D03*
D18*
X258610000Y-68310000D03*
D19*
X260770000Y-69140000D03*
D21*
X263310000Y-70060000D03*
D20*
X265910000Y-69810000D03*
D22*
X264580000Y-58980000D03*
X262040000Y-58980000D03*
D26*
X320460000Y-69390000D03*
X320460000Y-58730000D03*
D16*
X320460000Y-64060000D03*
D27*
X324710000Y-68760000D03*
D28*
X323330000Y-60560000D03*
D19*
X325540000Y-66600000D03*
D21*
X326460000Y-64060000D03*
D29*
X326210000Y-61460000D03*
D22*
X320017991Y-55530861D03*
X317477991Y-55530861D03*
D15*
X97190000Y-64060000D03*
X86530000Y-64060000D03*
D16*
X91860000Y-64060000D03*
D17*
X95360000Y-66930000D03*
D18*
X87160000Y-68310000D03*
D20*
X94460000Y-69810000D03*
D21*
X91860000Y-70060000D03*
D19*
X89320000Y-69140000D03*
D22*
X93130000Y-58980000D03*
X90590000Y-58980000D03*
D16*
X187110000Y-64060000D03*
D15*
X192440000Y-64060000D03*
X181780000Y-64060000D03*
D18*
X182410000Y-68310000D03*
D17*
X190610000Y-66930000D03*
D21*
X187110000Y-70060000D03*
D19*
X184570000Y-69140000D03*
D20*
X189710000Y-69810000D03*
D22*
X188380000Y-58980000D03*
X185840000Y-58980000D03*
D15*
X53192500Y-83110000D03*
D16*
X58522500Y-83110000D03*
D15*
X63852500Y-83110000D03*
D17*
X62022500Y-85980000D03*
D18*
X53822500Y-87360000D03*
D21*
X58522500Y-89110000D03*
D19*
X55982500Y-88190000D03*
D20*
X61122500Y-88860000D03*
D22*
X59792500Y-78030000D03*
X57252500Y-78030000D03*
D15*
X301977500Y-102160000D03*
D16*
X296647500Y-102160000D03*
D15*
X291317500Y-102160000D03*
D18*
X291947500Y-106410000D03*
D17*
X300147500Y-105030000D03*
D21*
X296647500Y-108160000D03*
D19*
X294107500Y-107240000D03*
D20*
X299247500Y-107910000D03*
D22*
X297917500Y-97080000D03*
X295377500Y-97080000D03*
D16*
X96622500Y-32610000D03*
D15*
X101952500Y-32610000D03*
X91292500Y-32610000D03*
D17*
X100122500Y-35480000D03*
D18*
X91922500Y-36860000D03*
D21*
X96622500Y-38610000D03*
D19*
X94082500Y-37690000D03*
D20*
X99222500Y-38360000D03*
D22*
X97892500Y-27530000D03*
X95352500Y-27530000D03*
D15*
X119867500Y-32610000D03*
D16*
X125197500Y-32610000D03*
D15*
X130527500Y-32610000D03*
D17*
X128697500Y-35480000D03*
D18*
X120497500Y-36860000D03*
D20*
X127797500Y-38360000D03*
D21*
X125197500Y-38610000D03*
D19*
X122657500Y-37690000D03*
D22*
X126467500Y-27530000D03*
X123927500Y-27530000D03*
D16*
X153772500Y-32610000D03*
D15*
X148442500Y-32610000D03*
X159102500Y-32610000D03*
D18*
X149072500Y-36860000D03*
D17*
X157272500Y-35480000D03*
D20*
X156372500Y-38360000D03*
D21*
X153772500Y-38610000D03*
D19*
X151232500Y-37690000D03*
D22*
X155042500Y-27530000D03*
X152502500Y-27530000D03*
D15*
X187677500Y-32610000D03*
D16*
X182347500Y-32610000D03*
D15*
X177017500Y-32610000D03*
D17*
X185847500Y-35480000D03*
D18*
X177647500Y-36860000D03*
D19*
X179807500Y-37690000D03*
D21*
X182347500Y-38610000D03*
D20*
X184947500Y-38360000D03*
D22*
X183617500Y-27530000D03*
X181077500Y-27530000D03*
D32*
X40029000Y-113590000D03*
D33*
X37489000Y-113590000D03*
X34949000Y-113590000D03*
D32*
X34964000Y-90984000D03*
D33*
X37504000Y-90984000D03*
X40044000Y-90984000D03*
D16*
X325222500Y-32610000D03*
D15*
X319892500Y-32610000D03*
X330552500Y-32610000D03*
D18*
X320522500Y-36860000D03*
D17*
X328722500Y-35480000D03*
D21*
X325222500Y-38610000D03*
D19*
X322682500Y-37690000D03*
D20*
X327822500Y-38360000D03*
D22*
X326492500Y-27530000D03*
X323952500Y-27530000D03*
D32*
X332683000Y-46477000D03*
D33*
X332683000Y-49017000D03*
D15*
X316265000Y-64060000D03*
D24*
X298935000Y-72315000D03*
D25*
X298935000Y-57075000D03*
D15*
X305605000Y-64060000D03*
D24*
X322935000Y-72315000D03*
D16*
X310935000Y-64060000D03*
D25*
X322935000Y-57075000D03*
D18*
X306235000Y-68310000D03*
D17*
X314435000Y-66930000D03*
D20*
X313535000Y-69810000D03*
D21*
X310935000Y-70060000D03*
D19*
X308395000Y-69140000D03*
D16*
X60903750Y-102160000D03*
D25*
X72903750Y-95175000D03*
D24*
X48903750Y-110415000D03*
D15*
X55573750Y-102160000D03*
D24*
X72903750Y-110415000D03*
D15*
X66233750Y-102160000D03*
D25*
X48903750Y-95175000D03*
D17*
X64403750Y-105030000D03*
D18*
X56203750Y-106410000D03*
D19*
X58363750Y-107240000D03*
D21*
X60903750Y-108160000D03*
D20*
X63503750Y-107910000D03*
D22*
X62173750Y-97080000D03*
X59633750Y-97080000D03*
D25*
X311093750Y-104635000D03*
D16*
X318078750Y-92635000D03*
D24*
X326333750Y-104635000D03*
D26*
X318078750Y-97965000D03*
D25*
X311093750Y-80635000D03*
D24*
X326333750Y-80635000D03*
D30*
X315208750Y-96135000D03*
D31*
X313828750Y-87935000D03*
D29*
X312328750Y-95235000D03*
D21*
X312078750Y-92635000D03*
D19*
X312998750Y-90095000D03*
D16*
X259738125Y-140260000D03*
D15*
X265068125Y-140260000D03*
X254408125Y-140260000D03*
D17*
X263238125Y-143130000D03*
D18*
X255038125Y-144510000D03*
D21*
X259738125Y-146260000D03*
D19*
X257198125Y-145340000D03*
D20*
X262338125Y-146010000D03*
D22*
X261008125Y-135180000D03*
X258468125Y-135180000D03*
D34*
X324778000Y-45772000D03*
D35*
X324778000Y-43232000D03*
X322238000Y-45772000D03*
X322238000Y-43232000D03*
X319698000Y-45772000D03*
X319698000Y-43232000D03*
X317158000Y-45772000D03*
X317158000Y-43232000D03*
X314618000Y-45772000D03*
X314618000Y-43232000D03*
X312078000Y-45772000D03*
X312078000Y-43232000D03*
X309538000Y-45772000D03*
X309538000Y-43232000D03*
X306998000Y-45772000D03*
X306998000Y-43232000D03*
X304458000Y-45772000D03*
X304458000Y-43232000D03*
X301918000Y-45772000D03*
X301918000Y-43232000D03*
X299378000Y-45772000D03*
X299378000Y-43232000D03*
X296838000Y-45772000D03*
X296838000Y-43232000D03*
D36*
X323308000Y-48552000D03*
X322308000Y-48552000D03*
X321308000Y-48552000D03*
X320308000Y-48552000D03*
X319308000Y-48552000D03*
X318308000Y-48552000D03*
X317308000Y-48552000D03*
X316308000Y-48552000D03*
X315308000Y-48552000D03*
X314308000Y-48552000D03*
X313308000Y-48552000D03*
X312308000Y-48552000D03*
X311308000Y-48552000D03*
X310308000Y-48552000D03*
X309308000Y-48552000D03*
X308308000Y-48552000D03*
X307308000Y-48552000D03*
X306308000Y-48552000D03*
X305308000Y-48552000D03*
X304308000Y-48552000D03*
X303308000Y-48552000D03*
X302308000Y-48552000D03*
X301308000Y-48552000D03*
X300308000Y-48552000D03*
X299308000Y-48552000D03*
X298308000Y-48552000D03*
D37*
X326108000Y-51252000D03*
X295508000Y-51252000D03*
M02*
