G04 #@! TF.GenerationSoftware,KiCad,Pcbnew,(7.0.0)*
G04 #@! TF.CreationDate,2023-03-31T21:54:34-07:00*
G04 #@! TF.ProjectId,Atari130MX-adapter,41746172-6931-4333-904d-582d61646170,F*
G04 #@! TF.SameCoordinates,Original*
G04 #@! TF.FileFunction,Copper,L1,Top*
G04 #@! TF.FilePolarity,Positive*
%FSLAX46Y46*%
G04 Gerber Fmt 4.6, Leading zero omitted, Abs format (unit mm)*
G04 Created by KiCad (PCBNEW (7.0.0)) date 2023-03-31 21:54:34*
%MOMM*%
%LPD*%
G01*
G04 APERTURE LIST*
G04 Aperture macros list*
%AMFreePoly0*
4,1,19,0.500000,-0.750000,0.000000,-0.750000,0.000000,-0.744911,-0.071157,-0.744911,-0.207708,-0.704816,-0.327430,-0.627875,-0.420627,-0.520320,-0.479746,-0.390866,-0.500000,-0.250000,-0.500000,0.250000,-0.479746,0.390866,-0.420627,0.520320,-0.327430,0.627875,-0.207708,0.704816,-0.071157,0.744911,0.000000,0.744911,0.000000,0.750000,0.500000,0.750000,0.500000,-0.750000,0.500000,-0.750000,
$1*%
%AMFreePoly1*
4,1,19,0.000000,0.744911,0.071157,0.744911,0.207708,0.704816,0.327430,0.627875,0.420627,0.520320,0.479746,0.390866,0.500000,0.250000,0.500000,-0.250000,0.479746,-0.390866,0.420627,-0.520320,0.327430,-0.627875,0.207708,-0.704816,0.071157,-0.744911,0.000000,-0.744911,0.000000,-0.750000,-0.500000,-0.750000,-0.500000,0.750000,0.000000,0.750000,0.000000,0.744911,0.000000,0.744911,
$1*%
G04 Aperture macros list end*
G04 #@! TA.AperFunction,ComponentPad*
%ADD10C,2.000000*%
G04 #@! TD*
G04 #@! TA.AperFunction,SMDPad,CuDef*
%ADD11R,0.400000X1.000000*%
G04 #@! TD*
G04 #@! TA.AperFunction,SMDPad,CuDef*
%ADD12R,2.000000X1.300000*%
G04 #@! TD*
G04 #@! TA.AperFunction,ComponentPad*
%ADD13O,1.524000X2.540000*%
G04 #@! TD*
G04 #@! TA.AperFunction,SMDPad,CuDef*
%ADD14FreePoly0,180.000000*%
G04 #@! TD*
G04 #@! TA.AperFunction,SMDPad,CuDef*
%ADD15FreePoly1,180.000000*%
G04 #@! TD*
G04 #@! TA.AperFunction,ViaPad*
%ADD16C,0.800000*%
G04 #@! TD*
G04 #@! TA.AperFunction,Conductor*
%ADD17C,0.250000*%
G04 #@! TD*
G04 APERTURE END LIST*
G36*
X63724600Y-57119800D02*
G01*
X63224600Y-57119800D01*
X63224600Y-56519800D01*
X63724600Y-56519800D01*
X63724600Y-57119800D01*
G37*
D10*
X60246600Y-58475000D03*
X55246600Y-60975000D03*
X60246600Y-63475000D03*
D11*
X91112999Y-63800399D03*
X90112999Y-63800399D03*
X89112999Y-63800399D03*
X88112999Y-63800399D03*
X87112999Y-63800399D03*
X86112999Y-63800399D03*
X85112999Y-63800399D03*
X84112999Y-63800399D03*
X83112999Y-63800399D03*
X82112999Y-63800399D03*
X81112999Y-63800399D03*
X80112999Y-63800399D03*
X79112999Y-63800399D03*
X78112999Y-63800399D03*
X77112999Y-63800399D03*
X76112999Y-63800399D03*
X75112999Y-63800399D03*
X74112999Y-63800399D03*
X73112999Y-63800399D03*
X72112999Y-63800399D03*
X71112999Y-63800399D03*
X70112999Y-63800399D03*
X69112999Y-63800399D03*
X68112999Y-63800399D03*
X67112999Y-63800399D03*
X66112999Y-63800399D03*
D12*
X93912999Y-61100399D03*
X63312999Y-61100399D03*
D13*
X100888799Y-63042799D03*
X103428799Y-63042799D03*
X105968799Y-63042799D03*
X108508799Y-63042799D03*
X111048799Y-63042799D03*
X113588799Y-63042799D03*
X116128799Y-63042799D03*
X118668799Y-63042799D03*
X121208799Y-63042799D03*
X123748799Y-63042799D03*
X126288799Y-63042799D03*
X128828799Y-63042799D03*
X131368799Y-63042799D03*
X133908799Y-63042799D03*
X136448799Y-63042799D03*
X138988799Y-63042799D03*
X141528799Y-63042799D03*
X144068799Y-63042799D03*
X146608799Y-63042799D03*
X149148799Y-63042799D03*
X151688799Y-63042799D03*
X154228799Y-63042799D03*
X156768799Y-63042799D03*
X159308799Y-63042799D03*
D14*
X64124600Y-56819800D03*
D15*
X62824600Y-56819800D03*
D16*
X90388500Y-62141100D03*
X92227400Y-62001400D03*
X67487800Y-61595000D03*
X69062600Y-62433200D03*
X71094600Y-62534800D03*
X73101200Y-62484000D03*
X75082400Y-62458600D03*
X89865200Y-61112400D03*
X77089000Y-62458600D03*
X79070200Y-62484000D03*
X81102200Y-62509400D03*
X83108800Y-62458600D03*
X85064600Y-62458600D03*
X87096600Y-62458600D03*
D17*
X89588000Y-63804800D02*
X89588000Y-62943400D01*
X89117400Y-63804800D02*
X89588000Y-63804800D01*
X89113000Y-63800400D02*
X89117400Y-63804800D01*
X90113000Y-63800400D02*
X90388500Y-63524900D01*
X90388500Y-63524900D02*
X90388500Y-62141100D01*
X62824600Y-58312000D02*
X62824600Y-56819800D01*
X67113000Y-62600400D02*
X62824600Y-58312000D01*
X63459220Y-55744800D02*
X64124600Y-56410180D01*
X57539398Y-55744800D02*
X63459220Y-55744800D01*
X53921600Y-59362598D02*
X57539398Y-55744800D01*
X76931095Y-53539400D02*
X149805400Y-53539400D01*
X149805400Y-53539400D02*
X159308800Y-63042800D01*
X68113000Y-62357495D02*
X76931095Y-53539400D01*
X68113000Y-63800400D02*
X68113000Y-62357495D01*
X69113000Y-62483600D02*
X69062600Y-62433200D01*
X69113000Y-63800400D02*
X69113000Y-62483600D01*
X145175400Y-53989400D02*
X154228800Y-63042800D01*
X70113000Y-62491095D02*
X78614695Y-53989400D01*
X78614695Y-53989400D02*
X145175400Y-53989400D01*
X70113000Y-63800400D02*
X70113000Y-62491095D01*
X71113000Y-62553200D02*
X71094600Y-62534800D01*
X71113000Y-63800400D02*
X71113000Y-62553200D01*
X140545400Y-54439400D02*
X149148800Y-63042800D01*
X72113000Y-62446895D02*
X80120495Y-54439400D01*
X80120495Y-54439400D02*
X140545400Y-54439400D01*
X72113000Y-63800400D02*
X72113000Y-62446895D01*
X73113000Y-62495800D02*
X73101200Y-62484000D01*
X73113000Y-63800400D02*
X73113000Y-62495800D01*
X74113000Y-62402695D02*
X81626295Y-54889400D01*
X81626295Y-54889400D02*
X135915400Y-54889400D01*
X135915400Y-54889400D02*
X144068800Y-63042800D01*
X74113000Y-63800400D02*
X74113000Y-62402695D01*
X75113000Y-62489200D02*
X75082400Y-62458600D01*
X75113000Y-63800400D02*
X75113000Y-62489200D01*
X83083376Y-55438919D02*
X131384919Y-55438919D01*
X76113000Y-62409295D02*
X83083376Y-55438919D01*
X131384919Y-55438919D02*
X138988800Y-63042800D01*
X76113000Y-63800400D02*
X76113000Y-62409295D01*
X91027372Y-58138919D02*
X103604919Y-58138919D01*
X103604919Y-58138919D02*
X108508800Y-63042800D01*
X88113000Y-61053291D02*
X91027372Y-58138919D01*
X88113000Y-63800400D02*
X88113000Y-61053291D01*
X77113000Y-62482600D02*
X77089000Y-62458600D01*
X77113000Y-63800400D02*
X77113000Y-62482600D01*
X84639976Y-55888919D02*
X126754919Y-55888919D01*
X78113000Y-62415895D02*
X84639976Y-55888919D01*
X78113000Y-63800400D02*
X78113000Y-62415895D01*
X126754919Y-55888919D02*
X133908800Y-63042800D01*
X122124919Y-56338919D02*
X128828800Y-63042800D01*
X86247376Y-56338919D02*
X122124919Y-56338919D01*
X80113000Y-62473295D02*
X86247376Y-56338919D01*
X79113000Y-62526800D02*
X79070200Y-62484000D01*
X79113000Y-63800400D02*
X79113000Y-62526800D01*
X80113000Y-63800400D02*
X80113000Y-62473295D01*
X81113000Y-62520200D02*
X81102200Y-62509400D01*
X81113000Y-63800400D02*
X81113000Y-62520200D01*
X117494919Y-56788919D02*
X123748800Y-63042800D01*
X87753176Y-56788919D02*
X117494919Y-56788919D01*
X82113000Y-62429095D02*
X87753176Y-56788919D01*
X82113000Y-63800400D02*
X82113000Y-62429095D01*
X83113000Y-62462800D02*
X83108800Y-62458600D01*
X83113000Y-63800400D02*
X83113000Y-62462800D01*
X112864919Y-57238919D02*
X118668800Y-63042800D01*
X89258976Y-57238919D02*
X112864919Y-57238919D01*
X84113000Y-62384895D02*
X89258976Y-57238919D01*
X84113000Y-63800400D02*
X84113000Y-62384895D01*
X85113000Y-62507000D02*
X85064600Y-62458600D01*
X85113000Y-63800400D02*
X85113000Y-62507000D01*
X108234919Y-57688919D02*
X113588800Y-63042800D01*
X90840976Y-57688919D02*
X108234919Y-57688919D01*
X86113000Y-62416895D02*
X90840976Y-57688919D01*
X86113000Y-63800400D02*
X86113000Y-62416895D01*
X87113000Y-62475000D02*
X87096600Y-62458600D01*
X87113000Y-63800400D02*
X87113000Y-62475000D01*
X94014281Y-58588919D02*
X91113000Y-61490200D01*
X91113000Y-61490200D02*
X91113000Y-63800400D01*
X98450368Y-58588919D02*
X94014281Y-58588919D01*
X100888800Y-63042800D02*
X100888800Y-61027351D01*
X100888800Y-61027351D02*
X98450368Y-58588919D01*
X90463400Y-64800000D02*
X91113000Y-64150400D01*
X57162600Y-64800000D02*
X90463400Y-64800000D01*
X53921600Y-61559000D02*
X57162600Y-64800000D01*
X53921600Y-59362598D02*
X53921600Y-61559000D01*
X67113000Y-62600400D02*
X67113000Y-63800400D01*
X65787600Y-63475000D02*
X66113000Y-63800400D01*
X60246600Y-63475000D02*
X65787600Y-63475000D01*
G04 #@! TA.AperFunction,Conductor*
G36*
X154592153Y-53319559D02*
G01*
X154632319Y-53345432D01*
X159333695Y-57840845D01*
X161518061Y-59929516D01*
X161599378Y-60007270D01*
X161628162Y-60048820D01*
X161638300Y-60098338D01*
X161638300Y-64811300D01*
X161621419Y-64874300D01*
X161575300Y-64920419D01*
X161512300Y-64937300D01*
X98685300Y-64937300D01*
X98622300Y-64920419D01*
X98576181Y-64874300D01*
X98559300Y-64811300D01*
X98559300Y-59538735D01*
X98573033Y-59481532D01*
X98611239Y-59436799D01*
X98665589Y-59414286D01*
X98724236Y-59418902D01*
X98774395Y-59449640D01*
X100472395Y-61147640D01*
X100499709Y-61188517D01*
X100509300Y-61236735D01*
X100509300Y-61509529D01*
X100491374Y-61574306D01*
X100442696Y-61620651D01*
X100326786Y-61682605D01*
X100326776Y-61682611D01*
X100321331Y-61685522D01*
X100316558Y-61689438D01*
X100316549Y-61689445D01*
X100171326Y-61808626D01*
X100171321Y-61808630D01*
X100166548Y-61812548D01*
X100162630Y-61817321D01*
X100162626Y-61817326D01*
X100043445Y-61962549D01*
X100043438Y-61962558D01*
X100039522Y-61967331D01*
X100036611Y-61972776D01*
X100036605Y-61972786D01*
X99948050Y-62138461D01*
X99948046Y-62138468D01*
X99945133Y-62143920D01*
X99943338Y-62149835D01*
X99943335Y-62149844D01*
X99888806Y-62329601D01*
X99888804Y-62329609D01*
X99887008Y-62335531D01*
X99886401Y-62341687D01*
X99886400Y-62341696D01*
X99872603Y-62481785D01*
X99872300Y-62484866D01*
X99872300Y-63600734D01*
X99872602Y-63603806D01*
X99872603Y-63603814D01*
X99886400Y-63743903D01*
X99886401Y-63743910D01*
X99887008Y-63750069D01*
X99888804Y-63755992D01*
X99888806Y-63755998D01*
X99943335Y-63935755D01*
X99943337Y-63935760D01*
X99945133Y-63941680D01*
X99948048Y-63947134D01*
X99948050Y-63947138D01*
X100036605Y-64112813D01*
X100036608Y-64112818D01*
X100039522Y-64118269D01*
X100043442Y-64123045D01*
X100043445Y-64123050D01*
X100124840Y-64222230D01*
X100166548Y-64273052D01*
X100171326Y-64276973D01*
X100316549Y-64396154D01*
X100316551Y-64396155D01*
X100321331Y-64400078D01*
X100326784Y-64402992D01*
X100326786Y-64402994D01*
X100444037Y-64465666D01*
X100497920Y-64494467D01*
X100689531Y-64552592D01*
X100888800Y-64572218D01*
X101088069Y-64552592D01*
X101279680Y-64494467D01*
X101456269Y-64400078D01*
X101611052Y-64273052D01*
X101738078Y-64118269D01*
X101832467Y-63941680D01*
X101890592Y-63750069D01*
X101905300Y-63600734D01*
X102412300Y-63600734D01*
X102412602Y-63603806D01*
X102412603Y-63603814D01*
X102426400Y-63743903D01*
X102426401Y-63743910D01*
X102427008Y-63750069D01*
X102428804Y-63755992D01*
X102428806Y-63755998D01*
X102483335Y-63935755D01*
X102483337Y-63935760D01*
X102485133Y-63941680D01*
X102488048Y-63947134D01*
X102488050Y-63947138D01*
X102576605Y-64112813D01*
X102576608Y-64112818D01*
X102579522Y-64118269D01*
X102583442Y-64123045D01*
X102583445Y-64123050D01*
X102664840Y-64222230D01*
X102706548Y-64273052D01*
X102711326Y-64276973D01*
X102856549Y-64396154D01*
X102856551Y-64396155D01*
X102861331Y-64400078D01*
X102866784Y-64402992D01*
X102866786Y-64402994D01*
X102984037Y-64465666D01*
X103037920Y-64494467D01*
X103229531Y-64552592D01*
X103428800Y-64572218D01*
X103628069Y-64552592D01*
X103819680Y-64494467D01*
X103996269Y-64400078D01*
X104151052Y-64273052D01*
X104278078Y-64118269D01*
X104372467Y-63941680D01*
X104430592Y-63750069D01*
X104445300Y-63600734D01*
X104445300Y-63597620D01*
X104952800Y-63597620D01*
X104953103Y-63603792D01*
X104966893Y-63743805D01*
X104969299Y-63755900D01*
X105023799Y-63935564D01*
X105028514Y-63946946D01*
X105117021Y-64112532D01*
X105123865Y-64122775D01*
X105242980Y-64267917D01*
X105251682Y-64276619D01*
X105396824Y-64395734D01*
X105407067Y-64402578D01*
X105572653Y-64491085D01*
X105584035Y-64495800D01*
X105763699Y-64550300D01*
X105775794Y-64552706D01*
X105824245Y-64557478D01*
X105837970Y-64554980D01*
X105841800Y-64541569D01*
X106095800Y-64541569D01*
X106099629Y-64554980D01*
X106113354Y-64557478D01*
X106161805Y-64552706D01*
X106173900Y-64550300D01*
X106353564Y-64495800D01*
X106364946Y-64491085D01*
X106530532Y-64402578D01*
X106540775Y-64395734D01*
X106685917Y-64276619D01*
X106694619Y-64267917D01*
X106813734Y-64122775D01*
X106820578Y-64112532D01*
X106909085Y-63946946D01*
X106913800Y-63935564D01*
X106968300Y-63755900D01*
X106970706Y-63743805D01*
X106984496Y-63603792D01*
X106984800Y-63597620D01*
X106984800Y-63186390D01*
X106981293Y-63173306D01*
X106968210Y-63169800D01*
X106112390Y-63169800D01*
X106099306Y-63173306D01*
X106095800Y-63186390D01*
X106095800Y-64541569D01*
X105841800Y-64541569D01*
X105841800Y-63186390D01*
X105838293Y-63173306D01*
X105825210Y-63169800D01*
X104969390Y-63169800D01*
X104956306Y-63173306D01*
X104952800Y-63186390D01*
X104952800Y-63597620D01*
X104445300Y-63597620D01*
X104445300Y-62899210D01*
X104952800Y-62899210D01*
X104956306Y-62912293D01*
X104969390Y-62915800D01*
X105825210Y-62915800D01*
X105838293Y-62912293D01*
X105841800Y-62899210D01*
X105841800Y-61544031D01*
X105837970Y-61530619D01*
X105824245Y-61528121D01*
X105775794Y-61532893D01*
X105763699Y-61535299D01*
X105584035Y-61589799D01*
X105572653Y-61594514D01*
X105407067Y-61683021D01*
X105396824Y-61689865D01*
X105251682Y-61808980D01*
X105242980Y-61817682D01*
X105123865Y-61962824D01*
X105117021Y-61973067D01*
X105028514Y-62138653D01*
X105023799Y-62150035D01*
X104969299Y-62329699D01*
X104966893Y-62341794D01*
X104953103Y-62481807D01*
X104952800Y-62487980D01*
X104952800Y-62899210D01*
X104445300Y-62899210D01*
X104445300Y-62484866D01*
X104430592Y-62335531D01*
X104372467Y-62143920D01*
X104298159Y-62004899D01*
X104280994Y-61972786D01*
X104280992Y-61972784D01*
X104278078Y-61967331D01*
X104260946Y-61946456D01*
X104167738Y-61832880D01*
X104151052Y-61812548D01*
X104100074Y-61770712D01*
X104001050Y-61689445D01*
X104001045Y-61689442D01*
X103996269Y-61685522D01*
X103990818Y-61682608D01*
X103990813Y-61682605D01*
X103825138Y-61594050D01*
X103825134Y-61594048D01*
X103819680Y-61591133D01*
X103813760Y-61589337D01*
X103813755Y-61589335D01*
X103633998Y-61534806D01*
X103633992Y-61534804D01*
X103628069Y-61533008D01*
X103621910Y-61532401D01*
X103621903Y-61532400D01*
X103434963Y-61513989D01*
X103428800Y-61513382D01*
X103422637Y-61513989D01*
X103235696Y-61532400D01*
X103235687Y-61532401D01*
X103229531Y-61533008D01*
X103223609Y-61534804D01*
X103223601Y-61534806D01*
X103043844Y-61589335D01*
X103043835Y-61589338D01*
X103037920Y-61591133D01*
X103032468Y-61594046D01*
X103032461Y-61594050D01*
X102866786Y-61682605D01*
X102866776Y-61682611D01*
X102861331Y-61685522D01*
X102856558Y-61689438D01*
X102856549Y-61689445D01*
X102711326Y-61808626D01*
X102711321Y-61808630D01*
X102706548Y-61812548D01*
X102702630Y-61817321D01*
X102702626Y-61817326D01*
X102583445Y-61962549D01*
X102583438Y-61962558D01*
X102579522Y-61967331D01*
X102576611Y-61972776D01*
X102576605Y-61972786D01*
X102488050Y-62138461D01*
X102488046Y-62138468D01*
X102485133Y-62143920D01*
X102483338Y-62149835D01*
X102483335Y-62149844D01*
X102428806Y-62329601D01*
X102428804Y-62329609D01*
X102427008Y-62335531D01*
X102426401Y-62341687D01*
X102426400Y-62341696D01*
X102412603Y-62481785D01*
X102412300Y-62484866D01*
X102412300Y-63600734D01*
X101905300Y-63600734D01*
X101905300Y-62484866D01*
X101890592Y-62335531D01*
X101832467Y-62143920D01*
X101758159Y-62004899D01*
X101740994Y-61972786D01*
X101740992Y-61972784D01*
X101738078Y-61967331D01*
X101720946Y-61946456D01*
X101627738Y-61832880D01*
X101611052Y-61812548D01*
X101560074Y-61770712D01*
X101461050Y-61689445D01*
X101461045Y-61689442D01*
X101456269Y-61685522D01*
X101450818Y-61682608D01*
X101450813Y-61682605D01*
X101334904Y-61620651D01*
X101286226Y-61574306D01*
X101268300Y-61509529D01*
X101268300Y-61079777D01*
X101270982Y-61053918D01*
X101273219Y-61043251D01*
X101269268Y-61011555D01*
X101268941Y-61006298D01*
X101268731Y-61006316D01*
X101268300Y-61001120D01*
X101268300Y-60995908D01*
X101264839Y-60975168D01*
X101264094Y-60970052D01*
X101258843Y-60927929D01*
X101257552Y-60917569D01*
X101254022Y-60910349D01*
X101252700Y-60902424D01*
X101227527Y-60855909D01*
X101225161Y-60851312D01*
X101206511Y-60813163D01*
X101201926Y-60803783D01*
X101196241Y-60798098D01*
X101192419Y-60791035D01*
X101153514Y-60755220D01*
X101149757Y-60751614D01*
X99131657Y-58733514D01*
X99100919Y-58683355D01*
X99096303Y-58624708D01*
X99118816Y-58570358D01*
X99163549Y-58532152D01*
X99220752Y-58518419D01*
X103395535Y-58518419D01*
X103443753Y-58528010D01*
X103484630Y-58555324D01*
X106246014Y-61316708D01*
X106277493Y-61369227D01*
X106280498Y-61430384D01*
X106254319Y-61485736D01*
X106205138Y-61522212D01*
X106144570Y-61531196D01*
X106113355Y-61528121D01*
X106099629Y-61530619D01*
X106095800Y-61544031D01*
X106095800Y-62899210D01*
X106099306Y-62912293D01*
X106112390Y-62915800D01*
X106968210Y-62915800D01*
X106981293Y-62912293D01*
X106984800Y-62899210D01*
X106984800Y-62487980D01*
X106984496Y-62481810D01*
X106972403Y-62359031D01*
X106981387Y-62298463D01*
X107017862Y-62249281D01*
X107073214Y-62223101D01*
X107134372Y-62226105D01*
X107186891Y-62257585D01*
X107455395Y-62526089D01*
X107482709Y-62566966D01*
X107492300Y-62615184D01*
X107492300Y-63600734D01*
X107492602Y-63603806D01*
X107492603Y-63603814D01*
X107506400Y-63743903D01*
X107506401Y-63743910D01*
X107507008Y-63750069D01*
X107508804Y-63755992D01*
X107508806Y-63755998D01*
X107563335Y-63935755D01*
X107563337Y-63935760D01*
X107565133Y-63941680D01*
X107568048Y-63947134D01*
X107568050Y-63947138D01*
X107656605Y-64112813D01*
X107656608Y-64112818D01*
X107659522Y-64118269D01*
X107663442Y-64123045D01*
X107663445Y-64123050D01*
X107744840Y-64222230D01*
X107786548Y-64273052D01*
X107791326Y-64276973D01*
X107936549Y-64396154D01*
X107936551Y-64396155D01*
X107941331Y-64400078D01*
X107946784Y-64402992D01*
X107946786Y-64402994D01*
X108064037Y-64465666D01*
X108117920Y-64494467D01*
X108309531Y-64552592D01*
X108508800Y-64572218D01*
X108708069Y-64552592D01*
X108899680Y-64494467D01*
X109076269Y-64400078D01*
X109231052Y-64273052D01*
X109358078Y-64118269D01*
X109452467Y-63941680D01*
X109510592Y-63750069D01*
X109525300Y-63600734D01*
X109525300Y-62484866D01*
X109510592Y-62335531D01*
X109452467Y-62143920D01*
X109378159Y-62004899D01*
X109360994Y-61972786D01*
X109360992Y-61972784D01*
X109358078Y-61967331D01*
X109340946Y-61946456D01*
X109247738Y-61832880D01*
X109231052Y-61812548D01*
X109180074Y-61770712D01*
X109081050Y-61689445D01*
X109081045Y-61689442D01*
X109076269Y-61685522D01*
X109070818Y-61682608D01*
X109070813Y-61682605D01*
X108905138Y-61594050D01*
X108905134Y-61594048D01*
X108899680Y-61591133D01*
X108893760Y-61589337D01*
X108893755Y-61589335D01*
X108713998Y-61534806D01*
X108713992Y-61534804D01*
X108708069Y-61533008D01*
X108701910Y-61532401D01*
X108701903Y-61532400D01*
X108514963Y-61513989D01*
X108508800Y-61513382D01*
X108502637Y-61513989D01*
X108315696Y-61532400D01*
X108315687Y-61532401D01*
X108309531Y-61533008D01*
X108303609Y-61534804D01*
X108303601Y-61534806D01*
X108123844Y-61589335D01*
X108123835Y-61589338D01*
X108117920Y-61591133D01*
X108112468Y-61594046D01*
X108112461Y-61594050D01*
X107946786Y-61682605D01*
X107946776Y-61682611D01*
X107941331Y-61685522D01*
X107936554Y-61689442D01*
X107936544Y-61689449D01*
X107890582Y-61727168D01*
X107835230Y-61753346D01*
X107774074Y-61750341D01*
X107721556Y-61718862D01*
X104286208Y-58283514D01*
X104255470Y-58233355D01*
X104250854Y-58174708D01*
X104273367Y-58120358D01*
X104318100Y-58082152D01*
X104375303Y-58068419D01*
X108025535Y-58068419D01*
X108073753Y-58078010D01*
X108114630Y-58105324D01*
X111325456Y-61316150D01*
X111356935Y-61368669D01*
X111359940Y-61429826D01*
X111333761Y-61485178D01*
X111284580Y-61521654D01*
X111224011Y-61530638D01*
X111054963Y-61513989D01*
X111048800Y-61513382D01*
X111042637Y-61513989D01*
X110855696Y-61532400D01*
X110855687Y-61532401D01*
X110849531Y-61533008D01*
X110843609Y-61534804D01*
X110843601Y-61534806D01*
X110663844Y-61589335D01*
X110663835Y-61589338D01*
X110657920Y-61591133D01*
X110652468Y-61594046D01*
X110652461Y-61594050D01*
X110486786Y-61682605D01*
X110486776Y-61682611D01*
X110481331Y-61685522D01*
X110476558Y-61689438D01*
X110476549Y-61689445D01*
X110331326Y-61808626D01*
X110331321Y-61808630D01*
X110326548Y-61812548D01*
X110322630Y-61817321D01*
X110322626Y-61817326D01*
X110203445Y-61962549D01*
X110203438Y-61962558D01*
X110199522Y-61967331D01*
X110196611Y-61972776D01*
X110196605Y-61972786D01*
X110108050Y-62138461D01*
X110108046Y-62138468D01*
X110105133Y-62143920D01*
X110103338Y-62149835D01*
X110103335Y-62149844D01*
X110048806Y-62329601D01*
X110048804Y-62329609D01*
X110047008Y-62335531D01*
X110046401Y-62341687D01*
X110046400Y-62341696D01*
X110032603Y-62481785D01*
X110032300Y-62484866D01*
X110032300Y-63600734D01*
X110032602Y-63603806D01*
X110032603Y-63603814D01*
X110046400Y-63743903D01*
X110046401Y-63743910D01*
X110047008Y-63750069D01*
X110048804Y-63755992D01*
X110048806Y-63755998D01*
X110103335Y-63935755D01*
X110103337Y-63935760D01*
X110105133Y-63941680D01*
X110108048Y-63947134D01*
X110108050Y-63947138D01*
X110196605Y-64112813D01*
X110196608Y-64112818D01*
X110199522Y-64118269D01*
X110203442Y-64123045D01*
X110203445Y-64123050D01*
X110284840Y-64222230D01*
X110326548Y-64273052D01*
X110331326Y-64276973D01*
X110476549Y-64396154D01*
X110476551Y-64396155D01*
X110481331Y-64400078D01*
X110486784Y-64402992D01*
X110486786Y-64402994D01*
X110604037Y-64465666D01*
X110657920Y-64494467D01*
X110849531Y-64552592D01*
X111048800Y-64572218D01*
X111248069Y-64552592D01*
X111439680Y-64494467D01*
X111616269Y-64400078D01*
X111771052Y-64273052D01*
X111898078Y-64118269D01*
X111992467Y-63941680D01*
X112050592Y-63750069D01*
X112065300Y-63600734D01*
X112065300Y-62484866D01*
X112052961Y-62359586D01*
X112061945Y-62299020D01*
X112098420Y-62249839D01*
X112153773Y-62223659D01*
X112214930Y-62226664D01*
X112267449Y-62258143D01*
X112535395Y-62526089D01*
X112562709Y-62566966D01*
X112572300Y-62615184D01*
X112572300Y-63600734D01*
X112572602Y-63603806D01*
X112572603Y-63603814D01*
X112586400Y-63743903D01*
X112586401Y-63743910D01*
X112587008Y-63750069D01*
X112588804Y-63755992D01*
X112588806Y-63755998D01*
X112643335Y-63935755D01*
X112643337Y-63935760D01*
X112645133Y-63941680D01*
X112648048Y-63947134D01*
X112648050Y-63947138D01*
X112736605Y-64112813D01*
X112736608Y-64112818D01*
X112739522Y-64118269D01*
X112743442Y-64123045D01*
X112743445Y-64123050D01*
X112824840Y-64222230D01*
X112866548Y-64273052D01*
X112871326Y-64276973D01*
X113016549Y-64396154D01*
X113016551Y-64396155D01*
X113021331Y-64400078D01*
X113026784Y-64402992D01*
X113026786Y-64402994D01*
X113144037Y-64465666D01*
X113197920Y-64494467D01*
X113389531Y-64552592D01*
X113588800Y-64572218D01*
X113788069Y-64552592D01*
X113979680Y-64494467D01*
X114156269Y-64400078D01*
X114311052Y-64273052D01*
X114438078Y-64118269D01*
X114532467Y-63941680D01*
X114590592Y-63750069D01*
X114605300Y-63600734D01*
X114605300Y-62484866D01*
X114590592Y-62335531D01*
X114532467Y-62143920D01*
X114458159Y-62004899D01*
X114440994Y-61972786D01*
X114440992Y-61972784D01*
X114438078Y-61967331D01*
X114420946Y-61946456D01*
X114327738Y-61832880D01*
X114311052Y-61812548D01*
X114260074Y-61770712D01*
X114161050Y-61689445D01*
X114161045Y-61689442D01*
X114156269Y-61685522D01*
X114150818Y-61682608D01*
X114150813Y-61682605D01*
X113985138Y-61594050D01*
X113985134Y-61594048D01*
X113979680Y-61591133D01*
X113973760Y-61589337D01*
X113973755Y-61589335D01*
X113793998Y-61534806D01*
X113793992Y-61534804D01*
X113788069Y-61533008D01*
X113781910Y-61532401D01*
X113781903Y-61532400D01*
X113594963Y-61513989D01*
X113588800Y-61513382D01*
X113582637Y-61513989D01*
X113395696Y-61532400D01*
X113395687Y-61532401D01*
X113389531Y-61533008D01*
X113383609Y-61534804D01*
X113383601Y-61534806D01*
X113203844Y-61589335D01*
X113203835Y-61589338D01*
X113197920Y-61591133D01*
X113192468Y-61594046D01*
X113192461Y-61594050D01*
X113026786Y-61682605D01*
X113026776Y-61682611D01*
X113021331Y-61685522D01*
X113016554Y-61689442D01*
X113016544Y-61689449D01*
X112970582Y-61727168D01*
X112915230Y-61753346D01*
X112854074Y-61750341D01*
X112801556Y-61718862D01*
X108916208Y-57833514D01*
X108885470Y-57783355D01*
X108880854Y-57724708D01*
X108903367Y-57670358D01*
X108948100Y-57632152D01*
X109005303Y-57618419D01*
X112655535Y-57618419D01*
X112703753Y-57628010D01*
X112744630Y-57655324D01*
X116405456Y-61316150D01*
X116436935Y-61368669D01*
X116439940Y-61429826D01*
X116413761Y-61485178D01*
X116364580Y-61521654D01*
X116304011Y-61530638D01*
X116134963Y-61513989D01*
X116128800Y-61513382D01*
X116122637Y-61513989D01*
X115935696Y-61532400D01*
X115935687Y-61532401D01*
X115929531Y-61533008D01*
X115923609Y-61534804D01*
X115923601Y-61534806D01*
X115743844Y-61589335D01*
X115743835Y-61589338D01*
X115737920Y-61591133D01*
X115732468Y-61594046D01*
X115732461Y-61594050D01*
X115566786Y-61682605D01*
X115566776Y-61682611D01*
X115561331Y-61685522D01*
X115556558Y-61689438D01*
X115556549Y-61689445D01*
X115411326Y-61808626D01*
X115411321Y-61808630D01*
X115406548Y-61812548D01*
X115402630Y-61817321D01*
X115402626Y-61817326D01*
X115283445Y-61962549D01*
X115283438Y-61962558D01*
X115279522Y-61967331D01*
X115276611Y-61972776D01*
X115276605Y-61972786D01*
X115188050Y-62138461D01*
X115188046Y-62138468D01*
X115185133Y-62143920D01*
X115183338Y-62149835D01*
X115183335Y-62149844D01*
X115128806Y-62329601D01*
X115128804Y-62329609D01*
X115127008Y-62335531D01*
X115126401Y-62341687D01*
X115126400Y-62341696D01*
X115112603Y-62481785D01*
X115112300Y-62484866D01*
X115112300Y-63600734D01*
X115112602Y-63603806D01*
X115112603Y-63603814D01*
X115126400Y-63743903D01*
X115126401Y-63743910D01*
X115127008Y-63750069D01*
X115128804Y-63755992D01*
X115128806Y-63755998D01*
X115183335Y-63935755D01*
X115183337Y-63935760D01*
X115185133Y-63941680D01*
X115188048Y-63947134D01*
X115188050Y-63947138D01*
X115276605Y-64112813D01*
X115276608Y-64112818D01*
X115279522Y-64118269D01*
X115283442Y-64123045D01*
X115283445Y-64123050D01*
X115364840Y-64222230D01*
X115406548Y-64273052D01*
X115411326Y-64276973D01*
X115556549Y-64396154D01*
X115556551Y-64396155D01*
X115561331Y-64400078D01*
X115566784Y-64402992D01*
X115566786Y-64402994D01*
X115684037Y-64465666D01*
X115737920Y-64494467D01*
X115929531Y-64552592D01*
X116128800Y-64572218D01*
X116328069Y-64552592D01*
X116519680Y-64494467D01*
X116696269Y-64400078D01*
X116851052Y-64273052D01*
X116978078Y-64118269D01*
X117072467Y-63941680D01*
X117130592Y-63750069D01*
X117145300Y-63600734D01*
X117145300Y-62484866D01*
X117132961Y-62359586D01*
X117141945Y-62299020D01*
X117178420Y-62249839D01*
X117233773Y-62223659D01*
X117294930Y-62226664D01*
X117347449Y-62258143D01*
X117615395Y-62526089D01*
X117642709Y-62566966D01*
X117652300Y-62615184D01*
X117652300Y-63600734D01*
X117652602Y-63603806D01*
X117652603Y-63603814D01*
X117666400Y-63743903D01*
X117666401Y-63743910D01*
X117667008Y-63750069D01*
X117668804Y-63755992D01*
X117668806Y-63755998D01*
X117723335Y-63935755D01*
X117723337Y-63935760D01*
X117725133Y-63941680D01*
X117728048Y-63947134D01*
X117728050Y-63947138D01*
X117816605Y-64112813D01*
X117816608Y-64112818D01*
X117819522Y-64118269D01*
X117823442Y-64123045D01*
X117823445Y-64123050D01*
X117904840Y-64222230D01*
X117946548Y-64273052D01*
X117951326Y-64276973D01*
X118096549Y-64396154D01*
X118096551Y-64396155D01*
X118101331Y-64400078D01*
X118106784Y-64402992D01*
X118106786Y-64402994D01*
X118224037Y-64465666D01*
X118277920Y-64494467D01*
X118469531Y-64552592D01*
X118668800Y-64572218D01*
X118868069Y-64552592D01*
X119059680Y-64494467D01*
X119236269Y-64400078D01*
X119391052Y-64273052D01*
X119518078Y-64118269D01*
X119612467Y-63941680D01*
X119670592Y-63750069D01*
X119685300Y-63600734D01*
X119685300Y-62484866D01*
X119670592Y-62335531D01*
X119612467Y-62143920D01*
X119538159Y-62004899D01*
X119520994Y-61972786D01*
X119520992Y-61972784D01*
X119518078Y-61967331D01*
X119500946Y-61946456D01*
X119407738Y-61832880D01*
X119391052Y-61812548D01*
X119340074Y-61770712D01*
X119241050Y-61689445D01*
X119241045Y-61689442D01*
X119236269Y-61685522D01*
X119230818Y-61682608D01*
X119230813Y-61682605D01*
X119065138Y-61594050D01*
X119065134Y-61594048D01*
X119059680Y-61591133D01*
X119053760Y-61589337D01*
X119053755Y-61589335D01*
X118873998Y-61534806D01*
X118873992Y-61534804D01*
X118868069Y-61533008D01*
X118861910Y-61532401D01*
X118861903Y-61532400D01*
X118674963Y-61513989D01*
X118668800Y-61513382D01*
X118662637Y-61513989D01*
X118475696Y-61532400D01*
X118475687Y-61532401D01*
X118469531Y-61533008D01*
X118463609Y-61534804D01*
X118463601Y-61534806D01*
X118283844Y-61589335D01*
X118283835Y-61589338D01*
X118277920Y-61591133D01*
X118272468Y-61594046D01*
X118272461Y-61594050D01*
X118106786Y-61682605D01*
X118106776Y-61682611D01*
X118101331Y-61685522D01*
X118096554Y-61689442D01*
X118096544Y-61689449D01*
X118050582Y-61727168D01*
X117995230Y-61753346D01*
X117934074Y-61750341D01*
X117881556Y-61718862D01*
X113546208Y-57383514D01*
X113515470Y-57333355D01*
X113510854Y-57274708D01*
X113533367Y-57220358D01*
X113578100Y-57182152D01*
X113635303Y-57168419D01*
X117285535Y-57168419D01*
X117333753Y-57178010D01*
X117374630Y-57205324D01*
X121485456Y-61316150D01*
X121516935Y-61368669D01*
X121519940Y-61429826D01*
X121493761Y-61485178D01*
X121444580Y-61521654D01*
X121384011Y-61530638D01*
X121214963Y-61513989D01*
X121208800Y-61513382D01*
X121202637Y-61513989D01*
X121015696Y-61532400D01*
X121015687Y-61532401D01*
X121009531Y-61533008D01*
X121003609Y-61534804D01*
X121003601Y-61534806D01*
X120823844Y-61589335D01*
X120823835Y-61589338D01*
X120817920Y-61591133D01*
X120812468Y-61594046D01*
X120812461Y-61594050D01*
X120646786Y-61682605D01*
X120646776Y-61682611D01*
X120641331Y-61685522D01*
X120636558Y-61689438D01*
X120636549Y-61689445D01*
X120491326Y-61808626D01*
X120491321Y-61808630D01*
X120486548Y-61812548D01*
X120482630Y-61817321D01*
X120482626Y-61817326D01*
X120363445Y-61962549D01*
X120363438Y-61962558D01*
X120359522Y-61967331D01*
X120356611Y-61972776D01*
X120356605Y-61972786D01*
X120268050Y-62138461D01*
X120268046Y-62138468D01*
X120265133Y-62143920D01*
X120263338Y-62149835D01*
X120263335Y-62149844D01*
X120208806Y-62329601D01*
X120208804Y-62329609D01*
X120207008Y-62335531D01*
X120206401Y-62341687D01*
X120206400Y-62341696D01*
X120192603Y-62481785D01*
X120192300Y-62484866D01*
X120192300Y-63600734D01*
X120192602Y-63603806D01*
X120192603Y-63603814D01*
X120206400Y-63743903D01*
X120206401Y-63743910D01*
X120207008Y-63750069D01*
X120208804Y-63755992D01*
X120208806Y-63755998D01*
X120263335Y-63935755D01*
X120263337Y-63935760D01*
X120265133Y-63941680D01*
X120268048Y-63947134D01*
X120268050Y-63947138D01*
X120356605Y-64112813D01*
X120356608Y-64112818D01*
X120359522Y-64118269D01*
X120363442Y-64123045D01*
X120363445Y-64123050D01*
X120444840Y-64222230D01*
X120486548Y-64273052D01*
X120491326Y-64276973D01*
X120636549Y-64396154D01*
X120636551Y-64396155D01*
X120641331Y-64400078D01*
X120646784Y-64402992D01*
X120646786Y-64402994D01*
X120764037Y-64465666D01*
X120817920Y-64494467D01*
X121009531Y-64552592D01*
X121208800Y-64572218D01*
X121408069Y-64552592D01*
X121599680Y-64494467D01*
X121776269Y-64400078D01*
X121931052Y-64273052D01*
X122058078Y-64118269D01*
X122152467Y-63941680D01*
X122210592Y-63750069D01*
X122225300Y-63600734D01*
X122225300Y-62484866D01*
X122212961Y-62359586D01*
X122221945Y-62299020D01*
X122258420Y-62249839D01*
X122313773Y-62223659D01*
X122374930Y-62226664D01*
X122427449Y-62258143D01*
X122695395Y-62526089D01*
X122722709Y-62566966D01*
X122732300Y-62615184D01*
X122732300Y-63600734D01*
X122732602Y-63603806D01*
X122732603Y-63603814D01*
X122746400Y-63743903D01*
X122746401Y-63743910D01*
X122747008Y-63750069D01*
X122748804Y-63755992D01*
X122748806Y-63755998D01*
X122803335Y-63935755D01*
X122803337Y-63935760D01*
X122805133Y-63941680D01*
X122808048Y-63947134D01*
X122808050Y-63947138D01*
X122896605Y-64112813D01*
X122896608Y-64112818D01*
X122899522Y-64118269D01*
X122903442Y-64123045D01*
X122903445Y-64123050D01*
X122984840Y-64222230D01*
X123026548Y-64273052D01*
X123031326Y-64276973D01*
X123176549Y-64396154D01*
X123176551Y-64396155D01*
X123181331Y-64400078D01*
X123186784Y-64402992D01*
X123186786Y-64402994D01*
X123304037Y-64465666D01*
X123357920Y-64494467D01*
X123549531Y-64552592D01*
X123748800Y-64572218D01*
X123948069Y-64552592D01*
X124139680Y-64494467D01*
X124316269Y-64400078D01*
X124471052Y-64273052D01*
X124598078Y-64118269D01*
X124692467Y-63941680D01*
X124750592Y-63750069D01*
X124765300Y-63600734D01*
X124765300Y-62484866D01*
X124750592Y-62335531D01*
X124692467Y-62143920D01*
X124618159Y-62004899D01*
X124600994Y-61972786D01*
X124600992Y-61972784D01*
X124598078Y-61967331D01*
X124580946Y-61946456D01*
X124487738Y-61832880D01*
X124471052Y-61812548D01*
X124420074Y-61770712D01*
X124321050Y-61689445D01*
X124321045Y-61689442D01*
X124316269Y-61685522D01*
X124310818Y-61682608D01*
X124310813Y-61682605D01*
X124145138Y-61594050D01*
X124145134Y-61594048D01*
X124139680Y-61591133D01*
X124133760Y-61589337D01*
X124133755Y-61589335D01*
X123953998Y-61534806D01*
X123953992Y-61534804D01*
X123948069Y-61533008D01*
X123941910Y-61532401D01*
X123941903Y-61532400D01*
X123754963Y-61513989D01*
X123748800Y-61513382D01*
X123742637Y-61513989D01*
X123555696Y-61532400D01*
X123555687Y-61532401D01*
X123549531Y-61533008D01*
X123543609Y-61534804D01*
X123543601Y-61534806D01*
X123363844Y-61589335D01*
X123363835Y-61589338D01*
X123357920Y-61591133D01*
X123352468Y-61594046D01*
X123352461Y-61594050D01*
X123186786Y-61682605D01*
X123186776Y-61682611D01*
X123181331Y-61685522D01*
X123176554Y-61689442D01*
X123176544Y-61689449D01*
X123130582Y-61727168D01*
X123075230Y-61753346D01*
X123014074Y-61750341D01*
X122961556Y-61718862D01*
X118176208Y-56933514D01*
X118145470Y-56883355D01*
X118140854Y-56824708D01*
X118163367Y-56770358D01*
X118208100Y-56732152D01*
X118265303Y-56718419D01*
X121915535Y-56718419D01*
X121963753Y-56728010D01*
X122004630Y-56755324D01*
X126565456Y-61316150D01*
X126596935Y-61368669D01*
X126599940Y-61429826D01*
X126573761Y-61485178D01*
X126524580Y-61521654D01*
X126464011Y-61530638D01*
X126294963Y-61513989D01*
X126288800Y-61513382D01*
X126282637Y-61513989D01*
X126095696Y-61532400D01*
X126095687Y-61532401D01*
X126089531Y-61533008D01*
X126083609Y-61534804D01*
X126083601Y-61534806D01*
X125903844Y-61589335D01*
X125903835Y-61589338D01*
X125897920Y-61591133D01*
X125892468Y-61594046D01*
X125892461Y-61594050D01*
X125726786Y-61682605D01*
X125726776Y-61682611D01*
X125721331Y-61685522D01*
X125716558Y-61689438D01*
X125716549Y-61689445D01*
X125571326Y-61808626D01*
X125571321Y-61808630D01*
X125566548Y-61812548D01*
X125562630Y-61817321D01*
X125562626Y-61817326D01*
X125443445Y-61962549D01*
X125443438Y-61962558D01*
X125439522Y-61967331D01*
X125436611Y-61972776D01*
X125436605Y-61972786D01*
X125348050Y-62138461D01*
X125348046Y-62138468D01*
X125345133Y-62143920D01*
X125343338Y-62149835D01*
X125343335Y-62149844D01*
X125288806Y-62329601D01*
X125288804Y-62329609D01*
X125287008Y-62335531D01*
X125286401Y-62341687D01*
X125286400Y-62341696D01*
X125272603Y-62481785D01*
X125272300Y-62484866D01*
X125272300Y-63600734D01*
X125272602Y-63603806D01*
X125272603Y-63603814D01*
X125286400Y-63743903D01*
X125286401Y-63743910D01*
X125287008Y-63750069D01*
X125288804Y-63755992D01*
X125288806Y-63755998D01*
X125343335Y-63935755D01*
X125343337Y-63935760D01*
X125345133Y-63941680D01*
X125348048Y-63947134D01*
X125348050Y-63947138D01*
X125436605Y-64112813D01*
X125436608Y-64112818D01*
X125439522Y-64118269D01*
X125443442Y-64123045D01*
X125443445Y-64123050D01*
X125524840Y-64222230D01*
X125566548Y-64273052D01*
X125571326Y-64276973D01*
X125716549Y-64396154D01*
X125716551Y-64396155D01*
X125721331Y-64400078D01*
X125726784Y-64402992D01*
X125726786Y-64402994D01*
X125844037Y-64465666D01*
X125897920Y-64494467D01*
X126089531Y-64552592D01*
X126288800Y-64572218D01*
X126488069Y-64552592D01*
X126679680Y-64494467D01*
X126856269Y-64400078D01*
X127011052Y-64273052D01*
X127138078Y-64118269D01*
X127232467Y-63941680D01*
X127290592Y-63750069D01*
X127305300Y-63600734D01*
X127305300Y-62484866D01*
X127292961Y-62359586D01*
X127301945Y-62299020D01*
X127338420Y-62249839D01*
X127393773Y-62223659D01*
X127454930Y-62226664D01*
X127507449Y-62258143D01*
X127775395Y-62526089D01*
X127802709Y-62566966D01*
X127812300Y-62615184D01*
X127812300Y-63600734D01*
X127812602Y-63603806D01*
X127812603Y-63603814D01*
X127826400Y-63743903D01*
X127826401Y-63743910D01*
X127827008Y-63750069D01*
X127828804Y-63755992D01*
X127828806Y-63755998D01*
X127883335Y-63935755D01*
X127883337Y-63935760D01*
X127885133Y-63941680D01*
X127888048Y-63947134D01*
X127888050Y-63947138D01*
X127976605Y-64112813D01*
X127976608Y-64112818D01*
X127979522Y-64118269D01*
X127983442Y-64123045D01*
X127983445Y-64123050D01*
X128064840Y-64222230D01*
X128106548Y-64273052D01*
X128111326Y-64276973D01*
X128256549Y-64396154D01*
X128256551Y-64396155D01*
X128261331Y-64400078D01*
X128266784Y-64402992D01*
X128266786Y-64402994D01*
X128384037Y-64465666D01*
X128437920Y-64494467D01*
X128629531Y-64552592D01*
X128828800Y-64572218D01*
X129028069Y-64552592D01*
X129219680Y-64494467D01*
X129396269Y-64400078D01*
X129551052Y-64273052D01*
X129678078Y-64118269D01*
X129772467Y-63941680D01*
X129830592Y-63750069D01*
X129845300Y-63600734D01*
X129845300Y-62484866D01*
X129830592Y-62335531D01*
X129772467Y-62143920D01*
X129698159Y-62004899D01*
X129680994Y-61972786D01*
X129680992Y-61972784D01*
X129678078Y-61967331D01*
X129660946Y-61946456D01*
X129567738Y-61832880D01*
X129551052Y-61812548D01*
X129500074Y-61770712D01*
X129401050Y-61689445D01*
X129401045Y-61689442D01*
X129396269Y-61685522D01*
X129390818Y-61682608D01*
X129390813Y-61682605D01*
X129225138Y-61594050D01*
X129225134Y-61594048D01*
X129219680Y-61591133D01*
X129213760Y-61589337D01*
X129213755Y-61589335D01*
X129033998Y-61534806D01*
X129033992Y-61534804D01*
X129028069Y-61533008D01*
X129021910Y-61532401D01*
X129021903Y-61532400D01*
X128834963Y-61513989D01*
X128828800Y-61513382D01*
X128822637Y-61513989D01*
X128635696Y-61532400D01*
X128635687Y-61532401D01*
X128629531Y-61533008D01*
X128623609Y-61534804D01*
X128623601Y-61534806D01*
X128443844Y-61589335D01*
X128443835Y-61589338D01*
X128437920Y-61591133D01*
X128432468Y-61594046D01*
X128432461Y-61594050D01*
X128266786Y-61682605D01*
X128266776Y-61682611D01*
X128261331Y-61685522D01*
X128256554Y-61689442D01*
X128256544Y-61689449D01*
X128210582Y-61727168D01*
X128155230Y-61753346D01*
X128094074Y-61750341D01*
X128041556Y-61718862D01*
X122806208Y-56483514D01*
X122775470Y-56433355D01*
X122770854Y-56374708D01*
X122793367Y-56320358D01*
X122838100Y-56282152D01*
X122895303Y-56268419D01*
X126545535Y-56268419D01*
X126593753Y-56278010D01*
X126634630Y-56305324D01*
X131645456Y-61316150D01*
X131676935Y-61368669D01*
X131679940Y-61429826D01*
X131653761Y-61485178D01*
X131604580Y-61521654D01*
X131544011Y-61530638D01*
X131374963Y-61513989D01*
X131368800Y-61513382D01*
X131362637Y-61513989D01*
X131175696Y-61532400D01*
X131175687Y-61532401D01*
X131169531Y-61533008D01*
X131163609Y-61534804D01*
X131163601Y-61534806D01*
X130983844Y-61589335D01*
X130983835Y-61589338D01*
X130977920Y-61591133D01*
X130972468Y-61594046D01*
X130972461Y-61594050D01*
X130806786Y-61682605D01*
X130806776Y-61682611D01*
X130801331Y-61685522D01*
X130796558Y-61689438D01*
X130796549Y-61689445D01*
X130651326Y-61808626D01*
X130651321Y-61808630D01*
X130646548Y-61812548D01*
X130642630Y-61817321D01*
X130642626Y-61817326D01*
X130523445Y-61962549D01*
X130523438Y-61962558D01*
X130519522Y-61967331D01*
X130516611Y-61972776D01*
X130516605Y-61972786D01*
X130428050Y-62138461D01*
X130428046Y-62138468D01*
X130425133Y-62143920D01*
X130423338Y-62149835D01*
X130423335Y-62149844D01*
X130368806Y-62329601D01*
X130368804Y-62329609D01*
X130367008Y-62335531D01*
X130366401Y-62341687D01*
X130366400Y-62341696D01*
X130352603Y-62481785D01*
X130352300Y-62484866D01*
X130352300Y-63600734D01*
X130352602Y-63603806D01*
X130352603Y-63603814D01*
X130366400Y-63743903D01*
X130366401Y-63743910D01*
X130367008Y-63750069D01*
X130368804Y-63755992D01*
X130368806Y-63755998D01*
X130423335Y-63935755D01*
X130423337Y-63935760D01*
X130425133Y-63941680D01*
X130428048Y-63947134D01*
X130428050Y-63947138D01*
X130516605Y-64112813D01*
X130516608Y-64112818D01*
X130519522Y-64118269D01*
X130523442Y-64123045D01*
X130523445Y-64123050D01*
X130604840Y-64222230D01*
X130646548Y-64273052D01*
X130651326Y-64276973D01*
X130796549Y-64396154D01*
X130796551Y-64396155D01*
X130801331Y-64400078D01*
X130806784Y-64402992D01*
X130806786Y-64402994D01*
X130924037Y-64465666D01*
X130977920Y-64494467D01*
X131169531Y-64552592D01*
X131368800Y-64572218D01*
X131568069Y-64552592D01*
X131759680Y-64494467D01*
X131936269Y-64400078D01*
X132091052Y-64273052D01*
X132218078Y-64118269D01*
X132312467Y-63941680D01*
X132370592Y-63750069D01*
X132385300Y-63600734D01*
X132385300Y-62484866D01*
X132372961Y-62359586D01*
X132381945Y-62299020D01*
X132418420Y-62249839D01*
X132473773Y-62223659D01*
X132534930Y-62226664D01*
X132587449Y-62258143D01*
X132855395Y-62526089D01*
X132882709Y-62566966D01*
X132892300Y-62615184D01*
X132892300Y-63600734D01*
X132892602Y-63603806D01*
X132892603Y-63603814D01*
X132906400Y-63743903D01*
X132906401Y-63743910D01*
X132907008Y-63750069D01*
X132908804Y-63755992D01*
X132908806Y-63755998D01*
X132963335Y-63935755D01*
X132963337Y-63935760D01*
X132965133Y-63941680D01*
X132968048Y-63947134D01*
X132968050Y-63947138D01*
X133056605Y-64112813D01*
X133056608Y-64112818D01*
X133059522Y-64118269D01*
X133063442Y-64123045D01*
X133063445Y-64123050D01*
X133144840Y-64222230D01*
X133186548Y-64273052D01*
X133191326Y-64276973D01*
X133336549Y-64396154D01*
X133336551Y-64396155D01*
X133341331Y-64400078D01*
X133346784Y-64402992D01*
X133346786Y-64402994D01*
X133464037Y-64465666D01*
X133517920Y-64494467D01*
X133709531Y-64552592D01*
X133908800Y-64572218D01*
X134108069Y-64552592D01*
X134299680Y-64494467D01*
X134476269Y-64400078D01*
X134631052Y-64273052D01*
X134758078Y-64118269D01*
X134852467Y-63941680D01*
X134910592Y-63750069D01*
X134925300Y-63600734D01*
X134925300Y-62484866D01*
X134910592Y-62335531D01*
X134852467Y-62143920D01*
X134778159Y-62004899D01*
X134760994Y-61972786D01*
X134760992Y-61972784D01*
X134758078Y-61967331D01*
X134740946Y-61946456D01*
X134647738Y-61832880D01*
X134631052Y-61812548D01*
X134580074Y-61770712D01*
X134481050Y-61689445D01*
X134481045Y-61689442D01*
X134476269Y-61685522D01*
X134470818Y-61682608D01*
X134470813Y-61682605D01*
X134305138Y-61594050D01*
X134305134Y-61594048D01*
X134299680Y-61591133D01*
X134293760Y-61589337D01*
X134293755Y-61589335D01*
X134113998Y-61534806D01*
X134113992Y-61534804D01*
X134108069Y-61533008D01*
X134101910Y-61532401D01*
X134101903Y-61532400D01*
X133914963Y-61513989D01*
X133908800Y-61513382D01*
X133902637Y-61513989D01*
X133715696Y-61532400D01*
X133715687Y-61532401D01*
X133709531Y-61533008D01*
X133703609Y-61534804D01*
X133703601Y-61534806D01*
X133523844Y-61589335D01*
X133523835Y-61589338D01*
X133517920Y-61591133D01*
X133512468Y-61594046D01*
X133512461Y-61594050D01*
X133346786Y-61682605D01*
X133346776Y-61682611D01*
X133341331Y-61685522D01*
X133336554Y-61689442D01*
X133336544Y-61689449D01*
X133290582Y-61727168D01*
X133235230Y-61753346D01*
X133174074Y-61750341D01*
X133121556Y-61718862D01*
X127436208Y-56033514D01*
X127405470Y-55983355D01*
X127400854Y-55924708D01*
X127423367Y-55870358D01*
X127468100Y-55832152D01*
X127525303Y-55818419D01*
X131175535Y-55818419D01*
X131223753Y-55828010D01*
X131264630Y-55855324D01*
X136725456Y-61316150D01*
X136756935Y-61368669D01*
X136759940Y-61429826D01*
X136733761Y-61485178D01*
X136684580Y-61521654D01*
X136624011Y-61530638D01*
X136454963Y-61513989D01*
X136448800Y-61513382D01*
X136442637Y-61513989D01*
X136255696Y-61532400D01*
X136255687Y-61532401D01*
X136249531Y-61533008D01*
X136243609Y-61534804D01*
X136243601Y-61534806D01*
X136063844Y-61589335D01*
X136063835Y-61589338D01*
X136057920Y-61591133D01*
X136052468Y-61594046D01*
X136052461Y-61594050D01*
X135886786Y-61682605D01*
X135886776Y-61682611D01*
X135881331Y-61685522D01*
X135876558Y-61689438D01*
X135876549Y-61689445D01*
X135731326Y-61808626D01*
X135731321Y-61808630D01*
X135726548Y-61812548D01*
X135722630Y-61817321D01*
X135722626Y-61817326D01*
X135603445Y-61962549D01*
X135603438Y-61962558D01*
X135599522Y-61967331D01*
X135596611Y-61972776D01*
X135596605Y-61972786D01*
X135508050Y-62138461D01*
X135508046Y-62138468D01*
X135505133Y-62143920D01*
X135503338Y-62149835D01*
X135503335Y-62149844D01*
X135448806Y-62329601D01*
X135448804Y-62329609D01*
X135447008Y-62335531D01*
X135446401Y-62341687D01*
X135446400Y-62341696D01*
X135432603Y-62481785D01*
X135432300Y-62484866D01*
X135432300Y-63600734D01*
X135432602Y-63603806D01*
X135432603Y-63603814D01*
X135446400Y-63743903D01*
X135446401Y-63743910D01*
X135447008Y-63750069D01*
X135448804Y-63755992D01*
X135448806Y-63755998D01*
X135503335Y-63935755D01*
X135503337Y-63935760D01*
X135505133Y-63941680D01*
X135508048Y-63947134D01*
X135508050Y-63947138D01*
X135596605Y-64112813D01*
X135596608Y-64112818D01*
X135599522Y-64118269D01*
X135603442Y-64123045D01*
X135603445Y-64123050D01*
X135684840Y-64222230D01*
X135726548Y-64273052D01*
X135731326Y-64276973D01*
X135876549Y-64396154D01*
X135876551Y-64396155D01*
X135881331Y-64400078D01*
X135886784Y-64402992D01*
X135886786Y-64402994D01*
X136004037Y-64465666D01*
X136057920Y-64494467D01*
X136249531Y-64552592D01*
X136448800Y-64572218D01*
X136648069Y-64552592D01*
X136839680Y-64494467D01*
X137016269Y-64400078D01*
X137171052Y-64273052D01*
X137298078Y-64118269D01*
X137392467Y-63941680D01*
X137450592Y-63750069D01*
X137465300Y-63600734D01*
X137465300Y-62484866D01*
X137452961Y-62359586D01*
X137461945Y-62299020D01*
X137498420Y-62249839D01*
X137553773Y-62223659D01*
X137614930Y-62226664D01*
X137667449Y-62258143D01*
X137935395Y-62526089D01*
X137962709Y-62566966D01*
X137972300Y-62615184D01*
X137972300Y-63600734D01*
X137972602Y-63603806D01*
X137972603Y-63603814D01*
X137986400Y-63743903D01*
X137986401Y-63743910D01*
X137987008Y-63750069D01*
X137988804Y-63755992D01*
X137988806Y-63755998D01*
X138043335Y-63935755D01*
X138043337Y-63935760D01*
X138045133Y-63941680D01*
X138048048Y-63947134D01*
X138048050Y-63947138D01*
X138136605Y-64112813D01*
X138136608Y-64112818D01*
X138139522Y-64118269D01*
X138143442Y-64123045D01*
X138143445Y-64123050D01*
X138224840Y-64222230D01*
X138266548Y-64273052D01*
X138271326Y-64276973D01*
X138416549Y-64396154D01*
X138416551Y-64396155D01*
X138421331Y-64400078D01*
X138426784Y-64402992D01*
X138426786Y-64402994D01*
X138544037Y-64465666D01*
X138597920Y-64494467D01*
X138789531Y-64552592D01*
X138988800Y-64572218D01*
X139188069Y-64552592D01*
X139379680Y-64494467D01*
X139556269Y-64400078D01*
X139711052Y-64273052D01*
X139838078Y-64118269D01*
X139932467Y-63941680D01*
X139990592Y-63750069D01*
X140005300Y-63600734D01*
X140005300Y-62484866D01*
X139990592Y-62335531D01*
X139932467Y-62143920D01*
X139858159Y-62004899D01*
X139840994Y-61972786D01*
X139840992Y-61972784D01*
X139838078Y-61967331D01*
X139820946Y-61946456D01*
X139727738Y-61832880D01*
X139711052Y-61812548D01*
X139660074Y-61770712D01*
X139561050Y-61689445D01*
X139561045Y-61689442D01*
X139556269Y-61685522D01*
X139550818Y-61682608D01*
X139550813Y-61682605D01*
X139385138Y-61594050D01*
X139385134Y-61594048D01*
X139379680Y-61591133D01*
X139373760Y-61589337D01*
X139373755Y-61589335D01*
X139193998Y-61534806D01*
X139193992Y-61534804D01*
X139188069Y-61533008D01*
X139181910Y-61532401D01*
X139181903Y-61532400D01*
X138994963Y-61513989D01*
X138988800Y-61513382D01*
X138982637Y-61513989D01*
X138795696Y-61532400D01*
X138795687Y-61532401D01*
X138789531Y-61533008D01*
X138783609Y-61534804D01*
X138783601Y-61534806D01*
X138603844Y-61589335D01*
X138603835Y-61589338D01*
X138597920Y-61591133D01*
X138592468Y-61594046D01*
X138592461Y-61594050D01*
X138426786Y-61682605D01*
X138426776Y-61682611D01*
X138421331Y-61685522D01*
X138416554Y-61689442D01*
X138416544Y-61689449D01*
X138370582Y-61727168D01*
X138315230Y-61753346D01*
X138254074Y-61750341D01*
X138201556Y-61718862D01*
X131966689Y-55483995D01*
X131935951Y-55433836D01*
X131931335Y-55375189D01*
X131953848Y-55320839D01*
X131998581Y-55282633D01*
X132055784Y-55268900D01*
X135706016Y-55268900D01*
X135754234Y-55278491D01*
X135795111Y-55305805D01*
X141805456Y-61316150D01*
X141836935Y-61368669D01*
X141839940Y-61429826D01*
X141813761Y-61485178D01*
X141764580Y-61521654D01*
X141704011Y-61530638D01*
X141534963Y-61513989D01*
X141528800Y-61513382D01*
X141522637Y-61513989D01*
X141335696Y-61532400D01*
X141335687Y-61532401D01*
X141329531Y-61533008D01*
X141323609Y-61534804D01*
X141323601Y-61534806D01*
X141143844Y-61589335D01*
X141143835Y-61589338D01*
X141137920Y-61591133D01*
X141132468Y-61594046D01*
X141132461Y-61594050D01*
X140966786Y-61682605D01*
X140966776Y-61682611D01*
X140961331Y-61685522D01*
X140956558Y-61689438D01*
X140956549Y-61689445D01*
X140811326Y-61808626D01*
X140811321Y-61808630D01*
X140806548Y-61812548D01*
X140802630Y-61817321D01*
X140802626Y-61817326D01*
X140683445Y-61962549D01*
X140683438Y-61962558D01*
X140679522Y-61967331D01*
X140676611Y-61972776D01*
X140676605Y-61972786D01*
X140588050Y-62138461D01*
X140588046Y-62138468D01*
X140585133Y-62143920D01*
X140583338Y-62149835D01*
X140583335Y-62149844D01*
X140528806Y-62329601D01*
X140528804Y-62329609D01*
X140527008Y-62335531D01*
X140526401Y-62341687D01*
X140526400Y-62341696D01*
X140512603Y-62481785D01*
X140512300Y-62484866D01*
X140512300Y-63600734D01*
X140512602Y-63603806D01*
X140512603Y-63603814D01*
X140526400Y-63743903D01*
X140526401Y-63743910D01*
X140527008Y-63750069D01*
X140528804Y-63755992D01*
X140528806Y-63755998D01*
X140583335Y-63935755D01*
X140583337Y-63935760D01*
X140585133Y-63941680D01*
X140588048Y-63947134D01*
X140588050Y-63947138D01*
X140676605Y-64112813D01*
X140676608Y-64112818D01*
X140679522Y-64118269D01*
X140683442Y-64123045D01*
X140683445Y-64123050D01*
X140764840Y-64222230D01*
X140806548Y-64273052D01*
X140811326Y-64276973D01*
X140956549Y-64396154D01*
X140956551Y-64396155D01*
X140961331Y-64400078D01*
X140966784Y-64402992D01*
X140966786Y-64402994D01*
X141084037Y-64465666D01*
X141137920Y-64494467D01*
X141329531Y-64552592D01*
X141528800Y-64572218D01*
X141728069Y-64552592D01*
X141919680Y-64494467D01*
X142096269Y-64400078D01*
X142251052Y-64273052D01*
X142378078Y-64118269D01*
X142472467Y-63941680D01*
X142530592Y-63750069D01*
X142545300Y-63600734D01*
X142545300Y-62484866D01*
X142532961Y-62359586D01*
X142541945Y-62299020D01*
X142578420Y-62249839D01*
X142633773Y-62223659D01*
X142694930Y-62226664D01*
X142747449Y-62258143D01*
X143015395Y-62526089D01*
X143042709Y-62566966D01*
X143052300Y-62615184D01*
X143052300Y-63600734D01*
X143052602Y-63603806D01*
X143052603Y-63603814D01*
X143066400Y-63743903D01*
X143066401Y-63743910D01*
X143067008Y-63750069D01*
X143068804Y-63755992D01*
X143068806Y-63755998D01*
X143123335Y-63935755D01*
X143123337Y-63935760D01*
X143125133Y-63941680D01*
X143128048Y-63947134D01*
X143128050Y-63947138D01*
X143216605Y-64112813D01*
X143216608Y-64112818D01*
X143219522Y-64118269D01*
X143223442Y-64123045D01*
X143223445Y-64123050D01*
X143304840Y-64222230D01*
X143346548Y-64273052D01*
X143351326Y-64276973D01*
X143496549Y-64396154D01*
X143496551Y-64396155D01*
X143501331Y-64400078D01*
X143506784Y-64402992D01*
X143506786Y-64402994D01*
X143624037Y-64465666D01*
X143677920Y-64494467D01*
X143869531Y-64552592D01*
X144068800Y-64572218D01*
X144268069Y-64552592D01*
X144459680Y-64494467D01*
X144636269Y-64400078D01*
X144791052Y-64273052D01*
X144918078Y-64118269D01*
X145012467Y-63941680D01*
X145070592Y-63750069D01*
X145085300Y-63600734D01*
X145085300Y-62484866D01*
X145070592Y-62335531D01*
X145012467Y-62143920D01*
X144938159Y-62004899D01*
X144920994Y-61972786D01*
X144920992Y-61972784D01*
X144918078Y-61967331D01*
X144900946Y-61946456D01*
X144807738Y-61832880D01*
X144791052Y-61812548D01*
X144740074Y-61770712D01*
X144641050Y-61689445D01*
X144641045Y-61689442D01*
X144636269Y-61685522D01*
X144630818Y-61682608D01*
X144630813Y-61682605D01*
X144465138Y-61594050D01*
X144465134Y-61594048D01*
X144459680Y-61591133D01*
X144453760Y-61589337D01*
X144453755Y-61589335D01*
X144273998Y-61534806D01*
X144273992Y-61534804D01*
X144268069Y-61533008D01*
X144261910Y-61532401D01*
X144261903Y-61532400D01*
X144074963Y-61513989D01*
X144068800Y-61513382D01*
X144062637Y-61513989D01*
X143875696Y-61532400D01*
X143875687Y-61532401D01*
X143869531Y-61533008D01*
X143863609Y-61534804D01*
X143863601Y-61534806D01*
X143683844Y-61589335D01*
X143683835Y-61589338D01*
X143677920Y-61591133D01*
X143672468Y-61594046D01*
X143672461Y-61594050D01*
X143506786Y-61682605D01*
X143506776Y-61682611D01*
X143501331Y-61685522D01*
X143496554Y-61689442D01*
X143496544Y-61689449D01*
X143450582Y-61727168D01*
X143395230Y-61753346D01*
X143334074Y-61750341D01*
X143281556Y-61718862D01*
X136596689Y-55033995D01*
X136565951Y-54983836D01*
X136561335Y-54925189D01*
X136583848Y-54870839D01*
X136628581Y-54832633D01*
X136685784Y-54818900D01*
X140336016Y-54818900D01*
X140384234Y-54828491D01*
X140425111Y-54855805D01*
X146885456Y-61316150D01*
X146916935Y-61368669D01*
X146919940Y-61429826D01*
X146893761Y-61485178D01*
X146844580Y-61521654D01*
X146784011Y-61530638D01*
X146614963Y-61513989D01*
X146608800Y-61513382D01*
X146602637Y-61513989D01*
X146415696Y-61532400D01*
X146415687Y-61532401D01*
X146409531Y-61533008D01*
X146403609Y-61534804D01*
X146403601Y-61534806D01*
X146223844Y-61589335D01*
X146223835Y-61589338D01*
X146217920Y-61591133D01*
X146212468Y-61594046D01*
X146212461Y-61594050D01*
X146046786Y-61682605D01*
X146046776Y-61682611D01*
X146041331Y-61685522D01*
X146036558Y-61689438D01*
X146036549Y-61689445D01*
X145891326Y-61808626D01*
X145891321Y-61808630D01*
X145886548Y-61812548D01*
X145882630Y-61817321D01*
X145882626Y-61817326D01*
X145763445Y-61962549D01*
X145763438Y-61962558D01*
X145759522Y-61967331D01*
X145756611Y-61972776D01*
X145756605Y-61972786D01*
X145668050Y-62138461D01*
X145668046Y-62138468D01*
X145665133Y-62143920D01*
X145663338Y-62149835D01*
X145663335Y-62149844D01*
X145608806Y-62329601D01*
X145608804Y-62329609D01*
X145607008Y-62335531D01*
X145606401Y-62341687D01*
X145606400Y-62341696D01*
X145592603Y-62481785D01*
X145592300Y-62484866D01*
X145592300Y-63600734D01*
X145592602Y-63603806D01*
X145592603Y-63603814D01*
X145606400Y-63743903D01*
X145606401Y-63743910D01*
X145607008Y-63750069D01*
X145608804Y-63755992D01*
X145608806Y-63755998D01*
X145663335Y-63935755D01*
X145663337Y-63935760D01*
X145665133Y-63941680D01*
X145668048Y-63947134D01*
X145668050Y-63947138D01*
X145756605Y-64112813D01*
X145756608Y-64112818D01*
X145759522Y-64118269D01*
X145763442Y-64123045D01*
X145763445Y-64123050D01*
X145844840Y-64222230D01*
X145886548Y-64273052D01*
X145891326Y-64276973D01*
X146036549Y-64396154D01*
X146036551Y-64396155D01*
X146041331Y-64400078D01*
X146046784Y-64402992D01*
X146046786Y-64402994D01*
X146164037Y-64465666D01*
X146217920Y-64494467D01*
X146409531Y-64552592D01*
X146608800Y-64572218D01*
X146808069Y-64552592D01*
X146999680Y-64494467D01*
X147176269Y-64400078D01*
X147331052Y-64273052D01*
X147458078Y-64118269D01*
X147552467Y-63941680D01*
X147610592Y-63750069D01*
X147625300Y-63600734D01*
X147625300Y-62484866D01*
X147612961Y-62359586D01*
X147621945Y-62299020D01*
X147658420Y-62249839D01*
X147713773Y-62223659D01*
X147774930Y-62226664D01*
X147827449Y-62258143D01*
X148095395Y-62526089D01*
X148122709Y-62566966D01*
X148132300Y-62615184D01*
X148132300Y-63600734D01*
X148132602Y-63603806D01*
X148132603Y-63603814D01*
X148146400Y-63743903D01*
X148146401Y-63743910D01*
X148147008Y-63750069D01*
X148148804Y-63755992D01*
X148148806Y-63755998D01*
X148203335Y-63935755D01*
X148203337Y-63935760D01*
X148205133Y-63941680D01*
X148208048Y-63947134D01*
X148208050Y-63947138D01*
X148296605Y-64112813D01*
X148296608Y-64112818D01*
X148299522Y-64118269D01*
X148303442Y-64123045D01*
X148303445Y-64123050D01*
X148384840Y-64222230D01*
X148426548Y-64273052D01*
X148431326Y-64276973D01*
X148576549Y-64396154D01*
X148576551Y-64396155D01*
X148581331Y-64400078D01*
X148586784Y-64402992D01*
X148586786Y-64402994D01*
X148704037Y-64465666D01*
X148757920Y-64494467D01*
X148949531Y-64552592D01*
X149148800Y-64572218D01*
X149348069Y-64552592D01*
X149539680Y-64494467D01*
X149716269Y-64400078D01*
X149871052Y-64273052D01*
X149998078Y-64118269D01*
X150092467Y-63941680D01*
X150150592Y-63750069D01*
X150165300Y-63600734D01*
X150165300Y-62484866D01*
X150150592Y-62335531D01*
X150092467Y-62143920D01*
X150018159Y-62004899D01*
X150000994Y-61972786D01*
X150000992Y-61972784D01*
X149998078Y-61967331D01*
X149980946Y-61946456D01*
X149887738Y-61832880D01*
X149871052Y-61812548D01*
X149820074Y-61770712D01*
X149721050Y-61689445D01*
X149721045Y-61689442D01*
X149716269Y-61685522D01*
X149710818Y-61682608D01*
X149710813Y-61682605D01*
X149545138Y-61594050D01*
X149545134Y-61594048D01*
X149539680Y-61591133D01*
X149533760Y-61589337D01*
X149533755Y-61589335D01*
X149353998Y-61534806D01*
X149353992Y-61534804D01*
X149348069Y-61533008D01*
X149341910Y-61532401D01*
X149341903Y-61532400D01*
X149154963Y-61513989D01*
X149148800Y-61513382D01*
X149142637Y-61513989D01*
X148955696Y-61532400D01*
X148955687Y-61532401D01*
X148949531Y-61533008D01*
X148943609Y-61534804D01*
X148943601Y-61534806D01*
X148763844Y-61589335D01*
X148763835Y-61589338D01*
X148757920Y-61591133D01*
X148752468Y-61594046D01*
X148752461Y-61594050D01*
X148586786Y-61682605D01*
X148586776Y-61682611D01*
X148581331Y-61685522D01*
X148576554Y-61689442D01*
X148576544Y-61689449D01*
X148530582Y-61727168D01*
X148475230Y-61753346D01*
X148414074Y-61750341D01*
X148361556Y-61718862D01*
X141226689Y-54583995D01*
X141195951Y-54533836D01*
X141191335Y-54475189D01*
X141213848Y-54420839D01*
X141258581Y-54382633D01*
X141315784Y-54368900D01*
X144966016Y-54368900D01*
X145014234Y-54378491D01*
X145055111Y-54405805D01*
X151965455Y-61316150D01*
X151996934Y-61368669D01*
X151999939Y-61429826D01*
X151973759Y-61485178D01*
X151924578Y-61521654D01*
X151864010Y-61530638D01*
X151694963Y-61513989D01*
X151688800Y-61513382D01*
X151682637Y-61513989D01*
X151495696Y-61532400D01*
X151495687Y-61532401D01*
X151489531Y-61533008D01*
X151483609Y-61534804D01*
X151483601Y-61534806D01*
X151303844Y-61589335D01*
X151303835Y-61589338D01*
X151297920Y-61591133D01*
X151292468Y-61594046D01*
X151292461Y-61594050D01*
X151126786Y-61682605D01*
X151126776Y-61682611D01*
X151121331Y-61685522D01*
X151116558Y-61689438D01*
X151116549Y-61689445D01*
X150971326Y-61808626D01*
X150971321Y-61808630D01*
X150966548Y-61812548D01*
X150962630Y-61817321D01*
X150962626Y-61817326D01*
X150843445Y-61962549D01*
X150843438Y-61962558D01*
X150839522Y-61967331D01*
X150836611Y-61972776D01*
X150836605Y-61972786D01*
X150748050Y-62138461D01*
X150748046Y-62138468D01*
X150745133Y-62143920D01*
X150743338Y-62149835D01*
X150743335Y-62149844D01*
X150688806Y-62329601D01*
X150688804Y-62329609D01*
X150687008Y-62335531D01*
X150686401Y-62341687D01*
X150686400Y-62341696D01*
X150672603Y-62481785D01*
X150672300Y-62484866D01*
X150672300Y-63600734D01*
X150672602Y-63603806D01*
X150672603Y-63603814D01*
X150686400Y-63743903D01*
X150686401Y-63743910D01*
X150687008Y-63750069D01*
X150688804Y-63755992D01*
X150688806Y-63755998D01*
X150743335Y-63935755D01*
X150743337Y-63935760D01*
X150745133Y-63941680D01*
X150748048Y-63947134D01*
X150748050Y-63947138D01*
X150836605Y-64112813D01*
X150836608Y-64112818D01*
X150839522Y-64118269D01*
X150843442Y-64123045D01*
X150843445Y-64123050D01*
X150924840Y-64222230D01*
X150966548Y-64273052D01*
X150971326Y-64276973D01*
X151116549Y-64396154D01*
X151116551Y-64396155D01*
X151121331Y-64400078D01*
X151126784Y-64402992D01*
X151126786Y-64402994D01*
X151244037Y-64465666D01*
X151297920Y-64494467D01*
X151489531Y-64552592D01*
X151688800Y-64572218D01*
X151888069Y-64552592D01*
X152079680Y-64494467D01*
X152256269Y-64400078D01*
X152411052Y-64273052D01*
X152538078Y-64118269D01*
X152632467Y-63941680D01*
X152690592Y-63750069D01*
X152705300Y-63600734D01*
X152705300Y-62484866D01*
X152692961Y-62359587D01*
X152701945Y-62299021D01*
X152738420Y-62249840D01*
X152793773Y-62223660D01*
X152854930Y-62226665D01*
X152907449Y-62258144D01*
X153175395Y-62526090D01*
X153202709Y-62566967D01*
X153212300Y-62615184D01*
X153212300Y-63600734D01*
X153212602Y-63603806D01*
X153212603Y-63603814D01*
X153226400Y-63743903D01*
X153226401Y-63743910D01*
X153227008Y-63750069D01*
X153228804Y-63755992D01*
X153228806Y-63755998D01*
X153283335Y-63935755D01*
X153283337Y-63935760D01*
X153285133Y-63941680D01*
X153288048Y-63947134D01*
X153288050Y-63947138D01*
X153376605Y-64112813D01*
X153376608Y-64112818D01*
X153379522Y-64118269D01*
X153383442Y-64123045D01*
X153383445Y-64123050D01*
X153464840Y-64222230D01*
X153506548Y-64273052D01*
X153511326Y-64276973D01*
X153656549Y-64396154D01*
X153656551Y-64396155D01*
X153661331Y-64400078D01*
X153666784Y-64402992D01*
X153666786Y-64402994D01*
X153784037Y-64465666D01*
X153837920Y-64494467D01*
X154029531Y-64552592D01*
X154228800Y-64572218D01*
X154428069Y-64552592D01*
X154619680Y-64494467D01*
X154796269Y-64400078D01*
X154951052Y-64273052D01*
X155078078Y-64118269D01*
X155172467Y-63941680D01*
X155230592Y-63750069D01*
X155245300Y-63600734D01*
X155245300Y-62484866D01*
X155230592Y-62335531D01*
X155172467Y-62143920D01*
X155098159Y-62004899D01*
X155080994Y-61972786D01*
X155080992Y-61972784D01*
X155078078Y-61967331D01*
X155060946Y-61946456D01*
X154967738Y-61832880D01*
X154951052Y-61812548D01*
X154900074Y-61770712D01*
X154801050Y-61689445D01*
X154801045Y-61689442D01*
X154796269Y-61685522D01*
X154790818Y-61682608D01*
X154790813Y-61682605D01*
X154625138Y-61594050D01*
X154625134Y-61594048D01*
X154619680Y-61591133D01*
X154613760Y-61589337D01*
X154613755Y-61589335D01*
X154433998Y-61534806D01*
X154433992Y-61534804D01*
X154428069Y-61533008D01*
X154421910Y-61532401D01*
X154421903Y-61532400D01*
X154234963Y-61513989D01*
X154228800Y-61513382D01*
X154222637Y-61513989D01*
X154035696Y-61532400D01*
X154035687Y-61532401D01*
X154029531Y-61533008D01*
X154023609Y-61534804D01*
X154023601Y-61534806D01*
X153843844Y-61589335D01*
X153843835Y-61589338D01*
X153837920Y-61591133D01*
X153832468Y-61594046D01*
X153832461Y-61594050D01*
X153666786Y-61682605D01*
X153666776Y-61682611D01*
X153661331Y-61685522D01*
X153656554Y-61689442D01*
X153656544Y-61689449D01*
X153610582Y-61727168D01*
X153555230Y-61753346D01*
X153494074Y-61750341D01*
X153441556Y-61718862D01*
X145856689Y-54133995D01*
X145825951Y-54083836D01*
X145821335Y-54025189D01*
X145843848Y-53970839D01*
X145888581Y-53932633D01*
X145945784Y-53918900D01*
X149596016Y-53918900D01*
X149644234Y-53928491D01*
X149685111Y-53955805D01*
X157045456Y-61316150D01*
X157076935Y-61368669D01*
X157079940Y-61429826D01*
X157053761Y-61485178D01*
X157004580Y-61521654D01*
X156944011Y-61530638D01*
X156774963Y-61513989D01*
X156768800Y-61513382D01*
X156762637Y-61513989D01*
X156575696Y-61532400D01*
X156575687Y-61532401D01*
X156569531Y-61533008D01*
X156563609Y-61534804D01*
X156563601Y-61534806D01*
X156383844Y-61589335D01*
X156383835Y-61589338D01*
X156377920Y-61591133D01*
X156372468Y-61594046D01*
X156372461Y-61594050D01*
X156206786Y-61682605D01*
X156206776Y-61682611D01*
X156201331Y-61685522D01*
X156196558Y-61689438D01*
X156196549Y-61689445D01*
X156051326Y-61808626D01*
X156051321Y-61808630D01*
X156046548Y-61812548D01*
X156042630Y-61817321D01*
X156042626Y-61817326D01*
X155923445Y-61962549D01*
X155923438Y-61962558D01*
X155919522Y-61967331D01*
X155916611Y-61972776D01*
X155916605Y-61972786D01*
X155828050Y-62138461D01*
X155828046Y-62138468D01*
X155825133Y-62143920D01*
X155823338Y-62149835D01*
X155823335Y-62149844D01*
X155768806Y-62329601D01*
X155768804Y-62329609D01*
X155767008Y-62335531D01*
X155766401Y-62341687D01*
X155766400Y-62341696D01*
X155752603Y-62481785D01*
X155752300Y-62484866D01*
X155752300Y-63600734D01*
X155752602Y-63603806D01*
X155752603Y-63603814D01*
X155766400Y-63743903D01*
X155766401Y-63743910D01*
X155767008Y-63750069D01*
X155768804Y-63755992D01*
X155768806Y-63755998D01*
X155823335Y-63935755D01*
X155823337Y-63935760D01*
X155825133Y-63941680D01*
X155828048Y-63947134D01*
X155828050Y-63947138D01*
X155916605Y-64112813D01*
X155916608Y-64112818D01*
X155919522Y-64118269D01*
X155923442Y-64123045D01*
X155923445Y-64123050D01*
X156004840Y-64222230D01*
X156046548Y-64273052D01*
X156051326Y-64276973D01*
X156196549Y-64396154D01*
X156196551Y-64396155D01*
X156201331Y-64400078D01*
X156206784Y-64402992D01*
X156206786Y-64402994D01*
X156324037Y-64465666D01*
X156377920Y-64494467D01*
X156569531Y-64552592D01*
X156768800Y-64572218D01*
X156968069Y-64552592D01*
X157159680Y-64494467D01*
X157336269Y-64400078D01*
X157491052Y-64273052D01*
X157618078Y-64118269D01*
X157712467Y-63941680D01*
X157770592Y-63750069D01*
X157785300Y-63600734D01*
X157785300Y-62484866D01*
X157772961Y-62359586D01*
X157781945Y-62299020D01*
X157818420Y-62249839D01*
X157873773Y-62223659D01*
X157934930Y-62226664D01*
X157987449Y-62258143D01*
X158255395Y-62526089D01*
X158282709Y-62566966D01*
X158292300Y-62615184D01*
X158292300Y-63600734D01*
X158292602Y-63603806D01*
X158292603Y-63603814D01*
X158306400Y-63743903D01*
X158306401Y-63743910D01*
X158307008Y-63750069D01*
X158308804Y-63755992D01*
X158308806Y-63755998D01*
X158363335Y-63935755D01*
X158363337Y-63935760D01*
X158365133Y-63941680D01*
X158368048Y-63947134D01*
X158368050Y-63947138D01*
X158456605Y-64112813D01*
X158456608Y-64112818D01*
X158459522Y-64118269D01*
X158463442Y-64123045D01*
X158463445Y-64123050D01*
X158544840Y-64222230D01*
X158586548Y-64273052D01*
X158591326Y-64276973D01*
X158736549Y-64396154D01*
X158736551Y-64396155D01*
X158741331Y-64400078D01*
X158746784Y-64402992D01*
X158746786Y-64402994D01*
X158864037Y-64465666D01*
X158917920Y-64494467D01*
X159109531Y-64552592D01*
X159308800Y-64572218D01*
X159508069Y-64552592D01*
X159699680Y-64494467D01*
X159876269Y-64400078D01*
X160031052Y-64273052D01*
X160158078Y-64118269D01*
X160252467Y-63941680D01*
X160310592Y-63750069D01*
X160325300Y-63600734D01*
X160325300Y-62484866D01*
X160310592Y-62335531D01*
X160252467Y-62143920D01*
X160178159Y-62004899D01*
X160160994Y-61972786D01*
X160160992Y-61972784D01*
X160158078Y-61967331D01*
X160140946Y-61946456D01*
X160047738Y-61832880D01*
X160031052Y-61812548D01*
X159980074Y-61770712D01*
X159881050Y-61689445D01*
X159881045Y-61689442D01*
X159876269Y-61685522D01*
X159870818Y-61682608D01*
X159870813Y-61682605D01*
X159705138Y-61594050D01*
X159705134Y-61594048D01*
X159699680Y-61591133D01*
X159693760Y-61589337D01*
X159693755Y-61589335D01*
X159513998Y-61534806D01*
X159513992Y-61534804D01*
X159508069Y-61533008D01*
X159501910Y-61532401D01*
X159501903Y-61532400D01*
X159314963Y-61513989D01*
X159308800Y-61513382D01*
X159302637Y-61513989D01*
X159115696Y-61532400D01*
X159115687Y-61532401D01*
X159109531Y-61533008D01*
X159103609Y-61534804D01*
X159103601Y-61534806D01*
X158923844Y-61589335D01*
X158923835Y-61589338D01*
X158917920Y-61591133D01*
X158912468Y-61594046D01*
X158912461Y-61594050D01*
X158746786Y-61682605D01*
X158746776Y-61682611D01*
X158741331Y-61685522D01*
X158736554Y-61689442D01*
X158736544Y-61689449D01*
X158690582Y-61727168D01*
X158635230Y-61753346D01*
X158574074Y-61750341D01*
X158521556Y-61718862D01*
X150328289Y-53525595D01*
X150297551Y-53475436D01*
X150292935Y-53416789D01*
X150315448Y-53362439D01*
X150360181Y-53324233D01*
X150417384Y-53310500D01*
X154545241Y-53310500D01*
X154592153Y-53319559D01*
G37*
G04 #@! TD.AperFunction*
G04 #@! TA.AperFunction,Conductor*
G36*
X95475300Y-58985300D02*
G01*
X95521419Y-59031419D01*
X95538300Y-59094419D01*
X95538300Y-64811300D01*
X95521419Y-64874300D01*
X95475300Y-64920419D01*
X95412300Y-64937300D01*
X91166984Y-64937300D01*
X91109781Y-64923567D01*
X91065048Y-64885361D01*
X91042535Y-64831011D01*
X91047151Y-64772364D01*
X91077889Y-64722205D01*
X91208290Y-64591804D01*
X91249167Y-64564490D01*
X91297385Y-64554899D01*
X91331878Y-64554899D01*
X91338066Y-64554899D01*
X91412301Y-64540134D01*
X91496484Y-64483884D01*
X91552734Y-64399701D01*
X91567500Y-64325467D01*
X91567499Y-63275334D01*
X91552734Y-63201099D01*
X91513732Y-63142730D01*
X91497926Y-63109308D01*
X91492500Y-63072732D01*
X91492500Y-61699584D01*
X91502091Y-61651366D01*
X91529402Y-61610491D01*
X92443409Y-60696483D01*
X92493564Y-60665749D01*
X92552211Y-60661133D01*
X92606561Y-60683646D01*
X92644767Y-60728379D01*
X92658500Y-60785582D01*
X92658500Y-61769277D01*
X92658500Y-61769287D01*
X92658501Y-61775466D01*
X92659707Y-61781532D01*
X92659708Y-61781537D01*
X92669920Y-61832880D01*
X92673266Y-61849701D01*
X92700595Y-61890601D01*
X92719127Y-61918337D01*
X92729516Y-61933884D01*
X92813699Y-61990134D01*
X92887933Y-62004900D01*
X94938066Y-62004899D01*
X95012301Y-61990134D01*
X95096484Y-61933884D01*
X95152734Y-61849701D01*
X95167500Y-61775467D01*
X95167499Y-60425334D01*
X95152734Y-60351099D01*
X95096484Y-60266916D01*
X95079228Y-60255386D01*
X95022620Y-60217561D01*
X95022619Y-60217560D01*
X95012301Y-60210666D01*
X95000131Y-60208245D01*
X95000128Y-60208244D01*
X94944135Y-60197107D01*
X94938067Y-60195900D01*
X94931880Y-60195900D01*
X93248183Y-60195900D01*
X93190980Y-60182167D01*
X93146247Y-60143961D01*
X93123734Y-60089611D01*
X93128350Y-60030964D01*
X93159086Y-59980807D01*
X94134572Y-59005321D01*
X94175447Y-58978010D01*
X94223665Y-58968419D01*
X95412300Y-58968419D01*
X95475300Y-58985300D01*
G37*
G04 #@! TD.AperFunction*
G04 #@! TA.AperFunction,Conductor*
G36*
X62057441Y-56139712D02*
G01*
X62103054Y-56182179D01*
X62122735Y-56241311D01*
X62111670Y-56302640D01*
X62103884Y-56319690D01*
X62102618Y-56323999D01*
X62102615Y-56324009D01*
X62084344Y-56386232D01*
X62084342Y-56386241D01*
X62083075Y-56390556D01*
X62082435Y-56395007D01*
X62082432Y-56395021D01*
X62063254Y-56528408D01*
X62063253Y-56528417D01*
X62062613Y-56532871D01*
X62062613Y-56606729D01*
X62063251Y-56611172D01*
X62063253Y-56611188D01*
X62063831Y-56615207D01*
X62065114Y-56633139D01*
X62065114Y-57006461D01*
X62063831Y-57024393D01*
X62063253Y-57028411D01*
X62063251Y-57028428D01*
X62062613Y-57032871D01*
X62062613Y-57106729D01*
X62063253Y-57111183D01*
X62063254Y-57111191D01*
X62082432Y-57244578D01*
X62082434Y-57244589D01*
X62083075Y-57249044D01*
X62084342Y-57253361D01*
X62084344Y-57253367D01*
X62095586Y-57291653D01*
X62103884Y-57319910D01*
X62105756Y-57324009D01*
X62134786Y-57387577D01*
X62163612Y-57450695D01*
X62203540Y-57512826D01*
X62206483Y-57516223D01*
X62206488Y-57516229D01*
X62294753Y-57618093D01*
X62297694Y-57621487D01*
X62301087Y-57624427D01*
X62348537Y-57665543D01*
X62353514Y-57669855D01*
X62387222Y-57691518D01*
X62429687Y-57737128D01*
X62445100Y-57797514D01*
X62445100Y-58259574D01*
X62442418Y-58285430D01*
X62440181Y-58296100D01*
X62441472Y-58306457D01*
X62441472Y-58306460D01*
X62444132Y-58327796D01*
X62444458Y-58333057D01*
X62444670Y-58333040D01*
X62445100Y-58338233D01*
X62445100Y-58343443D01*
X62445956Y-58348574D01*
X62445957Y-58348584D01*
X62448556Y-58364160D01*
X62449305Y-58369303D01*
X62454388Y-58410074D01*
X62455848Y-58421783D01*
X62459377Y-58429003D01*
X62460700Y-58436927D01*
X62465665Y-58446102D01*
X62465666Y-58446104D01*
X62485855Y-58483410D01*
X62488238Y-58488039D01*
X62506890Y-58526193D01*
X62506892Y-58526196D01*
X62511474Y-58535568D01*
X62517158Y-58541252D01*
X62520981Y-58548316D01*
X62528661Y-58555386D01*
X62559884Y-58584129D01*
X62563641Y-58587735D01*
X63956711Y-59980805D01*
X63987449Y-60030964D01*
X63992065Y-60089611D01*
X63969552Y-60143961D01*
X63924819Y-60182167D01*
X63867616Y-60195900D01*
X62294122Y-60195900D01*
X62294111Y-60195900D01*
X62287934Y-60195901D01*
X62281868Y-60197107D01*
X62281862Y-60197108D01*
X62225874Y-60208244D01*
X62225871Y-60208244D01*
X62213699Y-60210666D01*
X62203379Y-60217561D01*
X62203378Y-60217562D01*
X62139832Y-60260022D01*
X62139829Y-60260024D01*
X62129516Y-60266916D01*
X62122624Y-60277229D01*
X62122622Y-60277232D01*
X62080161Y-60340779D01*
X62080159Y-60340781D01*
X62073266Y-60351099D01*
X62070845Y-60363267D01*
X62070844Y-60363271D01*
X62059707Y-60419264D01*
X62058500Y-60425333D01*
X62058500Y-60431518D01*
X62058500Y-60431519D01*
X62058500Y-61769277D01*
X62058500Y-61769287D01*
X62058501Y-61775466D01*
X62059707Y-61781532D01*
X62059708Y-61781537D01*
X62069920Y-61832880D01*
X62073266Y-61849701D01*
X62100595Y-61890601D01*
X62119127Y-61918337D01*
X62129516Y-61933884D01*
X62213699Y-61990134D01*
X62287933Y-62004900D01*
X64338066Y-62004899D01*
X64412301Y-61990134D01*
X64496484Y-61933884D01*
X64552734Y-61849701D01*
X64567500Y-61775467D01*
X64567499Y-60895781D01*
X64581232Y-60838580D01*
X64619438Y-60793847D01*
X64673788Y-60771334D01*
X64732435Y-60775950D01*
X64782594Y-60806688D01*
X66696595Y-62720689D01*
X66723909Y-62761566D01*
X66733500Y-62809784D01*
X66733500Y-63056269D01*
X66717435Y-63117835D01*
X66673335Y-63163701D01*
X66612448Y-63182172D01*
X66550298Y-63168536D01*
X66512878Y-63135284D01*
X66512154Y-63136009D01*
X66503377Y-63127232D01*
X66496484Y-63116916D01*
X66447891Y-63084447D01*
X66422620Y-63067561D01*
X66422619Y-63067560D01*
X66412301Y-63060666D01*
X66400131Y-63058245D01*
X66400128Y-63058244D01*
X66344135Y-63047107D01*
X66338067Y-63045900D01*
X66331880Y-63045900D01*
X65894122Y-63045900D01*
X65894111Y-63045900D01*
X65887934Y-63045901D01*
X65881868Y-63047107D01*
X65881862Y-63047108D01*
X65825871Y-63058244D01*
X65825866Y-63058246D01*
X65813699Y-63060666D01*
X65803382Y-63067559D01*
X65803381Y-63067560D01*
X65793347Y-63074265D01*
X65759920Y-63090074D01*
X65723344Y-63095500D01*
X61534095Y-63095500D01*
X61466395Y-63075767D01*
X61419900Y-63022750D01*
X61379650Y-62936435D01*
X61337179Y-62845354D01*
X61211274Y-62665543D01*
X61056057Y-62510326D01*
X60960627Y-62443505D01*
X60880754Y-62387577D01*
X60880749Y-62387574D01*
X60876246Y-62384421D01*
X60864983Y-62379169D01*
X60682288Y-62293977D01*
X60682282Y-62293975D01*
X60677303Y-62291653D01*
X60671997Y-62290231D01*
X60671991Y-62290229D01*
X60470583Y-62236261D01*
X60470576Y-62236259D01*
X60465274Y-62234839D01*
X60459806Y-62234360D01*
X60459797Y-62234359D01*
X60252075Y-62216187D01*
X60246600Y-62215708D01*
X60241125Y-62216187D01*
X60033402Y-62234359D01*
X60033391Y-62234360D01*
X60027926Y-62234839D01*
X60022625Y-62236259D01*
X60022616Y-62236261D01*
X59821208Y-62290229D01*
X59821198Y-62290232D01*
X59815897Y-62291653D01*
X59810920Y-62293973D01*
X59810911Y-62293977D01*
X59621941Y-62382095D01*
X59621936Y-62382097D01*
X59616954Y-62384421D01*
X59612455Y-62387571D01*
X59612445Y-62387577D01*
X59441654Y-62507167D01*
X59441651Y-62507169D01*
X59437143Y-62510326D01*
X59433251Y-62514217D01*
X59433245Y-62514223D01*
X59285823Y-62661645D01*
X59285817Y-62661651D01*
X59281926Y-62665543D01*
X59278769Y-62670051D01*
X59278767Y-62670054D01*
X59159177Y-62840845D01*
X59159171Y-62840855D01*
X59156021Y-62845354D01*
X59153697Y-62850336D01*
X59153695Y-62850341D01*
X59065577Y-63039311D01*
X59065573Y-63039320D01*
X59063253Y-63044297D01*
X59061832Y-63049598D01*
X59061829Y-63049608D01*
X59007861Y-63251016D01*
X59007859Y-63251025D01*
X59006439Y-63256326D01*
X59005960Y-63261791D01*
X59005959Y-63261802D01*
X58988019Y-63466866D01*
X58987308Y-63475000D01*
X58987787Y-63480475D01*
X59005959Y-63688197D01*
X59005960Y-63688206D01*
X59006439Y-63693674D01*
X59007859Y-63698976D01*
X59007861Y-63698983D01*
X59061829Y-63900391D01*
X59061831Y-63900397D01*
X59063253Y-63905703D01*
X59065575Y-63910682D01*
X59065577Y-63910688D01*
X59082574Y-63947138D01*
X59156021Y-64104646D01*
X59159177Y-64109154D01*
X59159181Y-64109160D01*
X59238353Y-64222230D01*
X59260870Y-64286259D01*
X59246903Y-64352680D01*
X59200505Y-64402219D01*
X59135140Y-64420500D01*
X57371984Y-64420500D01*
X57323766Y-64410909D01*
X57282889Y-64383595D01*
X55333282Y-62433988D01*
X55299364Y-62372164D01*
X55303976Y-62301798D01*
X55345673Y-62244930D01*
X55411396Y-62219372D01*
X55459706Y-62215145D01*
X55470501Y-62213241D01*
X55671822Y-62159298D01*
X55682114Y-62155552D01*
X55871007Y-62067469D01*
X55880503Y-62061987D01*
X56030050Y-61957272D01*
X56037602Y-61949030D01*
X56031592Y-61939597D01*
X55156090Y-61064095D01*
X55123478Y-61007611D01*
X55123478Y-60974999D01*
X55431162Y-60974999D01*
X55437934Y-60986729D01*
X56211197Y-61759992D01*
X56220630Y-61766002D01*
X56228872Y-61758450D01*
X56244780Y-61735731D01*
X56293044Y-61694614D01*
X56355222Y-61682208D01*
X56415570Y-61701654D01*
X56458807Y-61748029D01*
X56470306Y-61769277D01*
X56486126Y-61798509D01*
X56489325Y-61802619D01*
X56635273Y-61990134D01*
X56638862Y-61994744D01*
X56642693Y-61998271D01*
X56642698Y-61998276D01*
X56791150Y-62134935D01*
X56821815Y-62163164D01*
X57029993Y-62299173D01*
X57257719Y-62399063D01*
X57498779Y-62460108D01*
X57684533Y-62475500D01*
X57806053Y-62475500D01*
X57808667Y-62475500D01*
X57994421Y-62460108D01*
X58235481Y-62399063D01*
X58463207Y-62299173D01*
X58671385Y-62163164D01*
X58854338Y-61994744D01*
X59007074Y-61798509D01*
X59125428Y-61579810D01*
X59206171Y-61344614D01*
X59247100Y-61099335D01*
X59247100Y-60850665D01*
X59206171Y-60605386D01*
X59142275Y-60419264D01*
X59127121Y-60375121D01*
X59127120Y-60375119D01*
X59125428Y-60370190D01*
X59007074Y-60151491D01*
X58914042Y-60031964D01*
X58857538Y-59959367D01*
X58857536Y-59959365D01*
X58854338Y-59955256D01*
X58850505Y-59951728D01*
X58850501Y-59951723D01*
X58675224Y-59790370D01*
X58675223Y-59790369D01*
X58671385Y-59786836D01*
X58463207Y-59650827D01*
X58274162Y-59567904D01*
X58240253Y-59553030D01*
X58240250Y-59553029D01*
X58235481Y-59550937D01*
X58230432Y-59549658D01*
X58230428Y-59549657D01*
X58057366Y-59505832D01*
X57994421Y-59489892D01*
X57989230Y-59489461D01*
X57989225Y-59489461D01*
X57811267Y-59474715D01*
X57811256Y-59474714D01*
X57808667Y-59474500D01*
X57684533Y-59474500D01*
X57681944Y-59474714D01*
X57681932Y-59474715D01*
X57503974Y-59489461D01*
X57503967Y-59489462D01*
X57498779Y-59489892D01*
X57493721Y-59491172D01*
X57493720Y-59491173D01*
X57262771Y-59549657D01*
X57262763Y-59549659D01*
X57257719Y-59550937D01*
X57252952Y-59553027D01*
X57252946Y-59553030D01*
X57034768Y-59648732D01*
X57034763Y-59648734D01*
X57029993Y-59650827D01*
X57025630Y-59653676D01*
X57025627Y-59653679D01*
X56826182Y-59783982D01*
X56826174Y-59783987D01*
X56821815Y-59786836D01*
X56817981Y-59790364D01*
X56817975Y-59790370D01*
X56642698Y-59951723D01*
X56642687Y-59951734D01*
X56638862Y-59955256D01*
X56635669Y-59959358D01*
X56635661Y-59959367D01*
X56489325Y-60147380D01*
X56489321Y-60147385D01*
X56486126Y-60151491D01*
X56483649Y-60156066D01*
X56483643Y-60156077D01*
X56458808Y-60201969D01*
X56415572Y-60248344D01*
X56355225Y-60267791D01*
X56293047Y-60255386D01*
X56244782Y-60214270D01*
X56228872Y-60191548D01*
X56220630Y-60183996D01*
X56211200Y-60190003D01*
X55437933Y-60963271D01*
X55431162Y-60974999D01*
X55123478Y-60974999D01*
X55123478Y-60942389D01*
X55156090Y-60885905D01*
X55246600Y-60795395D01*
X55246600Y-60795394D01*
X56031596Y-60010397D01*
X56037602Y-60000969D01*
X56030050Y-59992726D01*
X55880503Y-59888012D01*
X55871007Y-59882530D01*
X55682114Y-59794447D01*
X55671822Y-59790701D01*
X55470501Y-59736758D01*
X55459706Y-59734854D01*
X55252075Y-59716689D01*
X55241125Y-59716689D01*
X55033493Y-59734854D01*
X55022698Y-59736758D01*
X54821377Y-59790701D01*
X54811085Y-59794447D01*
X54622192Y-59882530D01*
X54612690Y-59888016D01*
X54499370Y-59967364D01*
X54435341Y-59989881D01*
X54368920Y-59975914D01*
X54319381Y-59929516D01*
X54301100Y-59864151D01*
X54301100Y-59571982D01*
X54310691Y-59523764D01*
X54338005Y-59482887D01*
X55345892Y-58475000D01*
X58987308Y-58475000D01*
X58987787Y-58480475D01*
X59005959Y-58688197D01*
X59005960Y-58688206D01*
X59006439Y-58693674D01*
X59007859Y-58698976D01*
X59007861Y-58698983D01*
X59061829Y-58900391D01*
X59061831Y-58900397D01*
X59063253Y-58905703D01*
X59065575Y-58910682D01*
X59065577Y-58910688D01*
X59109706Y-59005323D01*
X59156021Y-59104646D01*
X59159174Y-59109149D01*
X59159177Y-59109154D01*
X59232273Y-59213545D01*
X59281926Y-59284457D01*
X59437143Y-59439674D01*
X59616954Y-59565579D01*
X59815897Y-59658347D01*
X60027926Y-59715161D01*
X60246600Y-59734292D01*
X60465274Y-59715161D01*
X60677303Y-59658347D01*
X60876246Y-59565579D01*
X61056057Y-59439674D01*
X61211274Y-59284457D01*
X61337179Y-59104646D01*
X61429947Y-58905703D01*
X61486761Y-58693674D01*
X61505892Y-58475000D01*
X61486761Y-58256326D01*
X61429947Y-58044297D01*
X61337179Y-57845354D01*
X61211274Y-57665543D01*
X61056057Y-57510326D01*
X60985674Y-57461043D01*
X60880754Y-57387577D01*
X60880749Y-57387574D01*
X60876246Y-57384421D01*
X60871258Y-57382095D01*
X60682288Y-57293977D01*
X60682282Y-57293975D01*
X60677303Y-57291653D01*
X60671997Y-57290231D01*
X60671991Y-57290229D01*
X60470583Y-57236261D01*
X60470576Y-57236259D01*
X60465274Y-57234839D01*
X60459806Y-57234360D01*
X60459797Y-57234359D01*
X60252075Y-57216187D01*
X60246600Y-57215708D01*
X60241125Y-57216187D01*
X60033402Y-57234359D01*
X60033391Y-57234360D01*
X60027926Y-57234839D01*
X60022625Y-57236259D01*
X60022616Y-57236261D01*
X59821208Y-57290229D01*
X59821198Y-57290232D01*
X59815897Y-57291653D01*
X59810920Y-57293973D01*
X59810911Y-57293977D01*
X59621941Y-57382095D01*
X59621936Y-57382097D01*
X59616954Y-57384421D01*
X59612455Y-57387571D01*
X59612445Y-57387577D01*
X59441654Y-57507167D01*
X59441651Y-57507169D01*
X59437143Y-57510326D01*
X59433251Y-57514217D01*
X59433245Y-57514223D01*
X59285823Y-57661645D01*
X59285817Y-57661651D01*
X59281926Y-57665543D01*
X59278769Y-57670051D01*
X59278767Y-57670054D01*
X59159177Y-57840845D01*
X59159171Y-57840855D01*
X59156021Y-57845354D01*
X59153697Y-57850336D01*
X59153695Y-57850341D01*
X59065577Y-58039311D01*
X59065573Y-58039320D01*
X59063253Y-58044297D01*
X59061832Y-58049598D01*
X59061829Y-58049608D01*
X59007861Y-58251016D01*
X59007859Y-58251025D01*
X59006439Y-58256326D01*
X59005960Y-58261791D01*
X59005959Y-58261802D01*
X58991332Y-58429003D01*
X58987308Y-58475000D01*
X55345892Y-58475000D01*
X57659687Y-56161205D01*
X57700564Y-56133891D01*
X57748782Y-56124300D01*
X61997056Y-56124300D01*
X62057441Y-56139712D01*
G37*
G04 #@! TD.AperFunction*
G04 #@! TA.AperFunction,Conductor*
G36*
X93301100Y-58532152D02*
G01*
X93345833Y-58570358D01*
X93368346Y-58624708D01*
X93363730Y-58683355D01*
X93332992Y-58733514D01*
X90881724Y-61184780D01*
X90861553Y-61201162D01*
X90861161Y-61201417D01*
X90861151Y-61201425D01*
X90852418Y-61207132D01*
X90846007Y-61215367D01*
X90846003Y-61215372D01*
X90832789Y-61232349D01*
X90829324Y-61236316D01*
X90829464Y-61236435D01*
X90826105Y-61240399D01*
X90822419Y-61244087D01*
X90819395Y-61248321D01*
X90819389Y-61248329D01*
X90810211Y-61261183D01*
X90807105Y-61265347D01*
X90781036Y-61298841D01*
X90781031Y-61298850D01*
X90774625Y-61307081D01*
X90772015Y-61314682D01*
X90767347Y-61321221D01*
X90764371Y-61331214D01*
X90764369Y-61331220D01*
X90752259Y-61371895D01*
X90750672Y-61376850D01*
X90742105Y-61401806D01*
X90733741Y-61426173D01*
X90733501Y-61426871D01*
X90731470Y-61426173D01*
X90708403Y-61475182D01*
X90651334Y-61512723D01*
X90583060Y-61514967D01*
X90576629Y-61513382D01*
X90514324Y-61498025D01*
X90475364Y-61488422D01*
X90475362Y-61488421D01*
X90467971Y-61486600D01*
X90309029Y-61486600D01*
X90301638Y-61488421D01*
X90301635Y-61488422D01*
X90162108Y-61522812D01*
X90162101Y-61522814D01*
X90154707Y-61524637D01*
X90147958Y-61528178D01*
X90147953Y-61528181D01*
X90020723Y-61594957D01*
X90020721Y-61594958D01*
X90013971Y-61598501D01*
X90008269Y-61603552D01*
X90008264Y-61603556D01*
X89900707Y-61698844D01*
X89900703Y-61698847D01*
X89895002Y-61703899D01*
X89890675Y-61710166D01*
X89890671Y-61710172D01*
X89809042Y-61828432D01*
X89809038Y-61828437D01*
X89804713Y-61834705D01*
X89802014Y-61841820D01*
X89802010Y-61841829D01*
X89751052Y-61976194D01*
X89751050Y-61976200D01*
X89748351Y-61983318D01*
X89747432Y-61990879D01*
X89747432Y-61990883D01*
X89730187Y-62132917D01*
X89729193Y-62141100D01*
X89730112Y-62148669D01*
X89743404Y-62258144D01*
X89748351Y-62298882D01*
X89751051Y-62306001D01*
X89751052Y-62306005D01*
X89802010Y-62440370D01*
X89802012Y-62440375D01*
X89804713Y-62447495D01*
X89809041Y-62453765D01*
X89809042Y-62453767D01*
X89887178Y-62566967D01*
X89895002Y-62578301D01*
X89900707Y-62583355D01*
X89966554Y-62641691D01*
X89997899Y-62684291D01*
X90009000Y-62736003D01*
X90009000Y-62920387D01*
X89994122Y-62979783D01*
X89953002Y-63025152D01*
X89895351Y-63045780D01*
X89894122Y-63045901D01*
X89887934Y-63045901D01*
X89881868Y-63047107D01*
X89881862Y-63047108D01*
X89825874Y-63058244D01*
X89825871Y-63058244D01*
X89813699Y-63060666D01*
X89803379Y-63067561D01*
X89803378Y-63067562D01*
X89739832Y-63110022D01*
X89739829Y-63110024D01*
X89729516Y-63116916D01*
X89722624Y-63127229D01*
X89722618Y-63127236D01*
X89717460Y-63134956D01*
X89672090Y-63176074D01*
X89612695Y-63190949D01*
X89553301Y-63176070D01*
X89507934Y-63134951D01*
X89503016Y-63127591D01*
X89485808Y-63110383D01*
X89422425Y-63068032D01*
X89399933Y-63058715D01*
X89344085Y-63047607D01*
X89331830Y-63046400D01*
X89256590Y-63046400D01*
X89243506Y-63049906D01*
X89240000Y-63062990D01*
X89240000Y-63801400D01*
X89223119Y-63864400D01*
X89177000Y-63910519D01*
X89114000Y-63927400D01*
X89112000Y-63927400D01*
X89049000Y-63910519D01*
X89002881Y-63864400D01*
X88986000Y-63801400D01*
X88986000Y-63062991D01*
X88982493Y-63049907D01*
X88969410Y-63046401D01*
X88894172Y-63046401D01*
X88881912Y-63047608D01*
X88826069Y-63058715D01*
X88803573Y-63068033D01*
X88740191Y-63110383D01*
X88714206Y-63136369D01*
X88713597Y-63135760D01*
X88675703Y-63169435D01*
X88613553Y-63183071D01*
X88552665Y-63164601D01*
X88508565Y-63118734D01*
X88492500Y-63057168D01*
X88492500Y-61262675D01*
X88502091Y-61214457D01*
X88529405Y-61173580D01*
X91147661Y-58555324D01*
X91188538Y-58528010D01*
X91236756Y-58518419D01*
X93243897Y-58518419D01*
X93301100Y-58532152D01*
G37*
G04 #@! TD.AperFunction*
G04 #@! TA.AperFunction,Conductor*
G36*
X76376314Y-53324233D02*
G01*
X76421047Y-53362439D01*
X76443560Y-53416789D01*
X76438944Y-53475436D01*
X76408206Y-53525595D01*
X67881724Y-62052075D01*
X67861553Y-62068457D01*
X67861161Y-62068712D01*
X67861151Y-62068720D01*
X67852418Y-62074427D01*
X67846007Y-62082662D01*
X67846003Y-62082667D01*
X67832789Y-62099644D01*
X67829324Y-62103611D01*
X67829464Y-62103730D01*
X67826105Y-62107694D01*
X67822419Y-62111382D01*
X67819395Y-62115616D01*
X67819389Y-62115624D01*
X67810211Y-62128478D01*
X67807105Y-62132642D01*
X67781036Y-62166136D01*
X67781031Y-62166145D01*
X67774625Y-62174376D01*
X67772015Y-62181977D01*
X67767347Y-62188516D01*
X67764371Y-62198509D01*
X67764369Y-62198515D01*
X67752259Y-62239190D01*
X67750672Y-62244145D01*
X67736887Y-62284299D01*
X67736886Y-62284304D01*
X67733500Y-62294168D01*
X67733500Y-62302206D01*
X67731208Y-62309905D01*
X67731639Y-62320332D01*
X67731639Y-62320335D01*
X67733392Y-62362709D01*
X67733500Y-62367916D01*
X67733500Y-62480771D01*
X67717898Y-62541503D01*
X67674955Y-62587194D01*
X67615306Y-62606529D01*
X67553725Y-62594719D01*
X67505461Y-62554690D01*
X67488004Y-62510401D01*
X67486024Y-62510991D01*
X67483043Y-62500982D01*
X67481752Y-62490617D01*
X67478222Y-62483396D01*
X67476900Y-62475473D01*
X67471933Y-62466294D01*
X67471931Y-62466289D01*
X67451734Y-62428969D01*
X67449363Y-62424365D01*
X67426126Y-62376832D01*
X67420441Y-62371147D01*
X67416619Y-62364084D01*
X67405671Y-62354006D01*
X67377714Y-62328269D01*
X67373957Y-62324663D01*
X63241005Y-58191711D01*
X63213691Y-58150834D01*
X63204100Y-58102616D01*
X63204100Y-57954744D01*
X63218978Y-57895347D01*
X63260099Y-57849978D01*
X63317752Y-57829351D01*
X63318412Y-57829286D01*
X63324600Y-57829286D01*
X63423901Y-57809534D01*
X63430623Y-57805041D01*
X63474600Y-57796294D01*
X63518576Y-57805041D01*
X63525299Y-57809534D01*
X63624600Y-57829286D01*
X64191983Y-57829286D01*
X64196489Y-57829286D01*
X64269594Y-57818775D01*
X64407549Y-57778268D01*
X64474732Y-57747587D01*
X64595686Y-57669855D01*
X64651506Y-57621487D01*
X64745660Y-57512826D01*
X64785588Y-57450695D01*
X64845316Y-57319910D01*
X64866125Y-57249044D01*
X64886587Y-57106729D01*
X64886587Y-57032871D01*
X64885946Y-57028411D01*
X64885369Y-57024393D01*
X64884086Y-57006461D01*
X64884086Y-56633139D01*
X64885369Y-56615207D01*
X64885946Y-56611188D01*
X64885946Y-56611186D01*
X64886587Y-56606729D01*
X64886587Y-56532871D01*
X64866125Y-56390556D01*
X64845316Y-56319690D01*
X64785588Y-56188905D01*
X64745660Y-56126774D01*
X64742714Y-56123374D01*
X64742711Y-56123370D01*
X64654446Y-56021506D01*
X64651506Y-56018113D01*
X64595686Y-55969745D01*
X64474732Y-55892013D01*
X64470643Y-55890145D01*
X64470640Y-55890144D01*
X64411641Y-55863200D01*
X64411632Y-55863196D01*
X64407549Y-55861332D01*
X64403235Y-55860065D01*
X64403229Y-55860063D01*
X64273918Y-55822094D01*
X64273909Y-55822092D01*
X64269594Y-55820825D01*
X64265135Y-55820183D01*
X64265131Y-55820183D01*
X64200951Y-55810955D01*
X64200943Y-55810954D01*
X64196489Y-55810314D01*
X64191983Y-55810314D01*
X64113618Y-55810314D01*
X64065400Y-55800723D01*
X64024523Y-55773409D01*
X63764638Y-55513524D01*
X63748252Y-55493348D01*
X63742288Y-55484218D01*
X63734045Y-55477802D01*
X63734044Y-55477801D01*
X63717074Y-55464592D01*
X63713128Y-55461107D01*
X63712991Y-55461270D01*
X63709022Y-55457908D01*
X63705333Y-55454219D01*
X63701090Y-55451189D01*
X63701086Y-55451186D01*
X63688254Y-55442024D01*
X63684083Y-55438914D01*
X63650579Y-55412837D01*
X63650573Y-55412834D01*
X63642339Y-55406425D01*
X63634737Y-55403815D01*
X63628199Y-55399147D01*
X63577522Y-55384060D01*
X63572596Y-55382482D01*
X63522547Y-55365300D01*
X63514509Y-55365300D01*
X63506810Y-55363008D01*
X63496381Y-55363439D01*
X63496379Y-55363439D01*
X63454006Y-55365192D01*
X63448799Y-55365300D01*
X57591824Y-55365300D01*
X57565954Y-55362615D01*
X57562683Y-55361929D01*
X57560226Y-55361414D01*
X57500329Y-55330399D01*
X57465011Y-55272933D01*
X57464394Y-55205485D01*
X57498653Y-55147385D01*
X59367634Y-53345783D01*
X59407930Y-53319654D01*
X59455078Y-53310500D01*
X76319111Y-53310500D01*
X76376314Y-53324233D01*
G37*
G04 #@! TD.AperFunction*
M02*
