M48
; DRILL file {KiCad (6.0.1)} date Mon Sep 12 22:19:58 2022
; FORMAT={-:-/ absolute / metric / decimal}
; #@! TF.CreationDate,2022-09-12T22:19:58-07:00
; #@! TF.GenerationSoftware,Kicad,Pcbnew,(6.0.1)
; #@! TF.FileFunction,Plated,1,2,PTH
FMAT,2
METRIC
; #@! TA.AperFunction,Plated,PTH,ViaDrill
T1C0.400
; #@! TA.AperFunction,Plated,PTH,ComponentDrill
T2C0.800
; #@! TA.AperFunction,Plated,PTH,ComponentDrill
T3C0.900
; #@! TA.AperFunction,Plated,PTH,ComponentDrill
T4C1.000
; #@! TA.AperFunction,Plated,PTH,ComponentDrill
T5C1.020
; #@! TA.AperFunction,Plated,PTH,ComponentDrill
T6C1.500
%
G90
G05
T1
X34.639Y-29.389
X36.493Y-53.392
X37.001Y-62.587
X39.456Y-47.088
X39.71Y-36.674
X41.904Y-27.662
X42.25Y-37.944
X44.282Y-60.296
X45.044Y-36.42
X46.622Y-55.726
X57.236Y-29.054
X59.268Y-36.42
X63.332Y-28.292
X69.682Y-28.546
X69.682Y-36.42
X71.032Y-82.598
X72.222Y-102.46
X74.254Y-29.562
X76.54Y-29.562
X78.826Y-25.244
X79.842Y-29.816
X85.176Y-45.818
X88.224Y-26.768
X90.256Y-50.644
X92.288Y-52.422
X95.437Y-103.351
X95.59Y-54.2
X96.86Y-48.104
X99.908Y-130.146
X107.528Y-28.546
X115.402Y-101.19
X120.228Y-48.104
X134.452Y-101.952
X146.898Y-47.088
X152.486Y-46.326
X153.502Y-101.952
X154.197Y-111.761
X163.916Y-53.692
X170.52Y-28.038
X172.552Y-101.952
X184.236Y-47.342
X190.417Y-96.064
X195.92Y-28.546
X197.885Y-116.206
X199.206Y-111.964
X206.588Y-41.754
X207.096Y-26.768
X207.283Y-96.521
X210.652Y-101.952
X210.652Y-112.62
X211.414Y-48.104
X212.43Y-37.944
X214.97Y-34.134
X217.002Y-126.082
X221.32Y-115.922
X225.037Y-107.977
X229.956Y-102.206
X236.645Y-74.449
X238.846Y-121.002
X240.303Y-91.797
X247.482Y-28.292
X249.006Y-101.952
X251.292Y-30.578
X252.495Y-109.318
X253.324Y-27.022
X253.805Y-109.318
X254.12Y-103.582
X257.134Y-121.002
X262.502Y-89.054
X267.802Y-39.468
X268.056Y-101.698
X268.649Y-124.283
X269.665Y-55.93
X272.12Y-63.852
X273.12Y-103.176
X273.213Y-110.043
X273.39Y-53.438
X274.237Y-112.828
X274.406Y-38.452
X274.66Y-34.134
X275.736Y-107.24
X276.946Y-120.494
X277.962Y-36.42
X278.216Y-65.376
X278.403Y-118.518
X279.486Y-52.676
X279.673Y-55.322
X279.74Y-31.086
X281.893Y-104.613
X282.534Y-38.198
X283.318Y-80.57
X284.664Y-77.204
X284.82Y-52.676
X286.852Y-29.562
X288.318Y-52.154
X290.468Y-98.553
X298.418Y-59.336
X299.124Y-83.106
X301.076Y-52.422
X301.923Y-67.87
X304.505Y-45.945
X307.172Y-29.308
X309.512Y-80.57
X309.594Y-124.918
X309.712Y-52.93
X309.966Y-48.358
X310.22Y-130.908
X311.236Y-55.216
X311.49Y-44.802
X313.395Y-42.77
X313.395Y-44.04
X314.284Y-54.708
X317.205Y-54.835
X317.586Y-33.626
X317.586Y-48.358
X319.017Y-60.733
X319.11Y-43.278
X319.275Y-121.21
X320.465Y-56.034
X321.396Y-54.454
X321.656Y-61.679
X321.904Y-47.85
X322.015Y-84.456
X323.353Y-59.12
X324.631Y-60.86
X324.698Y-48.866
X324.825Y-42.135
X324.952Y-105.762
X326.095Y-68.17
X327.365Y-40.865
X328.0Y-55.47
X329.016Y-40.23
X330.794Y-39.468
X331.556Y-43.532
X332.572Y-38.706
X334.35Y-37.944
X335.366Y-44.802
X336.128Y-37.182
X337.906Y-36.42
X339.684Y-35.658
T2
X37.22Y-60.425
X37.22Y-68.045
T3
X29.36Y-143.2
X31.9Y-143.2
T4
X38.44Y-25.5
X40.98Y-25.5
X43.52Y-25.5
X46.06Y-25.5
X48.6Y-25.5
X51.14Y-25.5
X53.68Y-25.5
X56.22Y-25.5
X58.76Y-25.5
X61.3Y-25.5
X63.84Y-25.5
X66.38Y-25.5
X68.92Y-25.5
X71.46Y-25.5
X270.9Y-45.82
X270.9Y-48.36
X273.44Y-45.82
X273.44Y-48.36
X275.98Y-45.82
X275.98Y-48.36
X278.52Y-45.82
X278.52Y-48.36
X281.06Y-45.82
X281.06Y-48.36
X283.6Y-45.82
X283.6Y-48.36
X286.14Y-45.82
X286.14Y-48.36
X288.68Y-45.82
X288.68Y-48.36
X291.22Y-45.82
X291.22Y-48.36
X293.76Y-45.82
X293.76Y-48.36
X296.3Y-45.82
X296.3Y-48.36
X298.84Y-45.82
X298.84Y-48.36
T5
X39.71Y-33.245
X39.71Y-51.025
X39.94Y-39.595
X39.94Y-42.135
X39.94Y-44.675
X42.25Y-33.245
X42.25Y-51.025
X44.79Y-33.245
X44.79Y-51.025
X47.33Y-33.245
X47.33Y-51.025
X49.87Y-33.245
X49.87Y-51.025
X52.41Y-33.245
X52.41Y-51.025
X54.95Y-33.245
X54.95Y-51.025
X57.49Y-33.245
X57.49Y-51.025
X60.03Y-33.245
X60.03Y-51.025
X62.57Y-33.245
X62.57Y-51.025
X65.11Y-33.245
X65.11Y-51.025
X67.65Y-33.245
X67.65Y-51.025
X70.19Y-33.245
X70.19Y-51.025
X72.73Y-33.245
X72.73Y-51.025
X75.27Y-33.245
X75.27Y-51.025
X77.81Y-33.245
X77.81Y-51.025
X80.35Y-33.245
X80.35Y-51.025
X82.89Y-33.245
X82.89Y-51.025
X85.43Y-33.245
X85.43Y-51.025
X87.97Y-33.245
X87.97Y-51.025
T6
X49.95Y-61.52
X54.718Y-80.595
X56.3Y-58.98
X57.099Y-99.69
X61.068Y-78.055
X61.862Y-118.67
X63.449Y-97.15
X68.212Y-116.13
X69.005Y-61.52
X75.355Y-58.98
X78.53Y-80.57
X83.293Y-99.69
X84.88Y-78.03
X88.055Y-61.52
X89.643Y-97.15
X92.818Y-118.67
X93.05Y-30.07
X94.405Y-58.98
X97.58Y-80.57
X99.168Y-116.13
X99.4Y-27.53
X102.343Y-99.69
X103.93Y-78.03
X107.105Y-61.52
X108.693Y-97.15
X110.677Y-137.72
X111.868Y-118.67
X113.455Y-58.98
X116.63Y-80.57
X117.027Y-135.18
X118.218Y-116.13
X121.393Y-99.69
X121.625Y-30.07
X122.98Y-78.03
X126.155Y-61.52
X127.743Y-97.15
X127.975Y-27.53
X130.918Y-118.67
X132.505Y-58.98
X135.68Y-80.57
X137.268Y-116.13
X140.443Y-99.69
X142.03Y-78.03
X145.205Y-61.52
X146.793Y-97.15
X149.968Y-118.67
X150.2Y-30.07
X151.555Y-58.98
X154.73Y-80.57
X156.318Y-116.13
X156.55Y-27.53
X159.493Y-99.69
X161.08Y-78.03
X164.255Y-61.52
X165.843Y-97.15
X169.018Y-118.67
X170.605Y-58.98
X173.78Y-80.57
X175.368Y-116.13
X178.543Y-99.69
X178.775Y-30.07
X180.13Y-78.03
X183.305Y-61.52
X183.305Y-137.72
X184.893Y-97.15
X185.125Y-27.53
X188.068Y-118.67
X189.655Y-58.98
X189.655Y-135.18
X192.83Y-80.57
X194.418Y-116.13
X197.593Y-99.69
X199.18Y-78.03
X202.355Y-61.52
X203.943Y-97.15
X207.118Y-118.67
X207.35Y-30.07
X208.705Y-58.98
X211.88Y-80.57
X213.468Y-116.13
X213.7Y-27.53
X216.643Y-99.69
X218.23Y-78.03
X221.405Y-61.52
X222.993Y-97.15
X226.168Y-118.67
X227.755Y-58.98
X230.93Y-80.57
X232.518Y-116.13
X235.693Y-99.69
X235.85Y-30.07
X237.28Y-78.03
X240.455Y-61.52
X242.043Y-97.15
X242.2Y-27.53
X245.218Y-118.67
X246.805Y-58.98
X249.98Y-80.57
X251.568Y-116.13
X254.743Y-99.62
X255.933Y-137.72
X256.33Y-78.03
X259.505Y-61.52
X261.093Y-97.08
X262.283Y-135.18
X264.268Y-118.67
X264.35Y-30.07
X265.855Y-58.98
X269.03Y-80.57
X270.618Y-116.13
X270.7Y-27.53
X273.793Y-99.62
X275.38Y-78.03
X278.555Y-61.52
X280.143Y-97.08
X283.318Y-118.67
X284.905Y-58.98
X288.08Y-80.57
X289.668Y-116.13
X292.85Y-30.07
X294.43Y-78.03
X299.2Y-27.53
X304.749Y-99.62
X307.13Y-61.52
X309.512Y-118.67
X311.099Y-97.08
X311.893Y-80.57
X313.48Y-58.98
X315.862Y-116.13
X318.243Y-78.03
X321.35Y-30.07
X327.7Y-27.53
T0
M30
