M48
; DRILL file {KiCad (5.1.10)-1} date 09/20/21 19:48:52
; FORMAT={-:-/ absolute / inch / decimal}
; #@! TF.CreationDate,2021-09-20T19:48:52-07:00
; #@! TF.GenerationSoftware,Kicad,Pcbnew,(5.1.10)-1
; #@! TF.FileFunction,NonPlated,1,2,NPTH
FMAT,2
INCH
T1C0.1260
T2C0.1575
%
G90
G05
T1
X1.4654Y-2.0539
X1.4654Y-5.5039
X7.3154Y-1.7539
X13.2654Y-1.6039
X13.2654Y-5.5039
T2
X2.1165Y-2.522
X2.3039Y-3.274
X2.3937Y-4.0248
X2.5831Y-4.7768
X2.8646Y-2.522
X3.237Y-3.274
X3.4252Y-4.0248
X3.6126Y-2.522
X3.7976Y-4.7768
X3.985Y-3.274
X4.1732Y-4.0248
X4.3606Y-2.522
X4.5457Y-4.7768
X4.7331Y-3.274
X4.9213Y-4.0248
X5.1087Y-2.522
X5.2937Y-4.7768
X5.4811Y-3.274
X5.6693Y-4.0248
X5.8567Y-2.522
X6.0417Y-4.7768
X6.2291Y-3.274
X6.4173Y-4.0248
X6.6047Y-2.522
X6.7898Y-4.7768
X6.9772Y-3.274
X7.1654Y-4.0248
X7.3528Y-2.522
X7.3567Y-5.5268
X7.5378Y-4.7768
X7.7252Y-3.274
X7.9134Y-4.0248
X8.1008Y-2.522
X8.2858Y-4.7768
X8.3134Y-1.2839
X8.4732Y-3.274
X8.6614Y-4.0248
X8.8488Y-2.522
X9.0339Y-4.7768
X9.2213Y-3.274
X9.4094Y-4.0248
X9.4354Y-1.2839
X9.5969Y-2.522
X9.7819Y-4.7768
X9.9693Y-3.274
X10.1575Y-4.0248
X10.3449Y-2.522
X10.5299Y-4.7768
X10.5575Y-1.2839
X10.7173Y-3.274
X10.9055Y-4.0248
X11.0929Y-2.522
X11.4654Y-3.274
X11.5585Y-4.7768
X11.6535Y-4.0248
X11.6795Y-1.2839
X11.8409Y-2.522
X12.4024Y-3.274
X12.4961Y-4.0248
X12.589Y-2.522
X12.589Y-4.7768
X12.8016Y-1.2839
T0
M30
