M48
; DRILL file {KiCad (6.0.1)} date Sat Feb 12 19:55:12 2022
; FORMAT={-:-/ absolute / metric / decimal}
; #@! TF.CreationDate,2022-02-12T19:55:12-08:00
; #@! TF.GenerationSoftware,Kicad,Pcbnew,(6.0.1)
; #@! TF.FileFunction,NonPlated,1,2,NPTH
FMAT,2
METRIC
; #@! TA.AperFunction,NonPlated,NPTH,ComponentDrill
T1C1.900
; #@! TA.AperFunction,NonPlated,NPTH,ComponentDrill
T2C3.200
; #@! TA.AperFunction,NonPlated,NPTH,ComponentDrill
T3C3.400
; #@! TA.AperFunction,NonPlated,NPTH,ComponentDrill
T4C5.500
; #@! TA.AperFunction,NonPlated,NPTH,ComponentDrill
T5C7.000
; #@! TA.AperFunction,NonPlated,NPTH,ComponentDrill
T6C12.000
%
G90
G05
T1
X48.26Y-64.06
X53.02Y-83.16
X55.3Y-102.23
X59.26Y-64.06
X60.11Y-121.33
X64.02Y-83.16
X66.3Y-102.23
X67.26Y-64.06
X71.11Y-121.33
X76.72Y-83.16
X78.26Y-64.06
X81.5Y-102.23
X86.26Y-64.06
X87.72Y-83.16
X90.96Y-121.33
X91.36Y-32.61
X92.5Y-102.23
X95.72Y-83.16
X97.26Y-64.06
X100.5Y-102.23
X101.96Y-121.33
X102.36Y-32.61
X105.26Y-64.06
X106.72Y-83.16
X109.96Y-121.33
X111.5Y-102.23
X114.72Y-83.16
X116.26Y-64.06
X119.5Y-102.23
X119.935Y-32.61
X120.96Y-121.33
X124.26Y-64.06
X125.72Y-83.16
X128.96Y-121.33
X130.5Y-102.23
X130.935Y-32.61
X133.72Y-83.16
X135.26Y-64.06
X138.5Y-102.23
X139.96Y-121.33
X143.26Y-64.06
X144.72Y-83.16
X147.96Y-121.33
X148.51Y-32.61
X149.5Y-102.23
X152.72Y-83.16
X154.26Y-64.06
X157.5Y-102.23
X158.96Y-121.33
X159.51Y-32.61
X162.26Y-64.06
X163.72Y-83.16
X166.96Y-121.33
X168.5Y-102.23
X171.72Y-83.16
X173.26Y-64.06
X176.5Y-102.23
X177.085Y-32.61
X177.96Y-121.33
X181.26Y-64.06
X181.36Y-140.38
X182.72Y-83.16
X185.96Y-121.33
X187.5Y-102.23
X188.085Y-32.61
X190.72Y-83.16
X192.26Y-64.06
X192.36Y-140.38
X195.5Y-102.23
X196.96Y-121.33
X200.26Y-64.06
X201.72Y-83.16
X204.96Y-121.33
X205.66Y-32.61
X206.5Y-102.23
X209.72Y-83.16
X211.26Y-64.06
X214.5Y-102.23
X215.96Y-121.33
X216.66Y-32.61
X219.26Y-64.06
X220.72Y-83.16
X223.96Y-121.33
X225.5Y-102.23
X228.72Y-83.16
X230.26Y-64.06
X233.5Y-102.23
X234.16Y-32.61
X234.96Y-121.33
X238.26Y-64.06
X239.72Y-83.16
X242.96Y-121.33
X244.5Y-102.23
X245.16Y-32.61
X247.72Y-83.16
X249.26Y-64.06
X252.5Y-102.23
X253.96Y-121.33
X257.26Y-64.06
X258.72Y-83.16
X261.96Y-121.33
X262.66Y-32.61
X263.5Y-102.23
X266.72Y-83.16
X268.26Y-64.06
X271.5Y-102.23
X272.96Y-121.33
X273.66Y-32.61
X276.26Y-64.06
X277.72Y-83.16
X282.5Y-102.23
X285.72Y-83.16
X287.26Y-64.06
X288.085Y-121.33
X290.5Y-102.23
X291.16Y-32.61
X295.26Y-64.06
X296.72Y-83.16
X299.085Y-121.33
X301.5Y-102.23
X302.16Y-32.61
X306.26Y-64.06
X309.52Y-83.16
X311.9Y-102.23
X314.26Y-64.06
X314.26Y-121.33
X319.66Y-32.61
X320.52Y-83.16
X322.9Y-102.23
X325.26Y-64.06
X325.26Y-121.33
X330.66Y-32.61
T2
X31.75Y-40.74
X37.22Y-139.8
X185.81Y-44.55
X336.94Y-40.74
X336.94Y-139.8
T3
X53.76Y-64.06
X58.52Y-83.16
X60.8Y-102.23
X65.61Y-121.33
X72.76Y-64.06
X82.22Y-83.16
X87.0Y-102.23
X91.76Y-64.06
X96.46Y-121.33
X96.86Y-32.61
X101.22Y-83.16
X106.0Y-102.23
X110.76Y-64.06
X115.46Y-121.33
X120.22Y-83.16
X125.0Y-102.23
X125.435Y-32.61
X129.76Y-64.06
X134.46Y-121.33
X139.22Y-83.16
X144.0Y-102.23
X148.76Y-64.06
X153.46Y-121.33
X154.01Y-32.61
X158.22Y-83.16
X163.0Y-102.23
X167.76Y-64.06
X172.46Y-121.33
X177.22Y-83.16
X182.0Y-102.23
X182.585Y-32.61
X186.76Y-64.06
X186.86Y-140.38
X191.46Y-121.33
X196.22Y-83.16
X201.0Y-102.23
X205.76Y-64.06
X210.46Y-121.33
X211.16Y-32.61
X215.22Y-83.16
X220.0Y-102.23
X224.76Y-64.06
X229.46Y-121.33
X234.22Y-83.16
X239.0Y-102.23
X239.66Y-32.61
X243.76Y-64.06
X248.46Y-121.33
X253.22Y-83.16
X258.0Y-102.23
X262.76Y-64.06
X267.46Y-121.33
X268.16Y-32.61
X272.22Y-83.16
X277.0Y-102.23
X281.76Y-64.06
X291.22Y-83.16
X293.585Y-121.33
X296.0Y-102.23
X296.66Y-32.61
X300.76Y-64.06
X315.02Y-83.16
X317.4Y-102.23
X319.76Y-64.06
X319.76Y-121.33
X325.16Y-32.61
T4
X85.86Y-36.61
X108.26Y-28.11
X114.435Y-36.61
X136.835Y-28.11
X143.01Y-36.61
X165.41Y-28.11
X171.585Y-36.61
X193.985Y-28.11
X200.16Y-36.61
X222.56Y-28.11
X228.66Y-36.61
X251.06Y-28.11
X257.16Y-36.61
X279.56Y-28.11
X285.66Y-36.61
X308.06Y-28.11
X314.16Y-36.61
X336.56Y-28.11
T5
X49.2Y-100.73G85X49.2Y-103.73
G05
X72.4Y-100.73G85X72.4Y-103.73
G05
X281.985Y-119.83G85X281.985Y-122.83
G05
X305.185Y-119.83G85X305.185Y-122.83
G05
T6
X110.36Y-138.13G85X110.36Y-142.63
G05
X263.36Y-138.13G85X263.36Y-142.63
G05
T0
M30
