M48
; DRILL file {KiCad (5.1.10)-1} date 11/29/21 17:26:06
; FORMAT={-:-/ absolute / metric / decimal}
; #@! TF.CreationDate,2021-11-29T17:26:06-08:00
; #@! TF.GenerationSoftware,Kicad,Pcbnew,(5.1.10)-1
; #@! TF.FileFunction,Plated,1,2,PTH
FMAT,2
METRIC
T1C0.400
T2C0.750
T3C0.800
T4C0.900
T5C1.000
T6C1.020
T7C1.200
T8C1.300
%
G90
G05
T1
X26.31Y-50.31
X29.36Y-50.51
X34.21Y-33.21
X35.505Y-45.24
X36.23Y-56.65
X36.96Y-28.26
X37.6Y-57.92
X39.06Y-46.86
X40.76Y-27.71
X41.71Y-34.71
X42.11Y-55.56
X43.56Y-61.41
X44.01Y-41.86
X44.96Y-53.46
X47.46Y-36.11
X48.41Y-46.56
X58.11Y-37.76
X58.21Y-43.01
X58.61Y-53.36
X58.86Y-67.41
X60.01Y-98.91
X60.21Y-72.81
X61.06Y-59.11
X64.61Y-62.96
X65.01Y-34.21
X66.06Y-97.76
X67.01Y-37.31
X68.16Y-113.36
X69.71Y-34.71
X69.91Y-76.91
X71.81Y-81.86
X72.51Y-95.26
X74.51Y-87.71
X76.21Y-25.51
X76.61Y-37.86
X77.51Y-88.76
X81.21Y-62.11
X81.86Y-25.51
X82.76Y-94.31
X83.61Y-57.71
X84.77Y-75.11
X85.16Y-99.96
X85.91Y-43.71
X87.7Y-41.12
X87.71Y-26.21
X88.11Y-127.01
X88.51Y-57.36
X89.26Y-113.16
X91.06Y-77.46
X91.46Y-38.66
X91.76Y-48.124
X93.66Y-43.21
X93.86Y-49.56
X94.71Y-118.76
X95.16Y-94.66
X101.51Y-26.96
X101.61Y-57.46
X104.01Y-100.06
X104.96Y-37.41
X109.96Y-77.46
X110.77Y-50.58
X113.91Y-28.51
X114.86Y-58.06
X115.71Y-96.46
X118.66Y-58.06
X120.51Y-35.96
X121.86Y-58.11
X124.26Y-115.11
X124.81Y-120.86
X128.16Y-77.66
X129.79Y-50.79
X130.46Y-27.91
X132.41Y-96.56
X136.81Y-36.86
X137.36Y-58.11
X137.96Y-32.91
X142.06Y-115.06
X143.31Y-27.16
X144.27Y-53.545
X147.61Y-77.11
X147.81Y-36.26
X149.276Y-53.454
X152.71Y-96.26
X155.65Y-54.27
X157.86Y-26.96
X158.36Y-57.91
X159.81Y-115.51
X163.36Y-37.01
X168.54Y-132.83
X170.36Y-96.56
X172.46Y-27.56
X173.96Y-77.36
X174.86Y-61.06
X175.81Y-59.11
X176.26Y-57.21
X176.36Y-37.01
X178.76Y-54.66
X179.46Y-116.96
X182.11Y-121.01
X186.38Y-98.43
X186.46Y-126.51
X187.51Y-26.86
X189.51Y-50.91
X190.56Y-37.51
X190.96Y-61.06
X192.31Y-32.26
X192.56Y-58.41
X197.06Y-51.14
X198.76Y-53.53
X198.91Y-28.81
X198.91Y-115.51
X200.71Y-121.16
X202.995Y-80.775
X203.73Y-29.75
X205.81Y-77.56
X207.91Y-66.51
X208.41Y-96.66
X213.16Y-61.06
X214.06Y-58.71
X215.01Y-27.56
X218.46Y-115.71
X219.41Y-121.26
X224.01Y-77.36
X226.81Y-96.66
X232.81Y-51.11
X232.81Y-58.51
X232.81Y-61.06
X236.46Y-115.16
X238.76Y-121.36
X243.36Y-77.11
X244.46Y-28.21
X246.61Y-96.56
X247.11Y-40.81
X250.46Y-58.51
X250.76Y-61.06
X253.46Y-40.21
X256.21Y-116.56
X257.66Y-121.26
X258.61Y-113.51
X258.71Y-43.06
X261.21Y-36.31
X261.31Y-77.36
X262.56Y-34.71
X263.33Y-54.79
X263.96Y-40.71
X264.26Y-52.06
X264.36Y-122.96
X265.11Y-96.66
X265.11Y-117.51
X266.85Y-45.77
X267.56Y-49.51
X267.81Y-67.86
X268.46Y-61.06
X269.91Y-29.81
X272.16Y-43.225
X272.71Y-28.96
X273.36Y-51.96
X273.56Y-117.36
X273.66Y-59.26
X274.86Y-40.71
X275.21Y-124.71
X276.21Y-36.06
X276.36Y-33.31
X278.66Y-61.95
X278.66Y-65.91
X278.91Y-77.56
X279.07Y-32.6
X279.07Y-44.02
X281.41Y-33.41
X281.46Y-38.41
X281.81Y-52.81
X283.81Y-97.31
X284.51Y-30.21
X284.91Y-25.21
X286.96Y-56.06
X289.26Y-58.71
X291.11Y-116.61
X291.73Y-52.03
X293.51Y-55.86
X293.61Y-34.96
X295.61Y-116.46
X297.41Y-55.01
X298.84Y-40.495
X299.16Y-99.06
X300.015Y-41.22
X303.01Y-38.31
X304.66Y-90.11
X305.6Y-47.25
X311.31Y-55.16
X311.47Y-47.62
X311.51Y-124.26
X311.81Y-71.11
X313.81Y-113.56
X319.11Y-37.06
X321.76Y-86.01
X323.68Y-117.57
X325.68Y-41.67
X325.68Y-44.5
X325.96Y-125.66
X327.41Y-112.06
X329.36Y-61.86
X331.36Y-43.76
X333.5Y-48.73
X335.46Y-47.58
T2
X26.502Y-47.342
X27.772Y-46.072
X29.042Y-47.342
T3
X26.56Y-60.49
X26.56Y-68.11
X29.86Y-60.51
X29.86Y-68.13
X37.22Y-60.425
X37.22Y-68.045
X56.41Y-72.71
X59.21Y-91.86
X62.11Y-132.51
X64.03Y-72.71
X65.21Y-110.86
X66.83Y-91.86
X69.73Y-132.51
X71.11Y-72.71
X72.83Y-110.86
X78.73Y-72.71
X80.56Y-91.86
X86.76Y-110.86
X88.18Y-91.86
X90.09Y-72.71
X94.38Y-110.86
X94.81Y-129.96
X97.71Y-72.71
X100.162Y-43.786
X100.91Y-91.86
X102.43Y-129.96
X105.66Y-110.86
X107.782Y-43.786
X108.53Y-91.86
X110.06Y-72.66
X113.28Y-110.86
X113.81Y-129.96
X117.68Y-72.66
X119.41Y-91.86
X121.43Y-129.96
X124.21Y-110.86
X127.03Y-91.86
X128.64Y-43.786
X129.26Y-72.71
X131.83Y-110.86
X135.01Y-129.96
X136.26Y-43.786
X136.88Y-72.71
X137.56Y-91.86
X142.63Y-129.96
X143.76Y-110.91
X145.18Y-91.86
X147.96Y-72.71
X151.38Y-110.91
X151.81Y-129.96
X155.58Y-72.71
X156.56Y-91.86
X157.058Y-43.786
X159.43Y-129.96
X162.21Y-110.86
X164.18Y-91.86
X164.678Y-43.786
X167.51Y-72.71
X169.83Y-110.86
X170.81Y-129.96
X175.13Y-72.71
X177.41Y-91.91
X178.43Y-129.96
X180.36Y-110.86
X185.03Y-91.91
X185.16Y-72.71
X187.98Y-110.86
X189.81Y-129.96
X191.094Y-43.786
X192.78Y-72.71
X194.56Y-91.91
X197.41Y-138.64
X197.41Y-146.26
X197.43Y-129.96
X198.714Y-43.786
X199.36Y-110.86
X202.18Y-91.91
X205.06Y-72.71
X206.98Y-110.86
X208.81Y-129.96
X212.68Y-72.71
X213.56Y-91.91
X215.986Y-43.786
X216.43Y-129.96
X218.36Y-110.86
X221.18Y-91.91
X223.606Y-43.786
X224.46Y-72.71
X225.98Y-110.86
X227.81Y-129.96
X232.08Y-72.71
X232.61Y-91.91
X235.43Y-129.96
X237.36Y-110.86
X240.23Y-91.91
X243.31Y-72.71
X244.434Y-43.786
X244.434Y-47.088
X244.98Y-110.86
X246.81Y-129.96
X250.93Y-72.71
X251.61Y-91.91
X252.054Y-43.786
X252.054Y-47.088
X254.43Y-129.96
X254.584Y-47.063
X254.594Y-43.786
X256.36Y-110.86
X259.23Y-91.91
X262.11Y-72.71
X262.204Y-47.063
X262.214Y-43.786
X263.98Y-110.86
X265.81Y-129.96
X269.73Y-72.71
X270.61Y-91.86
X273.43Y-129.96
X275.36Y-110.86
X278.23Y-91.86
X281.46Y-72.71
X282.98Y-110.86
X289.08Y-72.71
X289.61Y-91.91
X294.36Y-110.86
X297.23Y-91.91
X297.31Y-132.86
X300.66Y-72.71
X301.98Y-110.86
X304.93Y-132.86
X305.51Y-77.16
X305.51Y-84.78
X308.28Y-72.71
X311.36Y-132.86
X316.51Y-110.86
X318.98Y-132.86
X324.13Y-110.86
X324.16Y-81.34
X324.16Y-88.96
T4
X29.36Y-143.2
X31.9Y-143.2
X52.49Y-68.76
X55.03Y-68.76
X57.24Y-87.86
X59.54Y-106.96
X59.78Y-87.86
X62.08Y-106.96
X64.34Y-126.01
X66.88Y-126.01
X71.49Y-68.76
X74.03Y-68.76
X80.94Y-87.86
X83.48Y-87.86
X85.74Y-106.96
X88.28Y-106.96
X90.49Y-68.76
X93.03Y-68.76
X95.19Y-126.01
X95.59Y-37.3
X97.73Y-126.01
X98.13Y-37.3
X99.94Y-87.86
X102.48Y-87.86
X104.74Y-106.96
X107.28Y-106.96
X109.49Y-68.76
X112.03Y-68.76
X114.19Y-126.01
X116.73Y-126.01
X118.94Y-87.86
X121.48Y-87.86
X123.74Y-106.96
X124.16Y-37.31
X126.28Y-106.96
X126.7Y-37.31
X128.49Y-68.76
X131.03Y-68.76
X133.19Y-126.01
X135.73Y-126.01
X137.94Y-87.86
X140.48Y-87.86
X142.74Y-106.96
X145.28Y-106.96
X147.49Y-68.76
X150.03Y-68.76
X152.19Y-126.01
X152.74Y-37.306
X154.73Y-126.01
X155.28Y-37.306
X156.94Y-87.86
X159.48Y-87.86
X161.74Y-106.96
X164.28Y-106.96
X166.49Y-68.76
X169.03Y-68.76
X171.19Y-126.01
X173.73Y-126.01
X175.94Y-87.86
X178.48Y-87.86
X180.74Y-106.96
X181.315Y-37.3
X183.28Y-106.96
X183.855Y-37.3
X185.49Y-68.76
X185.59Y-145.06
X188.03Y-68.76
X188.13Y-145.06
X190.19Y-126.01
X192.73Y-126.01
X194.94Y-87.86
X197.48Y-87.86
X199.74Y-106.96
X202.28Y-106.96
X204.49Y-68.76
X207.03Y-68.76
X209.19Y-126.01
X209.898Y-37.3
X211.73Y-126.01
X212.438Y-37.3
X213.94Y-87.86
X216.48Y-87.86
X218.74Y-106.96
X221.28Y-106.96
X223.49Y-68.76
X226.03Y-68.76
X228.19Y-126.01
X230.73Y-126.01
X232.94Y-87.86
X235.48Y-87.86
X237.74Y-106.96
X238.391Y-37.3
X240.28Y-106.96
X240.931Y-37.3
X242.49Y-68.76
X245.03Y-68.76
X247.19Y-126.01
X249.73Y-126.01
X251.94Y-87.86
X254.48Y-87.86
X256.74Y-106.96
X259.28Y-106.96
X261.49Y-68.76
X264.03Y-68.76
X266.19Y-126.01
X266.9Y-37.3
X268.73Y-126.01
X269.44Y-37.3
X270.94Y-87.86
X273.48Y-87.86
X275.74Y-106.96
X278.28Y-106.96
X280.49Y-68.76
X283.03Y-68.76
X289.94Y-87.86
X292.29Y-126.01
X292.48Y-87.86
X294.74Y-106.96
X294.83Y-126.01
X295.389Y-37.3
X297.28Y-106.96
X297.929Y-37.3
X299.49Y-68.76
X302.03Y-68.76
X313.74Y-87.86
X316.14Y-106.96
X316.28Y-87.86
X318.49Y-68.76
X318.49Y-126.01
X318.68Y-106.96
X321.03Y-68.76
X321.03Y-126.01
X323.89Y-37.3
X326.43Y-37.3
T5
X26.732Y-53.048
X26.732Y-56.938
X29.272Y-53.048
X29.272Y-56.938
X38.44Y-25.5
X40.98Y-25.5
X43.52Y-25.5
X46.06Y-25.5
X48.6Y-25.5
X51.14Y-25.5
X53.68Y-25.5
X56.22Y-25.5
X58.76Y-25.5
X61.3Y-25.5
X63.84Y-25.5
X66.38Y-25.5
X68.92Y-25.5
X71.46Y-25.5
X270.9Y-45.82
X270.9Y-48.36
X273.44Y-45.82
X273.44Y-48.36
X275.98Y-45.82
X275.98Y-48.36
X278.52Y-45.82
X278.52Y-48.36
X281.06Y-45.82
X281.06Y-48.36
X283.6Y-45.82
X283.6Y-48.36
X286.14Y-45.82
X286.14Y-48.36
X288.68Y-45.82
X288.68Y-48.36
X291.22Y-45.82
X291.22Y-48.36
X293.76Y-45.82
X293.76Y-48.36
X296.3Y-45.82
X296.3Y-48.36
X298.84Y-45.82
X298.84Y-48.36
T6
X39.48Y-31.7
X39.48Y-49.48
X39.71Y-38.05
X39.71Y-40.59
X39.71Y-43.13
X42.02Y-31.7
X42.02Y-49.48
X44.56Y-31.7
X44.56Y-49.48
X47.1Y-31.7
X47.1Y-49.48
X49.64Y-31.7
X49.64Y-49.48
X52.18Y-31.7
X52.18Y-49.48
X54.72Y-31.7
X54.72Y-49.48
X57.26Y-31.7
X57.26Y-49.48
X59.8Y-31.7
X59.8Y-49.48
X62.34Y-31.7
X62.34Y-49.48
X64.88Y-31.7
X64.88Y-49.48
X67.42Y-31.7
X67.42Y-49.48
X69.96Y-31.7
X69.96Y-49.48
X72.5Y-31.7
X72.5Y-49.48
X75.04Y-31.7
X75.04Y-49.48
X77.58Y-31.7
X77.58Y-49.48
X80.12Y-31.7
X80.12Y-49.48
X82.66Y-31.7
X82.66Y-49.48
X85.2Y-31.7
X85.2Y-49.48
X87.74Y-31.7
X87.74Y-49.48
T7
X48.76Y-60.26
X53.52Y-79.36
X53.76Y-58.16
X55.8Y-98.43
X58.52Y-77.26
X60.61Y-117.53
X60.8Y-96.33
X65.61Y-115.43
X67.76Y-60.26
X72.76Y-58.16
X77.22Y-79.36
X82.0Y-98.43
X82.22Y-77.26
X86.76Y-60.26
X87.0Y-96.33
X91.46Y-117.53
X91.76Y-58.16
X91.86Y-28.81
X96.22Y-79.36
X96.46Y-115.43
X96.86Y-26.71
X101.0Y-98.43
X101.22Y-77.26
X105.76Y-60.26
X106.0Y-96.33
X110.46Y-117.53
X110.76Y-58.16
X115.22Y-79.36
X115.46Y-115.43
X120.0Y-98.43
X120.22Y-77.26
X120.435Y-28.81
X124.76Y-60.26
X125.0Y-96.33
X125.435Y-26.71
X129.46Y-117.53
X129.76Y-58.16
X134.22Y-79.36
X134.46Y-115.43
X139.0Y-98.43
X139.22Y-77.26
X143.76Y-60.26
X144.0Y-96.33
X148.46Y-117.53
X148.76Y-58.16
X149.01Y-28.81
X153.22Y-79.36
X153.46Y-115.43
X154.01Y-26.71
X158.0Y-98.43
X158.22Y-77.26
X162.76Y-60.26
X163.0Y-96.33
X167.46Y-117.53
X167.76Y-58.16
X172.22Y-79.36
X172.46Y-115.43
X177.0Y-98.43
X177.22Y-77.26
X177.585Y-28.81
X181.76Y-60.26
X181.86Y-136.58
X182.0Y-96.33
X182.585Y-26.71
X186.46Y-117.53
X186.76Y-58.16
X186.86Y-134.48
X191.22Y-79.36
X191.46Y-115.43
X196.0Y-98.43
X196.22Y-77.26
X200.76Y-60.26
X201.0Y-96.33
X205.46Y-117.53
X205.76Y-58.16
X206.16Y-28.81
X210.22Y-79.36
X210.46Y-115.43
X211.16Y-26.71
X215.0Y-98.43
X215.22Y-77.26
X219.76Y-60.26
X220.0Y-96.33
X224.46Y-117.53
X224.76Y-58.16
X229.22Y-79.36
X229.46Y-115.43
X234.0Y-98.43
X234.22Y-77.26
X234.66Y-28.81
X238.76Y-60.26
X239.0Y-96.33
X239.66Y-26.71
X243.46Y-117.53
X243.76Y-58.16
X248.22Y-79.36
X248.46Y-115.43
X253.0Y-98.43
X253.22Y-77.26
X257.76Y-60.26
X258.0Y-96.33
X262.46Y-117.53
X262.76Y-58.16
X263.16Y-28.81
X267.22Y-79.36
X267.46Y-115.43
X268.16Y-26.71
X272.0Y-98.43
X272.22Y-77.26
X276.76Y-60.26
X277.0Y-96.33
X281.76Y-58.16
X286.22Y-79.36
X288.585Y-117.53
X291.0Y-98.43
X291.22Y-77.26
X291.66Y-28.81
X293.585Y-115.43
X295.76Y-60.26
X296.0Y-96.33
X296.66Y-26.71
X300.76Y-58.16
X310.02Y-79.36
X312.4Y-98.43
X314.76Y-60.26
X314.76Y-117.53
X315.02Y-77.26
X317.4Y-96.33
X319.76Y-58.16
X319.76Y-115.43
X320.16Y-28.81
X325.16Y-26.71
T8
X27.598Y-35.658
X30.098Y-25.658
X32.598Y-35.658
T0
M30
