G04 #@! TF.GenerationSoftware,KiCad,Pcbnew,(5.1.10)-1*
G04 #@! TF.CreationDate,2021-09-25T20:53:58-07:00*
G04 #@! TF.ProjectId,Atari130MX,41746172-6931-4333-904d-582e6b696361,C*
G04 #@! TF.SameCoordinates,Original*
G04 #@! TF.FileFunction,Soldermask,Bot*
G04 #@! TF.FilePolarity,Negative*
%FSLAX46Y46*%
G04 Gerber Fmt 4.6, Leading zero omitted, Abs format (unit mm)*
G04 Created by KiCad (PCBNEW (5.1.10)-1) date 2021-09-25 20:53:58*
%MOMM*%
%LPD*%
G01*
G04 APERTURE LIST*
%ADD10O,1.600000X1.600000*%
%ADD11C,1.600000*%
%ADD12R,0.400000X1.000000*%
%ADD13R,2.000000X1.300000*%
%ADD14O,1.700000X1.700000*%
%ADD15R,1.700000X1.700000*%
%ADD16R,1.700000X3.500000*%
%ADD17R,3.500000X1.700000*%
%ADD18C,1.700000*%
%ADD19C,3.200000*%
%ADD20C,4.000000*%
%ADD21C,2.200000*%
%ADD22C,1.800000*%
%ADD23R,1.800000X1.800000*%
G04 APERTURE END LIST*
D10*
X37220000Y-60425000D03*
D11*
X37220000Y-68045000D03*
D12*
X310470000Y-46180000D03*
X311470000Y-46180000D03*
X312470000Y-46180000D03*
X313470000Y-46180000D03*
X314470000Y-46180000D03*
X315470000Y-46180000D03*
X316470000Y-46180000D03*
X317470000Y-46180000D03*
X318470000Y-46180000D03*
X319470000Y-46180000D03*
X320470000Y-46180000D03*
X321470000Y-46180000D03*
X322470000Y-46180000D03*
X323470000Y-46180000D03*
X324470000Y-46180000D03*
X325470000Y-46180000D03*
X326470000Y-46180000D03*
X327470000Y-46180000D03*
X328470000Y-46180000D03*
X329470000Y-46180000D03*
X330470000Y-46180000D03*
X331470000Y-46180000D03*
X332470000Y-46180000D03*
X333470000Y-46180000D03*
X334470000Y-46180000D03*
X335470000Y-46180000D03*
D13*
X307670000Y-48880000D03*
X338270000Y-48880000D03*
D14*
X57540000Y-33120000D03*
X60080000Y-33120000D03*
D15*
X62620000Y-33120000D03*
D14*
X65160000Y-33120000D03*
X67700000Y-33120000D03*
X70240000Y-33120000D03*
X72780000Y-33120000D03*
D15*
X75320000Y-33120000D03*
D14*
X77860000Y-33120000D03*
X80400000Y-33120000D03*
X82940000Y-33120000D03*
X85480000Y-33120000D03*
D15*
X88020000Y-33120000D03*
D14*
X90560000Y-33120000D03*
X93100000Y-33120000D03*
X95640000Y-33120000D03*
X98180000Y-33120000D03*
D15*
X100720000Y-33120000D03*
D14*
X103260000Y-33120000D03*
X105800000Y-33120000D03*
X105800000Y-50900000D03*
X103260000Y-50900000D03*
D15*
X100720000Y-50900000D03*
D14*
X98180000Y-50900000D03*
X95640000Y-50900000D03*
X93100000Y-50900000D03*
X90560000Y-50900000D03*
D15*
X88020000Y-50900000D03*
D14*
X85480000Y-50900000D03*
X82940000Y-50900000D03*
X80400000Y-50900000D03*
X77860000Y-50900000D03*
D15*
X75320000Y-50900000D03*
D14*
X72780000Y-50900000D03*
X70240000Y-50900000D03*
X67700000Y-50900000D03*
X65160000Y-50900000D03*
D15*
X62620000Y-50900000D03*
D14*
X60080000Y-50900000D03*
X57540000Y-50900000D03*
D16*
X57540000Y-32220000D03*
X60080000Y-32220000D03*
X62620000Y-32220000D03*
X65160000Y-32220000D03*
X67700000Y-32220000D03*
X70240000Y-32220000D03*
X72780000Y-32220000D03*
X75320000Y-32220000D03*
X77860000Y-32220000D03*
X80400000Y-32220000D03*
X82940000Y-32220000D03*
X85480000Y-32220000D03*
X88020000Y-32220000D03*
X90560000Y-32220000D03*
X93100000Y-32220000D03*
X95640000Y-32220000D03*
X98180000Y-32220000D03*
X100720000Y-32220000D03*
X103260000Y-32220000D03*
X105800000Y-32220000D03*
X57540000Y-51800000D03*
X60080000Y-51800000D03*
X62620000Y-51800000D03*
X65160000Y-51800000D03*
X67700000Y-51800000D03*
X70240000Y-51800000D03*
X72780000Y-51800000D03*
X75320000Y-51800000D03*
X77860000Y-51800000D03*
X80400000Y-51800000D03*
X82940000Y-51800000D03*
X85480000Y-51800000D03*
X88020000Y-51800000D03*
X90560000Y-51800000D03*
X93100000Y-51800000D03*
X95640000Y-51800000D03*
X98180000Y-51800000D03*
X100720000Y-51800000D03*
X103260000Y-51800000D03*
X105800000Y-51800000D03*
D17*
X106470000Y-39470000D03*
D14*
X105570000Y-39470000D03*
D17*
X106470000Y-42010000D03*
D15*
X105570000Y-42010000D03*
D17*
X106470000Y-44550000D03*
D14*
X105570000Y-44550000D03*
D15*
X65160000Y-25500000D03*
D14*
X67700000Y-25500000D03*
X70240000Y-25500000D03*
X72780000Y-25500000D03*
X75320000Y-25500000D03*
X77860000Y-25500000D03*
X80400000Y-25500000D03*
X82940000Y-25500000D03*
X85480000Y-25500000D03*
X88020000Y-25500000D03*
X90560000Y-25500000D03*
X93100000Y-25500000D03*
X95640000Y-25500000D03*
X98180000Y-25500000D03*
G36*
G01*
X270300000Y-44970000D02*
X271500000Y-44970000D01*
G75*
G02*
X271750000Y-45220000I0J-250000D01*
G01*
X271750000Y-46420000D01*
G75*
G02*
X271500000Y-46670000I-250000J0D01*
G01*
X270300000Y-46670000D01*
G75*
G02*
X270050000Y-46420000I0J250000D01*
G01*
X270050000Y-45220000D01*
G75*
G02*
X270300000Y-44970000I250000J0D01*
G01*
G37*
D18*
X273440000Y-45820000D03*
X275980000Y-45820000D03*
X278520000Y-45820000D03*
X281060000Y-45820000D03*
X283600000Y-45820000D03*
X286140000Y-45820000D03*
X288680000Y-45820000D03*
X291220000Y-45820000D03*
X293760000Y-45820000D03*
X296300000Y-45820000D03*
X298840000Y-45820000D03*
X270900000Y-48360000D03*
X273440000Y-48360000D03*
X275980000Y-48360000D03*
X278520000Y-48360000D03*
X281060000Y-48360000D03*
X283600000Y-48360000D03*
X286140000Y-48360000D03*
X288680000Y-48360000D03*
X291220000Y-48360000D03*
X293760000Y-48360000D03*
X296300000Y-48360000D03*
X298840000Y-48360000D03*
D19*
X37220000Y-139800000D03*
X336940000Y-139800000D03*
X336940000Y-40740000D03*
X185810000Y-44550000D03*
X37220000Y-52170000D03*
D20*
X293585000Y-121330000D03*
D21*
X289775000Y-118790000D03*
X296125000Y-116250000D03*
D20*
X60800000Y-102230000D03*
D21*
X56990000Y-99690000D03*
X63340000Y-97150000D03*
D20*
X65610000Y-121330000D03*
D21*
X61800000Y-118790000D03*
X68150000Y-116250000D03*
X242200000Y-27530000D03*
D20*
X239660000Y-32610000D03*
D21*
X235850000Y-30070000D03*
X270700000Y-27530000D03*
D20*
X268160000Y-32610000D03*
D21*
X264350000Y-30070000D03*
X327700000Y-27530000D03*
D20*
X325160000Y-32610000D03*
D21*
X321350000Y-30070000D03*
X299200000Y-27530000D03*
D20*
X296660000Y-32610000D03*
D21*
X292850000Y-30070000D03*
X213700000Y-27530000D03*
D20*
X211160000Y-32610000D03*
D21*
X207350000Y-30070000D03*
D20*
X186860000Y-140380000D03*
D21*
X183050000Y-137840000D03*
X189400000Y-135300000D03*
D22*
X31900000Y-143200000D03*
D23*
X29360000Y-143200000D03*
D20*
X96460000Y-121330000D03*
D21*
X92650000Y-118790000D03*
X99000000Y-116250000D03*
D20*
X177220000Y-83160000D03*
D21*
X173410000Y-80620000D03*
X179760000Y-78080000D03*
D20*
X115460000Y-121330000D03*
D21*
X111650000Y-118790000D03*
X118000000Y-116250000D03*
D20*
X101220000Y-83160000D03*
D21*
X97410000Y-80620000D03*
X103760000Y-78080000D03*
D20*
X153460000Y-121330000D03*
D21*
X149650000Y-118790000D03*
X156000000Y-116250000D03*
D20*
X196220000Y-83160000D03*
D21*
X192410000Y-80620000D03*
X198760000Y-78080000D03*
D20*
X58520000Y-83160000D03*
D21*
X54710000Y-80620000D03*
X61060000Y-78080000D03*
D20*
X158220000Y-83160000D03*
D21*
X154410000Y-80620000D03*
X160760000Y-78080000D03*
D20*
X296000000Y-102230000D03*
D21*
X292190000Y-99690000D03*
X298540000Y-97150000D03*
D20*
X267460000Y-121330000D03*
D21*
X263650000Y-118790000D03*
X270000000Y-116250000D03*
D20*
X258000000Y-102230000D03*
D21*
X254190000Y-99690000D03*
X260540000Y-97150000D03*
D20*
X106000000Y-102230000D03*
D21*
X102190000Y-99690000D03*
X108540000Y-97150000D03*
D20*
X315020000Y-83160000D03*
D21*
X311210000Y-80620000D03*
X317560000Y-78080000D03*
D20*
X139220000Y-83160000D03*
D21*
X135410000Y-80620000D03*
X141760000Y-78080000D03*
D20*
X82220000Y-83160000D03*
D21*
X78410000Y-80620000D03*
X84760000Y-78080000D03*
D20*
X277000000Y-102230000D03*
D21*
X273190000Y-99690000D03*
X279540000Y-97150000D03*
D20*
X248460000Y-121330000D03*
D21*
X244650000Y-118790000D03*
X251000000Y-116250000D03*
D20*
X253220000Y-83160000D03*
D21*
X249410000Y-80620000D03*
X255760000Y-78080000D03*
D20*
X234220000Y-83160000D03*
D21*
X230410000Y-80620000D03*
X236760000Y-78080000D03*
D20*
X191460000Y-121330000D03*
D21*
X187650000Y-118790000D03*
X194000000Y-116250000D03*
D20*
X210460000Y-121330000D03*
D21*
X206650000Y-118790000D03*
X213000000Y-116250000D03*
D20*
X262760000Y-64060000D03*
D21*
X258950000Y-61520000D03*
X265300000Y-58980000D03*
D20*
X239000000Y-102230000D03*
D21*
X235190000Y-99690000D03*
X241540000Y-97150000D03*
D20*
X220000000Y-102230000D03*
D21*
X216190000Y-99690000D03*
X222540000Y-97150000D03*
D20*
X201000000Y-102230000D03*
D21*
X197190000Y-99690000D03*
X203540000Y-97150000D03*
D20*
X319760000Y-121330000D03*
D21*
X315950000Y-118790000D03*
X322300000Y-116250000D03*
D20*
X215220000Y-83160000D03*
D21*
X211410000Y-80620000D03*
X217760000Y-78080000D03*
D20*
X182000000Y-102230000D03*
D21*
X178190000Y-99690000D03*
X184540000Y-97150000D03*
D20*
X281760000Y-64060000D03*
D21*
X277950000Y-61520000D03*
X284300000Y-58980000D03*
D20*
X163000000Y-102230000D03*
D21*
X159190000Y-99690000D03*
X165540000Y-97150000D03*
D20*
X144000000Y-102230000D03*
D21*
X140190000Y-99690000D03*
X146540000Y-97150000D03*
D20*
X53760000Y-64060000D03*
D21*
X49950000Y-61520000D03*
X56300000Y-58980000D03*
D20*
X291220000Y-83160000D03*
D21*
X287410000Y-80620000D03*
X293760000Y-78080000D03*
D20*
X120220000Y-83160000D03*
D21*
X116410000Y-80620000D03*
X122760000Y-78080000D03*
D20*
X300760000Y-64060000D03*
D21*
X296950000Y-61520000D03*
X303300000Y-58980000D03*
D20*
X272220000Y-83160000D03*
D21*
X268410000Y-80620000D03*
X274760000Y-78080000D03*
D20*
X125000000Y-102230000D03*
D21*
X121190000Y-99690000D03*
X127540000Y-97150000D03*
D20*
X317400000Y-102230000D03*
D21*
X313590000Y-99690000D03*
X319940000Y-97150000D03*
D20*
X229460000Y-121330000D03*
D21*
X225650000Y-118790000D03*
X232000000Y-116250000D03*
D20*
X134460000Y-121330000D03*
D21*
X130650000Y-118790000D03*
X137000000Y-116250000D03*
D20*
X319760000Y-64060000D03*
D21*
X315950000Y-61520000D03*
X322300000Y-58980000D03*
D20*
X172460000Y-121330000D03*
D21*
X168650000Y-118790000D03*
X175000000Y-116250000D03*
D20*
X87000000Y-102230000D03*
D21*
X83190000Y-99690000D03*
X89540000Y-97150000D03*
D20*
X224760000Y-64060000D03*
D21*
X220950000Y-61520000D03*
X227300000Y-58980000D03*
D20*
X205760000Y-64060000D03*
D21*
X201950000Y-61520000D03*
X208300000Y-58980000D03*
D20*
X186760000Y-64060000D03*
D21*
X182950000Y-61520000D03*
X189300000Y-58980000D03*
D20*
X167760000Y-64060000D03*
D21*
X163950000Y-61520000D03*
X170300000Y-58980000D03*
D20*
X148760000Y-64060000D03*
D21*
X144950000Y-61520000D03*
X151300000Y-58980000D03*
D20*
X129760000Y-64060000D03*
D21*
X125950000Y-61520000D03*
X132300000Y-58980000D03*
D20*
X110760000Y-64060000D03*
D21*
X106950000Y-61520000D03*
X113300000Y-58980000D03*
D20*
X91760000Y-64060000D03*
D21*
X87950000Y-61520000D03*
X94300000Y-58980000D03*
D20*
X72760000Y-64060000D03*
D21*
X68950000Y-61520000D03*
X75300000Y-58980000D03*
D20*
X243760000Y-64060000D03*
D21*
X239950000Y-61520000D03*
X246300000Y-58980000D03*
M02*
