M48
; DRILL file {KiCad (5.1.10)-1} date 11/07/21 18:25:47
; FORMAT={-:-/ absolute / metric / decimal}
; #@! TF.CreationDate,2021-11-07T18:25:47-08:00
; #@! TF.GenerationSoftware,Kicad,Pcbnew,(5.1.10)-1
; #@! TF.FileFunction,NonPlated,1,2,NPTH
FMAT,2
METRIC
T1C3.200
T2C5.500
T3C7.000
T4C12.000
%
G90
G05
T1
X36.83Y-50.8
X36.83Y-138.43
X185.42Y-43.18
X336.55Y-39.37
X336.55Y-138.43
T2
X85.47Y-35.24
X107.87Y-26.74
X114.045Y-35.24
X136.445Y-26.74
X142.62Y-35.24
X165.02Y-26.74
X171.195Y-35.24
X193.595Y-26.74
X199.77Y-35.24
X222.17Y-26.74
X228.27Y-35.24
X250.67Y-26.74
X256.77Y-35.24
X279.17Y-26.74
X285.27Y-35.24
X307.67Y-26.74
X313.77Y-35.24
X336.17Y-26.74
T3
X48.81Y-99.36G85X48.81Y-102.36
G05
X72.01Y-99.36G85X72.01Y-102.36
G05
X281.595Y-118.46G85X281.595Y-121.46
G05
X304.795Y-118.46G85X304.795Y-121.46
G05
T4
X109.97Y-136.76G85X109.97Y-141.26
G05
X262.97Y-136.76G85X262.97Y-141.26
G05
T0
M30
