M48
; DRILL file {KiCad (6.0.10)} date Mon Jan 23 22:06:00 2023
; FORMAT={-:-/ absolute / metric / decimal}
; #@! TF.CreationDate,2023-01-23T22:06:00-08:00
; #@! TF.GenerationSoftware,Kicad,Pcbnew,(6.0.10)
; #@! TF.FileFunction,Plated,1,2,PTH
FMAT,2
METRIC
; #@! TA.AperFunction,Plated,PTH,ViaDrill
T1C0.400
%
G90
G05
T1
X44.704Y-86.614
X73.665Y-51.049
X75.002Y-47.377
X77.229Y-49.575
X78.232Y-49.53
X79.232Y-49.53
X80.231Y-49.53
X81.28Y-49.53
X82.118Y-48.984
X83.058Y-49.784
X83.058Y-97.028
X84.074Y-49.022
X84.074Y-96.012
X84.902Y-49.784
X85.09Y-94.996
X85.344Y-100.584
X85.901Y-49.784
X86.106Y-93.726
X86.868Y-92.202
X86.901Y-49.784
X87.884Y-90.424
X87.884Y-106.172
X87.9Y-49.784
X88.9Y-49.784
X88.9Y-88.392
X89.916Y-86.36
X89.965Y-49.784
X90.424Y-112.268
X90.932Y-84.074
X90.965Y-49.784
X91.948Y-80.264
X91.964Y-49.784
X92.964Y-49.784
X92.964Y-76.708
X92.964Y-118.618
X93.98Y-49.784
X93.98Y-72.644
X94.996Y-68.072
X95.012Y-49.784
X95.504Y-124.714
X96.012Y-49.784
X96.012Y-63.754
X97.028Y-49.784
X97.028Y-59.182
X98.0Y-130.766
X98.044Y-46.736
X100.076Y-48.26
T0
M30
