M48
; DRILL file {KiCad (6.0.1)} date Sat Feb 12 19:55:12 2022
; FORMAT={-:-/ absolute / metric / decimal}
; #@! TF.CreationDate,2022-02-12T19:55:12-08:00
; #@! TF.GenerationSoftware,Kicad,Pcbnew,(6.0.1)
; #@! TF.FileFunction,Plated,1,2,PTH
FMAT,2
METRIC
; #@! TA.AperFunction,Plated,PTH,ViaDrill
T1C0.400
; #@! TA.AperFunction,Plated,PTH,ComponentDrill
T2C0.750
; #@! TA.AperFunction,Plated,PTH,ComponentDrill
T3C0.800
; #@! TA.AperFunction,Plated,PTH,ComponentDrill
T4C0.900
; #@! TA.AperFunction,Plated,PTH,ComponentDrill
T5C1.000
; #@! TA.AperFunction,Plated,PTH,ComponentDrill
T6C1.020
; #@! TA.AperFunction,Plated,PTH,ComponentDrill
T7C1.200
; #@! TA.AperFunction,Plated,PTH,ComponentDrill
T8C1.300
%
G90
G05
T1
X27.01Y-50.39
X32.413Y-54.893
X36.408Y-71.472
X36.916Y-70.524
X40.726Y-66.138
X40.98Y-58.264
X43.52Y-40.738
X48.854Y-59.788
X49.616Y-40.992
X50.886Y-33.626
X50.886Y-39.468
X51.394Y-90.268
X52.918Y-75.282
X53.426Y-34.896
X53.68Y-46.58
X56.058Y-37.241
X57.49Y-39.468
X58.252Y-46.834
X58.76Y-34.388
X61.046Y-43.024
X61.808Y-69.948
X62.57Y-35.658
X63.332Y-38.706
X65.374Y-40.329
X65.872Y-91.284
X67.396Y-38.706
X68.92Y-80.87
X70.19Y-23.546
X70.502Y-131.66
X71.206Y-36.674
X73.238Y-47.342
X75.016Y-26.768
X76.794Y-74.266
X77.556Y-27.784
X80.096Y-28.546
X80.604Y-113.636
X85.176Y-27.276
X87.208Y-91.538
X91.78Y-52.676
X93.304Y-127.098
X94.066Y-36.928
X98.717Y-50.652
X99.654Y-45.818
X104.381Y-51.157
X104.734Y-127.098
X105.242Y-110.842
X120.736Y-127.098
X122.514Y-51.661
X139.532Y-126.59
X141.564Y-52.165
X149.184Y-41.298
X153.248Y-50.39
X167.472Y-38.706
X167.472Y-131.451
X171.028Y-108.048
X175.854Y-126.336
X176.87Y-113.18
X177.678Y-41.298
X181.188Y-87.474
X181.696Y-47.85
X184.238Y-51.67
X185.506Y-138.02
X186.268Y-107.794
X189.062Y-127.098
X189.824Y-118.97
X189.824Y-123.288
X191.348Y-36.674
X196.428Y-127.098
X203.737Y-53.174
X205.064Y-38.452
X205.572Y-107.54
X206.08Y-41.298
X206.588Y-89.252
X208.366Y-38.706
X215.478Y-126.844
X220.558Y-110.588
X221.066Y-53.174
X221.828Y-38.452
X228.178Y-27.022
X229.702Y-31.594
X237.576Y-127.098
X239.608Y-40.289
X244.942Y-26.768
X256.118Y-27.022
X264.246Y-91.538
X267.802Y-46.834
X268.056Y-68.932
X268.105Y-40.794
X268.31Y-72.488
X270.148Y-53.946
X271.866Y-37.182
X272.628Y-50.898
X272.882Y-26.768
X274.406Y-42.252
X275.408Y-69.948
X275.676Y-50.898
X276.692Y-43.278
X276.692Y-59.788
X276.843Y-54.698
X277.2Y-53.184
X277.2Y-75.08
X277.454Y-78.33
X279.232Y-62.074
X279.486Y-93.626
X279.74Y-50.898
X279.74Y-128.622
X282.28Y-34.642
X282.28Y-52.93
X283.042Y-91.03
X284.82Y-107.794
X285.328Y-26.514
X285.582Y-65.884
X285.582Y-150.974
X286.598Y-59.28
X288.63Y-72.234
X288.63Y-150.212
X289.138Y-38.706
X289.138Y-42.77
X289.138Y-112.676
X289.646Y-130.947
X292.948Y-61.312
X293.456Y-29.562
X293.456Y-49.882
X295.996Y-40.289
X296.504Y-50.644
X297.52Y-40.992
X297.52Y-55.526
X298.79Y-56.03
X300.06Y-36.674
X303.616Y-55.47
X304.378Y-90.268
X308.164Y-54.986
X310.474Y-52.168
X311.49Y-51.396
X312.47Y-46.316
X312.506Y-87.982
X313.522Y-44.802
X314.284Y-107.794
X314.538Y-45.31
X315.554Y-44.802
X317.013Y-43.166
X317.332Y-93.316
X317.586Y-44.802
X318.348Y-49.882
X318.602Y-105.762
X319.872Y-124.812
X320.38Y-50.39
X320.718Y-44.548
X321.396Y-43.024
X322.412Y-52.92
X322.92Y-123.796
X323.428Y-68.071
X324.444Y-53.438
X324.952Y-59.534
X325.738Y-53.668
X326.5Y-54.43
X326.73Y-86.712
X326.984Y-98.904
X327.492Y-55.216
X328.254Y-55.978
X329.524Y-104.238
X330.718Y-116.43
X332.318Y-41.5
X333.334Y-52.168
X334.35Y-134.718
X335.366Y-51.406
T2
X26.502Y-47.342
X27.772Y-46.072
X29.042Y-47.342
T3
X26.56Y-60.49
X26.56Y-68.11
X29.86Y-60.51
X29.86Y-68.13
X44.79Y-58.264
X44.79Y-65.884
X49.87Y-77.314
X49.87Y-84.934
X49.87Y-92.554
X57.49Y-92.554
X63.84Y-58.264
X63.84Y-65.884
X65.872Y-111.858
X72.525Y-55.216
X73.492Y-77.314
X73.492Y-84.934
X73.492Y-111.858
X78.318Y-96.364
X78.318Y-103.984
X80.145Y-55.216
X82.89Y-58.264
X82.89Y-65.884
X87.716Y-115.414
X87.716Y-123.034
X92.542Y-77.314
X92.542Y-84.934
X97.368Y-96.364
X97.368Y-103.984
X101.94Y-58.264
X101.94Y-65.884
X103.464Y-43.51
X103.464Y-46.71
X106.766Y-115.414
X106.766Y-123.034
X111.084Y-43.51
X111.084Y-46.71
X111.592Y-77.314
X111.592Y-84.934
X116.164Y-96.364
X116.164Y-103.984
X120.99Y-58.264
X120.99Y-65.884
X125.816Y-115.414
X125.816Y-123.034
X130.388Y-77.314
X130.388Y-84.934
X135.214Y-96.364
X135.214Y-103.984
X138.77Y-43.532
X140.04Y-58.264
X140.04Y-65.884
X144.866Y-115.414
X144.866Y-123.034
X146.39Y-43.532
X149.438Y-77.314
X149.438Y-84.934
X154.264Y-96.364
X154.264Y-103.984
X159.09Y-58.264
X159.09Y-65.884
X163.662Y-115.414
X163.662Y-123.034
X167.218Y-43.532
X168.488Y-77.314
X168.488Y-84.934
X173.314Y-96.364
X173.314Y-103.984
X174.838Y-43.532
X178.14Y-58.264
X178.14Y-65.884
X178.14Y-134.464
X178.14Y-142.084
X182.712Y-115.414
X182.712Y-123.034
X187.538Y-77.314
X187.538Y-84.934
X192.364Y-96.364
X192.364Y-103.984
X195.92Y-43.532
X196.936Y-58.264
X196.936Y-65.884
X201.762Y-115.414
X201.762Y-123.034
X203.54Y-43.532
X206.588Y-77.314
X206.588Y-84.934
X211.16Y-96.364
X211.16Y-103.984
X215.986Y-58.264
X215.986Y-65.884
X220.812Y-115.414
X220.812Y-123.034
X224.622Y-43.532
X225.384Y-77.314
X225.384Y-84.934
X230.21Y-96.364
X230.21Y-103.984
X232.242Y-43.532
X235.036Y-58.264
X235.036Y-65.884
X239.862Y-115.414
X239.862Y-123.034
X244.434Y-77.314
X244.434Y-84.934
X249.26Y-96.364
X249.26Y-103.984
X253.07Y-43.532
X254.086Y-58.264
X254.086Y-65.884
X258.658Y-115.414
X258.658Y-123.034
X260.69Y-43.532
X263.484Y-77.314
X263.484Y-84.934
X268.31Y-96.364
X268.31Y-103.984
X272.882Y-58.264
X272.882Y-65.884
X276.184Y-115.414
X276.184Y-123.034
X282.534Y-77.314
X282.534Y-84.934
X287.36Y-96.364
X287.36Y-103.984
X291.932Y-58.264
X291.932Y-65.884
X306.41Y-77.314
X306.41Y-84.934
X308.696Y-96.364
X308.696Y-103.984
X310.982Y-58.264
X310.982Y-65.884
X310.982Y-115.414
X310.982Y-123.034
X344.002Y-32.102
X344.002Y-39.722
X347.304Y-32.102
X347.304Y-39.722
T4
X29.36Y-143.2
X31.9Y-143.2
X52.49Y-59.36
X55.03Y-59.36
X57.24Y-78.46
X59.54Y-97.53
X59.78Y-78.46
X62.08Y-97.53
X64.34Y-116.63
X66.88Y-116.63
X71.49Y-59.36
X74.03Y-59.36
X80.94Y-78.46
X83.48Y-78.46
X85.74Y-97.53
X88.28Y-97.53
X90.49Y-59.36
X93.03Y-59.36
X95.19Y-116.63
X95.59Y-27.92
X97.73Y-116.63
X98.13Y-27.92
X99.94Y-78.46
X102.48Y-78.46
X104.74Y-97.53
X107.28Y-97.53
X109.49Y-59.36
X112.03Y-59.36
X114.19Y-116.63
X116.73Y-116.63
X118.94Y-78.46
X121.48Y-78.46
X123.74Y-97.53
X124.16Y-27.92
X126.28Y-97.53
X126.7Y-27.92
X128.49Y-59.36
X131.03Y-59.36
X133.19Y-116.63
X135.73Y-116.63
X137.94Y-78.46
X140.48Y-78.46
X142.74Y-97.53
X145.28Y-97.53
X147.49Y-59.36
X150.03Y-59.36
X152.19Y-116.63
X152.74Y-27.92
X154.73Y-116.63
X155.28Y-27.92
X156.94Y-78.46
X159.48Y-78.46
X161.74Y-97.53
X164.28Y-97.53
X166.49Y-59.36
X169.03Y-59.36
X171.19Y-116.63
X173.73Y-116.63
X175.94Y-78.46
X178.48Y-78.46
X180.74Y-97.53
X181.315Y-27.92
X183.28Y-97.53
X183.855Y-27.92
X185.49Y-59.36
X185.59Y-135.68
X188.03Y-59.36
X188.13Y-135.68
X190.19Y-116.63
X192.73Y-116.63
X194.94Y-78.46
X197.48Y-78.46
X199.74Y-97.53
X202.28Y-97.53
X204.49Y-59.36
X207.03Y-59.36
X209.19Y-116.63
X209.898Y-27.92
X211.73Y-116.63
X212.438Y-27.92
X213.94Y-78.46
X216.48Y-78.46
X218.74Y-97.53
X221.28Y-97.53
X223.49Y-59.36
X226.03Y-59.36
X228.19Y-116.63
X230.73Y-116.63
X232.94Y-78.46
X235.48Y-78.46
X237.74Y-97.53
X238.391Y-27.92
X240.28Y-97.53
X240.931Y-27.92
X242.49Y-59.36
X245.03Y-59.36
X247.19Y-116.63
X249.73Y-116.63
X251.94Y-78.46
X254.48Y-78.46
X256.74Y-97.53
X259.28Y-97.53
X261.49Y-59.36
X264.03Y-59.36
X266.19Y-116.63
X266.9Y-27.92
X268.73Y-116.63
X269.44Y-27.92
X270.94Y-78.46
X273.48Y-78.46
X275.74Y-97.53
X278.28Y-97.53
X280.49Y-59.36
X283.03Y-59.36
X289.94Y-78.46
X292.29Y-116.63
X292.48Y-78.46
X294.74Y-97.53
X294.83Y-116.63
X295.389Y-27.92
X297.28Y-97.53
X297.929Y-27.92
X299.49Y-59.36
X302.03Y-59.36
X313.74Y-78.46
X316.14Y-97.53
X316.28Y-78.46
X318.49Y-59.36
X318.49Y-116.63
X318.68Y-97.53
X321.03Y-59.36
X321.03Y-116.63
X323.89Y-27.92
X326.43Y-27.92
T5
X26.732Y-53.048
X26.732Y-56.938
X29.272Y-53.048
X29.272Y-56.938
X38.44Y-25.5
X40.98Y-25.5
X43.52Y-25.5
X46.06Y-25.5
X48.6Y-25.5
X51.14Y-25.5
X53.68Y-25.5
X56.22Y-25.5
X58.76Y-25.5
X61.3Y-25.5
X63.84Y-25.5
X66.38Y-25.5
X68.92Y-25.5
X71.46Y-25.5
X270.9Y-45.82
X270.9Y-48.36
X273.44Y-45.82
X273.44Y-48.36
X275.98Y-45.82
X275.98Y-48.36
X278.52Y-45.82
X278.52Y-48.36
X281.06Y-45.82
X281.06Y-48.36
X283.6Y-45.82
X283.6Y-48.36
X286.14Y-45.82
X286.14Y-48.36
X288.68Y-45.82
X288.68Y-48.36
X291.22Y-45.82
X291.22Y-48.36
X293.76Y-45.82
X293.76Y-48.36
X296.3Y-45.82
X296.3Y-48.36
X298.84Y-45.82
X298.84Y-48.36
T6
X39.48Y-31.7
X39.48Y-49.48
X39.71Y-38.05
X39.71Y-40.59
X39.71Y-43.13
X42.02Y-31.7
X42.02Y-49.48
X44.56Y-31.7
X44.56Y-49.48
X47.1Y-31.7
X47.1Y-49.48
X49.64Y-31.7
X49.64Y-49.48
X52.18Y-31.7
X52.18Y-49.48
X54.72Y-31.7
X54.72Y-49.48
X57.26Y-31.7
X57.26Y-49.48
X59.8Y-31.7
X59.8Y-49.48
X62.34Y-31.7
X62.34Y-49.48
X64.88Y-31.7
X64.88Y-49.48
X67.42Y-31.7
X67.42Y-49.48
X69.96Y-31.7
X69.96Y-49.48
X72.5Y-31.7
X72.5Y-49.48
X75.04Y-31.7
X75.04Y-49.48
X77.58Y-31.7
X77.58Y-49.48
X80.12Y-31.7
X80.12Y-49.48
X82.66Y-31.7
X82.66Y-49.48
X85.2Y-31.7
X85.2Y-49.48
X87.74Y-31.7
X87.74Y-49.48
T7
X48.76Y-67.86
X53.52Y-86.96
X53.76Y-69.96
X55.8Y-106.03
X58.52Y-89.06
X60.61Y-125.13
X60.8Y-108.13
X65.61Y-127.23
X67.76Y-67.86
X72.76Y-69.96
X77.22Y-86.96
X82.0Y-106.03
X82.22Y-89.06
X86.76Y-67.86
X87.0Y-108.13
X91.46Y-125.13
X91.76Y-69.96
X91.86Y-36.41
X96.22Y-86.96
X96.46Y-127.23
X96.86Y-38.51
X101.0Y-106.03
X101.22Y-89.06
X105.76Y-67.86
X106.0Y-108.13
X110.46Y-125.13
X110.76Y-69.96
X115.22Y-86.96
X115.46Y-127.23
X120.0Y-106.03
X120.22Y-89.06
X120.435Y-36.41
X124.76Y-67.86
X125.0Y-108.13
X125.435Y-38.51
X129.46Y-125.13
X129.76Y-69.96
X134.22Y-86.96
X134.46Y-127.23
X139.0Y-106.03
X139.22Y-89.06
X143.76Y-67.86
X144.0Y-108.13
X148.46Y-125.13
X148.76Y-69.96
X149.01Y-36.41
X153.22Y-86.96
X153.46Y-127.23
X154.01Y-38.51
X158.0Y-106.03
X158.22Y-89.06
X162.76Y-67.86
X163.0Y-108.13
X167.46Y-125.13
X167.76Y-69.96
X172.22Y-86.96
X172.46Y-127.23
X177.0Y-106.03
X177.22Y-89.06
X177.585Y-36.41
X181.76Y-67.86
X181.86Y-144.18
X182.0Y-108.13
X182.585Y-38.51
X186.46Y-125.13
X186.76Y-69.96
X186.86Y-146.28
X191.22Y-86.96
X191.46Y-127.23
X196.0Y-106.03
X196.22Y-89.06
X200.76Y-67.86
X201.0Y-108.13
X205.46Y-125.13
X205.76Y-69.96
X206.16Y-36.41
X210.22Y-86.96
X210.46Y-127.23
X211.16Y-38.51
X215.0Y-106.03
X215.22Y-89.06
X219.76Y-67.86
X220.0Y-108.13
X224.46Y-125.13
X224.76Y-69.96
X229.22Y-86.96
X229.46Y-127.23
X234.0Y-106.03
X234.22Y-89.06
X234.66Y-36.41
X238.76Y-67.86
X239.0Y-108.13
X239.66Y-38.51
X243.46Y-125.13
X243.76Y-69.96
X248.22Y-86.96
X248.46Y-127.23
X253.0Y-106.03
X253.22Y-89.06
X257.76Y-67.86
X258.0Y-108.13
X262.46Y-125.13
X262.76Y-69.96
X263.16Y-36.41
X267.22Y-86.96
X267.46Y-127.23
X268.16Y-38.51
X272.0Y-106.03
X272.22Y-89.06
X276.76Y-67.86
X277.0Y-108.13
X281.76Y-69.96
X286.22Y-86.96
X288.585Y-125.13
X291.0Y-106.03
X291.22Y-89.06
X291.66Y-36.41
X293.585Y-127.23
X295.76Y-67.86
X296.0Y-108.13
X296.66Y-38.51
X300.76Y-69.96
X310.02Y-86.96
X312.4Y-106.03
X314.76Y-67.86
X314.76Y-125.13
X315.02Y-89.06
X317.4Y-108.13
X319.76Y-69.96
X319.76Y-127.23
X320.16Y-36.41
X325.16Y-38.51
T8
X27.598Y-35.658
X30.098Y-25.658
X32.598Y-35.658
T0
M30
