%TF.GenerationSoftware,KiCad,Pcbnew,(6.0.10)*%
%TF.CreationDate,2023-01-23T22:05:49-08:00*%
%TF.ProjectId,Atari130MX-adapter-flexible-FFC,41746172-6931-4333-904d-582d61646170,rev?*%
%TF.SameCoordinates,Original*%
%TF.FileFunction,Soldermask,Top*%
%TF.FilePolarity,Negative*%
%FSLAX46Y46*%
G04 Gerber Fmt 4.6, Leading zero omitted, Abs format (unit mm)*
G04 Created by KiCad (PCBNEW (6.0.10)) date 2023-01-23 22:05:49*
%MOMM*%
%LPD*%
G01*
G04 APERTURE LIST*
%ADD10R,0.700000X2.700000*%
G04 APERTURE END LIST*
D10*
%TO.C,J2*%
X100000000Y-30000000D03*
X99000000Y-30000000D03*
X98000000Y-30000000D03*
X97000000Y-30000000D03*
X96000000Y-30000000D03*
X95000000Y-30000000D03*
X94000000Y-30000000D03*
X93000000Y-30000000D03*
X92000000Y-30000000D03*
X91000000Y-30000000D03*
X90000000Y-30000000D03*
X89000000Y-30000000D03*
X88000000Y-30000000D03*
X87000000Y-30000000D03*
X86000000Y-30000000D03*
X85000000Y-30000000D03*
X84000000Y-30000000D03*
X83000000Y-30000000D03*
X82000000Y-30000000D03*
X81000000Y-30000000D03*
X80000000Y-30000000D03*
X79000000Y-30000000D03*
X78000000Y-30000000D03*
X77000000Y-30000000D03*
X76000000Y-30000000D03*
X75000000Y-30000000D03*
%TD*%
%TO.C,J1*%
X39580000Y-134000000D03*
X42120000Y-134000000D03*
X44660000Y-134000000D03*
X47200000Y-134000000D03*
X49740000Y-134000000D03*
X52280000Y-134000000D03*
X54820000Y-134000000D03*
X57360000Y-134000000D03*
X59900000Y-134000000D03*
X62440000Y-134000000D03*
X64980000Y-134000000D03*
X67520000Y-134000000D03*
X70060000Y-134000000D03*
X72600000Y-134000000D03*
X75140000Y-134000000D03*
X77680000Y-134000000D03*
X80220000Y-134000000D03*
X82760000Y-134000000D03*
X85300000Y-134000000D03*
X87840000Y-134000000D03*
X90380000Y-134000000D03*
X92920000Y-134000000D03*
X95460000Y-134000000D03*
X98000000Y-134000000D03*
%TD*%
M02*
