%TF.GenerationSoftware,KiCad,Pcbnew,(6.0.10)*%
%TF.CreationDate,2023-01-23T22:05:49-08:00*%
%TF.ProjectId,Atari130MX-adapter-flexible-FFC,41746172-6931-4333-904d-582d61646170,rev?*%
%TF.SameCoordinates,Original*%
%TF.FileFunction,Copper,L1,Top*%
%TF.FilePolarity,Positive*%
%FSLAX46Y46*%
G04 Gerber Fmt 4.6, Leading zero omitted, Abs format (unit mm)*
G04 Created by KiCad (PCBNEW (6.0.10)) date 2023-01-23 22:05:49*
%MOMM*%
%LPD*%
G01*
G04 APERTURE LIST*
%TA.AperFunction,ConnectorPad*%
%ADD10R,0.700000X2.700000*%
%TD*%
%TA.AperFunction,ViaPad*%
%ADD11C,0.800000*%
%TD*%
%TA.AperFunction,Conductor*%
%ADD12C,0.250000*%
%TD*%
G04 APERTURE END LIST*
D10*
%TO.P,J2,1,Pin_1*%
%TO.N,Net-(J2-Pad1)*%
X100000000Y-30000000D03*
%TO.P,J2,2,Pin_2*%
%TO.N,Net-(J2-Pad2)*%
X99000000Y-30000000D03*
%TO.P,J2,3,Pin_3*%
%TO.N,Net-(J2-Pad3)*%
X98000000Y-30000000D03*
%TO.P,J2,4,Pin_4*%
%TO.N,Net-(J2-Pad4)*%
X97000000Y-30000000D03*
%TO.P,J2,5,Pin_5*%
%TO.N,Net-(J2-Pad5)*%
X96000000Y-30000000D03*
%TO.P,J2,6,Pin_6*%
%TO.N,Net-(J2-Pad6)*%
X95000000Y-30000000D03*
%TO.P,J2,7,Pin_7*%
%TO.N,Net-(J2-Pad7)*%
X94000000Y-30000000D03*
%TO.P,J2,8,Pin_8*%
%TO.N,Net-(J2-Pad8)*%
X93000000Y-30000000D03*
%TO.P,J2,9,Pin_9*%
%TO.N,Net-(J2-Pad9)*%
X92000000Y-30000000D03*
%TO.P,J2,10,Pin_10*%
%TO.N,Net-(J2-Pad10)*%
X91000000Y-30000000D03*
%TO.P,J2,11,Pin_11*%
%TO.N,Net-(J2-Pad11)*%
X90000000Y-30000000D03*
%TO.P,J2,12,Pin_12*%
%TO.N,Net-(J2-Pad12)*%
X89000000Y-30000000D03*
%TO.P,J2,13,Pin_13*%
%TO.N,Net-(J2-Pad13)*%
X88000000Y-30000000D03*
%TO.P,J2,14,Pin_14*%
%TO.N,Net-(J2-Pad14)*%
X87000000Y-30000000D03*
%TO.P,J2,15,Pin_15*%
%TO.N,Net-(J1-Pad15)*%
X86000000Y-30000000D03*
%TO.P,J2,16,Pin_16*%
%TO.N,Net-(J1-Pad16)*%
X85000000Y-30000000D03*
%TO.P,J2,17,Pin_17*%
%TO.N,Net-(J1-Pad17)*%
X84000000Y-30000000D03*
%TO.P,J2,18,Pin_18*%
%TO.N,Net-(J1-Pad18)*%
X83000000Y-30000000D03*
%TO.P,J2,19,Pin_19*%
%TO.N,Net-(J1-Pad19)*%
X82000000Y-30000000D03*
%TO.P,J2,20,Pin_20*%
%TO.N,Net-(J1-Pad20)*%
X81000000Y-30000000D03*
%TO.P,J2,21,Pin_21*%
%TO.N,Net-(J1-Pad21)*%
X80000000Y-30000000D03*
%TO.P,J2,22,Pin_22*%
%TO.N,Net-(J1-Pad22)*%
X79000000Y-30000000D03*
%TO.P,J2,23,Pin_23*%
%TO.N,Net-(J1-Pad23)*%
X78000000Y-30000000D03*
%TO.P,J2,24,Pin_24*%
%TO.N,Net-(J1-Pad24)*%
X77000000Y-30000000D03*
%TO.P,J2,25,Pin_25*%
%TO.N,Net-(J2-Pad1)*%
X76000000Y-30000000D03*
%TO.P,J2,26,Pin_26*%
%TO.N,Net-(J2-Pad3)*%
X75000000Y-30000000D03*
%TD*%
%TO.P,J1,1,Pin_1*%
%TO.N,Net-(J2-Pad1)*%
X39580000Y-134000000D03*
%TO.P,J1,2,Pin_2*%
%TO.N,Net-(J2-Pad2)*%
X42120000Y-134000000D03*
%TO.P,J1,3,Pin_3*%
%TO.N,Net-(J2-Pad3)*%
X44660000Y-134000000D03*
%TO.P,J1,4,Pin_4*%
%TO.N,Net-(J2-Pad4)*%
X47200000Y-134000000D03*
%TO.P,J1,5,Pin_5*%
%TO.N,Net-(J2-Pad5)*%
X49740000Y-134000000D03*
%TO.P,J1,6,Pin_6*%
%TO.N,Net-(J2-Pad6)*%
X52280000Y-134000000D03*
%TO.P,J1,7,Pin_7*%
%TO.N,Net-(J2-Pad7)*%
X54820000Y-134000000D03*
%TO.P,J1,8,Pin_8*%
%TO.N,Net-(J2-Pad8)*%
X57360000Y-134000000D03*
%TO.P,J1,9,Pin_9*%
%TO.N,Net-(J2-Pad9)*%
X59900000Y-134000000D03*
%TO.P,J1,10,Pin_10*%
%TO.N,Net-(J2-Pad10)*%
X62440000Y-134000000D03*
%TO.P,J1,11,Pin_11*%
%TO.N,Net-(J2-Pad11)*%
X64980000Y-134000000D03*
%TO.P,J1,12,Pin_12*%
%TO.N,Net-(J2-Pad12)*%
X67520000Y-134000000D03*
%TO.P,J1,13,Pin_13*%
%TO.N,Net-(J2-Pad13)*%
X70060000Y-134000000D03*
%TO.P,J1,14,Pin_14*%
%TO.N,Net-(J2-Pad14)*%
X72600000Y-134000000D03*
%TO.P,J1,15,Pin_15*%
%TO.N,Net-(J1-Pad15)*%
X75140000Y-134000000D03*
%TO.P,J1,16,Pin_16*%
%TO.N,Net-(J1-Pad16)*%
X77680000Y-134000000D03*
%TO.P,J1,17,Pin_17*%
%TO.N,Net-(J1-Pad17)*%
X80220000Y-134000000D03*
%TO.P,J1,18,Pin_18*%
%TO.N,Net-(J1-Pad18)*%
X82760000Y-134000000D03*
%TO.P,J1,19,Pin_19*%
%TO.N,Net-(J1-Pad19)*%
X85300000Y-134000000D03*
%TO.P,J1,20,Pin_20*%
%TO.N,Net-(J1-Pad20)*%
X87840000Y-134000000D03*
%TO.P,J1,21,Pin_21*%
%TO.N,Net-(J1-Pad21)*%
X90380000Y-134000000D03*
%TO.P,J1,22,Pin_22*%
%TO.N,Net-(J1-Pad22)*%
X92920000Y-134000000D03*
%TO.P,J1,23,Pin_23*%
%TO.N,Net-(J1-Pad23)*%
X95460000Y-134000000D03*
%TO.P,J1,24,Pin_24*%
%TO.N,Net-(J1-Pad24)*%
X98000000Y-134000000D03*
%TD*%
D11*
%TO.N,Net-(J2-Pad1)*%
X100076000Y-48260000D03*
X73665133Y-51048867D03*
%TO.N,Net-(J2-Pad3)*%
X75001823Y-47377419D03*
X44704000Y-86614000D03*
X98044000Y-46736000D03*
%TO.N,Net-(J2-Pad4)*%
X97028000Y-49784000D03*
X97028000Y-59182000D03*
%TO.N,Net-(J2-Pad5)*%
X96012000Y-49784000D03*
X96012000Y-63754000D03*
%TO.N,Net-(J2-Pad6)*%
X94996000Y-68072000D03*
X95012497Y-49784000D03*
%TO.N,Net-(J2-Pad7)*%
X93980000Y-49784000D03*
X93980000Y-72644000D03*
%TO.N,Net-(J2-Pad8)*%
X92964000Y-49784000D03*
X92964000Y-76708000D03*
%TO.N,Net-(J2-Pad9)*%
X91948000Y-80264000D03*
X91964497Y-49784000D03*
%TO.N,Net-(J2-Pad10)*%
X90964994Y-49784000D03*
X90932000Y-84074000D03*
%TO.N,Net-(J2-Pad11)*%
X89916000Y-86360000D03*
X89965491Y-49784000D03*
%TO.N,Net-(J2-Pad12)*%
X88900000Y-88392000D03*
X88900000Y-49784000D03*
%TO.N,Net-(J2-Pad13)*%
X87900497Y-49784000D03*
X87884000Y-90424000D03*
%TO.N,Net-(J2-Pad14)*%
X86868000Y-92202000D03*
X86900994Y-49784000D03*
%TO.N,Net-(J1-Pad15)*%
X85901491Y-49784000D03*
X86106000Y-93726000D03*
%TO.N,Net-(J1-Pad16)*%
X84901988Y-49784000D03*
X85090000Y-94996000D03*
%TO.N,Net-(J1-Pad17)*%
X84074000Y-96012000D03*
X84074000Y-49022000D03*
%TO.N,Net-(J1-Pad18)*%
X83058000Y-49784000D03*
X83058000Y-97028000D03*
%TO.N,Net-(J1-Pad19)*%
X82117515Y-48984500D03*
X85344000Y-100584000D03*
%TO.N,Net-(J1-Pad20)*%
X87884000Y-106172000D03*
X81280000Y-49530000D03*
%TO.N,Net-(J1-Pad21)*%
X80231006Y-49530000D03*
X90424000Y-112268000D03*
%TO.N,Net-(J1-Pad22)*%
X79231503Y-49530000D03*
X92964000Y-118618000D03*
%TO.N,Net-(J1-Pad23)*%
X78232000Y-49530000D03*
X95504000Y-124714000D03*
%TO.N,Net-(J1-Pad24)*%
X77228761Y-49575176D03*
X98000000Y-130766000D03*
%TD*%
D12*
%TO.N,Net-(J2-Pad1)*%
X76000000Y-45412000D02*
X76000000Y-30000000D01*
X100000000Y-30000000D02*
X100000000Y-48184000D01*
X41021000Y-83693000D02*
X73665133Y-51048867D01*
X39580000Y-134000000D02*
X39580000Y-87171881D01*
X100000000Y-48184000D02*
X100076000Y-48260000D01*
X41021005Y-83693005D02*
G75*
G03*
X39580000Y-87171881I3478895J-3478895D01*
G01*
X76000009Y-45412000D02*
G75*
G02*
X73665132Y-51048866I-7971709J0D01*
G01*
%TO.N,Net-(J2-Pad2)*%
X42120000Y-134000000D02*
X42120000Y-88602000D01*
X44213036Y-83548964D02*
X57639948Y-70122052D01*
X99000000Y-51837592D02*
X99000000Y-30000000D01*
X86106000Y-66802000D02*
X97536000Y-55372000D01*
X61976000Y-68326000D02*
X82426739Y-68326000D01*
X44213030Y-83548958D02*
G75*
G03*
X42120000Y-88602000I5053070J-5053042D01*
G01*
X86105989Y-66801989D02*
G75*
G02*
X82426739Y-68326000I-3679289J3679289D01*
G01*
X98999996Y-51837592D02*
G75*
G02*
X97536000Y-55372000I-4998396J-8D01*
G01*
X61976000Y-68326000D02*
G75*
G03*
X57639949Y-70122053I0J-6132100D01*
G01*
%TO.N,Net-(J2-Pad3)*%
X44660000Y-134000000D02*
X44660000Y-86658000D01*
X98000000Y-46629775D02*
X98000000Y-30000000D01*
X44660000Y-86658000D02*
X44704000Y-86614000D01*
X75000000Y-30000000D02*
X75000000Y-47373018D01*
X75001837Y-47377405D02*
G75*
G02*
X75000000Y-47373018I4363J4405D01*
G01*
X98000011Y-46629775D02*
G75*
G03*
X98044000Y-46736000I150189J-25D01*
G01*
%TO.N,Net-(J2-Pad4)*%
X49175656Y-81634343D02*
X49276000Y-81534000D01*
X62484000Y-70866000D02*
X83009134Y-70866000D01*
X97028000Y-49784000D02*
X97000000Y-49756000D01*
X47200000Y-134000000D02*
X47200000Y-86404000D01*
X49276000Y-81534000D02*
X58147949Y-72662051D01*
X97000000Y-49756000D02*
X97000000Y-30000000D01*
X86995000Y-69215000D02*
X97028000Y-59182000D01*
X49175659Y-81634346D02*
G75*
G03*
X47200000Y-86404000I4769641J-4769654D01*
G01*
X62484000Y-70866000D02*
G75*
G03*
X58147950Y-72662052I0J-6132100D01*
G01*
X86994990Y-69214990D02*
G75*
G02*
X83009134Y-70866000I-3985890J3985890D01*
G01*
%TO.N,Net-(J2-Pad5)*%
X49740000Y-134000000D02*
X49740000Y-87667117D01*
X63754000Y-73152000D02*
X83820000Y-73152000D01*
X96000000Y-32246000D02*
X96000000Y-30000000D01*
X96012000Y-49784000D02*
X96012000Y-32258000D01*
X96012000Y-32258000D02*
X96000000Y-32246000D01*
X88589657Y-71176343D02*
X96012000Y-63754000D01*
X52070000Y-82042000D02*
X58984344Y-75127656D01*
X52069995Y-82041995D02*
G75*
G03*
X49740000Y-87667117I5625105J-5625105D01*
G01*
X63754000Y-73151997D02*
G75*
G03*
X58984345Y-75127657I0J-6745303D01*
G01*
X88589654Y-71176340D02*
G75*
G02*
X83820000Y-73152000I-4769654J4769640D01*
G01*
%TO.N,Net-(J2-Pad6)*%
X95012497Y-49784000D02*
X95012497Y-32020497D01*
X89535000Y-73533000D02*
X94996000Y-68072000D01*
X52280000Y-134000000D02*
X52280000Y-87674000D01*
X95012497Y-32020497D02*
X95000000Y-32008000D01*
X64262000Y-75438000D02*
X84935924Y-75438000D01*
X95000000Y-32008000D02*
X95000000Y-30000000D01*
X54255656Y-82904343D02*
X59925948Y-77234052D01*
X64262000Y-75438000D02*
G75*
G03*
X59925949Y-77234053I0J-6132100D01*
G01*
X89534993Y-73532993D02*
G75*
G02*
X84935924Y-75438000I-4599093J4599093D01*
G01*
X54255659Y-82904346D02*
G75*
G03*
X52280000Y-87674000I4769641J-4769654D01*
G01*
%TO.N,Net-(J2-Pad7)*%
X93980000Y-49784000D02*
X94000000Y-49764000D01*
X54820000Y-134000000D02*
X54820000Y-88039091D01*
X56515000Y-83947000D02*
X60960000Y-79502000D01*
X94000000Y-49764000D02*
X94000000Y-30000000D01*
X90678000Y-75946000D02*
X93980000Y-72644000D01*
X65252471Y-77724000D02*
X86385529Y-77724000D01*
X90677992Y-75945992D02*
G75*
G02*
X86385529Y-77724000I-4292492J4292492D01*
G01*
X65252471Y-77723989D02*
G75*
G03*
X60960001Y-79502001I29J-6070511D01*
G01*
X56515002Y-83947002D02*
G75*
G03*
X54820000Y-88039091I4092098J-4092098D01*
G01*
%TO.N,Net-(J2-Pad8)*%
X66548000Y-79756000D02*
X87042319Y-79756000D01*
X59309000Y-84201000D02*
X61778344Y-81731656D01*
X57360000Y-134000000D02*
X57360000Y-88906302D01*
X92964000Y-32004000D02*
X93000000Y-31968000D01*
X92964000Y-49784000D02*
X92964000Y-32004000D01*
X91948000Y-77724000D02*
X92964000Y-76708000D01*
X93000000Y-31968000D02*
X93000000Y-30000000D01*
X91947995Y-77723995D02*
G75*
G02*
X87042319Y-79756000I-4905695J4905695D01*
G01*
X59308999Y-84200999D02*
G75*
G03*
X57360000Y-88906302I4705301J-4705301D01*
G01*
X66548000Y-79755997D02*
G75*
G03*
X61778345Y-81731657I0J-6745303D01*
G01*
%TO.N,Net-(J2-Pad9)*%
X92000000Y-49748497D02*
X92000000Y-30000000D01*
X61993036Y-84818964D02*
X62992000Y-83820000D01*
X67284471Y-82042000D02*
X88373949Y-82042000D01*
X59900000Y-134000000D02*
X59900000Y-89872000D01*
X91440000Y-80772000D02*
X91948000Y-80264000D01*
X91964497Y-49784000D02*
X92000000Y-49748497D01*
X67284471Y-82041989D02*
G75*
G03*
X62992001Y-83820001I29J-6070511D01*
G01*
X91440015Y-80772015D02*
G75*
G02*
X88373949Y-82042000I-3066015J3066015D01*
G01*
X61993030Y-84818958D02*
G75*
G03*
X59900000Y-89872000I5053070J-5053042D01*
G01*
%TO.N,Net-(J2-Pad10)*%
X70140102Y-84074000D02*
X90932000Y-84074000D01*
X90964994Y-49784000D02*
X91000000Y-49748994D01*
X91000000Y-49748994D02*
X91000000Y-30000000D01*
X62440000Y-134000000D02*
X62440000Y-90399486D01*
X70140102Y-84074002D02*
G75*
G03*
X64008001Y-86614001I-2J-8672098D01*
G01*
X64008004Y-86614004D02*
G75*
G03*
X62440000Y-90399486I3785496J-3785496D01*
G01*
%TO.N,Net-(J2-Pad11)*%
X64980000Y-134000000D02*
X64980000Y-91564276D01*
X90000000Y-49749491D02*
X90000000Y-30000000D01*
X71199681Y-86360000D02*
X89916000Y-86360000D01*
X89965491Y-49784000D02*
X90000000Y-49749491D01*
X71199681Y-86359993D02*
G75*
G03*
X66294000Y-88392000I19J-6937707D01*
G01*
X66294007Y-88392007D02*
G75*
G03*
X64980000Y-91564276I3172293J-3172293D01*
G01*
%TO.N,Net-(J2-Pad12)*%
X88900000Y-49784000D02*
X89000000Y-49684000D01*
X73993681Y-88392000D02*
X88900000Y-88392000D01*
X89000000Y-49684000D02*
X89000000Y-30000000D01*
X67520000Y-134000000D02*
X67520000Y-94209486D01*
X73993681Y-88391993D02*
G75*
G03*
X69088000Y-90424000I19J-6937707D01*
G01*
X69088004Y-90424004D02*
G75*
G03*
X67520000Y-94209486I3785496J-3785496D01*
G01*
%TO.N,Net-(J2-Pad13)*%
X76533681Y-90424000D02*
X87884000Y-90424000D01*
X70060000Y-134000000D02*
X70060000Y-96241486D01*
X87900497Y-49784000D02*
X88000000Y-49684497D01*
X88000000Y-49684497D02*
X88000000Y-30000000D01*
X76533681Y-90423993D02*
G75*
G03*
X71628000Y-92456000I19J-6937707D01*
G01*
X71628004Y-92456004D02*
G75*
G03*
X70060000Y-96241486I3785496J-3785496D01*
G01*
%TO.N,Net-(J2-Pad14)*%
X87000000Y-49684994D02*
X86900994Y-49784000D01*
X77952471Y-92202000D02*
X86868000Y-92202000D01*
X87000000Y-30000000D02*
X87000000Y-49684994D01*
X72600000Y-134000000D02*
X72600000Y-96539066D01*
X77952471Y-92201989D02*
G75*
G03*
X73660001Y-93980001I29J-6070511D01*
G01*
X73660010Y-93980010D02*
G75*
G03*
X72600000Y-96539066I2559090J-2559090D01*
G01*
%TO.N,Net-(J1-Pad15)*%
X86000000Y-30000000D02*
X86000000Y-49685491D01*
X75946000Y-94488000D02*
X76073000Y-94361000D01*
X77606025Y-93726000D02*
X86106000Y-93726000D01*
X75140000Y-134000000D02*
X75140000Y-96433856D01*
X86000000Y-49685491D02*
X85901491Y-49784000D01*
X75946013Y-94488013D02*
G75*
G03*
X75140000Y-96433856I1945887J-1945887D01*
G01*
X77606025Y-93726011D02*
G75*
G03*
X76073000Y-94361000I-25J-2167989D01*
G01*
%TO.N,Net-(J1-Pad16)*%
X77680000Y-134000000D02*
X77680000Y-99079066D01*
X85000000Y-30000000D02*
X85000000Y-49685988D01*
X82419261Y-94996000D02*
X85090000Y-94996000D01*
X85000000Y-49685988D02*
X84901988Y-49784000D01*
X78740010Y-96520010D02*
G75*
G03*
X77680000Y-99079066I2559090J-2559090D01*
G01*
X82419261Y-94995985D02*
G75*
G03*
X78740001Y-96520001I39J-5203315D01*
G01*
%TO.N,Net-(J1-Pad17)*%
X80220000Y-134000000D02*
X80220000Y-98973856D01*
X83119630Y-96012000D02*
X84074000Y-96012000D01*
X84074000Y-49022000D02*
X84000000Y-48948000D01*
X84000000Y-48948000D02*
X84000000Y-30000000D01*
X81026000Y-97028000D02*
X81280000Y-96774000D01*
X81026013Y-97028013D02*
G75*
G03*
X80220000Y-98973856I1945887J-1945887D01*
G01*
X83119630Y-96012013D02*
G75*
G03*
X81280000Y-96774000I-30J-2601587D01*
G01*
%TO.N,Net-(J1-Pad18)*%
X82760000Y-97326000D02*
X82760000Y-134000000D01*
X83000000Y-30000000D02*
X83000000Y-49726000D01*
X83058000Y-97028000D02*
X82760000Y-97326000D01*
X83000000Y-49726000D02*
X83058000Y-49784000D01*
%TO.N,Net-(J1-Pad19)*%
X82000000Y-48866985D02*
X82117515Y-48984500D01*
X82000000Y-30000000D02*
X82000000Y-48866985D01*
X85300000Y-100628000D02*
X85300000Y-134000000D01*
X85344000Y-100584000D02*
X85300000Y-100628000D01*
%TO.N,Net-(J1-Pad20)*%
X81000000Y-49250000D02*
X81280000Y-49530000D01*
X81000000Y-30000000D02*
X81000000Y-49250000D01*
X87840000Y-106216000D02*
X87840000Y-134000000D01*
X87884000Y-106172000D02*
X87840000Y-106216000D01*
%TO.N,Net-(J1-Pad21)*%
X90380000Y-112312000D02*
X90380000Y-134000000D01*
X90424000Y-112268000D02*
X90380000Y-112312000D01*
X80000000Y-49298994D02*
X80231006Y-49530000D01*
X80000000Y-30000000D02*
X80000000Y-49298994D01*
%TO.N,Net-(J1-Pad22)*%
X92964000Y-118618000D02*
X92920000Y-118662000D01*
X92920000Y-118662000D02*
X92920000Y-134000000D01*
X79000000Y-49298497D02*
X79231503Y-49530000D01*
X79000000Y-30000000D02*
X79000000Y-49298497D01*
%TO.N,Net-(J1-Pad23)*%
X95504000Y-124714000D02*
X95460000Y-124758000D01*
X95460000Y-124758000D02*
X95460000Y-134000000D01*
X78000000Y-49298000D02*
X78232000Y-49530000D01*
X78000000Y-30000000D02*
X78000000Y-49298000D01*
%TO.N,Net-(J1-Pad24)*%
X77000000Y-30000000D02*
X77000000Y-49346415D01*
X98000000Y-130766000D02*
X98000000Y-134000000D01*
X77000000Y-49346415D02*
X77228761Y-49575176D01*
%TD*%
%TA.AperFunction,Conductor*%
%TO.N,Net-(J2-Pad1)*%
G36*
X100122022Y-47467427D02*
G01*
X100125440Y-47475242D01*
X100128334Y-47549150D01*
X100138063Y-47620515D01*
X100153774Y-47680809D01*
X100175057Y-47732748D01*
X100201498Y-47779045D01*
X100232688Y-47822415D01*
X100268213Y-47865572D01*
X100268260Y-47865626D01*
X100307575Y-47911132D01*
X100307661Y-47911232D01*
X100350490Y-47961951D01*
X100350752Y-47962273D01*
X100391532Y-48014338D01*
X100393935Y-48022962D01*
X100392131Y-48027925D01*
X100120324Y-48446213D01*
X100112942Y-48451283D01*
X100103760Y-48449392D01*
X99874523Y-48287348D01*
X99696456Y-48161475D01*
X99691679Y-48153901D01*
X99692001Y-48148566D01*
X99713927Y-48075307D01*
X99714137Y-48074673D01*
X99739189Y-48005600D01*
X99739377Y-48005116D01*
X99764510Y-47944368D01*
X99764601Y-47944154D01*
X99770841Y-47929883D01*
X99789058Y-47888218D01*
X99811986Y-47833768D01*
X99831865Y-47779288D01*
X99832459Y-47777660D01*
X99832460Y-47777656D01*
X99832538Y-47777443D01*
X99849915Y-47715772D01*
X99856564Y-47680809D01*
X99863271Y-47645535D01*
X99863272Y-47645531D01*
X99863318Y-47645287D01*
X99871946Y-47562519D01*
X99874649Y-47475337D01*
X99878330Y-47467174D01*
X99886343Y-47464000D01*
X100113749Y-47464000D01*
X100122022Y-47467427D01*
G37*
%TD.AperFunction*%
%TD*%
%TA.AperFunction,Conductor*%
%TO.N,Net-(J2-Pad1)*%
G36*
X73801195Y-51181558D02*
G01*
X73801153Y-51183690D01*
X73801153Y-51183691D01*
X73796567Y-51418310D01*
X73792979Y-51426514D01*
X73788386Y-51429240D01*
X73721500Y-51450324D01*
X73720944Y-51450484D01*
X73654263Y-51467773D01*
X73653930Y-51467854D01*
X73593222Y-51481566D01*
X73593222Y-51481565D01*
X73593218Y-51481567D01*
X73536878Y-51494274D01*
X73483286Y-51508573D01*
X73483067Y-51508650D01*
X73483064Y-51508651D01*
X73430977Y-51526985D01*
X73430969Y-51526988D01*
X73430683Y-51527089D01*
X73377308Y-51552450D01*
X73377030Y-51552623D01*
X73377023Y-51552627D01*
X73321658Y-51587118D01*
X73321395Y-51587282D01*
X73321157Y-51587468D01*
X73321152Y-51587471D01*
X73261376Y-51634062D01*
X73261369Y-51634068D01*
X73261183Y-51634213D01*
X73231940Y-51661418D01*
X73203170Y-51688182D01*
X73194779Y-51691308D01*
X73186928Y-51687889D01*
X73026110Y-51527071D01*
X73022683Y-51518798D01*
X73025816Y-51510831D01*
X73079786Y-51452816D01*
X73079931Y-51452630D01*
X73079937Y-51452623D01*
X73126528Y-51392847D01*
X73126531Y-51392842D01*
X73126717Y-51392604D01*
X73126881Y-51392341D01*
X73161372Y-51336976D01*
X73161376Y-51336969D01*
X73161549Y-51336691D01*
X73186910Y-51283316D01*
X73187011Y-51283030D01*
X73187014Y-51283022D01*
X73205348Y-51230935D01*
X73205349Y-51230932D01*
X73205426Y-51230713D01*
X73219725Y-51177121D01*
X73232432Y-51120781D01*
X73232435Y-51120777D01*
X73232433Y-51120777D01*
X73246145Y-51060069D01*
X73246233Y-51059710D01*
X73263508Y-50993085D01*
X73263674Y-50992504D01*
X73284760Y-50925613D01*
X73290516Y-50918753D01*
X73295690Y-50917433D01*
X73348598Y-50916398D01*
X73806554Y-50907446D01*
X73801195Y-51181558D01*
G37*
%TD.AperFunction*%
%TD*%
%TA.AperFunction,Conductor*%
%TO.N,Net-(J2-Pad1)*%
G36*
X74113423Y-50383800D02*
G01*
X74289523Y-50527682D01*
X74293761Y-50535570D01*
X74291404Y-50543862D01*
X74241072Y-50609495D01*
X74197537Y-50675944D01*
X74165235Y-50736356D01*
X74165136Y-50736593D01*
X74165132Y-50736602D01*
X74141791Y-50792646D01*
X74141787Y-50792658D01*
X74141695Y-50792878D01*
X74124448Y-50847658D01*
X74111023Y-50902845D01*
X74111006Y-50902925D01*
X74111001Y-50902948D01*
X74098955Y-50960563D01*
X74098950Y-50960586D01*
X74085796Y-51022864D01*
X74085720Y-51023199D01*
X74069051Y-51092050D01*
X74068912Y-51092572D01*
X74048497Y-51162578D01*
X74042891Y-51169561D01*
X74037788Y-51170991D01*
X73527304Y-51193791D01*
X73525018Y-50781147D01*
X73524474Y-50682844D01*
X73527855Y-50674552D01*
X73532387Y-50671709D01*
X73598196Y-50649194D01*
X73598771Y-50649013D01*
X73630417Y-50639979D01*
X73665024Y-50630099D01*
X73665298Y-50630026D01*
X73725812Y-50614617D01*
X73726225Y-50614510D01*
X73781823Y-50600041D01*
X73781837Y-50600037D01*
X73781956Y-50600006D01*
X73800196Y-50594331D01*
X73834772Y-50583574D01*
X73834781Y-50583571D01*
X73835018Y-50583497D01*
X73886445Y-50562353D01*
X73937681Y-50533837D01*
X73990174Y-50495211D01*
X73990408Y-50494993D01*
X73990415Y-50494987D01*
X74045169Y-50443925D01*
X74045173Y-50443921D01*
X74045368Y-50443739D01*
X74097257Y-50385106D01*
X74105308Y-50381182D01*
X74113423Y-50383800D01*
G37*
%TD.AperFunction*%
%TD*%
%TA.AperFunction,Conductor*%
%TO.N,Net-(J2-Pad3)*%
G36*
X44733088Y-86424807D02*
G01*
X45037891Y-86819682D01*
X45040233Y-86828325D01*
X45038385Y-86833289D01*
X45000332Y-86890774D01*
X45000087Y-86891129D01*
X44960023Y-86946532D01*
X44959902Y-86946696D01*
X44922719Y-86996196D01*
X44888948Y-87042610D01*
X44859107Y-87088778D01*
X44833658Y-87137616D01*
X44813061Y-87192040D01*
X44797779Y-87254968D01*
X44788271Y-87329315D01*
X44788262Y-87329568D01*
X44788261Y-87329576D01*
X44785416Y-87406731D01*
X44781687Y-87414872D01*
X44773724Y-87418000D01*
X44546329Y-87418000D01*
X44538056Y-87414573D01*
X44534635Y-87406676D01*
X44531906Y-87321895D01*
X44531906Y-87321893D01*
X44531899Y-87321680D01*
X44524636Y-87255301D01*
X44523080Y-87241080D01*
X44523079Y-87241073D01*
X44523052Y-87240827D01*
X44509141Y-87172086D01*
X44490847Y-87112104D01*
X44481447Y-87088778D01*
X44468925Y-87057708D01*
X44468924Y-87057707D01*
X44468852Y-87057527D01*
X44443839Y-87005003D01*
X44416489Y-86951177D01*
X44387580Y-86892886D01*
X44387396Y-86892497D01*
X44357636Y-86826491D01*
X44357397Y-86825922D01*
X44330282Y-86756181D01*
X44330478Y-86747228D01*
X44333681Y-86742966D01*
X44413538Y-86676185D01*
X44716321Y-86422981D01*
X44724865Y-86420302D01*
X44733088Y-86424807D01*
G37*
%TD.AperFunction*%
%TD*%
%TA.AperFunction,Conductor*%
%TO.N,Net-(J2-Pad3)*%
G36*
X98121994Y-45933202D02*
G01*
X98125413Y-45941046D01*
X98128265Y-46018778D01*
X98137756Y-46093408D01*
X98153017Y-46156587D01*
X98173593Y-46211241D01*
X98199028Y-46260294D01*
X98228866Y-46306669D01*
X98262651Y-46353293D01*
X98262681Y-46353333D01*
X98299877Y-46403021D01*
X98300000Y-46403189D01*
X98340088Y-46458770D01*
X98340360Y-46459164D01*
X98378516Y-46516909D01*
X98380218Y-46525701D01*
X98378013Y-46530514D01*
X98072976Y-46925210D01*
X98065205Y-46929660D01*
X98056207Y-46927026D01*
X97954655Y-46842000D01*
X97673754Y-46606814D01*
X97669612Y-46598876D01*
X97670362Y-46593601D01*
X97694911Y-46530514D01*
X97697582Y-46523649D01*
X97697817Y-46523089D01*
X97727638Y-46456887D01*
X97727819Y-46456504D01*
X97756718Y-46398089D01*
X97756766Y-46397993D01*
X97784058Y-46344082D01*
X97784065Y-46344067D01*
X97784080Y-46344038D01*
X97801791Y-46306669D01*
X97808978Y-46291506D01*
X97808985Y-46291490D01*
X97809056Y-46291340D01*
X97831001Y-46236582D01*
X97849241Y-46176405D01*
X97863102Y-46107451D01*
X97871913Y-46026361D01*
X97874638Y-45941101D01*
X97878327Y-45932942D01*
X97886332Y-45929775D01*
X98113721Y-45929775D01*
X98121994Y-45933202D01*
G37*
%TD.AperFunction*%
%TD*%
%TA.AperFunction,Conductor*%
%TO.N,Net-(J2-Pad3)*%
G36*
X75121983Y-46586445D02*
G01*
X75125403Y-46594300D01*
X75128248Y-46673895D01*
X75137598Y-46750033D01*
X75152458Y-46814538D01*
X75152563Y-46814836D01*
X75152565Y-46814842D01*
X75172131Y-46870224D01*
X75172235Y-46870518D01*
X75172368Y-46870796D01*
X75172370Y-46870802D01*
X75172889Y-46871889D01*
X75196338Y-46921081D01*
X75224174Y-46969334D01*
X75225191Y-46970944D01*
X75255152Y-47018385D01*
X75288589Y-47071199D01*
X75288773Y-47071500D01*
X75324008Y-47131048D01*
X75324294Y-47131560D01*
X75334414Y-47150808D01*
X75357104Y-47193966D01*
X75357921Y-47202884D01*
X75355219Y-47207482D01*
X75011140Y-47568607D01*
X75002952Y-47572233D01*
X74994273Y-47568685D01*
X74913752Y-47485724D01*
X74646871Y-47210756D01*
X74643568Y-47202433D01*
X74644862Y-47197258D01*
X74677213Y-47134339D01*
X74677498Y-47133818D01*
X74678808Y-47131561D01*
X74712309Y-47073817D01*
X74712490Y-47073514D01*
X74745598Y-47020311D01*
X74776271Y-46971018D01*
X74776272Y-46971016D01*
X74776317Y-46970944D01*
X74777166Y-46969455D01*
X74803856Y-46922604D01*
X74803961Y-46922420D01*
X74827929Y-46871612D01*
X74847619Y-46815394D01*
X74847690Y-46815083D01*
X74847693Y-46815073D01*
X74862360Y-46750940D01*
X74862429Y-46750640D01*
X74862464Y-46750350D01*
X74862466Y-46750341D01*
X74871727Y-46674471D01*
X74871727Y-46674465D01*
X74871757Y-46674223D01*
X74874599Y-46594302D01*
X74878318Y-46586156D01*
X74886292Y-46583018D01*
X75113710Y-46583018D01*
X75121983Y-46586445D01*
G37*
%TD.AperFunction*%
%TD*%
%TA.AperFunction,Conductor*%
%TO.N,Net-(J2-Pad4)*%
G36*
X97121983Y-48979427D02*
G01*
X97125403Y-48987282D01*
X97128232Y-49066507D01*
X97137606Y-49142406D01*
X97152634Y-49206712D01*
X97172828Y-49262438D01*
X97197702Y-49312598D01*
X97226769Y-49360206D01*
X97259540Y-49408277D01*
X97279383Y-49436698D01*
X97295457Y-49459720D01*
X97295597Y-49459925D01*
X97334112Y-49517655D01*
X97334383Y-49518081D01*
X97370874Y-49578246D01*
X97372234Y-49587096D01*
X97369839Y-49591826D01*
X97049506Y-49974203D01*
X97041566Y-49978345D01*
X97032679Y-49975358D01*
X96663125Y-49640338D01*
X96659297Y-49632243D01*
X96660253Y-49627006D01*
X96677600Y-49587096D01*
X96689787Y-49559057D01*
X96690029Y-49558538D01*
X96722001Y-49494048D01*
X96722177Y-49493706D01*
X96752790Y-49436744D01*
X96752815Y-49436698D01*
X96781432Y-49384023D01*
X96781439Y-49384010D01*
X96781479Y-49383936D01*
X96793417Y-49360206D01*
X96807358Y-49332492D01*
X96807359Y-49332491D01*
X96807450Y-49332309D01*
X96830100Y-49278525D01*
X96848806Y-49219293D01*
X96862941Y-49151323D01*
X96871881Y-49071322D01*
X96874630Y-48987317D01*
X96878326Y-48979161D01*
X96886324Y-48976000D01*
X97113710Y-48976000D01*
X97121983Y-48979427D01*
G37*
%TD.AperFunction*%
%TD*%
%TA.AperFunction,Conductor*%
%TO.N,Net-(J2-Pad4)*%
G36*
X97165595Y-59044082D02*
G01*
X97169183Y-59052744D01*
X97159434Y-59551443D01*
X97155846Y-59559647D01*
X97151253Y-59562373D01*
X97084367Y-59583457D01*
X97083811Y-59583617D01*
X97017130Y-59600906D01*
X97016797Y-59600987D01*
X96956089Y-59614699D01*
X96956089Y-59614698D01*
X96956085Y-59614700D01*
X96899745Y-59627407D01*
X96846153Y-59641706D01*
X96845934Y-59641783D01*
X96845931Y-59641784D01*
X96793844Y-59660118D01*
X96793836Y-59660121D01*
X96793550Y-59660222D01*
X96740175Y-59685583D01*
X96739897Y-59685756D01*
X96739890Y-59685760D01*
X96684525Y-59720251D01*
X96684262Y-59720415D01*
X96684024Y-59720601D01*
X96684019Y-59720604D01*
X96624243Y-59767195D01*
X96624236Y-59767201D01*
X96624050Y-59767346D01*
X96594807Y-59794551D01*
X96566037Y-59821315D01*
X96557646Y-59824441D01*
X96549795Y-59821022D01*
X96388977Y-59660204D01*
X96385550Y-59651931D01*
X96388683Y-59643964D01*
X96442653Y-59585949D01*
X96442798Y-59585763D01*
X96442804Y-59585756D01*
X96489395Y-59525980D01*
X96489398Y-59525975D01*
X96489584Y-59525737D01*
X96489748Y-59525474D01*
X96524239Y-59470109D01*
X96524243Y-59470102D01*
X96524416Y-59469824D01*
X96549777Y-59416449D01*
X96549878Y-59416163D01*
X96549881Y-59416155D01*
X96568215Y-59364068D01*
X96568216Y-59364065D01*
X96568293Y-59363846D01*
X96582592Y-59310254D01*
X96595299Y-59253914D01*
X96595302Y-59253910D01*
X96595300Y-59253910D01*
X96609012Y-59193202D01*
X96609100Y-59192843D01*
X96626375Y-59126218D01*
X96626541Y-59125637D01*
X96647627Y-59058746D01*
X96653383Y-59051886D01*
X96658557Y-59050566D01*
X97157256Y-59040817D01*
X97165595Y-59044082D01*
G37*
%TD.AperFunction*%
%TD*%
%TA.AperFunction,Conductor*%
%TO.N,Net-(J2-Pad5)*%
G36*
X96133988Y-48997427D02*
G01*
X96137407Y-49005278D01*
X96140266Y-49084461D01*
X96149658Y-49160222D01*
X96164564Y-49224389D01*
X96184374Y-49280064D01*
X96208476Y-49330352D01*
X96236261Y-49378359D01*
X96236304Y-49378427D01*
X96236310Y-49378437D01*
X96267116Y-49427187D01*
X96267118Y-49427190D01*
X96300320Y-49479763D01*
X96300513Y-49480078D01*
X96335443Y-49539465D01*
X96335736Y-49539994D01*
X96368119Y-49602191D01*
X96368900Y-49611112D01*
X96366175Y-49615702D01*
X96020433Y-49975231D01*
X96012229Y-49978819D01*
X96003567Y-49975231D01*
X95657826Y-49615703D01*
X95654561Y-49607364D01*
X95655881Y-49602190D01*
X95688263Y-49539994D01*
X95688556Y-49539465D01*
X95723486Y-49480078D01*
X95723679Y-49479763D01*
X95756881Y-49427190D01*
X95756884Y-49427188D01*
X95756883Y-49427187D01*
X95787689Y-49378437D01*
X95787695Y-49378427D01*
X95787738Y-49378359D01*
X95815523Y-49330352D01*
X95839625Y-49280064D01*
X95859435Y-49224389D01*
X95874341Y-49160222D01*
X95883733Y-49084461D01*
X95886593Y-49005278D01*
X95890316Y-48997134D01*
X95898285Y-48994000D01*
X96125715Y-48994000D01*
X96133988Y-48997427D01*
G37*
%TD.AperFunction*%
%TD*%
%TA.AperFunction,Conductor*%
%TO.N,Net-(J2-Pad5)*%
G36*
X96149595Y-63616082D02*
G01*
X96153183Y-63624744D01*
X96143434Y-64123443D01*
X96139846Y-64131647D01*
X96135253Y-64134373D01*
X96068367Y-64155457D01*
X96067811Y-64155617D01*
X96001130Y-64172906D01*
X96000797Y-64172987D01*
X95940089Y-64186699D01*
X95940089Y-64186698D01*
X95940085Y-64186700D01*
X95883745Y-64199407D01*
X95830153Y-64213706D01*
X95829934Y-64213783D01*
X95829931Y-64213784D01*
X95777844Y-64232118D01*
X95777836Y-64232121D01*
X95777550Y-64232222D01*
X95724175Y-64257583D01*
X95723897Y-64257756D01*
X95723890Y-64257760D01*
X95668525Y-64292251D01*
X95668262Y-64292415D01*
X95668024Y-64292601D01*
X95668019Y-64292604D01*
X95608243Y-64339195D01*
X95608236Y-64339201D01*
X95608050Y-64339346D01*
X95578807Y-64366551D01*
X95550037Y-64393315D01*
X95541646Y-64396441D01*
X95533795Y-64393022D01*
X95372977Y-64232204D01*
X95369550Y-64223931D01*
X95372683Y-64215964D01*
X95426653Y-64157949D01*
X95426798Y-64157763D01*
X95426804Y-64157756D01*
X95473395Y-64097980D01*
X95473398Y-64097975D01*
X95473584Y-64097737D01*
X95473748Y-64097474D01*
X95508239Y-64042109D01*
X95508243Y-64042102D01*
X95508416Y-64041824D01*
X95533777Y-63988449D01*
X95533878Y-63988163D01*
X95533881Y-63988155D01*
X95552215Y-63936068D01*
X95552216Y-63936065D01*
X95552293Y-63935846D01*
X95566592Y-63882254D01*
X95579299Y-63825914D01*
X95579302Y-63825910D01*
X95579300Y-63825910D01*
X95593012Y-63765202D01*
X95593100Y-63764843D01*
X95610375Y-63698218D01*
X95610541Y-63697637D01*
X95631627Y-63630746D01*
X95637383Y-63623886D01*
X95642557Y-63622566D01*
X96141256Y-63612817D01*
X96149595Y-63616082D01*
G37*
%TD.AperFunction*%
%TD*%
%TA.AperFunction,Conductor*%
%TO.N,Net-(J2-Pad6)*%
G36*
X95134485Y-48997427D02*
G01*
X95137904Y-49005278D01*
X95140763Y-49084461D01*
X95150155Y-49160222D01*
X95165061Y-49224389D01*
X95184871Y-49280064D01*
X95208973Y-49330352D01*
X95236758Y-49378359D01*
X95236801Y-49378427D01*
X95236807Y-49378437D01*
X95267613Y-49427187D01*
X95267615Y-49427190D01*
X95300817Y-49479763D01*
X95301010Y-49480078D01*
X95335940Y-49539465D01*
X95336233Y-49539994D01*
X95368616Y-49602191D01*
X95369397Y-49611112D01*
X95366672Y-49615702D01*
X95020930Y-49975231D01*
X95012726Y-49978819D01*
X95004064Y-49975231D01*
X94658323Y-49615703D01*
X94655058Y-49607364D01*
X94656378Y-49602190D01*
X94688760Y-49539994D01*
X94689053Y-49539465D01*
X94723983Y-49480078D01*
X94724176Y-49479763D01*
X94757378Y-49427190D01*
X94757381Y-49427188D01*
X94757380Y-49427187D01*
X94788186Y-49378437D01*
X94788192Y-49378427D01*
X94788235Y-49378359D01*
X94816020Y-49330352D01*
X94840122Y-49280064D01*
X94859932Y-49224389D01*
X94874838Y-49160222D01*
X94884230Y-49084461D01*
X94887090Y-49005278D01*
X94890813Y-48997134D01*
X94898782Y-48994000D01*
X95126212Y-48994000D01*
X95134485Y-48997427D01*
G37*
%TD.AperFunction*%
%TD*%
%TA.AperFunction,Conductor*%
%TO.N,Net-(J2-Pad6)*%
G36*
X95133595Y-67934082D02*
G01*
X95137183Y-67942744D01*
X95127434Y-68441443D01*
X95123846Y-68449647D01*
X95119253Y-68452373D01*
X95052367Y-68473457D01*
X95051811Y-68473617D01*
X94985130Y-68490906D01*
X94984797Y-68490987D01*
X94924089Y-68504699D01*
X94924089Y-68504698D01*
X94924085Y-68504700D01*
X94867745Y-68517407D01*
X94814153Y-68531706D01*
X94813934Y-68531783D01*
X94813931Y-68531784D01*
X94761844Y-68550118D01*
X94761836Y-68550121D01*
X94761550Y-68550222D01*
X94708175Y-68575583D01*
X94707897Y-68575756D01*
X94707890Y-68575760D01*
X94652525Y-68610251D01*
X94652262Y-68610415D01*
X94652024Y-68610601D01*
X94652019Y-68610604D01*
X94592243Y-68657195D01*
X94592236Y-68657201D01*
X94592050Y-68657346D01*
X94562807Y-68684551D01*
X94534037Y-68711315D01*
X94525646Y-68714441D01*
X94517795Y-68711022D01*
X94356977Y-68550204D01*
X94353550Y-68541931D01*
X94356683Y-68533964D01*
X94410653Y-68475949D01*
X94410798Y-68475763D01*
X94410804Y-68475756D01*
X94457395Y-68415980D01*
X94457398Y-68415975D01*
X94457584Y-68415737D01*
X94457748Y-68415474D01*
X94492239Y-68360109D01*
X94492243Y-68360102D01*
X94492416Y-68359824D01*
X94517777Y-68306449D01*
X94517878Y-68306163D01*
X94517881Y-68306155D01*
X94536215Y-68254068D01*
X94536216Y-68254065D01*
X94536293Y-68253846D01*
X94550592Y-68200254D01*
X94563299Y-68143914D01*
X94563302Y-68143910D01*
X94563300Y-68143910D01*
X94577012Y-68083202D01*
X94577100Y-68082843D01*
X94594375Y-68016218D01*
X94594541Y-68015637D01*
X94615627Y-67948746D01*
X94621383Y-67941886D01*
X94626557Y-67940566D01*
X95125256Y-67930817D01*
X95133595Y-67934082D01*
G37*
%TD.AperFunction*%
%TD*%
%TA.AperFunction,Conductor*%
%TO.N,Net-(J2-Pad7)*%
G36*
X94121964Y-48987427D02*
G01*
X94125384Y-48995302D01*
X94128182Y-49077586D01*
X94128210Y-49077825D01*
X94128210Y-49077828D01*
X94136509Y-49149205D01*
X94137306Y-49156064D01*
X94137364Y-49156331D01*
X94151675Y-49222372D01*
X94151677Y-49222381D01*
X94151739Y-49222665D01*
X94170849Y-49280623D01*
X94194001Y-49333169D01*
X94194099Y-49333354D01*
X94220510Y-49383434D01*
X94220526Y-49383462D01*
X94220564Y-49383535D01*
X94220619Y-49383631D01*
X94249880Y-49434911D01*
X94249904Y-49434953D01*
X94281297Y-49490494D01*
X94281483Y-49490837D01*
X94314238Y-49553595D01*
X94314504Y-49554137D01*
X94344760Y-49620203D01*
X94345089Y-49629152D01*
X94342140Y-49633596D01*
X93978874Y-49975412D01*
X93970500Y-49978586D01*
X93962028Y-49974570D01*
X93661573Y-49629152D01*
X93634660Y-49598211D01*
X93631816Y-49589720D01*
X93633381Y-49584640D01*
X93668600Y-49524239D01*
X93668883Y-49523778D01*
X93706310Y-49465909D01*
X93706469Y-49465669D01*
X93741600Y-49414176D01*
X93773743Y-49366294D01*
X93773747Y-49366288D01*
X93773824Y-49366173D01*
X93802539Y-49318737D01*
X93827217Y-49268837D01*
X93843879Y-49222949D01*
X93847216Y-49213757D01*
X93847330Y-49213443D01*
X93862350Y-49149526D01*
X93871749Y-49074055D01*
X93874593Y-48995278D01*
X93878316Y-48987134D01*
X93886285Y-48984000D01*
X94113691Y-48984000D01*
X94121964Y-48987427D01*
G37*
%TD.AperFunction*%
%TD*%
%TA.AperFunction,Conductor*%
%TO.N,Net-(J2-Pad7)*%
G36*
X94117595Y-72506082D02*
G01*
X94121183Y-72514744D01*
X94111434Y-73013443D01*
X94107846Y-73021647D01*
X94103253Y-73024373D01*
X94036367Y-73045457D01*
X94035811Y-73045617D01*
X93969130Y-73062906D01*
X93968797Y-73062987D01*
X93908089Y-73076699D01*
X93908089Y-73076698D01*
X93908085Y-73076700D01*
X93851745Y-73089407D01*
X93798153Y-73103706D01*
X93797934Y-73103783D01*
X93797931Y-73103784D01*
X93745844Y-73122118D01*
X93745836Y-73122121D01*
X93745550Y-73122222D01*
X93692175Y-73147583D01*
X93691897Y-73147756D01*
X93691890Y-73147760D01*
X93636525Y-73182251D01*
X93636262Y-73182415D01*
X93636024Y-73182601D01*
X93636019Y-73182604D01*
X93576243Y-73229195D01*
X93576236Y-73229201D01*
X93576050Y-73229346D01*
X93546807Y-73256551D01*
X93518037Y-73283315D01*
X93509646Y-73286441D01*
X93501795Y-73283022D01*
X93340977Y-73122204D01*
X93337550Y-73113931D01*
X93340683Y-73105964D01*
X93394653Y-73047949D01*
X93394798Y-73047763D01*
X93394804Y-73047756D01*
X93441395Y-72987980D01*
X93441398Y-72987975D01*
X93441584Y-72987737D01*
X93441748Y-72987474D01*
X93476239Y-72932109D01*
X93476243Y-72932102D01*
X93476416Y-72931824D01*
X93501777Y-72878449D01*
X93501878Y-72878163D01*
X93501881Y-72878155D01*
X93520215Y-72826068D01*
X93520216Y-72826065D01*
X93520293Y-72825846D01*
X93534592Y-72772254D01*
X93547299Y-72715914D01*
X93547302Y-72715910D01*
X93547300Y-72715910D01*
X93561012Y-72655202D01*
X93561100Y-72654843D01*
X93578375Y-72588218D01*
X93578541Y-72587637D01*
X93599627Y-72520746D01*
X93605383Y-72513886D01*
X93610557Y-72512566D01*
X94109256Y-72502817D01*
X94117595Y-72506082D01*
G37*
%TD.AperFunction*%
%TD*%
%TA.AperFunction,Conductor*%
%TO.N,Net-(J2-Pad8)*%
G36*
X93085988Y-48997427D02*
G01*
X93089407Y-49005278D01*
X93092266Y-49084461D01*
X93101658Y-49160222D01*
X93116564Y-49224389D01*
X93136374Y-49280064D01*
X93160476Y-49330352D01*
X93188261Y-49378359D01*
X93188304Y-49378427D01*
X93188310Y-49378437D01*
X93219116Y-49427187D01*
X93219118Y-49427190D01*
X93252320Y-49479763D01*
X93252513Y-49480078D01*
X93287443Y-49539465D01*
X93287736Y-49539994D01*
X93320119Y-49602191D01*
X93320900Y-49611112D01*
X93318175Y-49615702D01*
X92972433Y-49975231D01*
X92964229Y-49978819D01*
X92955567Y-49975231D01*
X92609826Y-49615703D01*
X92606561Y-49607364D01*
X92607881Y-49602190D01*
X92640263Y-49539994D01*
X92640556Y-49539465D01*
X92675486Y-49480078D01*
X92675679Y-49479763D01*
X92708881Y-49427190D01*
X92708884Y-49427188D01*
X92708883Y-49427187D01*
X92739689Y-49378437D01*
X92739695Y-49378427D01*
X92739738Y-49378359D01*
X92767523Y-49330352D01*
X92791625Y-49280064D01*
X92811435Y-49224389D01*
X92826341Y-49160222D01*
X92835733Y-49084461D01*
X92838593Y-49005278D01*
X92842316Y-48997134D01*
X92850285Y-48994000D01*
X93077715Y-48994000D01*
X93085988Y-48997427D01*
G37*
%TD.AperFunction*%
%TD*%
%TA.AperFunction,Conductor*%
%TO.N,Net-(J2-Pad8)*%
G36*
X93101595Y-76570082D02*
G01*
X93105183Y-76578744D01*
X93095434Y-77077443D01*
X93091846Y-77085647D01*
X93087253Y-77088373D01*
X93020367Y-77109457D01*
X93019811Y-77109617D01*
X92953130Y-77126906D01*
X92952797Y-77126987D01*
X92892089Y-77140699D01*
X92892089Y-77140698D01*
X92892085Y-77140700D01*
X92835745Y-77153407D01*
X92782153Y-77167706D01*
X92781934Y-77167783D01*
X92781931Y-77167784D01*
X92729844Y-77186118D01*
X92729836Y-77186121D01*
X92729550Y-77186222D01*
X92676175Y-77211583D01*
X92675897Y-77211756D01*
X92675890Y-77211760D01*
X92620525Y-77246251D01*
X92620262Y-77246415D01*
X92620024Y-77246601D01*
X92620019Y-77246604D01*
X92560243Y-77293195D01*
X92560236Y-77293201D01*
X92560050Y-77293346D01*
X92530807Y-77320551D01*
X92502037Y-77347315D01*
X92493646Y-77350441D01*
X92485795Y-77347022D01*
X92324977Y-77186204D01*
X92321550Y-77177931D01*
X92324683Y-77169964D01*
X92378653Y-77111949D01*
X92378798Y-77111763D01*
X92378804Y-77111756D01*
X92425395Y-77051980D01*
X92425398Y-77051975D01*
X92425584Y-77051737D01*
X92425748Y-77051474D01*
X92460239Y-76996109D01*
X92460243Y-76996102D01*
X92460416Y-76995824D01*
X92485777Y-76942449D01*
X92485878Y-76942163D01*
X92485881Y-76942155D01*
X92504215Y-76890068D01*
X92504216Y-76890065D01*
X92504293Y-76889846D01*
X92518592Y-76836254D01*
X92531299Y-76779914D01*
X92531302Y-76779910D01*
X92531300Y-76779910D01*
X92545012Y-76719202D01*
X92545100Y-76718843D01*
X92562375Y-76652218D01*
X92562541Y-76651637D01*
X92583627Y-76584746D01*
X92589383Y-76577886D01*
X92594557Y-76576566D01*
X93093256Y-76566817D01*
X93101595Y-76570082D01*
G37*
%TD.AperFunction*%
%TD*%
%TA.AperFunction,Conductor*%
%TO.N,Net-(J2-Pad9)*%
G36*
X92121947Y-48981924D02*
G01*
X92125368Y-48989816D01*
X92128114Y-49074201D01*
X92137021Y-49154525D01*
X92151066Y-49222788D01*
X92151149Y-49223056D01*
X92151152Y-49223066D01*
X92163106Y-49261461D01*
X92169596Y-49282308D01*
X92169691Y-49282537D01*
X92169695Y-49282549D01*
X92186389Y-49322933D01*
X92191957Y-49336404D01*
X92192028Y-49336548D01*
X92192034Y-49336562D01*
X92202687Y-49358250D01*
X92217494Y-49388396D01*
X92217542Y-49388487D01*
X92245515Y-49441530D01*
X92245554Y-49441604D01*
X92275397Y-49499179D01*
X92275578Y-49499545D01*
X92306496Y-49564664D01*
X92306741Y-49565216D01*
X92335127Y-49633948D01*
X92335118Y-49642903D01*
X92332007Y-49647229D01*
X91956219Y-49975237D01*
X91947733Y-49978095D01*
X91939417Y-49973765D01*
X91626333Y-49585429D01*
X91623808Y-49576838D01*
X91625552Y-49571833D01*
X91629737Y-49565216D01*
X91662761Y-49512991D01*
X91663032Y-49512583D01*
X91672075Y-49499545D01*
X91702273Y-49456002D01*
X91702403Y-49455820D01*
X91712688Y-49441604D01*
X91738905Y-49405364D01*
X91772153Y-49358129D01*
X91785799Y-49336404D01*
X91801454Y-49311478D01*
X91801593Y-49311257D01*
X91826749Y-49261780D01*
X91833192Y-49244390D01*
X91847024Y-49207057D01*
X91847026Y-49207051D01*
X91847144Y-49206732D01*
X91862302Y-49143147D01*
X91871746Y-49068057D01*
X91874590Y-48989771D01*
X91878315Y-48981629D01*
X91886282Y-48978497D01*
X92113674Y-48978497D01*
X92121947Y-48981924D01*
G37*
%TD.AperFunction*%
%TD*%
%TA.AperFunction,Conductor*%
%TO.N,Net-(J2-Pad9)*%
G36*
X92085595Y-80126082D02*
G01*
X92089183Y-80134744D01*
X92079428Y-80633740D01*
X92075840Y-80641944D01*
X92071623Y-80644544D01*
X92010465Y-80666126D01*
X91968676Y-80680873D01*
X91968656Y-80680880D01*
X91968646Y-80680884D01*
X91939824Y-80691635D01*
X91873695Y-80716302D01*
X91873634Y-80716327D01*
X91873621Y-80716332D01*
X91838282Y-80730810D01*
X91790563Y-80750361D01*
X91790459Y-80750409D01*
X91790453Y-80750412D01*
X91715671Y-80785206D01*
X91715664Y-80785210D01*
X91715519Y-80785277D01*
X91715365Y-80785360D01*
X91644960Y-80823194D01*
X91644946Y-80823202D01*
X91644801Y-80823280D01*
X91644656Y-80823370D01*
X91644650Y-80823373D01*
X91574776Y-80866516D01*
X91574645Y-80866597D01*
X91501290Y-80917456D01*
X91452774Y-80954080D01*
X91420998Y-80978067D01*
X91420952Y-80978102D01*
X91330008Y-81050655D01*
X91329932Y-81050716D01*
X91329873Y-81050765D01*
X91329870Y-81050767D01*
X91233399Y-81130171D01*
X91224834Y-81132782D01*
X91216964Y-81128613D01*
X91071988Y-80954080D01*
X91069338Y-80945526D01*
X91073327Y-80937761D01*
X91164506Y-80858762D01*
X91164508Y-80858760D01*
X91164634Y-80858651D01*
X91245689Y-80780441D01*
X91303286Y-80716302D01*
X91310633Y-80708121D01*
X91310638Y-80708114D01*
X91310804Y-80707930D01*
X91313212Y-80704721D01*
X91362783Y-80638642D01*
X91362790Y-80638631D01*
X91362954Y-80638413D01*
X91405113Y-80569186D01*
X91440255Y-80497544D01*
X91471357Y-80420782D01*
X91501390Y-80336195D01*
X91533331Y-80241079D01*
X91567512Y-80140502D01*
X91573419Y-80133773D01*
X91578361Y-80132570D01*
X92077256Y-80122817D01*
X92085595Y-80126082D01*
G37*
%TD.AperFunction*%
%TD*%
%TA.AperFunction,Conductor*%
%TO.N,Net-(J2-Pad10)*%
G36*
X90763703Y-83719826D02*
G01*
X91123231Y-84065567D01*
X91126819Y-84073771D01*
X91123231Y-84082433D01*
X90763703Y-84428174D01*
X90755365Y-84431439D01*
X90750191Y-84430119D01*
X90687994Y-84397736D01*
X90687465Y-84397443D01*
X90678739Y-84392311D01*
X90628061Y-84362503D01*
X90627785Y-84362333D01*
X90575190Y-84329118D01*
X90575188Y-84329115D01*
X90575187Y-84329116D01*
X90526437Y-84298310D01*
X90526427Y-84298304D01*
X90526359Y-84298261D01*
X90478352Y-84270476D01*
X90478150Y-84270379D01*
X90478144Y-84270376D01*
X90428339Y-84246506D01*
X90428064Y-84246374D01*
X90372389Y-84226564D01*
X90346557Y-84220563D01*
X90308524Y-84211728D01*
X90308521Y-84211728D01*
X90308222Y-84211658D01*
X90307913Y-84211620D01*
X90307909Y-84211619D01*
X90263886Y-84206162D01*
X90232461Y-84202266D01*
X90176870Y-84200259D01*
X90153278Y-84199407D01*
X90145134Y-84195684D01*
X90142000Y-84187715D01*
X90142000Y-83960285D01*
X90145427Y-83952012D01*
X90153278Y-83948593D01*
X90186212Y-83947403D01*
X90232461Y-83945733D01*
X90263886Y-83941837D01*
X90307909Y-83936380D01*
X90307913Y-83936379D01*
X90308222Y-83936341D01*
X90308521Y-83936271D01*
X90308524Y-83936271D01*
X90372070Y-83921509D01*
X90372068Y-83921509D01*
X90372389Y-83921435D01*
X90428064Y-83901625D01*
X90447766Y-83892182D01*
X90478144Y-83877623D01*
X90478150Y-83877620D01*
X90478352Y-83877523D01*
X90526359Y-83849738D01*
X90575187Y-83818883D01*
X90627785Y-83785666D01*
X90628061Y-83785496D01*
X90687465Y-83750556D01*
X90687994Y-83750263D01*
X90695879Y-83746158D01*
X90750191Y-83717881D01*
X90759111Y-83717100D01*
X90763703Y-83719826D01*
G37*
%TD.AperFunction*%
%TD*%
%TA.AperFunction,Conductor*%
%TO.N,Net-(J2-Pad10)*%
G36*
X91121948Y-48982421D02*
G01*
X91125369Y-48990313D01*
X91128118Y-49074591D01*
X91137037Y-49154821D01*
X91151103Y-49222999D01*
X91169659Y-49282440D01*
X91192053Y-49336461D01*
X91217630Y-49388375D01*
X91217674Y-49388458D01*
X91217684Y-49388478D01*
X91245734Y-49441500D01*
X91245772Y-49441573D01*
X91275609Y-49498953D01*
X91275792Y-49499319D01*
X91306779Y-49564371D01*
X91307025Y-49564924D01*
X91335456Y-49633536D01*
X91335457Y-49642491D01*
X91332351Y-49646821D01*
X90956929Y-49975246D01*
X90948446Y-49978114D01*
X90940125Y-49973794D01*
X90626610Y-49585806D01*
X90624075Y-49577217D01*
X90625815Y-49572209D01*
X90662935Y-49513373D01*
X90663210Y-49512956D01*
X90702384Y-49456371D01*
X90702520Y-49456179D01*
X90738947Y-49405758D01*
X90738949Y-49405754D01*
X90738978Y-49405715D01*
X90772192Y-49358486D01*
X90801611Y-49311626D01*
X90801721Y-49311409D01*
X90801727Y-49311399D01*
X90826600Y-49262470D01*
X90826754Y-49262168D01*
X90847143Y-49207142D01*
X90862300Y-49143583D01*
X90870954Y-49074812D01*
X90871711Y-49068797D01*
X90871712Y-49068787D01*
X90871745Y-49068523D01*
X90874590Y-48990269D01*
X90878315Y-48982126D01*
X90886282Y-48978994D01*
X91113675Y-48978994D01*
X91121948Y-48982421D01*
G37*
%TD.AperFunction*%
%TD*%
%TA.AperFunction,Conductor*%
%TO.N,Net-(J2-Pad11)*%
G36*
X90121949Y-48982918D02*
G01*
X90125370Y-48990809D01*
X90128122Y-49074981D01*
X90137054Y-49155117D01*
X90151139Y-49223210D01*
X90169723Y-49282572D01*
X90192150Y-49336516D01*
X90217766Y-49388353D01*
X90245914Y-49441395D01*
X90275846Y-49498774D01*
X90276007Y-49499093D01*
X90282899Y-49513514D01*
X90307059Y-49564070D01*
X90307300Y-49564609D01*
X90316270Y-49586184D01*
X90335785Y-49633123D01*
X90335796Y-49642078D01*
X90332694Y-49646412D01*
X89957639Y-49975255D01*
X89949160Y-49978133D01*
X89940834Y-49973822D01*
X89626887Y-49586184D01*
X89624343Y-49577598D01*
X89626077Y-49572587D01*
X89663140Y-49513707D01*
X89663417Y-49513289D01*
X89702483Y-49456755D01*
X89702620Y-49456560D01*
X89739051Y-49406067D01*
X89739077Y-49406030D01*
X89772141Y-49358974D01*
X89772147Y-49358964D01*
X89772232Y-49358844D01*
X89801628Y-49311996D01*
X89826759Y-49262556D01*
X89826869Y-49262259D01*
X89826873Y-49262250D01*
X89847019Y-49207885D01*
X89847142Y-49207553D01*
X89862298Y-49144021D01*
X89871020Y-49074746D01*
X89871710Y-49069262D01*
X89871711Y-49069254D01*
X89871744Y-49068989D01*
X89874590Y-48990766D01*
X89878315Y-48982623D01*
X89886282Y-48979491D01*
X90113676Y-48979491D01*
X90121949Y-48982918D01*
G37*
%TD.AperFunction*%
%TD*%
%TA.AperFunction,Conductor*%
%TO.N,Net-(J2-Pad11)*%
G36*
X89747703Y-86005826D02*
G01*
X90107231Y-86351567D01*
X90110819Y-86359771D01*
X90107231Y-86368433D01*
X89747703Y-86714174D01*
X89739365Y-86717439D01*
X89734191Y-86716119D01*
X89671994Y-86683736D01*
X89671465Y-86683443D01*
X89662739Y-86678311D01*
X89612061Y-86648503D01*
X89611785Y-86648333D01*
X89559190Y-86615118D01*
X89559188Y-86615115D01*
X89559187Y-86615116D01*
X89510437Y-86584310D01*
X89510427Y-86584304D01*
X89510359Y-86584261D01*
X89462352Y-86556476D01*
X89462150Y-86556379D01*
X89462144Y-86556376D01*
X89412339Y-86532506D01*
X89412064Y-86532374D01*
X89356389Y-86512564D01*
X89330557Y-86506563D01*
X89292524Y-86497728D01*
X89292521Y-86497728D01*
X89292222Y-86497658D01*
X89291913Y-86497620D01*
X89291909Y-86497619D01*
X89247886Y-86492162D01*
X89216461Y-86488266D01*
X89160870Y-86486259D01*
X89137278Y-86485407D01*
X89129134Y-86481684D01*
X89126000Y-86473715D01*
X89126000Y-86246285D01*
X89129427Y-86238012D01*
X89137278Y-86234593D01*
X89170212Y-86233403D01*
X89216461Y-86231733D01*
X89247886Y-86227837D01*
X89291909Y-86222380D01*
X89291913Y-86222379D01*
X89292222Y-86222341D01*
X89292521Y-86222271D01*
X89292524Y-86222271D01*
X89356070Y-86207509D01*
X89356068Y-86207509D01*
X89356389Y-86207435D01*
X89412064Y-86187625D01*
X89431766Y-86178182D01*
X89462144Y-86163623D01*
X89462150Y-86163620D01*
X89462352Y-86163523D01*
X89510359Y-86135738D01*
X89559187Y-86104883D01*
X89611785Y-86071666D01*
X89612061Y-86071496D01*
X89671465Y-86036556D01*
X89671994Y-86036263D01*
X89679879Y-86032158D01*
X89734191Y-86003881D01*
X89743111Y-86003100D01*
X89747703Y-86005826D01*
G37*
%TD.AperFunction*%
%TD*%
%TA.AperFunction,Conductor*%
%TO.N,Net-(J2-Pad12)*%
G36*
X88731703Y-88037826D02*
G01*
X89091231Y-88383567D01*
X89094819Y-88391771D01*
X89091231Y-88400433D01*
X88731703Y-88746174D01*
X88723365Y-88749439D01*
X88718191Y-88748119D01*
X88655994Y-88715736D01*
X88655465Y-88715443D01*
X88646739Y-88710311D01*
X88596061Y-88680503D01*
X88595785Y-88680333D01*
X88543190Y-88647118D01*
X88543188Y-88647115D01*
X88543187Y-88647116D01*
X88494437Y-88616310D01*
X88494427Y-88616304D01*
X88494359Y-88616261D01*
X88446352Y-88588476D01*
X88446150Y-88588379D01*
X88446144Y-88588376D01*
X88396339Y-88564506D01*
X88396064Y-88564374D01*
X88340389Y-88544564D01*
X88314557Y-88538563D01*
X88276524Y-88529728D01*
X88276521Y-88529728D01*
X88276222Y-88529658D01*
X88275913Y-88529620D01*
X88275909Y-88529619D01*
X88231886Y-88524162D01*
X88200461Y-88520266D01*
X88144870Y-88518259D01*
X88121278Y-88517407D01*
X88113134Y-88513684D01*
X88110000Y-88505715D01*
X88110000Y-88278285D01*
X88113427Y-88270012D01*
X88121278Y-88266593D01*
X88154212Y-88265403D01*
X88200461Y-88263733D01*
X88231886Y-88259837D01*
X88275909Y-88254380D01*
X88275913Y-88254379D01*
X88276222Y-88254341D01*
X88276521Y-88254271D01*
X88276524Y-88254271D01*
X88340070Y-88239509D01*
X88340068Y-88239509D01*
X88340389Y-88239435D01*
X88396064Y-88219625D01*
X88415766Y-88210182D01*
X88446144Y-88195623D01*
X88446150Y-88195620D01*
X88446352Y-88195523D01*
X88494359Y-88167738D01*
X88543187Y-88136883D01*
X88595785Y-88103666D01*
X88596061Y-88103496D01*
X88655465Y-88068556D01*
X88655994Y-88068263D01*
X88663879Y-88064158D01*
X88718191Y-88035881D01*
X88727111Y-88035100D01*
X88731703Y-88037826D01*
G37*
%TD.AperFunction*%
%TD*%
%TA.AperFunction,Conductor*%
%TO.N,Net-(J2-Pad12)*%
G36*
X89121918Y-48997427D02*
G01*
X89125340Y-49005349D01*
X89128003Y-49094323D01*
X89136421Y-49178691D01*
X89149365Y-49250647D01*
X89149424Y-49250871D01*
X89162002Y-49298727D01*
X89165946Y-49313735D01*
X89185275Y-49371499D01*
X89185308Y-49371587D01*
X89185309Y-49371589D01*
X89206456Y-49427470D01*
X89206462Y-49427485D01*
X89228568Y-49485100D01*
X89228678Y-49485400D01*
X89250762Y-49548020D01*
X89250941Y-49548570D01*
X89272190Y-49619878D01*
X89272369Y-49620552D01*
X89290107Y-49696331D01*
X89288656Y-49705168D01*
X89284870Y-49708948D01*
X88860672Y-49971332D01*
X88851833Y-49972770D01*
X88844334Y-49967143D01*
X88598697Y-49532957D01*
X88597606Y-49524069D01*
X88600117Y-49519443D01*
X88642616Y-49471408D01*
X88642873Y-49471127D01*
X88687438Y-49423946D01*
X88687484Y-49423899D01*
X88728198Y-49381276D01*
X88728236Y-49381235D01*
X88728298Y-49381170D01*
X88764942Y-49340379D01*
X88765068Y-49340216D01*
X88765075Y-49340208D01*
X88796787Y-49299276D01*
X88796789Y-49299274D01*
X88796989Y-49299015D01*
X88824061Y-49254517D01*
X88845777Y-49204326D01*
X88861759Y-49145882D01*
X88871626Y-49076627D01*
X88874542Y-49005223D01*
X88878303Y-48997096D01*
X88886232Y-48994000D01*
X89113645Y-48994000D01*
X89121918Y-48997427D01*
G37*
%TD.AperFunction*%
%TD*%
%TA.AperFunction,Conductor*%
%TO.N,Net-(J2-Pad13)*%
G36*
X87715703Y-90069826D02*
G01*
X88075231Y-90415567D01*
X88078819Y-90423771D01*
X88075231Y-90432433D01*
X87715703Y-90778174D01*
X87707365Y-90781439D01*
X87702191Y-90780119D01*
X87639994Y-90747736D01*
X87639465Y-90747443D01*
X87630739Y-90742311D01*
X87580061Y-90712503D01*
X87579785Y-90712333D01*
X87527190Y-90679118D01*
X87527188Y-90679115D01*
X87527187Y-90679116D01*
X87478437Y-90648310D01*
X87478427Y-90648304D01*
X87478359Y-90648261D01*
X87430352Y-90620476D01*
X87430150Y-90620379D01*
X87430144Y-90620376D01*
X87380339Y-90596506D01*
X87380064Y-90596374D01*
X87324389Y-90576564D01*
X87298557Y-90570563D01*
X87260524Y-90561728D01*
X87260521Y-90561728D01*
X87260222Y-90561658D01*
X87259913Y-90561620D01*
X87259909Y-90561619D01*
X87215886Y-90556162D01*
X87184461Y-90552266D01*
X87128870Y-90550259D01*
X87105278Y-90549407D01*
X87097134Y-90545684D01*
X87094000Y-90537715D01*
X87094000Y-90310285D01*
X87097427Y-90302012D01*
X87105278Y-90298593D01*
X87138212Y-90297403D01*
X87184461Y-90295733D01*
X87215886Y-90291837D01*
X87259909Y-90286380D01*
X87259913Y-90286379D01*
X87260222Y-90286341D01*
X87260521Y-90286271D01*
X87260524Y-90286271D01*
X87324070Y-90271509D01*
X87324068Y-90271509D01*
X87324389Y-90271435D01*
X87380064Y-90251625D01*
X87399766Y-90242182D01*
X87430144Y-90227623D01*
X87430150Y-90227620D01*
X87430352Y-90227523D01*
X87478359Y-90199738D01*
X87527187Y-90168883D01*
X87579785Y-90135666D01*
X87580061Y-90135496D01*
X87639465Y-90100556D01*
X87639994Y-90100263D01*
X87647879Y-90096158D01*
X87702191Y-90067881D01*
X87711111Y-90067100D01*
X87715703Y-90069826D01*
G37*
%TD.AperFunction*%
%TD*%
%TA.AperFunction,Conductor*%
%TO.N,Net-(J2-Pad13)*%
G36*
X88121919Y-48997924D02*
G01*
X88125341Y-49005845D01*
X88128009Y-49094718D01*
X88136446Y-49178995D01*
X88149418Y-49250869D01*
X88166036Y-49313880D01*
X88166101Y-49314073D01*
X88166105Y-49314087D01*
X88185360Y-49371428D01*
X88185370Y-49371457D01*
X88185409Y-49371572D01*
X88206648Y-49427484D01*
X88223613Y-49471531D01*
X88228802Y-49485005D01*
X88228913Y-49485305D01*
X88251062Y-49547862D01*
X88251242Y-49548413D01*
X88272554Y-49619633D01*
X88272723Y-49620265D01*
X88290525Y-49695985D01*
X88289082Y-49704821D01*
X88285299Y-49708606D01*
X87861336Y-49971367D01*
X87852498Y-49972812D01*
X87844995Y-49967193D01*
X87598970Y-49533225D01*
X87597871Y-49524339D01*
X87600379Y-49519710D01*
X87642819Y-49471665D01*
X87643077Y-49471383D01*
X87687529Y-49424260D01*
X87687576Y-49424210D01*
X87728322Y-49381513D01*
X87728391Y-49381441D01*
X87765001Y-49340666D01*
X87765133Y-49340496D01*
X87796827Y-49299578D01*
X87796831Y-49299572D01*
X87797024Y-49299323D01*
X87824079Y-49254853D01*
X87845785Y-49204695D01*
X87852752Y-49179227D01*
X87861663Y-49146648D01*
X87861761Y-49146290D01*
X87871626Y-49077077D01*
X87874542Y-49005718D01*
X87878302Y-48997593D01*
X87886231Y-48994497D01*
X88113646Y-48994497D01*
X88121919Y-48997924D01*
G37*
%TD.AperFunction*%
%TD*%
%TA.AperFunction,Conductor*%
%TO.N,Net-(J2-Pad14)*%
G36*
X86699703Y-91847826D02*
G01*
X87059231Y-92193567D01*
X87062819Y-92201771D01*
X87059231Y-92210433D01*
X86699703Y-92556174D01*
X86691365Y-92559439D01*
X86686191Y-92558119D01*
X86623994Y-92525736D01*
X86623465Y-92525443D01*
X86614739Y-92520311D01*
X86564061Y-92490503D01*
X86563785Y-92490333D01*
X86511190Y-92457118D01*
X86511188Y-92457115D01*
X86511187Y-92457116D01*
X86462437Y-92426310D01*
X86462427Y-92426304D01*
X86462359Y-92426261D01*
X86414352Y-92398476D01*
X86414150Y-92398379D01*
X86414144Y-92398376D01*
X86364339Y-92374506D01*
X86364064Y-92374374D01*
X86308389Y-92354564D01*
X86282557Y-92348563D01*
X86244524Y-92339728D01*
X86244521Y-92339728D01*
X86244222Y-92339658D01*
X86243913Y-92339620D01*
X86243909Y-92339619D01*
X86199886Y-92334162D01*
X86168461Y-92330266D01*
X86112870Y-92328259D01*
X86089278Y-92327407D01*
X86081134Y-92323684D01*
X86078000Y-92315715D01*
X86078000Y-92088285D01*
X86081427Y-92080012D01*
X86089278Y-92076593D01*
X86122212Y-92075403D01*
X86168461Y-92073733D01*
X86199886Y-92069837D01*
X86243909Y-92064380D01*
X86243913Y-92064379D01*
X86244222Y-92064341D01*
X86244521Y-92064271D01*
X86244524Y-92064271D01*
X86308070Y-92049509D01*
X86308068Y-92049509D01*
X86308389Y-92049435D01*
X86364064Y-92029625D01*
X86383766Y-92020182D01*
X86414144Y-92005623D01*
X86414150Y-92005620D01*
X86414352Y-92005523D01*
X86462359Y-91977738D01*
X86511187Y-91946883D01*
X86563785Y-91913666D01*
X86564061Y-91913496D01*
X86623465Y-91878556D01*
X86623994Y-91878263D01*
X86631879Y-91874158D01*
X86686191Y-91845881D01*
X86695111Y-91845100D01*
X86699703Y-91847826D01*
G37*
%TD.AperFunction*%
%TD*%
%TA.AperFunction,Conductor*%
%TO.N,Net-(J2-Pad14)*%
G36*
X87121920Y-48998421D02*
G01*
X87125342Y-49006342D01*
X87128016Y-49095113D01*
X87136470Y-49179299D01*
X87149470Y-49251091D01*
X87149528Y-49251309D01*
X87149529Y-49251315D01*
X87162316Y-49299632D01*
X87166125Y-49314026D01*
X87185543Y-49371644D01*
X87185593Y-49371775D01*
X87206833Y-49427483D01*
X87229048Y-49484942D01*
X87229159Y-49485242D01*
X87251362Y-49547704D01*
X87251543Y-49548256D01*
X87272913Y-49619373D01*
X87273095Y-49620051D01*
X87290942Y-49695635D01*
X87289508Y-49704475D01*
X87285727Y-49708263D01*
X86862000Y-49971403D01*
X86853164Y-49972857D01*
X86845656Y-49967244D01*
X86648031Y-49619373D01*
X86599244Y-49533495D01*
X86598137Y-49524609D01*
X86600642Y-49519977D01*
X86643007Y-49471937D01*
X86643266Y-49471653D01*
X86687666Y-49424525D01*
X86687714Y-49424474D01*
X86728433Y-49381767D01*
X86728484Y-49381714D01*
X86746056Y-49362132D01*
X86764917Y-49341113D01*
X86764924Y-49341104D01*
X86765060Y-49340953D01*
X86797058Y-49299632D01*
X86824097Y-49255189D01*
X86845793Y-49205064D01*
X86861764Y-49146697D01*
X86861814Y-49146344D01*
X86861816Y-49146336D01*
X86871585Y-49077823D01*
X86871585Y-49077819D01*
X86871627Y-49077527D01*
X86874541Y-49006215D01*
X86878303Y-48998090D01*
X86886231Y-48994994D01*
X87113647Y-48994994D01*
X87121920Y-48998421D01*
G37*
%TD.AperFunction*%
%TD*%
%TA.AperFunction,Conductor*%
%TO.N,Net-(J1-Pad15)*%
G36*
X86121921Y-48998918D02*
G01*
X86125343Y-49006838D01*
X86128022Y-49095508D01*
X86136494Y-49179603D01*
X86149522Y-49251312D01*
X86166214Y-49314171D01*
X86185677Y-49371716D01*
X86185712Y-49371808D01*
X86185714Y-49371813D01*
X86207002Y-49427442D01*
X86207017Y-49427481D01*
X86229286Y-49484857D01*
X86229398Y-49485158D01*
X86251660Y-49547540D01*
X86251842Y-49548092D01*
X86273275Y-49619127D01*
X86273458Y-49619807D01*
X86291359Y-49695285D01*
X86289934Y-49704126D01*
X86286156Y-49707919D01*
X85862666Y-49971437D01*
X85853832Y-49972898D01*
X85846317Y-49967291D01*
X85599517Y-49533766D01*
X85598402Y-49524881D01*
X85600903Y-49520247D01*
X85631795Y-49485158D01*
X85643220Y-49472182D01*
X85643431Y-49471950D01*
X85687851Y-49424740D01*
X85728576Y-49381987D01*
X85728615Y-49381943D01*
X85728633Y-49381924D01*
X85764967Y-49341409D01*
X85765118Y-49341241D01*
X85765262Y-49341055D01*
X85796886Y-49300208D01*
X85796892Y-49300200D01*
X85797092Y-49299941D01*
X85824114Y-49255526D01*
X85845800Y-49205434D01*
X85852932Y-49179378D01*
X85861671Y-49147454D01*
X85861673Y-49147446D01*
X85861766Y-49147105D01*
X85871627Y-49077978D01*
X85874541Y-49006713D01*
X85878303Y-48998587D01*
X85886231Y-48995491D01*
X86113648Y-48995491D01*
X86121921Y-48998918D01*
G37*
%TD.AperFunction*%
%TD*%
%TA.AperFunction,Conductor*%
%TO.N,Net-(J1-Pad15)*%
G36*
X85937703Y-93371826D02*
G01*
X86297231Y-93717567D01*
X86300819Y-93725771D01*
X86297231Y-93734433D01*
X85937703Y-94080174D01*
X85929365Y-94083439D01*
X85924191Y-94082119D01*
X85861994Y-94049736D01*
X85861465Y-94049443D01*
X85852739Y-94044311D01*
X85802061Y-94014503D01*
X85801785Y-94014333D01*
X85749190Y-93981118D01*
X85749188Y-93981115D01*
X85749187Y-93981116D01*
X85700437Y-93950310D01*
X85700427Y-93950304D01*
X85700359Y-93950261D01*
X85652352Y-93922476D01*
X85652150Y-93922379D01*
X85652144Y-93922376D01*
X85602339Y-93898506D01*
X85602064Y-93898374D01*
X85546389Y-93878564D01*
X85520557Y-93872563D01*
X85482524Y-93863728D01*
X85482521Y-93863728D01*
X85482222Y-93863658D01*
X85481913Y-93863620D01*
X85481909Y-93863619D01*
X85437886Y-93858162D01*
X85406461Y-93854266D01*
X85350870Y-93852259D01*
X85327278Y-93851407D01*
X85319134Y-93847684D01*
X85316000Y-93839715D01*
X85316000Y-93612285D01*
X85319427Y-93604012D01*
X85327278Y-93600593D01*
X85360212Y-93599403D01*
X85406461Y-93597733D01*
X85437886Y-93593837D01*
X85481909Y-93588380D01*
X85481913Y-93588379D01*
X85482222Y-93588341D01*
X85482521Y-93588271D01*
X85482524Y-93588271D01*
X85546070Y-93573509D01*
X85546068Y-93573509D01*
X85546389Y-93573435D01*
X85602064Y-93553625D01*
X85621766Y-93544182D01*
X85652144Y-93529623D01*
X85652150Y-93529620D01*
X85652352Y-93529523D01*
X85700359Y-93501738D01*
X85749187Y-93470883D01*
X85801785Y-93437666D01*
X85802061Y-93437496D01*
X85861465Y-93402556D01*
X85861994Y-93402263D01*
X85869879Y-93398158D01*
X85924191Y-93369881D01*
X85933111Y-93369100D01*
X85937703Y-93371826D01*
G37*
%TD.AperFunction*%
%TD*%
%TA.AperFunction,Conductor*%
%TO.N,Net-(J1-Pad16)*%
G36*
X85121922Y-48999415D02*
G01*
X85125344Y-49007334D01*
X85128028Y-49095902D01*
X85128047Y-49096093D01*
X85128048Y-49096104D01*
X85133278Y-49147859D01*
X85136517Y-49179907D01*
X85136560Y-49180143D01*
X85136561Y-49180150D01*
X85148681Y-49246636D01*
X85149574Y-49251534D01*
X85166302Y-49314316D01*
X85185810Y-49371787D01*
X85185842Y-49371870D01*
X85185848Y-49371887D01*
X85207199Y-49427474D01*
X85207201Y-49427479D01*
X85229530Y-49484793D01*
X85229642Y-49485094D01*
X85251959Y-49547381D01*
X85252142Y-49547934D01*
X85273633Y-49618866D01*
X85273818Y-49619548D01*
X85291775Y-49694935D01*
X85290358Y-49703777D01*
X85286583Y-49707574D01*
X84863331Y-49971472D01*
X84854499Y-49972942D01*
X84846979Y-49967342D01*
X84599790Y-49534038D01*
X84598667Y-49525153D01*
X84601165Y-49520516D01*
X84643396Y-49472469D01*
X84643658Y-49472181D01*
X84687937Y-49425060D01*
X84687988Y-49425006D01*
X84728590Y-49382342D01*
X84728591Y-49382341D01*
X84728668Y-49382260D01*
X84765176Y-49341529D01*
X84765300Y-49341368D01*
X84765309Y-49341358D01*
X84796925Y-49300510D01*
X84796927Y-49300507D01*
X84797126Y-49300250D01*
X84824132Y-49255863D01*
X84845808Y-49205804D01*
X84861768Y-49147514D01*
X84871627Y-49078428D01*
X84874541Y-49007210D01*
X84878303Y-48999084D01*
X84886231Y-48995988D01*
X85113649Y-48995988D01*
X85121922Y-48999415D01*
G37*
%TD.AperFunction*%
%TD*%
%TA.AperFunction,Conductor*%
%TO.N,Net-(J1-Pad16)*%
G36*
X84921703Y-94641826D02*
G01*
X85281231Y-94987567D01*
X85284819Y-94995771D01*
X85281231Y-95004433D01*
X84921703Y-95350174D01*
X84913365Y-95353439D01*
X84908191Y-95352119D01*
X84845994Y-95319736D01*
X84845465Y-95319443D01*
X84836739Y-95314311D01*
X84786061Y-95284503D01*
X84785785Y-95284333D01*
X84733190Y-95251118D01*
X84733188Y-95251115D01*
X84733187Y-95251116D01*
X84684437Y-95220310D01*
X84684427Y-95220304D01*
X84684359Y-95220261D01*
X84636352Y-95192476D01*
X84636150Y-95192379D01*
X84636144Y-95192376D01*
X84586339Y-95168506D01*
X84586064Y-95168374D01*
X84530389Y-95148564D01*
X84504557Y-95142563D01*
X84466524Y-95133728D01*
X84466521Y-95133728D01*
X84466222Y-95133658D01*
X84465913Y-95133620D01*
X84465909Y-95133619D01*
X84421886Y-95128162D01*
X84390461Y-95124266D01*
X84334870Y-95122259D01*
X84311278Y-95121407D01*
X84303134Y-95117684D01*
X84300000Y-95109715D01*
X84300000Y-94882285D01*
X84303427Y-94874012D01*
X84311278Y-94870593D01*
X84344212Y-94869403D01*
X84390461Y-94867733D01*
X84421886Y-94863837D01*
X84465909Y-94858380D01*
X84465913Y-94858379D01*
X84466222Y-94858341D01*
X84466521Y-94858271D01*
X84466524Y-94858271D01*
X84530070Y-94843509D01*
X84530068Y-94843509D01*
X84530389Y-94843435D01*
X84586064Y-94823625D01*
X84605766Y-94814182D01*
X84636144Y-94799623D01*
X84636150Y-94799620D01*
X84636352Y-94799523D01*
X84684359Y-94771738D01*
X84733187Y-94740883D01*
X84785785Y-94707666D01*
X84786061Y-94707496D01*
X84845465Y-94672556D01*
X84845994Y-94672263D01*
X84853879Y-94668158D01*
X84908191Y-94639881D01*
X84917111Y-94639100D01*
X84921703Y-94641826D01*
G37*
%TD.AperFunction*%
%TD*%
%TA.AperFunction,Conductor*%
%TO.N,Net-(J1-Pad17)*%
G36*
X83905703Y-95657826D02*
G01*
X84265231Y-96003567D01*
X84268819Y-96011771D01*
X84265231Y-96020433D01*
X83905703Y-96366174D01*
X83897365Y-96369439D01*
X83892191Y-96368119D01*
X83829994Y-96335736D01*
X83829465Y-96335443D01*
X83820739Y-96330311D01*
X83770061Y-96300503D01*
X83769785Y-96300333D01*
X83717190Y-96267118D01*
X83717188Y-96267115D01*
X83717187Y-96267116D01*
X83668437Y-96236310D01*
X83668427Y-96236304D01*
X83668359Y-96236261D01*
X83620352Y-96208476D01*
X83620150Y-96208379D01*
X83620144Y-96208376D01*
X83570339Y-96184506D01*
X83570064Y-96184374D01*
X83514389Y-96164564D01*
X83488557Y-96158563D01*
X83450524Y-96149728D01*
X83450521Y-96149728D01*
X83450222Y-96149658D01*
X83449913Y-96149620D01*
X83449909Y-96149619D01*
X83405886Y-96144162D01*
X83374461Y-96140266D01*
X83318870Y-96138259D01*
X83295278Y-96137407D01*
X83287134Y-96133684D01*
X83284000Y-96125715D01*
X83284000Y-95898285D01*
X83287427Y-95890012D01*
X83295278Y-95886593D01*
X83328212Y-95885403D01*
X83374461Y-95883733D01*
X83405886Y-95879837D01*
X83449909Y-95874380D01*
X83449913Y-95874379D01*
X83450222Y-95874341D01*
X83450521Y-95874271D01*
X83450524Y-95874271D01*
X83514070Y-95859509D01*
X83514068Y-95859509D01*
X83514389Y-95859435D01*
X83570064Y-95839625D01*
X83589766Y-95830182D01*
X83620144Y-95815623D01*
X83620150Y-95815620D01*
X83620352Y-95815523D01*
X83668359Y-95787738D01*
X83717187Y-95756883D01*
X83769785Y-95723666D01*
X83770061Y-95723496D01*
X83829465Y-95688556D01*
X83829994Y-95688263D01*
X83837879Y-95684158D01*
X83892191Y-95655881D01*
X83901111Y-95655100D01*
X83905703Y-95657826D01*
G37*
%TD.AperFunction*%
%TD*%
%TA.AperFunction,Conductor*%
%TO.N,Net-(J1-Pad17)*%
G36*
X84122023Y-48231427D02*
G01*
X84125441Y-48239241D01*
X84128335Y-48312987D01*
X84138061Y-48384201D01*
X84153759Y-48444360D01*
X84175009Y-48496180D01*
X84201392Y-48542380D01*
X84232489Y-48585677D01*
X84267881Y-48628789D01*
X84267910Y-48628823D01*
X84267922Y-48628837D01*
X84307098Y-48674376D01*
X84307189Y-48674483D01*
X84349733Y-48725163D01*
X84350009Y-48725505D01*
X84390497Y-48777587D01*
X84392869Y-48786222D01*
X84391045Y-48791181D01*
X84308516Y-48917093D01*
X84117586Y-49208388D01*
X84110185Y-49213429D01*
X84101010Y-49211501D01*
X83694852Y-48921975D01*
X83690104Y-48914383D01*
X83690449Y-48909046D01*
X83712579Y-48836235D01*
X83712793Y-48835595D01*
X83738086Y-48766891D01*
X83738278Y-48766405D01*
X83763645Y-48705974D01*
X83763738Y-48705759D01*
X83777609Y-48674483D01*
X83788391Y-48650170D01*
X83811506Y-48596024D01*
X83832220Y-48540001D01*
X83849730Y-48478642D01*
X83849777Y-48478399D01*
X83863184Y-48408750D01*
X83863185Y-48408744D01*
X83863233Y-48408494D01*
X83871924Y-48326098D01*
X83874645Y-48239333D01*
X83878329Y-48231172D01*
X83886339Y-48228000D01*
X84113750Y-48228000D01*
X84122023Y-48231427D01*
G37*
%TD.AperFunction*%
%TD*%
%TA.AperFunction,Conductor*%
%TO.N,Net-(J1-Pad18)*%
G36*
X83122010Y-48989427D02*
G01*
X83125429Y-48997254D01*
X83128307Y-49072749D01*
X83137932Y-49145446D01*
X83153432Y-49206911D01*
X83174361Y-49259964D01*
X83174529Y-49260272D01*
X83174532Y-49260278D01*
X83200139Y-49307173D01*
X83200277Y-49307425D01*
X83230733Y-49352115D01*
X83265288Y-49396852D01*
X83269711Y-49402363D01*
X83303436Y-49444385D01*
X83303549Y-49444528D01*
X83344772Y-49497571D01*
X83345052Y-49497947D01*
X83384227Y-49552745D01*
X83386251Y-49561468D01*
X83384224Y-49566358D01*
X83093921Y-49972016D01*
X83086320Y-49976749D01*
X83077231Y-49974447D01*
X82683260Y-49668536D01*
X82678828Y-49660756D01*
X82679388Y-49655443D01*
X82704165Y-49584378D01*
X82704396Y-49583770D01*
X82732085Y-49516609D01*
X82732277Y-49516170D01*
X82759544Y-49457028D01*
X82759618Y-49456871D01*
X82785736Y-49402363D01*
X82785755Y-49402322D01*
X82798308Y-49374721D01*
X82809913Y-49349204D01*
X82831361Y-49294085D01*
X82831425Y-49293870D01*
X82831429Y-49293858D01*
X82841600Y-49259634D01*
X82849337Y-49233604D01*
X82863098Y-49164363D01*
X82871900Y-49082961D01*
X82872227Y-49072749D01*
X82874638Y-48997326D01*
X82878327Y-48989167D01*
X82886332Y-48986000D01*
X83113737Y-48986000D01*
X83122010Y-48989427D01*
G37*
%TD.AperFunction*%
%TD*%
%TA.AperFunction,Conductor*%
%TO.N,Net-(J1-Pad18)*%
G36*
X83193335Y-96891711D02*
G01*
X83198741Y-96898849D01*
X83199119Y-96902035D01*
X83189430Y-97397643D01*
X83185842Y-97405847D01*
X83181502Y-97408490D01*
X83160543Y-97415625D01*
X83138930Y-97422982D01*
X83120955Y-97429211D01*
X83091645Y-97439367D01*
X83091617Y-97439377D01*
X83091540Y-97439404D01*
X83091455Y-97439437D01*
X83091436Y-97439444D01*
X83067670Y-97448670D01*
X83047653Y-97456441D01*
X83047465Y-97456530D01*
X83047464Y-97456531D01*
X83008141Y-97475269D01*
X83008134Y-97475273D01*
X83007821Y-97475422D01*
X83007519Y-97475613D01*
X82973009Y-97497416D01*
X82973006Y-97497418D01*
X82972598Y-97497676D01*
X82962192Y-97506973D01*
X82942979Y-97524139D01*
X82942975Y-97524144D01*
X82942539Y-97524533D01*
X82942191Y-97525002D01*
X82942188Y-97525005D01*
X82937000Y-97531993D01*
X82918196Y-97557320D01*
X82900122Y-97597369D01*
X82888872Y-97646007D01*
X82888841Y-97646473D01*
X82888841Y-97646474D01*
X82885723Y-97693636D01*
X82881757Y-97701665D01*
X82874048Y-97704564D01*
X82646781Y-97704564D01*
X82638508Y-97701137D01*
X82635081Y-97692783D01*
X82635644Y-97611239D01*
X82635647Y-97611062D01*
X82637389Y-97532117D01*
X82637394Y-97531933D01*
X82639967Y-97463860D01*
X82639975Y-97463696D01*
X82642085Y-97422990D01*
X82643096Y-97403493D01*
X82646500Y-97347819D01*
X82649904Y-97293622D01*
X82653031Y-97237722D01*
X82655608Y-97176938D01*
X82657356Y-97108091D01*
X82657928Y-97036961D01*
X82661422Y-97028716D01*
X82666671Y-97025735D01*
X83184464Y-96890486D01*
X83193335Y-96891711D01*
G37*
%TD.AperFunction*%
%TD*%
%TA.AperFunction,Conductor*%
%TO.N,Net-(J1-Pad19)*%
G36*
X82122053Y-48200412D02*
G01*
X82125469Y-48208194D01*
X82128400Y-48278159D01*
X82138363Y-48346220D01*
X82154530Y-48403622D01*
X82176546Y-48452819D01*
X82176769Y-48453171D01*
X82203868Y-48495979D01*
X82203874Y-48495987D01*
X82204051Y-48496267D01*
X82236690Y-48536420D01*
X82274103Y-48575732D01*
X82315935Y-48616659D01*
X82338185Y-48638474D01*
X82361703Y-48661533D01*
X82361927Y-48661759D01*
X82405645Y-48707172D01*
X82408913Y-48715508D01*
X82407639Y-48720598D01*
X82304914Y-48922121D01*
X82181080Y-49165054D01*
X82174270Y-49170868D01*
X82164939Y-49169948D01*
X82156200Y-49165054D01*
X81729746Y-48926230D01*
X81724203Y-48919199D01*
X81723967Y-48913855D01*
X81738613Y-48836173D01*
X81738765Y-48835482D01*
X81757162Y-48762483D01*
X81757326Y-48761896D01*
X81772342Y-48713175D01*
X81777095Y-48697754D01*
X81777207Y-48697411D01*
X81789531Y-48661533D01*
X81797451Y-48638474D01*
X81817220Y-48581215D01*
X81831107Y-48536420D01*
X81835458Y-48522385D01*
X81835462Y-48522369D01*
X81835508Y-48522222D01*
X81851372Y-48457900D01*
X81863870Y-48384651D01*
X81872060Y-48298878D01*
X81874672Y-48208348D01*
X81878336Y-48200177D01*
X81886367Y-48196985D01*
X82113780Y-48196985D01*
X82122053Y-48200412D01*
G37*
%TD.AperFunction*%
%TD*%
%TA.AperFunction,Conductor*%
%TO.N,Net-(J1-Pad19)*%
G36*
X85373088Y-100394807D02*
G01*
X85677891Y-100789682D01*
X85680233Y-100798325D01*
X85678385Y-100803289D01*
X85640332Y-100860774D01*
X85640087Y-100861129D01*
X85600023Y-100916532D01*
X85599902Y-100916696D01*
X85562719Y-100966196D01*
X85528948Y-101012610D01*
X85499107Y-101058778D01*
X85473658Y-101107616D01*
X85453061Y-101162040D01*
X85437779Y-101224968D01*
X85428271Y-101299315D01*
X85428262Y-101299568D01*
X85428261Y-101299576D01*
X85425416Y-101376731D01*
X85421687Y-101384872D01*
X85413724Y-101388000D01*
X85186329Y-101388000D01*
X85178056Y-101384573D01*
X85174635Y-101376676D01*
X85171906Y-101291895D01*
X85171906Y-101291893D01*
X85171899Y-101291680D01*
X85164636Y-101225301D01*
X85163080Y-101211080D01*
X85163079Y-101211073D01*
X85163052Y-101210827D01*
X85149141Y-101142086D01*
X85130847Y-101082104D01*
X85121447Y-101058778D01*
X85108925Y-101027708D01*
X85108924Y-101027707D01*
X85108852Y-101027527D01*
X85083839Y-100975003D01*
X85056489Y-100921177D01*
X85027580Y-100862886D01*
X85027396Y-100862497D01*
X84997636Y-100796491D01*
X84997397Y-100795922D01*
X84970282Y-100726181D01*
X84970478Y-100717228D01*
X84973681Y-100712966D01*
X85053538Y-100646185D01*
X85356321Y-100392981D01*
X85364865Y-100390302D01*
X85373088Y-100394807D01*
G37*
%TD.AperFunction*%
%TD*%
%TA.AperFunction,Conductor*%
%TO.N,Net-(J1-Pad20)*%
G36*
X81122252Y-48843427D02*
G01*
X81125658Y-48851001D01*
X81128546Y-48899313D01*
X81128631Y-48899722D01*
X81128632Y-48899729D01*
X81135581Y-48933137D01*
X81138911Y-48949147D01*
X81155683Y-48990735D01*
X81178449Y-49025309D01*
X81206798Y-49054102D01*
X81240319Y-49078348D01*
X81240637Y-49078522D01*
X81240642Y-49078525D01*
X81253337Y-49085466D01*
X81278599Y-49099279D01*
X81321226Y-49118128D01*
X81321348Y-49118175D01*
X81321350Y-49118176D01*
X81367772Y-49136123D01*
X81367789Y-49136129D01*
X81410225Y-49151706D01*
X81416810Y-49157773D01*
X81417893Y-49162666D01*
X81418887Y-49658615D01*
X81415477Y-49666895D01*
X81407210Y-49670338D01*
X81404169Y-49669942D01*
X80888667Y-49532314D01*
X80881558Y-49526869D01*
X80879985Y-49521030D01*
X80879860Y-49448352D01*
X80879860Y-49448289D01*
X80879480Y-49378147D01*
X80878920Y-49316148D01*
X80878240Y-49259117D01*
X80877500Y-49203818D01*
X80877500Y-49203813D01*
X80876760Y-49147014D01*
X80876760Y-49146992D01*
X80876232Y-49099279D01*
X80876079Y-49085501D01*
X80876093Y-49085466D01*
X80876079Y-49085466D01*
X80875520Y-49015940D01*
X80875402Y-48990735D01*
X80875140Y-48935196D01*
X80875140Y-48935158D01*
X80875017Y-48851717D01*
X80878432Y-48843439D01*
X80886717Y-48840000D01*
X81113979Y-48840000D01*
X81122252Y-48843427D01*
G37*
%TD.AperFunction*%
%TD*%
%TA.AperFunction,Conductor*%
%TO.N,Net-(J1-Pad20)*%
G36*
X87913088Y-105982807D02*
G01*
X88217891Y-106377682D01*
X88220233Y-106386325D01*
X88218385Y-106391289D01*
X88180332Y-106448774D01*
X88180087Y-106449129D01*
X88140023Y-106504532D01*
X88139902Y-106504696D01*
X88102719Y-106554196D01*
X88068948Y-106600610D01*
X88039107Y-106646778D01*
X88013658Y-106695616D01*
X87993061Y-106750040D01*
X87977779Y-106812968D01*
X87968271Y-106887315D01*
X87968262Y-106887568D01*
X87968261Y-106887576D01*
X87965416Y-106964731D01*
X87961687Y-106972872D01*
X87953724Y-106976000D01*
X87726329Y-106976000D01*
X87718056Y-106972573D01*
X87714635Y-106964676D01*
X87711906Y-106879895D01*
X87711906Y-106879893D01*
X87711899Y-106879680D01*
X87704636Y-106813301D01*
X87703080Y-106799080D01*
X87703079Y-106799073D01*
X87703052Y-106798827D01*
X87689141Y-106730086D01*
X87670847Y-106670104D01*
X87661447Y-106646778D01*
X87648925Y-106615708D01*
X87648924Y-106615707D01*
X87648852Y-106615527D01*
X87623839Y-106563003D01*
X87596489Y-106509177D01*
X87567580Y-106450886D01*
X87567396Y-106450497D01*
X87537636Y-106384491D01*
X87537397Y-106383922D01*
X87510282Y-106314181D01*
X87510478Y-106305228D01*
X87513681Y-106300966D01*
X87593538Y-106234185D01*
X87896321Y-105980981D01*
X87904865Y-105978302D01*
X87913088Y-105982807D01*
G37*
%TD.AperFunction*%
%TD*%
%TA.AperFunction,Conductor*%
%TO.N,Net-(J1-Pad21)*%
G36*
X90453088Y-112078807D02*
G01*
X90757891Y-112473682D01*
X90760233Y-112482325D01*
X90758385Y-112487289D01*
X90720332Y-112544774D01*
X90720087Y-112545129D01*
X90680023Y-112600532D01*
X90679902Y-112600696D01*
X90642719Y-112650196D01*
X90608948Y-112696610D01*
X90579107Y-112742778D01*
X90553658Y-112791616D01*
X90533061Y-112846040D01*
X90517779Y-112908968D01*
X90508271Y-112983315D01*
X90508262Y-112983568D01*
X90508261Y-112983576D01*
X90505416Y-113060731D01*
X90501687Y-113068872D01*
X90493724Y-113072000D01*
X90266329Y-113072000D01*
X90258056Y-113068573D01*
X90254635Y-113060676D01*
X90251906Y-112975895D01*
X90251906Y-112975893D01*
X90251899Y-112975680D01*
X90244636Y-112909301D01*
X90243080Y-112895080D01*
X90243079Y-112895073D01*
X90243052Y-112894827D01*
X90229141Y-112826086D01*
X90210847Y-112766104D01*
X90201447Y-112742778D01*
X90188925Y-112711708D01*
X90188924Y-112711707D01*
X90188852Y-112711527D01*
X90163839Y-112659003D01*
X90136489Y-112605177D01*
X90107580Y-112546886D01*
X90107396Y-112546497D01*
X90077636Y-112480491D01*
X90077397Y-112479922D01*
X90050282Y-112410181D01*
X90050478Y-112401228D01*
X90053681Y-112396966D01*
X90133538Y-112330185D01*
X90436321Y-112076981D01*
X90444865Y-112074302D01*
X90453088Y-112078807D01*
G37*
%TD.AperFunction*%
%TD*%
%TA.AperFunction,Conductor*%
%TO.N,Net-(J1-Pad21)*%
G36*
X80122174Y-48802421D02*
G01*
X80125585Y-48810077D01*
X80128542Y-48866070D01*
X80138934Y-48922398D01*
X80155824Y-48969603D01*
X80178860Y-49009309D01*
X80207690Y-49043139D01*
X80241962Y-49072717D01*
X80281325Y-49099667D01*
X80325426Y-49125614D01*
X80325463Y-49125634D01*
X80373909Y-49152178D01*
X80373914Y-49152181D01*
X80419225Y-49177037D01*
X80424830Y-49184021D01*
X80425155Y-49189116D01*
X80347591Y-49680545D01*
X80342916Y-49688183D01*
X80334210Y-49690278D01*
X80332480Y-49689868D01*
X79844532Y-49534312D01*
X79837691Y-49528534D01*
X79836486Y-49524692D01*
X79831719Y-49488483D01*
X79831620Y-49486790D01*
X79832235Y-49443549D01*
X79832246Y-49443190D01*
X79835573Y-49369148D01*
X79835594Y-49368797D01*
X79840497Y-49303465D01*
X79840521Y-49303187D01*
X79846486Y-49243014D01*
X79846501Y-49242873D01*
X79853003Y-49184468D01*
X79853011Y-49184396D01*
X79853015Y-49184362D01*
X79859514Y-49124374D01*
X79859523Y-49124280D01*
X79865492Y-49059287D01*
X79865501Y-49059175D01*
X79870419Y-48985668D01*
X79870420Y-48985644D01*
X79870424Y-48985586D01*
X79873768Y-48899991D01*
X79874859Y-48810551D01*
X79878386Y-48802321D01*
X79886558Y-48798994D01*
X80113901Y-48798994D01*
X80122174Y-48802421D01*
G37*
%TD.AperFunction*%
%TD*%
%TA.AperFunction,Conductor*%
%TO.N,Net-(J1-Pad22)*%
G36*
X92993088Y-118428807D02*
G01*
X93297891Y-118823682D01*
X93300233Y-118832325D01*
X93298385Y-118837289D01*
X93260332Y-118894774D01*
X93260087Y-118895129D01*
X93220023Y-118950532D01*
X93219902Y-118950696D01*
X93182719Y-119000196D01*
X93148948Y-119046610D01*
X93119107Y-119092778D01*
X93093658Y-119141616D01*
X93073061Y-119196040D01*
X93057779Y-119258968D01*
X93048271Y-119333315D01*
X93048262Y-119333568D01*
X93048261Y-119333576D01*
X93045416Y-119410731D01*
X93041687Y-119418872D01*
X93033724Y-119422000D01*
X92806329Y-119422000D01*
X92798056Y-119418573D01*
X92794635Y-119410676D01*
X92791906Y-119325895D01*
X92791906Y-119325893D01*
X92791899Y-119325680D01*
X92784636Y-119259301D01*
X92783080Y-119245080D01*
X92783079Y-119245073D01*
X92783052Y-119244827D01*
X92769141Y-119176086D01*
X92750847Y-119116104D01*
X92741447Y-119092778D01*
X92728925Y-119061708D01*
X92728924Y-119061707D01*
X92728852Y-119061527D01*
X92703839Y-119009003D01*
X92676489Y-118955177D01*
X92647580Y-118896886D01*
X92647396Y-118896497D01*
X92617636Y-118830491D01*
X92617397Y-118829922D01*
X92590282Y-118760181D01*
X92590478Y-118751228D01*
X92593681Y-118746966D01*
X92673538Y-118680185D01*
X92976321Y-118426981D01*
X92984865Y-118424302D01*
X92993088Y-118428807D01*
G37*
%TD.AperFunction*%
%TD*%
%TA.AperFunction,Conductor*%
%TO.N,Net-(J1-Pad22)*%
G36*
X79122174Y-48801924D02*
G01*
X79125585Y-48809580D01*
X79128546Y-48865654D01*
X79138950Y-48922053D01*
X79155861Y-48969317D01*
X79178925Y-49009073D01*
X79207792Y-49042945D01*
X79242108Y-49072558D01*
X79281521Y-49099539D01*
X79281700Y-49099644D01*
X79281709Y-49099650D01*
X79325626Y-49125479D01*
X79325643Y-49125488D01*
X79325681Y-49125511D01*
X79325722Y-49125533D01*
X79325730Y-49125538D01*
X79374229Y-49152099D01*
X79374233Y-49152101D01*
X79419615Y-49176979D01*
X79425223Y-49183961D01*
X79425548Y-49189059D01*
X79397249Y-49368710D01*
X79348134Y-49680507D01*
X79343462Y-49688146D01*
X79334756Y-49690243D01*
X79333031Y-49689836D01*
X78845030Y-49534311D01*
X78838188Y-49528533D01*
X78836983Y-49524690D01*
X78832209Y-49488431D01*
X78832110Y-49486740D01*
X78832718Y-49443483D01*
X78832729Y-49443128D01*
X78836018Y-49369056D01*
X78836038Y-49368710D01*
X78840889Y-49303288D01*
X78840913Y-49303013D01*
X78846799Y-49242911D01*
X78846813Y-49242772D01*
X78853251Y-49184233D01*
X78859684Y-49124145D01*
X78859694Y-49124038D01*
X78861929Y-49099414D01*
X78865604Y-49058906D01*
X78870476Y-48985212D01*
X78872914Y-48922053D01*
X78873779Y-48899649D01*
X78873782Y-48899559D01*
X78874861Y-48810056D01*
X78878387Y-48801825D01*
X78886560Y-48798497D01*
X79113901Y-48798497D01*
X79122174Y-48801924D01*
G37*
%TD.AperFunction*%
%TD*%
%TA.AperFunction,Conductor*%
%TO.N,Net-(J1-Pad23)*%
G36*
X95533088Y-124524807D02*
G01*
X95837891Y-124919682D01*
X95840233Y-124928325D01*
X95838385Y-124933289D01*
X95800332Y-124990774D01*
X95800087Y-124991129D01*
X95760023Y-125046532D01*
X95759902Y-125046696D01*
X95722719Y-125096196D01*
X95688948Y-125142610D01*
X95659107Y-125188778D01*
X95633658Y-125237616D01*
X95613061Y-125292040D01*
X95597779Y-125354968D01*
X95588271Y-125429315D01*
X95588262Y-125429568D01*
X95588261Y-125429576D01*
X95585416Y-125506731D01*
X95581687Y-125514872D01*
X95573724Y-125518000D01*
X95346329Y-125518000D01*
X95338056Y-125514573D01*
X95334635Y-125506676D01*
X95331906Y-125421895D01*
X95331906Y-125421893D01*
X95331899Y-125421680D01*
X95324636Y-125355301D01*
X95323080Y-125341080D01*
X95323079Y-125341073D01*
X95323052Y-125340827D01*
X95309141Y-125272086D01*
X95290847Y-125212104D01*
X95281447Y-125188778D01*
X95268925Y-125157708D01*
X95268924Y-125157707D01*
X95268852Y-125157527D01*
X95243839Y-125105003D01*
X95216489Y-125051177D01*
X95187580Y-124992886D01*
X95187396Y-124992497D01*
X95157636Y-124926491D01*
X95157397Y-124925922D01*
X95130282Y-124856181D01*
X95130478Y-124847228D01*
X95133681Y-124842966D01*
X95213538Y-124776185D01*
X95516321Y-124522981D01*
X95524865Y-124520302D01*
X95533088Y-124524807D01*
G37*
%TD.AperFunction*%
%TD*%
%TA.AperFunction,Conductor*%
%TO.N,Net-(J1-Pad23)*%
G36*
X78122174Y-48801427D02*
G01*
X78125585Y-48809083D01*
X78128550Y-48865239D01*
X78138967Y-48921707D01*
X78155898Y-48969031D01*
X78156166Y-48969493D01*
X78156167Y-48969495D01*
X78165068Y-48984837D01*
X78178991Y-49008837D01*
X78207894Y-49042752D01*
X78242253Y-49072401D01*
X78281718Y-49099411D01*
X78325935Y-49125409D01*
X78325972Y-49125430D01*
X78325982Y-49125435D01*
X78374553Y-49152021D01*
X78374556Y-49152023D01*
X78420005Y-49176922D01*
X78425615Y-49183902D01*
X78425942Y-49188998D01*
X78371918Y-49532634D01*
X78348677Y-49680469D01*
X78344007Y-49688110D01*
X78335302Y-49690210D01*
X78333570Y-49689801D01*
X77840267Y-49532634D01*
X77833425Y-49526857D01*
X77832120Y-49521323D01*
X77833202Y-49443449D01*
X77833212Y-49443099D01*
X77836464Y-49368932D01*
X77836484Y-49368590D01*
X77841278Y-49303155D01*
X77841301Y-49302883D01*
X77847129Y-49242652D01*
X77847143Y-49242515D01*
X77853500Y-49183998D01*
X77859696Y-49125409D01*
X77859864Y-49123817D01*
X77865711Y-49058582D01*
X77870528Y-48984837D01*
X77873796Y-48899128D01*
X77874200Y-48865239D01*
X77874862Y-48809561D01*
X77878387Y-48801329D01*
X77886561Y-48798000D01*
X78113901Y-48798000D01*
X78122174Y-48801427D01*
G37*
%TD.AperFunction*%
%TD*%
%TA.AperFunction,Conductor*%
%TO.N,Net-(J1-Pad24)*%
G36*
X77122174Y-48849842D02*
G01*
X77125585Y-48857498D01*
X77128523Y-48913123D01*
X77138859Y-48969136D01*
X77155656Y-49016073D01*
X77178564Y-49055551D01*
X77207231Y-49089190D01*
X77207568Y-49089481D01*
X77241057Y-49118393D01*
X77241066Y-49118400D01*
X77241307Y-49118608D01*
X77280441Y-49145424D01*
X77324281Y-49171255D01*
X77324372Y-49171305D01*
X77324393Y-49171317D01*
X77372468Y-49197717D01*
X77372476Y-49197721D01*
X77417470Y-49222475D01*
X77423065Y-49229464D01*
X77423383Y-49234565D01*
X77368718Y-49577817D01*
X77345135Y-49725896D01*
X77340450Y-49733527D01*
X77331741Y-49735610D01*
X77330023Y-49735202D01*
X77123353Y-49669223D01*
X76837031Y-49577816D01*
X76830193Y-49572036D01*
X76828891Y-49566496D01*
X76830052Y-49488995D01*
X76830064Y-49488616D01*
X76833560Y-49414820D01*
X76833583Y-49414451D01*
X76838736Y-49349322D01*
X76838763Y-49349028D01*
X76845037Y-49289018D01*
X76845054Y-49288871D01*
X76851880Y-49230710D01*
X76852821Y-49222474D01*
X76858723Y-49170810D01*
X76865012Y-49105873D01*
X76866169Y-49089481D01*
X76870185Y-49032546D01*
X76870186Y-49032528D01*
X76870191Y-49032457D01*
X76873705Y-48947118D01*
X76874851Y-48857964D01*
X76878384Y-48849736D01*
X76886550Y-48846415D01*
X77113901Y-48846415D01*
X77122174Y-48849842D01*
G37*
%TD.AperFunction*%
%TD*%
%TA.AperFunction,Conductor*%
%TO.N,Net-(J1-Pad24)*%
G36*
X98008433Y-130574769D02*
G01*
X98354174Y-130934297D01*
X98357439Y-130942635D01*
X98356119Y-130947809D01*
X98323736Y-131010005D01*
X98323443Y-131010534D01*
X98288513Y-131069921D01*
X98288320Y-131070236D01*
X98255118Y-131122809D01*
X98255115Y-131122811D01*
X98255116Y-131122812D01*
X98224261Y-131171640D01*
X98196476Y-131219647D01*
X98172374Y-131269935D01*
X98152564Y-131325610D01*
X98137658Y-131389777D01*
X98128266Y-131465538D01*
X98128257Y-131465799D01*
X98125407Y-131544722D01*
X98121684Y-131552866D01*
X98113715Y-131556000D01*
X97886285Y-131556000D01*
X97878012Y-131552573D01*
X97874593Y-131544722D01*
X97871742Y-131465799D01*
X97871733Y-131465538D01*
X97862341Y-131389777D01*
X97847435Y-131325610D01*
X97827625Y-131269935D01*
X97803523Y-131219647D01*
X97775738Y-131171640D01*
X97744883Y-131122812D01*
X97711666Y-131070214D01*
X97711486Y-131069921D01*
X97676556Y-131010534D01*
X97676263Y-131010005D01*
X97643881Y-130947810D01*
X97643100Y-130938889D01*
X97645826Y-130934297D01*
X97991567Y-130574769D01*
X97999771Y-130571181D01*
X98008433Y-130574769D01*
G37*
%TD.AperFunction*%
%TD*%
%TA.AperFunction,Conductor*%
%TO.N,Net-(J1-Pad20)*%
G36*
X81122252Y-48843427D02*
G01*
X81125658Y-48851001D01*
X81128546Y-48899313D01*
X81128631Y-48899722D01*
X81128632Y-48899729D01*
X81135581Y-48933137D01*
X81138911Y-48949147D01*
X81155683Y-48990735D01*
X81178449Y-49025309D01*
X81206798Y-49054102D01*
X81240319Y-49078348D01*
X81240637Y-49078522D01*
X81240642Y-49078525D01*
X81253337Y-49085466D01*
X81278599Y-49099279D01*
X81321226Y-49118128D01*
X81321348Y-49118175D01*
X81321350Y-49118176D01*
X81367772Y-49136123D01*
X81367789Y-49136129D01*
X81410225Y-49151706D01*
X81416810Y-49157773D01*
X81417893Y-49162666D01*
X81418887Y-49658615D01*
X81415477Y-49666895D01*
X81407210Y-49670338D01*
X81404169Y-49669942D01*
X80888667Y-49532314D01*
X80881558Y-49526869D01*
X80879985Y-49521030D01*
X80879860Y-49448352D01*
X80879860Y-49448289D01*
X80879480Y-49378147D01*
X80878920Y-49316148D01*
X80878240Y-49259117D01*
X80877500Y-49203818D01*
X80877500Y-49203813D01*
X80876760Y-49147014D01*
X80876760Y-49146992D01*
X80876232Y-49099279D01*
X80876079Y-49085501D01*
X80876093Y-49085466D01*
X80876079Y-49085466D01*
X80875520Y-49015940D01*
X80875402Y-48990735D01*
X80875140Y-48935196D01*
X80875140Y-48935158D01*
X80875017Y-48851717D01*
X80878432Y-48843439D01*
X80886717Y-48840000D01*
X81113979Y-48840000D01*
X81122252Y-48843427D01*
G37*
%TD.AperFunction*%
%TD*%
%TA.AperFunction,Conductor*%
%TO.N,Net-(J1-Pad21)*%
G36*
X80122174Y-48802421D02*
G01*
X80125585Y-48810077D01*
X80128542Y-48866070D01*
X80138934Y-48922398D01*
X80155824Y-48969603D01*
X80178860Y-49009309D01*
X80207690Y-49043139D01*
X80241962Y-49072717D01*
X80281325Y-49099667D01*
X80325426Y-49125614D01*
X80325463Y-49125634D01*
X80373909Y-49152178D01*
X80373914Y-49152181D01*
X80419225Y-49177037D01*
X80424830Y-49184021D01*
X80425155Y-49189116D01*
X80347591Y-49680545D01*
X80342916Y-49688183D01*
X80334210Y-49690278D01*
X80332480Y-49689868D01*
X79844532Y-49534312D01*
X79837691Y-49528534D01*
X79836486Y-49524692D01*
X79831719Y-49488483D01*
X79831620Y-49486790D01*
X79832235Y-49443549D01*
X79832246Y-49443190D01*
X79835573Y-49369148D01*
X79835594Y-49368797D01*
X79840497Y-49303465D01*
X79840521Y-49303187D01*
X79846486Y-49243014D01*
X79846501Y-49242873D01*
X79853003Y-49184468D01*
X79853011Y-49184396D01*
X79853015Y-49184362D01*
X79859514Y-49124374D01*
X79859523Y-49124280D01*
X79865492Y-49059287D01*
X79865501Y-49059175D01*
X79870419Y-48985668D01*
X79870420Y-48985644D01*
X79870424Y-48985586D01*
X79873768Y-48899991D01*
X79874859Y-48810551D01*
X79878386Y-48802321D01*
X79886558Y-48798994D01*
X80113901Y-48798994D01*
X80122174Y-48802421D01*
G37*
%TD.AperFunction*%
%TD*%
%TA.AperFunction,Conductor*%
%TO.N,Net-(J1-Pad22)*%
G36*
X79122174Y-48801924D02*
G01*
X79125585Y-48809580D01*
X79128546Y-48865654D01*
X79138950Y-48922053D01*
X79155861Y-48969317D01*
X79178925Y-49009073D01*
X79207792Y-49042945D01*
X79242108Y-49072558D01*
X79281521Y-49099539D01*
X79281700Y-49099644D01*
X79281709Y-49099650D01*
X79325626Y-49125479D01*
X79325643Y-49125488D01*
X79325681Y-49125511D01*
X79325722Y-49125533D01*
X79325730Y-49125538D01*
X79374229Y-49152099D01*
X79374233Y-49152101D01*
X79419615Y-49176979D01*
X79425223Y-49183961D01*
X79425548Y-49189059D01*
X79397249Y-49368710D01*
X79348134Y-49680507D01*
X79343462Y-49688146D01*
X79334756Y-49690243D01*
X79333031Y-49689836D01*
X78845030Y-49534311D01*
X78838188Y-49528533D01*
X78836983Y-49524690D01*
X78832209Y-49488431D01*
X78832110Y-49486740D01*
X78832718Y-49443483D01*
X78832729Y-49443128D01*
X78836018Y-49369056D01*
X78836038Y-49368710D01*
X78840889Y-49303288D01*
X78840913Y-49303013D01*
X78846799Y-49242911D01*
X78846813Y-49242772D01*
X78853251Y-49184233D01*
X78859684Y-49124145D01*
X78859694Y-49124038D01*
X78861929Y-49099414D01*
X78865604Y-49058906D01*
X78870476Y-48985212D01*
X78872914Y-48922053D01*
X78873779Y-48899649D01*
X78873782Y-48899559D01*
X78874861Y-48810056D01*
X78878387Y-48801825D01*
X78886560Y-48798497D01*
X79113901Y-48798497D01*
X79122174Y-48801924D01*
G37*
%TD.AperFunction*%
%TD*%
%TA.AperFunction,Conductor*%
%TO.N,Net-(J1-Pad23)*%
G36*
X78122174Y-48801427D02*
G01*
X78125585Y-48809083D01*
X78128550Y-48865239D01*
X78138967Y-48921707D01*
X78155898Y-48969031D01*
X78156166Y-48969493D01*
X78156167Y-48969495D01*
X78165068Y-48984837D01*
X78178991Y-49008837D01*
X78207894Y-49042752D01*
X78242253Y-49072401D01*
X78281718Y-49099411D01*
X78325935Y-49125409D01*
X78325972Y-49125430D01*
X78325982Y-49125435D01*
X78374553Y-49152021D01*
X78374556Y-49152023D01*
X78420005Y-49176922D01*
X78425615Y-49183902D01*
X78425942Y-49188998D01*
X78371918Y-49532634D01*
X78348677Y-49680469D01*
X78344007Y-49688110D01*
X78335302Y-49690210D01*
X78333570Y-49689801D01*
X77840267Y-49532634D01*
X77833425Y-49526857D01*
X77832120Y-49521323D01*
X77833202Y-49443449D01*
X77833212Y-49443099D01*
X77836464Y-49368932D01*
X77836484Y-49368590D01*
X77841278Y-49303155D01*
X77841301Y-49302883D01*
X77847129Y-49242652D01*
X77847143Y-49242515D01*
X77853500Y-49183998D01*
X77859696Y-49125409D01*
X77859864Y-49123817D01*
X77865711Y-49058582D01*
X77870528Y-48984837D01*
X77873796Y-48899128D01*
X77874200Y-48865239D01*
X77874862Y-48809561D01*
X77878387Y-48801329D01*
X77886561Y-48798000D01*
X78113901Y-48798000D01*
X78122174Y-48801427D01*
G37*
%TD.AperFunction*%
%TD*%
%TA.AperFunction,Conductor*%
%TO.N,Net-(J1-Pad24)*%
G36*
X77122174Y-48849842D02*
G01*
X77125585Y-48857498D01*
X77128523Y-48913123D01*
X77138859Y-48969136D01*
X77155656Y-49016073D01*
X77178564Y-49055551D01*
X77207231Y-49089190D01*
X77207568Y-49089481D01*
X77241057Y-49118393D01*
X77241066Y-49118400D01*
X77241307Y-49118608D01*
X77280441Y-49145424D01*
X77324281Y-49171255D01*
X77324372Y-49171305D01*
X77324393Y-49171317D01*
X77372468Y-49197717D01*
X77372476Y-49197721D01*
X77417470Y-49222475D01*
X77423065Y-49229464D01*
X77423383Y-49234565D01*
X77368718Y-49577817D01*
X77345135Y-49725896D01*
X77340450Y-49733527D01*
X77331741Y-49735610D01*
X77330023Y-49735202D01*
X77123353Y-49669223D01*
X76837031Y-49577816D01*
X76830193Y-49572036D01*
X76828891Y-49566496D01*
X76830052Y-49488995D01*
X76830064Y-49488616D01*
X76833560Y-49414820D01*
X76833583Y-49414451D01*
X76838736Y-49349322D01*
X76838763Y-49349028D01*
X76845037Y-49289018D01*
X76845054Y-49288871D01*
X76851880Y-49230710D01*
X76852821Y-49222474D01*
X76858723Y-49170810D01*
X76865012Y-49105873D01*
X76866169Y-49089481D01*
X76870185Y-49032546D01*
X76870186Y-49032528D01*
X76870191Y-49032457D01*
X76873705Y-48947118D01*
X76874851Y-48857964D01*
X76878384Y-48849736D01*
X76886550Y-48846415D01*
X77113901Y-48846415D01*
X77122174Y-48849842D01*
G37*
%TD.AperFunction*%
%TD*%
M02*
