M48
; DRILL file {KiCad (5.1.9)-1} date 05/03/21 00:03:27
; FORMAT={-:-/ absolute / inch / decimal}
; #@! TF.CreationDate,2021-05-03T00:03:27-07:00
; #@! TF.GenerationSoftware,Kicad,Pcbnew,(5.1.9)-1
; #@! TF.FileFunction,NonPlated,1,2,NPTH
FMAT,2
INCH
T1C0.0827
T2C0.1181
T3C0.1575
T4C0.1969
T5C0.2362
T6C0.3150
%
G90
G05
T1
X1.4551Y-2.2228
X1.4551Y-4.0181
X1.4551Y-5.5181
X3.8134Y-5.5181
X6.1795Y-5.5181
X7.711Y-1.0476
X8.5378Y-5.5181
X11.022Y-1.0476
X13.2701Y-1.0476
X13.2701Y-2.5024
X13.2701Y-4.0181
X13.2701Y-5.5181
T2
X2.0787Y-3.6626
X2.1106Y-4.4146
X2.7087Y-3.6626
X3.0555Y-4.4146
X5.0339Y-5.1646
X9.6795Y-5.1646
X11.2435Y-4.4146
X11.8734Y-4.4146
T3
X2.1165Y-2.522
X2.3039Y-3.274
X2.3937Y-4.0248
X2.5831Y-4.7768
X2.8646Y-2.522
X3.237Y-3.274
X3.4252Y-4.0248
X3.6126Y-2.522
X3.7976Y-4.7768
X3.985Y-3.274
X4.1732Y-4.0248
X4.3606Y-2.522
X4.5457Y-4.7768
X4.7331Y-3.274
X4.9213Y-4.0248
X5.1087Y-2.522
X5.2937Y-4.7768
X5.4811Y-3.274
X5.6693Y-4.0248
X5.8567Y-2.522
X6.0417Y-4.7768
X6.2291Y-3.274
X6.4173Y-4.0248
X6.6047Y-2.522
X6.7898Y-4.7768
X6.9772Y-3.274
X7.1654Y-4.0248
X7.3528Y-2.522
X7.3567Y-5.5268
X7.5378Y-4.7768
X7.7252Y-3.274
X7.9134Y-4.0248
X8.1008Y-2.522
X8.2858Y-4.7768
X8.3134Y-1.2839
X8.4732Y-3.274
X8.6614Y-4.0248
X8.8488Y-2.522
X9.0339Y-4.7768
X9.2213Y-3.274
X9.4094Y-4.0248
X9.4354Y-1.2839
X9.5969Y-2.522
X9.7819Y-4.7768
X9.9693Y-3.274
X10.1575Y-4.0248
X10.3449Y-2.522
X10.5299Y-4.7768
X10.5575Y-1.2839
X10.7173Y-3.274
X10.9055Y-4.0248
X11.0929Y-2.522
X11.4654Y-3.274
X11.5585Y-4.7768
X11.6535Y-4.0248
X11.6795Y-1.2839
X11.8409Y-2.522
X12.4024Y-3.274
X12.4961Y-4.0248
X12.589Y-2.522
X12.589Y-4.7768
X12.8016Y-1.2839
T4
X7.9197Y-1.4441
X9.0417Y-1.4441
X10.1638Y-1.4441
X11.2858Y-1.4441
X12.4079Y-1.4441
T5
X1.4551Y-4.7701
X1.9016Y-4.0839
X1.9335Y-4.8358
X2.8858Y-4.0839
X3.2327Y-4.8358
X7.3567Y-1.8961
X11.0663Y-4.8358
X12.0506Y-4.8358
X13.2701Y-4.7701
T6
X4.8567Y-5.5858
X9.8567Y-5.5858
T0
M30
