G04 #@! TF.GenerationSoftware,KiCad,Pcbnew,(5.1.10)-1*
G04 #@! TF.CreationDate,2021-09-21T22:04:07-07:00*
G04 #@! TF.ProjectId,Atari130MX-adapter,41746172-6931-4333-904d-582d61646170,rev?*
G04 #@! TF.SameCoordinates,Original*
G04 #@! TF.FileFunction,Legend,Top*
G04 #@! TF.FilePolarity,Positive*
%FSLAX46Y46*%
G04 Gerber Fmt 4.6, Leading zero omitted, Abs format (unit mm)*
G04 Created by KiCad (PCBNEW (5.1.10)-1) date 2021-09-21 22:04:07*
%MOMM*%
%LPD*%
G01*
G04 APERTURE LIST*
%ADD10C,0.150000*%
%ADD11C,0.120000*%
%ADD12R,0.400000X1.000000*%
%ADD13R,2.000000X1.300000*%
%ADD14O,1.524000X2.540000*%
%ADD15C,1.700000*%
G04 APERTURE END LIST*
D10*
X18787976Y-35361904D02*
X18787976Y-34561904D01*
X19130833Y-35361904D02*
X19130833Y-34942857D01*
X19092738Y-34866666D01*
X19016547Y-34828571D01*
X18902261Y-34828571D01*
X18826071Y-34866666D01*
X18787976Y-34904761D01*
X19397500Y-34828571D02*
X19702261Y-34828571D01*
X19511785Y-34561904D02*
X19511785Y-35247619D01*
X19549880Y-35323809D01*
X19626071Y-35361904D01*
X19702261Y-35361904D01*
X19854642Y-34828571D02*
X20159404Y-34828571D01*
X19968928Y-34561904D02*
X19968928Y-35247619D01*
X20007023Y-35323809D01*
X20083214Y-35361904D01*
X20159404Y-35361904D01*
X20426071Y-34828571D02*
X20426071Y-35628571D01*
X20426071Y-34866666D02*
X20502261Y-34828571D01*
X20654642Y-34828571D01*
X20730833Y-34866666D01*
X20768928Y-34904761D01*
X20807023Y-34980952D01*
X20807023Y-35209523D01*
X20768928Y-35285714D01*
X20730833Y-35323809D01*
X20654642Y-35361904D01*
X20502261Y-35361904D01*
X20426071Y-35323809D01*
X21111785Y-35323809D02*
X21187976Y-35361904D01*
X21340357Y-35361904D01*
X21416547Y-35323809D01*
X21454642Y-35247619D01*
X21454642Y-35209523D01*
X21416547Y-35133333D01*
X21340357Y-35095238D01*
X21226071Y-35095238D01*
X21149880Y-35057142D01*
X21111785Y-34980952D01*
X21111785Y-34942857D01*
X21149880Y-34866666D01*
X21226071Y-34828571D01*
X21340357Y-34828571D01*
X21416547Y-34866666D01*
X21797500Y-35285714D02*
X21835595Y-35323809D01*
X21797500Y-35361904D01*
X21759404Y-35323809D01*
X21797500Y-35285714D01*
X21797500Y-35361904D01*
X21797500Y-34866666D02*
X21835595Y-34904761D01*
X21797500Y-34942857D01*
X21759404Y-34904761D01*
X21797500Y-34866666D01*
X21797500Y-34942857D01*
X22749880Y-34523809D02*
X22064166Y-35552380D01*
X23587976Y-34523809D02*
X22902261Y-35552380D01*
X24197500Y-34828571D02*
X24197500Y-35476190D01*
X24159404Y-35552380D01*
X24121309Y-35590476D01*
X24045119Y-35628571D01*
X23930833Y-35628571D01*
X23854642Y-35590476D01*
X24197500Y-35323809D02*
X24121309Y-35361904D01*
X23968928Y-35361904D01*
X23892738Y-35323809D01*
X23854642Y-35285714D01*
X23816547Y-35209523D01*
X23816547Y-34980952D01*
X23854642Y-34904761D01*
X23892738Y-34866666D01*
X23968928Y-34828571D01*
X24121309Y-34828571D01*
X24197500Y-34866666D01*
X24578452Y-35361904D02*
X24578452Y-34828571D01*
X24578452Y-34561904D02*
X24540357Y-34600000D01*
X24578452Y-34638095D01*
X24616547Y-34600000D01*
X24578452Y-34561904D01*
X24578452Y-34638095D01*
X24845119Y-34828571D02*
X25149880Y-34828571D01*
X24959404Y-34561904D02*
X24959404Y-35247619D01*
X24997500Y-35323809D01*
X25073690Y-35361904D01*
X25149880Y-35361904D01*
X25416547Y-35361904D02*
X25416547Y-34561904D01*
X25759404Y-35361904D02*
X25759404Y-34942857D01*
X25721309Y-34866666D01*
X25645119Y-34828571D01*
X25530833Y-34828571D01*
X25454642Y-34866666D01*
X25416547Y-34904761D01*
X26483214Y-34828571D02*
X26483214Y-35361904D01*
X26140357Y-34828571D02*
X26140357Y-35247619D01*
X26178452Y-35323809D01*
X26254642Y-35361904D01*
X26368928Y-35361904D01*
X26445119Y-35323809D01*
X26483214Y-35285714D01*
X26864166Y-35361904D02*
X26864166Y-34561904D01*
X26864166Y-34866666D02*
X26940357Y-34828571D01*
X27092738Y-34828571D01*
X27168928Y-34866666D01*
X27207023Y-34904761D01*
X27245119Y-34980952D01*
X27245119Y-35209523D01*
X27207023Y-35285714D01*
X27168928Y-35323809D01*
X27092738Y-35361904D01*
X26940357Y-35361904D01*
X26864166Y-35323809D01*
X27587976Y-35285714D02*
X27626071Y-35323809D01*
X27587976Y-35361904D01*
X27549880Y-35323809D01*
X27587976Y-35285714D01*
X27587976Y-35361904D01*
X28311785Y-35323809D02*
X28235595Y-35361904D01*
X28083214Y-35361904D01*
X28007023Y-35323809D01*
X27968928Y-35285714D01*
X27930833Y-35209523D01*
X27930833Y-34980952D01*
X27968928Y-34904761D01*
X28007023Y-34866666D01*
X28083214Y-34828571D01*
X28235595Y-34828571D01*
X28311785Y-34866666D01*
X28768928Y-35361904D02*
X28692738Y-35323809D01*
X28654642Y-35285714D01*
X28616547Y-35209523D01*
X28616547Y-34980952D01*
X28654642Y-34904761D01*
X28692738Y-34866666D01*
X28768928Y-34828571D01*
X28883214Y-34828571D01*
X28959404Y-34866666D01*
X28997500Y-34904761D01*
X29035595Y-34980952D01*
X29035595Y-35209523D01*
X28997500Y-35285714D01*
X28959404Y-35323809D01*
X28883214Y-35361904D01*
X28768928Y-35361904D01*
X29378452Y-35361904D02*
X29378452Y-34828571D01*
X29378452Y-34904761D02*
X29416547Y-34866666D01*
X29492738Y-34828571D01*
X29607023Y-34828571D01*
X29683214Y-34866666D01*
X29721309Y-34942857D01*
X29721309Y-35361904D01*
X29721309Y-34942857D02*
X29759404Y-34866666D01*
X29835595Y-34828571D01*
X29949880Y-34828571D01*
X30026071Y-34866666D01*
X30064166Y-34942857D01*
X30064166Y-35361904D01*
X31016547Y-34523809D02*
X30330833Y-35552380D01*
X31283214Y-35361904D02*
X31283214Y-34561904D01*
X31283214Y-34866666D02*
X31359404Y-34828571D01*
X31511785Y-34828571D01*
X31587976Y-34866666D01*
X31626071Y-34904761D01*
X31664166Y-34980952D01*
X31664166Y-35209523D01*
X31626071Y-35285714D01*
X31587976Y-35323809D01*
X31511785Y-35361904D01*
X31359404Y-35361904D01*
X31283214Y-35323809D01*
X32121309Y-35361904D02*
X32045119Y-35323809D01*
X32007023Y-35247619D01*
X32007023Y-34561904D01*
X32730833Y-35323809D02*
X32654642Y-35361904D01*
X32502261Y-35361904D01*
X32426071Y-35323809D01*
X32387976Y-35247619D01*
X32387976Y-34942857D01*
X32426071Y-34866666D01*
X32502261Y-34828571D01*
X32654642Y-34828571D01*
X32730833Y-34866666D01*
X32768928Y-34942857D01*
X32768928Y-35019047D01*
X32387976Y-35095238D01*
X33111785Y-35361904D02*
X33111785Y-34828571D01*
X33111785Y-34980952D02*
X33149880Y-34904761D01*
X33187976Y-34866666D01*
X33264166Y-34828571D01*
X33340357Y-34828571D01*
X33721309Y-35361904D02*
X33645119Y-35323809D01*
X33607023Y-35285714D01*
X33568928Y-35209523D01*
X33568928Y-34980952D01*
X33607023Y-34904761D01*
X33645119Y-34866666D01*
X33721309Y-34828571D01*
X33835595Y-34828571D01*
X33911785Y-34866666D01*
X33949880Y-34904761D01*
X33987976Y-34980952D01*
X33987976Y-35209523D01*
X33949880Y-35285714D01*
X33911785Y-35323809D01*
X33835595Y-35361904D01*
X33721309Y-35361904D01*
X34254642Y-34828571D02*
X34445119Y-35361904D01*
X34635595Y-34828571D02*
X34445119Y-35361904D01*
X34368928Y-35552380D01*
X34330833Y-35590476D01*
X34254642Y-35628571D01*
X35511785Y-34523809D02*
X34826071Y-35552380D01*
X35702261Y-34561904D02*
X36197500Y-34561904D01*
X35930833Y-34866666D01*
X36045119Y-34866666D01*
X36121309Y-34904761D01*
X36159404Y-34942857D01*
X36197500Y-35019047D01*
X36197500Y-35209523D01*
X36159404Y-35285714D01*
X36121309Y-35323809D01*
X36045119Y-35361904D01*
X35816547Y-35361904D01*
X35740357Y-35323809D01*
X35702261Y-35285714D01*
X36883214Y-35361904D02*
X36883214Y-34561904D01*
X36883214Y-35323809D02*
X36807023Y-35361904D01*
X36654642Y-35361904D01*
X36578452Y-35323809D01*
X36540357Y-35285714D01*
X36502261Y-35209523D01*
X36502261Y-34980952D01*
X36540357Y-34904761D01*
X36578452Y-34866666D01*
X36654642Y-34828571D01*
X36807023Y-34828571D01*
X36883214Y-34866666D01*
X37264166Y-35057142D02*
X37873690Y-35057142D01*
X38254642Y-34828571D02*
X38254642Y-35514285D01*
X38216547Y-35590476D01*
X38140357Y-35628571D01*
X38102261Y-35628571D01*
X38254642Y-34561904D02*
X38216547Y-34600000D01*
X38254642Y-34638095D01*
X38292738Y-34600000D01*
X38254642Y-34561904D01*
X38254642Y-34638095D01*
X38978452Y-34828571D02*
X38978452Y-35361904D01*
X38635595Y-34828571D02*
X38635595Y-35247619D01*
X38673690Y-35323809D01*
X38749880Y-35361904D01*
X38864166Y-35361904D01*
X38940357Y-35323809D01*
X38978452Y-35285714D01*
X39359404Y-34828571D02*
X39359404Y-35361904D01*
X39359404Y-34904761D02*
X39397500Y-34866666D01*
X39473690Y-34828571D01*
X39587976Y-34828571D01*
X39664166Y-34866666D01*
X39702261Y-34942857D01*
X39702261Y-35361904D01*
X40083214Y-35361904D02*
X40083214Y-34561904D01*
X40159404Y-35057142D02*
X40387976Y-35361904D01*
X40387976Y-34828571D02*
X40083214Y-35133333D01*
X40654642Y-34828571D02*
X40845119Y-35361904D01*
X41035595Y-34828571D02*
X40845119Y-35361904D01*
X40768928Y-35552380D01*
X40730833Y-35590476D01*
X40654642Y-35628571D01*
X41683214Y-35361904D02*
X41683214Y-34942857D01*
X41645119Y-34866666D01*
X41568928Y-34828571D01*
X41416547Y-34828571D01*
X41340357Y-34866666D01*
X41683214Y-35323809D02*
X41607023Y-35361904D01*
X41416547Y-35361904D01*
X41340357Y-35323809D01*
X41302261Y-35247619D01*
X41302261Y-35171428D01*
X41340357Y-35095238D01*
X41416547Y-35057142D01*
X41607023Y-35057142D01*
X41683214Y-35019047D01*
X42064166Y-35361904D02*
X42064166Y-34828571D01*
X42064166Y-34980952D02*
X42102261Y-34904761D01*
X42140357Y-34866666D01*
X42216547Y-34828571D01*
X42292738Y-34828571D01*
X42902261Y-35361904D02*
X42902261Y-34561904D01*
X42902261Y-35323809D02*
X42826071Y-35361904D01*
X42673690Y-35361904D01*
X42597500Y-35323809D01*
X42559404Y-35285714D01*
X42521309Y-35209523D01*
X42521309Y-34980952D01*
X42559404Y-34904761D01*
X42597500Y-34866666D01*
X42673690Y-34828571D01*
X42826071Y-34828571D01*
X42902261Y-34866666D01*
X19207023Y-26361904D02*
X18749880Y-26361904D01*
X18978452Y-26361904D02*
X18978452Y-25561904D01*
X18902261Y-25676190D01*
X18826071Y-25752380D01*
X18749880Y-25790476D01*
X19473690Y-25561904D02*
X19968928Y-25561904D01*
X19702261Y-25866666D01*
X19816547Y-25866666D01*
X19892738Y-25904761D01*
X19930833Y-25942857D01*
X19968928Y-26019047D01*
X19968928Y-26209523D01*
X19930833Y-26285714D01*
X19892738Y-26323809D01*
X19816547Y-26361904D01*
X19587976Y-26361904D01*
X19511785Y-26323809D01*
X19473690Y-26285714D01*
X20464166Y-25561904D02*
X20540357Y-25561904D01*
X20616547Y-25600000D01*
X20654642Y-25638095D01*
X20692738Y-25714285D01*
X20730833Y-25866666D01*
X20730833Y-26057142D01*
X20692738Y-26209523D01*
X20654642Y-26285714D01*
X20616547Y-26323809D01*
X20540357Y-26361904D01*
X20464166Y-26361904D01*
X20387976Y-26323809D01*
X20349880Y-26285714D01*
X20311785Y-26209523D01*
X20273690Y-26057142D01*
X20273690Y-25866666D01*
X20311785Y-25714285D01*
X20349880Y-25638095D01*
X20387976Y-25600000D01*
X20464166Y-25561904D01*
X21073690Y-26361904D02*
X21073690Y-25561904D01*
X21340357Y-26133333D01*
X21607023Y-25561904D01*
X21607023Y-26361904D01*
X21911785Y-25561904D02*
X22445119Y-26361904D01*
X22445119Y-25561904D02*
X21911785Y-26361904D01*
X23359404Y-26361904D02*
X23359404Y-25561904D01*
X23816547Y-26361904D02*
X23473690Y-25904761D01*
X23816547Y-25561904D02*
X23359404Y-26019047D01*
X24464166Y-26323809D02*
X24387976Y-26361904D01*
X24235595Y-26361904D01*
X24159404Y-26323809D01*
X24121309Y-26247619D01*
X24121309Y-25942857D01*
X24159404Y-25866666D01*
X24235595Y-25828571D01*
X24387976Y-25828571D01*
X24464166Y-25866666D01*
X24502261Y-25942857D01*
X24502261Y-26019047D01*
X24121309Y-26095238D01*
X24768928Y-25828571D02*
X24959404Y-26361904D01*
X25149880Y-25828571D02*
X24959404Y-26361904D01*
X24883214Y-26552380D01*
X24845119Y-26590476D01*
X24768928Y-26628571D01*
X25454642Y-26361904D02*
X25454642Y-25561904D01*
X25454642Y-25866666D02*
X25530833Y-25828571D01*
X25683214Y-25828571D01*
X25759404Y-25866666D01*
X25797500Y-25904761D01*
X25835595Y-25980952D01*
X25835595Y-26209523D01*
X25797500Y-26285714D01*
X25759404Y-26323809D01*
X25683214Y-26361904D01*
X25530833Y-26361904D01*
X25454642Y-26323809D01*
X26292738Y-26361904D02*
X26216547Y-26323809D01*
X26178452Y-26285714D01*
X26140357Y-26209523D01*
X26140357Y-25980952D01*
X26178452Y-25904761D01*
X26216547Y-25866666D01*
X26292738Y-25828571D01*
X26407023Y-25828571D01*
X26483214Y-25866666D01*
X26521309Y-25904761D01*
X26559404Y-25980952D01*
X26559404Y-26209523D01*
X26521309Y-26285714D01*
X26483214Y-26323809D01*
X26407023Y-26361904D01*
X26292738Y-26361904D01*
X27245119Y-26361904D02*
X27245119Y-25942857D01*
X27207023Y-25866666D01*
X27130833Y-25828571D01*
X26978452Y-25828571D01*
X26902261Y-25866666D01*
X27245119Y-26323809D02*
X27168928Y-26361904D01*
X26978452Y-26361904D01*
X26902261Y-26323809D01*
X26864166Y-26247619D01*
X26864166Y-26171428D01*
X26902261Y-26095238D01*
X26978452Y-26057142D01*
X27168928Y-26057142D01*
X27245119Y-26019047D01*
X27626071Y-26361904D02*
X27626071Y-25828571D01*
X27626071Y-25980952D02*
X27664166Y-25904761D01*
X27702261Y-25866666D01*
X27778452Y-25828571D01*
X27854642Y-25828571D01*
X28464166Y-26361904D02*
X28464166Y-25561904D01*
X28464166Y-26323809D02*
X28387976Y-26361904D01*
X28235595Y-26361904D01*
X28159404Y-26323809D01*
X28121309Y-26285714D01*
X28083214Y-26209523D01*
X28083214Y-25980952D01*
X28121309Y-25904761D01*
X28159404Y-25866666D01*
X28235595Y-25828571D01*
X28387976Y-25828571D01*
X28464166Y-25866666D01*
X29416547Y-26133333D02*
X29797500Y-26133333D01*
X29340357Y-26361904D02*
X29607023Y-25561904D01*
X29873690Y-26361904D01*
X30483214Y-26361904D02*
X30483214Y-25561904D01*
X30483214Y-26323809D02*
X30407023Y-26361904D01*
X30254642Y-26361904D01*
X30178452Y-26323809D01*
X30140357Y-26285714D01*
X30102261Y-26209523D01*
X30102261Y-25980952D01*
X30140357Y-25904761D01*
X30178452Y-25866666D01*
X30254642Y-25828571D01*
X30407023Y-25828571D01*
X30483214Y-25866666D01*
X31207023Y-26361904D02*
X31207023Y-25942857D01*
X31168928Y-25866666D01*
X31092738Y-25828571D01*
X30940357Y-25828571D01*
X30864166Y-25866666D01*
X31207023Y-26323809D02*
X31130833Y-26361904D01*
X30940357Y-26361904D01*
X30864166Y-26323809D01*
X30826071Y-26247619D01*
X30826071Y-26171428D01*
X30864166Y-26095238D01*
X30940357Y-26057142D01*
X31130833Y-26057142D01*
X31207023Y-26019047D01*
X31587976Y-25828571D02*
X31587976Y-26628571D01*
X31587976Y-25866666D02*
X31664166Y-25828571D01*
X31816547Y-25828571D01*
X31892738Y-25866666D01*
X31930833Y-25904761D01*
X31968928Y-25980952D01*
X31968928Y-26209523D01*
X31930833Y-26285714D01*
X31892738Y-26323809D01*
X31816547Y-26361904D01*
X31664166Y-26361904D01*
X31587976Y-26323809D01*
X32197500Y-25828571D02*
X32502261Y-25828571D01*
X32311785Y-25561904D02*
X32311785Y-26247619D01*
X32349880Y-26323809D01*
X32426071Y-26361904D01*
X32502261Y-26361904D01*
X33073690Y-26323809D02*
X32997500Y-26361904D01*
X32845119Y-26361904D01*
X32768928Y-26323809D01*
X32730833Y-26247619D01*
X32730833Y-25942857D01*
X32768928Y-25866666D01*
X32845119Y-25828571D01*
X32997500Y-25828571D01*
X33073690Y-25866666D01*
X33111785Y-25942857D01*
X33111785Y-26019047D01*
X32730833Y-26095238D01*
X33454642Y-26361904D02*
X33454642Y-25828571D01*
X33454642Y-25980952D02*
X33492738Y-25904761D01*
X33530833Y-25866666D01*
X33607023Y-25828571D01*
X33683214Y-25828571D01*
D11*
X25781000Y-36322000D02*
X25400000Y-37084000D01*
X25019000Y-36322000D02*
X25781000Y-36322000D01*
X25400000Y-37084000D02*
X25019000Y-36322000D01*
X48003000Y-35028000D02*
X47495000Y-34012000D01*
X46987000Y-35028000D02*
X48003000Y-35028000D01*
X47495000Y-34012000D02*
X46987000Y-35028000D01*
X20060000Y-32820000D02*
X22040000Y-32820000D01*
X20060000Y-33170000D02*
X20060000Y-32820000D01*
X19290000Y-33170000D02*
X20060000Y-33170000D01*
X19290000Y-31120000D02*
X19290000Y-33170000D01*
X19290000Y-29000000D02*
X19290000Y-29300000D01*
X20090000Y-29000000D02*
X19290000Y-29000000D01*
X20090000Y-27700000D02*
X20090000Y-29000000D01*
X49910000Y-27700000D02*
X20090000Y-27700000D01*
X49910000Y-29000000D02*
X49910000Y-27700000D01*
X50710000Y-29000000D02*
X49910000Y-29000000D01*
X50710000Y-29300000D02*
X50710000Y-29000000D01*
X50710000Y-33170000D02*
X50710000Y-31120000D01*
X49940000Y-33170000D02*
X50710000Y-33170000D01*
X49940000Y-32820000D02*
X49940000Y-33170000D01*
X47960000Y-32820000D02*
X49940000Y-32820000D01*
X47960000Y-33410000D02*
X47960000Y-32820000D01*
X24330000Y-40513000D02*
X23060000Y-39243000D01*
X86160000Y-37338000D02*
X86160000Y-40513000D01*
X23060000Y-37338000D02*
X23060000Y-39243000D01*
X23060000Y-37338000D02*
X86160000Y-37338000D01*
X24330000Y-40513000D02*
X86160000Y-40513000D01*
X58000000Y-36680000D02*
X57500000Y-35680000D01*
X57000000Y-36680000D02*
X58000000Y-36680000D01*
X57500000Y-35680000D02*
X57000000Y-36680000D01*
X73520000Y-33980000D02*
X73520000Y-35290000D01*
X73520000Y-33980000D02*
X73520000Y-33980000D01*
X89350000Y-33980000D02*
X73520000Y-33980000D01*
X89350000Y-27480000D02*
X89350000Y-33980000D01*
X53590000Y-27480000D02*
X89350000Y-27480000D01*
X53590000Y-33980000D02*
X53590000Y-27480000D01*
X69420000Y-33980000D02*
X53590000Y-33980000D01*
X69420000Y-35290000D02*
X69420000Y-33980000D01*
X90650000Y-35290000D02*
X52290000Y-35290000D01*
X90650000Y-26170000D02*
X90650000Y-35290000D01*
X52290000Y-26170000D02*
X90650000Y-26170000D01*
X52290000Y-35290000D02*
X52290000Y-26170000D01*
D10*
X48666666Y-25952380D02*
X48666666Y-26666666D01*
X48619047Y-26809523D01*
X48523809Y-26904761D01*
X48380952Y-26952380D01*
X48285714Y-26952380D01*
X49095238Y-26047619D02*
X49142857Y-26000000D01*
X49238095Y-25952380D01*
X49476190Y-25952380D01*
X49571428Y-26000000D01*
X49619047Y-26047619D01*
X49666666Y-26142857D01*
X49666666Y-26238095D01*
X49619047Y-26380952D01*
X49047619Y-26952380D01*
X49666666Y-26952380D01*
X23328380Y-38941333D02*
X24042666Y-38941333D01*
X24185523Y-38988952D01*
X24280761Y-39084190D01*
X24328380Y-39227047D01*
X24328380Y-39322285D01*
X23328380Y-38274666D02*
X23328380Y-38179428D01*
X23376000Y-38084190D01*
X23423619Y-38036571D01*
X23518857Y-37988952D01*
X23709333Y-37941333D01*
X23947428Y-37941333D01*
X24137904Y-37988952D01*
X24233142Y-38036571D01*
X24280761Y-38084190D01*
X24328380Y-38179428D01*
X24328380Y-38274666D01*
X24280761Y-38369904D01*
X24233142Y-38417523D01*
X24137904Y-38465142D01*
X23947428Y-38512761D01*
X23709333Y-38512761D01*
X23518857Y-38465142D01*
X23423619Y-38417523D01*
X23376000Y-38369904D01*
X23328380Y-38274666D01*
X71136666Y-35516380D02*
X71136666Y-36230666D01*
X71089047Y-36373523D01*
X70993809Y-36468761D01*
X70850952Y-36516380D01*
X70755714Y-36516380D01*
X71517619Y-35516380D02*
X72136666Y-35516380D01*
X71803333Y-35897333D01*
X71946190Y-35897333D01*
X72041428Y-35944952D01*
X72089047Y-35992571D01*
X72136666Y-36087809D01*
X72136666Y-36325904D01*
X72089047Y-36421142D01*
X72041428Y-36468761D01*
X71946190Y-36516380D01*
X71660476Y-36516380D01*
X71565238Y-36468761D01*
X71517619Y-36421142D01*
%LPC*%
D12*
X22500000Y-32910000D03*
X23500000Y-32910000D03*
X24500000Y-32910000D03*
X25500000Y-32910000D03*
X26500000Y-32910000D03*
X27500000Y-32910000D03*
X28500000Y-32910000D03*
X29500000Y-32910000D03*
X30500000Y-32910000D03*
X31500000Y-32910000D03*
X32500000Y-32910000D03*
X33500000Y-32910000D03*
X34500000Y-32910000D03*
X35500000Y-32910000D03*
X36500000Y-32910000D03*
X37500000Y-32910000D03*
X38500000Y-32910000D03*
X39500000Y-32910000D03*
X40500000Y-32910000D03*
X41500000Y-32910000D03*
X42500000Y-32910000D03*
X43500000Y-32910000D03*
X44500000Y-32910000D03*
X45500000Y-32910000D03*
X46500000Y-32910000D03*
X47500000Y-32910000D03*
D13*
X19700000Y-30210000D03*
X50300000Y-30210000D03*
D14*
X25400000Y-39116000D03*
X27940000Y-39116000D03*
X30480000Y-39116000D03*
X33020000Y-39116000D03*
X35560000Y-39116000D03*
X38100000Y-39116000D03*
X40640000Y-39116000D03*
X43180000Y-39116000D03*
X45720000Y-39116000D03*
X48260000Y-39116000D03*
X50800000Y-39116000D03*
X53340000Y-39116000D03*
X55880000Y-39116000D03*
X58420000Y-39116000D03*
X60960000Y-39116000D03*
X63500000Y-39116000D03*
X66040000Y-39116000D03*
X68580000Y-39116000D03*
X71120000Y-39116000D03*
X73660000Y-39116000D03*
X76200000Y-39116000D03*
X78740000Y-39116000D03*
X81280000Y-39116000D03*
X83820000Y-39116000D03*
D15*
X85440000Y-29460000D03*
X82900000Y-29460000D03*
X80360000Y-29460000D03*
X77820000Y-29460000D03*
X75280000Y-29460000D03*
X72740000Y-29460000D03*
X70200000Y-29460000D03*
X67660000Y-29460000D03*
X65120000Y-29460000D03*
X62580000Y-29460000D03*
X60040000Y-29460000D03*
X57500000Y-29460000D03*
X85440000Y-32000000D03*
X82900000Y-32000000D03*
X80360000Y-32000000D03*
X77820000Y-32000000D03*
X75280000Y-32000000D03*
X72740000Y-32000000D03*
X70200000Y-32000000D03*
X67660000Y-32000000D03*
X65120000Y-32000000D03*
X62580000Y-32000000D03*
X60040000Y-32000000D03*
G36*
G01*
X58100000Y-32850000D02*
X56900000Y-32850000D01*
G75*
G02*
X56650000Y-32600000I0J250000D01*
G01*
X56650000Y-31400000D01*
G75*
G02*
X56900000Y-31150000I250000J0D01*
G01*
X58100000Y-31150000D01*
G75*
G02*
X58350000Y-31400000I0J-250000D01*
G01*
X58350000Y-32600000D01*
G75*
G02*
X58100000Y-32850000I-250000J0D01*
G01*
G37*
M02*
