G04 #@! TF.GenerationSoftware,KiCad,Pcbnew,(5.1.10)-1*
G04 #@! TF.CreationDate,2021-07-11T17:05:33-07:00*
G04 #@! TF.ProjectId,Atari130MX,41746172-6931-4333-904d-582e6b696361,B*
G04 #@! TF.SameCoordinates,Original*
G04 #@! TF.FileFunction,Copper,L1,Top*
G04 #@! TF.FilePolarity,Positive*
%FSLAX46Y46*%
G04 Gerber Fmt 4.6, Leading zero omitted, Abs format (unit mm)*
G04 Created by KiCad (PCBNEW (5.1.10)-1) date 2021-07-11 17:05:33*
%MOMM*%
%LPD*%
G01*
G04 APERTURE LIST*
G04 #@! TA.AperFunction,ComponentPad*
%ADD10C,2.200000*%
G04 #@! TD*
G04 #@! TA.AperFunction,ComponentPad*
%ADD11R,1.700000X1.700000*%
G04 #@! TD*
G04 #@! TA.AperFunction,ComponentPad*
%ADD12O,1.700000X1.700000*%
G04 #@! TD*
G04 #@! TA.AperFunction,ComponentPad*
%ADD13C,1.800000*%
G04 #@! TD*
G04 #@! TA.AperFunction,ComponentPad*
%ADD14R,1.800000X1.800000*%
G04 #@! TD*
G04 #@! TA.AperFunction,Conductor*
%ADD15C,0.250000*%
G04 #@! TD*
G04 APERTURE END LIST*
D10*
X289775000Y-118790000D03*
X296125000Y-116250000D03*
X56990000Y-99690000D03*
X63340000Y-97150000D03*
X61800000Y-118790000D03*
X68150000Y-116250000D03*
X242200000Y-27530000D03*
X235850000Y-30070000D03*
X270700000Y-27530000D03*
X264350000Y-30070000D03*
X327700000Y-27530000D03*
X321350000Y-30070000D03*
X299200000Y-27530000D03*
X292850000Y-30070000D03*
X213700000Y-27530000D03*
X207350000Y-30070000D03*
X183050000Y-137840000D03*
X189400000Y-135300000D03*
D11*
X277250000Y-48450000D03*
D12*
X279790000Y-48450000D03*
X282330000Y-48450000D03*
X284870000Y-48450000D03*
X287410000Y-48450000D03*
X289950000Y-48450000D03*
X292490000Y-48450000D03*
X295030000Y-48450000D03*
X297570000Y-48450000D03*
X300110000Y-48450000D03*
X302650000Y-48450000D03*
X305190000Y-48450000D03*
X307730000Y-48450000D03*
X310270000Y-48450000D03*
X312810000Y-48450000D03*
X315350000Y-48450000D03*
X317890000Y-48450000D03*
X320430000Y-48450000D03*
X322970000Y-48450000D03*
X325510000Y-48450000D03*
X328050000Y-48450000D03*
X330590000Y-48450000D03*
X333130000Y-48450000D03*
X335670000Y-48450000D03*
D13*
X31900000Y-143200000D03*
D14*
X29360000Y-143200000D03*
D10*
X92650000Y-118790000D03*
X99000000Y-116250000D03*
X173410000Y-80620000D03*
X179760000Y-78080000D03*
X111650000Y-118790000D03*
X118000000Y-116250000D03*
X97410000Y-80620000D03*
X103760000Y-78080000D03*
X149650000Y-118790000D03*
X156000000Y-116250000D03*
X192410000Y-80620000D03*
X198760000Y-78080000D03*
X54710000Y-80620000D03*
X61060000Y-78080000D03*
X154410000Y-80620000D03*
X160760000Y-78080000D03*
X292190000Y-99690000D03*
X298540000Y-97150000D03*
X263650000Y-118790000D03*
X270000000Y-116250000D03*
X254190000Y-99690000D03*
X260540000Y-97150000D03*
X102190000Y-99690000D03*
X108540000Y-97150000D03*
X311210000Y-80620000D03*
X317560000Y-78080000D03*
X135410000Y-80620000D03*
X141760000Y-78080000D03*
X78410000Y-80620000D03*
X84760000Y-78080000D03*
X273190000Y-99690000D03*
X279540000Y-97150000D03*
X244650000Y-118790000D03*
X251000000Y-116250000D03*
X249410000Y-80620000D03*
X255760000Y-78080000D03*
X230410000Y-80620000D03*
X236760000Y-78080000D03*
X187650000Y-118790000D03*
X194000000Y-116250000D03*
X206650000Y-118790000D03*
X213000000Y-116250000D03*
X258950000Y-61520000D03*
X265300000Y-58980000D03*
X235190000Y-99690000D03*
X241540000Y-97150000D03*
X216190000Y-99690000D03*
X222540000Y-97150000D03*
X197190000Y-99690000D03*
X203540000Y-97150000D03*
X315950000Y-118790000D03*
X322300000Y-116250000D03*
X211410000Y-80620000D03*
X217760000Y-78080000D03*
X178190000Y-99690000D03*
X184540000Y-97150000D03*
X277950000Y-61520000D03*
X284300000Y-58980000D03*
X159190000Y-99690000D03*
X165540000Y-97150000D03*
X140190000Y-99690000D03*
X146540000Y-97150000D03*
X49950000Y-61520000D03*
X56300000Y-58980000D03*
X287410000Y-80620000D03*
X293760000Y-78080000D03*
X116410000Y-80620000D03*
X122760000Y-78080000D03*
X296950000Y-61520000D03*
X303300000Y-58980000D03*
X268410000Y-80620000D03*
X274760000Y-78080000D03*
X121190000Y-99690000D03*
X127540000Y-97150000D03*
X313590000Y-99690000D03*
X319940000Y-97150000D03*
X225650000Y-118790000D03*
X232000000Y-116250000D03*
X130650000Y-118790000D03*
X137000000Y-116250000D03*
X315950000Y-61520000D03*
X322300000Y-58980000D03*
X168650000Y-118790000D03*
X175000000Y-116250000D03*
X83190000Y-99690000D03*
X89540000Y-97150000D03*
X220950000Y-61520000D03*
X227300000Y-58980000D03*
X201950000Y-61520000D03*
X208300000Y-58980000D03*
X182950000Y-61520000D03*
X189300000Y-58980000D03*
X163950000Y-61520000D03*
X170300000Y-58980000D03*
X144950000Y-61520000D03*
X151300000Y-58980000D03*
X125950000Y-61520000D03*
X132300000Y-58980000D03*
X106950000Y-61520000D03*
X113300000Y-58980000D03*
X87950000Y-61520000D03*
X94300000Y-58980000D03*
X68950000Y-61520000D03*
X75300000Y-58980000D03*
X239950000Y-61520000D03*
X246300000Y-58980000D03*
D15*
X279790000Y-48450000D02*
X278614700Y-48450000D01*
X31900000Y-143200000D02*
X31900000Y-101412800D01*
X31900000Y-101412800D02*
X66927400Y-66385400D01*
X66927400Y-66385400D02*
X130777100Y-66385400D01*
X130777100Y-66385400D02*
X147537200Y-49625300D01*
X278247500Y-49625300D02*
X278614700Y-49258100D01*
X278614700Y-49258100D02*
X278614700Y-48450000D01*
X147537200Y-49625300D02*
X278247500Y-49625300D01*
X321350000Y-30070000D02*
X292850000Y-30070000D01*
X328050000Y-48450000D02*
X326874700Y-48450000D01*
X326874700Y-48450000D02*
X326874700Y-48082700D01*
X326874700Y-48082700D02*
X314371400Y-35579400D01*
X314371400Y-35579400D02*
X250249400Y-35579400D01*
X250249400Y-35579400D02*
X242200000Y-27530000D01*
X296125000Y-116250000D02*
X293291200Y-113416200D01*
X293291200Y-113416200D02*
X70983800Y-113416200D01*
X70983800Y-113416200D02*
X68150000Y-116250000D01*
X322300000Y-58980000D02*
X322300000Y-89601400D01*
X322300000Y-89601400D02*
X315074600Y-96826800D01*
X315074600Y-96826800D02*
X315074600Y-100226500D01*
X315074600Y-100226500D02*
X299051100Y-116250000D01*
X299051100Y-116250000D02*
X296125000Y-116250000D01*
X198760000Y-78080000D02*
X200841600Y-75998400D01*
X200841600Y-75998400D02*
X292123800Y-75998400D01*
X292123800Y-75998400D02*
X319160000Y-48962200D01*
X319160000Y-48962200D02*
X319160000Y-48029200D01*
X319160000Y-48029200D02*
X319914500Y-47274700D01*
X319914500Y-47274700D02*
X320986800Y-47274700D01*
X320986800Y-47274700D02*
X321794700Y-48082600D01*
X321794700Y-48082600D02*
X321794700Y-48450000D01*
X179760000Y-78080000D02*
X198760000Y-78080000D01*
X322970000Y-48450000D02*
X321794700Y-48450000D01*
X170300000Y-58980000D02*
X189300000Y-58980000D01*
X320430000Y-48450000D02*
X320430000Y-49625300D01*
X312635800Y-99690000D02*
X307754100Y-104571700D01*
X307754100Y-104571700D02*
X189874000Y-104571700D01*
X189874000Y-104571700D02*
X184992300Y-99690000D01*
X184992300Y-99690000D02*
X178190000Y-99690000D01*
X313590000Y-99690000D02*
X312635800Y-99690000D01*
X312635800Y-99690000D02*
X312635800Y-57419500D01*
X312635800Y-57419500D02*
X320430000Y-49625300D01*
X159190000Y-99690000D02*
X178190000Y-99690000D01*
X121190000Y-99690000D02*
X102190000Y-99690000D01*
X140190000Y-99690000D02*
X121190000Y-99690000D01*
X140190000Y-99690000D02*
X159190000Y-99690000D01*
X83190000Y-99690000D02*
X102190000Y-99690000D01*
X89540000Y-85518900D02*
X178169200Y-85518900D01*
X178169200Y-85518900D02*
X184533700Y-79154400D01*
X184533700Y-79154400D02*
X193484400Y-79154400D01*
X193484400Y-79154400D02*
X193852900Y-79522900D01*
X193852900Y-79522900D02*
X201932900Y-79522900D01*
X201932900Y-79522900D02*
X204820200Y-76635600D01*
X204820200Y-76635600D02*
X292315600Y-76635600D01*
X292315600Y-76635600D02*
X293760000Y-78080000D01*
X89540000Y-85518900D02*
X89540000Y-97150000D01*
X84760000Y-78080000D02*
X89540000Y-82860000D01*
X89540000Y-82860000D02*
X89540000Y-85518900D01*
X61060000Y-78080000D02*
X70697700Y-68442300D01*
X70697700Y-68442300D02*
X130440300Y-68442300D01*
X130440300Y-68442300D02*
X132497200Y-66385400D01*
X132497200Y-66385400D02*
X294154700Y-66385400D01*
X294154700Y-66385400D02*
X301560100Y-58980000D01*
X301560100Y-58980000D02*
X303300000Y-58980000D01*
X314174700Y-48450000D02*
X314174700Y-48082600D01*
X314174700Y-48082600D02*
X313366800Y-47274700D01*
X313366800Y-47274700D02*
X312294600Y-47274700D01*
X312294600Y-47274700D02*
X311540000Y-48029300D01*
X311540000Y-48029300D02*
X311540000Y-50740000D01*
X311540000Y-50740000D02*
X303300000Y-58980000D01*
X315350000Y-48450000D02*
X314174700Y-48450000D01*
X173410000Y-80620000D02*
X186600600Y-67429400D01*
X186600600Y-67429400D02*
X293824500Y-67429400D01*
X293824500Y-67429400D02*
X300179000Y-61074900D01*
X300179000Y-61074900D02*
X303238000Y-61074900D01*
X303238000Y-61074900D02*
X312810000Y-51502900D01*
X312810000Y-51502900D02*
X312810000Y-48450000D01*
X154410000Y-80620000D02*
X173410000Y-80620000D01*
X135410000Y-80620000D02*
X154410000Y-80620000D01*
X116410000Y-80620000D02*
X97410000Y-80620000D01*
X135410000Y-80620000D02*
X116410000Y-80620000D01*
X54710000Y-80620000D02*
X78410000Y-80620000D01*
X163950000Y-61520000D02*
X175129700Y-61520000D01*
X175129700Y-61520000D02*
X176555100Y-60094600D01*
X176555100Y-60094600D02*
X187358000Y-60094600D01*
X187358000Y-60094600D02*
X187709000Y-60445600D01*
X187709000Y-60445600D02*
X200305600Y-60445600D01*
X200305600Y-60445600D02*
X200672200Y-60079000D01*
X200672200Y-60079000D02*
X203049000Y-60079000D01*
X203049000Y-60079000D02*
X203406800Y-60436800D01*
X203406800Y-60436800D02*
X218829400Y-60436800D01*
X218829400Y-60436800D02*
X219190400Y-60075800D01*
X219190400Y-60075800D02*
X222045800Y-60075800D01*
X222045800Y-60075800D02*
X222405000Y-60435000D01*
X222405000Y-60435000D02*
X229187200Y-60435000D01*
X229187200Y-60435000D02*
X229527600Y-60094600D01*
X229527600Y-60094600D02*
X245251300Y-60094600D01*
X245251300Y-60094600D02*
X245616900Y-60460200D01*
X245616900Y-60460200D02*
X248334800Y-60460200D01*
X248334800Y-60460200D02*
X251240400Y-57554600D01*
X251240400Y-57554600D02*
X300357400Y-57554600D01*
X300357400Y-57554600D02*
X309094700Y-48817300D01*
X309094700Y-48817300D02*
X309094700Y-48450000D01*
X144950000Y-61520000D02*
X163950000Y-61520000D01*
X310270000Y-48450000D02*
X309094700Y-48450000D01*
X68950000Y-61520000D02*
X49950000Y-61520000D01*
X87950000Y-61520000D02*
X68950000Y-61520000D01*
X106950000Y-61520000D02*
X125950000Y-61520000D01*
X87950000Y-61520000D02*
X106950000Y-61520000D01*
X277950000Y-61520000D02*
X296950000Y-61520000D01*
X258950000Y-61520000D02*
X277950000Y-61520000D01*
X201950000Y-61520000D02*
X220950000Y-61520000D01*
X220950000Y-61520000D02*
X239950000Y-61520000D01*
X182950000Y-61520000D02*
X201950000Y-61520000D01*
X239950000Y-61520000D02*
X258950000Y-61520000D01*
X249410000Y-80620000D02*
X230410000Y-80620000D01*
X211410000Y-80620000D02*
X192410000Y-80620000D01*
X230410000Y-80620000D02*
X211410000Y-80620000D01*
X268410000Y-80620000D02*
X249410000Y-80620000D01*
X287410000Y-80620000D02*
X268410000Y-80620000D01*
X311210000Y-80620000D02*
X287410000Y-80620000D01*
X118000000Y-116250000D02*
X120380500Y-113869500D01*
X120380500Y-113869500D02*
X267619500Y-113869500D01*
X267619500Y-113869500D02*
X270000000Y-116250000D01*
X298934700Y-48450000D02*
X298934700Y-48817300D01*
X298934700Y-48817300D02*
X290850200Y-56901800D01*
X290850200Y-56901800D02*
X248378100Y-56901800D01*
X248378100Y-56901800D02*
X248378100Y-56901900D01*
X248378100Y-56901900D02*
X246300000Y-58980000D01*
X300110000Y-48450000D02*
X298934700Y-48450000D01*
X251000000Y-116250000D02*
X249079300Y-114329300D01*
X249079300Y-114329300D02*
X138920700Y-114329300D01*
X138920700Y-114329300D02*
X137000000Y-116250000D01*
X227300000Y-58980000D02*
X233283000Y-52997000D01*
X233283000Y-52997000D02*
X292159200Y-52997000D01*
X292159200Y-52997000D02*
X296394700Y-48761500D01*
X296394700Y-48761500D02*
X296394700Y-48450000D01*
X297570000Y-48450000D02*
X296394700Y-48450000D01*
X156000000Y-116250000D02*
X157470300Y-114779700D01*
X157470300Y-114779700D02*
X230529700Y-114779700D01*
X230529700Y-114779700D02*
X232000000Y-116250000D01*
X295030000Y-48450000D02*
X293854700Y-48450000D01*
X208300000Y-58980000D02*
X217159300Y-50120700D01*
X217159300Y-50120700D02*
X292551300Y-50120700D01*
X292551300Y-50120700D02*
X293854700Y-48817300D01*
X293854700Y-48817300D02*
X293854700Y-48450000D01*
X175000000Y-116250000D02*
X191984400Y-116250000D01*
X191984400Y-116250000D02*
X191984400Y-116250100D01*
X191984400Y-116250100D02*
X193409600Y-117675300D01*
X193409600Y-117675300D02*
X194590500Y-117675300D01*
X194590500Y-117675300D02*
X196015800Y-116250000D01*
X196015800Y-116250000D02*
X213000000Y-116250000D01*
X197190000Y-99690000D02*
X196656000Y-99156000D01*
X196656000Y-99156000D02*
X183031000Y-99156000D01*
X183031000Y-99156000D02*
X182139600Y-98264600D01*
X182139600Y-98264600D02*
X166588800Y-98264600D01*
X166588800Y-98264600D02*
X166223200Y-98630200D01*
X166223200Y-98630200D02*
X163505200Y-98630200D01*
X163505200Y-98630200D02*
X163139600Y-98264600D01*
X163139600Y-98264600D02*
X147965400Y-98264600D01*
X147965400Y-98264600D02*
X147627500Y-98602500D01*
X147627500Y-98602500D02*
X142215400Y-98602500D01*
X142215400Y-98602500D02*
X141850300Y-98237400D01*
X141850300Y-98237400D02*
X139102600Y-98237400D01*
X139102600Y-98237400D02*
X138724400Y-98615600D01*
X138724400Y-98615600D02*
X122834400Y-98615600D01*
X122834400Y-98615600D02*
X122467800Y-98249000D01*
X122467800Y-98249000D02*
X120091000Y-98249000D01*
X120091000Y-98249000D02*
X119733200Y-98606800D01*
X119733200Y-98606800D02*
X104365800Y-98606800D01*
X104365800Y-98606800D02*
X103999600Y-98240600D01*
X103999600Y-98240600D02*
X101099400Y-98240600D01*
X101099400Y-98240600D02*
X100737900Y-98602100D01*
X100737900Y-98602100D02*
X85120900Y-98602100D01*
X85120900Y-98602100D02*
X84782000Y-98263200D01*
X84782000Y-98263200D02*
X65720200Y-98263200D01*
X65720200Y-98263200D02*
X64293400Y-99690000D01*
X64293400Y-99690000D02*
X56990000Y-99690000D01*
X216190000Y-99690000D02*
X197190000Y-99690000D01*
X273190000Y-99690000D02*
X292190000Y-99690000D01*
X254190000Y-99690000D02*
X273190000Y-99690000D01*
X235190000Y-99690000D02*
X254190000Y-99690000D01*
X216190000Y-99690000D02*
X235190000Y-99690000D01*
X289950000Y-48450000D02*
X288774700Y-48450000D01*
X207350000Y-30070000D02*
X231506900Y-30070000D01*
X231506900Y-30070000D02*
X246221000Y-44784100D01*
X246221000Y-44784100D02*
X285476100Y-44784100D01*
X285476100Y-44784100D02*
X288774700Y-48082700D01*
X288774700Y-48082700D02*
X288774700Y-48450000D01*
X149650000Y-118790000D02*
X168650000Y-118790000D01*
X92650000Y-118790000D02*
X61800000Y-118790000D01*
X111650000Y-118790000D02*
X92650000Y-118790000D01*
X130650000Y-118790000D02*
X111650000Y-118790000D01*
X149650000Y-118790000D02*
X130650000Y-118790000D01*
X244650000Y-118790000D02*
X263650000Y-118790000D01*
X225650000Y-118790000D02*
X244650000Y-118790000D01*
X187650000Y-118790000D02*
X187650000Y-133240000D01*
X187650000Y-133240000D02*
X183050000Y-137840000D01*
X187650000Y-118790000D02*
X206650000Y-118790000D01*
X206650000Y-118790000D02*
X225650000Y-118790000D01*
X184540000Y-97150000D02*
X203540000Y-97150000D01*
M02*
