G04 #@! TF.GenerationSoftware,KiCad,Pcbnew,(5.1.10)-1*
G04 #@! TF.CreationDate,2021-10-09T23:09:02-07:00*
G04 #@! TF.ProjectId,Atari130MXPlate,41746172-6931-4333-904d-58506c617465,C.2*
G04 #@! TF.SameCoordinates,Original*
G04 #@! TF.FileFunction,Profile,NP*
%FSLAX46Y46*%
G04 Gerber Fmt 4.6, Leading zero omitted, Abs format (unit mm)*
G04 Created by KiCad (PCBNEW (5.1.10)-1) date 2021-10-09 23:09:02*
%MOMM*%
%LPD*%
G01*
G04 APERTURE LIST*
G04 #@! TA.AperFunction,Profile*
%ADD10C,0.050000*%
G04 #@! TD*
G04 #@! TA.AperFunction,Profile*
%ADD11C,0.120000*%
G04 #@! TD*
G04 APERTURE END LIST*
D10*
X199834466Y-23154466D02*
G75*
G02*
X203370000Y-21690000I3535534J-3535534D01*
G01*
X177870000Y-45225534D02*
G75*
G02*
X174334466Y-46690000I-3535534J3535534D01*
G01*
X32370000Y-51690000D02*
G75*
G02*
X37370000Y-46690000I5000000J0D01*
G01*
X37370000Y-142690000D02*
G75*
G02*
X32370000Y-137690000I0J5000000D01*
G01*
X94333596Y-142706976D02*
X37370000Y-142690000D01*
X100039873Y-146190000D02*
G75*
G03*
X94333596Y-142706976I-5474251J-2552686D01*
G01*
X100039873Y-146190000D02*
G75*
G03*
X104370000Y-148690000I4330127J2500000D01*
G01*
X277700127Y-146190000D02*
G75*
G02*
X283406404Y-142706976I5474251J-2552686D01*
G01*
X277700127Y-146190000D02*
G75*
G02*
X273370000Y-148690000I-4330127J2500000D01*
G01*
X340370000Y-137690000D02*
G75*
G02*
X335370000Y-142690000I-5000000J0D01*
G01*
X335370000Y-21690000D02*
G75*
G02*
X340370000Y-26690000I0J-5000000D01*
G01*
X177870000Y-45225534D02*
X199834466Y-23154466D01*
X37370000Y-46690000D02*
X174334466Y-46690000D01*
X32370000Y-137690000D02*
X32370000Y-51690000D01*
X273370000Y-148690000D02*
X104370000Y-148690000D01*
X335370000Y-21690000D02*
X203370000Y-21690000D01*
X340370000Y-137690000D02*
X340370000Y-26690000D01*
X283406404Y-142706976D02*
X335370000Y-142690000D01*
D11*
X242470000Y-142810000D02*
G75*
G02*
X242470000Y-143810000I0J-500000D01*
G01*
X242470000Y-129610000D02*
G75*
G02*
X242470000Y-130610000I0J-500000D01*
G01*
X239170000Y-143810000D02*
G75*
G02*
X239170000Y-142810000I0J500000D01*
G01*
X239170000Y-130610000D02*
G75*
G02*
X239170000Y-129610000I0J500000D01*
G01*
X130470000Y-143810000D02*
G75*
G02*
X130470000Y-142810000I0J500000D01*
G01*
X130470000Y-130610000D02*
G75*
G02*
X130470000Y-129610000I0J500000D01*
G01*
X133770000Y-142810000D02*
G75*
G02*
X133770000Y-143810000I0J-500000D01*
G01*
X133770000Y-129610000D02*
G75*
G02*
X133770000Y-130610000I0J-500000D01*
G01*
X179470000Y-133010000D02*
G75*
G02*
X179470000Y-132010000I0J500000D01*
G01*
X193470000Y-132010000D02*
G75*
G02*
X193470000Y-133010000I0J-500000D01*
G01*
X193470000Y-145010000D02*
G75*
G02*
X193470000Y-146010000I0J-500000D01*
G01*
X179470000Y-146010000D02*
G75*
G02*
X179470000Y-145010000I0J500000D01*
G01*
X246870000Y-146510000D02*
X251870000Y-146510000D01*
X251870000Y-130510000D02*
X246870000Y-130510000D01*
X244970000Y-140010000D02*
X244970000Y-143510000D01*
X251870000Y-130510000D02*
X251870000Y-140010000D01*
X246870000Y-143510000D02*
X246870000Y-146510000D01*
X246870000Y-130510000D02*
X246870000Y-140010000D01*
X251870000Y-143510000D02*
X251870000Y-146510000D01*
X253770000Y-140010000D02*
X253770000Y-143510000D01*
X244970000Y-140010000D02*
X246870000Y-140010000D01*
X251870000Y-140010000D02*
X253770000Y-140010000D01*
X251870000Y-143510000D02*
X253770000Y-143510000D01*
X244970000Y-143510000D02*
X246870000Y-143510000D01*
X126070000Y-140010000D02*
X127970000Y-140010000D01*
X126070000Y-143510000D02*
X127970000Y-143510000D01*
X119170000Y-143510000D02*
X121070000Y-143510000D01*
X119170000Y-140010000D02*
X121070000Y-140010000D01*
X127970000Y-140010000D02*
X127970000Y-143510000D01*
X119170000Y-140010000D02*
X119170000Y-143510000D01*
X121070000Y-146510000D02*
X126070000Y-146510000D01*
X121070000Y-143510000D02*
X121070000Y-146510000D01*
X126070000Y-143510000D02*
X126070000Y-146510000D01*
X126070000Y-130510000D02*
X126070000Y-140010000D01*
X121070000Y-130510000D02*
X121070000Y-140010000D01*
X126070000Y-130510000D02*
X121070000Y-130510000D01*
X242470000Y-130610000D02*
X242470000Y-142810000D01*
X242470000Y-129610000D02*
X239170000Y-129610000D01*
X239170000Y-130610000D02*
X239170000Y-142810000D01*
X239170000Y-143810000D02*
X242470000Y-143810000D01*
X133770000Y-130610000D02*
X133770000Y-142810000D01*
X133770000Y-129610000D02*
X130470000Y-129610000D01*
X130470000Y-130610000D02*
X130470000Y-142810000D01*
X130470000Y-143810000D02*
X133770000Y-143810000D01*
X193470000Y-133010000D02*
X193470000Y-145010000D01*
X179470000Y-133010000D02*
X179470000Y-145010000D01*
X179470000Y-146010000D02*
X193470000Y-146010000D01*
X179470000Y-132010000D02*
X193470000Y-132010000D01*
X78220000Y-124760000D02*
G75*
G02*
X77220000Y-124760000I-500000J0D01*
G01*
X74920000Y-124760000D02*
G75*
G02*
X74920000Y-123760000I0J500000D01*
G01*
X78220000Y-110560000D02*
G75*
G02*
X78220000Y-111560000I0J-500000D01*
G01*
X74920000Y-111560000D02*
G75*
G02*
X74920000Y-110560000I0J500000D01*
G01*
X53220000Y-124760000D02*
G75*
G02*
X52220000Y-124760000I-500000J0D01*
G01*
X55520000Y-123760000D02*
G75*
G02*
X55520000Y-124760000I0J-500000D01*
G01*
X55520000Y-110560000D02*
G75*
G02*
X55520000Y-111560000I0J-500000D01*
G01*
X52220000Y-111560000D02*
G75*
G02*
X52220000Y-110560000I0J500000D01*
G01*
X58220000Y-126960000D02*
G75*
G02*
X58220000Y-125960000I0J500000D01*
G01*
X72220000Y-112960000D02*
G75*
G02*
X72220000Y-113960000I0J-500000D01*
G01*
X58220000Y-113960000D02*
G75*
G02*
X58220000Y-112960000I0J500000D01*
G01*
X72220000Y-125960000D02*
G75*
G02*
X72220000Y-126960000I0J-500000D01*
G01*
X52220000Y-113060000D02*
X47020000Y-113060000D01*
X52220000Y-111560000D02*
X52220000Y-113060000D01*
X55520000Y-110560000D02*
X52220000Y-110560000D01*
X55520000Y-111560000D02*
X55520000Y-123760000D01*
X55520000Y-124760000D02*
X53220000Y-124760000D01*
X52220000Y-124760000D02*
X52220000Y-123960000D01*
X52220000Y-123960000D02*
X50520000Y-123960000D01*
X50520000Y-123960000D02*
X50520000Y-128460000D01*
X50520000Y-128460000D02*
X47020000Y-128460000D01*
X47020000Y-128460000D02*
X47020000Y-123960000D01*
X47020000Y-123960000D02*
X45220000Y-123960000D01*
X45220000Y-123960000D02*
X45220000Y-119060000D01*
X45220000Y-119060000D02*
X47020000Y-119060000D01*
X47020000Y-113060000D02*
X47020000Y-119060000D01*
X58220000Y-113960000D02*
X58220000Y-125960000D01*
X58220000Y-112960000D02*
X72220000Y-112960000D01*
X58220000Y-126960000D02*
X72220000Y-126960000D01*
X72220000Y-113960000D02*
X72220000Y-125960000D01*
X74920000Y-110560000D02*
X78220000Y-110560000D01*
X78220000Y-111560000D02*
X78220000Y-113060000D01*
X74920000Y-111560000D02*
X74920000Y-123760000D01*
X74920000Y-124760000D02*
X77220000Y-124760000D01*
X78220000Y-124760000D02*
X78220000Y-123960000D01*
X78220000Y-113060000D02*
X83420000Y-113060000D01*
X85220000Y-119060000D02*
X83420000Y-119060000D01*
X79920000Y-123960000D02*
X79920000Y-128460000D01*
X79920000Y-128460000D02*
X83420000Y-128460000D01*
X85220000Y-123960000D02*
X85220000Y-119060000D01*
X83420000Y-123960000D02*
X85220000Y-123960000D01*
X83420000Y-113060000D02*
X83420000Y-119060000D01*
X78220000Y-123960000D02*
X79920000Y-123960000D01*
X83420000Y-128460000D02*
X83420000Y-123960000D01*
X310010000Y-107860000D02*
G75*
G02*
X310010000Y-106860000I0J500000D01*
G01*
X324010000Y-106860000D02*
G75*
G02*
X324010000Y-107860000I0J-500000D01*
G01*
X310010000Y-94860000D02*
G75*
G02*
X310010000Y-93860000I0J500000D01*
G01*
X324010000Y-93860000D02*
G75*
G02*
X324010000Y-94860000I0J-500000D01*
G01*
X324010000Y-94860000D02*
X324010000Y-106860000D01*
X310010000Y-93860000D02*
X324010000Y-93860000D01*
X310010000Y-107860000D02*
X324010000Y-107860000D01*
X310010000Y-94860000D02*
X310010000Y-106860000D01*
X67410000Y-93860000D02*
G75*
G02*
X67410000Y-94860000I0J-500000D01*
G01*
X53410000Y-94860000D02*
G75*
G02*
X53410000Y-93860000I0J500000D01*
G01*
X67410000Y-106860000D02*
G75*
G02*
X67410000Y-107860000I0J-500000D01*
G01*
X53410000Y-107860000D02*
G75*
G02*
X53410000Y-106860000I0J500000D01*
G01*
X67410000Y-94860000D02*
X67410000Y-106860000D01*
X53410000Y-94860000D02*
X53410000Y-106860000D01*
X53410000Y-93860000D02*
X67410000Y-93860000D01*
X53410000Y-107860000D02*
X67410000Y-107860000D01*
X300195000Y-112960000D02*
G75*
G02*
X300195000Y-113960000I0J-500000D01*
G01*
X286195000Y-113960000D02*
G75*
G02*
X286195000Y-112960000I0J500000D01*
G01*
X300195000Y-125960000D02*
G75*
G02*
X300195000Y-126960000I0J-500000D01*
G01*
X286195000Y-126960000D02*
G75*
G02*
X286195000Y-125960000I0J500000D01*
G01*
X300195000Y-113960000D02*
X300195000Y-125960000D01*
X286195000Y-113960000D02*
X286195000Y-125960000D01*
X286195000Y-112960000D02*
X300195000Y-112960000D01*
X286195000Y-126960000D02*
X300195000Y-126960000D01*
X303270000Y-24240000D02*
G75*
G02*
X303270000Y-25240000I0J-500000D01*
G01*
X289270000Y-25240000D02*
G75*
G02*
X289270000Y-24240000I0J500000D01*
G01*
X303270000Y-37240000D02*
G75*
G02*
X303270000Y-38240000I0J-500000D01*
G01*
X289270000Y-38240000D02*
G75*
G02*
X289270000Y-37240000I0J500000D01*
G01*
X303270000Y-25240000D02*
X303270000Y-37240000D01*
X289270000Y-25240000D02*
X289270000Y-37240000D01*
X289270000Y-24240000D02*
X303270000Y-24240000D01*
X289270000Y-38240000D02*
X303270000Y-38240000D01*
X246270000Y-24240000D02*
G75*
G02*
X246270000Y-25240000I0J-500000D01*
G01*
X232270000Y-25240000D02*
G75*
G02*
X232270000Y-24240000I0J500000D01*
G01*
X246270000Y-37240000D02*
G75*
G02*
X246270000Y-38240000I0J-500000D01*
G01*
X232270000Y-38240000D02*
G75*
G02*
X232270000Y-37240000I0J500000D01*
G01*
X246270000Y-25240000D02*
X246270000Y-37240000D01*
X232270000Y-25240000D02*
X232270000Y-37240000D01*
X232270000Y-24240000D02*
X246270000Y-24240000D01*
X232270000Y-38240000D02*
X246270000Y-38240000D01*
X217770000Y-24240000D02*
G75*
G02*
X217770000Y-25240000I0J-500000D01*
G01*
X203770000Y-25240000D02*
G75*
G02*
X203770000Y-24240000I0J500000D01*
G01*
X217770000Y-37240000D02*
G75*
G02*
X217770000Y-38240000I0J-500000D01*
G01*
X203770000Y-38240000D02*
G75*
G02*
X203770000Y-37240000I0J500000D01*
G01*
X217770000Y-25240000D02*
X217770000Y-37240000D01*
X203770000Y-25240000D02*
X203770000Y-37240000D01*
X203770000Y-24240000D02*
X217770000Y-24240000D01*
X203770000Y-38240000D02*
X217770000Y-38240000D01*
X331770000Y-24240000D02*
G75*
G02*
X331770000Y-25240000I0J-500000D01*
G01*
X317770000Y-25240000D02*
G75*
G02*
X317770000Y-24240000I0J500000D01*
G01*
X331770000Y-37240000D02*
G75*
G02*
X331770000Y-38240000I0J-500000D01*
G01*
X317770000Y-38240000D02*
G75*
G02*
X317770000Y-37240000I0J500000D01*
G01*
X331770000Y-25240000D02*
X331770000Y-37240000D01*
X317770000Y-25240000D02*
X317770000Y-37240000D01*
X317770000Y-24240000D02*
X331770000Y-24240000D01*
X317770000Y-38240000D02*
X331770000Y-38240000D01*
X274770000Y-24240000D02*
G75*
G02*
X274770000Y-25240000I0J-500000D01*
G01*
X260770000Y-25240000D02*
G75*
G02*
X260770000Y-24240000I0J500000D01*
G01*
X274770000Y-37240000D02*
G75*
G02*
X274770000Y-38240000I0J-500000D01*
G01*
X260770000Y-38240000D02*
G75*
G02*
X260770000Y-37240000I0J500000D01*
G01*
X274770000Y-25240000D02*
X274770000Y-37240000D01*
X260770000Y-25240000D02*
X260770000Y-37240000D01*
X260770000Y-24240000D02*
X274770000Y-24240000D01*
X260770000Y-38240000D02*
X274770000Y-38240000D01*
X65130000Y-74790000D02*
G75*
G02*
X65130000Y-75790000I0J-500000D01*
G01*
X51130000Y-75790000D02*
G75*
G02*
X51130000Y-74790000I0J500000D01*
G01*
X65130000Y-87790000D02*
G75*
G02*
X65130000Y-88790000I0J-500000D01*
G01*
X51130000Y-88790000D02*
G75*
G02*
X51130000Y-87790000I0J500000D01*
G01*
X51130000Y-88790000D02*
X65130000Y-88790000D01*
X51130000Y-74790000D02*
X65130000Y-74790000D01*
X51130000Y-75790000D02*
X51130000Y-87790000D01*
X65130000Y-75790000D02*
X65130000Y-87790000D01*
X321630000Y-74790000D02*
G75*
G02*
X321630000Y-75790000I0J-500000D01*
G01*
X307630000Y-75790000D02*
G75*
G02*
X307630000Y-74790000I0J500000D01*
G01*
X321630000Y-87790000D02*
G75*
G02*
X321630000Y-88790000I0J-500000D01*
G01*
X307630000Y-88790000D02*
G75*
G02*
X307630000Y-87790000I0J500000D01*
G01*
X307630000Y-88790000D02*
X321630000Y-88790000D01*
X307630000Y-74790000D02*
X321630000Y-74790000D01*
X307630000Y-75790000D02*
X307630000Y-87790000D01*
X321630000Y-75790000D02*
X321630000Y-87790000D01*
X46370000Y-69690000D02*
G75*
G02*
X46370000Y-68690000I0J500000D01*
G01*
X60370000Y-68690000D02*
G75*
G02*
X60370000Y-69690000I0J-500000D01*
G01*
X46370000Y-56690000D02*
G75*
G02*
X46370000Y-55690000I0J500000D01*
G01*
X60370000Y-55690000D02*
G75*
G02*
X60370000Y-56690000I0J-500000D01*
G01*
X60370000Y-56690000D02*
X60370000Y-68690000D01*
X46370000Y-55690000D02*
X60370000Y-55690000D01*
X46370000Y-69690000D02*
X60370000Y-69690000D01*
X46370000Y-56690000D02*
X46370000Y-68690000D01*
X193610000Y-107860000D02*
G75*
G02*
X193610000Y-106860000I0J500000D01*
G01*
X207610000Y-106860000D02*
G75*
G02*
X207610000Y-107860000I0J-500000D01*
G01*
X193610000Y-94860000D02*
G75*
G02*
X193610000Y-93860000I0J500000D01*
G01*
X207610000Y-93860000D02*
G75*
G02*
X207610000Y-94860000I0J-500000D01*
G01*
X207610000Y-94860000D02*
X207610000Y-106860000D01*
X193610000Y-93860000D02*
X207610000Y-93860000D01*
X193610000Y-107860000D02*
X207610000Y-107860000D01*
X193610000Y-94860000D02*
X193610000Y-106860000D01*
X136610000Y-107860000D02*
G75*
G02*
X136610000Y-106860000I0J500000D01*
G01*
X150610000Y-106860000D02*
G75*
G02*
X150610000Y-107860000I0J-500000D01*
G01*
X136610000Y-94860000D02*
G75*
G02*
X136610000Y-93860000I0J500000D01*
G01*
X150610000Y-93860000D02*
G75*
G02*
X150610000Y-94860000I0J-500000D01*
G01*
X150610000Y-94860000D02*
X150610000Y-106860000D01*
X136610000Y-93860000D02*
X150610000Y-93860000D01*
X136610000Y-107860000D02*
X150610000Y-107860000D01*
X136610000Y-94860000D02*
X136610000Y-106860000D01*
X127070000Y-126960000D02*
G75*
G02*
X127070000Y-125960000I0J500000D01*
G01*
X141070000Y-125960000D02*
G75*
G02*
X141070000Y-126960000I0J-500000D01*
G01*
X127070000Y-113960000D02*
G75*
G02*
X127070000Y-112960000I0J500000D01*
G01*
X141070000Y-112960000D02*
G75*
G02*
X141070000Y-113960000I0J-500000D01*
G01*
X141070000Y-113960000D02*
X141070000Y-125960000D01*
X127070000Y-112960000D02*
X141070000Y-112960000D01*
X127070000Y-126960000D02*
X141070000Y-126960000D01*
X127070000Y-113960000D02*
X127070000Y-125960000D01*
X222070000Y-126960000D02*
G75*
G02*
X222070000Y-125960000I0J500000D01*
G01*
X236070000Y-125960000D02*
G75*
G02*
X236070000Y-126960000I0J-500000D01*
G01*
X222070000Y-113960000D02*
G75*
G02*
X222070000Y-112960000I0J500000D01*
G01*
X236070000Y-112960000D02*
G75*
G02*
X236070000Y-113960000I0J-500000D01*
G01*
X236070000Y-113960000D02*
X236070000Y-125960000D01*
X222070000Y-112960000D02*
X236070000Y-112960000D01*
X222070000Y-126960000D02*
X236070000Y-126960000D01*
X222070000Y-113960000D02*
X222070000Y-125960000D01*
X117610000Y-107860000D02*
G75*
G02*
X117610000Y-106860000I0J500000D01*
G01*
X131610000Y-106860000D02*
G75*
G02*
X131610000Y-107860000I0J-500000D01*
G01*
X117610000Y-94860000D02*
G75*
G02*
X117610000Y-93860000I0J500000D01*
G01*
X131610000Y-93860000D02*
G75*
G02*
X131610000Y-94860000I0J-500000D01*
G01*
X131610000Y-94860000D02*
X131610000Y-106860000D01*
X117610000Y-93860000D02*
X131610000Y-93860000D01*
X117610000Y-107860000D02*
X131610000Y-107860000D01*
X117610000Y-94860000D02*
X117610000Y-106860000D01*
X283830000Y-88790000D02*
G75*
G02*
X283830000Y-87790000I0J500000D01*
G01*
X297830000Y-87790000D02*
G75*
G02*
X297830000Y-88790000I0J-500000D01*
G01*
X283830000Y-75790000D02*
G75*
G02*
X283830000Y-74790000I0J500000D01*
G01*
X297830000Y-74790000D02*
G75*
G02*
X297830000Y-75790000I0J-500000D01*
G01*
X297830000Y-75790000D02*
X297830000Y-87790000D01*
X283830000Y-74790000D02*
X297830000Y-74790000D01*
X283830000Y-88790000D02*
X297830000Y-88790000D01*
X283830000Y-75790000D02*
X283830000Y-87790000D01*
X155610000Y-107860000D02*
G75*
G02*
X155610000Y-106860000I0J500000D01*
G01*
X169610000Y-106860000D02*
G75*
G02*
X169610000Y-107860000I0J-500000D01*
G01*
X155610000Y-94860000D02*
G75*
G02*
X155610000Y-93860000I0J500000D01*
G01*
X169610000Y-93860000D02*
G75*
G02*
X169610000Y-94860000I0J-500000D01*
G01*
X169610000Y-94860000D02*
X169610000Y-106860000D01*
X155610000Y-93860000D02*
X169610000Y-93860000D01*
X155610000Y-107860000D02*
X169610000Y-107860000D01*
X155610000Y-94860000D02*
X155610000Y-106860000D01*
X207830000Y-88790000D02*
G75*
G02*
X207830000Y-87790000I0J500000D01*
G01*
X221830000Y-87790000D02*
G75*
G02*
X221830000Y-88790000I0J-500000D01*
G01*
X207830000Y-75790000D02*
G75*
G02*
X207830000Y-74790000I0J500000D01*
G01*
X221830000Y-74790000D02*
G75*
G02*
X221830000Y-75790000I0J-500000D01*
G01*
X221830000Y-75790000D02*
X221830000Y-87790000D01*
X207830000Y-74790000D02*
X221830000Y-74790000D01*
X207830000Y-88790000D02*
X221830000Y-88790000D01*
X207830000Y-75790000D02*
X207830000Y-87790000D01*
X165070000Y-126960000D02*
G75*
G02*
X165070000Y-125960000I0J500000D01*
G01*
X179070000Y-125960000D02*
G75*
G02*
X179070000Y-126960000I0J-500000D01*
G01*
X165070000Y-113960000D02*
G75*
G02*
X165070000Y-112960000I0J500000D01*
G01*
X179070000Y-112960000D02*
G75*
G02*
X179070000Y-113960000I0J-500000D01*
G01*
X179070000Y-113960000D02*
X179070000Y-125960000D01*
X165070000Y-112960000D02*
X179070000Y-112960000D01*
X165070000Y-126960000D02*
X179070000Y-126960000D01*
X165070000Y-113960000D02*
X165070000Y-125960000D01*
X312370000Y-69690000D02*
G75*
G02*
X312370000Y-68690000I0J500000D01*
G01*
X326370000Y-68690000D02*
G75*
G02*
X326370000Y-69690000I0J-500000D01*
G01*
X312370000Y-56690000D02*
G75*
G02*
X312370000Y-55690000I0J500000D01*
G01*
X326370000Y-55690000D02*
G75*
G02*
X326370000Y-56690000I0J-500000D01*
G01*
X326370000Y-56690000D02*
X326370000Y-68690000D01*
X312370000Y-55690000D02*
X326370000Y-55690000D01*
X312370000Y-69690000D02*
X326370000Y-69690000D01*
X312370000Y-56690000D02*
X312370000Y-68690000D01*
X112830000Y-88790000D02*
G75*
G02*
X112830000Y-87790000I0J500000D01*
G01*
X126830000Y-87790000D02*
G75*
G02*
X126830000Y-88790000I0J-500000D01*
G01*
X112830000Y-75790000D02*
G75*
G02*
X112830000Y-74790000I0J500000D01*
G01*
X126830000Y-74790000D02*
G75*
G02*
X126830000Y-75790000I0J-500000D01*
G01*
X126830000Y-75790000D02*
X126830000Y-87790000D01*
X112830000Y-74790000D02*
X126830000Y-74790000D01*
X112830000Y-88790000D02*
X126830000Y-88790000D01*
X112830000Y-75790000D02*
X112830000Y-87790000D01*
X312370000Y-126960000D02*
G75*
G02*
X312370000Y-125960000I0J500000D01*
G01*
X326370000Y-125960000D02*
G75*
G02*
X326370000Y-126960000I0J-500000D01*
G01*
X312370000Y-113960000D02*
G75*
G02*
X312370000Y-112960000I0J500000D01*
G01*
X326370000Y-112960000D02*
G75*
G02*
X326370000Y-113960000I0J-500000D01*
G01*
X326370000Y-113960000D02*
X326370000Y-125960000D01*
X312370000Y-112960000D02*
X326370000Y-112960000D01*
X312370000Y-126960000D02*
X326370000Y-126960000D01*
X312370000Y-113960000D02*
X312370000Y-125960000D01*
X264830000Y-88790000D02*
G75*
G02*
X264830000Y-87790000I0J500000D01*
G01*
X278830000Y-87790000D02*
G75*
G02*
X278830000Y-88790000I0J-500000D01*
G01*
X264830000Y-75790000D02*
G75*
G02*
X264830000Y-74790000I0J500000D01*
G01*
X278830000Y-74790000D02*
G75*
G02*
X278830000Y-75790000I0J-500000D01*
G01*
X278830000Y-75790000D02*
X278830000Y-87790000D01*
X264830000Y-74790000D02*
X278830000Y-74790000D01*
X264830000Y-88790000D02*
X278830000Y-88790000D01*
X264830000Y-75790000D02*
X264830000Y-87790000D01*
X293370000Y-69690000D02*
G75*
G02*
X293370000Y-68690000I0J500000D01*
G01*
X307370000Y-68690000D02*
G75*
G02*
X307370000Y-69690000I0J-500000D01*
G01*
X293370000Y-56690000D02*
G75*
G02*
X293370000Y-55690000I0J500000D01*
G01*
X307370000Y-55690000D02*
G75*
G02*
X307370000Y-56690000I0J-500000D01*
G01*
X307370000Y-56690000D02*
X307370000Y-68690000D01*
X293370000Y-55690000D02*
X307370000Y-55690000D01*
X293370000Y-69690000D02*
X307370000Y-69690000D01*
X293370000Y-56690000D02*
X293370000Y-68690000D01*
X274370000Y-69690000D02*
G75*
G02*
X274370000Y-68690000I0J500000D01*
G01*
X288370000Y-68690000D02*
G75*
G02*
X288370000Y-69690000I0J-500000D01*
G01*
X274370000Y-56690000D02*
G75*
G02*
X274370000Y-55690000I0J500000D01*
G01*
X288370000Y-55690000D02*
G75*
G02*
X288370000Y-56690000I0J-500000D01*
G01*
X288370000Y-56690000D02*
X288370000Y-68690000D01*
X274370000Y-55690000D02*
X288370000Y-55690000D01*
X274370000Y-69690000D02*
X288370000Y-69690000D01*
X274370000Y-56690000D02*
X274370000Y-68690000D01*
X174610000Y-107860000D02*
G75*
G02*
X174610000Y-106860000I0J500000D01*
G01*
X188610000Y-106860000D02*
G75*
G02*
X188610000Y-107860000I0J-500000D01*
G01*
X174610000Y-94860000D02*
G75*
G02*
X174610000Y-93860000I0J500000D01*
G01*
X188610000Y-93860000D02*
G75*
G02*
X188610000Y-94860000I0J-500000D01*
G01*
X188610000Y-94860000D02*
X188610000Y-106860000D01*
X174610000Y-93860000D02*
X188610000Y-93860000D01*
X174610000Y-107860000D02*
X188610000Y-107860000D01*
X174610000Y-94860000D02*
X174610000Y-106860000D01*
X245830000Y-88790000D02*
G75*
G02*
X245830000Y-87790000I0J500000D01*
G01*
X259830000Y-87790000D02*
G75*
G02*
X259830000Y-88790000I0J-500000D01*
G01*
X245830000Y-75790000D02*
G75*
G02*
X245830000Y-74790000I0J500000D01*
G01*
X259830000Y-74790000D02*
G75*
G02*
X259830000Y-75790000I0J-500000D01*
G01*
X259830000Y-75790000D02*
X259830000Y-87790000D01*
X245830000Y-74790000D02*
X259830000Y-74790000D01*
X245830000Y-88790000D02*
X259830000Y-88790000D01*
X245830000Y-75790000D02*
X245830000Y-87790000D01*
X260070000Y-126960000D02*
G75*
G02*
X260070000Y-125960000I0J500000D01*
G01*
X274070000Y-125960000D02*
G75*
G02*
X274070000Y-126960000I0J-500000D01*
G01*
X260070000Y-113960000D02*
G75*
G02*
X260070000Y-112960000I0J500000D01*
G01*
X274070000Y-112960000D02*
G75*
G02*
X274070000Y-113960000I0J-500000D01*
G01*
X274070000Y-113960000D02*
X274070000Y-125960000D01*
X260070000Y-112960000D02*
X274070000Y-112960000D01*
X260070000Y-126960000D02*
X274070000Y-126960000D01*
X260070000Y-113960000D02*
X260070000Y-125960000D01*
X250610000Y-107860000D02*
G75*
G02*
X250610000Y-106860000I0J500000D01*
G01*
X264610000Y-106860000D02*
G75*
G02*
X264610000Y-107860000I0J-500000D01*
G01*
X250610000Y-94860000D02*
G75*
G02*
X250610000Y-93860000I0J500000D01*
G01*
X264610000Y-93860000D02*
G75*
G02*
X264610000Y-94860000I0J-500000D01*
G01*
X264610000Y-94860000D02*
X264610000Y-106860000D01*
X250610000Y-93860000D02*
X264610000Y-93860000D01*
X250610000Y-107860000D02*
X264610000Y-107860000D01*
X250610000Y-94860000D02*
X250610000Y-106860000D01*
X255370000Y-69690000D02*
G75*
G02*
X255370000Y-68690000I0J500000D01*
G01*
X269370000Y-68690000D02*
G75*
G02*
X269370000Y-69690000I0J-500000D01*
G01*
X255370000Y-56690000D02*
G75*
G02*
X255370000Y-55690000I0J500000D01*
G01*
X269370000Y-55690000D02*
G75*
G02*
X269370000Y-56690000I0J-500000D01*
G01*
X269370000Y-56690000D02*
X269370000Y-68690000D01*
X255370000Y-55690000D02*
X269370000Y-55690000D01*
X255370000Y-69690000D02*
X269370000Y-69690000D01*
X255370000Y-56690000D02*
X255370000Y-68690000D01*
X184070000Y-126960000D02*
G75*
G02*
X184070000Y-125960000I0J500000D01*
G01*
X198070000Y-125960000D02*
G75*
G02*
X198070000Y-126960000I0J-500000D01*
G01*
X184070000Y-113960000D02*
G75*
G02*
X184070000Y-112960000I0J500000D01*
G01*
X198070000Y-112960000D02*
G75*
G02*
X198070000Y-113960000I0J-500000D01*
G01*
X198070000Y-113960000D02*
X198070000Y-125960000D01*
X184070000Y-112960000D02*
X198070000Y-112960000D01*
X184070000Y-126960000D02*
X198070000Y-126960000D01*
X184070000Y-113960000D02*
X184070000Y-125960000D01*
X150830000Y-88790000D02*
G75*
G02*
X150830000Y-87790000I0J500000D01*
G01*
X164830000Y-87790000D02*
G75*
G02*
X164830000Y-88790000I0J-500000D01*
G01*
X150830000Y-75790000D02*
G75*
G02*
X150830000Y-74790000I0J500000D01*
G01*
X164830000Y-74790000D02*
G75*
G02*
X164830000Y-75790000I0J-500000D01*
G01*
X164830000Y-75790000D02*
X164830000Y-87790000D01*
X150830000Y-74790000D02*
X164830000Y-74790000D01*
X150830000Y-88790000D02*
X164830000Y-88790000D01*
X150830000Y-75790000D02*
X150830000Y-87790000D01*
X203070000Y-126960000D02*
G75*
G02*
X203070000Y-125960000I0J500000D01*
G01*
X217070000Y-125960000D02*
G75*
G02*
X217070000Y-126960000I0J-500000D01*
G01*
X203070000Y-113960000D02*
G75*
G02*
X203070000Y-112960000I0J500000D01*
G01*
X217070000Y-112960000D02*
G75*
G02*
X217070000Y-113960000I0J-500000D01*
G01*
X217070000Y-113960000D02*
X217070000Y-125960000D01*
X203070000Y-112960000D02*
X217070000Y-112960000D01*
X203070000Y-126960000D02*
X217070000Y-126960000D01*
X203070000Y-113960000D02*
X203070000Y-125960000D01*
X98610000Y-107860000D02*
G75*
G02*
X98610000Y-106860000I0J500000D01*
G01*
X112610000Y-106860000D02*
G75*
G02*
X112610000Y-107860000I0J-500000D01*
G01*
X98610000Y-94860000D02*
G75*
G02*
X98610000Y-93860000I0J500000D01*
G01*
X112610000Y-93860000D02*
G75*
G02*
X112610000Y-94860000I0J-500000D01*
G01*
X112610000Y-94860000D02*
X112610000Y-106860000D01*
X98610000Y-93860000D02*
X112610000Y-93860000D01*
X98610000Y-107860000D02*
X112610000Y-107860000D01*
X98610000Y-94860000D02*
X98610000Y-106860000D01*
X131830000Y-88790000D02*
G75*
G02*
X131830000Y-87790000I0J500000D01*
G01*
X145830000Y-87790000D02*
G75*
G02*
X145830000Y-88790000I0J-500000D01*
G01*
X131830000Y-75790000D02*
G75*
G02*
X131830000Y-74790000I0J500000D01*
G01*
X145830000Y-74790000D02*
G75*
G02*
X145830000Y-75790000I0J-500000D01*
G01*
X145830000Y-75790000D02*
X145830000Y-87790000D01*
X131830000Y-74790000D02*
X145830000Y-74790000D01*
X131830000Y-88790000D02*
X145830000Y-88790000D01*
X131830000Y-75790000D02*
X131830000Y-87790000D01*
X74830000Y-88790000D02*
G75*
G02*
X74830000Y-87790000I0J500000D01*
G01*
X88830000Y-87790000D02*
G75*
G02*
X88830000Y-88790000I0J-500000D01*
G01*
X74830000Y-75790000D02*
G75*
G02*
X74830000Y-74790000I0J500000D01*
G01*
X88830000Y-74790000D02*
G75*
G02*
X88830000Y-75790000I0J-500000D01*
G01*
X88830000Y-75790000D02*
X88830000Y-87790000D01*
X74830000Y-74790000D02*
X88830000Y-74790000D01*
X74830000Y-88790000D02*
X88830000Y-88790000D01*
X74830000Y-75790000D02*
X74830000Y-87790000D01*
X212610000Y-107860000D02*
G75*
G02*
X212610000Y-106860000I0J500000D01*
G01*
X226610000Y-106860000D02*
G75*
G02*
X226610000Y-107860000I0J-500000D01*
G01*
X212610000Y-94860000D02*
G75*
G02*
X212610000Y-93860000I0J500000D01*
G01*
X226610000Y-93860000D02*
G75*
G02*
X226610000Y-94860000I0J-500000D01*
G01*
X226610000Y-94860000D02*
X226610000Y-106860000D01*
X212610000Y-93860000D02*
X226610000Y-93860000D01*
X212610000Y-107860000D02*
X226610000Y-107860000D01*
X212610000Y-94860000D02*
X212610000Y-106860000D01*
X288610000Y-107860000D02*
G75*
G02*
X288610000Y-106860000I0J500000D01*
G01*
X302610000Y-106860000D02*
G75*
G02*
X302610000Y-107860000I0J-500000D01*
G01*
X288610000Y-94860000D02*
G75*
G02*
X288610000Y-93860000I0J500000D01*
G01*
X302610000Y-93860000D02*
G75*
G02*
X302610000Y-94860000I0J-500000D01*
G01*
X302610000Y-94860000D02*
X302610000Y-106860000D01*
X288610000Y-93860000D02*
X302610000Y-93860000D01*
X288610000Y-107860000D02*
X302610000Y-107860000D01*
X288610000Y-94860000D02*
X288610000Y-106860000D01*
X241070000Y-126960000D02*
G75*
G02*
X241070000Y-125960000I0J500000D01*
G01*
X255070000Y-125960000D02*
G75*
G02*
X255070000Y-126960000I0J-500000D01*
G01*
X241070000Y-113960000D02*
G75*
G02*
X241070000Y-112960000I0J500000D01*
G01*
X255070000Y-112960000D02*
G75*
G02*
X255070000Y-113960000I0J-500000D01*
G01*
X255070000Y-113960000D02*
X255070000Y-125960000D01*
X241070000Y-112960000D02*
X255070000Y-112960000D01*
X241070000Y-126960000D02*
X255070000Y-126960000D01*
X241070000Y-113960000D02*
X241070000Y-125960000D01*
X269610000Y-107860000D02*
G75*
G02*
X269610000Y-106860000I0J500000D01*
G01*
X283610000Y-106860000D02*
G75*
G02*
X283610000Y-107860000I0J-500000D01*
G01*
X269610000Y-94860000D02*
G75*
G02*
X269610000Y-93860000I0J500000D01*
G01*
X283610000Y-93860000D02*
G75*
G02*
X283610000Y-94860000I0J-500000D01*
G01*
X283610000Y-94860000D02*
X283610000Y-106860000D01*
X269610000Y-93860000D02*
X283610000Y-93860000D01*
X269610000Y-107860000D02*
X283610000Y-107860000D01*
X269610000Y-94860000D02*
X269610000Y-106860000D01*
X231610000Y-107860000D02*
G75*
G02*
X231610000Y-106860000I0J500000D01*
G01*
X245610000Y-106860000D02*
G75*
G02*
X245610000Y-107860000I0J-500000D01*
G01*
X231610000Y-94860000D02*
G75*
G02*
X231610000Y-93860000I0J500000D01*
G01*
X245610000Y-93860000D02*
G75*
G02*
X245610000Y-94860000I0J-500000D01*
G01*
X245610000Y-94860000D02*
X245610000Y-106860000D01*
X231610000Y-93860000D02*
X245610000Y-93860000D01*
X231610000Y-107860000D02*
X245610000Y-107860000D01*
X231610000Y-94860000D02*
X231610000Y-106860000D01*
X226830000Y-88790000D02*
G75*
G02*
X226830000Y-87790000I0J500000D01*
G01*
X240830000Y-87790000D02*
G75*
G02*
X240830000Y-88790000I0J-500000D01*
G01*
X226830000Y-75790000D02*
G75*
G02*
X226830000Y-74790000I0J500000D01*
G01*
X240830000Y-74790000D02*
G75*
G02*
X240830000Y-75790000I0J-500000D01*
G01*
X240830000Y-75790000D02*
X240830000Y-87790000D01*
X226830000Y-74790000D02*
X240830000Y-74790000D01*
X226830000Y-88790000D02*
X240830000Y-88790000D01*
X226830000Y-75790000D02*
X226830000Y-87790000D01*
X188830000Y-88790000D02*
G75*
G02*
X188830000Y-87790000I0J500000D01*
G01*
X202830000Y-87790000D02*
G75*
G02*
X202830000Y-88790000I0J-500000D01*
G01*
X188830000Y-75790000D02*
G75*
G02*
X188830000Y-74790000I0J500000D01*
G01*
X202830000Y-74790000D02*
G75*
G02*
X202830000Y-75790000I0J-500000D01*
G01*
X202830000Y-75790000D02*
X202830000Y-87790000D01*
X188830000Y-74790000D02*
X202830000Y-74790000D01*
X188830000Y-88790000D02*
X202830000Y-88790000D01*
X188830000Y-75790000D02*
X188830000Y-87790000D01*
X146070000Y-126960000D02*
G75*
G02*
X146070000Y-125960000I0J500000D01*
G01*
X160070000Y-125960000D02*
G75*
G02*
X160070000Y-126960000I0J-500000D01*
G01*
X146070000Y-113960000D02*
G75*
G02*
X146070000Y-112960000I0J500000D01*
G01*
X160070000Y-112960000D02*
G75*
G02*
X160070000Y-113960000I0J-500000D01*
G01*
X160070000Y-113960000D02*
X160070000Y-125960000D01*
X146070000Y-112960000D02*
X160070000Y-112960000D01*
X146070000Y-126960000D02*
X160070000Y-126960000D01*
X146070000Y-113960000D02*
X146070000Y-125960000D01*
X108070000Y-126960000D02*
G75*
G02*
X108070000Y-125960000I0J500000D01*
G01*
X122070000Y-125960000D02*
G75*
G02*
X122070000Y-126960000I0J-500000D01*
G01*
X108070000Y-113960000D02*
G75*
G02*
X108070000Y-112960000I0J500000D01*
G01*
X122070000Y-112960000D02*
G75*
G02*
X122070000Y-113960000I0J-500000D01*
G01*
X122070000Y-113960000D02*
X122070000Y-125960000D01*
X108070000Y-112960000D02*
X122070000Y-112960000D01*
X108070000Y-126960000D02*
X122070000Y-126960000D01*
X108070000Y-113960000D02*
X108070000Y-125960000D01*
X169830000Y-88790000D02*
G75*
G02*
X169830000Y-87790000I0J500000D01*
G01*
X183830000Y-87790000D02*
G75*
G02*
X183830000Y-88790000I0J-500000D01*
G01*
X169830000Y-75790000D02*
G75*
G02*
X169830000Y-74790000I0J500000D01*
G01*
X183830000Y-74790000D02*
G75*
G02*
X183830000Y-75790000I0J-500000D01*
G01*
X183830000Y-75790000D02*
X183830000Y-87790000D01*
X169830000Y-74790000D02*
X183830000Y-74790000D01*
X169830000Y-88790000D02*
X183830000Y-88790000D01*
X169830000Y-75790000D02*
X169830000Y-87790000D01*
X89070000Y-126960000D02*
G75*
G02*
X89070000Y-125960000I0J500000D01*
G01*
X103070000Y-125960000D02*
G75*
G02*
X103070000Y-126960000I0J-500000D01*
G01*
X89070000Y-113960000D02*
G75*
G02*
X89070000Y-112960000I0J500000D01*
G01*
X103070000Y-112960000D02*
G75*
G02*
X103070000Y-113960000I0J-500000D01*
G01*
X103070000Y-113960000D02*
X103070000Y-125960000D01*
X89070000Y-112960000D02*
X103070000Y-112960000D01*
X89070000Y-126960000D02*
X103070000Y-126960000D01*
X89070000Y-113960000D02*
X89070000Y-125960000D01*
X93830000Y-88790000D02*
G75*
G02*
X93830000Y-87790000I0J500000D01*
G01*
X107830000Y-87790000D02*
G75*
G02*
X107830000Y-88790000I0J-500000D01*
G01*
X93830000Y-75790000D02*
G75*
G02*
X93830000Y-74790000I0J500000D01*
G01*
X107830000Y-74790000D02*
G75*
G02*
X107830000Y-75790000I0J-500000D01*
G01*
X107830000Y-75790000D02*
X107830000Y-87790000D01*
X93830000Y-74790000D02*
X107830000Y-74790000D01*
X93830000Y-88790000D02*
X107830000Y-88790000D01*
X93830000Y-75790000D02*
X93830000Y-87790000D01*
X84370000Y-69690000D02*
G75*
G02*
X84370000Y-68690000I0J500000D01*
G01*
X98370000Y-68690000D02*
G75*
G02*
X98370000Y-69690000I0J-500000D01*
G01*
X84370000Y-56690000D02*
G75*
G02*
X84370000Y-55690000I0J500000D01*
G01*
X98370000Y-55690000D02*
G75*
G02*
X98370000Y-56690000I0J-500000D01*
G01*
X98370000Y-56690000D02*
X98370000Y-68690000D01*
X84370000Y-55690000D02*
X98370000Y-55690000D01*
X84370000Y-69690000D02*
X98370000Y-69690000D01*
X84370000Y-56690000D02*
X84370000Y-68690000D01*
X65370000Y-69690000D02*
G75*
G02*
X65370000Y-68690000I0J500000D01*
G01*
X79370000Y-68690000D02*
G75*
G02*
X79370000Y-69690000I0J-500000D01*
G01*
X65370000Y-56690000D02*
G75*
G02*
X65370000Y-55690000I0J500000D01*
G01*
X79370000Y-55690000D02*
G75*
G02*
X79370000Y-56690000I0J-500000D01*
G01*
X79370000Y-56690000D02*
X79370000Y-68690000D01*
X65370000Y-55690000D02*
X79370000Y-55690000D01*
X65370000Y-69690000D02*
X79370000Y-69690000D01*
X65370000Y-56690000D02*
X65370000Y-68690000D01*
X103370000Y-69690000D02*
G75*
G02*
X103370000Y-68690000I0J500000D01*
G01*
X117370000Y-68690000D02*
G75*
G02*
X117370000Y-69690000I0J-500000D01*
G01*
X103370000Y-56690000D02*
G75*
G02*
X103370000Y-55690000I0J500000D01*
G01*
X117370000Y-55690000D02*
G75*
G02*
X117370000Y-56690000I0J-500000D01*
G01*
X117370000Y-56690000D02*
X117370000Y-68690000D01*
X103370000Y-55690000D02*
X117370000Y-55690000D01*
X103370000Y-69690000D02*
X117370000Y-69690000D01*
X103370000Y-56690000D02*
X103370000Y-68690000D01*
X141370000Y-69690000D02*
G75*
G02*
X141370000Y-68690000I0J500000D01*
G01*
X155370000Y-68690000D02*
G75*
G02*
X155370000Y-69690000I0J-500000D01*
G01*
X141370000Y-56690000D02*
G75*
G02*
X141370000Y-55690000I0J500000D01*
G01*
X155370000Y-55690000D02*
G75*
G02*
X155370000Y-56690000I0J-500000D01*
G01*
X155370000Y-56690000D02*
X155370000Y-68690000D01*
X141370000Y-55690000D02*
X155370000Y-55690000D01*
X141370000Y-69690000D02*
X155370000Y-69690000D01*
X141370000Y-56690000D02*
X141370000Y-68690000D01*
X79610000Y-107860000D02*
G75*
G02*
X79610000Y-106860000I0J500000D01*
G01*
X93610000Y-106860000D02*
G75*
G02*
X93610000Y-107860000I0J-500000D01*
G01*
X79610000Y-94860000D02*
G75*
G02*
X79610000Y-93860000I0J500000D01*
G01*
X93610000Y-93860000D02*
G75*
G02*
X93610000Y-94860000I0J-500000D01*
G01*
X93610000Y-94860000D02*
X93610000Y-106860000D01*
X79610000Y-93860000D02*
X93610000Y-93860000D01*
X79610000Y-107860000D02*
X93610000Y-107860000D01*
X79610000Y-94860000D02*
X79610000Y-106860000D01*
X160370000Y-69690000D02*
G75*
G02*
X160370000Y-68690000I0J500000D01*
G01*
X174370000Y-68690000D02*
G75*
G02*
X174370000Y-69690000I0J-500000D01*
G01*
X160370000Y-56690000D02*
G75*
G02*
X160370000Y-55690000I0J500000D01*
G01*
X174370000Y-55690000D02*
G75*
G02*
X174370000Y-56690000I0J-500000D01*
G01*
X174370000Y-56690000D02*
X174370000Y-68690000D01*
X160370000Y-55690000D02*
X174370000Y-55690000D01*
X160370000Y-69690000D02*
X174370000Y-69690000D01*
X160370000Y-56690000D02*
X160370000Y-68690000D01*
X179370000Y-69690000D02*
G75*
G02*
X179370000Y-68690000I0J500000D01*
G01*
X193370000Y-68690000D02*
G75*
G02*
X193370000Y-69690000I0J-500000D01*
G01*
X179370000Y-56690000D02*
G75*
G02*
X179370000Y-55690000I0J500000D01*
G01*
X193370000Y-55690000D02*
G75*
G02*
X193370000Y-56690000I0J-500000D01*
G01*
X193370000Y-56690000D02*
X193370000Y-68690000D01*
X179370000Y-55690000D02*
X193370000Y-55690000D01*
X179370000Y-69690000D02*
X193370000Y-69690000D01*
X179370000Y-56690000D02*
X179370000Y-68690000D01*
X217370000Y-69690000D02*
G75*
G02*
X217370000Y-68690000I0J500000D01*
G01*
X231370000Y-68690000D02*
G75*
G02*
X231370000Y-69690000I0J-500000D01*
G01*
X217370000Y-56690000D02*
G75*
G02*
X217370000Y-55690000I0J500000D01*
G01*
X231370000Y-55690000D02*
G75*
G02*
X231370000Y-56690000I0J-500000D01*
G01*
X231370000Y-56690000D02*
X231370000Y-68690000D01*
X217370000Y-55690000D02*
X231370000Y-55690000D01*
X217370000Y-69690000D02*
X231370000Y-69690000D01*
X217370000Y-56690000D02*
X217370000Y-68690000D01*
X198370000Y-69690000D02*
G75*
G02*
X198370000Y-68690000I0J500000D01*
G01*
X212370000Y-68690000D02*
G75*
G02*
X212370000Y-69690000I0J-500000D01*
G01*
X198370000Y-56690000D02*
G75*
G02*
X198370000Y-55690000I0J500000D01*
G01*
X212370000Y-55690000D02*
G75*
G02*
X212370000Y-56690000I0J-500000D01*
G01*
X212370000Y-56690000D02*
X212370000Y-68690000D01*
X198370000Y-55690000D02*
X212370000Y-55690000D01*
X198370000Y-69690000D02*
X212370000Y-69690000D01*
X198370000Y-56690000D02*
X198370000Y-68690000D01*
X122370000Y-69690000D02*
G75*
G02*
X122370000Y-68690000I0J500000D01*
G01*
X136370000Y-68690000D02*
G75*
G02*
X136370000Y-69690000I0J-500000D01*
G01*
X122370000Y-56690000D02*
G75*
G02*
X122370000Y-55690000I0J500000D01*
G01*
X136370000Y-55690000D02*
G75*
G02*
X136370000Y-56690000I0J-500000D01*
G01*
X136370000Y-56690000D02*
X136370000Y-68690000D01*
X122370000Y-55690000D02*
X136370000Y-55690000D01*
X122370000Y-69690000D02*
X136370000Y-69690000D01*
X122370000Y-56690000D02*
X122370000Y-68690000D01*
X236370000Y-69690000D02*
G75*
G02*
X236370000Y-68690000I0J500000D01*
G01*
X250370000Y-68690000D02*
G75*
G02*
X250370000Y-69690000I0J-500000D01*
G01*
X236370000Y-56690000D02*
G75*
G02*
X236370000Y-55690000I0J500000D01*
G01*
X250370000Y-55690000D02*
G75*
G02*
X250370000Y-56690000I0J-500000D01*
G01*
X250370000Y-56690000D02*
X250370000Y-68690000D01*
X236370000Y-55690000D02*
X250370000Y-55690000D01*
X236370000Y-69690000D02*
X250370000Y-69690000D01*
X236370000Y-56690000D02*
X236370000Y-68690000D01*
M02*
