M48
; DRILL file {KiCad (5.1.10)-1} date 09/25/21 20:54:14
; FORMAT={-:-/ absolute / metric / decimal}
; #@! TF.CreationDate,2021-09-25T20:54:14-07:00
; #@! TF.GenerationSoftware,Kicad,Pcbnew,(5.1.10)-1
; #@! TF.FileFunction,Plated,1,2,PTH
FMAT,2
METRIC
T1C0.400
T2C0.800
T3C0.900
T4C1.000
T5C1.020
T6C1.500
%
G90
G05
T1
X81.488Y-40.83
X90.492Y-28.171
X97.079Y-39.343
X97.465Y-36.827
X98.735Y-37.886
X100.648Y-55.686
X104.231Y-54.856
X119.993Y-47.032
X139.739Y-46.867
X155.742Y-36.83
X219.211Y-25.321
X244.92Y-43.9
X269.92Y-41.4
X272.425Y-43.905
X275.42Y-38.9
X280.139Y-61.453
X280.495Y-59.854
X290.753Y-40.057
X310.92Y-47.9
X311.737Y-43.246
X312.048Y-68.876
X313.442Y-47.528
X314.639Y-47.448
X315.607Y-43.378
X315.66Y-59.248
X317.36Y-50.502
X320.12Y-53.505
X320.158Y-48.228
X321.294Y-79.66
X326.97Y-45.01
X330.366Y-45.023
X331.542Y-44.797
X333.231Y-44.4
T2
X37.22Y-60.425
X37.22Y-68.045
T3
X29.36Y-143.2
X31.9Y-143.2
T4
X65.16Y-25.5
X67.7Y-25.5
X70.24Y-25.5
X72.78Y-25.5
X75.32Y-25.5
X77.86Y-25.5
X80.4Y-25.5
X82.94Y-25.5
X85.48Y-25.5
X88.02Y-25.5
X90.56Y-25.5
X93.1Y-25.5
X95.64Y-25.5
X98.18Y-25.5
X270.9Y-45.82
X270.9Y-48.36
X273.44Y-45.82
X273.44Y-48.36
X275.98Y-45.82
X275.98Y-48.36
X278.52Y-45.82
X278.52Y-48.36
X281.06Y-45.82
X281.06Y-48.36
X283.6Y-45.82
X283.6Y-48.36
X286.14Y-45.82
X286.14Y-48.36
X288.68Y-45.82
X288.68Y-48.36
X291.22Y-45.82
X291.22Y-48.36
X293.76Y-45.82
X293.76Y-48.36
X296.3Y-45.82
X296.3Y-48.36
X298.84Y-45.82
X298.84Y-48.36
T5
X57.54Y-33.12
X57.54Y-50.9
X60.08Y-33.12
X60.08Y-50.9
X62.62Y-33.12
X62.62Y-50.9
X65.16Y-33.12
X65.16Y-50.9
X67.7Y-33.12
X67.7Y-50.9
X70.24Y-33.12
X70.24Y-50.9
X72.78Y-33.12
X72.78Y-50.9
X75.32Y-33.12
X75.32Y-50.9
X77.86Y-33.12
X77.86Y-50.9
X80.4Y-33.12
X80.4Y-50.9
X82.94Y-33.12
X82.94Y-50.9
X85.48Y-33.12
X85.48Y-50.9
X88.02Y-33.12
X88.02Y-50.9
X90.56Y-33.12
X90.56Y-50.9
X93.1Y-33.12
X93.1Y-50.9
X95.64Y-33.12
X95.64Y-50.9
X98.18Y-33.12
X98.18Y-50.9
X100.72Y-33.12
X100.72Y-50.9
X103.26Y-33.12
X103.26Y-50.9
X105.57Y-39.47
X105.57Y-42.01
X105.57Y-44.55
X105.8Y-33.12
X105.8Y-50.9
T6
X49.95Y-61.52
X54.71Y-80.62
X56.3Y-58.98
X56.99Y-99.69
X61.06Y-78.08
X61.8Y-118.79
X63.34Y-97.15
X68.15Y-116.25
X68.95Y-61.52
X75.3Y-58.98
X78.41Y-80.62
X83.19Y-99.69
X84.76Y-78.08
X87.95Y-61.52
X89.54Y-97.15
X92.65Y-118.79
X94.3Y-58.98
X97.41Y-80.62
X99.0Y-116.25
X102.19Y-99.69
X103.76Y-78.08
X106.95Y-61.52
X108.54Y-97.15
X111.65Y-118.79
X113.3Y-58.98
X116.41Y-80.62
X118.0Y-116.25
X121.19Y-99.69
X122.76Y-78.08
X125.95Y-61.52
X127.54Y-97.15
X130.65Y-118.79
X132.3Y-58.98
X135.41Y-80.62
X137.0Y-116.25
X140.19Y-99.69
X141.76Y-78.08
X144.95Y-61.52
X146.54Y-97.15
X149.65Y-118.79
X151.3Y-58.98
X154.41Y-80.62
X156.0Y-116.25
X159.19Y-99.69
X160.76Y-78.08
X163.95Y-61.52
X165.54Y-97.15
X168.65Y-118.79
X170.3Y-58.98
X173.41Y-80.62
X175.0Y-116.25
X178.19Y-99.69
X179.76Y-78.08
X182.95Y-61.52
X183.05Y-137.84
X184.54Y-97.15
X187.65Y-118.79
X189.3Y-58.98
X189.4Y-135.3
X192.41Y-80.62
X194.0Y-116.25
X197.19Y-99.69
X198.76Y-78.08
X201.95Y-61.52
X203.54Y-97.15
X206.65Y-118.79
X207.35Y-30.07
X208.3Y-58.98
X211.41Y-80.62
X213.0Y-116.25
X213.7Y-27.53
X216.19Y-99.69
X217.76Y-78.08
X220.95Y-61.52
X222.54Y-97.15
X225.65Y-118.79
X227.3Y-58.98
X230.41Y-80.62
X232.0Y-116.25
X235.19Y-99.69
X235.85Y-30.07
X236.76Y-78.08
X239.95Y-61.52
X241.54Y-97.15
X242.2Y-27.53
X244.65Y-118.79
X246.3Y-58.98
X249.41Y-80.62
X251.0Y-116.25
X254.19Y-99.69
X255.76Y-78.08
X258.95Y-61.52
X260.54Y-97.15
X263.65Y-118.79
X264.35Y-30.07
X265.3Y-58.98
X268.41Y-80.62
X270.0Y-116.25
X270.7Y-27.53
X273.19Y-99.69
X274.76Y-78.08
X277.95Y-61.52
X279.54Y-97.15
X284.3Y-58.98
X287.41Y-80.62
X289.775Y-118.79
X292.19Y-99.69
X292.85Y-30.07
X293.76Y-78.08
X296.125Y-116.25
X296.95Y-61.52
X298.54Y-97.15
X299.2Y-27.53
X303.3Y-58.98
X311.21Y-80.62
X313.59Y-99.69
X315.95Y-61.52
X315.95Y-118.79
X317.56Y-78.08
X319.94Y-97.15
X321.35Y-30.07
X322.3Y-58.98
X322.3Y-116.25
X327.7Y-27.53
T0
M30
