%TF.GenerationSoftware,KiCad,Pcbnew,(5.1.9)-1*%
%TF.CreationDate,2021-05-03T00:03:20-07:00*%
%TF.ProjectId,Atari130MX,41746172-6931-4333-904d-582e6b696361,rev?*%
%TF.SameCoordinates,Original*%
%TF.FileFunction,Copper,L1,Top*%
%TF.FilePolarity,Positive*%
%FSLAX46Y46*%
G04 Gerber Fmt 4.6, Leading zero omitted, Abs format (unit mm)*
G04 Created by KiCad (PCBNEW (5.1.9)-1) date 2021-05-03 00:03:20*
%MOMM*%
%LPD*%
G01*
G04 APERTURE LIST*
%TA.AperFunction,ComponentPad*%
%ADD10O,1.700000X1.700000*%
%TD*%
%TA.AperFunction,ComponentPad*%
%ADD11R,1.700000X1.700000*%
%TD*%
%TA.AperFunction,ComponentPad*%
%ADD12C,1.800000*%
%TD*%
%TA.AperFunction,ComponentPad*%
%ADD13R,1.800000X1.800000*%
%TD*%
%TA.AperFunction,ComponentPad*%
%ADD14C,2.200000*%
%TD*%
%TA.AperFunction,Conductor*%
%ADD15C,0.250000*%
%TD*%
G04 APERTURE END LIST*
D10*
%TO.P,J1,24*%
%TO.N,Net-(J1-Pad24)*%
X277560000Y-133350000D03*
%TO.P,J1,23*%
%TO.N,Net-(J1-Pad23)*%
X280100000Y-133350000D03*
%TO.P,J1,22*%
%TO.N,Net-(J1-Pad22)*%
X282640000Y-133350000D03*
%TO.P,J1,21*%
%TO.N,Net-(J1-Pad21)*%
X285180000Y-133350000D03*
%TO.P,J1,20*%
%TO.N,Net-(J1-Pad20)*%
X287720000Y-133350000D03*
%TO.P,J1,19*%
%TO.N,Net-(J1-Pad19)*%
X290260000Y-133350000D03*
%TO.P,J1,18*%
%TO.N,Net-(J1-Pad18)*%
X292800000Y-133350000D03*
%TO.P,J1,17*%
%TO.N,Net-(J1-Pad17)*%
X295340000Y-133350000D03*
%TO.P,J1,16*%
%TO.N,Net-(J1-Pad16)*%
X297880000Y-133350000D03*
%TO.P,J1,15*%
%TO.N,Net-(J1-Pad15)*%
X300420000Y-133350000D03*
%TO.P,J1,14*%
%TO.N,Net-(J1-Pad14)*%
X302960000Y-133350000D03*
%TO.P,J1,13*%
%TO.N,Net-(J1-Pad13)*%
X305500000Y-133350000D03*
%TO.P,J1,12*%
%TO.N,Net-(J1-Pad12)*%
X308040000Y-133350000D03*
%TO.P,J1,11*%
%TO.N,Net-(J1-Pad11)*%
X310580000Y-133350000D03*
%TO.P,J1,10*%
%TO.N,Net-(J1-Pad10)*%
X313120000Y-133350000D03*
%TO.P,J1,9*%
%TO.N,Net-(J1-Pad9)*%
X315660000Y-133350000D03*
%TO.P,J1,8*%
%TO.N,Net-(J1-Pad8)*%
X318200000Y-133350000D03*
%TO.P,J1,7*%
%TO.N,Net-(J1-Pad7)*%
X320740000Y-133350000D03*
%TO.P,J1,6*%
%TO.N,Net-(J1-Pad6)*%
X323280000Y-133350000D03*
%TO.P,J1,5*%
%TO.N,Net-(J1-Pad5)*%
X325820000Y-133350000D03*
%TO.P,J1,4*%
%TO.N,Net-(J1-Pad4)*%
X328360000Y-133350000D03*
%TO.P,J1,3*%
%TO.N,Net-(D1-Pad1)*%
X330900000Y-133350000D03*
%TO.P,J1,2*%
%TO.N,Net-(D1-Pad2)*%
X333440000Y-133350000D03*
D11*
%TO.P,J1,1*%
%TO.N,Net-(J1-Pad1)*%
X335980000Y-133350000D03*
%TD*%
D12*
%TO.P,D1,2*%
%TO.N,Net-(D1-Pad2)*%
X31900000Y-143510000D03*
D13*
%TO.P,D1,1*%
%TO.N,Net-(D1-Pad1)*%
X29360000Y-143510000D03*
%TD*%
D14*
%TO.P,SWZ1,2*%
%TO.N,Net-(J1-Pad6)*%
X92650000Y-118790000D03*
%TO.P,SWZ1,1*%
%TO.N,Net-(J1-Pad17)*%
X99000000Y-116250000D03*
%TD*%
%TO.P,SWY1,2*%
%TO.N,Net-(J1-Pad15)*%
X173410000Y-80620000D03*
%TO.P,SWY1,1*%
%TO.N,Net-(J1-Pad19)*%
X179760000Y-78080000D03*
%TD*%
%TO.P,SWX1,2*%
%TO.N,Net-(J1-Pad6)*%
X111650000Y-118790000D03*
%TO.P,SWX1,1*%
%TO.N,Net-(J1-Pad11)*%
X118000000Y-116250000D03*
%TD*%
%TO.P,SWW1,2*%
%TO.N,Net-(J1-Pad15)*%
X97410000Y-80620000D03*
%TO.P,SWW1,1*%
%TO.N,Net-(J1-Pad11)*%
X103760000Y-78080000D03*
%TD*%
%TO.P,SWV1,2*%
%TO.N,Net-(J1-Pad6)*%
X149650000Y-118790000D03*
%TO.P,SWV1,1*%
%TO.N,Net-(J1-Pad9)*%
X156000000Y-116250000D03*
%TD*%
%TO.P,SWU1,2*%
%TO.N,Net-(J1-Pad12)*%
X192410000Y-80620000D03*
%TO.P,SWU1,1*%
%TO.N,Net-(J1-Pad19)*%
X198760000Y-78080000D03*
%TD*%
%TO.P,SWTab1,2*%
%TO.N,Net-(J1-Pad15)*%
X54710000Y-80620000D03*
%TO.P,SWTab1,1*%
%TO.N,Net-(J1-Pad16)*%
X61060000Y-78080000D03*
%TD*%
%TO.P,SWT1,2*%
%TO.N,Net-(J1-Pad15)*%
X154410000Y-80620000D03*
%TO.P,SWT1,1*%
%TO.N,Net-(J1-Pad8)*%
X160760000Y-78080000D03*
%TD*%
%TO.P,SWStart1,1*%
%TO.N,Net-(J1-Pad21)*%
X242200000Y-27530000D03*
%TO.P,SWStart1,2*%
%TO.N,Net-(D1-Pad1)*%
X235850000Y-30070000D03*
%TD*%
%TO.P,SWStar1,2*%
%TO.N,Net-(J1-Pad7)*%
X292190000Y-99690000D03*
%TO.P,SWStar1,1*%
%TO.N,Net-(J1-Pad17)*%
X298540000Y-97150000D03*
%TD*%
%TO.P,SWSpc1,2*%
%TO.N,Net-(J1-Pad5)*%
X183050000Y-137840000D03*
%TO.P,SWSpc1,1*%
%TO.N,Net-(J1-Pad4)*%
X189400000Y-135300000D03*
%TD*%
%TO.P,SWSlash1,2*%
%TO.N,Net-(J1-Pad5)*%
X263650000Y-118790000D03*
%TO.P,SWSlash1,1*%
%TO.N,Net-(J1-Pad11)*%
X270000000Y-116250000D03*
%TD*%
%TO.P,SWSemi1,2*%
%TO.N,Net-(J1-Pad7)*%
X254190000Y-99690000D03*
%TO.P,SWSemi1,1*%
%TO.N,Net-(J1-Pad10)*%
X260540000Y-97150000D03*
%TD*%
%TO.P,SWSelect1,1*%
%TO.N,Net-(J1-Pad22)*%
X270700000Y-27530000D03*
%TO.P,SWSelect1,2*%
%TO.N,Net-(D1-Pad1)*%
X264350000Y-30070000D03*
%TD*%
%TO.P,SWS1,2*%
%TO.N,Net-(J1-Pad18)*%
X102190000Y-99690000D03*
%TO.P,SWS1,1*%
%TO.N,Net-(J1-Pad11)*%
X108540000Y-97150000D03*
%TD*%
%TO.P,SWRightSft1,2*%
%TO.N,Net-(J1-Pad6)*%
X289775000Y-118790000D03*
%TO.P,SWRightSft1,1*%
%TO.N,Net-(J1-Pad20)*%
X296125000Y-116250000D03*
%TD*%
%TO.P,SWRet1,2*%
%TO.N,Net-(J1-Pad12)*%
X311210000Y-80620000D03*
%TO.P,SWRet1,1*%
%TO.N,Net-(J1-Pad16)*%
X317560000Y-78080000D03*
%TD*%
%TO.P,SWReset1,1*%
%TO.N,Net-(J1-Pad24)*%
X327700000Y-27530000D03*
%TO.P,SWReset1,2*%
%TO.N,Net-(D1-Pad1)*%
X321350000Y-30070000D03*
%TD*%
%TO.P,SWR1,2*%
%TO.N,Net-(J1-Pad15)*%
X135410000Y-80620000D03*
%TO.P,SWR1,1*%
%TO.N,Net-(J1-Pad9)*%
X141760000Y-78080000D03*
%TD*%
%TO.P,SWQ1,2*%
%TO.N,Net-(J1-Pad15)*%
X78410000Y-80620000D03*
%TO.P,SWQ1,1*%
%TO.N,Net-(J1-Pad17)*%
X84760000Y-78080000D03*
%TD*%
%TO.P,SWPlus1,2*%
%TO.N,Net-(J1-Pad7)*%
X273190000Y-99690000D03*
%TO.P,SWPlus1,1*%
%TO.N,Net-(J1-Pad11)*%
X279540000Y-97150000D03*
%TD*%
%TO.P,SWPeriod1,2*%
%TO.N,Net-(J1-Pad5)*%
X244650000Y-118790000D03*
%TO.P,SWPeriod1,1*%
%TO.N,Net-(J1-Pad10)*%
X251000000Y-116250000D03*
%TD*%
%TO.P,SWP1,2*%
%TO.N,Net-(J1-Pad12)*%
X249410000Y-80620000D03*
%TO.P,SWP1,1*%
%TO.N,Net-(J1-Pad10)*%
X255760000Y-78080000D03*
%TD*%
%TO.P,SWOption1,1*%
%TO.N,Net-(J1-Pad23)*%
X299200000Y-27530000D03*
%TO.P,SWOption1,2*%
%TO.N,Net-(D1-Pad1)*%
X292850000Y-30070000D03*
%TD*%
%TO.P,SWO1,2*%
%TO.N,Net-(J1-Pad12)*%
X230410000Y-80620000D03*
%TO.P,SWO1,1*%
%TO.N,Net-(J1-Pad9)*%
X236760000Y-78080000D03*
%TD*%
%TO.P,SWN1,2*%
%TO.N,Net-(J1-Pad5)*%
X187650000Y-118790000D03*
%TO.P,SWN1,1*%
%TO.N,Net-(J1-Pad19)*%
X194000000Y-116250000D03*
%TD*%
%TO.P,SWM1,2*%
%TO.N,Net-(J1-Pad5)*%
X206650000Y-118790000D03*
%TO.P,SWM1,1*%
%TO.N,Net-(J1-Pad8)*%
X213000000Y-116250000D03*
%TD*%
%TO.P,SWLT1,2*%
%TO.N,Net-(J1-Pad13)*%
X258950000Y-61520000D03*
%TO.P,SWLT1,1*%
%TO.N,Net-(J1-Pad11)*%
X265300000Y-58980000D03*
%TD*%
%TO.P,SWLeftSft1,2*%
%TO.N,Net-(J1-Pad6)*%
X61800000Y-118790000D03*
%TO.P,SWLeftSft1,1*%
%TO.N,Net-(J1-Pad20)*%
X68150000Y-116250000D03*
%TD*%
%TO.P,SWL1,2*%
%TO.N,Net-(J1-Pad7)*%
X235190000Y-99690000D03*
%TO.P,SWL1,1*%
%TO.N,Net-(J1-Pad9)*%
X241540000Y-97150000D03*
%TD*%
%TO.P,SWK1,2*%
%TO.N,Net-(J1-Pad7)*%
X216190000Y-99690000D03*
%TO.P,SWK1,1*%
%TO.N,Net-(J1-Pad8)*%
X222540000Y-97150000D03*
%TD*%
%TO.P,SWJ1,2*%
%TO.N,Net-(J1-Pad7)*%
X197190000Y-99690000D03*
%TO.P,SWJ1,1*%
%TO.N,Net-(J1-Pad4)*%
X203540000Y-97150000D03*
%TD*%
%TO.P,SWInv1,2*%
%TO.N,Net-(J1-Pad5)*%
X315950000Y-118790000D03*
%TO.P,SWInv1,1*%
%TO.N,Net-(J1-Pad17)*%
X322300000Y-116250000D03*
%TD*%
%TO.P,SWI1,2*%
%TO.N,Net-(J1-Pad12)*%
X211410000Y-80620000D03*
%TO.P,SWI1,1*%
%TO.N,Net-(J1-Pad8)*%
X217760000Y-78080000D03*
%TD*%
%TO.P,SWHlp1,1*%
%TO.N,Net-(J1-Pad4)*%
X213700000Y-27530000D03*
%TO.P,SWHlp1,2*%
%TO.N,Net-(J1-Pad6)*%
X207350000Y-30070000D03*
%TD*%
%TO.P,SWH1,2*%
%TO.N,Net-(J1-Pad18)*%
X178190000Y-99690000D03*
%TO.P,SWH1,1*%
%TO.N,Net-(J1-Pad4)*%
X184540000Y-97150000D03*
%TD*%
%TO.P,SWGT1,2*%
%TO.N,Net-(J1-Pad13)*%
X277950000Y-61520000D03*
%TO.P,SWGT1,1*%
%TO.N,Net-(J1-Pad17)*%
X284300000Y-58980000D03*
%TD*%
%TO.P,SWG1,2*%
%TO.N,Net-(J1-Pad18)*%
X159190000Y-99690000D03*
%TO.P,SWG1,1*%
%TO.N,Net-(J1-Pad8)*%
X165540000Y-97150000D03*
%TD*%
%TO.P,SWF1,2*%
%TO.N,Net-(J1-Pad18)*%
X140190000Y-99690000D03*
%TO.P,SWF1,1*%
%TO.N,Net-(J1-Pad9)*%
X146540000Y-97150000D03*
%TD*%
%TO.P,SWEsc1,2*%
%TO.N,Net-(J1-Pad14)*%
X49950000Y-61520000D03*
%TO.P,SWEsc1,1*%
%TO.N,Net-(J1-Pad16)*%
X56300000Y-58980000D03*
%TD*%
%TO.P,SWEqual1,2*%
%TO.N,Net-(J1-Pad12)*%
X287410000Y-80620000D03*
%TO.P,SWEqual1,1*%
%TO.N,Net-(J1-Pad17)*%
X293760000Y-78080000D03*
%TD*%
%TO.P,SWE1,2*%
%TO.N,Net-(J1-Pad15)*%
X116410000Y-80620000D03*
%TO.P,SWE1,1*%
%TO.N,Net-(J1-Pad10)*%
X122760000Y-78080000D03*
%TD*%
%TO.P,SWDel1,2*%
%TO.N,Net-(J1-Pad13)*%
X296950000Y-61520000D03*
%TO.P,SWDel1,1*%
%TO.N,Net-(J1-Pad16)*%
X303300000Y-58980000D03*
%TD*%
%TO.P,SWDash1,2*%
%TO.N,Net-(J1-Pad12)*%
X268410000Y-80620000D03*
%TO.P,SWDash1,1*%
%TO.N,Net-(J1-Pad11)*%
X274760000Y-78080000D03*
%TD*%
%TO.P,SWD1,2*%
%TO.N,Net-(J1-Pad18)*%
X121190000Y-99690000D03*
%TO.P,SWD1,1*%
%TO.N,Net-(J1-Pad10)*%
X127540000Y-97150000D03*
%TD*%
%TO.P,SWCtl1,2*%
%TO.N,Net-(J1-Pad7)*%
X56990000Y-99690000D03*
%TO.P,SWCtl1,1*%
%TO.N,Net-(J1-Pad20)*%
X63340000Y-97150000D03*
%TD*%
%TO.P,SWCps1,2*%
%TO.N,Net-(J1-Pad18)*%
X313590000Y-99690000D03*
%TO.P,SWCps1,1*%
%TO.N,Net-(J1-Pad16)*%
X319940000Y-97150000D03*
%TD*%
%TO.P,SWComma1,2*%
%TO.N,Net-(J1-Pad5)*%
X225650000Y-118790000D03*
%TO.P,SWComma1,1*%
%TO.N,Net-(J1-Pad9)*%
X232000000Y-116250000D03*
%TD*%
%TO.P,SWC1,2*%
%TO.N,Net-(J1-Pad6)*%
X130650000Y-118790000D03*
%TO.P,SWC1,1*%
%TO.N,Net-(J1-Pad10)*%
X137000000Y-116250000D03*
%TD*%
%TO.P,SWBrk1,2*%
%TO.N,Net-(J1-Pad13)*%
X315950000Y-61520000D03*
%TO.P,SWBrk1,1*%
%TO.N,Net-(J1-Pad20)*%
X322300000Y-58980000D03*
%TD*%
%TO.P,SWB1,2*%
%TO.N,Net-(J1-Pad6)*%
X168650000Y-118790000D03*
%TO.P,SWB1,1*%
%TO.N,Net-(J1-Pad8)*%
X175000000Y-116250000D03*
%TD*%
%TO.P,SWA1,2*%
%TO.N,Net-(J1-Pad18)*%
X83190000Y-99690000D03*
%TO.P,SWA1,1*%
%TO.N,Net-(J1-Pad17)*%
X89540000Y-97150000D03*
%TD*%
%TO.P,SW9,2*%
%TO.N,Net-(J1-Pad13)*%
X220950000Y-61520000D03*
%TO.P,SW9,1*%
%TO.N,Net-(J1-Pad9)*%
X227300000Y-58980000D03*
%TD*%
%TO.P,SW8,2*%
%TO.N,Net-(J1-Pad13)*%
X201950000Y-61520000D03*
%TO.P,SW8,1*%
%TO.N,Net-(J1-Pad8)*%
X208300000Y-58980000D03*
%TD*%
%TO.P,SW7,2*%
%TO.N,Net-(J1-Pad13)*%
X182950000Y-61520000D03*
%TO.P,SW7,1*%
%TO.N,Net-(J1-Pad19)*%
X189300000Y-58980000D03*
%TD*%
%TO.P,SW6,2*%
%TO.N,Net-(J1-Pad14)*%
X163950000Y-61520000D03*
%TO.P,SW6,1*%
%TO.N,Net-(J1-Pad19)*%
X170300000Y-58980000D03*
%TD*%
%TO.P,SW5,2*%
%TO.N,Net-(J1-Pad14)*%
X144950000Y-61520000D03*
%TO.P,SW5,1*%
%TO.N,Net-(J1-Pad8)*%
X151300000Y-58980000D03*
%TD*%
%TO.P,SW4,2*%
%TO.N,Net-(J1-Pad14)*%
X125950000Y-61520000D03*
%TO.P,SW4,1*%
%TO.N,Net-(J1-Pad9)*%
X132300000Y-58980000D03*
%TD*%
%TO.P,SW3,2*%
%TO.N,Net-(J1-Pad14)*%
X106950000Y-61520000D03*
%TO.P,SW3,1*%
%TO.N,Net-(J1-Pad10)*%
X113300000Y-58980000D03*
%TD*%
%TO.P,SW2,2*%
%TO.N,Net-(J1-Pad14)*%
X87950000Y-61520000D03*
%TO.P,SW2,1*%
%TO.N,Net-(J1-Pad11)*%
X94300000Y-58980000D03*
%TD*%
%TO.P,SW1,2*%
%TO.N,Net-(J1-Pad14)*%
X68950000Y-61520000D03*
%TO.P,SW1,1*%
%TO.N,Net-(J1-Pad17)*%
X75300000Y-58980000D03*
%TD*%
%TO.P,SW0,2*%
%TO.N,Net-(J1-Pad13)*%
X239950000Y-61520000D03*
%TO.P,SW0,1*%
%TO.N,Net-(J1-Pad10)*%
X246300000Y-58980000D03*
%TD*%
D15*
%TO.N,Net-(D1-Pad2)*%
X333440000Y-133350000D02*
X332264700Y-133350000D01*
X31900000Y-143510000D02*
X113248300Y-143510000D01*
X113248300Y-143510000D02*
X120370900Y-136387400D01*
X120370900Y-136387400D02*
X187994100Y-136387400D01*
X187994100Y-136387400D02*
X188356700Y-136750000D01*
X188356700Y-136750000D02*
X329232000Y-136750000D01*
X329232000Y-136750000D02*
X332264700Y-133717300D01*
X332264700Y-133717300D02*
X332264700Y-133350000D01*
%TO.N,Net-(D1-Pad1)*%
X264350000Y-30070000D02*
X292850000Y-30070000D01*
X235850000Y-30070000D02*
X264350000Y-30070000D01*
X292850000Y-30070000D02*
X321350000Y-30070000D01*
%TO.N,Net-(J1-Pad20)*%
X287720000Y-133350000D02*
X286544700Y-133350000D01*
X286544700Y-133350000D02*
X286544700Y-132982700D01*
X286544700Y-132982700D02*
X282916700Y-129354700D01*
X282916700Y-129354700D02*
X81254700Y-129354700D01*
X81254700Y-129354700D02*
X68150000Y-116250000D01*
%TO.N,Net-(J1-Pad19)*%
X289084700Y-133350000D02*
X289084700Y-132982700D01*
X289084700Y-132982700D02*
X284556000Y-128454000D01*
X284556000Y-128454000D02*
X206204000Y-128454000D01*
X206204000Y-128454000D02*
X194000000Y-116250000D01*
X290260000Y-133350000D02*
X289084700Y-133350000D01*
X179760000Y-58980000D02*
X170300000Y-58980000D01*
X189300000Y-58980000D02*
X179760000Y-58980000D01*
X179760000Y-58980000D02*
X179760000Y-78080000D01*
%TO.N,Net-(J1-Pad18)*%
X313590000Y-99690000D02*
X309149800Y-95249800D01*
X309149800Y-95249800D02*
X208933600Y-95249800D01*
X208933600Y-95249800D02*
X205386000Y-98797400D01*
X205386000Y-98797400D02*
X200992600Y-98797400D01*
X200992600Y-98797400D02*
X198648600Y-101141400D01*
X198648600Y-101141400D02*
X186443700Y-101141400D01*
X186443700Y-101141400D02*
X184992300Y-99690000D01*
X184992300Y-99690000D02*
X178190000Y-99690000D01*
X159190000Y-99690000D02*
X178190000Y-99690000D01*
X121190000Y-99690000D02*
X102190000Y-99690000D01*
X140190000Y-99690000D02*
X121190000Y-99690000D01*
X140190000Y-99690000D02*
X159190000Y-99690000D01*
%TO.N,Net-(J1-Pad17)*%
X298540000Y-97150000D02*
X303200000Y-97150000D01*
X303200000Y-97150000D02*
X322300000Y-116250000D01*
X99000000Y-106610000D02*
X204942000Y-106610000D01*
X204942000Y-106610000D02*
X215851800Y-95700200D01*
X215851800Y-95700200D02*
X297090200Y-95700200D01*
X297090200Y-95700200D02*
X298540000Y-97150000D01*
X296515300Y-133350000D02*
X296515300Y-133717400D01*
X296515300Y-133717400D02*
X297816500Y-135018600D01*
X297816500Y-135018600D02*
X323318500Y-135018600D01*
X323318500Y-135018600D02*
X324489700Y-133847400D01*
X324489700Y-133847400D02*
X324489700Y-118439700D01*
X324489700Y-118439700D02*
X322300000Y-116250000D01*
X99000000Y-106610000D02*
X89540000Y-97150000D01*
X99000000Y-116250000D02*
X99000000Y-106610000D01*
X295340000Y-133350000D02*
X296515300Y-133350000D01*
X293760000Y-78080000D02*
X293760000Y-68440000D01*
X293760000Y-68440000D02*
X284300000Y-58980000D01*
%TO.N,Net-(J1-Pad16)*%
X319940000Y-97150000D02*
X319940000Y-80460000D01*
X319940000Y-80460000D02*
X317560000Y-78080000D01*
X295496200Y-58980000D02*
X295496200Y-62161900D01*
X295496200Y-62161900D02*
X311414300Y-78080000D01*
X311414300Y-78080000D02*
X317560000Y-78080000D01*
X56300000Y-58980000D02*
X57766000Y-57514000D01*
X57766000Y-57514000D02*
X294030200Y-57514000D01*
X294030200Y-57514000D02*
X295496200Y-58980000D01*
X303300000Y-58980000D02*
X295496200Y-58980000D01*
%TO.N,Net-(J1-Pad15)*%
X135410000Y-80620000D02*
X116410000Y-80620000D01*
X154410000Y-80620000D02*
X135410000Y-80620000D01*
X78410000Y-80620000D02*
X97410000Y-80620000D01*
X54710000Y-80620000D02*
X78410000Y-80620000D01*
X154410000Y-80620000D02*
X173410000Y-80620000D01*
%TO.N,Net-(J1-Pad14)*%
X68950000Y-61520000D02*
X49950000Y-61520000D01*
X87950000Y-61520000D02*
X68950000Y-61520000D01*
X163950000Y-61520000D02*
X144950000Y-61520000D01*
X87950000Y-61520000D02*
X106950000Y-61520000D01*
%TO.N,Net-(J1-Pad13)*%
X315950000Y-61520000D02*
X296950000Y-61520000D01*
X277950000Y-61520000D02*
X258950000Y-61520000D01*
X239950000Y-61520000D02*
X220950000Y-61520000D01*
X258950000Y-61520000D02*
X239950000Y-61520000D01*
X220950000Y-61520000D02*
X201950000Y-61520000D01*
X182950000Y-61520000D02*
X201950000Y-61520000D01*
%TO.N,Net-(J1-Pad12)*%
X287410000Y-80620000D02*
X268410000Y-80620000D01*
X311210000Y-80620000D02*
X287410000Y-80620000D01*
X249410000Y-80620000D02*
X230410000Y-80620000D01*
X230410000Y-80620000D02*
X211410000Y-80620000D01*
X249410000Y-80620000D02*
X268410000Y-80620000D01*
X211410000Y-80620000D02*
X192410000Y-80620000D01*
%TO.N,Net-(J1-Pad11)*%
X310580000Y-133350000D02*
X309404700Y-133350000D01*
X309404700Y-133350000D02*
X309404700Y-132982700D01*
X309404700Y-132982700D02*
X292672000Y-116250000D01*
X292672000Y-116250000D02*
X270000000Y-116250000D01*
X270000000Y-116250000D02*
X268554600Y-116250000D01*
X268554600Y-116250000D02*
X261126900Y-123677700D01*
X261126900Y-123677700D02*
X205086000Y-123677700D01*
X205086000Y-123677700D02*
X195782600Y-114374300D01*
X195782600Y-114374300D02*
X180100700Y-114374300D01*
X180100700Y-114374300D02*
X176794100Y-117680900D01*
X176794100Y-117680900D02*
X174415100Y-117680900D01*
X174415100Y-117680900D02*
X174015300Y-117281100D01*
X174015300Y-117281100D02*
X156984700Y-117281100D01*
X156984700Y-117281100D02*
X156590500Y-117675300D01*
X156590500Y-117675300D02*
X155409500Y-117675300D01*
X155409500Y-117675300D02*
X155010800Y-117276600D01*
X155010800Y-117276600D02*
X137989200Y-117276600D01*
X137989200Y-117276600D02*
X137590500Y-117675300D01*
X137590500Y-117675300D02*
X136409500Y-117675300D01*
X136409500Y-117675300D02*
X134984200Y-116250000D01*
X134984200Y-116250000D02*
X118000000Y-116250000D01*
X103760000Y-78080000D02*
X103760000Y-92370000D01*
X103760000Y-92370000D02*
X108540000Y-97150000D01*
%TO.N,Net-(J1-Pad10)*%
X251000000Y-116250000D02*
X247773400Y-113023400D01*
X247773400Y-113023400D02*
X140226600Y-113023400D01*
X140226600Y-113023400D02*
X137000000Y-116250000D01*
X113300000Y-58980000D02*
X113300000Y-68620000D01*
X113300000Y-68620000D02*
X122760000Y-78080000D01*
%TO.N,Net-(J1-Pad9)*%
X232000000Y-116250000D02*
X229223700Y-113473700D01*
X229223700Y-113473700D02*
X158776300Y-113473700D01*
X158776300Y-113473700D02*
X156000000Y-116250000D01*
X132300000Y-58980000D02*
X132300000Y-68620000D01*
X132300000Y-68620000D02*
X141760000Y-78080000D01*
%TO.N,Net-(J1-Pad8)*%
X213000000Y-116250000D02*
X210674000Y-113924000D01*
X210674000Y-113924000D02*
X177326000Y-113924000D01*
X177326000Y-113924000D02*
X175000000Y-116250000D01*
%TO.N,Net-(J1-Pad7)*%
X197190000Y-99690000D02*
X196739700Y-99239700D01*
X196739700Y-99239700D02*
X180458500Y-99239700D01*
X180458500Y-99239700D02*
X179469800Y-98251000D01*
X179469800Y-98251000D02*
X177089000Y-98251000D01*
X177089000Y-98251000D02*
X176724400Y-98615600D01*
X176724400Y-98615600D02*
X160834400Y-98615600D01*
X160834400Y-98615600D02*
X160467800Y-98249000D01*
X160467800Y-98249000D02*
X158091000Y-98249000D01*
X158091000Y-98249000D02*
X157724400Y-98615600D01*
X157724400Y-98615600D02*
X141834400Y-98615600D01*
X141834400Y-98615600D02*
X141467800Y-98249000D01*
X141467800Y-98249000D02*
X139091000Y-98249000D01*
X139091000Y-98249000D02*
X138733200Y-98606800D01*
X138733200Y-98606800D02*
X124054600Y-98606800D01*
X124054600Y-98606800D02*
X123698600Y-98250800D01*
X123698600Y-98250800D02*
X112332900Y-98250800D01*
X112332900Y-98250800D02*
X111975900Y-98607800D01*
X111975900Y-98607800D02*
X106655600Y-98607800D01*
X106655600Y-98607800D02*
X103738300Y-95690500D01*
X103738300Y-95690500D02*
X60989500Y-95690500D01*
X60989500Y-95690500D02*
X56990000Y-99690000D01*
X320740000Y-133350000D02*
X320740000Y-132174700D01*
X320740000Y-132174700D02*
X317431800Y-128866500D01*
X317431800Y-128866500D02*
X317431800Y-118239100D01*
X317431800Y-118239100D02*
X298882700Y-99690000D01*
X298882700Y-99690000D02*
X292190000Y-99690000D01*
X273190000Y-99690000D02*
X292190000Y-99690000D01*
X254190000Y-99690000D02*
X273190000Y-99690000D01*
X235190000Y-99690000D02*
X254190000Y-99690000D01*
X216190000Y-99690000D02*
X235190000Y-99690000D01*
%TO.N,Net-(J1-Pad6)*%
X289775000Y-119454100D02*
X289775000Y-118790000D01*
X322104700Y-133350000D02*
X322104700Y-133717300D01*
X322104700Y-133717300D02*
X321276900Y-134545100D01*
X321276900Y-134545100D02*
X305024800Y-134545100D01*
X305024800Y-134545100D02*
X304230000Y-133750300D01*
X304230000Y-133750300D02*
X304230000Y-132864000D01*
X304230000Y-132864000D02*
X298020400Y-126654400D01*
X298020400Y-126654400D02*
X295550300Y-126654400D01*
X295550300Y-126654400D02*
X289775000Y-120879100D01*
X289775000Y-120879100D02*
X289775000Y-119454100D01*
X289775000Y-119454100D02*
X274597500Y-119454100D01*
X274597500Y-119454100D02*
X269923500Y-124128100D01*
X269923500Y-124128100D02*
X204674500Y-124128100D01*
X204674500Y-124128100D02*
X195371000Y-114824600D01*
X195371000Y-114824600D02*
X185023700Y-114824600D01*
X185023700Y-114824600D02*
X181058300Y-118790000D01*
X181058300Y-118790000D02*
X168650000Y-118790000D01*
X323280000Y-133350000D02*
X322104700Y-133350000D01*
X149650000Y-118790000D02*
X168650000Y-118790000D01*
X130650000Y-118790000D02*
X149650000Y-118790000D01*
X111650000Y-118790000D02*
X130650000Y-118790000D01*
X111650000Y-118790000D02*
X92650000Y-118790000D01*
%TO.N,Net-(J1-Pad5)*%
X315950000Y-118790000D02*
X311974900Y-114814900D01*
X311974900Y-114814900D02*
X267625100Y-114814900D01*
X267625100Y-114814900D02*
X263650000Y-118790000D01*
X244650000Y-118790000D02*
X263650000Y-118790000D01*
X225650000Y-118790000D02*
X244650000Y-118790000D01*
%TO.N,Net-(J1-Pad4)*%
X189400000Y-135300000D02*
X189568900Y-135468900D01*
X189568900Y-135468900D02*
X325433100Y-135468900D01*
X325433100Y-135468900D02*
X327184700Y-133717300D01*
X327184700Y-133717300D02*
X327184700Y-133350000D01*
X328360000Y-133350000D02*
X327184700Y-133350000D01*
X184540000Y-97150000D02*
X203540000Y-97150000D01*
%TD*%
M02*
