M48
; DRILL file {KiCad (5.1.9)-1} date 05/03/21 00:03:27
; FORMAT={-:-/ absolute / inch / decimal}
; #@! TF.CreationDate,2021-05-03T00:03:27-07:00
; #@! TF.GenerationSoftware,Kicad,Pcbnew,(5.1.9)-1
; #@! TF.FileFunction,Plated,1,2,PTH
FMAT,2
INCH
T1C0.0354
T2C0.0394
T3C0.0591
%
G90
G05
T1
X1.1559Y-5.65
X1.2559Y-5.65
T2
X10.9276Y-5.25
X11.0276Y-5.25
X11.1276Y-5.25
X11.2276Y-5.25
X11.3276Y-5.25
X11.4276Y-5.25
X11.5276Y-5.25
X11.6276Y-5.25
X11.7276Y-5.25
X11.8276Y-5.25
X11.9276Y-5.25
X12.0276Y-5.25
X12.1276Y-5.25
X12.2276Y-5.25
X12.3276Y-5.25
X12.4276Y-5.25
X12.5276Y-5.25
X12.6276Y-5.25
X12.7276Y-5.25
X12.8276Y-5.25
X12.9276Y-5.25
X13.0276Y-5.25
X13.1276Y-5.25
X13.2276Y-5.25
T3
X1.9665Y-2.422
X2.1539Y-3.174
X2.2165Y-2.322
X2.2437Y-3.9248
X2.4039Y-3.074
X2.4331Y-4.6768
X2.4937Y-3.8248
X2.6831Y-4.5768
X2.7146Y-2.422
X2.9646Y-2.322
X3.087Y-3.174
X3.2752Y-3.9248
X3.337Y-3.074
X3.4626Y-2.422
X3.5252Y-3.8248
X3.6476Y-4.6768
X3.7126Y-2.322
X3.835Y-3.174
X3.8976Y-4.5768
X4.0232Y-3.9248
X4.085Y-3.074
X4.2106Y-2.422
X4.2732Y-3.8248
X4.3957Y-4.6768
X4.4606Y-2.322
X4.5831Y-3.174
X4.6457Y-4.5768
X4.7713Y-3.9248
X4.8331Y-3.074
X4.9587Y-2.422
X5.0213Y-3.8248
X5.1437Y-4.6768
X5.2087Y-2.322
X5.3311Y-3.174
X5.3937Y-4.5768
X5.5193Y-3.9248
X5.5811Y-3.074
X5.7067Y-2.422
X5.7693Y-3.8248
X5.8917Y-4.6768
X5.9567Y-2.322
X6.0791Y-3.174
X6.1417Y-4.5768
X6.2673Y-3.9248
X6.3291Y-3.074
X6.4547Y-2.422
X6.5173Y-3.8248
X6.6398Y-4.6768
X6.7047Y-2.322
X6.8272Y-3.174
X6.8898Y-4.5768
X7.0154Y-3.9248
X7.0772Y-3.074
X7.2028Y-2.422
X7.2067Y-5.4268
X7.2654Y-3.8248
X7.3878Y-4.6768
X7.4528Y-2.322
X7.4567Y-5.3268
X7.5752Y-3.174
X7.6378Y-4.5768
X7.7634Y-3.9248
X7.8252Y-3.074
X7.9508Y-2.422
X8.0134Y-3.8248
X8.1358Y-4.6768
X8.1634Y-1.1839
X8.2008Y-2.322
X8.3232Y-3.174
X8.3858Y-4.5768
X8.4134Y-1.0839
X8.5114Y-3.9248
X8.5732Y-3.074
X8.6988Y-2.422
X8.7614Y-3.8248
X8.8839Y-4.6768
X8.9488Y-2.322
X9.0713Y-3.174
X9.1339Y-4.5768
X9.2594Y-3.9248
X9.2854Y-1.1839
X9.3213Y-3.074
X9.4469Y-2.422
X9.5094Y-3.8248
X9.5354Y-1.0839
X9.6319Y-4.6768
X9.6969Y-2.322
X9.8193Y-3.174
X9.8819Y-4.5768
X10.0075Y-3.9248
X10.0693Y-3.074
X10.1949Y-2.422
X10.2575Y-3.8248
X10.3799Y-4.6768
X10.4075Y-1.1839
X10.4449Y-2.322
X10.5673Y-3.174
X10.6299Y-4.5768
X10.6575Y-1.0839
X10.7555Y-3.9248
X10.8173Y-3.074
X10.9429Y-2.422
X11.0055Y-3.8248
X11.1929Y-2.322
X11.3154Y-3.174
X11.4085Y-4.6768
X11.5035Y-3.9248
X11.5295Y-1.1839
X11.5654Y-3.074
X11.6585Y-4.5768
X11.6909Y-2.422
X11.7535Y-3.8248
X11.7795Y-1.0839
X11.9409Y-2.322
X12.2524Y-3.174
X12.3461Y-3.9248
X12.439Y-2.422
X12.439Y-4.6768
X12.5024Y-3.074
X12.5961Y-3.8248
X12.6516Y-1.1839
X12.689Y-2.322
X12.689Y-4.5768
X12.9016Y-1.0839
T0
M30
