M48
; DRILL file {KiCad (5.1.10)-1} date 10/24/21 19:08:43
; FORMAT={-:-/ absolute / metric / decimal}
; #@! TF.CreationDate,2021-10-24T19:08:43-07:00
; #@! TF.GenerationSoftware,Kicad,Pcbnew,(5.1.10)-1
; #@! TF.FileFunction,Plated,1,2,PTH
FMAT,2
METRIC
T1C0.400
T2C0.762
T3C1.000
%
G90
G05
T1
X109.66Y-22.86
T2
X102.4Y-28.04
X104.94Y-28.04
X107.48Y-28.04
X110.02Y-28.04
X112.56Y-28.04
X115.1Y-28.04
X117.64Y-28.04
X120.18Y-28.04
X122.72Y-28.04
X125.26Y-28.04
X127.8Y-28.04
X130.34Y-28.04
X132.88Y-28.04
X135.42Y-28.04
X137.96Y-28.04
X140.5Y-28.04
X143.04Y-28.04
X145.58Y-28.04
X148.12Y-28.04
X150.66Y-28.04
X153.2Y-28.04
X155.74Y-28.04
X158.28Y-28.04
X160.82Y-28.04
T3
X116.33Y-18.74
X116.33Y-21.28
X118.87Y-18.74
X118.87Y-21.28
X121.41Y-18.74
X121.41Y-21.28
X123.95Y-18.74
X123.95Y-21.28
X126.49Y-18.74
X126.49Y-21.28
X129.03Y-18.74
X129.03Y-21.28
X131.57Y-18.74
X131.57Y-21.28
X134.11Y-18.74
X134.11Y-21.28
X136.65Y-18.74
X136.65Y-21.28
X139.19Y-18.74
X139.19Y-21.28
X141.73Y-18.74
X141.73Y-21.28
X144.27Y-18.74
X144.27Y-21.28
T0
M30
