G04 #@! TF.GenerationSoftware,KiCad,Pcbnew,(6.0.1)*
G04 #@! TF.CreationDate,2022-02-12T19:55:07-08:00*
G04 #@! TF.ProjectId,AtariChocXE,41746172-6943-4686-9f63-58452e6b6963,10*
G04 #@! TF.SameCoordinates,Original*
G04 #@! TF.FileFunction,Soldermask,Top*
G04 #@! TF.FilePolarity,Negative*
%FSLAX46Y46*%
G04 Gerber Fmt 4.6, Leading zero omitted, Abs format (unit mm)*
G04 Created by KiCad (PCBNEW (6.0.1)) date 2022-02-12 19:55:07*
%MOMM*%
%LPD*%
G01*
G04 APERTURE LIST*
G04 Aperture macros list*
%AMRoundRect*
0 Rectangle with rounded corners*
0 $1 Rounding radius*
0 $2 $3 $4 $5 $6 $7 $8 $9 X,Y pos of 4 corners*
0 Add a 4 corners polygon primitive as box body*
4,1,4,$2,$3,$4,$5,$6,$7,$8,$9,$2,$3,0*
0 Add four circle primitives for the rounded corners*
1,1,$1+$1,$2,$3*
1,1,$1+$1,$4,$5*
1,1,$1+$1,$6,$7*
1,1,$1+$1,$8,$9*
0 Add four rect primitives between the rounded corners*
20,1,$1+$1,$2,$3,$4,$5,0*
20,1,$1+$1,$4,$5,$6,$7,0*
20,1,$1+$1,$6,$7,$8,$9,0*
20,1,$1+$1,$8,$9,$2,$3,0*%
G04 Aperture macros list end*
%ADD10O,12.000000X16.500000*%
%ADD11C,1.900000*%
%ADD12C,3.400000*%
%ADD13C,2.200000*%
%ADD14O,7.000000X10.000000*%
%ADD15C,5.500000*%
%ADD16R,1.800000X1.800000*%
%ADD17C,1.800000*%
%ADD18C,1.600000*%
%ADD19O,1.600000X1.600000*%
%ADD20C,3.200000*%
%ADD21R,1.700000X1.700000*%
%ADD22O,1.700000X1.700000*%
%ADD23R,1.300000X1.300000*%
%ADD24C,1.300000*%
%ADD25C,2.340000*%
%ADD26RoundRect,0.250000X-0.600000X0.600000X-0.600000X-0.600000X0.600000X-0.600000X0.600000X0.600000X0*%
%ADD27C,1.700000*%
G04 APERTURE END LIST*
D10*
X263360000Y-140380000D03*
D11*
X192360000Y-140380000D03*
X181360000Y-140380000D03*
D12*
X186860000Y-140380000D03*
D10*
X110360000Y-140380000D03*
D13*
X186860000Y-146280000D03*
X181860000Y-144180000D03*
D12*
X65610000Y-121330000D03*
D11*
X60110000Y-121330000D03*
X71110000Y-121330000D03*
D13*
X65610000Y-127230000D03*
X60610000Y-125130000D03*
D11*
X55300000Y-102230000D03*
D12*
X60800000Y-102230000D03*
D14*
X49200000Y-102230000D03*
D11*
X66300000Y-102230000D03*
D14*
X72400000Y-102230000D03*
D13*
X60800000Y-108130000D03*
X55800000Y-106030000D03*
D11*
X288085000Y-121330000D03*
D12*
X293585000Y-121330000D03*
D14*
X281985000Y-121330000D03*
D11*
X299085000Y-121330000D03*
D14*
X305185000Y-121330000D03*
D13*
X293585000Y-127230000D03*
X288585000Y-125130000D03*
D12*
X315020000Y-83160000D03*
D11*
X320520000Y-83160000D03*
X309520000Y-83160000D03*
D13*
X315020000Y-89060000D03*
X310020000Y-86960000D03*
D12*
X58520000Y-83160000D03*
D11*
X64020000Y-83160000D03*
X53020000Y-83160000D03*
D13*
X58520000Y-89060000D03*
X53520000Y-86960000D03*
D11*
X216660000Y-32610000D03*
X205660000Y-32610000D03*
D15*
X222560000Y-28110000D03*
D12*
X211160000Y-32610000D03*
D15*
X200160000Y-36610000D03*
D13*
X211160000Y-38510000D03*
X206160000Y-36410000D03*
D11*
X302160000Y-32610000D03*
X291160000Y-32610000D03*
D15*
X308060000Y-28110000D03*
D12*
X296660000Y-32610000D03*
D15*
X285660000Y-36610000D03*
D13*
X296660000Y-38510000D03*
X291660000Y-36410000D03*
D11*
X273660000Y-32610000D03*
X262660000Y-32610000D03*
D15*
X279560000Y-28110000D03*
D12*
X268160000Y-32610000D03*
D15*
X257160000Y-36610000D03*
D13*
X268160000Y-38510000D03*
X263160000Y-36410000D03*
D11*
X245160000Y-32610000D03*
X234160000Y-32610000D03*
D15*
X251060000Y-28110000D03*
D12*
X239660000Y-32610000D03*
D15*
X228660000Y-36610000D03*
D13*
X239660000Y-38510000D03*
X234660000Y-36410000D03*
D11*
X102360000Y-32610000D03*
X91360000Y-32610000D03*
D15*
X108260000Y-28110000D03*
D12*
X96860000Y-32610000D03*
D15*
X85860000Y-36610000D03*
D13*
X96860000Y-38510000D03*
X91860000Y-36410000D03*
D11*
X130935000Y-32610000D03*
X119935000Y-32610000D03*
D15*
X136835000Y-28110000D03*
D12*
X125435000Y-32610000D03*
D15*
X114435000Y-36610000D03*
D13*
X125435000Y-38510000D03*
X120435000Y-36410000D03*
D11*
X159510000Y-32610000D03*
X148510000Y-32610000D03*
D15*
X165410000Y-28110000D03*
D12*
X154010000Y-32610000D03*
D15*
X143010000Y-36610000D03*
D13*
X154010000Y-38510000D03*
X149010000Y-36410000D03*
D11*
X188085000Y-32610000D03*
X177085000Y-32610000D03*
D15*
X193985000Y-28110000D03*
D12*
X182585000Y-32610000D03*
D15*
X171585000Y-36610000D03*
D13*
X182585000Y-38510000D03*
X177585000Y-36410000D03*
D11*
X330660000Y-32610000D03*
X319660000Y-32610000D03*
D15*
X336560000Y-28110000D03*
D12*
X325160000Y-32610000D03*
D15*
X314160000Y-36610000D03*
D13*
X325160000Y-38510000D03*
X320160000Y-36410000D03*
D12*
X317400000Y-102230000D03*
D11*
X311900000Y-102230000D03*
X322900000Y-102230000D03*
D13*
X317400000Y-108130000D03*
X312400000Y-106030000D03*
D12*
X87000000Y-102230000D03*
D11*
X92500000Y-102230000D03*
X81500000Y-102230000D03*
D13*
X87000000Y-108130000D03*
X82000000Y-106030000D03*
D12*
X172460000Y-121330000D03*
D11*
X177960000Y-121330000D03*
X166960000Y-121330000D03*
D13*
X172460000Y-127230000D03*
X167460000Y-125130000D03*
D12*
X134460000Y-121330000D03*
D11*
X139960000Y-121330000D03*
X128960000Y-121330000D03*
D13*
X134460000Y-127230000D03*
X129460000Y-125130000D03*
D12*
X229460000Y-121330000D03*
D11*
X234960000Y-121330000D03*
X223960000Y-121330000D03*
D13*
X229460000Y-127230000D03*
X224460000Y-125130000D03*
D12*
X125000000Y-102230000D03*
D11*
X130500000Y-102230000D03*
X119500000Y-102230000D03*
D13*
X125000000Y-108130000D03*
X120000000Y-106030000D03*
D12*
X144000000Y-102230000D03*
D11*
X149500000Y-102230000D03*
X138500000Y-102230000D03*
D13*
X144000000Y-108130000D03*
X139000000Y-106030000D03*
D12*
X163000000Y-102230000D03*
D11*
X168500000Y-102230000D03*
X157500000Y-102230000D03*
D13*
X163000000Y-108130000D03*
X158000000Y-106030000D03*
D12*
X182000000Y-102230000D03*
D11*
X187500000Y-102230000D03*
X176500000Y-102230000D03*
D13*
X182000000Y-108130000D03*
X177000000Y-106030000D03*
D12*
X319760000Y-121330000D03*
D11*
X325260000Y-121330000D03*
X314260000Y-121330000D03*
D13*
X319760000Y-127230000D03*
X314760000Y-125130000D03*
D12*
X201000000Y-102230000D03*
D11*
X206500000Y-102230000D03*
X195500000Y-102230000D03*
D13*
X201000000Y-108130000D03*
X196000000Y-106030000D03*
D12*
X220000000Y-102230000D03*
D11*
X225500000Y-102230000D03*
X214500000Y-102230000D03*
D13*
X220000000Y-108130000D03*
X215000000Y-106030000D03*
D12*
X239000000Y-102230000D03*
D11*
X244500000Y-102230000D03*
X233500000Y-102230000D03*
D13*
X239000000Y-108130000D03*
X234000000Y-106030000D03*
D12*
X210460000Y-121330000D03*
D11*
X215960000Y-121330000D03*
X204960000Y-121330000D03*
D13*
X210460000Y-127230000D03*
X205460000Y-125130000D03*
D12*
X191460000Y-121330000D03*
D11*
X196960000Y-121330000D03*
X185960000Y-121330000D03*
D13*
X191460000Y-127230000D03*
X186460000Y-125130000D03*
D12*
X248460000Y-121330000D03*
D11*
X253960000Y-121330000D03*
X242960000Y-121330000D03*
D13*
X248460000Y-127230000D03*
X243460000Y-125130000D03*
D12*
X277000000Y-102230000D03*
D11*
X282500000Y-102230000D03*
X271500000Y-102230000D03*
D13*
X277000000Y-108130000D03*
X272000000Y-106030000D03*
D12*
X106000000Y-102230000D03*
D11*
X111500000Y-102230000D03*
X100500000Y-102230000D03*
D13*
X106000000Y-108130000D03*
X101000000Y-106030000D03*
D12*
X258000000Y-102230000D03*
D11*
X263500000Y-102230000D03*
X252500000Y-102230000D03*
D13*
X258000000Y-108130000D03*
X253000000Y-106030000D03*
D12*
X267460000Y-121330000D03*
D11*
X272960000Y-121330000D03*
X261960000Y-121330000D03*
D13*
X267460000Y-127230000D03*
X262460000Y-125130000D03*
D12*
X153460000Y-121330000D03*
D11*
X158960000Y-121330000D03*
X147960000Y-121330000D03*
D13*
X153460000Y-127230000D03*
X148460000Y-125130000D03*
D12*
X115460000Y-121330000D03*
D11*
X120960000Y-121330000D03*
X109960000Y-121330000D03*
D13*
X115460000Y-127230000D03*
X110460000Y-125130000D03*
D12*
X96460000Y-121330000D03*
D11*
X101960000Y-121330000D03*
X90960000Y-121330000D03*
D13*
X96460000Y-127230000D03*
X91460000Y-125130000D03*
D12*
X101220000Y-83160000D03*
D11*
X106720000Y-83160000D03*
X95720000Y-83160000D03*
D13*
X101220000Y-89060000D03*
X96220000Y-86960000D03*
D12*
X177220000Y-83160000D03*
D11*
X182720000Y-83160000D03*
X171720000Y-83160000D03*
D13*
X177220000Y-89060000D03*
X172220000Y-86960000D03*
D12*
X158220000Y-83160000D03*
D11*
X163720000Y-83160000D03*
X152720000Y-83160000D03*
D13*
X158220000Y-89060000D03*
X153220000Y-86960000D03*
D12*
X196220000Y-83160000D03*
D11*
X201720000Y-83160000D03*
X190720000Y-83160000D03*
D13*
X196220000Y-89060000D03*
X191220000Y-86960000D03*
D12*
X253220000Y-83160000D03*
D11*
X258720000Y-83160000D03*
X247720000Y-83160000D03*
D13*
X253220000Y-89060000D03*
X248220000Y-86960000D03*
D12*
X82220000Y-83160000D03*
D11*
X87720000Y-83160000D03*
X76720000Y-83160000D03*
D13*
X82220000Y-89060000D03*
X77220000Y-86960000D03*
D12*
X215220000Y-83160000D03*
D11*
X220720000Y-83160000D03*
X209720000Y-83160000D03*
D13*
X215220000Y-89060000D03*
X210220000Y-86960000D03*
D12*
X291220000Y-83160000D03*
D11*
X296720000Y-83160000D03*
X285720000Y-83160000D03*
D13*
X291220000Y-89060000D03*
X286220000Y-86960000D03*
D12*
X272220000Y-83160000D03*
D11*
X277720000Y-83160000D03*
X266720000Y-83160000D03*
D13*
X272220000Y-89060000D03*
X267220000Y-86960000D03*
D12*
X139220000Y-83160000D03*
D11*
X144720000Y-83160000D03*
X133720000Y-83160000D03*
D13*
X139220000Y-89060000D03*
X134220000Y-86960000D03*
D12*
X120220000Y-83160000D03*
D11*
X125720000Y-83160000D03*
X114720000Y-83160000D03*
D13*
X120220000Y-89060000D03*
X115220000Y-86960000D03*
D12*
X234220000Y-83160000D03*
D11*
X239720000Y-83160000D03*
X228720000Y-83160000D03*
D13*
X234220000Y-89060000D03*
X229220000Y-86960000D03*
D12*
X53760000Y-64060000D03*
D11*
X59260000Y-64060000D03*
X48260000Y-64060000D03*
D13*
X53760000Y-69960000D03*
X48760000Y-67860000D03*
D12*
X205760000Y-64060000D03*
D11*
X211260000Y-64060000D03*
X200260000Y-64060000D03*
D13*
X205760000Y-69960000D03*
X200760000Y-67860000D03*
D12*
X167760000Y-64060000D03*
D11*
X173260000Y-64060000D03*
X162260000Y-64060000D03*
D13*
X167760000Y-69960000D03*
X162760000Y-67860000D03*
D12*
X224760000Y-64060000D03*
D11*
X230260000Y-64060000D03*
X219260000Y-64060000D03*
D13*
X224760000Y-69960000D03*
X219760000Y-67860000D03*
D12*
X243760000Y-64060000D03*
D11*
X249260000Y-64060000D03*
X238260000Y-64060000D03*
D13*
X243760000Y-69960000D03*
X238760000Y-67860000D03*
D12*
X148760000Y-64060000D03*
D11*
X154260000Y-64060000D03*
X143260000Y-64060000D03*
D13*
X148760000Y-69960000D03*
X143760000Y-67860000D03*
D12*
X300760000Y-64060000D03*
D11*
X306260000Y-64060000D03*
X295260000Y-64060000D03*
D13*
X300760000Y-69960000D03*
X295760000Y-67860000D03*
D12*
X110760000Y-64060000D03*
D11*
X116260000Y-64060000D03*
X105260000Y-64060000D03*
D13*
X110760000Y-69960000D03*
X105760000Y-67860000D03*
D12*
X281760000Y-64060000D03*
D11*
X287260000Y-64060000D03*
X276260000Y-64060000D03*
D13*
X281760000Y-69960000D03*
X276760000Y-67860000D03*
D12*
X129760000Y-64060000D03*
D11*
X135260000Y-64060000D03*
X124260000Y-64060000D03*
D13*
X129760000Y-69960000D03*
X124760000Y-67860000D03*
D12*
X72760000Y-64060000D03*
D11*
X78260000Y-64060000D03*
X67260000Y-64060000D03*
D13*
X72760000Y-69960000D03*
X67760000Y-67860000D03*
D12*
X262760000Y-64060000D03*
D11*
X268260000Y-64060000D03*
X257260000Y-64060000D03*
D13*
X262760000Y-69960000D03*
X257760000Y-67860000D03*
D12*
X319760000Y-64060000D03*
D11*
X325260000Y-64060000D03*
X314260000Y-64060000D03*
D13*
X319760000Y-69960000D03*
X314760000Y-67860000D03*
D12*
X91760000Y-64060000D03*
D11*
X97260000Y-64060000D03*
X86260000Y-64060000D03*
D13*
X91760000Y-69960000D03*
X86760000Y-67860000D03*
D12*
X186760000Y-64060000D03*
D11*
X192260000Y-64060000D03*
X181260000Y-64060000D03*
D13*
X186760000Y-69960000D03*
X181760000Y-67860000D03*
D12*
X296000000Y-102230000D03*
D11*
X301500000Y-102230000D03*
X290500000Y-102230000D03*
D13*
X296000000Y-108130000D03*
X291000000Y-106030000D03*
D16*
X29360000Y-143200000D03*
D17*
X31900000Y-143200000D03*
D18*
X80145000Y-55216000D03*
D19*
X72525000Y-55216000D03*
D20*
X37220000Y-139800000D03*
X336940000Y-40740000D03*
X336940000Y-139800000D03*
X185810000Y-44550000D03*
X31750000Y-40740000D03*
D17*
X98130000Y-27920000D03*
D16*
X95590000Y-27920000D03*
D17*
X126700000Y-27920000D03*
D16*
X124160000Y-27920000D03*
D17*
X155280000Y-27920000D03*
D16*
X152740000Y-27920000D03*
D17*
X183855000Y-27920000D03*
D16*
X181315000Y-27920000D03*
D17*
X212437620Y-27920000D03*
D16*
X209897620Y-27920000D03*
D17*
X240931340Y-27920000D03*
D16*
X238391340Y-27920000D03*
D17*
X269440300Y-27920000D03*
D16*
X266900300Y-27920000D03*
D17*
X297928940Y-27920000D03*
D16*
X295388940Y-27920000D03*
D17*
X326430280Y-27920000D03*
D16*
X323890280Y-27920000D03*
X52490000Y-59360000D03*
D17*
X55030000Y-59360000D03*
D16*
X71490000Y-59360000D03*
D17*
X74030000Y-59360000D03*
D16*
X90490000Y-59360000D03*
D17*
X93030000Y-59360000D03*
D16*
X109490000Y-59360000D03*
D17*
X112030000Y-59360000D03*
D16*
X128490000Y-59360000D03*
D17*
X131030000Y-59360000D03*
D16*
X147490000Y-59360000D03*
D17*
X150030000Y-59360000D03*
D16*
X166490000Y-59360000D03*
D17*
X169030000Y-59360000D03*
D16*
X185490000Y-59360000D03*
D17*
X188030000Y-59360000D03*
D16*
X204490000Y-59360000D03*
D17*
X207030000Y-59360000D03*
D16*
X223490000Y-59360000D03*
D17*
X226030000Y-59360000D03*
D16*
X242490000Y-59360000D03*
D17*
X245030000Y-59360000D03*
D16*
X261490000Y-59360000D03*
D17*
X264030000Y-59360000D03*
D16*
X280490000Y-59360000D03*
D17*
X283030000Y-59360000D03*
D16*
X299490000Y-59360000D03*
D17*
X302030000Y-59360000D03*
D16*
X318490000Y-59360000D03*
D17*
X321030000Y-59360000D03*
D16*
X57240000Y-78460000D03*
D17*
X59780000Y-78460000D03*
D16*
X80940000Y-78460000D03*
D17*
X83480000Y-78460000D03*
D16*
X99940000Y-78460000D03*
D17*
X102480000Y-78460000D03*
D16*
X118940000Y-78460000D03*
D17*
X121480000Y-78460000D03*
D16*
X137940000Y-78460000D03*
D17*
X140480000Y-78460000D03*
D16*
X156940000Y-78460000D03*
D17*
X159480000Y-78460000D03*
D16*
X175940000Y-78460000D03*
D17*
X178480000Y-78460000D03*
D16*
X194940000Y-78460000D03*
D17*
X197480000Y-78460000D03*
D16*
X213940000Y-78460000D03*
D17*
X216480000Y-78460000D03*
D16*
X232940000Y-78460000D03*
D17*
X235480000Y-78460000D03*
D16*
X251940000Y-78460000D03*
D17*
X254480000Y-78460000D03*
D16*
X270940000Y-78460000D03*
D17*
X273480000Y-78460000D03*
D16*
X289940000Y-78460000D03*
D17*
X292480000Y-78460000D03*
D16*
X85740000Y-97530000D03*
D17*
X88280000Y-97530000D03*
D16*
X123740000Y-97530000D03*
D17*
X126280000Y-97530000D03*
D16*
X142740000Y-97530000D03*
D17*
X145280000Y-97530000D03*
D16*
X161740000Y-97530000D03*
D17*
X164280000Y-97530000D03*
D16*
X180740000Y-97530000D03*
D17*
X183280000Y-97530000D03*
D16*
X199740000Y-97530000D03*
D17*
X202280000Y-97530000D03*
D16*
X218740000Y-97530000D03*
D17*
X221280000Y-97530000D03*
D16*
X256740000Y-97530000D03*
D17*
X259280000Y-97530000D03*
D16*
X275740000Y-97530000D03*
D17*
X278280000Y-97530000D03*
D16*
X294740000Y-97530000D03*
D17*
X297280000Y-97530000D03*
D16*
X316140000Y-97530000D03*
D17*
X318680000Y-97530000D03*
D21*
X26732000Y-53048000D03*
D22*
X29272000Y-53048000D03*
D21*
X26732000Y-56938000D03*
D22*
X29272000Y-56938000D03*
D23*
X26502000Y-47342000D03*
D24*
X27772000Y-46072000D03*
X29042000Y-47342000D03*
D18*
X103464000Y-43510000D03*
D19*
X111084000Y-43510000D03*
X103464000Y-46710000D03*
D18*
X111084000Y-46710000D03*
D19*
X167218000Y-43532000D03*
D18*
X174838000Y-43532000D03*
D19*
X195920000Y-43532000D03*
D18*
X203540000Y-43532000D03*
X232242000Y-43532000D03*
D19*
X224622000Y-43532000D03*
D18*
X344002000Y-32102000D03*
D19*
X344002000Y-39722000D03*
D18*
X347304000Y-32102000D03*
D19*
X347304000Y-39722000D03*
D18*
X44790000Y-58264000D03*
D19*
X44790000Y-65884000D03*
D18*
X63840000Y-58264000D03*
D19*
X63840000Y-65884000D03*
D18*
X82890000Y-58264000D03*
D19*
X82890000Y-65884000D03*
D18*
X101940000Y-58264000D03*
D19*
X101940000Y-65884000D03*
D18*
X120990000Y-58264000D03*
D19*
X120990000Y-65884000D03*
D18*
X140040000Y-58264000D03*
D19*
X140040000Y-65884000D03*
D18*
X159090000Y-58264000D03*
D19*
X159090000Y-65884000D03*
D18*
X178140000Y-58264000D03*
D19*
X178140000Y-65884000D03*
D18*
X196936000Y-58264000D03*
D19*
X196936000Y-65884000D03*
D18*
X215986000Y-58264000D03*
D19*
X215986000Y-65884000D03*
D18*
X235036000Y-58264000D03*
D19*
X235036000Y-65884000D03*
D18*
X254086000Y-58264000D03*
D19*
X254086000Y-65884000D03*
D18*
X272882000Y-58264000D03*
D19*
X272882000Y-65884000D03*
D18*
X291932000Y-58264000D03*
D19*
X291932000Y-65884000D03*
D18*
X310982000Y-58264000D03*
D19*
X310982000Y-65884000D03*
D18*
X49870000Y-77314000D03*
D19*
X49870000Y-84934000D03*
D18*
X73492000Y-77314000D03*
D19*
X73492000Y-84934000D03*
D18*
X92542000Y-77314000D03*
D19*
X92542000Y-84934000D03*
D18*
X111592000Y-77314000D03*
D19*
X111592000Y-84934000D03*
D18*
X130388000Y-77314000D03*
D19*
X130388000Y-84934000D03*
D18*
X149438000Y-77314000D03*
D19*
X149438000Y-84934000D03*
D18*
X168488000Y-77314000D03*
D19*
X168488000Y-84934000D03*
D18*
X187538000Y-77314000D03*
D19*
X187538000Y-84934000D03*
D18*
X206588000Y-77314000D03*
D19*
X206588000Y-84934000D03*
D18*
X225384000Y-77314000D03*
D19*
X225384000Y-84934000D03*
D18*
X244434000Y-77314000D03*
D19*
X244434000Y-84934000D03*
D18*
X282534000Y-77314000D03*
D19*
X282534000Y-84934000D03*
D18*
X306410000Y-77314000D03*
D19*
X306410000Y-84934000D03*
D18*
X57490000Y-92554000D03*
D19*
X49870000Y-92554000D03*
D18*
X78318000Y-96364000D03*
D19*
X78318000Y-103984000D03*
D18*
X97368000Y-96364000D03*
D19*
X97368000Y-103984000D03*
D18*
X116164000Y-96364000D03*
D19*
X116164000Y-103984000D03*
D18*
X154264000Y-96364000D03*
D19*
X154264000Y-103984000D03*
D18*
X173314000Y-96364000D03*
D19*
X173314000Y-103984000D03*
D18*
X29860000Y-60510000D03*
D19*
X29860000Y-68130000D03*
D18*
X192364000Y-96364000D03*
D19*
X192364000Y-103984000D03*
D18*
X211160000Y-96364000D03*
D19*
X211160000Y-103984000D03*
D18*
X230210000Y-96364000D03*
D19*
X230210000Y-103984000D03*
D18*
X249260000Y-96364000D03*
D19*
X249260000Y-103984000D03*
D18*
X268310000Y-96364000D03*
D19*
X268310000Y-103984000D03*
D18*
X287360000Y-96364000D03*
D19*
X287360000Y-103984000D03*
D18*
X26560000Y-68110000D03*
D19*
X26560000Y-60490000D03*
D18*
X308696000Y-96364000D03*
D19*
X308696000Y-103984000D03*
D18*
X65872000Y-111858000D03*
D19*
X73492000Y-111858000D03*
D18*
X87716000Y-115414000D03*
D19*
X87716000Y-123034000D03*
D18*
X144866000Y-115414000D03*
D19*
X144866000Y-123034000D03*
D25*
X32598000Y-35658000D03*
X30098000Y-25658000D03*
X27598000Y-35658000D03*
D18*
X182712000Y-115414000D03*
D19*
X182712000Y-123034000D03*
D18*
X201762000Y-115414000D03*
D19*
X201762000Y-123034000D03*
D18*
X220812000Y-115414000D03*
D19*
X220812000Y-123034000D03*
D18*
X239862000Y-115414000D03*
D19*
X239862000Y-123034000D03*
D18*
X310982000Y-115414000D03*
D19*
X310982000Y-123034000D03*
D18*
X178140000Y-134464000D03*
D19*
X178140000Y-142084000D03*
D18*
X146390000Y-43532000D03*
D19*
X138770000Y-43532000D03*
D18*
X260690000Y-43532000D03*
D19*
X253070000Y-43532000D03*
D18*
X263484000Y-77314000D03*
D19*
X263484000Y-84934000D03*
D16*
X313740000Y-78460000D03*
D17*
X316280000Y-78460000D03*
D18*
X135214000Y-96364000D03*
D19*
X135214000Y-103984000D03*
D18*
X106766000Y-115414000D03*
D19*
X106766000Y-123034000D03*
D16*
X209190000Y-116630000D03*
D17*
X211730000Y-116630000D03*
D16*
X292290000Y-116630000D03*
D17*
X294830000Y-116630000D03*
D16*
X152190000Y-116630000D03*
D17*
X154730000Y-116630000D03*
D16*
X64340000Y-116630000D03*
D17*
X66880000Y-116630000D03*
D16*
X190190000Y-116630000D03*
D17*
X192730000Y-116630000D03*
D16*
X228190000Y-116630000D03*
D17*
X230730000Y-116630000D03*
D16*
X114190000Y-116630000D03*
D17*
X116730000Y-116630000D03*
D16*
X247190000Y-116630000D03*
D17*
X249730000Y-116630000D03*
D16*
X185590000Y-135680000D03*
D17*
X188130000Y-135680000D03*
D16*
X266190000Y-116630000D03*
D17*
X268730000Y-116630000D03*
D16*
X318490000Y-116630000D03*
D17*
X321030000Y-116630000D03*
D16*
X171190000Y-116630000D03*
D17*
X173730000Y-116630000D03*
D16*
X133190000Y-116630000D03*
D17*
X135730000Y-116630000D03*
D16*
X95190000Y-116630000D03*
D17*
X97730000Y-116630000D03*
D18*
X125816000Y-115414000D03*
D19*
X125816000Y-123034000D03*
D18*
X163662000Y-115414000D03*
D19*
X163662000Y-123034000D03*
D18*
X258658000Y-115414000D03*
D19*
X258658000Y-123034000D03*
D18*
X276184000Y-115414000D03*
D19*
X276184000Y-123034000D03*
D16*
X59540000Y-97530000D03*
D17*
X62080000Y-97530000D03*
D16*
X104740000Y-97530000D03*
D17*
X107280000Y-97530000D03*
D16*
X237740000Y-97530000D03*
D17*
X240280000Y-97530000D03*
D26*
X270900000Y-45820000D03*
D27*
X270900000Y-48360000D03*
X273440000Y-45820000D03*
X273440000Y-48360000D03*
X275980000Y-45820000D03*
X275980000Y-48360000D03*
X278520000Y-45820000D03*
X278520000Y-48360000D03*
X281060000Y-45820000D03*
X281060000Y-48360000D03*
X283600000Y-45820000D03*
X283600000Y-48360000D03*
X286140000Y-45820000D03*
X286140000Y-48360000D03*
X288680000Y-45820000D03*
X288680000Y-48360000D03*
X291220000Y-45820000D03*
X291220000Y-48360000D03*
X293760000Y-45820000D03*
X293760000Y-48360000D03*
X296300000Y-45820000D03*
X296300000Y-48360000D03*
X298840000Y-45820000D03*
X298840000Y-48360000D03*
D21*
X38440000Y-25500000D03*
D22*
X40980000Y-25500000D03*
X43520000Y-25500000D03*
X46060000Y-25500000D03*
X48600000Y-25500000D03*
X51140000Y-25500000D03*
X53680000Y-25500000D03*
X56220000Y-25500000D03*
X58760000Y-25500000D03*
X61300000Y-25500000D03*
X63840000Y-25500000D03*
X66380000Y-25500000D03*
X68920000Y-25500000D03*
X71460000Y-25500000D03*
X87740000Y-49480000D03*
X85200000Y-49480000D03*
D21*
X82660000Y-49480000D03*
D22*
X80120000Y-49480000D03*
X77580000Y-49480000D03*
X75040000Y-49480000D03*
X72500000Y-49480000D03*
D21*
X69960000Y-49480000D03*
D22*
X67420000Y-49480000D03*
X64880000Y-49480000D03*
X62340000Y-49480000D03*
X59800000Y-49480000D03*
D21*
X57260000Y-49480000D03*
D22*
X54720000Y-49480000D03*
X52180000Y-49480000D03*
X49640000Y-49480000D03*
X47100000Y-49480000D03*
D21*
X44560000Y-49480000D03*
D22*
X42020000Y-49480000D03*
X39480000Y-49480000D03*
X39480000Y-31700000D03*
X42020000Y-31700000D03*
D21*
X44560000Y-31700000D03*
D22*
X47100000Y-31700000D03*
X49640000Y-31700000D03*
X52180000Y-31700000D03*
X54720000Y-31700000D03*
D21*
X57260000Y-31700000D03*
D22*
X59800000Y-31700000D03*
X62340000Y-31700000D03*
X64880000Y-31700000D03*
X67420000Y-31700000D03*
D21*
X69960000Y-31700000D03*
D22*
X72500000Y-31700000D03*
X75040000Y-31700000D03*
X77580000Y-31700000D03*
X80120000Y-31700000D03*
D21*
X82660000Y-31700000D03*
D22*
X85200000Y-31700000D03*
X87740000Y-31700000D03*
X39710000Y-43130000D03*
D21*
X39710000Y-40590000D03*
D22*
X39710000Y-38050000D03*
M02*
