M48
; DRILL file {KiCad (6.0.10)} date Sat Jan 14 18:43:21 2023
; FORMAT={-:-/ absolute / metric / decimal}
; #@! TF.CreationDate,2023-01-14T18:43:21-08:00
; #@! TF.GenerationSoftware,Kicad,Pcbnew,(6.0.10)
; #@! TF.FileFunction,Plated,1,2,PTH
FMAT,2
METRIC
; #@! TA.AperFunction,Plated,PTH,ViaDrill
T1C0.400
; #@! TA.AperFunction,Plated,PTH,ComponentDrill
T2C0.750
; #@! TA.AperFunction,Plated,PTH,ComponentDrill
T3C0.900
; #@! TA.AperFunction,Plated,PTH,ComponentDrill
T4C1.000
; #@! TA.AperFunction,Plated,PTH,ComponentDrill
T5C1.200
; #@! TA.AperFunction,Plated,PTH,ComponentDrill
T6C1.500
%
G90
G05
T1
X46.228Y-76.708
X46.736Y-103.124
X52.959Y-110.363
X62.357Y-67.691
X62.611Y-80.772
X69.977Y-87.122
X70.612Y-76.327
X70.612Y-115.951
X72.898Y-104.267
X74.549Y-119.253
X78.994Y-94.107
X81.407Y-64.77
X88.392Y-119.507
X90.424Y-74.93
X91.186Y-86.995
X91.694Y-115.951
X92.964Y-80.645
X94.742Y-147.447
X95.25Y-93.98
X100.33Y-30.226
X100.838Y-64.77
X105.283Y-113.157
X110.109Y-75.057
X110.109Y-86.614
X110.744Y-26.035
X111.76Y-36.83
X114.173Y-94.107
X114.808Y-103.886
X117.983Y-138.557
X119.634Y-66.04
X124.079Y-147.447
X124.206Y-112.903
X129.032Y-75.057
X129.159Y-86.233
X129.286Y-93.853
X133.604Y-103.886
X137.287Y-32.004
X138.303Y-25.4
X138.938Y-65.278
X140.081Y-38.481
X143.256Y-113.284
X145.034Y-30.734
X148.209Y-75.057
X148.336Y-86.233
X148.463Y-132.715
X152.146Y-94.107
X152.781Y-103.378
X153.289Y-61.468
X155.194Y-144.272
X156.21Y-43.18
X157.099Y-49.276
X157.607Y-70.358
X162.052Y-81.026
X163.957Y-114.554
X164.592Y-134.366
X164.719Y-120.396
X167.259Y-75.057
X167.513Y-88.9
X168.275Y-25.654
X168.656Y-107.315
X168.783Y-37.846
X171.704Y-94.996
X171.704Y-103.124
X175.895Y-93.98
X176.276Y-70.993
X176.911Y-59.752
X178.816Y-64.389
X183.896Y-51.181
X183.896Y-66.421
X185.928Y-90.043
X187.96Y-83.185
X190.246Y-91.567
X190.627Y-48.26
X191.008Y-103.124
X191.135Y-107.95
X196.723Y-61.234
X197.739Y-25.527
X198.247Y-34.925
X198.501Y-112.776
X201.93Y-111.125
X202.057Y-132.715
X202.565Y-66.294
X202.692Y-44.45
X205.359Y-75.057
X206.502Y-93.98
X206.883Y-119.253
X208.28Y-100.076
X209.931Y-103.124
X212.979Y-93.98
X214.63Y-30.226
X214.884Y-65.278
X215.773Y-41.401
X219.075Y-40.767
X219.075Y-113.284
X219.329Y-139.446
X219.583Y-121.285
X224.155Y-75.057
X224.409Y-84.963
X225.298Y-24.765
X228.473Y-32.766
X228.6Y-94.107
X228.854Y-44.45
X228.854Y-103.632
X231.394Y-150.114
X233.807Y-65.913
X238.506Y-121.793
X238.633Y-113.157
X239.014Y-139.7
X243.332Y-75.184
X243.459Y-86.868
X243.713Y-131.826
X246.674Y-40.6
X247.015Y-94.107
X248.031Y-103.759
X250.698Y-32.131
X251.333Y-133.096
X251.968Y-25.146
X252.984Y-64.008
X254.635Y-47.498
X257.556Y-114.554
X257.556Y-121.412
X257.683Y-128.016
X262.636Y-87.376
X264.287Y-75.692
X267.081Y-103.632
X271.907Y-93.98
X272.034Y-53.467
X272.161Y-64.897
X276.225Y-30.861
X276.86Y-126.492
X278.892Y-116.205
X279.781Y-121.539
X281.94Y-25.781
X282.575Y-139.827
X283.083Y-76.073
X283.083Y-87.503
X285.75Y-31.877
X285.877Y-53.467
X286.512Y-107.188
X288.671Y-94.234
X291.084Y-67.31
X295.656Y-79.248
X296.926Y-69.723
X299.212Y-50.419
X299.212Y-52.959
X299.466Y-130.556
X299.974Y-30.734
X300.355Y-100.457
X302.373Y-47.148
X302.641Y-35.052
X302.641Y-72.644
X302.895Y-52.578
X303.149Y-83.947
X303.276Y-89.916
X304.409Y-36.703
X304.417Y-47.298
X304.419Y-121.412
X305.435Y-34.163
X305.562Y-52.832
X305.562Y-66.167
X306.197Y-54.805
X306.197Y-144.526
X306.548Y-47.15
X307.467Y-38.735
X307.848Y-98.679
X308.102Y-50.292
X309.06Y-47.14
X309.118Y-124.968
X309.499Y-31.877
X309.499Y-89.027
X310.007Y-114.681
X310.388Y-49.911
X310.515Y-136.906
X310.642Y-37.973
X311.658Y-36.068
X311.785Y-25.4
X311.824Y-47.296
X312.166Y-52.91
X312.42Y-50.165
X312.547Y-78.232
X313.944Y-41.402
X314.11Y-47.296
X314.135Y-139.382
X314.706Y-39.624
X315.097Y-47.453
X315.595Y-50.546
X315.595Y-52.959
X315.595Y-140.081
X315.976Y-70.993
X316.738Y-110.871
X317.246Y-67.564
X318.77Y-37.846
X319.913Y-72.771
X321.31Y-50.673
X322.326Y-67.945
X323.215Y-52.197
X325.882Y-58.674
X326.263Y-72.644
X327.152Y-69.215
X328.041Y-50.165
X328.282Y-52.765
X328.295Y-42.799
X329.438Y-45.339
X329.438Y-55.626
X329.819Y-53.721
X330.708Y-47.752
X331.216Y-35.179
X332.105Y-60.96
X332.74Y-54.356
T3
X29.36Y-143.2
X31.9Y-143.2
T4
X34.949Y-113.59
X34.964Y-90.984
X37.489Y-113.59
X37.504Y-90.984
X40.029Y-113.59
X40.044Y-90.984
X296.838Y-43.232
X296.838Y-45.772
X299.378Y-43.232
X299.378Y-45.772
X301.918Y-43.232
X301.918Y-45.772
X304.458Y-43.232
X304.458Y-45.772
X306.998Y-43.232
X306.998Y-45.772
X309.538Y-43.232
X309.538Y-45.772
X312.078Y-43.232
X312.078Y-45.772
X314.618Y-43.232
X314.618Y-45.772
X317.158Y-43.232
X317.158Y-45.772
X319.698Y-43.232
X319.698Y-45.772
X322.238Y-43.232
X322.238Y-45.772
X324.778Y-43.232
X324.778Y-45.772
X332.683Y-46.477
X332.683Y-49.017
T5
X51.22Y-69.14
X55.982Y-88.19
X58.364Y-107.24
X63.126Y-126.29
X70.27Y-69.14
X79.795Y-88.19
X84.557Y-107.24
X89.32Y-69.14
X94.082Y-37.69
X94.082Y-126.29
X98.845Y-88.19
X103.608Y-107.24
X108.37Y-69.14
X111.942Y-145.34
X113.132Y-126.29
X117.895Y-88.19
X122.657Y-37.69
X122.657Y-107.24
X127.42Y-69.14
X132.183Y-126.29
X136.945Y-88.19
X141.707Y-107.24
X146.47Y-69.14
X151.232Y-37.69
X151.232Y-126.29
X155.995Y-88.19
X160.757Y-107.24
X165.52Y-69.14
X170.282Y-126.29
X175.045Y-88.19
X179.808Y-37.69
X179.808Y-107.24
X184.57Y-69.14
X184.57Y-145.34
X189.332Y-126.29
X194.095Y-88.19
X198.857Y-107.24
X203.62Y-69.14
X208.382Y-37.69
X208.382Y-126.29
X213.145Y-88.19
X217.907Y-107.24
X222.67Y-69.14
X227.432Y-126.29
X232.195Y-88.19
X236.957Y-37.69
X236.957Y-107.24
X241.72Y-69.14
X246.482Y-126.29
X251.245Y-88.19
X256.007Y-107.24
X257.198Y-145.34
X260.77Y-69.14
X265.532Y-37.69
X265.532Y-126.29
X270.295Y-88.19
X275.058Y-107.24
X279.82Y-69.14
X289.345Y-88.19
X291.726Y-126.29
X294.107Y-107.24
X294.12Y-37.69
X296.33Y-61.52
X308.395Y-69.14
X312.999Y-90.095
X315.539Y-107.24
X317.92Y-126.29
X320.777Y-85.65
X322.683Y-37.69
X325.54Y-66.6
T6
X53.76Y-70.06
X58.523Y-89.11
X60.904Y-108.16
X65.666Y-127.21
X72.81Y-70.06
X82.335Y-89.11
X87.097Y-108.16
X91.86Y-70.06
X96.623Y-38.61
X96.623Y-127.21
X101.385Y-89.11
X106.147Y-108.16
X110.91Y-70.06
X114.482Y-146.26
X115.672Y-127.21
X120.435Y-89.11
X125.197Y-38.61
X125.197Y-108.16
X129.96Y-70.06
X134.722Y-127.21
X139.485Y-89.11
X144.248Y-108.16
X149.01Y-70.06
X153.772Y-38.61
X153.772Y-127.21
X158.535Y-89.11
X163.297Y-108.16
X168.06Y-70.06
X172.822Y-127.21
X177.585Y-89.11
X182.347Y-38.61
X182.347Y-108.16
X187.11Y-70.06
X187.11Y-146.26
X191.873Y-127.21
X196.635Y-89.11
X201.397Y-108.16
X206.16Y-70.06
X210.922Y-38.61
X210.922Y-127.21
X215.685Y-89.11
X220.447Y-108.16
X225.21Y-70.06
X229.972Y-127.21
X234.735Y-89.11
X239.498Y-38.61
X239.498Y-108.16
X244.26Y-70.06
X249.022Y-127.21
X253.785Y-89.11
X258.548Y-108.16
X259.738Y-146.26
X263.31Y-70.06
X268.072Y-38.61
X268.072Y-127.21
X272.835Y-89.11
X277.597Y-108.16
X282.36Y-70.06
X291.885Y-89.11
X294.266Y-127.21
X295.41Y-64.06
X296.647Y-108.16
X296.66Y-38.61
X310.935Y-70.06
X312.079Y-92.635
X318.079Y-108.16
X320.46Y-127.21
X321.697Y-83.11
X325.222Y-38.61
X326.46Y-64.06
T2
X52.49Y-59.23G85X52.49Y-58.73
G05
X55.03Y-59.23G85X55.03Y-58.73
G05
X57.252Y-78.28G85X57.252Y-77.78
G05
X59.634Y-97.33G85X59.634Y-96.83
G05
X59.792Y-78.28G85X59.792Y-77.78
G05
X62.174Y-97.33G85X62.174Y-96.83
G05
X64.396Y-116.38G85X64.396Y-115.88
G05
X66.936Y-116.38G85X66.936Y-115.88
G05
X71.54Y-59.23G85X71.54Y-58.73
G05
X74.08Y-59.23G85X74.08Y-58.73
G05
X81.065Y-78.28G85X81.065Y-77.78
G05
X83.605Y-78.28G85X83.605Y-77.78
G05
X85.828Y-97.33G85X85.828Y-96.83
G05
X88.367Y-97.33G85X88.367Y-96.83
G05
X90.59Y-59.23G85X90.59Y-58.73
G05
X93.13Y-59.23G85X93.13Y-58.73
G05
X95.352Y-27.78G85X95.352Y-27.28
G05
X95.352Y-116.38G85X95.352Y-115.88
G05
X97.892Y-27.78G85X97.892Y-27.28
G05
X97.892Y-116.38G85X97.892Y-115.88
G05
X100.115Y-78.28G85X100.115Y-77.78
G05
X102.655Y-78.28G85X102.655Y-77.78
G05
X104.877Y-97.33G85X104.877Y-96.83
G05
X107.417Y-97.33G85X107.417Y-96.83
G05
X109.64Y-59.23G85X109.64Y-58.73
G05
X112.18Y-59.23G85X112.18Y-58.73
G05
X113.212Y-135.43G85X113.212Y-134.93
G05
X114.402Y-116.38G85X114.402Y-115.88
G05
X115.752Y-135.43G85X115.752Y-134.93
G05
X116.942Y-116.38G85X116.942Y-115.88
G05
X119.165Y-78.28G85X119.165Y-77.78
G05
X121.705Y-78.28G85X121.705Y-77.78
G05
X123.927Y-27.78G85X123.927Y-27.28
G05
X123.927Y-97.33G85X123.927Y-96.83
G05
X126.468Y-27.78G85X126.468Y-27.28
G05
X126.468Y-97.33G85X126.468Y-96.83
G05
X128.69Y-59.23G85X128.69Y-58.73
G05
X131.23Y-59.23G85X131.23Y-58.73
G05
X133.452Y-116.38G85X133.452Y-115.88
G05
X135.993Y-116.38G85X135.993Y-115.88
G05
X138.215Y-78.28G85X138.215Y-77.78
G05
X140.755Y-78.28G85X140.755Y-77.78
G05
X142.977Y-97.33G85X142.977Y-96.83
G05
X145.517Y-97.33G85X145.517Y-96.83
G05
X147.74Y-59.23G85X147.74Y-58.73
G05
X150.28Y-59.23G85X150.28Y-58.73
G05
X152.502Y-27.78G85X152.502Y-27.28
G05
X152.502Y-116.38G85X152.502Y-115.88
G05
X155.042Y-27.78G85X155.042Y-27.28
G05
X155.042Y-116.38G85X155.042Y-115.88
G05
X157.265Y-78.28G85X157.265Y-77.78
G05
X159.805Y-78.28G85X159.805Y-77.78
G05
X162.028Y-97.33G85X162.028Y-96.83
G05
X164.567Y-97.33G85X164.567Y-96.83
G05
X166.79Y-59.23G85X166.79Y-58.73
G05
X169.33Y-59.23G85X169.33Y-58.73
G05
X171.552Y-116.38G85X171.552Y-115.88
G05
X174.093Y-116.38G85X174.093Y-115.88
G05
X176.315Y-78.28G85X176.315Y-77.78
G05
X178.855Y-78.28G85X178.855Y-77.78
G05
X181.077Y-27.78G85X181.077Y-27.28
G05
X181.077Y-97.33G85X181.077Y-96.83
G05
X183.617Y-27.78G85X183.617Y-27.28
G05
X183.617Y-97.33G85X183.617Y-96.83
G05
X185.84Y-59.23G85X185.84Y-58.73
G05
X185.84Y-135.43G85X185.84Y-134.93
G05
X188.38Y-59.23G85X188.38Y-58.73
G05
X188.38Y-135.43G85X188.38Y-134.93
G05
X190.602Y-116.38G85X190.602Y-115.88
G05
X193.142Y-116.38G85X193.142Y-115.88
G05
X195.365Y-78.28G85X195.365Y-77.78
G05
X197.905Y-78.28G85X197.905Y-77.78
G05
X200.127Y-97.33G85X200.127Y-96.83
G05
X202.667Y-97.33G85X202.667Y-96.83
G05
X204.89Y-59.23G85X204.89Y-58.73
G05
X207.43Y-59.23G85X207.43Y-58.73
G05
X209.653Y-27.78G85X209.653Y-27.28
G05
X209.653Y-116.38G85X209.653Y-115.88
G05
X212.192Y-27.78G85X212.192Y-27.28
G05
X212.192Y-116.38G85X212.192Y-115.88
G05
X214.415Y-78.28G85X214.415Y-77.78
G05
X216.955Y-78.28G85X216.955Y-77.78
G05
X219.177Y-97.33G85X219.177Y-96.83
G05
X221.718Y-97.33G85X221.718Y-96.83
G05
X223.94Y-59.23G85X223.94Y-58.73
G05
X226.48Y-59.23G85X226.48Y-58.73
G05
X228.702Y-116.38G85X228.702Y-115.88
G05
X231.242Y-116.38G85X231.242Y-115.88
G05
X233.465Y-78.28G85X233.465Y-77.78
G05
X236.005Y-78.28G85X236.005Y-77.78
G05
X238.227Y-27.78G85X238.227Y-27.28
G05
X238.227Y-97.33G85X238.227Y-96.83
G05
X240.767Y-27.78G85X240.767Y-27.28
G05
X240.767Y-97.33G85X240.767Y-96.83
G05
X242.99Y-59.23G85X242.99Y-58.73
G05
X245.53Y-59.23G85X245.53Y-58.73
G05
X247.752Y-116.38G85X247.752Y-115.88
G05
X250.292Y-116.38G85X250.292Y-115.88
G05
X252.515Y-78.28G85X252.515Y-77.78
G05
X255.055Y-78.28G85X255.055Y-77.78
G05
X257.277Y-97.33G85X257.277Y-96.83
G05
X258.468Y-135.43G85X258.468Y-134.93
G05
X259.817Y-97.33G85X259.817Y-96.83
G05
X261.008Y-135.43G85X261.008Y-134.93
G05
X262.04Y-59.23G85X262.04Y-58.73
G05
X264.58Y-59.23G85X264.58Y-58.73
G05
X266.803Y-27.78G85X266.803Y-27.28
G05
X266.803Y-116.38G85X266.803Y-115.88
G05
X269.342Y-27.78G85X269.342Y-27.28
G05
X269.342Y-116.38G85X269.342Y-115.88
G05
X271.565Y-78.28G85X271.565Y-77.78
G05
X274.105Y-78.28G85X274.105Y-77.78
G05
X276.327Y-97.33G85X276.327Y-96.83
G05
X278.868Y-97.33G85X278.868Y-96.83
G05
X281.09Y-59.23G85X281.09Y-58.73
G05
X283.63Y-59.23G85X283.63Y-58.73
G05
X290.615Y-78.28G85X290.615Y-77.78
G05
X292.996Y-116.38G85X292.996Y-115.88
G05
X293.155Y-78.28G85X293.155Y-77.78
G05
X295.377Y-97.33G85X295.377Y-96.83
G05
X295.39Y-27.78G85X295.39Y-27.28
G05
X295.536Y-116.38G85X295.536Y-115.88
G05
X297.917Y-97.33G85X297.917Y-96.83
G05
X297.93Y-27.78G85X297.93Y-27.28
G05
X301.723Y-55.307G85X301.723Y-55.807
G05
X304.263Y-55.307G85X304.263Y-55.807
G05
X306.423Y-78.189G85X305.923Y-78.189
G05
X306.423Y-80.729G85X305.923Y-80.729
G05
X317.478Y-55.781G85X317.478Y-55.281
G05
X319.19Y-116.38G85X319.19Y-115.88
G05
X320.018Y-55.781G85X320.018Y-55.281
G05
X321.73Y-116.38G85X321.73Y-115.88
G05
X323.952Y-27.78G85X323.952Y-27.28
G05
X326.493Y-27.78G85X326.493Y-27.28
G05
X327.854Y-97.397G85X327.354Y-97.397
G05
X327.854Y-99.938G85X327.354Y-99.938
G05
T3
X49.229Y-68.673G85X48.891Y-67.947
G05
X53.992Y-87.723G85X53.653Y-86.997
G05
X56.373Y-106.773G85X56.035Y-106.047
G05
X56.91Y-69.81G85X55.81Y-69.81
G05
X61.135Y-125.823G85X60.797Y-125.097
G05
X61.672Y-88.86G85X60.572Y-88.86
G05
X64.054Y-107.91G85X62.954Y-107.91
G05
X68.279Y-68.673G85X67.941Y-67.947
G05
X68.816Y-126.96G85X67.716Y-126.96
G05
X75.96Y-69.81G85X74.86Y-69.81
G05
X77.804Y-87.723G85X77.466Y-86.997
G05
X82.567Y-106.773G85X82.228Y-106.047
G05
X85.485Y-88.86G85X84.385Y-88.86
G05
X87.329Y-68.673G85X86.991Y-67.947
G05
X90.248Y-107.91G85X89.147Y-107.91
G05
X92.092Y-37.223G85X91.753Y-36.497
G05
X92.092Y-125.823G85X91.753Y-125.097
G05
X95.01Y-69.81G85X93.91Y-69.81
G05
X96.854Y-87.723G85X96.516Y-86.997
G05
X99.772Y-38.36G85X98.672Y-38.36
G05
X99.772Y-126.96G85X98.672Y-126.96
G05
X101.617Y-106.773G85X101.278Y-106.047
G05
X104.535Y-88.86G85X103.435Y-88.86
G05
X106.379Y-68.673G85X106.041Y-67.947
G05
X109.297Y-107.91G85X108.197Y-107.91
G05
X109.951Y-144.873G85X109.613Y-144.147
G05
X111.142Y-125.823G85X110.803Y-125.097
G05
X114.06Y-69.81G85X112.96Y-69.81
G05
X115.904Y-87.723G85X115.566Y-86.997
G05
X117.632Y-146.01G85X116.532Y-146.01
G05
X118.822Y-126.96G85X117.722Y-126.96
G05
X120.667Y-37.223G85X120.328Y-36.497
G05
X120.667Y-106.773G85X120.328Y-106.047
G05
X123.585Y-88.86G85X122.485Y-88.86
G05
X125.429Y-68.673G85X125.091Y-67.947
G05
X128.347Y-38.36G85X127.247Y-38.36
G05
X128.347Y-107.91G85X127.247Y-107.91
G05
X130.192Y-125.823G85X129.853Y-125.097
G05
X133.11Y-69.81G85X132.01Y-69.81
G05
X134.954Y-87.723G85X134.616Y-86.997
G05
X137.873Y-126.96G85X136.773Y-126.96
G05
X139.717Y-106.773G85X139.378Y-106.047
G05
X142.635Y-88.86G85X141.535Y-88.86
G05
X144.479Y-68.673G85X144.141Y-67.947
G05
X147.397Y-107.91G85X146.297Y-107.91
G05
X149.242Y-37.223G85X148.903Y-36.497
G05
X149.242Y-125.823G85X148.903Y-125.097
G05
X152.16Y-69.81G85X151.06Y-69.81
G05
X154.004Y-87.723G85X153.666Y-86.997
G05
X156.922Y-38.36G85X155.822Y-38.36
G05
X156.922Y-126.96G85X155.822Y-126.96
G05
X158.767Y-106.773G85X158.428Y-106.047
G05
X161.685Y-88.86G85X160.585Y-88.86
G05
X163.529Y-68.673G85X163.191Y-67.947
G05
X166.447Y-107.91G85X165.347Y-107.91
G05
X168.292Y-125.823G85X167.953Y-125.097
G05
X171.21Y-69.81G85X170.11Y-69.81
G05
X173.054Y-87.723G85X172.716Y-86.997
G05
X175.972Y-126.96G85X174.873Y-126.96
G05
X177.817Y-37.223G85X177.478Y-36.497
G05
X177.817Y-106.773G85X177.478Y-106.047
G05
X180.735Y-88.86G85X179.635Y-88.86
G05
X182.579Y-68.673G85X182.241Y-67.947
G05
X182.579Y-144.873G85X182.241Y-144.147
G05
X185.498Y-38.36G85X184.397Y-38.36
G05
X185.498Y-107.91G85X184.397Y-107.91
G05
X187.342Y-125.823G85X187.003Y-125.097
G05
X190.26Y-69.81G85X189.16Y-69.81
G05
X190.26Y-146.01G85X189.16Y-146.01
G05
X192.104Y-87.723G85X191.766Y-86.997
G05
X195.022Y-126.96G85X193.922Y-126.96
G05
X196.867Y-106.773G85X196.528Y-106.047
G05
X199.785Y-88.86G85X198.685Y-88.86
G05
X201.629Y-68.673G85X201.291Y-67.947
G05
X204.547Y-107.91G85X203.447Y-107.91
G05
X206.392Y-37.223G85X206.053Y-36.497
G05
X206.392Y-125.823G85X206.053Y-125.097
G05
X209.31Y-69.81G85X208.21Y-69.81
G05
X211.154Y-87.723G85X210.816Y-86.997
G05
X214.072Y-38.36G85X212.972Y-38.36
G05
X214.072Y-126.96G85X212.972Y-126.96
G05
X215.917Y-106.773G85X215.578Y-106.047
G05
X218.835Y-88.86G85X217.735Y-88.86
G05
X220.679Y-68.673G85X220.341Y-67.947
G05
X223.597Y-107.91G85X222.498Y-107.91
G05
X225.442Y-125.823G85X225.103Y-125.097
G05
X228.36Y-69.81G85X227.26Y-69.81
G05
X230.204Y-87.723G85X229.866Y-86.997
G05
X233.123Y-126.96G85X232.022Y-126.96
G05
X234.967Y-37.223G85X234.628Y-36.497
G05
X234.967Y-106.773G85X234.628Y-106.047
G05
X237.885Y-88.86G85X236.785Y-88.86
G05
X239.729Y-68.673G85X239.391Y-67.947
G05
X242.647Y-38.36G85X241.547Y-38.36
G05
X242.647Y-107.91G85X241.547Y-107.91
G05
X244.492Y-125.823G85X244.153Y-125.097
G05
X247.41Y-69.81G85X246.31Y-69.81
G05
X249.254Y-87.723G85X248.916Y-86.997
G05
X252.172Y-126.96G85X251.072Y-126.96
G05
X254.017Y-106.773G85X253.678Y-106.047
G05
X255.207Y-144.873G85X254.869Y-144.147
G05
X256.935Y-88.86G85X255.835Y-88.86
G05
X258.779Y-68.673G85X258.441Y-67.947
G05
X261.697Y-107.91G85X260.597Y-107.91
G05
X262.888Y-146.01G85X261.788Y-146.01
G05
X263.542Y-37.223G85X263.203Y-36.497
G05
X263.542Y-125.823G85X263.203Y-125.097
G05
X266.46Y-69.81G85X265.36Y-69.81
G05
X268.304Y-87.723G85X267.966Y-86.997
G05
X271.222Y-38.36G85X270.123Y-38.36
G05
X271.222Y-126.96G85X270.123Y-126.96
G05
X273.067Y-106.773G85X272.728Y-106.047
G05
X275.985Y-88.86G85X274.885Y-88.86
G05
X277.829Y-68.673G85X277.491Y-67.947
G05
X280.748Y-107.91G85X279.647Y-107.91
G05
X285.51Y-69.81G85X284.41Y-69.81
G05
X287.354Y-87.723G85X287.016Y-86.997
G05
X289.735Y-125.823G85X289.397Y-125.097
G05
X292.117Y-106.773G85X291.778Y-106.047
G05
X292.129Y-37.223G85X291.791Y-36.497
G05
X295.035Y-88.86G85X293.935Y-88.86
G05
X295.66Y-67.21G85X295.66Y-66.11
G05
X297.416Y-126.96G85X296.316Y-126.96
G05
X296.797Y-59.529G85X297.523Y-59.191
G05
X299.798Y-107.91G85X298.697Y-107.91
G05
X299.81Y-38.36G85X298.71Y-38.36
G05
X306.404Y-68.673G85X306.066Y-67.947
G05
X312.329Y-95.785G85X312.329Y-94.685
G05
X313.548Y-106.773G85X313.21Y-106.047
G05
X314.085Y-69.81G85X312.985Y-69.81
G05
X313.466Y-88.104G85X314.191Y-87.766
G05
X315.929Y-125.823G85X315.591Y-125.097
G05
X320.31Y-87.641G85X319.585Y-87.979
G05
X320.692Y-37.223G85X320.353Y-36.497
G05
X321.229Y-107.91G85X320.129Y-107.91
G05
X321.447Y-79.96G85X321.447Y-81.06
G05
X323.61Y-126.96G85X322.51Y-126.96
G05
X325.073Y-68.591G85X324.347Y-68.929
G05
X326.21Y-60.91G85X326.21Y-62.01
G05
X328.373Y-38.36G85X327.272Y-38.36
G05
T6
X57.614Y-66.576G85X56.906Y-67.284
G05
X62.376Y-85.626G85X61.669Y-86.334
G05
X64.757Y-104.676G85X64.05Y-105.384
G05
X69.52Y-123.726G85X68.813Y-124.434
G05
X76.664Y-66.576G85X75.956Y-67.284
G05
X86.189Y-85.626G85X85.481Y-86.334
G05
X90.951Y-104.676G85X90.244Y-105.384
G05
X95.714Y-66.576G85X95.006Y-67.284
G05
X100.476Y-35.126G85X99.769Y-35.834
G05
X100.476Y-123.726G85X99.769Y-124.434
G05
X105.239Y-85.626G85X104.531Y-86.334
G05
X110.001Y-104.676G85X109.294Y-105.384
G05
X114.764Y-66.576G85X114.056Y-67.284
G05
X118.335Y-142.776G85X117.628Y-143.484
G05
X119.526Y-123.726G85X118.819Y-124.434
G05
X124.289Y-85.626G85X123.581Y-86.334
G05
X129.051Y-35.126G85X128.344Y-35.834
G05
X129.051Y-104.676G85X128.344Y-105.384
G05
X133.814Y-66.576G85X133.106Y-67.284
G05
X138.576Y-123.726G85X137.869Y-124.434
G05
X143.339Y-85.626G85X142.631Y-86.334
G05
X148.101Y-104.676G85X147.394Y-105.384
G05
X152.864Y-66.576G85X152.156Y-67.284
G05
X157.626Y-35.126G85X156.919Y-35.834
G05
X157.626Y-123.726G85X156.919Y-124.434
G05
X162.389Y-85.626G85X161.681Y-86.334
G05
X167.151Y-104.676G85X166.444Y-105.384
G05
X171.914Y-66.576G85X171.206Y-67.284
G05
X176.676Y-123.726G85X175.969Y-124.434
G05
X181.439Y-85.626G85X180.731Y-86.334
G05
X186.201Y-35.126G85X185.494Y-35.834
G05
X186.201Y-104.676G85X185.494Y-105.384
G05
X190.964Y-66.576G85X190.256Y-67.284
G05
X190.964Y-142.776G85X190.256Y-143.484
G05
X195.726Y-123.726G85X195.019Y-124.434
G05
X200.489Y-85.626G85X199.781Y-86.334
G05
X205.251Y-104.676G85X204.544Y-105.384
G05
X210.014Y-66.576G85X209.306Y-67.284
G05
X214.776Y-35.126G85X214.069Y-35.834
G05
X214.776Y-123.726G85X214.069Y-124.434
G05
X219.539Y-85.626G85X218.831Y-86.334
G05
X224.301Y-104.676G85X223.594Y-105.384
G05
X229.064Y-66.576G85X228.356Y-67.284
G05
X233.826Y-123.726G85X233.119Y-124.434
G05
X238.589Y-85.626G85X237.881Y-86.334
G05
X243.351Y-35.126G85X242.644Y-35.834
G05
X243.351Y-104.676G85X242.644Y-105.384
G05
X248.114Y-66.576G85X247.406Y-67.284
G05
X252.876Y-123.726G85X252.169Y-124.434
G05
X257.639Y-85.626G85X256.931Y-86.334
G05
X262.401Y-104.676G85X261.694Y-105.384
G05
X263.592Y-142.776G85X262.885Y-143.484
G05
X267.164Y-66.576G85X266.456Y-67.284
G05
X271.926Y-35.126G85X271.219Y-35.834
G05
X271.926Y-123.726G85X271.219Y-124.434
G05
X276.689Y-85.626G85X275.981Y-86.334
G05
X281.451Y-104.676G85X280.744Y-105.384
G05
X286.214Y-66.576G85X285.506Y-67.284
G05
X295.739Y-85.626G85X295.031Y-86.334
G05
X298.12Y-123.726G85X297.413Y-124.434
G05
X298.894Y-67.914G85X298.186Y-67.206
G05
X300.501Y-104.676G85X299.794Y-105.384
G05
X300.514Y-35.126G85X299.806Y-35.834
G05
X314.789Y-66.576G85X314.081Y-67.284
G05
X315.562Y-96.489G85X314.855Y-95.781
G05
X318.214Y-79.256G85X318.921Y-79.964
G05
X321.932Y-104.676G85X321.225Y-105.384
G05
X322.976Y-60.206G85X323.684Y-60.914
G05
X324.314Y-123.726G85X323.606Y-124.434
G05
X329.076Y-35.126G85X328.369Y-35.834
G05
T0
M30
