M48
; DRILL file {KiCad (7.0.0)} date Thu Feb 23 21:36:54 2023
; FORMAT={-:-/ absolute / metric / decimal}
; #@! TF.CreationDate,2023-02-23T21:36:54-08:00
; #@! TF.GenerationSoftware,Kicad,Pcbnew,(7.0.0)
; #@! TF.FileFunction,Plated,1,2,PTH
FMAT,2
METRIC
; #@! TA.AperFunction,Plated,PTH,ViaDrill
T1C0.400
; #@! TA.AperFunction,Plated,PTH,ComponentDrill
T2C0.762
; #@! TA.AperFunction,Plated,PTH,ComponentDrill
T3C1.000
%
G90
G05
T1
X107.264Y-61.29
X114.427Y-60.96
X119.075Y-60.528
X119.685Y-55.728
X125.093Y-56.449
X125.799Y-57.277
X126.797Y-57.226
X127.838Y-57.277
X128.85Y-57.29
X129.856Y-57.309
X129.921Y-60.273
X131.045Y-59.722
X131.096Y-57.773
X133.096Y-59.718
X134.545Y-59.715
X134.696Y-60.96
X136.241Y-59.686
X138.798Y-56.302
X139.831Y-56.311
X140.852Y-56.308
X141.871Y-56.302
X142.883Y-56.289
X145.237Y-61.443
X149.682Y-59.919
X150.571Y-55.397
X155.905Y-59.157
X158.039Y-59.157
T2
X100.889Y-63.043
X103.429Y-63.043
X105.969Y-63.043
X108.509Y-63.043
X111.049Y-63.043
X113.589Y-63.043
X116.129Y-63.043
X118.669Y-63.043
X121.209Y-63.043
X123.749Y-63.043
X126.289Y-63.043
X128.829Y-63.043
X131.369Y-63.043
X133.909Y-63.043
X136.449Y-63.043
X138.989Y-63.043
X141.529Y-63.043
X144.069Y-63.043
X146.609Y-63.043
X149.149Y-63.043
X151.689Y-63.043
X154.229Y-63.043
X156.769Y-63.043
X159.309Y-63.043
T3
X104.446Y-57.343
X109.446Y-54.843
X109.446Y-59.843
T0
M30
