%TF.GenerationSoftware,KiCad,Pcbnew,(5.1.9)-1*%
%TF.CreationDate,2021-05-03T00:03:20-07:00*%
%TF.ProjectId,Atari130MX,41746172-6931-4333-904d-582e6b696361,rev?*%
%TF.SameCoordinates,Original*%
%TF.FileFunction,Soldermask,Bot*%
%TF.FilePolarity,Negative*%
%FSLAX46Y46*%
G04 Gerber Fmt 4.6, Leading zero omitted, Abs format (unit mm)*
G04 Created by KiCad (PCBNEW (5.1.9)-1) date 2021-05-03 00:03:20*
%MOMM*%
%LPD*%
G01*
G04 APERTURE LIST*
%ADD10O,1.700000X1.700000*%
%ADD11R,1.700000X1.700000*%
%ADD12C,1.800000*%
%ADD13R,1.800000X1.800000*%
%ADD14C,4.000000*%
%ADD15C,2.200000*%
%ADD16C,5.000000*%
%ADD17C,3.000000*%
%ADD18C,8.000000*%
%ADD19C,6.000000*%
%ADD20C,2.100000*%
G04 APERTURE END LIST*
D10*
%TO.C,J1*%
X277560000Y-133350000D03*
X280100000Y-133350000D03*
X282640000Y-133350000D03*
X285180000Y-133350000D03*
X287720000Y-133350000D03*
X290260000Y-133350000D03*
X292800000Y-133350000D03*
X295340000Y-133350000D03*
X297880000Y-133350000D03*
X300420000Y-133350000D03*
X302960000Y-133350000D03*
X305500000Y-133350000D03*
X308040000Y-133350000D03*
X310580000Y-133350000D03*
X313120000Y-133350000D03*
X315660000Y-133350000D03*
X318200000Y-133350000D03*
X320740000Y-133350000D03*
X323280000Y-133350000D03*
X325820000Y-133350000D03*
X328360000Y-133350000D03*
X330900000Y-133350000D03*
X333440000Y-133350000D03*
D11*
X335980000Y-133350000D03*
%TD*%
D12*
%TO.C,D1*%
X31900000Y-143510000D03*
D13*
X29360000Y-143510000D03*
%TD*%
D14*
%TO.C,SWZ1*%
X96460000Y-121330000D03*
D15*
X92650000Y-118790000D03*
X99000000Y-116250000D03*
%TD*%
D14*
%TO.C,SWY1*%
X177220000Y-83160000D03*
D15*
X173410000Y-80620000D03*
X179760000Y-78080000D03*
%TD*%
D14*
%TO.C,SWX1*%
X115460000Y-121330000D03*
D15*
X111650000Y-118790000D03*
X118000000Y-116250000D03*
%TD*%
D14*
%TO.C,SWW1*%
X101220000Y-83160000D03*
D15*
X97410000Y-80620000D03*
X103760000Y-78080000D03*
%TD*%
D14*
%TO.C,SWV1*%
X153460000Y-121330000D03*
D15*
X149650000Y-118790000D03*
X156000000Y-116250000D03*
%TD*%
D14*
%TO.C,SWU1*%
X196220000Y-83160000D03*
D15*
X192410000Y-80620000D03*
X198760000Y-78080000D03*
%TD*%
D14*
%TO.C,SWTab1*%
X58520000Y-83160000D03*
D15*
X54710000Y-80620000D03*
X61060000Y-78080000D03*
%TD*%
D14*
%TO.C,SWT1*%
X158220000Y-83160000D03*
D15*
X154410000Y-80620000D03*
X160760000Y-78080000D03*
%TD*%
D16*
%TO.C,SWStart1*%
X229660000Y-36680000D03*
D15*
X242200000Y-27530000D03*
D14*
X239660000Y-32610000D03*
D15*
X235850000Y-30070000D03*
%TD*%
D14*
%TO.C,SWStar1*%
X296000000Y-102230000D03*
D15*
X292190000Y-99690000D03*
X298540000Y-97150000D03*
%TD*%
D17*
%TO.C,SWSpc1*%
X127860000Y-131180000D03*
X245860000Y-131180000D03*
D18*
X123360000Y-141880000D03*
X250360000Y-141880000D03*
D14*
X186860000Y-140380000D03*
D15*
X183050000Y-137840000D03*
X189400000Y-135300000D03*
%TD*%
D14*
%TO.C,SWSlash1*%
X267460000Y-121330000D03*
D15*
X263650000Y-118790000D03*
X270000000Y-116250000D03*
%TD*%
D14*
%TO.C,SWSemi1*%
X258000000Y-102230000D03*
D15*
X254190000Y-99690000D03*
X260540000Y-97150000D03*
%TD*%
D16*
%TO.C,SWSelect1*%
X258160000Y-36680000D03*
D15*
X270700000Y-27530000D03*
D14*
X268160000Y-32610000D03*
D15*
X264350000Y-30070000D03*
%TD*%
D14*
%TO.C,SWS1*%
X106000000Y-102230000D03*
D15*
X102190000Y-99690000D03*
X108540000Y-97150000D03*
%TD*%
D17*
%TO.C,SWRightSft1*%
X285585000Y-112130000D03*
D19*
X306085000Y-122830000D03*
X281085000Y-122830000D03*
D17*
X301585000Y-112130000D03*
D14*
X293585000Y-121330000D03*
D15*
X289775000Y-118790000D03*
X296125000Y-116250000D03*
%TD*%
D14*
%TO.C,SWRet1*%
X315020000Y-83160000D03*
D15*
X311210000Y-80620000D03*
X317560000Y-78080000D03*
%TD*%
D16*
%TO.C,SWReset1*%
X315160000Y-36680000D03*
D15*
X327700000Y-27530000D03*
D14*
X325160000Y-32610000D03*
D15*
X321350000Y-30070000D03*
%TD*%
D14*
%TO.C,SWR1*%
X139220000Y-83160000D03*
D15*
X135410000Y-80620000D03*
X141760000Y-78080000D03*
%TD*%
D14*
%TO.C,SWQ1*%
X82220000Y-83160000D03*
D15*
X78410000Y-80620000D03*
X84760000Y-78080000D03*
%TD*%
D14*
%TO.C,SWPlus1*%
X277000000Y-102230000D03*
D15*
X273190000Y-99690000D03*
X279540000Y-97150000D03*
%TD*%
D14*
%TO.C,SWPeriod1*%
X248460000Y-121330000D03*
D15*
X244650000Y-118790000D03*
X251000000Y-116250000D03*
%TD*%
D14*
%TO.C,SWP1*%
X253220000Y-83160000D03*
D15*
X249410000Y-80620000D03*
X255760000Y-78080000D03*
%TD*%
D16*
%TO.C,SWOption1*%
X286660000Y-36680000D03*
D15*
X299200000Y-27530000D03*
D14*
X296660000Y-32610000D03*
D15*
X292850000Y-30070000D03*
%TD*%
D14*
%TO.C,SWO1*%
X234220000Y-83160000D03*
D15*
X230410000Y-80620000D03*
X236760000Y-78080000D03*
%TD*%
D14*
%TO.C,SWN1*%
X191460000Y-121330000D03*
D15*
X187650000Y-118790000D03*
X194000000Y-116250000D03*
%TD*%
D14*
%TO.C,SWM1*%
X210460000Y-121330000D03*
D15*
X206650000Y-118790000D03*
X213000000Y-116250000D03*
%TD*%
D14*
%TO.C,SWLT1*%
X262760000Y-64060000D03*
D15*
X258950000Y-61520000D03*
X265300000Y-58980000D03*
%TD*%
D19*
%TO.C,SWLeftSft1*%
X82110000Y-122830000D03*
D17*
X77610000Y-112130000D03*
D19*
X49110000Y-122830000D03*
D17*
X53610000Y-112130000D03*
D14*
X65610000Y-121330000D03*
D15*
X61800000Y-118790000D03*
X68150000Y-116250000D03*
%TD*%
D14*
%TO.C,SWL1*%
X239000000Y-102230000D03*
D15*
X235190000Y-99690000D03*
X241540000Y-97150000D03*
%TD*%
D14*
%TO.C,SWK1*%
X220000000Y-102230000D03*
D15*
X216190000Y-99690000D03*
X222540000Y-97150000D03*
%TD*%
D14*
%TO.C,SWJ1*%
X201000000Y-102230000D03*
D15*
X197190000Y-99690000D03*
X203540000Y-97150000D03*
%TD*%
D14*
%TO.C,SWInv1*%
X319760000Y-121330000D03*
D15*
X315950000Y-118790000D03*
X322300000Y-116250000D03*
%TD*%
D14*
%TO.C,SWI1*%
X215220000Y-83160000D03*
D15*
X211410000Y-80620000D03*
X217760000Y-78080000D03*
%TD*%
D16*
%TO.C,SWHlp1*%
X201160000Y-36680000D03*
D15*
X213700000Y-27530000D03*
D14*
X211160000Y-32610000D03*
D15*
X207350000Y-30070000D03*
%TD*%
D14*
%TO.C,SWH1*%
X182000000Y-102230000D03*
D15*
X178190000Y-99690000D03*
X184540000Y-97150000D03*
%TD*%
D14*
%TO.C,SWGT1*%
X281760000Y-64060000D03*
D15*
X277950000Y-61520000D03*
X284300000Y-58980000D03*
%TD*%
D14*
%TO.C,SWG1*%
X163000000Y-102230000D03*
D15*
X159190000Y-99690000D03*
X165540000Y-97150000D03*
%TD*%
D14*
%TO.C,SWF1*%
X144000000Y-102230000D03*
D15*
X140190000Y-99690000D03*
X146540000Y-97150000D03*
%TD*%
D14*
%TO.C,SWEsc1*%
X53760000Y-64060000D03*
D15*
X49950000Y-61520000D03*
X56300000Y-58980000D03*
%TD*%
D14*
%TO.C,SWEqual1*%
X291220000Y-83160000D03*
D15*
X287410000Y-80620000D03*
X293760000Y-78080000D03*
%TD*%
D14*
%TO.C,SWE1*%
X120220000Y-83160000D03*
D15*
X116410000Y-80620000D03*
X122760000Y-78080000D03*
%TD*%
D14*
%TO.C,SWDel1*%
X300760000Y-64060000D03*
D15*
X296950000Y-61520000D03*
X303300000Y-58980000D03*
%TD*%
D14*
%TO.C,SWDash1*%
X272220000Y-83160000D03*
D15*
X268410000Y-80620000D03*
X274760000Y-78080000D03*
%TD*%
D14*
%TO.C,SWD1*%
X125000000Y-102230000D03*
D15*
X121190000Y-99690000D03*
X127540000Y-97150000D03*
%TD*%
D17*
%TO.C,SWCtl1*%
X52800000Y-93030000D03*
D19*
X73300000Y-103730000D03*
X48300000Y-103730000D03*
D17*
X68800000Y-93030000D03*
D14*
X60800000Y-102230000D03*
D15*
X56990000Y-99690000D03*
X63340000Y-97150000D03*
%TD*%
D14*
%TO.C,SWCps1*%
X317400000Y-102230000D03*
D15*
X313590000Y-99690000D03*
X319940000Y-97150000D03*
%TD*%
D14*
%TO.C,SWComma1*%
X229460000Y-121330000D03*
D15*
X225650000Y-118790000D03*
X232000000Y-116250000D03*
%TD*%
D14*
%TO.C,SWC1*%
X134460000Y-121330000D03*
D15*
X130650000Y-118790000D03*
X137000000Y-116250000D03*
%TD*%
D14*
%TO.C,SWBrk1*%
X319760000Y-64060000D03*
D15*
X315950000Y-61520000D03*
X322300000Y-58980000D03*
%TD*%
D14*
%TO.C,SWB1*%
X172460000Y-121330000D03*
D15*
X168650000Y-118790000D03*
X175000000Y-116250000D03*
%TD*%
D14*
%TO.C,SWA1*%
X87000000Y-102230000D03*
D15*
X83190000Y-99690000D03*
X89540000Y-97150000D03*
%TD*%
D14*
%TO.C,SW9*%
X224760000Y-64060000D03*
D15*
X220950000Y-61520000D03*
X227300000Y-58980000D03*
%TD*%
D14*
%TO.C,SW8*%
X205760000Y-64060000D03*
D15*
X201950000Y-61520000D03*
X208300000Y-58980000D03*
%TD*%
D14*
%TO.C,SW7*%
X186760000Y-64060000D03*
D15*
X182950000Y-61520000D03*
X189300000Y-58980000D03*
%TD*%
D14*
%TO.C,SW6*%
X167760000Y-64060000D03*
D15*
X163950000Y-61520000D03*
X170300000Y-58980000D03*
%TD*%
D14*
%TO.C,SW5*%
X148760000Y-64060000D03*
D15*
X144950000Y-61520000D03*
X151300000Y-58980000D03*
%TD*%
D14*
%TO.C,SW4*%
X129760000Y-64060000D03*
D15*
X125950000Y-61520000D03*
X132300000Y-58980000D03*
%TD*%
D14*
%TO.C,SW3*%
X110760000Y-64060000D03*
D15*
X106950000Y-61520000D03*
X113300000Y-58980000D03*
%TD*%
D14*
%TO.C,SW2*%
X91760000Y-64060000D03*
D15*
X87950000Y-61520000D03*
X94300000Y-58980000D03*
%TD*%
D14*
%TO.C,SW1*%
X72760000Y-64060000D03*
D15*
X68950000Y-61520000D03*
X75300000Y-58980000D03*
%TD*%
D14*
%TO.C,SW0*%
X243760000Y-64060000D03*
D15*
X239950000Y-61520000D03*
X246300000Y-58980000D03*
%TD*%
D19*
%TO.C,H18*%
X337060000Y-121160000D03*
%TD*%
%TO.C,H17*%
X36960000Y-121160000D03*
%TD*%
D20*
%TO.C,H12*%
X216860000Y-140160000D03*
%TD*%
%TO.C,H11*%
X156960000Y-140160000D03*
%TD*%
%TO.C,H10*%
X96860000Y-140160000D03*
%TD*%
%TO.C,H13*%
X337060000Y-140160000D03*
%TD*%
%TO.C,H9*%
X36960000Y-140160000D03*
%TD*%
%TO.C,H7*%
X36960000Y-102060000D03*
%TD*%
%TO.C,H8*%
X337060000Y-102060000D03*
%TD*%
%TO.C,H6*%
X337060000Y-63560000D03*
%TD*%
%TO.C,H3*%
X337060000Y-26610000D03*
%TD*%
%TO.C,H2*%
X279960000Y-26610000D03*
%TD*%
%TO.C,H1*%
X195860000Y-26610000D03*
%TD*%
%TO.C,H4*%
X36960000Y-56460000D03*
%TD*%
D19*
%TO.C,H14*%
X186860000Y-48160000D03*
%TD*%
M02*
