G04 #@! TF.GenerationSoftware,KiCad,Pcbnew,(5.1.10)-1*
G04 #@! TF.CreationDate,2021-10-24T19:11:05-07:00*
G04 #@! TF.ProjectId,Atari130MX-adapter,41746172-6931-4333-904d-582d61646170,rev?*
G04 #@! TF.SameCoordinates,Original*
G04 #@! TF.FileFunction,Copper,L1,Top*
G04 #@! TF.FilePolarity,Positive*
%FSLAX46Y46*%
G04 Gerber Fmt 4.6, Leading zero omitted, Abs format (unit mm)*
G04 Created by KiCad (PCBNEW (5.1.10)-1) date 2021-10-24 19:11:05*
%MOMM*%
%LPD*%
G01*
G04 APERTURE LIST*
G04 #@! TA.AperFunction,ComponentPad*
%ADD10O,1.524000X2.540000*%
G04 #@! TD*
G04 #@! TA.AperFunction,ViaPad*
%ADD11C,0.800000*%
G04 #@! TD*
G04 #@! TA.AperFunction,Conductor*
%ADD12C,0.250000*%
G04 #@! TD*
G04 #@! TA.AperFunction,Conductor*
%ADD13C,0.254000*%
G04 #@! TD*
G04 #@! TA.AperFunction,Conductor*
%ADD14C,0.100000*%
G04 #@! TD*
G04 APERTURE END LIST*
D10*
X159324040Y-63014860D03*
X156784040Y-63014860D03*
X154244040Y-63014860D03*
X151704040Y-63014860D03*
X149164040Y-63014860D03*
X146624040Y-63014860D03*
X144084040Y-63014860D03*
X141544040Y-63014860D03*
X139004040Y-63014860D03*
X136464040Y-63014860D03*
X133924040Y-63014860D03*
X131384040Y-63014860D03*
X128844040Y-63014860D03*
X126304040Y-63014860D03*
X123764040Y-63014860D03*
X121224040Y-63014860D03*
X118684040Y-63014860D03*
X116144040Y-63014860D03*
X113604040Y-63014860D03*
X111064040Y-63014860D03*
X108524040Y-63014860D03*
X105984040Y-63014860D03*
X103444040Y-63014860D03*
X100904040Y-63014860D03*
D11*
X140730000Y-54170000D03*
X139670000Y-55080000D03*
X138750000Y-56000000D03*
X137690000Y-56860000D03*
X136670000Y-57670000D03*
X124680003Y-57620000D03*
X123680000Y-57620000D03*
X122570000Y-57670000D03*
X145440000Y-60590000D03*
X107200000Y-56560000D03*
X159280000Y-60370000D03*
D12*
X140730000Y-54170000D02*
X150479180Y-54170000D01*
X150479180Y-54170000D02*
X159324040Y-63014860D01*
X139670000Y-55080000D02*
X148849180Y-55080000D01*
X148849180Y-55080000D02*
X156784040Y-63014860D01*
X138750000Y-56000000D02*
X147229180Y-56000000D01*
X147229180Y-56000000D02*
X154244040Y-63014860D01*
X137690000Y-56860000D02*
X145549180Y-56860000D01*
X145549180Y-56860000D02*
X151704040Y-63014860D01*
X143819180Y-57670000D02*
X149164040Y-63014860D01*
X136670000Y-57670000D02*
X143819180Y-57670000D01*
X118684040Y-63014860D02*
X119178776Y-63014860D01*
X120773786Y-61419850D02*
X120953152Y-61419850D01*
X120953152Y-61419850D02*
X124680003Y-57692999D01*
X124680003Y-57692999D02*
X124680003Y-57620000D01*
X119178776Y-63014860D02*
X120773786Y-61419850D01*
X119880150Y-61419850D02*
X123680000Y-57620000D01*
X117739050Y-61419850D02*
X119880150Y-61419850D01*
X116144040Y-63014860D02*
X117739050Y-61419850D01*
X118948900Y-57670000D02*
X122570000Y-57670000D01*
X113604040Y-63014860D02*
X118948900Y-57670000D01*
D13*
X139812795Y-53679744D02*
X139734774Y-53868102D01*
X139699587Y-54045000D01*
X139568061Y-54045000D01*
X139368102Y-54084774D01*
X139179744Y-54162795D01*
X139010226Y-54276063D01*
X138866063Y-54420226D01*
X138752795Y-54589744D01*
X138674774Y-54778102D01*
X138637167Y-54967167D01*
X138448102Y-55004774D01*
X138259744Y-55082795D01*
X138090226Y-55196063D01*
X137946063Y-55340226D01*
X137832795Y-55509744D01*
X137754774Y-55698102D01*
X137729533Y-55825000D01*
X137588061Y-55825000D01*
X137388102Y-55864774D01*
X137199744Y-55942795D01*
X137030226Y-56056063D01*
X136886063Y-56200226D01*
X136772795Y-56369744D01*
X136694774Y-56558102D01*
X136679478Y-56635000D01*
X136568061Y-56635000D01*
X136368102Y-56674774D01*
X136179744Y-56752795D01*
X136010226Y-56866063D01*
X135866063Y-57010226D01*
X135752795Y-57179744D01*
X135674774Y-57368102D01*
X135635000Y-57568061D01*
X135635000Y-57771939D01*
X135674774Y-57971898D01*
X135752795Y-58160256D01*
X135866063Y-58329774D01*
X136010226Y-58473937D01*
X136179744Y-58587205D01*
X136368102Y-58665226D01*
X136568061Y-58705000D01*
X136771939Y-58705000D01*
X136971898Y-58665226D01*
X137160256Y-58587205D01*
X137329774Y-58473937D01*
X137373711Y-58430000D01*
X143504379Y-58430000D01*
X146238370Y-61163991D01*
X146086845Y-61209956D01*
X145844153Y-61339677D01*
X145631432Y-61514253D01*
X145456857Y-61726974D01*
X145354040Y-61919331D01*
X145251223Y-61726973D01*
X145076647Y-61514252D01*
X144863926Y-61339677D01*
X144621234Y-61209956D01*
X144357899Y-61130074D01*
X144084040Y-61103101D01*
X143810180Y-61130074D01*
X143546845Y-61209956D01*
X143304153Y-61339677D01*
X143091432Y-61514253D01*
X142916857Y-61726974D01*
X142814040Y-61919331D01*
X142711223Y-61726973D01*
X142536647Y-61514252D01*
X142323926Y-61339677D01*
X142081234Y-61209956D01*
X141817899Y-61130074D01*
X141544040Y-61103101D01*
X141270180Y-61130074D01*
X141006845Y-61209956D01*
X140764153Y-61339677D01*
X140551432Y-61514253D01*
X140376857Y-61726974D01*
X140274040Y-61919331D01*
X140171223Y-61726973D01*
X139996647Y-61514252D01*
X139783926Y-61339677D01*
X139541234Y-61209956D01*
X139277899Y-61130074D01*
X139004040Y-61103101D01*
X138730180Y-61130074D01*
X138466845Y-61209956D01*
X138224153Y-61339677D01*
X138011432Y-61514253D01*
X137836857Y-61726974D01*
X137734040Y-61919331D01*
X137631223Y-61726973D01*
X137456647Y-61514252D01*
X137243926Y-61339677D01*
X137001234Y-61209956D01*
X136737899Y-61130074D01*
X136464040Y-61103101D01*
X136190180Y-61130074D01*
X135926845Y-61209956D01*
X135684153Y-61339677D01*
X135471432Y-61514253D01*
X135296857Y-61726974D01*
X135194040Y-61919331D01*
X135091223Y-61726973D01*
X134916647Y-61514252D01*
X134703926Y-61339677D01*
X134461234Y-61209956D01*
X134197899Y-61130074D01*
X133924040Y-61103101D01*
X133650180Y-61130074D01*
X133386845Y-61209956D01*
X133144153Y-61339677D01*
X132931432Y-61514253D01*
X132756857Y-61726974D01*
X132654040Y-61919331D01*
X132551223Y-61726973D01*
X132376647Y-61514252D01*
X132163926Y-61339677D01*
X131921234Y-61209956D01*
X131657899Y-61130074D01*
X131384040Y-61103101D01*
X131110180Y-61130074D01*
X130846845Y-61209956D01*
X130604153Y-61339677D01*
X130391432Y-61514253D01*
X130216857Y-61726974D01*
X130114040Y-61919331D01*
X130011223Y-61726973D01*
X129836647Y-61514252D01*
X129623926Y-61339677D01*
X129381234Y-61209956D01*
X129117899Y-61130074D01*
X128844040Y-61103101D01*
X128570180Y-61130074D01*
X128306845Y-61209956D01*
X128064153Y-61339677D01*
X127851432Y-61514253D01*
X127676857Y-61726974D01*
X127574040Y-61919331D01*
X127471223Y-61726973D01*
X127296647Y-61514252D01*
X127083926Y-61339677D01*
X126841234Y-61209956D01*
X126577899Y-61130074D01*
X126304040Y-61103101D01*
X126030180Y-61130074D01*
X125766845Y-61209956D01*
X125524153Y-61339677D01*
X125311432Y-61514253D01*
X125136857Y-61726974D01*
X125034040Y-61919331D01*
X124931223Y-61726973D01*
X124756647Y-61514252D01*
X124543926Y-61339677D01*
X124301234Y-61209956D01*
X124037899Y-61130074D01*
X123764040Y-61103101D01*
X123490180Y-61130074D01*
X123226845Y-61209956D01*
X122984153Y-61339677D01*
X122771432Y-61514253D01*
X122596857Y-61726974D01*
X122494040Y-61919331D01*
X122391223Y-61726973D01*
X122216647Y-61514252D01*
X122061158Y-61386646D01*
X124795501Y-58652303D01*
X124981901Y-58615226D01*
X125170259Y-58537205D01*
X125339777Y-58423937D01*
X125483940Y-58279774D01*
X125597208Y-58110256D01*
X125675229Y-57921898D01*
X125715003Y-57721939D01*
X125715003Y-57518061D01*
X125675229Y-57318102D01*
X125597208Y-57129744D01*
X125483940Y-56960226D01*
X125339777Y-56816063D01*
X125170259Y-56702795D01*
X124981901Y-56624774D01*
X124781942Y-56585000D01*
X124578064Y-56585000D01*
X124378105Y-56624774D01*
X124189747Y-56702795D01*
X124180002Y-56709307D01*
X124170256Y-56702795D01*
X123981898Y-56624774D01*
X123781939Y-56585000D01*
X123578061Y-56585000D01*
X123378102Y-56624774D01*
X123189744Y-56702795D01*
X123087585Y-56771055D01*
X123060256Y-56752795D01*
X122871898Y-56674774D01*
X122671939Y-56635000D01*
X122468061Y-56635000D01*
X122268102Y-56674774D01*
X122079744Y-56752795D01*
X121910226Y-56866063D01*
X121866289Y-56910000D01*
X118986233Y-56910000D01*
X118948900Y-56906323D01*
X118911567Y-56910000D01*
X118799914Y-56920997D01*
X118656653Y-56964454D01*
X118524624Y-57035026D01*
X118408899Y-57129999D01*
X118385101Y-57158997D01*
X114266948Y-61277151D01*
X114141234Y-61209956D01*
X113877899Y-61130074D01*
X113604040Y-61103101D01*
X113330180Y-61130074D01*
X113066845Y-61209956D01*
X112824153Y-61339677D01*
X112611432Y-61514253D01*
X112436857Y-61726974D01*
X112334040Y-61919331D01*
X112231223Y-61726973D01*
X112056647Y-61514252D01*
X111843926Y-61339677D01*
X111601234Y-61209956D01*
X111337899Y-61130074D01*
X111064040Y-61103101D01*
X110790180Y-61130074D01*
X110526845Y-61209956D01*
X110284153Y-61339677D01*
X110071432Y-61514253D01*
X109896857Y-61726974D01*
X109794040Y-61919331D01*
X109691223Y-61726973D01*
X109516647Y-61514252D01*
X109303926Y-61339677D01*
X109061234Y-61209956D01*
X108797899Y-61130074D01*
X108524040Y-61103101D01*
X108250180Y-61130074D01*
X107986845Y-61209956D01*
X107744153Y-61339677D01*
X107531432Y-61514253D01*
X107356857Y-61726974D01*
X107253002Y-61921274D01*
X107226099Y-61854918D01*
X107075046Y-61625131D01*
X106882066Y-61429228D01*
X106654575Y-61274738D01*
X106401316Y-61167598D01*
X106327110Y-61152640D01*
X106111040Y-61275140D01*
X106111040Y-62887860D01*
X106131040Y-62887860D01*
X106131040Y-63141860D01*
X106111040Y-63141860D01*
X106111040Y-63161860D01*
X105857040Y-63161860D01*
X105857040Y-63141860D01*
X105837040Y-63141860D01*
X105837040Y-62887860D01*
X105857040Y-62887860D01*
X105857040Y-61275140D01*
X105640970Y-61152640D01*
X105566764Y-61167598D01*
X105313505Y-61274738D01*
X105086014Y-61429228D01*
X104893034Y-61625131D01*
X104741981Y-61854918D01*
X104715078Y-61921273D01*
X104611223Y-61726973D01*
X104436647Y-61514252D01*
X104223926Y-61339677D01*
X103981234Y-61209956D01*
X103717899Y-61130074D01*
X103444040Y-61103101D01*
X103170180Y-61130074D01*
X102906845Y-61209956D01*
X102664153Y-61339677D01*
X102451432Y-61514253D01*
X102276857Y-61726974D01*
X102174040Y-61919331D01*
X102071223Y-61726973D01*
X101896647Y-61514252D01*
X101683926Y-61339677D01*
X101441234Y-61209956D01*
X101177899Y-61130074D01*
X100904040Y-61103101D01*
X100630180Y-61130074D01*
X100366845Y-61209956D01*
X100124153Y-61339677D01*
X99911432Y-61514253D01*
X99736857Y-61726974D01*
X99607136Y-61969666D01*
X99527254Y-62233001D01*
X99507040Y-62438236D01*
X99507040Y-63591485D01*
X99527254Y-63796720D01*
X99607136Y-64060055D01*
X99695226Y-64224860D01*
X99259040Y-64224860D01*
X99259040Y-61710725D01*
X99248983Y-61608616D01*
X99223548Y-61524769D01*
X99220611Y-60212769D01*
X105793381Y-53640000D01*
X139839351Y-53640000D01*
X139812795Y-53679744D01*
G04 #@! TA.AperFunction,Conductor*
D14*
G36*
X139812795Y-53679744D02*
G01*
X139734774Y-53868102D01*
X139699587Y-54045000D01*
X139568061Y-54045000D01*
X139368102Y-54084774D01*
X139179744Y-54162795D01*
X139010226Y-54276063D01*
X138866063Y-54420226D01*
X138752795Y-54589744D01*
X138674774Y-54778102D01*
X138637167Y-54967167D01*
X138448102Y-55004774D01*
X138259744Y-55082795D01*
X138090226Y-55196063D01*
X137946063Y-55340226D01*
X137832795Y-55509744D01*
X137754774Y-55698102D01*
X137729533Y-55825000D01*
X137588061Y-55825000D01*
X137388102Y-55864774D01*
X137199744Y-55942795D01*
X137030226Y-56056063D01*
X136886063Y-56200226D01*
X136772795Y-56369744D01*
X136694774Y-56558102D01*
X136679478Y-56635000D01*
X136568061Y-56635000D01*
X136368102Y-56674774D01*
X136179744Y-56752795D01*
X136010226Y-56866063D01*
X135866063Y-57010226D01*
X135752795Y-57179744D01*
X135674774Y-57368102D01*
X135635000Y-57568061D01*
X135635000Y-57771939D01*
X135674774Y-57971898D01*
X135752795Y-58160256D01*
X135866063Y-58329774D01*
X136010226Y-58473937D01*
X136179744Y-58587205D01*
X136368102Y-58665226D01*
X136568061Y-58705000D01*
X136771939Y-58705000D01*
X136971898Y-58665226D01*
X137160256Y-58587205D01*
X137329774Y-58473937D01*
X137373711Y-58430000D01*
X143504379Y-58430000D01*
X146238370Y-61163991D01*
X146086845Y-61209956D01*
X145844153Y-61339677D01*
X145631432Y-61514253D01*
X145456857Y-61726974D01*
X145354040Y-61919331D01*
X145251223Y-61726973D01*
X145076647Y-61514252D01*
X144863926Y-61339677D01*
X144621234Y-61209956D01*
X144357899Y-61130074D01*
X144084040Y-61103101D01*
X143810180Y-61130074D01*
X143546845Y-61209956D01*
X143304153Y-61339677D01*
X143091432Y-61514253D01*
X142916857Y-61726974D01*
X142814040Y-61919331D01*
X142711223Y-61726973D01*
X142536647Y-61514252D01*
X142323926Y-61339677D01*
X142081234Y-61209956D01*
X141817899Y-61130074D01*
X141544040Y-61103101D01*
X141270180Y-61130074D01*
X141006845Y-61209956D01*
X140764153Y-61339677D01*
X140551432Y-61514253D01*
X140376857Y-61726974D01*
X140274040Y-61919331D01*
X140171223Y-61726973D01*
X139996647Y-61514252D01*
X139783926Y-61339677D01*
X139541234Y-61209956D01*
X139277899Y-61130074D01*
X139004040Y-61103101D01*
X138730180Y-61130074D01*
X138466845Y-61209956D01*
X138224153Y-61339677D01*
X138011432Y-61514253D01*
X137836857Y-61726974D01*
X137734040Y-61919331D01*
X137631223Y-61726973D01*
X137456647Y-61514252D01*
X137243926Y-61339677D01*
X137001234Y-61209956D01*
X136737899Y-61130074D01*
X136464040Y-61103101D01*
X136190180Y-61130074D01*
X135926845Y-61209956D01*
X135684153Y-61339677D01*
X135471432Y-61514253D01*
X135296857Y-61726974D01*
X135194040Y-61919331D01*
X135091223Y-61726973D01*
X134916647Y-61514252D01*
X134703926Y-61339677D01*
X134461234Y-61209956D01*
X134197899Y-61130074D01*
X133924040Y-61103101D01*
X133650180Y-61130074D01*
X133386845Y-61209956D01*
X133144153Y-61339677D01*
X132931432Y-61514253D01*
X132756857Y-61726974D01*
X132654040Y-61919331D01*
X132551223Y-61726973D01*
X132376647Y-61514252D01*
X132163926Y-61339677D01*
X131921234Y-61209956D01*
X131657899Y-61130074D01*
X131384040Y-61103101D01*
X131110180Y-61130074D01*
X130846845Y-61209956D01*
X130604153Y-61339677D01*
X130391432Y-61514253D01*
X130216857Y-61726974D01*
X130114040Y-61919331D01*
X130011223Y-61726973D01*
X129836647Y-61514252D01*
X129623926Y-61339677D01*
X129381234Y-61209956D01*
X129117899Y-61130074D01*
X128844040Y-61103101D01*
X128570180Y-61130074D01*
X128306845Y-61209956D01*
X128064153Y-61339677D01*
X127851432Y-61514253D01*
X127676857Y-61726974D01*
X127574040Y-61919331D01*
X127471223Y-61726973D01*
X127296647Y-61514252D01*
X127083926Y-61339677D01*
X126841234Y-61209956D01*
X126577899Y-61130074D01*
X126304040Y-61103101D01*
X126030180Y-61130074D01*
X125766845Y-61209956D01*
X125524153Y-61339677D01*
X125311432Y-61514253D01*
X125136857Y-61726974D01*
X125034040Y-61919331D01*
X124931223Y-61726973D01*
X124756647Y-61514252D01*
X124543926Y-61339677D01*
X124301234Y-61209956D01*
X124037899Y-61130074D01*
X123764040Y-61103101D01*
X123490180Y-61130074D01*
X123226845Y-61209956D01*
X122984153Y-61339677D01*
X122771432Y-61514253D01*
X122596857Y-61726974D01*
X122494040Y-61919331D01*
X122391223Y-61726973D01*
X122216647Y-61514252D01*
X122061158Y-61386646D01*
X124795501Y-58652303D01*
X124981901Y-58615226D01*
X125170259Y-58537205D01*
X125339777Y-58423937D01*
X125483940Y-58279774D01*
X125597208Y-58110256D01*
X125675229Y-57921898D01*
X125715003Y-57721939D01*
X125715003Y-57518061D01*
X125675229Y-57318102D01*
X125597208Y-57129744D01*
X125483940Y-56960226D01*
X125339777Y-56816063D01*
X125170259Y-56702795D01*
X124981901Y-56624774D01*
X124781942Y-56585000D01*
X124578064Y-56585000D01*
X124378105Y-56624774D01*
X124189747Y-56702795D01*
X124180002Y-56709307D01*
X124170256Y-56702795D01*
X123981898Y-56624774D01*
X123781939Y-56585000D01*
X123578061Y-56585000D01*
X123378102Y-56624774D01*
X123189744Y-56702795D01*
X123087585Y-56771055D01*
X123060256Y-56752795D01*
X122871898Y-56674774D01*
X122671939Y-56635000D01*
X122468061Y-56635000D01*
X122268102Y-56674774D01*
X122079744Y-56752795D01*
X121910226Y-56866063D01*
X121866289Y-56910000D01*
X118986233Y-56910000D01*
X118948900Y-56906323D01*
X118911567Y-56910000D01*
X118799914Y-56920997D01*
X118656653Y-56964454D01*
X118524624Y-57035026D01*
X118408899Y-57129999D01*
X118385101Y-57158997D01*
X114266948Y-61277151D01*
X114141234Y-61209956D01*
X113877899Y-61130074D01*
X113604040Y-61103101D01*
X113330180Y-61130074D01*
X113066845Y-61209956D01*
X112824153Y-61339677D01*
X112611432Y-61514253D01*
X112436857Y-61726974D01*
X112334040Y-61919331D01*
X112231223Y-61726973D01*
X112056647Y-61514252D01*
X111843926Y-61339677D01*
X111601234Y-61209956D01*
X111337899Y-61130074D01*
X111064040Y-61103101D01*
X110790180Y-61130074D01*
X110526845Y-61209956D01*
X110284153Y-61339677D01*
X110071432Y-61514253D01*
X109896857Y-61726974D01*
X109794040Y-61919331D01*
X109691223Y-61726973D01*
X109516647Y-61514252D01*
X109303926Y-61339677D01*
X109061234Y-61209956D01*
X108797899Y-61130074D01*
X108524040Y-61103101D01*
X108250180Y-61130074D01*
X107986845Y-61209956D01*
X107744153Y-61339677D01*
X107531432Y-61514253D01*
X107356857Y-61726974D01*
X107253002Y-61921274D01*
X107226099Y-61854918D01*
X107075046Y-61625131D01*
X106882066Y-61429228D01*
X106654575Y-61274738D01*
X106401316Y-61167598D01*
X106327110Y-61152640D01*
X106111040Y-61275140D01*
X106111040Y-62887860D01*
X106131040Y-62887860D01*
X106131040Y-63141860D01*
X106111040Y-63141860D01*
X106111040Y-63161860D01*
X105857040Y-63161860D01*
X105857040Y-63141860D01*
X105837040Y-63141860D01*
X105837040Y-62887860D01*
X105857040Y-62887860D01*
X105857040Y-61275140D01*
X105640970Y-61152640D01*
X105566764Y-61167598D01*
X105313505Y-61274738D01*
X105086014Y-61429228D01*
X104893034Y-61625131D01*
X104741981Y-61854918D01*
X104715078Y-61921273D01*
X104611223Y-61726973D01*
X104436647Y-61514252D01*
X104223926Y-61339677D01*
X103981234Y-61209956D01*
X103717899Y-61130074D01*
X103444040Y-61103101D01*
X103170180Y-61130074D01*
X102906845Y-61209956D01*
X102664153Y-61339677D01*
X102451432Y-61514253D01*
X102276857Y-61726974D01*
X102174040Y-61919331D01*
X102071223Y-61726973D01*
X101896647Y-61514252D01*
X101683926Y-61339677D01*
X101441234Y-61209956D01*
X101177899Y-61130074D01*
X100904040Y-61103101D01*
X100630180Y-61130074D01*
X100366845Y-61209956D01*
X100124153Y-61339677D01*
X99911432Y-61514253D01*
X99736857Y-61726974D01*
X99607136Y-61969666D01*
X99527254Y-62233001D01*
X99507040Y-62438236D01*
X99507040Y-63591485D01*
X99527254Y-63796720D01*
X99607136Y-64060055D01*
X99695226Y-64224860D01*
X99259040Y-64224860D01*
X99259040Y-61710725D01*
X99248983Y-61608616D01*
X99223548Y-61524769D01*
X99220611Y-60212769D01*
X105793381Y-53640000D01*
X139839351Y-53640000D01*
X139812795Y-53679744D01*
G37*
G04 #@! TD.AperFunction*
D13*
X161000648Y-60314029D02*
X161003525Y-61528092D01*
X160979098Y-61608616D01*
X160969041Y-61710725D01*
X160969040Y-64224860D01*
X160532854Y-64224860D01*
X160620944Y-64060055D01*
X160700826Y-63796720D01*
X160721040Y-63591485D01*
X160721040Y-62438235D01*
X160700826Y-62233000D01*
X160620944Y-61969665D01*
X160491223Y-61726973D01*
X160316647Y-61514252D01*
X160103926Y-61339677D01*
X159861234Y-61209956D01*
X159597899Y-61130074D01*
X159324040Y-61103101D01*
X159050180Y-61130074D01*
X158786845Y-61209956D01*
X158661132Y-61277151D01*
X151042984Y-53659003D01*
X151027389Y-53640000D01*
X154326620Y-53640000D01*
X161000648Y-60314029D01*
G04 #@! TA.AperFunction,Conductor*
D14*
G36*
X161000648Y-60314029D02*
G01*
X161003525Y-61528092D01*
X160979098Y-61608616D01*
X160969041Y-61710725D01*
X160969040Y-64224860D01*
X160532854Y-64224860D01*
X160620944Y-64060055D01*
X160700826Y-63796720D01*
X160721040Y-63591485D01*
X160721040Y-62438235D01*
X160700826Y-62233000D01*
X160620944Y-61969665D01*
X160491223Y-61726973D01*
X160316647Y-61514252D01*
X160103926Y-61339677D01*
X159861234Y-61209956D01*
X159597899Y-61130074D01*
X159324040Y-61103101D01*
X159050180Y-61130074D01*
X158786845Y-61209956D01*
X158661132Y-61277151D01*
X151042984Y-53659003D01*
X151027389Y-53640000D01*
X154326620Y-53640000D01*
X161000648Y-60314029D01*
G37*
G04 #@! TD.AperFunction*
M02*
