G04 #@! TF.GenerationSoftware,KiCad,Pcbnew,(7.0.0)*
G04 #@! TF.CreationDate,2023-03-31T21:54:34-07:00*
G04 #@! TF.ProjectId,Atari130MX-adapter,41746172-6931-4333-904d-582d61646170,F*
G04 #@! TF.SameCoordinates,Original*
G04 #@! TF.FileFunction,Copper,L2,Bot*
G04 #@! TF.FilePolarity,Positive*
%FSLAX46Y46*%
G04 Gerber Fmt 4.6, Leading zero omitted, Abs format (unit mm)*
G04 Created by KiCad (PCBNEW (7.0.0)) date 2023-03-31 21:54:34*
%MOMM*%
%LPD*%
G01*
G04 APERTURE LIST*
G04 #@! TA.AperFunction,ComponentPad*
%ADD10C,2.000000*%
G04 #@! TD*
G04 #@! TA.AperFunction,ComponentPad*
%ADD11O,1.524000X2.540000*%
G04 #@! TD*
G04 #@! TA.AperFunction,ViaPad*
%ADD12C,0.800000*%
G04 #@! TD*
G04 #@! TA.AperFunction,Conductor*
%ADD13C,0.250000*%
G04 #@! TD*
G04 APERTURE END LIST*
D10*
X60246600Y-58475000D03*
X55246600Y-60975000D03*
X60246600Y-63475000D03*
D11*
X100888799Y-63042799D03*
X103428799Y-63042799D03*
X105968799Y-63042799D03*
X108508799Y-63042799D03*
X111048799Y-63042799D03*
X113588799Y-63042799D03*
X116128799Y-63042799D03*
X118668799Y-63042799D03*
X121208799Y-63042799D03*
X123748799Y-63042799D03*
X126288799Y-63042799D03*
X128828799Y-63042799D03*
X131368799Y-63042799D03*
X133908799Y-63042799D03*
X136448799Y-63042799D03*
X138988799Y-63042799D03*
X141528799Y-63042799D03*
X144068799Y-63042799D03*
X146608799Y-63042799D03*
X149148799Y-63042799D03*
X151688799Y-63042799D03*
X154228799Y-63042799D03*
X156768799Y-63042799D03*
X159308799Y-63042799D03*
D12*
X90388500Y-62141100D03*
X92227400Y-62001400D03*
X67487800Y-61595000D03*
X69062600Y-62433200D03*
X71094600Y-62534800D03*
X73101200Y-62484000D03*
X75082400Y-62458600D03*
X89865200Y-61112400D03*
X77089000Y-62458600D03*
X79070200Y-62484000D03*
X81102200Y-62509400D03*
X83108800Y-62458600D03*
X85064600Y-62458600D03*
X87096600Y-62458600D03*
D13*
X98974919Y-58588919D02*
X103428800Y-63042800D01*
X93940681Y-58588919D02*
X98974919Y-58588919D01*
X90388500Y-62141100D02*
X93940681Y-58588919D01*
X77406881Y-54088919D02*
X147814919Y-54088919D01*
X69062600Y-62433200D02*
X77406881Y-54088919D01*
X147814919Y-54088919D02*
X156768800Y-63042800D01*
X143184919Y-54538919D02*
X151688800Y-63042800D01*
X79090481Y-54538919D02*
X143184919Y-54538919D01*
X71094600Y-62534800D02*
X79090481Y-54538919D01*
X138554919Y-54988919D02*
X146608800Y-63042800D01*
X80596281Y-54988919D02*
X138554919Y-54988919D01*
X73101200Y-62484000D02*
X80596281Y-54988919D01*
X133924919Y-55438919D02*
X141528800Y-63042800D01*
X82102081Y-55438919D02*
X133924919Y-55438919D01*
X75082400Y-62458600D02*
X82102081Y-55438919D01*
X129294919Y-55888919D02*
X136448800Y-63042800D01*
X83658681Y-55888919D02*
X129294919Y-55888919D01*
X77089000Y-62458600D02*
X83658681Y-55888919D01*
X85215281Y-56338919D02*
X124664919Y-56338919D01*
X124664919Y-56338919D02*
X131368800Y-63042800D01*
X79070200Y-62484000D02*
X85215281Y-56338919D01*
X86822681Y-56788919D02*
X120034919Y-56788919D01*
X120034919Y-56788919D02*
X126288800Y-63042800D01*
X81102200Y-62509400D02*
X86822681Y-56788919D01*
X83108800Y-62458600D02*
X88328481Y-57238919D01*
X88328481Y-57238919D02*
X115404919Y-57238919D01*
X115404919Y-57238919D02*
X121208800Y-63042800D01*
X85064600Y-62458600D02*
X89834281Y-57688919D01*
X89834281Y-57688919D02*
X110774919Y-57688919D01*
X110774919Y-57688919D02*
X116128800Y-63042800D01*
X91416281Y-58138919D02*
X106144919Y-58138919D01*
X106144919Y-58138919D02*
X111048800Y-63042800D01*
X87096600Y-62458600D02*
X91416281Y-58138919D01*
G04 #@! TA.AperFunction,Conductor*
G36*
X154592153Y-53319559D02*
G01*
X154632319Y-53345432D01*
X159333695Y-57840845D01*
X161584166Y-59992725D01*
X161599378Y-60007270D01*
X161628162Y-60048820D01*
X161638300Y-60098338D01*
X161638300Y-64811300D01*
X161621419Y-64874300D01*
X161575300Y-64920419D01*
X161512300Y-64937300D01*
X98685300Y-64937300D01*
X98622300Y-64920419D01*
X98576181Y-64874300D01*
X98559300Y-64811300D01*
X98559300Y-59094419D01*
X98576181Y-59031419D01*
X98622300Y-58985300D01*
X98685300Y-58968419D01*
X98765535Y-58968419D01*
X98813753Y-58978010D01*
X98854630Y-59005324D01*
X101165456Y-61316150D01*
X101196935Y-61368669D01*
X101199940Y-61429826D01*
X101173761Y-61485178D01*
X101124580Y-61521654D01*
X101064011Y-61530638D01*
X100894963Y-61513989D01*
X100888800Y-61513382D01*
X100882637Y-61513989D01*
X100695696Y-61532400D01*
X100695687Y-61532401D01*
X100689531Y-61533008D01*
X100683609Y-61534804D01*
X100683601Y-61534806D01*
X100503844Y-61589335D01*
X100503835Y-61589338D01*
X100497920Y-61591133D01*
X100492468Y-61594046D01*
X100492461Y-61594050D01*
X100326786Y-61682605D01*
X100326776Y-61682611D01*
X100321331Y-61685522D01*
X100316558Y-61689438D01*
X100316549Y-61689445D01*
X100171326Y-61808626D01*
X100171321Y-61808630D01*
X100166548Y-61812548D01*
X100162630Y-61817321D01*
X100162626Y-61817326D01*
X100043445Y-61962549D01*
X100043438Y-61962558D01*
X100039522Y-61967331D01*
X100036611Y-61972776D01*
X100036605Y-61972786D01*
X99948050Y-62138461D01*
X99948046Y-62138468D01*
X99945133Y-62143920D01*
X99943338Y-62149835D01*
X99943335Y-62149844D01*
X99888806Y-62329601D01*
X99888804Y-62329609D01*
X99887008Y-62335531D01*
X99886401Y-62341687D01*
X99886400Y-62341696D01*
X99873130Y-62476434D01*
X99872300Y-62484866D01*
X99872300Y-63600734D01*
X99872602Y-63603806D01*
X99872603Y-63603814D01*
X99886400Y-63743903D01*
X99886401Y-63743910D01*
X99887008Y-63750069D01*
X99888804Y-63755992D01*
X99888806Y-63755998D01*
X99943335Y-63935755D01*
X99943337Y-63935760D01*
X99945133Y-63941680D01*
X99948048Y-63947134D01*
X99948050Y-63947138D01*
X100036605Y-64112813D01*
X100036608Y-64112818D01*
X100039522Y-64118269D01*
X100043442Y-64123045D01*
X100043445Y-64123050D01*
X100162334Y-64267917D01*
X100166548Y-64273052D01*
X100171326Y-64276973D01*
X100316549Y-64396154D01*
X100316551Y-64396155D01*
X100321331Y-64400078D01*
X100497920Y-64494467D01*
X100689531Y-64552592D01*
X100888800Y-64572218D01*
X101088069Y-64552592D01*
X101279680Y-64494467D01*
X101456269Y-64400078D01*
X101611052Y-64273052D01*
X101738078Y-64118269D01*
X101832467Y-63941680D01*
X101890592Y-63750069D01*
X101905300Y-63600734D01*
X101905300Y-62484866D01*
X101892961Y-62359586D01*
X101901945Y-62299020D01*
X101938420Y-62249839D01*
X101993773Y-62223659D01*
X102054930Y-62226664D01*
X102107449Y-62258143D01*
X102375395Y-62526089D01*
X102402709Y-62566966D01*
X102412300Y-62615184D01*
X102412300Y-63600734D01*
X102412602Y-63603806D01*
X102412603Y-63603814D01*
X102426400Y-63743903D01*
X102426401Y-63743910D01*
X102427008Y-63750069D01*
X102428804Y-63755992D01*
X102428806Y-63755998D01*
X102483335Y-63935755D01*
X102483337Y-63935760D01*
X102485133Y-63941680D01*
X102488048Y-63947134D01*
X102488050Y-63947138D01*
X102576605Y-64112813D01*
X102576608Y-64112818D01*
X102579522Y-64118269D01*
X102583442Y-64123045D01*
X102583445Y-64123050D01*
X102702334Y-64267917D01*
X102706548Y-64273052D01*
X102711326Y-64276973D01*
X102856549Y-64396154D01*
X102856551Y-64396155D01*
X102861331Y-64400078D01*
X103037920Y-64494467D01*
X103229531Y-64552592D01*
X103428800Y-64572218D01*
X103628069Y-64552592D01*
X103819680Y-64494467D01*
X103996269Y-64400078D01*
X104151052Y-64273052D01*
X104278078Y-64118269D01*
X104372467Y-63941680D01*
X104430592Y-63750069D01*
X104445300Y-63600734D01*
X104445300Y-63597620D01*
X104952800Y-63597620D01*
X104953103Y-63603792D01*
X104966893Y-63743805D01*
X104969299Y-63755900D01*
X105023799Y-63935564D01*
X105028514Y-63946946D01*
X105117021Y-64112532D01*
X105123865Y-64122775D01*
X105242980Y-64267917D01*
X105251682Y-64276619D01*
X105396824Y-64395734D01*
X105407067Y-64402578D01*
X105572653Y-64491085D01*
X105584035Y-64495800D01*
X105763699Y-64550300D01*
X105775794Y-64552706D01*
X105824245Y-64557478D01*
X105837970Y-64554980D01*
X105841800Y-64541569D01*
X106095800Y-64541569D01*
X106099629Y-64554980D01*
X106113354Y-64557478D01*
X106161805Y-64552706D01*
X106173900Y-64550300D01*
X106353564Y-64495800D01*
X106364946Y-64491085D01*
X106530532Y-64402578D01*
X106540775Y-64395734D01*
X106685917Y-64276619D01*
X106694619Y-64267917D01*
X106813734Y-64122775D01*
X106820578Y-64112532D01*
X106909085Y-63946946D01*
X106913800Y-63935564D01*
X106968300Y-63755900D01*
X106970706Y-63743805D01*
X106984496Y-63603792D01*
X106984800Y-63597620D01*
X106984800Y-63186390D01*
X106981293Y-63173306D01*
X106968210Y-63169800D01*
X106112390Y-63169800D01*
X106099306Y-63173306D01*
X106095800Y-63186390D01*
X106095800Y-64541569D01*
X105841800Y-64541569D01*
X105841800Y-63186390D01*
X105838293Y-63173306D01*
X105825210Y-63169800D01*
X104969390Y-63169800D01*
X104956306Y-63173306D01*
X104952800Y-63186390D01*
X104952800Y-63597620D01*
X104445300Y-63597620D01*
X104445300Y-62899210D01*
X104952800Y-62899210D01*
X104956306Y-62912293D01*
X104969390Y-62915800D01*
X105825210Y-62915800D01*
X105838293Y-62912293D01*
X105841800Y-62899210D01*
X106095800Y-62899210D01*
X106099306Y-62912293D01*
X106112390Y-62915800D01*
X106968210Y-62915800D01*
X106981293Y-62912293D01*
X106984800Y-62899210D01*
X106984800Y-62487980D01*
X106984496Y-62481807D01*
X106970706Y-62341794D01*
X106968300Y-62329699D01*
X106913800Y-62150035D01*
X106909085Y-62138653D01*
X106820578Y-61973067D01*
X106813734Y-61962824D01*
X106694619Y-61817682D01*
X106685917Y-61808980D01*
X106540775Y-61689865D01*
X106530532Y-61683021D01*
X106364946Y-61594514D01*
X106353564Y-61589799D01*
X106173900Y-61535299D01*
X106161805Y-61532893D01*
X106113354Y-61528121D01*
X106099629Y-61530619D01*
X106095800Y-61544031D01*
X106095800Y-62899210D01*
X105841800Y-62899210D01*
X105841800Y-61544031D01*
X105837970Y-61530619D01*
X105824245Y-61528121D01*
X105775794Y-61532893D01*
X105763699Y-61535299D01*
X105584035Y-61589799D01*
X105572653Y-61594514D01*
X105407067Y-61683021D01*
X105396824Y-61689865D01*
X105251682Y-61808980D01*
X105242980Y-61817682D01*
X105123865Y-61962824D01*
X105117021Y-61973067D01*
X105028514Y-62138653D01*
X105023799Y-62150035D01*
X104969299Y-62329699D01*
X104966893Y-62341794D01*
X104953103Y-62481807D01*
X104952800Y-62487980D01*
X104952800Y-62899210D01*
X104445300Y-62899210D01*
X104445300Y-62484866D01*
X104430592Y-62335531D01*
X104372467Y-62143920D01*
X104304276Y-62016344D01*
X104280994Y-61972786D01*
X104280992Y-61972784D01*
X104278078Y-61967331D01*
X104260946Y-61946456D01*
X104164964Y-61829500D01*
X104151052Y-61812548D01*
X104072435Y-61748029D01*
X104001050Y-61689445D01*
X104001045Y-61689442D01*
X103996269Y-61685522D01*
X103990818Y-61682608D01*
X103990813Y-61682605D01*
X103825138Y-61594050D01*
X103825134Y-61594048D01*
X103819680Y-61591133D01*
X103813760Y-61589337D01*
X103813755Y-61589335D01*
X103633998Y-61534806D01*
X103633992Y-61534804D01*
X103628069Y-61533008D01*
X103621910Y-61532401D01*
X103621903Y-61532400D01*
X103434963Y-61513989D01*
X103428800Y-61513382D01*
X103422637Y-61513989D01*
X103235696Y-61532400D01*
X103235687Y-61532401D01*
X103229531Y-61533008D01*
X103223609Y-61534804D01*
X103223601Y-61534806D01*
X103043844Y-61589335D01*
X103043835Y-61589338D01*
X103037920Y-61591133D01*
X103032468Y-61594046D01*
X103032461Y-61594050D01*
X102866786Y-61682605D01*
X102866776Y-61682611D01*
X102861331Y-61685522D01*
X102856554Y-61689442D01*
X102856544Y-61689449D01*
X102810582Y-61727168D01*
X102755230Y-61753346D01*
X102694074Y-61750341D01*
X102641556Y-61718862D01*
X99656208Y-58733514D01*
X99625470Y-58683355D01*
X99620854Y-58624708D01*
X99643367Y-58570358D01*
X99688100Y-58532152D01*
X99745303Y-58518419D01*
X105935535Y-58518419D01*
X105983753Y-58528010D01*
X106024630Y-58555324D01*
X108785456Y-61316150D01*
X108816935Y-61368669D01*
X108819940Y-61429826D01*
X108793761Y-61485178D01*
X108744580Y-61521654D01*
X108684011Y-61530638D01*
X108514963Y-61513989D01*
X108508800Y-61513382D01*
X108502637Y-61513989D01*
X108315696Y-61532400D01*
X108315687Y-61532401D01*
X108309531Y-61533008D01*
X108303609Y-61534804D01*
X108303601Y-61534806D01*
X108123844Y-61589335D01*
X108123835Y-61589338D01*
X108117920Y-61591133D01*
X108112468Y-61594046D01*
X108112461Y-61594050D01*
X107946786Y-61682605D01*
X107946776Y-61682611D01*
X107941331Y-61685522D01*
X107936558Y-61689438D01*
X107936549Y-61689445D01*
X107791326Y-61808626D01*
X107791321Y-61808630D01*
X107786548Y-61812548D01*
X107782630Y-61817321D01*
X107782626Y-61817326D01*
X107663445Y-61962549D01*
X107663438Y-61962558D01*
X107659522Y-61967331D01*
X107656611Y-61972776D01*
X107656605Y-61972786D01*
X107568050Y-62138461D01*
X107568046Y-62138468D01*
X107565133Y-62143920D01*
X107563338Y-62149835D01*
X107563335Y-62149844D01*
X107508806Y-62329601D01*
X107508804Y-62329609D01*
X107507008Y-62335531D01*
X107506401Y-62341687D01*
X107506400Y-62341696D01*
X107493130Y-62476434D01*
X107492300Y-62484866D01*
X107492300Y-63600734D01*
X107492602Y-63603806D01*
X107492603Y-63603814D01*
X107506400Y-63743903D01*
X107506401Y-63743910D01*
X107507008Y-63750069D01*
X107508804Y-63755992D01*
X107508806Y-63755998D01*
X107563335Y-63935755D01*
X107563337Y-63935760D01*
X107565133Y-63941680D01*
X107568048Y-63947134D01*
X107568050Y-63947138D01*
X107656605Y-64112813D01*
X107656608Y-64112818D01*
X107659522Y-64118269D01*
X107663442Y-64123045D01*
X107663445Y-64123050D01*
X107782334Y-64267917D01*
X107786548Y-64273052D01*
X107791326Y-64276973D01*
X107936549Y-64396154D01*
X107936551Y-64396155D01*
X107941331Y-64400078D01*
X108117920Y-64494467D01*
X108309531Y-64552592D01*
X108508800Y-64572218D01*
X108708069Y-64552592D01*
X108899680Y-64494467D01*
X109076269Y-64400078D01*
X109231052Y-64273052D01*
X109358078Y-64118269D01*
X109452467Y-63941680D01*
X109510592Y-63750069D01*
X109525300Y-63600734D01*
X109525300Y-62484866D01*
X109512961Y-62359586D01*
X109521945Y-62299020D01*
X109558420Y-62249839D01*
X109613773Y-62223659D01*
X109674930Y-62226664D01*
X109727449Y-62258143D01*
X109995395Y-62526089D01*
X110022709Y-62566966D01*
X110032300Y-62615184D01*
X110032300Y-63600734D01*
X110032602Y-63603806D01*
X110032603Y-63603814D01*
X110046400Y-63743903D01*
X110046401Y-63743910D01*
X110047008Y-63750069D01*
X110048804Y-63755992D01*
X110048806Y-63755998D01*
X110103335Y-63935755D01*
X110103337Y-63935760D01*
X110105133Y-63941680D01*
X110108048Y-63947134D01*
X110108050Y-63947138D01*
X110196605Y-64112813D01*
X110196608Y-64112818D01*
X110199522Y-64118269D01*
X110203442Y-64123045D01*
X110203445Y-64123050D01*
X110322334Y-64267917D01*
X110326548Y-64273052D01*
X110331326Y-64276973D01*
X110476549Y-64396154D01*
X110476551Y-64396155D01*
X110481331Y-64400078D01*
X110657920Y-64494467D01*
X110849531Y-64552592D01*
X111048800Y-64572218D01*
X111248069Y-64552592D01*
X111439680Y-64494467D01*
X111616269Y-64400078D01*
X111771052Y-64273052D01*
X111898078Y-64118269D01*
X111992467Y-63941680D01*
X112050592Y-63750069D01*
X112065300Y-63600734D01*
X112065300Y-62484866D01*
X112050592Y-62335531D01*
X111992467Y-62143920D01*
X111924276Y-62016344D01*
X111900994Y-61972786D01*
X111900992Y-61972784D01*
X111898078Y-61967331D01*
X111880946Y-61946456D01*
X111784964Y-61829500D01*
X111771052Y-61812548D01*
X111692435Y-61748029D01*
X111621050Y-61689445D01*
X111621045Y-61689442D01*
X111616269Y-61685522D01*
X111610818Y-61682608D01*
X111610813Y-61682605D01*
X111445138Y-61594050D01*
X111445134Y-61594048D01*
X111439680Y-61591133D01*
X111433760Y-61589337D01*
X111433755Y-61589335D01*
X111253998Y-61534806D01*
X111253992Y-61534804D01*
X111248069Y-61533008D01*
X111241910Y-61532401D01*
X111241903Y-61532400D01*
X111054963Y-61513989D01*
X111048800Y-61513382D01*
X111042637Y-61513989D01*
X110855696Y-61532400D01*
X110855687Y-61532401D01*
X110849531Y-61533008D01*
X110843609Y-61534804D01*
X110843601Y-61534806D01*
X110663844Y-61589335D01*
X110663835Y-61589338D01*
X110657920Y-61591133D01*
X110652468Y-61594046D01*
X110652461Y-61594050D01*
X110486786Y-61682605D01*
X110486776Y-61682611D01*
X110481331Y-61685522D01*
X110476554Y-61689442D01*
X110476544Y-61689449D01*
X110430582Y-61727168D01*
X110375230Y-61753346D01*
X110314074Y-61750341D01*
X110261556Y-61718862D01*
X106826208Y-58283514D01*
X106795470Y-58233355D01*
X106790854Y-58174708D01*
X106813367Y-58120358D01*
X106858100Y-58082152D01*
X106915303Y-58068419D01*
X110565535Y-58068419D01*
X110613753Y-58078010D01*
X110654630Y-58105324D01*
X113865456Y-61316150D01*
X113896935Y-61368669D01*
X113899940Y-61429826D01*
X113873761Y-61485178D01*
X113824580Y-61521654D01*
X113764011Y-61530638D01*
X113594963Y-61513989D01*
X113588800Y-61513382D01*
X113582637Y-61513989D01*
X113395696Y-61532400D01*
X113395687Y-61532401D01*
X113389531Y-61533008D01*
X113383609Y-61534804D01*
X113383601Y-61534806D01*
X113203844Y-61589335D01*
X113203835Y-61589338D01*
X113197920Y-61591133D01*
X113192468Y-61594046D01*
X113192461Y-61594050D01*
X113026786Y-61682605D01*
X113026776Y-61682611D01*
X113021331Y-61685522D01*
X113016558Y-61689438D01*
X113016549Y-61689445D01*
X112871326Y-61808626D01*
X112871321Y-61808630D01*
X112866548Y-61812548D01*
X112862630Y-61817321D01*
X112862626Y-61817326D01*
X112743445Y-61962549D01*
X112743438Y-61962558D01*
X112739522Y-61967331D01*
X112736611Y-61972776D01*
X112736605Y-61972786D01*
X112648050Y-62138461D01*
X112648046Y-62138468D01*
X112645133Y-62143920D01*
X112643338Y-62149835D01*
X112643335Y-62149844D01*
X112588806Y-62329601D01*
X112588804Y-62329609D01*
X112587008Y-62335531D01*
X112586401Y-62341687D01*
X112586400Y-62341696D01*
X112573130Y-62476434D01*
X112572300Y-62484866D01*
X112572300Y-63600734D01*
X112572602Y-63603806D01*
X112572603Y-63603814D01*
X112586400Y-63743903D01*
X112586401Y-63743910D01*
X112587008Y-63750069D01*
X112588804Y-63755992D01*
X112588806Y-63755998D01*
X112643335Y-63935755D01*
X112643337Y-63935760D01*
X112645133Y-63941680D01*
X112648048Y-63947134D01*
X112648050Y-63947138D01*
X112736605Y-64112813D01*
X112736608Y-64112818D01*
X112739522Y-64118269D01*
X112743442Y-64123045D01*
X112743445Y-64123050D01*
X112862334Y-64267917D01*
X112866548Y-64273052D01*
X112871326Y-64276973D01*
X113016549Y-64396154D01*
X113016551Y-64396155D01*
X113021331Y-64400078D01*
X113197920Y-64494467D01*
X113389531Y-64552592D01*
X113588800Y-64572218D01*
X113788069Y-64552592D01*
X113979680Y-64494467D01*
X114156269Y-64400078D01*
X114311052Y-64273052D01*
X114438078Y-64118269D01*
X114532467Y-63941680D01*
X114590592Y-63750069D01*
X114605300Y-63600734D01*
X114605300Y-62484866D01*
X114592961Y-62359586D01*
X114601945Y-62299020D01*
X114638420Y-62249839D01*
X114693773Y-62223659D01*
X114754930Y-62226664D01*
X114807449Y-62258143D01*
X115075395Y-62526089D01*
X115102709Y-62566966D01*
X115112300Y-62615184D01*
X115112300Y-63600734D01*
X115112602Y-63603806D01*
X115112603Y-63603814D01*
X115126400Y-63743903D01*
X115126401Y-63743910D01*
X115127008Y-63750069D01*
X115128804Y-63755992D01*
X115128806Y-63755998D01*
X115183335Y-63935755D01*
X115183337Y-63935760D01*
X115185133Y-63941680D01*
X115188048Y-63947134D01*
X115188050Y-63947138D01*
X115276605Y-64112813D01*
X115276608Y-64112818D01*
X115279522Y-64118269D01*
X115283442Y-64123045D01*
X115283445Y-64123050D01*
X115402334Y-64267917D01*
X115406548Y-64273052D01*
X115411326Y-64276973D01*
X115556549Y-64396154D01*
X115556551Y-64396155D01*
X115561331Y-64400078D01*
X115737920Y-64494467D01*
X115929531Y-64552592D01*
X116128800Y-64572218D01*
X116328069Y-64552592D01*
X116519680Y-64494467D01*
X116696269Y-64400078D01*
X116851052Y-64273052D01*
X116978078Y-64118269D01*
X117072467Y-63941680D01*
X117130592Y-63750069D01*
X117145300Y-63600734D01*
X117145300Y-62484866D01*
X117130592Y-62335531D01*
X117072467Y-62143920D01*
X117004276Y-62016344D01*
X116980994Y-61972786D01*
X116980992Y-61972784D01*
X116978078Y-61967331D01*
X116960946Y-61946456D01*
X116864964Y-61829500D01*
X116851052Y-61812548D01*
X116772435Y-61748029D01*
X116701050Y-61689445D01*
X116701045Y-61689442D01*
X116696269Y-61685522D01*
X116690818Y-61682608D01*
X116690813Y-61682605D01*
X116525138Y-61594050D01*
X116525134Y-61594048D01*
X116519680Y-61591133D01*
X116513760Y-61589337D01*
X116513755Y-61589335D01*
X116333998Y-61534806D01*
X116333992Y-61534804D01*
X116328069Y-61533008D01*
X116321910Y-61532401D01*
X116321903Y-61532400D01*
X116134963Y-61513989D01*
X116128800Y-61513382D01*
X116122637Y-61513989D01*
X115935696Y-61532400D01*
X115935687Y-61532401D01*
X115929531Y-61533008D01*
X115923609Y-61534804D01*
X115923601Y-61534806D01*
X115743844Y-61589335D01*
X115743835Y-61589338D01*
X115737920Y-61591133D01*
X115732468Y-61594046D01*
X115732461Y-61594050D01*
X115566786Y-61682605D01*
X115566776Y-61682611D01*
X115561331Y-61685522D01*
X115556554Y-61689442D01*
X115556544Y-61689449D01*
X115510582Y-61727168D01*
X115455230Y-61753346D01*
X115394074Y-61750341D01*
X115341556Y-61718862D01*
X111456208Y-57833514D01*
X111425470Y-57783355D01*
X111420854Y-57724708D01*
X111443367Y-57670358D01*
X111488100Y-57632152D01*
X111545303Y-57618419D01*
X115195535Y-57618419D01*
X115243753Y-57628010D01*
X115284630Y-57655324D01*
X118945456Y-61316150D01*
X118976935Y-61368669D01*
X118979940Y-61429826D01*
X118953761Y-61485178D01*
X118904580Y-61521654D01*
X118844011Y-61530638D01*
X118674963Y-61513989D01*
X118668800Y-61513382D01*
X118662637Y-61513989D01*
X118475696Y-61532400D01*
X118475687Y-61532401D01*
X118469531Y-61533008D01*
X118463609Y-61534804D01*
X118463601Y-61534806D01*
X118283844Y-61589335D01*
X118283835Y-61589338D01*
X118277920Y-61591133D01*
X118272468Y-61594046D01*
X118272461Y-61594050D01*
X118106786Y-61682605D01*
X118106776Y-61682611D01*
X118101331Y-61685522D01*
X118096558Y-61689438D01*
X118096549Y-61689445D01*
X117951326Y-61808626D01*
X117951321Y-61808630D01*
X117946548Y-61812548D01*
X117942630Y-61817321D01*
X117942626Y-61817326D01*
X117823445Y-61962549D01*
X117823438Y-61962558D01*
X117819522Y-61967331D01*
X117816611Y-61972776D01*
X117816605Y-61972786D01*
X117728050Y-62138461D01*
X117728046Y-62138468D01*
X117725133Y-62143920D01*
X117723338Y-62149835D01*
X117723335Y-62149844D01*
X117668806Y-62329601D01*
X117668804Y-62329609D01*
X117667008Y-62335531D01*
X117666401Y-62341687D01*
X117666400Y-62341696D01*
X117653130Y-62476434D01*
X117652300Y-62484866D01*
X117652300Y-63600734D01*
X117652602Y-63603806D01*
X117652603Y-63603814D01*
X117666400Y-63743903D01*
X117666401Y-63743910D01*
X117667008Y-63750069D01*
X117668804Y-63755992D01*
X117668806Y-63755998D01*
X117723335Y-63935755D01*
X117723337Y-63935760D01*
X117725133Y-63941680D01*
X117728048Y-63947134D01*
X117728050Y-63947138D01*
X117816605Y-64112813D01*
X117816608Y-64112818D01*
X117819522Y-64118269D01*
X117823442Y-64123045D01*
X117823445Y-64123050D01*
X117942334Y-64267917D01*
X117946548Y-64273052D01*
X117951326Y-64276973D01*
X118096549Y-64396154D01*
X118096551Y-64396155D01*
X118101331Y-64400078D01*
X118277920Y-64494467D01*
X118469531Y-64552592D01*
X118668800Y-64572218D01*
X118868069Y-64552592D01*
X119059680Y-64494467D01*
X119236269Y-64400078D01*
X119391052Y-64273052D01*
X119518078Y-64118269D01*
X119612467Y-63941680D01*
X119670592Y-63750069D01*
X119685300Y-63600734D01*
X119685300Y-62484866D01*
X119672961Y-62359586D01*
X119681945Y-62299020D01*
X119718420Y-62249839D01*
X119773773Y-62223659D01*
X119834930Y-62226664D01*
X119887449Y-62258143D01*
X120155395Y-62526089D01*
X120182709Y-62566966D01*
X120192300Y-62615184D01*
X120192300Y-63600734D01*
X120192602Y-63603806D01*
X120192603Y-63603814D01*
X120206400Y-63743903D01*
X120206401Y-63743910D01*
X120207008Y-63750069D01*
X120208804Y-63755992D01*
X120208806Y-63755998D01*
X120263335Y-63935755D01*
X120263337Y-63935760D01*
X120265133Y-63941680D01*
X120268048Y-63947134D01*
X120268050Y-63947138D01*
X120356605Y-64112813D01*
X120356608Y-64112818D01*
X120359522Y-64118269D01*
X120363442Y-64123045D01*
X120363445Y-64123050D01*
X120482334Y-64267917D01*
X120486548Y-64273052D01*
X120491326Y-64276973D01*
X120636549Y-64396154D01*
X120636551Y-64396155D01*
X120641331Y-64400078D01*
X120817920Y-64494467D01*
X121009531Y-64552592D01*
X121208800Y-64572218D01*
X121408069Y-64552592D01*
X121599680Y-64494467D01*
X121776269Y-64400078D01*
X121931052Y-64273052D01*
X122058078Y-64118269D01*
X122152467Y-63941680D01*
X122210592Y-63750069D01*
X122225300Y-63600734D01*
X122225300Y-62484866D01*
X122210592Y-62335531D01*
X122152467Y-62143920D01*
X122084276Y-62016344D01*
X122060994Y-61972786D01*
X122060992Y-61972784D01*
X122058078Y-61967331D01*
X122040946Y-61946456D01*
X121944964Y-61829500D01*
X121931052Y-61812548D01*
X121852435Y-61748029D01*
X121781050Y-61689445D01*
X121781045Y-61689442D01*
X121776269Y-61685522D01*
X121770818Y-61682608D01*
X121770813Y-61682605D01*
X121605138Y-61594050D01*
X121605134Y-61594048D01*
X121599680Y-61591133D01*
X121593760Y-61589337D01*
X121593755Y-61589335D01*
X121413998Y-61534806D01*
X121413992Y-61534804D01*
X121408069Y-61533008D01*
X121401910Y-61532401D01*
X121401903Y-61532400D01*
X121214963Y-61513989D01*
X121208800Y-61513382D01*
X121202637Y-61513989D01*
X121015696Y-61532400D01*
X121015687Y-61532401D01*
X121009531Y-61533008D01*
X121003609Y-61534804D01*
X121003601Y-61534806D01*
X120823844Y-61589335D01*
X120823835Y-61589338D01*
X120817920Y-61591133D01*
X120812468Y-61594046D01*
X120812461Y-61594050D01*
X120646786Y-61682605D01*
X120646776Y-61682611D01*
X120641331Y-61685522D01*
X120636554Y-61689442D01*
X120636544Y-61689449D01*
X120590582Y-61727168D01*
X120535230Y-61753346D01*
X120474074Y-61750341D01*
X120421556Y-61718862D01*
X116086208Y-57383514D01*
X116055470Y-57333355D01*
X116050854Y-57274708D01*
X116073367Y-57220358D01*
X116118100Y-57182152D01*
X116175303Y-57168419D01*
X119825535Y-57168419D01*
X119873753Y-57178010D01*
X119914630Y-57205324D01*
X124025456Y-61316150D01*
X124056935Y-61368669D01*
X124059940Y-61429826D01*
X124033761Y-61485178D01*
X123984580Y-61521654D01*
X123924011Y-61530638D01*
X123754963Y-61513989D01*
X123748800Y-61513382D01*
X123742637Y-61513989D01*
X123555696Y-61532400D01*
X123555687Y-61532401D01*
X123549531Y-61533008D01*
X123543609Y-61534804D01*
X123543601Y-61534806D01*
X123363844Y-61589335D01*
X123363835Y-61589338D01*
X123357920Y-61591133D01*
X123352468Y-61594046D01*
X123352461Y-61594050D01*
X123186786Y-61682605D01*
X123186776Y-61682611D01*
X123181331Y-61685522D01*
X123176558Y-61689438D01*
X123176549Y-61689445D01*
X123031326Y-61808626D01*
X123031321Y-61808630D01*
X123026548Y-61812548D01*
X123022630Y-61817321D01*
X123022626Y-61817326D01*
X122903445Y-61962549D01*
X122903438Y-61962558D01*
X122899522Y-61967331D01*
X122896611Y-61972776D01*
X122896605Y-61972786D01*
X122808050Y-62138461D01*
X122808046Y-62138468D01*
X122805133Y-62143920D01*
X122803338Y-62149835D01*
X122803335Y-62149844D01*
X122748806Y-62329601D01*
X122748804Y-62329609D01*
X122747008Y-62335531D01*
X122746401Y-62341687D01*
X122746400Y-62341696D01*
X122733130Y-62476434D01*
X122732300Y-62484866D01*
X122732300Y-63600734D01*
X122732602Y-63603806D01*
X122732603Y-63603814D01*
X122746400Y-63743903D01*
X122746401Y-63743910D01*
X122747008Y-63750069D01*
X122748804Y-63755992D01*
X122748806Y-63755998D01*
X122803335Y-63935755D01*
X122803337Y-63935760D01*
X122805133Y-63941680D01*
X122808048Y-63947134D01*
X122808050Y-63947138D01*
X122896605Y-64112813D01*
X122896608Y-64112818D01*
X122899522Y-64118269D01*
X122903442Y-64123045D01*
X122903445Y-64123050D01*
X123022334Y-64267917D01*
X123026548Y-64273052D01*
X123031326Y-64276973D01*
X123176549Y-64396154D01*
X123176551Y-64396155D01*
X123181331Y-64400078D01*
X123357920Y-64494467D01*
X123549531Y-64552592D01*
X123748800Y-64572218D01*
X123948069Y-64552592D01*
X124139680Y-64494467D01*
X124316269Y-64400078D01*
X124471052Y-64273052D01*
X124598078Y-64118269D01*
X124692467Y-63941680D01*
X124750592Y-63750069D01*
X124765300Y-63600734D01*
X124765300Y-62484866D01*
X124752961Y-62359586D01*
X124761945Y-62299020D01*
X124798420Y-62249839D01*
X124853773Y-62223659D01*
X124914930Y-62226664D01*
X124967449Y-62258143D01*
X125235395Y-62526089D01*
X125262709Y-62566966D01*
X125272300Y-62615184D01*
X125272300Y-63600734D01*
X125272602Y-63603806D01*
X125272603Y-63603814D01*
X125286400Y-63743903D01*
X125286401Y-63743910D01*
X125287008Y-63750069D01*
X125288804Y-63755992D01*
X125288806Y-63755998D01*
X125343335Y-63935755D01*
X125343337Y-63935760D01*
X125345133Y-63941680D01*
X125348048Y-63947134D01*
X125348050Y-63947138D01*
X125436605Y-64112813D01*
X125436608Y-64112818D01*
X125439522Y-64118269D01*
X125443442Y-64123045D01*
X125443445Y-64123050D01*
X125562334Y-64267917D01*
X125566548Y-64273052D01*
X125571326Y-64276973D01*
X125716549Y-64396154D01*
X125716551Y-64396155D01*
X125721331Y-64400078D01*
X125897920Y-64494467D01*
X126089531Y-64552592D01*
X126288800Y-64572218D01*
X126488069Y-64552592D01*
X126679680Y-64494467D01*
X126856269Y-64400078D01*
X127011052Y-64273052D01*
X127138078Y-64118269D01*
X127232467Y-63941680D01*
X127290592Y-63750069D01*
X127305300Y-63600734D01*
X127305300Y-62484866D01*
X127290592Y-62335531D01*
X127232467Y-62143920D01*
X127164276Y-62016344D01*
X127140994Y-61972786D01*
X127140992Y-61972784D01*
X127138078Y-61967331D01*
X127120946Y-61946456D01*
X127024964Y-61829500D01*
X127011052Y-61812548D01*
X126932435Y-61748029D01*
X126861050Y-61689445D01*
X126861045Y-61689442D01*
X126856269Y-61685522D01*
X126850818Y-61682608D01*
X126850813Y-61682605D01*
X126685138Y-61594050D01*
X126685134Y-61594048D01*
X126679680Y-61591133D01*
X126673760Y-61589337D01*
X126673755Y-61589335D01*
X126493998Y-61534806D01*
X126493992Y-61534804D01*
X126488069Y-61533008D01*
X126481910Y-61532401D01*
X126481903Y-61532400D01*
X126294963Y-61513989D01*
X126288800Y-61513382D01*
X126282637Y-61513989D01*
X126095696Y-61532400D01*
X126095687Y-61532401D01*
X126089531Y-61533008D01*
X126083609Y-61534804D01*
X126083601Y-61534806D01*
X125903844Y-61589335D01*
X125903835Y-61589338D01*
X125897920Y-61591133D01*
X125892468Y-61594046D01*
X125892461Y-61594050D01*
X125726786Y-61682605D01*
X125726776Y-61682611D01*
X125721331Y-61685522D01*
X125716554Y-61689442D01*
X125716544Y-61689449D01*
X125670582Y-61727168D01*
X125615230Y-61753346D01*
X125554074Y-61750341D01*
X125501556Y-61718862D01*
X120716208Y-56933514D01*
X120685470Y-56883355D01*
X120680854Y-56824708D01*
X120703367Y-56770358D01*
X120748100Y-56732152D01*
X120805303Y-56718419D01*
X124455535Y-56718419D01*
X124503753Y-56728010D01*
X124544630Y-56755324D01*
X129105456Y-61316150D01*
X129136935Y-61368669D01*
X129139940Y-61429826D01*
X129113761Y-61485178D01*
X129064580Y-61521654D01*
X129004011Y-61530638D01*
X128834963Y-61513989D01*
X128828800Y-61513382D01*
X128822637Y-61513989D01*
X128635696Y-61532400D01*
X128635687Y-61532401D01*
X128629531Y-61533008D01*
X128623609Y-61534804D01*
X128623601Y-61534806D01*
X128443844Y-61589335D01*
X128443835Y-61589338D01*
X128437920Y-61591133D01*
X128432468Y-61594046D01*
X128432461Y-61594050D01*
X128266786Y-61682605D01*
X128266776Y-61682611D01*
X128261331Y-61685522D01*
X128256558Y-61689438D01*
X128256549Y-61689445D01*
X128111326Y-61808626D01*
X128111321Y-61808630D01*
X128106548Y-61812548D01*
X128102630Y-61817321D01*
X128102626Y-61817326D01*
X127983445Y-61962549D01*
X127983438Y-61962558D01*
X127979522Y-61967331D01*
X127976611Y-61972776D01*
X127976605Y-61972786D01*
X127888050Y-62138461D01*
X127888046Y-62138468D01*
X127885133Y-62143920D01*
X127883338Y-62149835D01*
X127883335Y-62149844D01*
X127828806Y-62329601D01*
X127828804Y-62329609D01*
X127827008Y-62335531D01*
X127826401Y-62341687D01*
X127826400Y-62341696D01*
X127813130Y-62476434D01*
X127812300Y-62484866D01*
X127812300Y-63600734D01*
X127812602Y-63603806D01*
X127812603Y-63603814D01*
X127826400Y-63743903D01*
X127826401Y-63743910D01*
X127827008Y-63750069D01*
X127828804Y-63755992D01*
X127828806Y-63755998D01*
X127883335Y-63935755D01*
X127883337Y-63935760D01*
X127885133Y-63941680D01*
X127888048Y-63947134D01*
X127888050Y-63947138D01*
X127976605Y-64112813D01*
X127976608Y-64112818D01*
X127979522Y-64118269D01*
X127983442Y-64123045D01*
X127983445Y-64123050D01*
X128102334Y-64267917D01*
X128106548Y-64273052D01*
X128111326Y-64276973D01*
X128256549Y-64396154D01*
X128256551Y-64396155D01*
X128261331Y-64400078D01*
X128437920Y-64494467D01*
X128629531Y-64552592D01*
X128828800Y-64572218D01*
X129028069Y-64552592D01*
X129219680Y-64494467D01*
X129396269Y-64400078D01*
X129551052Y-64273052D01*
X129678078Y-64118269D01*
X129772467Y-63941680D01*
X129830592Y-63750069D01*
X129845300Y-63600734D01*
X129845300Y-62484866D01*
X129832961Y-62359586D01*
X129841945Y-62299020D01*
X129878420Y-62249839D01*
X129933773Y-62223659D01*
X129994930Y-62226664D01*
X130047449Y-62258143D01*
X130315395Y-62526089D01*
X130342709Y-62566966D01*
X130352300Y-62615184D01*
X130352300Y-63600734D01*
X130352602Y-63603806D01*
X130352603Y-63603814D01*
X130366400Y-63743903D01*
X130366401Y-63743910D01*
X130367008Y-63750069D01*
X130368804Y-63755992D01*
X130368806Y-63755998D01*
X130423335Y-63935755D01*
X130423337Y-63935760D01*
X130425133Y-63941680D01*
X130428048Y-63947134D01*
X130428050Y-63947138D01*
X130516605Y-64112813D01*
X130516608Y-64112818D01*
X130519522Y-64118269D01*
X130523442Y-64123045D01*
X130523445Y-64123050D01*
X130642334Y-64267917D01*
X130646548Y-64273052D01*
X130651326Y-64276973D01*
X130796549Y-64396154D01*
X130796551Y-64396155D01*
X130801331Y-64400078D01*
X130977920Y-64494467D01*
X131169531Y-64552592D01*
X131368800Y-64572218D01*
X131568069Y-64552592D01*
X131759680Y-64494467D01*
X131936269Y-64400078D01*
X132091052Y-64273052D01*
X132218078Y-64118269D01*
X132312467Y-63941680D01*
X132370592Y-63750069D01*
X132385300Y-63600734D01*
X132385300Y-62484866D01*
X132370592Y-62335531D01*
X132312467Y-62143920D01*
X132244276Y-62016344D01*
X132220994Y-61972786D01*
X132220992Y-61972784D01*
X132218078Y-61967331D01*
X132200946Y-61946456D01*
X132104964Y-61829500D01*
X132091052Y-61812548D01*
X132012435Y-61748029D01*
X131941050Y-61689445D01*
X131941045Y-61689442D01*
X131936269Y-61685522D01*
X131930818Y-61682608D01*
X131930813Y-61682605D01*
X131765138Y-61594050D01*
X131765134Y-61594048D01*
X131759680Y-61591133D01*
X131753760Y-61589337D01*
X131753755Y-61589335D01*
X131573998Y-61534806D01*
X131573992Y-61534804D01*
X131568069Y-61533008D01*
X131561910Y-61532401D01*
X131561903Y-61532400D01*
X131374963Y-61513989D01*
X131368800Y-61513382D01*
X131362637Y-61513989D01*
X131175696Y-61532400D01*
X131175687Y-61532401D01*
X131169531Y-61533008D01*
X131163609Y-61534804D01*
X131163601Y-61534806D01*
X130983844Y-61589335D01*
X130983835Y-61589338D01*
X130977920Y-61591133D01*
X130972468Y-61594046D01*
X130972461Y-61594050D01*
X130806786Y-61682605D01*
X130806776Y-61682611D01*
X130801331Y-61685522D01*
X130796554Y-61689442D01*
X130796544Y-61689449D01*
X130750582Y-61727168D01*
X130695230Y-61753346D01*
X130634074Y-61750341D01*
X130581556Y-61718862D01*
X125346208Y-56483514D01*
X125315470Y-56433355D01*
X125310854Y-56374708D01*
X125333367Y-56320358D01*
X125378100Y-56282152D01*
X125435303Y-56268419D01*
X129085535Y-56268419D01*
X129133753Y-56278010D01*
X129174630Y-56305324D01*
X134185456Y-61316150D01*
X134216935Y-61368669D01*
X134219940Y-61429826D01*
X134193761Y-61485178D01*
X134144580Y-61521654D01*
X134084011Y-61530638D01*
X133914963Y-61513989D01*
X133908800Y-61513382D01*
X133902637Y-61513989D01*
X133715696Y-61532400D01*
X133715687Y-61532401D01*
X133709531Y-61533008D01*
X133703609Y-61534804D01*
X133703601Y-61534806D01*
X133523844Y-61589335D01*
X133523835Y-61589338D01*
X133517920Y-61591133D01*
X133512468Y-61594046D01*
X133512461Y-61594050D01*
X133346786Y-61682605D01*
X133346776Y-61682611D01*
X133341331Y-61685522D01*
X133336558Y-61689438D01*
X133336549Y-61689445D01*
X133191326Y-61808626D01*
X133191321Y-61808630D01*
X133186548Y-61812548D01*
X133182630Y-61817321D01*
X133182626Y-61817326D01*
X133063445Y-61962549D01*
X133063438Y-61962558D01*
X133059522Y-61967331D01*
X133056611Y-61972776D01*
X133056605Y-61972786D01*
X132968050Y-62138461D01*
X132968046Y-62138468D01*
X132965133Y-62143920D01*
X132963338Y-62149835D01*
X132963335Y-62149844D01*
X132908806Y-62329601D01*
X132908804Y-62329609D01*
X132907008Y-62335531D01*
X132906401Y-62341687D01*
X132906400Y-62341696D01*
X132893130Y-62476434D01*
X132892300Y-62484866D01*
X132892300Y-63600734D01*
X132892602Y-63603806D01*
X132892603Y-63603814D01*
X132906400Y-63743903D01*
X132906401Y-63743910D01*
X132907008Y-63750069D01*
X132908804Y-63755992D01*
X132908806Y-63755998D01*
X132963335Y-63935755D01*
X132963337Y-63935760D01*
X132965133Y-63941680D01*
X132968048Y-63947134D01*
X132968050Y-63947138D01*
X133056605Y-64112813D01*
X133056608Y-64112818D01*
X133059522Y-64118269D01*
X133063442Y-64123045D01*
X133063445Y-64123050D01*
X133182334Y-64267917D01*
X133186548Y-64273052D01*
X133191326Y-64276973D01*
X133336549Y-64396154D01*
X133336551Y-64396155D01*
X133341331Y-64400078D01*
X133517920Y-64494467D01*
X133709531Y-64552592D01*
X133908800Y-64572218D01*
X134108069Y-64552592D01*
X134299680Y-64494467D01*
X134476269Y-64400078D01*
X134631052Y-64273052D01*
X134758078Y-64118269D01*
X134852467Y-63941680D01*
X134910592Y-63750069D01*
X134925300Y-63600734D01*
X134925300Y-62484866D01*
X134912961Y-62359586D01*
X134921945Y-62299020D01*
X134958420Y-62249839D01*
X135013773Y-62223659D01*
X135074930Y-62226664D01*
X135127449Y-62258143D01*
X135395395Y-62526089D01*
X135422709Y-62566966D01*
X135432300Y-62615184D01*
X135432300Y-63600734D01*
X135432602Y-63603806D01*
X135432603Y-63603814D01*
X135446400Y-63743903D01*
X135446401Y-63743910D01*
X135447008Y-63750069D01*
X135448804Y-63755992D01*
X135448806Y-63755998D01*
X135503335Y-63935755D01*
X135503337Y-63935760D01*
X135505133Y-63941680D01*
X135508048Y-63947134D01*
X135508050Y-63947138D01*
X135596605Y-64112813D01*
X135596608Y-64112818D01*
X135599522Y-64118269D01*
X135603442Y-64123045D01*
X135603445Y-64123050D01*
X135722334Y-64267917D01*
X135726548Y-64273052D01*
X135731326Y-64276973D01*
X135876549Y-64396154D01*
X135876551Y-64396155D01*
X135881331Y-64400078D01*
X136057920Y-64494467D01*
X136249531Y-64552592D01*
X136448800Y-64572218D01*
X136648069Y-64552592D01*
X136839680Y-64494467D01*
X137016269Y-64400078D01*
X137171052Y-64273052D01*
X137298078Y-64118269D01*
X137392467Y-63941680D01*
X137450592Y-63750069D01*
X137465300Y-63600734D01*
X137465300Y-62484866D01*
X137450592Y-62335531D01*
X137392467Y-62143920D01*
X137324276Y-62016344D01*
X137300994Y-61972786D01*
X137300992Y-61972784D01*
X137298078Y-61967331D01*
X137280946Y-61946456D01*
X137184964Y-61829500D01*
X137171052Y-61812548D01*
X137092435Y-61748029D01*
X137021050Y-61689445D01*
X137021045Y-61689442D01*
X137016269Y-61685522D01*
X137010818Y-61682608D01*
X137010813Y-61682605D01*
X136845138Y-61594050D01*
X136845134Y-61594048D01*
X136839680Y-61591133D01*
X136833760Y-61589337D01*
X136833755Y-61589335D01*
X136653998Y-61534806D01*
X136653992Y-61534804D01*
X136648069Y-61533008D01*
X136641910Y-61532401D01*
X136641903Y-61532400D01*
X136454963Y-61513989D01*
X136448800Y-61513382D01*
X136442637Y-61513989D01*
X136255696Y-61532400D01*
X136255687Y-61532401D01*
X136249531Y-61533008D01*
X136243609Y-61534804D01*
X136243601Y-61534806D01*
X136063844Y-61589335D01*
X136063835Y-61589338D01*
X136057920Y-61591133D01*
X136052468Y-61594046D01*
X136052461Y-61594050D01*
X135886786Y-61682605D01*
X135886776Y-61682611D01*
X135881331Y-61685522D01*
X135876554Y-61689442D01*
X135876544Y-61689449D01*
X135830582Y-61727168D01*
X135775230Y-61753346D01*
X135714074Y-61750341D01*
X135661556Y-61718862D01*
X129976208Y-56033514D01*
X129945470Y-55983355D01*
X129940854Y-55924708D01*
X129963367Y-55870358D01*
X130008100Y-55832152D01*
X130065303Y-55818419D01*
X133715535Y-55818419D01*
X133763753Y-55828010D01*
X133804630Y-55855324D01*
X139265456Y-61316150D01*
X139296935Y-61368669D01*
X139299940Y-61429826D01*
X139273761Y-61485178D01*
X139224580Y-61521654D01*
X139164011Y-61530638D01*
X138994963Y-61513989D01*
X138988800Y-61513382D01*
X138982637Y-61513989D01*
X138795696Y-61532400D01*
X138795687Y-61532401D01*
X138789531Y-61533008D01*
X138783609Y-61534804D01*
X138783601Y-61534806D01*
X138603844Y-61589335D01*
X138603835Y-61589338D01*
X138597920Y-61591133D01*
X138592468Y-61594046D01*
X138592461Y-61594050D01*
X138426786Y-61682605D01*
X138426776Y-61682611D01*
X138421331Y-61685522D01*
X138416558Y-61689438D01*
X138416549Y-61689445D01*
X138271326Y-61808626D01*
X138271321Y-61808630D01*
X138266548Y-61812548D01*
X138262630Y-61817321D01*
X138262626Y-61817326D01*
X138143445Y-61962549D01*
X138143438Y-61962558D01*
X138139522Y-61967331D01*
X138136611Y-61972776D01*
X138136605Y-61972786D01*
X138048050Y-62138461D01*
X138048046Y-62138468D01*
X138045133Y-62143920D01*
X138043338Y-62149835D01*
X138043335Y-62149844D01*
X137988806Y-62329601D01*
X137988804Y-62329609D01*
X137987008Y-62335531D01*
X137986401Y-62341687D01*
X137986400Y-62341696D01*
X137973130Y-62476434D01*
X137972300Y-62484866D01*
X137972300Y-63600734D01*
X137972602Y-63603806D01*
X137972603Y-63603814D01*
X137986400Y-63743903D01*
X137986401Y-63743910D01*
X137987008Y-63750069D01*
X137988804Y-63755992D01*
X137988806Y-63755998D01*
X138043335Y-63935755D01*
X138043337Y-63935760D01*
X138045133Y-63941680D01*
X138048048Y-63947134D01*
X138048050Y-63947138D01*
X138136605Y-64112813D01*
X138136608Y-64112818D01*
X138139522Y-64118269D01*
X138143442Y-64123045D01*
X138143445Y-64123050D01*
X138262334Y-64267917D01*
X138266548Y-64273052D01*
X138271326Y-64276973D01*
X138416549Y-64396154D01*
X138416551Y-64396155D01*
X138421331Y-64400078D01*
X138597920Y-64494467D01*
X138789531Y-64552592D01*
X138988800Y-64572218D01*
X139188069Y-64552592D01*
X139379680Y-64494467D01*
X139556269Y-64400078D01*
X139711052Y-64273052D01*
X139838078Y-64118269D01*
X139932467Y-63941680D01*
X139990592Y-63750069D01*
X140005300Y-63600734D01*
X140005300Y-62484866D01*
X139992961Y-62359586D01*
X140001945Y-62299020D01*
X140038420Y-62249839D01*
X140093773Y-62223659D01*
X140154930Y-62226664D01*
X140207449Y-62258143D01*
X140475395Y-62526089D01*
X140502709Y-62566966D01*
X140512300Y-62615184D01*
X140512300Y-63600734D01*
X140512602Y-63603806D01*
X140512603Y-63603814D01*
X140526400Y-63743903D01*
X140526401Y-63743910D01*
X140527008Y-63750069D01*
X140528804Y-63755992D01*
X140528806Y-63755998D01*
X140583335Y-63935755D01*
X140583337Y-63935760D01*
X140585133Y-63941680D01*
X140588048Y-63947134D01*
X140588050Y-63947138D01*
X140676605Y-64112813D01*
X140676608Y-64112818D01*
X140679522Y-64118269D01*
X140683442Y-64123045D01*
X140683445Y-64123050D01*
X140802334Y-64267917D01*
X140806548Y-64273052D01*
X140811326Y-64276973D01*
X140956549Y-64396154D01*
X140956551Y-64396155D01*
X140961331Y-64400078D01*
X141137920Y-64494467D01*
X141329531Y-64552592D01*
X141528800Y-64572218D01*
X141728069Y-64552592D01*
X141919680Y-64494467D01*
X142096269Y-64400078D01*
X142251052Y-64273052D01*
X142378078Y-64118269D01*
X142472467Y-63941680D01*
X142530592Y-63750069D01*
X142545300Y-63600734D01*
X142545300Y-62484866D01*
X142530592Y-62335531D01*
X142472467Y-62143920D01*
X142404276Y-62016344D01*
X142380994Y-61972786D01*
X142380992Y-61972784D01*
X142378078Y-61967331D01*
X142360946Y-61946456D01*
X142264964Y-61829500D01*
X142251052Y-61812548D01*
X142172435Y-61748029D01*
X142101050Y-61689445D01*
X142101045Y-61689442D01*
X142096269Y-61685522D01*
X142090818Y-61682608D01*
X142090813Y-61682605D01*
X141925138Y-61594050D01*
X141925134Y-61594048D01*
X141919680Y-61591133D01*
X141913760Y-61589337D01*
X141913755Y-61589335D01*
X141733998Y-61534806D01*
X141733992Y-61534804D01*
X141728069Y-61533008D01*
X141721910Y-61532401D01*
X141721903Y-61532400D01*
X141534963Y-61513989D01*
X141528800Y-61513382D01*
X141522637Y-61513989D01*
X141335696Y-61532400D01*
X141335687Y-61532401D01*
X141329531Y-61533008D01*
X141323609Y-61534804D01*
X141323601Y-61534806D01*
X141143844Y-61589335D01*
X141143835Y-61589338D01*
X141137920Y-61591133D01*
X141132468Y-61594046D01*
X141132461Y-61594050D01*
X140966786Y-61682605D01*
X140966776Y-61682611D01*
X140961331Y-61685522D01*
X140956554Y-61689442D01*
X140956544Y-61689449D01*
X140910582Y-61727168D01*
X140855230Y-61753346D01*
X140794074Y-61750341D01*
X140741556Y-61718862D01*
X134606208Y-55583514D01*
X134575470Y-55533355D01*
X134570854Y-55474708D01*
X134593367Y-55420358D01*
X134638100Y-55382152D01*
X134695303Y-55368419D01*
X138345535Y-55368419D01*
X138393753Y-55378010D01*
X138434630Y-55405324D01*
X144345456Y-61316150D01*
X144376935Y-61368669D01*
X144379940Y-61429826D01*
X144353761Y-61485178D01*
X144304580Y-61521654D01*
X144244011Y-61530638D01*
X144074963Y-61513989D01*
X144068800Y-61513382D01*
X144062637Y-61513989D01*
X143875696Y-61532400D01*
X143875687Y-61532401D01*
X143869531Y-61533008D01*
X143863609Y-61534804D01*
X143863601Y-61534806D01*
X143683844Y-61589335D01*
X143683835Y-61589338D01*
X143677920Y-61591133D01*
X143672468Y-61594046D01*
X143672461Y-61594050D01*
X143506786Y-61682605D01*
X143506776Y-61682611D01*
X143501331Y-61685522D01*
X143496558Y-61689438D01*
X143496549Y-61689445D01*
X143351326Y-61808626D01*
X143351321Y-61808630D01*
X143346548Y-61812548D01*
X143342630Y-61817321D01*
X143342626Y-61817326D01*
X143223445Y-61962549D01*
X143223438Y-61962558D01*
X143219522Y-61967331D01*
X143216611Y-61972776D01*
X143216605Y-61972786D01*
X143128050Y-62138461D01*
X143128046Y-62138468D01*
X143125133Y-62143920D01*
X143123338Y-62149835D01*
X143123335Y-62149844D01*
X143068806Y-62329601D01*
X143068804Y-62329609D01*
X143067008Y-62335531D01*
X143066401Y-62341687D01*
X143066400Y-62341696D01*
X143053130Y-62476434D01*
X143052300Y-62484866D01*
X143052300Y-63600734D01*
X143052602Y-63603806D01*
X143052603Y-63603814D01*
X143066400Y-63743903D01*
X143066401Y-63743910D01*
X143067008Y-63750069D01*
X143068804Y-63755992D01*
X143068806Y-63755998D01*
X143123335Y-63935755D01*
X143123337Y-63935760D01*
X143125133Y-63941680D01*
X143128048Y-63947134D01*
X143128050Y-63947138D01*
X143216605Y-64112813D01*
X143216608Y-64112818D01*
X143219522Y-64118269D01*
X143223442Y-64123045D01*
X143223445Y-64123050D01*
X143342334Y-64267917D01*
X143346548Y-64273052D01*
X143351326Y-64276973D01*
X143496549Y-64396154D01*
X143496551Y-64396155D01*
X143501331Y-64400078D01*
X143677920Y-64494467D01*
X143869531Y-64552592D01*
X144068800Y-64572218D01*
X144268069Y-64552592D01*
X144459680Y-64494467D01*
X144636269Y-64400078D01*
X144791052Y-64273052D01*
X144918078Y-64118269D01*
X145012467Y-63941680D01*
X145070592Y-63750069D01*
X145085300Y-63600734D01*
X145085300Y-62484866D01*
X145072961Y-62359586D01*
X145081945Y-62299020D01*
X145118420Y-62249839D01*
X145173773Y-62223659D01*
X145234930Y-62226664D01*
X145287449Y-62258143D01*
X145555395Y-62526089D01*
X145582709Y-62566966D01*
X145592300Y-62615184D01*
X145592300Y-63600734D01*
X145592602Y-63603806D01*
X145592603Y-63603814D01*
X145606400Y-63743903D01*
X145606401Y-63743910D01*
X145607008Y-63750069D01*
X145608804Y-63755992D01*
X145608806Y-63755998D01*
X145663335Y-63935755D01*
X145663337Y-63935760D01*
X145665133Y-63941680D01*
X145668048Y-63947134D01*
X145668050Y-63947138D01*
X145756605Y-64112813D01*
X145756608Y-64112818D01*
X145759522Y-64118269D01*
X145763442Y-64123045D01*
X145763445Y-64123050D01*
X145882334Y-64267917D01*
X145886548Y-64273052D01*
X145891326Y-64276973D01*
X146036549Y-64396154D01*
X146036551Y-64396155D01*
X146041331Y-64400078D01*
X146217920Y-64494467D01*
X146409531Y-64552592D01*
X146608800Y-64572218D01*
X146808069Y-64552592D01*
X146999680Y-64494467D01*
X147176269Y-64400078D01*
X147331052Y-64273052D01*
X147458078Y-64118269D01*
X147552467Y-63941680D01*
X147610592Y-63750069D01*
X147625300Y-63600734D01*
X147625300Y-62484866D01*
X147610592Y-62335531D01*
X147552467Y-62143920D01*
X147484276Y-62016344D01*
X147460994Y-61972786D01*
X147460992Y-61972784D01*
X147458078Y-61967331D01*
X147440946Y-61946456D01*
X147344964Y-61829500D01*
X147331052Y-61812548D01*
X147252435Y-61748029D01*
X147181050Y-61689445D01*
X147181045Y-61689442D01*
X147176269Y-61685522D01*
X147170818Y-61682608D01*
X147170813Y-61682605D01*
X147005138Y-61594050D01*
X147005134Y-61594048D01*
X146999680Y-61591133D01*
X146993760Y-61589337D01*
X146993755Y-61589335D01*
X146813998Y-61534806D01*
X146813992Y-61534804D01*
X146808069Y-61533008D01*
X146801910Y-61532401D01*
X146801903Y-61532400D01*
X146614963Y-61513989D01*
X146608800Y-61513382D01*
X146602637Y-61513989D01*
X146415696Y-61532400D01*
X146415687Y-61532401D01*
X146409531Y-61533008D01*
X146403609Y-61534804D01*
X146403601Y-61534806D01*
X146223844Y-61589335D01*
X146223835Y-61589338D01*
X146217920Y-61591133D01*
X146212468Y-61594046D01*
X146212461Y-61594050D01*
X146046786Y-61682605D01*
X146046776Y-61682611D01*
X146041331Y-61685522D01*
X146036554Y-61689442D01*
X146036544Y-61689449D01*
X145990582Y-61727168D01*
X145935230Y-61753346D01*
X145874074Y-61750341D01*
X145821556Y-61718862D01*
X139236208Y-55133514D01*
X139205470Y-55083355D01*
X139200854Y-55024708D01*
X139223367Y-54970358D01*
X139268100Y-54932152D01*
X139325303Y-54918419D01*
X142975535Y-54918419D01*
X143023753Y-54928010D01*
X143064630Y-54955324D01*
X149425456Y-61316150D01*
X149456935Y-61368669D01*
X149459940Y-61429826D01*
X149433761Y-61485178D01*
X149384580Y-61521654D01*
X149324011Y-61530638D01*
X149154963Y-61513989D01*
X149148800Y-61513382D01*
X149142637Y-61513989D01*
X148955696Y-61532400D01*
X148955687Y-61532401D01*
X148949531Y-61533008D01*
X148943609Y-61534804D01*
X148943601Y-61534806D01*
X148763844Y-61589335D01*
X148763835Y-61589338D01*
X148757920Y-61591133D01*
X148752468Y-61594046D01*
X148752461Y-61594050D01*
X148586786Y-61682605D01*
X148586776Y-61682611D01*
X148581331Y-61685522D01*
X148576558Y-61689438D01*
X148576549Y-61689445D01*
X148431326Y-61808626D01*
X148431321Y-61808630D01*
X148426548Y-61812548D01*
X148422630Y-61817321D01*
X148422626Y-61817326D01*
X148303445Y-61962549D01*
X148303438Y-61962558D01*
X148299522Y-61967331D01*
X148296611Y-61972776D01*
X148296605Y-61972786D01*
X148208050Y-62138461D01*
X148208046Y-62138468D01*
X148205133Y-62143920D01*
X148203338Y-62149835D01*
X148203335Y-62149844D01*
X148148806Y-62329601D01*
X148148804Y-62329609D01*
X148147008Y-62335531D01*
X148146401Y-62341687D01*
X148146400Y-62341696D01*
X148133130Y-62476434D01*
X148132300Y-62484866D01*
X148132300Y-63600734D01*
X148132602Y-63603806D01*
X148132603Y-63603814D01*
X148146400Y-63743903D01*
X148146401Y-63743910D01*
X148147008Y-63750069D01*
X148148804Y-63755992D01*
X148148806Y-63755998D01*
X148203335Y-63935755D01*
X148203337Y-63935760D01*
X148205133Y-63941680D01*
X148208048Y-63947134D01*
X148208050Y-63947138D01*
X148296605Y-64112813D01*
X148296608Y-64112818D01*
X148299522Y-64118269D01*
X148303442Y-64123045D01*
X148303445Y-64123050D01*
X148422334Y-64267917D01*
X148426548Y-64273052D01*
X148431326Y-64276973D01*
X148576549Y-64396154D01*
X148576551Y-64396155D01*
X148581331Y-64400078D01*
X148757920Y-64494467D01*
X148949531Y-64552592D01*
X149148800Y-64572218D01*
X149348069Y-64552592D01*
X149539680Y-64494467D01*
X149716269Y-64400078D01*
X149871052Y-64273052D01*
X149998078Y-64118269D01*
X150092467Y-63941680D01*
X150150592Y-63750069D01*
X150165300Y-63600734D01*
X150165300Y-62484866D01*
X150152961Y-62359586D01*
X150161945Y-62299020D01*
X150198420Y-62249839D01*
X150253773Y-62223659D01*
X150314930Y-62226664D01*
X150367449Y-62258143D01*
X150635395Y-62526089D01*
X150662709Y-62566966D01*
X150672300Y-62615184D01*
X150672300Y-63600734D01*
X150672602Y-63603806D01*
X150672603Y-63603814D01*
X150686400Y-63743903D01*
X150686401Y-63743910D01*
X150687008Y-63750069D01*
X150688804Y-63755992D01*
X150688806Y-63755998D01*
X150743335Y-63935755D01*
X150743337Y-63935760D01*
X150745133Y-63941680D01*
X150748048Y-63947134D01*
X150748050Y-63947138D01*
X150836605Y-64112813D01*
X150836608Y-64112818D01*
X150839522Y-64118269D01*
X150843442Y-64123045D01*
X150843445Y-64123050D01*
X150962334Y-64267917D01*
X150966548Y-64273052D01*
X150971326Y-64276973D01*
X151116549Y-64396154D01*
X151116551Y-64396155D01*
X151121331Y-64400078D01*
X151297920Y-64494467D01*
X151489531Y-64552592D01*
X151688800Y-64572218D01*
X151888069Y-64552592D01*
X152079680Y-64494467D01*
X152256269Y-64400078D01*
X152411052Y-64273052D01*
X152538078Y-64118269D01*
X152632467Y-63941680D01*
X152690592Y-63750069D01*
X152705300Y-63600734D01*
X152705300Y-62484866D01*
X152690592Y-62335531D01*
X152632467Y-62143920D01*
X152564276Y-62016344D01*
X152540994Y-61972786D01*
X152540992Y-61972784D01*
X152538078Y-61967331D01*
X152520946Y-61946456D01*
X152424964Y-61829500D01*
X152411052Y-61812548D01*
X152332435Y-61748029D01*
X152261050Y-61689445D01*
X152261045Y-61689442D01*
X152256269Y-61685522D01*
X152250818Y-61682608D01*
X152250813Y-61682605D01*
X152085138Y-61594050D01*
X152085134Y-61594048D01*
X152079680Y-61591133D01*
X152073760Y-61589337D01*
X152073755Y-61589335D01*
X151893998Y-61534806D01*
X151893992Y-61534804D01*
X151888069Y-61533008D01*
X151881910Y-61532401D01*
X151881903Y-61532400D01*
X151694963Y-61513989D01*
X151688800Y-61513382D01*
X151682637Y-61513989D01*
X151495696Y-61532400D01*
X151495687Y-61532401D01*
X151489531Y-61533008D01*
X151483609Y-61534804D01*
X151483601Y-61534806D01*
X151303844Y-61589335D01*
X151303835Y-61589338D01*
X151297920Y-61591133D01*
X151292468Y-61594046D01*
X151292461Y-61594050D01*
X151126786Y-61682605D01*
X151126776Y-61682611D01*
X151121331Y-61685522D01*
X151116554Y-61689442D01*
X151116544Y-61689449D01*
X151070582Y-61727168D01*
X151015230Y-61753346D01*
X150954074Y-61750341D01*
X150901556Y-61718862D01*
X143866208Y-54683514D01*
X143835470Y-54633355D01*
X143830854Y-54574708D01*
X143853367Y-54520358D01*
X143898100Y-54482152D01*
X143955303Y-54468419D01*
X147605535Y-54468419D01*
X147653753Y-54478010D01*
X147694630Y-54505324D01*
X154505456Y-61316150D01*
X154536935Y-61368669D01*
X154539940Y-61429826D01*
X154513761Y-61485178D01*
X154464580Y-61521654D01*
X154404011Y-61530638D01*
X154234963Y-61513989D01*
X154228800Y-61513382D01*
X154222637Y-61513989D01*
X154035696Y-61532400D01*
X154035687Y-61532401D01*
X154029531Y-61533008D01*
X154023609Y-61534804D01*
X154023601Y-61534806D01*
X153843844Y-61589335D01*
X153843835Y-61589338D01*
X153837920Y-61591133D01*
X153832468Y-61594046D01*
X153832461Y-61594050D01*
X153666786Y-61682605D01*
X153666776Y-61682611D01*
X153661331Y-61685522D01*
X153656558Y-61689438D01*
X153656549Y-61689445D01*
X153511326Y-61808626D01*
X153511321Y-61808630D01*
X153506548Y-61812548D01*
X153502630Y-61817321D01*
X153502626Y-61817326D01*
X153383445Y-61962549D01*
X153383438Y-61962558D01*
X153379522Y-61967331D01*
X153376611Y-61972776D01*
X153376605Y-61972786D01*
X153288050Y-62138461D01*
X153288046Y-62138468D01*
X153285133Y-62143920D01*
X153283338Y-62149835D01*
X153283335Y-62149844D01*
X153228806Y-62329601D01*
X153228804Y-62329609D01*
X153227008Y-62335531D01*
X153226401Y-62341687D01*
X153226400Y-62341696D01*
X153213130Y-62476434D01*
X153212300Y-62484866D01*
X153212300Y-63600734D01*
X153212602Y-63603806D01*
X153212603Y-63603814D01*
X153226400Y-63743903D01*
X153226401Y-63743910D01*
X153227008Y-63750069D01*
X153228804Y-63755992D01*
X153228806Y-63755998D01*
X153283335Y-63935755D01*
X153283337Y-63935760D01*
X153285133Y-63941680D01*
X153288048Y-63947134D01*
X153288050Y-63947138D01*
X153376605Y-64112813D01*
X153376608Y-64112818D01*
X153379522Y-64118269D01*
X153383442Y-64123045D01*
X153383445Y-64123050D01*
X153502334Y-64267917D01*
X153506548Y-64273052D01*
X153511326Y-64276973D01*
X153656549Y-64396154D01*
X153656551Y-64396155D01*
X153661331Y-64400078D01*
X153837920Y-64494467D01*
X154029531Y-64552592D01*
X154228800Y-64572218D01*
X154428069Y-64552592D01*
X154619680Y-64494467D01*
X154796269Y-64400078D01*
X154951052Y-64273052D01*
X155078078Y-64118269D01*
X155172467Y-63941680D01*
X155230592Y-63750069D01*
X155245300Y-63600734D01*
X155245300Y-62484866D01*
X155232961Y-62359586D01*
X155241945Y-62299020D01*
X155278420Y-62249839D01*
X155333773Y-62223659D01*
X155394930Y-62226664D01*
X155447449Y-62258143D01*
X155715395Y-62526089D01*
X155742709Y-62566966D01*
X155752300Y-62615184D01*
X155752300Y-63600734D01*
X155752602Y-63603806D01*
X155752603Y-63603814D01*
X155766400Y-63743903D01*
X155766401Y-63743910D01*
X155767008Y-63750069D01*
X155768804Y-63755992D01*
X155768806Y-63755998D01*
X155823335Y-63935755D01*
X155823337Y-63935760D01*
X155825133Y-63941680D01*
X155828048Y-63947134D01*
X155828050Y-63947138D01*
X155916605Y-64112813D01*
X155916608Y-64112818D01*
X155919522Y-64118269D01*
X155923442Y-64123045D01*
X155923445Y-64123050D01*
X156042334Y-64267917D01*
X156046548Y-64273052D01*
X156051326Y-64276973D01*
X156196549Y-64396154D01*
X156196551Y-64396155D01*
X156201331Y-64400078D01*
X156377920Y-64494467D01*
X156569531Y-64552592D01*
X156768800Y-64572218D01*
X156968069Y-64552592D01*
X157159680Y-64494467D01*
X157336269Y-64400078D01*
X157491052Y-64273052D01*
X157618078Y-64118269D01*
X157712467Y-63941680D01*
X157770592Y-63750069D01*
X157785300Y-63600734D01*
X158292300Y-63600734D01*
X158292602Y-63603806D01*
X158292603Y-63603814D01*
X158306400Y-63743903D01*
X158306401Y-63743910D01*
X158307008Y-63750069D01*
X158308804Y-63755992D01*
X158308806Y-63755998D01*
X158363335Y-63935755D01*
X158363337Y-63935760D01*
X158365133Y-63941680D01*
X158368048Y-63947134D01*
X158368050Y-63947138D01*
X158456605Y-64112813D01*
X158456608Y-64112818D01*
X158459522Y-64118269D01*
X158463442Y-64123045D01*
X158463445Y-64123050D01*
X158582334Y-64267917D01*
X158586548Y-64273052D01*
X158591326Y-64276973D01*
X158736549Y-64396154D01*
X158736551Y-64396155D01*
X158741331Y-64400078D01*
X158917920Y-64494467D01*
X159109531Y-64552592D01*
X159308800Y-64572218D01*
X159508069Y-64552592D01*
X159699680Y-64494467D01*
X159876269Y-64400078D01*
X160031052Y-64273052D01*
X160158078Y-64118269D01*
X160252467Y-63941680D01*
X160310592Y-63750069D01*
X160325300Y-63600734D01*
X160325300Y-62484866D01*
X160310592Y-62335531D01*
X160252467Y-62143920D01*
X160184276Y-62016344D01*
X160160994Y-61972786D01*
X160160992Y-61972784D01*
X160158078Y-61967331D01*
X160140946Y-61946456D01*
X160044964Y-61829500D01*
X160031052Y-61812548D01*
X159952435Y-61748029D01*
X159881050Y-61689445D01*
X159881045Y-61689442D01*
X159876269Y-61685522D01*
X159870818Y-61682608D01*
X159870813Y-61682605D01*
X159705138Y-61594050D01*
X159705134Y-61594048D01*
X159699680Y-61591133D01*
X159693760Y-61589337D01*
X159693755Y-61589335D01*
X159513998Y-61534806D01*
X159513992Y-61534804D01*
X159508069Y-61533008D01*
X159501910Y-61532401D01*
X159501903Y-61532400D01*
X159314963Y-61513989D01*
X159308800Y-61513382D01*
X159302637Y-61513989D01*
X159115696Y-61532400D01*
X159115687Y-61532401D01*
X159109531Y-61533008D01*
X159103609Y-61534804D01*
X159103601Y-61534806D01*
X158923844Y-61589335D01*
X158923835Y-61589338D01*
X158917920Y-61591133D01*
X158912468Y-61594046D01*
X158912461Y-61594050D01*
X158746786Y-61682605D01*
X158746776Y-61682611D01*
X158741331Y-61685522D01*
X158736558Y-61689438D01*
X158736549Y-61689445D01*
X158591326Y-61808626D01*
X158591321Y-61808630D01*
X158586548Y-61812548D01*
X158582630Y-61817321D01*
X158582626Y-61817326D01*
X158463445Y-61962549D01*
X158463438Y-61962558D01*
X158459522Y-61967331D01*
X158456611Y-61972776D01*
X158456605Y-61972786D01*
X158368050Y-62138461D01*
X158368046Y-62138468D01*
X158365133Y-62143920D01*
X158363338Y-62149835D01*
X158363335Y-62149844D01*
X158308806Y-62329601D01*
X158308804Y-62329609D01*
X158307008Y-62335531D01*
X158306401Y-62341687D01*
X158306400Y-62341696D01*
X158293130Y-62476434D01*
X158292300Y-62484866D01*
X158292300Y-63600734D01*
X157785300Y-63600734D01*
X157785300Y-62484866D01*
X157770592Y-62335531D01*
X157712467Y-62143920D01*
X157644276Y-62016344D01*
X157620994Y-61972786D01*
X157620992Y-61972784D01*
X157618078Y-61967331D01*
X157600946Y-61946456D01*
X157504964Y-61829500D01*
X157491052Y-61812548D01*
X157412435Y-61748029D01*
X157341050Y-61689445D01*
X157341045Y-61689442D01*
X157336269Y-61685522D01*
X157330818Y-61682608D01*
X157330813Y-61682605D01*
X157165138Y-61594050D01*
X157165134Y-61594048D01*
X157159680Y-61591133D01*
X157153760Y-61589337D01*
X157153755Y-61589335D01*
X156973998Y-61534806D01*
X156973992Y-61534804D01*
X156968069Y-61533008D01*
X156961910Y-61532401D01*
X156961903Y-61532400D01*
X156774963Y-61513989D01*
X156768800Y-61513382D01*
X156762637Y-61513989D01*
X156575696Y-61532400D01*
X156575687Y-61532401D01*
X156569531Y-61533008D01*
X156563609Y-61534804D01*
X156563601Y-61534806D01*
X156383844Y-61589335D01*
X156383835Y-61589338D01*
X156377920Y-61591133D01*
X156372468Y-61594046D01*
X156372461Y-61594050D01*
X156206786Y-61682605D01*
X156206776Y-61682611D01*
X156201331Y-61685522D01*
X156196554Y-61689442D01*
X156196544Y-61689449D01*
X156150582Y-61727168D01*
X156095230Y-61753346D01*
X156034074Y-61750341D01*
X155981556Y-61718862D01*
X148120337Y-53857643D01*
X148103951Y-53837467D01*
X148097987Y-53828337D01*
X148089744Y-53821921D01*
X148089743Y-53821920D01*
X148072773Y-53808711D01*
X148068827Y-53805226D01*
X148068690Y-53805389D01*
X148064721Y-53802027D01*
X148061032Y-53798338D01*
X148056789Y-53795308D01*
X148056785Y-53795305D01*
X148043953Y-53786143D01*
X148039782Y-53783033D01*
X148006278Y-53756956D01*
X148006272Y-53756953D01*
X147998038Y-53750544D01*
X147990436Y-53747934D01*
X147983898Y-53743266D01*
X147933221Y-53728179D01*
X147928295Y-53726601D01*
X147878246Y-53709419D01*
X147870208Y-53709419D01*
X147862509Y-53707127D01*
X147852080Y-53707558D01*
X147852078Y-53707558D01*
X147809705Y-53709311D01*
X147804498Y-53709419D01*
X77459302Y-53709419D01*
X77433445Y-53706737D01*
X77432999Y-53706643D01*
X77432996Y-53706642D01*
X77422781Y-53704501D01*
X77412422Y-53705792D01*
X77412420Y-53705792D01*
X77391092Y-53708451D01*
X77385823Y-53708778D01*
X77385841Y-53708989D01*
X77380647Y-53709419D01*
X77375438Y-53709419D01*
X77370308Y-53710274D01*
X77370295Y-53710276D01*
X77354702Y-53712878D01*
X77349558Y-53713627D01*
X77307454Y-53718876D01*
X77307453Y-53718876D01*
X77297098Y-53720167D01*
X77289877Y-53723696D01*
X77281954Y-53725019D01*
X77272781Y-53729982D01*
X77272772Y-53729986D01*
X77235448Y-53750184D01*
X77230824Y-53752565D01*
X77221843Y-53756956D01*
X77183313Y-53775793D01*
X77177628Y-53781477D01*
X77170565Y-53785300D01*
X77163500Y-53792974D01*
X77163494Y-53792979D01*
X77134749Y-53824204D01*
X77131145Y-53827959D01*
X69217310Y-61741795D01*
X69176433Y-61769109D01*
X69128215Y-61778700D01*
X68983129Y-61778700D01*
X68975738Y-61780521D01*
X68975735Y-61780522D01*
X68836208Y-61814912D01*
X68836201Y-61814914D01*
X68828807Y-61816737D01*
X68822058Y-61820278D01*
X68822053Y-61820281D01*
X68694823Y-61887057D01*
X68694821Y-61887058D01*
X68688071Y-61890601D01*
X68682369Y-61895652D01*
X68682364Y-61895656D01*
X68574807Y-61990944D01*
X68574803Y-61990947D01*
X68569102Y-61995999D01*
X68564775Y-62002266D01*
X68564771Y-62002272D01*
X68483142Y-62120532D01*
X68483138Y-62120537D01*
X68478813Y-62126805D01*
X68476114Y-62133920D01*
X68476110Y-62133929D01*
X68425152Y-62268294D01*
X68425150Y-62268300D01*
X68422451Y-62275418D01*
X68421532Y-62282979D01*
X68421532Y-62282983D01*
X68406090Y-62410166D01*
X68403293Y-62433200D01*
X68404212Y-62440769D01*
X68419052Y-62562994D01*
X68422451Y-62590982D01*
X68425151Y-62598101D01*
X68425152Y-62598105D01*
X68476110Y-62732470D01*
X68476112Y-62732475D01*
X68478813Y-62739595D01*
X68483141Y-62745865D01*
X68483142Y-62745867D01*
X68555255Y-62850341D01*
X68569102Y-62870401D01*
X68688071Y-62975799D01*
X68828807Y-63049663D01*
X68983129Y-63087700D01*
X69134454Y-63087700D01*
X69142071Y-63087700D01*
X69296393Y-63049663D01*
X69437129Y-62975799D01*
X69556098Y-62870401D01*
X69646387Y-62739595D01*
X69702749Y-62590982D01*
X69721907Y-62433200D01*
X69716025Y-62384761D01*
X69721998Y-62328475D01*
X69752009Y-62280483D01*
X77527169Y-54505324D01*
X77568047Y-54478010D01*
X77616265Y-54468419D01*
X78320097Y-54468419D01*
X78377300Y-54482152D01*
X78422033Y-54520358D01*
X78444546Y-54574708D01*
X78439930Y-54633355D01*
X78409192Y-54683513D01*
X74809191Y-58283514D01*
X71249310Y-61843395D01*
X71208433Y-61870709D01*
X71160215Y-61880300D01*
X71015129Y-61880300D01*
X71007738Y-61882121D01*
X71007735Y-61882122D01*
X70868208Y-61916512D01*
X70868201Y-61916514D01*
X70860807Y-61918337D01*
X70854058Y-61921878D01*
X70854053Y-61921881D01*
X70726823Y-61988657D01*
X70726821Y-61988658D01*
X70720071Y-61992201D01*
X70714369Y-61997252D01*
X70714364Y-61997256D01*
X70606807Y-62092544D01*
X70606803Y-62092547D01*
X70601102Y-62097599D01*
X70596775Y-62103866D01*
X70596771Y-62103872D01*
X70515142Y-62222132D01*
X70515138Y-62222137D01*
X70510813Y-62228405D01*
X70508114Y-62235520D01*
X70508110Y-62235529D01*
X70457152Y-62369894D01*
X70457150Y-62369900D01*
X70454451Y-62377018D01*
X70453532Y-62384579D01*
X70453532Y-62384583D01*
X70440978Y-62487980D01*
X70435293Y-62534800D01*
X70436212Y-62542369D01*
X70452758Y-62678643D01*
X70454451Y-62692582D01*
X70457151Y-62699701D01*
X70457152Y-62699705D01*
X70508110Y-62834070D01*
X70508112Y-62834075D01*
X70510813Y-62841195D01*
X70515141Y-62847465D01*
X70515142Y-62847467D01*
X70583569Y-62946601D01*
X70601102Y-62972001D01*
X70720071Y-63077399D01*
X70860807Y-63151263D01*
X71015129Y-63189300D01*
X71166454Y-63189300D01*
X71174071Y-63189300D01*
X71328393Y-63151263D01*
X71469129Y-63077399D01*
X71588098Y-62972001D01*
X71678387Y-62841195D01*
X71734749Y-62692582D01*
X71753907Y-62534800D01*
X71748025Y-62486361D01*
X71753998Y-62430075D01*
X71784009Y-62382083D01*
X79210769Y-54955324D01*
X79251647Y-54928010D01*
X79299865Y-54918419D01*
X79825897Y-54918419D01*
X79883100Y-54932152D01*
X79927833Y-54970358D01*
X79950346Y-55024708D01*
X79945730Y-55083355D01*
X79914992Y-55133514D01*
X73255910Y-61792595D01*
X73215033Y-61819909D01*
X73166815Y-61829500D01*
X73021729Y-61829500D01*
X73014338Y-61831321D01*
X73014335Y-61831322D01*
X72874808Y-61865712D01*
X72874801Y-61865714D01*
X72867407Y-61867537D01*
X72860658Y-61871078D01*
X72860653Y-61871081D01*
X72733423Y-61937857D01*
X72733421Y-61937858D01*
X72726671Y-61941401D01*
X72720969Y-61946452D01*
X72720964Y-61946456D01*
X72613407Y-62041744D01*
X72613403Y-62041747D01*
X72607702Y-62046799D01*
X72603375Y-62053066D01*
X72603371Y-62053072D01*
X72521742Y-62171332D01*
X72521738Y-62171337D01*
X72517413Y-62177605D01*
X72514714Y-62184720D01*
X72514710Y-62184729D01*
X72463752Y-62319094D01*
X72463750Y-62319100D01*
X72461051Y-62326218D01*
X72460132Y-62333779D01*
X72460132Y-62333783D01*
X72447142Y-62440769D01*
X72441893Y-62484000D01*
X72442812Y-62491569D01*
X72458831Y-62623505D01*
X72461051Y-62641782D01*
X72463751Y-62648901D01*
X72463752Y-62648905D01*
X72514710Y-62783270D01*
X72514712Y-62783275D01*
X72517413Y-62790395D01*
X72521741Y-62796665D01*
X72521742Y-62796667D01*
X72592522Y-62899210D01*
X72607702Y-62921201D01*
X72726671Y-63026599D01*
X72867407Y-63100463D01*
X73021729Y-63138500D01*
X73173054Y-63138500D01*
X73180671Y-63138500D01*
X73334993Y-63100463D01*
X73475729Y-63026599D01*
X73594698Y-62921201D01*
X73684987Y-62790395D01*
X73741349Y-62641782D01*
X73760507Y-62484000D01*
X73754625Y-62435561D01*
X73760598Y-62379275D01*
X73790609Y-62331283D01*
X80716569Y-55405324D01*
X80757447Y-55378010D01*
X80805665Y-55368419D01*
X81331697Y-55368419D01*
X81388900Y-55382152D01*
X81433633Y-55420358D01*
X81456146Y-55474708D01*
X81451530Y-55533355D01*
X81420792Y-55583513D01*
X78320950Y-58683355D01*
X75237110Y-61767195D01*
X75196233Y-61794509D01*
X75148015Y-61804100D01*
X75002929Y-61804100D01*
X74995538Y-61805921D01*
X74995535Y-61805922D01*
X74856008Y-61840312D01*
X74856001Y-61840314D01*
X74848607Y-61842137D01*
X74841858Y-61845678D01*
X74841853Y-61845681D01*
X74714623Y-61912457D01*
X74714621Y-61912458D01*
X74707871Y-61916001D01*
X74702169Y-61921052D01*
X74702164Y-61921056D01*
X74594607Y-62016344D01*
X74594603Y-62016347D01*
X74588902Y-62021399D01*
X74584575Y-62027666D01*
X74584571Y-62027672D01*
X74502942Y-62145932D01*
X74502938Y-62145937D01*
X74498613Y-62152205D01*
X74495914Y-62159320D01*
X74495910Y-62159329D01*
X74444952Y-62293694D01*
X74444950Y-62293700D01*
X74442251Y-62300818D01*
X74441332Y-62308379D01*
X74441332Y-62308383D01*
X74426177Y-62433200D01*
X74423093Y-62458600D01*
X74424012Y-62466169D01*
X74440031Y-62598105D01*
X74442251Y-62616382D01*
X74444951Y-62623501D01*
X74444952Y-62623505D01*
X74495910Y-62757870D01*
X74495912Y-62757875D01*
X74498613Y-62764995D01*
X74502941Y-62771265D01*
X74502942Y-62771267D01*
X74571369Y-62870401D01*
X74588902Y-62895801D01*
X74707871Y-63001199D01*
X74848607Y-63075063D01*
X75002929Y-63113100D01*
X75154254Y-63113100D01*
X75161871Y-63113100D01*
X75316193Y-63075063D01*
X75456929Y-63001199D01*
X75575898Y-62895801D01*
X75666187Y-62764995D01*
X75722549Y-62616382D01*
X75741707Y-62458600D01*
X75735825Y-62410161D01*
X75741798Y-62353875D01*
X75771809Y-62305883D01*
X82222370Y-55855324D01*
X82263248Y-55828010D01*
X82311466Y-55818419D01*
X82888297Y-55818419D01*
X82945500Y-55832152D01*
X82990233Y-55870358D01*
X83012746Y-55924708D01*
X83008130Y-55983355D01*
X82977392Y-56033514D01*
X77243710Y-61767195D01*
X77202833Y-61794509D01*
X77154615Y-61804100D01*
X77009529Y-61804100D01*
X77002138Y-61805921D01*
X77002135Y-61805922D01*
X76862608Y-61840312D01*
X76862601Y-61840314D01*
X76855207Y-61842137D01*
X76848458Y-61845678D01*
X76848453Y-61845681D01*
X76721223Y-61912457D01*
X76721221Y-61912458D01*
X76714471Y-61916001D01*
X76708769Y-61921052D01*
X76708764Y-61921056D01*
X76601207Y-62016344D01*
X76601203Y-62016347D01*
X76595502Y-62021399D01*
X76591175Y-62027666D01*
X76591171Y-62027672D01*
X76509542Y-62145932D01*
X76509538Y-62145937D01*
X76505213Y-62152205D01*
X76502514Y-62159320D01*
X76502510Y-62159329D01*
X76451552Y-62293694D01*
X76451550Y-62293700D01*
X76448851Y-62300818D01*
X76447932Y-62308379D01*
X76447932Y-62308383D01*
X76432777Y-62433200D01*
X76429693Y-62458600D01*
X76430612Y-62466169D01*
X76446631Y-62598105D01*
X76448851Y-62616382D01*
X76451551Y-62623501D01*
X76451552Y-62623505D01*
X76502510Y-62757870D01*
X76502512Y-62757875D01*
X76505213Y-62764995D01*
X76509541Y-62771265D01*
X76509542Y-62771267D01*
X76577969Y-62870401D01*
X76595502Y-62895801D01*
X76714471Y-63001199D01*
X76855207Y-63075063D01*
X77009529Y-63113100D01*
X77160854Y-63113100D01*
X77168471Y-63113100D01*
X77322793Y-63075063D01*
X77463529Y-63001199D01*
X77582498Y-62895801D01*
X77672787Y-62764995D01*
X77729149Y-62616382D01*
X77748307Y-62458600D01*
X77742425Y-62410161D01*
X77748398Y-62353875D01*
X77778409Y-62305883D01*
X83778969Y-56305324D01*
X83819847Y-56278010D01*
X83868065Y-56268419D01*
X84444897Y-56268419D01*
X84502100Y-56282152D01*
X84546833Y-56320358D01*
X84569346Y-56374708D01*
X84564730Y-56433355D01*
X84533992Y-56483513D01*
X81737560Y-59279945D01*
X79224910Y-61792595D01*
X79184033Y-61819909D01*
X79135815Y-61829500D01*
X78990729Y-61829500D01*
X78983338Y-61831321D01*
X78983335Y-61831322D01*
X78843808Y-61865712D01*
X78843801Y-61865714D01*
X78836407Y-61867537D01*
X78829658Y-61871078D01*
X78829653Y-61871081D01*
X78702423Y-61937857D01*
X78702421Y-61937858D01*
X78695671Y-61941401D01*
X78689969Y-61946452D01*
X78689964Y-61946456D01*
X78582407Y-62041744D01*
X78582403Y-62041747D01*
X78576702Y-62046799D01*
X78572375Y-62053066D01*
X78572371Y-62053072D01*
X78490742Y-62171332D01*
X78490738Y-62171337D01*
X78486413Y-62177605D01*
X78483714Y-62184720D01*
X78483710Y-62184729D01*
X78432752Y-62319094D01*
X78432750Y-62319100D01*
X78430051Y-62326218D01*
X78429132Y-62333779D01*
X78429132Y-62333783D01*
X78416142Y-62440769D01*
X78410893Y-62484000D01*
X78411812Y-62491569D01*
X78427831Y-62623505D01*
X78430051Y-62641782D01*
X78432751Y-62648901D01*
X78432752Y-62648905D01*
X78483710Y-62783270D01*
X78483712Y-62783275D01*
X78486413Y-62790395D01*
X78490741Y-62796665D01*
X78490742Y-62796667D01*
X78561522Y-62899210D01*
X78576702Y-62921201D01*
X78695671Y-63026599D01*
X78836407Y-63100463D01*
X78990729Y-63138500D01*
X79142054Y-63138500D01*
X79149671Y-63138500D01*
X79303993Y-63100463D01*
X79444729Y-63026599D01*
X79563698Y-62921201D01*
X79653987Y-62790395D01*
X79710349Y-62641782D01*
X79729507Y-62484000D01*
X79723625Y-62435561D01*
X79729598Y-62379275D01*
X79759609Y-62331283D01*
X85335569Y-56755324D01*
X85376447Y-56728010D01*
X85424665Y-56718419D01*
X86052297Y-56718419D01*
X86109500Y-56732152D01*
X86154233Y-56770358D01*
X86176746Y-56824708D01*
X86172130Y-56883355D01*
X86141392Y-56933514D01*
X81256910Y-61817995D01*
X81216033Y-61845309D01*
X81167815Y-61854900D01*
X81022729Y-61854900D01*
X81015338Y-61856721D01*
X81015335Y-61856722D01*
X80875808Y-61891112D01*
X80875801Y-61891114D01*
X80868407Y-61892937D01*
X80861658Y-61896478D01*
X80861653Y-61896481D01*
X80734423Y-61963257D01*
X80734421Y-61963258D01*
X80727671Y-61966801D01*
X80721969Y-61971852D01*
X80721964Y-61971856D01*
X80614407Y-62067144D01*
X80614403Y-62067147D01*
X80608702Y-62072199D01*
X80604375Y-62078466D01*
X80604371Y-62078472D01*
X80522742Y-62196732D01*
X80522738Y-62196737D01*
X80518413Y-62203005D01*
X80515714Y-62210120D01*
X80515710Y-62210129D01*
X80464752Y-62344494D01*
X80464750Y-62344500D01*
X80462051Y-62351618D01*
X80461132Y-62359179D01*
X80461132Y-62359183D01*
X80445494Y-62487980D01*
X80442893Y-62509400D01*
X80443812Y-62516969D01*
X80459831Y-62648905D01*
X80462051Y-62667182D01*
X80464751Y-62674301D01*
X80464752Y-62674305D01*
X80515710Y-62808670D01*
X80515712Y-62808675D01*
X80518413Y-62815795D01*
X80522741Y-62822065D01*
X80522742Y-62822067D01*
X80591169Y-62921201D01*
X80608702Y-62946601D01*
X80727671Y-63051999D01*
X80868407Y-63125863D01*
X81022729Y-63163900D01*
X81174054Y-63163900D01*
X81181671Y-63163900D01*
X81335993Y-63125863D01*
X81476729Y-63051999D01*
X81595698Y-62946601D01*
X81685987Y-62815795D01*
X81742349Y-62667182D01*
X81761507Y-62509400D01*
X81755625Y-62460961D01*
X81761598Y-62404675D01*
X81791609Y-62356683D01*
X86942969Y-57205324D01*
X86983847Y-57178010D01*
X87032065Y-57168419D01*
X87558097Y-57168419D01*
X87615300Y-57182152D01*
X87660033Y-57220358D01*
X87682546Y-57274708D01*
X87677930Y-57333355D01*
X87647192Y-57383513D01*
X85381973Y-59648732D01*
X83263510Y-61767195D01*
X83222633Y-61794509D01*
X83174415Y-61804100D01*
X83029329Y-61804100D01*
X83021938Y-61805921D01*
X83021935Y-61805922D01*
X82882408Y-61840312D01*
X82882401Y-61840314D01*
X82875007Y-61842137D01*
X82868258Y-61845678D01*
X82868253Y-61845681D01*
X82741023Y-61912457D01*
X82741021Y-61912458D01*
X82734271Y-61916001D01*
X82728569Y-61921052D01*
X82728564Y-61921056D01*
X82621007Y-62016344D01*
X82621003Y-62016347D01*
X82615302Y-62021399D01*
X82610975Y-62027666D01*
X82610971Y-62027672D01*
X82529342Y-62145932D01*
X82529338Y-62145937D01*
X82525013Y-62152205D01*
X82522314Y-62159320D01*
X82522310Y-62159329D01*
X82471352Y-62293694D01*
X82471350Y-62293700D01*
X82468651Y-62300818D01*
X82467732Y-62308379D01*
X82467732Y-62308383D01*
X82452577Y-62433200D01*
X82449493Y-62458600D01*
X82450412Y-62466169D01*
X82466431Y-62598105D01*
X82468651Y-62616382D01*
X82471351Y-62623501D01*
X82471352Y-62623505D01*
X82522310Y-62757870D01*
X82522312Y-62757875D01*
X82525013Y-62764995D01*
X82529341Y-62771265D01*
X82529342Y-62771267D01*
X82597769Y-62870401D01*
X82615302Y-62895801D01*
X82734271Y-63001199D01*
X82875007Y-63075063D01*
X83029329Y-63113100D01*
X83180654Y-63113100D01*
X83188271Y-63113100D01*
X83342593Y-63075063D01*
X83483329Y-63001199D01*
X83602298Y-62895801D01*
X83692587Y-62764995D01*
X83748949Y-62616382D01*
X83768107Y-62458600D01*
X83762225Y-62410161D01*
X83768198Y-62353875D01*
X83798209Y-62305883D01*
X88448769Y-57655324D01*
X88489647Y-57628010D01*
X88537865Y-57618419D01*
X89063897Y-57618419D01*
X89121100Y-57632152D01*
X89165833Y-57670358D01*
X89188346Y-57724708D01*
X89183730Y-57783355D01*
X89152992Y-57833513D01*
X87103975Y-59882530D01*
X85219310Y-61767195D01*
X85178433Y-61794509D01*
X85130215Y-61804100D01*
X84985129Y-61804100D01*
X84977738Y-61805921D01*
X84977735Y-61805922D01*
X84838208Y-61840312D01*
X84838201Y-61840314D01*
X84830807Y-61842137D01*
X84824058Y-61845678D01*
X84824053Y-61845681D01*
X84696823Y-61912457D01*
X84696821Y-61912458D01*
X84690071Y-61916001D01*
X84684369Y-61921052D01*
X84684364Y-61921056D01*
X84576807Y-62016344D01*
X84576803Y-62016347D01*
X84571102Y-62021399D01*
X84566775Y-62027666D01*
X84566771Y-62027672D01*
X84485142Y-62145932D01*
X84485138Y-62145937D01*
X84480813Y-62152205D01*
X84478114Y-62159320D01*
X84478110Y-62159329D01*
X84427152Y-62293694D01*
X84427150Y-62293700D01*
X84424451Y-62300818D01*
X84423532Y-62308379D01*
X84423532Y-62308383D01*
X84408377Y-62433200D01*
X84405293Y-62458600D01*
X84406212Y-62466169D01*
X84422231Y-62598105D01*
X84424451Y-62616382D01*
X84427151Y-62623501D01*
X84427152Y-62623505D01*
X84478110Y-62757870D01*
X84478112Y-62757875D01*
X84480813Y-62764995D01*
X84485141Y-62771265D01*
X84485142Y-62771267D01*
X84553569Y-62870401D01*
X84571102Y-62895801D01*
X84690071Y-63001199D01*
X84830807Y-63075063D01*
X84985129Y-63113100D01*
X85136454Y-63113100D01*
X85144071Y-63113100D01*
X85298393Y-63075063D01*
X85439129Y-63001199D01*
X85558098Y-62895801D01*
X85648387Y-62764995D01*
X85704749Y-62616382D01*
X85723907Y-62458600D01*
X85718025Y-62410161D01*
X85723998Y-62353875D01*
X85754009Y-62305883D01*
X89954569Y-58105324D01*
X89995447Y-58078010D01*
X90043665Y-58068419D01*
X90645897Y-58068419D01*
X90703100Y-58082152D01*
X90747833Y-58120358D01*
X90770346Y-58174708D01*
X90765730Y-58233355D01*
X90734992Y-58283513D01*
X88987453Y-60031052D01*
X87251310Y-61767195D01*
X87210433Y-61794509D01*
X87162215Y-61804100D01*
X87017129Y-61804100D01*
X87009738Y-61805921D01*
X87009735Y-61805922D01*
X86870208Y-61840312D01*
X86870201Y-61840314D01*
X86862807Y-61842137D01*
X86856058Y-61845678D01*
X86856053Y-61845681D01*
X86728823Y-61912457D01*
X86728821Y-61912458D01*
X86722071Y-61916001D01*
X86716369Y-61921052D01*
X86716364Y-61921056D01*
X86608807Y-62016344D01*
X86608803Y-62016347D01*
X86603102Y-62021399D01*
X86598775Y-62027666D01*
X86598771Y-62027672D01*
X86517142Y-62145932D01*
X86517138Y-62145937D01*
X86512813Y-62152205D01*
X86510114Y-62159320D01*
X86510110Y-62159329D01*
X86459152Y-62293694D01*
X86459150Y-62293700D01*
X86456451Y-62300818D01*
X86455532Y-62308379D01*
X86455532Y-62308383D01*
X86440377Y-62433200D01*
X86437293Y-62458600D01*
X86438212Y-62466169D01*
X86454231Y-62598105D01*
X86456451Y-62616382D01*
X86459151Y-62623501D01*
X86459152Y-62623505D01*
X86510110Y-62757870D01*
X86510112Y-62757875D01*
X86512813Y-62764995D01*
X86517141Y-62771265D01*
X86517142Y-62771267D01*
X86585569Y-62870401D01*
X86603102Y-62895801D01*
X86722071Y-63001199D01*
X86862807Y-63075063D01*
X87017129Y-63113100D01*
X87168454Y-63113100D01*
X87176071Y-63113100D01*
X87330393Y-63075063D01*
X87471129Y-63001199D01*
X87590098Y-62895801D01*
X87680387Y-62764995D01*
X87736749Y-62616382D01*
X87755907Y-62458600D01*
X87750025Y-62410161D01*
X87755998Y-62353875D01*
X87786009Y-62305883D01*
X91536569Y-58555324D01*
X91577447Y-58528010D01*
X91625665Y-58518419D01*
X93170297Y-58518419D01*
X93227500Y-58532152D01*
X93272233Y-58570358D01*
X93294746Y-58624708D01*
X93290130Y-58683355D01*
X93259392Y-58733513D01*
X91894567Y-60098338D01*
X90543210Y-61449695D01*
X90502333Y-61477009D01*
X90454115Y-61486600D01*
X90309029Y-61486600D01*
X90301638Y-61488421D01*
X90301635Y-61488422D01*
X90162108Y-61522812D01*
X90162101Y-61522814D01*
X90154707Y-61524637D01*
X90147958Y-61528178D01*
X90147953Y-61528181D01*
X90020723Y-61594957D01*
X90020721Y-61594958D01*
X90013971Y-61598501D01*
X90008269Y-61603552D01*
X90008264Y-61603556D01*
X89900707Y-61698844D01*
X89900703Y-61698847D01*
X89895002Y-61703899D01*
X89890675Y-61710166D01*
X89890671Y-61710172D01*
X89809042Y-61828432D01*
X89809038Y-61828437D01*
X89804713Y-61834705D01*
X89802014Y-61841820D01*
X89802010Y-61841829D01*
X89751052Y-61976194D01*
X89751050Y-61976200D01*
X89748351Y-61983318D01*
X89747432Y-61990879D01*
X89747432Y-61990883D01*
X89741257Y-62041744D01*
X89729193Y-62141100D01*
X89730112Y-62148669D01*
X89746420Y-62282983D01*
X89748351Y-62298882D01*
X89751051Y-62306001D01*
X89751052Y-62306005D01*
X89802010Y-62440370D01*
X89802012Y-62440375D01*
X89804713Y-62447495D01*
X89809041Y-62453765D01*
X89809042Y-62453767D01*
X89858962Y-62526089D01*
X89895002Y-62578301D01*
X90013971Y-62683699D01*
X90154707Y-62757563D01*
X90309029Y-62795600D01*
X90460354Y-62795600D01*
X90467971Y-62795600D01*
X90622293Y-62757563D01*
X90763029Y-62683699D01*
X90881998Y-62578301D01*
X90972287Y-62447495D01*
X91028649Y-62298882D01*
X91047807Y-62141100D01*
X91041925Y-62092661D01*
X91047898Y-62036375D01*
X91077909Y-61988383D01*
X94060969Y-59005324D01*
X94101847Y-58978010D01*
X94150065Y-58968419D01*
X95412300Y-58968419D01*
X95475300Y-58985300D01*
X95521419Y-59031419D01*
X95538300Y-59094419D01*
X95538300Y-64811300D01*
X95521419Y-64874300D01*
X95475300Y-64920419D01*
X95412300Y-64937300D01*
X60593305Y-64937300D01*
X60535125Y-64923063D01*
X60490092Y-64883571D01*
X60468383Y-64827747D01*
X60474904Y-64768206D01*
X60508180Y-64718403D01*
X60560693Y-64689593D01*
X60677303Y-64658347D01*
X60876246Y-64565579D01*
X61056057Y-64439674D01*
X61211274Y-64284457D01*
X61337179Y-64104646D01*
X61429947Y-63905703D01*
X61486761Y-63693674D01*
X61505892Y-63475000D01*
X61486761Y-63256326D01*
X61429947Y-63044297D01*
X61337179Y-62845354D01*
X61211274Y-62665543D01*
X61056057Y-62510326D01*
X60966325Y-62447495D01*
X60880754Y-62387577D01*
X60880749Y-62387574D01*
X60876246Y-62384421D01*
X60816757Y-62356681D01*
X60682288Y-62293977D01*
X60682282Y-62293975D01*
X60677303Y-62291653D01*
X60671997Y-62290231D01*
X60671991Y-62290229D01*
X60470583Y-62236261D01*
X60470576Y-62236259D01*
X60465274Y-62234839D01*
X60459806Y-62234360D01*
X60459797Y-62234359D01*
X60252075Y-62216187D01*
X60246600Y-62215708D01*
X60241125Y-62216187D01*
X60033402Y-62234359D01*
X60033391Y-62234360D01*
X60027926Y-62234839D01*
X60022625Y-62236259D01*
X60022616Y-62236261D01*
X59821208Y-62290229D01*
X59821198Y-62290232D01*
X59815897Y-62291653D01*
X59810920Y-62293973D01*
X59810911Y-62293977D01*
X59621941Y-62382095D01*
X59621936Y-62382097D01*
X59616954Y-62384421D01*
X59612455Y-62387571D01*
X59612445Y-62387577D01*
X59441654Y-62507167D01*
X59441651Y-62507169D01*
X59437143Y-62510326D01*
X59433251Y-62514217D01*
X59433245Y-62514223D01*
X59285823Y-62661645D01*
X59285817Y-62661651D01*
X59281926Y-62665543D01*
X59278769Y-62670051D01*
X59278767Y-62670054D01*
X59159177Y-62840845D01*
X59159171Y-62840855D01*
X59156021Y-62845354D01*
X59153697Y-62850336D01*
X59153695Y-62850341D01*
X59065577Y-63039311D01*
X59065573Y-63039320D01*
X59063253Y-63044297D01*
X59061832Y-63049598D01*
X59061829Y-63049608D01*
X59007861Y-63251016D01*
X59007859Y-63251025D01*
X59006439Y-63256326D01*
X59005960Y-63261791D01*
X59005959Y-63261802D01*
X58988019Y-63466866D01*
X58987308Y-63475000D01*
X58987787Y-63480475D01*
X59005959Y-63688197D01*
X59005960Y-63688206D01*
X59006439Y-63693674D01*
X59007859Y-63698976D01*
X59007861Y-63698983D01*
X59061829Y-63900391D01*
X59061831Y-63900397D01*
X59063253Y-63905703D01*
X59065575Y-63910682D01*
X59065577Y-63910688D01*
X59082574Y-63947138D01*
X59156021Y-64104646D01*
X59159174Y-64109149D01*
X59159177Y-64109154D01*
X59232643Y-64214074D01*
X59281926Y-64284457D01*
X59437143Y-64439674D01*
X59517962Y-64496264D01*
X59605384Y-64557478D01*
X59616954Y-64565579D01*
X59815897Y-64658347D01*
X59821209Y-64659770D01*
X59821208Y-64659770D01*
X59932507Y-64689593D01*
X59985020Y-64718403D01*
X60018296Y-64768206D01*
X60024817Y-64827747D01*
X60003108Y-64883571D01*
X59958075Y-64923063D01*
X59899895Y-64937300D01*
X53636500Y-64937300D01*
X53573500Y-64920419D01*
X53527381Y-64874300D01*
X53510500Y-64811300D01*
X53510500Y-61949030D01*
X54455596Y-61949030D01*
X54463148Y-61957272D01*
X54612696Y-62061987D01*
X54622192Y-62067469D01*
X54811085Y-62155552D01*
X54821377Y-62159298D01*
X55022698Y-62213241D01*
X55033493Y-62215145D01*
X55241125Y-62233311D01*
X55252075Y-62233311D01*
X55459706Y-62215145D01*
X55470501Y-62213241D01*
X55671822Y-62159298D01*
X55682114Y-62155552D01*
X55871007Y-62067469D01*
X55880503Y-62061987D01*
X56030050Y-61957272D01*
X56037602Y-61949030D01*
X56031592Y-61939597D01*
X55258329Y-61166334D01*
X55246599Y-61159562D01*
X55234871Y-61166333D01*
X54461603Y-61939600D01*
X54455596Y-61949030D01*
X53510500Y-61949030D01*
X53510500Y-60980475D01*
X53988289Y-60980475D01*
X54006454Y-61188106D01*
X54008358Y-61198901D01*
X54062301Y-61400222D01*
X54066047Y-61410514D01*
X54154130Y-61599407D01*
X54159612Y-61608903D01*
X54264326Y-61758450D01*
X54272569Y-61766002D01*
X54281997Y-61759996D01*
X55055264Y-60986730D01*
X55062037Y-60974999D01*
X55431162Y-60974999D01*
X55437934Y-60986729D01*
X56211197Y-61759992D01*
X56220630Y-61766002D01*
X56228872Y-61758450D01*
X56244780Y-61735731D01*
X56293044Y-61694614D01*
X56355222Y-61682208D01*
X56415570Y-61701654D01*
X56458807Y-61748029D01*
X56471083Y-61770712D01*
X56486126Y-61798509D01*
X56489325Y-61802619D01*
X56629968Y-61983318D01*
X56638862Y-61994744D01*
X56642693Y-61998271D01*
X56642698Y-61998276D01*
X56789625Y-62133531D01*
X56821815Y-62163164D01*
X57029993Y-62299173D01*
X57257719Y-62399063D01*
X57498779Y-62460108D01*
X57684533Y-62475500D01*
X57806053Y-62475500D01*
X57808667Y-62475500D01*
X57994421Y-62460108D01*
X58235481Y-62399063D01*
X58463207Y-62299173D01*
X58671385Y-62163164D01*
X58854338Y-61994744D01*
X59007074Y-61798509D01*
X59125428Y-61579810D01*
X59206171Y-61344614D01*
X59247100Y-61099335D01*
X59247100Y-60850665D01*
X59206171Y-60605386D01*
X59125428Y-60370190D01*
X59007074Y-60151491D01*
X58914042Y-60031964D01*
X58857538Y-59959367D01*
X58857536Y-59959365D01*
X58854338Y-59955256D01*
X58850505Y-59951728D01*
X58850501Y-59951723D01*
X58675224Y-59790370D01*
X58675223Y-59790369D01*
X58671385Y-59786836D01*
X58463207Y-59650827D01*
X58274162Y-59567904D01*
X58240253Y-59553030D01*
X58240250Y-59553029D01*
X58235481Y-59550937D01*
X58230432Y-59549658D01*
X58230428Y-59549657D01*
X58057366Y-59505832D01*
X57994421Y-59489892D01*
X57989230Y-59489461D01*
X57989225Y-59489461D01*
X57811267Y-59474715D01*
X57811256Y-59474714D01*
X57808667Y-59474500D01*
X57684533Y-59474500D01*
X57681944Y-59474714D01*
X57681932Y-59474715D01*
X57503974Y-59489461D01*
X57503967Y-59489462D01*
X57498779Y-59489892D01*
X57493721Y-59491172D01*
X57493720Y-59491173D01*
X57262771Y-59549657D01*
X57262763Y-59549659D01*
X57257719Y-59550937D01*
X57252952Y-59553027D01*
X57252946Y-59553030D01*
X57034768Y-59648732D01*
X57034763Y-59648734D01*
X57029993Y-59650827D01*
X57025630Y-59653676D01*
X57025627Y-59653679D01*
X56826182Y-59783982D01*
X56826174Y-59783987D01*
X56821815Y-59786836D01*
X56817981Y-59790364D01*
X56817975Y-59790370D01*
X56642698Y-59951723D01*
X56642687Y-59951734D01*
X56638862Y-59955256D01*
X56635669Y-59959358D01*
X56635661Y-59959367D01*
X56489325Y-60147380D01*
X56489321Y-60147385D01*
X56486126Y-60151491D01*
X56483649Y-60156066D01*
X56483643Y-60156077D01*
X56458808Y-60201969D01*
X56415572Y-60248344D01*
X56355225Y-60267791D01*
X56293047Y-60255386D01*
X56244782Y-60214270D01*
X56228872Y-60191548D01*
X56220630Y-60183996D01*
X56211200Y-60190003D01*
X55437933Y-60963271D01*
X55431162Y-60974999D01*
X55062037Y-60974999D01*
X55055265Y-60963270D01*
X54282000Y-60190005D01*
X54272568Y-60183996D01*
X54264325Y-60191550D01*
X54159610Y-60341099D01*
X54154133Y-60350586D01*
X54066047Y-60539485D01*
X54062301Y-60549777D01*
X54008358Y-60751098D01*
X54006454Y-60761893D01*
X53988289Y-60969525D01*
X53988289Y-60980475D01*
X53510500Y-60980475D01*
X53510500Y-60000968D01*
X54455596Y-60000968D01*
X54461605Y-60010400D01*
X55234870Y-60783665D01*
X55246599Y-60790437D01*
X55258330Y-60783664D01*
X56031596Y-60010397D01*
X56037602Y-60000969D01*
X56030050Y-59992726D01*
X55880503Y-59888012D01*
X55871007Y-59882530D01*
X55682114Y-59794447D01*
X55671822Y-59790701D01*
X55470501Y-59736758D01*
X55459706Y-59734854D01*
X55252075Y-59716689D01*
X55241125Y-59716689D01*
X55033493Y-59734854D01*
X55022698Y-59736758D01*
X54821377Y-59790701D01*
X54811085Y-59794447D01*
X54622186Y-59882533D01*
X54612699Y-59888010D01*
X54463150Y-59992725D01*
X54455596Y-60000968D01*
X53510500Y-60000968D01*
X53510500Y-59045314D01*
X53520539Y-58996030D01*
X53549055Y-58954598D01*
X54046589Y-58475000D01*
X58987308Y-58475000D01*
X58987787Y-58480475D01*
X59005959Y-58688197D01*
X59005960Y-58688206D01*
X59006439Y-58693674D01*
X59007859Y-58698976D01*
X59007861Y-58698983D01*
X59061829Y-58900391D01*
X59061831Y-58900397D01*
X59063253Y-58905703D01*
X59065575Y-58910682D01*
X59065577Y-58910688D01*
X59121875Y-59031419D01*
X59156021Y-59104646D01*
X59159174Y-59109149D01*
X59159177Y-59109154D01*
X59232643Y-59214074D01*
X59281926Y-59284457D01*
X59437143Y-59439674D01*
X59616954Y-59565579D01*
X59815897Y-59658347D01*
X60027926Y-59715161D01*
X60246600Y-59734292D01*
X60465274Y-59715161D01*
X60677303Y-59658347D01*
X60876246Y-59565579D01*
X61056057Y-59439674D01*
X61211274Y-59284457D01*
X61337179Y-59104646D01*
X61429947Y-58905703D01*
X61486761Y-58693674D01*
X61505892Y-58475000D01*
X61486761Y-58256326D01*
X61429947Y-58044297D01*
X61337179Y-57845354D01*
X61211274Y-57665543D01*
X61056057Y-57510326D01*
X60985674Y-57461043D01*
X60880754Y-57387577D01*
X60880749Y-57387574D01*
X60876246Y-57384421D01*
X60871258Y-57382095D01*
X60682288Y-57293977D01*
X60682282Y-57293975D01*
X60677303Y-57291653D01*
X60671997Y-57290231D01*
X60671991Y-57290229D01*
X60470583Y-57236261D01*
X60470576Y-57236259D01*
X60465274Y-57234839D01*
X60459806Y-57234360D01*
X60459797Y-57234359D01*
X60252075Y-57216187D01*
X60246600Y-57215708D01*
X60241125Y-57216187D01*
X60033402Y-57234359D01*
X60033391Y-57234360D01*
X60027926Y-57234839D01*
X60022625Y-57236259D01*
X60022616Y-57236261D01*
X59821208Y-57290229D01*
X59821198Y-57290232D01*
X59815897Y-57291653D01*
X59810920Y-57293973D01*
X59810911Y-57293977D01*
X59621941Y-57382095D01*
X59621936Y-57382097D01*
X59616954Y-57384421D01*
X59612455Y-57387571D01*
X59612445Y-57387577D01*
X59441654Y-57507167D01*
X59441651Y-57507169D01*
X59437143Y-57510326D01*
X59433251Y-57514217D01*
X59433245Y-57514223D01*
X59285823Y-57661645D01*
X59285817Y-57661651D01*
X59281926Y-57665543D01*
X59278769Y-57670051D01*
X59278767Y-57670054D01*
X59159177Y-57840845D01*
X59159171Y-57840855D01*
X59156021Y-57845354D01*
X59153697Y-57850336D01*
X59153695Y-57850341D01*
X59065577Y-58039311D01*
X59065573Y-58039320D01*
X59063253Y-58044297D01*
X59061832Y-58049598D01*
X59061829Y-58049608D01*
X59007861Y-58251016D01*
X59007859Y-58251025D01*
X59006439Y-58256326D01*
X59005960Y-58261791D01*
X59005959Y-58261802D01*
X59004060Y-58283514D01*
X58987308Y-58475000D01*
X54046589Y-58475000D01*
X55047341Y-57510326D01*
X59367634Y-53345783D01*
X59407930Y-53319654D01*
X59455078Y-53310500D01*
X154545241Y-53310500D01*
X154592153Y-53319559D01*
G37*
G04 #@! TD.AperFunction*
M02*
