M48
; DRILL file {KiCad (6.0.1)} date Wed Feb  9 16:23:45 2022
; FORMAT={-:-/ absolute / metric / decimal}
; #@! TF.CreationDate,2022-02-09T16:23:45-08:00
; #@! TF.GenerationSoftware,Kicad,Pcbnew,(6.0.1)
; #@! TF.FileFunction,Plated,1,2,PTH
FMAT,2
METRIC
; #@! TA.AperFunction,Plated,PTH,ViaDrill
T1C0.400
; #@! TA.AperFunction,Plated,PTH,ComponentDrill
T2C0.750
; #@! TA.AperFunction,Plated,PTH,ComponentDrill
T3C0.800
; #@! TA.AperFunction,Plated,PTH,ComponentDrill
T4C0.900
; #@! TA.AperFunction,Plated,PTH,ComponentDrill
T5C1.000
; #@! TA.AperFunction,Plated,PTH,ComponentDrill
T6C1.020
; #@! TA.AperFunction,Plated,PTH,ComponentDrill
T7C1.200
; #@! TA.AperFunction,Plated,PTH,ComponentDrill
T8C1.300
%
G90
G05
T1
X30.86Y-37.86
X33.46Y-58.91
X34.26Y-24.71
X36.01Y-27.31
X42.01Y-56.21
X42.86Y-41.06
X48.36Y-42.61
X54.41Y-41.91
X56.11Y-61.26
X56.96Y-58.21
X57.31Y-62.16
X58.56Y-37.91
X60.31Y-55.26
X60.61Y-59.36
X62.11Y-65.06
X63.46Y-43.41
X73.708Y-27.112
X74.533Y-27.937
X76.76Y-128.91
X76.86Y-46.01
X78.36Y-66.91
X78.76Y-106.51
X81.11Y-65.86
X82.46Y-44.06
X87.91Y-66.51
X90.61Y-77.11
X90.61Y-112.96
X90.71Y-49.26
X90.81Y-44.81
X92.86Y-47.81
X93.36Y-24.51
X93.585Y-51.311
X96.56Y-97.11
X97.36Y-94.91
X99.86Y-66.26
X99.96Y-119.51
X100.01Y-26.86
X100.81Y-96.01
X102.51Y-58.06
X105.56Y-36.16
X105.96Y-124.11
X106.66Y-86.76
X106.81Y-129.51
X107.41Y-115.61
X110.71Y-55.36
X114.26Y-103.56
X114.36Y-32.51
X115.01Y-77.51
X119.91Y-27.76
X121.11Y-58.61
X122.986Y-56.011
X126.16Y-116.01
X126.16Y-124.56
X128.86Y-77.71
X129.76Y-52.76
X133.11Y-26.31
X134.46Y-35.41
X137.71Y-32.61
X142.41Y-55.31
X143.26Y-58.76
X145.31Y-115.81
X148.61Y-28.41
X148.86Y-52.16
X150.96Y-33.51
X156.76Y-58.06
X157.31Y-31.81
X161.86Y-115.66
X162.51Y-35.41
X170.41Y-26.01
X170.86Y-32.46
X187.31Y-115.61
X187.31Y-118.26
X191.21Y-79.21
X195.16Y-58.06
X199.21Y-26.91
X202.56Y-129.51
X203.51Y-54.56
X207.16Y-61.51
X208.71Y-55.41
X216.46Y-143.01
X216.76Y-53.61
X221.16Y-33.91
X221.56Y-129.46
X221.91Y-47.91
X226.26Y-51.56
X230.21Y-46.26
X244.86Y-77.66
X258.16Y-26.11
X261.66Y-53.11
X263.61Y-37.76
X264.66Y-47.61
X267.46Y-77.36
X268.648Y-66.322
X270.06Y-53.41
X274.81Y-41.76
X275.61Y-51.66
X276.71Y-36.26
X278.41Y-32.16
X279.685Y-55.435
X280.06Y-114.86
X280.61Y-61.41
X282.91Y-76.21
X285.36Y-66.31
X286.21Y-57.21
X286.76Y-68.26
X288.31Y-41.36
X288.66Y-58.21
X289.06Y-61.91
X289.31Y-118.41
X290.86Y-51.91
X291.61Y-53.01
X291.61Y-54.51
X291.66Y-38.61
X291.71Y-50.31
X293.81Y-80.76
X293.91Y-58.16
X294.96Y-44.51
X297.11Y-58.71
X297.16Y-43.11
X298.76Y-114.91
X299.31Y-76.06
X301.16Y-54.36
X301.36Y-37.26
X301.735Y-47.185
X303.56Y-25.084
X304.16Y-48.11
X305.06Y-89.06
X307.51Y-114.36
X308.01Y-97.21
X308.61Y-56.01
X309.51Y-63.91
X310.41Y-42.334
X311.51Y-43.26
X312.46Y-49.81
X312.61Y-58.91
X312.76Y-79.36
X312.91Y-27.36
X313.46Y-48.91
X313.61Y-69.76
X314.46Y-51.31
X315.36Y-53.01
X315.46Y-50.56
X316.41Y-59.31
X317.46Y-52.06
X318.91Y-49.06
X319.16Y-36.76
X319.451Y-40.844
X319.71Y-74.81
X320.81Y-77.11
X321.36Y-95.91
X321.46Y-41.56
X323.01Y-61.91
X324.46Y-44.51
X325.06Y-49.16
X325.21Y-78.26
X325.96Y-40.61
X326.31Y-29.76
X326.71Y-66.31
X328.21Y-49.01
X330.46Y-109.71
X331.47Y-49.25
X332.41Y-54.31
X333.41Y-42.51
X334.46Y-53.01
X335.46Y-43.26
X342.01Y-50.56
X342.11Y-26.91
X342.81Y-31.71
X348.11Y-32.11
T2
X26.502Y-47.342
X27.772Y-46.072
X29.042Y-47.342
T3
X26.56Y-60.49
X26.56Y-68.11
X29.86Y-60.51
X29.86Y-68.13
X37.22Y-60.425
X37.22Y-68.045
X56.41Y-72.71
X59.21Y-91.86
X62.11Y-132.51
X64.03Y-72.71
X65.21Y-110.86
X66.83Y-91.86
X69.73Y-132.51
X71.11Y-72.71
X72.83Y-110.86
X78.73Y-72.71
X80.56Y-91.86
X86.76Y-110.86
X88.18Y-91.86
X90.09Y-72.71
X94.38Y-110.86
X94.81Y-129.96
X97.71Y-72.71
X100.162Y-43.786
X100.91Y-91.86
X102.43Y-129.96
X105.66Y-110.86
X107.782Y-43.786
X108.53Y-91.86
X110.06Y-72.66
X113.28Y-110.86
X113.81Y-129.96
X117.68Y-72.66
X119.41Y-91.86
X121.43Y-129.96
X124.21Y-110.86
X127.03Y-91.86
X128.64Y-43.786
X129.26Y-72.71
X131.83Y-110.86
X135.01Y-129.96
X136.26Y-43.786
X136.88Y-72.71
X137.56Y-91.86
X142.63Y-129.96
X143.76Y-110.91
X145.18Y-91.86
X147.96Y-72.71
X151.38Y-110.91
X151.81Y-129.96
X155.58Y-72.71
X156.56Y-91.86
X157.058Y-43.786
X159.43Y-129.96
X162.21Y-110.86
X164.18Y-91.86
X164.678Y-43.786
X167.51Y-72.71
X169.83Y-110.86
X170.81Y-129.96
X175.13Y-72.71
X177.41Y-91.91
X178.43Y-129.96
X180.36Y-110.86
X185.03Y-91.91
X185.16Y-72.71
X187.98Y-110.86
X189.81Y-129.96
X191.094Y-43.786
X192.78Y-72.71
X194.56Y-91.91
X197.41Y-138.64
X197.41Y-146.26
X197.43Y-129.96
X198.714Y-43.786
X199.36Y-110.86
X202.18Y-91.91
X205.06Y-72.71
X206.98Y-110.86
X208.81Y-129.96
X212.68Y-72.71
X213.56Y-91.91
X215.986Y-43.786
X216.43Y-129.96
X218.36Y-110.86
X221.18Y-91.91
X223.606Y-43.786
X224.46Y-72.71
X225.98Y-110.86
X227.81Y-129.96
X232.08Y-72.71
X232.61Y-91.91
X235.43Y-129.96
X237.36Y-110.86
X240.23Y-91.91
X243.31Y-72.71
X244.434Y-43.786
X244.434Y-47.088
X244.98Y-110.86
X246.81Y-129.96
X250.93Y-72.71
X251.61Y-91.91
X252.054Y-43.786
X252.054Y-47.088
X254.43Y-129.96
X254.584Y-47.063
X254.594Y-43.786
X256.36Y-110.86
X259.23Y-91.91
X262.11Y-72.71
X262.204Y-47.063
X262.214Y-43.786
X263.98Y-110.86
X265.81Y-129.96
X269.73Y-72.71
X270.61Y-91.86
X273.43Y-129.96
X275.36Y-110.86
X278.23Y-91.86
X281.46Y-72.71
X282.98Y-110.86
X289.08Y-72.71
X289.61Y-91.91
X294.36Y-110.86
X297.23Y-91.91
X297.31Y-132.86
X300.66Y-72.71
X301.98Y-110.86
X304.93Y-132.86
X305.51Y-77.16
X305.51Y-84.78
X308.28Y-72.71
X311.36Y-132.86
X316.51Y-110.86
X318.98Y-132.86
X324.13Y-110.86
X324.16Y-81.34
X324.16Y-88.96
T4
X29.36Y-143.2
X31.9Y-143.2
X52.49Y-68.76
X55.03Y-68.76
X57.24Y-87.86
X59.54Y-106.96
X59.78Y-87.86
X62.08Y-106.96
X64.34Y-126.01
X66.88Y-126.01
X71.49Y-68.76
X74.03Y-68.76
X80.94Y-87.86
X83.48Y-87.86
X85.74Y-106.96
X88.28Y-106.96
X90.49Y-68.76
X93.03Y-68.76
X95.19Y-126.01
X95.59Y-37.3
X97.73Y-126.01
X98.13Y-37.3
X99.94Y-87.86
X102.48Y-87.86
X104.74Y-106.96
X107.28Y-106.96
X109.49Y-68.76
X112.03Y-68.76
X114.19Y-126.01
X116.73Y-126.01
X118.94Y-87.86
X121.48Y-87.86
X123.74Y-106.96
X124.16Y-37.31
X126.28Y-106.96
X126.7Y-37.31
X128.49Y-68.76
X131.03Y-68.76
X133.19Y-126.01
X135.73Y-126.01
X137.94Y-87.86
X140.48Y-87.86
X142.74Y-106.96
X145.28Y-106.96
X147.49Y-68.76
X150.03Y-68.76
X152.19Y-126.01
X152.74Y-37.306
X154.73Y-126.01
X155.28Y-37.306
X156.94Y-87.86
X159.48Y-87.86
X161.74Y-106.96
X164.28Y-106.96
X166.49Y-68.76
X169.03Y-68.76
X171.19Y-126.01
X173.73Y-126.01
X175.94Y-87.86
X178.48Y-87.86
X180.74Y-106.96
X181.315Y-37.3
X183.28Y-106.96
X183.855Y-37.3
X185.49Y-68.76
X185.59Y-145.06
X188.03Y-68.76
X188.13Y-145.06
X190.19Y-126.01
X192.73Y-126.01
X194.94Y-87.86
X197.48Y-87.86
X199.74Y-106.96
X202.28Y-106.96
X204.49Y-68.76
X207.03Y-68.76
X209.19Y-126.01
X209.898Y-37.3
X211.73Y-126.01
X212.438Y-37.3
X213.94Y-87.86
X216.48Y-87.86
X218.74Y-106.96
X221.28Y-106.96
X223.49Y-68.76
X226.03Y-68.76
X228.19Y-126.01
X230.73Y-126.01
X232.94Y-87.86
X235.48Y-87.86
X237.74Y-106.96
X238.391Y-37.3
X240.28Y-106.96
X240.931Y-37.3
X242.49Y-68.76
X245.03Y-68.76
X247.19Y-126.01
X249.73Y-126.01
X251.94Y-87.86
X254.48Y-87.86
X256.74Y-106.96
X259.28Y-106.96
X261.49Y-68.76
X264.03Y-68.76
X266.19Y-126.01
X266.9Y-37.3
X268.73Y-126.01
X269.44Y-37.3
X270.94Y-87.86
X273.48Y-87.86
X275.74Y-106.96
X278.28Y-106.96
X280.49Y-68.76
X283.03Y-68.76
X289.94Y-87.86
X292.29Y-126.01
X292.48Y-87.86
X294.74Y-106.96
X294.83Y-126.01
X295.389Y-37.3
X297.28Y-106.96
X297.929Y-37.3
X299.49Y-68.76
X302.03Y-68.76
X313.74Y-87.86
X316.14Y-106.96
X316.28Y-87.86
X318.49Y-68.76
X318.49Y-126.01
X318.68Y-106.96
X321.03Y-68.76
X321.03Y-126.01
X323.89Y-37.3
X326.43Y-37.3
T5
X26.732Y-53.048
X26.732Y-56.938
X29.272Y-53.048
X29.272Y-56.938
X38.44Y-25.5
X40.98Y-25.5
X43.52Y-25.5
X46.06Y-25.5
X48.6Y-25.5
X51.14Y-25.5
X53.68Y-25.5
X56.22Y-25.5
X58.76Y-25.5
X61.3Y-25.5
X63.84Y-25.5
X66.38Y-25.5
X68.92Y-25.5
X71.46Y-25.5
X270.9Y-45.82
X270.9Y-48.36
X273.44Y-45.82
X273.44Y-48.36
X275.98Y-45.82
X275.98Y-48.36
X278.52Y-45.82
X278.52Y-48.36
X281.06Y-45.82
X281.06Y-48.36
X283.6Y-45.82
X283.6Y-48.36
X286.14Y-45.82
X286.14Y-48.36
X288.68Y-45.82
X288.68Y-48.36
X291.22Y-45.82
X291.22Y-48.36
X293.76Y-45.82
X293.76Y-48.36
X296.3Y-45.82
X296.3Y-48.36
X298.84Y-45.82
X298.84Y-48.36
T6
X39.48Y-31.7
X39.48Y-49.48
X39.71Y-38.05
X39.71Y-40.59
X39.71Y-43.13
X42.02Y-31.7
X42.02Y-49.48
X44.56Y-31.7
X44.56Y-49.48
X47.1Y-31.7
X47.1Y-49.48
X49.64Y-31.7
X49.64Y-49.48
X52.18Y-31.7
X52.18Y-49.48
X54.72Y-31.7
X54.72Y-49.48
X57.26Y-31.7
X57.26Y-49.48
X59.8Y-31.7
X59.8Y-49.48
X62.34Y-31.7
X62.34Y-49.48
X64.88Y-31.7
X64.88Y-49.48
X67.42Y-31.7
X67.42Y-49.48
X69.96Y-31.7
X69.96Y-49.48
X72.5Y-31.7
X72.5Y-49.48
X75.04Y-31.7
X75.04Y-49.48
X77.58Y-31.7
X77.58Y-49.48
X80.12Y-31.7
X80.12Y-49.48
X82.66Y-31.7
X82.66Y-49.48
X85.2Y-31.7
X85.2Y-49.48
X87.74Y-31.7
X87.74Y-49.48
T7
X53.76Y-58.16
X58.52Y-77.26
X58.76Y-60.26
X60.8Y-96.33
X63.52Y-79.36
X65.61Y-115.43
X65.8Y-98.43
X70.61Y-117.53
X72.76Y-58.16
X77.76Y-60.26
X82.22Y-77.26
X87.0Y-96.33
X87.22Y-79.36
X91.76Y-58.16
X92.0Y-98.43
X96.46Y-115.43
X96.76Y-60.26
X96.86Y-26.71
X101.22Y-77.26
X101.46Y-117.53
X101.86Y-28.81
X106.0Y-96.33
X106.22Y-79.36
X110.76Y-58.16
X111.0Y-98.43
X115.46Y-115.43
X115.76Y-60.26
X120.22Y-77.26
X120.46Y-117.53
X125.0Y-96.33
X125.22Y-79.36
X125.435Y-26.71
X129.76Y-58.16
X130.0Y-98.43
X130.435Y-28.81
X134.46Y-115.43
X134.76Y-60.26
X139.22Y-77.26
X139.46Y-117.53
X144.0Y-96.33
X144.22Y-79.36
X148.76Y-58.16
X149.0Y-98.43
X153.46Y-115.43
X153.76Y-60.26
X154.01Y-26.71
X158.22Y-77.26
X158.46Y-117.53
X159.01Y-28.81
X163.0Y-96.33
X163.22Y-79.36
X167.76Y-58.16
X168.0Y-98.43
X172.46Y-115.43
X172.76Y-60.26
X177.22Y-77.26
X177.46Y-117.53
X182.0Y-96.33
X182.22Y-79.36
X182.585Y-26.71
X186.76Y-58.16
X186.86Y-134.48
X187.0Y-98.43
X187.585Y-28.81
X191.46Y-115.43
X191.76Y-60.26
X191.86Y-136.58
X196.22Y-77.26
X196.46Y-117.53
X201.0Y-96.33
X201.22Y-79.36
X205.76Y-58.16
X206.0Y-98.43
X210.46Y-115.43
X210.76Y-60.26
X211.16Y-26.71
X215.22Y-77.26
X215.46Y-117.53
X216.16Y-28.81
X220.0Y-96.33
X220.22Y-79.36
X224.76Y-58.16
X225.0Y-98.43
X229.46Y-115.43
X229.76Y-60.26
X234.22Y-77.26
X234.46Y-117.53
X239.0Y-96.33
X239.22Y-79.36
X239.66Y-26.71
X243.76Y-58.16
X244.0Y-98.43
X244.66Y-28.81
X248.46Y-115.43
X248.76Y-60.26
X253.22Y-77.26
X253.46Y-117.53
X258.0Y-96.33
X258.22Y-79.36
X262.76Y-58.16
X263.0Y-98.43
X267.46Y-115.43
X267.76Y-60.26
X268.16Y-26.71
X272.22Y-77.26
X272.46Y-117.53
X273.16Y-28.81
X277.0Y-96.33
X277.22Y-79.36
X281.76Y-58.16
X282.0Y-98.43
X286.76Y-60.26
X291.22Y-77.26
X293.585Y-115.43
X296.0Y-96.33
X296.22Y-79.36
X296.66Y-26.71
X298.585Y-117.53
X300.76Y-58.16
X301.0Y-98.43
X301.66Y-28.81
X305.76Y-60.26
X315.02Y-77.26
X317.4Y-96.33
X319.76Y-58.16
X319.76Y-115.43
X320.02Y-79.36
X322.4Y-98.43
X324.76Y-60.26
X324.76Y-117.53
X325.16Y-26.71
X330.16Y-28.81
T8
X27.598Y-35.658
X30.098Y-25.658
X32.598Y-35.658
T0
M30
