G04 #@! TF.GenerationSoftware,KiCad,Pcbnew,(5.1.10)-1*
G04 #@! TF.CreationDate,2021-10-24T19:20:25-07:00*
G04 #@! TF.ProjectId,Atari130MX,41746172-6931-4333-904d-582e6b696361,D*
G04 #@! TF.SameCoordinates,Original*
G04 #@! TF.FileFunction,Soldermask,Top*
G04 #@! TF.FilePolarity,Negative*
%FSLAX46Y46*%
G04 Gerber Fmt 4.6, Leading zero omitted, Abs format (unit mm)*
G04 Created by KiCad (PCBNEW (5.1.10)-1) date 2021-10-24 19:20:25*
%MOMM*%
%LPD*%
G01*
G04 APERTURE LIST*
%ADD10C,1.700000*%
%ADD11O,1.700000X1.700000*%
%ADD12R,1.700000X1.700000*%
%ADD13C,4.000000*%
%ADD14C,2.200000*%
%ADD15O,1.600000X1.600000*%
%ADD16C,1.600000*%
%ADD17C,1.800000*%
%ADD18R,1.800000X1.800000*%
G04 APERTURE END LIST*
G36*
G01*
X270300000Y-44970000D02*
X271500000Y-44970000D01*
G75*
G02*
X271750000Y-45220000I0J-250000D01*
G01*
X271750000Y-46420000D01*
G75*
G02*
X271500000Y-46670000I-250000J0D01*
G01*
X270300000Y-46670000D01*
G75*
G02*
X270050000Y-46420000I0J250000D01*
G01*
X270050000Y-45220000D01*
G75*
G02*
X270300000Y-44970000I250000J0D01*
G01*
G37*
D10*
X273440000Y-45820000D03*
X275980000Y-45820000D03*
X278520000Y-45820000D03*
X281060000Y-45820000D03*
X283600000Y-45820000D03*
X286140000Y-45820000D03*
X288680000Y-45820000D03*
X291220000Y-45820000D03*
X293760000Y-45820000D03*
X296300000Y-45820000D03*
X298840000Y-45820000D03*
X270900000Y-48360000D03*
X273440000Y-48360000D03*
X275980000Y-48360000D03*
X278520000Y-48360000D03*
X281060000Y-48360000D03*
X283600000Y-48360000D03*
X286140000Y-48360000D03*
X288680000Y-48360000D03*
X291220000Y-48360000D03*
X293760000Y-48360000D03*
X296300000Y-48360000D03*
X298840000Y-48360000D03*
D11*
X87970000Y-51025000D03*
X85430000Y-51025000D03*
D12*
X82890000Y-51025000D03*
D11*
X80350000Y-51025000D03*
X77810000Y-51025000D03*
X75270000Y-51025000D03*
X72730000Y-51025000D03*
D12*
X70190000Y-51025000D03*
D11*
X67650000Y-51025000D03*
X65110000Y-51025000D03*
X62570000Y-51025000D03*
X60030000Y-51025000D03*
D12*
X57490000Y-51025000D03*
D11*
X54950000Y-51025000D03*
X52410000Y-51025000D03*
X49870000Y-51025000D03*
X47330000Y-51025000D03*
D12*
X44790000Y-51025000D03*
D11*
X42250000Y-51025000D03*
X39710000Y-51025000D03*
X39710000Y-33245000D03*
X42250000Y-33245000D03*
D12*
X44790000Y-33245000D03*
D11*
X47330000Y-33245000D03*
X49870000Y-33245000D03*
X52410000Y-33245000D03*
X54950000Y-33245000D03*
D12*
X57490000Y-33245000D03*
D11*
X60030000Y-33245000D03*
X62570000Y-33245000D03*
X65110000Y-33245000D03*
X67650000Y-33245000D03*
D12*
X70190000Y-33245000D03*
D11*
X72730000Y-33245000D03*
X75270000Y-33245000D03*
X77810000Y-33245000D03*
X80350000Y-33245000D03*
D12*
X82890000Y-33245000D03*
D11*
X85430000Y-33245000D03*
X87970000Y-33245000D03*
X39940000Y-44675000D03*
D12*
X39940000Y-42135000D03*
D11*
X39940000Y-39595000D03*
D13*
X65610000Y-121330000D03*
D14*
X61800000Y-118790000D03*
X68150000Y-116250000D03*
X185125000Y-27530000D03*
D13*
X182585000Y-32610000D03*
D14*
X178775000Y-30070000D03*
X156550000Y-27530000D03*
D13*
X154010000Y-32610000D03*
D14*
X150200000Y-30070000D03*
X127975000Y-27530000D03*
D13*
X125435000Y-32610000D03*
D14*
X121625000Y-30070000D03*
X99400000Y-27530000D03*
D13*
X96860000Y-32610000D03*
D14*
X93050000Y-30070000D03*
D15*
X37220000Y-60425000D03*
D16*
X37220000Y-68045000D03*
D12*
X38440000Y-25500000D03*
D11*
X40980000Y-25500000D03*
X43520000Y-25500000D03*
X46060000Y-25500000D03*
X48600000Y-25500000D03*
X51140000Y-25500000D03*
X53680000Y-25500000D03*
X56220000Y-25500000D03*
X58760000Y-25500000D03*
X61300000Y-25500000D03*
X63840000Y-25500000D03*
X66380000Y-25500000D03*
X68920000Y-25500000D03*
X71460000Y-25500000D03*
D13*
X293585000Y-121330000D03*
D14*
X289775000Y-118790000D03*
X296125000Y-116250000D03*
D13*
X60800000Y-102230000D03*
D14*
X56990000Y-99690000D03*
X63340000Y-97150000D03*
X242200000Y-27530000D03*
D13*
X239660000Y-32610000D03*
D14*
X235850000Y-30070000D03*
X270700000Y-27530000D03*
D13*
X268160000Y-32610000D03*
D14*
X264350000Y-30070000D03*
X327700000Y-27530000D03*
D13*
X325160000Y-32610000D03*
D14*
X321350000Y-30070000D03*
X299200000Y-27530000D03*
D13*
X296660000Y-32610000D03*
D14*
X292850000Y-30070000D03*
X213700000Y-27530000D03*
D13*
X211160000Y-32610000D03*
D14*
X207350000Y-30070000D03*
D13*
X186860000Y-140380000D03*
D14*
X183050000Y-137840000D03*
X189400000Y-135300000D03*
D17*
X31900000Y-143200000D03*
D18*
X29360000Y-143200000D03*
D13*
X96460000Y-121330000D03*
D14*
X92650000Y-118790000D03*
X99000000Y-116250000D03*
D13*
X177220000Y-83160000D03*
D14*
X173410000Y-80620000D03*
X179760000Y-78080000D03*
D13*
X115460000Y-121330000D03*
D14*
X111650000Y-118790000D03*
X118000000Y-116250000D03*
D13*
X101220000Y-83160000D03*
D14*
X97410000Y-80620000D03*
X103760000Y-78080000D03*
D13*
X153460000Y-121330000D03*
D14*
X149650000Y-118790000D03*
X156000000Y-116250000D03*
D13*
X196220000Y-83160000D03*
D14*
X192410000Y-80620000D03*
X198760000Y-78080000D03*
D13*
X58520000Y-83160000D03*
D14*
X54710000Y-80620000D03*
X61060000Y-78080000D03*
D13*
X158220000Y-83160000D03*
D14*
X154410000Y-80620000D03*
X160760000Y-78080000D03*
D13*
X296000000Y-102230000D03*
D14*
X292190000Y-99690000D03*
X298540000Y-97150000D03*
D13*
X267460000Y-121330000D03*
D14*
X263650000Y-118790000D03*
X270000000Y-116250000D03*
D13*
X258000000Y-102230000D03*
D14*
X254190000Y-99690000D03*
X260540000Y-97150000D03*
D13*
X106000000Y-102230000D03*
D14*
X102190000Y-99690000D03*
X108540000Y-97150000D03*
D13*
X315020000Y-83160000D03*
D14*
X311210000Y-80620000D03*
X317560000Y-78080000D03*
D13*
X139220000Y-83160000D03*
D14*
X135410000Y-80620000D03*
X141760000Y-78080000D03*
D13*
X82220000Y-83160000D03*
D14*
X78410000Y-80620000D03*
X84760000Y-78080000D03*
D13*
X277000000Y-102230000D03*
D14*
X273190000Y-99690000D03*
X279540000Y-97150000D03*
D13*
X248460000Y-121330000D03*
D14*
X244650000Y-118790000D03*
X251000000Y-116250000D03*
D13*
X253220000Y-83160000D03*
D14*
X249410000Y-80620000D03*
X255760000Y-78080000D03*
D13*
X234220000Y-83160000D03*
D14*
X230410000Y-80620000D03*
X236760000Y-78080000D03*
D13*
X191460000Y-121330000D03*
D14*
X187650000Y-118790000D03*
X194000000Y-116250000D03*
D13*
X210460000Y-121330000D03*
D14*
X206650000Y-118790000D03*
X213000000Y-116250000D03*
D13*
X262760000Y-64060000D03*
D14*
X258950000Y-61520000D03*
X265300000Y-58980000D03*
D13*
X239000000Y-102230000D03*
D14*
X235190000Y-99690000D03*
X241540000Y-97150000D03*
D13*
X220000000Y-102230000D03*
D14*
X216190000Y-99690000D03*
X222540000Y-97150000D03*
D13*
X201000000Y-102230000D03*
D14*
X197190000Y-99690000D03*
X203540000Y-97150000D03*
D13*
X319760000Y-121330000D03*
D14*
X315950000Y-118790000D03*
X322300000Y-116250000D03*
D13*
X215220000Y-83160000D03*
D14*
X211410000Y-80620000D03*
X217760000Y-78080000D03*
D13*
X182000000Y-102230000D03*
D14*
X178190000Y-99690000D03*
X184540000Y-97150000D03*
D13*
X281760000Y-64060000D03*
D14*
X277950000Y-61520000D03*
X284300000Y-58980000D03*
D13*
X163000000Y-102230000D03*
D14*
X159190000Y-99690000D03*
X165540000Y-97150000D03*
D13*
X144000000Y-102230000D03*
D14*
X140190000Y-99690000D03*
X146540000Y-97150000D03*
D13*
X53760000Y-64060000D03*
D14*
X49950000Y-61520000D03*
X56300000Y-58980000D03*
D13*
X291220000Y-83160000D03*
D14*
X287410000Y-80620000D03*
X293760000Y-78080000D03*
D13*
X120220000Y-83160000D03*
D14*
X116410000Y-80620000D03*
X122760000Y-78080000D03*
D13*
X300760000Y-64060000D03*
D14*
X296950000Y-61520000D03*
X303300000Y-58980000D03*
D13*
X272220000Y-83160000D03*
D14*
X268410000Y-80620000D03*
X274760000Y-78080000D03*
D13*
X125000000Y-102230000D03*
D14*
X121190000Y-99690000D03*
X127540000Y-97150000D03*
D13*
X317400000Y-102230000D03*
D14*
X313590000Y-99690000D03*
X319940000Y-97150000D03*
D13*
X229460000Y-121330000D03*
D14*
X225650000Y-118790000D03*
X232000000Y-116250000D03*
D13*
X134460000Y-121330000D03*
D14*
X130650000Y-118790000D03*
X137000000Y-116250000D03*
D13*
X319760000Y-64060000D03*
D14*
X315950000Y-61520000D03*
X322300000Y-58980000D03*
D13*
X172460000Y-121330000D03*
D14*
X168650000Y-118790000D03*
X175000000Y-116250000D03*
D13*
X87000000Y-102230000D03*
D14*
X83190000Y-99690000D03*
X89540000Y-97150000D03*
D13*
X224760000Y-64060000D03*
D14*
X220950000Y-61520000D03*
X227300000Y-58980000D03*
D13*
X205760000Y-64060000D03*
D14*
X201950000Y-61520000D03*
X208300000Y-58980000D03*
D13*
X186760000Y-64060000D03*
D14*
X182950000Y-61520000D03*
X189300000Y-58980000D03*
D13*
X167760000Y-64060000D03*
D14*
X163950000Y-61520000D03*
X170300000Y-58980000D03*
D13*
X148760000Y-64060000D03*
D14*
X144950000Y-61520000D03*
X151300000Y-58980000D03*
D13*
X129760000Y-64060000D03*
D14*
X125950000Y-61520000D03*
X132300000Y-58980000D03*
D13*
X110760000Y-64060000D03*
D14*
X106950000Y-61520000D03*
X113300000Y-58980000D03*
D13*
X91760000Y-64060000D03*
D14*
X87950000Y-61520000D03*
X94300000Y-58980000D03*
D13*
X72760000Y-64060000D03*
D14*
X68950000Y-61520000D03*
X75300000Y-58980000D03*
D13*
X243760000Y-64060000D03*
D14*
X239950000Y-61520000D03*
X246300000Y-58980000D03*
M02*
