M48
; DRILL file {KiCad (5.1.10)-1} date 10/09/21 23:09:08
; FORMAT={-:-/ absolute / metric / decimal}
; #@! TF.CreationDate,2021-10-09T23:09:08-07:00
; #@! TF.GenerationSoftware,Kicad,Pcbnew,(5.1.10)-1
; #@! TF.FileFunction,NonPlated,1,2,NPTH
FMAT,2
METRIC
T1C3.200
T2C5.500
T3C7.000
T4C10.000
%
G90
G05
T1
X36.83Y-50.8
X36.83Y-138.43
X185.42Y-43.18
X336.55Y-39.37
X336.55Y-138.43
T2
X199.37Y-35.74
X222.17Y-26.74
X227.87Y-35.74
X250.67Y-26.74
X256.37Y-35.74
X279.17Y-26.74
X284.87Y-35.74
X307.67Y-26.74
X313.37Y-35.74
X336.17Y-26.74
T3
X48.81Y-99.36G85X48.81Y-102.36
G05
X72.01Y-99.36G85X72.01Y-102.36
G05
X281.595Y-118.46G85X281.595Y-121.46
G05
X304.795Y-118.46G85X304.795Y-121.46
G05
T4
X110.97Y-140.51G85X110.97Y-142.51
G05
X261.97Y-140.51G85X261.97Y-142.51
G05
T0
M30
