G04 #@! TF.GenerationSoftware,KiCad,Pcbnew,(6.0.1)*
G04 #@! TF.CreationDate,2022-02-07T00:18:37-08:00*
G04 #@! TF.ProjectId,AtariChocXE,41746172-6943-4686-9f63-58452e6b6963,F*
G04 #@! TF.SameCoordinates,Original*
G04 #@! TF.FileFunction,Soldermask,Bot*
G04 #@! TF.FilePolarity,Negative*
%FSLAX46Y46*%
G04 Gerber Fmt 4.6, Leading zero omitted, Abs format (unit mm)*
G04 Created by KiCad (PCBNEW (6.0.1)) date 2022-02-07 00:18:37*
%MOMM*%
%LPD*%
G01*
G04 APERTURE LIST*
G04 Aperture macros list*
%AMRoundRect*
0 Rectangle with rounded corners*
0 $1 Rounding radius*
0 $2 $3 $4 $5 $6 $7 $8 $9 X,Y pos of 4 corners*
0 Add a 4 corners polygon primitive as box body*
4,1,4,$2,$3,$4,$5,$6,$7,$8,$9,$2,$3,0*
0 Add four circle primitives for the rounded corners*
1,1,$1+$1,$2,$3*
1,1,$1+$1,$4,$5*
1,1,$1+$1,$6,$7*
1,1,$1+$1,$8,$9*
0 Add four rect primitives between the rounded corners*
20,1,$1+$1,$2,$3,$4,$5,0*
20,1,$1+$1,$4,$5,$6,$7,0*
20,1,$1+$1,$6,$7,$8,$9,0*
20,1,$1+$1,$8,$9,$2,$3,0*%
G04 Aperture macros list end*
%ADD10R,0.400000X1.000000*%
%ADD11R,2.000000X1.300000*%
%ADD12C,3.400000*%
%ADD13C,1.900000*%
%ADD14C,2.200000*%
%ADD15O,7.000000X10.000000*%
%ADD16O,12.000000X16.500000*%
%ADD17C,5.500000*%
%ADD18R,1.800000X1.800000*%
%ADD19C,1.800000*%
%ADD20O,1.600000X1.600000*%
%ADD21C,1.600000*%
%ADD22O,1.700000X1.700000*%
%ADD23R,1.700000X1.700000*%
%ADD24R,1.700000X3.500000*%
%ADD25R,3.500000X1.700000*%
%ADD26C,3.200000*%
%ADD27C,2.340000*%
%ADD28R,1.300000X1.300000*%
%ADD29C,1.300000*%
%ADD30RoundRect,0.250000X-0.600000X0.600000X-0.600000X-0.600000X0.600000X-0.600000X0.600000X0.600000X0*%
%ADD31C,1.700000*%
G04 APERTURE END LIST*
D10*
X310470000Y-46180000D03*
X311470000Y-46180000D03*
X312470000Y-46180000D03*
X313470000Y-46180000D03*
X314470000Y-46180000D03*
X315470000Y-46180000D03*
X316470000Y-46180000D03*
X317470000Y-46180000D03*
X318470000Y-46180000D03*
X319470000Y-46180000D03*
X320470000Y-46180000D03*
X321470000Y-46180000D03*
X322470000Y-46180000D03*
X323470000Y-46180000D03*
X324470000Y-46180000D03*
X325470000Y-46180000D03*
X326470000Y-46180000D03*
X327470000Y-46180000D03*
X328470000Y-46180000D03*
X329470000Y-46180000D03*
X330470000Y-46180000D03*
X331470000Y-46180000D03*
X332470000Y-46180000D03*
X333470000Y-46180000D03*
X334470000Y-46180000D03*
X335470000Y-46180000D03*
D11*
X307670000Y-48880000D03*
X338270000Y-48880000D03*
D12*
X125000000Y-102230000D03*
D13*
X119500000Y-102230000D03*
X130500000Y-102230000D03*
D14*
X125000000Y-96330000D03*
X130000000Y-98430000D03*
D12*
X153460000Y-121330000D03*
D13*
X147960000Y-121330000D03*
X158960000Y-121330000D03*
D14*
X153460000Y-115430000D03*
X158460000Y-117530000D03*
D12*
X291220000Y-83160000D03*
D13*
X285720000Y-83160000D03*
X296720000Y-83160000D03*
D14*
X291220000Y-77260000D03*
X296220000Y-79360000D03*
D12*
X163000000Y-102230000D03*
D13*
X157500000Y-102230000D03*
X168500000Y-102230000D03*
D14*
X163000000Y-96330000D03*
X168000000Y-98430000D03*
D12*
X53760000Y-64060000D03*
D13*
X48260000Y-64060000D03*
X59260000Y-64060000D03*
D14*
X53760000Y-58160000D03*
X58760000Y-60260000D03*
D12*
X186760000Y-64060000D03*
D13*
X181260000Y-64060000D03*
X192260000Y-64060000D03*
D14*
X186760000Y-58160000D03*
X191760000Y-60260000D03*
D12*
X319760000Y-64060000D03*
D13*
X314260000Y-64060000D03*
X325260000Y-64060000D03*
D14*
X319760000Y-58160000D03*
X324760000Y-60260000D03*
D12*
X272220000Y-83160000D03*
D13*
X266720000Y-83160000D03*
X277720000Y-83160000D03*
D14*
X272220000Y-77260000D03*
X277220000Y-79360000D03*
D12*
X243760000Y-64060000D03*
D13*
X238260000Y-64060000D03*
X249260000Y-64060000D03*
D14*
X243760000Y-58160000D03*
X248760000Y-60260000D03*
D12*
X129760000Y-64060000D03*
D13*
X124260000Y-64060000D03*
X135260000Y-64060000D03*
D14*
X129760000Y-58160000D03*
X134760000Y-60260000D03*
D12*
X167760000Y-64060000D03*
D13*
X162260000Y-64060000D03*
X173260000Y-64060000D03*
D14*
X167760000Y-58160000D03*
X172760000Y-60260000D03*
D12*
X205760000Y-64060000D03*
D13*
X200260000Y-64060000D03*
X211260000Y-64060000D03*
D14*
X205760000Y-58160000D03*
X210760000Y-60260000D03*
D12*
X87000000Y-102230000D03*
D13*
X81500000Y-102230000D03*
X92500000Y-102230000D03*
D14*
X87000000Y-96330000D03*
X92000000Y-98430000D03*
D12*
X110760000Y-64060000D03*
D13*
X105260000Y-64060000D03*
X116260000Y-64060000D03*
D14*
X110760000Y-58160000D03*
X115760000Y-60260000D03*
D12*
X91760000Y-64060000D03*
D13*
X86260000Y-64060000D03*
X97260000Y-64060000D03*
D14*
X91760000Y-58160000D03*
X96760000Y-60260000D03*
D12*
X172460000Y-121330000D03*
D13*
X166960000Y-121330000D03*
X177960000Y-121330000D03*
D14*
X172460000Y-115430000D03*
X177460000Y-117530000D03*
D12*
X134460000Y-121330000D03*
D13*
X128960000Y-121330000D03*
X139960000Y-121330000D03*
D14*
X134460000Y-115430000D03*
X139460000Y-117530000D03*
D12*
X229460000Y-121330000D03*
D13*
X223960000Y-121330000D03*
X234960000Y-121330000D03*
D14*
X229460000Y-115430000D03*
X234460000Y-117530000D03*
D12*
X148760000Y-64060000D03*
D13*
X143260000Y-64060000D03*
X154260000Y-64060000D03*
D14*
X148760000Y-58160000D03*
X153760000Y-60260000D03*
D12*
X72760000Y-64060000D03*
D13*
X67260000Y-64060000D03*
X78260000Y-64060000D03*
D14*
X72760000Y-58160000D03*
X77760000Y-60260000D03*
D12*
X224760000Y-64060000D03*
D13*
X219260000Y-64060000D03*
X230260000Y-64060000D03*
D14*
X224760000Y-58160000D03*
X229760000Y-60260000D03*
D12*
X300760000Y-64060000D03*
D13*
X295260000Y-64060000D03*
X306260000Y-64060000D03*
D14*
X300760000Y-58160000D03*
X305760000Y-60260000D03*
D12*
X120220000Y-83160000D03*
D13*
X114720000Y-83160000D03*
X125720000Y-83160000D03*
D14*
X120220000Y-77260000D03*
X125220000Y-79360000D03*
D12*
X144000000Y-102230000D03*
D13*
X138500000Y-102230000D03*
X149500000Y-102230000D03*
D14*
X144000000Y-96330000D03*
X149000000Y-98430000D03*
D12*
X215220000Y-83160000D03*
D13*
X209720000Y-83160000D03*
X220720000Y-83160000D03*
D14*
X215220000Y-77260000D03*
X220220000Y-79360000D03*
D12*
X253220000Y-83160000D03*
D13*
X247720000Y-83160000D03*
X258720000Y-83160000D03*
D14*
X253220000Y-77260000D03*
X258220000Y-79360000D03*
D12*
X258000000Y-102230000D03*
D13*
X252500000Y-102230000D03*
X263500000Y-102230000D03*
D14*
X258000000Y-96330000D03*
X263000000Y-98430000D03*
D12*
X296000000Y-102230000D03*
D13*
X290500000Y-102230000D03*
X301500000Y-102230000D03*
D14*
X296000000Y-96330000D03*
X301000000Y-98430000D03*
D12*
X262760000Y-64060000D03*
D13*
X257260000Y-64060000D03*
X268260000Y-64060000D03*
D14*
X262760000Y-58160000D03*
X267760000Y-60260000D03*
D12*
X239000000Y-102230000D03*
D13*
X233500000Y-102230000D03*
X244500000Y-102230000D03*
D14*
X239000000Y-96330000D03*
X244000000Y-98430000D03*
D12*
X191460000Y-121330000D03*
D13*
X185960000Y-121330000D03*
X196960000Y-121330000D03*
D14*
X191460000Y-115430000D03*
X196460000Y-117530000D03*
D12*
X319760000Y-121330000D03*
D13*
X314260000Y-121330000D03*
X325260000Y-121330000D03*
D14*
X319760000Y-115430000D03*
X324760000Y-117530000D03*
D12*
X182000000Y-102230000D03*
D13*
X176500000Y-102230000D03*
X187500000Y-102230000D03*
D14*
X182000000Y-96330000D03*
X187000000Y-98430000D03*
D12*
X201000000Y-102230000D03*
D13*
X195500000Y-102230000D03*
X206500000Y-102230000D03*
D14*
X201000000Y-96330000D03*
X206000000Y-98430000D03*
D12*
X210460000Y-121330000D03*
D13*
X204960000Y-121330000D03*
X215960000Y-121330000D03*
D14*
X210460000Y-115430000D03*
X215460000Y-117530000D03*
D12*
X234220000Y-83160000D03*
D13*
X228720000Y-83160000D03*
X239720000Y-83160000D03*
D14*
X234220000Y-77260000D03*
X239220000Y-79360000D03*
D12*
X248460000Y-121330000D03*
D13*
X242960000Y-121330000D03*
X253960000Y-121330000D03*
D14*
X248460000Y-115430000D03*
X253460000Y-117530000D03*
D12*
X82220000Y-83160000D03*
D13*
X76720000Y-83160000D03*
X87720000Y-83160000D03*
D14*
X82220000Y-77260000D03*
X87220000Y-79360000D03*
D12*
X267460000Y-121330000D03*
D13*
X261960000Y-121330000D03*
X272960000Y-121330000D03*
D14*
X267460000Y-115430000D03*
X272460000Y-117530000D03*
D12*
X220000000Y-102230000D03*
D13*
X214500000Y-102230000D03*
X225500000Y-102230000D03*
D14*
X220000000Y-96330000D03*
X225000000Y-98430000D03*
D12*
X139220000Y-83160000D03*
D13*
X133720000Y-83160000D03*
X144720000Y-83160000D03*
D14*
X139220000Y-77260000D03*
X144220000Y-79360000D03*
D12*
X277000000Y-102230000D03*
D13*
X271500000Y-102230000D03*
X282500000Y-102230000D03*
D14*
X277000000Y-96330000D03*
X282000000Y-98430000D03*
D12*
X106000000Y-102230000D03*
D13*
X100500000Y-102230000D03*
X111500000Y-102230000D03*
D14*
X106000000Y-96330000D03*
X111000000Y-98430000D03*
D12*
X281760000Y-64060000D03*
D13*
X276260000Y-64060000D03*
X287260000Y-64060000D03*
D14*
X281760000Y-58160000D03*
X286760000Y-60260000D03*
D13*
X299085000Y-121330000D03*
D12*
X293585000Y-121330000D03*
D15*
X281985000Y-121330000D03*
D13*
X288085000Y-121330000D03*
D15*
X305185000Y-121330000D03*
D14*
X293585000Y-115430000D03*
X298585000Y-117530000D03*
D12*
X65610000Y-121330000D03*
D13*
X71110000Y-121330000D03*
X60110000Y-121330000D03*
D14*
X65610000Y-115430000D03*
X70610000Y-117530000D03*
D13*
X66300000Y-102230000D03*
D12*
X60800000Y-102230000D03*
D15*
X49200000Y-102230000D03*
D13*
X55300000Y-102230000D03*
D15*
X72400000Y-102230000D03*
D14*
X60800000Y-96330000D03*
X65800000Y-98430000D03*
D12*
X58520000Y-83160000D03*
D13*
X53020000Y-83160000D03*
X64020000Y-83160000D03*
D14*
X58520000Y-77260000D03*
X63520000Y-79360000D03*
D16*
X263360000Y-140380000D03*
D13*
X181360000Y-140380000D03*
X192360000Y-140380000D03*
D12*
X186860000Y-140380000D03*
D16*
X110360000Y-140380000D03*
D14*
X186860000Y-134480000D03*
X191860000Y-136580000D03*
D12*
X315020000Y-83160000D03*
D13*
X309520000Y-83160000D03*
X320520000Y-83160000D03*
D14*
X315020000Y-77260000D03*
X320020000Y-79360000D03*
D13*
X119935000Y-32610000D03*
X130935000Y-32610000D03*
D17*
X136835000Y-28110000D03*
D12*
X125435000Y-32610000D03*
D17*
X114435000Y-36610000D03*
D14*
X125435000Y-26710000D03*
X130435000Y-28810000D03*
D13*
X177085000Y-32610000D03*
X188085000Y-32610000D03*
D17*
X193985000Y-28110000D03*
D12*
X182585000Y-32610000D03*
D17*
X171585000Y-36610000D03*
D14*
X182585000Y-26710000D03*
X187585000Y-28810000D03*
D13*
X148510000Y-32610000D03*
X159510000Y-32610000D03*
D17*
X165410000Y-28110000D03*
D12*
X154010000Y-32610000D03*
D17*
X143010000Y-36610000D03*
D14*
X154010000Y-26710000D03*
X159010000Y-28810000D03*
D18*
X270940000Y-87860000D03*
D19*
X273480000Y-87860000D03*
D18*
X213940000Y-87860000D03*
D19*
X216480000Y-87860000D03*
D18*
X156940000Y-87860000D03*
D19*
X159480000Y-87860000D03*
D18*
X99940000Y-87860000D03*
D19*
X102480000Y-87860000D03*
D18*
X137940000Y-87860000D03*
D19*
X140480000Y-87860000D03*
D18*
X318490000Y-68760000D03*
D19*
X321030000Y-68760000D03*
D18*
X289940000Y-87860000D03*
D19*
X292480000Y-87860000D03*
D18*
X104740000Y-106960000D03*
D19*
X107280000Y-106960000D03*
D18*
X80940000Y-87860000D03*
D19*
X83480000Y-87860000D03*
D18*
X232940000Y-87860000D03*
D19*
X235480000Y-87860000D03*
D18*
X299490000Y-68760000D03*
D19*
X302030000Y-68760000D03*
D18*
X161740000Y-106960000D03*
D19*
X164280000Y-106960000D03*
D18*
X313740000Y-87860000D03*
D19*
X316280000Y-87860000D03*
D18*
X194940000Y-87860000D03*
D19*
X197480000Y-87860000D03*
D18*
X142740000Y-106960000D03*
D19*
X145280000Y-106960000D03*
D18*
X175940000Y-87860000D03*
D19*
X178480000Y-87860000D03*
D18*
X118940000Y-87860000D03*
D19*
X121480000Y-87860000D03*
D18*
X251940000Y-87860000D03*
D19*
X254480000Y-87860000D03*
D18*
X59540000Y-106960000D03*
D19*
X62080000Y-106960000D03*
D18*
X57240000Y-87860000D03*
D19*
X59780000Y-87860000D03*
D18*
X123740000Y-106960000D03*
D19*
X126280000Y-106960000D03*
D18*
X85740000Y-106960000D03*
D19*
X88280000Y-106960000D03*
D18*
X266900300Y-37300000D03*
D19*
X269440300Y-37300000D03*
D18*
X128490000Y-68760000D03*
D19*
X131030000Y-68760000D03*
D18*
X147490000Y-68760000D03*
D19*
X150030000Y-68760000D03*
D18*
X223490000Y-68760000D03*
D19*
X226030000Y-68760000D03*
D18*
X261490000Y-68760000D03*
D19*
X264030000Y-68760000D03*
D18*
X204490000Y-68760000D03*
D19*
X207030000Y-68760000D03*
D18*
X109490000Y-68760000D03*
D19*
X112030000Y-68760000D03*
D18*
X181315000Y-37300000D03*
D19*
X183855000Y-37300000D03*
D18*
X280490000Y-68760000D03*
D19*
X283030000Y-68760000D03*
D18*
X71490000Y-68760000D03*
D19*
X74030000Y-68760000D03*
D18*
X295388940Y-37300000D03*
D19*
X297928940Y-37300000D03*
D18*
X238391340Y-37300000D03*
D19*
X240931340Y-37300000D03*
D18*
X209897620Y-37300000D03*
D19*
X212437620Y-37300000D03*
D18*
X90490000Y-68760000D03*
D19*
X93030000Y-68760000D03*
D18*
X152740000Y-37306460D03*
D19*
X155280000Y-37306460D03*
D18*
X124160000Y-37310000D03*
D19*
X126700000Y-37310000D03*
D20*
X197410000Y-138640000D03*
D21*
X197410000Y-146260000D03*
D18*
X242490000Y-68760000D03*
D19*
X245030000Y-68760000D03*
D18*
X52490000Y-68760000D03*
D19*
X55030000Y-68760000D03*
D18*
X166490000Y-68760000D03*
D19*
X169030000Y-68760000D03*
D18*
X323890280Y-37300000D03*
D19*
X326430280Y-37300000D03*
D18*
X185490000Y-68760000D03*
D19*
X188030000Y-68760000D03*
D20*
X273430000Y-129960000D03*
D21*
X265810000Y-129960000D03*
D20*
X263980000Y-110860000D03*
D21*
X256360000Y-110860000D03*
D20*
X318980000Y-132860000D03*
D21*
X311360000Y-132860000D03*
D20*
X282980000Y-110860000D03*
D21*
X275360000Y-110860000D03*
D20*
X197430000Y-129960000D03*
D21*
X189810000Y-129960000D03*
D20*
X102430000Y-129960000D03*
D21*
X94810000Y-129960000D03*
D20*
X324130000Y-110860000D03*
D21*
X316510000Y-110860000D03*
D20*
X69730000Y-132510000D03*
D21*
X62110000Y-132510000D03*
D20*
X178430000Y-129960000D03*
D21*
X170810000Y-129960000D03*
D20*
X26560000Y-60490000D03*
D21*
X26560000Y-68110000D03*
D20*
X206980000Y-110860000D03*
D21*
X199360000Y-110860000D03*
D20*
X254430000Y-129960000D03*
D21*
X246810000Y-129960000D03*
D20*
X244980000Y-110860000D03*
D21*
X237360000Y-110860000D03*
D20*
X225980000Y-110860000D03*
D21*
X218360000Y-110860000D03*
D20*
X29860000Y-68130000D03*
D21*
X29860000Y-60510000D03*
D20*
X142630000Y-129960000D03*
D21*
X135010000Y-129960000D03*
D20*
X235430000Y-129960000D03*
D21*
X227810000Y-129960000D03*
D20*
X304930000Y-132860000D03*
D21*
X297310000Y-132860000D03*
D20*
X121430000Y-129960000D03*
D21*
X113810000Y-129960000D03*
D20*
X301980000Y-110860000D03*
D21*
X294360000Y-110860000D03*
D20*
X216430000Y-129960000D03*
D21*
X208810000Y-129960000D03*
D20*
X159430000Y-129960000D03*
D21*
X151810000Y-129960000D03*
D20*
X202180000Y-91910000D03*
D21*
X194560000Y-91910000D03*
D20*
X131830000Y-110860000D03*
D21*
X124210000Y-110860000D03*
D20*
X324160000Y-81340000D03*
D21*
X324160000Y-88960000D03*
D20*
X259230000Y-91910000D03*
D21*
X251610000Y-91910000D03*
D20*
X185030000Y-91910000D03*
D21*
X177410000Y-91910000D03*
D20*
X164180000Y-91860000D03*
D21*
X156560000Y-91860000D03*
D20*
X113280000Y-110860000D03*
D21*
X105660000Y-110860000D03*
D20*
X297230000Y-91910000D03*
D21*
X289610000Y-91910000D03*
D20*
X221180000Y-91910000D03*
D21*
X213560000Y-91910000D03*
D20*
X169830000Y-110860000D03*
D21*
X162210000Y-110860000D03*
D20*
X240230000Y-91910000D03*
D21*
X232610000Y-91910000D03*
D20*
X127030000Y-91860000D03*
D21*
X119410000Y-91860000D03*
D20*
X108530000Y-91860000D03*
D21*
X100910000Y-91860000D03*
D20*
X88180000Y-91860000D03*
D21*
X80560000Y-91860000D03*
D20*
X145180000Y-91860000D03*
D21*
X137560000Y-91860000D03*
D20*
X66830000Y-91860000D03*
D21*
X59210000Y-91860000D03*
D20*
X305510000Y-84780000D03*
D21*
X305510000Y-77160000D03*
D20*
X187980000Y-110860000D03*
D21*
X180360000Y-110860000D03*
D20*
X151380000Y-110910000D03*
D21*
X143760000Y-110910000D03*
D20*
X72830000Y-110860000D03*
D21*
X65210000Y-110860000D03*
D20*
X94380000Y-110860000D03*
D21*
X86760000Y-110860000D03*
D20*
X278230000Y-91860000D03*
D21*
X270610000Y-91860000D03*
D20*
X223606000Y-43786000D03*
D21*
X215986000Y-43786000D03*
D20*
X198714000Y-43786000D03*
D21*
X191094000Y-43786000D03*
D20*
X164678000Y-43786000D03*
D21*
X157058000Y-43786000D03*
D20*
X136260000Y-43786000D03*
D21*
X128640000Y-43786000D03*
D20*
X308280000Y-72710000D03*
D21*
X300660000Y-72710000D03*
D20*
X212680000Y-72710000D03*
D21*
X205060000Y-72710000D03*
D20*
X252054000Y-43786000D03*
D21*
X244434000Y-43786000D03*
D20*
X289080000Y-72710000D03*
D21*
X281460000Y-72710000D03*
D20*
X269730000Y-72710000D03*
D21*
X262110000Y-72710000D03*
D20*
X136880000Y-72710000D03*
D21*
X129260000Y-72710000D03*
D20*
X117680000Y-72660000D03*
D21*
X110060000Y-72660000D03*
D20*
X78730000Y-72710000D03*
D21*
X71110000Y-72710000D03*
D20*
X155580000Y-72710000D03*
D21*
X147960000Y-72710000D03*
D20*
X232080000Y-72710000D03*
D21*
X224460000Y-72710000D03*
D20*
X175130000Y-72710000D03*
D21*
X167510000Y-72710000D03*
D20*
X97710000Y-72710000D03*
D21*
X90090000Y-72710000D03*
D20*
X262203840Y-47062600D03*
D21*
X254583840Y-47062600D03*
D20*
X262214000Y-43786000D03*
D21*
X254594000Y-43786000D03*
D20*
X244434000Y-47088000D03*
D21*
X252054000Y-47088000D03*
D20*
X192780000Y-72710000D03*
D21*
X185160000Y-72710000D03*
D20*
X250930000Y-72710000D03*
D21*
X243310000Y-72710000D03*
D20*
X64030000Y-72710000D03*
D21*
X56410000Y-72710000D03*
D18*
X185590000Y-145060000D03*
D19*
X188130000Y-145060000D03*
D18*
X266190000Y-126010000D03*
D19*
X268730000Y-126010000D03*
D18*
X247190000Y-126010000D03*
D19*
X249730000Y-126010000D03*
D18*
X318490000Y-126010000D03*
D19*
X321030000Y-126010000D03*
D18*
X292290000Y-126010000D03*
D19*
X294830000Y-126010000D03*
D18*
X228190000Y-126010000D03*
D19*
X230730000Y-126010000D03*
D18*
X209190000Y-126010000D03*
D19*
X211730000Y-126010000D03*
D18*
X190190000Y-126010000D03*
D19*
X192730000Y-126010000D03*
D18*
X171190000Y-126010000D03*
D19*
X173730000Y-126010000D03*
D18*
X152190000Y-126010000D03*
D19*
X154730000Y-126010000D03*
D18*
X133190000Y-126010000D03*
D19*
X135730000Y-126010000D03*
D18*
X114190000Y-126010000D03*
D19*
X116730000Y-126010000D03*
D18*
X95190000Y-126010000D03*
D19*
X97730000Y-126010000D03*
D18*
X64340000Y-126010000D03*
D19*
X66880000Y-126010000D03*
D18*
X316140000Y-106960000D03*
D19*
X318680000Y-106960000D03*
D20*
X107782000Y-43786000D03*
D21*
X100162000Y-43786000D03*
D22*
X87740000Y-49480000D03*
X85200000Y-49480000D03*
D23*
X82660000Y-49480000D03*
D22*
X80120000Y-49480000D03*
X77580000Y-49480000D03*
X75040000Y-49480000D03*
X72500000Y-49480000D03*
D23*
X69960000Y-49480000D03*
D22*
X67420000Y-49480000D03*
X64880000Y-49480000D03*
X62340000Y-49480000D03*
X59800000Y-49480000D03*
D23*
X57260000Y-49480000D03*
D22*
X54720000Y-49480000D03*
X52180000Y-49480000D03*
X49640000Y-49480000D03*
X47100000Y-49480000D03*
D23*
X44560000Y-49480000D03*
D22*
X42020000Y-49480000D03*
X39480000Y-49480000D03*
X39480000Y-31700000D03*
X42020000Y-31700000D03*
D23*
X44560000Y-31700000D03*
D22*
X47100000Y-31700000D03*
X49640000Y-31700000D03*
X52180000Y-31700000D03*
X54720000Y-31700000D03*
D23*
X57260000Y-31700000D03*
D22*
X59800000Y-31700000D03*
X62340000Y-31700000D03*
X64880000Y-31700000D03*
X67420000Y-31700000D03*
D23*
X69960000Y-31700000D03*
D22*
X72500000Y-31700000D03*
X75040000Y-31700000D03*
X77580000Y-31700000D03*
X80120000Y-31700000D03*
D23*
X82660000Y-31700000D03*
D22*
X85200000Y-31700000D03*
X87740000Y-31700000D03*
D24*
X87740000Y-50380000D03*
X85200000Y-50380000D03*
X82660000Y-50380000D03*
X80120000Y-50380000D03*
X77580000Y-50380000D03*
X75040000Y-50380000D03*
X72500000Y-50380000D03*
X69960000Y-50380000D03*
X67420000Y-50380000D03*
X64880000Y-50380000D03*
X62340000Y-50380000D03*
X59800000Y-50380000D03*
X57260000Y-50380000D03*
X54720000Y-50380000D03*
X52180000Y-50380000D03*
X49640000Y-50380000D03*
X47100000Y-50380000D03*
X44560000Y-50380000D03*
X42020000Y-50380000D03*
X39480000Y-50380000D03*
X87740000Y-30800000D03*
X85200000Y-30800000D03*
X82660000Y-30800000D03*
X80120000Y-30800000D03*
X77580000Y-30800000D03*
X75040000Y-30800000D03*
X72500000Y-30800000D03*
X69960000Y-30800000D03*
X67420000Y-30800000D03*
X64880000Y-30800000D03*
X62340000Y-30800000D03*
X59800000Y-30800000D03*
X57260000Y-30800000D03*
X54720000Y-30800000D03*
X52180000Y-30800000D03*
X49640000Y-30800000D03*
X47100000Y-30800000D03*
X44560000Y-30800000D03*
X42020000Y-30800000D03*
X39480000Y-30800000D03*
D25*
X38810000Y-43130000D03*
D22*
X39710000Y-43130000D03*
D25*
X38810000Y-40590000D03*
D23*
X39710000Y-40590000D03*
D25*
X38810000Y-38050000D03*
D22*
X39710000Y-38050000D03*
D20*
X37220000Y-60425000D03*
D21*
X37220000Y-68045000D03*
D26*
X336940000Y-139800000D03*
D27*
X32598000Y-35658000D03*
X30098000Y-25658000D03*
X27598000Y-35658000D03*
D28*
X26502000Y-47342000D03*
D29*
X29042000Y-47342000D03*
X27772000Y-46072000D03*
D22*
X29272000Y-56938000D03*
D23*
X26732000Y-56938000D03*
D30*
X270900000Y-45820000D03*
D31*
X273440000Y-45820000D03*
X275980000Y-45820000D03*
X278520000Y-45820000D03*
X281060000Y-45820000D03*
X283600000Y-45820000D03*
X286140000Y-45820000D03*
X288680000Y-45820000D03*
X291220000Y-45820000D03*
X293760000Y-45820000D03*
X296300000Y-45820000D03*
X298840000Y-45820000D03*
X270900000Y-48360000D03*
X273440000Y-48360000D03*
X275980000Y-48360000D03*
X278520000Y-48360000D03*
X281060000Y-48360000D03*
X283600000Y-48360000D03*
X286140000Y-48360000D03*
X288680000Y-48360000D03*
X291220000Y-48360000D03*
X293760000Y-48360000D03*
X296300000Y-48360000D03*
X298840000Y-48360000D03*
D26*
X37220000Y-139800000D03*
X185810000Y-44550000D03*
D22*
X29272000Y-53048000D03*
D23*
X26732000Y-53048000D03*
D26*
X31750000Y-40740000D03*
X336940000Y-40740000D03*
D13*
X319660000Y-32610000D03*
X330660000Y-32610000D03*
D17*
X336560000Y-28110000D03*
D12*
X325160000Y-32610000D03*
D17*
X314160000Y-36610000D03*
D14*
X325160000Y-26710000D03*
X330160000Y-28810000D03*
D12*
X196220000Y-83160000D03*
D13*
X190720000Y-83160000D03*
X201720000Y-83160000D03*
D14*
X196220000Y-77260000D03*
X201220000Y-79360000D03*
D23*
X38440000Y-25500000D03*
D22*
X40980000Y-25500000D03*
X43520000Y-25500000D03*
X46060000Y-25500000D03*
X48600000Y-25500000D03*
X51140000Y-25500000D03*
X53680000Y-25500000D03*
X56220000Y-25500000D03*
X58760000Y-25500000D03*
X61300000Y-25500000D03*
X63840000Y-25500000D03*
X66380000Y-25500000D03*
X68920000Y-25500000D03*
X71460000Y-25500000D03*
D13*
X91360000Y-32610000D03*
X102360000Y-32610000D03*
D17*
X108260000Y-28110000D03*
D12*
X96860000Y-32610000D03*
D17*
X85860000Y-36610000D03*
D14*
X96860000Y-26710000D03*
X101860000Y-28810000D03*
D13*
X205660000Y-32610000D03*
X216660000Y-32610000D03*
D17*
X222560000Y-28110000D03*
D12*
X211160000Y-32610000D03*
D17*
X200160000Y-36610000D03*
D14*
X211160000Y-26710000D03*
X216160000Y-28810000D03*
D12*
X177220000Y-83160000D03*
D13*
X171720000Y-83160000D03*
X182720000Y-83160000D03*
D14*
X177220000Y-77260000D03*
X182220000Y-79360000D03*
D12*
X158220000Y-83160000D03*
D13*
X152720000Y-83160000D03*
X163720000Y-83160000D03*
D14*
X158220000Y-77260000D03*
X163220000Y-79360000D03*
D12*
X101220000Y-83160000D03*
D13*
X95720000Y-83160000D03*
X106720000Y-83160000D03*
D14*
X101220000Y-77260000D03*
X106220000Y-79360000D03*
D12*
X96460000Y-121330000D03*
D13*
X90960000Y-121330000D03*
X101960000Y-121330000D03*
D14*
X96460000Y-115430000D03*
X101460000Y-117530000D03*
D12*
X115460000Y-121330000D03*
D13*
X109960000Y-121330000D03*
X120960000Y-121330000D03*
D14*
X115460000Y-115430000D03*
X120460000Y-117530000D03*
D12*
X317400000Y-102230000D03*
D13*
X322900000Y-102230000D03*
X311900000Y-102230000D03*
D14*
X317400000Y-96330000D03*
X322400000Y-98430000D03*
D19*
X31900000Y-143200000D03*
D18*
X29360000Y-143200000D03*
D13*
X262660000Y-32610000D03*
X273660000Y-32610000D03*
D17*
X279560000Y-28110000D03*
D12*
X268160000Y-32610000D03*
D17*
X257160000Y-36610000D03*
D14*
X268160000Y-26710000D03*
X273160000Y-28810000D03*
D13*
X234160000Y-32610000D03*
X245160000Y-32610000D03*
D17*
X251060000Y-28110000D03*
D12*
X239660000Y-32610000D03*
D17*
X228660000Y-36610000D03*
D14*
X239660000Y-26710000D03*
X244660000Y-28810000D03*
D18*
X294740000Y-106960000D03*
D19*
X297280000Y-106960000D03*
D18*
X199740000Y-106960000D03*
D19*
X202280000Y-106960000D03*
D18*
X237740000Y-106960000D03*
D19*
X240280000Y-106960000D03*
D13*
X291160000Y-32610000D03*
X302160000Y-32610000D03*
D17*
X308060000Y-28110000D03*
D12*
X296660000Y-32610000D03*
D17*
X285660000Y-36610000D03*
D14*
X296660000Y-26710000D03*
X301660000Y-28810000D03*
D18*
X256740000Y-106960000D03*
D19*
X259280000Y-106960000D03*
D18*
X180740000Y-106960000D03*
D19*
X183280000Y-106960000D03*
D18*
X275740000Y-106960000D03*
D19*
X278280000Y-106960000D03*
D18*
X218740000Y-106960000D03*
D19*
X221280000Y-106960000D03*
D18*
X95590000Y-37300000D03*
D19*
X98130000Y-37300000D03*
M02*
