G04 #@! TF.GenerationSoftware,KiCad,Pcbnew,(7.0.0)*
G04 #@! TF.CreationDate,2023-04-05T18:56:48-07:00*
G04 #@! TF.ProjectId,DecentXE,44656365-6e74-4584-952e-6b696361645f,12*
G04 #@! TF.SameCoordinates,Original*
G04 #@! TF.FileFunction,Soldermask,Top*
G04 #@! TF.FilePolarity,Negative*
%FSLAX46Y46*%
G04 Gerber Fmt 4.6, Leading zero omitted, Abs format (unit mm)*
G04 Created by KiCad (PCBNEW (7.0.0)) date 2023-04-05 18:56:48*
%MOMM*%
%LPD*%
G01*
G04 APERTURE LIST*
G04 Aperture macros list*
%AMRoundRect*
0 Rectangle with rounded corners*
0 $1 Rounding radius*
0 $2 $3 $4 $5 $6 $7 $8 $9 X,Y pos of 4 corners*
0 Add a 4 corners polygon primitive as box body*
4,1,4,$2,$3,$4,$5,$6,$7,$8,$9,$2,$3,0*
0 Add four circle primitives for the rounded corners*
1,1,$1+$1,$2,$3*
1,1,$1+$1,$4,$5*
1,1,$1+$1,$6,$7*
1,1,$1+$1,$8,$9*
0 Add four rect primitives between the rounded corners*
20,1,$1+$1,$2,$3,$4,$5,0*
20,1,$1+$1,$4,$5,$6,$7,0*
20,1,$1+$1,$6,$7,$8,$9,0*
20,1,$1+$1,$8,$9,$2,$3,0*%
%AMHorizOval*
0 Thick line with rounded ends*
0 $1 width*
0 $2 $3 position (X,Y) of the first rounded end (center of the circle)*
0 $4 $5 position (X,Y) of the second rounded end (center of the circle)*
0 Add line between two ends*
20,1,$1,$2,$3,$4,$5,0*
0 Add two circle primitives to create the rounded ends*
1,1,$1,$2,$3*
1,1,$1,$4,$5*%
G04 Aperture macros list end*
%ADD10O,1.700000X1.950000*%
%ADD11RoundRect,0.250000X0.600000X0.725000X-0.600000X0.725000X-0.600000X-0.725000X0.600000X-0.725000X0*%
%ADD12O,1.800000X2.200000*%
%ADD13C,5.250000*%
%ADD14HorizOval,2.200000X0.353553X-0.353553X-0.353553X0.353553X0*%
%ADD15R,0.228600X6.832600*%
%ADD16HorizOval,1.400000X-0.362523X-0.169047X0.362523X0.169047X0*%
%ADD17C,1.900000*%
%ADD18R,0.284000X1.758000*%
%ADD19R,0.254000X1.312000*%
%ADD20O,1.400000X2.500000*%
%ADD21C,2.200000*%
%ADD22R,0.800000X0.800000*%
%ADD23HorizOval,1.400000X0.362523X0.169047X-0.362523X-0.169047X0*%
%ADD24HorizOval,2.200000X-0.353553X0.353553X0.353553X-0.353553X0*%
%ADD25C,3.048000*%
%ADD26C,3.987800*%
%ADD27O,2.200000X1.800000*%
%ADD28HorizOval,1.400000X-0.169047X0.362523X0.169047X-0.362523X0*%
%ADD29R,6.832600X0.228600*%
%ADD30HorizOval,2.200000X-0.353553X-0.353553X0.353553X0.353553X0*%
%ADD31R,1.312000X0.254000*%
%ADD32R,1.758000X0.284000*%
%ADD33O,2.500000X1.400000*%
%ADD34RoundRect,0.218750X-0.218750X-0.256250X0.218750X-0.256250X0.218750X0.256250X-0.218750X0.256250X0*%
%ADD35R,0.400000X1.000000*%
%ADD36R,2.000000X1.300000*%
%ADD37RoundRect,0.200000X0.200000X0.275000X-0.200000X0.275000X-0.200000X-0.275000X0.200000X-0.275000X0*%
%ADD38R,0.900000X1.200000*%
%ADD39R,1.700000X1.700000*%
%ADD40O,1.700000X1.700000*%
%ADD41RoundRect,0.200000X-0.200000X-0.275000X0.200000X-0.275000X0.200000X0.275000X-0.200000X0.275000X0*%
%ADD42RoundRect,0.200000X0.275000X-0.200000X0.275000X0.200000X-0.275000X0.200000X-0.275000X-0.200000X0*%
%ADD43RoundRect,0.200000X-0.275000X0.200000X-0.275000X-0.200000X0.275000X-0.200000X0.275000X0.200000X0*%
%ADD44R,1.200000X0.900000*%
%ADD45RoundRect,0.250000X0.600000X-0.600000X0.600000X0.600000X-0.600000X0.600000X-0.600000X-0.600000X0*%
%ADD46C,1.700000*%
G04 APERTURE END LIST*
D10*
X337879999Y-52062499D03*
X340379999Y-52062499D03*
X342879999Y-52062499D03*
D11*
X345380000Y-52062500D03*
D12*
X320459999Y-58729999D03*
D13*
X320460000Y-64060000D03*
D12*
X320459999Y-69389999D03*
D14*
X323329999Y-60559999D03*
D15*
X324142999Y-65279199D03*
D16*
X324709999Y-68759999D03*
D17*
X325540000Y-66600000D03*
D18*
X325651999Y-62799999D03*
D19*
X325666999Y-65329999D03*
D20*
X326209999Y-61459999D03*
D21*
X326460000Y-64060000D03*
D22*
X316879999Y-55423999D03*
X315379999Y-55423999D03*
D12*
X301409999Y-58729999D03*
D13*
X301410000Y-64060000D03*
D12*
X301409999Y-69389999D03*
D23*
X297159999Y-59359999D03*
D15*
X297726999Y-62840799D03*
D24*
X298539999Y-67559999D03*
D21*
X295410000Y-64060000D03*
D20*
X295659999Y-66659999D03*
D19*
X296202999Y-62789999D03*
D18*
X296217999Y-65319999D03*
D17*
X296330000Y-61520000D03*
D22*
X306376405Y-55437015D03*
X304876405Y-55437015D03*
D25*
X282266250Y-114225000D03*
D26*
X282266250Y-129465000D03*
D27*
X288936249Y-121209999D03*
D13*
X294266250Y-121210000D03*
D27*
X299596249Y-121209999D03*
D25*
X306266250Y-114225000D03*
D26*
X306266250Y-129465000D03*
D28*
X289566249Y-125459999D03*
D29*
X293047049Y-124892999D03*
D30*
X297766249Y-124079999D03*
D17*
X291726250Y-126290000D03*
D31*
X292996249Y-126416999D03*
D21*
X294266250Y-127210000D03*
D32*
X295526249Y-126401999D03*
D33*
X296866249Y-126959999D03*
D22*
X295016249Y-116129999D03*
X293516249Y-116129999D03*
D27*
X254408124Y-140259999D03*
D13*
X259738125Y-140260000D03*
D27*
X265068124Y-140259999D03*
D28*
X255038124Y-144509999D03*
D29*
X258518924Y-143942999D03*
D30*
X263238124Y-143129999D03*
D17*
X257198125Y-145340000D03*
D31*
X258468124Y-145466999D03*
D21*
X259738125Y-146260000D03*
D32*
X260998124Y-145451999D03*
D33*
X262338124Y-146009999D03*
D22*
X260488124Y-135179999D03*
X258988124Y-135179999D03*
D27*
X109151874Y-140259999D03*
D13*
X114481875Y-140260000D03*
D27*
X119811874Y-140259999D03*
D28*
X109781874Y-144509999D03*
D29*
X113262674Y-143942999D03*
D30*
X117981874Y-143129999D03*
D17*
X111941875Y-145340000D03*
D31*
X113211874Y-145466999D03*
D21*
X114481875Y-146260000D03*
D32*
X115741874Y-145451999D03*
D33*
X117081874Y-146009999D03*
D22*
X115231874Y-135179999D03*
X113731874Y-135179999D03*
D25*
X137110000Y-133275000D03*
D26*
X137110000Y-148515000D03*
D27*
X181779999Y-140259999D03*
D13*
X187110000Y-140260000D03*
D27*
X192439999Y-140259999D03*
D25*
X237110000Y-133275000D03*
D26*
X237110000Y-148515000D03*
D28*
X182409999Y-144509999D03*
D29*
X185890799Y-143942999D03*
D30*
X190609999Y-143129999D03*
D17*
X184570000Y-145340000D03*
D31*
X185839999Y-145466999D03*
D21*
X187110000Y-146260000D03*
D32*
X188369999Y-145451999D03*
D33*
X189709999Y-146009999D03*
D22*
X187859999Y-135179999D03*
X186359999Y-135179999D03*
X64916249Y-116129999D03*
X66416249Y-116129999D03*
D33*
X68266249Y-126959999D03*
D32*
X66926249Y-126401999D03*
D21*
X65666250Y-127210000D03*
D31*
X64396249Y-126416999D03*
D17*
X63126250Y-126290000D03*
D30*
X69166249Y-124079999D03*
D29*
X64447049Y-124892999D03*
D28*
X60966249Y-125459999D03*
D26*
X77666250Y-129465000D03*
D25*
X77666250Y-114225000D03*
D27*
X70996249Y-121209999D03*
D13*
X65666250Y-121210000D03*
D27*
X60336249Y-121209999D03*
D26*
X53666250Y-129465000D03*
D25*
X53666250Y-114225000D03*
X48903750Y-95175000D03*
D26*
X48903750Y-110415000D03*
D27*
X55573749Y-102159999D03*
D13*
X60903750Y-102160000D03*
D27*
X66233749Y-102159999D03*
D25*
X72903750Y-95175000D03*
D26*
X72903750Y-110415000D03*
D28*
X56203749Y-106409999D03*
D29*
X59684549Y-105842999D03*
D30*
X64403749Y-105029999D03*
D17*
X58363750Y-107240000D03*
D31*
X59633749Y-107366999D03*
D21*
X60903750Y-108160000D03*
D32*
X62163749Y-107351999D03*
D33*
X63503749Y-107909999D03*
D22*
X61653749Y-97079999D03*
X60153749Y-97079999D03*
D27*
X53192499Y-83109999D03*
D13*
X58522500Y-83110000D03*
D27*
X63852499Y-83109999D03*
D28*
X53822499Y-87359999D03*
D29*
X57303299Y-86792999D03*
D30*
X62022499Y-85979999D03*
D17*
X55982500Y-88190000D03*
D31*
X57252499Y-88316999D03*
D21*
X58522500Y-89110000D03*
D32*
X59782499Y-88301999D03*
D33*
X61122499Y-88859999D03*
D22*
X59272499Y-78029999D03*
X57772499Y-78029999D03*
D27*
X312748749Y-102159999D03*
D13*
X318078750Y-102160000D03*
D27*
X323408749Y-102159999D03*
D28*
X313378749Y-106409999D03*
D29*
X316859549Y-105842999D03*
D30*
X321578749Y-105029999D03*
D17*
X315538750Y-107240000D03*
D31*
X316808749Y-107366999D03*
D21*
X318078750Y-108160000D03*
D32*
X319338749Y-107351999D03*
D33*
X320678749Y-107909999D03*
D22*
X327603749Y-98087749D03*
X327603749Y-96587749D03*
D27*
X291317499Y-102159999D03*
D13*
X296647500Y-102160000D03*
D27*
X301977499Y-102159999D03*
D28*
X291947499Y-106409999D03*
D29*
X295428299Y-105842999D03*
D30*
X300147499Y-105029999D03*
D17*
X294107500Y-107240000D03*
D31*
X295377499Y-107366999D03*
D21*
X296647500Y-108160000D03*
D32*
X297907499Y-107351999D03*
D33*
X299247499Y-107909999D03*
D22*
X297397499Y-97079999D03*
X295897499Y-97079999D03*
D27*
X181779999Y-64059999D03*
D13*
X187110000Y-64060000D03*
D27*
X192439999Y-64059999D03*
D28*
X182409999Y-68309999D03*
D29*
X185890799Y-67742999D03*
D30*
X190609999Y-66929999D03*
D17*
X184570000Y-69140000D03*
D31*
X185839999Y-69266999D03*
D21*
X187110000Y-70060000D03*
D32*
X188369999Y-69251999D03*
D33*
X189709999Y-69809999D03*
D22*
X187859999Y-58979999D03*
X186359999Y-58979999D03*
D27*
X86529999Y-64059999D03*
D13*
X91860000Y-64060000D03*
D27*
X97189999Y-64059999D03*
D28*
X87159999Y-68309999D03*
D29*
X90640799Y-67742999D03*
D30*
X95359999Y-66929999D03*
D17*
X89320000Y-69140000D03*
D31*
X90589999Y-69266999D03*
D21*
X91860000Y-70060000D03*
D32*
X93119999Y-69251999D03*
D33*
X94459999Y-69809999D03*
D22*
X92609999Y-58979999D03*
X91109999Y-58979999D03*
D27*
X257979999Y-64059999D03*
D13*
X263310000Y-64060000D03*
D27*
X268639999Y-64059999D03*
D28*
X258609999Y-68309999D03*
D29*
X262090799Y-67742999D03*
D30*
X266809999Y-66929999D03*
D17*
X260770000Y-69140000D03*
D31*
X262039999Y-69266999D03*
D21*
X263310000Y-70060000D03*
D32*
X264569999Y-69251999D03*
D33*
X265909999Y-69809999D03*
D22*
X264059999Y-58979999D03*
X262559999Y-58979999D03*
D27*
X67479999Y-64059999D03*
D13*
X72810000Y-64060000D03*
D27*
X78139999Y-64059999D03*
D28*
X68109999Y-68309999D03*
D29*
X71590799Y-67742999D03*
D30*
X76309999Y-66929999D03*
D17*
X70270000Y-69140000D03*
D31*
X71539999Y-69266999D03*
D21*
X72810000Y-70060000D03*
D32*
X74069999Y-69251999D03*
D33*
X75409999Y-69809999D03*
D22*
X73559999Y-58979999D03*
X72059999Y-58979999D03*
D27*
X124629999Y-64059999D03*
D13*
X129960000Y-64060000D03*
D27*
X135289999Y-64059999D03*
D28*
X125259999Y-68309999D03*
D29*
X128740799Y-67742999D03*
D30*
X133459999Y-66929999D03*
D17*
X127420000Y-69140000D03*
D31*
X128689999Y-69266999D03*
D21*
X129960000Y-70060000D03*
D32*
X131219999Y-69251999D03*
D33*
X132559999Y-69809999D03*
D22*
X130709999Y-58979999D03*
X129209999Y-58979999D03*
D27*
X277029999Y-64059999D03*
D13*
X282360000Y-64060000D03*
D27*
X287689999Y-64059999D03*
D28*
X277659999Y-68309999D03*
D29*
X281140799Y-67742999D03*
D30*
X285859999Y-66929999D03*
D17*
X279820000Y-69140000D03*
D31*
X281089999Y-69266999D03*
D21*
X282360000Y-70060000D03*
D32*
X283619999Y-69251999D03*
D33*
X284959999Y-69809999D03*
D22*
X283109999Y-58979999D03*
X281609999Y-58979999D03*
D27*
X105579999Y-64059999D03*
D13*
X110910000Y-64060000D03*
D27*
X116239999Y-64059999D03*
D28*
X106209999Y-68309999D03*
D29*
X109690799Y-67742999D03*
D30*
X114409999Y-66929999D03*
D17*
X108370000Y-69140000D03*
D31*
X109639999Y-69266999D03*
D21*
X110910000Y-70060000D03*
D32*
X112169999Y-69251999D03*
D33*
X113509999Y-69809999D03*
D22*
X111659999Y-58979999D03*
X110159999Y-58979999D03*
D27*
X143679999Y-64059999D03*
D13*
X149010000Y-64060000D03*
D27*
X154339999Y-64059999D03*
D28*
X144309999Y-68309999D03*
D29*
X147790799Y-67742999D03*
D30*
X152509999Y-66929999D03*
D17*
X146470000Y-69140000D03*
D31*
X147739999Y-69266999D03*
D21*
X149010000Y-70060000D03*
D32*
X150269999Y-69251999D03*
D33*
X151609999Y-69809999D03*
D22*
X149759999Y-58979999D03*
X148259999Y-58979999D03*
D27*
X238929999Y-64059999D03*
D13*
X244260000Y-64060000D03*
D27*
X249589999Y-64059999D03*
D28*
X239559999Y-68309999D03*
D29*
X243040799Y-67742999D03*
D30*
X247759999Y-66929999D03*
D17*
X241720000Y-69140000D03*
D31*
X242989999Y-69266999D03*
D21*
X244260000Y-70060000D03*
D32*
X245519999Y-69251999D03*
D33*
X246859999Y-69809999D03*
D22*
X245009999Y-58979999D03*
X243509999Y-58979999D03*
D27*
X219879999Y-64059999D03*
D13*
X225210000Y-64060000D03*
D27*
X230539999Y-64059999D03*
D28*
X220509999Y-68309999D03*
D29*
X223990799Y-67742999D03*
D30*
X228709999Y-66929999D03*
D17*
X222670000Y-69140000D03*
D31*
X223939999Y-69266999D03*
D21*
X225210000Y-70060000D03*
D32*
X226469999Y-69251999D03*
D33*
X227809999Y-69809999D03*
D22*
X225959999Y-58979999D03*
X224459999Y-58979999D03*
D27*
X162729999Y-64059999D03*
D13*
X168060000Y-64060000D03*
D27*
X173389999Y-64059999D03*
D28*
X163359999Y-68309999D03*
D29*
X166840799Y-67742999D03*
D30*
X171559999Y-66929999D03*
D17*
X165520000Y-69140000D03*
D31*
X166789999Y-69266999D03*
D21*
X168060000Y-70060000D03*
D32*
X169319999Y-69251999D03*
D33*
X170659999Y-69809999D03*
D22*
X168809999Y-58979999D03*
X167309999Y-58979999D03*
D27*
X200829999Y-64059999D03*
D13*
X206160000Y-64060000D03*
D27*
X211489999Y-64059999D03*
D28*
X201459999Y-68309999D03*
D29*
X204940799Y-67742999D03*
D30*
X209659999Y-66929999D03*
D17*
X203620000Y-69140000D03*
D31*
X204889999Y-69266999D03*
D21*
X206160000Y-70060000D03*
D32*
X207419999Y-69251999D03*
D33*
X208759999Y-69809999D03*
D22*
X206909999Y-58979999D03*
X205409999Y-58979999D03*
D27*
X229404999Y-83109999D03*
D13*
X234735000Y-83110000D03*
D27*
X240064999Y-83109999D03*
D28*
X230034999Y-87359999D03*
D29*
X233515799Y-86792999D03*
D30*
X238234999Y-85979999D03*
D17*
X232195000Y-88190000D03*
D31*
X233464999Y-88316999D03*
D21*
X234735000Y-89110000D03*
D32*
X235994999Y-88301999D03*
D33*
X237334999Y-88859999D03*
D22*
X235484999Y-78029999D03*
X233984999Y-78029999D03*
D27*
X115104999Y-83109999D03*
D13*
X120435000Y-83110000D03*
D27*
X125764999Y-83109999D03*
D28*
X115734999Y-87359999D03*
D29*
X119215799Y-86792999D03*
D30*
X123934999Y-85979999D03*
D17*
X117895000Y-88190000D03*
D31*
X119164999Y-88316999D03*
D21*
X120435000Y-89110000D03*
D32*
X121694999Y-88301999D03*
D33*
X123034999Y-88859999D03*
D22*
X121184999Y-78029999D03*
X119684999Y-78029999D03*
D27*
X134154999Y-83109999D03*
D13*
X139485000Y-83110000D03*
D27*
X144814999Y-83109999D03*
D28*
X134784999Y-87359999D03*
D29*
X138265799Y-86792999D03*
D30*
X142984999Y-85979999D03*
D17*
X136945000Y-88190000D03*
D31*
X138214999Y-88316999D03*
D21*
X139485000Y-89110000D03*
D32*
X140744999Y-88301999D03*
D33*
X142084999Y-88859999D03*
D22*
X140234999Y-78029999D03*
X138734999Y-78029999D03*
D27*
X267504999Y-83109999D03*
D13*
X272835000Y-83110000D03*
D27*
X278164999Y-83109999D03*
D28*
X268134999Y-87359999D03*
D29*
X271615799Y-86792999D03*
D30*
X276334999Y-85979999D03*
D17*
X270295000Y-88190000D03*
D31*
X271564999Y-88316999D03*
D21*
X272835000Y-89110000D03*
D32*
X274094999Y-88301999D03*
D33*
X275434999Y-88859999D03*
D22*
X273584999Y-78029999D03*
X272084999Y-78029999D03*
D27*
X286554999Y-83109999D03*
D13*
X291885000Y-83110000D03*
D27*
X297214999Y-83109999D03*
D28*
X287184999Y-87359999D03*
D29*
X290665799Y-86792999D03*
D30*
X295384999Y-85979999D03*
D17*
X289345000Y-88190000D03*
D31*
X290614999Y-88316999D03*
D21*
X291885000Y-89110000D03*
D32*
X293144999Y-88301999D03*
D33*
X294484999Y-88859999D03*
D22*
X292634999Y-78029999D03*
X291134999Y-78029999D03*
D27*
X210354999Y-83109999D03*
D13*
X215685000Y-83110000D03*
D27*
X221014999Y-83109999D03*
D28*
X210984999Y-87359999D03*
D29*
X214465799Y-86792999D03*
D30*
X219184999Y-85979999D03*
D17*
X213145000Y-88190000D03*
D31*
X214414999Y-88316999D03*
D21*
X215685000Y-89110000D03*
D32*
X216944999Y-88301999D03*
D33*
X218284999Y-88859999D03*
D22*
X216434999Y-78029999D03*
X214934999Y-78029999D03*
D27*
X77004999Y-83109999D03*
D13*
X82335000Y-83110000D03*
D27*
X87664999Y-83109999D03*
D28*
X77634999Y-87359999D03*
D29*
X81115799Y-86792999D03*
D30*
X85834999Y-85979999D03*
D17*
X79795000Y-88190000D03*
D31*
X81064999Y-88316999D03*
D21*
X82335000Y-89110000D03*
D32*
X83594999Y-88301999D03*
D33*
X84934999Y-88859999D03*
D22*
X83084999Y-78029999D03*
X81584999Y-78029999D03*
D27*
X248454999Y-83109999D03*
D13*
X253785000Y-83110000D03*
D27*
X259114999Y-83109999D03*
D28*
X249084999Y-87359999D03*
D29*
X252565799Y-86792999D03*
D30*
X257284999Y-85979999D03*
D17*
X251245000Y-88190000D03*
D31*
X252514999Y-88316999D03*
D21*
X253785000Y-89110000D03*
D32*
X255044999Y-88301999D03*
D33*
X256384999Y-88859999D03*
D22*
X254534999Y-78029999D03*
X253034999Y-78029999D03*
D27*
X191304999Y-83109999D03*
D13*
X196635000Y-83110000D03*
D27*
X201964999Y-83109999D03*
D28*
X191934999Y-87359999D03*
D29*
X195415799Y-86792999D03*
D30*
X200134999Y-85979999D03*
D17*
X194095000Y-88190000D03*
D31*
X195364999Y-88316999D03*
D21*
X196635000Y-89110000D03*
D32*
X197894999Y-88301999D03*
D33*
X199234999Y-88859999D03*
D22*
X197384999Y-78029999D03*
X195884999Y-78029999D03*
D27*
X153204999Y-83109999D03*
D13*
X158535000Y-83110000D03*
D27*
X163864999Y-83109999D03*
D28*
X153834999Y-87359999D03*
D29*
X157315799Y-86792999D03*
D30*
X162034999Y-85979999D03*
D17*
X155995000Y-88190000D03*
D31*
X157264999Y-88316999D03*
D21*
X158535000Y-89110000D03*
D32*
X159794999Y-88301999D03*
D33*
X161134999Y-88859999D03*
D22*
X159284999Y-78029999D03*
X157784999Y-78029999D03*
D27*
X172254999Y-83109999D03*
D13*
X177585000Y-83110000D03*
D27*
X182914999Y-83109999D03*
D28*
X172884999Y-87359999D03*
D29*
X176365799Y-86792999D03*
D30*
X181084999Y-85979999D03*
D17*
X175045000Y-88190000D03*
D31*
X176314999Y-88316999D03*
D21*
X177585000Y-89110000D03*
D32*
X178844999Y-88301999D03*
D33*
X180184999Y-88859999D03*
D22*
X178334999Y-78029999D03*
X176834999Y-78029999D03*
D27*
X96054999Y-83109999D03*
D13*
X101385000Y-83110000D03*
D27*
X106714999Y-83109999D03*
D28*
X96684999Y-87359999D03*
D29*
X100165799Y-86792999D03*
D30*
X104884999Y-85979999D03*
D17*
X98845000Y-88190000D03*
D31*
X100114999Y-88316999D03*
D21*
X101385000Y-89110000D03*
D32*
X102644999Y-88301999D03*
D33*
X103984999Y-88859999D03*
D22*
X102134999Y-78029999D03*
X100634999Y-78029999D03*
D27*
X91292499Y-121209999D03*
D13*
X96622500Y-121210000D03*
D27*
X101952499Y-121209999D03*
D28*
X91922499Y-125459999D03*
D29*
X95403299Y-124892999D03*
D30*
X100122499Y-124079999D03*
D17*
X94082500Y-126290000D03*
D31*
X95352499Y-126416999D03*
D21*
X96622500Y-127210000D03*
D32*
X97882499Y-126401999D03*
D33*
X99222499Y-126959999D03*
D22*
X97372499Y-116129999D03*
X95872499Y-116129999D03*
D27*
X110342499Y-121209999D03*
D13*
X115672500Y-121210000D03*
D27*
X121002499Y-121209999D03*
D28*
X110972499Y-125459999D03*
D29*
X114453299Y-124892999D03*
D30*
X119172499Y-124079999D03*
D17*
X113132500Y-126290000D03*
D31*
X114402499Y-126416999D03*
D21*
X115672500Y-127210000D03*
D32*
X116932499Y-126401999D03*
D33*
X118272499Y-126959999D03*
D22*
X116422499Y-116129999D03*
X114922499Y-116129999D03*
D27*
X148442499Y-121209999D03*
D13*
X153772500Y-121210000D03*
D27*
X159102499Y-121209999D03*
D28*
X149072499Y-125459999D03*
D29*
X152553299Y-124892999D03*
D30*
X157272499Y-124079999D03*
D17*
X151232500Y-126290000D03*
D31*
X152502499Y-126416999D03*
D21*
X153772500Y-127210000D03*
D32*
X155032499Y-126401999D03*
D33*
X156372499Y-126959999D03*
D22*
X154522499Y-116129999D03*
X153022499Y-116129999D03*
D27*
X262742499Y-121209999D03*
D13*
X268072500Y-121210000D03*
D27*
X273402499Y-121209999D03*
D28*
X263372499Y-125459999D03*
D29*
X266853299Y-124892999D03*
D30*
X271572499Y-124079999D03*
D17*
X265532500Y-126290000D03*
D31*
X266802499Y-126416999D03*
D21*
X268072500Y-127210000D03*
D32*
X269332499Y-126401999D03*
D33*
X270672499Y-126959999D03*
D22*
X268822499Y-116129999D03*
X267322499Y-116129999D03*
D27*
X253217499Y-102159999D03*
D13*
X258547500Y-102160000D03*
D27*
X263877499Y-102159999D03*
D28*
X253847499Y-106409999D03*
D29*
X257328299Y-105842999D03*
D30*
X262047499Y-105029999D03*
D17*
X256007500Y-107240000D03*
D31*
X257277499Y-107366999D03*
D21*
X258547500Y-108160000D03*
D32*
X259807499Y-107351999D03*
D33*
X261147499Y-107909999D03*
D22*
X259297499Y-97079999D03*
X257797499Y-97079999D03*
D27*
X100817499Y-102159999D03*
D13*
X106147500Y-102160000D03*
D27*
X111477499Y-102159999D03*
D28*
X101447499Y-106409999D03*
D29*
X104928299Y-105842999D03*
D30*
X109647499Y-105029999D03*
D17*
X103607500Y-107240000D03*
D31*
X104877499Y-107366999D03*
D21*
X106147500Y-108160000D03*
D32*
X107407499Y-107351999D03*
D33*
X108747499Y-107909999D03*
D22*
X106897499Y-97079999D03*
X105397499Y-97079999D03*
D27*
X272267499Y-102159999D03*
D13*
X277597500Y-102160000D03*
D27*
X282927499Y-102159999D03*
D28*
X272897499Y-106409999D03*
D29*
X276378299Y-105842999D03*
D30*
X281097499Y-105029999D03*
D17*
X275057500Y-107240000D03*
D31*
X276327499Y-107366999D03*
D21*
X277597500Y-108160000D03*
D32*
X278857499Y-107351999D03*
D33*
X280197499Y-107909999D03*
D22*
X278347499Y-97079999D03*
X276847499Y-97079999D03*
D27*
X243692499Y-121209999D03*
D13*
X249022500Y-121210000D03*
D27*
X254352499Y-121209999D03*
D28*
X244322499Y-125459999D03*
D29*
X247803299Y-124892999D03*
D30*
X252522499Y-124079999D03*
D17*
X246482500Y-126290000D03*
D31*
X247752499Y-126416999D03*
D21*
X249022500Y-127210000D03*
D32*
X250282499Y-126401999D03*
D33*
X251622499Y-126959999D03*
D22*
X249772499Y-116129999D03*
X248272499Y-116129999D03*
D27*
X186542499Y-121209999D03*
D13*
X191872500Y-121210000D03*
D27*
X197202499Y-121209999D03*
D28*
X187172499Y-125459999D03*
D29*
X190653299Y-124892999D03*
D30*
X195372499Y-124079999D03*
D17*
X189332500Y-126290000D03*
D31*
X190602499Y-126416999D03*
D21*
X191872500Y-127210000D03*
D32*
X193132499Y-126401999D03*
D33*
X194472499Y-126959999D03*
D22*
X192622499Y-116129999D03*
X191122499Y-116129999D03*
D27*
X205592499Y-121209999D03*
D13*
X210922500Y-121210000D03*
D27*
X216252499Y-121209999D03*
D28*
X206222499Y-125459999D03*
D29*
X209703299Y-124892999D03*
D30*
X214422499Y-124079999D03*
D17*
X208382500Y-126290000D03*
D31*
X209652499Y-126416999D03*
D21*
X210922500Y-127210000D03*
D32*
X212182499Y-126401999D03*
D33*
X213522499Y-126959999D03*
D22*
X211672499Y-116129999D03*
X210172499Y-116129999D03*
D27*
X234167499Y-102159999D03*
D13*
X239497500Y-102160000D03*
D27*
X244827499Y-102159999D03*
D28*
X234797499Y-106409999D03*
D29*
X238278299Y-105842999D03*
D30*
X242997499Y-105029999D03*
D17*
X236957500Y-107240000D03*
D31*
X238227499Y-107366999D03*
D21*
X239497500Y-108160000D03*
D32*
X240757499Y-107351999D03*
D33*
X242097499Y-107909999D03*
D22*
X240247499Y-97079999D03*
X238747499Y-97079999D03*
D27*
X215117499Y-102159999D03*
D13*
X220447500Y-102160000D03*
D27*
X225777499Y-102159999D03*
D28*
X215747499Y-106409999D03*
D29*
X219228299Y-105842999D03*
D30*
X223947499Y-105029999D03*
D17*
X217907500Y-107240000D03*
D31*
X219177499Y-107366999D03*
D21*
X220447500Y-108160000D03*
D32*
X221707499Y-107351999D03*
D33*
X223047499Y-107909999D03*
D22*
X221197499Y-97079999D03*
X219697499Y-97079999D03*
D27*
X196067499Y-102159999D03*
D13*
X201397500Y-102160000D03*
D27*
X206727499Y-102159999D03*
D28*
X196697499Y-106409999D03*
D29*
X200178299Y-105842999D03*
D30*
X204897499Y-105029999D03*
D17*
X198857500Y-107240000D03*
D31*
X200127499Y-107366999D03*
D21*
X201397500Y-108160000D03*
D32*
X202657499Y-107351999D03*
D33*
X203997499Y-107909999D03*
D22*
X202147499Y-97079999D03*
X200647499Y-97079999D03*
D27*
X315129999Y-121209999D03*
D13*
X320460000Y-121210000D03*
D27*
X325789999Y-121209999D03*
D28*
X315759999Y-125459999D03*
D29*
X319240799Y-124892999D03*
D30*
X323959999Y-124079999D03*
D17*
X317920000Y-126290000D03*
D31*
X319189999Y-126416999D03*
D21*
X320460000Y-127210000D03*
D32*
X321719999Y-126401999D03*
D33*
X323059999Y-126959999D03*
D22*
X321209999Y-116129999D03*
X319709999Y-116129999D03*
D27*
X177017499Y-102159999D03*
D13*
X182347500Y-102160000D03*
D27*
X187677499Y-102159999D03*
D28*
X177647499Y-106409999D03*
D29*
X181128299Y-105842999D03*
D30*
X185847499Y-105029999D03*
D17*
X179807500Y-107240000D03*
D31*
X181077499Y-107366999D03*
D21*
X182347500Y-108160000D03*
D32*
X183607499Y-107351999D03*
D33*
X184947499Y-107909999D03*
D22*
X183097499Y-97079999D03*
X181597499Y-97079999D03*
D27*
X157967499Y-102159999D03*
D13*
X163297500Y-102160000D03*
D27*
X168627499Y-102159999D03*
D28*
X158597499Y-106409999D03*
D29*
X162078299Y-105842999D03*
D30*
X166797499Y-105029999D03*
D17*
X160757500Y-107240000D03*
D31*
X162027499Y-107366999D03*
D21*
X163297500Y-108160000D03*
D32*
X164557499Y-107351999D03*
D33*
X165897499Y-107909999D03*
D22*
X164047499Y-97079999D03*
X162547499Y-97079999D03*
D27*
X138917499Y-102159999D03*
D13*
X144247500Y-102160000D03*
D27*
X149577499Y-102159999D03*
D28*
X139547499Y-106409999D03*
D29*
X143028299Y-105842999D03*
D30*
X147747499Y-105029999D03*
D17*
X141707500Y-107240000D03*
D31*
X142977499Y-107366999D03*
D21*
X144247500Y-108160000D03*
D32*
X145507499Y-107351999D03*
D33*
X146847499Y-107909999D03*
D22*
X144997499Y-97079999D03*
X143497499Y-97079999D03*
D27*
X119867499Y-102159999D03*
D13*
X125197500Y-102160000D03*
D27*
X130527499Y-102159999D03*
D28*
X120497499Y-106409999D03*
D29*
X123978299Y-105842999D03*
D30*
X128697499Y-105029999D03*
D17*
X122657500Y-107240000D03*
D31*
X123927499Y-107366999D03*
D21*
X125197500Y-108160000D03*
D32*
X126457499Y-107351999D03*
D33*
X127797499Y-107909999D03*
D22*
X125947499Y-97079999D03*
X124447499Y-97079999D03*
D27*
X224642499Y-121209999D03*
D13*
X229972500Y-121210000D03*
D27*
X235302499Y-121209999D03*
D28*
X225272499Y-125459999D03*
D29*
X228753299Y-124892999D03*
D30*
X233472499Y-124079999D03*
D17*
X227432500Y-126290000D03*
D31*
X228702499Y-126416999D03*
D21*
X229972500Y-127210000D03*
D32*
X231232499Y-126401999D03*
D33*
X232572499Y-126959999D03*
D22*
X230722499Y-116129999D03*
X229222499Y-116129999D03*
D27*
X129392499Y-121209999D03*
D13*
X134722500Y-121210000D03*
D27*
X140052499Y-121209999D03*
D28*
X130022499Y-125459999D03*
D29*
X133503299Y-124892999D03*
D30*
X138222499Y-124079999D03*
D17*
X132182500Y-126290000D03*
D31*
X133452499Y-126416999D03*
D21*
X134722500Y-127210000D03*
D32*
X135982499Y-126401999D03*
D33*
X137322499Y-126959999D03*
D22*
X135472499Y-116129999D03*
X133972499Y-116129999D03*
D27*
X167492499Y-121209999D03*
D13*
X172822500Y-121210000D03*
D27*
X178152499Y-121209999D03*
D28*
X168122499Y-125459999D03*
D29*
X171603299Y-124892999D03*
D30*
X176322499Y-124079999D03*
D17*
X170282500Y-126290000D03*
D31*
X171552499Y-126416999D03*
D21*
X172822500Y-127210000D03*
D32*
X174082499Y-126401999D03*
D33*
X175422499Y-126959999D03*
D22*
X173572499Y-116129999D03*
X172072499Y-116129999D03*
D27*
X81767499Y-102159999D03*
D13*
X87097500Y-102160000D03*
D27*
X92427499Y-102159999D03*
D28*
X82397499Y-106409999D03*
D29*
X85878299Y-105842999D03*
D30*
X90597499Y-105029999D03*
D17*
X84557500Y-107240000D03*
D31*
X85827499Y-107366999D03*
D21*
X87097500Y-108160000D03*
D32*
X88357499Y-107351999D03*
D33*
X89697499Y-107909999D03*
D22*
X87847499Y-97079999D03*
X86347499Y-97079999D03*
D27*
X48429999Y-64059999D03*
D13*
X53760000Y-64060000D03*
D27*
X59089999Y-64059999D03*
D28*
X49059999Y-68309999D03*
D29*
X52540799Y-67742999D03*
D30*
X57259999Y-66929999D03*
D17*
X51220000Y-69140000D03*
D31*
X52489999Y-69266999D03*
D21*
X53760000Y-70060000D03*
D32*
X55019999Y-69251999D03*
D33*
X56359999Y-69809999D03*
D22*
X54509999Y-58979999D03*
X53009999Y-58979999D03*
D34*
X29612500Y-147400000D03*
X31187500Y-147400000D03*
D27*
X205592499Y-32609999D03*
D13*
X210922500Y-32610000D03*
D27*
X216252499Y-32609999D03*
D28*
X206222499Y-36859999D03*
D29*
X209703299Y-36292999D03*
D30*
X214422499Y-35479999D03*
D17*
X208382500Y-37690000D03*
D31*
X209652499Y-37816999D03*
D21*
X210922500Y-38610000D03*
D32*
X212182499Y-37801999D03*
D33*
X213522499Y-38359999D03*
D22*
X211672499Y-27529999D03*
X210172499Y-27529999D03*
D27*
X291329999Y-32609999D03*
D13*
X296660000Y-32610000D03*
D27*
X301989999Y-32609999D03*
D28*
X291959999Y-36859999D03*
D29*
X295440799Y-36292999D03*
D30*
X300159999Y-35479999D03*
D17*
X294120000Y-37690000D03*
D31*
X295389999Y-37816999D03*
D21*
X296660000Y-38610000D03*
D32*
X297919999Y-37801999D03*
D33*
X299259999Y-38359999D03*
D22*
X297409999Y-27529999D03*
X295909999Y-27529999D03*
D27*
X262742499Y-32609999D03*
D13*
X268072500Y-32610000D03*
D27*
X273402499Y-32609999D03*
D28*
X263372499Y-36859999D03*
D29*
X266853299Y-36292999D03*
D30*
X271572499Y-35479999D03*
D17*
X265532500Y-37690000D03*
D31*
X266802499Y-37816999D03*
D21*
X268072500Y-38610000D03*
D32*
X269332499Y-37801999D03*
D33*
X270672499Y-38359999D03*
D22*
X268822499Y-27529999D03*
X267322499Y-27529999D03*
D27*
X234167499Y-32609999D03*
D13*
X239497500Y-32610000D03*
D27*
X244827499Y-32609999D03*
D28*
X234797499Y-36859999D03*
D29*
X238278299Y-36292999D03*
D30*
X242997499Y-35479999D03*
D17*
X236957500Y-37690000D03*
D31*
X238227499Y-37816999D03*
D21*
X239497500Y-38610000D03*
D32*
X240757499Y-37801999D03*
D33*
X242097499Y-38359999D03*
D22*
X240247499Y-27529999D03*
X238747499Y-27529999D03*
D12*
X315697499Y-77779999D03*
D13*
X315697500Y-83110000D03*
D14*
X318567499Y-79609999D03*
D15*
X319380499Y-84329199D03*
D16*
X319947499Y-87809999D03*
D17*
X320777500Y-85650000D03*
D18*
X320889499Y-81849999D03*
D19*
X320904499Y-84379999D03*
D20*
X321447499Y-80509999D03*
D21*
X321697500Y-83110000D03*
D22*
X303014499Y-80819749D03*
X303014499Y-82319749D03*
D35*
X301099999Y-140860999D03*
X300099999Y-140860999D03*
X299099999Y-140860999D03*
X298099999Y-140860999D03*
X297099999Y-140860999D03*
X296099999Y-140860999D03*
X295099999Y-140860999D03*
X294099999Y-140860999D03*
X293099999Y-140860999D03*
X292099999Y-140860999D03*
X291099999Y-140860999D03*
X290099999Y-140860999D03*
X289099999Y-140860999D03*
X288099999Y-140860999D03*
X287099999Y-140860999D03*
X286099999Y-140860999D03*
X285099999Y-140860999D03*
X284099999Y-140860999D03*
X283099999Y-140860999D03*
X282099999Y-140860999D03*
X281099999Y-140860999D03*
X280099999Y-140860999D03*
X279099999Y-140860999D03*
X278099999Y-140860999D03*
X277099999Y-140860999D03*
X276099999Y-140860999D03*
D36*
X273299999Y-143560999D03*
X303899999Y-143560999D03*
D37*
X187935000Y-55725625D03*
X186285000Y-55725625D03*
D27*
X91292499Y-32609999D03*
D13*
X96622500Y-32610000D03*
D27*
X101952499Y-32609999D03*
D28*
X91922499Y-36859999D03*
D29*
X95403299Y-36292999D03*
D30*
X100122499Y-35479999D03*
D17*
X94082500Y-37690000D03*
D31*
X95352499Y-37816999D03*
D21*
X96622500Y-38610000D03*
D32*
X97882499Y-37801999D03*
D33*
X99222499Y-38359999D03*
D22*
X97372499Y-27529999D03*
X95872499Y-27529999D03*
D27*
X119867499Y-32609999D03*
D13*
X125197500Y-32610000D03*
D27*
X130527499Y-32609999D03*
D28*
X120497499Y-36859999D03*
D29*
X123978299Y-36292999D03*
D30*
X128697499Y-35479999D03*
D17*
X122657500Y-37690000D03*
D31*
X123927499Y-37816999D03*
D21*
X125197500Y-38610000D03*
D32*
X126457499Y-37801999D03*
D33*
X127797499Y-38359999D03*
D22*
X125947499Y-27529999D03*
X124447499Y-27529999D03*
D27*
X148442499Y-32609999D03*
D13*
X153772500Y-32610000D03*
D27*
X159102499Y-32609999D03*
D28*
X149072499Y-36859999D03*
D29*
X152553299Y-36292999D03*
D30*
X157272499Y-35479999D03*
D17*
X151232500Y-37690000D03*
D31*
X152502499Y-37816999D03*
D21*
X153772500Y-38610000D03*
D32*
X155032499Y-37801999D03*
D33*
X156372499Y-38359999D03*
D22*
X154522499Y-27529999D03*
X153022499Y-27529999D03*
D27*
X177017499Y-32609999D03*
D13*
X182347500Y-32610000D03*
D27*
X187677499Y-32609999D03*
D28*
X177647499Y-36859999D03*
D29*
X181128299Y-36292999D03*
D30*
X185847499Y-35479999D03*
D17*
X179807500Y-37690000D03*
D31*
X181077499Y-37816999D03*
D21*
X182347500Y-38610000D03*
D32*
X183607499Y-37801999D03*
D33*
X184947499Y-38359999D03*
D22*
X183097499Y-27529999D03*
X181597499Y-27529999D03*
D38*
X63849999Y-110899999D03*
X60549999Y-110899999D03*
D39*
X40028999Y-113589999D03*
D40*
X37488999Y-113589999D03*
X34948999Y-113589999D03*
D39*
X34963999Y-90983999D03*
D40*
X37503999Y-90983999D03*
X40043999Y-90983999D03*
D37*
X168885000Y-55678000D03*
X167235000Y-55678000D03*
X197587000Y-74728000D03*
X195937000Y-74728000D03*
X97511000Y-24182000D03*
X95861000Y-24182000D03*
X192697500Y-112875625D03*
X191047500Y-112875625D03*
X154661000Y-24182000D03*
X153011000Y-24182000D03*
X183172500Y-93778000D03*
X181522500Y-93778000D03*
X187935000Y-131925625D03*
X186285000Y-131925625D03*
X211811000Y-24182000D03*
X210161000Y-24182000D03*
X206922000Y-55678000D03*
X205272000Y-55678000D03*
X149835000Y-55678000D03*
X148185000Y-55678000D03*
X216637000Y-74728000D03*
X214987000Y-74728000D03*
X159487000Y-74728000D03*
X157837000Y-74728000D03*
X221463000Y-93778000D03*
X219813000Y-93778000D03*
X164313000Y-93778000D03*
X162663000Y-93778000D03*
X211811000Y-112828000D03*
X210161000Y-112828000D03*
X173647500Y-112875625D03*
X171997500Y-112875625D03*
X226035000Y-55678000D03*
X224385000Y-55678000D03*
X131039000Y-55678000D03*
X129389000Y-55678000D03*
X235687000Y-74728000D03*
X234037000Y-74728000D03*
X140437000Y-74728000D03*
X138787000Y-74728000D03*
X240259000Y-93778000D03*
X238609000Y-93778000D03*
X145263000Y-93778000D03*
X143613000Y-93778000D03*
X230861000Y-112828000D03*
X229211000Y-112828000D03*
X154661000Y-112828000D03*
X153011000Y-112828000D03*
X245339000Y-55678000D03*
X243689000Y-55678000D03*
X111989000Y-55678000D03*
X110339000Y-55678000D03*
X254737000Y-74728000D03*
X253087000Y-74728000D03*
X121387000Y-74728000D03*
X119737000Y-74728000D03*
X259309000Y-93778000D03*
X257659000Y-93778000D03*
X126213000Y-93524000D03*
X124563000Y-93524000D03*
X249911000Y-112828000D03*
X248261000Y-112828000D03*
X135611000Y-112828000D03*
X133961000Y-112828000D03*
X264389000Y-55678000D03*
X262739000Y-55678000D03*
X273660000Y-74728000D03*
X272010000Y-74728000D03*
X102337000Y-74728000D03*
X100687000Y-74728000D03*
X278359000Y-93778000D03*
X276709000Y-93778000D03*
X106909000Y-93778000D03*
X105259000Y-93778000D03*
X268961000Y-112828000D03*
X267311000Y-112828000D03*
X116497500Y-112875625D03*
X114847500Y-112875625D03*
X73635000Y-55678000D03*
X71985000Y-55678000D03*
X292583000Y-74728000D03*
X290933000Y-74728000D03*
X83033000Y-74728000D03*
X81383000Y-74728000D03*
X297409000Y-93778000D03*
X295759000Y-93778000D03*
X87859000Y-93778000D03*
X86209000Y-93778000D03*
X321285000Y-112828000D03*
X319635000Y-112828000D03*
X97447500Y-112875625D03*
X95797500Y-112875625D03*
X306325000Y-53300000D03*
X304675000Y-53300000D03*
D41*
X52935000Y-55678000D03*
X54585000Y-55678000D03*
D42*
X306236000Y-76061000D03*
X306236000Y-74411000D03*
D37*
X59502000Y-74728000D03*
X57852000Y-74728000D03*
X126213000Y-24182000D03*
X124563000Y-24182000D03*
D43*
X330874000Y-97779000D03*
X330874000Y-99429000D03*
D41*
X325731000Y-53500000D03*
X327381000Y-53500000D03*
D37*
X115306875Y-131925625D03*
X113656875Y-131925625D03*
X240322500Y-24182000D03*
X238672500Y-24182000D03*
X268961000Y-24182000D03*
X267311000Y-24182000D03*
X297663000Y-24182000D03*
X296013000Y-24182000D03*
X326111000Y-24182000D03*
X324461000Y-24182000D03*
X178410000Y-74728000D03*
X176760000Y-74728000D03*
X202159000Y-93778000D03*
X200509000Y-93778000D03*
X92685000Y-55678000D03*
X91035000Y-55678000D03*
X283185000Y-55678000D03*
X281535000Y-55678000D03*
X183109000Y-24182000D03*
X181459000Y-24182000D03*
X295123000Y-112828000D03*
X293473000Y-112828000D03*
D27*
X319892499Y-32609999D03*
D13*
X325222500Y-32610000D03*
D27*
X330552499Y-32609999D03*
D28*
X320522499Y-36859999D03*
D29*
X324003299Y-36292999D03*
D30*
X328722499Y-35479999D03*
D17*
X322682500Y-37690000D03*
D31*
X323952499Y-37816999D03*
D21*
X325222500Y-38610000D03*
D32*
X326482499Y-37801999D03*
D33*
X327822499Y-38359999D03*
D22*
X325972499Y-27529999D03*
X324472499Y-27529999D03*
D37*
X66459742Y-112875625D03*
X64809742Y-112875625D03*
X61634000Y-93778000D03*
X59984000Y-93778000D03*
D41*
X258913125Y-131925625D03*
X260563125Y-131925625D03*
D39*
X313837523Y-133501999D03*
D40*
X313837523Y-136041999D03*
D38*
X150798799Y-129489199D03*
X147498799Y-129489199D03*
X251116999Y-72568999D03*
X247816999Y-72568999D03*
X303315999Y-91618999D03*
X306615999Y-91618999D03*
X208190999Y-110668999D03*
X204890999Y-110668999D03*
X117766999Y-72568999D03*
X114466999Y-72568999D03*
X279691999Y-91618999D03*
X276391999Y-91618999D03*
D25*
X298935000Y-57075000D03*
D26*
X298935000Y-72315000D03*
D27*
X305604999Y-64059999D03*
D13*
X310935000Y-64060000D03*
D27*
X316264999Y-64059999D03*
D25*
X322935000Y-57075000D03*
D26*
X322935000Y-72315000D03*
D28*
X306234999Y-68309999D03*
D29*
X309715799Y-67742999D03*
D30*
X314434999Y-66929999D03*
D17*
X308395000Y-69140000D03*
D31*
X309664999Y-69266999D03*
D21*
X310935000Y-70060000D03*
D32*
X312194999Y-69251999D03*
D33*
X313534999Y-69809999D03*
D38*
X93890999Y-110668999D03*
X90590999Y-110668999D03*
X265340999Y-110668999D03*
X262040999Y-110668999D03*
X270039999Y-72568999D03*
X266739999Y-72568999D03*
X260641999Y-91618999D03*
X257341999Y-91618999D03*
X291235399Y-112648999D03*
X287935399Y-112648999D03*
D44*
X331299999Y-104849999D03*
X331299999Y-108149999D03*
D38*
X193966999Y-72568999D03*
X190666999Y-72568999D03*
X131990999Y-110668999D03*
X128690999Y-110668999D03*
X189267999Y-41199999D03*
X185967999Y-41199999D03*
X298741999Y-91618999D03*
X295441999Y-91618999D03*
X266483999Y-148895999D03*
X263183999Y-148895999D03*
X121322999Y-148768999D03*
X118022999Y-148768999D03*
X103361999Y-129791999D03*
X100061999Y-129791999D03*
X184441999Y-91618999D03*
X181141999Y-91618999D03*
X103415999Y-41199999D03*
X100115999Y-41199999D03*
X165391999Y-91618999D03*
X162091999Y-91618999D03*
X179615999Y-129845999D03*
X176315999Y-129845999D03*
X174916999Y-72568999D03*
X171616999Y-72568999D03*
X89191999Y-91618999D03*
X85891999Y-91618999D03*
X213016999Y-72587999D03*
X209716999Y-72587999D03*
X151040999Y-110668999D03*
X147740999Y-110668999D03*
X122477999Y-129845999D03*
X119177999Y-129845999D03*
X319349999Y-53099999D03*
X316049999Y-53099999D03*
X198769999Y-129718999D03*
X195469999Y-129718999D03*
D39*
X313837523Y-138835999D03*
D40*
X313837523Y-141375999D03*
D38*
X65315999Y-91618999D03*
X62015999Y-91618999D03*
X160515999Y-41199999D03*
X157215999Y-41199999D03*
X75309999Y-134619999D03*
X72009999Y-134619999D03*
X160527999Y-129845999D03*
X157227999Y-129845999D03*
D25*
X311093750Y-80635000D03*
X311093750Y-104635000D03*
D13*
X318078750Y-92635000D03*
D12*
X318078749Y-97964999D03*
D26*
X326333750Y-80635000D03*
X326333750Y-104635000D03*
D23*
X313828749Y-87934999D03*
D15*
X314395749Y-91415799D03*
D24*
X315208749Y-96134999D03*
D21*
X312078750Y-92635000D03*
D20*
X312328749Y-95234999D03*
D19*
X312871749Y-91364999D03*
D18*
X312886749Y-93894999D03*
D17*
X312998750Y-90095000D03*
D38*
X274865999Y-129718999D03*
X271565999Y-129718999D03*
X189140999Y-110668999D03*
X185840999Y-110668999D03*
X300583599Y-112674399D03*
X297283599Y-112674399D03*
X289243999Y-72495999D03*
X285943999Y-72495999D03*
X146341999Y-91618999D03*
X143041999Y-91618999D03*
X246290999Y-110668999D03*
X242990999Y-110668999D03*
X112939999Y-110668999D03*
X109639999Y-110668999D03*
X132117999Y-41199999D03*
X128817999Y-41199999D03*
X108241999Y-91618999D03*
X104941999Y-91618999D03*
X231939999Y-72568999D03*
X228639999Y-72568999D03*
X241591999Y-91618999D03*
X238291999Y-91618999D03*
X227367999Y-110668999D03*
X224067999Y-110668999D03*
X246912399Y-129565399D03*
X243612399Y-129565399D03*
X98716999Y-72568999D03*
X95416999Y-72568999D03*
X79666999Y-72568999D03*
X76366999Y-72568999D03*
X217715999Y-129718999D03*
X214415999Y-129718999D03*
X60616999Y-72568999D03*
X57316999Y-72568999D03*
X203491999Y-91618999D03*
X200191999Y-91618999D03*
X155866999Y-72568999D03*
X152566999Y-72568999D03*
X327316999Y-129718999D03*
X324016999Y-129718999D03*
X255815999Y-129718999D03*
X252515999Y-129718999D03*
X222541999Y-91618999D03*
X219241999Y-91618999D03*
X127291999Y-91618999D03*
X123991999Y-91618999D03*
X136739999Y-72514999D03*
X133439999Y-72514999D03*
X170090999Y-110668999D03*
X166790999Y-110668999D03*
X199249999Y-143999999D03*
X195949999Y-143999999D03*
X217715999Y-41199999D03*
X214415999Y-41199999D03*
D45*
X305600000Y-138200000D03*
D46*
X305600000Y-135660000D03*
X303060000Y-138200000D03*
X303060000Y-135660000D03*
X300520000Y-138200000D03*
X300520000Y-135660000D03*
X297980000Y-138200000D03*
X297980000Y-135660000D03*
X295440000Y-138200000D03*
X295440000Y-135660000D03*
X292900000Y-138200000D03*
X292900000Y-135660000D03*
X290360000Y-138200000D03*
X290360000Y-135660000D03*
X287820000Y-138200000D03*
X287820000Y-135660000D03*
X285280000Y-138200000D03*
X285280000Y-135660000D03*
X282740000Y-138200000D03*
X282740000Y-135660000D03*
X280200000Y-138200000D03*
X280200000Y-135660000D03*
X277660000Y-138200000D03*
X277660000Y-135660000D03*
M02*
