%TF.GenerationSoftware,KiCad,Pcbnew,(6.0.10)*%
%TF.CreationDate,2023-01-29T19:44:21-08:00*%
%TF.ProjectId,DecentXE-to-USB,44656365-6e74-4584-952d-746f2d555342,rev?*%
%TF.SameCoordinates,Original*%
%TF.FileFunction,Soldermask,Bot*%
%TF.FilePolarity,Negative*%
%FSLAX46Y46*%
G04 Gerber Fmt 4.6, Leading zero omitted, Abs format (unit mm)*
G04 Created by KiCad (PCBNEW (6.0.10)) date 2023-01-29 19:44:21*
%MOMM*%
%LPD*%
G01*
G04 APERTURE LIST*
G04 Aperture macros list*
%AMRoundRect*
0 Rectangle with rounded corners*
0 $1 Rounding radius*
0 $2 $3 $4 $5 $6 $7 $8 $9 X,Y pos of 4 corners*
0 Add a 4 corners polygon primitive as box body*
4,1,4,$2,$3,$4,$5,$6,$7,$8,$9,$2,$3,0*
0 Add four circle primitives for the rounded corners*
1,1,$1+$1,$2,$3*
1,1,$1+$1,$4,$5*
1,1,$1+$1,$6,$7*
1,1,$1+$1,$8,$9*
0 Add four rect primitives between the rounded corners*
20,1,$1+$1,$2,$3,$4,$5,0*
20,1,$1+$1,$4,$5,$6,$7,0*
20,1,$1+$1,$6,$7,$8,$9,0*
20,1,$1+$1,$8,$9,$2,$3,0*%
G04 Aperture macros list end*
%ADD10C,2.200000*%
%ADD11C,1.600000*%
%ADD12O,1.600000X1.600000*%
%ADD13R,1.100000X1.800000*%
%ADD14RoundRect,0.275000X-0.275000X-0.625000X0.275000X-0.625000X0.275000X0.625000X-0.275000X0.625000X0*%
%ADD15O,1.700000X1.700000*%
%ADD16R,1.700000X1.700000*%
%ADD17O,1.500000X1.500000*%
%ADD18O,1.800000X1.800000*%
%ADD19C,4.000000*%
%ADD20R,1.600000X1.600000*%
%ADD21R,0.400000X1.000000*%
%ADD22R,2.000000X1.300000*%
G04 APERTURE END LIST*
D10*
%TO.C,REF\u002A\u002A*%
X15748000Y-75692000D03*
%TD*%
%TO.C,REF\u002A\u002A*%
X60198000Y-75692000D03*
%TD*%
%TO.C,REF\u002A\u002A*%
X15748000Y-19050000D03*
%TD*%
%TO.C,REF\u002A\u002A*%
X60198000Y-19050000D03*
%TD*%
D11*
%TO.C,R1*%
X15240000Y-30226000D03*
D12*
X15240000Y-22606000D03*
%TD*%
D11*
%TO.C,R4*%
X15240000Y-69850000D03*
D12*
X15240000Y-62230000D03*
%TD*%
D13*
%TO.C,Q1*%
X44704000Y-69996000D03*
D14*
X45974000Y-67926000D03*
X47244000Y-69996000D03*
%TD*%
D15*
%TO.C,U1*%
X33577000Y-66043000D03*
D16*
X31037000Y-66043000D03*
D15*
X28497000Y-66043000D03*
X39927000Y-18013000D03*
X39927000Y-20553000D03*
D16*
X39927000Y-23093000D03*
D15*
X39927000Y-25633000D03*
X39927000Y-28173000D03*
X39927000Y-30713000D03*
X39927000Y-33253000D03*
D16*
X39927000Y-35793000D03*
D15*
X39927000Y-38333000D03*
X39927000Y-40873000D03*
X39927000Y-43413000D03*
X39927000Y-45953000D03*
D16*
X39927000Y-48493000D03*
D15*
X39927000Y-51033000D03*
X39927000Y-53573000D03*
X39927000Y-56113000D03*
X39927000Y-58653000D03*
D16*
X39927000Y-61193000D03*
D15*
X39927000Y-63733000D03*
X39927000Y-66273000D03*
X22147000Y-66273000D03*
X22147000Y-63733000D03*
D16*
X22147000Y-61193000D03*
D15*
X22147000Y-58653000D03*
X22147000Y-56113000D03*
X22147000Y-53573000D03*
X22147000Y-51033000D03*
D16*
X22147000Y-48493000D03*
D15*
X22147000Y-45953000D03*
X22147000Y-43413000D03*
X22147000Y-40873000D03*
X22147000Y-38333000D03*
D16*
X22147000Y-35793000D03*
D15*
X22147000Y-33253000D03*
X22147000Y-30713000D03*
X22147000Y-28173000D03*
X22147000Y-25633000D03*
D16*
X22147000Y-23093000D03*
D15*
X22147000Y-20553000D03*
X22147000Y-18013000D03*
D17*
X33462000Y-21173000D03*
D18*
X33762000Y-18143000D03*
D17*
X28612000Y-21173000D03*
D18*
X28312000Y-18143000D03*
%TD*%
D11*
%TO.C,R2*%
X15240000Y-43434000D03*
D12*
X15240000Y-35814000D03*
%TD*%
D19*
%TO.C,J2*%
X53214669Y-42882000D03*
X53214669Y-67882000D03*
D20*
X52914669Y-60922000D03*
D11*
X52914669Y-58152000D03*
X52914669Y-55382000D03*
X52914669Y-52612000D03*
X52914669Y-49842000D03*
X55754669Y-59537000D03*
X55754669Y-56767000D03*
X55754669Y-53997000D03*
X55754669Y-51227000D03*
%TD*%
%TO.C,R3*%
X15240000Y-56642000D03*
D12*
X15240000Y-49022000D03*
%TD*%
D21*
%TO.C,J1*%
X50473000Y-72630000D03*
X49473000Y-72630000D03*
X48473000Y-72630000D03*
X47473000Y-72630000D03*
X46473000Y-72630000D03*
X45473000Y-72630000D03*
X44473000Y-72630000D03*
X43473000Y-72630000D03*
X42473000Y-72630000D03*
X41473000Y-72630000D03*
X40473000Y-72630000D03*
X39473000Y-72630000D03*
X38473000Y-72630000D03*
X37473000Y-72630000D03*
X36473000Y-72630000D03*
X35473000Y-72630000D03*
X34473000Y-72630000D03*
X33473000Y-72630000D03*
X32473000Y-72630000D03*
X31473000Y-72630000D03*
X30473000Y-72630000D03*
X29473000Y-72630000D03*
X28473000Y-72630000D03*
X27473000Y-72630000D03*
X26473000Y-72630000D03*
X25473000Y-72630000D03*
D22*
X22673000Y-75330000D03*
X53273000Y-75330000D03*
%TD*%
M02*
