G04 #@! TF.GenerationSoftware,KiCad,Pcbnew,(6.0.10)*
G04 #@! TF.CreationDate,2023-01-16T21:57:59-08:00*
G04 #@! TF.ProjectId,DecentXE-plate,44656365-6e74-4584-952d-706c6174652e,11*
G04 #@! TF.SameCoordinates,Original*
G04 #@! TF.FileFunction,Soldermask,Top*
G04 #@! TF.FilePolarity,Negative*
%FSLAX46Y46*%
G04 Gerber Fmt 4.6, Leading zero omitted, Abs format (unit mm)*
G04 Created by KiCad (PCBNEW (6.0.10)) date 2023-01-16 21:57:59*
%MOMM*%
%LPD*%
G01*
G04 APERTURE LIST*
G04 APERTURE END LIST*
G36*
X178999885Y-77091808D02*
G01*
X179171751Y-74571274D01*
X179342135Y-72074713D01*
X179510655Y-69607797D01*
X179676926Y-67176201D01*
X179840566Y-64785599D01*
X180001190Y-62441665D01*
X180158417Y-60150072D01*
X180311861Y-57916495D01*
X180461141Y-55746606D01*
X180605872Y-53646081D01*
X180745672Y-51620593D01*
X180764747Y-51344519D01*
X180918063Y-49125439D01*
X181068363Y-46949221D01*
X181215226Y-44821969D01*
X181358233Y-42749784D01*
X181496965Y-40738768D01*
X181631002Y-38795023D01*
X181759925Y-36924650D01*
X181883313Y-35133753D01*
X182000747Y-33428432D01*
X182111808Y-31814790D01*
X182216075Y-30298928D01*
X182313130Y-28886950D01*
X182402552Y-27584955D01*
X182483922Y-26399047D01*
X182556821Y-25335328D01*
X182620828Y-24399899D01*
X182675524Y-23598863D01*
X182720490Y-22938321D01*
X182755306Y-22424375D01*
X182779552Y-22063127D01*
X182792808Y-21860680D01*
X182795333Y-21817019D01*
X182802972Y-21800237D01*
X182830459Y-21784821D01*
X182884652Y-21770715D01*
X182972407Y-21757860D01*
X183100583Y-21746199D01*
X183276035Y-21735674D01*
X183505622Y-21726227D01*
X183796201Y-21717801D01*
X184154627Y-21710338D01*
X184587760Y-21703781D01*
X185102455Y-21698070D01*
X185705570Y-21693150D01*
X186403963Y-21688963D01*
X187204489Y-21685449D01*
X188114008Y-21682553D01*
X189139374Y-21680216D01*
X190287446Y-21678380D01*
X191565081Y-21676989D01*
X192979136Y-21675983D01*
X194536469Y-21675306D01*
X196243935Y-21674900D01*
X198108393Y-21674706D01*
X199717311Y-21674667D01*
X216639289Y-21674667D01*
X226103413Y-39052500D01*
X228358330Y-43192946D01*
X230533618Y-47187209D01*
X232630648Y-51037807D01*
X234650792Y-54747262D01*
X236595421Y-58318092D01*
X238465905Y-61752819D01*
X240263617Y-65053961D01*
X241989926Y-68224039D01*
X243646205Y-71265572D01*
X245233824Y-74181081D01*
X246754155Y-76973085D01*
X248208569Y-79644105D01*
X249598437Y-82196660D01*
X250925129Y-84633269D01*
X252190018Y-86956454D01*
X253394475Y-89168734D01*
X254539870Y-91272629D01*
X255627574Y-93270658D01*
X256658960Y-95165342D01*
X257635397Y-96959201D01*
X258558258Y-98654754D01*
X259428913Y-100254521D01*
X260248734Y-101761023D01*
X261019091Y-103176779D01*
X261741356Y-104504309D01*
X262416900Y-105746132D01*
X263047094Y-106904770D01*
X263633309Y-107982742D01*
X264176917Y-108982567D01*
X264679288Y-109906766D01*
X265141794Y-110757859D01*
X265565806Y-111538365D01*
X265952695Y-112250804D01*
X266303832Y-112897697D01*
X266620588Y-113481563D01*
X266904335Y-114004922D01*
X267156444Y-114470294D01*
X267378285Y-114880198D01*
X267571231Y-115237156D01*
X267736651Y-115543686D01*
X267875918Y-115802309D01*
X267990403Y-116015544D01*
X268081475Y-116185912D01*
X268150508Y-116315932D01*
X268198872Y-116408125D01*
X268227937Y-116465009D01*
X268239076Y-116489106D01*
X268239214Y-116489605D01*
X268204738Y-116516670D01*
X268087672Y-116559798D01*
X267881361Y-116620532D01*
X267579146Y-116700412D01*
X267174370Y-116800981D01*
X266660374Y-116923779D01*
X266030503Y-117070349D01*
X265278097Y-117242231D01*
X264396501Y-117440968D01*
X263379055Y-117668102D01*
X262219103Y-117925173D01*
X260909987Y-118213723D01*
X259445049Y-118535294D01*
X258699000Y-118698674D01*
X257454700Y-118970453D01*
X256256557Y-119231110D01*
X255114947Y-119478442D01*
X254040243Y-119710245D01*
X253042823Y-119924317D01*
X252133060Y-120118455D01*
X251321332Y-120290457D01*
X250618012Y-120438118D01*
X250033476Y-120559238D01*
X249578100Y-120651612D01*
X249262259Y-120713039D01*
X249096329Y-120741314D01*
X249072893Y-120742402D01*
X249027209Y-120664022D01*
X248904826Y-120443963D01*
X248709674Y-120089449D01*
X248445685Y-119607702D01*
X248116790Y-119005948D01*
X247726920Y-118291411D01*
X247280007Y-117471314D01*
X246779982Y-116552882D01*
X246230777Y-115543339D01*
X245636322Y-114449910D01*
X245000549Y-113279817D01*
X244327390Y-112040285D01*
X243620775Y-110738539D01*
X242884636Y-109381803D01*
X242122904Y-107977300D01*
X241339511Y-106532255D01*
X241259943Y-106385450D01*
X240474489Y-104936522D01*
X239710254Y-103527282D01*
X238971175Y-102164963D01*
X238261184Y-100856798D01*
X237584219Y-99610022D01*
X236944214Y-98431867D01*
X236345104Y-97329567D01*
X235790824Y-96310355D01*
X235285310Y-95381465D01*
X234832497Y-94550130D01*
X234436320Y-93823582D01*
X234100715Y-93209057D01*
X233829615Y-92713786D01*
X233626958Y-92345004D01*
X233496677Y-92109944D01*
X233442708Y-92015839D01*
X233441669Y-92014469D01*
X233356184Y-92027919D01*
X233114312Y-92075510D01*
X232725106Y-92155282D01*
X232197619Y-92265274D01*
X231540903Y-92403528D01*
X230764013Y-92568082D01*
X229876000Y-92756978D01*
X228885919Y-92968255D01*
X227802821Y-93199953D01*
X226635761Y-93450113D01*
X225393792Y-93716774D01*
X224085965Y-93997978D01*
X222721335Y-94291763D01*
X221308955Y-94596170D01*
X219857877Y-94909239D01*
X218377155Y-95229010D01*
X216875842Y-95553524D01*
X215362990Y-95880820D01*
X213847654Y-96208939D01*
X212338885Y-96535920D01*
X210845738Y-96859804D01*
X209377264Y-97178631D01*
X207942518Y-97490442D01*
X206550552Y-97793275D01*
X205210420Y-98085171D01*
X203931173Y-98364171D01*
X202721867Y-98628315D01*
X201591552Y-98875641D01*
X200549284Y-99104192D01*
X199604114Y-99312007D01*
X198765096Y-99497125D01*
X198041283Y-99657588D01*
X197441728Y-99791435D01*
X196975484Y-99896706D01*
X196651603Y-99971441D01*
X196479141Y-100013681D01*
X196452190Y-100022255D01*
X196441145Y-100109357D01*
X196418535Y-100351878D01*
X196385412Y-100736373D01*
X196342828Y-101249399D01*
X196291835Y-101877511D01*
X196233486Y-102607266D01*
X196168832Y-103425219D01*
X196098926Y-104317926D01*
X196024819Y-105271944D01*
X195947564Y-106273828D01*
X195868212Y-107310135D01*
X195787817Y-108367420D01*
X195707429Y-109432238D01*
X195628102Y-110491148D01*
X195550887Y-111530703D01*
X195539518Y-111684604D01*
X195503158Y-112183010D01*
X195456345Y-112834219D01*
X195400210Y-113622096D01*
X195335886Y-114530505D01*
X195264503Y-115543313D01*
X195187194Y-116644384D01*
X195105090Y-117817585D01*
X195019322Y-119046780D01*
X194931023Y-120315835D01*
X194841325Y-121608616D01*
X194751358Y-122908987D01*
X194697279Y-123692537D01*
X194612671Y-124915977D01*
X194530903Y-126091307D01*
X194452763Y-127207583D01*
X194379038Y-128253861D01*
X194310516Y-129219200D01*
X194247984Y-130092656D01*
X194192230Y-130863286D01*
X194144041Y-131520148D01*
X194104205Y-132052298D01*
X194073508Y-132448795D01*
X194052740Y-132698694D01*
X194042686Y-132791053D01*
X194042511Y-132791321D01*
X193957630Y-132811920D01*
X193719975Y-132865639D01*
X193342258Y-132949706D01*
X192837190Y-133061353D01*
X192217483Y-133197809D01*
X191495850Y-133356305D01*
X190685003Y-133534070D01*
X189797653Y-133728336D01*
X188846512Y-133936331D01*
X187844294Y-134155287D01*
X186803708Y-134382433D01*
X185737469Y-134614999D01*
X184658287Y-134850216D01*
X183578874Y-135085314D01*
X182511943Y-135317523D01*
X181470206Y-135544073D01*
X180466374Y-135762194D01*
X179513160Y-135969116D01*
X178623275Y-136162070D01*
X177809432Y-136338286D01*
X177084342Y-136494993D01*
X176460718Y-136629423D01*
X175951272Y-136738804D01*
X175568715Y-136820368D01*
X175325760Y-136871344D01*
X175238833Y-136888504D01*
X175090502Y-136899457D01*
X175023914Y-136840687D01*
X175006504Y-136669388D01*
X175006000Y-136582467D01*
X175011712Y-136453882D01*
X175028592Y-136162033D01*
X175056257Y-135712592D01*
X175094324Y-135111234D01*
X175142409Y-134363632D01*
X175200129Y-133475461D01*
X175267100Y-132452394D01*
X175342940Y-131300106D01*
X175427265Y-130024269D01*
X175519691Y-128630558D01*
X175619836Y-127124647D01*
X175727315Y-125512209D01*
X175841747Y-123798919D01*
X175962746Y-121990450D01*
X176089931Y-120092476D01*
X176222917Y-118110672D01*
X176361321Y-116050710D01*
X176504761Y-113918264D01*
X176652852Y-111719009D01*
X176805211Y-109458619D01*
X176961456Y-107142767D01*
X177121202Y-104777127D01*
X177284066Y-102367373D01*
X177449665Y-99919178D01*
X177617616Y-97438218D01*
X177787536Y-94930165D01*
X177959040Y-92400693D01*
X178131746Y-89855477D01*
X178305271Y-87300189D01*
X178479230Y-84740505D01*
X178653241Y-82182098D01*
X178728673Y-81073948D01*
X197696667Y-81073948D01*
X197722980Y-81229631D01*
X197820116Y-81253561D01*
X197844833Y-81247061D01*
X197958344Y-81220490D01*
X198218890Y-81163620D01*
X198607678Y-81080428D01*
X199105915Y-80974891D01*
X199694809Y-80850986D01*
X200355567Y-80712689D01*
X201069396Y-80563978D01*
X201252667Y-80525904D01*
X201996386Y-80370936D01*
X202750398Y-80212652D01*
X203526034Y-80048580D01*
X204334628Y-79876248D01*
X205187511Y-79693182D01*
X206096016Y-79496909D01*
X207071476Y-79284958D01*
X208125222Y-79054855D01*
X209268588Y-78804128D01*
X210512906Y-78530303D01*
X211869508Y-78230908D01*
X213349727Y-77903471D01*
X214964895Y-77545518D01*
X216726344Y-77154577D01*
X217995382Y-76872652D01*
X219013206Y-76646554D01*
X219982506Y-76431415D01*
X220890675Y-76230022D01*
X221725108Y-76045162D01*
X222473200Y-75879621D01*
X223122344Y-75736188D01*
X223659936Y-75617649D01*
X224073369Y-75526791D01*
X224350039Y-75466400D01*
X224477339Y-75439264D01*
X224484432Y-75438000D01*
X224447925Y-75364695D01*
X224334393Y-75149311D01*
X224147502Y-74798638D01*
X223890914Y-74319469D01*
X223568295Y-73718597D01*
X223183308Y-73002814D01*
X222739617Y-72178913D01*
X222240887Y-71253685D01*
X221690782Y-70233924D01*
X221092966Y-69126422D01*
X220451103Y-67937970D01*
X219768858Y-66675362D01*
X219049894Y-65345390D01*
X218297877Y-63954846D01*
X217516469Y-62510522D01*
X216709335Y-61019212D01*
X215880140Y-59487707D01*
X215840676Y-59414833D01*
X214961674Y-57791650D01*
X214077281Y-56158492D01*
X213193096Y-54525694D01*
X212314712Y-52903591D01*
X211447727Y-51302518D01*
X210597737Y-49732808D01*
X209770337Y-48204798D01*
X208971124Y-46728821D01*
X208205693Y-45315212D01*
X207479640Y-43974307D01*
X206798562Y-42716440D01*
X206168055Y-41551945D01*
X205593714Y-40491157D01*
X205081135Y-39544412D01*
X204635915Y-38722043D01*
X204263650Y-38034386D01*
X204144626Y-37814509D01*
X203659759Y-36920775D01*
X203198447Y-36074342D01*
X202766937Y-35286433D01*
X202371475Y-34568271D01*
X202018309Y-33931081D01*
X201713686Y-33386086D01*
X201463852Y-32944509D01*
X201275054Y-32617574D01*
X201153539Y-32416504D01*
X201105555Y-32352524D01*
X201105104Y-32353509D01*
X201088762Y-32496975D01*
X201061505Y-32801050D01*
X201023915Y-33257400D01*
X200976575Y-33857692D01*
X200920069Y-34593592D01*
X200854980Y-35456765D01*
X200781889Y-36438880D01*
X200701382Y-37531602D01*
X200614039Y-38726597D01*
X200520445Y-40015532D01*
X200421183Y-41390073D01*
X200316835Y-42841887D01*
X200207985Y-44362639D01*
X200095215Y-45943997D01*
X199979109Y-47577626D01*
X199860249Y-49255194D01*
X199739219Y-50968365D01*
X199616601Y-52708808D01*
X199492979Y-54468187D01*
X199368936Y-56238171D01*
X199245054Y-58010424D01*
X199121917Y-59776613D01*
X199000108Y-61528404D01*
X198880209Y-63257465D01*
X198762804Y-64955461D01*
X198648475Y-66614059D01*
X198537807Y-68224924D01*
X198431381Y-69779725D01*
X198329780Y-71270126D01*
X198233589Y-72687794D01*
X198143389Y-74024395D01*
X198059764Y-75271597D01*
X197983297Y-76421065D01*
X197914570Y-77464465D01*
X197854168Y-78393465D01*
X197802672Y-79199729D01*
X197760666Y-79874926D01*
X197728733Y-80410721D01*
X197707455Y-80798780D01*
X197697417Y-81030770D01*
X197696667Y-81073948D01*
X178728673Y-81073948D01*
X178826920Y-79630641D01*
X178999885Y-77091808D01*
G37*
G36*
X63414666Y-30790272D02*
G01*
X63437470Y-30877502D01*
X63494919Y-31124098D01*
X63585673Y-31523961D01*
X63708393Y-32070994D01*
X63861739Y-32759095D01*
X64044371Y-33582167D01*
X64254950Y-34534111D01*
X64492136Y-35608827D01*
X64754589Y-36800216D01*
X65040969Y-38102179D01*
X65349937Y-39508618D01*
X65680154Y-41013433D01*
X66030278Y-42610525D01*
X66398971Y-44293796D01*
X66784893Y-46057145D01*
X67186704Y-47894475D01*
X67603064Y-49799686D01*
X68032635Y-51766678D01*
X68474075Y-53789354D01*
X68926046Y-55861614D01*
X69387207Y-57977359D01*
X69465204Y-58335333D01*
X69939622Y-60512767D01*
X70447291Y-62842717D01*
X70985392Y-65312253D01*
X71551107Y-67908444D01*
X72141620Y-70618358D01*
X72754110Y-73429065D01*
X73385761Y-76327635D01*
X74033754Y-79301136D01*
X74695271Y-82336637D01*
X75367493Y-85421207D01*
X76047604Y-88541917D01*
X76732785Y-91685834D01*
X77420217Y-94840028D01*
X78107083Y-97991568D01*
X78790564Y-101127523D01*
X79467842Y-104234963D01*
X80136100Y-107300956D01*
X80792519Y-110312571D01*
X81434281Y-113256878D01*
X82058568Y-116120947D01*
X82662562Y-118891845D01*
X83025176Y-120555346D01*
X83545754Y-122943919D01*
X84056987Y-125290466D01*
X84557702Y-127589577D01*
X85046726Y-129835840D01*
X85522885Y-132023846D01*
X85985006Y-134148184D01*
X86431917Y-136203444D01*
X86862444Y-138184216D01*
X87275414Y-140085088D01*
X87669653Y-141900651D01*
X88043989Y-143625495D01*
X88397248Y-145254208D01*
X88728257Y-146781381D01*
X89035843Y-148201604D01*
X89318833Y-149509465D01*
X89576054Y-150699554D01*
X89806333Y-151766462D01*
X90008495Y-152704777D01*
X90181369Y-153509090D01*
X90323781Y-154173989D01*
X90434557Y-154694065D01*
X90512526Y-155063907D01*
X90556512Y-155278105D01*
X90566425Y-155333797D01*
X90480205Y-155356824D01*
X90242199Y-155412404D01*
X89866171Y-155497498D01*
X89365884Y-155609068D01*
X88755104Y-155744078D01*
X88047594Y-155899487D01*
X87257119Y-156072260D01*
X86397443Y-156259357D01*
X85482330Y-156457741D01*
X85081326Y-156544439D01*
X83938406Y-156791705D01*
X82792038Y-157040400D01*
X81654792Y-157287755D01*
X80539235Y-157531002D01*
X79457937Y-157767372D01*
X78423466Y-157994097D01*
X77448389Y-158208407D01*
X76545276Y-158407535D01*
X75726695Y-158588711D01*
X75005214Y-158749167D01*
X74393401Y-158886135D01*
X73903825Y-158996845D01*
X73549055Y-159078530D01*
X73341659Y-159128420D01*
X73300167Y-159139636D01*
X73177339Y-159144849D01*
X73152000Y-159112009D01*
X73133859Y-159017495D01*
X73081801Y-158773813D01*
X72999372Y-158396931D01*
X72890118Y-157902819D01*
X72757586Y-157307445D01*
X72605322Y-156626777D01*
X72436873Y-155876785D01*
X72255785Y-155073436D01*
X72215282Y-154894137D01*
X71878584Y-153399561D01*
X71519623Y-151797117D01*
X71137220Y-150081441D01*
X70730196Y-148247172D01*
X70297370Y-146288946D01*
X69837562Y-144201401D01*
X69349593Y-141979172D01*
X68832284Y-139616899D01*
X68284453Y-137109217D01*
X67704922Y-134450765D01*
X67092511Y-131636178D01*
X66591110Y-129328333D01*
X66433379Y-128602239D01*
X66241002Y-127717261D01*
X66015409Y-126679964D01*
X65758030Y-125496909D01*
X65470294Y-124174661D01*
X65153631Y-122719782D01*
X64809470Y-121138835D01*
X64439242Y-119438383D01*
X64044375Y-117624988D01*
X63626300Y-115705215D01*
X63186446Y-113685627D01*
X62726242Y-111572785D01*
X62247119Y-109373253D01*
X61750506Y-107093594D01*
X61237833Y-104740371D01*
X60710529Y-102320147D01*
X60170024Y-99839485D01*
X59617747Y-97304948D01*
X59055129Y-94723100D01*
X58483599Y-92100502D01*
X57904586Y-89443718D01*
X57319520Y-86759311D01*
X56729832Y-84053844D01*
X56136949Y-81333880D01*
X55542303Y-78605982D01*
X55197927Y-77026256D01*
X54622773Y-74387736D01*
X54056709Y-71790499D01*
X53500802Y-69239457D01*
X52956121Y-66739524D01*
X52423735Y-64295613D01*
X51904711Y-61912637D01*
X51400119Y-59595510D01*
X50911026Y-57349145D01*
X50438501Y-55178456D01*
X49983613Y-53088355D01*
X49547429Y-51083756D01*
X49131018Y-49169573D01*
X48735449Y-47350719D01*
X48361789Y-45632106D01*
X48011108Y-44018649D01*
X47684473Y-42515261D01*
X47382953Y-41126855D01*
X47107616Y-39858344D01*
X46859531Y-38714642D01*
X46639766Y-37700662D01*
X46449389Y-36821317D01*
X46289469Y-36081521D01*
X46161074Y-35486187D01*
X46065273Y-35040229D01*
X46003133Y-34748559D01*
X45975724Y-34616091D01*
X45974417Y-34608256D01*
X46055116Y-34575654D01*
X46288301Y-34510911D01*
X46660789Y-34416914D01*
X47159395Y-34296549D01*
X47770933Y-34152703D01*
X48482221Y-33988261D01*
X49280073Y-33806111D01*
X50151305Y-33609138D01*
X51082733Y-33400228D01*
X52061171Y-33182268D01*
X53073437Y-32958145D01*
X54106344Y-32730744D01*
X55146709Y-32502952D01*
X56181348Y-32277656D01*
X57197075Y-32057741D01*
X58180707Y-31846093D01*
X59119059Y-31645600D01*
X59998946Y-31459147D01*
X60807185Y-31289622D01*
X61530590Y-31139909D01*
X62155977Y-31012895D01*
X62670162Y-30911467D01*
X63059961Y-30838512D01*
X63312188Y-30796914D01*
X63413660Y-30789561D01*
X63414666Y-30790272D01*
G37*
G36*
X352467333Y-27347333D02*
G01*
X352467026Y-28310260D01*
X352466139Y-29221622D01*
X352464723Y-30067584D01*
X352462830Y-30834307D01*
X352460513Y-31507955D01*
X352457821Y-32074691D01*
X352454808Y-32520678D01*
X352451525Y-32832078D01*
X352448024Y-32995056D01*
X352446167Y-33016565D01*
X352403622Y-32943365D01*
X352287078Y-32732560D01*
X352102775Y-32395660D01*
X351856956Y-31944175D01*
X351555863Y-31389615D01*
X351205738Y-30743490D01*
X350812822Y-30017308D01*
X350383358Y-29222579D01*
X349923588Y-28370814D01*
X349439753Y-27473521D01*
X349398167Y-27396353D01*
X348912593Y-26494614D01*
X348451109Y-25636290D01*
X348019923Y-24833010D01*
X347625246Y-24096406D01*
X347273286Y-23438107D01*
X346970253Y-22869744D01*
X346722357Y-22402947D01*
X346535806Y-22049345D01*
X346416810Y-21820569D01*
X346371579Y-21728249D01*
X346371333Y-21727121D01*
X346452851Y-21715084D01*
X346684808Y-21704020D01*
X347048314Y-21694253D01*
X347524477Y-21686110D01*
X348094404Y-21679914D01*
X348739203Y-21675992D01*
X349419333Y-21674667D01*
X352467333Y-21674667D01*
X352467333Y-27347333D01*
G37*
G36*
X264337458Y-21687272D02*
G01*
X265433694Y-21688634D01*
X266676365Y-21690824D01*
X268074551Y-21693722D01*
X268868125Y-21695472D01*
X278498557Y-21717000D01*
X284026596Y-47074667D01*
X284526846Y-49369346D01*
X285045832Y-51749937D01*
X285580444Y-54202175D01*
X286127572Y-56711795D01*
X286684105Y-59264532D01*
X287246935Y-61846121D01*
X287812949Y-64442297D01*
X288379040Y-67038795D01*
X288942095Y-69621350D01*
X289499006Y-72175697D01*
X290046661Y-74687570D01*
X290581952Y-77142705D01*
X291101767Y-79526838D01*
X291602998Y-81825702D01*
X292082532Y-84025032D01*
X292537261Y-86110565D01*
X292964075Y-88068034D01*
X293359862Y-89883175D01*
X293588561Y-90932000D01*
X293968214Y-92673589D01*
X294338559Y-94373448D01*
X294697957Y-96024009D01*
X295044765Y-97617702D01*
X295377345Y-99146959D01*
X295694054Y-100604211D01*
X295993252Y-101981889D01*
X296273299Y-103272424D01*
X296532554Y-104468248D01*
X296769377Y-105561791D01*
X296982126Y-106545485D01*
X297169161Y-107411761D01*
X297328842Y-108153050D01*
X297459528Y-108761783D01*
X297559578Y-109230391D01*
X297627351Y-109551306D01*
X297661207Y-109716959D01*
X297664717Y-109736688D01*
X297679936Y-109941902D01*
X297626544Y-110039882D01*
X297471552Y-110088940D01*
X297464641Y-110090335D01*
X297358348Y-110113071D01*
X297099883Y-110169002D01*
X296702515Y-110255238D01*
X296179514Y-110368886D01*
X295544152Y-110507055D01*
X294809698Y-110666853D01*
X293989423Y-110845388D01*
X293096597Y-111039769D01*
X292144490Y-111247104D01*
X291146373Y-111464501D01*
X290115516Y-111689068D01*
X289065190Y-111917915D01*
X288008664Y-112148149D01*
X286959209Y-112376878D01*
X285930095Y-112601212D01*
X284934594Y-112818257D01*
X283985974Y-113025123D01*
X283097506Y-113218918D01*
X282282462Y-113396750D01*
X281554110Y-113555727D01*
X280925722Y-113692958D01*
X280410567Y-113805551D01*
X280021916Y-113890614D01*
X279773040Y-113945256D01*
X279711874Y-113958774D01*
X279472471Y-113990949D01*
X279364668Y-113947812D01*
X279357789Y-113932431D01*
X279338082Y-113844574D01*
X279283380Y-113595974D01*
X279194710Y-113191345D01*
X279073098Y-112635400D01*
X278919574Y-111932854D01*
X278735164Y-111088420D01*
X278520895Y-110106812D01*
X278277796Y-108992744D01*
X278006894Y-107750931D01*
X277709217Y-106386085D01*
X277385791Y-104902921D01*
X277037645Y-103306154D01*
X276665805Y-101600496D01*
X276271300Y-99790661D01*
X275855157Y-97881365D01*
X275418404Y-95877319D01*
X274962067Y-93783240D01*
X274487175Y-91603839D01*
X273994755Y-89343832D01*
X273485834Y-87007932D01*
X272961440Y-84600853D01*
X272422601Y-82127310D01*
X271870344Y-79592015D01*
X271305697Y-76999683D01*
X270729686Y-74355028D01*
X270143341Y-71662763D01*
X269547687Y-68927603D01*
X269324489Y-67902667D01*
X268725549Y-65152364D01*
X268135500Y-62443042D01*
X267555369Y-59779421D01*
X266986185Y-57166222D01*
X266428978Y-54608165D01*
X265884777Y-52109972D01*
X265354610Y-49676363D01*
X264839507Y-47312059D01*
X264340497Y-45021780D01*
X263858608Y-42810249D01*
X263394870Y-40682184D01*
X262950313Y-38642308D01*
X262525964Y-36695342D01*
X262122853Y-34846005D01*
X261742009Y-33099018D01*
X261384462Y-31459103D01*
X261051239Y-29930981D01*
X260743371Y-28519372D01*
X260461885Y-27228996D01*
X260207812Y-26064576D01*
X259982181Y-25030831D01*
X259786019Y-24132482D01*
X259620357Y-23374251D01*
X259486223Y-22760857D01*
X259384647Y-22297023D01*
X259316658Y-21987468D01*
X259283283Y-21836914D01*
X259279920Y-21822472D01*
X259279670Y-21799616D01*
X259298709Y-21779272D01*
X259346118Y-21761319D01*
X259430979Y-21745637D01*
X259562373Y-21732106D01*
X259749384Y-21720606D01*
X260001092Y-21711016D01*
X260326579Y-21703217D01*
X260734928Y-21697087D01*
X261235220Y-21692506D01*
X261836537Y-21689354D01*
X262547962Y-21687512D01*
X263378574Y-21686858D01*
X264337458Y-21687272D01*
G37*
G36*
X42326619Y-35335280D02*
G01*
X42379791Y-35572342D01*
X42464058Y-35952491D01*
X42576978Y-36464537D01*
X42716112Y-37097290D01*
X42879018Y-37839560D01*
X43063255Y-38680156D01*
X43266381Y-39607888D01*
X43485957Y-40611567D01*
X43719539Y-41680002D01*
X43964689Y-42802004D01*
X44218963Y-43966381D01*
X44479922Y-45161944D01*
X44745125Y-46377503D01*
X45012129Y-47601868D01*
X45278494Y-48823849D01*
X45541780Y-50032255D01*
X45799544Y-51215896D01*
X46049347Y-52363583D01*
X46288745Y-53464124D01*
X46515300Y-54506331D01*
X46726569Y-55479013D01*
X46920112Y-56370980D01*
X47093487Y-57171041D01*
X47244253Y-57868007D01*
X47369969Y-58450688D01*
X47468195Y-58907892D01*
X47508662Y-59097333D01*
X48219492Y-62504498D01*
X48901294Y-65911959D01*
X49551849Y-69305798D01*
X50168939Y-72672097D01*
X50750344Y-75996936D01*
X51293845Y-79266396D01*
X51797225Y-82466558D01*
X52258264Y-85583504D01*
X52674744Y-88603315D01*
X53044446Y-91512071D01*
X53365151Y-94295854D01*
X53634640Y-96940744D01*
X53757371Y-98298000D01*
X53921326Y-100418033D01*
X54040948Y-102448839D01*
X54115923Y-104376845D01*
X54145936Y-106188476D01*
X54130672Y-107870159D01*
X54069816Y-109408319D01*
X54029395Y-110024333D01*
X53770962Y-112808283D01*
X53412949Y-115576386D01*
X52960021Y-118305767D01*
X52416845Y-120973549D01*
X51788084Y-123556853D01*
X51078405Y-126032804D01*
X50292473Y-128378524D01*
X50278592Y-128416834D01*
X49490884Y-130483813D01*
X48637214Y-132518972D01*
X47709707Y-134536131D01*
X46700485Y-136549107D01*
X45601670Y-138571719D01*
X44405386Y-140617784D01*
X43103756Y-142701122D01*
X41688902Y-144835551D01*
X40152947Y-147034888D01*
X38488015Y-149312953D01*
X37982974Y-149986260D01*
X36377201Y-152007711D01*
X34613488Y-154025566D01*
X32703050Y-156028439D01*
X30657103Y-158004940D01*
X28486860Y-159943681D01*
X26745947Y-161397275D01*
X26356227Y-161713333D01*
X22436667Y-161713333D01*
X22436667Y-139852753D01*
X23224955Y-138950876D01*
X25220746Y-136541333D01*
X27105835Y-134008219D01*
X28875731Y-131359846D01*
X30525943Y-128604525D01*
X32051982Y-125750569D01*
X33449355Y-122806288D01*
X34713572Y-119779994D01*
X35840143Y-116680000D01*
X36658218Y-114088333D01*
X37367302Y-111558255D01*
X37977792Y-109106874D01*
X38496696Y-106694973D01*
X38931019Y-104283334D01*
X39287770Y-101832739D01*
X39573954Y-99303971D01*
X39796578Y-96657810D01*
X39812166Y-96435333D01*
X39839081Y-95936125D01*
X39862069Y-95289434D01*
X39881140Y-94517065D01*
X39896299Y-93640824D01*
X39907554Y-92682515D01*
X39914913Y-91663943D01*
X39918383Y-90606914D01*
X39917971Y-89533233D01*
X39913684Y-88464704D01*
X39905530Y-87423132D01*
X39893516Y-86430323D01*
X39877649Y-85508082D01*
X39857936Y-84678213D01*
X39834386Y-83962521D01*
X39807804Y-83396667D01*
X39598069Y-80130675D01*
X39345442Y-76916603D01*
X39046383Y-73723509D01*
X38697354Y-70520451D01*
X38294816Y-67276487D01*
X37835229Y-63960675D01*
X37315055Y-60542072D01*
X36907595Y-58039000D01*
X36652100Y-56517722D01*
X36415082Y-55129041D01*
X36191161Y-53845060D01*
X35974961Y-52637880D01*
X35761104Y-51479605D01*
X35544211Y-50342336D01*
X35318905Y-49198176D01*
X35079808Y-48019228D01*
X34821542Y-46777593D01*
X34538730Y-45445374D01*
X34225992Y-43994673D01*
X34000287Y-42957408D01*
X33799247Y-42034789D01*
X33608725Y-41157677D01*
X33431846Y-40340643D01*
X33271737Y-39598260D01*
X33131524Y-38945100D01*
X33014332Y-38395734D01*
X32923289Y-37964734D01*
X32861521Y-37666672D01*
X32832153Y-37516120D01*
X32830316Y-37503947D01*
X32829877Y-37462095D01*
X32846984Y-37422790D01*
X32894184Y-37382762D01*
X32984023Y-37338743D01*
X33129048Y-37287462D01*
X33341803Y-37225650D01*
X33634836Y-37150039D01*
X34020693Y-37057359D01*
X34511919Y-36944339D01*
X35121061Y-36807713D01*
X35860665Y-36644208D01*
X36743276Y-36450558D01*
X37549667Y-36274161D01*
X38418671Y-36084485D01*
X39236764Y-35906526D01*
X39989257Y-35743437D01*
X40661461Y-35598375D01*
X41238690Y-35474491D01*
X41706254Y-35374942D01*
X42049467Y-35302881D01*
X42253639Y-35261463D01*
X42306984Y-35252495D01*
X42326619Y-35335280D01*
G37*
G36*
X334723377Y-22330833D02*
G01*
X334709848Y-22514121D01*
X334686354Y-22849481D01*
X334653587Y-23326463D01*
X334612237Y-23934615D01*
X334562995Y-24663484D01*
X334506554Y-25502620D01*
X334443603Y-26441572D01*
X334374834Y-27469886D01*
X334300939Y-28577113D01*
X334222608Y-29752800D01*
X334140533Y-30986496D01*
X334055404Y-32267749D01*
X333967913Y-33586108D01*
X333878751Y-34931121D01*
X333788610Y-36292337D01*
X333698179Y-37659304D01*
X333608152Y-39021570D01*
X333519218Y-40368684D01*
X333432068Y-41690195D01*
X333347395Y-42975650D01*
X333265889Y-44214599D01*
X333188241Y-45396589D01*
X333115143Y-46511170D01*
X333047286Y-47547889D01*
X332985360Y-48496296D01*
X332930057Y-49345938D01*
X332882068Y-50086364D01*
X332842085Y-50707122D01*
X332810798Y-51197761D01*
X332788899Y-51547829D01*
X332777078Y-51746876D01*
X332775191Y-51790803D01*
X332857036Y-51774780D01*
X333091899Y-51725417D01*
X333467346Y-51645412D01*
X333970939Y-51537463D01*
X334590244Y-51404268D01*
X335312824Y-51248527D01*
X336126245Y-51072937D01*
X337018071Y-50880196D01*
X337975866Y-50673004D01*
X338987195Y-50454057D01*
X340039621Y-50226056D01*
X341120710Y-49991697D01*
X342218025Y-49753680D01*
X343319132Y-49514702D01*
X344411594Y-49277462D01*
X345482977Y-49044659D01*
X346520843Y-48818990D01*
X347512759Y-48603154D01*
X348446287Y-48399850D01*
X349308994Y-48211775D01*
X350088442Y-48041628D01*
X350772197Y-47892108D01*
X351347822Y-47765912D01*
X351802883Y-47665739D01*
X352124944Y-47594287D01*
X352301568Y-47554256D01*
X352319167Y-47550057D01*
X352342533Y-47550846D01*
X352363311Y-47571500D01*
X352381651Y-47621333D01*
X352397705Y-47709658D01*
X352411622Y-47845790D01*
X352423555Y-48039043D01*
X352433653Y-48298731D01*
X352442068Y-48634168D01*
X352448951Y-49054669D01*
X352454453Y-49569546D01*
X352458724Y-50188116D01*
X352461916Y-50919691D01*
X352464179Y-51773585D01*
X352465665Y-52759114D01*
X352466524Y-53885590D01*
X352466907Y-55162328D01*
X352466965Y-56598643D01*
X352466963Y-56671093D01*
X352466592Y-65828333D01*
X341989463Y-68105714D01*
X340685143Y-68389797D01*
X339426172Y-68665110D01*
X338222514Y-68929420D01*
X337084133Y-69180490D01*
X336020995Y-69416086D01*
X335043063Y-69633973D01*
X334160303Y-69831917D01*
X333382679Y-70007682D01*
X332720156Y-70159034D01*
X332182698Y-70283737D01*
X331780270Y-70379557D01*
X331522837Y-70444259D01*
X331420363Y-70475608D01*
X331419359Y-70476381D01*
X331401951Y-70572454D01*
X331374087Y-70834141D01*
X331336013Y-71258059D01*
X331287974Y-71840828D01*
X331230215Y-72579065D01*
X331162980Y-73469389D01*
X331086514Y-74508418D01*
X331001063Y-75692771D01*
X330906872Y-77019066D01*
X330804185Y-78483921D01*
X330693247Y-80083955D01*
X330574304Y-81815787D01*
X330447601Y-83676034D01*
X330313381Y-85661315D01*
X330236191Y-86809081D01*
X330125586Y-88453495D01*
X330017593Y-90052898D01*
X329912783Y-91599081D01*
X329811730Y-93083836D01*
X329715003Y-94498956D01*
X329623177Y-95836233D01*
X329536821Y-97087458D01*
X329456509Y-98244424D01*
X329382811Y-99298923D01*
X329316300Y-100242747D01*
X329257548Y-101067687D01*
X329207125Y-101765537D01*
X329165605Y-102328089D01*
X329133559Y-102747133D01*
X329111558Y-103014463D01*
X329100175Y-103121870D01*
X329099638Y-103123507D01*
X329012440Y-103151050D01*
X328770230Y-103212055D01*
X328383497Y-103304163D01*
X327862732Y-103425016D01*
X327218422Y-103572255D01*
X326461058Y-103743521D01*
X325601129Y-103936454D01*
X324649123Y-104148696D01*
X323615531Y-104377888D01*
X322510841Y-104621671D01*
X321345543Y-104877686D01*
X320130125Y-105143574D01*
X319699472Y-105237519D01*
X318466946Y-105506313D01*
X317279326Y-105765547D01*
X316147249Y-106012888D01*
X315081353Y-106246002D01*
X314092276Y-106462553D01*
X313190655Y-106660208D01*
X312387127Y-106836633D01*
X311692330Y-106989493D01*
X311116901Y-107116453D01*
X310671478Y-107215180D01*
X310366699Y-107283340D01*
X310213201Y-107318597D01*
X310197500Y-107322632D01*
X310089551Y-107321045D01*
X310051418Y-107198976D01*
X310049646Y-107130205D01*
X310055459Y-107019766D01*
X310072399Y-106749807D01*
X310099826Y-106329734D01*
X310137097Y-105768951D01*
X310183573Y-105076863D01*
X310238613Y-104262876D01*
X310301576Y-103336392D01*
X310371820Y-102306819D01*
X310448706Y-101183559D01*
X310531592Y-99976018D01*
X310619838Y-98693601D01*
X310712802Y-97345713D01*
X310809845Y-95941758D01*
X310910324Y-94491140D01*
X310939904Y-94064667D01*
X311053825Y-92420121D01*
X311178360Y-90617551D01*
X311312766Y-88667883D01*
X311456297Y-86582043D01*
X311608208Y-84370958D01*
X311767754Y-82045555D01*
X311934192Y-79616761D01*
X312106775Y-77095503D01*
X312284759Y-74492707D01*
X312467400Y-71819300D01*
X312653952Y-69086210D01*
X312843671Y-66304361D01*
X313035811Y-63484683D01*
X313229629Y-60638101D01*
X313424379Y-57775541D01*
X313619316Y-54907932D01*
X313813695Y-52046199D01*
X314006772Y-49201270D01*
X314197803Y-46384070D01*
X314386041Y-43605528D01*
X314570742Y-40876570D01*
X314751162Y-38208122D01*
X314926555Y-35611111D01*
X315096177Y-33096465D01*
X315129863Y-32596667D01*
X315217415Y-31299813D01*
X315302480Y-30044318D01*
X315384296Y-28841181D01*
X315462104Y-27701404D01*
X315535141Y-26635985D01*
X315602648Y-25655924D01*
X315663862Y-24772221D01*
X315718023Y-23995877D01*
X315764370Y-23337890D01*
X315802141Y-22809261D01*
X315830577Y-22420990D01*
X315848915Y-22184075D01*
X315854753Y-22119167D01*
X315903518Y-21674667D01*
X334775962Y-21674667D01*
X334723377Y-22330833D01*
G37*
G36*
X76623564Y-27830411D02*
G01*
X76657541Y-27929419D01*
X76720377Y-28169628D01*
X76806244Y-28526495D01*
X76909315Y-28975479D01*
X77023764Y-29492038D01*
X77081791Y-29760333D01*
X78044077Y-34121513D01*
X79039204Y-38390778D01*
X80065329Y-42562248D01*
X81120608Y-46630043D01*
X82203198Y-50588280D01*
X83311257Y-54431080D01*
X84442941Y-58152562D01*
X85596406Y-61746846D01*
X86769810Y-65208050D01*
X87961309Y-68530294D01*
X89169060Y-71707698D01*
X90391220Y-74734380D01*
X91625946Y-77604460D01*
X92871395Y-80312057D01*
X93030723Y-80645000D01*
X94438386Y-83462908D01*
X95885593Y-86136941D01*
X97387858Y-88690842D01*
X98960695Y-91148357D01*
X100619618Y-93533228D01*
X102380141Y-95869201D01*
X104257776Y-98180019D01*
X105228462Y-99314000D01*
X105680436Y-99819586D01*
X106232612Y-100414792D01*
X106862243Y-101076772D01*
X107546577Y-101782683D01*
X108262867Y-102509683D01*
X108988362Y-103234928D01*
X109700312Y-103935574D01*
X110375969Y-104588778D01*
X110992583Y-105171696D01*
X111527403Y-105661485D01*
X111717667Y-105829998D01*
X114308977Y-107990031D01*
X116964343Y-109993649D01*
X119685541Y-111841902D01*
X122474348Y-113535840D01*
X125332541Y-115076514D01*
X128261898Y-116464973D01*
X131264196Y-117702268D01*
X132715000Y-118236851D01*
X135152088Y-119041995D01*
X137641720Y-119749612D01*
X140161470Y-120355920D01*
X142688909Y-120857135D01*
X145201608Y-121249475D01*
X147677139Y-121529158D01*
X150093073Y-121692400D01*
X152426983Y-121735420D01*
X153352500Y-121717505D01*
X153877216Y-121702298D01*
X154339579Y-121690885D01*
X154714695Y-121683714D01*
X154977672Y-121681235D01*
X155103616Y-121683899D01*
X155110956Y-121685724D01*
X155128857Y-121769726D01*
X155180600Y-122008667D01*
X155263898Y-122392053D01*
X155376462Y-122909391D01*
X155516007Y-123550185D01*
X155680244Y-124303941D01*
X155866886Y-125160164D01*
X156073646Y-126108361D01*
X156298237Y-127138036D01*
X156538372Y-128238696D01*
X156791762Y-129399845D01*
X157056121Y-130610990D01*
X157136532Y-130979333D01*
X157403255Y-132203852D01*
X157658702Y-133382001D01*
X157900652Y-134503241D01*
X158126881Y-135557037D01*
X158335168Y-136532853D01*
X158523289Y-137420151D01*
X158689024Y-138208396D01*
X158830148Y-138887049D01*
X158944439Y-139445576D01*
X159029676Y-139873440D01*
X159083636Y-140160103D01*
X159104095Y-140295030D01*
X159103409Y-140304309D01*
X158979592Y-140342846D01*
X158704338Y-140378574D01*
X158295522Y-140411220D01*
X157771023Y-140440511D01*
X157148716Y-140466173D01*
X156446478Y-140487933D01*
X155682186Y-140505519D01*
X154873717Y-140518657D01*
X154038947Y-140527073D01*
X153195753Y-140530494D01*
X152362012Y-140528648D01*
X151555600Y-140521261D01*
X150794394Y-140508060D01*
X150096271Y-140488771D01*
X149479108Y-140463121D01*
X149309667Y-140453988D01*
X145730425Y-140183759D01*
X142261840Y-139789303D01*
X138898013Y-139269228D01*
X135633045Y-138622145D01*
X132461039Y-137846661D01*
X129376096Y-136941387D01*
X126372318Y-135904931D01*
X123443806Y-134735902D01*
X121623667Y-133925544D01*
X120843161Y-133552452D01*
X119949444Y-133105825D01*
X118972761Y-132602091D01*
X117943361Y-132057679D01*
X116891489Y-131489017D01*
X115847392Y-130912534D01*
X114841317Y-130344657D01*
X113903512Y-129801815D01*
X113064222Y-129300436D01*
X112733667Y-129097028D01*
X109982744Y-127321004D01*
X107389065Y-125511007D01*
X104942268Y-123657185D01*
X102631989Y-121749685D01*
X100447865Y-119778653D01*
X98379535Y-117734238D01*
X96416635Y-115606586D01*
X94548802Y-113385844D01*
X92765674Y-111062159D01*
X91056887Y-108625679D01*
X90803999Y-108246333D01*
X89669343Y-106485710D01*
X88641060Y-104786082D01*
X87693905Y-103101901D01*
X86802635Y-101387620D01*
X85942008Y-99597692D01*
X85618861Y-98890667D01*
X84956549Y-97365546D01*
X84272596Y-95680518D01*
X83569307Y-93843307D01*
X82848989Y-91861637D01*
X82113946Y-89743232D01*
X81366484Y-87495816D01*
X80608909Y-85127113D01*
X79843525Y-82644848D01*
X79072639Y-80056745D01*
X78298556Y-77370527D01*
X77523580Y-74593919D01*
X76750019Y-71734646D01*
X75980176Y-68800431D01*
X75216357Y-65798998D01*
X74460869Y-62738072D01*
X73716015Y-59625377D01*
X73072123Y-56853667D01*
X73009907Y-56578174D01*
X72916946Y-56161038D01*
X72795542Y-55612815D01*
X72647995Y-54944059D01*
X72476610Y-54165325D01*
X72283687Y-53287169D01*
X72071529Y-52320145D01*
X71842437Y-51274809D01*
X71598715Y-50161716D01*
X71342663Y-48991420D01*
X71076584Y-47774477D01*
X70802779Y-46521442D01*
X70523552Y-45242870D01*
X70241204Y-43949316D01*
X69958036Y-42651335D01*
X69676352Y-41359482D01*
X69398453Y-40084313D01*
X69126641Y-38836381D01*
X68863218Y-37626243D01*
X68610487Y-36464453D01*
X68370748Y-35361567D01*
X68146305Y-34328140D01*
X67939460Y-33374726D01*
X67752513Y-32511881D01*
X67587768Y-31750159D01*
X67447527Y-31100116D01*
X67334091Y-30572308D01*
X67249763Y-30177288D01*
X67196844Y-29925612D01*
X67177637Y-29827835D01*
X67177642Y-29826943D01*
X67266101Y-29798653D01*
X67501849Y-29740336D01*
X67866879Y-29655799D01*
X68343180Y-29548847D01*
X68912744Y-29423288D01*
X69557563Y-29282928D01*
X70259626Y-29131573D01*
X71000926Y-28973029D01*
X71763452Y-28811104D01*
X72529197Y-28649603D01*
X73280151Y-28492333D01*
X73998305Y-28343101D01*
X74665650Y-28205713D01*
X75264177Y-28083975D01*
X75775878Y-27981695D01*
X76182742Y-27902677D01*
X76466762Y-27850730D01*
X76609929Y-27829658D01*
X76623564Y-27830411D01*
G37*
M02*
