%TF.GenerationSoftware,KiCad,Pcbnew,(6.0.10)*%
%TF.CreationDate,2023-01-29T19:44:21-08:00*%
%TF.ProjectId,DecentXE-to-USB,44656365-6e74-4584-952d-746f2d555342,rev?*%
%TF.SameCoordinates,Original*%
%TF.FileFunction,Legend,Top*%
%TF.FilePolarity,Positive*%
%FSLAX46Y46*%
G04 Gerber Fmt 4.6, Leading zero omitted, Abs format (unit mm)*
G04 Created by KiCad (PCBNEW (6.0.10)) date 2023-01-29 19:44:21*
%MOMM*%
%LPD*%
G01*
G04 APERTURE LIST*
%ADD10C,0.150000*%
%ADD11C,0.120000*%
G04 APERTURE END LIST*
D10*
X44926380Y-72497904D02*
X44926380Y-71697904D01*
X45383523Y-72497904D01*
X45383523Y-71697904D01*
X45764476Y-72497904D02*
X45764476Y-71697904D01*
X46069238Y-71697904D01*
X46145428Y-71736000D01*
X46183523Y-71774095D01*
X46221619Y-71850285D01*
X46221619Y-71964571D01*
X46183523Y-72040761D01*
X46145428Y-72078857D01*
X46069238Y-72116952D01*
X45764476Y-72116952D01*
X46564476Y-72497904D02*
X46564476Y-71697904D01*
X47021619Y-72497904D01*
X47021619Y-71697904D01*
X49523619Y-69881714D02*
X49485523Y-69919809D01*
X49371238Y-69957904D01*
X49295047Y-69957904D01*
X49180761Y-69919809D01*
X49104571Y-69843619D01*
X49066476Y-69767428D01*
X49028380Y-69615047D01*
X49028380Y-69500761D01*
X49066476Y-69348380D01*
X49104571Y-69272190D01*
X49180761Y-69196000D01*
X49295047Y-69157904D01*
X49371238Y-69157904D01*
X49485523Y-69196000D01*
X49523619Y-69234095D01*
X42500571Y-69538857D02*
X42767238Y-69538857D01*
X42881523Y-69957904D02*
X42500571Y-69957904D01*
X42500571Y-69157904D01*
X42881523Y-69157904D01*
X46285142Y-65982857D02*
X46399428Y-66020952D01*
X46437523Y-66059047D01*
X46475619Y-66135238D01*
X46475619Y-66249523D01*
X46437523Y-66325714D01*
X46399428Y-66363809D01*
X46323238Y-66401904D01*
X46018476Y-66401904D01*
X46018476Y-65601904D01*
X46285142Y-65601904D01*
X46361333Y-65640000D01*
X46399428Y-65678095D01*
X46437523Y-65754285D01*
X46437523Y-65830476D01*
X46399428Y-65906666D01*
X46361333Y-65944761D01*
X46285142Y-65982857D01*
X46018476Y-65982857D01*
X17775880Y-71589333D02*
X18156833Y-71589333D01*
X17699690Y-71817904D02*
X17966357Y-71017904D01*
X18233023Y-71817904D01*
X18385404Y-71017904D02*
X18842547Y-71017904D01*
X18613976Y-71817904D02*
X18613976Y-71017904D01*
X19071119Y-71589333D02*
X19452071Y-71589333D01*
X18994928Y-71817904D02*
X19261595Y-71017904D01*
X19528261Y-71817904D01*
X20252071Y-71817904D02*
X19985404Y-71436952D01*
X19794928Y-71817904D02*
X19794928Y-71017904D01*
X20099690Y-71017904D01*
X20175880Y-71056000D01*
X20213976Y-71094095D01*
X20252071Y-71170285D01*
X20252071Y-71284571D01*
X20213976Y-71360761D01*
X20175880Y-71398857D01*
X20099690Y-71436952D01*
X19794928Y-71436952D01*
X20594928Y-71817904D02*
X20594928Y-71017904D01*
X21585404Y-71817904D02*
X21585404Y-71017904D01*
X21661595Y-71513142D02*
X21890166Y-71817904D01*
X21890166Y-71284571D02*
X21585404Y-71589333D01*
X22537785Y-71779809D02*
X22461595Y-71817904D01*
X22309214Y-71817904D01*
X22233023Y-71779809D01*
X22194928Y-71703619D01*
X22194928Y-71398857D01*
X22233023Y-71322666D01*
X22309214Y-71284571D01*
X22461595Y-71284571D01*
X22537785Y-71322666D01*
X22575880Y-71398857D01*
X22575880Y-71475047D01*
X22194928Y-71551238D01*
X22842547Y-71284571D02*
X23033023Y-71817904D01*
X23223500Y-71284571D02*
X23033023Y-71817904D01*
X22956833Y-72008380D01*
X22918738Y-72046476D01*
X22842547Y-72084571D01*
X23528261Y-71817904D02*
X23528261Y-71017904D01*
X23528261Y-71322666D02*
X23604452Y-71284571D01*
X23756833Y-71284571D01*
X23833023Y-71322666D01*
X23871119Y-71360761D01*
X23909214Y-71436952D01*
X23909214Y-71665523D01*
X23871119Y-71741714D01*
X23833023Y-71779809D01*
X23756833Y-71817904D01*
X23604452Y-71817904D01*
X23528261Y-71779809D01*
X24366357Y-71817904D02*
X24290166Y-71779809D01*
X24252071Y-71741714D01*
X24213976Y-71665523D01*
X24213976Y-71436952D01*
X24252071Y-71360761D01*
X24290166Y-71322666D01*
X24366357Y-71284571D01*
X24480642Y-71284571D01*
X24556833Y-71322666D01*
X24594928Y-71360761D01*
X24633023Y-71436952D01*
X24633023Y-71665523D01*
X24594928Y-71741714D01*
X24556833Y-71779809D01*
X24480642Y-71817904D01*
X24366357Y-71817904D01*
X25318738Y-71817904D02*
X25318738Y-71398857D01*
X25280642Y-71322666D01*
X25204452Y-71284571D01*
X25052071Y-71284571D01*
X24975880Y-71322666D01*
X25318738Y-71779809D02*
X25242547Y-71817904D01*
X25052071Y-71817904D01*
X24975880Y-71779809D01*
X24937785Y-71703619D01*
X24937785Y-71627428D01*
X24975880Y-71551238D01*
X25052071Y-71513142D01*
X25242547Y-71513142D01*
X25318738Y-71475047D01*
X25699690Y-71817904D02*
X25699690Y-71284571D01*
X25699690Y-71436952D02*
X25737785Y-71360761D01*
X25775880Y-71322666D01*
X25852071Y-71284571D01*
X25928261Y-71284571D01*
X26537785Y-71817904D02*
X26537785Y-71017904D01*
X26537785Y-71779809D02*
X26461595Y-71817904D01*
X26309214Y-71817904D01*
X26233023Y-71779809D01*
X26194928Y-71741714D01*
X26156833Y-71665523D01*
X26156833Y-71436952D01*
X26194928Y-71360761D01*
X26233023Y-71322666D01*
X26309214Y-71284571D01*
X26461595Y-71284571D01*
X26537785Y-71322666D01*
X27413976Y-71284571D02*
X27718738Y-71284571D01*
X27528261Y-71017904D02*
X27528261Y-71703619D01*
X27566357Y-71779809D01*
X27642547Y-71817904D01*
X27718738Y-71817904D01*
X28099690Y-71817904D02*
X28023500Y-71779809D01*
X27985404Y-71741714D01*
X27947309Y-71665523D01*
X27947309Y-71436952D01*
X27985404Y-71360761D01*
X28023500Y-71322666D01*
X28099690Y-71284571D01*
X28213976Y-71284571D01*
X28290166Y-71322666D01*
X28328261Y-71360761D01*
X28366357Y-71436952D01*
X28366357Y-71665523D01*
X28328261Y-71741714D01*
X28290166Y-71779809D01*
X28213976Y-71817904D01*
X28099690Y-71817904D01*
X29318738Y-71017904D02*
X29318738Y-71665523D01*
X29356833Y-71741714D01*
X29394928Y-71779809D01*
X29471119Y-71817904D01*
X29623500Y-71817904D01*
X29699690Y-71779809D01*
X29737785Y-71741714D01*
X29775880Y-71665523D01*
X29775880Y-71017904D01*
X30118738Y-71779809D02*
X30233023Y-71817904D01*
X30423500Y-71817904D01*
X30499690Y-71779809D01*
X30537785Y-71741714D01*
X30575880Y-71665523D01*
X30575880Y-71589333D01*
X30537785Y-71513142D01*
X30499690Y-71475047D01*
X30423500Y-71436952D01*
X30271119Y-71398857D01*
X30194928Y-71360761D01*
X30156833Y-71322666D01*
X30118738Y-71246476D01*
X30118738Y-71170285D01*
X30156833Y-71094095D01*
X30194928Y-71056000D01*
X30271119Y-71017904D01*
X30461595Y-71017904D01*
X30575880Y-71056000D01*
X31185404Y-71398857D02*
X31299690Y-71436952D01*
X31337785Y-71475047D01*
X31375880Y-71551238D01*
X31375880Y-71665523D01*
X31337785Y-71741714D01*
X31299690Y-71779809D01*
X31223500Y-71817904D01*
X30918738Y-71817904D01*
X30918738Y-71017904D01*
X31185404Y-71017904D01*
X31261595Y-71056000D01*
X31299690Y-71094095D01*
X31337785Y-71170285D01*
X31337785Y-71246476D01*
X31299690Y-71322666D01*
X31261595Y-71360761D01*
X31185404Y-71398857D01*
X30918738Y-71398857D01*
X32671119Y-71817904D02*
X32671119Y-71398857D01*
X32633023Y-71322666D01*
X32556833Y-71284571D01*
X32404452Y-71284571D01*
X32328261Y-71322666D01*
X32671119Y-71779809D02*
X32594928Y-71817904D01*
X32404452Y-71817904D01*
X32328261Y-71779809D01*
X32290166Y-71703619D01*
X32290166Y-71627428D01*
X32328261Y-71551238D01*
X32404452Y-71513142D01*
X32594928Y-71513142D01*
X32671119Y-71475047D01*
X33394928Y-71817904D02*
X33394928Y-71017904D01*
X33394928Y-71779809D02*
X33318738Y-71817904D01*
X33166357Y-71817904D01*
X33090166Y-71779809D01*
X33052071Y-71741714D01*
X33013976Y-71665523D01*
X33013976Y-71436952D01*
X33052071Y-71360761D01*
X33090166Y-71322666D01*
X33166357Y-71284571D01*
X33318738Y-71284571D01*
X33394928Y-71322666D01*
X34118738Y-71817904D02*
X34118738Y-71398857D01*
X34080642Y-71322666D01*
X34004452Y-71284571D01*
X33852071Y-71284571D01*
X33775880Y-71322666D01*
X34118738Y-71779809D02*
X34042547Y-71817904D01*
X33852071Y-71817904D01*
X33775880Y-71779809D01*
X33737785Y-71703619D01*
X33737785Y-71627428D01*
X33775880Y-71551238D01*
X33852071Y-71513142D01*
X34042547Y-71513142D01*
X34118738Y-71475047D01*
X34499690Y-71284571D02*
X34499690Y-72084571D01*
X34499690Y-71322666D02*
X34575880Y-71284571D01*
X34728261Y-71284571D01*
X34804452Y-71322666D01*
X34842547Y-71360761D01*
X34880642Y-71436952D01*
X34880642Y-71665523D01*
X34842547Y-71741714D01*
X34804452Y-71779809D01*
X34728261Y-71817904D01*
X34575880Y-71817904D01*
X34499690Y-71779809D01*
X35109214Y-71284571D02*
X35413976Y-71284571D01*
X35223500Y-71017904D02*
X35223500Y-71703619D01*
X35261595Y-71779809D01*
X35337785Y-71817904D01*
X35413976Y-71817904D01*
X35985404Y-71779809D02*
X35909214Y-71817904D01*
X35756833Y-71817904D01*
X35680642Y-71779809D01*
X35642547Y-71703619D01*
X35642547Y-71398857D01*
X35680642Y-71322666D01*
X35756833Y-71284571D01*
X35909214Y-71284571D01*
X35985404Y-71322666D01*
X36023500Y-71398857D01*
X36023500Y-71475047D01*
X35642547Y-71551238D01*
X36366357Y-71817904D02*
X36366357Y-71284571D01*
X36366357Y-71436952D02*
X36404452Y-71360761D01*
X36442547Y-71322666D01*
X36518738Y-71284571D01*
X36594928Y-71284571D01*
X37471119Y-71817904D02*
X37471119Y-71284571D01*
X37471119Y-71436952D02*
X37509214Y-71360761D01*
X37547309Y-71322666D01*
X37623500Y-71284571D01*
X37699690Y-71284571D01*
X38271119Y-71779809D02*
X38194928Y-71817904D01*
X38042547Y-71817904D01*
X37966357Y-71779809D01*
X37928261Y-71703619D01*
X37928261Y-71398857D01*
X37966357Y-71322666D01*
X38042547Y-71284571D01*
X38194928Y-71284571D01*
X38271119Y-71322666D01*
X38309214Y-71398857D01*
X38309214Y-71475047D01*
X37928261Y-71551238D01*
X38575880Y-71284571D02*
X38766357Y-71817904D01*
X38956833Y-71284571D01*
X39261595Y-71741714D02*
X39299690Y-71779809D01*
X39261595Y-71817904D01*
X39223500Y-71779809D01*
X39261595Y-71741714D01*
X39261595Y-71817904D01*
X40671119Y-71817904D02*
X40213976Y-71817904D01*
X40442547Y-71817904D02*
X40442547Y-71017904D01*
X40366357Y-71132190D01*
X40290166Y-71208380D01*
X40213976Y-71246476D01*
X18042547Y-73410666D02*
X18004452Y-73372571D01*
X17928261Y-73258285D01*
X17890166Y-73182095D01*
X17852071Y-73067809D01*
X17813976Y-72877333D01*
X17813976Y-72724952D01*
X17852071Y-72534476D01*
X17890166Y-72420190D01*
X17928261Y-72344000D01*
X18004452Y-72229714D01*
X18042547Y-72191619D01*
X18690166Y-73067809D02*
X18613976Y-73105904D01*
X18461595Y-73105904D01*
X18385404Y-73067809D01*
X18347309Y-73029714D01*
X18309214Y-72953523D01*
X18309214Y-72724952D01*
X18347309Y-72648761D01*
X18385404Y-72610666D01*
X18461595Y-72572571D01*
X18613976Y-72572571D01*
X18690166Y-72610666D01*
X18956833Y-73410666D02*
X18994928Y-73372571D01*
X19071119Y-73258285D01*
X19109214Y-73182095D01*
X19147309Y-73067809D01*
X19185404Y-72877333D01*
X19185404Y-72724952D01*
X19147309Y-72534476D01*
X19109214Y-72420190D01*
X19071119Y-72344000D01*
X18994928Y-72229714D01*
X18956833Y-72191619D01*
X20442547Y-72686857D02*
X20556833Y-72724952D01*
X20594928Y-72763047D01*
X20633023Y-72839238D01*
X20633023Y-72953523D01*
X20594928Y-73029714D01*
X20556833Y-73067809D01*
X20480642Y-73105904D01*
X20175880Y-73105904D01*
X20175880Y-72305904D01*
X20442547Y-72305904D01*
X20518738Y-72344000D01*
X20556833Y-72382095D01*
X20594928Y-72458285D01*
X20594928Y-72534476D01*
X20556833Y-72610666D01*
X20518738Y-72648761D01*
X20442547Y-72686857D01*
X20175880Y-72686857D01*
X21280642Y-73067809D02*
X21204452Y-73105904D01*
X21052071Y-73105904D01*
X20975880Y-73067809D01*
X20937785Y-72991619D01*
X20937785Y-72686857D01*
X20975880Y-72610666D01*
X21052071Y-72572571D01*
X21204452Y-72572571D01*
X21280642Y-72610666D01*
X21318738Y-72686857D01*
X21318738Y-72763047D01*
X20937785Y-72839238D01*
X21661595Y-73105904D02*
X21661595Y-72572571D01*
X21661595Y-72724952D02*
X21699690Y-72648761D01*
X21737785Y-72610666D01*
X21813976Y-72572571D01*
X21890166Y-72572571D01*
X22042547Y-72572571D02*
X22347309Y-72572571D01*
X22156833Y-72305904D02*
X22156833Y-72991619D01*
X22194928Y-73067809D01*
X22271119Y-73105904D01*
X22347309Y-73105904D01*
X22613976Y-73105904D02*
X22613976Y-72572571D01*
X22613976Y-72724952D02*
X22652071Y-72648761D01*
X22690166Y-72610666D01*
X22766357Y-72572571D01*
X22842547Y-72572571D01*
X23452071Y-73105904D02*
X23452071Y-72686857D01*
X23413976Y-72610666D01*
X23337785Y-72572571D01*
X23185404Y-72572571D01*
X23109214Y-72610666D01*
X23452071Y-73067809D02*
X23375880Y-73105904D01*
X23185404Y-73105904D01*
X23109214Y-73067809D01*
X23071119Y-72991619D01*
X23071119Y-72915428D01*
X23109214Y-72839238D01*
X23185404Y-72801142D01*
X23375880Y-72801142D01*
X23452071Y-72763047D01*
X23833023Y-72572571D02*
X23833023Y-73105904D01*
X23833023Y-72648761D02*
X23871119Y-72610666D01*
X23947309Y-72572571D01*
X24061595Y-72572571D01*
X24137785Y-72610666D01*
X24175880Y-72686857D01*
X24175880Y-73105904D01*
X24899690Y-73105904D02*
X24899690Y-72305904D01*
X24899690Y-73067809D02*
X24823500Y-73105904D01*
X24671119Y-73105904D01*
X24594928Y-73067809D01*
X24556833Y-73029714D01*
X24518738Y-72953523D01*
X24518738Y-72724952D01*
X24556833Y-72648761D01*
X24594928Y-72610666D01*
X24671119Y-72572571D01*
X24823500Y-72572571D01*
X24899690Y-72610666D01*
X26271119Y-73105904D02*
X25890166Y-73105904D01*
X25890166Y-72305904D01*
X26842547Y-73067809D02*
X26766357Y-73105904D01*
X26613976Y-73105904D01*
X26537785Y-73067809D01*
X26499690Y-72991619D01*
X26499690Y-72686857D01*
X26537785Y-72610666D01*
X26613976Y-72572571D01*
X26766357Y-72572571D01*
X26842547Y-72610666D01*
X26880642Y-72686857D01*
X26880642Y-72763047D01*
X26499690Y-72839238D01*
X28290166Y-73105904D02*
X28023500Y-72724952D01*
X27833023Y-73105904D02*
X27833023Y-72305904D01*
X28137785Y-72305904D01*
X28213976Y-72344000D01*
X28252071Y-72382095D01*
X28290166Y-72458285D01*
X28290166Y-72572571D01*
X28252071Y-72648761D01*
X28213976Y-72686857D01*
X28137785Y-72724952D01*
X27833023Y-72724952D01*
X28747309Y-73105904D02*
X28671119Y-73067809D01*
X28633023Y-73029714D01*
X28594928Y-72953523D01*
X28594928Y-72724952D01*
X28633023Y-72648761D01*
X28671119Y-72610666D01*
X28747309Y-72572571D01*
X28861595Y-72572571D01*
X28937785Y-72610666D01*
X28975880Y-72648761D01*
X29013976Y-72724952D01*
X29013976Y-72953523D01*
X28975880Y-73029714D01*
X28937785Y-73067809D01*
X28861595Y-73105904D01*
X28747309Y-73105904D01*
X29280642Y-72572571D02*
X29471119Y-73105904D01*
X29661595Y-72572571D02*
X29471119Y-73105904D01*
X29394928Y-73296380D01*
X29356833Y-73334476D01*
X29280642Y-73372571D01*
X30537785Y-72382095D02*
X30575880Y-72344000D01*
X30652071Y-72305904D01*
X30842547Y-72305904D01*
X30918738Y-72344000D01*
X30956833Y-72382095D01*
X30994928Y-72458285D01*
X30994928Y-72534476D01*
X30956833Y-72648761D01*
X30499690Y-73105904D01*
X30994928Y-73105904D01*
X31490166Y-72305904D02*
X31566357Y-72305904D01*
X31642547Y-72344000D01*
X31680642Y-72382095D01*
X31718738Y-72458285D01*
X31756833Y-72610666D01*
X31756833Y-72801142D01*
X31718738Y-72953523D01*
X31680642Y-73029714D01*
X31642547Y-73067809D01*
X31566357Y-73105904D01*
X31490166Y-73105904D01*
X31413976Y-73067809D01*
X31375880Y-73029714D01*
X31337785Y-72953523D01*
X31299690Y-72801142D01*
X31299690Y-72610666D01*
X31337785Y-72458285D01*
X31375880Y-72382095D01*
X31413976Y-72344000D01*
X31490166Y-72305904D01*
X32061595Y-72382095D02*
X32099690Y-72344000D01*
X32175880Y-72305904D01*
X32366357Y-72305904D01*
X32442547Y-72344000D01*
X32480642Y-72382095D01*
X32518738Y-72458285D01*
X32518738Y-72534476D01*
X32480642Y-72648761D01*
X32023500Y-73105904D01*
X32518738Y-73105904D01*
X32785404Y-72305904D02*
X33280642Y-72305904D01*
X33013976Y-72610666D01*
X33128261Y-72610666D01*
X33204452Y-72648761D01*
X33242547Y-72686857D01*
X33280642Y-72763047D01*
X33280642Y-72953523D01*
X33242547Y-73029714D01*
X33204452Y-73067809D01*
X33128261Y-73105904D01*
X32899690Y-73105904D01*
X32823499Y-73067809D01*
X32785404Y-73029714D01*
X17813976Y-74393904D02*
X17813976Y-73593904D01*
X18156833Y-74393904D02*
X18156833Y-73974857D01*
X18118738Y-73898666D01*
X18042547Y-73860571D01*
X17928261Y-73860571D01*
X17852071Y-73898666D01*
X17813976Y-73936761D01*
X18423500Y-73860571D02*
X18728261Y-73860571D01*
X18537785Y-73593904D02*
X18537785Y-74279619D01*
X18575880Y-74355809D01*
X18652071Y-74393904D01*
X18728261Y-74393904D01*
X18880642Y-73860571D02*
X19185404Y-73860571D01*
X18994928Y-73593904D02*
X18994928Y-74279619D01*
X19033023Y-74355809D01*
X19109214Y-74393904D01*
X19185404Y-74393904D01*
X19452071Y-73860571D02*
X19452071Y-74660571D01*
X19452071Y-73898666D02*
X19528261Y-73860571D01*
X19680642Y-73860571D01*
X19756833Y-73898666D01*
X19794928Y-73936761D01*
X19833023Y-74012952D01*
X19833023Y-74241523D01*
X19794928Y-74317714D01*
X19756833Y-74355809D01*
X19680642Y-74393904D01*
X19528261Y-74393904D01*
X19452071Y-74355809D01*
X20137785Y-74355809D02*
X20213976Y-74393904D01*
X20366357Y-74393904D01*
X20442547Y-74355809D01*
X20480642Y-74279619D01*
X20480642Y-74241523D01*
X20442547Y-74165333D01*
X20366357Y-74127238D01*
X20252071Y-74127238D01*
X20175880Y-74089142D01*
X20137785Y-74012952D01*
X20137785Y-73974857D01*
X20175880Y-73898666D01*
X20252071Y-73860571D01*
X20366357Y-73860571D01*
X20442547Y-73898666D01*
X20823500Y-74317714D02*
X20861595Y-74355809D01*
X20823500Y-74393904D01*
X20785404Y-74355809D01*
X20823500Y-74317714D01*
X20823500Y-74393904D01*
X20823500Y-73898666D02*
X20861595Y-73936761D01*
X20823500Y-73974857D01*
X20785404Y-73936761D01*
X20823500Y-73898666D01*
X20823500Y-73974857D01*
X21775880Y-73555809D02*
X21090166Y-74584380D01*
X22613976Y-73555809D02*
X21928261Y-74584380D01*
X23223500Y-73860571D02*
X23223500Y-74508190D01*
X23185404Y-74584380D01*
X23147309Y-74622476D01*
X23071119Y-74660571D01*
X22956833Y-74660571D01*
X22880642Y-74622476D01*
X23223500Y-74355809D02*
X23147309Y-74393904D01*
X22994928Y-74393904D01*
X22918738Y-74355809D01*
X22880642Y-74317714D01*
X22842547Y-74241523D01*
X22842547Y-74012952D01*
X22880642Y-73936761D01*
X22918738Y-73898666D01*
X22994928Y-73860571D01*
X23147309Y-73860571D01*
X23223500Y-73898666D01*
X23604452Y-74393904D02*
X23604452Y-73860571D01*
X23604452Y-73593904D02*
X23566357Y-73632000D01*
X23604452Y-73670095D01*
X23642547Y-73632000D01*
X23604452Y-73593904D01*
X23604452Y-73670095D01*
X23871119Y-73860571D02*
X24175880Y-73860571D01*
X23985404Y-73593904D02*
X23985404Y-74279619D01*
X24023500Y-74355809D01*
X24099690Y-74393904D01*
X24175880Y-74393904D01*
X24442547Y-74393904D02*
X24442547Y-73593904D01*
X24785404Y-74393904D02*
X24785404Y-73974857D01*
X24747309Y-73898666D01*
X24671119Y-73860571D01*
X24556833Y-73860571D01*
X24480642Y-73898666D01*
X24442547Y-73936761D01*
X25509214Y-73860571D02*
X25509214Y-74393904D01*
X25166357Y-73860571D02*
X25166357Y-74279619D01*
X25204452Y-74355809D01*
X25280642Y-74393904D01*
X25394928Y-74393904D01*
X25471119Y-74355809D01*
X25509214Y-74317714D01*
X25890166Y-74393904D02*
X25890166Y-73593904D01*
X25890166Y-73898666D02*
X25966357Y-73860571D01*
X26118738Y-73860571D01*
X26194928Y-73898666D01*
X26233023Y-73936761D01*
X26271119Y-74012952D01*
X26271119Y-74241523D01*
X26233023Y-74317714D01*
X26194928Y-74355809D01*
X26118738Y-74393904D01*
X25966357Y-74393904D01*
X25890166Y-74355809D01*
X26613976Y-74317714D02*
X26652071Y-74355809D01*
X26613976Y-74393904D01*
X26575880Y-74355809D01*
X26613976Y-74317714D01*
X26613976Y-74393904D01*
X27337785Y-74355809D02*
X27261595Y-74393904D01*
X27109214Y-74393904D01*
X27033023Y-74355809D01*
X26994928Y-74317714D01*
X26956833Y-74241523D01*
X26956833Y-74012952D01*
X26994928Y-73936761D01*
X27033023Y-73898666D01*
X27109214Y-73860571D01*
X27261595Y-73860571D01*
X27337785Y-73898666D01*
X27794928Y-74393904D02*
X27718738Y-74355809D01*
X27680642Y-74317714D01*
X27642547Y-74241523D01*
X27642547Y-74012952D01*
X27680642Y-73936761D01*
X27718738Y-73898666D01*
X27794928Y-73860571D01*
X27909214Y-73860571D01*
X27985404Y-73898666D01*
X28023500Y-73936761D01*
X28061595Y-74012952D01*
X28061595Y-74241523D01*
X28023500Y-74317714D01*
X27985404Y-74355809D01*
X27909214Y-74393904D01*
X27794928Y-74393904D01*
X28404452Y-74393904D02*
X28404452Y-73860571D01*
X28404452Y-73936761D02*
X28442547Y-73898666D01*
X28518738Y-73860571D01*
X28633023Y-73860571D01*
X28709214Y-73898666D01*
X28747309Y-73974857D01*
X28747309Y-74393904D01*
X28747309Y-73974857D02*
X28785404Y-73898666D01*
X28861595Y-73860571D01*
X28975880Y-73860571D01*
X29052071Y-73898666D01*
X29090166Y-73974857D01*
X29090166Y-74393904D01*
X30042547Y-73555809D02*
X29356833Y-74584380D01*
X30309214Y-74393904D02*
X30309214Y-73593904D01*
X30309214Y-73898666D02*
X30385404Y-73860571D01*
X30537785Y-73860571D01*
X30613976Y-73898666D01*
X30652071Y-73936761D01*
X30690166Y-74012952D01*
X30690166Y-74241523D01*
X30652071Y-74317714D01*
X30613976Y-74355809D01*
X30537785Y-74393904D01*
X30385404Y-74393904D01*
X30309214Y-74355809D01*
X31147309Y-74393904D02*
X31071119Y-74355809D01*
X31033023Y-74279619D01*
X31033023Y-73593904D01*
X31756833Y-74355809D02*
X31680642Y-74393904D01*
X31528261Y-74393904D01*
X31452071Y-74355809D01*
X31413976Y-74279619D01*
X31413976Y-73974857D01*
X31452071Y-73898666D01*
X31528261Y-73860571D01*
X31680642Y-73860571D01*
X31756833Y-73898666D01*
X31794928Y-73974857D01*
X31794928Y-74051047D01*
X31413976Y-74127238D01*
X32137785Y-74393904D02*
X32137785Y-73860571D01*
X32137785Y-74012952D02*
X32175880Y-73936761D01*
X32213976Y-73898666D01*
X32290166Y-73860571D01*
X32366357Y-73860571D01*
X32747309Y-74393904D02*
X32671119Y-74355809D01*
X32633023Y-74317714D01*
X32594928Y-74241523D01*
X32594928Y-74012952D01*
X32633023Y-73936761D01*
X32671119Y-73898666D01*
X32747309Y-73860571D01*
X32861595Y-73860571D01*
X32937785Y-73898666D01*
X32975880Y-73936761D01*
X33013976Y-74012952D01*
X33013976Y-74241523D01*
X32975880Y-74317714D01*
X32937785Y-74355809D01*
X32861595Y-74393904D01*
X32747309Y-74393904D01*
X33280642Y-73860571D02*
X33471119Y-74393904D01*
X33661595Y-73860571D02*
X33471119Y-74393904D01*
X33394928Y-74584380D01*
X33356833Y-74622476D01*
X33280642Y-74660571D01*
X34537785Y-73555809D02*
X33852071Y-74584380D01*
X34728261Y-73593904D02*
X35223500Y-73593904D01*
X34956833Y-73898666D01*
X35071119Y-73898666D01*
X35147309Y-73936761D01*
X35185404Y-73974857D01*
X35223500Y-74051047D01*
X35223500Y-74241523D01*
X35185404Y-74317714D01*
X35147309Y-74355809D01*
X35071119Y-74393904D01*
X34842547Y-74393904D01*
X34766357Y-74355809D01*
X34728261Y-74317714D01*
X35909214Y-74393904D02*
X35909214Y-73593904D01*
X35909214Y-74355809D02*
X35833023Y-74393904D01*
X35680642Y-74393904D01*
X35604452Y-74355809D01*
X35566357Y-74317714D01*
X35528261Y-74241523D01*
X35528261Y-74012952D01*
X35566357Y-73936761D01*
X35604452Y-73898666D01*
X35680642Y-73860571D01*
X35833023Y-73860571D01*
X35909214Y-73898666D01*
X36290166Y-74089142D02*
X36899690Y-74089142D01*
X37280642Y-73860571D02*
X37280642Y-74546285D01*
X37242547Y-74622476D01*
X37166357Y-74660571D01*
X37128261Y-74660571D01*
X37280642Y-73593904D02*
X37242547Y-73632000D01*
X37280642Y-73670095D01*
X37318738Y-73632000D01*
X37280642Y-73593904D01*
X37280642Y-73670095D01*
X38004452Y-73860571D02*
X38004452Y-74393904D01*
X37661595Y-73860571D02*
X37661595Y-74279619D01*
X37699690Y-74355809D01*
X37775880Y-74393904D01*
X37890166Y-74393904D01*
X37966357Y-74355809D01*
X38004452Y-74317714D01*
X38385404Y-73860571D02*
X38385404Y-74393904D01*
X38385404Y-73936761D02*
X38423500Y-73898666D01*
X38499690Y-73860571D01*
X38613976Y-73860571D01*
X38690166Y-73898666D01*
X38728261Y-73974857D01*
X38728261Y-74393904D01*
X39109214Y-74393904D02*
X39109214Y-73593904D01*
X39185404Y-74089142D02*
X39413976Y-74393904D01*
X39413976Y-73860571D02*
X39109214Y-74165333D01*
X39680642Y-73860571D02*
X39871119Y-74393904D01*
X40061595Y-73860571D02*
X39871119Y-74393904D01*
X39794928Y-74584380D01*
X39756833Y-74622476D01*
X39680642Y-74660571D01*
X40709214Y-74393904D02*
X40709214Y-73974857D01*
X40671119Y-73898666D01*
X40594928Y-73860571D01*
X40442547Y-73860571D01*
X40366357Y-73898666D01*
X40709214Y-74355809D02*
X40633023Y-74393904D01*
X40442547Y-74393904D01*
X40366357Y-74355809D01*
X40328261Y-74279619D01*
X40328261Y-74203428D01*
X40366357Y-74127238D01*
X40442547Y-74089142D01*
X40633023Y-74089142D01*
X40709214Y-74051047D01*
X41090166Y-74393904D02*
X41090166Y-73860571D01*
X41090166Y-74012952D02*
X41128261Y-73936761D01*
X41166357Y-73898666D01*
X41242547Y-73860571D01*
X41318738Y-73860571D01*
X41928261Y-74393904D02*
X41928261Y-73593904D01*
X41928261Y-74355809D02*
X41852071Y-74393904D01*
X41699690Y-74393904D01*
X41623500Y-74355809D01*
X41585404Y-74317714D01*
X41547309Y-74241523D01*
X41547309Y-74012952D01*
X41585404Y-73936761D01*
X41623500Y-73898666D01*
X41699690Y-73860571D01*
X41852071Y-73860571D01*
X41928261Y-73898666D01*
X42880642Y-73555809D02*
X42194928Y-74584380D01*
X43033023Y-73860571D02*
X43337785Y-73860571D01*
X43147309Y-73593904D02*
X43147309Y-74279619D01*
X43185404Y-74355809D01*
X43261595Y-74393904D01*
X43337785Y-74393904D01*
X43604452Y-74393904D02*
X43604452Y-73860571D01*
X43604452Y-74012952D02*
X43642547Y-73936761D01*
X43680642Y-73898666D01*
X43756833Y-73860571D01*
X43833023Y-73860571D01*
X44404452Y-74355809D02*
X44328261Y-74393904D01*
X44175880Y-74393904D01*
X44099690Y-74355809D01*
X44061595Y-74279619D01*
X44061595Y-73974857D01*
X44099690Y-73898666D01*
X44175880Y-73860571D01*
X44328261Y-73860571D01*
X44404452Y-73898666D01*
X44442547Y-73974857D01*
X44442547Y-74051047D01*
X44061595Y-74127238D01*
X45090166Y-74355809D02*
X45013976Y-74393904D01*
X44861595Y-74393904D01*
X44785404Y-74355809D01*
X44747309Y-74279619D01*
X44747309Y-73974857D01*
X44785404Y-73898666D01*
X44861595Y-73860571D01*
X45013976Y-73860571D01*
X45090166Y-73898666D01*
X45128261Y-73974857D01*
X45128261Y-74051047D01*
X44747309Y-74127238D01*
X46042547Y-73555809D02*
X45356833Y-74584380D01*
X46309214Y-74393904D02*
X46309214Y-73860571D01*
X46309214Y-73936761D02*
X46347309Y-73898666D01*
X46423500Y-73860571D01*
X46537785Y-73860571D01*
X46613976Y-73898666D01*
X46652071Y-73974857D01*
X46652071Y-74393904D01*
X46652071Y-73974857D02*
X46690166Y-73898666D01*
X46766357Y-73860571D01*
X46880642Y-73860571D01*
X46956833Y-73898666D01*
X46994928Y-73974857D01*
X46994928Y-74393904D01*
X47718738Y-74393904D02*
X47718738Y-73974857D01*
X47680642Y-73898666D01*
X47604452Y-73860571D01*
X47452071Y-73860571D01*
X47375880Y-73898666D01*
X47718738Y-74355809D02*
X47642547Y-74393904D01*
X47452071Y-74393904D01*
X47375880Y-74355809D01*
X47337785Y-74279619D01*
X47337785Y-74203428D01*
X47375880Y-74127238D01*
X47452071Y-74089142D01*
X47642547Y-74089142D01*
X47718738Y-74051047D01*
X48099690Y-74393904D02*
X48099690Y-73860571D01*
X48099690Y-73593904D02*
X48061595Y-73632000D01*
X48099690Y-73670095D01*
X48137785Y-73632000D01*
X48099690Y-73593904D01*
X48099690Y-73670095D01*
X48480642Y-73860571D02*
X48480642Y-74393904D01*
X48480642Y-73936761D02*
X48518738Y-73898666D01*
X48594928Y-73860571D01*
X48709214Y-73860571D01*
X48785404Y-73898666D01*
X48823500Y-73974857D01*
X48823500Y-74393904D01*
X49775880Y-73555809D02*
X49090166Y-74584380D01*
X50004452Y-74165333D02*
X50385404Y-74165333D01*
X49928261Y-74393904D02*
X50194928Y-73593904D01*
X50461595Y-74393904D01*
X50613976Y-73860571D02*
X50918738Y-73860571D01*
X50728261Y-73593904D02*
X50728261Y-74279619D01*
X50766357Y-74355809D01*
X50842547Y-74393904D01*
X50918738Y-74393904D01*
X51528261Y-74393904D02*
X51528261Y-73974857D01*
X51490166Y-73898666D01*
X51413976Y-73860571D01*
X51261595Y-73860571D01*
X51185404Y-73898666D01*
X51528261Y-74355809D02*
X51452071Y-74393904D01*
X51261595Y-74393904D01*
X51185404Y-74355809D01*
X51147309Y-74279619D01*
X51147309Y-74203428D01*
X51185404Y-74127238D01*
X51261595Y-74089142D01*
X51452071Y-74089142D01*
X51528261Y-74051047D01*
X51909214Y-74393904D02*
X51909214Y-73860571D01*
X51909214Y-74012952D02*
X51947309Y-73936761D01*
X51985404Y-73898666D01*
X52061595Y-73860571D01*
X52137785Y-73860571D01*
X52404452Y-74393904D02*
X52404452Y-73860571D01*
X52404452Y-73593904D02*
X52366357Y-73632000D01*
X52404452Y-73670095D01*
X52442547Y-73632000D01*
X52404452Y-73593904D01*
X52404452Y-73670095D01*
X53204452Y-74393904D02*
X52747309Y-74393904D01*
X52975880Y-74393904D02*
X52975880Y-73593904D01*
X52899690Y-73708190D01*
X52823500Y-73784380D01*
X52747309Y-73822476D01*
X53471119Y-73593904D02*
X53966357Y-73593904D01*
X53699690Y-73898666D01*
X53813976Y-73898666D01*
X53890166Y-73936761D01*
X53928261Y-73974857D01*
X53966357Y-74051047D01*
X53966357Y-74241523D01*
X53928261Y-74317714D01*
X53890166Y-74355809D01*
X53813976Y-74393904D01*
X53585404Y-74393904D01*
X53509214Y-74355809D01*
X53471119Y-74317714D01*
X54461595Y-73593904D02*
X54537785Y-73593904D01*
X54613976Y-73632000D01*
X54652071Y-73670095D01*
X54690166Y-73746285D01*
X54728261Y-73898666D01*
X54728261Y-74089142D01*
X54690166Y-74241523D01*
X54652071Y-74317714D01*
X54613976Y-74355809D01*
X54537785Y-74393904D01*
X54461595Y-74393904D01*
X54385404Y-74355809D01*
X54347309Y-74317714D01*
X54309214Y-74241523D01*
X54271119Y-74089142D01*
X54271119Y-73898666D01*
X54309214Y-73746285D01*
X54347309Y-73670095D01*
X54385404Y-73632000D01*
X54461595Y-73593904D01*
X55071119Y-74393904D02*
X55071119Y-73593904D01*
X55337785Y-74165333D01*
X55604452Y-73593904D01*
X55604452Y-74393904D01*
X55909214Y-73593904D02*
X56442547Y-74393904D01*
X56442547Y-73593904D02*
X55909214Y-74393904D01*
X17813976Y-75681904D02*
X17813976Y-74881904D01*
X18156833Y-75681904D02*
X18156833Y-75262857D01*
X18118738Y-75186666D01*
X18042547Y-75148571D01*
X17928261Y-75148571D01*
X17852071Y-75186666D01*
X17813976Y-75224761D01*
X18423500Y-75148571D02*
X18728261Y-75148571D01*
X18537785Y-74881904D02*
X18537785Y-75567619D01*
X18575880Y-75643809D01*
X18652071Y-75681904D01*
X18728261Y-75681904D01*
X18880642Y-75148571D02*
X19185404Y-75148571D01*
X18994928Y-74881904D02*
X18994928Y-75567619D01*
X19033023Y-75643809D01*
X19109214Y-75681904D01*
X19185404Y-75681904D01*
X19452071Y-75148571D02*
X19452071Y-75948571D01*
X19452071Y-75186666D02*
X19528261Y-75148571D01*
X19680642Y-75148571D01*
X19756833Y-75186666D01*
X19794928Y-75224761D01*
X19833023Y-75300952D01*
X19833023Y-75529523D01*
X19794928Y-75605714D01*
X19756833Y-75643809D01*
X19680642Y-75681904D01*
X19528261Y-75681904D01*
X19452071Y-75643809D01*
X20137785Y-75643809D02*
X20213976Y-75681904D01*
X20366357Y-75681904D01*
X20442547Y-75643809D01*
X20480642Y-75567619D01*
X20480642Y-75529523D01*
X20442547Y-75453333D01*
X20366357Y-75415238D01*
X20252071Y-75415238D01*
X20175880Y-75377142D01*
X20137785Y-75300952D01*
X20137785Y-75262857D01*
X20175880Y-75186666D01*
X20252071Y-75148571D01*
X20366357Y-75148571D01*
X20442547Y-75186666D01*
X20823500Y-75605714D02*
X20861595Y-75643809D01*
X20823500Y-75681904D01*
X20785404Y-75643809D01*
X20823500Y-75605714D01*
X20823500Y-75681904D01*
X20823500Y-75186666D02*
X20861595Y-75224761D01*
X20823500Y-75262857D01*
X20785404Y-75224761D01*
X20823500Y-75186666D01*
X20823500Y-75262857D01*
X21775880Y-74843809D02*
X21090166Y-75872380D01*
X22613976Y-74843809D02*
X21928261Y-75872380D01*
X23223500Y-75681904D02*
X23223500Y-75262857D01*
X23185404Y-75186666D01*
X23109214Y-75148571D01*
X22956833Y-75148571D01*
X22880642Y-75186666D01*
X23223500Y-75643809D02*
X23147309Y-75681904D01*
X22956833Y-75681904D01*
X22880642Y-75643809D01*
X22842547Y-75567619D01*
X22842547Y-75491428D01*
X22880642Y-75415238D01*
X22956833Y-75377142D01*
X23147309Y-75377142D01*
X23223500Y-75339047D01*
X23490166Y-75148571D02*
X23794928Y-75148571D01*
X23604452Y-74881904D02*
X23604452Y-75567619D01*
X23642547Y-75643809D01*
X23718738Y-75681904D01*
X23794928Y-75681904D01*
X24404452Y-75681904D02*
X24404452Y-75262857D01*
X24366357Y-75186666D01*
X24290166Y-75148571D01*
X24137785Y-75148571D01*
X24061595Y-75186666D01*
X24404452Y-75643809D02*
X24328261Y-75681904D01*
X24137785Y-75681904D01*
X24061595Y-75643809D01*
X24023500Y-75567619D01*
X24023500Y-75491428D01*
X24061595Y-75415238D01*
X24137785Y-75377142D01*
X24328261Y-75377142D01*
X24404452Y-75339047D01*
X24785404Y-75681904D02*
X24785404Y-75148571D01*
X24785404Y-75300952D02*
X24823500Y-75224761D01*
X24861595Y-75186666D01*
X24937785Y-75148571D01*
X25013976Y-75148571D01*
X25280642Y-75681904D02*
X25280642Y-75148571D01*
X25280642Y-74881904D02*
X25242547Y-74920000D01*
X25280642Y-74958095D01*
X25318738Y-74920000D01*
X25280642Y-74881904D01*
X25280642Y-74958095D01*
X26004452Y-75681904D02*
X26004452Y-75262857D01*
X25966357Y-75186666D01*
X25890166Y-75148571D01*
X25737785Y-75148571D01*
X25661595Y-75186666D01*
X26004452Y-75643809D02*
X25928261Y-75681904D01*
X25737785Y-75681904D01*
X25661595Y-75643809D01*
X25623500Y-75567619D01*
X25623500Y-75491428D01*
X25661595Y-75415238D01*
X25737785Y-75377142D01*
X25928261Y-75377142D01*
X26004452Y-75339047D01*
X26728261Y-75148571D02*
X26728261Y-75796190D01*
X26690166Y-75872380D01*
X26652071Y-75910476D01*
X26575880Y-75948571D01*
X26461595Y-75948571D01*
X26385404Y-75910476D01*
X26728261Y-75643809D02*
X26652071Y-75681904D01*
X26499690Y-75681904D01*
X26423500Y-75643809D01*
X26385404Y-75605714D01*
X26347309Y-75529523D01*
X26347309Y-75300952D01*
X26385404Y-75224761D01*
X26423500Y-75186666D01*
X26499690Y-75148571D01*
X26652071Y-75148571D01*
X26728261Y-75186666D01*
X27413976Y-75643809D02*
X27337785Y-75681904D01*
X27185404Y-75681904D01*
X27109214Y-75643809D01*
X27071119Y-75567619D01*
X27071119Y-75262857D01*
X27109214Y-75186666D01*
X27185404Y-75148571D01*
X27337785Y-75148571D01*
X27413976Y-75186666D01*
X27452071Y-75262857D01*
X27452071Y-75339047D01*
X27071119Y-75415238D01*
X27794928Y-75605714D02*
X27833023Y-75643809D01*
X27794928Y-75681904D01*
X27756833Y-75643809D01*
X27794928Y-75605714D01*
X27794928Y-75681904D01*
X28518738Y-75643809D02*
X28442547Y-75681904D01*
X28290166Y-75681904D01*
X28213976Y-75643809D01*
X28175880Y-75605714D01*
X28137785Y-75529523D01*
X28137785Y-75300952D01*
X28175880Y-75224761D01*
X28213976Y-75186666D01*
X28290166Y-75148571D01*
X28442547Y-75148571D01*
X28518738Y-75186666D01*
X28975880Y-75681904D02*
X28899690Y-75643809D01*
X28861595Y-75605714D01*
X28823499Y-75529523D01*
X28823499Y-75300952D01*
X28861595Y-75224761D01*
X28899690Y-75186666D01*
X28975880Y-75148571D01*
X29090166Y-75148571D01*
X29166357Y-75186666D01*
X29204452Y-75224761D01*
X29242547Y-75300952D01*
X29242547Y-75529523D01*
X29204452Y-75605714D01*
X29166357Y-75643809D01*
X29090166Y-75681904D01*
X28975880Y-75681904D01*
X29585404Y-75681904D02*
X29585404Y-75148571D01*
X29585404Y-75224761D02*
X29623500Y-75186666D01*
X29699690Y-75148571D01*
X29813976Y-75148571D01*
X29890166Y-75186666D01*
X29928261Y-75262857D01*
X29928261Y-75681904D01*
X29928261Y-75262857D02*
X29966357Y-75186666D01*
X30042547Y-75148571D01*
X30156833Y-75148571D01*
X30233023Y-75186666D01*
X30271119Y-75262857D01*
X30271119Y-75681904D01*
X31223499Y-74843809D02*
X30537785Y-75872380D01*
X31375880Y-75148571D02*
X31680642Y-75148571D01*
X31490166Y-75681904D02*
X31490166Y-74996190D01*
X31528261Y-74920000D01*
X31604452Y-74881904D01*
X31680642Y-74881904D01*
X32061595Y-75681904D02*
X31985404Y-75643809D01*
X31947309Y-75605714D01*
X31909214Y-75529523D01*
X31909214Y-75300952D01*
X31947309Y-75224761D01*
X31985404Y-75186666D01*
X32061595Y-75148571D01*
X32175880Y-75148571D01*
X32252071Y-75186666D01*
X32290166Y-75224761D01*
X32328261Y-75300952D01*
X32328261Y-75529523D01*
X32290166Y-75605714D01*
X32252071Y-75643809D01*
X32175880Y-75681904D01*
X32061595Y-75681904D01*
X32671119Y-75681904D02*
X32671119Y-75148571D01*
X32671119Y-75300952D02*
X32709214Y-75224761D01*
X32747309Y-75186666D01*
X32823500Y-75148571D01*
X32899690Y-75148571D01*
X33509214Y-75148571D02*
X33509214Y-75681904D01*
X33166357Y-75148571D02*
X33166357Y-75567619D01*
X33204452Y-75643809D01*
X33280642Y-75681904D01*
X33394928Y-75681904D01*
X33471119Y-75643809D01*
X33509214Y-75605714D01*
X33890166Y-75681904D02*
X33890166Y-75148571D01*
X33890166Y-75224761D02*
X33928261Y-75186666D01*
X34004452Y-75148571D01*
X34118738Y-75148571D01*
X34194928Y-75186666D01*
X34233023Y-75262857D01*
X34233023Y-75681904D01*
X34233023Y-75262857D02*
X34271119Y-75186666D01*
X34347309Y-75148571D01*
X34461595Y-75148571D01*
X34537785Y-75186666D01*
X34575880Y-75262857D01*
X34575880Y-75681904D01*
X34918738Y-75643809D02*
X34994928Y-75681904D01*
X35147309Y-75681904D01*
X35223500Y-75643809D01*
X35261595Y-75567619D01*
X35261595Y-75529523D01*
X35223500Y-75453333D01*
X35147309Y-75415238D01*
X35033023Y-75415238D01*
X34956833Y-75377142D01*
X34918738Y-75300952D01*
X34918738Y-75262857D01*
X34956833Y-75186666D01*
X35033023Y-75148571D01*
X35147309Y-75148571D01*
X35223500Y-75186666D01*
X36175880Y-74843809D02*
X35490166Y-75872380D01*
X36442547Y-75148571D02*
X36442547Y-75948571D01*
X36442547Y-75186666D02*
X36518738Y-75148571D01*
X36671119Y-75148571D01*
X36747309Y-75186666D01*
X36785404Y-75224761D01*
X36823500Y-75300952D01*
X36823500Y-75529523D01*
X36785404Y-75605714D01*
X36747309Y-75643809D01*
X36671119Y-75681904D01*
X36518738Y-75681904D01*
X36442547Y-75643809D01*
X37166357Y-75681904D02*
X37166357Y-75148571D01*
X37166357Y-75300952D02*
X37204452Y-75224761D01*
X37242547Y-75186666D01*
X37318738Y-75148571D01*
X37394928Y-75148571D01*
X37775880Y-75681904D02*
X37699690Y-75643809D01*
X37661595Y-75605714D01*
X37623500Y-75529523D01*
X37623500Y-75300952D01*
X37661595Y-75224761D01*
X37699690Y-75186666D01*
X37775880Y-75148571D01*
X37890166Y-75148571D01*
X37966357Y-75186666D01*
X38004452Y-75224761D01*
X38042547Y-75300952D01*
X38042547Y-75529523D01*
X38004452Y-75605714D01*
X37966357Y-75643809D01*
X37890166Y-75681904D01*
X37775880Y-75681904D01*
X38271119Y-75148571D02*
X38575880Y-75148571D01*
X38385404Y-75681904D02*
X38385404Y-74996190D01*
X38423500Y-74920000D01*
X38499690Y-74881904D01*
X38575880Y-74881904D01*
X38842547Y-75681904D02*
X38842547Y-75148571D01*
X38842547Y-74881904D02*
X38804452Y-74920000D01*
X38842547Y-74958095D01*
X38880642Y-74920000D01*
X38842547Y-74881904D01*
X38842547Y-74958095D01*
X39337785Y-75681904D02*
X39261595Y-75643809D01*
X39223500Y-75567619D01*
X39223500Y-74881904D01*
X39947309Y-75643809D02*
X39871119Y-75681904D01*
X39718738Y-75681904D01*
X39642547Y-75643809D01*
X39604452Y-75567619D01*
X39604452Y-75262857D01*
X39642547Y-75186666D01*
X39718738Y-75148571D01*
X39871119Y-75148571D01*
X39947309Y-75186666D01*
X39985404Y-75262857D01*
X39985404Y-75339047D01*
X39604452Y-75415238D01*
X40899690Y-74843809D02*
X40213976Y-75872380D01*
X41090166Y-74881904D02*
X41623500Y-74881904D01*
X41280642Y-75681904D01*
X42271119Y-74881904D02*
X42118738Y-74881904D01*
X42042547Y-74920000D01*
X42004452Y-74958095D01*
X41928261Y-75072380D01*
X41890166Y-75224761D01*
X41890166Y-75529523D01*
X41928261Y-75605714D01*
X41966357Y-75643809D01*
X42042547Y-75681904D01*
X42194928Y-75681904D01*
X42271119Y-75643809D01*
X42309214Y-75605714D01*
X42347309Y-75529523D01*
X42347309Y-75339047D01*
X42309214Y-75262857D01*
X42271119Y-75224761D01*
X42194928Y-75186666D01*
X42042547Y-75186666D01*
X41966357Y-75224761D01*
X41928261Y-75262857D01*
X41890166Y-75339047D01*
X42804452Y-75224761D02*
X42728261Y-75186666D01*
X42690166Y-75148571D01*
X42652071Y-75072380D01*
X42652071Y-75034285D01*
X42690166Y-74958095D01*
X42728261Y-74920000D01*
X42804452Y-74881904D01*
X42956833Y-74881904D01*
X43033023Y-74920000D01*
X43071119Y-74958095D01*
X43109214Y-75034285D01*
X43109214Y-75072380D01*
X43071119Y-75148571D01*
X43033023Y-75186666D01*
X42956833Y-75224761D01*
X42804452Y-75224761D01*
X42728261Y-75262857D01*
X42690166Y-75300952D01*
X42652071Y-75377142D01*
X42652071Y-75529523D01*
X42690166Y-75605714D01*
X42728261Y-75643809D01*
X42804452Y-75681904D01*
X42956833Y-75681904D01*
X43033023Y-75643809D01*
X43071119Y-75605714D01*
X43109214Y-75529523D01*
X43109214Y-75377142D01*
X43071119Y-75300952D01*
X43033023Y-75262857D01*
X42956833Y-75224761D01*
X43833023Y-74881904D02*
X43452071Y-74881904D01*
X43413976Y-75262857D01*
X43452071Y-75224761D01*
X43528261Y-75186666D01*
X43718738Y-75186666D01*
X43794928Y-75224761D01*
X43833023Y-75262857D01*
X43871119Y-75339047D01*
X43871119Y-75529523D01*
X43833023Y-75605714D01*
X43794928Y-75643809D01*
X43718738Y-75681904D01*
X43528261Y-75681904D01*
X43452071Y-75643809D01*
X43413976Y-75605714D01*
X44366357Y-74881904D02*
X44442547Y-74881904D01*
X44518738Y-74920000D01*
X44556833Y-74958095D01*
X44594928Y-75034285D01*
X44633023Y-75186666D01*
X44633023Y-75377142D01*
X44594928Y-75529523D01*
X44556833Y-75605714D01*
X44518738Y-75643809D01*
X44442547Y-75681904D01*
X44366357Y-75681904D01*
X44290166Y-75643809D01*
X44252071Y-75605714D01*
X44213976Y-75529523D01*
X44175880Y-75377142D01*
X44175880Y-75186666D01*
X44213976Y-75034285D01*
X44252071Y-74958095D01*
X44290166Y-74920000D01*
X44366357Y-74881904D01*
X44975880Y-75377142D02*
X45585404Y-75377142D01*
X45928261Y-75643809D02*
X46004452Y-75681904D01*
X46156833Y-75681904D01*
X46233023Y-75643809D01*
X46271119Y-75567619D01*
X46271119Y-75529523D01*
X46233023Y-75453333D01*
X46156833Y-75415238D01*
X46042547Y-75415238D01*
X45966357Y-75377142D01*
X45928261Y-75300952D01*
X45928261Y-75262857D01*
X45966357Y-75186666D01*
X46042547Y-75148571D01*
X46156833Y-75148571D01*
X46233023Y-75186666D01*
X46956833Y-75643809D02*
X46880642Y-75681904D01*
X46728261Y-75681904D01*
X46652071Y-75643809D01*
X46613976Y-75605714D01*
X46575880Y-75529523D01*
X46575880Y-75300952D01*
X46613976Y-75224761D01*
X46652071Y-75186666D01*
X46728261Y-75148571D01*
X46880642Y-75148571D01*
X46956833Y-75186666D01*
X47299690Y-75681904D02*
X47299690Y-75148571D01*
X47299690Y-75300952D02*
X47337785Y-75224761D01*
X47375880Y-75186666D01*
X47452071Y-75148571D01*
X47528261Y-75148571D01*
X48099690Y-75643809D02*
X48023500Y-75681904D01*
X47871119Y-75681904D01*
X47794928Y-75643809D01*
X47756833Y-75567619D01*
X47756833Y-75262857D01*
X47794928Y-75186666D01*
X47871119Y-75148571D01*
X48023500Y-75148571D01*
X48099690Y-75186666D01*
X48137785Y-75262857D01*
X48137785Y-75339047D01*
X47756833Y-75415238D01*
X48823500Y-75681904D02*
X48823500Y-75262857D01*
X48785404Y-75186666D01*
X48709214Y-75148571D01*
X48556833Y-75148571D01*
X48480642Y-75186666D01*
X48823500Y-75643809D02*
X48747309Y-75681904D01*
X48556833Y-75681904D01*
X48480642Y-75643809D01*
X48442547Y-75567619D01*
X48442547Y-75491428D01*
X48480642Y-75415238D01*
X48556833Y-75377142D01*
X48747309Y-75377142D01*
X48823500Y-75339047D01*
X49204452Y-75681904D02*
X49204452Y-75148571D01*
X49204452Y-75224761D02*
X49242547Y-75186666D01*
X49318738Y-75148571D01*
X49433023Y-75148571D01*
X49509214Y-75186666D01*
X49547309Y-75262857D01*
X49547309Y-75681904D01*
X49547309Y-75262857D02*
X49585404Y-75186666D01*
X49661595Y-75148571D01*
X49775880Y-75148571D01*
X49852071Y-75186666D01*
X49890166Y-75262857D01*
X49890166Y-75681904D01*
X50271119Y-75681904D02*
X50271119Y-75148571D01*
X50271119Y-74881904D02*
X50233023Y-74920000D01*
X50271119Y-74958095D01*
X50309214Y-74920000D01*
X50271119Y-74881904D01*
X50271119Y-74958095D01*
X50652071Y-75148571D02*
X50652071Y-75681904D01*
X50652071Y-75224761D02*
X50690166Y-75186666D01*
X50766357Y-75148571D01*
X50880642Y-75148571D01*
X50956833Y-75186666D01*
X50994928Y-75262857D01*
X50994928Y-75681904D01*
X51718738Y-75148571D02*
X51718738Y-75796190D01*
X51680642Y-75872380D01*
X51642547Y-75910476D01*
X51566357Y-75948571D01*
X51452071Y-75948571D01*
X51375880Y-75910476D01*
X51718738Y-75643809D02*
X51642547Y-75681904D01*
X51490166Y-75681904D01*
X51413976Y-75643809D01*
X51375880Y-75605714D01*
X51337785Y-75529523D01*
X51337785Y-75300952D01*
X51375880Y-75224761D01*
X51413976Y-75186666D01*
X51490166Y-75148571D01*
X51642547Y-75148571D01*
X51718738Y-75186666D01*
X52442547Y-75681904D02*
X52442547Y-75262857D01*
X52404452Y-75186666D01*
X52328261Y-75148571D01*
X52175880Y-75148571D01*
X52099690Y-75186666D01*
X52442547Y-75643809D02*
X52366357Y-75681904D01*
X52175880Y-75681904D01*
X52099690Y-75643809D01*
X52061595Y-75567619D01*
X52061595Y-75491428D01*
X52099690Y-75415238D01*
X52175880Y-75377142D01*
X52366357Y-75377142D01*
X52442547Y-75339047D01*
X52709214Y-75148571D02*
X53013976Y-75148571D01*
X52823500Y-74881904D02*
X52823500Y-75567619D01*
X52861595Y-75643809D01*
X52937785Y-75681904D01*
X53013976Y-75681904D01*
X53166357Y-75148571D02*
X53471119Y-75148571D01*
X53280642Y-74881904D02*
X53280642Y-75567619D01*
X53318738Y-75643809D01*
X53394928Y-75681904D01*
X53471119Y-75681904D01*
X53737785Y-75681904D02*
X53737785Y-74881904D01*
X54080642Y-75681904D02*
X54080642Y-75262857D01*
X54042547Y-75186666D01*
X53966357Y-75148571D01*
X53852071Y-75148571D01*
X53775880Y-75186666D01*
X53737785Y-75224761D01*
X54766357Y-75643809D02*
X54690166Y-75681904D01*
X54537785Y-75681904D01*
X54461595Y-75643809D01*
X54423500Y-75567619D01*
X54423500Y-75262857D01*
X54461595Y-75186666D01*
X54537785Y-75148571D01*
X54690166Y-75148571D01*
X54766357Y-75186666D01*
X54804452Y-75262857D01*
X54804452Y-75339047D01*
X54423500Y-75415238D01*
X55147309Y-75681904D02*
X55147309Y-75148571D01*
X55147309Y-75300952D02*
X55185404Y-75224761D01*
X55223500Y-75186666D01*
X55299690Y-75148571D01*
X55375880Y-75148571D01*
X55985404Y-75681904D02*
X55985404Y-75262857D01*
X55947309Y-75186666D01*
X55871119Y-75148571D01*
X55718738Y-75148571D01*
X55642547Y-75186666D01*
X55985404Y-75643809D02*
X55909214Y-75681904D01*
X55718738Y-75681904D01*
X55642547Y-75643809D01*
X55604452Y-75567619D01*
X55604452Y-75491428D01*
X55642547Y-75415238D01*
X55718738Y-75377142D01*
X55909214Y-75377142D01*
X55985404Y-75339047D01*
X56709214Y-75681904D02*
X56709214Y-74881904D01*
X56709214Y-75643809D02*
X56633023Y-75681904D01*
X56480642Y-75681904D01*
X56404452Y-75643809D01*
X56366357Y-75605714D01*
X56328261Y-75529523D01*
X56328261Y-75300952D01*
X56366357Y-75224761D01*
X56404452Y-75186666D01*
X56480642Y-75148571D01*
X56633023Y-75148571D01*
X56709214Y-75186666D01*
X57090166Y-75681904D02*
X57090166Y-75148571D01*
X57090166Y-74881904D02*
X57052071Y-74920000D01*
X57090166Y-74958095D01*
X57128261Y-74920000D01*
X57090166Y-74881904D01*
X57090166Y-74958095D01*
X57585404Y-75681904D02*
X57509214Y-75643809D01*
X57471119Y-75605714D01*
X57433023Y-75529523D01*
X57433023Y-75300952D01*
X57471119Y-75224761D01*
X57509214Y-75186666D01*
X57585404Y-75148571D01*
X57699690Y-75148571D01*
X57775880Y-75186666D01*
X57813976Y-75224761D01*
X57852071Y-75300952D01*
X57852071Y-75529523D01*
X57813976Y-75605714D01*
X57775880Y-75643809D01*
X57699690Y-75681904D01*
X57585404Y-75681904D01*
X58766357Y-74843809D02*
X58080642Y-75872380D01*
X17813976Y-76969904D02*
X17813976Y-76169904D01*
X18156833Y-76969904D02*
X18156833Y-76550857D01*
X18118738Y-76474666D01*
X18042547Y-76436571D01*
X17928261Y-76436571D01*
X17852071Y-76474666D01*
X17813976Y-76512761D01*
X18423500Y-76436571D02*
X18728261Y-76436571D01*
X18537785Y-76169904D02*
X18537785Y-76855619D01*
X18575880Y-76931809D01*
X18652071Y-76969904D01*
X18728261Y-76969904D01*
X18880642Y-76436571D02*
X19185404Y-76436571D01*
X18994928Y-76169904D02*
X18994928Y-76855619D01*
X19033023Y-76931809D01*
X19109214Y-76969904D01*
X19185404Y-76969904D01*
X19452071Y-76436571D02*
X19452071Y-77236571D01*
X19452071Y-76474666D02*
X19528261Y-76436571D01*
X19680642Y-76436571D01*
X19756833Y-76474666D01*
X19794928Y-76512761D01*
X19833023Y-76588952D01*
X19833023Y-76817523D01*
X19794928Y-76893714D01*
X19756833Y-76931809D01*
X19680642Y-76969904D01*
X19528261Y-76969904D01*
X19452071Y-76931809D01*
X20137785Y-76931809D02*
X20213976Y-76969904D01*
X20366357Y-76969904D01*
X20442547Y-76931809D01*
X20480642Y-76855619D01*
X20480642Y-76817523D01*
X20442547Y-76741333D01*
X20366357Y-76703238D01*
X20252071Y-76703238D01*
X20175880Y-76665142D01*
X20137785Y-76588952D01*
X20137785Y-76550857D01*
X20175880Y-76474666D01*
X20252071Y-76436571D01*
X20366357Y-76436571D01*
X20442547Y-76474666D01*
X20823500Y-76893714D02*
X20861595Y-76931809D01*
X20823500Y-76969904D01*
X20785404Y-76931809D01*
X20823500Y-76893714D01*
X20823500Y-76969904D01*
X20823500Y-76474666D02*
X20861595Y-76512761D01*
X20823500Y-76550857D01*
X20785404Y-76512761D01*
X20823500Y-76474666D01*
X20823500Y-76550857D01*
X21775880Y-76131809D02*
X21090166Y-77160380D01*
X22613976Y-76131809D02*
X21928261Y-77160380D01*
X22804452Y-76436571D02*
X22956833Y-76969904D01*
X23109214Y-76588952D01*
X23261595Y-76969904D01*
X23413976Y-76436571D01*
X23642547Y-76436571D02*
X23794928Y-76969904D01*
X23947309Y-76588952D01*
X24099690Y-76969904D01*
X24252071Y-76436571D01*
X24480642Y-76436571D02*
X24633023Y-76969904D01*
X24785404Y-76588952D01*
X24937785Y-76969904D01*
X25090166Y-76436571D01*
X25394928Y-76893714D02*
X25433023Y-76931809D01*
X25394928Y-76969904D01*
X25356833Y-76931809D01*
X25394928Y-76893714D01*
X25394928Y-76969904D01*
X25661595Y-76436571D02*
X25966357Y-76436571D01*
X25775880Y-76169904D02*
X25775880Y-76855619D01*
X25813976Y-76931809D01*
X25890166Y-76969904D01*
X25966357Y-76969904D01*
X26156833Y-76436571D02*
X26309214Y-76969904D01*
X26461595Y-76588952D01*
X26613976Y-76969904D01*
X26766357Y-76436571D01*
X27071119Y-76969904D02*
X27071119Y-76436571D01*
X27071119Y-76169904D02*
X27033023Y-76208000D01*
X27071119Y-76246095D01*
X27109214Y-76208000D01*
X27071119Y-76169904D01*
X27071119Y-76246095D01*
X27337785Y-76436571D02*
X27642547Y-76436571D01*
X27452071Y-76169904D02*
X27452071Y-76855619D01*
X27490166Y-76931809D01*
X27566357Y-76969904D01*
X27642547Y-76969904D01*
X28252071Y-76931809D02*
X28175880Y-76969904D01*
X28023500Y-76969904D01*
X27947309Y-76931809D01*
X27909214Y-76893714D01*
X27871119Y-76817523D01*
X27871119Y-76588952D01*
X27909214Y-76512761D01*
X27947309Y-76474666D01*
X28023500Y-76436571D01*
X28175880Y-76436571D01*
X28252071Y-76474666D01*
X28594928Y-76969904D02*
X28594928Y-76169904D01*
X28937785Y-76969904D02*
X28937785Y-76550857D01*
X28899690Y-76474666D01*
X28823500Y-76436571D01*
X28709214Y-76436571D01*
X28633023Y-76474666D01*
X28594928Y-76512761D01*
X29318738Y-76893714D02*
X29356833Y-76931809D01*
X29318738Y-76969904D01*
X29280642Y-76931809D01*
X29318738Y-76893714D01*
X29318738Y-76969904D01*
X29585404Y-76436571D02*
X29890166Y-76436571D01*
X29699690Y-76169904D02*
X29699690Y-76855619D01*
X29737785Y-76931809D01*
X29813976Y-76969904D01*
X29890166Y-76969904D01*
X30080642Y-76436571D02*
X30271119Y-76969904D01*
X30461595Y-76436571D01*
X31337785Y-76131809D02*
X30652071Y-77160380D01*
X31566357Y-76931809D02*
X31642547Y-76969904D01*
X31794928Y-76969904D01*
X31871119Y-76931809D01*
X31909214Y-76855619D01*
X31909214Y-76817523D01*
X31871119Y-76741333D01*
X31794928Y-76703238D01*
X31680642Y-76703238D01*
X31604452Y-76665142D01*
X31566357Y-76588952D01*
X31566357Y-76550857D01*
X31604452Y-76474666D01*
X31680642Y-76436571D01*
X31794928Y-76436571D01*
X31871119Y-76474666D01*
X32594928Y-76931809D02*
X32518738Y-76969904D01*
X32366357Y-76969904D01*
X32290166Y-76931809D01*
X32252071Y-76893714D01*
X32213976Y-76817523D01*
X32213976Y-76588952D01*
X32252071Y-76512761D01*
X32290166Y-76474666D01*
X32366357Y-76436571D01*
X32518738Y-76436571D01*
X32594928Y-76474666D01*
X32937785Y-76969904D02*
X32937785Y-76436571D01*
X32937785Y-76588952D02*
X32975880Y-76512761D01*
X33013976Y-76474666D01*
X33090166Y-76436571D01*
X33166357Y-76436571D01*
X33737785Y-76931809D02*
X33661595Y-76969904D01*
X33509214Y-76969904D01*
X33433023Y-76931809D01*
X33394928Y-76855619D01*
X33394928Y-76550857D01*
X33433023Y-76474666D01*
X33509214Y-76436571D01*
X33661595Y-76436571D01*
X33737785Y-76474666D01*
X33775880Y-76550857D01*
X33775880Y-76627047D01*
X33394928Y-76703238D01*
X34461595Y-76969904D02*
X34461595Y-76550857D01*
X34423500Y-76474666D01*
X34347309Y-76436571D01*
X34194928Y-76436571D01*
X34118738Y-76474666D01*
X34461595Y-76931809D02*
X34385404Y-76969904D01*
X34194928Y-76969904D01*
X34118738Y-76931809D01*
X34080642Y-76855619D01*
X34080642Y-76779428D01*
X34118738Y-76703238D01*
X34194928Y-76665142D01*
X34385404Y-76665142D01*
X34461595Y-76627047D01*
X34842547Y-76969904D02*
X34842547Y-76436571D01*
X34842547Y-76512761D02*
X34880642Y-76474666D01*
X34956833Y-76436571D01*
X35071119Y-76436571D01*
X35147309Y-76474666D01*
X35185404Y-76550857D01*
X35185404Y-76969904D01*
X35185404Y-76550857D02*
X35223500Y-76474666D01*
X35299690Y-76436571D01*
X35413976Y-76436571D01*
X35490166Y-76474666D01*
X35528261Y-76550857D01*
X35528261Y-76969904D01*
X35909214Y-76969904D02*
X35909214Y-76436571D01*
X35909214Y-76169904D02*
X35871119Y-76208000D01*
X35909214Y-76246095D01*
X35947309Y-76208000D01*
X35909214Y-76169904D01*
X35909214Y-76246095D01*
X36290166Y-76436571D02*
X36290166Y-76969904D01*
X36290166Y-76512761D02*
X36328261Y-76474666D01*
X36404452Y-76436571D01*
X36518738Y-76436571D01*
X36594928Y-76474666D01*
X36633023Y-76550857D01*
X36633023Y-76969904D01*
X37356833Y-76436571D02*
X37356833Y-77084190D01*
X37318738Y-77160380D01*
X37280642Y-77198476D01*
X37204452Y-77236571D01*
X37090166Y-77236571D01*
X37013976Y-77198476D01*
X37356833Y-76931809D02*
X37280642Y-76969904D01*
X37128261Y-76969904D01*
X37052071Y-76931809D01*
X37013976Y-76893714D01*
X36975880Y-76817523D01*
X36975880Y-76588952D01*
X37013976Y-76512761D01*
X37052071Y-76474666D01*
X37128261Y-76436571D01*
X37280642Y-76436571D01*
X37356833Y-76474666D01*
X38080642Y-76969904D02*
X38080642Y-76550857D01*
X38042547Y-76474666D01*
X37966357Y-76436571D01*
X37813976Y-76436571D01*
X37737785Y-76474666D01*
X38080642Y-76931809D02*
X38004452Y-76969904D01*
X37813976Y-76969904D01*
X37737785Y-76931809D01*
X37699690Y-76855619D01*
X37699690Y-76779428D01*
X37737785Y-76703238D01*
X37813976Y-76665142D01*
X38004452Y-76665142D01*
X38080642Y-76627047D01*
X38347309Y-76436571D02*
X38652071Y-76436571D01*
X38461595Y-76169904D02*
X38461595Y-76855619D01*
X38499690Y-76931809D01*
X38575880Y-76969904D01*
X38652071Y-76969904D01*
X38804452Y-76436571D02*
X39109214Y-76436571D01*
X38918738Y-76169904D02*
X38918738Y-76855619D01*
X38956833Y-76931809D01*
X39033023Y-76969904D01*
X39109214Y-76969904D01*
X39375880Y-76969904D02*
X39375880Y-76169904D01*
X39718738Y-76969904D02*
X39718738Y-76550857D01*
X39680642Y-76474666D01*
X39604452Y-76436571D01*
X39490166Y-76436571D01*
X39413976Y-76474666D01*
X39375880Y-76512761D01*
X40404452Y-76931809D02*
X40328261Y-76969904D01*
X40175880Y-76969904D01*
X40099690Y-76931809D01*
X40061595Y-76855619D01*
X40061595Y-76550857D01*
X40099690Y-76474666D01*
X40175880Y-76436571D01*
X40328261Y-76436571D01*
X40404452Y-76474666D01*
X40442547Y-76550857D01*
X40442547Y-76627047D01*
X40061595Y-76703238D01*
X40785404Y-76969904D02*
X40785404Y-76436571D01*
X40785404Y-76588952D02*
X40823500Y-76512761D01*
X40861595Y-76474666D01*
X40937785Y-76436571D01*
X41013976Y-76436571D01*
X41623500Y-76969904D02*
X41623500Y-76550857D01*
X41585404Y-76474666D01*
X41509214Y-76436571D01*
X41356833Y-76436571D01*
X41280642Y-76474666D01*
X41623500Y-76931809D02*
X41547309Y-76969904D01*
X41356833Y-76969904D01*
X41280642Y-76931809D01*
X41242547Y-76855619D01*
X41242547Y-76779428D01*
X41280642Y-76703238D01*
X41356833Y-76665142D01*
X41547309Y-76665142D01*
X41623500Y-76627047D01*
X42347309Y-76969904D02*
X42347309Y-76169904D01*
X42347309Y-76931809D02*
X42271119Y-76969904D01*
X42118738Y-76969904D01*
X42042547Y-76931809D01*
X42004452Y-76893714D01*
X41966357Y-76817523D01*
X41966357Y-76588952D01*
X42004452Y-76512761D01*
X42042547Y-76474666D01*
X42118738Y-76436571D01*
X42271119Y-76436571D01*
X42347309Y-76474666D01*
X42728261Y-76969904D02*
X42728261Y-76436571D01*
X42728261Y-76169904D02*
X42690166Y-76208000D01*
X42728261Y-76246095D01*
X42766357Y-76208000D01*
X42728261Y-76169904D01*
X42728261Y-76246095D01*
X43223499Y-76969904D02*
X43147309Y-76931809D01*
X43109214Y-76893714D01*
X43071119Y-76817523D01*
X43071119Y-76588952D01*
X43109214Y-76512761D01*
X43147309Y-76474666D01*
X43223499Y-76436571D01*
X43337785Y-76436571D01*
X43413976Y-76474666D01*
X43452071Y-76512761D01*
X43490166Y-76588952D01*
X43490166Y-76817523D01*
X43452071Y-76893714D01*
X43413976Y-76931809D01*
X43337785Y-76969904D01*
X43223499Y-76969904D01*
X17813976Y-78257904D02*
X17813976Y-77457904D01*
X18156833Y-78257904D02*
X18156833Y-77838857D01*
X18118738Y-77762666D01*
X18042547Y-77724571D01*
X17928261Y-77724571D01*
X17852071Y-77762666D01*
X17813976Y-77800761D01*
X18423500Y-77724571D02*
X18728261Y-77724571D01*
X18537785Y-77457904D02*
X18537785Y-78143619D01*
X18575880Y-78219809D01*
X18652071Y-78257904D01*
X18728261Y-78257904D01*
X18880642Y-77724571D02*
X19185404Y-77724571D01*
X18994928Y-77457904D02*
X18994928Y-78143619D01*
X19033023Y-78219809D01*
X19109214Y-78257904D01*
X19185404Y-78257904D01*
X19452071Y-77724571D02*
X19452071Y-78524571D01*
X19452071Y-77762666D02*
X19528261Y-77724571D01*
X19680642Y-77724571D01*
X19756833Y-77762666D01*
X19794928Y-77800761D01*
X19833023Y-77876952D01*
X19833023Y-78105523D01*
X19794928Y-78181714D01*
X19756833Y-78219809D01*
X19680642Y-78257904D01*
X19528261Y-78257904D01*
X19452071Y-78219809D01*
X20137785Y-78219809D02*
X20213976Y-78257904D01*
X20366357Y-78257904D01*
X20442547Y-78219809D01*
X20480642Y-78143619D01*
X20480642Y-78105523D01*
X20442547Y-78029333D01*
X20366357Y-77991238D01*
X20252071Y-77991238D01*
X20175880Y-77953142D01*
X20137785Y-77876952D01*
X20137785Y-77838857D01*
X20175880Y-77762666D01*
X20252071Y-77724571D01*
X20366357Y-77724571D01*
X20442547Y-77762666D01*
X20823500Y-78181714D02*
X20861595Y-78219809D01*
X20823500Y-78257904D01*
X20785404Y-78219809D01*
X20823500Y-78181714D01*
X20823500Y-78257904D01*
X20823500Y-77762666D02*
X20861595Y-77800761D01*
X20823500Y-77838857D01*
X20785404Y-77800761D01*
X20823500Y-77762666D01*
X20823500Y-77838857D01*
X21775880Y-77419809D02*
X21090166Y-78448380D01*
X22613976Y-77419809D02*
X21928261Y-78448380D01*
X22804452Y-77724571D02*
X22956833Y-78257904D01*
X23109214Y-77876952D01*
X23261595Y-78257904D01*
X23413976Y-77724571D01*
X23642547Y-77724571D02*
X23794928Y-78257904D01*
X23947309Y-77876952D01*
X24099690Y-78257904D01*
X24252071Y-77724571D01*
X24480642Y-77724571D02*
X24633023Y-78257904D01*
X24785404Y-77876952D01*
X24937785Y-78257904D01*
X25090166Y-77724571D01*
X25394928Y-78181714D02*
X25433023Y-78219809D01*
X25394928Y-78257904D01*
X25356833Y-78219809D01*
X25394928Y-78181714D01*
X25394928Y-78257904D01*
X25699690Y-77724571D02*
X25890166Y-78257904D01*
X26080642Y-77724571D02*
X25890166Y-78257904D01*
X25813976Y-78448380D01*
X25775880Y-78486476D01*
X25699690Y-78524571D01*
X26499690Y-78257904D02*
X26423500Y-78219809D01*
X26385404Y-78181714D01*
X26347309Y-78105523D01*
X26347309Y-77876952D01*
X26385404Y-77800761D01*
X26423500Y-77762666D01*
X26499690Y-77724571D01*
X26613976Y-77724571D01*
X26690166Y-77762666D01*
X26728261Y-77800761D01*
X26766357Y-77876952D01*
X26766357Y-78105523D01*
X26728261Y-78181714D01*
X26690166Y-78219809D01*
X26613976Y-78257904D01*
X26499690Y-78257904D01*
X27452071Y-77724571D02*
X27452071Y-78257904D01*
X27109214Y-77724571D02*
X27109214Y-78143619D01*
X27147309Y-78219809D01*
X27223500Y-78257904D01*
X27337785Y-78257904D01*
X27413976Y-78219809D01*
X27452071Y-78181714D01*
X27718738Y-77724571D02*
X28023500Y-77724571D01*
X27833023Y-77457904D02*
X27833023Y-78143619D01*
X27871119Y-78219809D01*
X27947309Y-78257904D01*
X28023500Y-78257904D01*
X28633023Y-77724571D02*
X28633023Y-78257904D01*
X28290166Y-77724571D02*
X28290166Y-78143619D01*
X28328261Y-78219809D01*
X28404452Y-78257904D01*
X28518738Y-78257904D01*
X28594928Y-78219809D01*
X28633023Y-78181714D01*
X29013976Y-78257904D02*
X29013976Y-77457904D01*
X29013976Y-77762666D02*
X29090166Y-77724571D01*
X29242547Y-77724571D01*
X29318738Y-77762666D01*
X29356833Y-77800761D01*
X29394928Y-77876952D01*
X29394928Y-78105523D01*
X29356833Y-78181714D01*
X29318738Y-78219809D01*
X29242547Y-78257904D01*
X29090166Y-78257904D01*
X29013976Y-78219809D01*
X30042547Y-78219809D02*
X29966357Y-78257904D01*
X29813976Y-78257904D01*
X29737785Y-78219809D01*
X29699690Y-78143619D01*
X29699690Y-77838857D01*
X29737785Y-77762666D01*
X29813976Y-77724571D01*
X29966357Y-77724571D01*
X30042547Y-77762666D01*
X30080642Y-77838857D01*
X30080642Y-77915047D01*
X29699690Y-77991238D01*
X30423500Y-78181714D02*
X30461595Y-78219809D01*
X30423500Y-78257904D01*
X30385404Y-78219809D01*
X30423500Y-78181714D01*
X30423500Y-78257904D01*
X31147309Y-78219809D02*
X31071119Y-78257904D01*
X30918738Y-78257904D01*
X30842547Y-78219809D01*
X30804452Y-78181714D01*
X30766357Y-78105523D01*
X30766357Y-77876952D01*
X30804452Y-77800761D01*
X30842547Y-77762666D01*
X30918738Y-77724571D01*
X31071119Y-77724571D01*
X31147309Y-77762666D01*
X31604452Y-78257904D02*
X31528261Y-78219809D01*
X31490166Y-78181714D01*
X31452071Y-78105523D01*
X31452071Y-77876952D01*
X31490166Y-77800761D01*
X31528261Y-77762666D01*
X31604452Y-77724571D01*
X31718738Y-77724571D01*
X31794928Y-77762666D01*
X31833023Y-77800761D01*
X31871119Y-77876952D01*
X31871119Y-78105523D01*
X31833023Y-78181714D01*
X31794928Y-78219809D01*
X31718738Y-78257904D01*
X31604452Y-78257904D01*
X32213976Y-78257904D02*
X32213976Y-77724571D01*
X32213976Y-77800761D02*
X32252071Y-77762666D01*
X32328261Y-77724571D01*
X32442547Y-77724571D01*
X32518738Y-77762666D01*
X32556833Y-77838857D01*
X32556833Y-78257904D01*
X32556833Y-77838857D02*
X32594928Y-77762666D01*
X32671119Y-77724571D01*
X32785404Y-77724571D01*
X32861595Y-77762666D01*
X32899690Y-77838857D01*
X32899690Y-78257904D01*
X33852071Y-77419809D02*
X33166357Y-78448380D01*
X34613976Y-77876952D02*
X34575880Y-77838857D01*
X34499690Y-77800761D01*
X34423500Y-77800761D01*
X34347309Y-77838857D01*
X34309214Y-77876952D01*
X34271119Y-77953142D01*
X34271119Y-78029333D01*
X34309214Y-78105523D01*
X34347309Y-78143619D01*
X34423500Y-78181714D01*
X34499690Y-78181714D01*
X34575880Y-78143619D01*
X34613976Y-78105523D01*
X34613976Y-77800761D02*
X34613976Y-78105523D01*
X34652071Y-78143619D01*
X34690166Y-78143619D01*
X34766357Y-78105523D01*
X34804452Y-78029333D01*
X34804452Y-77838857D01*
X34728261Y-77724571D01*
X34613976Y-77648380D01*
X34461595Y-77610285D01*
X34309214Y-77648380D01*
X34194928Y-77724571D01*
X34118738Y-77838857D01*
X34080642Y-77991238D01*
X34118738Y-78143619D01*
X34194928Y-78257904D01*
X34309214Y-78334095D01*
X34461595Y-78372190D01*
X34613976Y-78334095D01*
X34728261Y-78257904D01*
X35109214Y-78219809D02*
X35223500Y-78257904D01*
X35413976Y-78257904D01*
X35490166Y-78219809D01*
X35528261Y-78181714D01*
X35566357Y-78105523D01*
X35566357Y-78029333D01*
X35528261Y-77953142D01*
X35490166Y-77915047D01*
X35413976Y-77876952D01*
X35261595Y-77838857D01*
X35185404Y-77800761D01*
X35147309Y-77762666D01*
X35109214Y-77686476D01*
X35109214Y-77610285D01*
X35147309Y-77534095D01*
X35185404Y-77496000D01*
X35261595Y-77457904D01*
X35452071Y-77457904D01*
X35566357Y-77496000D01*
X36252071Y-78219809D02*
X36175880Y-78257904D01*
X36023500Y-78257904D01*
X35947309Y-78219809D01*
X35909214Y-78181714D01*
X35871119Y-78105523D01*
X35871119Y-77876952D01*
X35909214Y-77800761D01*
X35947309Y-77762666D01*
X36023500Y-77724571D01*
X36175880Y-77724571D01*
X36252071Y-77762666D01*
X36594928Y-78257904D02*
X36594928Y-77724571D01*
X36594928Y-77876952D02*
X36633023Y-77800761D01*
X36671119Y-77762666D01*
X36747309Y-77724571D01*
X36823500Y-77724571D01*
X37394928Y-78219809D02*
X37318738Y-78257904D01*
X37166357Y-78257904D01*
X37090166Y-78219809D01*
X37052071Y-78143619D01*
X37052071Y-77838857D01*
X37090166Y-77762666D01*
X37166357Y-77724571D01*
X37318738Y-77724571D01*
X37394928Y-77762666D01*
X37433023Y-77838857D01*
X37433023Y-77915047D01*
X37052071Y-77991238D01*
X38118738Y-78257904D02*
X38118738Y-77838857D01*
X38080642Y-77762666D01*
X38004452Y-77724571D01*
X37852071Y-77724571D01*
X37775880Y-77762666D01*
X38118738Y-78219809D02*
X38042547Y-78257904D01*
X37852071Y-78257904D01*
X37775880Y-78219809D01*
X37737785Y-78143619D01*
X37737785Y-78067428D01*
X37775880Y-77991238D01*
X37852071Y-77953142D01*
X38042547Y-77953142D01*
X38118738Y-77915047D01*
X38499690Y-78257904D02*
X38499690Y-77724571D01*
X38499690Y-77800761D02*
X38537785Y-77762666D01*
X38613976Y-77724571D01*
X38728261Y-77724571D01*
X38804452Y-77762666D01*
X38842547Y-77838857D01*
X38842547Y-78257904D01*
X38842547Y-77838857D02*
X38880642Y-77762666D01*
X38956833Y-77724571D01*
X39071119Y-77724571D01*
X39147309Y-77762666D01*
X39185404Y-77838857D01*
X39185404Y-78257904D01*
X39566357Y-78257904D02*
X39566357Y-77724571D01*
X39566357Y-77457904D02*
X39528261Y-77496000D01*
X39566357Y-77534095D01*
X39604452Y-77496000D01*
X39566357Y-77457904D01*
X39566357Y-77534095D01*
X39947309Y-77724571D02*
X39947309Y-78257904D01*
X39947309Y-77800761D02*
X39985404Y-77762666D01*
X40061595Y-77724571D01*
X40175880Y-77724571D01*
X40252071Y-77762666D01*
X40290166Y-77838857D01*
X40290166Y-78257904D01*
X41013976Y-77724571D02*
X41013976Y-78372190D01*
X40975880Y-78448380D01*
X40937785Y-78486476D01*
X40861595Y-78524571D01*
X40747309Y-78524571D01*
X40671119Y-78486476D01*
X41013976Y-78219809D02*
X40937785Y-78257904D01*
X40785404Y-78257904D01*
X40709214Y-78219809D01*
X40671119Y-78181714D01*
X40633023Y-78105523D01*
X40633023Y-77876952D01*
X40671119Y-77800761D01*
X40709214Y-77762666D01*
X40785404Y-77724571D01*
X40937785Y-77724571D01*
X41013976Y-77762666D01*
X41356833Y-78029333D02*
X41737785Y-78029333D01*
X41280642Y-78257904D02*
X41547309Y-77457904D01*
X41813976Y-78257904D01*
X41966357Y-77724571D02*
X42271119Y-77724571D01*
X42080642Y-77457904D02*
X42080642Y-78143619D01*
X42118738Y-78219809D01*
X42194928Y-78257904D01*
X42271119Y-78257904D01*
X42423500Y-77457904D02*
X42880642Y-77457904D01*
X42652071Y-78257904D02*
X42652071Y-77457904D01*
X43147309Y-78257904D02*
X43147309Y-77457904D01*
X43490166Y-78257904D02*
X43490166Y-77838857D01*
X43452071Y-77762666D01*
X43375880Y-77724571D01*
X43261595Y-77724571D01*
X43185404Y-77762666D01*
X43147309Y-77800761D01*
X44175880Y-78219809D02*
X44099690Y-78257904D01*
X43947309Y-78257904D01*
X43871119Y-78219809D01*
X43833023Y-78143619D01*
X43833023Y-77838857D01*
X43871119Y-77762666D01*
X43947309Y-77724571D01*
X44099690Y-77724571D01*
X44175880Y-77762666D01*
X44213976Y-77838857D01*
X44213976Y-77915047D01*
X43833023Y-77991238D01*
X45013976Y-78257904D02*
X44747309Y-77876952D01*
X44556833Y-78257904D02*
X44556833Y-77457904D01*
X44861595Y-77457904D01*
X44937785Y-77496000D01*
X44975880Y-77534095D01*
X45013976Y-77610285D01*
X45013976Y-77724571D01*
X44975880Y-77800761D01*
X44937785Y-77838857D01*
X44861595Y-77876952D01*
X44556833Y-77876952D01*
X45699690Y-78257904D02*
X45699690Y-77838857D01*
X45661595Y-77762666D01*
X45585404Y-77724571D01*
X45433023Y-77724571D01*
X45356833Y-77762666D01*
X45699690Y-78219809D02*
X45623500Y-78257904D01*
X45433023Y-78257904D01*
X45356833Y-78219809D01*
X45318738Y-78143619D01*
X45318738Y-78067428D01*
X45356833Y-77991238D01*
X45433023Y-77953142D01*
X45623500Y-77953142D01*
X45699690Y-77915047D01*
X46423500Y-78257904D02*
X46423500Y-77457904D01*
X46423500Y-78219809D02*
X46347309Y-78257904D01*
X46194928Y-78257904D01*
X46118738Y-78219809D01*
X46080642Y-78181714D01*
X46042547Y-78105523D01*
X46042547Y-77876952D01*
X46080642Y-77800761D01*
X46118738Y-77762666D01*
X46194928Y-77724571D01*
X46347309Y-77724571D01*
X46423500Y-77762666D01*
X46804452Y-78257904D02*
X46804452Y-77724571D01*
X46804452Y-77457904D02*
X46766357Y-77496000D01*
X46804452Y-77534095D01*
X46842547Y-77496000D01*
X46804452Y-77457904D01*
X46804452Y-77534095D01*
X47299690Y-78257904D02*
X47223500Y-78219809D01*
X47185404Y-78181714D01*
X47147309Y-78105523D01*
X47147309Y-77876952D01*
X47185404Y-77800761D01*
X47223500Y-77762666D01*
X47299690Y-77724571D01*
X47413976Y-77724571D01*
X47490166Y-77762666D01*
X47528261Y-77800761D01*
X47566357Y-77876952D01*
X47566357Y-78105523D01*
X47528261Y-78181714D01*
X47490166Y-78219809D01*
X47413976Y-78257904D01*
X47299690Y-78257904D01*
%TO.C,U2*%
X61936380Y-37845904D02*
X62745904Y-37845904D01*
X62841142Y-37798285D01*
X62888761Y-37750666D01*
X62936380Y-37655428D01*
X62936380Y-37464952D01*
X62888761Y-37369714D01*
X62841142Y-37322095D01*
X62745904Y-37274476D01*
X61936380Y-37274476D01*
X62031619Y-36845904D02*
X61984000Y-36798285D01*
X61936380Y-36703047D01*
X61936380Y-36464952D01*
X61984000Y-36369714D01*
X62031619Y-36322095D01*
X62126857Y-36274476D01*
X62222095Y-36274476D01*
X62364952Y-36322095D01*
X62936380Y-36893523D01*
X62936380Y-36274476D01*
X62841142Y-31043047D02*
X62888761Y-31090666D01*
X62936380Y-31233523D01*
X62936380Y-31328761D01*
X62888761Y-31471619D01*
X62793523Y-31566857D01*
X62698285Y-31614476D01*
X62507809Y-31662095D01*
X62364952Y-31662095D01*
X62174476Y-31614476D01*
X62079238Y-31566857D01*
X61984000Y-31471619D01*
X61936380Y-31328761D01*
X61936380Y-31233523D01*
X61984000Y-31090666D01*
X62031619Y-31043047D01*
X62936380Y-30614476D02*
X61936380Y-30614476D01*
X61936380Y-30376380D01*
X61984000Y-30233523D01*
X62079238Y-30138285D01*
X62174476Y-30090666D01*
X62364952Y-30043047D01*
X62507809Y-30043047D01*
X62698285Y-30090666D01*
X62793523Y-30138285D01*
X62888761Y-30233523D01*
X62936380Y-30376380D01*
X62936380Y-30614476D01*
X62269714Y-29185904D02*
X62936380Y-29185904D01*
X61888761Y-29424000D02*
X62603047Y-29662095D01*
X62603047Y-29043047D01*
X61936380Y-28185904D02*
X61936380Y-28662095D01*
X62412571Y-28709714D01*
X62364952Y-28662095D01*
X62317333Y-28566857D01*
X62317333Y-28328761D01*
X62364952Y-28233523D01*
X62412571Y-28185904D01*
X62507809Y-28138285D01*
X62745904Y-28138285D01*
X62841142Y-28185904D01*
X62888761Y-28233523D01*
X62936380Y-28328761D01*
X62936380Y-28566857D01*
X62888761Y-28662095D01*
X62841142Y-28709714D01*
X62936380Y-27185904D02*
X62936380Y-27757333D01*
X62936380Y-27471619D02*
X61936380Y-27471619D01*
X62079238Y-27566857D01*
X62174476Y-27662095D01*
X62222095Y-27757333D01*
X62269714Y-26328761D02*
X62936380Y-26328761D01*
X61888761Y-26566857D02*
X62603047Y-26804952D01*
X62603047Y-26185904D01*
X62412571Y-25471619D02*
X62460190Y-25328761D01*
X62507809Y-25281142D01*
X62603047Y-25233523D01*
X62745904Y-25233523D01*
X62841142Y-25281142D01*
X62888761Y-25328761D01*
X62936380Y-25424000D01*
X62936380Y-25804952D01*
X61936380Y-25804952D01*
X61936380Y-25471619D01*
X61984000Y-25376380D01*
X62031619Y-25328761D01*
X62126857Y-25281142D01*
X62222095Y-25281142D01*
X62317333Y-25328761D01*
X62364952Y-25376380D01*
X62412571Y-25471619D01*
X62412571Y-25804952D01*
X62936380Y-24804952D02*
X61936380Y-24804952D01*
X62650666Y-24471619D01*
X61936380Y-24138285D01*
X62936380Y-24138285D01*
X62936380Y-23614476D02*
X62936380Y-23424000D01*
X62888761Y-23328761D01*
X62841142Y-23281142D01*
X62698285Y-23185904D01*
X62507809Y-23138285D01*
X62126857Y-23138285D01*
X62031619Y-23185904D01*
X61984000Y-23233523D01*
X61936380Y-23328761D01*
X61936380Y-23519238D01*
X61984000Y-23614476D01*
X62031619Y-23662095D01*
X62126857Y-23709714D01*
X62364952Y-23709714D01*
X62460190Y-23662095D01*
X62507809Y-23614476D01*
X62555428Y-23519238D01*
X62555428Y-23328761D01*
X62507809Y-23233523D01*
X62460190Y-23185904D01*
X62364952Y-23138285D01*
X61936380Y-22281142D02*
X61936380Y-22471619D01*
X61984000Y-22566857D01*
X62031619Y-22614476D01*
X62174476Y-22709714D01*
X62364952Y-22757333D01*
X62745904Y-22757333D01*
X62841142Y-22709714D01*
X62888761Y-22662095D01*
X62936380Y-22566857D01*
X62936380Y-22376380D01*
X62888761Y-22281142D01*
X62841142Y-22233523D01*
X62745904Y-22185904D01*
X62507809Y-22185904D01*
X62412571Y-22233523D01*
X62364952Y-22281142D01*
X62317333Y-22376380D01*
X62317333Y-22566857D01*
X62364952Y-22662095D01*
X62412571Y-22709714D01*
X62507809Y-22757333D01*
%TO.C,R1*%
X14676380Y-32424666D02*
X14200190Y-32758000D01*
X14676380Y-32996095D02*
X13676380Y-32996095D01*
X13676380Y-32615142D01*
X13724000Y-32519904D01*
X13771619Y-32472285D01*
X13866857Y-32424666D01*
X14009714Y-32424666D01*
X14104952Y-32472285D01*
X14152571Y-32519904D01*
X14200190Y-32615142D01*
X14200190Y-32996095D01*
X14676380Y-31472285D02*
X14676380Y-32043714D01*
X14676380Y-31758000D02*
X13676380Y-31758000D01*
X13819238Y-31853238D01*
X13914476Y-31948476D01*
X13962095Y-32043714D01*
X16200380Y-33686666D02*
X16200380Y-34258095D01*
X16200380Y-33972380D02*
X15200380Y-33972380D01*
X15343238Y-34067619D01*
X15438476Y-34162857D01*
X15486095Y-34258095D01*
X15200380Y-33067619D02*
X15200380Y-32972380D01*
X15248000Y-32877142D01*
X15295619Y-32829523D01*
X15390857Y-32781904D01*
X15581333Y-32734285D01*
X15819428Y-32734285D01*
X16009904Y-32781904D01*
X16105142Y-32829523D01*
X16152761Y-32877142D01*
X16200380Y-32972380D01*
X16200380Y-33067619D01*
X16152761Y-33162857D01*
X16105142Y-33210476D01*
X16009904Y-33258095D01*
X15819428Y-33305714D01*
X15581333Y-33305714D01*
X15390857Y-33258095D01*
X15295619Y-33210476D01*
X15248000Y-33162857D01*
X15200380Y-33067619D01*
X15200380Y-32115238D02*
X15200380Y-32020000D01*
X15248000Y-31924761D01*
X15295619Y-31877142D01*
X15390857Y-31829523D01*
X15581333Y-31781904D01*
X15819428Y-31781904D01*
X16009904Y-31829523D01*
X16105142Y-31877142D01*
X16152761Y-31924761D01*
X16200380Y-32020000D01*
X16200380Y-32115238D01*
X16152761Y-32210476D01*
X16105142Y-32258095D01*
X16009904Y-32305714D01*
X15819428Y-32353333D01*
X15581333Y-32353333D01*
X15390857Y-32305714D01*
X15295619Y-32258095D01*
X15248000Y-32210476D01*
X15200380Y-32115238D01*
%TO.C,R4*%
X14652380Y-72302666D02*
X14176190Y-72636000D01*
X14652380Y-72874095D02*
X13652380Y-72874095D01*
X13652380Y-72493142D01*
X13700000Y-72397904D01*
X13747619Y-72350285D01*
X13842857Y-72302666D01*
X13985714Y-72302666D01*
X14080952Y-72350285D01*
X14128571Y-72397904D01*
X14176190Y-72493142D01*
X14176190Y-72874095D01*
X13985714Y-71445523D02*
X14652380Y-71445523D01*
X13604761Y-71683619D02*
X14319047Y-71921714D01*
X14319047Y-71302666D01*
X16200380Y-73310666D02*
X16200380Y-73882095D01*
X16200380Y-73596380D02*
X15200380Y-73596380D01*
X15343238Y-73691619D01*
X15438476Y-73786857D01*
X15486095Y-73882095D01*
X15200380Y-72691619D02*
X15200380Y-72596380D01*
X15248000Y-72501142D01*
X15295619Y-72453523D01*
X15390857Y-72405904D01*
X15581333Y-72358285D01*
X15819428Y-72358285D01*
X16009904Y-72405904D01*
X16105142Y-72453523D01*
X16152761Y-72501142D01*
X16200380Y-72596380D01*
X16200380Y-72691619D01*
X16152761Y-72786857D01*
X16105142Y-72834476D01*
X16009904Y-72882095D01*
X15819428Y-72929714D01*
X15581333Y-72929714D01*
X15390857Y-72882095D01*
X15295619Y-72834476D01*
X15248000Y-72786857D01*
X15200380Y-72691619D01*
X15200380Y-71739238D02*
X15200380Y-71644000D01*
X15248000Y-71548761D01*
X15295619Y-71501142D01*
X15390857Y-71453523D01*
X15581333Y-71405904D01*
X15819428Y-71405904D01*
X16009904Y-71453523D01*
X16105142Y-71501142D01*
X16152761Y-71548761D01*
X16200380Y-71644000D01*
X16200380Y-71739238D01*
X16152761Y-71834476D01*
X16105142Y-71882095D01*
X16009904Y-71929714D01*
X15819428Y-71977333D01*
X15581333Y-71977333D01*
X15390857Y-71929714D01*
X15295619Y-71882095D01*
X15248000Y-71834476D01*
X15200380Y-71739238D01*
%TO.C,Q1*%
X42322761Y-71413619D02*
X42227523Y-71366000D01*
X42132285Y-71270761D01*
X41989428Y-71127904D01*
X41894190Y-71080285D01*
X41798952Y-71080285D01*
X41846571Y-71318380D02*
X41751333Y-71270761D01*
X41656095Y-71175523D01*
X41608476Y-70985047D01*
X41608476Y-70651714D01*
X41656095Y-70461238D01*
X41751333Y-70366000D01*
X41846571Y-70318380D01*
X42037047Y-70318380D01*
X42132285Y-70366000D01*
X42227523Y-70461238D01*
X42275142Y-70651714D01*
X42275142Y-70985047D01*
X42227523Y-71175523D01*
X42132285Y-71270761D01*
X42037047Y-71318380D01*
X41846571Y-71318380D01*
X43227523Y-71318380D02*
X42656095Y-71318380D01*
X42941809Y-71318380D02*
X42941809Y-70318380D01*
X42846571Y-70461238D01*
X42751333Y-70556476D01*
X42656095Y-70604095D01*
%TO.C,U1*%
X30275095Y-41595380D02*
X30275095Y-42404904D01*
X30322714Y-42500142D01*
X30370333Y-42547761D01*
X30465571Y-42595380D01*
X30656047Y-42595380D01*
X30751285Y-42547761D01*
X30798904Y-42500142D01*
X30846523Y-42404904D01*
X30846523Y-41595380D01*
X31846523Y-42595380D02*
X31275095Y-42595380D01*
X31560809Y-42595380D02*
X31560809Y-41595380D01*
X31465571Y-41738238D01*
X31370333Y-41833476D01*
X31275095Y-41881095D01*
X28537000Y-44754380D02*
X28537000Y-43754380D01*
X28917952Y-43754380D01*
X29013190Y-43802000D01*
X29060809Y-43849619D01*
X29108428Y-43944857D01*
X29108428Y-44087714D01*
X29060809Y-44182952D01*
X29013190Y-44230571D01*
X28917952Y-44278190D01*
X28537000Y-44278190D01*
X29537000Y-44754380D02*
X29537000Y-44087714D01*
X29537000Y-43754380D02*
X29489380Y-43802000D01*
X29537000Y-43849619D01*
X29584619Y-43802000D01*
X29537000Y-43754380D01*
X29537000Y-43849619D01*
X30775095Y-44754380D02*
X30775095Y-43754380D01*
X31156047Y-43754380D01*
X31251285Y-43802000D01*
X31298904Y-43849619D01*
X31346523Y-43944857D01*
X31346523Y-44087714D01*
X31298904Y-44182952D01*
X31251285Y-44230571D01*
X31156047Y-44278190D01*
X30775095Y-44278190D01*
X31775095Y-44754380D02*
X31775095Y-44087714D01*
X31775095Y-43754380D02*
X31727476Y-43802000D01*
X31775095Y-43849619D01*
X31822714Y-43802000D01*
X31775095Y-43754380D01*
X31775095Y-43849619D01*
X32679857Y-44706761D02*
X32584619Y-44754380D01*
X32394142Y-44754380D01*
X32298904Y-44706761D01*
X32251285Y-44659142D01*
X32203666Y-44563904D01*
X32203666Y-44278190D01*
X32251285Y-44182952D01*
X32298904Y-44135333D01*
X32394142Y-44087714D01*
X32584619Y-44087714D01*
X32679857Y-44135333D01*
X33251285Y-44754380D02*
X33156047Y-44706761D01*
X33108428Y-44659142D01*
X33060809Y-44563904D01*
X33060809Y-44278190D01*
X33108428Y-44182952D01*
X33156047Y-44135333D01*
X33251285Y-44087714D01*
X33394142Y-44087714D01*
X33489380Y-44135333D01*
X33537000Y-44182952D01*
X33584619Y-44278190D01*
X33584619Y-44563904D01*
X33537000Y-44659142D01*
X33489380Y-44706761D01*
X33394142Y-44754380D01*
X33251285Y-44754380D01*
X43293722Y-41030592D02*
X43212910Y-41057529D01*
X43132097Y-41138341D01*
X43078223Y-41246091D01*
X43078223Y-41353841D01*
X43105160Y-41434653D01*
X43185972Y-41569340D01*
X43266784Y-41650152D01*
X43401471Y-41730964D01*
X43482284Y-41757902D01*
X43590033Y-41757902D01*
X43697783Y-41704027D01*
X43751658Y-41650152D01*
X43805532Y-41542402D01*
X43805532Y-41488528D01*
X43616971Y-41299966D01*
X43509221Y-41407715D01*
X44101844Y-41299966D02*
X43536158Y-40734280D01*
X43751658Y-40518781D01*
X43832470Y-40491844D01*
X43886345Y-40491844D01*
X43967157Y-40518781D01*
X44047969Y-40599593D01*
X44074906Y-40680406D01*
X44074906Y-40734280D01*
X44047969Y-40815093D01*
X43832470Y-41030592D01*
X44128781Y-40249407D02*
X44128781Y-40195532D01*
X44155719Y-40114720D01*
X44290406Y-39980033D01*
X44371218Y-39953096D01*
X44425093Y-39953096D01*
X44505905Y-39980033D01*
X44559780Y-40033908D01*
X44613654Y-40141658D01*
X44613654Y-40788155D01*
X44963841Y-40437969D01*
X44883028Y-39387410D02*
X44775279Y-39495160D01*
X44748341Y-39575972D01*
X44748341Y-39629847D01*
X44775279Y-39764534D01*
X44856091Y-39899221D01*
X45071590Y-40114720D01*
X45152402Y-40141658D01*
X45206277Y-40141658D01*
X45287089Y-40114720D01*
X45394839Y-40006971D01*
X45421776Y-39926158D01*
X45421776Y-39872284D01*
X45394839Y-39791471D01*
X45260152Y-39656784D01*
X45179340Y-39629847D01*
X45125465Y-39629847D01*
X45044653Y-39656784D01*
X44936903Y-39764534D01*
X44909966Y-39845346D01*
X44909966Y-39899221D01*
X44936903Y-39980033D01*
X43134722Y-66663592D02*
X43053910Y-66690529D01*
X42973097Y-66771341D01*
X42919223Y-66879091D01*
X42919223Y-66986841D01*
X42946160Y-67067653D01*
X43026972Y-67202340D01*
X43107784Y-67283152D01*
X43242471Y-67363964D01*
X43323284Y-67390902D01*
X43431033Y-67390902D01*
X43538783Y-67337027D01*
X43592658Y-67283152D01*
X43646532Y-67175402D01*
X43646532Y-67121528D01*
X43457971Y-66932966D01*
X43350221Y-67040715D01*
X43942844Y-66932966D02*
X43377158Y-66367280D01*
X43592658Y-66151781D01*
X43673470Y-66124844D01*
X43727345Y-66124844D01*
X43808157Y-66151781D01*
X43888969Y-66232593D01*
X43915906Y-66313406D01*
X43915906Y-66367280D01*
X43888969Y-66448093D01*
X43673470Y-66663592D01*
X44804841Y-66070969D02*
X44481592Y-66394218D01*
X44643216Y-66232593D02*
X44077531Y-65666908D01*
X44104468Y-65801595D01*
X44104468Y-65909345D01*
X44077531Y-65990157D01*
X44724028Y-65020410D02*
X44616279Y-65128160D01*
X44589341Y-65208972D01*
X44589341Y-65262847D01*
X44616279Y-65397534D01*
X44697091Y-65532221D01*
X44912590Y-65747720D01*
X44993402Y-65774658D01*
X45047277Y-65774658D01*
X45128089Y-65747720D01*
X45235839Y-65639971D01*
X45262776Y-65559158D01*
X45262776Y-65505284D01*
X45235839Y-65424471D01*
X45101152Y-65289784D01*
X45020340Y-65262847D01*
X44966465Y-65262847D01*
X44885653Y-65289784D01*
X44777903Y-65397534D01*
X44750966Y-65478346D01*
X44750966Y-65532221D01*
X44777903Y-65613033D01*
X17523158Y-35941155D02*
X17442346Y-35968093D01*
X17361534Y-36048905D01*
X17307659Y-36156654D01*
X17307659Y-36264404D01*
X17334597Y-36345216D01*
X17415409Y-36479903D01*
X17496221Y-36560715D01*
X17630908Y-36641528D01*
X17711720Y-36668465D01*
X17819470Y-36668465D01*
X17927219Y-36614590D01*
X17981094Y-36560715D01*
X18034969Y-36452966D01*
X18034969Y-36399091D01*
X17846407Y-36210529D01*
X17738658Y-36318279D01*
X18331280Y-36210529D02*
X17765595Y-35644844D01*
X18654529Y-35887280D01*
X18088844Y-35321595D01*
X18923903Y-35617906D02*
X18358218Y-35052221D01*
X18492905Y-34917534D01*
X18600654Y-34863659D01*
X18708404Y-34863659D01*
X18789216Y-34890597D01*
X18923903Y-34971409D01*
X19004715Y-35052221D01*
X19085528Y-35186908D01*
X19112465Y-35267720D01*
X19112465Y-35375470D01*
X19058590Y-35483219D01*
X18923903Y-35617906D01*
X17450096Y-25754218D02*
X17369284Y-25781155D01*
X17288471Y-25861967D01*
X17234597Y-25969717D01*
X17234597Y-26077467D01*
X17261534Y-26158279D01*
X17342346Y-26292966D01*
X17423158Y-26373778D01*
X17557845Y-26454590D01*
X17638658Y-26481528D01*
X17746407Y-26481528D01*
X17854157Y-26427653D01*
X17908032Y-26373778D01*
X17961906Y-26266028D01*
X17961906Y-26212154D01*
X17773345Y-26023592D01*
X17665595Y-26131341D01*
X18258218Y-26023592D02*
X17692532Y-25457906D01*
X17908032Y-25242407D01*
X17988844Y-25215470D01*
X18042719Y-25215470D01*
X18123531Y-25242407D01*
X18204343Y-25323219D01*
X18231280Y-25404032D01*
X18231280Y-25457906D01*
X18204343Y-25538719D01*
X17988844Y-25754218D01*
X18285155Y-24973033D02*
X18285155Y-24919158D01*
X18312093Y-24838346D01*
X18446780Y-24703659D01*
X18527592Y-24676722D01*
X18581467Y-24676722D01*
X18662279Y-24703659D01*
X18716154Y-24757534D01*
X18770028Y-24865284D01*
X18770028Y-25511781D01*
X19120215Y-25161595D01*
X43134722Y-64123592D02*
X43053910Y-64150529D01*
X42973097Y-64231341D01*
X42919223Y-64339091D01*
X42919223Y-64446841D01*
X42946160Y-64527653D01*
X43026972Y-64662340D01*
X43107784Y-64743152D01*
X43242471Y-64823964D01*
X43323284Y-64850902D01*
X43431033Y-64850902D01*
X43538783Y-64797027D01*
X43592658Y-64743152D01*
X43646532Y-64635402D01*
X43646532Y-64581528D01*
X43457971Y-64392966D01*
X43350221Y-64500715D01*
X43942844Y-64392966D02*
X43377158Y-63827280D01*
X43592658Y-63611781D01*
X43673470Y-63584844D01*
X43727345Y-63584844D01*
X43808157Y-63611781D01*
X43888969Y-63692593D01*
X43915906Y-63773406D01*
X43915906Y-63827280D01*
X43888969Y-63908093D01*
X43673470Y-64123592D01*
X44804841Y-63530969D02*
X44481592Y-63854218D01*
X44643216Y-63692593D02*
X44077531Y-63126908D01*
X44104468Y-63261595D01*
X44104468Y-63369345D01*
X44077531Y-63450157D01*
X44427717Y-62776722D02*
X44804841Y-62399598D01*
X45128089Y-63207720D01*
X17550096Y-18134218D02*
X17469284Y-18161155D01*
X17388471Y-18241967D01*
X17334597Y-18349717D01*
X17334597Y-18457467D01*
X17361534Y-18538279D01*
X17442346Y-18672966D01*
X17523158Y-18753778D01*
X17657845Y-18834590D01*
X17738658Y-18861528D01*
X17846407Y-18861528D01*
X17954157Y-18807653D01*
X18008032Y-18753778D01*
X18061906Y-18646028D01*
X18061906Y-18592154D01*
X17873345Y-18403592D01*
X17765595Y-18511341D01*
X18358218Y-18403592D02*
X17792532Y-17837906D01*
X18008032Y-17622407D01*
X18088844Y-17595470D01*
X18142719Y-17595470D01*
X18223531Y-17622407D01*
X18304343Y-17703219D01*
X18331280Y-17784032D01*
X18331280Y-17837906D01*
X18304343Y-17918719D01*
X18088844Y-18134218D01*
X18465967Y-17164471D02*
X18519842Y-17110597D01*
X18600654Y-17083659D01*
X18654529Y-17083659D01*
X18735341Y-17110597D01*
X18870028Y-17191409D01*
X19004715Y-17326096D01*
X19085528Y-17460783D01*
X19112465Y-17541595D01*
X19112465Y-17595470D01*
X19085528Y-17676282D01*
X19031653Y-17730157D01*
X18950841Y-17757094D01*
X18896966Y-17757094D01*
X18816154Y-17730157D01*
X18681467Y-17649345D01*
X18546780Y-17514658D01*
X18465967Y-17379971D01*
X18439030Y-17299158D01*
X18439030Y-17245284D01*
X18465967Y-17164471D01*
X43347597Y-36650964D02*
X43616971Y-36381590D01*
X43455346Y-36866463D02*
X43078223Y-36112216D01*
X43832470Y-36489340D01*
X43778595Y-35465719D02*
X43697783Y-35492656D01*
X43616971Y-35573468D01*
X43563096Y-35681218D01*
X43563096Y-35788967D01*
X43590033Y-35869780D01*
X43670845Y-36004467D01*
X43751658Y-36085279D01*
X43886345Y-36166091D01*
X43967157Y-36193028D01*
X44074906Y-36193028D01*
X44182656Y-36139154D01*
X44236531Y-36085279D01*
X44290406Y-35977529D01*
X44290406Y-35923654D01*
X44101844Y-35735093D01*
X43994094Y-35842842D01*
X44586717Y-35735093D02*
X44021032Y-35169407D01*
X44909966Y-35411844D01*
X44344280Y-34846158D01*
X45179340Y-35142470D02*
X44613654Y-34576784D01*
X44748341Y-34442097D01*
X44856091Y-34388223D01*
X44963841Y-34388223D01*
X45044653Y-34415160D01*
X45179340Y-34495972D01*
X45260152Y-34576784D01*
X45340964Y-34711471D01*
X45367902Y-34792284D01*
X45367902Y-34900033D01*
X45314027Y-35007783D01*
X45179340Y-35142470D01*
X17550096Y-33374218D02*
X17469284Y-33401155D01*
X17388471Y-33481967D01*
X17334597Y-33589717D01*
X17334597Y-33697467D01*
X17361534Y-33778279D01*
X17442346Y-33912966D01*
X17523158Y-33993778D01*
X17657845Y-34074590D01*
X17738658Y-34101528D01*
X17846407Y-34101528D01*
X17954157Y-34047653D01*
X18008032Y-33993778D01*
X18061906Y-33886028D01*
X18061906Y-33832154D01*
X17873345Y-33643592D01*
X17765595Y-33751341D01*
X18358218Y-33643592D02*
X17792532Y-33077906D01*
X18008032Y-32862407D01*
X18088844Y-32835470D01*
X18142719Y-32835470D01*
X18223531Y-32862407D01*
X18304343Y-32943219D01*
X18331280Y-33024032D01*
X18331280Y-33077906D01*
X18304343Y-33158719D01*
X18088844Y-33374218D01*
X18627592Y-32242847D02*
X18358218Y-32512221D01*
X18600654Y-32808532D01*
X18600654Y-32754658D01*
X18627592Y-32673845D01*
X18762279Y-32539158D01*
X18843091Y-32512221D01*
X18896966Y-32512221D01*
X18977778Y-32539158D01*
X19112465Y-32673845D01*
X19139402Y-32754658D01*
X19139402Y-32808532D01*
X19112465Y-32889345D01*
X18977778Y-33024032D01*
X18896966Y-33050969D01*
X18843091Y-33050969D01*
X43134722Y-56503592D02*
X43053910Y-56530529D01*
X42973097Y-56611341D01*
X42919223Y-56719091D01*
X42919223Y-56826841D01*
X42946160Y-56907653D01*
X43026972Y-57042340D01*
X43107784Y-57123152D01*
X43242471Y-57203964D01*
X43323284Y-57230902D01*
X43431033Y-57230902D01*
X43538783Y-57177027D01*
X43592658Y-57123152D01*
X43646532Y-57015402D01*
X43646532Y-56961528D01*
X43457971Y-56772966D01*
X43350221Y-56880715D01*
X43942844Y-56772966D02*
X43377158Y-56207280D01*
X43592658Y-55991781D01*
X43673470Y-55964844D01*
X43727345Y-55964844D01*
X43808157Y-55991781D01*
X43888969Y-56072593D01*
X43915906Y-56153406D01*
X43915906Y-56207280D01*
X43888969Y-56288093D01*
X43673470Y-56503592D01*
X44804841Y-55910969D02*
X44481592Y-56234218D01*
X44643216Y-56072593D02*
X44077531Y-55506908D01*
X44104468Y-55641595D01*
X44104468Y-55749345D01*
X44077531Y-55830157D01*
X45074215Y-55641595D02*
X45181964Y-55533845D01*
X45208902Y-55453033D01*
X45208902Y-55399158D01*
X45181964Y-55264471D01*
X45101152Y-55129784D01*
X44885653Y-54914285D01*
X44804841Y-54887348D01*
X44750966Y-54887348D01*
X44670154Y-54914285D01*
X44562404Y-55022035D01*
X44535467Y-55102847D01*
X44535467Y-55156722D01*
X44562404Y-55237534D01*
X44697091Y-55372221D01*
X44777903Y-55399158D01*
X44831778Y-55399158D01*
X44912590Y-55372221D01*
X45020340Y-55264471D01*
X45047277Y-55183659D01*
X45047277Y-55129784D01*
X45020340Y-55048972D01*
X17550096Y-43534218D02*
X17469284Y-43561155D01*
X17388471Y-43641967D01*
X17334597Y-43749717D01*
X17334597Y-43857467D01*
X17361534Y-43938279D01*
X17442346Y-44072966D01*
X17523158Y-44153778D01*
X17657845Y-44234590D01*
X17738658Y-44261528D01*
X17846407Y-44261528D01*
X17954157Y-44207653D01*
X18008032Y-44153778D01*
X18061906Y-44046028D01*
X18061906Y-43992154D01*
X17873345Y-43803592D01*
X17765595Y-43911341D01*
X18358218Y-43803592D02*
X17792532Y-43237906D01*
X18008032Y-43022407D01*
X18088844Y-42995470D01*
X18142719Y-42995470D01*
X18223531Y-43022407D01*
X18304343Y-43103219D01*
X18331280Y-43184032D01*
X18331280Y-43237906D01*
X18304343Y-43318719D01*
X18088844Y-43534218D01*
X18681467Y-42833845D02*
X18600654Y-42860783D01*
X18546780Y-42860783D01*
X18465967Y-42833845D01*
X18439030Y-42806908D01*
X18412093Y-42726096D01*
X18412093Y-42672221D01*
X18439030Y-42591409D01*
X18546780Y-42483659D01*
X18627592Y-42456722D01*
X18681467Y-42456722D01*
X18762279Y-42483659D01*
X18789216Y-42510597D01*
X18816154Y-42591409D01*
X18816154Y-42645284D01*
X18789216Y-42726096D01*
X18681467Y-42833845D01*
X18654529Y-42914658D01*
X18654529Y-42968532D01*
X18681467Y-43049345D01*
X18789216Y-43157094D01*
X18870028Y-43184032D01*
X18923903Y-43184032D01*
X19004715Y-43157094D01*
X19112465Y-43049345D01*
X19139402Y-42968532D01*
X19139402Y-42914658D01*
X19112465Y-42833845D01*
X19004715Y-42726096D01*
X18923903Y-42699158D01*
X18870028Y-42699158D01*
X18789216Y-42726096D01*
X17026722Y-59043592D02*
X16945910Y-59070529D01*
X16865097Y-59151341D01*
X16811223Y-59259091D01*
X16811223Y-59366841D01*
X16838160Y-59447653D01*
X16918972Y-59582340D01*
X16999784Y-59663152D01*
X17134471Y-59743964D01*
X17215284Y-59770902D01*
X17323033Y-59770902D01*
X17430783Y-59717027D01*
X17484658Y-59663152D01*
X17538532Y-59555402D01*
X17538532Y-59501528D01*
X17349971Y-59312966D01*
X17242221Y-59420715D01*
X17834844Y-59312966D02*
X17269158Y-58747280D01*
X17484658Y-58531781D01*
X17565470Y-58504844D01*
X17619345Y-58504844D01*
X17700157Y-58531781D01*
X17780969Y-58612593D01*
X17807906Y-58693406D01*
X17807906Y-58747280D01*
X17780969Y-58828093D01*
X17565470Y-59043592D01*
X18696841Y-58450969D02*
X18373592Y-58774218D01*
X18535216Y-58612593D02*
X17969531Y-58046908D01*
X17996468Y-58181595D01*
X17996468Y-58289345D01*
X17969531Y-58370157D01*
X18319717Y-57696722D02*
X18669903Y-57346536D01*
X18696841Y-57750597D01*
X18777653Y-57669784D01*
X18858465Y-57642847D01*
X18912340Y-57642847D01*
X18993152Y-57669784D01*
X19127839Y-57804471D01*
X19154776Y-57885284D01*
X19154776Y-57939158D01*
X19127839Y-58019971D01*
X18966215Y-58181595D01*
X18885402Y-58208532D01*
X18831528Y-58208532D01*
X42926847Y-27822592D02*
X43277033Y-27472406D01*
X43303971Y-27876467D01*
X43384783Y-27795654D01*
X43465595Y-27768717D01*
X43519470Y-27768717D01*
X43600282Y-27795654D01*
X43734969Y-27930341D01*
X43761906Y-28011154D01*
X43761906Y-28065028D01*
X43734969Y-28145841D01*
X43573345Y-28307465D01*
X43492532Y-28334402D01*
X43438658Y-28334402D01*
X43438658Y-27310781D02*
X44192905Y-27687905D01*
X43815781Y-26933658D01*
X43950468Y-26798971D02*
X44300654Y-26448784D01*
X44327592Y-26852845D01*
X44408404Y-26772033D01*
X44489216Y-26745096D01*
X44543091Y-26745096D01*
X44623903Y-26772033D01*
X44758590Y-26906720D01*
X44785528Y-26987532D01*
X44785528Y-27041407D01*
X44758590Y-27122219D01*
X44596966Y-27283844D01*
X44516154Y-27310781D01*
X44462279Y-27310781D01*
X43335908Y-30258653D02*
X43605282Y-29989279D01*
X43443658Y-30474152D02*
X43066534Y-29719905D01*
X43820781Y-30097028D01*
X44009343Y-29908467D02*
X43443658Y-29342781D01*
X43578345Y-29208094D01*
X43686094Y-29154219D01*
X43793844Y-29154219D01*
X43874656Y-29181157D01*
X44009343Y-29261969D01*
X44090155Y-29342781D01*
X44170967Y-29477468D01*
X44197905Y-29558280D01*
X44197905Y-29666030D01*
X44144030Y-29773780D01*
X44009343Y-29908467D01*
X44844402Y-28965658D02*
X44844402Y-29019532D01*
X44790528Y-29127282D01*
X44736653Y-29181157D01*
X44628903Y-29235032D01*
X44521154Y-29235032D01*
X44440341Y-29208094D01*
X44305654Y-29127282D01*
X44224842Y-29046470D01*
X44144030Y-28911783D01*
X44117093Y-28830971D01*
X44117093Y-28723221D01*
X44170967Y-28615471D01*
X44224842Y-28561597D01*
X44332592Y-28507722D01*
X44386467Y-28507722D01*
X43123158Y-48641155D02*
X43042346Y-48668093D01*
X42961534Y-48748905D01*
X42907659Y-48856654D01*
X42907659Y-48964404D01*
X42934597Y-49045216D01*
X43015409Y-49179903D01*
X43096221Y-49260715D01*
X43230908Y-49341528D01*
X43311720Y-49368465D01*
X43419470Y-49368465D01*
X43527219Y-49314590D01*
X43581094Y-49260715D01*
X43634969Y-49152966D01*
X43634969Y-49099091D01*
X43446407Y-48910529D01*
X43338658Y-49018279D01*
X43931280Y-48910529D02*
X43365595Y-48344844D01*
X44254529Y-48587280D01*
X43688844Y-48021595D01*
X44523903Y-48317906D02*
X43958218Y-47752221D01*
X44092905Y-47617534D01*
X44200654Y-47563659D01*
X44308404Y-47563659D01*
X44389216Y-47590597D01*
X44523903Y-47671409D01*
X44604715Y-47752221D01*
X44685528Y-47886908D01*
X44712465Y-47967720D01*
X44712465Y-48075470D01*
X44658590Y-48183219D01*
X44523903Y-48317906D01*
X43293722Y-38500592D02*
X43212910Y-38527529D01*
X43132097Y-38608341D01*
X43078223Y-38716091D01*
X43078223Y-38823841D01*
X43105160Y-38904653D01*
X43185972Y-39039340D01*
X43266784Y-39120152D01*
X43401471Y-39200964D01*
X43482284Y-39227902D01*
X43590033Y-39227902D01*
X43697783Y-39174027D01*
X43751658Y-39120152D01*
X43805532Y-39012402D01*
X43805532Y-38958528D01*
X43616971Y-38769966D01*
X43509221Y-38877715D01*
X44101844Y-38769966D02*
X43536158Y-38204280D01*
X43751658Y-37988781D01*
X43832470Y-37961844D01*
X43886345Y-37961844D01*
X43967157Y-37988781D01*
X44047969Y-38069593D01*
X44074906Y-38150406D01*
X44074906Y-38204280D01*
X44047969Y-38285093D01*
X43832470Y-38500592D01*
X44128781Y-37719407D02*
X44128781Y-37665532D01*
X44155719Y-37584720D01*
X44290406Y-37450033D01*
X44371218Y-37423096D01*
X44425093Y-37423096D01*
X44505905Y-37450033D01*
X44559780Y-37503908D01*
X44613654Y-37611658D01*
X44613654Y-38258155D01*
X44963841Y-37907969D01*
X44586717Y-37153722D02*
X44963841Y-36776598D01*
X45287089Y-37584720D01*
X43239722Y-33410592D02*
X43158910Y-33437529D01*
X43078097Y-33518341D01*
X43024223Y-33626091D01*
X43024223Y-33733841D01*
X43051160Y-33814653D01*
X43131972Y-33949340D01*
X43212784Y-34030152D01*
X43347471Y-34110964D01*
X43428284Y-34137902D01*
X43536033Y-34137902D01*
X43643783Y-34084027D01*
X43697658Y-34030152D01*
X43751532Y-33922402D01*
X43751532Y-33868528D01*
X43562971Y-33679966D01*
X43455221Y-33787715D01*
X44047844Y-33679966D02*
X43482158Y-33114280D01*
X43697658Y-32898781D01*
X43778470Y-32871844D01*
X43832345Y-32871844D01*
X43913157Y-32898781D01*
X43993969Y-32979593D01*
X44020906Y-33060406D01*
X44020906Y-33114280D01*
X43993969Y-33195093D01*
X43778470Y-33410592D01*
X44074781Y-32629407D02*
X44074781Y-32575532D01*
X44101719Y-32494720D01*
X44236406Y-32360033D01*
X44317218Y-32333096D01*
X44371093Y-32333096D01*
X44451905Y-32360033D01*
X44505780Y-32413908D01*
X44559654Y-32521658D01*
X44559654Y-33168155D01*
X44909841Y-32817969D01*
X44909841Y-32171471D02*
X44829028Y-32198409D01*
X44775154Y-32198409D01*
X44694341Y-32171471D01*
X44667404Y-32144534D01*
X44640467Y-32063722D01*
X44640467Y-32009847D01*
X44667404Y-31929035D01*
X44775154Y-31821285D01*
X44855966Y-31794348D01*
X44909841Y-31794348D01*
X44990653Y-31821285D01*
X45017590Y-31848223D01*
X45044528Y-31929035D01*
X45044528Y-31982910D01*
X45017590Y-32063722D01*
X44909841Y-32171471D01*
X44882903Y-32252284D01*
X44882903Y-32306158D01*
X44909841Y-32386971D01*
X45017590Y-32494720D01*
X45098402Y-32521658D01*
X45152277Y-32521658D01*
X45233089Y-32494720D01*
X45340839Y-32386971D01*
X45367776Y-32306158D01*
X45367776Y-32252284D01*
X45340839Y-32171471D01*
X45233089Y-32063722D01*
X45152277Y-32036784D01*
X45098402Y-32036784D01*
X45017590Y-32063722D01*
X17550096Y-46074218D02*
X17469284Y-46101155D01*
X17388471Y-46181967D01*
X17334597Y-46289717D01*
X17334597Y-46397467D01*
X17361534Y-46478279D01*
X17442346Y-46612966D01*
X17523158Y-46693778D01*
X17657845Y-46774590D01*
X17738658Y-46801528D01*
X17846407Y-46801528D01*
X17954157Y-46747653D01*
X18008032Y-46693778D01*
X18061906Y-46586028D01*
X18061906Y-46532154D01*
X17873345Y-46343592D01*
X17765595Y-46451341D01*
X18358218Y-46343592D02*
X17792532Y-45777906D01*
X18008032Y-45562407D01*
X18088844Y-45535470D01*
X18142719Y-45535470D01*
X18223531Y-45562407D01*
X18304343Y-45643219D01*
X18331280Y-45724032D01*
X18331280Y-45777906D01*
X18304343Y-45858719D01*
X18088844Y-46074218D01*
X18950841Y-45750969D02*
X19058590Y-45643219D01*
X19085528Y-45562407D01*
X19085528Y-45508532D01*
X19058590Y-45373845D01*
X18977778Y-45239158D01*
X18762279Y-45023659D01*
X18681467Y-44996722D01*
X18627592Y-44996722D01*
X18546780Y-45023659D01*
X18439030Y-45131409D01*
X18412093Y-45212221D01*
X18412093Y-45266096D01*
X18439030Y-45346908D01*
X18573717Y-45481595D01*
X18654529Y-45508532D01*
X18708404Y-45508532D01*
X18789216Y-45481595D01*
X18896966Y-45373845D01*
X18923903Y-45293033D01*
X18923903Y-45239158D01*
X18896966Y-45158346D01*
X17523158Y-48641155D02*
X17442346Y-48668093D01*
X17361534Y-48748905D01*
X17307659Y-48856654D01*
X17307659Y-48964404D01*
X17334597Y-49045216D01*
X17415409Y-49179903D01*
X17496221Y-49260715D01*
X17630908Y-49341528D01*
X17711720Y-49368465D01*
X17819470Y-49368465D01*
X17927219Y-49314590D01*
X17981094Y-49260715D01*
X18034969Y-49152966D01*
X18034969Y-49099091D01*
X17846407Y-48910529D01*
X17738658Y-49018279D01*
X18331280Y-48910529D02*
X17765595Y-48344844D01*
X18654529Y-48587280D01*
X18088844Y-48021595D01*
X18923903Y-48317906D02*
X18358218Y-47752221D01*
X18492905Y-47617534D01*
X18600654Y-47563659D01*
X18708404Y-47563659D01*
X18789216Y-47590597D01*
X18923903Y-47671409D01*
X19004715Y-47752221D01*
X19085528Y-47886908D01*
X19112465Y-47967720D01*
X19112465Y-48075470D01*
X19058590Y-48183219D01*
X18923903Y-48317906D01*
X17650096Y-40964218D02*
X17569284Y-40991155D01*
X17488471Y-41071967D01*
X17434597Y-41179717D01*
X17434597Y-41287467D01*
X17461534Y-41368279D01*
X17542346Y-41502966D01*
X17623158Y-41583778D01*
X17757845Y-41664590D01*
X17838658Y-41691528D01*
X17946407Y-41691528D01*
X18054157Y-41637653D01*
X18108032Y-41583778D01*
X18161906Y-41476028D01*
X18161906Y-41422154D01*
X17973345Y-41233592D01*
X17865595Y-41341341D01*
X18458218Y-41233592D02*
X17892532Y-40667906D01*
X18108032Y-40452407D01*
X18188844Y-40425470D01*
X18242719Y-40425470D01*
X18323531Y-40452407D01*
X18404343Y-40533219D01*
X18431280Y-40614032D01*
X18431280Y-40667906D01*
X18404343Y-40748719D01*
X18188844Y-40964218D01*
X18404343Y-40156096D02*
X18781467Y-39778972D01*
X19104715Y-40587094D01*
X43134722Y-51433592D02*
X43053910Y-51460529D01*
X42973097Y-51541341D01*
X42919223Y-51649091D01*
X42919223Y-51756841D01*
X42946160Y-51837653D01*
X43026972Y-51972340D01*
X43107784Y-52053152D01*
X43242471Y-52133964D01*
X43323284Y-52160902D01*
X43431033Y-52160902D01*
X43538783Y-52107027D01*
X43592658Y-52053152D01*
X43646532Y-51945402D01*
X43646532Y-51891528D01*
X43457971Y-51702966D01*
X43350221Y-51810715D01*
X43942844Y-51702966D02*
X43377158Y-51137280D01*
X43592658Y-50921781D01*
X43673470Y-50894844D01*
X43727345Y-50894844D01*
X43808157Y-50921781D01*
X43888969Y-51002593D01*
X43915906Y-51083406D01*
X43915906Y-51137280D01*
X43888969Y-51218093D01*
X43673470Y-51433592D01*
X43969781Y-50652407D02*
X43969781Y-50598532D01*
X43996719Y-50517720D01*
X44131406Y-50383033D01*
X44212218Y-50356096D01*
X44266093Y-50356096D01*
X44346905Y-50383033D01*
X44400780Y-50436908D01*
X44454654Y-50544658D01*
X44454654Y-51191155D01*
X44804841Y-50840969D01*
X45343589Y-50302221D02*
X45020340Y-50625470D01*
X45181964Y-50463845D02*
X44616279Y-49898160D01*
X44643216Y-50032847D01*
X44643216Y-50140597D01*
X44616279Y-50221409D01*
X43123158Y-23241155D02*
X43042346Y-23268093D01*
X42961534Y-23348905D01*
X42907659Y-23456654D01*
X42907659Y-23564404D01*
X42934597Y-23645216D01*
X43015409Y-23779903D01*
X43096221Y-23860715D01*
X43230908Y-23941528D01*
X43311720Y-23968465D01*
X43419470Y-23968465D01*
X43527219Y-23914590D01*
X43581094Y-23860715D01*
X43634969Y-23752966D01*
X43634969Y-23699091D01*
X43446407Y-23510529D01*
X43338658Y-23618279D01*
X43931280Y-23510529D02*
X43365595Y-22944844D01*
X44254529Y-23187280D01*
X43688844Y-22621595D01*
X44523903Y-22917906D02*
X43958218Y-22352221D01*
X44092905Y-22217534D01*
X44200654Y-22163659D01*
X44308404Y-22163659D01*
X44389216Y-22190597D01*
X44523903Y-22271409D01*
X44604715Y-22352221D01*
X44685528Y-22486908D01*
X44712465Y-22567720D01*
X44712465Y-22675470D01*
X44658590Y-22783219D01*
X44523903Y-22917906D01*
X17550096Y-28294218D02*
X17469284Y-28321155D01*
X17388471Y-28401967D01*
X17334597Y-28509717D01*
X17334597Y-28617467D01*
X17361534Y-28698279D01*
X17442346Y-28832966D01*
X17523158Y-28913778D01*
X17657845Y-28994590D01*
X17738658Y-29021528D01*
X17846407Y-29021528D01*
X17954157Y-28967653D01*
X18008032Y-28913778D01*
X18061906Y-28806028D01*
X18061906Y-28752154D01*
X17873345Y-28563592D01*
X17765595Y-28671341D01*
X18358218Y-28563592D02*
X17792532Y-27997906D01*
X18008032Y-27782407D01*
X18088844Y-27755470D01*
X18142719Y-27755470D01*
X18223531Y-27782407D01*
X18304343Y-27863219D01*
X18331280Y-27944032D01*
X18331280Y-27997906D01*
X18304343Y-28078719D01*
X18088844Y-28294218D01*
X18304343Y-27486096D02*
X18654529Y-27135910D01*
X18681467Y-27539971D01*
X18762279Y-27459158D01*
X18843091Y-27432221D01*
X18896966Y-27432221D01*
X18977778Y-27459158D01*
X19112465Y-27593845D01*
X19139402Y-27674658D01*
X19139402Y-27728532D01*
X19112465Y-27809345D01*
X18950841Y-27970969D01*
X18870028Y-27997906D01*
X18816154Y-27997906D01*
X42959131Y-26101308D02*
X43309317Y-25751122D01*
X43336255Y-26155183D01*
X43417067Y-26074370D01*
X43497879Y-26047433D01*
X43551754Y-26047433D01*
X43632566Y-26074370D01*
X43767253Y-26209057D01*
X43794190Y-26289870D01*
X43794190Y-26343744D01*
X43767253Y-26424557D01*
X43605629Y-26586181D01*
X43524816Y-26613118D01*
X43470942Y-26613118D01*
X43470942Y-25589497D02*
X44225189Y-25966621D01*
X43848065Y-25212374D01*
X43982752Y-25077687D02*
X44332938Y-24727500D01*
X44359876Y-25131561D01*
X44440688Y-25050749D01*
X44521500Y-25023812D01*
X44575375Y-25023812D01*
X44656187Y-25050749D01*
X44790874Y-25185436D01*
X44817812Y-25266248D01*
X44817812Y-25320123D01*
X44790874Y-25400935D01*
X44629250Y-25562560D01*
X44548438Y-25589497D01*
X44494563Y-25589497D01*
X45060248Y-25239311D02*
X45491247Y-24808312D01*
X45275748Y-24323439D02*
X45464309Y-24134877D01*
X45841433Y-24350377D02*
X45572059Y-24619751D01*
X45006374Y-24054065D01*
X45275748Y-23784691D01*
X46083870Y-24107940D02*
X45518184Y-23542255D01*
X46407118Y-23784691D01*
X45841433Y-23219006D01*
X17450096Y-20664218D02*
X17369284Y-20691155D01*
X17288471Y-20771967D01*
X17234597Y-20879717D01*
X17234597Y-20987467D01*
X17261534Y-21068279D01*
X17342346Y-21202966D01*
X17423158Y-21283778D01*
X17557845Y-21364590D01*
X17638658Y-21391528D01*
X17746407Y-21391528D01*
X17854157Y-21337653D01*
X17908032Y-21283778D01*
X17961906Y-21176028D01*
X17961906Y-21122154D01*
X17773345Y-20933592D01*
X17665595Y-21041341D01*
X18258218Y-20933592D02*
X17692532Y-20367906D01*
X17908032Y-20152407D01*
X17988844Y-20125470D01*
X18042719Y-20125470D01*
X18123531Y-20152407D01*
X18204343Y-20233219D01*
X18231280Y-20314032D01*
X18231280Y-20367906D01*
X18204343Y-20448719D01*
X17988844Y-20664218D01*
X19120215Y-20071595D02*
X18796966Y-20394844D01*
X18958590Y-20233219D02*
X18392905Y-19667534D01*
X18419842Y-19802221D01*
X18419842Y-19909971D01*
X18392905Y-19990783D01*
X42990129Y-18670309D02*
X43744377Y-19047433D01*
X43367253Y-18293186D01*
X44013751Y-18185436D02*
X44121500Y-18131561D01*
X44175375Y-18131561D01*
X44256187Y-18158499D01*
X44337000Y-18239311D01*
X44363937Y-18320123D01*
X44363937Y-18373998D01*
X44337000Y-18454810D01*
X44121500Y-18670309D01*
X43555815Y-18104624D01*
X43744377Y-17916062D01*
X43825189Y-17889125D01*
X43879064Y-17889125D01*
X43959876Y-17916062D01*
X44013751Y-17969937D01*
X44040688Y-18050749D01*
X44040688Y-18104624D01*
X44013751Y-18185436D01*
X43825189Y-18373998D01*
X44121500Y-17538938D02*
X44579436Y-17996874D01*
X44660248Y-18023812D01*
X44714123Y-18023812D01*
X44794935Y-17996874D01*
X44902685Y-17889125D01*
X44929622Y-17808312D01*
X44929622Y-17754438D01*
X44902685Y-17673625D01*
X44444749Y-17215690D01*
X45225934Y-17512001D02*
X45333683Y-17458126D01*
X45468370Y-17323439D01*
X45495308Y-17242627D01*
X45495308Y-17188752D01*
X45468370Y-17107940D01*
X45414496Y-17054065D01*
X45333683Y-17027128D01*
X45279809Y-17027128D01*
X45198996Y-17054065D01*
X45064309Y-17134877D01*
X44983497Y-17161815D01*
X44929622Y-17161815D01*
X44848810Y-17134877D01*
X44794935Y-17081003D01*
X44767998Y-17000190D01*
X44767998Y-16946316D01*
X44794935Y-16865503D01*
X44929622Y-16730816D01*
X45037372Y-16676942D01*
X42957473Y-21212966D02*
X43711720Y-21590089D01*
X43334597Y-20835842D01*
X44034969Y-21212966D02*
X44142719Y-21159091D01*
X44277406Y-21024404D01*
X44304343Y-20943592D01*
X44304343Y-20889717D01*
X44277406Y-20808905D01*
X44223531Y-20755030D01*
X44142719Y-20728093D01*
X44088844Y-20728093D01*
X44008032Y-20755030D01*
X43873345Y-20835842D01*
X43792532Y-20862780D01*
X43738658Y-20862780D01*
X43657845Y-20835842D01*
X43603971Y-20781967D01*
X43577033Y-20701155D01*
X43577033Y-20647280D01*
X43603971Y-20566468D01*
X43738658Y-20431781D01*
X43846407Y-20377906D01*
X44465967Y-20297094D02*
X44735341Y-20566468D01*
X43981094Y-20189345D02*
X44465967Y-20297094D01*
X44358218Y-19812221D01*
X45058590Y-20189345D02*
X45166340Y-20135470D01*
X45301027Y-20000783D01*
X45327964Y-19919971D01*
X45327964Y-19866096D01*
X45301027Y-19785284D01*
X45247152Y-19731409D01*
X45166340Y-19704471D01*
X45112465Y-19704471D01*
X45031653Y-19731409D01*
X44896966Y-19812221D01*
X44816154Y-19839158D01*
X44762279Y-19839158D01*
X44681467Y-19812221D01*
X44627592Y-19758346D01*
X44600654Y-19677534D01*
X44600654Y-19623659D01*
X44627592Y-19542847D01*
X44762279Y-19408160D01*
X44870028Y-19354285D01*
X44034375Y-43853435D02*
X43576439Y-43772622D01*
X43711126Y-44176683D02*
X43145441Y-43610998D01*
X43360940Y-43395499D01*
X43441752Y-43368561D01*
X43495627Y-43368561D01*
X43576439Y-43395499D01*
X43657251Y-43476311D01*
X43684189Y-43557123D01*
X43684189Y-43610998D01*
X43657251Y-43691810D01*
X43441752Y-43907309D01*
X43711126Y-43045312D02*
X44169062Y-43503248D01*
X44249874Y-43530186D01*
X44303749Y-43530186D01*
X44384561Y-43503248D01*
X44492311Y-43395499D01*
X44519248Y-43314687D01*
X44519248Y-43260812D01*
X44492311Y-43180000D01*
X44034375Y-42722064D01*
X44869435Y-43018375D02*
X44303749Y-42452690D01*
X45192683Y-42695126D01*
X44626998Y-42129441D01*
X16980722Y-64123592D02*
X16899910Y-64150529D01*
X16819097Y-64231341D01*
X16765223Y-64339091D01*
X16765223Y-64446841D01*
X16792160Y-64527653D01*
X16872972Y-64662340D01*
X16953784Y-64743152D01*
X17088471Y-64823964D01*
X17169284Y-64850902D01*
X17277033Y-64850902D01*
X17384783Y-64797027D01*
X17438658Y-64743152D01*
X17492532Y-64635402D01*
X17492532Y-64581528D01*
X17303971Y-64392966D01*
X17196221Y-64500715D01*
X17788844Y-64392966D02*
X17223158Y-63827280D01*
X17438658Y-63611781D01*
X17519470Y-63584844D01*
X17573345Y-63584844D01*
X17654157Y-63611781D01*
X17734969Y-63692593D01*
X17761906Y-63773406D01*
X17761906Y-63827280D01*
X17734969Y-63908093D01*
X17519470Y-64123592D01*
X18650841Y-63530969D02*
X18327592Y-63854218D01*
X18489216Y-63692593D02*
X17923531Y-63126908D01*
X17950468Y-63261595D01*
X17950468Y-63369345D01*
X17923531Y-63450157D01*
X18758590Y-62668972D02*
X19135714Y-63046096D01*
X18408404Y-62588160D02*
X18677778Y-63126908D01*
X19027964Y-62776722D01*
X17026722Y-51423592D02*
X16945910Y-51450529D01*
X16865097Y-51531341D01*
X16811223Y-51639091D01*
X16811223Y-51746841D01*
X16838160Y-51827653D01*
X16918972Y-51962340D01*
X16999784Y-52043152D01*
X17134471Y-52123964D01*
X17215284Y-52150902D01*
X17323033Y-52150902D01*
X17430783Y-52097027D01*
X17484658Y-52043152D01*
X17538532Y-51935402D01*
X17538532Y-51881528D01*
X17349971Y-51692966D01*
X17242221Y-51800715D01*
X17834844Y-51692966D02*
X17269158Y-51127280D01*
X17484658Y-50911781D01*
X17565470Y-50884844D01*
X17619345Y-50884844D01*
X17700157Y-50911781D01*
X17780969Y-50992593D01*
X17807906Y-51073406D01*
X17807906Y-51127280D01*
X17780969Y-51208093D01*
X17565470Y-51423592D01*
X18696841Y-50830969D02*
X18373592Y-51154218D01*
X18535216Y-50992593D02*
X17969531Y-50426908D01*
X17996468Y-50561595D01*
X17996468Y-50669345D01*
X17969531Y-50750157D01*
X18481341Y-49915097D02*
X18535216Y-49861223D01*
X18616028Y-49834285D01*
X18669903Y-49834285D01*
X18750715Y-49861223D01*
X18885402Y-49942035D01*
X19020089Y-50076722D01*
X19100902Y-50211409D01*
X19127839Y-50292221D01*
X19127839Y-50346096D01*
X19100902Y-50426908D01*
X19047027Y-50480783D01*
X18966215Y-50507720D01*
X18912340Y-50507720D01*
X18831528Y-50480783D01*
X18696841Y-50399971D01*
X18562154Y-50265284D01*
X18481341Y-50130597D01*
X18454404Y-50049784D01*
X18454404Y-49995910D01*
X18481341Y-49915097D01*
X43123158Y-61341155D02*
X43042346Y-61368093D01*
X42961534Y-61448905D01*
X42907659Y-61556654D01*
X42907659Y-61664404D01*
X42934597Y-61745216D01*
X43015409Y-61879903D01*
X43096221Y-61960715D01*
X43230908Y-62041528D01*
X43311720Y-62068465D01*
X43419470Y-62068465D01*
X43527219Y-62014590D01*
X43581094Y-61960715D01*
X43634969Y-61852966D01*
X43634969Y-61799091D01*
X43446407Y-61610529D01*
X43338658Y-61718279D01*
X43931280Y-61610529D02*
X43365595Y-61044844D01*
X44254529Y-61287280D01*
X43688844Y-60721595D01*
X44523903Y-61017906D02*
X43958218Y-60452221D01*
X44092905Y-60317534D01*
X44200654Y-60263659D01*
X44308404Y-60263659D01*
X44389216Y-60290597D01*
X44523903Y-60371409D01*
X44604715Y-60452221D01*
X44685528Y-60586908D01*
X44712465Y-60667720D01*
X44712465Y-60775470D01*
X44658590Y-60883219D01*
X44523903Y-61017906D01*
X17523158Y-23241155D02*
X17442346Y-23268093D01*
X17361534Y-23348905D01*
X17307659Y-23456654D01*
X17307659Y-23564404D01*
X17334597Y-23645216D01*
X17415409Y-23779903D01*
X17496221Y-23860715D01*
X17630908Y-23941528D01*
X17711720Y-23968465D01*
X17819470Y-23968465D01*
X17927219Y-23914590D01*
X17981094Y-23860715D01*
X18034969Y-23752966D01*
X18034969Y-23699091D01*
X17846407Y-23510529D01*
X17738658Y-23618279D01*
X18331280Y-23510529D02*
X17765595Y-22944844D01*
X18654529Y-23187280D01*
X18088844Y-22621595D01*
X18923903Y-22917906D02*
X18358218Y-22352221D01*
X18492905Y-22217534D01*
X18600654Y-22163659D01*
X18708404Y-22163659D01*
X18789216Y-22190597D01*
X18923903Y-22271409D01*
X19004715Y-22352221D01*
X19085528Y-22486908D01*
X19112465Y-22567720D01*
X19112465Y-22675470D01*
X19058590Y-22783219D01*
X18923903Y-22917906D01*
X43170473Y-31139966D02*
X43924720Y-31517089D01*
X43547597Y-30762842D01*
X44625093Y-30816717D02*
X44167157Y-30735905D01*
X44301844Y-31139966D02*
X43736158Y-30574280D01*
X43951658Y-30358781D01*
X44032470Y-30331844D01*
X44086345Y-30331844D01*
X44167157Y-30358781D01*
X44247969Y-30439593D01*
X44274906Y-30520406D01*
X44274906Y-30574280D01*
X44247969Y-30655093D01*
X44032470Y-30870592D01*
X44571218Y-30277969D02*
X44759780Y-30089407D01*
X45136903Y-30304906D02*
X44867529Y-30574280D01*
X44301844Y-30008595D01*
X44571218Y-29739221D01*
X45271590Y-29577597D02*
X45083028Y-29766158D01*
X45379340Y-30062470D02*
X44813654Y-29496784D01*
X45083028Y-29227410D01*
X43134722Y-53963592D02*
X43053910Y-53990529D01*
X42973097Y-54071341D01*
X42919223Y-54179091D01*
X42919223Y-54286841D01*
X42946160Y-54367653D01*
X43026972Y-54502340D01*
X43107784Y-54583152D01*
X43242471Y-54663964D01*
X43323284Y-54690902D01*
X43431033Y-54690902D01*
X43538783Y-54637027D01*
X43592658Y-54583152D01*
X43646532Y-54475402D01*
X43646532Y-54421528D01*
X43457971Y-54232966D01*
X43350221Y-54340715D01*
X43942844Y-54232966D02*
X43377158Y-53667280D01*
X43592658Y-53451781D01*
X43673470Y-53424844D01*
X43727345Y-53424844D01*
X43808157Y-53451781D01*
X43888969Y-53532593D01*
X43915906Y-53613406D01*
X43915906Y-53667280D01*
X43888969Y-53748093D01*
X43673470Y-53963592D01*
X43969781Y-53182407D02*
X43969781Y-53128532D01*
X43996719Y-53047720D01*
X44131406Y-52913033D01*
X44212218Y-52886096D01*
X44266093Y-52886096D01*
X44346905Y-52913033D01*
X44400780Y-52966908D01*
X44454654Y-53074658D01*
X44454654Y-53721155D01*
X44804841Y-53370969D01*
X44589341Y-52455097D02*
X44643216Y-52401223D01*
X44724028Y-52374285D01*
X44777903Y-52374285D01*
X44858715Y-52401223D01*
X44993402Y-52482035D01*
X45128089Y-52616722D01*
X45208902Y-52751409D01*
X45235839Y-52832221D01*
X45235839Y-52886096D01*
X45208902Y-52966908D01*
X45155027Y-53020783D01*
X45074215Y-53047720D01*
X45020340Y-53047720D01*
X44939528Y-53020783D01*
X44804841Y-52939971D01*
X44670154Y-52805284D01*
X44589341Y-52670597D01*
X44562404Y-52589784D01*
X44562404Y-52535910D01*
X44589341Y-52455097D01*
X16880722Y-56503592D02*
X16799910Y-56530529D01*
X16719097Y-56611341D01*
X16665223Y-56719091D01*
X16665223Y-56826841D01*
X16692160Y-56907653D01*
X16772972Y-57042340D01*
X16853784Y-57123152D01*
X16988471Y-57203964D01*
X17069284Y-57230902D01*
X17177033Y-57230902D01*
X17284783Y-57177027D01*
X17338658Y-57123152D01*
X17392532Y-57015402D01*
X17392532Y-56961528D01*
X17203971Y-56772966D01*
X17096221Y-56880715D01*
X17688844Y-56772966D02*
X17123158Y-56207280D01*
X17338658Y-55991781D01*
X17419470Y-55964844D01*
X17473345Y-55964844D01*
X17554157Y-55991781D01*
X17634969Y-56072593D01*
X17661906Y-56153406D01*
X17661906Y-56207280D01*
X17634969Y-56288093D01*
X17419470Y-56503592D01*
X18550841Y-55910969D02*
X18227592Y-56234218D01*
X18389216Y-56072593D02*
X17823531Y-55506908D01*
X17850468Y-55641595D01*
X17850468Y-55749345D01*
X17823531Y-55830157D01*
X18254529Y-55183659D02*
X18254529Y-55129784D01*
X18281467Y-55048972D01*
X18416154Y-54914285D01*
X18496966Y-54887348D01*
X18550841Y-54887348D01*
X18631653Y-54914285D01*
X18685528Y-54968160D01*
X18739402Y-55075910D01*
X18739402Y-55722407D01*
X19089589Y-55372221D01*
X17106564Y-53680749D02*
X17025752Y-53707687D01*
X16944940Y-53788499D01*
X16891065Y-53896248D01*
X16891065Y-54003998D01*
X16918003Y-54084810D01*
X16998815Y-54219497D01*
X17079627Y-54300309D01*
X17214314Y-54381122D01*
X17295126Y-54408059D01*
X17402876Y-54408059D01*
X17510625Y-54354184D01*
X17564500Y-54300309D01*
X17618375Y-54192560D01*
X17618375Y-54138685D01*
X17429813Y-53950123D01*
X17322064Y-54057873D01*
X18210998Y-53653812D02*
X17887749Y-53977061D01*
X18049374Y-53815436D02*
X17483688Y-53249751D01*
X17510625Y-53384438D01*
X17510625Y-53492187D01*
X17483688Y-53573000D01*
X18749746Y-53115064D02*
X18426497Y-53438312D01*
X18588122Y-53276688D02*
X18022436Y-52711003D01*
X18049374Y-52845690D01*
X18049374Y-52953439D01*
X18022436Y-53034251D01*
X43134722Y-59043592D02*
X43053910Y-59070529D01*
X42973097Y-59151341D01*
X42919223Y-59259091D01*
X42919223Y-59366841D01*
X42946160Y-59447653D01*
X43026972Y-59582340D01*
X43107784Y-59663152D01*
X43242471Y-59743964D01*
X43323284Y-59770902D01*
X43431033Y-59770902D01*
X43538783Y-59717027D01*
X43592658Y-59663152D01*
X43646532Y-59555402D01*
X43646532Y-59501528D01*
X43457971Y-59312966D01*
X43350221Y-59420715D01*
X43942844Y-59312966D02*
X43377158Y-58747280D01*
X43592658Y-58531781D01*
X43673470Y-58504844D01*
X43727345Y-58504844D01*
X43808157Y-58531781D01*
X43888969Y-58612593D01*
X43915906Y-58693406D01*
X43915906Y-58747280D01*
X43888969Y-58828093D01*
X43673470Y-59043592D01*
X44804841Y-58450969D02*
X44481592Y-58774218D01*
X44643216Y-58612593D02*
X44077531Y-58046908D01*
X44104468Y-58181595D01*
X44104468Y-58289345D01*
X44077531Y-58370157D01*
X44804841Y-57804471D02*
X44724028Y-57831409D01*
X44670154Y-57831409D01*
X44589341Y-57804471D01*
X44562404Y-57777534D01*
X44535467Y-57696722D01*
X44535467Y-57642847D01*
X44562404Y-57562035D01*
X44670154Y-57454285D01*
X44750966Y-57427348D01*
X44804841Y-57427348D01*
X44885653Y-57454285D01*
X44912590Y-57481223D01*
X44939528Y-57562035D01*
X44939528Y-57615910D01*
X44912590Y-57696722D01*
X44804841Y-57804471D01*
X44777903Y-57885284D01*
X44777903Y-57939158D01*
X44804841Y-58019971D01*
X44912590Y-58127720D01*
X44993402Y-58154658D01*
X45047277Y-58154658D01*
X45128089Y-58127720D01*
X45235839Y-58019971D01*
X45262776Y-57939158D01*
X45262776Y-57885284D01*
X45235839Y-57804471D01*
X45128089Y-57696722D01*
X45047277Y-57669784D01*
X44993402Y-57669784D01*
X44912590Y-57696722D01*
X34941761Y-68666809D02*
X35056047Y-68704904D01*
X35246523Y-68704904D01*
X35322714Y-68666809D01*
X35360809Y-68628714D01*
X35398904Y-68552523D01*
X35398904Y-68476333D01*
X35360809Y-68400142D01*
X35322714Y-68362047D01*
X35246523Y-68323952D01*
X35094142Y-68285857D01*
X35017952Y-68247761D01*
X34979857Y-68209666D01*
X34941761Y-68133476D01*
X34941761Y-68057285D01*
X34979857Y-67981095D01*
X35017952Y-67943000D01*
X35094142Y-67904904D01*
X35284619Y-67904904D01*
X35398904Y-67943000D01*
X35665571Y-67904904D02*
X35856047Y-68704904D01*
X36008428Y-68133476D01*
X36160809Y-68704904D01*
X36351285Y-67904904D01*
X36656047Y-68704904D02*
X36656047Y-67904904D01*
X36846523Y-67904904D01*
X36960809Y-67943000D01*
X37037000Y-68019190D01*
X37075095Y-68095380D01*
X37113190Y-68247761D01*
X37113190Y-68362047D01*
X37075095Y-68514428D01*
X37037000Y-68590619D01*
X36960809Y-68666809D01*
X36846523Y-68704904D01*
X36656047Y-68704904D01*
X37456047Y-68704904D02*
X37456047Y-67904904D01*
X37989380Y-67904904D02*
X38141761Y-67904904D01*
X38217952Y-67943000D01*
X38294142Y-68019190D01*
X38332238Y-68171571D01*
X38332238Y-68438238D01*
X38294142Y-68590619D01*
X38217952Y-68666809D01*
X38141761Y-68704904D01*
X37989380Y-68704904D01*
X37913190Y-68666809D01*
X37837000Y-68590619D01*
X37798904Y-68438238D01*
X37798904Y-68171571D01*
X37837000Y-68019190D01*
X37913190Y-67943000D01*
X37989380Y-67904904D01*
X17026722Y-66663592D02*
X16945910Y-66690529D01*
X16865097Y-66771341D01*
X16811223Y-66879091D01*
X16811223Y-66986841D01*
X16838160Y-67067653D01*
X16918972Y-67202340D01*
X16999784Y-67283152D01*
X17134471Y-67363964D01*
X17215284Y-67390902D01*
X17323033Y-67390902D01*
X17430783Y-67337027D01*
X17484658Y-67283152D01*
X17538532Y-67175402D01*
X17538532Y-67121528D01*
X17349971Y-66932966D01*
X17242221Y-67040715D01*
X17834844Y-66932966D02*
X17269158Y-66367280D01*
X17484658Y-66151781D01*
X17565470Y-66124844D01*
X17619345Y-66124844D01*
X17700157Y-66151781D01*
X17780969Y-66232593D01*
X17807906Y-66313406D01*
X17807906Y-66367280D01*
X17780969Y-66448093D01*
X17565470Y-66663592D01*
X18696841Y-66070969D02*
X18373592Y-66394218D01*
X18535216Y-66232593D02*
X17969531Y-65666908D01*
X17996468Y-65801595D01*
X17996468Y-65909345D01*
X17969531Y-65990157D01*
X18642966Y-64993473D02*
X18373592Y-65262847D01*
X18616028Y-65559158D01*
X18616028Y-65505284D01*
X18642966Y-65424471D01*
X18777653Y-65289784D01*
X18858465Y-65262847D01*
X18912340Y-65262847D01*
X18993152Y-65289784D01*
X19127839Y-65424471D01*
X19154776Y-65505284D01*
X19154776Y-65559158D01*
X19127839Y-65639971D01*
X18993152Y-65774658D01*
X18912340Y-65801595D01*
X18858465Y-65801595D01*
X17523158Y-61341155D02*
X17442346Y-61368093D01*
X17361534Y-61448905D01*
X17307659Y-61556654D01*
X17307659Y-61664404D01*
X17334597Y-61745216D01*
X17415409Y-61879903D01*
X17496221Y-61960715D01*
X17630908Y-62041528D01*
X17711720Y-62068465D01*
X17819470Y-62068465D01*
X17927219Y-62014590D01*
X17981094Y-61960715D01*
X18034969Y-61852966D01*
X18034969Y-61799091D01*
X17846407Y-61610529D01*
X17738658Y-61718279D01*
X18331280Y-61610529D02*
X17765595Y-61044844D01*
X18654529Y-61287280D01*
X18088844Y-60721595D01*
X18923903Y-61017906D02*
X18358218Y-60452221D01*
X18492905Y-60317534D01*
X18600654Y-60263659D01*
X18708404Y-60263659D01*
X18789216Y-60290597D01*
X18923903Y-60371409D01*
X19004715Y-60452221D01*
X19085528Y-60586908D01*
X19112465Y-60667720D01*
X19112465Y-60775470D01*
X19058590Y-60883219D01*
X18923903Y-61017906D01*
X23527476Y-68666809D02*
X23641761Y-68704904D01*
X23832238Y-68704904D01*
X23908428Y-68666809D01*
X23946523Y-68628714D01*
X23984619Y-68552523D01*
X23984619Y-68476333D01*
X23946523Y-68400142D01*
X23908428Y-68362047D01*
X23832238Y-68323952D01*
X23679857Y-68285857D01*
X23603666Y-68247761D01*
X23565571Y-68209666D01*
X23527476Y-68133476D01*
X23527476Y-68057285D01*
X23565571Y-67981095D01*
X23603666Y-67943000D01*
X23679857Y-67904904D01*
X23870333Y-67904904D01*
X23984619Y-67943000D01*
X24251285Y-67904904D02*
X24441761Y-68704904D01*
X24594142Y-68133476D01*
X24746523Y-68704904D01*
X24937000Y-67904904D01*
X25698904Y-68628714D02*
X25660809Y-68666809D01*
X25546523Y-68704904D01*
X25470333Y-68704904D01*
X25356047Y-68666809D01*
X25279857Y-68590619D01*
X25241761Y-68514428D01*
X25203666Y-68362047D01*
X25203666Y-68247761D01*
X25241761Y-68095380D01*
X25279857Y-68019190D01*
X25356047Y-67943000D01*
X25470333Y-67904904D01*
X25546523Y-67904904D01*
X25660809Y-67943000D01*
X25698904Y-67981095D01*
X26422714Y-68704904D02*
X26041761Y-68704904D01*
X26041761Y-67904904D01*
X26689380Y-68704904D02*
X26689380Y-67904904D01*
X27146523Y-68704904D02*
X26803666Y-68247761D01*
X27146523Y-67904904D02*
X26689380Y-68362047D01*
X17550096Y-38454218D02*
X17469284Y-38481155D01*
X17388471Y-38561967D01*
X17334597Y-38669717D01*
X17334597Y-38777467D01*
X17361534Y-38858279D01*
X17442346Y-38992966D01*
X17523158Y-39073778D01*
X17657845Y-39154590D01*
X17738658Y-39181528D01*
X17846407Y-39181528D01*
X17954157Y-39127653D01*
X18008032Y-39073778D01*
X18061906Y-38966028D01*
X18061906Y-38912154D01*
X17873345Y-38723592D01*
X17765595Y-38831341D01*
X18358218Y-38723592D02*
X17792532Y-38157906D01*
X18008032Y-37942407D01*
X18088844Y-37915470D01*
X18142719Y-37915470D01*
X18223531Y-37942407D01*
X18304343Y-38023219D01*
X18331280Y-38104032D01*
X18331280Y-38157906D01*
X18304343Y-38238719D01*
X18088844Y-38454218D01*
X18600654Y-37349784D02*
X18492905Y-37457534D01*
X18465967Y-37538346D01*
X18465967Y-37592221D01*
X18492905Y-37726908D01*
X18573717Y-37861595D01*
X18789216Y-38077094D01*
X18870028Y-38104032D01*
X18923903Y-38104032D01*
X19004715Y-38077094D01*
X19112465Y-37969345D01*
X19139402Y-37888532D01*
X19139402Y-37834658D01*
X19112465Y-37753845D01*
X18977778Y-37619158D01*
X18896966Y-37592221D01*
X18843091Y-37592221D01*
X18762279Y-37619158D01*
X18654529Y-37726908D01*
X18627592Y-37807720D01*
X18627592Y-37861595D01*
X18654529Y-37942407D01*
X43293722Y-46110592D02*
X43212910Y-46137529D01*
X43132097Y-46218341D01*
X43078223Y-46326091D01*
X43078223Y-46433841D01*
X43105160Y-46514653D01*
X43185972Y-46649340D01*
X43266784Y-46730152D01*
X43401471Y-46810964D01*
X43482284Y-46837902D01*
X43590033Y-46837902D01*
X43697783Y-46784027D01*
X43751658Y-46730152D01*
X43805532Y-46622402D01*
X43805532Y-46568528D01*
X43616971Y-46379966D01*
X43509221Y-46487715D01*
X44101844Y-46379966D02*
X43536158Y-45814280D01*
X43751658Y-45598781D01*
X43832470Y-45571844D01*
X43886345Y-45571844D01*
X43967157Y-45598781D01*
X44047969Y-45679593D01*
X44074906Y-45760406D01*
X44074906Y-45814280D01*
X44047969Y-45895093D01*
X43832470Y-46110592D01*
X44128781Y-45329407D02*
X44128781Y-45275532D01*
X44155719Y-45194720D01*
X44290406Y-45060033D01*
X44371218Y-45033096D01*
X44425093Y-45033096D01*
X44505905Y-45060033D01*
X44559780Y-45113908D01*
X44613654Y-45221658D01*
X44613654Y-45868155D01*
X44963841Y-45517969D01*
X44667529Y-44790659D02*
X44667529Y-44736784D01*
X44694467Y-44655972D01*
X44829154Y-44521285D01*
X44909966Y-44494348D01*
X44963841Y-44494348D01*
X45044653Y-44521285D01*
X45098528Y-44575160D01*
X45152402Y-44682910D01*
X45152402Y-45329407D01*
X45502589Y-44979221D01*
X17550096Y-30834218D02*
X17469284Y-30861155D01*
X17388471Y-30941967D01*
X17334597Y-31049717D01*
X17334597Y-31157467D01*
X17361534Y-31238279D01*
X17442346Y-31372966D01*
X17523158Y-31453778D01*
X17657845Y-31534590D01*
X17738658Y-31561528D01*
X17846407Y-31561528D01*
X17954157Y-31507653D01*
X18008032Y-31453778D01*
X18061906Y-31346028D01*
X18061906Y-31292154D01*
X17873345Y-31103592D01*
X17765595Y-31211341D01*
X18358218Y-31103592D02*
X17792532Y-30537906D01*
X18008032Y-30322407D01*
X18088844Y-30295470D01*
X18142719Y-30295470D01*
X18223531Y-30322407D01*
X18304343Y-30403219D01*
X18331280Y-30484032D01*
X18331280Y-30537906D01*
X18304343Y-30618719D01*
X18088844Y-30834218D01*
X18789216Y-29918346D02*
X19166340Y-30295470D01*
X18439030Y-29837534D02*
X18708404Y-30376282D01*
X19058590Y-30026096D01*
%TO.C,R2*%
X14676380Y-45886666D02*
X14200190Y-46220000D01*
X14676380Y-46458095D02*
X13676380Y-46458095D01*
X13676380Y-46077142D01*
X13724000Y-45981904D01*
X13771619Y-45934285D01*
X13866857Y-45886666D01*
X14009714Y-45886666D01*
X14104952Y-45934285D01*
X14152571Y-45981904D01*
X14200190Y-46077142D01*
X14200190Y-46458095D01*
X13771619Y-45505714D02*
X13724000Y-45458095D01*
X13676380Y-45362857D01*
X13676380Y-45124761D01*
X13724000Y-45029523D01*
X13771619Y-44981904D01*
X13866857Y-44934285D01*
X13962095Y-44934285D01*
X14104952Y-44981904D01*
X14676380Y-45553333D01*
X14676380Y-44934285D01*
X16200380Y-46823238D02*
X16200380Y-47394666D01*
X16200380Y-47108952D02*
X15200380Y-47108952D01*
X15343238Y-47204190D01*
X15438476Y-47299428D01*
X15486095Y-47394666D01*
X15200380Y-46204190D02*
X15200380Y-46108952D01*
X15248000Y-46013714D01*
X15295619Y-45966095D01*
X15390857Y-45918476D01*
X15581333Y-45870857D01*
X15819428Y-45870857D01*
X16009904Y-45918476D01*
X16105142Y-45966095D01*
X16152761Y-46013714D01*
X16200380Y-46108952D01*
X16200380Y-46204190D01*
X16152761Y-46299428D01*
X16105142Y-46347047D01*
X16009904Y-46394666D01*
X15819428Y-46442285D01*
X15581333Y-46442285D01*
X15390857Y-46394666D01*
X15295619Y-46347047D01*
X15248000Y-46299428D01*
X15200380Y-46204190D01*
X16200380Y-45442285D02*
X15200380Y-45442285D01*
X15819428Y-45347047D02*
X16200380Y-45061333D01*
X15533714Y-45061333D02*
X15914666Y-45442285D01*
%TO.C,J2*%
X48942666Y-40092380D02*
X48942666Y-40806666D01*
X48895047Y-40949523D01*
X48799809Y-41044761D01*
X48656952Y-41092380D01*
X48561714Y-41092380D01*
X49371238Y-40187619D02*
X49418857Y-40140000D01*
X49514095Y-40092380D01*
X49752190Y-40092380D01*
X49847428Y-40140000D01*
X49895047Y-40187619D01*
X49942666Y-40282857D01*
X49942666Y-40378095D01*
X49895047Y-40520952D01*
X49323619Y-41092380D01*
X49942666Y-41092380D01*
%TO.C,R3*%
X14676380Y-59094666D02*
X14200190Y-59428000D01*
X14676380Y-59666095D02*
X13676380Y-59666095D01*
X13676380Y-59285142D01*
X13724000Y-59189904D01*
X13771619Y-59142285D01*
X13866857Y-59094666D01*
X14009714Y-59094666D01*
X14104952Y-59142285D01*
X14152571Y-59189904D01*
X14200190Y-59285142D01*
X14200190Y-59666095D01*
X13676380Y-58761333D02*
X13676380Y-58142285D01*
X14057333Y-58475619D01*
X14057333Y-58332761D01*
X14104952Y-58237523D01*
X14152571Y-58189904D01*
X14247809Y-58142285D01*
X14485904Y-58142285D01*
X14581142Y-58189904D01*
X14628761Y-58237523D01*
X14676380Y-58332761D01*
X14676380Y-58618476D01*
X14628761Y-58713714D01*
X14581142Y-58761333D01*
X16200380Y-60102666D02*
X16200380Y-60674095D01*
X16200380Y-60388380D02*
X15200380Y-60388380D01*
X15343238Y-60483619D01*
X15438476Y-60578857D01*
X15486095Y-60674095D01*
X15200380Y-59483619D02*
X15200380Y-59388380D01*
X15248000Y-59293142D01*
X15295619Y-59245523D01*
X15390857Y-59197904D01*
X15581333Y-59150285D01*
X15819428Y-59150285D01*
X16009904Y-59197904D01*
X16105142Y-59245523D01*
X16152761Y-59293142D01*
X16200380Y-59388380D01*
X16200380Y-59483619D01*
X16152761Y-59578857D01*
X16105142Y-59626476D01*
X16009904Y-59674095D01*
X15819428Y-59721714D01*
X15581333Y-59721714D01*
X15390857Y-59674095D01*
X15295619Y-59626476D01*
X15248000Y-59578857D01*
X15200380Y-59483619D01*
X15200380Y-58531238D02*
X15200380Y-58436000D01*
X15248000Y-58340761D01*
X15295619Y-58293142D01*
X15390857Y-58245523D01*
X15581333Y-58197904D01*
X15819428Y-58197904D01*
X16009904Y-58245523D01*
X16105142Y-58293142D01*
X16152761Y-58340761D01*
X16200380Y-58436000D01*
X16200380Y-58531238D01*
X16152761Y-58626476D01*
X16105142Y-58674095D01*
X16009904Y-58721714D01*
X15819428Y-58769333D01*
X15581333Y-58769333D01*
X15390857Y-58721714D01*
X15295619Y-58674095D01*
X15248000Y-58626476D01*
X15200380Y-58531238D01*
D11*
%TO.C,U2*%
X59740000Y-37782000D02*
X59740000Y-37517000D01*
X52020000Y-22162000D02*
X52020000Y-22427000D01*
X55880000Y-37782000D02*
X52020000Y-37782000D01*
X52020000Y-22427000D02*
X50205000Y-22427000D01*
X59740000Y-22162000D02*
X59740000Y-22427000D01*
X55880000Y-37782000D02*
X59740000Y-37782000D01*
X55880000Y-22162000D02*
X59740000Y-22162000D01*
X52020000Y-37782000D02*
X52020000Y-37517000D01*
X55880000Y-22162000D02*
X52020000Y-22162000D01*
%TO.C,R1*%
X13870000Y-29686000D02*
X13870000Y-23146000D01*
X16280000Y-29686000D02*
X16610000Y-29686000D01*
X16610000Y-23146000D02*
X16280000Y-23146000D01*
X14200000Y-29686000D02*
X13870000Y-29686000D01*
X16610000Y-29686000D02*
X16610000Y-23146000D01*
X13870000Y-23146000D02*
X14200000Y-23146000D01*
%TO.C,R4*%
X13870000Y-69310000D02*
X13870000Y-62770000D01*
X16610000Y-69310000D02*
X16610000Y-62770000D01*
X16280000Y-69310000D02*
X16610000Y-69310000D01*
X16610000Y-62770000D02*
X16280000Y-62770000D01*
X13870000Y-62770000D02*
X14200000Y-62770000D01*
X14200000Y-69310000D02*
X13870000Y-69310000D01*
%TO.C,Q1*%
X44174000Y-71446000D02*
X47774000Y-71446000D01*
X47782445Y-71423684D02*
G75*
G03*
X46754000Y-67146000I-1808445J1827684D01*
G01*
X45154000Y-67146000D02*
G75*
G03*
X44162125Y-71437741I820000J-2450000D01*
G01*
%TO.C,U1*%
X41537000Y-64843000D02*
X41537000Y-65243000D01*
X41537000Y-21643000D02*
X41537000Y-22043000D01*
X41537000Y-36843000D02*
X41537000Y-37243000D01*
X23544000Y-19310000D02*
X23544000Y-16643000D01*
X41537000Y-62243000D02*
X41537000Y-62643000D01*
X29537000Y-67643000D02*
X29937000Y-67643000D01*
X20537000Y-59743000D02*
X20537000Y-60143000D01*
X41537000Y-44443000D02*
X41537000Y-44843000D01*
X20537000Y-34343000D02*
X20537000Y-34743000D01*
X41537000Y-49543000D02*
X41537000Y-49943000D01*
X20537000Y-62243000D02*
X20537000Y-62643000D01*
X20537000Y-41943000D02*
X20537000Y-42343000D01*
X41537000Y-31743000D02*
X41537000Y-32143000D01*
X20537000Y-64843000D02*
X20537000Y-65243000D01*
X20537000Y-16643000D02*
X20537000Y-16943000D01*
X27337000Y-67643000D02*
X20537000Y-67643000D01*
X41537000Y-29243000D02*
X41537000Y-29643000D01*
X41537000Y-67643000D02*
X34737000Y-67643000D01*
X20537000Y-21643000D02*
X20537000Y-22043000D01*
X20537000Y-16643000D02*
X41537000Y-16643000D01*
X41537000Y-54643000D02*
X41537000Y-55043000D01*
X32137000Y-67643000D02*
X32537000Y-67643000D01*
X20537000Y-49543000D02*
X20537000Y-49943000D01*
X20537000Y-39443000D02*
X20537000Y-39843000D01*
X41537000Y-39443000D02*
X41537000Y-39843000D01*
X20537000Y-54643000D02*
X20537000Y-55043000D01*
X41537000Y-24143000D02*
X41537000Y-24543000D01*
X20537000Y-47043000D02*
X20537000Y-47443000D01*
X20537000Y-52143000D02*
X20537000Y-52543000D01*
X41537000Y-59743000D02*
X41537000Y-60143000D01*
X20537000Y-26743000D02*
X20537000Y-27143000D01*
X41537000Y-26743000D02*
X41537000Y-27143000D01*
X20537000Y-24143000D02*
X20537000Y-24543000D01*
X41537000Y-41943000D02*
X41537000Y-42343000D01*
X41537000Y-16643000D02*
X41537000Y-16943000D01*
X20537000Y-57243000D02*
X20537000Y-57643000D01*
X20537000Y-19310000D02*
X23544000Y-19310000D01*
X41537000Y-52143000D02*
X41537000Y-52543000D01*
X20537000Y-31743000D02*
X20537000Y-32143000D01*
X20537000Y-29243000D02*
X20537000Y-29643000D01*
X20537000Y-36843000D02*
X20537000Y-37243000D01*
X20537000Y-19043000D02*
X20537000Y-19443000D01*
X20537000Y-44443000D02*
X20537000Y-44843000D01*
X41537000Y-19043000D02*
X41537000Y-19443000D01*
X41537000Y-57243000D02*
X41537000Y-57643000D01*
X41537000Y-34343000D02*
X41537000Y-34743000D01*
X41537000Y-47043000D02*
X41537000Y-47443000D01*
%TO.C,R2*%
X16610000Y-42894000D02*
X16610000Y-36354000D01*
X16610000Y-36354000D02*
X16280000Y-36354000D01*
X13870000Y-36354000D02*
X14200000Y-36354000D01*
X16280000Y-42894000D02*
X16610000Y-42894000D01*
X13870000Y-42894000D02*
X13870000Y-36354000D01*
X14200000Y-42894000D02*
X13870000Y-42894000D01*
%TO.C,J2*%
X49693344Y-60922000D02*
X49260331Y-61172000D01*
X60634669Y-70867000D02*
X50154669Y-70867000D01*
X50154669Y-39897000D02*
X60634669Y-39897000D01*
X49260331Y-60672000D02*
X49693344Y-60922000D01*
X50154669Y-70867000D02*
X50154669Y-39897000D01*
X49260331Y-61172000D02*
X49260331Y-60672000D01*
%TO.C,R3*%
X16610000Y-49562000D02*
X16280000Y-49562000D01*
X16280000Y-56102000D02*
X16610000Y-56102000D01*
X13870000Y-56102000D02*
X13870000Y-49562000D01*
X14200000Y-56102000D02*
X13870000Y-56102000D01*
X13870000Y-49562000D02*
X14200000Y-49562000D01*
X16610000Y-56102000D02*
X16610000Y-49562000D01*
%TD*%
M02*
