G04 #@! TF.GenerationSoftware,KiCad,Pcbnew,(7.0.0)*
G04 #@! TF.CreationDate,2023-03-01T21:10:47-08:00*
G04 #@! TF.ProjectId,DecentXE,44656365-6e74-4584-952e-6b696361645f,11*
G04 #@! TF.SameCoordinates,Original*
G04 #@! TF.FileFunction,Profile,NP*
%FSLAX46Y46*%
G04 Gerber Fmt 4.6, Leading zero omitted, Abs format (unit mm)*
G04 Created by KiCad (PCBNEW (7.0.0)) date 2023-03-01 21:10:47*
%MOMM*%
%LPD*%
G01*
G04 APERTURE LIST*
G04 #@! TA.AperFunction,Profile*
%ADD10C,0.050000*%
G04 #@! TD*
G04 APERTURE END LIST*
D10*
X351560000Y-25360000D02*
X351560000Y-148660000D01*
X22360000Y-148660000D02*
G75*
G03*
X25360000Y-151660000I3000000J0D01*
G01*
X351560000Y-25360000D02*
G75*
G03*
X348560000Y-22360000I-3000000J0D01*
G01*
X348560000Y-151660000D02*
G75*
G03*
X351560000Y-148660000I0J3000000D01*
G01*
X47360000Y-151660000D02*
G75*
G03*
X50360000Y-148660000I0J3000000D01*
G01*
X72260000Y-148660000D02*
G75*
G03*
X75260000Y-151660000I3000000J0D01*
G01*
X72260000Y-146560000D02*
X72260000Y-148660000D01*
X75260000Y-151660000D02*
X296600000Y-151660000D01*
X296600000Y-151660000D02*
G75*
G03*
X299600000Y-148660000I0J3000000D01*
G01*
X299600000Y-146560000D02*
X321500000Y-146560000D01*
X321500000Y-146560000D02*
X321500000Y-148660000D01*
X299600000Y-146560000D02*
X299600000Y-148660000D01*
X321500000Y-148660000D02*
G75*
G03*
X324500000Y-151660000I3000000J0D01*
G01*
X324500000Y-151660000D02*
X348560000Y-151660000D01*
X25360000Y-151660000D02*
X47360000Y-151660000D01*
X25360000Y-22360000D02*
X348560000Y-22360000D01*
X50360000Y-146560000D02*
X72260000Y-146560000D01*
X25360000Y-22360000D02*
G75*
G03*
X22360000Y-25360000I0J-3000000D01*
G01*
X50360000Y-146560000D02*
X50360000Y-148660000D01*
X22360000Y-25360000D02*
X22360000Y-148660000D01*
M02*
