M48
; DRILL file {KiCad (7.0.0)} date Wed Apr  5 18:56:56 2023
; FORMAT={-:-/ absolute / metric / decimal}
; #@! TF.CreationDate,2023-04-05T18:56:56-07:00
; #@! TF.GenerationSoftware,Kicad,Pcbnew,(7.0.0)
; #@! TF.FileFunction,Plated,1,2,PTH
FMAT,2
METRIC
; #@! TA.AperFunction,Plated,PTH,ViaDrill
T1C0.400
; #@! TA.AperFunction,Plated,PTH,ComponentDrill
T2C0.900
; #@! TA.AperFunction,Plated,PTH,ComponentDrill
T3C0.950
; #@! TA.AperFunction,Plated,PTH,ComponentDrill
T4C1.000
; #@! TA.AperFunction,Plated,PTH,ComponentDrill
T5C1.200
; #@! TA.AperFunction,Plated,PTH,ComponentDrill
T6C1.500
%
G90
G05
T1
X29.6Y-146.1
X63.6Y-112.3
X66.5Y-74.8
X67.2Y-131.8
X70.155Y-97.892
X70.2Y-94.0
X74.143Y-97.841
X77.927Y-101.067
X77.978Y-97.942
X83.134Y-133.375
X83.185Y-118.745
X83.185Y-125.07
X83.21Y-115.976
X89.5Y-93.3
X92.0Y-93.3
X92.786Y-142.697
X92.862Y-146.304
X93.7Y-112.2
X93.8Y-28.7
X100.7Y-76.0
X101.321Y-61.239
X101.346Y-58.242
X103.048Y-71.069
X105.842Y-73.99
X115.773Y-95.733
X115.824Y-99.593
X119.172Y-117.8
X121.285Y-150.159
X134.747Y-99.517
X134.823Y-96.037
X153.949Y-96.19
X153.975Y-99.644
X156.159Y-47.015
X157.48Y-65.262
X157.947Y-53.34
X159.436Y-47.041
X162.839Y-73.494
X168.783Y-96.368
X168.834Y-99.289
X184.734Y-92.939
X184.887Y-98.529
X191.872Y-96.266
X191.922Y-100.051
X195.834Y-29.286
X195.859Y-26.975
X196.475Y-128.149
X197.2Y-130.6
X198.702Y-123.874
X198.806Y-116.13
X200.079Y-61.112
X200.508Y-95.428
X201.149Y-42.958
X203.53Y-95.529
X203.759Y-94.132
X206.451Y-94.107
X209.448Y-109.017
X210.033Y-94.132
X210.896Y-96.368
X210.922Y-101.981
X210.922Y-107.95
X218.135Y-80.416
X218.338Y-142.723
X218.338Y-145.212
X219.206Y-42.044
X219.913Y-95.555
X220.37Y-80.442
X222.707Y-95.529
X234.01Y-143.785
X235.356Y-145.862
X238.912Y-95.504
X241.579Y-95.504
X241.63Y-128.841
X242.113Y-118.825
X246.634Y-98.529
X251.181Y-51.206
X251.689Y-113.005
X252.451Y-26.848
X252.501Y-30.353
X252.843Y-65.329
X253.568Y-66.065
X254.349Y-66.834
X254.61Y-146.587
X254.859Y-128.147
X255.524Y-137.008
X255.549Y-133.909
X256.007Y-51.156
X257.348Y-31.889
X257.912Y-95.428
X259.956Y-116.13
X260.35Y-42.044
X260.655Y-95.479
X260.731Y-94.031
X261.106Y-128.123
X261.62Y-43.18
X262.433Y-137.033
X263.271Y-73.494
X263.373Y-94.031
X265.201Y-148.524
X269.57Y-94.082
X270.053Y-110.388
X270.561Y-137.389
X270.612Y-140.411
X271.572Y-118.675
X272.644Y-110.414
X275.336Y-80.239
X276.809Y-95.453
X277.724Y-80.188
X279.121Y-110.869
X279.756Y-95.453
X279.806Y-93.828
X280.712Y-148.524
X280.924Y-122.453
X282.143Y-93.777
X283.8Y-119.4
X285.852Y-93.802
X287.985Y-145.999
X288.061Y-147.076
X288.647Y-143.181
X289.5Y-143.906
X290.754Y-147.117
X292.684Y-128.829
X295.885Y-95.555
X296.647Y-116.129
X296.875Y-132.969
X298.729Y-95.606
X298.907Y-93.751
X299.212Y-116.154
X301.269Y-93.675
X302.158Y-42.596
X302.158Y-142.874
X302.641Y-54.375
X302.995Y-133.311
X303.327Y-92.939
X304.775Y-42.596
X305.479Y-122.057
X309.448Y-118.934
X312.445Y-53.162
X312.598Y-42.901
X314.833Y-40.996
X326.697Y-131.015
X331.303Y-106.02
T3
X337.88Y-52.062
X340.38Y-52.062
X342.88Y-52.062
X345.38Y-52.062
T4
X34.949Y-113.59
X34.964Y-90.984
X37.489Y-113.59
X37.504Y-90.984
X40.029Y-113.59
X40.044Y-90.984
X277.66Y-135.66
X277.66Y-138.2
X280.2Y-135.66
X280.2Y-138.2
X282.74Y-135.66
X282.74Y-138.2
X285.28Y-135.66
X285.28Y-138.2
X287.82Y-135.66
X287.82Y-138.2
X290.36Y-135.66
X290.36Y-138.2
X292.9Y-135.66
X292.9Y-138.2
X295.44Y-135.66
X295.44Y-138.2
X297.98Y-135.66
X297.98Y-138.2
X300.52Y-135.66
X300.52Y-138.2
X303.06Y-135.66
X303.06Y-138.2
X305.6Y-135.66
X305.6Y-138.2
X313.838Y-133.502
X313.838Y-136.042
X313.838Y-138.836
X313.838Y-141.376
T5
X51.22Y-69.14
X55.982Y-88.19
X58.364Y-107.24
X63.126Y-126.29
X70.27Y-69.14
X79.795Y-88.19
X84.557Y-107.24
X89.32Y-69.14
X94.082Y-37.69
X94.082Y-126.29
X98.845Y-88.19
X103.608Y-107.24
X108.37Y-69.14
X111.942Y-145.34
X113.132Y-126.29
X117.895Y-88.19
X122.657Y-37.69
X122.657Y-107.24
X127.42Y-69.14
X132.183Y-126.29
X136.945Y-88.19
X141.707Y-107.24
X146.47Y-69.14
X151.232Y-37.69
X151.232Y-126.29
X155.995Y-88.19
X160.757Y-107.24
X165.52Y-69.14
X170.282Y-126.29
X175.045Y-88.19
X179.808Y-37.69
X179.808Y-107.24
X184.57Y-69.14
X184.57Y-145.34
X189.332Y-126.29
X194.095Y-88.19
X198.857Y-107.24
X203.62Y-69.14
X208.382Y-37.69
X208.382Y-126.29
X213.145Y-88.19
X217.907Y-107.24
X222.67Y-69.14
X227.432Y-126.29
X232.195Y-88.19
X236.957Y-37.69
X236.957Y-107.24
X241.72Y-69.14
X246.482Y-126.29
X251.245Y-88.19
X256.007Y-107.24
X257.198Y-145.34
X260.77Y-69.14
X265.532Y-37.69
X265.532Y-126.29
X270.295Y-88.19
X275.058Y-107.24
X279.82Y-69.14
X289.345Y-88.19
X291.726Y-126.29
X294.107Y-107.24
X294.12Y-37.69
X296.33Y-61.52
X308.395Y-69.14
X312.999Y-90.095
X315.539Y-107.24
X317.92Y-126.29
X320.777Y-85.65
X322.683Y-37.69
X325.54Y-66.6
T6
X53.76Y-70.06
X58.523Y-89.11
X60.904Y-108.16
X65.666Y-127.21
X72.81Y-70.06
X82.335Y-89.11
X87.097Y-108.16
X91.86Y-70.06
X96.623Y-38.61
X96.623Y-127.21
X101.385Y-89.11
X106.147Y-108.16
X110.91Y-70.06
X114.482Y-146.26
X115.672Y-127.21
X120.435Y-89.11
X125.197Y-38.61
X125.197Y-108.16
X129.96Y-70.06
X134.722Y-127.21
X139.485Y-89.11
X144.248Y-108.16
X149.01Y-70.06
X153.772Y-38.61
X153.772Y-127.21
X158.535Y-89.11
X163.297Y-108.16
X168.06Y-70.06
X172.822Y-127.21
X177.585Y-89.11
X182.347Y-38.61
X182.347Y-108.16
X187.11Y-70.06
X187.11Y-146.26
X191.873Y-127.21
X196.635Y-89.11
X201.397Y-108.16
X206.16Y-70.06
X210.922Y-38.61
X210.922Y-127.21
X215.685Y-89.11
X220.447Y-108.16
X225.21Y-70.06
X229.972Y-127.21
X234.735Y-89.11
X239.498Y-38.61
X239.498Y-108.16
X244.26Y-70.06
X249.022Y-127.21
X253.785Y-89.11
X258.548Y-108.16
X259.738Y-146.26
X263.31Y-70.06
X268.072Y-38.61
X268.072Y-127.21
X272.835Y-89.11
X277.597Y-108.16
X282.36Y-70.06
X291.885Y-89.11
X294.266Y-127.21
X295.41Y-64.06
X296.647Y-108.16
X296.66Y-38.61
X310.935Y-70.06
X312.079Y-92.635
X318.079Y-108.16
X320.46Y-127.21
X321.697Y-83.11
X325.222Y-38.61
X326.46Y-64.06
T2
X49.229Y-68.673G85X48.891Y-67.947
G05
X53.992Y-87.723G85X53.653Y-86.997
G05
X56.373Y-106.773G85X56.035Y-106.047
G05
X56.91Y-69.81G85X55.81Y-69.81
G05
X61.135Y-125.823G85X60.797Y-125.097
G05
X61.672Y-88.86G85X60.572Y-88.86
G05
X64.054Y-107.91G85X62.954Y-107.91
G05
X68.279Y-68.673G85X67.941Y-67.947
G05
X68.816Y-126.96G85X67.716Y-126.96
G05
X75.96Y-69.81G85X74.86Y-69.81
G05
X77.804Y-87.723G85X77.466Y-86.997
G05
X82.567Y-106.773G85X82.228Y-106.047
G05
X85.485Y-88.86G85X84.385Y-88.86
G05
X87.329Y-68.673G85X86.991Y-67.947
G05
X90.248Y-107.91G85X89.147Y-107.91
G05
X92.092Y-37.223G85X91.753Y-36.497
G05
X92.092Y-125.823G85X91.753Y-125.097
G05
X95.01Y-69.81G85X93.91Y-69.81
G05
X96.854Y-87.723G85X96.516Y-86.997
G05
X99.772Y-38.36G85X98.672Y-38.36
G05
X99.772Y-126.96G85X98.672Y-126.96
G05
X101.617Y-106.773G85X101.278Y-106.047
G05
X104.535Y-88.86G85X103.435Y-88.86
G05
X106.379Y-68.673G85X106.041Y-67.947
G05
X109.297Y-107.91G85X108.197Y-107.91
G05
X109.951Y-144.873G85X109.613Y-144.147
G05
X111.142Y-125.823G85X110.803Y-125.097
G05
X114.06Y-69.81G85X112.96Y-69.81
G05
X115.904Y-87.723G85X115.566Y-86.997
G05
X117.632Y-146.01G85X116.532Y-146.01
G05
X118.822Y-126.96G85X117.722Y-126.96
G05
X120.667Y-37.223G85X120.328Y-36.497
G05
X120.667Y-106.773G85X120.328Y-106.047
G05
X123.585Y-88.86G85X122.485Y-88.86
G05
X125.429Y-68.673G85X125.091Y-67.947
G05
X128.347Y-38.36G85X127.247Y-38.36
G05
X128.347Y-107.91G85X127.247Y-107.91
G05
X130.192Y-125.823G85X129.853Y-125.097
G05
X133.11Y-69.81G85X132.01Y-69.81
G05
X134.954Y-87.723G85X134.616Y-86.997
G05
X137.873Y-126.96G85X136.773Y-126.96
G05
X139.717Y-106.773G85X139.378Y-106.047
G05
X142.635Y-88.86G85X141.535Y-88.86
G05
X144.479Y-68.673G85X144.141Y-67.947
G05
X147.397Y-107.91G85X146.297Y-107.91
G05
X149.242Y-37.223G85X148.903Y-36.497
G05
X149.242Y-125.823G85X148.903Y-125.097
G05
X152.16Y-69.81G85X151.06Y-69.81
G05
X154.004Y-87.723G85X153.666Y-86.997
G05
X156.922Y-38.36G85X155.822Y-38.36
G05
X156.922Y-126.96G85X155.822Y-126.96
G05
X158.767Y-106.773G85X158.428Y-106.047
G05
X161.685Y-88.86G85X160.585Y-88.86
G05
X163.529Y-68.673G85X163.191Y-67.947
G05
X166.447Y-107.91G85X165.347Y-107.91
G05
X168.292Y-125.823G85X167.953Y-125.097
G05
X171.21Y-69.81G85X170.11Y-69.81
G05
X173.054Y-87.723G85X172.716Y-86.997
G05
X175.972Y-126.96G85X174.873Y-126.96
G05
X177.817Y-37.223G85X177.478Y-36.497
G05
X177.817Y-106.773G85X177.478Y-106.047
G05
X180.735Y-88.86G85X179.635Y-88.86
G05
X182.579Y-68.673G85X182.241Y-67.947
G05
X182.579Y-144.873G85X182.241Y-144.147
G05
X185.498Y-38.36G85X184.397Y-38.36
G05
X185.498Y-107.91G85X184.397Y-107.91
G05
X187.342Y-125.823G85X187.003Y-125.097
G05
X190.26Y-69.81G85X189.16Y-69.81
G05
X190.26Y-146.01G85X189.16Y-146.01
G05
X192.104Y-87.723G85X191.766Y-86.997
G05
X195.022Y-126.96G85X193.922Y-126.96
G05
X196.867Y-106.773G85X196.528Y-106.047
G05
X199.785Y-88.86G85X198.685Y-88.86
G05
X201.629Y-68.673G85X201.291Y-67.947
G05
X204.547Y-107.91G85X203.447Y-107.91
G05
X206.392Y-37.223G85X206.053Y-36.497
G05
X206.392Y-125.823G85X206.053Y-125.097
G05
X209.31Y-69.81G85X208.21Y-69.81
G05
X211.154Y-87.723G85X210.816Y-86.997
G05
X214.072Y-38.36G85X212.972Y-38.36
G05
X214.072Y-126.96G85X212.972Y-126.96
G05
X215.917Y-106.773G85X215.578Y-106.047
G05
X218.835Y-88.86G85X217.735Y-88.86
G05
X220.679Y-68.673G85X220.341Y-67.947
G05
X223.597Y-107.91G85X222.498Y-107.91
G05
X225.442Y-125.823G85X225.103Y-125.097
G05
X228.36Y-69.81G85X227.26Y-69.81
G05
X230.204Y-87.723G85X229.866Y-86.997
G05
X233.123Y-126.96G85X232.022Y-126.96
G05
X234.967Y-37.223G85X234.628Y-36.497
G05
X234.967Y-106.773G85X234.628Y-106.047
G05
X237.885Y-88.86G85X236.785Y-88.86
G05
X239.729Y-68.673G85X239.391Y-67.947
G05
X242.647Y-38.36G85X241.547Y-38.36
G05
X242.647Y-107.91G85X241.547Y-107.91
G05
X244.492Y-125.823G85X244.153Y-125.097
G05
X247.41Y-69.81G85X246.31Y-69.81
G05
X249.254Y-87.723G85X248.916Y-86.997
G05
X252.172Y-126.96G85X251.072Y-126.96
G05
X254.017Y-106.773G85X253.678Y-106.047
G05
X255.207Y-144.873G85X254.869Y-144.147
G05
X256.935Y-88.86G85X255.835Y-88.86
G05
X258.779Y-68.673G85X258.441Y-67.947
G05
X261.697Y-107.91G85X260.597Y-107.91
G05
X262.888Y-146.01G85X261.788Y-146.01
G05
X263.542Y-37.223G85X263.203Y-36.497
G05
X263.542Y-125.823G85X263.203Y-125.097
G05
X266.46Y-69.81G85X265.36Y-69.81
G05
X268.304Y-87.723G85X267.966Y-86.997
G05
X271.222Y-38.36G85X270.123Y-38.36
G05
X271.222Y-126.96G85X270.123Y-126.96
G05
X273.067Y-106.773G85X272.728Y-106.047
G05
X275.985Y-88.86G85X274.885Y-88.86
G05
X277.829Y-68.673G85X277.491Y-67.947
G05
X280.748Y-107.91G85X279.647Y-107.91
G05
X285.51Y-69.81G85X284.41Y-69.81
G05
X287.354Y-87.723G85X287.016Y-86.997
G05
X289.735Y-125.823G85X289.397Y-125.097
G05
X292.117Y-106.773G85X291.778Y-106.047
G05
X292.129Y-37.223G85X291.791Y-36.497
G05
X295.035Y-88.86G85X293.935Y-88.86
G05
X295.66Y-67.21G85X295.66Y-66.11
G05
X297.416Y-126.96G85X296.316Y-126.96
G05
X296.797Y-59.529G85X297.523Y-59.191
G05
X299.798Y-107.91G85X298.697Y-107.91
G05
X299.81Y-38.36G85X298.71Y-38.36
G05
X306.404Y-68.673G85X306.066Y-67.947
G05
X312.329Y-95.785G85X312.329Y-94.685
G05
X313.548Y-106.773G85X313.21Y-106.047
G05
X314.085Y-69.81G85X312.985Y-69.81
G05
X313.466Y-88.104G85X314.191Y-87.766
G05
X315.929Y-125.823G85X315.591Y-125.097
G05
X320.31Y-87.641G85X319.585Y-87.979
G05
X320.692Y-37.223G85X320.353Y-36.497
G05
X321.229Y-107.91G85X320.129Y-107.91
G05
X321.447Y-79.96G85X321.447Y-81.06
G05
X323.61Y-126.96G85X322.51Y-126.96
G05
X325.073Y-68.591G85X324.347Y-68.929
G05
X326.21Y-60.91G85X326.21Y-62.01
G05
X328.373Y-38.36G85X327.272Y-38.36
G05
T6
X57.614Y-66.576G85X56.906Y-67.284
G05
X62.376Y-85.626G85X61.669Y-86.334
G05
X64.757Y-104.676G85X64.05Y-105.384
G05
X69.52Y-123.726G85X68.813Y-124.434
G05
X76.664Y-66.576G85X75.956Y-67.284
G05
X86.189Y-85.626G85X85.481Y-86.334
G05
X90.951Y-104.676G85X90.244Y-105.384
G05
X95.714Y-66.576G85X95.006Y-67.284
G05
X100.476Y-35.126G85X99.769Y-35.834
G05
X100.476Y-123.726G85X99.769Y-124.434
G05
X105.239Y-85.626G85X104.531Y-86.334
G05
X110.001Y-104.676G85X109.294Y-105.384
G05
X114.764Y-66.576G85X114.056Y-67.284
G05
X118.335Y-142.776G85X117.628Y-143.484
G05
X119.526Y-123.726G85X118.819Y-124.434
G05
X124.289Y-85.626G85X123.581Y-86.334
G05
X129.051Y-35.126G85X128.344Y-35.834
G05
X129.051Y-104.676G85X128.344Y-105.384
G05
X133.814Y-66.576G85X133.106Y-67.284
G05
X138.576Y-123.726G85X137.869Y-124.434
G05
X143.339Y-85.626G85X142.631Y-86.334
G05
X148.101Y-104.676G85X147.394Y-105.384
G05
X152.864Y-66.576G85X152.156Y-67.284
G05
X157.626Y-35.126G85X156.919Y-35.834
G05
X157.626Y-123.726G85X156.919Y-124.434
G05
X162.389Y-85.626G85X161.681Y-86.334
G05
X167.151Y-104.676G85X166.444Y-105.384
G05
X171.914Y-66.576G85X171.206Y-67.284
G05
X176.676Y-123.726G85X175.969Y-124.434
G05
X181.439Y-85.626G85X180.731Y-86.334
G05
X186.201Y-35.126G85X185.494Y-35.834
G05
X186.201Y-104.676G85X185.494Y-105.384
G05
X190.964Y-66.576G85X190.256Y-67.284
G05
X190.964Y-142.776G85X190.256Y-143.484
G05
X195.726Y-123.726G85X195.019Y-124.434
G05
X200.489Y-85.626G85X199.781Y-86.334
G05
X205.251Y-104.676G85X204.544Y-105.384
G05
X210.014Y-66.576G85X209.306Y-67.284
G05
X214.776Y-35.126G85X214.069Y-35.834
G05
X214.776Y-123.726G85X214.069Y-124.434
G05
X219.539Y-85.626G85X218.831Y-86.334
G05
X224.301Y-104.676G85X223.594Y-105.384
G05
X229.064Y-66.576G85X228.356Y-67.284
G05
X233.826Y-123.726G85X233.119Y-124.434
G05
X238.589Y-85.626G85X237.881Y-86.334
G05
X243.351Y-35.126G85X242.644Y-35.834
G05
X243.351Y-104.676G85X242.644Y-105.384
G05
X248.114Y-66.576G85X247.406Y-67.284
G05
X252.876Y-123.726G85X252.169Y-124.434
G05
X257.639Y-85.626G85X256.931Y-86.334
G05
X262.401Y-104.676G85X261.694Y-105.384
G05
X263.592Y-142.776G85X262.885Y-143.484
G05
X267.164Y-66.576G85X266.456Y-67.284
G05
X271.926Y-35.126G85X271.219Y-35.834
G05
X271.926Y-123.726G85X271.219Y-124.434
G05
X276.689Y-85.626G85X275.981Y-86.334
G05
X281.451Y-104.676G85X280.744Y-105.384
G05
X286.214Y-66.576G85X285.506Y-67.284
G05
X295.739Y-85.626G85X295.031Y-86.334
G05
X298.12Y-123.726G85X297.413Y-124.434
G05
X298.894Y-67.914G85X298.186Y-67.206
G05
X300.501Y-104.676G85X299.794Y-105.384
G05
X300.514Y-35.126G85X299.806Y-35.834
G05
X314.789Y-66.576G85X314.081Y-67.284
G05
X315.562Y-96.489G85X314.855Y-95.781
G05
X318.214Y-79.256G85X318.921Y-79.964
G05
X321.932Y-104.676G85X321.225Y-105.384
G05
X322.976Y-60.206G85X323.684Y-60.914
G05
X324.314Y-123.726G85X323.606Y-124.434
G05
X329.076Y-35.126G85X328.369Y-35.834
G05
T0
M30
