G04 #@! TF.GenerationSoftware,KiCad,Pcbnew,(6.0.10)*
G04 #@! TF.CreationDate,2023-01-22T18:03:19-08:00*
G04 #@! TF.ProjectId,DecentXE-plate,44656365-6e74-4584-952d-706c6174652e,11*
G04 #@! TF.SameCoordinates,Original*
G04 #@! TF.FileFunction,Soldermask,Top*
G04 #@! TF.FilePolarity,Negative*
%FSLAX46Y46*%
G04 Gerber Fmt 4.6, Leading zero omitted, Abs format (unit mm)*
G04 Created by KiCad (PCBNEW (6.0.10)) date 2023-01-22 18:03:19*
%MOMM*%
%LPD*%
G01*
G04 APERTURE LIST*
G04 APERTURE END LIST*
G36*
X352467333Y-59345628D02*
G01*
X352467312Y-62380141D01*
X352467237Y-65249911D01*
X352467090Y-67959527D01*
X352466854Y-70513578D01*
X352466511Y-72916654D01*
X352466042Y-75173345D01*
X352465431Y-77288241D01*
X352464658Y-79265930D01*
X352463708Y-81111002D01*
X352462561Y-82828048D01*
X352461200Y-84421656D01*
X352459607Y-85896417D01*
X352457765Y-87256920D01*
X352455655Y-88507754D01*
X352453260Y-89653509D01*
X352450562Y-90698775D01*
X352447543Y-91648141D01*
X352444185Y-92506197D01*
X352440472Y-93277532D01*
X352436384Y-93966737D01*
X352431904Y-94578400D01*
X352427014Y-95117112D01*
X352421697Y-95587462D01*
X352415934Y-95994039D01*
X352409709Y-96341433D01*
X352403002Y-96634234D01*
X352395797Y-96877031D01*
X352388075Y-97074414D01*
X352379819Y-97230973D01*
X352371011Y-97351296D01*
X352361633Y-97439975D01*
X352351667Y-97501597D01*
X352341096Y-97540754D01*
X352329902Y-97562034D01*
X352319167Y-97569730D01*
X352213477Y-97594876D01*
X351955601Y-97652982D01*
X351557649Y-97741412D01*
X351031733Y-97857529D01*
X350389965Y-97998699D01*
X349644457Y-98162284D01*
X348807319Y-98345650D01*
X347890665Y-98546158D01*
X346906604Y-98761174D01*
X345867249Y-98988062D01*
X344784712Y-99224185D01*
X343671104Y-99466907D01*
X342538537Y-99713592D01*
X341399122Y-99961604D01*
X340264970Y-100208307D01*
X339148195Y-100451065D01*
X338060906Y-100687242D01*
X337015216Y-100914201D01*
X336023236Y-101129307D01*
X335097079Y-101329924D01*
X334248855Y-101513414D01*
X333490676Y-101677143D01*
X332834654Y-101818474D01*
X332292900Y-101934772D01*
X331877526Y-102023399D01*
X331600644Y-102081720D01*
X331474365Y-102107099D01*
X331467957Y-102108000D01*
X331404929Y-102035795D01*
X331385333Y-101904722D01*
X331390996Y-101805271D01*
X331407698Y-101543214D01*
X331435015Y-101124891D01*
X331472520Y-100556641D01*
X331519786Y-99844805D01*
X331576386Y-98995720D01*
X331641896Y-98015727D01*
X331715887Y-96911165D01*
X331797934Y-95688372D01*
X331887610Y-94353690D01*
X331984489Y-92913456D01*
X332088144Y-91374010D01*
X332198149Y-89741692D01*
X332314078Y-88022841D01*
X332435505Y-86223796D01*
X332562002Y-84350897D01*
X332693143Y-82410482D01*
X332828503Y-80408892D01*
X332967654Y-78352466D01*
X333110170Y-76247543D01*
X333243308Y-74282222D01*
X333399485Y-71977411D01*
X333558072Y-69637012D01*
X333718331Y-67271897D01*
X333879526Y-64892938D01*
X334040922Y-62511006D01*
X334201780Y-60136974D01*
X334361364Y-57781713D01*
X334518938Y-55456094D01*
X334673766Y-53170989D01*
X334825110Y-50937271D01*
X334972234Y-48765811D01*
X335114402Y-46667479D01*
X335250876Y-44653150D01*
X335380920Y-42733693D01*
X335503799Y-40919980D01*
X335618774Y-39222884D01*
X335725109Y-37653276D01*
X335822068Y-36222028D01*
X335908915Y-34940012D01*
X335971586Y-34014833D01*
X336841888Y-21166667D01*
X352467333Y-21166667D01*
X352467333Y-59345628D01*
G37*
G36*
X306657772Y-63267167D02*
G01*
X307231152Y-65898863D01*
X307795482Y-68489163D01*
X308349692Y-71033147D01*
X308892710Y-73525892D01*
X309423464Y-75962476D01*
X309940883Y-78337979D01*
X310443895Y-80647478D01*
X310931430Y-82886052D01*
X311402416Y-85048779D01*
X311855780Y-87130738D01*
X312290453Y-89127006D01*
X312705362Y-91032663D01*
X313099437Y-92842787D01*
X313471605Y-94552456D01*
X313820796Y-96156748D01*
X314145937Y-97650742D01*
X314445958Y-99029516D01*
X314719787Y-100288149D01*
X314966353Y-101421719D01*
X315184584Y-102425304D01*
X315373409Y-103293983D01*
X315531756Y-104022833D01*
X315658555Y-104606935D01*
X315752733Y-105041365D01*
X315813220Y-105321202D01*
X315838943Y-105441525D01*
X315839826Y-105446047D01*
X315759555Y-105469432D01*
X315524504Y-105526675D01*
X315145310Y-105615422D01*
X314632609Y-105733320D01*
X313997038Y-105878013D01*
X313249234Y-106047148D01*
X312399833Y-106238372D01*
X311459470Y-106449329D01*
X310438784Y-106677665D01*
X309348410Y-106921027D01*
X308198984Y-107177061D01*
X307001144Y-107443412D01*
X305765525Y-107717727D01*
X304502764Y-107997650D01*
X303223498Y-108280829D01*
X301938363Y-108564908D01*
X300657996Y-108847535D01*
X299393032Y-109126354D01*
X298154109Y-109399012D01*
X296951862Y-109663155D01*
X295796929Y-109916428D01*
X294699946Y-110156478D01*
X293671549Y-110380950D01*
X292722375Y-110587490D01*
X291863060Y-110773744D01*
X291104241Y-110937359D01*
X290456553Y-111075979D01*
X289930635Y-111187251D01*
X289537121Y-111268821D01*
X289463936Y-111283642D01*
X289295461Y-111290522D01*
X289216492Y-111188825D01*
X289194315Y-111099763D01*
X289171740Y-110994670D01*
X289114876Y-110732375D01*
X289025517Y-110321116D01*
X288905459Y-109769136D01*
X288756498Y-109084674D01*
X288580428Y-108275971D01*
X288379045Y-107351268D01*
X288154143Y-106318805D01*
X287907519Y-105186823D01*
X287640967Y-103963563D01*
X287356282Y-102657264D01*
X287055260Y-101276168D01*
X286739696Y-99828516D01*
X286411385Y-98322547D01*
X286072123Y-96766503D01*
X285759911Y-95334667D01*
X285469404Y-94002380D01*
X285145222Y-92515563D01*
X284789746Y-90885137D01*
X284405356Y-89122022D01*
X283994432Y-87237138D01*
X283559355Y-85241405D01*
X283102505Y-83145745D01*
X282626262Y-80961077D01*
X282133008Y-78698322D01*
X281625123Y-76368399D01*
X281104986Y-73982231D01*
X280574979Y-71550736D01*
X280037481Y-69084836D01*
X279494874Y-66595450D01*
X278949537Y-64093499D01*
X278403852Y-61589904D01*
X277860198Y-59095584D01*
X277320957Y-56621461D01*
X276788507Y-54178454D01*
X276265231Y-51777484D01*
X276015293Y-50630667D01*
X275538362Y-48442470D01*
X275070492Y-46296180D01*
X274612978Y-44197734D01*
X274167118Y-42153070D01*
X273734208Y-40168128D01*
X273315546Y-38248846D01*
X272912428Y-36401162D01*
X272526152Y-34631014D01*
X272158014Y-32944341D01*
X271809311Y-31347082D01*
X271481341Y-29845175D01*
X271175399Y-28444557D01*
X270892784Y-27151169D01*
X270634791Y-25970948D01*
X270402718Y-24909832D01*
X270197862Y-23973760D01*
X270021519Y-23168671D01*
X269874988Y-22500502D01*
X269759563Y-21975193D01*
X269676543Y-21598682D01*
X269627224Y-21376907D01*
X269612889Y-21314833D01*
X269613007Y-21295705D01*
X269630725Y-21278294D01*
X269673593Y-21262518D01*
X269749166Y-21248299D01*
X269864995Y-21235555D01*
X270028633Y-21224206D01*
X270247633Y-21214171D01*
X270529546Y-21205371D01*
X270881927Y-21197724D01*
X271312326Y-21191150D01*
X271828297Y-21185569D01*
X272437392Y-21180900D01*
X273147164Y-21177063D01*
X273965165Y-21173978D01*
X274898948Y-21171564D01*
X275956064Y-21169740D01*
X277144068Y-21168427D01*
X278470511Y-21167543D01*
X279942945Y-21167009D01*
X281568923Y-21166744D01*
X283355999Y-21166667D01*
X297484890Y-21166667D01*
X306657772Y-63267167D01*
G37*
G36*
X178907308Y-74253441D02*
G01*
X179176113Y-70286381D01*
X179434562Y-66472074D01*
X179682587Y-62811509D01*
X179920122Y-59305674D01*
X180147099Y-55955558D01*
X180363453Y-52762149D01*
X180569115Y-49726437D01*
X180764019Y-46849408D01*
X180948098Y-44132053D01*
X181121284Y-41575360D01*
X181283512Y-39180317D01*
X181434713Y-36947912D01*
X181574821Y-34879135D01*
X181703769Y-32974973D01*
X181821491Y-31236416D01*
X181927918Y-29664452D01*
X182022984Y-28260069D01*
X182056108Y-27770667D01*
X182500205Y-21209000D01*
X204179222Y-21187671D01*
X225858239Y-21166343D01*
X226456045Y-22246004D01*
X226559768Y-22433569D01*
X226740802Y-22761214D01*
X226994633Y-23220768D01*
X227316752Y-23804058D01*
X227702646Y-24502912D01*
X228147803Y-25309158D01*
X228647712Y-26214623D01*
X229197861Y-27211135D01*
X229793738Y-28290521D01*
X230430832Y-29444611D01*
X231104631Y-30665230D01*
X231810624Y-31944207D01*
X232544298Y-33273370D01*
X233301143Y-34644546D01*
X234076646Y-36049564D01*
X234484035Y-36787667D01*
X235275844Y-38222223D01*
X236056252Y-39636045D01*
X236820371Y-41020278D01*
X237563311Y-42366071D01*
X238280186Y-43664569D01*
X238966105Y-44906920D01*
X239616180Y-46084271D01*
X240225523Y-47187769D01*
X240789244Y-48208560D01*
X241302456Y-49137792D01*
X241760269Y-49966611D01*
X242157794Y-50686165D01*
X242490144Y-51287600D01*
X242752429Y-51762063D01*
X242939761Y-52100701D01*
X242993086Y-52197000D01*
X243229315Y-52623679D01*
X243536547Y-53179062D01*
X243903974Y-53843593D01*
X244320791Y-54597714D01*
X244776191Y-55421869D01*
X245259368Y-56296501D01*
X245759517Y-57202054D01*
X246265829Y-58118971D01*
X246767500Y-59027696D01*
X246782571Y-59055000D01*
X247089139Y-59610365D01*
X247472292Y-60304429D01*
X247926766Y-61127654D01*
X248447294Y-62070503D01*
X249028611Y-63123438D01*
X249665450Y-64276922D01*
X250352546Y-65521417D01*
X251084633Y-66847385D01*
X251856445Y-68245290D01*
X252662716Y-69705593D01*
X253498181Y-71218756D01*
X254357573Y-72775243D01*
X255235626Y-74365516D01*
X256127075Y-75980037D01*
X257026654Y-77609269D01*
X257929097Y-79243674D01*
X258632726Y-80518000D01*
X259566661Y-82209421D01*
X260520198Y-83936344D01*
X261486732Y-85686805D01*
X262459656Y-87448839D01*
X263432363Y-89210482D01*
X264398248Y-90959769D01*
X265350705Y-92684737D01*
X266283127Y-94373420D01*
X267188907Y-96013855D01*
X268061441Y-97594077D01*
X268894121Y-99102122D01*
X269680341Y-100526025D01*
X270413495Y-101853822D01*
X271086977Y-103073549D01*
X271694181Y-104173242D01*
X272228500Y-105140935D01*
X272400441Y-105452333D01*
X273009257Y-106555281D01*
X273595043Y-107617155D01*
X274152607Y-108628512D01*
X274676760Y-109579909D01*
X275162310Y-110461904D01*
X275604068Y-111265053D01*
X275996844Y-111979913D01*
X276335446Y-112597041D01*
X276614685Y-113106995D01*
X276829371Y-113500332D01*
X276974312Y-113767608D01*
X277044319Y-113899380D01*
X277050143Y-113911688D01*
X276970731Y-113935134D01*
X276736073Y-113992390D01*
X276356374Y-114081207D01*
X275841839Y-114199339D01*
X275202672Y-114344539D01*
X274449077Y-114514559D01*
X273591260Y-114707151D01*
X272639425Y-114920069D01*
X271603776Y-115151065D01*
X270494517Y-115397892D01*
X269321855Y-115658302D01*
X268095992Y-115930049D01*
X266827134Y-116210885D01*
X265525485Y-116498563D01*
X264201249Y-116790836D01*
X262864632Y-117085455D01*
X261525837Y-117380175D01*
X260195069Y-117672747D01*
X258882534Y-117960924D01*
X257598434Y-118242460D01*
X256352976Y-118515106D01*
X255156363Y-118776616D01*
X254018799Y-119024742D01*
X252950491Y-119257237D01*
X251961641Y-119471853D01*
X251062455Y-119666344D01*
X250263137Y-119838462D01*
X249573892Y-119985960D01*
X249004924Y-120106590D01*
X248566438Y-120198105D01*
X248268638Y-120258259D01*
X248121729Y-120284803D01*
X248107528Y-120285549D01*
X248067038Y-120210201D01*
X247951580Y-119993600D01*
X247765573Y-119644064D01*
X247513434Y-119169911D01*
X247199584Y-118579459D01*
X246828442Y-117881026D01*
X246404424Y-117082930D01*
X245931952Y-116193489D01*
X245415443Y-115221020D01*
X244859317Y-114173843D01*
X244267992Y-113060273D01*
X243645887Y-111888631D01*
X242997420Y-110667233D01*
X242327012Y-109404398D01*
X242319015Y-109389333D01*
X241648388Y-108126116D01*
X240999642Y-106904281D01*
X240377197Y-105732144D01*
X239785471Y-104618019D01*
X239228884Y-103570221D01*
X238711854Y-102597064D01*
X238238800Y-101706863D01*
X237814141Y-100907933D01*
X237442297Y-100208589D01*
X237127686Y-99617144D01*
X236874726Y-99141915D01*
X236687838Y-98791214D01*
X236571440Y-98573358D01*
X236529950Y-98496660D01*
X236529925Y-98496630D01*
X236447036Y-98512676D01*
X236208374Y-98562843D01*
X235823580Y-98645027D01*
X235302296Y-98757124D01*
X234654161Y-98897030D01*
X233888816Y-99062641D01*
X233015902Y-99251852D01*
X232045059Y-99462560D01*
X230985929Y-99692660D01*
X229848152Y-99940048D01*
X228641368Y-100202621D01*
X227375218Y-100478273D01*
X226059344Y-100764901D01*
X224703384Y-101060400D01*
X223316981Y-101362667D01*
X221909775Y-101669597D01*
X220491406Y-101979086D01*
X219071516Y-102289030D01*
X217659744Y-102597325D01*
X216265732Y-102901866D01*
X214899120Y-103200551D01*
X213569549Y-103491273D01*
X212286659Y-103771930D01*
X211060091Y-104040417D01*
X209899486Y-104294629D01*
X208814485Y-104532464D01*
X207814728Y-104751816D01*
X206909856Y-104950582D01*
X206109509Y-105126656D01*
X205423328Y-105277937D01*
X204860954Y-105402318D01*
X204432027Y-105497696D01*
X204146189Y-105561967D01*
X204013079Y-105593026D01*
X204004329Y-105595587D01*
X203999993Y-105681748D01*
X203992781Y-105927744D01*
X203982887Y-106324102D01*
X203970506Y-106861352D01*
X203955830Y-107530022D01*
X203939055Y-108320640D01*
X203920374Y-109223737D01*
X203899981Y-110229840D01*
X203878070Y-111329477D01*
X203854835Y-112513178D01*
X203830470Y-113771472D01*
X203805168Y-115094886D01*
X203779125Y-116473950D01*
X203754151Y-117811987D01*
X203727646Y-119234499D01*
X203701807Y-120610131D01*
X203676822Y-121929424D01*
X203652879Y-123182916D01*
X203630165Y-124361147D01*
X203608869Y-125454657D01*
X203589177Y-126453987D01*
X203571277Y-127349675D01*
X203555357Y-128132261D01*
X203541604Y-128792285D01*
X203530206Y-129320287D01*
X203521351Y-129706806D01*
X203515226Y-129942382D01*
X203512124Y-130017743D01*
X203429096Y-130037124D01*
X203189072Y-130090688D01*
X202800512Y-130176584D01*
X202271874Y-130292962D01*
X201611618Y-130437970D01*
X200828203Y-130609758D01*
X199930087Y-130806474D01*
X198925731Y-131026267D01*
X197823592Y-131267286D01*
X196632131Y-131527681D01*
X195359805Y-131805600D01*
X194015076Y-132099192D01*
X192606400Y-132406606D01*
X191142238Y-132725992D01*
X189631049Y-133055498D01*
X189272333Y-133133694D01*
X187749067Y-133465806D01*
X186269491Y-133788538D01*
X184842169Y-134100016D01*
X183475666Y-134398365D01*
X182178546Y-134681710D01*
X180959373Y-134948177D01*
X179826712Y-135195892D01*
X178789128Y-135422978D01*
X177855183Y-135627563D01*
X177033444Y-135807772D01*
X176332473Y-135961729D01*
X175760836Y-136087561D01*
X175327097Y-136183393D01*
X175039820Y-136247350D01*
X174907570Y-136277557D01*
X174900167Y-136279476D01*
X174807883Y-136282819D01*
X174763973Y-136193955D01*
X174752062Y-135976303D01*
X174752000Y-135948468D01*
X174757675Y-135838419D01*
X174774445Y-135565116D01*
X174801929Y-135134247D01*
X174839746Y-134551501D01*
X174887514Y-133822569D01*
X174944853Y-132953138D01*
X175011379Y-131948899D01*
X175086713Y-130815541D01*
X175170473Y-129558752D01*
X175262277Y-128184223D01*
X175361745Y-126697641D01*
X175468494Y-125104698D01*
X175582143Y-123411080D01*
X175702312Y-121622479D01*
X175828618Y-119744583D01*
X175960680Y-117783082D01*
X176098118Y-115743664D01*
X176240549Y-113632018D01*
X176387592Y-111453835D01*
X176538866Y-109214803D01*
X176693989Y-106920612D01*
X176852580Y-104576950D01*
X177014258Y-102189507D01*
X177080744Y-101208263D01*
X177410281Y-96345442D01*
X177729863Y-91629444D01*
X178039424Y-87061256D01*
X178338896Y-82641868D01*
X178609857Y-78643158D01*
X205182303Y-78643158D01*
X205198439Y-78770362D01*
X205256460Y-78801393D01*
X205301216Y-78792782D01*
X205400975Y-78769988D01*
X205655759Y-78713575D01*
X206055109Y-78625822D01*
X206588565Y-78509010D01*
X207245668Y-78365421D01*
X208015958Y-78197334D01*
X208888977Y-78007029D01*
X209854265Y-77796788D01*
X210901363Y-77568891D01*
X212019811Y-77325618D01*
X213199150Y-77069249D01*
X214428921Y-76802066D01*
X215095667Y-76657267D01*
X216345285Y-76385809D01*
X217548281Y-76124254D01*
X218694360Y-75874853D01*
X219773225Y-75639855D01*
X220774581Y-75421512D01*
X221688131Y-75222074D01*
X222503580Y-75043790D01*
X223210632Y-74888910D01*
X223798990Y-74759686D01*
X224258359Y-74658367D01*
X224578444Y-74587203D01*
X224748947Y-74548445D01*
X224775218Y-74541769D01*
X224739150Y-74465394D01*
X224626325Y-74243382D01*
X224438929Y-73879905D01*
X224179150Y-73379130D01*
X223849174Y-72745228D01*
X223451188Y-71982368D01*
X222987378Y-71094720D01*
X222459933Y-70086452D01*
X221871038Y-68961735D01*
X221222880Y-67724738D01*
X220517646Y-66379630D01*
X219757523Y-64930581D01*
X218944697Y-63381760D01*
X218081356Y-61737338D01*
X217169687Y-60001482D01*
X216211875Y-58178363D01*
X215210108Y-56272150D01*
X214166573Y-54287013D01*
X213083456Y-52227121D01*
X211962944Y-50096643D01*
X210807224Y-47899750D01*
X209618484Y-45640610D01*
X209224094Y-44891205D01*
X208870766Y-44222280D01*
X208542117Y-43604769D01*
X208246345Y-43053728D01*
X207991647Y-42584214D01*
X207786220Y-42211281D01*
X207638260Y-41949987D01*
X207555965Y-41815387D01*
X207541644Y-41800871D01*
X207534369Y-41890569D01*
X207516939Y-42141482D01*
X207489853Y-42545829D01*
X207453612Y-43095828D01*
X207408714Y-43783697D01*
X207355658Y-44601654D01*
X207294945Y-45541916D01*
X207227072Y-46596703D01*
X207152541Y-47758231D01*
X207071850Y-49018719D01*
X206985498Y-50370384D01*
X206893985Y-51805446D01*
X206797810Y-53316121D01*
X206697472Y-54894628D01*
X206593472Y-56533185D01*
X206486308Y-58224010D01*
X206380126Y-59901667D01*
X206270030Y-61641451D01*
X206162455Y-63339694D01*
X206057910Y-64988395D01*
X205956907Y-66579549D01*
X205859958Y-68105156D01*
X205767574Y-69557211D01*
X205680266Y-70927714D01*
X205598545Y-72208662D01*
X205522923Y-73392051D01*
X205453912Y-74469881D01*
X205392022Y-75434147D01*
X205337765Y-76276848D01*
X205291652Y-76989982D01*
X205254195Y-77565546D01*
X205225905Y-77995537D01*
X205207293Y-78271953D01*
X205199129Y-78384058D01*
X205182303Y-78643158D01*
X178609857Y-78643158D01*
X178628213Y-78372266D01*
X178907308Y-74253441D01*
G37*
G36*
X76623564Y-27322411D02*
G01*
X76657544Y-27421418D01*
X76720387Y-27661626D01*
X76806266Y-28018491D01*
X76909352Y-28467472D01*
X77023818Y-28984029D01*
X77081857Y-29252333D01*
X78128586Y-33986236D01*
X79211820Y-38604796D01*
X80329984Y-43102661D01*
X81481502Y-47474476D01*
X82664798Y-51714887D01*
X83878295Y-55818540D01*
X85120419Y-59780082D01*
X86389593Y-63594157D01*
X87684241Y-67255412D01*
X89002787Y-70758492D01*
X90127849Y-73575333D01*
X91345458Y-76451785D01*
X92574667Y-79174587D01*
X93824854Y-81759405D01*
X95105395Y-84221909D01*
X96425668Y-86577765D01*
X97795051Y-88842641D01*
X99222922Y-91032207D01*
X100718658Y-93162128D01*
X102291637Y-95248074D01*
X103951236Y-97305713D01*
X105228993Y-98806000D01*
X105681943Y-99312641D01*
X106233886Y-99907769D01*
X106862297Y-100568760D01*
X107544650Y-101272990D01*
X108258420Y-101997835D01*
X108981082Y-102720670D01*
X109690111Y-103418871D01*
X110362982Y-104069814D01*
X110977169Y-104650874D01*
X111510148Y-105139428D01*
X111717667Y-105323220D01*
X114307101Y-107480018D01*
X116955191Y-109478676D01*
X119664991Y-111320998D01*
X122439555Y-113008789D01*
X125281937Y-114543853D01*
X128195191Y-115927995D01*
X131182371Y-117163018D01*
X132715000Y-117728851D01*
X135185192Y-118544499D01*
X137706059Y-119259438D01*
X140255386Y-119869906D01*
X142810961Y-120372137D01*
X145350567Y-120762371D01*
X147851992Y-121036844D01*
X150293022Y-121191792D01*
X152651442Y-121223453D01*
X153267833Y-121210472D01*
X153805699Y-121195965D01*
X154281777Y-121184918D01*
X154671752Y-121177747D01*
X154951309Y-121174868D01*
X155096132Y-121176696D01*
X155110931Y-121178964D01*
X155128833Y-121262798D01*
X155180585Y-121501573D01*
X155263899Y-121884795D01*
X155376488Y-122401972D01*
X155516064Y-123042612D01*
X155680338Y-123796222D01*
X155867024Y-124652310D01*
X156073833Y-125600383D01*
X156298477Y-126629950D01*
X156538670Y-127730518D01*
X156792123Y-128891594D01*
X157056548Y-130102685D01*
X157137047Y-130471333D01*
X157403838Y-131695843D01*
X157659342Y-132873983D01*
X157901336Y-133995216D01*
X158127598Y-135049006D01*
X158335906Y-136024817D01*
X158524037Y-136912112D01*
X158689769Y-137700355D01*
X158830879Y-138379011D01*
X158945146Y-138937542D01*
X159030346Y-139365412D01*
X159084257Y-139652085D01*
X159104657Y-139787025D01*
X159103950Y-139796309D01*
X158979717Y-139834861D01*
X158704053Y-139870601D01*
X158294841Y-139903256D01*
X157769962Y-139932552D01*
X157147299Y-139958217D01*
X156444736Y-139979977D01*
X155680155Y-139997559D01*
X154871439Y-140010690D01*
X154036471Y-140019095D01*
X153193132Y-140022503D01*
X152359307Y-140020639D01*
X151552877Y-140013230D01*
X150791726Y-140000004D01*
X150093735Y-139980686D01*
X149476789Y-139955004D01*
X149309667Y-139945988D01*
X145704067Y-139672907D01*
X142207436Y-139273000D01*
X138815379Y-138745226D01*
X135523500Y-138088545D01*
X132327403Y-137301918D01*
X129222695Y-136384305D01*
X126204980Y-135334667D01*
X123269862Y-134151963D01*
X121548165Y-133378762D01*
X120700929Y-132971482D01*
X119743391Y-132490876D01*
X118708057Y-131954608D01*
X117627436Y-131380343D01*
X116534035Y-130785746D01*
X115460361Y-130188480D01*
X114438920Y-129606209D01*
X113502222Y-129056598D01*
X112733667Y-128589028D01*
X110035386Y-126848835D01*
X107494294Y-125081021D01*
X105099157Y-123275518D01*
X102838740Y-121422258D01*
X100701812Y-119511173D01*
X98677140Y-117532195D01*
X96753489Y-115475258D01*
X94919626Y-113330292D01*
X93164319Y-111087230D01*
X93079761Y-110974126D01*
X91512482Y-108795813D01*
X90063473Y-106616435D01*
X88719898Y-104411872D01*
X87468920Y-102158008D01*
X86297705Y-99830726D01*
X85193414Y-97405908D01*
X84143212Y-94859436D01*
X83268758Y-92540667D01*
X82473776Y-90289984D01*
X81663035Y-87884622D01*
X80840332Y-85338101D01*
X80009462Y-82663943D01*
X79174220Y-79875668D01*
X78338404Y-76986798D01*
X77505809Y-74010853D01*
X76680231Y-70961355D01*
X75865465Y-67851824D01*
X75065309Y-64695781D01*
X74283556Y-61506748D01*
X73524005Y-58298245D01*
X72940876Y-55753000D01*
X72859914Y-55391514D01*
X72749658Y-54894964D01*
X72612428Y-54273992D01*
X72450545Y-53539243D01*
X72266328Y-52701358D01*
X72062100Y-51770983D01*
X71840179Y-50758758D01*
X71602887Y-49675328D01*
X71352543Y-48531336D01*
X71091468Y-47337426D01*
X70821983Y-46104239D01*
X70546409Y-44842420D01*
X70267064Y-43562611D01*
X69986270Y-42275456D01*
X69706348Y-40991597D01*
X69429617Y-39721679D01*
X69158398Y-38476344D01*
X68895011Y-37266235D01*
X68641778Y-36101996D01*
X68401017Y-34994270D01*
X68175050Y-33953699D01*
X67966197Y-32990927D01*
X67776779Y-32116598D01*
X67609116Y-31341354D01*
X67465528Y-30675838D01*
X67348335Y-30130695D01*
X67259859Y-29716566D01*
X67202419Y-29444095D01*
X67178336Y-29323925D01*
X67177763Y-29318943D01*
X67266134Y-29290669D01*
X67501805Y-29232366D01*
X67866767Y-29147840D01*
X68343010Y-29040898D01*
X68912526Y-28915346D01*
X69557306Y-28774991D01*
X70259340Y-28623639D01*
X71000619Y-28465097D01*
X71763135Y-28303172D01*
X72528877Y-28141669D01*
X73279838Y-27984396D01*
X73998007Y-27835159D01*
X74665376Y-27697765D01*
X75263936Y-27576020D01*
X75775678Y-27473730D01*
X76182591Y-27394702D01*
X76466668Y-27342743D01*
X76609900Y-27321659D01*
X76623564Y-27322411D01*
G37*
G36*
X63414575Y-30282272D02*
G01*
X63435827Y-30367918D01*
X63491982Y-30614020D01*
X63581966Y-31015653D01*
X63704706Y-31567892D01*
X63859126Y-32265811D01*
X64044155Y-33104484D01*
X64258717Y-34078985D01*
X64501739Y-35184388D01*
X64772147Y-36415769D01*
X65068867Y-37768200D01*
X65390826Y-39236757D01*
X65736949Y-40816514D01*
X66106162Y-42502544D01*
X66497393Y-44289922D01*
X66909566Y-46173723D01*
X67341608Y-48149021D01*
X67792446Y-50210889D01*
X68261005Y-52354403D01*
X68746211Y-54574636D01*
X69246991Y-56866663D01*
X69762271Y-59225558D01*
X70290977Y-61646395D01*
X70832035Y-64124249D01*
X71384371Y-66654193D01*
X71946912Y-69231303D01*
X72518583Y-71850652D01*
X73098311Y-74507314D01*
X73685021Y-77196365D01*
X74277641Y-79912877D01*
X74875095Y-82651926D01*
X75476311Y-85408586D01*
X76080215Y-88177931D01*
X76685732Y-90955034D01*
X77291789Y-93734972D01*
X77897311Y-96512817D01*
X78501226Y-99283644D01*
X79102458Y-102042527D01*
X79699935Y-104784541D01*
X80292583Y-107504760D01*
X80879327Y-110198258D01*
X81459094Y-112860109D01*
X82030810Y-115485388D01*
X82593400Y-118069168D01*
X83145792Y-120606525D01*
X83686912Y-123092532D01*
X84215684Y-125522264D01*
X84731037Y-127890795D01*
X85231895Y-130193199D01*
X85717185Y-132424550D01*
X86185833Y-134579924D01*
X86636766Y-136654393D01*
X87068909Y-138643032D01*
X87481188Y-140540917D01*
X87872530Y-142343119D01*
X88241861Y-144044715D01*
X88588106Y-145640779D01*
X88910193Y-147126384D01*
X89207047Y-148496605D01*
X89477595Y-149746516D01*
X89720762Y-150871191D01*
X89935475Y-151865705D01*
X90120659Y-152725132D01*
X90275242Y-153444546D01*
X90398149Y-154019022D01*
X90488306Y-154443634D01*
X90544639Y-154713455D01*
X90566075Y-154823561D01*
X90566194Y-154826028D01*
X90479736Y-154849306D01*
X90241993Y-154904933D01*
X89867251Y-154989753D01*
X89369796Y-155100616D01*
X88763914Y-155234369D01*
X88063890Y-155387859D01*
X87284010Y-155557933D01*
X86438560Y-155741438D01*
X85541825Y-155935223D01*
X85461926Y-155952449D01*
X84461182Y-156168566D01*
X83428633Y-156392292D01*
X82377961Y-156620612D01*
X81322852Y-156850512D01*
X80276991Y-157078978D01*
X79254061Y-157302995D01*
X78267746Y-157519547D01*
X77331731Y-157725621D01*
X76459701Y-157918202D01*
X75665339Y-158094276D01*
X74962331Y-158250827D01*
X74364360Y-158384841D01*
X73885110Y-158493304D01*
X73538267Y-158573201D01*
X73337513Y-158621517D01*
X73300167Y-158631633D01*
X73177340Y-158636849D01*
X73152000Y-158604009D01*
X73133859Y-158509495D01*
X73081801Y-158265813D01*
X72999372Y-157888931D01*
X72890118Y-157394819D01*
X72757586Y-156799445D01*
X72605322Y-156118777D01*
X72436873Y-155368785D01*
X72255785Y-154565436D01*
X72215282Y-154386137D01*
X71879293Y-152894716D01*
X71521077Y-151295617D01*
X71139453Y-149583469D01*
X70733238Y-147752898D01*
X70301250Y-145798532D01*
X69842308Y-143714998D01*
X69355230Y-141496924D01*
X68838833Y-139138936D01*
X68291936Y-136635663D01*
X67713357Y-133981731D01*
X67101914Y-131171768D01*
X66591014Y-128820333D01*
X66385506Y-127874241D01*
X66146195Y-126773163D01*
X65875359Y-125527560D01*
X65575276Y-124147890D01*
X65248224Y-122644612D01*
X64896479Y-121028187D01*
X64522319Y-119309074D01*
X64128023Y-117497732D01*
X63715866Y-115604620D01*
X63288127Y-113640199D01*
X62847084Y-111614928D01*
X62395013Y-109539265D01*
X61934192Y-107423671D01*
X61466899Y-105278605D01*
X60995411Y-103114527D01*
X60522005Y-100941895D01*
X60048960Y-98771170D01*
X59578552Y-96612811D01*
X59113059Y-94477277D01*
X59087712Y-94361000D01*
X58596189Y-92106216D01*
X58086007Y-89765837D01*
X57560331Y-87354381D01*
X57022325Y-84886364D01*
X56475153Y-82376305D01*
X55921982Y-79838722D01*
X55365976Y-77288132D01*
X54810298Y-74739054D01*
X54258115Y-72206004D01*
X53712591Y-69703502D01*
X53176891Y-67246065D01*
X52654179Y-64848210D01*
X52147620Y-62524456D01*
X51660379Y-60289320D01*
X51195621Y-58157321D01*
X50756510Y-56142975D01*
X50346212Y-54260802D01*
X49967890Y-52525317D01*
X49863880Y-52048187D01*
X49491818Y-50340930D01*
X49129432Y-48677107D01*
X48778368Y-47064319D01*
X48440272Y-45510166D01*
X48116792Y-44022246D01*
X47809575Y-42608159D01*
X47520267Y-41275504D01*
X47250514Y-40031882D01*
X47001964Y-38884892D01*
X46776264Y-37842133D01*
X46575059Y-36911204D01*
X46399998Y-36099705D01*
X46252725Y-35415236D01*
X46134890Y-34865396D01*
X46048137Y-34457785D01*
X45994114Y-34200001D01*
X45974467Y-34099645D01*
X45974417Y-34098854D01*
X46055116Y-34066407D01*
X46288302Y-34001820D01*
X46660790Y-33907977D01*
X47159396Y-33787764D01*
X47770935Y-33644065D01*
X48482223Y-33479767D01*
X49280075Y-33297754D01*
X50151306Y-33100912D01*
X51082733Y-32892126D01*
X52061171Y-32674282D01*
X53073435Y-32450264D01*
X54106340Y-32222958D01*
X55146703Y-31995249D01*
X56181338Y-31770022D01*
X57197062Y-31550164D01*
X58180689Y-31338558D01*
X59119036Y-31138090D01*
X59998917Y-30951646D01*
X60807149Y-30782111D01*
X61530546Y-30632370D01*
X62155925Y-30505309D01*
X62670100Y-30403812D01*
X63059888Y-30330765D01*
X63312103Y-30289053D01*
X63413561Y-30281561D01*
X63414575Y-30282272D01*
G37*
G36*
X42326365Y-34827022D02*
G01*
X42379310Y-35063799D01*
X42463372Y-35443617D01*
X42576103Y-35955266D01*
X42715058Y-36587536D01*
X42877789Y-37329218D01*
X43061850Y-38169101D01*
X43264793Y-39095977D01*
X43484173Y-40098635D01*
X43717543Y-41165866D01*
X43962455Y-42286460D01*
X44216464Y-43449207D01*
X44477121Y-44642897D01*
X44741982Y-45856322D01*
X45008598Y-47078270D01*
X45274523Y-48297533D01*
X45537311Y-49502901D01*
X45794514Y-50683164D01*
X46043686Y-51827111D01*
X46282381Y-52923535D01*
X46508151Y-53961224D01*
X46718549Y-54928970D01*
X46911130Y-55815562D01*
X47083446Y-56609791D01*
X47233050Y-57300446D01*
X47357496Y-57876319D01*
X47454337Y-58326200D01*
X47465376Y-58377667D01*
X48137986Y-61581281D01*
X48787579Y-64806893D01*
X49411750Y-68039435D01*
X50008093Y-71263842D01*
X50574204Y-74465045D01*
X51107675Y-77627978D01*
X51606103Y-80737574D01*
X52067082Y-83778766D01*
X52488206Y-86736486D01*
X52867070Y-89595668D01*
X53201269Y-92341246D01*
X53488397Y-94958151D01*
X53726050Y-97431317D01*
X53757371Y-97790000D01*
X53921326Y-99910033D01*
X54040948Y-101940839D01*
X54115923Y-103868845D01*
X54145936Y-105680476D01*
X54130672Y-107362159D01*
X54069816Y-108900319D01*
X54029395Y-109516333D01*
X53819335Y-111827267D01*
X53532607Y-114174610D01*
X53175245Y-116525461D01*
X52753284Y-118846917D01*
X52272758Y-121106074D01*
X51739702Y-123270029D01*
X51160150Y-125305880D01*
X51094523Y-125518333D01*
X50363445Y-127690337D01*
X49503892Y-129932132D01*
X48527528Y-132218462D01*
X47446018Y-134524067D01*
X46271028Y-136823693D01*
X45014222Y-139092080D01*
X44153578Y-140546667D01*
X43548105Y-141519326D01*
X42853255Y-142593178D01*
X42088745Y-143739911D01*
X41274294Y-144931214D01*
X40429621Y-146138773D01*
X39574446Y-147334278D01*
X38728486Y-148489416D01*
X37911461Y-149575874D01*
X37431130Y-150198667D01*
X35821590Y-152161765D01*
X34055616Y-154125755D01*
X32145581Y-156078253D01*
X30103865Y-158006877D01*
X27942842Y-159899244D01*
X26745947Y-160889275D01*
X26356227Y-161205333D01*
X22436667Y-161205333D01*
X22436667Y-139344753D01*
X23224955Y-138442876D01*
X25224108Y-136029308D01*
X27111704Y-133492729D01*
X28883381Y-130841212D01*
X30534777Y-128082832D01*
X32061530Y-125225661D01*
X33459278Y-122277773D01*
X34723658Y-119247241D01*
X35850309Y-116142139D01*
X36658218Y-113580333D01*
X37329680Y-111192031D01*
X37917162Y-108862599D01*
X38423615Y-106569100D01*
X38851987Y-104288597D01*
X39205229Y-101998154D01*
X39486290Y-99674834D01*
X39698121Y-97295700D01*
X39843670Y-94837816D01*
X39925888Y-92278244D01*
X39947723Y-89594049D01*
X39935593Y-88095667D01*
X39872686Y-85279153D01*
X39757677Y-82427555D01*
X39589257Y-79528774D01*
X39366116Y-76570709D01*
X39086946Y-73541261D01*
X38750435Y-70428330D01*
X38355276Y-67219817D01*
X37900158Y-63903622D01*
X37383772Y-60467645D01*
X36804809Y-56899788D01*
X36161959Y-53187949D01*
X36151327Y-53128333D01*
X35977266Y-52158786D01*
X35813694Y-51262133D01*
X35655872Y-50414842D01*
X35499060Y-49593380D01*
X35338520Y-48774214D01*
X35169512Y-47933810D01*
X34987297Y-47048637D01*
X34787135Y-46095160D01*
X34564287Y-45049847D01*
X34314014Y-43889165D01*
X34031576Y-42589581D01*
X33996830Y-42430207D01*
X33795694Y-41506536D01*
X33605154Y-40628880D01*
X33428312Y-39811711D01*
X33268276Y-39069507D01*
X33128150Y-38416740D01*
X33011039Y-37867887D01*
X32920049Y-37437423D01*
X32858286Y-37139822D01*
X32828853Y-36989560D01*
X32826914Y-36976745D01*
X32831058Y-36938033D01*
X32860331Y-36899572D01*
X32927207Y-36858163D01*
X33044163Y-36810608D01*
X33223675Y-36753710D01*
X33478218Y-36684271D01*
X33820268Y-36599092D01*
X34262302Y-36494976D01*
X34816794Y-36368725D01*
X35496222Y-36217140D01*
X36313060Y-36037025D01*
X37279785Y-35825180D01*
X37549667Y-35766161D01*
X38418671Y-35576485D01*
X39236764Y-35398526D01*
X39989257Y-35235437D01*
X40661461Y-35090375D01*
X41238690Y-34966491D01*
X41706254Y-34866942D01*
X42049467Y-34794881D01*
X42253639Y-34753463D01*
X42306984Y-34744495D01*
X42326365Y-34827022D01*
G37*
M02*
