G04 #@! TF.GenerationSoftware,KiCad,Pcbnew,(7.0.0)*
G04 #@! TF.CreationDate,2023-04-05T18:56:48-07:00*
G04 #@! TF.ProjectId,DecentXE,44656365-6e74-4584-952e-6b696361645f,12*
G04 #@! TF.SameCoordinates,Original*
G04 #@! TF.FileFunction,Legend,Bot*
G04 #@! TF.FilePolarity,Positive*
%FSLAX46Y46*%
G04 Gerber Fmt 4.6, Leading zero omitted, Abs format (unit mm)*
G04 Created by KiCad (PCBNEW (7.0.0)) date 2023-04-05 18:56:48*
%MOMM*%
%LPD*%
G01*
G04 APERTURE LIST*
G04 Aperture macros list*
%AMRoundRect*
0 Rectangle with rounded corners*
0 $1 Rounding radius*
0 $2 $3 $4 $5 $6 $7 $8 $9 X,Y pos of 4 corners*
0 Add a 4 corners polygon primitive as box body*
4,1,4,$2,$3,$4,$5,$6,$7,$8,$9,$2,$3,0*
0 Add four circle primitives for the rounded corners*
1,1,$1+$1,$2,$3*
1,1,$1+$1,$4,$5*
1,1,$1+$1,$6,$7*
1,1,$1+$1,$8,$9*
0 Add four rect primitives between the rounded corners*
20,1,$1+$1,$2,$3,$4,$5,0*
20,1,$1+$1,$4,$5,$6,$7,0*
20,1,$1+$1,$6,$7,$8,$9,0*
20,1,$1+$1,$8,$9,$2,$3,0*%
%AMHorizOval*
0 Thick line with rounded ends*
0 $1 width*
0 $2 $3 position (X,Y) of the first rounded end (center of the circle)*
0 $4 $5 position (X,Y) of the second rounded end (center of the circle)*
0 Add line between two ends*
20,1,$1,$2,$3,$4,$5,0*
0 Add two circle primitives to create the rounded ends*
1,1,$1,$2,$3*
1,1,$1,$4,$5*%
G04 Aperture macros list end*
%ADD10C,0.120000*%
%ADD11C,0.100000*%
%ADD12C,0.150000*%
%ADD13C,0.250000*%
%ADD14C,0.300000*%
%ADD15O,1.700000X1.950000*%
%ADD16RoundRect,0.250000X0.600000X0.725000X-0.600000X0.725000X-0.600000X-0.725000X0.600000X-0.725000X0*%
%ADD17O,1.800000X2.200000*%
%ADD18C,5.250000*%
%ADD19HorizOval,2.200000X0.353553X-0.353553X-0.353553X0.353553X0*%
%ADD20HorizOval,1.400000X-0.362523X-0.169047X0.362523X0.169047X0*%
%ADD21C,1.900000*%
%ADD22O,1.400000X2.500000*%
%ADD23C,2.200000*%
%ADD24HorizOval,1.400000X0.362523X0.169047X-0.362523X-0.169047X0*%
%ADD25HorizOval,2.200000X-0.353553X0.353553X0.353553X-0.353553X0*%
%ADD26C,3.048000*%
%ADD27C,3.987800*%
%ADD28O,2.200000X1.800000*%
%ADD29HorizOval,1.400000X-0.169047X0.362523X0.169047X-0.362523X0*%
%ADD30HorizOval,2.200000X-0.353553X-0.353553X0.353553X0.353553X0*%
%ADD31O,2.500000X1.400000*%
%ADD32R,1.700000X1.700000*%
%ADD33O,1.700000X1.700000*%
%ADD34RoundRect,0.250000X0.600000X-0.600000X0.600000X0.600000X-0.600000X0.600000X-0.600000X-0.600000X0*%
%ADD35C,1.700000*%
G04 APERTURE END LIST*
D10*
X345440000Y-58420000D02*
X345440000Y-57150000D01*
D11*
G36*
X346075000Y-54610000D02*
G01*
X344805000Y-54610000D01*
X345440000Y-53340000D01*
X346075000Y-54610000D01*
G37*
X346075000Y-54610000D02*
X344805000Y-54610000D01*
X345440000Y-53340000D01*
X346075000Y-54610000D01*
D10*
X342900000Y-60960000D02*
X342900000Y-59690000D01*
X340360000Y-60960000D02*
X342900000Y-60960000D01*
D12*
X341963333Y-60218571D02*
X342296666Y-60218571D01*
X342296666Y-60742380D02*
X342296666Y-59742380D01*
X342296666Y-59742380D02*
X341820476Y-59742380D01*
X341534761Y-59742380D02*
X340915714Y-59742380D01*
X340915714Y-59742380D02*
X341249047Y-60123333D01*
X341249047Y-60123333D02*
X341106190Y-60123333D01*
X341106190Y-60123333D02*
X341010952Y-60170952D01*
X341010952Y-60170952D02*
X340963333Y-60218571D01*
X340963333Y-60218571D02*
X340915714Y-60313809D01*
X340915714Y-60313809D02*
X340915714Y-60551904D01*
X340915714Y-60551904D02*
X340963333Y-60647142D01*
X340963333Y-60647142D02*
X341010952Y-60694761D01*
X341010952Y-60694761D02*
X341106190Y-60742380D01*
X341106190Y-60742380D02*
X341391904Y-60742380D01*
X341391904Y-60742380D02*
X341487142Y-60694761D01*
X341487142Y-60694761D02*
X341534761Y-60647142D01*
D10*
X340360000Y-59690000D02*
X340360000Y-60960000D01*
X337820000Y-62230000D02*
X337820000Y-63500000D01*
D12*
X340693333Y-62758571D02*
X341026666Y-62758571D01*
X341026666Y-63282380D02*
X341026666Y-62282380D01*
X341026666Y-62282380D02*
X340550476Y-62282380D01*
X339740952Y-62615714D02*
X339740952Y-63282380D01*
X339979047Y-62234761D02*
X340217142Y-62949047D01*
X340217142Y-62949047D02*
X339598095Y-62949047D01*
D10*
X337820000Y-63500000D02*
X342900000Y-63500000D01*
X342900000Y-63500000D02*
X342900000Y-62230000D01*
X337820000Y-57150000D02*
X337820000Y-58420000D01*
D12*
X341963333Y-57678571D02*
X342296666Y-57678571D01*
X342296666Y-58202380D02*
X342296666Y-57202380D01*
X342296666Y-57202380D02*
X341820476Y-57202380D01*
X341487142Y-57297619D02*
X341439523Y-57250000D01*
X341439523Y-57250000D02*
X341344285Y-57202380D01*
X341344285Y-57202380D02*
X341106190Y-57202380D01*
X341106190Y-57202380D02*
X341010952Y-57250000D01*
X341010952Y-57250000D02*
X340963333Y-57297619D01*
X340963333Y-57297619D02*
X340915714Y-57392857D01*
X340915714Y-57392857D02*
X340915714Y-57488095D01*
X340915714Y-57488095D02*
X340963333Y-57630952D01*
X340963333Y-57630952D02*
X341534761Y-58202380D01*
X341534761Y-58202380D02*
X340915714Y-58202380D01*
D10*
X337820000Y-58420000D02*
X345440000Y-58420000D01*
D12*
X343233333Y-55138571D02*
X343566666Y-55138571D01*
X343566666Y-55662380D02*
X343566666Y-54662380D01*
X343566666Y-54662380D02*
X343090476Y-54662380D01*
X342185714Y-55662380D02*
X342757142Y-55662380D01*
X342471428Y-55662380D02*
X342471428Y-54662380D01*
X342471428Y-54662380D02*
X342566666Y-54805238D01*
X342566666Y-54805238D02*
X342661904Y-54900476D01*
X342661904Y-54900476D02*
X342757142Y-54948095D01*
D10*
X340360000Y-54610000D02*
X340360000Y-55880000D01*
X340360000Y-55880000D02*
X345440000Y-55880000D01*
X345440000Y-55880000D02*
X345440000Y-54610000D01*
D12*
X275894704Y-135251019D02*
X275847085Y-135203400D01*
X275847085Y-135203400D02*
X275751847Y-135155780D01*
X275751847Y-135155780D02*
X275513752Y-135155780D01*
X275513752Y-135155780D02*
X275418514Y-135203400D01*
X275418514Y-135203400D02*
X275370895Y-135251019D01*
X275370895Y-135251019D02*
X275323276Y-135346257D01*
X275323276Y-135346257D02*
X275323276Y-135441495D01*
X275323276Y-135441495D02*
X275370895Y-135584352D01*
X275370895Y-135584352D02*
X275942323Y-136155780D01*
X275942323Y-136155780D02*
X275323276Y-136155780D01*
X274466133Y-135489114D02*
X274466133Y-136155780D01*
X274704228Y-135108161D02*
X274942323Y-135822447D01*
X274942323Y-135822447D02*
X274323276Y-135822447D01*
D13*
X318236314Y-138598400D02*
X318331552Y-138550780D01*
X318331552Y-138550780D02*
X318474409Y-138550780D01*
X318474409Y-138550780D02*
X318617266Y-138598400D01*
X318617266Y-138598400D02*
X318712504Y-138693638D01*
X318712504Y-138693638D02*
X318760123Y-138788876D01*
X318760123Y-138788876D02*
X318807742Y-138979352D01*
X318807742Y-138979352D02*
X318807742Y-139122209D01*
X318807742Y-139122209D02*
X318760123Y-139312685D01*
X318760123Y-139312685D02*
X318712504Y-139407923D01*
X318712504Y-139407923D02*
X318617266Y-139503161D01*
X318617266Y-139503161D02*
X318474409Y-139550780D01*
X318474409Y-139550780D02*
X318379171Y-139550780D01*
X318379171Y-139550780D02*
X318236314Y-139503161D01*
X318236314Y-139503161D02*
X318188695Y-139455542D01*
X318188695Y-139455542D02*
X318188695Y-139122209D01*
X318188695Y-139122209D02*
X318379171Y-139122209D01*
X317760123Y-139550780D02*
X317760123Y-138550780D01*
X317760123Y-138550780D02*
X317188695Y-139550780D01*
X317188695Y-139550780D02*
X317188695Y-138550780D01*
X316712504Y-139550780D02*
X316712504Y-138550780D01*
X316712504Y-138550780D02*
X316474409Y-138550780D01*
X316474409Y-138550780D02*
X316331552Y-138598400D01*
X316331552Y-138598400D02*
X316236314Y-138693638D01*
X316236314Y-138693638D02*
X316188695Y-138788876D01*
X316188695Y-138788876D02*
X316141076Y-138979352D01*
X316141076Y-138979352D02*
X316141076Y-139122209D01*
X316141076Y-139122209D02*
X316188695Y-139312685D01*
X316188695Y-139312685D02*
X316236314Y-139407923D01*
X316236314Y-139407923D02*
X316331552Y-139503161D01*
X316331552Y-139503161D02*
X316474409Y-139550780D01*
X316474409Y-139550780D02*
X316712504Y-139550780D01*
X324169648Y-136226971D02*
X324026791Y-136274590D01*
X324026791Y-136274590D02*
X323979172Y-136322209D01*
X323979172Y-136322209D02*
X323931553Y-136417447D01*
X323931553Y-136417447D02*
X323931553Y-136560304D01*
X323931553Y-136560304D02*
X323979172Y-136655542D01*
X323979172Y-136655542D02*
X324026791Y-136703161D01*
X324026791Y-136703161D02*
X324122029Y-136750780D01*
X324122029Y-136750780D02*
X324502981Y-136750780D01*
X324502981Y-136750780D02*
X324502981Y-135750780D01*
X324502981Y-135750780D02*
X324169648Y-135750780D01*
X324169648Y-135750780D02*
X324074410Y-135798400D01*
X324074410Y-135798400D02*
X324026791Y-135846019D01*
X324026791Y-135846019D02*
X323979172Y-135941257D01*
X323979172Y-135941257D02*
X323979172Y-136036495D01*
X323979172Y-136036495D02*
X324026791Y-136131733D01*
X324026791Y-136131733D02*
X324074410Y-136179352D01*
X324074410Y-136179352D02*
X324169648Y-136226971D01*
X324169648Y-136226971D02*
X324502981Y-136226971D01*
X323074410Y-136750780D02*
X323074410Y-136226971D01*
X323074410Y-136226971D02*
X323122029Y-136131733D01*
X323122029Y-136131733D02*
X323217267Y-136084114D01*
X323217267Y-136084114D02*
X323407743Y-136084114D01*
X323407743Y-136084114D02*
X323502981Y-136131733D01*
X323074410Y-136703161D02*
X323169648Y-136750780D01*
X323169648Y-136750780D02*
X323407743Y-136750780D01*
X323407743Y-136750780D02*
X323502981Y-136703161D01*
X323502981Y-136703161D02*
X323550600Y-136607923D01*
X323550600Y-136607923D02*
X323550600Y-136512685D01*
X323550600Y-136512685D02*
X323502981Y-136417447D01*
X323502981Y-136417447D02*
X323407743Y-136369828D01*
X323407743Y-136369828D02*
X323169648Y-136369828D01*
X323169648Y-136369828D02*
X323074410Y-136322209D01*
X322169648Y-136703161D02*
X322264886Y-136750780D01*
X322264886Y-136750780D02*
X322455362Y-136750780D01*
X322455362Y-136750780D02*
X322550600Y-136703161D01*
X322550600Y-136703161D02*
X322598219Y-136655542D01*
X322598219Y-136655542D02*
X322645838Y-136560304D01*
X322645838Y-136560304D02*
X322645838Y-136274590D01*
X322645838Y-136274590D02*
X322598219Y-136179352D01*
X322598219Y-136179352D02*
X322550600Y-136131733D01*
X322550600Y-136131733D02*
X322455362Y-136084114D01*
X322455362Y-136084114D02*
X322264886Y-136084114D01*
X322264886Y-136084114D02*
X322169648Y-136131733D01*
X321741076Y-136750780D02*
X321741076Y-135750780D01*
X321645838Y-136369828D02*
X321360124Y-136750780D01*
X321360124Y-136084114D02*
X321741076Y-136465066D01*
X320788695Y-136750780D02*
X320883933Y-136703161D01*
X320883933Y-136703161D02*
X320931552Y-136607923D01*
X320931552Y-136607923D02*
X320931552Y-135750780D01*
X320407742Y-136750780D02*
X320407742Y-136084114D01*
X320407742Y-135750780D02*
X320455361Y-135798400D01*
X320455361Y-135798400D02*
X320407742Y-135846019D01*
X320407742Y-135846019D02*
X320360123Y-135798400D01*
X320360123Y-135798400D02*
X320407742Y-135750780D01*
X320407742Y-135750780D02*
X320407742Y-135846019D01*
X319502981Y-136084114D02*
X319502981Y-136893638D01*
X319502981Y-136893638D02*
X319550600Y-136988876D01*
X319550600Y-136988876D02*
X319598219Y-137036495D01*
X319598219Y-137036495D02*
X319693457Y-137084114D01*
X319693457Y-137084114D02*
X319836314Y-137084114D01*
X319836314Y-137084114D02*
X319931552Y-137036495D01*
X319502981Y-136703161D02*
X319598219Y-136750780D01*
X319598219Y-136750780D02*
X319788695Y-136750780D01*
X319788695Y-136750780D02*
X319883933Y-136703161D01*
X319883933Y-136703161D02*
X319931552Y-136655542D01*
X319931552Y-136655542D02*
X319979171Y-136560304D01*
X319979171Y-136560304D02*
X319979171Y-136274590D01*
X319979171Y-136274590D02*
X319931552Y-136179352D01*
X319931552Y-136179352D02*
X319883933Y-136131733D01*
X319883933Y-136131733D02*
X319788695Y-136084114D01*
X319788695Y-136084114D02*
X319598219Y-136084114D01*
X319598219Y-136084114D02*
X319502981Y-136131733D01*
X319026790Y-136750780D02*
X319026790Y-135750780D01*
X318598219Y-136750780D02*
X318598219Y-136226971D01*
X318598219Y-136226971D02*
X318645838Y-136131733D01*
X318645838Y-136131733D02*
X318741076Y-136084114D01*
X318741076Y-136084114D02*
X318883933Y-136084114D01*
X318883933Y-136084114D02*
X318979171Y-136131733D01*
X318979171Y-136131733D02*
X319026790Y-136179352D01*
X318264885Y-136084114D02*
X317883933Y-136084114D01*
X318122028Y-135750780D02*
X318122028Y-136607923D01*
X318122028Y-136607923D02*
X318074409Y-136703161D01*
X318074409Y-136703161D02*
X317979171Y-136750780D01*
X317979171Y-136750780D02*
X317883933Y-136750780D01*
X316950599Y-136369828D02*
X316188695Y-136369828D01*
X316569647Y-136750780D02*
X316569647Y-135988876D01*
D12*
X172583504Y-139519780D02*
X172583504Y-138519780D01*
X172488266Y-139138828D02*
X172202552Y-139519780D01*
X172202552Y-138853114D02*
X172583504Y-139234066D01*
X171393028Y-139472161D02*
X171488266Y-139519780D01*
X171488266Y-139519780D02*
X171678742Y-139519780D01*
X171678742Y-139519780D02*
X171773980Y-139472161D01*
X171773980Y-139472161D02*
X171821599Y-139376923D01*
X171821599Y-139376923D02*
X171821599Y-138995971D01*
X171821599Y-138995971D02*
X171773980Y-138900733D01*
X171773980Y-138900733D02*
X171678742Y-138853114D01*
X171678742Y-138853114D02*
X171488266Y-138853114D01*
X171488266Y-138853114D02*
X171393028Y-138900733D01*
X171393028Y-138900733D02*
X171345409Y-138995971D01*
X171345409Y-138995971D02*
X171345409Y-139091209D01*
X171345409Y-139091209D02*
X171821599Y-139186447D01*
X171012075Y-138853114D02*
X170773980Y-139519780D01*
X170535885Y-138853114D02*
X170773980Y-139519780D01*
X170773980Y-139519780D02*
X170869218Y-139757876D01*
X170869218Y-139757876D02*
X170916837Y-139805495D01*
X170916837Y-139805495D02*
X171012075Y-139853114D01*
X170154932Y-139519780D02*
X170154932Y-138519780D01*
X170154932Y-138900733D02*
X170059694Y-138853114D01*
X170059694Y-138853114D02*
X169869218Y-138853114D01*
X169869218Y-138853114D02*
X169773980Y-138900733D01*
X169773980Y-138900733D02*
X169726361Y-138948352D01*
X169726361Y-138948352D02*
X169678742Y-139043590D01*
X169678742Y-139043590D02*
X169678742Y-139329304D01*
X169678742Y-139329304D02*
X169726361Y-139424542D01*
X169726361Y-139424542D02*
X169773980Y-139472161D01*
X169773980Y-139472161D02*
X169869218Y-139519780D01*
X169869218Y-139519780D02*
X170059694Y-139519780D01*
X170059694Y-139519780D02*
X170154932Y-139472161D01*
X169107313Y-139519780D02*
X169202551Y-139472161D01*
X169202551Y-139472161D02*
X169250170Y-139424542D01*
X169250170Y-139424542D02*
X169297789Y-139329304D01*
X169297789Y-139329304D02*
X169297789Y-139043590D01*
X169297789Y-139043590D02*
X169250170Y-138948352D01*
X169250170Y-138948352D02*
X169202551Y-138900733D01*
X169202551Y-138900733D02*
X169107313Y-138853114D01*
X169107313Y-138853114D02*
X168964456Y-138853114D01*
X168964456Y-138853114D02*
X168869218Y-138900733D01*
X168869218Y-138900733D02*
X168821599Y-138948352D01*
X168821599Y-138948352D02*
X168773980Y-139043590D01*
X168773980Y-139043590D02*
X168773980Y-139329304D01*
X168773980Y-139329304D02*
X168821599Y-139424542D01*
X168821599Y-139424542D02*
X168869218Y-139472161D01*
X168869218Y-139472161D02*
X168964456Y-139519780D01*
X168964456Y-139519780D02*
X169107313Y-139519780D01*
X167916837Y-139519780D02*
X167916837Y-138995971D01*
X167916837Y-138995971D02*
X167964456Y-138900733D01*
X167964456Y-138900733D02*
X168059694Y-138853114D01*
X168059694Y-138853114D02*
X168250170Y-138853114D01*
X168250170Y-138853114D02*
X168345408Y-138900733D01*
X167916837Y-139472161D02*
X168012075Y-139519780D01*
X168012075Y-139519780D02*
X168250170Y-139519780D01*
X168250170Y-139519780D02*
X168345408Y-139472161D01*
X168345408Y-139472161D02*
X168393027Y-139376923D01*
X168393027Y-139376923D02*
X168393027Y-139281685D01*
X168393027Y-139281685D02*
X168345408Y-139186447D01*
X168345408Y-139186447D02*
X168250170Y-139138828D01*
X168250170Y-139138828D02*
X168012075Y-139138828D01*
X168012075Y-139138828D02*
X167916837Y-139091209D01*
X167440646Y-139519780D02*
X167440646Y-138853114D01*
X167440646Y-139043590D02*
X167393027Y-138948352D01*
X167393027Y-138948352D02*
X167345408Y-138900733D01*
X167345408Y-138900733D02*
X167250170Y-138853114D01*
X167250170Y-138853114D02*
X167154932Y-138853114D01*
X166393027Y-139519780D02*
X166393027Y-138519780D01*
X166393027Y-139472161D02*
X166488265Y-139519780D01*
X166488265Y-139519780D02*
X166678741Y-139519780D01*
X166678741Y-139519780D02*
X166773979Y-139472161D01*
X166773979Y-139472161D02*
X166821598Y-139424542D01*
X166821598Y-139424542D02*
X166869217Y-139329304D01*
X166869217Y-139329304D02*
X166869217Y-139043590D01*
X166869217Y-139043590D02*
X166821598Y-138948352D01*
X166821598Y-138948352D02*
X166773979Y-138900733D01*
X166773979Y-138900733D02*
X166678741Y-138853114D01*
X166678741Y-138853114D02*
X166488265Y-138853114D01*
X166488265Y-138853114D02*
X166393027Y-138900733D01*
X165316836Y-139519780D02*
X165316836Y-138853114D01*
X165316836Y-139043590D02*
X165269217Y-138948352D01*
X165269217Y-138948352D02*
X165221598Y-138900733D01*
X165221598Y-138900733D02*
X165126360Y-138853114D01*
X165126360Y-138853114D02*
X165031122Y-138853114D01*
X164316836Y-139472161D02*
X164412074Y-139519780D01*
X164412074Y-139519780D02*
X164602550Y-139519780D01*
X164602550Y-139519780D02*
X164697788Y-139472161D01*
X164697788Y-139472161D02*
X164745407Y-139376923D01*
X164745407Y-139376923D02*
X164745407Y-138995971D01*
X164745407Y-138995971D02*
X164697788Y-138900733D01*
X164697788Y-138900733D02*
X164602550Y-138853114D01*
X164602550Y-138853114D02*
X164412074Y-138853114D01*
X164412074Y-138853114D02*
X164316836Y-138900733D01*
X164316836Y-138900733D02*
X164269217Y-138995971D01*
X164269217Y-138995971D02*
X164269217Y-139091209D01*
X164269217Y-139091209D02*
X164745407Y-139186447D01*
X163935883Y-138853114D02*
X163697788Y-139519780D01*
X163697788Y-139519780D02*
X163459693Y-138853114D01*
X163078740Y-139424542D02*
X163031121Y-139472161D01*
X163031121Y-139472161D02*
X163078740Y-139519780D01*
X163078740Y-139519780D02*
X163126359Y-139472161D01*
X163126359Y-139472161D02*
X163078740Y-139424542D01*
X163078740Y-139424542D02*
X163078740Y-139519780D01*
X161478741Y-139519780D02*
X162050169Y-139519780D01*
X161764455Y-139519780D02*
X161764455Y-138519780D01*
X161764455Y-138519780D02*
X161859693Y-138662638D01*
X161859693Y-138662638D02*
X161954931Y-138757876D01*
X161954931Y-138757876D02*
X162050169Y-138805495D01*
X160526360Y-139519780D02*
X161097788Y-139519780D01*
X160812074Y-139519780D02*
X160812074Y-138519780D01*
X160812074Y-138519780D02*
X160907312Y-138662638D01*
X160907312Y-138662638D02*
X161002550Y-138757876D01*
X161002550Y-138757876D02*
X161097788Y-138805495D01*
X159212074Y-139900733D02*
X159259693Y-139853114D01*
X159259693Y-139853114D02*
X159354931Y-139710257D01*
X159354931Y-139710257D02*
X159402550Y-139615019D01*
X159402550Y-139615019D02*
X159450169Y-139472161D01*
X159450169Y-139472161D02*
X159497788Y-139234066D01*
X159497788Y-139234066D02*
X159497788Y-139043590D01*
X159497788Y-139043590D02*
X159450169Y-138805495D01*
X159450169Y-138805495D02*
X159402550Y-138662638D01*
X159402550Y-138662638D02*
X159354931Y-138567400D01*
X159354931Y-138567400D02*
X159259693Y-138424542D01*
X159259693Y-138424542D02*
X159212074Y-138376923D01*
X158402550Y-139472161D02*
X158497788Y-139519780D01*
X158497788Y-139519780D02*
X158688264Y-139519780D01*
X158688264Y-139519780D02*
X158783502Y-139472161D01*
X158783502Y-139472161D02*
X158831121Y-139424542D01*
X158831121Y-139424542D02*
X158878740Y-139329304D01*
X158878740Y-139329304D02*
X158878740Y-139043590D01*
X158878740Y-139043590D02*
X158831121Y-138948352D01*
X158831121Y-138948352D02*
X158783502Y-138900733D01*
X158783502Y-138900733D02*
X158688264Y-138853114D01*
X158688264Y-138853114D02*
X158497788Y-138853114D01*
X158497788Y-138853114D02*
X158402550Y-138900733D01*
X158069216Y-139900733D02*
X158021597Y-139853114D01*
X158021597Y-139853114D02*
X157926359Y-139710257D01*
X157926359Y-139710257D02*
X157878740Y-139615019D01*
X157878740Y-139615019D02*
X157831121Y-139472161D01*
X157831121Y-139472161D02*
X157783502Y-139234066D01*
X157783502Y-139234066D02*
X157783502Y-139043590D01*
X157783502Y-139043590D02*
X157831121Y-138805495D01*
X157831121Y-138805495D02*
X157878740Y-138662638D01*
X157878740Y-138662638D02*
X157926359Y-138567400D01*
X157926359Y-138567400D02*
X158021597Y-138424542D01*
X158021597Y-138424542D02*
X158069216Y-138376923D01*
X156373978Y-138995971D02*
X156231121Y-139043590D01*
X156231121Y-139043590D02*
X156183502Y-139091209D01*
X156183502Y-139091209D02*
X156135883Y-139186447D01*
X156135883Y-139186447D02*
X156135883Y-139329304D01*
X156135883Y-139329304D02*
X156183502Y-139424542D01*
X156183502Y-139424542D02*
X156231121Y-139472161D01*
X156231121Y-139472161D02*
X156326359Y-139519780D01*
X156326359Y-139519780D02*
X156707311Y-139519780D01*
X156707311Y-139519780D02*
X156707311Y-138519780D01*
X156707311Y-138519780D02*
X156373978Y-138519780D01*
X156373978Y-138519780D02*
X156278740Y-138567400D01*
X156278740Y-138567400D02*
X156231121Y-138615019D01*
X156231121Y-138615019D02*
X156183502Y-138710257D01*
X156183502Y-138710257D02*
X156183502Y-138805495D01*
X156183502Y-138805495D02*
X156231121Y-138900733D01*
X156231121Y-138900733D02*
X156278740Y-138948352D01*
X156278740Y-138948352D02*
X156373978Y-138995971D01*
X156373978Y-138995971D02*
X156707311Y-138995971D01*
X155326359Y-139472161D02*
X155421597Y-139519780D01*
X155421597Y-139519780D02*
X155612073Y-139519780D01*
X155612073Y-139519780D02*
X155707311Y-139472161D01*
X155707311Y-139472161D02*
X155754930Y-139376923D01*
X155754930Y-139376923D02*
X155754930Y-138995971D01*
X155754930Y-138995971D02*
X155707311Y-138900733D01*
X155707311Y-138900733D02*
X155612073Y-138853114D01*
X155612073Y-138853114D02*
X155421597Y-138853114D01*
X155421597Y-138853114D02*
X155326359Y-138900733D01*
X155326359Y-138900733D02*
X155278740Y-138995971D01*
X155278740Y-138995971D02*
X155278740Y-139091209D01*
X155278740Y-139091209D02*
X155754930Y-139186447D01*
X154850168Y-139519780D02*
X154850168Y-138853114D01*
X154850168Y-139043590D02*
X154802549Y-138948352D01*
X154802549Y-138948352D02*
X154754930Y-138900733D01*
X154754930Y-138900733D02*
X154659692Y-138853114D01*
X154659692Y-138853114D02*
X154564454Y-138853114D01*
X154373977Y-138853114D02*
X153993025Y-138853114D01*
X154231120Y-138519780D02*
X154231120Y-139376923D01*
X154231120Y-139376923D02*
X154183501Y-139472161D01*
X154183501Y-139472161D02*
X154088263Y-139519780D01*
X154088263Y-139519780D02*
X153993025Y-139519780D01*
X153659691Y-139519780D02*
X153659691Y-138853114D01*
X153659691Y-139043590D02*
X153612072Y-138948352D01*
X153612072Y-138948352D02*
X153564453Y-138900733D01*
X153564453Y-138900733D02*
X153469215Y-138853114D01*
X153469215Y-138853114D02*
X153373977Y-138853114D01*
X152612072Y-139519780D02*
X152612072Y-138995971D01*
X152612072Y-138995971D02*
X152659691Y-138900733D01*
X152659691Y-138900733D02*
X152754929Y-138853114D01*
X152754929Y-138853114D02*
X152945405Y-138853114D01*
X152945405Y-138853114D02*
X153040643Y-138900733D01*
X152612072Y-139472161D02*
X152707310Y-139519780D01*
X152707310Y-139519780D02*
X152945405Y-139519780D01*
X152945405Y-139519780D02*
X153040643Y-139472161D01*
X153040643Y-139472161D02*
X153088262Y-139376923D01*
X153088262Y-139376923D02*
X153088262Y-139281685D01*
X153088262Y-139281685D02*
X153040643Y-139186447D01*
X153040643Y-139186447D02*
X152945405Y-139138828D01*
X152945405Y-139138828D02*
X152707310Y-139138828D01*
X152707310Y-139138828D02*
X152612072Y-139091209D01*
X152135881Y-138853114D02*
X152135881Y-139519780D01*
X152135881Y-138948352D02*
X152088262Y-138900733D01*
X152088262Y-138900733D02*
X151993024Y-138853114D01*
X151993024Y-138853114D02*
X151850167Y-138853114D01*
X151850167Y-138853114D02*
X151754929Y-138900733D01*
X151754929Y-138900733D02*
X151707310Y-138995971D01*
X151707310Y-138995971D02*
X151707310Y-139519780D01*
X150802548Y-139519780D02*
X150802548Y-138519780D01*
X150802548Y-139472161D02*
X150897786Y-139519780D01*
X150897786Y-139519780D02*
X151088262Y-139519780D01*
X151088262Y-139519780D02*
X151183500Y-139472161D01*
X151183500Y-139472161D02*
X151231119Y-139424542D01*
X151231119Y-139424542D02*
X151278738Y-139329304D01*
X151278738Y-139329304D02*
X151278738Y-139043590D01*
X151278738Y-139043590D02*
X151231119Y-138948352D01*
X151231119Y-138948352D02*
X151183500Y-138900733D01*
X151183500Y-138900733D02*
X151088262Y-138853114D01*
X151088262Y-138853114D02*
X150897786Y-138853114D01*
X150897786Y-138853114D02*
X150802548Y-138900733D01*
X149250167Y-139519780D02*
X149726357Y-139519780D01*
X149726357Y-139519780D02*
X149726357Y-138519780D01*
X148535881Y-139472161D02*
X148631119Y-139519780D01*
X148631119Y-139519780D02*
X148821595Y-139519780D01*
X148821595Y-139519780D02*
X148916833Y-139472161D01*
X148916833Y-139472161D02*
X148964452Y-139376923D01*
X148964452Y-139376923D02*
X148964452Y-138995971D01*
X148964452Y-138995971D02*
X148916833Y-138900733D01*
X148916833Y-138900733D02*
X148821595Y-138853114D01*
X148821595Y-138853114D02*
X148631119Y-138853114D01*
X148631119Y-138853114D02*
X148535881Y-138900733D01*
X148535881Y-138900733D02*
X148488262Y-138995971D01*
X148488262Y-138995971D02*
X148488262Y-139091209D01*
X148488262Y-139091209D02*
X148964452Y-139186447D01*
X146888262Y-139519780D02*
X147221595Y-139043590D01*
X147459690Y-139519780D02*
X147459690Y-138519780D01*
X147459690Y-138519780D02*
X147078738Y-138519780D01*
X147078738Y-138519780D02*
X146983500Y-138567400D01*
X146983500Y-138567400D02*
X146935881Y-138615019D01*
X146935881Y-138615019D02*
X146888262Y-138710257D01*
X146888262Y-138710257D02*
X146888262Y-138853114D01*
X146888262Y-138853114D02*
X146935881Y-138948352D01*
X146935881Y-138948352D02*
X146983500Y-138995971D01*
X146983500Y-138995971D02*
X147078738Y-139043590D01*
X147078738Y-139043590D02*
X147459690Y-139043590D01*
X146316833Y-139519780D02*
X146412071Y-139472161D01*
X146412071Y-139472161D02*
X146459690Y-139424542D01*
X146459690Y-139424542D02*
X146507309Y-139329304D01*
X146507309Y-139329304D02*
X146507309Y-139043590D01*
X146507309Y-139043590D02*
X146459690Y-138948352D01*
X146459690Y-138948352D02*
X146412071Y-138900733D01*
X146412071Y-138900733D02*
X146316833Y-138853114D01*
X146316833Y-138853114D02*
X146173976Y-138853114D01*
X146173976Y-138853114D02*
X146078738Y-138900733D01*
X146078738Y-138900733D02*
X146031119Y-138948352D01*
X146031119Y-138948352D02*
X145983500Y-139043590D01*
X145983500Y-139043590D02*
X145983500Y-139329304D01*
X145983500Y-139329304D02*
X146031119Y-139424542D01*
X146031119Y-139424542D02*
X146078738Y-139472161D01*
X146078738Y-139472161D02*
X146173976Y-139519780D01*
X146173976Y-139519780D02*
X146316833Y-139519780D01*
X145650166Y-138853114D02*
X145412071Y-139519780D01*
X145173976Y-138853114D02*
X145412071Y-139519780D01*
X145412071Y-139519780D02*
X145507309Y-139757876D01*
X145507309Y-139757876D02*
X145554928Y-139805495D01*
X145554928Y-139805495D02*
X145650166Y-139853114D01*
X144240642Y-138615019D02*
X144193023Y-138567400D01*
X144193023Y-138567400D02*
X144097785Y-138519780D01*
X144097785Y-138519780D02*
X143859690Y-138519780D01*
X143859690Y-138519780D02*
X143764452Y-138567400D01*
X143764452Y-138567400D02*
X143716833Y-138615019D01*
X143716833Y-138615019D02*
X143669214Y-138710257D01*
X143669214Y-138710257D02*
X143669214Y-138805495D01*
X143669214Y-138805495D02*
X143716833Y-138948352D01*
X143716833Y-138948352D02*
X144288261Y-139519780D01*
X144288261Y-139519780D02*
X143669214Y-139519780D01*
X143050166Y-138519780D02*
X142954928Y-138519780D01*
X142954928Y-138519780D02*
X142859690Y-138567400D01*
X142859690Y-138567400D02*
X142812071Y-138615019D01*
X142812071Y-138615019D02*
X142764452Y-138710257D01*
X142764452Y-138710257D02*
X142716833Y-138900733D01*
X142716833Y-138900733D02*
X142716833Y-139138828D01*
X142716833Y-139138828D02*
X142764452Y-139329304D01*
X142764452Y-139329304D02*
X142812071Y-139424542D01*
X142812071Y-139424542D02*
X142859690Y-139472161D01*
X142859690Y-139472161D02*
X142954928Y-139519780D01*
X142954928Y-139519780D02*
X143050166Y-139519780D01*
X143050166Y-139519780D02*
X143145404Y-139472161D01*
X143145404Y-139472161D02*
X143193023Y-139424542D01*
X143193023Y-139424542D02*
X143240642Y-139329304D01*
X143240642Y-139329304D02*
X143288261Y-139138828D01*
X143288261Y-139138828D02*
X143288261Y-138900733D01*
X143288261Y-138900733D02*
X143240642Y-138710257D01*
X143240642Y-138710257D02*
X143193023Y-138615019D01*
X143193023Y-138615019D02*
X143145404Y-138567400D01*
X143145404Y-138567400D02*
X143050166Y-138519780D01*
X142335880Y-138615019D02*
X142288261Y-138567400D01*
X142288261Y-138567400D02*
X142193023Y-138519780D01*
X142193023Y-138519780D02*
X141954928Y-138519780D01*
X141954928Y-138519780D02*
X141859690Y-138567400D01*
X141859690Y-138567400D02*
X141812071Y-138615019D01*
X141812071Y-138615019D02*
X141764452Y-138710257D01*
X141764452Y-138710257D02*
X141764452Y-138805495D01*
X141764452Y-138805495D02*
X141812071Y-138948352D01*
X141812071Y-138948352D02*
X142383499Y-139519780D01*
X142383499Y-139519780D02*
X141764452Y-139519780D01*
X141431118Y-138519780D02*
X140812071Y-138519780D01*
X140812071Y-138519780D02*
X141145404Y-138900733D01*
X141145404Y-138900733D02*
X141002547Y-138900733D01*
X141002547Y-138900733D02*
X140907309Y-138948352D01*
X140907309Y-138948352D02*
X140859690Y-138995971D01*
X140859690Y-138995971D02*
X140812071Y-139091209D01*
X140812071Y-139091209D02*
X140812071Y-139329304D01*
X140812071Y-139329304D02*
X140859690Y-139424542D01*
X140859690Y-139424542D02*
X140907309Y-139472161D01*
X140907309Y-139472161D02*
X141002547Y-139519780D01*
X141002547Y-139519780D02*
X141288261Y-139519780D01*
X141288261Y-139519780D02*
X141383499Y-139472161D01*
X141383499Y-139472161D02*
X141431118Y-139424542D01*
X172583504Y-141139780D02*
X172583504Y-140139780D01*
X172154933Y-141139780D02*
X172154933Y-140615971D01*
X172154933Y-140615971D02*
X172202552Y-140520733D01*
X172202552Y-140520733D02*
X172297790Y-140473114D01*
X172297790Y-140473114D02*
X172440647Y-140473114D01*
X172440647Y-140473114D02*
X172535885Y-140520733D01*
X172535885Y-140520733D02*
X172583504Y-140568352D01*
X171821599Y-140473114D02*
X171440647Y-140473114D01*
X171678742Y-140139780D02*
X171678742Y-140996923D01*
X171678742Y-140996923D02*
X171631123Y-141092161D01*
X171631123Y-141092161D02*
X171535885Y-141139780D01*
X171535885Y-141139780D02*
X171440647Y-141139780D01*
X171250170Y-140473114D02*
X170869218Y-140473114D01*
X171107313Y-140139780D02*
X171107313Y-140996923D01*
X171107313Y-140996923D02*
X171059694Y-141092161D01*
X171059694Y-141092161D02*
X170964456Y-141139780D01*
X170964456Y-141139780D02*
X170869218Y-141139780D01*
X170535884Y-140473114D02*
X170535884Y-141473114D01*
X170535884Y-140520733D02*
X170440646Y-140473114D01*
X170440646Y-140473114D02*
X170250170Y-140473114D01*
X170250170Y-140473114D02*
X170154932Y-140520733D01*
X170154932Y-140520733D02*
X170107313Y-140568352D01*
X170107313Y-140568352D02*
X170059694Y-140663590D01*
X170059694Y-140663590D02*
X170059694Y-140949304D01*
X170059694Y-140949304D02*
X170107313Y-141044542D01*
X170107313Y-141044542D02*
X170154932Y-141092161D01*
X170154932Y-141092161D02*
X170250170Y-141139780D01*
X170250170Y-141139780D02*
X170440646Y-141139780D01*
X170440646Y-141139780D02*
X170535884Y-141092161D01*
X169678741Y-141092161D02*
X169583503Y-141139780D01*
X169583503Y-141139780D02*
X169393027Y-141139780D01*
X169393027Y-141139780D02*
X169297789Y-141092161D01*
X169297789Y-141092161D02*
X169250170Y-140996923D01*
X169250170Y-140996923D02*
X169250170Y-140949304D01*
X169250170Y-140949304D02*
X169297789Y-140854066D01*
X169297789Y-140854066D02*
X169393027Y-140806447D01*
X169393027Y-140806447D02*
X169535884Y-140806447D01*
X169535884Y-140806447D02*
X169631122Y-140758828D01*
X169631122Y-140758828D02*
X169678741Y-140663590D01*
X169678741Y-140663590D02*
X169678741Y-140615971D01*
X169678741Y-140615971D02*
X169631122Y-140520733D01*
X169631122Y-140520733D02*
X169535884Y-140473114D01*
X169535884Y-140473114D02*
X169393027Y-140473114D01*
X169393027Y-140473114D02*
X169297789Y-140520733D01*
X168821598Y-141044542D02*
X168773979Y-141092161D01*
X168773979Y-141092161D02*
X168821598Y-141139780D01*
X168821598Y-141139780D02*
X168869217Y-141092161D01*
X168869217Y-141092161D02*
X168821598Y-141044542D01*
X168821598Y-141044542D02*
X168821598Y-141139780D01*
X168821598Y-140520733D02*
X168773979Y-140568352D01*
X168773979Y-140568352D02*
X168821598Y-140615971D01*
X168821598Y-140615971D02*
X168869217Y-140568352D01*
X168869217Y-140568352D02*
X168821598Y-140520733D01*
X168821598Y-140520733D02*
X168821598Y-140615971D01*
X167631123Y-140092161D02*
X168488265Y-141377876D01*
X166583504Y-140092161D02*
X167440646Y-141377876D01*
X165821599Y-140473114D02*
X165821599Y-141282638D01*
X165821599Y-141282638D02*
X165869218Y-141377876D01*
X165869218Y-141377876D02*
X165916837Y-141425495D01*
X165916837Y-141425495D02*
X166012075Y-141473114D01*
X166012075Y-141473114D02*
X166154932Y-141473114D01*
X166154932Y-141473114D02*
X166250170Y-141425495D01*
X165821599Y-141092161D02*
X165916837Y-141139780D01*
X165916837Y-141139780D02*
X166107313Y-141139780D01*
X166107313Y-141139780D02*
X166202551Y-141092161D01*
X166202551Y-141092161D02*
X166250170Y-141044542D01*
X166250170Y-141044542D02*
X166297789Y-140949304D01*
X166297789Y-140949304D02*
X166297789Y-140663590D01*
X166297789Y-140663590D02*
X166250170Y-140568352D01*
X166250170Y-140568352D02*
X166202551Y-140520733D01*
X166202551Y-140520733D02*
X166107313Y-140473114D01*
X166107313Y-140473114D02*
X165916837Y-140473114D01*
X165916837Y-140473114D02*
X165821599Y-140520733D01*
X165345408Y-141139780D02*
X165345408Y-140473114D01*
X165345408Y-140139780D02*
X165393027Y-140187400D01*
X165393027Y-140187400D02*
X165345408Y-140235019D01*
X165345408Y-140235019D02*
X165297789Y-140187400D01*
X165297789Y-140187400D02*
X165345408Y-140139780D01*
X165345408Y-140139780D02*
X165345408Y-140235019D01*
X165012075Y-140473114D02*
X164631123Y-140473114D01*
X164869218Y-140139780D02*
X164869218Y-140996923D01*
X164869218Y-140996923D02*
X164821599Y-141092161D01*
X164821599Y-141092161D02*
X164726361Y-141139780D01*
X164726361Y-141139780D02*
X164631123Y-141139780D01*
X164297789Y-141139780D02*
X164297789Y-140139780D01*
X163869218Y-141139780D02*
X163869218Y-140615971D01*
X163869218Y-140615971D02*
X163916837Y-140520733D01*
X163916837Y-140520733D02*
X164012075Y-140473114D01*
X164012075Y-140473114D02*
X164154932Y-140473114D01*
X164154932Y-140473114D02*
X164250170Y-140520733D01*
X164250170Y-140520733D02*
X164297789Y-140568352D01*
X162964456Y-140473114D02*
X162964456Y-141139780D01*
X163393027Y-140473114D02*
X163393027Y-140996923D01*
X163393027Y-140996923D02*
X163345408Y-141092161D01*
X163345408Y-141092161D02*
X163250170Y-141139780D01*
X163250170Y-141139780D02*
X163107313Y-141139780D01*
X163107313Y-141139780D02*
X163012075Y-141092161D01*
X163012075Y-141092161D02*
X162964456Y-141044542D01*
X162488265Y-141139780D02*
X162488265Y-140139780D01*
X162488265Y-140520733D02*
X162393027Y-140473114D01*
X162393027Y-140473114D02*
X162202551Y-140473114D01*
X162202551Y-140473114D02*
X162107313Y-140520733D01*
X162107313Y-140520733D02*
X162059694Y-140568352D01*
X162059694Y-140568352D02*
X162012075Y-140663590D01*
X162012075Y-140663590D02*
X162012075Y-140949304D01*
X162012075Y-140949304D02*
X162059694Y-141044542D01*
X162059694Y-141044542D02*
X162107313Y-141092161D01*
X162107313Y-141092161D02*
X162202551Y-141139780D01*
X162202551Y-141139780D02*
X162393027Y-141139780D01*
X162393027Y-141139780D02*
X162488265Y-141092161D01*
X161583503Y-141044542D02*
X161535884Y-141092161D01*
X161535884Y-141092161D02*
X161583503Y-141139780D01*
X161583503Y-141139780D02*
X161631122Y-141092161D01*
X161631122Y-141092161D02*
X161583503Y-141044542D01*
X161583503Y-141044542D02*
X161583503Y-141139780D01*
X160678742Y-141092161D02*
X160773980Y-141139780D01*
X160773980Y-141139780D02*
X160964456Y-141139780D01*
X160964456Y-141139780D02*
X161059694Y-141092161D01*
X161059694Y-141092161D02*
X161107313Y-141044542D01*
X161107313Y-141044542D02*
X161154932Y-140949304D01*
X161154932Y-140949304D02*
X161154932Y-140663590D01*
X161154932Y-140663590D02*
X161107313Y-140568352D01*
X161107313Y-140568352D02*
X161059694Y-140520733D01*
X161059694Y-140520733D02*
X160964456Y-140473114D01*
X160964456Y-140473114D02*
X160773980Y-140473114D01*
X160773980Y-140473114D02*
X160678742Y-140520733D01*
X160107313Y-141139780D02*
X160202551Y-141092161D01*
X160202551Y-141092161D02*
X160250170Y-141044542D01*
X160250170Y-141044542D02*
X160297789Y-140949304D01*
X160297789Y-140949304D02*
X160297789Y-140663590D01*
X160297789Y-140663590D02*
X160250170Y-140568352D01*
X160250170Y-140568352D02*
X160202551Y-140520733D01*
X160202551Y-140520733D02*
X160107313Y-140473114D01*
X160107313Y-140473114D02*
X159964456Y-140473114D01*
X159964456Y-140473114D02*
X159869218Y-140520733D01*
X159869218Y-140520733D02*
X159821599Y-140568352D01*
X159821599Y-140568352D02*
X159773980Y-140663590D01*
X159773980Y-140663590D02*
X159773980Y-140949304D01*
X159773980Y-140949304D02*
X159821599Y-141044542D01*
X159821599Y-141044542D02*
X159869218Y-141092161D01*
X159869218Y-141092161D02*
X159964456Y-141139780D01*
X159964456Y-141139780D02*
X160107313Y-141139780D01*
X159345408Y-141139780D02*
X159345408Y-140473114D01*
X159345408Y-140568352D02*
X159297789Y-140520733D01*
X159297789Y-140520733D02*
X159202551Y-140473114D01*
X159202551Y-140473114D02*
X159059694Y-140473114D01*
X159059694Y-140473114D02*
X158964456Y-140520733D01*
X158964456Y-140520733D02*
X158916837Y-140615971D01*
X158916837Y-140615971D02*
X158916837Y-141139780D01*
X158916837Y-140615971D02*
X158869218Y-140520733D01*
X158869218Y-140520733D02*
X158773980Y-140473114D01*
X158773980Y-140473114D02*
X158631123Y-140473114D01*
X158631123Y-140473114D02*
X158535884Y-140520733D01*
X158535884Y-140520733D02*
X158488265Y-140615971D01*
X158488265Y-140615971D02*
X158488265Y-141139780D01*
X157297790Y-140092161D02*
X158154932Y-141377876D01*
X156964456Y-141139780D02*
X156964456Y-140139780D01*
X156964456Y-140520733D02*
X156869218Y-140473114D01*
X156869218Y-140473114D02*
X156678742Y-140473114D01*
X156678742Y-140473114D02*
X156583504Y-140520733D01*
X156583504Y-140520733D02*
X156535885Y-140568352D01*
X156535885Y-140568352D02*
X156488266Y-140663590D01*
X156488266Y-140663590D02*
X156488266Y-140949304D01*
X156488266Y-140949304D02*
X156535885Y-141044542D01*
X156535885Y-141044542D02*
X156583504Y-141092161D01*
X156583504Y-141092161D02*
X156678742Y-141139780D01*
X156678742Y-141139780D02*
X156869218Y-141139780D01*
X156869218Y-141139780D02*
X156964456Y-141092161D01*
X155916837Y-141139780D02*
X156012075Y-141092161D01*
X156012075Y-141092161D02*
X156059694Y-140996923D01*
X156059694Y-140996923D02*
X156059694Y-140139780D01*
X155154932Y-141092161D02*
X155250170Y-141139780D01*
X155250170Y-141139780D02*
X155440646Y-141139780D01*
X155440646Y-141139780D02*
X155535884Y-141092161D01*
X155535884Y-141092161D02*
X155583503Y-140996923D01*
X155583503Y-140996923D02*
X155583503Y-140615971D01*
X155583503Y-140615971D02*
X155535884Y-140520733D01*
X155535884Y-140520733D02*
X155440646Y-140473114D01*
X155440646Y-140473114D02*
X155250170Y-140473114D01*
X155250170Y-140473114D02*
X155154932Y-140520733D01*
X155154932Y-140520733D02*
X155107313Y-140615971D01*
X155107313Y-140615971D02*
X155107313Y-140711209D01*
X155107313Y-140711209D02*
X155583503Y-140806447D01*
X154678741Y-141139780D02*
X154678741Y-140473114D01*
X154678741Y-140663590D02*
X154631122Y-140568352D01*
X154631122Y-140568352D02*
X154583503Y-140520733D01*
X154583503Y-140520733D02*
X154488265Y-140473114D01*
X154488265Y-140473114D02*
X154393027Y-140473114D01*
X153916836Y-141139780D02*
X154012074Y-141092161D01*
X154012074Y-141092161D02*
X154059693Y-141044542D01*
X154059693Y-141044542D02*
X154107312Y-140949304D01*
X154107312Y-140949304D02*
X154107312Y-140663590D01*
X154107312Y-140663590D02*
X154059693Y-140568352D01*
X154059693Y-140568352D02*
X154012074Y-140520733D01*
X154012074Y-140520733D02*
X153916836Y-140473114D01*
X153916836Y-140473114D02*
X153773979Y-140473114D01*
X153773979Y-140473114D02*
X153678741Y-140520733D01*
X153678741Y-140520733D02*
X153631122Y-140568352D01*
X153631122Y-140568352D02*
X153583503Y-140663590D01*
X153583503Y-140663590D02*
X153583503Y-140949304D01*
X153583503Y-140949304D02*
X153631122Y-141044542D01*
X153631122Y-141044542D02*
X153678741Y-141092161D01*
X153678741Y-141092161D02*
X153773979Y-141139780D01*
X153773979Y-141139780D02*
X153916836Y-141139780D01*
X153250169Y-140473114D02*
X153012074Y-141139780D01*
X152773979Y-140473114D02*
X153012074Y-141139780D01*
X153012074Y-141139780D02*
X153107312Y-141377876D01*
X153107312Y-141377876D02*
X153154931Y-141425495D01*
X153154931Y-141425495D02*
X153250169Y-141473114D01*
X151678741Y-140092161D02*
X152535883Y-141377876D01*
X151440645Y-140139780D02*
X150821598Y-140139780D01*
X150821598Y-140139780D02*
X151154931Y-140520733D01*
X151154931Y-140520733D02*
X151012074Y-140520733D01*
X151012074Y-140520733D02*
X150916836Y-140568352D01*
X150916836Y-140568352D02*
X150869217Y-140615971D01*
X150869217Y-140615971D02*
X150821598Y-140711209D01*
X150821598Y-140711209D02*
X150821598Y-140949304D01*
X150821598Y-140949304D02*
X150869217Y-141044542D01*
X150869217Y-141044542D02*
X150916836Y-141092161D01*
X150916836Y-141092161D02*
X151012074Y-141139780D01*
X151012074Y-141139780D02*
X151297788Y-141139780D01*
X151297788Y-141139780D02*
X151393026Y-141092161D01*
X151393026Y-141092161D02*
X151440645Y-141044542D01*
X149964455Y-141139780D02*
X149964455Y-140139780D01*
X149964455Y-141092161D02*
X150059693Y-141139780D01*
X150059693Y-141139780D02*
X150250169Y-141139780D01*
X150250169Y-141139780D02*
X150345407Y-141092161D01*
X150345407Y-141092161D02*
X150393026Y-141044542D01*
X150393026Y-141044542D02*
X150440645Y-140949304D01*
X150440645Y-140949304D02*
X150440645Y-140663590D01*
X150440645Y-140663590D02*
X150393026Y-140568352D01*
X150393026Y-140568352D02*
X150345407Y-140520733D01*
X150345407Y-140520733D02*
X150250169Y-140473114D01*
X150250169Y-140473114D02*
X150059693Y-140473114D01*
X150059693Y-140473114D02*
X149964455Y-140520733D01*
X149488264Y-140758828D02*
X148726360Y-140758828D01*
X148250169Y-140473114D02*
X148250169Y-141330257D01*
X148250169Y-141330257D02*
X148297788Y-141425495D01*
X148297788Y-141425495D02*
X148393026Y-141473114D01*
X148393026Y-141473114D02*
X148440645Y-141473114D01*
X148250169Y-140139780D02*
X148297788Y-140187400D01*
X148297788Y-140187400D02*
X148250169Y-140235019D01*
X148250169Y-140235019D02*
X148202550Y-140187400D01*
X148202550Y-140187400D02*
X148250169Y-140139780D01*
X148250169Y-140139780D02*
X148250169Y-140235019D01*
X147345408Y-140473114D02*
X147345408Y-141139780D01*
X147773979Y-140473114D02*
X147773979Y-140996923D01*
X147773979Y-140996923D02*
X147726360Y-141092161D01*
X147726360Y-141092161D02*
X147631122Y-141139780D01*
X147631122Y-141139780D02*
X147488265Y-141139780D01*
X147488265Y-141139780D02*
X147393027Y-141092161D01*
X147393027Y-141092161D02*
X147345408Y-141044542D01*
X146869217Y-140473114D02*
X146869217Y-141139780D01*
X146869217Y-140568352D02*
X146821598Y-140520733D01*
X146821598Y-140520733D02*
X146726360Y-140473114D01*
X146726360Y-140473114D02*
X146583503Y-140473114D01*
X146583503Y-140473114D02*
X146488265Y-140520733D01*
X146488265Y-140520733D02*
X146440646Y-140615971D01*
X146440646Y-140615971D02*
X146440646Y-141139780D01*
X145964455Y-141139780D02*
X145964455Y-140139780D01*
X145869217Y-140758828D02*
X145583503Y-141139780D01*
X145583503Y-140473114D02*
X145964455Y-140854066D01*
X145250169Y-140473114D02*
X145012074Y-141139780D01*
X144773979Y-140473114D02*
X145012074Y-141139780D01*
X145012074Y-141139780D02*
X145107312Y-141377876D01*
X145107312Y-141377876D02*
X145154931Y-141425495D01*
X145154931Y-141425495D02*
X145250169Y-141473114D01*
X143964455Y-141139780D02*
X143964455Y-140615971D01*
X143964455Y-140615971D02*
X144012074Y-140520733D01*
X144012074Y-140520733D02*
X144107312Y-140473114D01*
X144107312Y-140473114D02*
X144297788Y-140473114D01*
X144297788Y-140473114D02*
X144393026Y-140520733D01*
X143964455Y-141092161D02*
X144059693Y-141139780D01*
X144059693Y-141139780D02*
X144297788Y-141139780D01*
X144297788Y-141139780D02*
X144393026Y-141092161D01*
X144393026Y-141092161D02*
X144440645Y-140996923D01*
X144440645Y-140996923D02*
X144440645Y-140901685D01*
X144440645Y-140901685D02*
X144393026Y-140806447D01*
X144393026Y-140806447D02*
X144297788Y-140758828D01*
X144297788Y-140758828D02*
X144059693Y-140758828D01*
X144059693Y-140758828D02*
X143964455Y-140711209D01*
X143488264Y-141139780D02*
X143488264Y-140473114D01*
X143488264Y-140663590D02*
X143440645Y-140568352D01*
X143440645Y-140568352D02*
X143393026Y-140520733D01*
X143393026Y-140520733D02*
X143297788Y-140473114D01*
X143297788Y-140473114D02*
X143202550Y-140473114D01*
X142440645Y-141139780D02*
X142440645Y-140139780D01*
X142440645Y-141092161D02*
X142535883Y-141139780D01*
X142535883Y-141139780D02*
X142726359Y-141139780D01*
X142726359Y-141139780D02*
X142821597Y-141092161D01*
X142821597Y-141092161D02*
X142869216Y-141044542D01*
X142869216Y-141044542D02*
X142916835Y-140949304D01*
X142916835Y-140949304D02*
X142916835Y-140663590D01*
X142916835Y-140663590D02*
X142869216Y-140568352D01*
X142869216Y-140568352D02*
X142821597Y-140520733D01*
X142821597Y-140520733D02*
X142726359Y-140473114D01*
X142726359Y-140473114D02*
X142535883Y-140473114D01*
X142535883Y-140473114D02*
X142440645Y-140520733D01*
X141250169Y-140092161D02*
X142107311Y-141377876D01*
X141059692Y-140473114D02*
X140678740Y-140473114D01*
X140916835Y-140139780D02*
X140916835Y-140996923D01*
X140916835Y-140996923D02*
X140869216Y-141092161D01*
X140869216Y-141092161D02*
X140773978Y-141139780D01*
X140773978Y-141139780D02*
X140678740Y-141139780D01*
X140345406Y-141139780D02*
X140345406Y-140473114D01*
X140345406Y-140663590D02*
X140297787Y-140568352D01*
X140297787Y-140568352D02*
X140250168Y-140520733D01*
X140250168Y-140520733D02*
X140154930Y-140473114D01*
X140154930Y-140473114D02*
X140059692Y-140473114D01*
X139345406Y-141092161D02*
X139440644Y-141139780D01*
X139440644Y-141139780D02*
X139631120Y-141139780D01*
X139631120Y-141139780D02*
X139726358Y-141092161D01*
X139726358Y-141092161D02*
X139773977Y-140996923D01*
X139773977Y-140996923D02*
X139773977Y-140615971D01*
X139773977Y-140615971D02*
X139726358Y-140520733D01*
X139726358Y-140520733D02*
X139631120Y-140473114D01*
X139631120Y-140473114D02*
X139440644Y-140473114D01*
X139440644Y-140473114D02*
X139345406Y-140520733D01*
X139345406Y-140520733D02*
X139297787Y-140615971D01*
X139297787Y-140615971D02*
X139297787Y-140711209D01*
X139297787Y-140711209D02*
X139773977Y-140806447D01*
X138488263Y-141092161D02*
X138583501Y-141139780D01*
X138583501Y-141139780D02*
X138773977Y-141139780D01*
X138773977Y-141139780D02*
X138869215Y-141092161D01*
X138869215Y-141092161D02*
X138916834Y-140996923D01*
X138916834Y-140996923D02*
X138916834Y-140615971D01*
X138916834Y-140615971D02*
X138869215Y-140520733D01*
X138869215Y-140520733D02*
X138773977Y-140473114D01*
X138773977Y-140473114D02*
X138583501Y-140473114D01*
X138583501Y-140473114D02*
X138488263Y-140520733D01*
X138488263Y-140520733D02*
X138440644Y-140615971D01*
X138440644Y-140615971D02*
X138440644Y-140711209D01*
X138440644Y-140711209D02*
X138916834Y-140806447D01*
X137297787Y-140092161D02*
X138154929Y-141377876D01*
X136964453Y-141139780D02*
X136964453Y-140473114D01*
X136964453Y-140568352D02*
X136916834Y-140520733D01*
X136916834Y-140520733D02*
X136821596Y-140473114D01*
X136821596Y-140473114D02*
X136678739Y-140473114D01*
X136678739Y-140473114D02*
X136583501Y-140520733D01*
X136583501Y-140520733D02*
X136535882Y-140615971D01*
X136535882Y-140615971D02*
X136535882Y-141139780D01*
X136535882Y-140615971D02*
X136488263Y-140520733D01*
X136488263Y-140520733D02*
X136393025Y-140473114D01*
X136393025Y-140473114D02*
X136250168Y-140473114D01*
X136250168Y-140473114D02*
X136154929Y-140520733D01*
X136154929Y-140520733D02*
X136107310Y-140615971D01*
X136107310Y-140615971D02*
X136107310Y-141139780D01*
X135202549Y-141139780D02*
X135202549Y-140615971D01*
X135202549Y-140615971D02*
X135250168Y-140520733D01*
X135250168Y-140520733D02*
X135345406Y-140473114D01*
X135345406Y-140473114D02*
X135535882Y-140473114D01*
X135535882Y-140473114D02*
X135631120Y-140520733D01*
X135202549Y-141092161D02*
X135297787Y-141139780D01*
X135297787Y-141139780D02*
X135535882Y-141139780D01*
X135535882Y-141139780D02*
X135631120Y-141092161D01*
X135631120Y-141092161D02*
X135678739Y-140996923D01*
X135678739Y-140996923D02*
X135678739Y-140901685D01*
X135678739Y-140901685D02*
X135631120Y-140806447D01*
X135631120Y-140806447D02*
X135535882Y-140758828D01*
X135535882Y-140758828D02*
X135297787Y-140758828D01*
X135297787Y-140758828D02*
X135202549Y-140711209D01*
X134726358Y-141139780D02*
X134726358Y-140473114D01*
X134726358Y-140139780D02*
X134773977Y-140187400D01*
X134773977Y-140187400D02*
X134726358Y-140235019D01*
X134726358Y-140235019D02*
X134678739Y-140187400D01*
X134678739Y-140187400D02*
X134726358Y-140139780D01*
X134726358Y-140139780D02*
X134726358Y-140235019D01*
X134250168Y-140473114D02*
X134250168Y-141139780D01*
X134250168Y-140568352D02*
X134202549Y-140520733D01*
X134202549Y-140520733D02*
X134107311Y-140473114D01*
X134107311Y-140473114D02*
X133964454Y-140473114D01*
X133964454Y-140473114D02*
X133869216Y-140520733D01*
X133869216Y-140520733D02*
X133821597Y-140615971D01*
X133821597Y-140615971D02*
X133821597Y-141139780D01*
X132631121Y-140092161D02*
X133488263Y-141377876D01*
X132345406Y-140854066D02*
X131869216Y-140854066D01*
X132440644Y-141139780D02*
X132107311Y-140139780D01*
X132107311Y-140139780D02*
X131773978Y-141139780D01*
X131583501Y-140473114D02*
X131202549Y-140473114D01*
X131440644Y-140139780D02*
X131440644Y-140996923D01*
X131440644Y-140996923D02*
X131393025Y-141092161D01*
X131393025Y-141092161D02*
X131297787Y-141139780D01*
X131297787Y-141139780D02*
X131202549Y-141139780D01*
X130440644Y-141139780D02*
X130440644Y-140615971D01*
X130440644Y-140615971D02*
X130488263Y-140520733D01*
X130488263Y-140520733D02*
X130583501Y-140473114D01*
X130583501Y-140473114D02*
X130773977Y-140473114D01*
X130773977Y-140473114D02*
X130869215Y-140520733D01*
X130440644Y-141092161D02*
X130535882Y-141139780D01*
X130535882Y-141139780D02*
X130773977Y-141139780D01*
X130773977Y-141139780D02*
X130869215Y-141092161D01*
X130869215Y-141092161D02*
X130916834Y-140996923D01*
X130916834Y-140996923D02*
X130916834Y-140901685D01*
X130916834Y-140901685D02*
X130869215Y-140806447D01*
X130869215Y-140806447D02*
X130773977Y-140758828D01*
X130773977Y-140758828D02*
X130535882Y-140758828D01*
X130535882Y-140758828D02*
X130440644Y-140711209D01*
X129964453Y-141139780D02*
X129964453Y-140473114D01*
X129964453Y-140663590D02*
X129916834Y-140568352D01*
X129916834Y-140568352D02*
X129869215Y-140520733D01*
X129869215Y-140520733D02*
X129773977Y-140473114D01*
X129773977Y-140473114D02*
X129678739Y-140473114D01*
X129345405Y-141139780D02*
X129345405Y-140473114D01*
X129345405Y-140139780D02*
X129393024Y-140187400D01*
X129393024Y-140187400D02*
X129345405Y-140235019D01*
X129345405Y-140235019D02*
X129297786Y-140187400D01*
X129297786Y-140187400D02*
X129345405Y-140139780D01*
X129345405Y-140139780D02*
X129345405Y-140235019D01*
X128345406Y-141139780D02*
X128916834Y-141139780D01*
X128631120Y-141139780D02*
X128631120Y-140139780D01*
X128631120Y-140139780D02*
X128726358Y-140282638D01*
X128726358Y-140282638D02*
X128821596Y-140377876D01*
X128821596Y-140377876D02*
X128916834Y-140425495D01*
X128012072Y-140139780D02*
X127393025Y-140139780D01*
X127393025Y-140139780D02*
X127726358Y-140520733D01*
X127726358Y-140520733D02*
X127583501Y-140520733D01*
X127583501Y-140520733D02*
X127488263Y-140568352D01*
X127488263Y-140568352D02*
X127440644Y-140615971D01*
X127440644Y-140615971D02*
X127393025Y-140711209D01*
X127393025Y-140711209D02*
X127393025Y-140949304D01*
X127393025Y-140949304D02*
X127440644Y-141044542D01*
X127440644Y-141044542D02*
X127488263Y-141092161D01*
X127488263Y-141092161D02*
X127583501Y-141139780D01*
X127583501Y-141139780D02*
X127869215Y-141139780D01*
X127869215Y-141139780D02*
X127964453Y-141092161D01*
X127964453Y-141092161D02*
X128012072Y-141044542D01*
X126773977Y-140139780D02*
X126678739Y-140139780D01*
X126678739Y-140139780D02*
X126583501Y-140187400D01*
X126583501Y-140187400D02*
X126535882Y-140235019D01*
X126535882Y-140235019D02*
X126488263Y-140330257D01*
X126488263Y-140330257D02*
X126440644Y-140520733D01*
X126440644Y-140520733D02*
X126440644Y-140758828D01*
X126440644Y-140758828D02*
X126488263Y-140949304D01*
X126488263Y-140949304D02*
X126535882Y-141044542D01*
X126535882Y-141044542D02*
X126583501Y-141092161D01*
X126583501Y-141092161D02*
X126678739Y-141139780D01*
X126678739Y-141139780D02*
X126773977Y-141139780D01*
X126773977Y-141139780D02*
X126869215Y-141092161D01*
X126869215Y-141092161D02*
X126916834Y-141044542D01*
X126916834Y-141044542D02*
X126964453Y-140949304D01*
X126964453Y-140949304D02*
X127012072Y-140758828D01*
X127012072Y-140758828D02*
X127012072Y-140520733D01*
X127012072Y-140520733D02*
X126964453Y-140330257D01*
X126964453Y-140330257D02*
X126916834Y-140235019D01*
X126916834Y-140235019D02*
X126869215Y-140187400D01*
X126869215Y-140187400D02*
X126773977Y-140139780D01*
X126012072Y-141139780D02*
X126012072Y-140139780D01*
X126012072Y-140139780D02*
X125678739Y-140854066D01*
X125678739Y-140854066D02*
X125345406Y-140139780D01*
X125345406Y-140139780D02*
X125345406Y-141139780D01*
X124964453Y-140139780D02*
X124297787Y-141139780D01*
X124297787Y-140139780D02*
X124964453Y-141139780D01*
X172583504Y-142759780D02*
X172583504Y-141759780D01*
X172154933Y-142759780D02*
X172154933Y-142235971D01*
X172154933Y-142235971D02*
X172202552Y-142140733D01*
X172202552Y-142140733D02*
X172297790Y-142093114D01*
X172297790Y-142093114D02*
X172440647Y-142093114D01*
X172440647Y-142093114D02*
X172535885Y-142140733D01*
X172535885Y-142140733D02*
X172583504Y-142188352D01*
X171821599Y-142093114D02*
X171440647Y-142093114D01*
X171678742Y-141759780D02*
X171678742Y-142616923D01*
X171678742Y-142616923D02*
X171631123Y-142712161D01*
X171631123Y-142712161D02*
X171535885Y-142759780D01*
X171535885Y-142759780D02*
X171440647Y-142759780D01*
X171250170Y-142093114D02*
X170869218Y-142093114D01*
X171107313Y-141759780D02*
X171107313Y-142616923D01*
X171107313Y-142616923D02*
X171059694Y-142712161D01*
X171059694Y-142712161D02*
X170964456Y-142759780D01*
X170964456Y-142759780D02*
X170869218Y-142759780D01*
X170535884Y-142093114D02*
X170535884Y-143093114D01*
X170535884Y-142140733D02*
X170440646Y-142093114D01*
X170440646Y-142093114D02*
X170250170Y-142093114D01*
X170250170Y-142093114D02*
X170154932Y-142140733D01*
X170154932Y-142140733D02*
X170107313Y-142188352D01*
X170107313Y-142188352D02*
X170059694Y-142283590D01*
X170059694Y-142283590D02*
X170059694Y-142569304D01*
X170059694Y-142569304D02*
X170107313Y-142664542D01*
X170107313Y-142664542D02*
X170154932Y-142712161D01*
X170154932Y-142712161D02*
X170250170Y-142759780D01*
X170250170Y-142759780D02*
X170440646Y-142759780D01*
X170440646Y-142759780D02*
X170535884Y-142712161D01*
X169678741Y-142712161D02*
X169583503Y-142759780D01*
X169583503Y-142759780D02*
X169393027Y-142759780D01*
X169393027Y-142759780D02*
X169297789Y-142712161D01*
X169297789Y-142712161D02*
X169250170Y-142616923D01*
X169250170Y-142616923D02*
X169250170Y-142569304D01*
X169250170Y-142569304D02*
X169297789Y-142474066D01*
X169297789Y-142474066D02*
X169393027Y-142426447D01*
X169393027Y-142426447D02*
X169535884Y-142426447D01*
X169535884Y-142426447D02*
X169631122Y-142378828D01*
X169631122Y-142378828D02*
X169678741Y-142283590D01*
X169678741Y-142283590D02*
X169678741Y-142235971D01*
X169678741Y-142235971D02*
X169631122Y-142140733D01*
X169631122Y-142140733D02*
X169535884Y-142093114D01*
X169535884Y-142093114D02*
X169393027Y-142093114D01*
X169393027Y-142093114D02*
X169297789Y-142140733D01*
X168821598Y-142664542D02*
X168773979Y-142712161D01*
X168773979Y-142712161D02*
X168821598Y-142759780D01*
X168821598Y-142759780D02*
X168869217Y-142712161D01*
X168869217Y-142712161D02*
X168821598Y-142664542D01*
X168821598Y-142664542D02*
X168821598Y-142759780D01*
X168821598Y-142140733D02*
X168773979Y-142188352D01*
X168773979Y-142188352D02*
X168821598Y-142235971D01*
X168821598Y-142235971D02*
X168869217Y-142188352D01*
X168869217Y-142188352D02*
X168821598Y-142140733D01*
X168821598Y-142140733D02*
X168821598Y-142235971D01*
X167631123Y-141712161D02*
X168488265Y-142997876D01*
X166583504Y-141712161D02*
X167440646Y-142997876D01*
X165821599Y-142759780D02*
X165821599Y-142235971D01*
X165821599Y-142235971D02*
X165869218Y-142140733D01*
X165869218Y-142140733D02*
X165964456Y-142093114D01*
X165964456Y-142093114D02*
X166154932Y-142093114D01*
X166154932Y-142093114D02*
X166250170Y-142140733D01*
X165821599Y-142712161D02*
X165916837Y-142759780D01*
X165916837Y-142759780D02*
X166154932Y-142759780D01*
X166154932Y-142759780D02*
X166250170Y-142712161D01*
X166250170Y-142712161D02*
X166297789Y-142616923D01*
X166297789Y-142616923D02*
X166297789Y-142521685D01*
X166297789Y-142521685D02*
X166250170Y-142426447D01*
X166250170Y-142426447D02*
X166154932Y-142378828D01*
X166154932Y-142378828D02*
X165916837Y-142378828D01*
X165916837Y-142378828D02*
X165821599Y-142331209D01*
X165488265Y-142093114D02*
X165107313Y-142093114D01*
X165345408Y-141759780D02*
X165345408Y-142616923D01*
X165345408Y-142616923D02*
X165297789Y-142712161D01*
X165297789Y-142712161D02*
X165202551Y-142759780D01*
X165202551Y-142759780D02*
X165107313Y-142759780D01*
X164345408Y-142759780D02*
X164345408Y-142235971D01*
X164345408Y-142235971D02*
X164393027Y-142140733D01*
X164393027Y-142140733D02*
X164488265Y-142093114D01*
X164488265Y-142093114D02*
X164678741Y-142093114D01*
X164678741Y-142093114D02*
X164773979Y-142140733D01*
X164345408Y-142712161D02*
X164440646Y-142759780D01*
X164440646Y-142759780D02*
X164678741Y-142759780D01*
X164678741Y-142759780D02*
X164773979Y-142712161D01*
X164773979Y-142712161D02*
X164821598Y-142616923D01*
X164821598Y-142616923D02*
X164821598Y-142521685D01*
X164821598Y-142521685D02*
X164773979Y-142426447D01*
X164773979Y-142426447D02*
X164678741Y-142378828D01*
X164678741Y-142378828D02*
X164440646Y-142378828D01*
X164440646Y-142378828D02*
X164345408Y-142331209D01*
X163869217Y-142759780D02*
X163869217Y-142093114D01*
X163869217Y-142283590D02*
X163821598Y-142188352D01*
X163821598Y-142188352D02*
X163773979Y-142140733D01*
X163773979Y-142140733D02*
X163678741Y-142093114D01*
X163678741Y-142093114D02*
X163583503Y-142093114D01*
X163250169Y-142759780D02*
X163250169Y-142093114D01*
X163250169Y-141759780D02*
X163297788Y-141807400D01*
X163297788Y-141807400D02*
X163250169Y-141855019D01*
X163250169Y-141855019D02*
X163202550Y-141807400D01*
X163202550Y-141807400D02*
X163250169Y-141759780D01*
X163250169Y-141759780D02*
X163250169Y-141855019D01*
X162345408Y-142759780D02*
X162345408Y-142235971D01*
X162345408Y-142235971D02*
X162393027Y-142140733D01*
X162393027Y-142140733D02*
X162488265Y-142093114D01*
X162488265Y-142093114D02*
X162678741Y-142093114D01*
X162678741Y-142093114D02*
X162773979Y-142140733D01*
X162345408Y-142712161D02*
X162440646Y-142759780D01*
X162440646Y-142759780D02*
X162678741Y-142759780D01*
X162678741Y-142759780D02*
X162773979Y-142712161D01*
X162773979Y-142712161D02*
X162821598Y-142616923D01*
X162821598Y-142616923D02*
X162821598Y-142521685D01*
X162821598Y-142521685D02*
X162773979Y-142426447D01*
X162773979Y-142426447D02*
X162678741Y-142378828D01*
X162678741Y-142378828D02*
X162440646Y-142378828D01*
X162440646Y-142378828D02*
X162345408Y-142331209D01*
X161440646Y-142093114D02*
X161440646Y-142902638D01*
X161440646Y-142902638D02*
X161488265Y-142997876D01*
X161488265Y-142997876D02*
X161535884Y-143045495D01*
X161535884Y-143045495D02*
X161631122Y-143093114D01*
X161631122Y-143093114D02*
X161773979Y-143093114D01*
X161773979Y-143093114D02*
X161869217Y-143045495D01*
X161440646Y-142712161D02*
X161535884Y-142759780D01*
X161535884Y-142759780D02*
X161726360Y-142759780D01*
X161726360Y-142759780D02*
X161821598Y-142712161D01*
X161821598Y-142712161D02*
X161869217Y-142664542D01*
X161869217Y-142664542D02*
X161916836Y-142569304D01*
X161916836Y-142569304D02*
X161916836Y-142283590D01*
X161916836Y-142283590D02*
X161869217Y-142188352D01*
X161869217Y-142188352D02*
X161821598Y-142140733D01*
X161821598Y-142140733D02*
X161726360Y-142093114D01*
X161726360Y-142093114D02*
X161535884Y-142093114D01*
X161535884Y-142093114D02*
X161440646Y-142140733D01*
X160583503Y-142712161D02*
X160678741Y-142759780D01*
X160678741Y-142759780D02*
X160869217Y-142759780D01*
X160869217Y-142759780D02*
X160964455Y-142712161D01*
X160964455Y-142712161D02*
X161012074Y-142616923D01*
X161012074Y-142616923D02*
X161012074Y-142235971D01*
X161012074Y-142235971D02*
X160964455Y-142140733D01*
X160964455Y-142140733D02*
X160869217Y-142093114D01*
X160869217Y-142093114D02*
X160678741Y-142093114D01*
X160678741Y-142093114D02*
X160583503Y-142140733D01*
X160583503Y-142140733D02*
X160535884Y-142235971D01*
X160535884Y-142235971D02*
X160535884Y-142331209D01*
X160535884Y-142331209D02*
X161012074Y-142426447D01*
X160107312Y-142664542D02*
X160059693Y-142712161D01*
X160059693Y-142712161D02*
X160107312Y-142759780D01*
X160107312Y-142759780D02*
X160154931Y-142712161D01*
X160154931Y-142712161D02*
X160107312Y-142664542D01*
X160107312Y-142664542D02*
X160107312Y-142759780D01*
X159202551Y-142712161D02*
X159297789Y-142759780D01*
X159297789Y-142759780D02*
X159488265Y-142759780D01*
X159488265Y-142759780D02*
X159583503Y-142712161D01*
X159583503Y-142712161D02*
X159631122Y-142664542D01*
X159631122Y-142664542D02*
X159678741Y-142569304D01*
X159678741Y-142569304D02*
X159678741Y-142283590D01*
X159678741Y-142283590D02*
X159631122Y-142188352D01*
X159631122Y-142188352D02*
X159583503Y-142140733D01*
X159583503Y-142140733D02*
X159488265Y-142093114D01*
X159488265Y-142093114D02*
X159297789Y-142093114D01*
X159297789Y-142093114D02*
X159202551Y-142140733D01*
X158631122Y-142759780D02*
X158726360Y-142712161D01*
X158726360Y-142712161D02*
X158773979Y-142664542D01*
X158773979Y-142664542D02*
X158821598Y-142569304D01*
X158821598Y-142569304D02*
X158821598Y-142283590D01*
X158821598Y-142283590D02*
X158773979Y-142188352D01*
X158773979Y-142188352D02*
X158726360Y-142140733D01*
X158726360Y-142140733D02*
X158631122Y-142093114D01*
X158631122Y-142093114D02*
X158488265Y-142093114D01*
X158488265Y-142093114D02*
X158393027Y-142140733D01*
X158393027Y-142140733D02*
X158345408Y-142188352D01*
X158345408Y-142188352D02*
X158297789Y-142283590D01*
X158297789Y-142283590D02*
X158297789Y-142569304D01*
X158297789Y-142569304D02*
X158345408Y-142664542D01*
X158345408Y-142664542D02*
X158393027Y-142712161D01*
X158393027Y-142712161D02*
X158488265Y-142759780D01*
X158488265Y-142759780D02*
X158631122Y-142759780D01*
X157869217Y-142759780D02*
X157869217Y-142093114D01*
X157869217Y-142188352D02*
X157821598Y-142140733D01*
X157821598Y-142140733D02*
X157726360Y-142093114D01*
X157726360Y-142093114D02*
X157583503Y-142093114D01*
X157583503Y-142093114D02*
X157488265Y-142140733D01*
X157488265Y-142140733D02*
X157440646Y-142235971D01*
X157440646Y-142235971D02*
X157440646Y-142759780D01*
X157440646Y-142235971D02*
X157393027Y-142140733D01*
X157393027Y-142140733D02*
X157297789Y-142093114D01*
X157297789Y-142093114D02*
X157154932Y-142093114D01*
X157154932Y-142093114D02*
X157059693Y-142140733D01*
X157059693Y-142140733D02*
X157012074Y-142235971D01*
X157012074Y-142235971D02*
X157012074Y-142759780D01*
X155821599Y-141712161D02*
X156678741Y-142997876D01*
X155631122Y-142093114D02*
X155250170Y-142093114D01*
X155488265Y-142759780D02*
X155488265Y-141902638D01*
X155488265Y-141902638D02*
X155440646Y-141807400D01*
X155440646Y-141807400D02*
X155345408Y-141759780D01*
X155345408Y-141759780D02*
X155250170Y-141759780D01*
X154773979Y-142759780D02*
X154869217Y-142712161D01*
X154869217Y-142712161D02*
X154916836Y-142664542D01*
X154916836Y-142664542D02*
X154964455Y-142569304D01*
X154964455Y-142569304D02*
X154964455Y-142283590D01*
X154964455Y-142283590D02*
X154916836Y-142188352D01*
X154916836Y-142188352D02*
X154869217Y-142140733D01*
X154869217Y-142140733D02*
X154773979Y-142093114D01*
X154773979Y-142093114D02*
X154631122Y-142093114D01*
X154631122Y-142093114D02*
X154535884Y-142140733D01*
X154535884Y-142140733D02*
X154488265Y-142188352D01*
X154488265Y-142188352D02*
X154440646Y-142283590D01*
X154440646Y-142283590D02*
X154440646Y-142569304D01*
X154440646Y-142569304D02*
X154488265Y-142664542D01*
X154488265Y-142664542D02*
X154535884Y-142712161D01*
X154535884Y-142712161D02*
X154631122Y-142759780D01*
X154631122Y-142759780D02*
X154773979Y-142759780D01*
X154012074Y-142759780D02*
X154012074Y-142093114D01*
X154012074Y-142283590D02*
X153964455Y-142188352D01*
X153964455Y-142188352D02*
X153916836Y-142140733D01*
X153916836Y-142140733D02*
X153821598Y-142093114D01*
X153821598Y-142093114D02*
X153726360Y-142093114D01*
X152964455Y-142093114D02*
X152964455Y-142759780D01*
X153393026Y-142093114D02*
X153393026Y-142616923D01*
X153393026Y-142616923D02*
X153345407Y-142712161D01*
X153345407Y-142712161D02*
X153250169Y-142759780D01*
X153250169Y-142759780D02*
X153107312Y-142759780D01*
X153107312Y-142759780D02*
X153012074Y-142712161D01*
X153012074Y-142712161D02*
X152964455Y-142664542D01*
X152488264Y-142759780D02*
X152488264Y-142093114D01*
X152488264Y-142188352D02*
X152440645Y-142140733D01*
X152440645Y-142140733D02*
X152345407Y-142093114D01*
X152345407Y-142093114D02*
X152202550Y-142093114D01*
X152202550Y-142093114D02*
X152107312Y-142140733D01*
X152107312Y-142140733D02*
X152059693Y-142235971D01*
X152059693Y-142235971D02*
X152059693Y-142759780D01*
X152059693Y-142235971D02*
X152012074Y-142140733D01*
X152012074Y-142140733D02*
X151916836Y-142093114D01*
X151916836Y-142093114D02*
X151773979Y-142093114D01*
X151773979Y-142093114D02*
X151678740Y-142140733D01*
X151678740Y-142140733D02*
X151631121Y-142235971D01*
X151631121Y-142235971D02*
X151631121Y-142759780D01*
X151202550Y-142712161D02*
X151107312Y-142759780D01*
X151107312Y-142759780D02*
X150916836Y-142759780D01*
X150916836Y-142759780D02*
X150821598Y-142712161D01*
X150821598Y-142712161D02*
X150773979Y-142616923D01*
X150773979Y-142616923D02*
X150773979Y-142569304D01*
X150773979Y-142569304D02*
X150821598Y-142474066D01*
X150821598Y-142474066D02*
X150916836Y-142426447D01*
X150916836Y-142426447D02*
X151059693Y-142426447D01*
X151059693Y-142426447D02*
X151154931Y-142378828D01*
X151154931Y-142378828D02*
X151202550Y-142283590D01*
X151202550Y-142283590D02*
X151202550Y-142235971D01*
X151202550Y-142235971D02*
X151154931Y-142140733D01*
X151154931Y-142140733D02*
X151059693Y-142093114D01*
X151059693Y-142093114D02*
X150916836Y-142093114D01*
X150916836Y-142093114D02*
X150821598Y-142140733D01*
X149631122Y-141712161D02*
X150488264Y-142997876D01*
X149297788Y-142093114D02*
X149297788Y-143093114D01*
X149297788Y-142140733D02*
X149202550Y-142093114D01*
X149202550Y-142093114D02*
X149012074Y-142093114D01*
X149012074Y-142093114D02*
X148916836Y-142140733D01*
X148916836Y-142140733D02*
X148869217Y-142188352D01*
X148869217Y-142188352D02*
X148821598Y-142283590D01*
X148821598Y-142283590D02*
X148821598Y-142569304D01*
X148821598Y-142569304D02*
X148869217Y-142664542D01*
X148869217Y-142664542D02*
X148916836Y-142712161D01*
X148916836Y-142712161D02*
X149012074Y-142759780D01*
X149012074Y-142759780D02*
X149202550Y-142759780D01*
X149202550Y-142759780D02*
X149297788Y-142712161D01*
X148393026Y-142759780D02*
X148393026Y-142093114D01*
X148393026Y-142283590D02*
X148345407Y-142188352D01*
X148345407Y-142188352D02*
X148297788Y-142140733D01*
X148297788Y-142140733D02*
X148202550Y-142093114D01*
X148202550Y-142093114D02*
X148107312Y-142093114D01*
X147631121Y-142759780D02*
X147726359Y-142712161D01*
X147726359Y-142712161D02*
X147773978Y-142664542D01*
X147773978Y-142664542D02*
X147821597Y-142569304D01*
X147821597Y-142569304D02*
X147821597Y-142283590D01*
X147821597Y-142283590D02*
X147773978Y-142188352D01*
X147773978Y-142188352D02*
X147726359Y-142140733D01*
X147726359Y-142140733D02*
X147631121Y-142093114D01*
X147631121Y-142093114D02*
X147488264Y-142093114D01*
X147488264Y-142093114D02*
X147393026Y-142140733D01*
X147393026Y-142140733D02*
X147345407Y-142188352D01*
X147345407Y-142188352D02*
X147297788Y-142283590D01*
X147297788Y-142283590D02*
X147297788Y-142569304D01*
X147297788Y-142569304D02*
X147345407Y-142664542D01*
X147345407Y-142664542D02*
X147393026Y-142712161D01*
X147393026Y-142712161D02*
X147488264Y-142759780D01*
X147488264Y-142759780D02*
X147631121Y-142759780D01*
X147012073Y-142093114D02*
X146631121Y-142093114D01*
X146869216Y-142759780D02*
X146869216Y-141902638D01*
X146869216Y-141902638D02*
X146821597Y-141807400D01*
X146821597Y-141807400D02*
X146726359Y-141759780D01*
X146726359Y-141759780D02*
X146631121Y-141759780D01*
X146297787Y-142759780D02*
X146297787Y-142093114D01*
X146297787Y-141759780D02*
X146345406Y-141807400D01*
X146345406Y-141807400D02*
X146297787Y-141855019D01*
X146297787Y-141855019D02*
X146250168Y-141807400D01*
X146250168Y-141807400D02*
X146297787Y-141759780D01*
X146297787Y-141759780D02*
X146297787Y-141855019D01*
X145678740Y-142759780D02*
X145773978Y-142712161D01*
X145773978Y-142712161D02*
X145821597Y-142616923D01*
X145821597Y-142616923D02*
X145821597Y-141759780D01*
X144916835Y-142712161D02*
X145012073Y-142759780D01*
X145012073Y-142759780D02*
X145202549Y-142759780D01*
X145202549Y-142759780D02*
X145297787Y-142712161D01*
X145297787Y-142712161D02*
X145345406Y-142616923D01*
X145345406Y-142616923D02*
X145345406Y-142235971D01*
X145345406Y-142235971D02*
X145297787Y-142140733D01*
X145297787Y-142140733D02*
X145202549Y-142093114D01*
X145202549Y-142093114D02*
X145012073Y-142093114D01*
X145012073Y-142093114D02*
X144916835Y-142140733D01*
X144916835Y-142140733D02*
X144869216Y-142235971D01*
X144869216Y-142235971D02*
X144869216Y-142331209D01*
X144869216Y-142331209D02*
X145345406Y-142426447D01*
X143726359Y-141712161D02*
X144583501Y-142997876D01*
X143488263Y-141759780D02*
X142821597Y-141759780D01*
X142821597Y-141759780D02*
X143250168Y-142759780D01*
X142012073Y-141759780D02*
X142202549Y-141759780D01*
X142202549Y-141759780D02*
X142297787Y-141807400D01*
X142297787Y-141807400D02*
X142345406Y-141855019D01*
X142345406Y-141855019D02*
X142440644Y-141997876D01*
X142440644Y-141997876D02*
X142488263Y-142188352D01*
X142488263Y-142188352D02*
X142488263Y-142569304D01*
X142488263Y-142569304D02*
X142440644Y-142664542D01*
X142440644Y-142664542D02*
X142393025Y-142712161D01*
X142393025Y-142712161D02*
X142297787Y-142759780D01*
X142297787Y-142759780D02*
X142107311Y-142759780D01*
X142107311Y-142759780D02*
X142012073Y-142712161D01*
X142012073Y-142712161D02*
X141964454Y-142664542D01*
X141964454Y-142664542D02*
X141916835Y-142569304D01*
X141916835Y-142569304D02*
X141916835Y-142331209D01*
X141916835Y-142331209D02*
X141964454Y-142235971D01*
X141964454Y-142235971D02*
X142012073Y-142188352D01*
X142012073Y-142188352D02*
X142107311Y-142140733D01*
X142107311Y-142140733D02*
X142297787Y-142140733D01*
X142297787Y-142140733D02*
X142393025Y-142188352D01*
X142393025Y-142188352D02*
X142440644Y-142235971D01*
X142440644Y-142235971D02*
X142488263Y-142331209D01*
X141345406Y-142188352D02*
X141440644Y-142140733D01*
X141440644Y-142140733D02*
X141488263Y-142093114D01*
X141488263Y-142093114D02*
X141535882Y-141997876D01*
X141535882Y-141997876D02*
X141535882Y-141950257D01*
X141535882Y-141950257D02*
X141488263Y-141855019D01*
X141488263Y-141855019D02*
X141440644Y-141807400D01*
X141440644Y-141807400D02*
X141345406Y-141759780D01*
X141345406Y-141759780D02*
X141154930Y-141759780D01*
X141154930Y-141759780D02*
X141059692Y-141807400D01*
X141059692Y-141807400D02*
X141012073Y-141855019D01*
X141012073Y-141855019D02*
X140964454Y-141950257D01*
X140964454Y-141950257D02*
X140964454Y-141997876D01*
X140964454Y-141997876D02*
X141012073Y-142093114D01*
X141012073Y-142093114D02*
X141059692Y-142140733D01*
X141059692Y-142140733D02*
X141154930Y-142188352D01*
X141154930Y-142188352D02*
X141345406Y-142188352D01*
X141345406Y-142188352D02*
X141440644Y-142235971D01*
X141440644Y-142235971D02*
X141488263Y-142283590D01*
X141488263Y-142283590D02*
X141535882Y-142378828D01*
X141535882Y-142378828D02*
X141535882Y-142569304D01*
X141535882Y-142569304D02*
X141488263Y-142664542D01*
X141488263Y-142664542D02*
X141440644Y-142712161D01*
X141440644Y-142712161D02*
X141345406Y-142759780D01*
X141345406Y-142759780D02*
X141154930Y-142759780D01*
X141154930Y-142759780D02*
X141059692Y-142712161D01*
X141059692Y-142712161D02*
X141012073Y-142664542D01*
X141012073Y-142664542D02*
X140964454Y-142569304D01*
X140964454Y-142569304D02*
X140964454Y-142378828D01*
X140964454Y-142378828D02*
X141012073Y-142283590D01*
X141012073Y-142283590D02*
X141059692Y-142235971D01*
X141059692Y-142235971D02*
X141154930Y-142188352D01*
X140059692Y-141759780D02*
X140535882Y-141759780D01*
X140535882Y-141759780D02*
X140583501Y-142235971D01*
X140583501Y-142235971D02*
X140535882Y-142188352D01*
X140535882Y-142188352D02*
X140440644Y-142140733D01*
X140440644Y-142140733D02*
X140202549Y-142140733D01*
X140202549Y-142140733D02*
X140107311Y-142188352D01*
X140107311Y-142188352D02*
X140059692Y-142235971D01*
X140059692Y-142235971D02*
X140012073Y-142331209D01*
X140012073Y-142331209D02*
X140012073Y-142569304D01*
X140012073Y-142569304D02*
X140059692Y-142664542D01*
X140059692Y-142664542D02*
X140107311Y-142712161D01*
X140107311Y-142712161D02*
X140202549Y-142759780D01*
X140202549Y-142759780D02*
X140440644Y-142759780D01*
X140440644Y-142759780D02*
X140535882Y-142712161D01*
X140535882Y-142712161D02*
X140583501Y-142664542D01*
X139393025Y-141759780D02*
X139297787Y-141759780D01*
X139297787Y-141759780D02*
X139202549Y-141807400D01*
X139202549Y-141807400D02*
X139154930Y-141855019D01*
X139154930Y-141855019D02*
X139107311Y-141950257D01*
X139107311Y-141950257D02*
X139059692Y-142140733D01*
X139059692Y-142140733D02*
X139059692Y-142378828D01*
X139059692Y-142378828D02*
X139107311Y-142569304D01*
X139107311Y-142569304D02*
X139154930Y-142664542D01*
X139154930Y-142664542D02*
X139202549Y-142712161D01*
X139202549Y-142712161D02*
X139297787Y-142759780D01*
X139297787Y-142759780D02*
X139393025Y-142759780D01*
X139393025Y-142759780D02*
X139488263Y-142712161D01*
X139488263Y-142712161D02*
X139535882Y-142664542D01*
X139535882Y-142664542D02*
X139583501Y-142569304D01*
X139583501Y-142569304D02*
X139631120Y-142378828D01*
X139631120Y-142378828D02*
X139631120Y-142140733D01*
X139631120Y-142140733D02*
X139583501Y-141950257D01*
X139583501Y-141950257D02*
X139535882Y-141855019D01*
X139535882Y-141855019D02*
X139488263Y-141807400D01*
X139488263Y-141807400D02*
X139393025Y-141759780D01*
X138631120Y-142378828D02*
X137869216Y-142378828D01*
X137440644Y-142712161D02*
X137345406Y-142759780D01*
X137345406Y-142759780D02*
X137154930Y-142759780D01*
X137154930Y-142759780D02*
X137059692Y-142712161D01*
X137059692Y-142712161D02*
X137012073Y-142616923D01*
X137012073Y-142616923D02*
X137012073Y-142569304D01*
X137012073Y-142569304D02*
X137059692Y-142474066D01*
X137059692Y-142474066D02*
X137154930Y-142426447D01*
X137154930Y-142426447D02*
X137297787Y-142426447D01*
X137297787Y-142426447D02*
X137393025Y-142378828D01*
X137393025Y-142378828D02*
X137440644Y-142283590D01*
X137440644Y-142283590D02*
X137440644Y-142235971D01*
X137440644Y-142235971D02*
X137393025Y-142140733D01*
X137393025Y-142140733D02*
X137297787Y-142093114D01*
X137297787Y-142093114D02*
X137154930Y-142093114D01*
X137154930Y-142093114D02*
X137059692Y-142140733D01*
X136154930Y-142712161D02*
X136250168Y-142759780D01*
X136250168Y-142759780D02*
X136440644Y-142759780D01*
X136440644Y-142759780D02*
X136535882Y-142712161D01*
X136535882Y-142712161D02*
X136583501Y-142664542D01*
X136583501Y-142664542D02*
X136631120Y-142569304D01*
X136631120Y-142569304D02*
X136631120Y-142283590D01*
X136631120Y-142283590D02*
X136583501Y-142188352D01*
X136583501Y-142188352D02*
X136535882Y-142140733D01*
X136535882Y-142140733D02*
X136440644Y-142093114D01*
X136440644Y-142093114D02*
X136250168Y-142093114D01*
X136250168Y-142093114D02*
X136154930Y-142140733D01*
X135726358Y-142759780D02*
X135726358Y-142093114D01*
X135726358Y-142283590D02*
X135678739Y-142188352D01*
X135678739Y-142188352D02*
X135631120Y-142140733D01*
X135631120Y-142140733D02*
X135535882Y-142093114D01*
X135535882Y-142093114D02*
X135440644Y-142093114D01*
X134726358Y-142712161D02*
X134821596Y-142759780D01*
X134821596Y-142759780D02*
X135012072Y-142759780D01*
X135012072Y-142759780D02*
X135107310Y-142712161D01*
X135107310Y-142712161D02*
X135154929Y-142616923D01*
X135154929Y-142616923D02*
X135154929Y-142235971D01*
X135154929Y-142235971D02*
X135107310Y-142140733D01*
X135107310Y-142140733D02*
X135012072Y-142093114D01*
X135012072Y-142093114D02*
X134821596Y-142093114D01*
X134821596Y-142093114D02*
X134726358Y-142140733D01*
X134726358Y-142140733D02*
X134678739Y-142235971D01*
X134678739Y-142235971D02*
X134678739Y-142331209D01*
X134678739Y-142331209D02*
X135154929Y-142426447D01*
X133821596Y-142759780D02*
X133821596Y-142235971D01*
X133821596Y-142235971D02*
X133869215Y-142140733D01*
X133869215Y-142140733D02*
X133964453Y-142093114D01*
X133964453Y-142093114D02*
X134154929Y-142093114D01*
X134154929Y-142093114D02*
X134250167Y-142140733D01*
X133821596Y-142712161D02*
X133916834Y-142759780D01*
X133916834Y-142759780D02*
X134154929Y-142759780D01*
X134154929Y-142759780D02*
X134250167Y-142712161D01*
X134250167Y-142712161D02*
X134297786Y-142616923D01*
X134297786Y-142616923D02*
X134297786Y-142521685D01*
X134297786Y-142521685D02*
X134250167Y-142426447D01*
X134250167Y-142426447D02*
X134154929Y-142378828D01*
X134154929Y-142378828D02*
X133916834Y-142378828D01*
X133916834Y-142378828D02*
X133821596Y-142331209D01*
X133345405Y-142759780D02*
X133345405Y-142093114D01*
X133345405Y-142188352D02*
X133297786Y-142140733D01*
X133297786Y-142140733D02*
X133202548Y-142093114D01*
X133202548Y-142093114D02*
X133059691Y-142093114D01*
X133059691Y-142093114D02*
X132964453Y-142140733D01*
X132964453Y-142140733D02*
X132916834Y-142235971D01*
X132916834Y-142235971D02*
X132916834Y-142759780D01*
X132916834Y-142235971D02*
X132869215Y-142140733D01*
X132869215Y-142140733D02*
X132773977Y-142093114D01*
X132773977Y-142093114D02*
X132631120Y-142093114D01*
X132631120Y-142093114D02*
X132535881Y-142140733D01*
X132535881Y-142140733D02*
X132488262Y-142235971D01*
X132488262Y-142235971D02*
X132488262Y-142759780D01*
X132012072Y-142759780D02*
X132012072Y-142093114D01*
X132012072Y-141759780D02*
X132059691Y-141807400D01*
X132059691Y-141807400D02*
X132012072Y-141855019D01*
X132012072Y-141855019D02*
X131964453Y-141807400D01*
X131964453Y-141807400D02*
X132012072Y-141759780D01*
X132012072Y-141759780D02*
X132012072Y-141855019D01*
X131535882Y-142093114D02*
X131535882Y-142759780D01*
X131535882Y-142188352D02*
X131488263Y-142140733D01*
X131488263Y-142140733D02*
X131393025Y-142093114D01*
X131393025Y-142093114D02*
X131250168Y-142093114D01*
X131250168Y-142093114D02*
X131154930Y-142140733D01*
X131154930Y-142140733D02*
X131107311Y-142235971D01*
X131107311Y-142235971D02*
X131107311Y-142759780D01*
X130202549Y-142093114D02*
X130202549Y-142902638D01*
X130202549Y-142902638D02*
X130250168Y-142997876D01*
X130250168Y-142997876D02*
X130297787Y-143045495D01*
X130297787Y-143045495D02*
X130393025Y-143093114D01*
X130393025Y-143093114D02*
X130535882Y-143093114D01*
X130535882Y-143093114D02*
X130631120Y-143045495D01*
X130202549Y-142712161D02*
X130297787Y-142759780D01*
X130297787Y-142759780D02*
X130488263Y-142759780D01*
X130488263Y-142759780D02*
X130583501Y-142712161D01*
X130583501Y-142712161D02*
X130631120Y-142664542D01*
X130631120Y-142664542D02*
X130678739Y-142569304D01*
X130678739Y-142569304D02*
X130678739Y-142283590D01*
X130678739Y-142283590D02*
X130631120Y-142188352D01*
X130631120Y-142188352D02*
X130583501Y-142140733D01*
X130583501Y-142140733D02*
X130488263Y-142093114D01*
X130488263Y-142093114D02*
X130297787Y-142093114D01*
X130297787Y-142093114D02*
X130202549Y-142140733D01*
X129297787Y-142759780D02*
X129297787Y-142235971D01*
X129297787Y-142235971D02*
X129345406Y-142140733D01*
X129345406Y-142140733D02*
X129440644Y-142093114D01*
X129440644Y-142093114D02*
X129631120Y-142093114D01*
X129631120Y-142093114D02*
X129726358Y-142140733D01*
X129297787Y-142712161D02*
X129393025Y-142759780D01*
X129393025Y-142759780D02*
X129631120Y-142759780D01*
X129631120Y-142759780D02*
X129726358Y-142712161D01*
X129726358Y-142712161D02*
X129773977Y-142616923D01*
X129773977Y-142616923D02*
X129773977Y-142521685D01*
X129773977Y-142521685D02*
X129726358Y-142426447D01*
X129726358Y-142426447D02*
X129631120Y-142378828D01*
X129631120Y-142378828D02*
X129393025Y-142378828D01*
X129393025Y-142378828D02*
X129297787Y-142331209D01*
X128964453Y-142093114D02*
X128583501Y-142093114D01*
X128821596Y-141759780D02*
X128821596Y-142616923D01*
X128821596Y-142616923D02*
X128773977Y-142712161D01*
X128773977Y-142712161D02*
X128678739Y-142759780D01*
X128678739Y-142759780D02*
X128583501Y-142759780D01*
X128393024Y-142093114D02*
X128012072Y-142093114D01*
X128250167Y-141759780D02*
X128250167Y-142616923D01*
X128250167Y-142616923D02*
X128202548Y-142712161D01*
X128202548Y-142712161D02*
X128107310Y-142759780D01*
X128107310Y-142759780D02*
X128012072Y-142759780D01*
X127678738Y-142759780D02*
X127678738Y-141759780D01*
X127250167Y-142759780D02*
X127250167Y-142235971D01*
X127250167Y-142235971D02*
X127297786Y-142140733D01*
X127297786Y-142140733D02*
X127393024Y-142093114D01*
X127393024Y-142093114D02*
X127535881Y-142093114D01*
X127535881Y-142093114D02*
X127631119Y-142140733D01*
X127631119Y-142140733D02*
X127678738Y-142188352D01*
X126393024Y-142712161D02*
X126488262Y-142759780D01*
X126488262Y-142759780D02*
X126678738Y-142759780D01*
X126678738Y-142759780D02*
X126773976Y-142712161D01*
X126773976Y-142712161D02*
X126821595Y-142616923D01*
X126821595Y-142616923D02*
X126821595Y-142235971D01*
X126821595Y-142235971D02*
X126773976Y-142140733D01*
X126773976Y-142140733D02*
X126678738Y-142093114D01*
X126678738Y-142093114D02*
X126488262Y-142093114D01*
X126488262Y-142093114D02*
X126393024Y-142140733D01*
X126393024Y-142140733D02*
X126345405Y-142235971D01*
X126345405Y-142235971D02*
X126345405Y-142331209D01*
X126345405Y-142331209D02*
X126821595Y-142426447D01*
X125916833Y-142759780D02*
X125916833Y-142093114D01*
X125916833Y-142283590D02*
X125869214Y-142188352D01*
X125869214Y-142188352D02*
X125821595Y-142140733D01*
X125821595Y-142140733D02*
X125726357Y-142093114D01*
X125726357Y-142093114D02*
X125631119Y-142093114D01*
X124869214Y-142759780D02*
X124869214Y-142235971D01*
X124869214Y-142235971D02*
X124916833Y-142140733D01*
X124916833Y-142140733D02*
X125012071Y-142093114D01*
X125012071Y-142093114D02*
X125202547Y-142093114D01*
X125202547Y-142093114D02*
X125297785Y-142140733D01*
X124869214Y-142712161D02*
X124964452Y-142759780D01*
X124964452Y-142759780D02*
X125202547Y-142759780D01*
X125202547Y-142759780D02*
X125297785Y-142712161D01*
X125297785Y-142712161D02*
X125345404Y-142616923D01*
X125345404Y-142616923D02*
X125345404Y-142521685D01*
X125345404Y-142521685D02*
X125297785Y-142426447D01*
X125297785Y-142426447D02*
X125202547Y-142378828D01*
X125202547Y-142378828D02*
X124964452Y-142378828D01*
X124964452Y-142378828D02*
X124869214Y-142331209D01*
X123964452Y-142759780D02*
X123964452Y-141759780D01*
X123964452Y-142712161D02*
X124059690Y-142759780D01*
X124059690Y-142759780D02*
X124250166Y-142759780D01*
X124250166Y-142759780D02*
X124345404Y-142712161D01*
X124345404Y-142712161D02*
X124393023Y-142664542D01*
X124393023Y-142664542D02*
X124440642Y-142569304D01*
X124440642Y-142569304D02*
X124440642Y-142283590D01*
X124440642Y-142283590D02*
X124393023Y-142188352D01*
X124393023Y-142188352D02*
X124345404Y-142140733D01*
X124345404Y-142140733D02*
X124250166Y-142093114D01*
X124250166Y-142093114D02*
X124059690Y-142093114D01*
X124059690Y-142093114D02*
X123964452Y-142140733D01*
X123488261Y-142759780D02*
X123488261Y-142093114D01*
X123488261Y-141759780D02*
X123535880Y-141807400D01*
X123535880Y-141807400D02*
X123488261Y-141855019D01*
X123488261Y-141855019D02*
X123440642Y-141807400D01*
X123440642Y-141807400D02*
X123488261Y-141759780D01*
X123488261Y-141759780D02*
X123488261Y-141855019D01*
X122869214Y-142759780D02*
X122964452Y-142712161D01*
X122964452Y-142712161D02*
X123012071Y-142664542D01*
X123012071Y-142664542D02*
X123059690Y-142569304D01*
X123059690Y-142569304D02*
X123059690Y-142283590D01*
X123059690Y-142283590D02*
X123012071Y-142188352D01*
X123012071Y-142188352D02*
X122964452Y-142140733D01*
X122964452Y-142140733D02*
X122869214Y-142093114D01*
X122869214Y-142093114D02*
X122726357Y-142093114D01*
X122726357Y-142093114D02*
X122631119Y-142140733D01*
X122631119Y-142140733D02*
X122583500Y-142188352D01*
X122583500Y-142188352D02*
X122535881Y-142283590D01*
X122535881Y-142283590D02*
X122535881Y-142569304D01*
X122535881Y-142569304D02*
X122583500Y-142664542D01*
X122583500Y-142664542D02*
X122631119Y-142712161D01*
X122631119Y-142712161D02*
X122726357Y-142759780D01*
X122726357Y-142759780D02*
X122869214Y-142759780D01*
X121393024Y-141712161D02*
X122250166Y-142997876D01*
X172583504Y-144379780D02*
X172583504Y-143379780D01*
X172154933Y-144379780D02*
X172154933Y-143855971D01*
X172154933Y-143855971D02*
X172202552Y-143760733D01*
X172202552Y-143760733D02*
X172297790Y-143713114D01*
X172297790Y-143713114D02*
X172440647Y-143713114D01*
X172440647Y-143713114D02*
X172535885Y-143760733D01*
X172535885Y-143760733D02*
X172583504Y-143808352D01*
X171821599Y-143713114D02*
X171440647Y-143713114D01*
X171678742Y-143379780D02*
X171678742Y-144236923D01*
X171678742Y-144236923D02*
X171631123Y-144332161D01*
X171631123Y-144332161D02*
X171535885Y-144379780D01*
X171535885Y-144379780D02*
X171440647Y-144379780D01*
X171250170Y-143713114D02*
X170869218Y-143713114D01*
X171107313Y-143379780D02*
X171107313Y-144236923D01*
X171107313Y-144236923D02*
X171059694Y-144332161D01*
X171059694Y-144332161D02*
X170964456Y-144379780D01*
X170964456Y-144379780D02*
X170869218Y-144379780D01*
X170535884Y-143713114D02*
X170535884Y-144713114D01*
X170535884Y-143760733D02*
X170440646Y-143713114D01*
X170440646Y-143713114D02*
X170250170Y-143713114D01*
X170250170Y-143713114D02*
X170154932Y-143760733D01*
X170154932Y-143760733D02*
X170107313Y-143808352D01*
X170107313Y-143808352D02*
X170059694Y-143903590D01*
X170059694Y-143903590D02*
X170059694Y-144189304D01*
X170059694Y-144189304D02*
X170107313Y-144284542D01*
X170107313Y-144284542D02*
X170154932Y-144332161D01*
X170154932Y-144332161D02*
X170250170Y-144379780D01*
X170250170Y-144379780D02*
X170440646Y-144379780D01*
X170440646Y-144379780D02*
X170535884Y-144332161D01*
X169678741Y-144332161D02*
X169583503Y-144379780D01*
X169583503Y-144379780D02*
X169393027Y-144379780D01*
X169393027Y-144379780D02*
X169297789Y-144332161D01*
X169297789Y-144332161D02*
X169250170Y-144236923D01*
X169250170Y-144236923D02*
X169250170Y-144189304D01*
X169250170Y-144189304D02*
X169297789Y-144094066D01*
X169297789Y-144094066D02*
X169393027Y-144046447D01*
X169393027Y-144046447D02*
X169535884Y-144046447D01*
X169535884Y-144046447D02*
X169631122Y-143998828D01*
X169631122Y-143998828D02*
X169678741Y-143903590D01*
X169678741Y-143903590D02*
X169678741Y-143855971D01*
X169678741Y-143855971D02*
X169631122Y-143760733D01*
X169631122Y-143760733D02*
X169535884Y-143713114D01*
X169535884Y-143713114D02*
X169393027Y-143713114D01*
X169393027Y-143713114D02*
X169297789Y-143760733D01*
X168821598Y-144284542D02*
X168773979Y-144332161D01*
X168773979Y-144332161D02*
X168821598Y-144379780D01*
X168821598Y-144379780D02*
X168869217Y-144332161D01*
X168869217Y-144332161D02*
X168821598Y-144284542D01*
X168821598Y-144284542D02*
X168821598Y-144379780D01*
X168821598Y-143760733D02*
X168773979Y-143808352D01*
X168773979Y-143808352D02*
X168821598Y-143855971D01*
X168821598Y-143855971D02*
X168869217Y-143808352D01*
X168869217Y-143808352D02*
X168821598Y-143760733D01*
X168821598Y-143760733D02*
X168821598Y-143855971D01*
X167631123Y-143332161D02*
X168488265Y-144617876D01*
X166583504Y-143332161D02*
X167440646Y-144617876D01*
X166345408Y-143713114D02*
X166154932Y-144379780D01*
X166154932Y-144379780D02*
X165964456Y-143903590D01*
X165964456Y-143903590D02*
X165773980Y-144379780D01*
X165773980Y-144379780D02*
X165583504Y-143713114D01*
X165297789Y-143713114D02*
X165107313Y-144379780D01*
X165107313Y-144379780D02*
X164916837Y-143903590D01*
X164916837Y-143903590D02*
X164726361Y-144379780D01*
X164726361Y-144379780D02*
X164535885Y-143713114D01*
X164250170Y-143713114D02*
X164059694Y-144379780D01*
X164059694Y-144379780D02*
X163869218Y-143903590D01*
X163869218Y-143903590D02*
X163678742Y-144379780D01*
X163678742Y-144379780D02*
X163488266Y-143713114D01*
X163107313Y-144284542D02*
X163059694Y-144332161D01*
X163059694Y-144332161D02*
X163107313Y-144379780D01*
X163107313Y-144379780D02*
X163154932Y-144332161D01*
X163154932Y-144332161D02*
X163107313Y-144284542D01*
X163107313Y-144284542D02*
X163107313Y-144379780D01*
X162773980Y-143713114D02*
X162393028Y-143713114D01*
X162631123Y-143379780D02*
X162631123Y-144236923D01*
X162631123Y-144236923D02*
X162583504Y-144332161D01*
X162583504Y-144332161D02*
X162488266Y-144379780D01*
X162488266Y-144379780D02*
X162393028Y-144379780D01*
X162154932Y-143713114D02*
X161964456Y-144379780D01*
X161964456Y-144379780D02*
X161773980Y-143903590D01*
X161773980Y-143903590D02*
X161583504Y-144379780D01*
X161583504Y-144379780D02*
X161393028Y-143713114D01*
X161012075Y-144379780D02*
X161012075Y-143713114D01*
X161012075Y-143379780D02*
X161059694Y-143427400D01*
X161059694Y-143427400D02*
X161012075Y-143475019D01*
X161012075Y-143475019D02*
X160964456Y-143427400D01*
X160964456Y-143427400D02*
X161012075Y-143379780D01*
X161012075Y-143379780D02*
X161012075Y-143475019D01*
X160678742Y-143713114D02*
X160297790Y-143713114D01*
X160535885Y-143379780D02*
X160535885Y-144236923D01*
X160535885Y-144236923D02*
X160488266Y-144332161D01*
X160488266Y-144332161D02*
X160393028Y-144379780D01*
X160393028Y-144379780D02*
X160297790Y-144379780D01*
X159535885Y-144332161D02*
X159631123Y-144379780D01*
X159631123Y-144379780D02*
X159821599Y-144379780D01*
X159821599Y-144379780D02*
X159916837Y-144332161D01*
X159916837Y-144332161D02*
X159964456Y-144284542D01*
X159964456Y-144284542D02*
X160012075Y-144189304D01*
X160012075Y-144189304D02*
X160012075Y-143903590D01*
X160012075Y-143903590D02*
X159964456Y-143808352D01*
X159964456Y-143808352D02*
X159916837Y-143760733D01*
X159916837Y-143760733D02*
X159821599Y-143713114D01*
X159821599Y-143713114D02*
X159631123Y-143713114D01*
X159631123Y-143713114D02*
X159535885Y-143760733D01*
X159107313Y-144379780D02*
X159107313Y-143379780D01*
X158678742Y-144379780D02*
X158678742Y-143855971D01*
X158678742Y-143855971D02*
X158726361Y-143760733D01*
X158726361Y-143760733D02*
X158821599Y-143713114D01*
X158821599Y-143713114D02*
X158964456Y-143713114D01*
X158964456Y-143713114D02*
X159059694Y-143760733D01*
X159059694Y-143760733D02*
X159107313Y-143808352D01*
X158202551Y-144284542D02*
X158154932Y-144332161D01*
X158154932Y-144332161D02*
X158202551Y-144379780D01*
X158202551Y-144379780D02*
X158250170Y-144332161D01*
X158250170Y-144332161D02*
X158202551Y-144284542D01*
X158202551Y-144284542D02*
X158202551Y-144379780D01*
X157869218Y-143713114D02*
X157488266Y-143713114D01*
X157726361Y-143379780D02*
X157726361Y-144236923D01*
X157726361Y-144236923D02*
X157678742Y-144332161D01*
X157678742Y-144332161D02*
X157583504Y-144379780D01*
X157583504Y-144379780D02*
X157488266Y-144379780D01*
X157250170Y-143713114D02*
X157012075Y-144379780D01*
X157012075Y-144379780D02*
X156773980Y-143713114D01*
X155678742Y-143332161D02*
X156535884Y-144617876D01*
X155393027Y-144332161D02*
X155297789Y-144379780D01*
X155297789Y-144379780D02*
X155107313Y-144379780D01*
X155107313Y-144379780D02*
X155012075Y-144332161D01*
X155012075Y-144332161D02*
X154964456Y-144236923D01*
X154964456Y-144236923D02*
X154964456Y-144189304D01*
X154964456Y-144189304D02*
X155012075Y-144094066D01*
X155012075Y-144094066D02*
X155107313Y-144046447D01*
X155107313Y-144046447D02*
X155250170Y-144046447D01*
X155250170Y-144046447D02*
X155345408Y-143998828D01*
X155345408Y-143998828D02*
X155393027Y-143903590D01*
X155393027Y-143903590D02*
X155393027Y-143855971D01*
X155393027Y-143855971D02*
X155345408Y-143760733D01*
X155345408Y-143760733D02*
X155250170Y-143713114D01*
X155250170Y-143713114D02*
X155107313Y-143713114D01*
X155107313Y-143713114D02*
X155012075Y-143760733D01*
X154107313Y-144332161D02*
X154202551Y-144379780D01*
X154202551Y-144379780D02*
X154393027Y-144379780D01*
X154393027Y-144379780D02*
X154488265Y-144332161D01*
X154488265Y-144332161D02*
X154535884Y-144284542D01*
X154535884Y-144284542D02*
X154583503Y-144189304D01*
X154583503Y-144189304D02*
X154583503Y-143903590D01*
X154583503Y-143903590D02*
X154535884Y-143808352D01*
X154535884Y-143808352D02*
X154488265Y-143760733D01*
X154488265Y-143760733D02*
X154393027Y-143713114D01*
X154393027Y-143713114D02*
X154202551Y-143713114D01*
X154202551Y-143713114D02*
X154107313Y-143760733D01*
X153678741Y-144379780D02*
X153678741Y-143713114D01*
X153678741Y-143903590D02*
X153631122Y-143808352D01*
X153631122Y-143808352D02*
X153583503Y-143760733D01*
X153583503Y-143760733D02*
X153488265Y-143713114D01*
X153488265Y-143713114D02*
X153393027Y-143713114D01*
X152678741Y-144332161D02*
X152773979Y-144379780D01*
X152773979Y-144379780D02*
X152964455Y-144379780D01*
X152964455Y-144379780D02*
X153059693Y-144332161D01*
X153059693Y-144332161D02*
X153107312Y-144236923D01*
X153107312Y-144236923D02*
X153107312Y-143855971D01*
X153107312Y-143855971D02*
X153059693Y-143760733D01*
X153059693Y-143760733D02*
X152964455Y-143713114D01*
X152964455Y-143713114D02*
X152773979Y-143713114D01*
X152773979Y-143713114D02*
X152678741Y-143760733D01*
X152678741Y-143760733D02*
X152631122Y-143855971D01*
X152631122Y-143855971D02*
X152631122Y-143951209D01*
X152631122Y-143951209D02*
X153107312Y-144046447D01*
X151773979Y-144379780D02*
X151773979Y-143855971D01*
X151773979Y-143855971D02*
X151821598Y-143760733D01*
X151821598Y-143760733D02*
X151916836Y-143713114D01*
X151916836Y-143713114D02*
X152107312Y-143713114D01*
X152107312Y-143713114D02*
X152202550Y-143760733D01*
X151773979Y-144332161D02*
X151869217Y-144379780D01*
X151869217Y-144379780D02*
X152107312Y-144379780D01*
X152107312Y-144379780D02*
X152202550Y-144332161D01*
X152202550Y-144332161D02*
X152250169Y-144236923D01*
X152250169Y-144236923D02*
X152250169Y-144141685D01*
X152250169Y-144141685D02*
X152202550Y-144046447D01*
X152202550Y-144046447D02*
X152107312Y-143998828D01*
X152107312Y-143998828D02*
X151869217Y-143998828D01*
X151869217Y-143998828D02*
X151773979Y-143951209D01*
X151297788Y-144379780D02*
X151297788Y-143713114D01*
X151297788Y-143808352D02*
X151250169Y-143760733D01*
X151250169Y-143760733D02*
X151154931Y-143713114D01*
X151154931Y-143713114D02*
X151012074Y-143713114D01*
X151012074Y-143713114D02*
X150916836Y-143760733D01*
X150916836Y-143760733D02*
X150869217Y-143855971D01*
X150869217Y-143855971D02*
X150869217Y-144379780D01*
X150869217Y-143855971D02*
X150821598Y-143760733D01*
X150821598Y-143760733D02*
X150726360Y-143713114D01*
X150726360Y-143713114D02*
X150583503Y-143713114D01*
X150583503Y-143713114D02*
X150488264Y-143760733D01*
X150488264Y-143760733D02*
X150440645Y-143855971D01*
X150440645Y-143855971D02*
X150440645Y-144379780D01*
X149964455Y-144379780D02*
X149964455Y-143713114D01*
X149964455Y-143379780D02*
X150012074Y-143427400D01*
X150012074Y-143427400D02*
X149964455Y-143475019D01*
X149964455Y-143475019D02*
X149916836Y-143427400D01*
X149916836Y-143427400D02*
X149964455Y-143379780D01*
X149964455Y-143379780D02*
X149964455Y-143475019D01*
X149488265Y-143713114D02*
X149488265Y-144379780D01*
X149488265Y-143808352D02*
X149440646Y-143760733D01*
X149440646Y-143760733D02*
X149345408Y-143713114D01*
X149345408Y-143713114D02*
X149202551Y-143713114D01*
X149202551Y-143713114D02*
X149107313Y-143760733D01*
X149107313Y-143760733D02*
X149059694Y-143855971D01*
X149059694Y-143855971D02*
X149059694Y-144379780D01*
X148154932Y-143713114D02*
X148154932Y-144522638D01*
X148154932Y-144522638D02*
X148202551Y-144617876D01*
X148202551Y-144617876D02*
X148250170Y-144665495D01*
X148250170Y-144665495D02*
X148345408Y-144713114D01*
X148345408Y-144713114D02*
X148488265Y-144713114D01*
X148488265Y-144713114D02*
X148583503Y-144665495D01*
X148154932Y-144332161D02*
X148250170Y-144379780D01*
X148250170Y-144379780D02*
X148440646Y-144379780D01*
X148440646Y-144379780D02*
X148535884Y-144332161D01*
X148535884Y-144332161D02*
X148583503Y-144284542D01*
X148583503Y-144284542D02*
X148631122Y-144189304D01*
X148631122Y-144189304D02*
X148631122Y-143903590D01*
X148631122Y-143903590D02*
X148583503Y-143808352D01*
X148583503Y-143808352D02*
X148535884Y-143760733D01*
X148535884Y-143760733D02*
X148440646Y-143713114D01*
X148440646Y-143713114D02*
X148250170Y-143713114D01*
X148250170Y-143713114D02*
X148154932Y-143760733D01*
X147250170Y-144379780D02*
X147250170Y-143855971D01*
X147250170Y-143855971D02*
X147297789Y-143760733D01*
X147297789Y-143760733D02*
X147393027Y-143713114D01*
X147393027Y-143713114D02*
X147583503Y-143713114D01*
X147583503Y-143713114D02*
X147678741Y-143760733D01*
X147250170Y-144332161D02*
X147345408Y-144379780D01*
X147345408Y-144379780D02*
X147583503Y-144379780D01*
X147583503Y-144379780D02*
X147678741Y-144332161D01*
X147678741Y-144332161D02*
X147726360Y-144236923D01*
X147726360Y-144236923D02*
X147726360Y-144141685D01*
X147726360Y-144141685D02*
X147678741Y-144046447D01*
X147678741Y-144046447D02*
X147583503Y-143998828D01*
X147583503Y-143998828D02*
X147345408Y-143998828D01*
X147345408Y-143998828D02*
X147250170Y-143951209D01*
X146916836Y-143713114D02*
X146535884Y-143713114D01*
X146773979Y-143379780D02*
X146773979Y-144236923D01*
X146773979Y-144236923D02*
X146726360Y-144332161D01*
X146726360Y-144332161D02*
X146631122Y-144379780D01*
X146631122Y-144379780D02*
X146535884Y-144379780D01*
X146345407Y-143713114D02*
X145964455Y-143713114D01*
X146202550Y-143379780D02*
X146202550Y-144236923D01*
X146202550Y-144236923D02*
X146154931Y-144332161D01*
X146154931Y-144332161D02*
X146059693Y-144379780D01*
X146059693Y-144379780D02*
X145964455Y-144379780D01*
X145631121Y-144379780D02*
X145631121Y-143379780D01*
X145202550Y-144379780D02*
X145202550Y-143855971D01*
X145202550Y-143855971D02*
X145250169Y-143760733D01*
X145250169Y-143760733D02*
X145345407Y-143713114D01*
X145345407Y-143713114D02*
X145488264Y-143713114D01*
X145488264Y-143713114D02*
X145583502Y-143760733D01*
X145583502Y-143760733D02*
X145631121Y-143808352D01*
X144345407Y-144332161D02*
X144440645Y-144379780D01*
X144440645Y-144379780D02*
X144631121Y-144379780D01*
X144631121Y-144379780D02*
X144726359Y-144332161D01*
X144726359Y-144332161D02*
X144773978Y-144236923D01*
X144773978Y-144236923D02*
X144773978Y-143855971D01*
X144773978Y-143855971D02*
X144726359Y-143760733D01*
X144726359Y-143760733D02*
X144631121Y-143713114D01*
X144631121Y-143713114D02*
X144440645Y-143713114D01*
X144440645Y-143713114D02*
X144345407Y-143760733D01*
X144345407Y-143760733D02*
X144297788Y-143855971D01*
X144297788Y-143855971D02*
X144297788Y-143951209D01*
X144297788Y-143951209D02*
X144773978Y-144046447D01*
X143869216Y-144379780D02*
X143869216Y-143713114D01*
X143869216Y-143903590D02*
X143821597Y-143808352D01*
X143821597Y-143808352D02*
X143773978Y-143760733D01*
X143773978Y-143760733D02*
X143678740Y-143713114D01*
X143678740Y-143713114D02*
X143583502Y-143713114D01*
X142821597Y-144379780D02*
X142821597Y-143855971D01*
X142821597Y-143855971D02*
X142869216Y-143760733D01*
X142869216Y-143760733D02*
X142964454Y-143713114D01*
X142964454Y-143713114D02*
X143154930Y-143713114D01*
X143154930Y-143713114D02*
X143250168Y-143760733D01*
X142821597Y-144332161D02*
X142916835Y-144379780D01*
X142916835Y-144379780D02*
X143154930Y-144379780D01*
X143154930Y-144379780D02*
X143250168Y-144332161D01*
X143250168Y-144332161D02*
X143297787Y-144236923D01*
X143297787Y-144236923D02*
X143297787Y-144141685D01*
X143297787Y-144141685D02*
X143250168Y-144046447D01*
X143250168Y-144046447D02*
X143154930Y-143998828D01*
X143154930Y-143998828D02*
X142916835Y-143998828D01*
X142916835Y-143998828D02*
X142821597Y-143951209D01*
X141916835Y-144379780D02*
X141916835Y-143379780D01*
X141916835Y-144332161D02*
X142012073Y-144379780D01*
X142012073Y-144379780D02*
X142202549Y-144379780D01*
X142202549Y-144379780D02*
X142297787Y-144332161D01*
X142297787Y-144332161D02*
X142345406Y-144284542D01*
X142345406Y-144284542D02*
X142393025Y-144189304D01*
X142393025Y-144189304D02*
X142393025Y-143903590D01*
X142393025Y-143903590D02*
X142345406Y-143808352D01*
X142345406Y-143808352D02*
X142297787Y-143760733D01*
X142297787Y-143760733D02*
X142202549Y-143713114D01*
X142202549Y-143713114D02*
X142012073Y-143713114D01*
X142012073Y-143713114D02*
X141916835Y-143760733D01*
X141440644Y-144379780D02*
X141440644Y-143713114D01*
X141440644Y-143379780D02*
X141488263Y-143427400D01*
X141488263Y-143427400D02*
X141440644Y-143475019D01*
X141440644Y-143475019D02*
X141393025Y-143427400D01*
X141393025Y-143427400D02*
X141440644Y-143379780D01*
X141440644Y-143379780D02*
X141440644Y-143475019D01*
X140821597Y-144379780D02*
X140916835Y-144332161D01*
X140916835Y-144332161D02*
X140964454Y-144284542D01*
X140964454Y-144284542D02*
X141012073Y-144189304D01*
X141012073Y-144189304D02*
X141012073Y-143903590D01*
X141012073Y-143903590D02*
X140964454Y-143808352D01*
X140964454Y-143808352D02*
X140916835Y-143760733D01*
X140916835Y-143760733D02*
X140821597Y-143713114D01*
X140821597Y-143713114D02*
X140678740Y-143713114D01*
X140678740Y-143713114D02*
X140583502Y-143760733D01*
X140583502Y-143760733D02*
X140535883Y-143808352D01*
X140535883Y-143808352D02*
X140488264Y-143903590D01*
X140488264Y-143903590D02*
X140488264Y-144189304D01*
X140488264Y-144189304D02*
X140535883Y-144284542D01*
X140535883Y-144284542D02*
X140583502Y-144332161D01*
X140583502Y-144332161D02*
X140678740Y-144379780D01*
X140678740Y-144379780D02*
X140821597Y-144379780D01*
X172583504Y-145999780D02*
X172583504Y-144999780D01*
X172154933Y-145999780D02*
X172154933Y-145475971D01*
X172154933Y-145475971D02*
X172202552Y-145380733D01*
X172202552Y-145380733D02*
X172297790Y-145333114D01*
X172297790Y-145333114D02*
X172440647Y-145333114D01*
X172440647Y-145333114D02*
X172535885Y-145380733D01*
X172535885Y-145380733D02*
X172583504Y-145428352D01*
X171821599Y-145333114D02*
X171440647Y-145333114D01*
X171678742Y-144999780D02*
X171678742Y-145856923D01*
X171678742Y-145856923D02*
X171631123Y-145952161D01*
X171631123Y-145952161D02*
X171535885Y-145999780D01*
X171535885Y-145999780D02*
X171440647Y-145999780D01*
X171250170Y-145333114D02*
X170869218Y-145333114D01*
X171107313Y-144999780D02*
X171107313Y-145856923D01*
X171107313Y-145856923D02*
X171059694Y-145952161D01*
X171059694Y-145952161D02*
X170964456Y-145999780D01*
X170964456Y-145999780D02*
X170869218Y-145999780D01*
X170535884Y-145333114D02*
X170535884Y-146333114D01*
X170535884Y-145380733D02*
X170440646Y-145333114D01*
X170440646Y-145333114D02*
X170250170Y-145333114D01*
X170250170Y-145333114D02*
X170154932Y-145380733D01*
X170154932Y-145380733D02*
X170107313Y-145428352D01*
X170107313Y-145428352D02*
X170059694Y-145523590D01*
X170059694Y-145523590D02*
X170059694Y-145809304D01*
X170059694Y-145809304D02*
X170107313Y-145904542D01*
X170107313Y-145904542D02*
X170154932Y-145952161D01*
X170154932Y-145952161D02*
X170250170Y-145999780D01*
X170250170Y-145999780D02*
X170440646Y-145999780D01*
X170440646Y-145999780D02*
X170535884Y-145952161D01*
X169678741Y-145952161D02*
X169583503Y-145999780D01*
X169583503Y-145999780D02*
X169393027Y-145999780D01*
X169393027Y-145999780D02*
X169297789Y-145952161D01*
X169297789Y-145952161D02*
X169250170Y-145856923D01*
X169250170Y-145856923D02*
X169250170Y-145809304D01*
X169250170Y-145809304D02*
X169297789Y-145714066D01*
X169297789Y-145714066D02*
X169393027Y-145666447D01*
X169393027Y-145666447D02*
X169535884Y-145666447D01*
X169535884Y-145666447D02*
X169631122Y-145618828D01*
X169631122Y-145618828D02*
X169678741Y-145523590D01*
X169678741Y-145523590D02*
X169678741Y-145475971D01*
X169678741Y-145475971D02*
X169631122Y-145380733D01*
X169631122Y-145380733D02*
X169535884Y-145333114D01*
X169535884Y-145333114D02*
X169393027Y-145333114D01*
X169393027Y-145333114D02*
X169297789Y-145380733D01*
X168821598Y-145904542D02*
X168773979Y-145952161D01*
X168773979Y-145952161D02*
X168821598Y-145999780D01*
X168821598Y-145999780D02*
X168869217Y-145952161D01*
X168869217Y-145952161D02*
X168821598Y-145904542D01*
X168821598Y-145904542D02*
X168821598Y-145999780D01*
X168821598Y-145380733D02*
X168773979Y-145428352D01*
X168773979Y-145428352D02*
X168821598Y-145475971D01*
X168821598Y-145475971D02*
X168869217Y-145428352D01*
X168869217Y-145428352D02*
X168821598Y-145380733D01*
X168821598Y-145380733D02*
X168821598Y-145475971D01*
X167631123Y-144952161D02*
X168488265Y-146237876D01*
X166583504Y-144952161D02*
X167440646Y-146237876D01*
X166345408Y-145333114D02*
X166154932Y-145999780D01*
X166154932Y-145999780D02*
X165964456Y-145523590D01*
X165964456Y-145523590D02*
X165773980Y-145999780D01*
X165773980Y-145999780D02*
X165583504Y-145333114D01*
X165297789Y-145333114D02*
X165107313Y-145999780D01*
X165107313Y-145999780D02*
X164916837Y-145523590D01*
X164916837Y-145523590D02*
X164726361Y-145999780D01*
X164726361Y-145999780D02*
X164535885Y-145333114D01*
X164250170Y-145333114D02*
X164059694Y-145999780D01*
X164059694Y-145999780D02*
X163869218Y-145523590D01*
X163869218Y-145523590D02*
X163678742Y-145999780D01*
X163678742Y-145999780D02*
X163488266Y-145333114D01*
X163107313Y-145904542D02*
X163059694Y-145952161D01*
X163059694Y-145952161D02*
X163107313Y-145999780D01*
X163107313Y-145999780D02*
X163154932Y-145952161D01*
X163154932Y-145952161D02*
X163107313Y-145904542D01*
X163107313Y-145904542D02*
X163107313Y-145999780D01*
X162726361Y-145333114D02*
X162488266Y-145999780D01*
X162250171Y-145333114D02*
X162488266Y-145999780D01*
X162488266Y-145999780D02*
X162583504Y-146237876D01*
X162583504Y-146237876D02*
X162631123Y-146285495D01*
X162631123Y-146285495D02*
X162726361Y-146333114D01*
X161726361Y-145999780D02*
X161821599Y-145952161D01*
X161821599Y-145952161D02*
X161869218Y-145904542D01*
X161869218Y-145904542D02*
X161916837Y-145809304D01*
X161916837Y-145809304D02*
X161916837Y-145523590D01*
X161916837Y-145523590D02*
X161869218Y-145428352D01*
X161869218Y-145428352D02*
X161821599Y-145380733D01*
X161821599Y-145380733D02*
X161726361Y-145333114D01*
X161726361Y-145333114D02*
X161583504Y-145333114D01*
X161583504Y-145333114D02*
X161488266Y-145380733D01*
X161488266Y-145380733D02*
X161440647Y-145428352D01*
X161440647Y-145428352D02*
X161393028Y-145523590D01*
X161393028Y-145523590D02*
X161393028Y-145809304D01*
X161393028Y-145809304D02*
X161440647Y-145904542D01*
X161440647Y-145904542D02*
X161488266Y-145952161D01*
X161488266Y-145952161D02*
X161583504Y-145999780D01*
X161583504Y-145999780D02*
X161726361Y-145999780D01*
X160535885Y-145333114D02*
X160535885Y-145999780D01*
X160964456Y-145333114D02*
X160964456Y-145856923D01*
X160964456Y-145856923D02*
X160916837Y-145952161D01*
X160916837Y-145952161D02*
X160821599Y-145999780D01*
X160821599Y-145999780D02*
X160678742Y-145999780D01*
X160678742Y-145999780D02*
X160583504Y-145952161D01*
X160583504Y-145952161D02*
X160535885Y-145904542D01*
X160202551Y-145333114D02*
X159821599Y-145333114D01*
X160059694Y-144999780D02*
X160059694Y-145856923D01*
X160059694Y-145856923D02*
X160012075Y-145952161D01*
X160012075Y-145952161D02*
X159916837Y-145999780D01*
X159916837Y-145999780D02*
X159821599Y-145999780D01*
X159059694Y-145333114D02*
X159059694Y-145999780D01*
X159488265Y-145333114D02*
X159488265Y-145856923D01*
X159488265Y-145856923D02*
X159440646Y-145952161D01*
X159440646Y-145952161D02*
X159345408Y-145999780D01*
X159345408Y-145999780D02*
X159202551Y-145999780D01*
X159202551Y-145999780D02*
X159107313Y-145952161D01*
X159107313Y-145952161D02*
X159059694Y-145904542D01*
X158583503Y-145999780D02*
X158583503Y-144999780D01*
X158583503Y-145380733D02*
X158488265Y-145333114D01*
X158488265Y-145333114D02*
X158297789Y-145333114D01*
X158297789Y-145333114D02*
X158202551Y-145380733D01*
X158202551Y-145380733D02*
X158154932Y-145428352D01*
X158154932Y-145428352D02*
X158107313Y-145523590D01*
X158107313Y-145523590D02*
X158107313Y-145809304D01*
X158107313Y-145809304D02*
X158154932Y-145904542D01*
X158154932Y-145904542D02*
X158202551Y-145952161D01*
X158202551Y-145952161D02*
X158297789Y-145999780D01*
X158297789Y-145999780D02*
X158488265Y-145999780D01*
X158488265Y-145999780D02*
X158583503Y-145952161D01*
X157297789Y-145952161D02*
X157393027Y-145999780D01*
X157393027Y-145999780D02*
X157583503Y-145999780D01*
X157583503Y-145999780D02*
X157678741Y-145952161D01*
X157678741Y-145952161D02*
X157726360Y-145856923D01*
X157726360Y-145856923D02*
X157726360Y-145475971D01*
X157726360Y-145475971D02*
X157678741Y-145380733D01*
X157678741Y-145380733D02*
X157583503Y-145333114D01*
X157583503Y-145333114D02*
X157393027Y-145333114D01*
X157393027Y-145333114D02*
X157297789Y-145380733D01*
X157297789Y-145380733D02*
X157250170Y-145475971D01*
X157250170Y-145475971D02*
X157250170Y-145571209D01*
X157250170Y-145571209D02*
X157726360Y-145666447D01*
X156821598Y-145904542D02*
X156773979Y-145952161D01*
X156773979Y-145952161D02*
X156821598Y-145999780D01*
X156821598Y-145999780D02*
X156869217Y-145952161D01*
X156869217Y-145952161D02*
X156821598Y-145904542D01*
X156821598Y-145904542D02*
X156821598Y-145999780D01*
X155916837Y-145952161D02*
X156012075Y-145999780D01*
X156012075Y-145999780D02*
X156202551Y-145999780D01*
X156202551Y-145999780D02*
X156297789Y-145952161D01*
X156297789Y-145952161D02*
X156345408Y-145904542D01*
X156345408Y-145904542D02*
X156393027Y-145809304D01*
X156393027Y-145809304D02*
X156393027Y-145523590D01*
X156393027Y-145523590D02*
X156345408Y-145428352D01*
X156345408Y-145428352D02*
X156297789Y-145380733D01*
X156297789Y-145380733D02*
X156202551Y-145333114D01*
X156202551Y-145333114D02*
X156012075Y-145333114D01*
X156012075Y-145333114D02*
X155916837Y-145380733D01*
X155345408Y-145999780D02*
X155440646Y-145952161D01*
X155440646Y-145952161D02*
X155488265Y-145904542D01*
X155488265Y-145904542D02*
X155535884Y-145809304D01*
X155535884Y-145809304D02*
X155535884Y-145523590D01*
X155535884Y-145523590D02*
X155488265Y-145428352D01*
X155488265Y-145428352D02*
X155440646Y-145380733D01*
X155440646Y-145380733D02*
X155345408Y-145333114D01*
X155345408Y-145333114D02*
X155202551Y-145333114D01*
X155202551Y-145333114D02*
X155107313Y-145380733D01*
X155107313Y-145380733D02*
X155059694Y-145428352D01*
X155059694Y-145428352D02*
X155012075Y-145523590D01*
X155012075Y-145523590D02*
X155012075Y-145809304D01*
X155012075Y-145809304D02*
X155059694Y-145904542D01*
X155059694Y-145904542D02*
X155107313Y-145952161D01*
X155107313Y-145952161D02*
X155202551Y-145999780D01*
X155202551Y-145999780D02*
X155345408Y-145999780D01*
X154583503Y-145999780D02*
X154583503Y-145333114D01*
X154583503Y-145428352D02*
X154535884Y-145380733D01*
X154535884Y-145380733D02*
X154440646Y-145333114D01*
X154440646Y-145333114D02*
X154297789Y-145333114D01*
X154297789Y-145333114D02*
X154202551Y-145380733D01*
X154202551Y-145380733D02*
X154154932Y-145475971D01*
X154154932Y-145475971D02*
X154154932Y-145999780D01*
X154154932Y-145475971D02*
X154107313Y-145380733D01*
X154107313Y-145380733D02*
X154012075Y-145333114D01*
X154012075Y-145333114D02*
X153869218Y-145333114D01*
X153869218Y-145333114D02*
X153773979Y-145380733D01*
X153773979Y-145380733D02*
X153726360Y-145475971D01*
X153726360Y-145475971D02*
X153726360Y-145999780D01*
X152535885Y-144952161D02*
X153393027Y-146237876D01*
X151583504Y-145523590D02*
X151631123Y-145475971D01*
X151631123Y-145475971D02*
X151726361Y-145428352D01*
X151726361Y-145428352D02*
X151821599Y-145428352D01*
X151821599Y-145428352D02*
X151916837Y-145475971D01*
X151916837Y-145475971D02*
X151964456Y-145523590D01*
X151964456Y-145523590D02*
X152012075Y-145618828D01*
X152012075Y-145618828D02*
X152012075Y-145714066D01*
X152012075Y-145714066D02*
X151964456Y-145809304D01*
X151964456Y-145809304D02*
X151916837Y-145856923D01*
X151916837Y-145856923D02*
X151821599Y-145904542D01*
X151821599Y-145904542D02*
X151726361Y-145904542D01*
X151726361Y-145904542D02*
X151631123Y-145856923D01*
X151631123Y-145856923D02*
X151583504Y-145809304D01*
X151583504Y-145428352D02*
X151583504Y-145809304D01*
X151583504Y-145809304D02*
X151535885Y-145856923D01*
X151535885Y-145856923D02*
X151488266Y-145856923D01*
X151488266Y-145856923D02*
X151393027Y-145809304D01*
X151393027Y-145809304D02*
X151345408Y-145714066D01*
X151345408Y-145714066D02*
X151345408Y-145475971D01*
X151345408Y-145475971D02*
X151440647Y-145333114D01*
X151440647Y-145333114D02*
X151583504Y-145237876D01*
X151583504Y-145237876D02*
X151773980Y-145190257D01*
X151773980Y-145190257D02*
X151964456Y-145237876D01*
X151964456Y-145237876D02*
X152107313Y-145333114D01*
X152107313Y-145333114D02*
X152202551Y-145475971D01*
X152202551Y-145475971D02*
X152250170Y-145666447D01*
X152250170Y-145666447D02*
X152202551Y-145856923D01*
X152202551Y-145856923D02*
X152107313Y-145999780D01*
X152107313Y-145999780D02*
X151964456Y-146095019D01*
X151964456Y-146095019D02*
X151773980Y-146142638D01*
X151773980Y-146142638D02*
X151583504Y-146095019D01*
X151583504Y-146095019D02*
X151440647Y-145999780D01*
X150964456Y-145952161D02*
X150821599Y-145999780D01*
X150821599Y-145999780D02*
X150583504Y-145999780D01*
X150583504Y-145999780D02*
X150488266Y-145952161D01*
X150488266Y-145952161D02*
X150440647Y-145904542D01*
X150440647Y-145904542D02*
X150393028Y-145809304D01*
X150393028Y-145809304D02*
X150393028Y-145714066D01*
X150393028Y-145714066D02*
X150440647Y-145618828D01*
X150440647Y-145618828D02*
X150488266Y-145571209D01*
X150488266Y-145571209D02*
X150583504Y-145523590D01*
X150583504Y-145523590D02*
X150773980Y-145475971D01*
X150773980Y-145475971D02*
X150869218Y-145428352D01*
X150869218Y-145428352D02*
X150916837Y-145380733D01*
X150916837Y-145380733D02*
X150964456Y-145285495D01*
X150964456Y-145285495D02*
X150964456Y-145190257D01*
X150964456Y-145190257D02*
X150916837Y-145095019D01*
X150916837Y-145095019D02*
X150869218Y-145047400D01*
X150869218Y-145047400D02*
X150773980Y-144999780D01*
X150773980Y-144999780D02*
X150535885Y-144999780D01*
X150535885Y-144999780D02*
X150393028Y-145047400D01*
X149535885Y-145952161D02*
X149631123Y-145999780D01*
X149631123Y-145999780D02*
X149821599Y-145999780D01*
X149821599Y-145999780D02*
X149916837Y-145952161D01*
X149916837Y-145952161D02*
X149964456Y-145904542D01*
X149964456Y-145904542D02*
X150012075Y-145809304D01*
X150012075Y-145809304D02*
X150012075Y-145523590D01*
X150012075Y-145523590D02*
X149964456Y-145428352D01*
X149964456Y-145428352D02*
X149916837Y-145380733D01*
X149916837Y-145380733D02*
X149821599Y-145333114D01*
X149821599Y-145333114D02*
X149631123Y-145333114D01*
X149631123Y-145333114D02*
X149535885Y-145380733D01*
X149107313Y-145999780D02*
X149107313Y-145333114D01*
X149107313Y-145523590D02*
X149059694Y-145428352D01*
X149059694Y-145428352D02*
X149012075Y-145380733D01*
X149012075Y-145380733D02*
X148916837Y-145333114D01*
X148916837Y-145333114D02*
X148821599Y-145333114D01*
X148107313Y-145952161D02*
X148202551Y-145999780D01*
X148202551Y-145999780D02*
X148393027Y-145999780D01*
X148393027Y-145999780D02*
X148488265Y-145952161D01*
X148488265Y-145952161D02*
X148535884Y-145856923D01*
X148535884Y-145856923D02*
X148535884Y-145475971D01*
X148535884Y-145475971D02*
X148488265Y-145380733D01*
X148488265Y-145380733D02*
X148393027Y-145333114D01*
X148393027Y-145333114D02*
X148202551Y-145333114D01*
X148202551Y-145333114D02*
X148107313Y-145380733D01*
X148107313Y-145380733D02*
X148059694Y-145475971D01*
X148059694Y-145475971D02*
X148059694Y-145571209D01*
X148059694Y-145571209D02*
X148535884Y-145666447D01*
X147202551Y-145999780D02*
X147202551Y-145475971D01*
X147202551Y-145475971D02*
X147250170Y-145380733D01*
X147250170Y-145380733D02*
X147345408Y-145333114D01*
X147345408Y-145333114D02*
X147535884Y-145333114D01*
X147535884Y-145333114D02*
X147631122Y-145380733D01*
X147202551Y-145952161D02*
X147297789Y-145999780D01*
X147297789Y-145999780D02*
X147535884Y-145999780D01*
X147535884Y-145999780D02*
X147631122Y-145952161D01*
X147631122Y-145952161D02*
X147678741Y-145856923D01*
X147678741Y-145856923D02*
X147678741Y-145761685D01*
X147678741Y-145761685D02*
X147631122Y-145666447D01*
X147631122Y-145666447D02*
X147535884Y-145618828D01*
X147535884Y-145618828D02*
X147297789Y-145618828D01*
X147297789Y-145618828D02*
X147202551Y-145571209D01*
X146726360Y-145999780D02*
X146726360Y-145333114D01*
X146726360Y-145428352D02*
X146678741Y-145380733D01*
X146678741Y-145380733D02*
X146583503Y-145333114D01*
X146583503Y-145333114D02*
X146440646Y-145333114D01*
X146440646Y-145333114D02*
X146345408Y-145380733D01*
X146345408Y-145380733D02*
X146297789Y-145475971D01*
X146297789Y-145475971D02*
X146297789Y-145999780D01*
X146297789Y-145475971D02*
X146250170Y-145380733D01*
X146250170Y-145380733D02*
X146154932Y-145333114D01*
X146154932Y-145333114D02*
X146012075Y-145333114D01*
X146012075Y-145333114D02*
X145916836Y-145380733D01*
X145916836Y-145380733D02*
X145869217Y-145475971D01*
X145869217Y-145475971D02*
X145869217Y-145999780D01*
X145393027Y-145999780D02*
X145393027Y-145333114D01*
X145393027Y-144999780D02*
X145440646Y-145047400D01*
X145440646Y-145047400D02*
X145393027Y-145095019D01*
X145393027Y-145095019D02*
X145345408Y-145047400D01*
X145345408Y-145047400D02*
X145393027Y-144999780D01*
X145393027Y-144999780D02*
X145393027Y-145095019D01*
X144916837Y-145333114D02*
X144916837Y-145999780D01*
X144916837Y-145428352D02*
X144869218Y-145380733D01*
X144869218Y-145380733D02*
X144773980Y-145333114D01*
X144773980Y-145333114D02*
X144631123Y-145333114D01*
X144631123Y-145333114D02*
X144535885Y-145380733D01*
X144535885Y-145380733D02*
X144488266Y-145475971D01*
X144488266Y-145475971D02*
X144488266Y-145999780D01*
X143583504Y-145333114D02*
X143583504Y-146142638D01*
X143583504Y-146142638D02*
X143631123Y-146237876D01*
X143631123Y-146237876D02*
X143678742Y-146285495D01*
X143678742Y-146285495D02*
X143773980Y-146333114D01*
X143773980Y-146333114D02*
X143916837Y-146333114D01*
X143916837Y-146333114D02*
X144012075Y-146285495D01*
X143583504Y-145952161D02*
X143678742Y-145999780D01*
X143678742Y-145999780D02*
X143869218Y-145999780D01*
X143869218Y-145999780D02*
X143964456Y-145952161D01*
X143964456Y-145952161D02*
X144012075Y-145904542D01*
X144012075Y-145904542D02*
X144059694Y-145809304D01*
X144059694Y-145809304D02*
X144059694Y-145523590D01*
X144059694Y-145523590D02*
X144012075Y-145428352D01*
X144012075Y-145428352D02*
X143964456Y-145380733D01*
X143964456Y-145380733D02*
X143869218Y-145333114D01*
X143869218Y-145333114D02*
X143678742Y-145333114D01*
X143678742Y-145333114D02*
X143583504Y-145380733D01*
X143154932Y-145714066D02*
X142678742Y-145714066D01*
X143250170Y-145999780D02*
X142916837Y-144999780D01*
X142916837Y-144999780D02*
X142583504Y-145999780D01*
X142393027Y-145333114D02*
X142012075Y-145333114D01*
X142250170Y-144999780D02*
X142250170Y-145856923D01*
X142250170Y-145856923D02*
X142202551Y-145952161D01*
X142202551Y-145952161D02*
X142107313Y-145999780D01*
X142107313Y-145999780D02*
X142012075Y-145999780D01*
X141821598Y-144999780D02*
X141250170Y-144999780D01*
X141535884Y-145999780D02*
X141535884Y-144999780D01*
X140916836Y-145999780D02*
X140916836Y-144999780D01*
X140488265Y-145999780D02*
X140488265Y-145475971D01*
X140488265Y-145475971D02*
X140535884Y-145380733D01*
X140535884Y-145380733D02*
X140631122Y-145333114D01*
X140631122Y-145333114D02*
X140773979Y-145333114D01*
X140773979Y-145333114D02*
X140869217Y-145380733D01*
X140869217Y-145380733D02*
X140916836Y-145428352D01*
X139631122Y-145952161D02*
X139726360Y-145999780D01*
X139726360Y-145999780D02*
X139916836Y-145999780D01*
X139916836Y-145999780D02*
X140012074Y-145952161D01*
X140012074Y-145952161D02*
X140059693Y-145856923D01*
X140059693Y-145856923D02*
X140059693Y-145475971D01*
X140059693Y-145475971D02*
X140012074Y-145380733D01*
X140012074Y-145380733D02*
X139916836Y-145333114D01*
X139916836Y-145333114D02*
X139726360Y-145333114D01*
X139726360Y-145333114D02*
X139631122Y-145380733D01*
X139631122Y-145380733D02*
X139583503Y-145475971D01*
X139583503Y-145475971D02*
X139583503Y-145571209D01*
X139583503Y-145571209D02*
X140059693Y-145666447D01*
X138583503Y-145999780D02*
X138916836Y-145523590D01*
X139154931Y-145999780D02*
X139154931Y-144999780D01*
X139154931Y-144999780D02*
X138773979Y-144999780D01*
X138773979Y-144999780D02*
X138678741Y-145047400D01*
X138678741Y-145047400D02*
X138631122Y-145095019D01*
X138631122Y-145095019D02*
X138583503Y-145190257D01*
X138583503Y-145190257D02*
X138583503Y-145333114D01*
X138583503Y-145333114D02*
X138631122Y-145428352D01*
X138631122Y-145428352D02*
X138678741Y-145475971D01*
X138678741Y-145475971D02*
X138773979Y-145523590D01*
X138773979Y-145523590D02*
X139154931Y-145523590D01*
X137726360Y-145999780D02*
X137726360Y-145475971D01*
X137726360Y-145475971D02*
X137773979Y-145380733D01*
X137773979Y-145380733D02*
X137869217Y-145333114D01*
X137869217Y-145333114D02*
X138059693Y-145333114D01*
X138059693Y-145333114D02*
X138154931Y-145380733D01*
X137726360Y-145952161D02*
X137821598Y-145999780D01*
X137821598Y-145999780D02*
X138059693Y-145999780D01*
X138059693Y-145999780D02*
X138154931Y-145952161D01*
X138154931Y-145952161D02*
X138202550Y-145856923D01*
X138202550Y-145856923D02*
X138202550Y-145761685D01*
X138202550Y-145761685D02*
X138154931Y-145666447D01*
X138154931Y-145666447D02*
X138059693Y-145618828D01*
X138059693Y-145618828D02*
X137821598Y-145618828D01*
X137821598Y-145618828D02*
X137726360Y-145571209D01*
X136821598Y-145999780D02*
X136821598Y-144999780D01*
X136821598Y-145952161D02*
X136916836Y-145999780D01*
X136916836Y-145999780D02*
X137107312Y-145999780D01*
X137107312Y-145999780D02*
X137202550Y-145952161D01*
X137202550Y-145952161D02*
X137250169Y-145904542D01*
X137250169Y-145904542D02*
X137297788Y-145809304D01*
X137297788Y-145809304D02*
X137297788Y-145523590D01*
X137297788Y-145523590D02*
X137250169Y-145428352D01*
X137250169Y-145428352D02*
X137202550Y-145380733D01*
X137202550Y-145380733D02*
X137107312Y-145333114D01*
X137107312Y-145333114D02*
X136916836Y-145333114D01*
X136916836Y-145333114D02*
X136821598Y-145380733D01*
X136345407Y-145999780D02*
X136345407Y-145333114D01*
X136345407Y-144999780D02*
X136393026Y-145047400D01*
X136393026Y-145047400D02*
X136345407Y-145095019D01*
X136345407Y-145095019D02*
X136297788Y-145047400D01*
X136297788Y-145047400D02*
X136345407Y-144999780D01*
X136345407Y-144999780D02*
X136345407Y-145095019D01*
X135726360Y-145999780D02*
X135821598Y-145952161D01*
X135821598Y-145952161D02*
X135869217Y-145904542D01*
X135869217Y-145904542D02*
X135916836Y-145809304D01*
X135916836Y-145809304D02*
X135916836Y-145523590D01*
X135916836Y-145523590D02*
X135869217Y-145428352D01*
X135869217Y-145428352D02*
X135821598Y-145380733D01*
X135821598Y-145380733D02*
X135726360Y-145333114D01*
X135726360Y-145333114D02*
X135583503Y-145333114D01*
X135583503Y-145333114D02*
X135488265Y-145380733D01*
X135488265Y-145380733D02*
X135440646Y-145428352D01*
X135440646Y-145428352D02*
X135393027Y-145523590D01*
X135393027Y-145523590D02*
X135393027Y-145809304D01*
X135393027Y-145809304D02*
X135440646Y-145904542D01*
X135440646Y-145904542D02*
X135488265Y-145952161D01*
X135488265Y-145952161D02*
X135583503Y-145999780D01*
X135583503Y-145999780D02*
X135726360Y-145999780D01*
D13*
X324169648Y-141526971D02*
X324026791Y-141574590D01*
X324026791Y-141574590D02*
X323979172Y-141622209D01*
X323979172Y-141622209D02*
X323931553Y-141717447D01*
X323931553Y-141717447D02*
X323931553Y-141860304D01*
X323931553Y-141860304D02*
X323979172Y-141955542D01*
X323979172Y-141955542D02*
X324026791Y-142003161D01*
X324026791Y-142003161D02*
X324122029Y-142050780D01*
X324122029Y-142050780D02*
X324502981Y-142050780D01*
X324502981Y-142050780D02*
X324502981Y-141050780D01*
X324502981Y-141050780D02*
X324169648Y-141050780D01*
X324169648Y-141050780D02*
X324074410Y-141098400D01*
X324074410Y-141098400D02*
X324026791Y-141146019D01*
X324026791Y-141146019D02*
X323979172Y-141241257D01*
X323979172Y-141241257D02*
X323979172Y-141336495D01*
X323979172Y-141336495D02*
X324026791Y-141431733D01*
X324026791Y-141431733D02*
X324074410Y-141479352D01*
X324074410Y-141479352D02*
X324169648Y-141526971D01*
X324169648Y-141526971D02*
X324502981Y-141526971D01*
X323074410Y-142050780D02*
X323074410Y-141526971D01*
X323074410Y-141526971D02*
X323122029Y-141431733D01*
X323122029Y-141431733D02*
X323217267Y-141384114D01*
X323217267Y-141384114D02*
X323407743Y-141384114D01*
X323407743Y-141384114D02*
X323502981Y-141431733D01*
X323074410Y-142003161D02*
X323169648Y-142050780D01*
X323169648Y-142050780D02*
X323407743Y-142050780D01*
X323407743Y-142050780D02*
X323502981Y-142003161D01*
X323502981Y-142003161D02*
X323550600Y-141907923D01*
X323550600Y-141907923D02*
X323550600Y-141812685D01*
X323550600Y-141812685D02*
X323502981Y-141717447D01*
X323502981Y-141717447D02*
X323407743Y-141669828D01*
X323407743Y-141669828D02*
X323169648Y-141669828D01*
X323169648Y-141669828D02*
X323074410Y-141622209D01*
X322169648Y-142003161D02*
X322264886Y-142050780D01*
X322264886Y-142050780D02*
X322455362Y-142050780D01*
X322455362Y-142050780D02*
X322550600Y-142003161D01*
X322550600Y-142003161D02*
X322598219Y-141955542D01*
X322598219Y-141955542D02*
X322645838Y-141860304D01*
X322645838Y-141860304D02*
X322645838Y-141574590D01*
X322645838Y-141574590D02*
X322598219Y-141479352D01*
X322598219Y-141479352D02*
X322550600Y-141431733D01*
X322550600Y-141431733D02*
X322455362Y-141384114D01*
X322455362Y-141384114D02*
X322264886Y-141384114D01*
X322264886Y-141384114D02*
X322169648Y-141431733D01*
X321741076Y-142050780D02*
X321741076Y-141050780D01*
X321645838Y-141669828D02*
X321360124Y-142050780D01*
X321360124Y-141384114D02*
X321741076Y-141765066D01*
X320788695Y-142050780D02*
X320883933Y-142003161D01*
X320883933Y-142003161D02*
X320931552Y-141907923D01*
X320931552Y-141907923D02*
X320931552Y-141050780D01*
X320407742Y-142050780D02*
X320407742Y-141384114D01*
X320407742Y-141050780D02*
X320455361Y-141098400D01*
X320455361Y-141098400D02*
X320407742Y-141146019D01*
X320407742Y-141146019D02*
X320360123Y-141098400D01*
X320360123Y-141098400D02*
X320407742Y-141050780D01*
X320407742Y-141050780D02*
X320407742Y-141146019D01*
X319502981Y-141384114D02*
X319502981Y-142193638D01*
X319502981Y-142193638D02*
X319550600Y-142288876D01*
X319550600Y-142288876D02*
X319598219Y-142336495D01*
X319598219Y-142336495D02*
X319693457Y-142384114D01*
X319693457Y-142384114D02*
X319836314Y-142384114D01*
X319836314Y-142384114D02*
X319931552Y-142336495D01*
X319502981Y-142003161D02*
X319598219Y-142050780D01*
X319598219Y-142050780D02*
X319788695Y-142050780D01*
X319788695Y-142050780D02*
X319883933Y-142003161D01*
X319883933Y-142003161D02*
X319931552Y-141955542D01*
X319931552Y-141955542D02*
X319979171Y-141860304D01*
X319979171Y-141860304D02*
X319979171Y-141574590D01*
X319979171Y-141574590D02*
X319931552Y-141479352D01*
X319931552Y-141479352D02*
X319883933Y-141431733D01*
X319883933Y-141431733D02*
X319788695Y-141384114D01*
X319788695Y-141384114D02*
X319598219Y-141384114D01*
X319598219Y-141384114D02*
X319502981Y-141431733D01*
X319026790Y-142050780D02*
X319026790Y-141050780D01*
X318598219Y-142050780D02*
X318598219Y-141526971D01*
X318598219Y-141526971D02*
X318645838Y-141431733D01*
X318645838Y-141431733D02*
X318741076Y-141384114D01*
X318741076Y-141384114D02*
X318883933Y-141384114D01*
X318883933Y-141384114D02*
X318979171Y-141431733D01*
X318979171Y-141431733D02*
X319026790Y-141479352D01*
X318264885Y-141384114D02*
X317883933Y-141384114D01*
X318122028Y-141050780D02*
X318122028Y-141907923D01*
X318122028Y-141907923D02*
X318074409Y-142003161D01*
X318074409Y-142003161D02*
X317979171Y-142050780D01*
X317979171Y-142050780D02*
X317883933Y-142050780D01*
X316950599Y-141669828D02*
X316188695Y-141669828D01*
D12*
X275894704Y-137791019D02*
X275847085Y-137743400D01*
X275847085Y-137743400D02*
X275751847Y-137695780D01*
X275751847Y-137695780D02*
X275513752Y-137695780D01*
X275513752Y-137695780D02*
X275418514Y-137743400D01*
X275418514Y-137743400D02*
X275370895Y-137791019D01*
X275370895Y-137791019D02*
X275323276Y-137886257D01*
X275323276Y-137886257D02*
X275323276Y-137981495D01*
X275323276Y-137981495D02*
X275370895Y-138124352D01*
X275370895Y-138124352D02*
X275942323Y-138695780D01*
X275942323Y-138695780D02*
X275323276Y-138695780D01*
X274989942Y-137695780D02*
X274370895Y-137695780D01*
X274370895Y-137695780D02*
X274704228Y-138076733D01*
X274704228Y-138076733D02*
X274561371Y-138076733D01*
X274561371Y-138076733D02*
X274466133Y-138124352D01*
X274466133Y-138124352D02*
X274418514Y-138171971D01*
X274418514Y-138171971D02*
X274370895Y-138267209D01*
X274370895Y-138267209D02*
X274370895Y-138505304D01*
X274370895Y-138505304D02*
X274418514Y-138600542D01*
X274418514Y-138600542D02*
X274466133Y-138648161D01*
X274466133Y-138648161D02*
X274561371Y-138695780D01*
X274561371Y-138695780D02*
X274847085Y-138695780D01*
X274847085Y-138695780D02*
X274942323Y-138648161D01*
X274942323Y-138648161D02*
X274989942Y-138600542D01*
X302740237Y-133987619D02*
X302692618Y-133940000D01*
X302692618Y-133940000D02*
X302597380Y-133892380D01*
X302597380Y-133892380D02*
X302359285Y-133892380D01*
X302359285Y-133892380D02*
X302264047Y-133940000D01*
X302264047Y-133940000D02*
X302216428Y-133987619D01*
X302216428Y-133987619D02*
X302168809Y-134082857D01*
X302168809Y-134082857D02*
X302168809Y-134178095D01*
X302168809Y-134178095D02*
X302216428Y-134320952D01*
X302216428Y-134320952D02*
X302787856Y-134892380D01*
X302787856Y-134892380D02*
X302168809Y-134892380D01*
D13*
X317045838Y-133250780D02*
X317522028Y-133250780D01*
X317522028Y-133250780D02*
X317569647Y-133726971D01*
X317569647Y-133726971D02*
X317522028Y-133679352D01*
X317522028Y-133679352D02*
X317426790Y-133631733D01*
X317426790Y-133631733D02*
X317188695Y-133631733D01*
X317188695Y-133631733D02*
X317093457Y-133679352D01*
X317093457Y-133679352D02*
X317045838Y-133726971D01*
X317045838Y-133726971D02*
X316998219Y-133822209D01*
X316998219Y-133822209D02*
X316998219Y-134060304D01*
X316998219Y-134060304D02*
X317045838Y-134155542D01*
X317045838Y-134155542D02*
X317093457Y-134203161D01*
X317093457Y-134203161D02*
X317188695Y-134250780D01*
X317188695Y-134250780D02*
X317426790Y-134250780D01*
X317426790Y-134250780D02*
X317522028Y-134203161D01*
X317522028Y-134203161D02*
X317569647Y-134155542D01*
X316712504Y-133250780D02*
X316379171Y-134250780D01*
X316379171Y-134250780D02*
X316045838Y-133250780D01*
D12*
X341963333Y-43529880D02*
X341963333Y-44244166D01*
X341963333Y-44244166D02*
X342010952Y-44387023D01*
X342010952Y-44387023D02*
X342106190Y-44482261D01*
X342106190Y-44482261D02*
X342249047Y-44529880D01*
X342249047Y-44529880D02*
X342344285Y-44529880D01*
X341582380Y-43529880D02*
X340963333Y-43529880D01*
X340963333Y-43529880D02*
X341296666Y-43910833D01*
X341296666Y-43910833D02*
X341153809Y-43910833D01*
X341153809Y-43910833D02*
X341058571Y-43958452D01*
X341058571Y-43958452D02*
X341010952Y-44006071D01*
X341010952Y-44006071D02*
X340963333Y-44101309D01*
X340963333Y-44101309D02*
X340963333Y-44339404D01*
X340963333Y-44339404D02*
X341010952Y-44434642D01*
X341010952Y-44434642D02*
X341058571Y-44482261D01*
X341058571Y-44482261D02*
X341153809Y-44529880D01*
X341153809Y-44529880D02*
X341439523Y-44529880D01*
X341439523Y-44529880D02*
X341534761Y-44482261D01*
X341534761Y-44482261D02*
X341582380Y-44434642D01*
X307854313Y-135378019D02*
X307806694Y-135330400D01*
X307806694Y-135330400D02*
X307711456Y-135282780D01*
X307711456Y-135282780D02*
X307473361Y-135282780D01*
X307473361Y-135282780D02*
X307378123Y-135330400D01*
X307378123Y-135330400D02*
X307330504Y-135378019D01*
X307330504Y-135378019D02*
X307282885Y-135473257D01*
X307282885Y-135473257D02*
X307282885Y-135568495D01*
X307282885Y-135568495D02*
X307330504Y-135711352D01*
X307330504Y-135711352D02*
X307901932Y-136282780D01*
X307901932Y-136282780D02*
X307282885Y-136282780D01*
X307336285Y-138595380D02*
X307907713Y-138595380D01*
X307621999Y-138595380D02*
X307621999Y-137595380D01*
X307621999Y-137595380D02*
X307717237Y-137738238D01*
X307717237Y-137738238D02*
X307812475Y-137833476D01*
X307812475Y-137833476D02*
X307907713Y-137881095D01*
D14*
X188214627Y-81672500D02*
X188357485Y-81601071D01*
X188357485Y-81601071D02*
X188571770Y-81601071D01*
X188571770Y-81601071D02*
X188786056Y-81672500D01*
X188786056Y-81672500D02*
X188928913Y-81815357D01*
X188928913Y-81815357D02*
X189000342Y-81958214D01*
X189000342Y-81958214D02*
X189071770Y-82243928D01*
X189071770Y-82243928D02*
X189071770Y-82458214D01*
X189071770Y-82458214D02*
X189000342Y-82743928D01*
X189000342Y-82743928D02*
X188928913Y-82886785D01*
X188928913Y-82886785D02*
X188786056Y-83029642D01*
X188786056Y-83029642D02*
X188571770Y-83101071D01*
X188571770Y-83101071D02*
X188428913Y-83101071D01*
X188428913Y-83101071D02*
X188214627Y-83029642D01*
X188214627Y-83029642D02*
X188143199Y-82958214D01*
X188143199Y-82958214D02*
X188143199Y-82458214D01*
X188143199Y-82458214D02*
X188428913Y-82458214D01*
X187286056Y-81601071D02*
X187286056Y-81958214D01*
X187643199Y-81815357D02*
X187286056Y-81958214D01*
X187286056Y-81958214D02*
X186928913Y-81815357D01*
X187500342Y-82243928D02*
X187286056Y-81958214D01*
X187286056Y-81958214D02*
X187071770Y-82243928D01*
X186143199Y-81601071D02*
X186143199Y-81958214D01*
X186500342Y-81815357D02*
X186143199Y-81958214D01*
X186143199Y-81958214D02*
X185786056Y-81815357D01*
X186357485Y-82243928D02*
X186143199Y-81958214D01*
X186143199Y-81958214D02*
X185928913Y-82243928D01*
X185000342Y-81601071D02*
X185000342Y-81958214D01*
X185357485Y-81815357D02*
X185000342Y-81958214D01*
X185000342Y-81958214D02*
X184643199Y-81815357D01*
X185214628Y-82243928D02*
X185000342Y-81958214D01*
X185000342Y-81958214D02*
X184786056Y-82243928D01*
D10*
X340380000Y-50472500D02*
X340700000Y-50472500D01*
X336490000Y-53672500D02*
X336490000Y-51472500D01*
X342560000Y-47052500D02*
X342560000Y-50472500D01*
X340700000Y-47052500D02*
X340380000Y-46972500D01*
X337560000Y-50472500D02*
X337880000Y-50472500D01*
X346770000Y-51472500D02*
X347990000Y-51472500D01*
X346770000Y-50472500D02*
X336490000Y-50472500D01*
X346770000Y-46472500D02*
X346770000Y-51472500D01*
X340060000Y-50472500D02*
X340380000Y-50472500D01*
X339210000Y-51472500D02*
X339050000Y-51472500D01*
X347990000Y-45252500D02*
X335270000Y-45252500D01*
X340700000Y-50472500D02*
X340700000Y-47052500D01*
X345680000Y-54162500D02*
X345080000Y-54162500D01*
X345380000Y-46972500D02*
X345060000Y-47052500D01*
X335270000Y-45252500D02*
X335270000Y-53672500D01*
X345700000Y-50472500D02*
X345700000Y-47052500D01*
X344210000Y-51472500D02*
X344050000Y-51472500D01*
X342880000Y-46972500D02*
X342560000Y-47052500D01*
X346770000Y-53672500D02*
X347990000Y-53672500D01*
X347990000Y-53672500D02*
X347990000Y-45252500D01*
X338200000Y-50472500D02*
X338200000Y-47052500D01*
X340060000Y-47052500D02*
X340060000Y-50472500D01*
X345060000Y-50472500D02*
X345380000Y-50472500D01*
X345080000Y-54162500D02*
X345380000Y-53562500D01*
X337880000Y-46972500D02*
X337560000Y-47052500D01*
X337880000Y-50472500D02*
X338200000Y-50472500D01*
X336490000Y-51472500D02*
X335270000Y-51472500D01*
X345700000Y-47052500D02*
X345380000Y-46972500D01*
X335270000Y-46472500D02*
X336490000Y-46472500D01*
X347990000Y-46472500D02*
X346770000Y-46472500D01*
X335270000Y-53672500D02*
X336490000Y-53672500D01*
X342880000Y-50472500D02*
X343200000Y-50472500D01*
X346770000Y-51472500D02*
X346770000Y-53672500D01*
X345380000Y-53562500D02*
X345680000Y-54162500D01*
X343200000Y-47052500D02*
X342880000Y-46972500D01*
X337560000Y-47052500D02*
X337560000Y-50472500D01*
X342560000Y-50472500D02*
X342880000Y-50472500D01*
X340380000Y-46972500D02*
X340060000Y-47052500D01*
X345060000Y-47052500D02*
X345060000Y-50472500D01*
X341710000Y-51472500D02*
X341550000Y-51472500D01*
X345380000Y-50472500D02*
X345700000Y-50472500D01*
X338200000Y-47052500D02*
X337880000Y-46972500D01*
X336490000Y-46472500D02*
X336490000Y-51472500D01*
X343200000Y-50472500D02*
X343200000Y-47052500D01*
X272450000Y-141490000D02*
X310810000Y-141490000D01*
X293680000Y-141490000D02*
X293680000Y-140180000D01*
X310810000Y-141490000D02*
X310810000Y-132370000D01*
X273750000Y-140180000D02*
X289580000Y-140180000D01*
X289580000Y-140180000D02*
X289580000Y-141490000D01*
X289580000Y-140180000D02*
X289580000Y-140180000D01*
X293680000Y-140180000D02*
X309510000Y-140180000D01*
X309510000Y-140180000D02*
X309510000Y-133680000D01*
X273750000Y-133680000D02*
X273750000Y-140180000D01*
X309510000Y-133680000D02*
X273750000Y-133680000D01*
X272450000Y-132370000D02*
X272450000Y-141490000D01*
X310810000Y-132370000D02*
X272450000Y-132370000D01*
G36*
X136093200Y-129370953D02*
G01*
X136093200Y-132866441D01*
X135479367Y-132819541D01*
X134805630Y-132710541D01*
X134122233Y-132465113D01*
X133528246Y-132107338D01*
X133030238Y-131655249D01*
X132634775Y-131126879D01*
X132348427Y-130540259D01*
X132177761Y-129913423D01*
X132129344Y-129264404D01*
X132209745Y-128611233D01*
X132425532Y-127971944D01*
X132783271Y-127364569D01*
X133289532Y-126807140D01*
X133330050Y-126771044D01*
X133953019Y-126330470D01*
X134640412Y-126046488D01*
X135391956Y-125919213D01*
X136093200Y-125875464D01*
X136093200Y-129370953D01*
G37*
G36*
X38539923Y-27834167D02*
G01*
X38593759Y-28628839D01*
X38697547Y-30160827D01*
X38811381Y-31841080D01*
X38934365Y-33656380D01*
X39065605Y-35593511D01*
X39204204Y-37639256D01*
X39349267Y-39780398D01*
X39499899Y-42003720D01*
X39655204Y-44296004D01*
X39814286Y-46644034D01*
X39976251Y-49034593D01*
X40140202Y-51454463D01*
X40305245Y-53890428D01*
X40470483Y-56329271D01*
X40635022Y-58757775D01*
X40797966Y-61162722D01*
X40958419Y-63530896D01*
X41115486Y-65849080D01*
X41268271Y-68104056D01*
X41400906Y-70062239D01*
X41536555Y-72066227D01*
X41668782Y-74020953D01*
X41797139Y-75919767D01*
X41921179Y-77756020D01*
X42040455Y-79523064D01*
X42154521Y-81214249D01*
X42262929Y-82822926D01*
X42365233Y-84342447D01*
X42460985Y-85766162D01*
X42549740Y-87087422D01*
X42631049Y-88299579D01*
X42704466Y-89395983D01*
X42769544Y-90369985D01*
X42825836Y-91214937D01*
X42872895Y-91924190D01*
X42910275Y-92491093D01*
X42937528Y-92908999D01*
X42954208Y-93171259D01*
X42959867Y-93271222D01*
X42940617Y-93399875D01*
X42877521Y-93472000D01*
X42871040Y-93471088D01*
X42744506Y-93445665D01*
X42467384Y-93387305D01*
X42051788Y-93298643D01*
X41509828Y-93182315D01*
X40853617Y-93040958D01*
X40095266Y-92877208D01*
X39246889Y-92693700D01*
X38320596Y-92493071D01*
X37328499Y-92277956D01*
X36282712Y-92050992D01*
X35195344Y-91814814D01*
X34078510Y-91572059D01*
X32944320Y-91325363D01*
X31804886Y-91077361D01*
X30672321Y-90830690D01*
X29558736Y-90587986D01*
X28476244Y-90351884D01*
X27436955Y-90125021D01*
X26452984Y-89910033D01*
X25536440Y-89709556D01*
X24699437Y-89526225D01*
X23954086Y-89362677D01*
X23312499Y-89221548D01*
X22786789Y-89105474D01*
X22389066Y-89017090D01*
X22131444Y-88959033D01*
X22026033Y-88933940D01*
X22015299Y-88926230D01*
X22004105Y-88904934D01*
X21993534Y-88865763D01*
X21983568Y-88804127D01*
X21974190Y-88715436D01*
X21965382Y-88595100D01*
X21957126Y-88438531D01*
X21949404Y-88241137D01*
X21942199Y-87998330D01*
X21935492Y-87705520D01*
X21929266Y-87358118D01*
X21923504Y-86951533D01*
X21918186Y-86481176D01*
X21913297Y-85942458D01*
X21908817Y-85330788D01*
X21904729Y-84641578D01*
X21901015Y-83870237D01*
X21897657Y-83012176D01*
X21894639Y-82062806D01*
X21891940Y-81017536D01*
X21889545Y-79871777D01*
X21887435Y-78620940D01*
X21885593Y-77260435D01*
X21884000Y-75785671D01*
X21882639Y-74192061D01*
X21881492Y-72475013D01*
X21880542Y-70629939D01*
X21879769Y-68652248D01*
X21879158Y-66537351D01*
X21878689Y-64280659D01*
X21878346Y-61877582D01*
X21878110Y-59323530D01*
X21877963Y-56613913D01*
X21877888Y-53744142D01*
X21877867Y-50709628D01*
X21877867Y-12530667D01*
X29690519Y-12530667D01*
X37503171Y-12530667D01*
X38539923Y-27834167D01*
G37*
G36*
X92776218Y-12530744D02*
G01*
X94402199Y-12531009D01*
X95874636Y-12531544D01*
X97201083Y-12532427D01*
X98389090Y-12533741D01*
X99446212Y-12535564D01*
X100380000Y-12537978D01*
X101198008Y-12541064D01*
X101907787Y-12544901D01*
X102516890Y-12549569D01*
X103032869Y-12555150D01*
X103463278Y-12561724D01*
X103815668Y-12569371D01*
X104097592Y-12578172D01*
X104316604Y-12588206D01*
X104480254Y-12599555D01*
X104596096Y-12612299D01*
X104671682Y-12626519D01*
X104714565Y-12642294D01*
X104732297Y-12659705D01*
X104732432Y-12678833D01*
X104723718Y-12714717D01*
X104681252Y-12902494D01*
X104606080Y-13240680D01*
X104500314Y-13719632D01*
X104366064Y-14329708D01*
X104205444Y-15061265D01*
X104020564Y-15904663D01*
X103813536Y-16850257D01*
X103586472Y-17888407D01*
X103341484Y-19009469D01*
X103080684Y-20203802D01*
X102806183Y-21461763D01*
X102520093Y-22773709D01*
X102224526Y-24130000D01*
X102139055Y-24522316D01*
X101924644Y-25506387D01*
X101676784Y-26643859D01*
X101397284Y-27926439D01*
X101087952Y-29345831D01*
X100750596Y-30893742D01*
X100387024Y-32561875D01*
X99999044Y-34341937D01*
X99588464Y-36225634D01*
X99157092Y-38204670D01*
X98706737Y-40270751D01*
X98239206Y-42415582D01*
X97756307Y-44630869D01*
X97259849Y-46908318D01*
X96751640Y-49239633D01*
X96233487Y-51616520D01*
X95707199Y-54030684D01*
X95174584Y-56473831D01*
X94637449Y-58937667D01*
X94097604Y-61413896D01*
X93556855Y-63894224D01*
X93017012Y-66370357D01*
X92479881Y-68834000D01*
X92310678Y-69610077D01*
X91802564Y-71940666D01*
X91303859Y-74228174D01*
X90815774Y-76467039D01*
X90339520Y-78651699D01*
X89876312Y-80776592D01*
X89427360Y-82836155D01*
X88993876Y-84824828D01*
X88577073Y-86737048D01*
X88178164Y-88567252D01*
X87798359Y-90309879D01*
X87438872Y-91959366D01*
X87100913Y-93510153D01*
X86785697Y-94956675D01*
X86494434Y-96293373D01*
X86228336Y-97514683D01*
X85988617Y-98615043D01*
X85776487Y-99588891D01*
X85593160Y-100430666D01*
X85439846Y-101134805D01*
X85317760Y-101695746D01*
X85228111Y-102107928D01*
X85172114Y-102365787D01*
X85150979Y-102463763D01*
X85128773Y-102552794D01*
X85049753Y-102654514D01*
X84881264Y-102647642D01*
X84838681Y-102638598D01*
X84639864Y-102595632D01*
X84289872Y-102519664D01*
X83797713Y-102412658D01*
X83172395Y-102276576D01*
X82422926Y-102113382D01*
X81558313Y-101925039D01*
X80587565Y-101713509D01*
X79519689Y-101480756D01*
X78363694Y-101228743D01*
X77128587Y-100959431D01*
X75823376Y-100674786D01*
X74457069Y-100376768D01*
X73038675Y-100067343D01*
X71577200Y-99748471D01*
X71017483Y-99626332D01*
X69343279Y-99260847D01*
X67824661Y-98929015D01*
X66454110Y-98629094D01*
X65224101Y-98359343D01*
X64127113Y-98118019D01*
X63155623Y-97903381D01*
X62302110Y-97713687D01*
X61559051Y-97547196D01*
X60918923Y-97402166D01*
X60374205Y-97276854D01*
X59917374Y-97169520D01*
X59540907Y-97078422D01*
X59237283Y-97001818D01*
X58998980Y-96937965D01*
X58818474Y-96885124D01*
X58688244Y-96841551D01*
X58600768Y-96805505D01*
X58548522Y-96775244D01*
X58523986Y-96749027D01*
X58519636Y-96725112D01*
X58522059Y-96712341D01*
X58552953Y-96565459D01*
X58618012Y-96261977D01*
X58715775Y-95808619D01*
X58844781Y-95212106D01*
X59003568Y-94479161D01*
X59190675Y-93616505D01*
X59404640Y-92630861D01*
X59644002Y-91528951D01*
X59907299Y-90317496D01*
X60193069Y-89003218D01*
X60499852Y-87592841D01*
X60826185Y-86093085D01*
X61170607Y-84510673D01*
X61531657Y-82852327D01*
X61907873Y-81124768D01*
X62297793Y-79334720D01*
X62699956Y-77488903D01*
X63112901Y-75594040D01*
X63535166Y-73656853D01*
X63748685Y-72677420D01*
X64244703Y-70402120D01*
X64762599Y-68026450D01*
X65298750Y-65567022D01*
X65849534Y-63040451D01*
X66411331Y-60463349D01*
X66980518Y-57852332D01*
X67553474Y-55224012D01*
X68126578Y-52595003D01*
X68696206Y-49981919D01*
X69258739Y-47401373D01*
X69810555Y-44869979D01*
X70348031Y-42404350D01*
X70867546Y-40021100D01*
X71365479Y-37736844D01*
X71838208Y-35568193D01*
X72282111Y-33531763D01*
X72693566Y-31644167D01*
X76859872Y-12530667D01*
X90818908Y-12530667D01*
X90989141Y-12530667D01*
X92776218Y-12530744D01*
G37*
G36*
X332090977Y-26118033D02*
G01*
X332295256Y-26159331D01*
X332638571Y-26231282D01*
X333106231Y-26330734D01*
X333683544Y-26454533D01*
X334355822Y-26599528D01*
X335108373Y-26762566D01*
X335926507Y-26940494D01*
X336795533Y-27130161D01*
X337601924Y-27306558D01*
X338484535Y-27500208D01*
X339224139Y-27663713D01*
X339833281Y-27800339D01*
X340324507Y-27913359D01*
X340710364Y-28006039D01*
X341003397Y-28081650D01*
X341216152Y-28143462D01*
X341361177Y-28194743D01*
X341451016Y-28238762D01*
X341498216Y-28278790D01*
X341515323Y-28318095D01*
X341514884Y-28359947D01*
X341513047Y-28372120D01*
X341483679Y-28522672D01*
X341421911Y-28820734D01*
X341330868Y-29251734D01*
X341213676Y-29801100D01*
X341073463Y-30454260D01*
X340913354Y-31196643D01*
X340736475Y-32013677D01*
X340545953Y-32890789D01*
X340344913Y-33813408D01*
X340206868Y-34447106D01*
X339877193Y-35972308D01*
X339579183Y-37371751D01*
X339307430Y-38673495D01*
X339056525Y-39905598D01*
X338821058Y-41096120D01*
X338595622Y-42273119D01*
X338374807Y-43464654D01*
X338153206Y-44698784D01*
X337925408Y-46003568D01*
X337686007Y-47407065D01*
X337429592Y-48937333D01*
X336983604Y-51692144D01*
X336473924Y-55068812D01*
X336023435Y-58343612D01*
X335628667Y-61546918D01*
X335286149Y-64709103D01*
X334992411Y-67860541D01*
X334743984Y-71031604D01*
X334537396Y-74252667D01*
X334512672Y-74769253D01*
X334488396Y-75483719D01*
X334468105Y-76314089D01*
X334451802Y-77238424D01*
X334439487Y-78234786D01*
X334431164Y-79281239D01*
X334426833Y-80355844D01*
X334426498Y-81436664D01*
X334430161Y-82501762D01*
X334437822Y-83529199D01*
X334449485Y-84497039D01*
X334465151Y-85383343D01*
X334484823Y-86166174D01*
X334508502Y-86823594D01*
X334536190Y-87333667D01*
X334539134Y-87376069D01*
X334804619Y-90465422D01*
X335165729Y-93445348D01*
X335628525Y-96349725D01*
X336199066Y-99212430D01*
X336883415Y-102067339D01*
X337687632Y-104948332D01*
X338395514Y-107193110D01*
X339535935Y-110372128D01*
X340809737Y-113459299D01*
X342214540Y-116450219D01*
X343747962Y-119340482D01*
X345407623Y-122125684D01*
X347191145Y-124801421D01*
X349096145Y-127363286D01*
X351120245Y-129806876D01*
X351908533Y-130708753D01*
X351908533Y-141639043D01*
X351908533Y-152569333D01*
X349940033Y-152569019D01*
X347971533Y-152568704D01*
X346743867Y-151544029D01*
X345733435Y-150687507D01*
X343567848Y-148752640D01*
X341557422Y-146810395D01*
X339692434Y-144850748D01*
X337963162Y-142863678D01*
X336359885Y-140839160D01*
X335869655Y-140185699D01*
X334202851Y-137905792D01*
X332665159Y-135704642D01*
X331248703Y-133568435D01*
X329945609Y-131483355D01*
X328748000Y-129435584D01*
X327648002Y-127411309D01*
X326637739Y-125396712D01*
X325709336Y-123377977D01*
X324854918Y-121341290D01*
X324066608Y-119272834D01*
X323285617Y-116949650D01*
X322571590Y-114468092D01*
X321939063Y-111878000D01*
X321392602Y-109201776D01*
X320936779Y-106461823D01*
X320576161Y-103680541D01*
X320315317Y-100880333D01*
X320311382Y-100827053D01*
X320240955Y-99538737D01*
X320205948Y-98108525D01*
X320205898Y-96559007D01*
X320240343Y-94912773D01*
X320308820Y-93192411D01*
X320410866Y-91420513D01*
X320546018Y-89619667D01*
X320592417Y-89078036D01*
X320829556Y-86583639D01*
X321116398Y-83946415D01*
X321450594Y-81181158D01*
X321829793Y-78302662D01*
X322251647Y-75325724D01*
X322713804Y-72265137D01*
X323213914Y-69135698D01*
X323749629Y-65952200D01*
X324318598Y-62729439D01*
X324918470Y-59482210D01*
X325546897Y-56225309D01*
X326201527Y-52973529D01*
X326880012Y-49741667D01*
X326885201Y-49717467D01*
X326982580Y-49264856D01*
X327107520Y-48686450D01*
X327257577Y-47993451D01*
X327430306Y-47197060D01*
X327623262Y-46308480D01*
X327834000Y-45338913D01*
X328060076Y-44299562D01*
X328299044Y-43201628D01*
X328548461Y-42056314D01*
X328805881Y-40874822D01*
X329068859Y-39668354D01*
X329334951Y-38448113D01*
X329601712Y-37225300D01*
X329866698Y-36011118D01*
X330127462Y-34816769D01*
X330381562Y-33653456D01*
X330626551Y-32532379D01*
X330859986Y-31464743D01*
X331079421Y-30461748D01*
X331282412Y-29534598D01*
X331466514Y-28694494D01*
X331629282Y-27952638D01*
X331768271Y-27320233D01*
X331881037Y-26808481D01*
X331965134Y-26428584D01*
X332018119Y-26191745D01*
X332037546Y-26109165D01*
X332090977Y-26118033D01*
G37*
G36*
X297878532Y-18706743D02*
G01*
X298162609Y-18758702D01*
X298569522Y-18837730D01*
X299081264Y-18940020D01*
X299679824Y-19061765D01*
X300347193Y-19199159D01*
X301065362Y-19348396D01*
X301816323Y-19505669D01*
X302582065Y-19667172D01*
X303344581Y-19829097D01*
X304085860Y-19987639D01*
X304787894Y-20138991D01*
X305432674Y-20279346D01*
X306002190Y-20404898D01*
X306478433Y-20511840D01*
X306843395Y-20596366D01*
X307079066Y-20654669D01*
X307167437Y-20682943D01*
X307166864Y-20687925D01*
X307142781Y-20808095D01*
X307085341Y-21080566D01*
X306996865Y-21494695D01*
X306879672Y-22039838D01*
X306736084Y-22705354D01*
X306568421Y-23480598D01*
X306379003Y-24354927D01*
X306170150Y-25317699D01*
X305944183Y-26358270D01*
X305703422Y-27465996D01*
X305450189Y-28630235D01*
X305186802Y-29840344D01*
X304915583Y-31085679D01*
X304638852Y-32355597D01*
X304358930Y-33639456D01*
X304078136Y-34926611D01*
X303798791Y-36206420D01*
X303523217Y-37468239D01*
X303253732Y-38701426D01*
X302992657Y-39895336D01*
X302742313Y-41039328D01*
X302505021Y-42122758D01*
X302283100Y-43134983D01*
X302078872Y-44065358D01*
X301894655Y-44903243D01*
X301732772Y-45637992D01*
X301595542Y-46258964D01*
X301485286Y-46755514D01*
X301404324Y-47117000D01*
X300842615Y-49570145D01*
X300081674Y-52787909D01*
X299298495Y-55985797D01*
X298496862Y-59150324D01*
X297680561Y-62268003D01*
X296853379Y-65325350D01*
X296019101Y-68308878D01*
X295181513Y-71205102D01*
X294344402Y-74000537D01*
X293511554Y-76681696D01*
X292686753Y-79235094D01*
X291873787Y-81647246D01*
X291076442Y-83904667D01*
X290257413Y-86081578D01*
X289201596Y-88653232D01*
X288090783Y-91101856D01*
X286912221Y-93451409D01*
X285653158Y-95725853D01*
X284300842Y-97949147D01*
X282842520Y-100145251D01*
X281265439Y-102338126D01*
X281180881Y-102451230D01*
X279425574Y-104694292D01*
X277591711Y-106839258D01*
X275668060Y-108896195D01*
X273643388Y-110875173D01*
X271506460Y-112786258D01*
X269246043Y-114639518D01*
X266850906Y-116445021D01*
X264309814Y-118212835D01*
X261611533Y-119953028D01*
X260842978Y-120420598D01*
X259906280Y-120970209D01*
X258884839Y-121552480D01*
X257811165Y-122149746D01*
X256717764Y-122744343D01*
X255637143Y-123318608D01*
X254601809Y-123854876D01*
X253644271Y-124335482D01*
X252797035Y-124742762D01*
X250998865Y-125549007D01*
X248070684Y-126725189D01*
X245061466Y-127768798D01*
X241966409Y-128680968D01*
X238780713Y-129462835D01*
X235499577Y-130115535D01*
X232118202Y-130640204D01*
X228631788Y-131037976D01*
X225035533Y-131309988D01*
X224868264Y-131319011D01*
X224251303Y-131344692D01*
X223553305Y-131364007D01*
X222792150Y-131377232D01*
X221985721Y-131384639D01*
X221151901Y-131386502D01*
X220308572Y-131383094D01*
X219473616Y-131374688D01*
X218664915Y-131361557D01*
X217900353Y-131343975D01*
X217197811Y-131322215D01*
X216575171Y-131296550D01*
X216050316Y-131267253D01*
X215641129Y-131234599D01*
X215365491Y-131198860D01*
X215241285Y-131160309D01*
X215240939Y-131157122D01*
X215259225Y-131044905D01*
X215310276Y-130782130D01*
X215391362Y-130381544D01*
X215499750Y-129855896D01*
X215632710Y-129217932D01*
X215787510Y-128480400D01*
X215961418Y-127656047D01*
X216151702Y-126757620D01*
X216355633Y-125797867D01*
X216570477Y-124789535D01*
X216793503Y-123745372D01*
X217021981Y-122678124D01*
X217253178Y-121600540D01*
X217484363Y-120525366D01*
X217712805Y-119465349D01*
X217935772Y-118433238D01*
X218150533Y-117441779D01*
X218354356Y-116503720D01*
X218544510Y-115631808D01*
X218718263Y-114838791D01*
X218872883Y-114137415D01*
X219005640Y-113540429D01*
X219113802Y-113060579D01*
X219194638Y-112710613D01*
X219240040Y-112518225D01*
X221079454Y-112572709D01*
X221797046Y-112587519D01*
X224141599Y-112552287D01*
X226568869Y-112394818D01*
X229056723Y-112118857D01*
X231583033Y-111728153D01*
X234125666Y-111226453D01*
X236662492Y-110617504D01*
X239171380Y-109905055D01*
X241630200Y-109092851D01*
X243002160Y-108587987D01*
X246011649Y-107350518D01*
X248955881Y-105958913D01*
X251826753Y-104417670D01*
X254616164Y-102731284D01*
X257316014Y-100904253D01*
X259918200Y-98941075D01*
X262011934Y-97207060D01*
X264561429Y-94900575D01*
X267011064Y-92460730D01*
X269357198Y-89891946D01*
X271596194Y-87198644D01*
X273724410Y-84385244D01*
X275738208Y-81456168D01*
X277633947Y-78415835D01*
X279407988Y-75268667D01*
X280109549Y-73929729D01*
X281379091Y-71363659D01*
X282637363Y-68635845D01*
X283882812Y-65751036D01*
X285113888Y-62713982D01*
X286329040Y-59529430D01*
X287526714Y-56202130D01*
X288705361Y-52736831D01*
X289863428Y-49138282D01*
X290999363Y-45411231D01*
X292111617Y-41560427D01*
X293198636Y-37590620D01*
X294258870Y-33506558D01*
X295290767Y-29312991D01*
X296292775Y-25014666D01*
X297263343Y-20616333D01*
X297321382Y-20348029D01*
X297435848Y-19831472D01*
X297538934Y-19382491D01*
X297624813Y-19025626D01*
X297687656Y-18785418D01*
X297721636Y-18686411D01*
X297735300Y-18685659D01*
X297878532Y-18706743D01*
G37*
G36*
X311033040Y-21652943D02*
G01*
X311285263Y-21694565D01*
X311675059Y-21767540D01*
X312189241Y-21868983D01*
X312814625Y-21996006D01*
X313538028Y-22145725D01*
X314346264Y-22315253D01*
X315226150Y-22501704D01*
X316164500Y-22702192D01*
X317148130Y-22913830D01*
X318163856Y-23133734D01*
X319198494Y-23359015D01*
X320238858Y-23586790D01*
X321271765Y-23814171D01*
X322284030Y-24038272D01*
X323262468Y-24256207D01*
X324193895Y-24465090D01*
X325065127Y-24662036D01*
X325862979Y-24844157D01*
X326574266Y-25008568D01*
X327185805Y-25152383D01*
X327684411Y-25272716D01*
X328056899Y-25366680D01*
X328290084Y-25431389D01*
X328370783Y-25463958D01*
X328369475Y-25471794D01*
X328342062Y-25604262D01*
X328279919Y-25895930D01*
X328184114Y-26341887D01*
X328055715Y-26937220D01*
X327895792Y-27677014D01*
X327705412Y-28556356D01*
X327485644Y-29570334D01*
X327237556Y-30714033D01*
X326962216Y-31982542D01*
X326660693Y-33370945D01*
X326334056Y-34874331D01*
X325983372Y-36487786D01*
X325609710Y-38206397D01*
X325214138Y-40025250D01*
X324797725Y-41939432D01*
X324361539Y-43944029D01*
X323906648Y-46034130D01*
X323434121Y-48204819D01*
X322945027Y-50451185D01*
X322440432Y-52768313D01*
X321921407Y-55151291D01*
X321389019Y-57595205D01*
X320844336Y-60095142D01*
X320288427Y-62646189D01*
X319722361Y-65243432D01*
X319147205Y-67881958D01*
X318802770Y-69461959D01*
X318208123Y-72189865D01*
X317615241Y-74909836D01*
X317025554Y-77615309D01*
X316440491Y-80299722D01*
X315861482Y-82956510D01*
X315289957Y-85579112D01*
X314727344Y-88160964D01*
X314175075Y-90695503D01*
X313634578Y-93176167D01*
X313107283Y-95596392D01*
X312594619Y-97949616D01*
X312098016Y-100229275D01*
X311618905Y-102428807D01*
X311158713Y-104541648D01*
X310718872Y-106561237D01*
X310300810Y-108481008D01*
X309905957Y-110294401D01*
X309535743Y-111994851D01*
X309191598Y-113575796D01*
X308874950Y-115030673D01*
X308587230Y-116352919D01*
X308329867Y-117535971D01*
X308104291Y-118573266D01*
X307911932Y-119458241D01*
X307754218Y-120184333D01*
X307331600Y-122129957D01*
X306711045Y-124982808D01*
X306123511Y-127678696D01*
X305567837Y-130222904D01*
X305042861Y-132620716D01*
X304547420Y-134877416D01*
X304080352Y-136998288D01*
X303640494Y-138988613D01*
X303226684Y-140853678D01*
X302837759Y-142598764D01*
X302472558Y-144229156D01*
X302129918Y-145750137D01*
X302089415Y-145929436D01*
X301908327Y-146732785D01*
X301739878Y-147482777D01*
X301587614Y-148163445D01*
X301455082Y-148758819D01*
X301345828Y-149252931D01*
X301263399Y-149629813D01*
X301211341Y-149873495D01*
X301193200Y-149968009D01*
X301167860Y-150000849D01*
X301045033Y-149995633D01*
X301007722Y-149985527D01*
X300807014Y-149937228D01*
X300460211Y-149857354D01*
X299980998Y-149748919D01*
X299383060Y-149614937D01*
X298680082Y-149458424D01*
X297885748Y-149282391D01*
X297013745Y-149089855D01*
X296077756Y-148883828D01*
X295091466Y-148667326D01*
X294068561Y-148443361D01*
X293022726Y-148214949D01*
X291967644Y-147985103D01*
X290917002Y-147756837D01*
X289884484Y-147533166D01*
X288883774Y-147317104D01*
X288804445Y-147300004D01*
X287907703Y-147106252D01*
X287062222Y-146922760D01*
X286282293Y-146752680D01*
X285582204Y-146599167D01*
X284976244Y-146465375D01*
X284478701Y-146354457D01*
X284103865Y-146269567D01*
X283866023Y-146213859D01*
X283779465Y-146190487D01*
X283789703Y-146132780D01*
X283834116Y-145916226D01*
X283912498Y-145544101D01*
X284023676Y-145021811D01*
X284166479Y-144354765D01*
X284339733Y-143548370D01*
X284542268Y-142608032D01*
X284772909Y-141539160D01*
X285030485Y-140347159D01*
X285313823Y-139037439D01*
X285621752Y-137615405D01*
X285953099Y-136086466D01*
X286306690Y-134456028D01*
X286681355Y-132729499D01*
X287075921Y-130912287D01*
X287489215Y-129009797D01*
X287920066Y-127027439D01*
X288367299Y-124970618D01*
X288829745Y-122844743D01*
X289306229Y-120655221D01*
X289795580Y-118407458D01*
X290296625Y-116106862D01*
X290808192Y-113758841D01*
X291329109Y-111368802D01*
X291703378Y-109651906D01*
X292307878Y-106878794D01*
X292932519Y-104013209D01*
X293574489Y-101068048D01*
X294230978Y-98056206D01*
X294899177Y-94990581D01*
X295576273Y-91884067D01*
X296259457Y-88749560D01*
X296945918Y-85599957D01*
X297632846Y-82448154D01*
X298317429Y-79307046D01*
X298996858Y-76189529D01*
X299668321Y-73108500D01*
X300329009Y-70076854D01*
X300976111Y-67107487D01*
X301606816Y-64213296D01*
X302218313Y-61407175D01*
X302807793Y-58702022D01*
X303372444Y-56110732D01*
X303909456Y-53646201D01*
X304416019Y-51321325D01*
X304889321Y-49149000D01*
X304959666Y-48826146D01*
X305420603Y-46711392D01*
X305872371Y-44640028D01*
X306313629Y-42618158D01*
X306743036Y-40651886D01*
X307159251Y-38747316D01*
X307560934Y-36910550D01*
X307946743Y-35147694D01*
X308315339Y-33464851D01*
X308665380Y-31868124D01*
X308995525Y-30363617D01*
X309304434Y-28957435D01*
X309590766Y-27655681D01*
X309853180Y-26464458D01*
X310090336Y-25389871D01*
X310300892Y-24438023D01*
X310483509Y-23615019D01*
X310636844Y-22926961D01*
X310759558Y-22379953D01*
X310850310Y-21980100D01*
X310907759Y-21733505D01*
X310930564Y-21646272D01*
X310931572Y-21645561D01*
X311033040Y-21652943D01*
G37*
G36*
X195739790Y-70012351D02*
G01*
X195750440Y-70169367D01*
X195960343Y-73264834D01*
X196167359Y-76318996D01*
X196371193Y-79327452D01*
X196571549Y-82285800D01*
X196768129Y-85189638D01*
X196960638Y-88034566D01*
X197148780Y-90816182D01*
X197332258Y-93530084D01*
X197510776Y-96171873D01*
X197684037Y-98737145D01*
X197851746Y-101221500D01*
X198013606Y-103620537D01*
X198169320Y-105929853D01*
X198318593Y-108145049D01*
X198461128Y-110261722D01*
X198596629Y-112275471D01*
X198724799Y-114181894D01*
X198845343Y-115976592D01*
X198957964Y-117655161D01*
X199062365Y-119213201D01*
X199158251Y-120646311D01*
X199245325Y-121950089D01*
X199323291Y-123120134D01*
X199391852Y-124152044D01*
X199450713Y-125041418D01*
X199499576Y-125783855D01*
X199538146Y-126374954D01*
X199566126Y-126810313D01*
X199583221Y-127085530D01*
X199589133Y-127196205D01*
X199588483Y-127391776D01*
X199572443Y-127576343D01*
X199528334Y-127648740D01*
X199445033Y-127643495D01*
X199437632Y-127641576D01*
X199305386Y-127611374D01*
X199018113Y-127547425D01*
X198584376Y-127451605D01*
X198012741Y-127325786D01*
X197311772Y-127171845D01*
X196490033Y-126991655D01*
X195556089Y-126787090D01*
X194518504Y-126560025D01*
X193385842Y-126312335D01*
X192166667Y-126045893D01*
X190869545Y-125762574D01*
X189503040Y-125464253D01*
X188075715Y-125152804D01*
X186596136Y-124830101D01*
X185072867Y-124498019D01*
X184714317Y-124419867D01*
X183203108Y-124090382D01*
X181738921Y-123771007D01*
X180330215Y-123463594D01*
X178985450Y-123169993D01*
X177713085Y-122892057D01*
X176521580Y-122631637D01*
X175419394Y-122390584D01*
X174414988Y-122170749D01*
X173516820Y-121973985D01*
X172733351Y-121802141D01*
X172073040Y-121657070D01*
X171544346Y-121540623D01*
X171155730Y-121454652D01*
X170915650Y-121401007D01*
X170832566Y-121381540D01*
X170829414Y-121306152D01*
X170823249Y-121070543D01*
X170814365Y-120683989D01*
X170802952Y-120155951D01*
X170789196Y-119495891D01*
X170773284Y-118713271D01*
X170755404Y-117817550D01*
X170735743Y-116818192D01*
X170714489Y-115724657D01*
X170691828Y-114546407D01*
X170667949Y-113292902D01*
X170643039Y-111973605D01*
X170617284Y-110597976D01*
X170590872Y-109175477D01*
X170565997Y-107837875D01*
X170540044Y-106458829D01*
X170514826Y-105135431D01*
X170490537Y-103877153D01*
X170467370Y-102693466D01*
X170445519Y-101593842D01*
X170425178Y-100587752D01*
X170406539Y-99684668D01*
X170389796Y-98894061D01*
X170375143Y-98225402D01*
X170362774Y-97688164D01*
X170352881Y-97291817D01*
X170345659Y-97045832D01*
X170341300Y-96959682D01*
X170332552Y-96957125D01*
X170199445Y-96926077D01*
X169913607Y-96861817D01*
X169484679Y-96766449D01*
X168922301Y-96642078D01*
X168236114Y-96490808D01*
X167435760Y-96314742D01*
X166530878Y-96115985D01*
X165531109Y-95896640D01*
X164446095Y-95658813D01*
X163285476Y-95404607D01*
X162058892Y-95136127D01*
X160775985Y-94855476D01*
X159446395Y-94564758D01*
X158079763Y-94266078D01*
X156685729Y-93961539D01*
X155273935Y-93653247D01*
X153854020Y-93343305D01*
X152435627Y-93033816D01*
X151028395Y-92726886D01*
X149641966Y-92424619D01*
X148285979Y-92129118D01*
X146970077Y-91842487D01*
X145703899Y-91566831D01*
X144497086Y-91304254D01*
X143359279Y-91056860D01*
X142300119Y-90826753D01*
X141329246Y-90616037D01*
X140456302Y-90426817D01*
X139690926Y-90261196D01*
X139042761Y-90121278D01*
X138521445Y-90009168D01*
X138136621Y-89926970D01*
X137897929Y-89876788D01*
X137815009Y-89860726D01*
X137814984Y-89860755D01*
X137773478Y-89937422D01*
X137657069Y-90155252D01*
X137470175Y-90505930D01*
X137217216Y-90981142D01*
X136902611Y-91572572D01*
X136530778Y-92271906D01*
X136106136Y-93070829D01*
X135633104Y-93961026D01*
X135116102Y-94934183D01*
X134559547Y-95981983D01*
X133967859Y-97096113D01*
X133345457Y-98268258D01*
X132696759Y-99490103D01*
X132026185Y-100753333D01*
X132018314Y-100768161D01*
X131347952Y-102031021D01*
X130699525Y-103252445D01*
X130077451Y-104424117D01*
X129486149Y-105537716D01*
X128930038Y-106584925D01*
X128413538Y-107557426D01*
X127941067Y-108446899D01*
X127517044Y-109245027D01*
X127145888Y-109943492D01*
X126832019Y-110533973D01*
X126579854Y-111008155D01*
X126393812Y-111357717D01*
X126278314Y-111574341D01*
X126237777Y-111649710D01*
X126226602Y-111649355D01*
X126086947Y-111624462D01*
X125795795Y-111565824D01*
X125363372Y-111475693D01*
X124799900Y-111356320D01*
X124115605Y-111209957D01*
X123320711Y-111038855D01*
X122425441Y-110845266D01*
X121440019Y-110631441D01*
X120374671Y-110399633D01*
X119239619Y-110152092D01*
X118045087Y-109891070D01*
X116801301Y-109618818D01*
X115518484Y-109337589D01*
X114206860Y-109049633D01*
X112876653Y-108757203D01*
X111538087Y-108462549D01*
X110201387Y-108167924D01*
X108876776Y-107875578D01*
X107574479Y-107587765D01*
X106304719Y-107306734D01*
X105077721Y-107034737D01*
X103903709Y-106774027D01*
X102792907Y-106526854D01*
X101755539Y-106295471D01*
X100801829Y-106082128D01*
X99942000Y-105889078D01*
X99186279Y-105718571D01*
X98544887Y-105572860D01*
X98028050Y-105454196D01*
X97645991Y-105364830D01*
X97408935Y-105307014D01*
X97327106Y-105283000D01*
X97359644Y-105215894D01*
X97470621Y-105006106D01*
X97657102Y-104659817D01*
X97915721Y-104183158D01*
X98243111Y-103582254D01*
X98635906Y-102863235D01*
X99090741Y-102032228D01*
X99604250Y-101095360D01*
X100173067Y-100058762D01*
X100793825Y-98928559D01*
X101463160Y-97710880D01*
X102177705Y-96411853D01*
X102934095Y-95037606D01*
X103728963Y-93594266D01*
X104558944Y-92087963D01*
X105420671Y-90524823D01*
X106310779Y-88910975D01*
X107225902Y-87252547D01*
X108162675Y-85555667D01*
X108310923Y-85287190D01*
X109251160Y-83584424D01*
X110265615Y-81747255D01*
X111347735Y-79787550D01*
X112490968Y-77717172D01*
X113688762Y-75547986D01*
X114934567Y-73291859D01*
X116221829Y-70960656D01*
X117543996Y-68566240D01*
X118894519Y-66120478D01*
X119012888Y-65906114D01*
X149570255Y-65906114D01*
X149594087Y-65912216D01*
X149760372Y-65950127D01*
X150076466Y-66020569D01*
X150532052Y-66121283D01*
X151116813Y-66250007D01*
X151820433Y-66404484D01*
X152632594Y-66582452D01*
X153542981Y-66781652D01*
X154541275Y-66999824D01*
X155617161Y-67234708D01*
X156760322Y-67484045D01*
X157960440Y-67745575D01*
X159207200Y-68017037D01*
X159831433Y-68152914D01*
X161061150Y-68420691D01*
X162241376Y-68677825D01*
X163361568Y-68922014D01*
X164411182Y-69150955D01*
X165379676Y-69362343D01*
X166256507Y-69553875D01*
X167031130Y-69723248D01*
X167693003Y-69868157D01*
X168231582Y-69986300D01*
X168636325Y-70075373D01*
X168896688Y-70133072D01*
X169002127Y-70157093D01*
X169095394Y-70174628D01*
X169152910Y-70140680D01*
X169165560Y-70012351D01*
X169146547Y-69752671D01*
X169138346Y-69640244D01*
X169119694Y-69363456D01*
X169091363Y-68933095D01*
X169053867Y-68357165D01*
X169007716Y-67643671D01*
X168953422Y-66800619D01*
X168891497Y-65836014D01*
X168822452Y-64757861D01*
X168746799Y-63574165D01*
X168665050Y-62292931D01*
X168577715Y-60922165D01*
X168485307Y-59469871D01*
X168388338Y-57944054D01*
X168287318Y-56352721D01*
X168182760Y-54703875D01*
X168075175Y-53005521D01*
X167965074Y-51265667D01*
X167858901Y-49588167D01*
X167751732Y-47897315D01*
X167647724Y-46258724D01*
X167547376Y-44680174D01*
X167451189Y-43169450D01*
X167359661Y-41734333D01*
X167273292Y-40382605D01*
X167192582Y-39122051D01*
X167118030Y-37960451D01*
X167050135Y-36905589D01*
X166989398Y-35965247D01*
X166936317Y-35147208D01*
X166891393Y-34459253D01*
X166855124Y-33909167D01*
X166828010Y-33504731D01*
X166810551Y-33253727D01*
X166803246Y-33163939D01*
X166801429Y-33165420D01*
X166746024Y-33260600D01*
X166616164Y-33497673D01*
X166415421Y-33869889D01*
X166147367Y-34370499D01*
X165815574Y-34992755D01*
X165423614Y-35729906D01*
X164975058Y-36575204D01*
X164473477Y-37521900D01*
X163922445Y-38563244D01*
X163325532Y-39692487D01*
X162686310Y-40902880D01*
X162008351Y-42187675D01*
X161295227Y-43540120D01*
X160550509Y-44953469D01*
X159777769Y-46420971D01*
X158980580Y-47935877D01*
X158162512Y-49491438D01*
X158009570Y-49782361D01*
X157195135Y-51331938D01*
X156402674Y-52840333D01*
X155635743Y-54300756D01*
X154897897Y-55706415D01*
X154192692Y-57050518D01*
X153523682Y-58326272D01*
X152894422Y-59526886D01*
X152308468Y-60645569D01*
X151769376Y-61675527D01*
X151280699Y-62609970D01*
X150845994Y-63442105D01*
X150468816Y-64165141D01*
X150152719Y-64772286D01*
X149901259Y-65256747D01*
X149717992Y-65611733D01*
X149606472Y-65830453D01*
X149570255Y-65906114D01*
X119012888Y-65906114D01*
X120266843Y-63635235D01*
X121654418Y-61122376D01*
X123050692Y-58593766D01*
X124449113Y-56061270D01*
X125843129Y-53536754D01*
X127226188Y-51032082D01*
X128591738Y-48559119D01*
X129933228Y-46129732D01*
X131244106Y-43755785D01*
X132517820Y-41449142D01*
X133747819Y-39221671D01*
X148486641Y-12530343D01*
X170165210Y-12551671D01*
X191843778Y-12573000D01*
X195714422Y-69638333D01*
X195739790Y-70012351D01*
G37*
G36*
X160728435Y-125854108D02*
G01*
X164287200Y-129413000D01*
X172965224Y-138091333D01*
X111158557Y-138091333D01*
X49351890Y-138091333D01*
X40673867Y-129413000D01*
X37244989Y-125984000D01*
X61501867Y-125984000D01*
X63787867Y-125984000D01*
X66073867Y-125984000D01*
X66073867Y-127000000D01*
X66073867Y-128016000D01*
X63914867Y-128016000D01*
X61755867Y-128016000D01*
X61755867Y-129116667D01*
X61755867Y-130217333D01*
X63914867Y-130217333D01*
X66073867Y-130217333D01*
X66073867Y-131487333D01*
X66073867Y-132757333D01*
X63809033Y-132757410D01*
X61544200Y-132757486D01*
X61544200Y-133858095D01*
X61544200Y-134958703D01*
X64422867Y-134950180D01*
X64907589Y-134947705D01*
X65577576Y-134940784D01*
X66190306Y-134930440D01*
X66517144Y-134922357D01*
X70053200Y-134922357D01*
X70073619Y-134927675D01*
X70229530Y-134937608D01*
X70518906Y-134946132D01*
X70917789Y-134952790D01*
X71402220Y-134957121D01*
X71948240Y-134958667D01*
X73843280Y-134958667D01*
X74883513Y-133307667D01*
X75056422Y-133034375D01*
X75339429Y-132592274D01*
X75585820Y-132213894D01*
X75782363Y-131919232D01*
X75915825Y-131728290D01*
X75972973Y-131661068D01*
X75998026Y-131687567D01*
X76104144Y-131834369D01*
X76279463Y-132092246D01*
X76510710Y-132441289D01*
X76784610Y-132861588D01*
X77087889Y-133333234D01*
X78153577Y-135001000D01*
X80034519Y-135023798D01*
X81915461Y-135046597D01*
X80073735Y-132314465D01*
X80010602Y-132220823D01*
X79594471Y-131604209D01*
X79201222Y-131022527D01*
X78842797Y-130493370D01*
X78531138Y-130034330D01*
X78278188Y-129663000D01*
X78095887Y-129396974D01*
X77996179Y-129253843D01*
X77760349Y-128925353D01*
X78382230Y-128026176D01*
X78471268Y-127897536D01*
X78738822Y-127511638D01*
X79069174Y-127035827D01*
X79438452Y-126504461D01*
X79800454Y-125984000D01*
X87917867Y-125984000D01*
X88933867Y-125984000D01*
X89949867Y-125984000D01*
X89949867Y-130471333D01*
X89949867Y-134958667D01*
X91135200Y-134958667D01*
X92320533Y-134958667D01*
X92320533Y-130471333D01*
X92320533Y-125984000D01*
X93378867Y-125984000D01*
X94437200Y-125984000D01*
X94437200Y-124883333D01*
X94437200Y-123782667D01*
X91177533Y-123782667D01*
X87917867Y-123782667D01*
X87917867Y-124883333D01*
X87917867Y-125984000D01*
X79800454Y-125984000D01*
X79822782Y-125951899D01*
X80198291Y-125412500D01*
X81392470Y-123698000D01*
X96215200Y-123698000D01*
X96215200Y-123782667D01*
X96215200Y-128868233D01*
X96215653Y-129640523D01*
X96218261Y-130726102D01*
X96223286Y-131652623D01*
X96230839Y-132426369D01*
X96241033Y-133053625D01*
X96253979Y-133540672D01*
X96269789Y-133893795D01*
X96288574Y-134119276D01*
X96310447Y-134223399D01*
X96410939Y-134388425D01*
X96678727Y-134695810D01*
X96977200Y-134914366D01*
X97022136Y-134936047D01*
X97386158Y-135044361D01*
X97413297Y-135046597D01*
X97786502Y-135077345D01*
X98134112Y-135026378D01*
X98209535Y-134999423D01*
X98358866Y-134927810D01*
X98503301Y-134824533D01*
X98651278Y-134676031D01*
X98811232Y-134468743D01*
X98991597Y-134189106D01*
X99200810Y-133823560D01*
X99447306Y-133358542D01*
X99739520Y-132780490D01*
X100085888Y-132075844D01*
X100494845Y-131231042D01*
X100616387Y-130979109D01*
X100935389Y-130320606D01*
X101230636Y-129714990D01*
X101493895Y-129178899D01*
X101716936Y-128728972D01*
X101891527Y-128381848D01*
X102009434Y-128154167D01*
X102062427Y-128062566D01*
X102081084Y-128112997D01*
X102098871Y-128322895D01*
X102113847Y-128686399D01*
X102125823Y-129195322D01*
X102134610Y-129841477D01*
X102140021Y-130616676D01*
X102141867Y-131512733D01*
X102141867Y-135043333D01*
X103284867Y-135043333D01*
X104427867Y-135043333D01*
X113571867Y-135043333D01*
X114312700Y-135032597D01*
X114580569Y-135025845D01*
X115580041Y-134939311D01*
X116467143Y-134751301D01*
X117266404Y-134453200D01*
X118002349Y-134036399D01*
X118699505Y-133492284D01*
X118705822Y-133486646D01*
X119166266Y-132998806D01*
X119598925Y-132400773D01*
X119966519Y-131750599D01*
X120231766Y-131106333D01*
X120293958Y-130896102D01*
X120435446Y-130191264D01*
X120501331Y-129441255D01*
X120488241Y-128709813D01*
X120392808Y-128060673D01*
X120339096Y-127849998D01*
X120007537Y-126955118D01*
X119532797Y-126143990D01*
X119396805Y-125984000D01*
X122207867Y-125984000D01*
X123901200Y-125984000D01*
X125594533Y-125984000D01*
X125594533Y-127000000D01*
X125594533Y-128016000D01*
X124028200Y-128016000D01*
X122461867Y-128016000D01*
X122461867Y-129116667D01*
X122461867Y-129441255D01*
X122461867Y-130217333D01*
X124028200Y-130217333D01*
X125594533Y-130217333D01*
X125594533Y-131487333D01*
X125594533Y-132757333D01*
X123943533Y-132757333D01*
X122292533Y-132757333D01*
X122292533Y-133858000D01*
X122292533Y-134958667D01*
X124388033Y-134954950D01*
X125014287Y-134951881D01*
X125609795Y-134942999D01*
X126069989Y-134927541D01*
X126413220Y-134904582D01*
X126657840Y-134873201D01*
X126822200Y-134832473D01*
X127085873Y-134698436D01*
X127425891Y-134408390D01*
X127703017Y-134041888D01*
X127870329Y-133651785D01*
X127886212Y-133549383D01*
X127907414Y-133268710D01*
X127925465Y-132854770D01*
X127940361Y-132329175D01*
X127952099Y-131713537D01*
X127960675Y-131029469D01*
X127966085Y-130298583D01*
X127968325Y-129542490D01*
X127968066Y-129331030D01*
X129743235Y-129331030D01*
X129753899Y-129542490D01*
X129781379Y-130087427D01*
X129907209Y-130767921D01*
X130145232Y-131488001D01*
X130463875Y-132143166D01*
X130883610Y-132749411D01*
X131434369Y-133357492D01*
X131716199Y-133625913D01*
X132396532Y-134160885D01*
X133109907Y-134557729D01*
X133891867Y-134837857D01*
X134072322Y-134875888D01*
X134439714Y-134924284D01*
X134897352Y-134964082D01*
X135402161Y-134993463D01*
X135911065Y-135010608D01*
X136380990Y-135013697D01*
X136768860Y-135000913D01*
X137031599Y-134970437D01*
X137413492Y-134839097D01*
X137852436Y-134541508D01*
X138189449Y-134125798D01*
X138421533Y-133731000D01*
X138421533Y-129455333D01*
X138421533Y-129413000D01*
X145152533Y-129413000D01*
X145180374Y-130102285D01*
X145277841Y-130721822D01*
X145460972Y-131315877D01*
X145745775Y-131953000D01*
X145921349Y-132276481D01*
X146470144Y-133050078D01*
X147137938Y-133713313D01*
X147163144Y-133731000D01*
X147908887Y-134254280D01*
X148767146Y-134661076D01*
X149696874Y-134921795D01*
X150187003Y-134997052D01*
X151005844Y-135025444D01*
X151800469Y-134918910D01*
X152024207Y-134861821D01*
X152368281Y-134754794D01*
X152730828Y-134626461D01*
X153066572Y-134493948D01*
X153330240Y-134374382D01*
X153476560Y-134284888D01*
X153481062Y-134277784D01*
X153458271Y-134162324D01*
X153359921Y-133953618D01*
X153204176Y-133691253D01*
X152821521Y-133000215D01*
X152492886Y-132101289D01*
X152326151Y-131166257D01*
X152323565Y-130209066D01*
X152487377Y-129243667D01*
X152690046Y-128640725D01*
X153040912Y-127932474D01*
X153485648Y-127266806D01*
X153995472Y-126685917D01*
X154541606Y-126231999D01*
X154735635Y-126090954D01*
X154905469Y-125944521D01*
X154971684Y-125854108D01*
X154969013Y-125835723D01*
X154882278Y-125697409D01*
X154696088Y-125493808D01*
X154441448Y-125253040D01*
X154149362Y-125003228D01*
X153850833Y-124772494D01*
X153576867Y-124588959D01*
X153146811Y-124354339D01*
X152408430Y-124062285D01*
X151620937Y-123893404D01*
X150740533Y-123836071D01*
X150423960Y-123838338D01*
X149826275Y-123877099D01*
X149305373Y-123973310D01*
X148800734Y-124140494D01*
X148251834Y-124392176D01*
X147562150Y-124793494D01*
X146828409Y-125379965D01*
X146224080Y-126070698D01*
X145741770Y-126873000D01*
X145470059Y-127485254D01*
X145282770Y-128084739D01*
X145182371Y-128703858D01*
X145152533Y-129413000D01*
X138421533Y-129413000D01*
X138421532Y-129312590D01*
X138421325Y-128374273D01*
X138420349Y-127588365D01*
X138418016Y-126939998D01*
X138413737Y-126414305D01*
X138406923Y-125996420D01*
X138396985Y-125671475D01*
X138383334Y-125424603D01*
X138365383Y-125240937D01*
X138342541Y-125105611D01*
X138314221Y-125003758D01*
X138279832Y-124920510D01*
X138238788Y-124841000D01*
X138114934Y-124636392D01*
X137723988Y-124200329D01*
X137236200Y-123899931D01*
X137227846Y-123896410D01*
X136929767Y-123819200D01*
X136507173Y-123770794D01*
X136000767Y-123750666D01*
X135451252Y-123758290D01*
X134899333Y-123793138D01*
X134385712Y-123854686D01*
X133951093Y-123942406D01*
X133172221Y-124210980D01*
X132335876Y-124654202D01*
X131583686Y-125224156D01*
X130934319Y-125903837D01*
X130406444Y-126676239D01*
X130018730Y-127524358D01*
X129921180Y-127847281D01*
X129790571Y-128562919D01*
X129743235Y-129331030D01*
X127968066Y-129331030D01*
X127967393Y-128782803D01*
X127963285Y-128041134D01*
X127955996Y-127339096D01*
X127945524Y-126698299D01*
X127931865Y-126140357D01*
X127915016Y-125686882D01*
X127894972Y-125359486D01*
X127871730Y-125179780D01*
X127777217Y-124924493D01*
X127527446Y-124528829D01*
X127194509Y-124182296D01*
X126826925Y-123942359D01*
X126759770Y-123913889D01*
X126627713Y-123871463D01*
X126462561Y-123839426D01*
X126241609Y-123816334D01*
X125942152Y-123800742D01*
X125541484Y-123791206D01*
X125016902Y-123786282D01*
X124345700Y-123784526D01*
X122207867Y-123782667D01*
X122207867Y-124883333D01*
X122207867Y-125984000D01*
X119396805Y-125984000D01*
X118923638Y-125427335D01*
X118188821Y-124815878D01*
X117337105Y-124320341D01*
X116863451Y-124120560D01*
X116196601Y-123928978D01*
X115459445Y-123819651D01*
X114609033Y-123784137D01*
X113656533Y-123782667D01*
X113656533Y-124883333D01*
X113656533Y-125984000D01*
X114143367Y-125985677D01*
X114964181Y-126034601D01*
X115806320Y-126205256D01*
X116533106Y-126497794D01*
X117142929Y-126911718D01*
X117579228Y-127358099D01*
X117943602Y-127935998D01*
X118158051Y-128586981D01*
X118227617Y-129322249D01*
X118224950Y-129371067D01*
X118202288Y-129785911D01*
X118043554Y-130513881D01*
X117737765Y-131160095D01*
X117283297Y-131728690D01*
X116857566Y-132106602D01*
X116375859Y-132409657D01*
X115842841Y-132610367D01*
X115223302Y-132721647D01*
X114482033Y-132756417D01*
X113571867Y-132757333D01*
X113571867Y-133900333D01*
X113571867Y-135043333D01*
X104427867Y-135043333D01*
X104427858Y-134958667D01*
X106121200Y-134958667D01*
X108216700Y-134954950D01*
X108842954Y-134951881D01*
X109438462Y-134942999D01*
X109898656Y-134927541D01*
X110241887Y-134904582D01*
X110486507Y-134873201D01*
X110650867Y-134832473D01*
X110957634Y-134665146D01*
X111280056Y-134380463D01*
X111547241Y-134040400D01*
X111707315Y-133700536D01*
X111709333Y-133692519D01*
X111729781Y-133517237D01*
X111747402Y-133195617D01*
X111762207Y-132748700D01*
X111774206Y-132197525D01*
X111783409Y-131563133D01*
X111789828Y-130866566D01*
X111793471Y-130128864D01*
X111794349Y-129371067D01*
X111792474Y-128614216D01*
X111787854Y-127879353D01*
X111780501Y-127187517D01*
X111770425Y-126559749D01*
X111757635Y-126017090D01*
X111742144Y-125580581D01*
X111723960Y-125271262D01*
X111703094Y-125110174D01*
X111579035Y-124827084D01*
X111323361Y-124474249D01*
X110997784Y-124160771D01*
X110650867Y-123940626D01*
X110600402Y-123918832D01*
X110469872Y-123874948D01*
X110307544Y-123841746D01*
X110090497Y-123817757D01*
X109795810Y-123801510D01*
X109400562Y-123791536D01*
X108881832Y-123786364D01*
X108216700Y-123784526D01*
X106121200Y-123782667D01*
X106121200Y-124883333D01*
X106121200Y-125984000D01*
X107772200Y-125984000D01*
X109423200Y-125984000D01*
X109423200Y-127000000D01*
X109423200Y-128016000D01*
X107856867Y-128016000D01*
X106290533Y-128016000D01*
X106290533Y-129116667D01*
X106290533Y-130217333D01*
X107856867Y-130217333D01*
X109423200Y-130217333D01*
X109423200Y-131487333D01*
X109423200Y-132757333D01*
X107772200Y-132757333D01*
X106121200Y-132757333D01*
X106121200Y-133858000D01*
X106121200Y-134958667D01*
X104427858Y-134958667D01*
X104427376Y-130323167D01*
X104426474Y-129253984D01*
X104423439Y-128299567D01*
X104417580Y-127487551D01*
X104408200Y-126804238D01*
X104394605Y-126235925D01*
X104376099Y-125768914D01*
X104351986Y-125389503D01*
X104321572Y-125083992D01*
X104284160Y-124838681D01*
X104239054Y-124639868D01*
X104185561Y-124473855D01*
X104122983Y-124326940D01*
X103975999Y-124092740D01*
X103648997Y-123800681D01*
X103242597Y-123619003D01*
X102798037Y-123563511D01*
X102356561Y-123650010D01*
X102327981Y-123661108D01*
X102142933Y-123745361D01*
X101971898Y-123853574D01*
X101805529Y-124000210D01*
X101634479Y-124199734D01*
X101449401Y-124466609D01*
X101240946Y-124815300D01*
X100999767Y-125260271D01*
X100716518Y-125815985D01*
X100381849Y-126496906D01*
X99986414Y-127317500D01*
X99971373Y-127348884D01*
X99664113Y-127986109D01*
X99378345Y-128571634D01*
X99122569Y-129088570D01*
X98905286Y-129520030D01*
X98734997Y-129849125D01*
X98620203Y-130058966D01*
X98569404Y-130132667D01*
X98566862Y-130130446D01*
X98551781Y-130023074D01*
X98537950Y-129767746D01*
X98525759Y-129382849D01*
X98515599Y-128886772D01*
X98507860Y-128297901D01*
X98502930Y-127634626D01*
X98501200Y-126915333D01*
X98501200Y-123698000D01*
X97358200Y-123698000D01*
X96215200Y-123698000D01*
X81392470Y-123698000D01*
X79554002Y-123702275D01*
X77715533Y-123706551D01*
X76882648Y-125014609D01*
X76624967Y-125414254D01*
X76383968Y-125777913D01*
X76186291Y-126065544D01*
X76047424Y-126254634D01*
X75982855Y-126322667D01*
X75923016Y-126259850D01*
X75788169Y-126074671D01*
X75594522Y-125789616D01*
X75357423Y-125427298D01*
X75092218Y-125010333D01*
X74268488Y-123698000D01*
X72453145Y-123698000D01*
X70637802Y-123698000D01*
X71378900Y-124777500D01*
X71655185Y-125179611D01*
X72008183Y-125692819D01*
X72397261Y-126258055D01*
X72791738Y-126830747D01*
X73160932Y-127366324D01*
X73285966Y-127547835D01*
X73578647Y-127974519D01*
X73830469Y-128344165D01*
X74027540Y-128636231D01*
X74155970Y-128830178D01*
X74201867Y-128905467D01*
X74184815Y-128933744D01*
X74084623Y-129083499D01*
X73917472Y-129328333D01*
X73903319Y-129349063D01*
X73650827Y-129716054D01*
X73337076Y-130170091D01*
X72971993Y-130696794D01*
X72565503Y-131281779D01*
X72127533Y-131910667D01*
X71862406Y-132291257D01*
X71442002Y-132896028D01*
X71059028Y-133448532D01*
X70723414Y-133934349D01*
X70445093Y-134339059D01*
X70233996Y-134648244D01*
X70100054Y-134847483D01*
X70053200Y-134922357D01*
X66517144Y-134922357D01*
X66723363Y-134917257D01*
X67154332Y-134901823D01*
X67460799Y-134884723D01*
X67620349Y-134866545D01*
X67820978Y-134809468D01*
X68288680Y-134599615D01*
X68695908Y-134312840D01*
X69006462Y-133977916D01*
X69184143Y-133623614D01*
X69197132Y-133494425D01*
X69209264Y-133213451D01*
X69220258Y-132798374D01*
X69229849Y-132266820D01*
X69237771Y-131636414D01*
X69243758Y-130924780D01*
X69247545Y-130149545D01*
X69248867Y-129328333D01*
X69248649Y-128638730D01*
X69247367Y-127806419D01*
X69244499Y-127117939D01*
X69239548Y-126558405D01*
X69232020Y-126112930D01*
X69221421Y-125766629D01*
X69207254Y-125504617D01*
X69189027Y-125312007D01*
X69166242Y-125173913D01*
X69138407Y-125075451D01*
X69105025Y-125001735D01*
X69034799Y-124889082D01*
X68744292Y-124557842D01*
X68361811Y-124247285D01*
X67940835Y-124003279D01*
X67856628Y-123966208D01*
X67743777Y-123926008D01*
X67609974Y-123893817D01*
X67436671Y-123868529D01*
X67205320Y-123849039D01*
X66897375Y-123834240D01*
X66494287Y-123823027D01*
X65977511Y-123814294D01*
X65328497Y-123806935D01*
X64528700Y-123799845D01*
X61501867Y-123774690D01*
X61501867Y-124879345D01*
X61501867Y-125984000D01*
X37244989Y-125984000D01*
X31995843Y-120734667D01*
X93802510Y-120734667D01*
X155609177Y-120734667D01*
X160728435Y-125854108D01*
G37*
%LPC*%
D15*
X337879999Y-52062499D03*
X340379999Y-52062499D03*
X342879999Y-52062499D03*
D16*
X345380000Y-52062500D03*
D17*
X320459999Y-58729999D03*
D18*
X320460000Y-64060000D03*
D17*
X320459999Y-69389999D03*
D19*
X323329999Y-60559999D03*
D20*
X324709999Y-68759999D03*
D21*
X325540000Y-66600000D03*
D22*
X326209999Y-61459999D03*
D23*
X326460000Y-64060000D03*
D17*
X301409999Y-58729999D03*
D18*
X301410000Y-64060000D03*
D17*
X301409999Y-69389999D03*
D24*
X297159999Y-59359999D03*
D25*
X298539999Y-67559999D03*
D23*
X295410000Y-64060000D03*
D22*
X295659999Y-66659999D03*
D21*
X296330000Y-61520000D03*
D26*
X282266250Y-114225000D03*
D27*
X282266250Y-129465000D03*
D28*
X288936249Y-121209999D03*
D18*
X294266250Y-121210000D03*
D28*
X299596249Y-121209999D03*
D26*
X306266250Y-114225000D03*
D27*
X306266250Y-129465000D03*
D29*
X289566249Y-125459999D03*
D30*
X297766249Y-124079999D03*
D21*
X291726250Y-126290000D03*
D23*
X294266250Y-127210000D03*
D31*
X296866249Y-126959999D03*
D28*
X254408124Y-140259999D03*
D18*
X259738125Y-140260000D03*
D28*
X265068124Y-140259999D03*
D29*
X255038124Y-144509999D03*
D30*
X263238124Y-143129999D03*
D21*
X257198125Y-145340000D03*
D23*
X259738125Y-146260000D03*
D31*
X262338124Y-146009999D03*
D28*
X109151874Y-140259999D03*
D18*
X114481875Y-140260000D03*
D28*
X119811874Y-140259999D03*
D29*
X109781874Y-144509999D03*
D30*
X117981874Y-143129999D03*
D21*
X111941875Y-145340000D03*
D23*
X114481875Y-146260000D03*
D31*
X117081874Y-146009999D03*
D26*
X137110000Y-133275000D03*
D27*
X137110000Y-148515000D03*
D28*
X181779999Y-140259999D03*
D18*
X187110000Y-140260000D03*
D28*
X192439999Y-140259999D03*
D26*
X237110000Y-133275000D03*
D27*
X237110000Y-148515000D03*
D29*
X182409999Y-144509999D03*
D30*
X190609999Y-143129999D03*
D21*
X184570000Y-145340000D03*
D23*
X187110000Y-146260000D03*
D31*
X189709999Y-146009999D03*
X68266249Y-126959999D03*
D23*
X65666250Y-127210000D03*
D21*
X63126250Y-126290000D03*
D30*
X69166249Y-124079999D03*
D29*
X60966249Y-125459999D03*
D27*
X77666250Y-129465000D03*
D26*
X77666250Y-114225000D03*
D28*
X70996249Y-121209999D03*
D18*
X65666250Y-121210000D03*
D28*
X60336249Y-121209999D03*
D27*
X53666250Y-129465000D03*
D26*
X53666250Y-114225000D03*
X48903750Y-95175000D03*
D27*
X48903750Y-110415000D03*
D28*
X55573749Y-102159999D03*
D18*
X60903750Y-102160000D03*
D28*
X66233749Y-102159999D03*
D26*
X72903750Y-95175000D03*
D27*
X72903750Y-110415000D03*
D29*
X56203749Y-106409999D03*
D30*
X64403749Y-105029999D03*
D21*
X58363750Y-107240000D03*
D23*
X60903750Y-108160000D03*
D31*
X63503749Y-107909999D03*
D28*
X53192499Y-83109999D03*
D18*
X58522500Y-83110000D03*
D28*
X63852499Y-83109999D03*
D29*
X53822499Y-87359999D03*
D30*
X62022499Y-85979999D03*
D21*
X55982500Y-88190000D03*
D23*
X58522500Y-89110000D03*
D31*
X61122499Y-88859999D03*
D28*
X312748749Y-102159999D03*
D18*
X318078750Y-102160000D03*
D28*
X323408749Y-102159999D03*
D29*
X313378749Y-106409999D03*
D30*
X321578749Y-105029999D03*
D21*
X315538750Y-107240000D03*
D23*
X318078750Y-108160000D03*
D31*
X320678749Y-107909999D03*
D28*
X291317499Y-102159999D03*
D18*
X296647500Y-102160000D03*
D28*
X301977499Y-102159999D03*
D29*
X291947499Y-106409999D03*
D30*
X300147499Y-105029999D03*
D21*
X294107500Y-107240000D03*
D23*
X296647500Y-108160000D03*
D31*
X299247499Y-107909999D03*
D28*
X181779999Y-64059999D03*
D18*
X187110000Y-64060000D03*
D28*
X192439999Y-64059999D03*
D29*
X182409999Y-68309999D03*
D30*
X190609999Y-66929999D03*
D21*
X184570000Y-69140000D03*
D23*
X187110000Y-70060000D03*
D31*
X189709999Y-69809999D03*
D28*
X86529999Y-64059999D03*
D18*
X91860000Y-64060000D03*
D28*
X97189999Y-64059999D03*
D29*
X87159999Y-68309999D03*
D30*
X95359999Y-66929999D03*
D21*
X89320000Y-69140000D03*
D23*
X91860000Y-70060000D03*
D31*
X94459999Y-69809999D03*
D28*
X257979999Y-64059999D03*
D18*
X263310000Y-64060000D03*
D28*
X268639999Y-64059999D03*
D29*
X258609999Y-68309999D03*
D30*
X266809999Y-66929999D03*
D21*
X260770000Y-69140000D03*
D23*
X263310000Y-70060000D03*
D31*
X265909999Y-69809999D03*
D28*
X67479999Y-64059999D03*
D18*
X72810000Y-64060000D03*
D28*
X78139999Y-64059999D03*
D29*
X68109999Y-68309999D03*
D30*
X76309999Y-66929999D03*
D21*
X70270000Y-69140000D03*
D23*
X72810000Y-70060000D03*
D31*
X75409999Y-69809999D03*
D28*
X124629999Y-64059999D03*
D18*
X129960000Y-64060000D03*
D28*
X135289999Y-64059999D03*
D29*
X125259999Y-68309999D03*
D30*
X133459999Y-66929999D03*
D21*
X127420000Y-69140000D03*
D23*
X129960000Y-70060000D03*
D31*
X132559999Y-69809999D03*
D28*
X277029999Y-64059999D03*
D18*
X282360000Y-64060000D03*
D28*
X287689999Y-64059999D03*
D29*
X277659999Y-68309999D03*
D30*
X285859999Y-66929999D03*
D21*
X279820000Y-69140000D03*
D23*
X282360000Y-70060000D03*
D31*
X284959999Y-69809999D03*
D28*
X105579999Y-64059999D03*
D18*
X110910000Y-64060000D03*
D28*
X116239999Y-64059999D03*
D29*
X106209999Y-68309999D03*
D30*
X114409999Y-66929999D03*
D21*
X108370000Y-69140000D03*
D23*
X110910000Y-70060000D03*
D31*
X113509999Y-69809999D03*
D28*
X143679999Y-64059999D03*
D18*
X149010000Y-64060000D03*
D28*
X154339999Y-64059999D03*
D29*
X144309999Y-68309999D03*
D30*
X152509999Y-66929999D03*
D21*
X146470000Y-69140000D03*
D23*
X149010000Y-70060000D03*
D31*
X151609999Y-69809999D03*
D28*
X238929999Y-64059999D03*
D18*
X244260000Y-64060000D03*
D28*
X249589999Y-64059999D03*
D29*
X239559999Y-68309999D03*
D30*
X247759999Y-66929999D03*
D21*
X241720000Y-69140000D03*
D23*
X244260000Y-70060000D03*
D31*
X246859999Y-69809999D03*
D28*
X219879999Y-64059999D03*
D18*
X225210000Y-64060000D03*
D28*
X230539999Y-64059999D03*
D29*
X220509999Y-68309999D03*
D30*
X228709999Y-66929999D03*
D21*
X222670000Y-69140000D03*
D23*
X225210000Y-70060000D03*
D31*
X227809999Y-69809999D03*
D28*
X162729999Y-64059999D03*
D18*
X168060000Y-64060000D03*
D28*
X173389999Y-64059999D03*
D29*
X163359999Y-68309999D03*
D30*
X171559999Y-66929999D03*
D21*
X165520000Y-69140000D03*
D23*
X168060000Y-70060000D03*
D31*
X170659999Y-69809999D03*
D28*
X200829999Y-64059999D03*
D18*
X206160000Y-64060000D03*
D28*
X211489999Y-64059999D03*
D29*
X201459999Y-68309999D03*
D30*
X209659999Y-66929999D03*
D21*
X203620000Y-69140000D03*
D23*
X206160000Y-70060000D03*
D31*
X208759999Y-69809999D03*
D28*
X229404999Y-83109999D03*
D18*
X234735000Y-83110000D03*
D28*
X240064999Y-83109999D03*
D29*
X230034999Y-87359999D03*
D30*
X238234999Y-85979999D03*
D21*
X232195000Y-88190000D03*
D23*
X234735000Y-89110000D03*
D31*
X237334999Y-88859999D03*
D28*
X115104999Y-83109999D03*
D18*
X120435000Y-83110000D03*
D28*
X125764999Y-83109999D03*
D29*
X115734999Y-87359999D03*
D30*
X123934999Y-85979999D03*
D21*
X117895000Y-88190000D03*
D23*
X120435000Y-89110000D03*
D31*
X123034999Y-88859999D03*
D28*
X134154999Y-83109999D03*
D18*
X139485000Y-83110000D03*
D28*
X144814999Y-83109999D03*
D29*
X134784999Y-87359999D03*
D30*
X142984999Y-85979999D03*
D21*
X136945000Y-88190000D03*
D23*
X139485000Y-89110000D03*
D31*
X142084999Y-88859999D03*
D28*
X267504999Y-83109999D03*
D18*
X272835000Y-83110000D03*
D28*
X278164999Y-83109999D03*
D29*
X268134999Y-87359999D03*
D30*
X276334999Y-85979999D03*
D21*
X270295000Y-88190000D03*
D23*
X272835000Y-89110000D03*
D31*
X275434999Y-88859999D03*
D28*
X286554999Y-83109999D03*
D18*
X291885000Y-83110000D03*
D28*
X297214999Y-83109999D03*
D29*
X287184999Y-87359999D03*
D30*
X295384999Y-85979999D03*
D21*
X289345000Y-88190000D03*
D23*
X291885000Y-89110000D03*
D31*
X294484999Y-88859999D03*
D28*
X210354999Y-83109999D03*
D18*
X215685000Y-83110000D03*
D28*
X221014999Y-83109999D03*
D29*
X210984999Y-87359999D03*
D30*
X219184999Y-85979999D03*
D21*
X213145000Y-88190000D03*
D23*
X215685000Y-89110000D03*
D31*
X218284999Y-88859999D03*
D28*
X77004999Y-83109999D03*
D18*
X82335000Y-83110000D03*
D28*
X87664999Y-83109999D03*
D29*
X77634999Y-87359999D03*
D30*
X85834999Y-85979999D03*
D21*
X79795000Y-88190000D03*
D23*
X82335000Y-89110000D03*
D31*
X84934999Y-88859999D03*
D28*
X248454999Y-83109999D03*
D18*
X253785000Y-83110000D03*
D28*
X259114999Y-83109999D03*
D29*
X249084999Y-87359999D03*
D30*
X257284999Y-85979999D03*
D21*
X251245000Y-88190000D03*
D23*
X253785000Y-89110000D03*
D31*
X256384999Y-88859999D03*
D28*
X191304999Y-83109999D03*
D18*
X196635000Y-83110000D03*
D28*
X201964999Y-83109999D03*
D29*
X191934999Y-87359999D03*
D30*
X200134999Y-85979999D03*
D21*
X194095000Y-88190000D03*
D23*
X196635000Y-89110000D03*
D31*
X199234999Y-88859999D03*
D28*
X153204999Y-83109999D03*
D18*
X158535000Y-83110000D03*
D28*
X163864999Y-83109999D03*
D29*
X153834999Y-87359999D03*
D30*
X162034999Y-85979999D03*
D21*
X155995000Y-88190000D03*
D23*
X158535000Y-89110000D03*
D31*
X161134999Y-88859999D03*
D28*
X172254999Y-83109999D03*
D18*
X177585000Y-83110000D03*
D28*
X182914999Y-83109999D03*
D29*
X172884999Y-87359999D03*
D30*
X181084999Y-85979999D03*
D21*
X175045000Y-88190000D03*
D23*
X177585000Y-89110000D03*
D31*
X180184999Y-88859999D03*
D28*
X96054999Y-83109999D03*
D18*
X101385000Y-83110000D03*
D28*
X106714999Y-83109999D03*
D29*
X96684999Y-87359999D03*
D30*
X104884999Y-85979999D03*
D21*
X98845000Y-88190000D03*
D23*
X101385000Y-89110000D03*
D31*
X103984999Y-88859999D03*
D28*
X91292499Y-121209999D03*
D18*
X96622500Y-121210000D03*
D28*
X101952499Y-121209999D03*
D29*
X91922499Y-125459999D03*
D30*
X100122499Y-124079999D03*
D21*
X94082500Y-126290000D03*
D23*
X96622500Y-127210000D03*
D31*
X99222499Y-126959999D03*
D28*
X110342499Y-121209999D03*
D18*
X115672500Y-121210000D03*
D28*
X121002499Y-121209999D03*
D29*
X110972499Y-125459999D03*
D30*
X119172499Y-124079999D03*
D21*
X113132500Y-126290000D03*
D23*
X115672500Y-127210000D03*
D31*
X118272499Y-126959999D03*
D28*
X148442499Y-121209999D03*
D18*
X153772500Y-121210000D03*
D28*
X159102499Y-121209999D03*
D29*
X149072499Y-125459999D03*
D30*
X157272499Y-124079999D03*
D21*
X151232500Y-126290000D03*
D23*
X153772500Y-127210000D03*
D31*
X156372499Y-126959999D03*
D28*
X262742499Y-121209999D03*
D18*
X268072500Y-121210000D03*
D28*
X273402499Y-121209999D03*
D29*
X263372499Y-125459999D03*
D30*
X271572499Y-124079999D03*
D21*
X265532500Y-126290000D03*
D23*
X268072500Y-127210000D03*
D31*
X270672499Y-126959999D03*
D28*
X253217499Y-102159999D03*
D18*
X258547500Y-102160000D03*
D28*
X263877499Y-102159999D03*
D29*
X253847499Y-106409999D03*
D30*
X262047499Y-105029999D03*
D21*
X256007500Y-107240000D03*
D23*
X258547500Y-108160000D03*
D31*
X261147499Y-107909999D03*
D28*
X100817499Y-102159999D03*
D18*
X106147500Y-102160000D03*
D28*
X111477499Y-102159999D03*
D29*
X101447499Y-106409999D03*
D30*
X109647499Y-105029999D03*
D21*
X103607500Y-107240000D03*
D23*
X106147500Y-108160000D03*
D31*
X108747499Y-107909999D03*
D28*
X272267499Y-102159999D03*
D18*
X277597500Y-102160000D03*
D28*
X282927499Y-102159999D03*
D29*
X272897499Y-106409999D03*
D30*
X281097499Y-105029999D03*
D21*
X275057500Y-107240000D03*
D23*
X277597500Y-108160000D03*
D31*
X280197499Y-107909999D03*
D28*
X243692499Y-121209999D03*
D18*
X249022500Y-121210000D03*
D28*
X254352499Y-121209999D03*
D29*
X244322499Y-125459999D03*
D30*
X252522499Y-124079999D03*
D21*
X246482500Y-126290000D03*
D23*
X249022500Y-127210000D03*
D31*
X251622499Y-126959999D03*
D28*
X186542499Y-121209999D03*
D18*
X191872500Y-121210000D03*
D28*
X197202499Y-121209999D03*
D29*
X187172499Y-125459999D03*
D30*
X195372499Y-124079999D03*
D21*
X189332500Y-126290000D03*
D23*
X191872500Y-127210000D03*
D31*
X194472499Y-126959999D03*
D28*
X205592499Y-121209999D03*
D18*
X210922500Y-121210000D03*
D28*
X216252499Y-121209999D03*
D29*
X206222499Y-125459999D03*
D30*
X214422499Y-124079999D03*
D21*
X208382500Y-126290000D03*
D23*
X210922500Y-127210000D03*
D31*
X213522499Y-126959999D03*
D28*
X234167499Y-102159999D03*
D18*
X239497500Y-102160000D03*
D28*
X244827499Y-102159999D03*
D29*
X234797499Y-106409999D03*
D30*
X242997499Y-105029999D03*
D21*
X236957500Y-107240000D03*
D23*
X239497500Y-108160000D03*
D31*
X242097499Y-107909999D03*
D28*
X215117499Y-102159999D03*
D18*
X220447500Y-102160000D03*
D28*
X225777499Y-102159999D03*
D29*
X215747499Y-106409999D03*
D30*
X223947499Y-105029999D03*
D21*
X217907500Y-107240000D03*
D23*
X220447500Y-108160000D03*
D31*
X223047499Y-107909999D03*
D28*
X196067499Y-102159999D03*
D18*
X201397500Y-102160000D03*
D28*
X206727499Y-102159999D03*
D29*
X196697499Y-106409999D03*
D30*
X204897499Y-105029999D03*
D21*
X198857500Y-107240000D03*
D23*
X201397500Y-108160000D03*
D31*
X203997499Y-107909999D03*
D28*
X315129999Y-121209999D03*
D18*
X320460000Y-121210000D03*
D28*
X325789999Y-121209999D03*
D29*
X315759999Y-125459999D03*
D30*
X323959999Y-124079999D03*
D21*
X317920000Y-126290000D03*
D23*
X320460000Y-127210000D03*
D31*
X323059999Y-126959999D03*
D28*
X177017499Y-102159999D03*
D18*
X182347500Y-102160000D03*
D28*
X187677499Y-102159999D03*
D29*
X177647499Y-106409999D03*
D30*
X185847499Y-105029999D03*
D21*
X179807500Y-107240000D03*
D23*
X182347500Y-108160000D03*
D31*
X184947499Y-107909999D03*
D28*
X157967499Y-102159999D03*
D18*
X163297500Y-102160000D03*
D28*
X168627499Y-102159999D03*
D29*
X158597499Y-106409999D03*
D30*
X166797499Y-105029999D03*
D21*
X160757500Y-107240000D03*
D23*
X163297500Y-108160000D03*
D31*
X165897499Y-107909999D03*
D28*
X138917499Y-102159999D03*
D18*
X144247500Y-102160000D03*
D28*
X149577499Y-102159999D03*
D29*
X139547499Y-106409999D03*
D30*
X147747499Y-105029999D03*
D21*
X141707500Y-107240000D03*
D23*
X144247500Y-108160000D03*
D31*
X146847499Y-107909999D03*
D28*
X119867499Y-102159999D03*
D18*
X125197500Y-102160000D03*
D28*
X130527499Y-102159999D03*
D29*
X120497499Y-106409999D03*
D30*
X128697499Y-105029999D03*
D21*
X122657500Y-107240000D03*
D23*
X125197500Y-108160000D03*
D31*
X127797499Y-107909999D03*
D28*
X224642499Y-121209999D03*
D18*
X229972500Y-121210000D03*
D28*
X235302499Y-121209999D03*
D29*
X225272499Y-125459999D03*
D30*
X233472499Y-124079999D03*
D21*
X227432500Y-126290000D03*
D23*
X229972500Y-127210000D03*
D31*
X232572499Y-126959999D03*
D28*
X129392499Y-121209999D03*
D18*
X134722500Y-121210000D03*
D28*
X140052499Y-121209999D03*
D29*
X130022499Y-125459999D03*
D30*
X138222499Y-124079999D03*
D21*
X132182500Y-126290000D03*
D23*
X134722500Y-127210000D03*
D31*
X137322499Y-126959999D03*
D28*
X167492499Y-121209999D03*
D18*
X172822500Y-121210000D03*
D28*
X178152499Y-121209999D03*
D29*
X168122499Y-125459999D03*
D30*
X176322499Y-124079999D03*
D21*
X170282500Y-126290000D03*
D23*
X172822500Y-127210000D03*
D31*
X175422499Y-126959999D03*
D28*
X81767499Y-102159999D03*
D18*
X87097500Y-102160000D03*
D28*
X92427499Y-102159999D03*
D29*
X82397499Y-106409999D03*
D30*
X90597499Y-105029999D03*
D21*
X84557500Y-107240000D03*
D23*
X87097500Y-108160000D03*
D31*
X89697499Y-107909999D03*
D28*
X48429999Y-64059999D03*
D18*
X53760000Y-64060000D03*
D28*
X59089999Y-64059999D03*
D29*
X49059999Y-68309999D03*
D30*
X57259999Y-66929999D03*
D21*
X51220000Y-69140000D03*
D23*
X53760000Y-70060000D03*
D31*
X56359999Y-69809999D03*
D28*
X205592499Y-32609999D03*
D18*
X210922500Y-32610000D03*
D28*
X216252499Y-32609999D03*
D29*
X206222499Y-36859999D03*
D30*
X214422499Y-35479999D03*
D21*
X208382500Y-37690000D03*
D23*
X210922500Y-38610000D03*
D31*
X213522499Y-38359999D03*
D28*
X291329999Y-32609999D03*
D18*
X296660000Y-32610000D03*
D28*
X301989999Y-32609999D03*
D29*
X291959999Y-36859999D03*
D30*
X300159999Y-35479999D03*
D21*
X294120000Y-37690000D03*
D23*
X296660000Y-38610000D03*
D31*
X299259999Y-38359999D03*
D28*
X262742499Y-32609999D03*
D18*
X268072500Y-32610000D03*
D28*
X273402499Y-32609999D03*
D29*
X263372499Y-36859999D03*
D30*
X271572499Y-35479999D03*
D21*
X265532500Y-37690000D03*
D23*
X268072500Y-38610000D03*
D31*
X270672499Y-38359999D03*
D28*
X234167499Y-32609999D03*
D18*
X239497500Y-32610000D03*
D28*
X244827499Y-32609999D03*
D29*
X234797499Y-36859999D03*
D30*
X242997499Y-35479999D03*
D21*
X236957500Y-37690000D03*
D23*
X239497500Y-38610000D03*
D31*
X242097499Y-38359999D03*
D17*
X315697499Y-77779999D03*
D18*
X315697500Y-83110000D03*
D19*
X318567499Y-79609999D03*
D20*
X319947499Y-87809999D03*
D21*
X320777500Y-85650000D03*
D22*
X321447499Y-80509999D03*
D23*
X321697500Y-83110000D03*
D28*
X91292499Y-32609999D03*
D18*
X96622500Y-32610000D03*
D28*
X101952499Y-32609999D03*
D29*
X91922499Y-36859999D03*
D30*
X100122499Y-35479999D03*
D21*
X94082500Y-37690000D03*
D23*
X96622500Y-38610000D03*
D31*
X99222499Y-38359999D03*
D28*
X119867499Y-32609999D03*
D18*
X125197500Y-32610000D03*
D28*
X130527499Y-32609999D03*
D29*
X120497499Y-36859999D03*
D30*
X128697499Y-35479999D03*
D21*
X122657500Y-37690000D03*
D23*
X125197500Y-38610000D03*
D31*
X127797499Y-38359999D03*
D28*
X148442499Y-32609999D03*
D18*
X153772500Y-32610000D03*
D28*
X159102499Y-32609999D03*
D29*
X149072499Y-36859999D03*
D30*
X157272499Y-35479999D03*
D21*
X151232500Y-37690000D03*
D23*
X153772500Y-38610000D03*
D31*
X156372499Y-38359999D03*
D28*
X177017499Y-32609999D03*
D18*
X182347500Y-32610000D03*
D28*
X187677499Y-32609999D03*
D29*
X177647499Y-36859999D03*
D30*
X185847499Y-35479999D03*
D21*
X179807500Y-37690000D03*
D23*
X182347500Y-38610000D03*
D31*
X184947499Y-38359999D03*
D32*
X40028999Y-113589999D03*
D33*
X37488999Y-113589999D03*
X34948999Y-113589999D03*
D32*
X34963999Y-90983999D03*
D33*
X37503999Y-90983999D03*
X40043999Y-90983999D03*
D28*
X319892499Y-32609999D03*
D18*
X325222500Y-32610000D03*
D28*
X330552499Y-32609999D03*
D29*
X320522499Y-36859999D03*
D30*
X328722499Y-35479999D03*
D21*
X322682500Y-37690000D03*
D23*
X325222500Y-38610000D03*
D31*
X327822499Y-38359999D03*
D32*
X313837523Y-133501999D03*
D33*
X313837523Y-136041999D03*
D26*
X298935000Y-57075000D03*
D27*
X298935000Y-72315000D03*
D28*
X305604999Y-64059999D03*
D18*
X310935000Y-64060000D03*
D28*
X316264999Y-64059999D03*
D26*
X322935000Y-57075000D03*
D27*
X322935000Y-72315000D03*
D29*
X306234999Y-68309999D03*
D30*
X314434999Y-66929999D03*
D21*
X308395000Y-69140000D03*
D23*
X310935000Y-70060000D03*
D31*
X313534999Y-69809999D03*
D32*
X313837523Y-138835999D03*
D33*
X313837523Y-141375999D03*
D26*
X311093750Y-80635000D03*
X311093750Y-104635000D03*
D18*
X318078750Y-92635000D03*
D17*
X318078749Y-97964999D03*
D27*
X326333750Y-80635000D03*
X326333750Y-104635000D03*
D24*
X313828749Y-87934999D03*
D25*
X315208749Y-96134999D03*
D23*
X312078750Y-92635000D03*
D22*
X312328749Y-95234999D03*
D21*
X312998750Y-90095000D03*
D34*
X305600000Y-138200000D03*
D35*
X305600000Y-135660000D03*
X303060000Y-138200000D03*
X303060000Y-135660000D03*
X300520000Y-138200000D03*
X300520000Y-135660000D03*
X297980000Y-138200000D03*
X297980000Y-135660000D03*
X295440000Y-138200000D03*
X295440000Y-135660000D03*
X292900000Y-138200000D03*
X292900000Y-135660000D03*
X290360000Y-138200000D03*
X290360000Y-135660000D03*
X287820000Y-138200000D03*
X287820000Y-135660000D03*
X285280000Y-138200000D03*
X285280000Y-135660000D03*
X282740000Y-138200000D03*
X282740000Y-135660000D03*
X280200000Y-138200000D03*
X280200000Y-135660000D03*
X277660000Y-138200000D03*
X277660000Y-135660000D03*
M02*
