M48
; DRILL file {KiCad (6.0.10)} date Sat Feb 11 17:02:25 2023
; FORMAT={-:-/ absolute / metric / decimal}
; #@! TF.CreationDate,2023-02-11T17:02:25-08:00
; #@! TF.GenerationSoftware,Kicad,Pcbnew,(6.0.10)
; #@! TF.FileFunction,Plated,1,2,PTH
FMAT,2
METRIC
; #@! TA.AperFunction,Plated,PTH,ViaDrill
T1C0.400
; #@! TA.AperFunction,Plated,PTH,ComponentDrill
T2C0.900
; #@! TA.AperFunction,Plated,PTH,ComponentDrill
T3C1.000
; #@! TA.AperFunction,Plated,PTH,ComponentDrill
T4C1.200
; #@! TA.AperFunction,Plated,PTH,ComponentDrill
T5C1.500
%
G90
G05
T1
X47.498Y-124.206
X47.498Y-127.254
X49.276Y-56.134
X49.276Y-60.198
X56.388Y-75.692
X61.214Y-75.692
X70.612Y-115.951
X79.756Y-75.692
X84.582Y-94.742
X85.09Y-75.692
X85.852Y-72.644
X86.36Y-40.132
X86.36Y-44.45
X88.392Y-72.644
X89.79Y-58.18
X89.916Y-94.742
X92.964Y-115.57
X92.964Y-119.38
X94.234Y-25.4
X94.331Y-27.53
X97.028Y-77.724
X99.568Y-25.4
X103.632Y-94.742
X103.886Y-58.928
X103.886Y-74.93
X108.966Y-94.742
X112.268Y-133.096
X112.522Y-94.234
X113.284Y-113.792
X116.84Y-133.096
X118.364Y-75.946
X119.126Y-113.03
X122.936Y-25.4
X123.19Y-75.946
X123.19Y-94.742
X127.762Y-94.742
X128.27Y-25.4
X129.032Y-128.524
X131.572Y-128.524
X132.334Y-113.792
X136.906Y-75.692
X137.414Y-113.792
X141.224Y-34.036
X141.224Y-36.576
X141.986Y-94.742
X142.24Y-75.692
X147.066Y-94.742
X151.13Y-25.4
X151.384Y-113.792
X156.21Y-43.18
X156.21Y-75.692
X156.464Y-113.792
X156.972Y-25.4
X161.036Y-94.742
X161.29Y-75.692
X166.116Y-94.742
X166.116Y-118.889
X170.942Y-114.046
X176.022Y-116.078
X176.276Y-70.993
X176.911Y-59.752
X179.578Y-94.742
X179.832Y-25.4
X183.896Y-51.181
X185.166Y-25.4
X185.166Y-94.742
X185.928Y-90.043
X188.214Y-119.634
X189.738Y-113.792
X190.627Y-48.26
X194.31Y-113.792
X194.818Y-57.15
X194.818Y-62.484
X196.723Y-61.234
X201.93Y-111.125
X202.057Y-132.715
X202.692Y-44.45
X202.946Y-72.136
X202.946Y-75.184
X208.28Y-25.4
X208.28Y-100.076
X208.788Y-113.792
X212.09Y-81.026
X213.36Y-75.692
X213.36Y-113.792
X214.122Y-25.4
X215.773Y-41.401
X217.932Y-94.742
X218.694Y-75.692
X219.075Y-40.767
X223.52Y-94.742
X227.838Y-114.046
X228.854Y-44.45
X232.41Y-75.692
X232.41Y-114.046
X236.982Y-25.4
X237.236Y-94.742
X237.49Y-75.692
X242.316Y-94.742
X243.078Y-25.4
X246.38Y-114.046
X246.674Y-40.6
X251.333Y-133.096
X251.46Y-114.046
X252.515Y-76.644
X253.746Y-75.946
X254.635Y-47.498
X256.032Y-94.742
X256.54Y-75.692
X257.048Y-118.889
X257.048Y-126.238
X257.048Y-132.08
X257.556Y-116.332
X259.764Y-133.985
X260.933Y-58.98
X261.366Y-94.742
X265.176Y-25.4
X265.684Y-113.792
X270.51Y-113.792
X271.272Y-25.4
X275.082Y-94.742
X279.146Y-53.848
X280.416Y-94.742
X282.702Y-53.848
X285.496Y-100.584
X288.544Y-100.584
X289.306Y-75.692
X290.476Y-117.629
X291.338Y-59.69
X291.338Y-62.484
X293.37Y-25.4
X294.132Y-94.742
X296.672Y-75.692
X299.212Y-50.419
X299.466Y-130.556
X300.228Y-25.4
X301.518Y-52.812
X302.322Y-99.262
X302.373Y-47.148
X303.276Y-89.916
X304.263Y-55.557
X304.409Y-36.703
X304.417Y-47.298
X305.562Y-52.832
X305.562Y-66.167
X306.197Y-54.805
X306.548Y-47.15
X306.578Y-94.742
X308.432Y-73.152
X309.06Y-47.14
X310.388Y-49.911
X311.658Y-36.068
X311.824Y-47.296
X312.166Y-52.91
X312.42Y-50.165
X314.11Y-47.296
X314.135Y-139.382
X314.198Y-41.402
X314.706Y-39.624
X315.097Y-47.453
X315.595Y-52.959
X315.595Y-140.081
X317.452Y-55.557
X318.179Y-115.119
X318.77Y-37.846
X322.58Y-25.4
X322.58Y-29.972
X328.168Y-112.268
X328.483Y-97.409
X329.819Y-53.721
X329.956Y-52.578
X331.724Y-38.608
X332.232Y-58.42
X332.232Y-112.268
X336.296Y-58.42
T2
X29.36Y-143.2
X31.9Y-143.2
T3
X34.949Y-113.59
X34.964Y-90.984
X37.489Y-113.59
X37.504Y-90.984
X40.029Y-113.59
X40.044Y-90.984
X296.838Y-43.232
X296.838Y-45.772
X299.378Y-43.232
X299.378Y-45.772
X301.918Y-43.232
X301.918Y-45.772
X304.458Y-43.232
X304.458Y-45.772
X306.998Y-43.232
X306.998Y-45.772
X309.538Y-43.232
X309.538Y-45.772
X312.078Y-43.232
X312.078Y-45.772
X314.618Y-43.232
X314.618Y-45.772
X317.158Y-43.232
X317.158Y-45.772
X319.698Y-43.232
X319.698Y-45.772
X322.238Y-43.232
X322.238Y-45.772
X324.778Y-43.232
X324.778Y-45.772
X332.683Y-46.477
X332.683Y-49.017
X332.683Y-51.811
X332.683Y-54.351
T4
X51.22Y-69.14
X55.982Y-88.19
X58.364Y-107.24
X63.126Y-126.29
X70.27Y-69.14
X79.795Y-88.19
X84.557Y-107.24
X89.32Y-69.14
X94.082Y-37.69
X94.082Y-126.29
X98.845Y-88.19
X103.608Y-107.24
X108.37Y-69.14
X111.942Y-145.34
X113.132Y-126.29
X117.895Y-88.19
X122.657Y-37.69
X122.657Y-107.24
X127.42Y-69.14
X132.183Y-126.29
X136.945Y-88.19
X141.707Y-107.24
X146.47Y-69.14
X151.232Y-37.69
X151.232Y-126.29
X155.995Y-88.19
X160.757Y-107.24
X165.52Y-69.14
X170.282Y-126.29
X175.045Y-88.19
X179.808Y-37.69
X179.808Y-107.24
X184.57Y-69.14
X184.57Y-145.34
X189.332Y-126.29
X194.095Y-88.19
X198.857Y-107.24
X203.62Y-69.14
X208.382Y-37.69
X208.382Y-126.29
X213.145Y-88.19
X217.907Y-107.24
X222.67Y-69.14
X227.432Y-126.29
X232.195Y-88.19
X236.957Y-37.69
X236.957Y-107.24
X241.72Y-69.14
X246.482Y-126.29
X251.245Y-88.19
X256.007Y-107.24
X257.198Y-145.34
X260.77Y-69.14
X265.532Y-37.69
X265.532Y-126.29
X270.295Y-88.19
X275.058Y-107.24
X279.82Y-69.14
X289.345Y-88.19
X291.726Y-126.29
X294.107Y-107.24
X294.12Y-37.69
X296.33Y-61.52
X308.395Y-69.14
X312.999Y-90.095
X315.539Y-107.24
X317.92Y-126.29
X320.777Y-85.65
X322.683Y-37.69
X325.54Y-66.6
T5
X53.76Y-70.06
X58.523Y-89.11
X60.904Y-108.16
X65.666Y-127.21
X72.81Y-70.06
X82.335Y-89.11
X87.097Y-108.16
X91.86Y-70.06
X96.623Y-38.61
X96.623Y-127.21
X101.385Y-89.11
X106.147Y-108.16
X110.91Y-70.06
X114.482Y-146.26
X115.672Y-127.21
X120.435Y-89.11
X125.197Y-38.61
X125.197Y-108.16
X129.96Y-70.06
X134.722Y-127.21
X139.485Y-89.11
X144.248Y-108.16
X149.01Y-70.06
X153.772Y-38.61
X153.772Y-127.21
X158.535Y-89.11
X163.297Y-108.16
X168.06Y-70.06
X172.822Y-127.21
X177.585Y-89.11
X182.347Y-38.61
X182.347Y-108.16
X187.11Y-70.06
X187.11Y-146.26
X191.873Y-127.21
X196.635Y-89.11
X201.397Y-108.16
X206.16Y-70.06
X210.922Y-38.61
X210.922Y-127.21
X215.685Y-89.11
X220.447Y-108.16
X225.21Y-70.06
X229.972Y-127.21
X234.735Y-89.11
X239.498Y-38.61
X239.498Y-108.16
X244.26Y-70.06
X249.022Y-127.21
X253.785Y-89.11
X258.548Y-108.16
X259.738Y-146.26
X263.31Y-70.06
X268.072Y-38.61
X268.072Y-127.21
X272.835Y-89.11
X277.597Y-108.16
X282.36Y-70.06
X291.885Y-89.11
X294.266Y-127.21
X295.41Y-64.06
X296.647Y-108.16
X296.66Y-38.61
X310.935Y-70.06
X312.079Y-92.635
X318.079Y-108.16
X320.46Y-127.21
X321.697Y-83.11
X325.222Y-38.61
X326.46Y-64.06
T2
X49.229Y-68.673G85X48.891Y-67.947
G05
X53.992Y-87.723G85X53.653Y-86.997
G05
X56.373Y-106.773G85X56.035Y-106.047
G05
X56.91Y-69.81G85X55.81Y-69.81
G05
X61.135Y-125.823G85X60.797Y-125.097
G05
X61.672Y-88.86G85X60.572Y-88.86
G05
X64.054Y-107.91G85X62.954Y-107.91
G05
X68.279Y-68.673G85X67.941Y-67.947
G05
X68.816Y-126.96G85X67.716Y-126.96
G05
X75.96Y-69.81G85X74.86Y-69.81
G05
X77.804Y-87.723G85X77.466Y-86.997
G05
X82.567Y-106.773G85X82.228Y-106.047
G05
X85.485Y-88.86G85X84.385Y-88.86
G05
X87.329Y-68.673G85X86.991Y-67.947
G05
X90.248Y-107.91G85X89.147Y-107.91
G05
X92.092Y-37.223G85X91.753Y-36.497
G05
X92.092Y-125.823G85X91.753Y-125.097
G05
X95.01Y-69.81G85X93.91Y-69.81
G05
X96.854Y-87.723G85X96.516Y-86.997
G05
X99.772Y-38.36G85X98.672Y-38.36
G05
X99.772Y-126.96G85X98.672Y-126.96
G05
X101.617Y-106.773G85X101.278Y-106.047
G05
X104.535Y-88.86G85X103.435Y-88.86
G05
X106.379Y-68.673G85X106.041Y-67.947
G05
X109.297Y-107.91G85X108.197Y-107.91
G05
X109.951Y-144.873G85X109.613Y-144.147
G05
X111.142Y-125.823G85X110.803Y-125.097
G05
X114.06Y-69.81G85X112.96Y-69.81
G05
X115.904Y-87.723G85X115.566Y-86.997
G05
X117.632Y-146.01G85X116.532Y-146.01
G05
X118.822Y-126.96G85X117.722Y-126.96
G05
X120.667Y-37.223G85X120.328Y-36.497
G05
X120.667Y-106.773G85X120.328Y-106.047
G05
X123.585Y-88.86G85X122.485Y-88.86
G05
X125.429Y-68.673G85X125.091Y-67.947
G05
X128.347Y-38.36G85X127.247Y-38.36
G05
X128.347Y-107.91G85X127.247Y-107.91
G05
X130.192Y-125.823G85X129.853Y-125.097
G05
X133.11Y-69.81G85X132.01Y-69.81
G05
X134.954Y-87.723G85X134.616Y-86.997
G05
X137.873Y-126.96G85X136.773Y-126.96
G05
X139.717Y-106.773G85X139.378Y-106.047
G05
X142.635Y-88.86G85X141.535Y-88.86
G05
X144.479Y-68.673G85X144.141Y-67.947
G05
X147.397Y-107.91G85X146.297Y-107.91
G05
X149.242Y-37.223G85X148.903Y-36.497
G05
X149.242Y-125.823G85X148.903Y-125.097
G05
X152.16Y-69.81G85X151.06Y-69.81
G05
X154.004Y-87.723G85X153.666Y-86.997
G05
X156.922Y-38.36G85X155.822Y-38.36
G05
X156.922Y-126.96G85X155.822Y-126.96
G05
X158.767Y-106.773G85X158.428Y-106.047
G05
X161.685Y-88.86G85X160.585Y-88.86
G05
X163.529Y-68.673G85X163.191Y-67.947
G05
X166.447Y-107.91G85X165.347Y-107.91
G05
X168.292Y-125.823G85X167.953Y-125.097
G05
X171.21Y-69.81G85X170.11Y-69.81
G05
X173.054Y-87.723G85X172.716Y-86.997
G05
X175.972Y-126.96G85X174.873Y-126.96
G05
X177.817Y-37.223G85X177.478Y-36.497
G05
X177.817Y-106.773G85X177.478Y-106.047
G05
X180.735Y-88.86G85X179.635Y-88.86
G05
X182.579Y-68.673G85X182.241Y-67.947
G05
X182.579Y-144.873G85X182.241Y-144.147
G05
X185.498Y-38.36G85X184.397Y-38.36
G05
X185.498Y-107.91G85X184.397Y-107.91
G05
X187.342Y-125.823G85X187.003Y-125.097
G05
X190.26Y-69.81G85X189.16Y-69.81
G05
X190.26Y-146.01G85X189.16Y-146.01
G05
X192.104Y-87.723G85X191.766Y-86.997
G05
X195.022Y-126.96G85X193.922Y-126.96
G05
X196.867Y-106.773G85X196.528Y-106.047
G05
X199.785Y-88.86G85X198.685Y-88.86
G05
X201.629Y-68.673G85X201.291Y-67.947
G05
X204.547Y-107.91G85X203.447Y-107.91
G05
X206.392Y-37.223G85X206.053Y-36.497
G05
X206.392Y-125.823G85X206.053Y-125.097
G05
X209.31Y-69.81G85X208.21Y-69.81
G05
X211.154Y-87.723G85X210.816Y-86.997
G05
X214.072Y-38.36G85X212.972Y-38.36
G05
X214.072Y-126.96G85X212.972Y-126.96
G05
X215.917Y-106.773G85X215.578Y-106.047
G05
X218.835Y-88.86G85X217.735Y-88.86
G05
X220.679Y-68.673G85X220.341Y-67.947
G05
X223.597Y-107.91G85X222.498Y-107.91
G05
X225.442Y-125.823G85X225.103Y-125.097
G05
X228.36Y-69.81G85X227.26Y-69.81
G05
X230.204Y-87.723G85X229.866Y-86.997
G05
X233.123Y-126.96G85X232.022Y-126.96
G05
X234.967Y-37.223G85X234.628Y-36.497
G05
X234.967Y-106.773G85X234.628Y-106.047
G05
X237.885Y-88.86G85X236.785Y-88.86
G05
X239.729Y-68.673G85X239.391Y-67.947
G05
X242.647Y-38.36G85X241.547Y-38.36
G05
X242.647Y-107.91G85X241.547Y-107.91
G05
X244.492Y-125.823G85X244.153Y-125.097
G05
X247.41Y-69.81G85X246.31Y-69.81
G05
X249.254Y-87.723G85X248.916Y-86.997
G05
X252.172Y-126.96G85X251.072Y-126.96
G05
X254.017Y-106.773G85X253.678Y-106.047
G05
X255.207Y-144.873G85X254.869Y-144.147
G05
X256.935Y-88.86G85X255.835Y-88.86
G05
X258.779Y-68.673G85X258.441Y-67.947
G05
X261.697Y-107.91G85X260.597Y-107.91
G05
X262.888Y-146.01G85X261.788Y-146.01
G05
X263.542Y-37.223G85X263.203Y-36.497
G05
X263.542Y-125.823G85X263.203Y-125.097
G05
X266.46Y-69.81G85X265.36Y-69.81
G05
X268.304Y-87.723G85X267.966Y-86.997
G05
X271.222Y-38.36G85X270.123Y-38.36
G05
X271.222Y-126.96G85X270.123Y-126.96
G05
X273.067Y-106.773G85X272.728Y-106.047
G05
X275.985Y-88.86G85X274.885Y-88.86
G05
X277.829Y-68.673G85X277.491Y-67.947
G05
X280.748Y-107.91G85X279.647Y-107.91
G05
X285.51Y-69.81G85X284.41Y-69.81
G05
X287.354Y-87.723G85X287.016Y-86.997
G05
X289.735Y-125.823G85X289.397Y-125.097
G05
X292.117Y-106.773G85X291.778Y-106.047
G05
X292.129Y-37.223G85X291.791Y-36.497
G05
X295.035Y-88.86G85X293.935Y-88.86
G05
X295.66Y-67.21G85X295.66Y-66.11
G05
X297.416Y-126.96G85X296.316Y-126.96
G05
X296.797Y-59.529G85X297.523Y-59.191
G05
X299.798Y-107.91G85X298.697Y-107.91
G05
X299.81Y-38.36G85X298.71Y-38.36
G05
X306.404Y-68.673G85X306.066Y-67.947
G05
X312.329Y-95.785G85X312.329Y-94.685
G05
X313.548Y-106.773G85X313.21Y-106.047
G05
X314.085Y-69.81G85X312.985Y-69.81
G05
X313.466Y-88.104G85X314.191Y-87.766
G05
X315.929Y-125.823G85X315.591Y-125.097
G05
X320.31Y-87.641G85X319.585Y-87.979
G05
X320.692Y-37.223G85X320.353Y-36.497
G05
X321.229Y-107.91G85X320.129Y-107.91
G05
X321.447Y-79.96G85X321.447Y-81.06
G05
X323.61Y-126.96G85X322.51Y-126.96
G05
X325.073Y-68.591G85X324.347Y-68.929
G05
X326.21Y-60.91G85X326.21Y-62.01
G05
X328.373Y-38.36G85X327.272Y-38.36
G05
T5
X57.614Y-66.576G85X56.906Y-67.284
G05
X62.376Y-85.626G85X61.669Y-86.334
G05
X64.757Y-104.676G85X64.05Y-105.384
G05
X69.52Y-123.726G85X68.813Y-124.434
G05
X76.664Y-66.576G85X75.956Y-67.284
G05
X86.189Y-85.626G85X85.481Y-86.334
G05
X90.951Y-104.676G85X90.244Y-105.384
G05
X95.714Y-66.576G85X95.006Y-67.284
G05
X100.476Y-35.126G85X99.769Y-35.834
G05
X100.476Y-123.726G85X99.769Y-124.434
G05
X105.239Y-85.626G85X104.531Y-86.334
G05
X110.001Y-104.676G85X109.294Y-105.384
G05
X114.764Y-66.576G85X114.056Y-67.284
G05
X118.335Y-142.776G85X117.628Y-143.484
G05
X119.526Y-123.726G85X118.819Y-124.434
G05
X124.289Y-85.626G85X123.581Y-86.334
G05
X129.051Y-35.126G85X128.344Y-35.834
G05
X129.051Y-104.676G85X128.344Y-105.384
G05
X133.814Y-66.576G85X133.106Y-67.284
G05
X138.576Y-123.726G85X137.869Y-124.434
G05
X143.339Y-85.626G85X142.631Y-86.334
G05
X148.101Y-104.676G85X147.394Y-105.384
G05
X152.864Y-66.576G85X152.156Y-67.284
G05
X157.626Y-35.126G85X156.919Y-35.834
G05
X157.626Y-123.726G85X156.919Y-124.434
G05
X162.389Y-85.626G85X161.681Y-86.334
G05
X167.151Y-104.676G85X166.444Y-105.384
G05
X171.914Y-66.576G85X171.206Y-67.284
G05
X176.676Y-123.726G85X175.969Y-124.434
G05
X181.439Y-85.626G85X180.731Y-86.334
G05
X186.201Y-35.126G85X185.494Y-35.834
G05
X186.201Y-104.676G85X185.494Y-105.384
G05
X190.964Y-66.576G85X190.256Y-67.284
G05
X190.964Y-142.776G85X190.256Y-143.484
G05
X195.726Y-123.726G85X195.019Y-124.434
G05
X200.489Y-85.626G85X199.781Y-86.334
G05
X205.251Y-104.676G85X204.544Y-105.384
G05
X210.014Y-66.576G85X209.306Y-67.284
G05
X214.776Y-35.126G85X214.069Y-35.834
G05
X214.776Y-123.726G85X214.069Y-124.434
G05
X219.539Y-85.626G85X218.831Y-86.334
G05
X224.301Y-104.676G85X223.594Y-105.384
G05
X229.064Y-66.576G85X228.356Y-67.284
G05
X233.826Y-123.726G85X233.119Y-124.434
G05
X238.589Y-85.626G85X237.881Y-86.334
G05
X243.351Y-35.126G85X242.644Y-35.834
G05
X243.351Y-104.676G85X242.644Y-105.384
G05
X248.114Y-66.576G85X247.406Y-67.284
G05
X252.876Y-123.726G85X252.169Y-124.434
G05
X257.639Y-85.626G85X256.931Y-86.334
G05
X262.401Y-104.676G85X261.694Y-105.384
G05
X263.592Y-142.776G85X262.885Y-143.484
G05
X267.164Y-66.576G85X266.456Y-67.284
G05
X271.926Y-35.126G85X271.219Y-35.834
G05
X271.926Y-123.726G85X271.219Y-124.434
G05
X276.689Y-85.626G85X275.981Y-86.334
G05
X281.451Y-104.676G85X280.744Y-105.384
G05
X286.214Y-66.576G85X285.506Y-67.284
G05
X295.739Y-85.626G85X295.031Y-86.334
G05
X298.12Y-123.726G85X297.413Y-124.434
G05
X298.894Y-67.914G85X298.186Y-67.206
G05
X300.501Y-104.676G85X299.794Y-105.384
G05
X300.514Y-35.126G85X299.806Y-35.834
G05
X314.789Y-66.576G85X314.081Y-67.284
G05
X315.562Y-96.489G85X314.855Y-95.781
G05
X318.214Y-79.256G85X318.921Y-79.964
G05
X321.932Y-104.676G85X321.225Y-105.384
G05
X322.976Y-60.206G85X323.684Y-60.914
G05
X324.314Y-123.726G85X323.606Y-124.434
G05
X329.076Y-35.126G85X328.369Y-35.834
G05
T0
M30
