G04 #@! TF.GenerationSoftware,KiCad,Pcbnew,(6.0.10)*
G04 #@! TF.CreationDate,2023-02-01T23:45:49-08:00*
G04 #@! TF.ProjectId,DecentXE,44656365-6e74-4584-952e-6b696361645f,11*
G04 #@! TF.SameCoordinates,Original*
G04 #@! TF.FileFunction,Soldermask,Top*
G04 #@! TF.FilePolarity,Negative*
%FSLAX46Y46*%
G04 Gerber Fmt 4.6, Leading zero omitted, Abs format (unit mm)*
G04 Created by KiCad (PCBNEW (6.0.10)) date 2023-02-01 23:45:49*
%MOMM*%
%LPD*%
G01*
G04 APERTURE LIST*
G04 Aperture macros list*
%AMRoundRect*
0 Rectangle with rounded corners*
0 $1 Rounding radius*
0 $2 $3 $4 $5 $6 $7 $8 $9 X,Y pos of 4 corners*
0 Add a 4 corners polygon primitive as box body*
4,1,4,$2,$3,$4,$5,$6,$7,$8,$9,$2,$3,0*
0 Add four circle primitives for the rounded corners*
1,1,$1+$1,$2,$3*
1,1,$1+$1,$4,$5*
1,1,$1+$1,$6,$7*
1,1,$1+$1,$8,$9*
0 Add four rect primitives between the rounded corners*
20,1,$1+$1,$2,$3,$4,$5,0*
20,1,$1+$1,$4,$5,$6,$7,0*
20,1,$1+$1,$6,$7,$8,$9,0*
20,1,$1+$1,$8,$9,$2,$3,0*%
%AMHorizOval*
0 Thick line with rounded ends*
0 $1 width*
0 $2 $3 position (X,Y) of the first rounded end (center of the circle)*
0 $4 $5 position (X,Y) of the second rounded end (center of the circle)*
0 Add line between two ends*
20,1,$1,$2,$3,$4,$5,0*
0 Add two circle primitives to create the rounded ends*
1,1,$1,$2,$3*
1,1,$1,$4,$5*%
G04 Aperture macros list end*
%ADD10C,5.250000*%
%ADD11O,2.200000X1.800000*%
%ADD12HorizOval,2.200000X-0.353553X-0.353553X0.353553X0.353553X0*%
%ADD13R,6.832600X0.228600*%
%ADD14HorizOval,1.400000X-0.169047X0.362523X0.169047X-0.362523X0*%
%ADD15C,2.200000*%
%ADD16R,1.758000X0.284000*%
%ADD17R,1.312000X0.254000*%
%ADD18O,2.500000X1.400000*%
%ADD19C,1.900000*%
%ADD20R,0.800000X0.800000*%
%ADD21O,1.800000X2.200000*%
%ADD22HorizOval,2.200000X0.353553X-0.353553X-0.353553X0.353553X0*%
%ADD23R,0.228600X6.832600*%
%ADD24HorizOval,1.400000X-0.362523X-0.169047X0.362523X0.169047X0*%
%ADD25R,0.284000X1.758000*%
%ADD26R,0.254000X1.312000*%
%ADD27O,1.400000X2.500000*%
%ADD28HorizOval,2.200000X-0.353553X0.353553X0.353553X-0.353553X0*%
%ADD29HorizOval,1.400000X0.362523X0.169047X-0.362523X-0.169047X0*%
%ADD30C,3.987800*%
%ADD31C,3.048000*%
%ADD32R,1.800000X1.800000*%
%ADD33C,1.800000*%
%ADD34RoundRect,0.200000X0.200000X0.275000X-0.200000X0.275000X-0.200000X-0.275000X0.200000X-0.275000X0*%
%ADD35R,0.900000X1.200000*%
%ADD36R,1.700000X1.700000*%
%ADD37O,1.700000X1.700000*%
%ADD38RoundRect,0.200000X-0.200000X-0.275000X0.200000X-0.275000X0.200000X0.275000X-0.200000X0.275000X0*%
%ADD39RoundRect,0.200000X0.275000X-0.200000X0.275000X0.200000X-0.275000X0.200000X-0.275000X-0.200000X0*%
%ADD40RoundRect,0.200000X-0.275000X0.200000X-0.275000X-0.200000X0.275000X-0.200000X0.275000X0.200000X0*%
%ADD41RoundRect,0.250000X0.600000X-0.600000X0.600000X0.600000X-0.600000X0.600000X-0.600000X-0.600000X0*%
%ADD42C,1.700000*%
G04 APERTURE END LIST*
D10*
X259738125Y-140260000D03*
D11*
X265068125Y-140260000D03*
X254408125Y-140260000D03*
D12*
X263238125Y-143130000D03*
D13*
X258518925Y-143943000D03*
D14*
X255038125Y-144510000D03*
D15*
X259738125Y-146260000D03*
D16*
X260998125Y-145452000D03*
D17*
X258468125Y-145467000D03*
D18*
X262338125Y-146010000D03*
D19*
X257198125Y-145340000D03*
D20*
X260488125Y-135180000D03*
X258988125Y-135180000D03*
D10*
X58522500Y-83110000D03*
D11*
X63852500Y-83110000D03*
X53192500Y-83110000D03*
D12*
X62022500Y-85980000D03*
D13*
X57303300Y-86793000D03*
D14*
X53822500Y-87360000D03*
D15*
X58522500Y-89110000D03*
D16*
X59782500Y-88302000D03*
D17*
X57252500Y-88317000D03*
D18*
X61122500Y-88860000D03*
D19*
X55982500Y-88190000D03*
D20*
X59272500Y-78030000D03*
X57772500Y-78030000D03*
D10*
X320460000Y-64060000D03*
D21*
X320460000Y-58730000D03*
X320460000Y-69390000D03*
D22*
X323330000Y-60560000D03*
D23*
X324143000Y-65279200D03*
D24*
X324710000Y-68760000D03*
D15*
X326460000Y-64060000D03*
D25*
X325652000Y-62800000D03*
D26*
X325667000Y-65330000D03*
D27*
X326210000Y-61460000D03*
D19*
X325540000Y-66600000D03*
D20*
X318724705Y-56038353D03*
X320224705Y-56038353D03*
D10*
X301410000Y-64060000D03*
D21*
X301410000Y-69390000D03*
X301410000Y-58730000D03*
D28*
X298540000Y-67560000D03*
D23*
X297727000Y-62840800D03*
D29*
X297160000Y-59360000D03*
D15*
X295410000Y-64060000D03*
D25*
X296218000Y-65320000D03*
D26*
X296203000Y-62790000D03*
D27*
X295660000Y-66660000D03*
D19*
X296330000Y-61520000D03*
D20*
X302795406Y-55891016D03*
X301295406Y-55891016D03*
X306172500Y-80208750D03*
X306172500Y-78708750D03*
D21*
X315697500Y-77780000D03*
D10*
X315697500Y-83110000D03*
D24*
X319947500Y-87810000D03*
D22*
X318567500Y-79610000D03*
D23*
X319380500Y-84329200D03*
D19*
X320777500Y-85650000D03*
D27*
X321447500Y-80510000D03*
D15*
X321697500Y-83110000D03*
D26*
X320904500Y-84380000D03*
D25*
X320889500Y-81850000D03*
D10*
X318078750Y-102160000D03*
D11*
X323408750Y-102160000D03*
X312748750Y-102160000D03*
D12*
X321578750Y-105030000D03*
D13*
X316859550Y-105843000D03*
D14*
X313378750Y-106410000D03*
D15*
X318078750Y-108160000D03*
D16*
X319338750Y-107352000D03*
D17*
X316808750Y-107367000D03*
D18*
X320678750Y-107910000D03*
D19*
X315538750Y-107240000D03*
D20*
X327603750Y-99778750D03*
X327603750Y-98278750D03*
D10*
X114481875Y-140260000D03*
D11*
X119811875Y-140260000D03*
X109151875Y-140260000D03*
D12*
X117981875Y-143130000D03*
D13*
X113262675Y-143943000D03*
D14*
X109781875Y-144510000D03*
D15*
X114481875Y-146260000D03*
D16*
X115741875Y-145452000D03*
D17*
X113211875Y-145467000D03*
D18*
X117081875Y-146010000D03*
D19*
X111941875Y-145340000D03*
D20*
X115231875Y-135180000D03*
X113731875Y-135180000D03*
D30*
X282266250Y-129465000D03*
D10*
X294266250Y-121210000D03*
D31*
X306266250Y-114225000D03*
D30*
X306266250Y-129465000D03*
D11*
X299596250Y-121210000D03*
X288936250Y-121210000D03*
D31*
X282266250Y-114225000D03*
D12*
X297766250Y-124080000D03*
D13*
X293047050Y-124893000D03*
D14*
X289566250Y-125460000D03*
D15*
X294266250Y-127210000D03*
D16*
X295526250Y-126402000D03*
D17*
X292996250Y-126417000D03*
D18*
X296866250Y-126960000D03*
D19*
X291726250Y-126290000D03*
D20*
X295016250Y-116130000D03*
X293516250Y-116130000D03*
D30*
X48903750Y-110415000D03*
D10*
X60903750Y-102160000D03*
D31*
X72903750Y-95175000D03*
D30*
X72903750Y-110415000D03*
D11*
X66233750Y-102160000D03*
X55573750Y-102160000D03*
D31*
X48903750Y-95175000D03*
D12*
X64403750Y-105030000D03*
D13*
X59684550Y-105843000D03*
D14*
X56203750Y-106410000D03*
D15*
X60903750Y-108160000D03*
D16*
X62163750Y-107352000D03*
D17*
X59633750Y-107367000D03*
D18*
X63503750Y-107910000D03*
D19*
X58363750Y-107240000D03*
D20*
X61653750Y-97080000D03*
X60153750Y-97080000D03*
D10*
X65666250Y-121210000D03*
D11*
X70996250Y-121210000D03*
D31*
X53666250Y-114225000D03*
D30*
X77666250Y-129465000D03*
D31*
X77666250Y-114225000D03*
D11*
X60336250Y-121210000D03*
D30*
X53666250Y-129465000D03*
D12*
X69166250Y-124080000D03*
D13*
X64447050Y-124893000D03*
D14*
X60966250Y-125460000D03*
D15*
X65666250Y-127210000D03*
D16*
X66926250Y-126402000D03*
D17*
X64396250Y-126417000D03*
D18*
X68266250Y-126960000D03*
D19*
X63126250Y-126290000D03*
D20*
X66416250Y-116130000D03*
X64916250Y-116130000D03*
D31*
X237110000Y-133275000D03*
D10*
X187110000Y-140260000D03*
D11*
X192440000Y-140260000D03*
D30*
X137110000Y-148515000D03*
D31*
X137110000Y-133275000D03*
D11*
X181780000Y-140260000D03*
D30*
X237110000Y-148515000D03*
D12*
X190610000Y-143130000D03*
D13*
X185890800Y-143943000D03*
D14*
X182410000Y-144510000D03*
D15*
X187110000Y-146260000D03*
D16*
X188370000Y-145452000D03*
D17*
X185840000Y-145467000D03*
D18*
X189710000Y-146010000D03*
D19*
X184570000Y-145340000D03*
D20*
X187860000Y-135180000D03*
X186360000Y-135180000D03*
D10*
X87097500Y-102160000D03*
D11*
X92427500Y-102160000D03*
X81767500Y-102160000D03*
D12*
X90597500Y-105030000D03*
D13*
X85878300Y-105843000D03*
D14*
X82397500Y-106410000D03*
D15*
X87097500Y-108160000D03*
D16*
X88357500Y-107352000D03*
D17*
X85827500Y-107367000D03*
D18*
X89697500Y-107910000D03*
D19*
X84557500Y-107240000D03*
D20*
X87847500Y-97080000D03*
X86347500Y-97080000D03*
D10*
X172822500Y-121210000D03*
D11*
X178152500Y-121210000D03*
X167492500Y-121210000D03*
D12*
X176322500Y-124080000D03*
D13*
X171603300Y-124893000D03*
D14*
X168122500Y-125460000D03*
D15*
X172822500Y-127210000D03*
D16*
X174082500Y-126402000D03*
D17*
X171552500Y-126417000D03*
D18*
X175422500Y-126960000D03*
D19*
X170282500Y-126290000D03*
D20*
X173572500Y-116130000D03*
X172072500Y-116130000D03*
D10*
X134722500Y-121210000D03*
D11*
X140052500Y-121210000D03*
X129392500Y-121210000D03*
D12*
X138222500Y-124080000D03*
D13*
X133503300Y-124893000D03*
D14*
X130022500Y-125460000D03*
D15*
X134722500Y-127210000D03*
D16*
X135982500Y-126402000D03*
D17*
X133452500Y-126417000D03*
D18*
X137322500Y-126960000D03*
D19*
X132182500Y-126290000D03*
D20*
X135472500Y-116130000D03*
X133972500Y-116130000D03*
D10*
X229972500Y-121210000D03*
D11*
X235302500Y-121210000D03*
X224642500Y-121210000D03*
D12*
X233472500Y-124080000D03*
D13*
X228753300Y-124893000D03*
D14*
X225272500Y-125460000D03*
D15*
X229972500Y-127210000D03*
D16*
X231232500Y-126402000D03*
D17*
X228702500Y-126417000D03*
D18*
X232572500Y-126960000D03*
D19*
X227432500Y-126290000D03*
D20*
X230722500Y-116130000D03*
X229222500Y-116130000D03*
D10*
X125197500Y-102160000D03*
D11*
X130527500Y-102160000D03*
X119867500Y-102160000D03*
D12*
X128697500Y-105030000D03*
D13*
X123978300Y-105843000D03*
D14*
X120497500Y-106410000D03*
D15*
X125197500Y-108160000D03*
D16*
X126457500Y-107352000D03*
D17*
X123927500Y-107367000D03*
D18*
X127797500Y-107910000D03*
D19*
X122657500Y-107240000D03*
D20*
X125947500Y-97080000D03*
X124447500Y-97080000D03*
D10*
X144247500Y-102160000D03*
D11*
X149577500Y-102160000D03*
X138917500Y-102160000D03*
D12*
X147747500Y-105030000D03*
D13*
X143028300Y-105843000D03*
D14*
X139547500Y-106410000D03*
D15*
X144247500Y-108160000D03*
D16*
X145507500Y-107352000D03*
D17*
X142977500Y-107367000D03*
D18*
X146847500Y-107910000D03*
D19*
X141707500Y-107240000D03*
D20*
X144997500Y-97080000D03*
X143497500Y-97080000D03*
D10*
X163297500Y-102160000D03*
D11*
X168627500Y-102160000D03*
X157967500Y-102160000D03*
D12*
X166797500Y-105030000D03*
D13*
X162078300Y-105843000D03*
D14*
X158597500Y-106410000D03*
D15*
X163297500Y-108160000D03*
D16*
X164557500Y-107352000D03*
D17*
X162027500Y-107367000D03*
D18*
X165897500Y-107910000D03*
D19*
X160757500Y-107240000D03*
D20*
X164047500Y-97080000D03*
X162547500Y-97080000D03*
D10*
X182347500Y-102160000D03*
D11*
X187677500Y-102160000D03*
X177017500Y-102160000D03*
D12*
X185847500Y-105030000D03*
D13*
X181128300Y-105843000D03*
D14*
X177647500Y-106410000D03*
D15*
X182347500Y-108160000D03*
D16*
X183607500Y-107352000D03*
D17*
X181077500Y-107367000D03*
D18*
X184947500Y-107910000D03*
D19*
X179807500Y-107240000D03*
D20*
X183097500Y-97080000D03*
X181597500Y-97080000D03*
D10*
X320460000Y-121210000D03*
D11*
X325790000Y-121210000D03*
X315130000Y-121210000D03*
D12*
X323960000Y-124080000D03*
D13*
X319240800Y-124893000D03*
D14*
X315760000Y-125460000D03*
D15*
X320460000Y-127210000D03*
D16*
X321720000Y-126402000D03*
D17*
X319190000Y-126417000D03*
D18*
X323060000Y-126960000D03*
D19*
X317920000Y-126290000D03*
D20*
X321210000Y-116130000D03*
X319710000Y-116130000D03*
D10*
X201397500Y-102160000D03*
D11*
X206727500Y-102160000D03*
X196067500Y-102160000D03*
D12*
X204897500Y-105030000D03*
D13*
X200178300Y-105843000D03*
D14*
X196697500Y-106410000D03*
D15*
X201397500Y-108160000D03*
D16*
X202657500Y-107352000D03*
D17*
X200127500Y-107367000D03*
D18*
X203997500Y-107910000D03*
D19*
X198857500Y-107240000D03*
D20*
X202147500Y-97080000D03*
X200647500Y-97080000D03*
D10*
X220447500Y-102160000D03*
D11*
X225777500Y-102160000D03*
X215117500Y-102160000D03*
D12*
X223947500Y-105030000D03*
D13*
X219228300Y-105843000D03*
D14*
X215747500Y-106410000D03*
D15*
X220447500Y-108160000D03*
D16*
X221707500Y-107352000D03*
D17*
X219177500Y-107367000D03*
D18*
X223047500Y-107910000D03*
D19*
X217907500Y-107240000D03*
D20*
X221197500Y-97080000D03*
X219697500Y-97080000D03*
D10*
X239497500Y-102160000D03*
D11*
X244827500Y-102160000D03*
X234167500Y-102160000D03*
D12*
X242997500Y-105030000D03*
D13*
X238278300Y-105843000D03*
D14*
X234797500Y-106410000D03*
D15*
X239497500Y-108160000D03*
D16*
X240757500Y-107352000D03*
D17*
X238227500Y-107367000D03*
D18*
X242097500Y-107910000D03*
D19*
X236957500Y-107240000D03*
D20*
X240247500Y-97080000D03*
X238747500Y-97080000D03*
D10*
X210922500Y-121210000D03*
D11*
X216252500Y-121210000D03*
X205592500Y-121210000D03*
D12*
X214422500Y-124080000D03*
D13*
X209703300Y-124893000D03*
D14*
X206222500Y-125460000D03*
D15*
X210922500Y-127210000D03*
D16*
X212182500Y-126402000D03*
D17*
X209652500Y-126417000D03*
D18*
X213522500Y-126960000D03*
D19*
X208382500Y-126290000D03*
D20*
X211672500Y-116130000D03*
X210172500Y-116130000D03*
D10*
X191872500Y-121210000D03*
D11*
X197202500Y-121210000D03*
X186542500Y-121210000D03*
D12*
X195372500Y-124080000D03*
D13*
X190653300Y-124893000D03*
D14*
X187172500Y-125460000D03*
D15*
X191872500Y-127210000D03*
D16*
X193132500Y-126402000D03*
D17*
X190602500Y-126417000D03*
D18*
X194472500Y-126960000D03*
D19*
X189332500Y-126290000D03*
D20*
X192622500Y-116130000D03*
X191122500Y-116130000D03*
D10*
X249022500Y-121210000D03*
D11*
X254352500Y-121210000D03*
X243692500Y-121210000D03*
D12*
X252522500Y-124080000D03*
D13*
X247803300Y-124893000D03*
D14*
X244322500Y-125460000D03*
D15*
X249022500Y-127210000D03*
D16*
X250282500Y-126402000D03*
D17*
X247752500Y-126417000D03*
D18*
X251622500Y-126960000D03*
D19*
X246482500Y-126290000D03*
D20*
X249772500Y-116130000D03*
X248272500Y-116130000D03*
D10*
X277597500Y-102160000D03*
D11*
X282927500Y-102160000D03*
X272267500Y-102160000D03*
D12*
X281097500Y-105030000D03*
D13*
X276378300Y-105843000D03*
D14*
X272897500Y-106410000D03*
D15*
X277597500Y-108160000D03*
D16*
X278857500Y-107352000D03*
D17*
X276327500Y-107367000D03*
D18*
X280197500Y-107910000D03*
D19*
X275057500Y-107240000D03*
D20*
X278347500Y-97080000D03*
X276847500Y-97080000D03*
D10*
X106147500Y-102160000D03*
D11*
X111477500Y-102160000D03*
X100817500Y-102160000D03*
D12*
X109647500Y-105030000D03*
D13*
X104928300Y-105843000D03*
D14*
X101447500Y-106410000D03*
D15*
X106147500Y-108160000D03*
D16*
X107407500Y-107352000D03*
D17*
X104877500Y-107367000D03*
D18*
X108747500Y-107910000D03*
D19*
X103607500Y-107240000D03*
D20*
X106897500Y-97080000D03*
X105397500Y-97080000D03*
D10*
X258547500Y-102160000D03*
D11*
X263877500Y-102160000D03*
X253217500Y-102160000D03*
D12*
X262047500Y-105030000D03*
D13*
X257328300Y-105843000D03*
D14*
X253847500Y-106410000D03*
D15*
X258547500Y-108160000D03*
D16*
X259807500Y-107352000D03*
D17*
X257277500Y-107367000D03*
D18*
X261147500Y-107910000D03*
D19*
X256007500Y-107240000D03*
D20*
X259297500Y-97080000D03*
X257797500Y-97080000D03*
D10*
X268072500Y-121210000D03*
D11*
X273402500Y-121210000D03*
X262742500Y-121210000D03*
D12*
X271572500Y-124080000D03*
D13*
X266853300Y-124893000D03*
D14*
X263372500Y-125460000D03*
D15*
X268072500Y-127210000D03*
D16*
X269332500Y-126402000D03*
D17*
X266802500Y-126417000D03*
D18*
X270672500Y-126960000D03*
D19*
X265532500Y-126290000D03*
D20*
X268822500Y-116130000D03*
X267322500Y-116130000D03*
D10*
X153772500Y-121210000D03*
D11*
X159102500Y-121210000D03*
X148442500Y-121210000D03*
D12*
X157272500Y-124080000D03*
D13*
X152553300Y-124893000D03*
D14*
X149072500Y-125460000D03*
D15*
X153772500Y-127210000D03*
D16*
X155032500Y-126402000D03*
D17*
X152502500Y-126417000D03*
D18*
X156372500Y-126960000D03*
D19*
X151232500Y-126290000D03*
D20*
X154522500Y-116130000D03*
X153022500Y-116130000D03*
D10*
X115672500Y-121210000D03*
D11*
X121002500Y-121210000D03*
X110342500Y-121210000D03*
D12*
X119172500Y-124080000D03*
D13*
X114453300Y-124893000D03*
D14*
X110972500Y-125460000D03*
D15*
X115672500Y-127210000D03*
D16*
X116932500Y-126402000D03*
D17*
X114402500Y-126417000D03*
D18*
X118272500Y-126960000D03*
D19*
X113132500Y-126290000D03*
D20*
X116422500Y-116130000D03*
X114922500Y-116130000D03*
D10*
X96622500Y-121210000D03*
D11*
X101952500Y-121210000D03*
X91292500Y-121210000D03*
D12*
X100122500Y-124080000D03*
D13*
X95403300Y-124893000D03*
D14*
X91922500Y-125460000D03*
D15*
X96622500Y-127210000D03*
D16*
X97882500Y-126402000D03*
D17*
X95352500Y-126417000D03*
D18*
X99222500Y-126960000D03*
D19*
X94082500Y-126290000D03*
D20*
X97372500Y-116130000D03*
X95872500Y-116130000D03*
D10*
X101385000Y-83110000D03*
D11*
X106715000Y-83110000D03*
X96055000Y-83110000D03*
D12*
X104885000Y-85980000D03*
D13*
X100165800Y-86793000D03*
D14*
X96685000Y-87360000D03*
D15*
X101385000Y-89110000D03*
D16*
X102645000Y-88302000D03*
D17*
X100115000Y-88317000D03*
D18*
X103985000Y-88860000D03*
D19*
X98845000Y-88190000D03*
D20*
X102135000Y-78030000D03*
X100635000Y-78030000D03*
D10*
X177585000Y-83110000D03*
D11*
X182915000Y-83110000D03*
X172255000Y-83110000D03*
D12*
X181085000Y-85980000D03*
D13*
X176365800Y-86793000D03*
D14*
X172885000Y-87360000D03*
D15*
X177585000Y-89110000D03*
D16*
X178845000Y-88302000D03*
D17*
X176315000Y-88317000D03*
D18*
X180185000Y-88860000D03*
D19*
X175045000Y-88190000D03*
D20*
X178335000Y-78030000D03*
X176835000Y-78030000D03*
D10*
X158535000Y-83110000D03*
D11*
X163865000Y-83110000D03*
X153205000Y-83110000D03*
D12*
X162035000Y-85980000D03*
D13*
X157315800Y-86793000D03*
D14*
X153835000Y-87360000D03*
D15*
X158535000Y-89110000D03*
D16*
X159795000Y-88302000D03*
D17*
X157265000Y-88317000D03*
D18*
X161135000Y-88860000D03*
D19*
X155995000Y-88190000D03*
D20*
X159285000Y-78030000D03*
X157785000Y-78030000D03*
D10*
X196635000Y-83110000D03*
D11*
X201965000Y-83110000D03*
X191305000Y-83110000D03*
D12*
X200135000Y-85980000D03*
D13*
X195415800Y-86793000D03*
D14*
X191935000Y-87360000D03*
D15*
X196635000Y-89110000D03*
D16*
X197895000Y-88302000D03*
D17*
X195365000Y-88317000D03*
D18*
X199235000Y-88860000D03*
D19*
X194095000Y-88190000D03*
D20*
X197385000Y-78030000D03*
X195885000Y-78030000D03*
D10*
X253785000Y-83110000D03*
D11*
X259115000Y-83110000D03*
X248455000Y-83110000D03*
D12*
X257285000Y-85980000D03*
D13*
X252565800Y-86793000D03*
D14*
X249085000Y-87360000D03*
D15*
X253785000Y-89110000D03*
D16*
X255045000Y-88302000D03*
D17*
X252515000Y-88317000D03*
D18*
X256385000Y-88860000D03*
D19*
X251245000Y-88190000D03*
D20*
X254535000Y-78030000D03*
X253035000Y-78030000D03*
D10*
X82335000Y-83110000D03*
D11*
X87665000Y-83110000D03*
X77005000Y-83110000D03*
D12*
X85835000Y-85980000D03*
D13*
X81115800Y-86793000D03*
D14*
X77635000Y-87360000D03*
D15*
X82335000Y-89110000D03*
D16*
X83595000Y-88302000D03*
D17*
X81065000Y-88317000D03*
D18*
X84935000Y-88860000D03*
D19*
X79795000Y-88190000D03*
D20*
X83085000Y-78030000D03*
X81585000Y-78030000D03*
D10*
X215685000Y-83110000D03*
D11*
X221015000Y-83110000D03*
X210355000Y-83110000D03*
D12*
X219185000Y-85980000D03*
D13*
X214465800Y-86793000D03*
D14*
X210985000Y-87360000D03*
D15*
X215685000Y-89110000D03*
D16*
X216945000Y-88302000D03*
D17*
X214415000Y-88317000D03*
D18*
X218285000Y-88860000D03*
D19*
X213145000Y-88190000D03*
D20*
X216435000Y-78030000D03*
X214935000Y-78030000D03*
D10*
X291885000Y-83110000D03*
D11*
X297215000Y-83110000D03*
X286555000Y-83110000D03*
D12*
X295385000Y-85980000D03*
D13*
X290665800Y-86793000D03*
D14*
X287185000Y-87360000D03*
D15*
X291885000Y-89110000D03*
D16*
X293145000Y-88302000D03*
D17*
X290615000Y-88317000D03*
D18*
X294485000Y-88860000D03*
D19*
X289345000Y-88190000D03*
D20*
X292635000Y-78030000D03*
X291135000Y-78030000D03*
D10*
X272835000Y-83110000D03*
D11*
X278165000Y-83110000D03*
X267505000Y-83110000D03*
D12*
X276335000Y-85980000D03*
D13*
X271615800Y-86793000D03*
D14*
X268135000Y-87360000D03*
D15*
X272835000Y-89110000D03*
D16*
X274095000Y-88302000D03*
D17*
X271565000Y-88317000D03*
D18*
X275435000Y-88860000D03*
D19*
X270295000Y-88190000D03*
D20*
X273585000Y-78030000D03*
X272085000Y-78030000D03*
D10*
X139485000Y-83110000D03*
D11*
X144815000Y-83110000D03*
X134155000Y-83110000D03*
D12*
X142985000Y-85980000D03*
D13*
X138265800Y-86793000D03*
D14*
X134785000Y-87360000D03*
D15*
X139485000Y-89110000D03*
D16*
X140745000Y-88302000D03*
D17*
X138215000Y-88317000D03*
D18*
X142085000Y-88860000D03*
D19*
X136945000Y-88190000D03*
D20*
X140235000Y-78030000D03*
X138735000Y-78030000D03*
D10*
X120435000Y-83110000D03*
D11*
X125765000Y-83110000D03*
X115105000Y-83110000D03*
D12*
X123935000Y-85980000D03*
D13*
X119215800Y-86793000D03*
D14*
X115735000Y-87360000D03*
D15*
X120435000Y-89110000D03*
D16*
X121695000Y-88302000D03*
D17*
X119165000Y-88317000D03*
D18*
X123035000Y-88860000D03*
D19*
X117895000Y-88190000D03*
D20*
X121185000Y-78030000D03*
X119685000Y-78030000D03*
D10*
X234735000Y-83110000D03*
D11*
X240065000Y-83110000D03*
X229405000Y-83110000D03*
D12*
X238235000Y-85980000D03*
D13*
X233515800Y-86793000D03*
D14*
X230035000Y-87360000D03*
D15*
X234735000Y-89110000D03*
D16*
X235995000Y-88302000D03*
D17*
X233465000Y-88317000D03*
D18*
X237335000Y-88860000D03*
D19*
X232195000Y-88190000D03*
D20*
X235485000Y-78030000D03*
X233985000Y-78030000D03*
D10*
X53760000Y-64060000D03*
D11*
X59090000Y-64060000D03*
X48430000Y-64060000D03*
D12*
X57260000Y-66930000D03*
D13*
X52540800Y-67743000D03*
D14*
X49060000Y-68310000D03*
D15*
X53760000Y-70060000D03*
D16*
X55020000Y-69252000D03*
D17*
X52490000Y-69267000D03*
D18*
X56360000Y-69810000D03*
D19*
X51220000Y-69140000D03*
D20*
X54510000Y-58980000D03*
X53010000Y-58980000D03*
D10*
X206160000Y-64060000D03*
D11*
X211490000Y-64060000D03*
X200830000Y-64060000D03*
D12*
X209660000Y-66930000D03*
D13*
X204940800Y-67743000D03*
D14*
X201460000Y-68310000D03*
D15*
X206160000Y-70060000D03*
D16*
X207420000Y-69252000D03*
D17*
X204890000Y-69267000D03*
D18*
X208760000Y-69810000D03*
D19*
X203620000Y-69140000D03*
D20*
X206910000Y-58980000D03*
X205410000Y-58980000D03*
D10*
X168060000Y-64060000D03*
D11*
X173390000Y-64060000D03*
X162730000Y-64060000D03*
D12*
X171560000Y-66930000D03*
D13*
X166840800Y-67743000D03*
D14*
X163360000Y-68310000D03*
D15*
X168060000Y-70060000D03*
D16*
X169320000Y-69252000D03*
D17*
X166790000Y-69267000D03*
D18*
X170660000Y-69810000D03*
D19*
X165520000Y-69140000D03*
D20*
X168810000Y-58980000D03*
X167310000Y-58980000D03*
D10*
X225210000Y-64060000D03*
D11*
X230540000Y-64060000D03*
X219880000Y-64060000D03*
D12*
X228710000Y-66930000D03*
D13*
X223990800Y-67743000D03*
D14*
X220510000Y-68310000D03*
D15*
X225210000Y-70060000D03*
D16*
X226470000Y-69252000D03*
D17*
X223940000Y-69267000D03*
D18*
X227810000Y-69810000D03*
D19*
X222670000Y-69140000D03*
D20*
X225960000Y-58980000D03*
X224460000Y-58980000D03*
D10*
X244260000Y-64060000D03*
D11*
X249590000Y-64060000D03*
X238930000Y-64060000D03*
D12*
X247760000Y-66930000D03*
D13*
X243040800Y-67743000D03*
D14*
X239560000Y-68310000D03*
D15*
X244260000Y-70060000D03*
D16*
X245520000Y-69252000D03*
D17*
X242990000Y-69267000D03*
D18*
X246860000Y-69810000D03*
D19*
X241720000Y-69140000D03*
D20*
X245010000Y-58980000D03*
X243510000Y-58980000D03*
D10*
X149010000Y-64060000D03*
D11*
X154340000Y-64060000D03*
X143680000Y-64060000D03*
D12*
X152510000Y-66930000D03*
D13*
X147790800Y-67743000D03*
D14*
X144310000Y-68310000D03*
D15*
X149010000Y-70060000D03*
D16*
X150270000Y-69252000D03*
D17*
X147740000Y-69267000D03*
D18*
X151610000Y-69810000D03*
D19*
X146470000Y-69140000D03*
D20*
X149760000Y-58980000D03*
X148260000Y-58980000D03*
D10*
X110910000Y-64060000D03*
D11*
X116240000Y-64060000D03*
X105580000Y-64060000D03*
D12*
X114410000Y-66930000D03*
D13*
X109690800Y-67743000D03*
D14*
X106210000Y-68310000D03*
D15*
X110910000Y-70060000D03*
D16*
X112170000Y-69252000D03*
D17*
X109640000Y-69267000D03*
D18*
X113510000Y-69810000D03*
D19*
X108370000Y-69140000D03*
D20*
X111660000Y-58980000D03*
X110160000Y-58980000D03*
D10*
X282360000Y-64060000D03*
D11*
X287690000Y-64060000D03*
X277030000Y-64060000D03*
D12*
X285860000Y-66930000D03*
D13*
X281140800Y-67743000D03*
D14*
X277660000Y-68310000D03*
D15*
X282360000Y-70060000D03*
D16*
X283620000Y-69252000D03*
D17*
X281090000Y-69267000D03*
D18*
X284960000Y-69810000D03*
D19*
X279820000Y-69140000D03*
D20*
X283110000Y-58980000D03*
X281610000Y-58980000D03*
D10*
X129960000Y-64060000D03*
D11*
X135290000Y-64060000D03*
X124630000Y-64060000D03*
D12*
X133460000Y-66930000D03*
D13*
X128740800Y-67743000D03*
D14*
X125260000Y-68310000D03*
D15*
X129960000Y-70060000D03*
D16*
X131220000Y-69252000D03*
D17*
X128690000Y-69267000D03*
D18*
X132560000Y-69810000D03*
D19*
X127420000Y-69140000D03*
D20*
X130710000Y-58980000D03*
X129210000Y-58980000D03*
D10*
X72810000Y-64060000D03*
D11*
X78140000Y-64060000D03*
X67480000Y-64060000D03*
D12*
X76310000Y-66930000D03*
D13*
X71590800Y-67743000D03*
D14*
X68110000Y-68310000D03*
D15*
X72810000Y-70060000D03*
D16*
X74070000Y-69252000D03*
D17*
X71540000Y-69267000D03*
D18*
X75410000Y-69810000D03*
D19*
X70270000Y-69140000D03*
D20*
X73560000Y-58980000D03*
X72060000Y-58980000D03*
D10*
X263310000Y-64060000D03*
D11*
X268640000Y-64060000D03*
X257980000Y-64060000D03*
D12*
X266810000Y-66930000D03*
D13*
X262090800Y-67743000D03*
D14*
X258610000Y-68310000D03*
D15*
X263310000Y-70060000D03*
D16*
X264570000Y-69252000D03*
D17*
X262040000Y-69267000D03*
D18*
X265910000Y-69810000D03*
D19*
X260770000Y-69140000D03*
D20*
X264060000Y-58980000D03*
X262560000Y-58980000D03*
D10*
X91860000Y-64060000D03*
D11*
X97190000Y-64060000D03*
X86530000Y-64060000D03*
D12*
X95360000Y-66930000D03*
D13*
X90640800Y-67743000D03*
D14*
X87160000Y-68310000D03*
D15*
X91860000Y-70060000D03*
D16*
X93120000Y-69252000D03*
D17*
X90590000Y-69267000D03*
D18*
X94460000Y-69810000D03*
D19*
X89320000Y-69140000D03*
D20*
X92610000Y-58980000D03*
X91110000Y-58980000D03*
D10*
X187110000Y-64060000D03*
D11*
X192440000Y-64060000D03*
X181780000Y-64060000D03*
D12*
X190610000Y-66930000D03*
D13*
X185890800Y-67743000D03*
D14*
X182410000Y-68310000D03*
D15*
X187110000Y-70060000D03*
D16*
X188370000Y-69252000D03*
D17*
X185840000Y-69267000D03*
D18*
X189710000Y-69810000D03*
D19*
X184570000Y-69140000D03*
D20*
X187860000Y-58980000D03*
X186360000Y-58980000D03*
D10*
X296647500Y-102160000D03*
D11*
X301977500Y-102160000D03*
X291317500Y-102160000D03*
D12*
X300147500Y-105030000D03*
D13*
X295428300Y-105843000D03*
D14*
X291947500Y-106410000D03*
D15*
X296647500Y-108160000D03*
D16*
X297907500Y-107352000D03*
D17*
X295377500Y-107367000D03*
D18*
X299247500Y-107910000D03*
D19*
X294107500Y-107240000D03*
D20*
X297397500Y-97080000D03*
X295897500Y-97080000D03*
D10*
X210922500Y-32610000D03*
D11*
X216252500Y-32610000D03*
X205592500Y-32610000D03*
D12*
X214422500Y-35480000D03*
D13*
X209703300Y-36293000D03*
D14*
X206222500Y-36860000D03*
D15*
X210922500Y-38610000D03*
D16*
X212182500Y-37802000D03*
D17*
X209652500Y-37817000D03*
D18*
X213522500Y-38360000D03*
D19*
X208382500Y-37690000D03*
D20*
X211672500Y-27530000D03*
X210172500Y-27530000D03*
D10*
X296660000Y-32610000D03*
D11*
X301990000Y-32610000D03*
X291330000Y-32610000D03*
D12*
X300160000Y-35480000D03*
D13*
X295440800Y-36293000D03*
D14*
X291960000Y-36860000D03*
D15*
X296660000Y-38610000D03*
D16*
X297920000Y-37802000D03*
D17*
X295390000Y-37817000D03*
D18*
X299260000Y-38360000D03*
D19*
X294120000Y-37690000D03*
D20*
X297410000Y-27530000D03*
X295910000Y-27530000D03*
D10*
X268072500Y-32610000D03*
D11*
X273402500Y-32610000D03*
X262742500Y-32610000D03*
D12*
X271572500Y-35480000D03*
D13*
X266853300Y-36293000D03*
D14*
X263372500Y-36860000D03*
D15*
X268072500Y-38610000D03*
D16*
X269332500Y-37802000D03*
D17*
X266802500Y-37817000D03*
D18*
X270672500Y-38360000D03*
D19*
X265532500Y-37690000D03*
D20*
X268822500Y-27530000D03*
X267322500Y-27530000D03*
D10*
X239497500Y-32610000D03*
D11*
X244827500Y-32610000D03*
X234167500Y-32610000D03*
D12*
X242997500Y-35480000D03*
D13*
X238278300Y-36293000D03*
D14*
X234797500Y-36860000D03*
D15*
X239497500Y-38610000D03*
D16*
X240757500Y-37802000D03*
D17*
X238227500Y-37817000D03*
D18*
X242097500Y-38360000D03*
D19*
X236957500Y-37690000D03*
D20*
X240247500Y-27530000D03*
X238747500Y-27530000D03*
D10*
X96622500Y-32610000D03*
D11*
X101952500Y-32610000D03*
X91292500Y-32610000D03*
D12*
X100122500Y-35480000D03*
D13*
X95403300Y-36293000D03*
D14*
X91922500Y-36860000D03*
D15*
X96622500Y-38610000D03*
D16*
X97882500Y-37802000D03*
D17*
X95352500Y-37817000D03*
D18*
X99222500Y-38360000D03*
D19*
X94082500Y-37690000D03*
D20*
X97372500Y-27530000D03*
X95872500Y-27530000D03*
D10*
X125197500Y-32610000D03*
D11*
X130527500Y-32610000D03*
X119867500Y-32610000D03*
D12*
X128697500Y-35480000D03*
D13*
X123978300Y-36293000D03*
D14*
X120497500Y-36860000D03*
D15*
X125197500Y-38610000D03*
D16*
X126457500Y-37802000D03*
D17*
X123927500Y-37817000D03*
D18*
X127797500Y-38360000D03*
D19*
X122657500Y-37690000D03*
D20*
X125947500Y-27530000D03*
X124447500Y-27530000D03*
D10*
X153772500Y-32610000D03*
D11*
X159102500Y-32610000D03*
X148442500Y-32610000D03*
D12*
X157272500Y-35480000D03*
D13*
X152553300Y-36293000D03*
D14*
X149072500Y-36860000D03*
D15*
X153772500Y-38610000D03*
D16*
X155032500Y-37802000D03*
D17*
X152502500Y-37817000D03*
D18*
X156372500Y-38360000D03*
D19*
X151232500Y-37690000D03*
D20*
X154522500Y-27530000D03*
X153022500Y-27530000D03*
D10*
X182347500Y-32610000D03*
D11*
X187677500Y-32610000D03*
X177017500Y-32610000D03*
D12*
X185847500Y-35480000D03*
D13*
X181128300Y-36293000D03*
D14*
X177647500Y-36860000D03*
D15*
X182347500Y-38610000D03*
D16*
X183607500Y-37802000D03*
D17*
X181077500Y-37817000D03*
D18*
X184947500Y-38360000D03*
D19*
X179807500Y-37690000D03*
D20*
X183097500Y-27530000D03*
X181597500Y-27530000D03*
D10*
X325222500Y-32610000D03*
D11*
X330552500Y-32610000D03*
X319892500Y-32610000D03*
D12*
X328722500Y-35480000D03*
D13*
X324003300Y-36293000D03*
D14*
X320522500Y-36860000D03*
D15*
X325222500Y-38610000D03*
D16*
X326482500Y-37802000D03*
D17*
X323952500Y-37817000D03*
D18*
X327822500Y-38360000D03*
D19*
X322682500Y-37690000D03*
D20*
X325972500Y-27530000D03*
X324472500Y-27530000D03*
D32*
X29360000Y-143200000D03*
D33*
X31900000Y-143200000D03*
D34*
X187935000Y-55725625D03*
X186285000Y-55725625D03*
D35*
X67729000Y-110669000D03*
X64429000Y-110669000D03*
D36*
X40029000Y-113590000D03*
D37*
X37489000Y-113590000D03*
X34949000Y-113590000D03*
D36*
X34964000Y-90984000D03*
D37*
X37504000Y-90984000D03*
X40044000Y-90984000D03*
D34*
X168885000Y-55678000D03*
X167235000Y-55678000D03*
X197587000Y-74728000D03*
X195937000Y-74728000D03*
X97511000Y-24182000D03*
X95861000Y-24182000D03*
X192697500Y-112875625D03*
X191047500Y-112875625D03*
X154661000Y-24182000D03*
X153011000Y-24182000D03*
X183172500Y-93778000D03*
X181522500Y-93778000D03*
X187935000Y-131925625D03*
X186285000Y-131925625D03*
X211811000Y-24182000D03*
X210161000Y-24182000D03*
X206922000Y-55678000D03*
X205272000Y-55678000D03*
X149835000Y-55678000D03*
X148185000Y-55678000D03*
X216637000Y-74728000D03*
X214987000Y-74728000D03*
X159487000Y-74728000D03*
X157837000Y-74728000D03*
X221463000Y-93778000D03*
X219813000Y-93778000D03*
X164313000Y-93778000D03*
X162663000Y-93778000D03*
X211811000Y-112828000D03*
X210161000Y-112828000D03*
X173647500Y-112875625D03*
X171997500Y-112875625D03*
X226035000Y-55678000D03*
X224385000Y-55678000D03*
X131039000Y-55678000D03*
X129389000Y-55678000D03*
X235687000Y-74728000D03*
X234037000Y-74728000D03*
X140437000Y-74728000D03*
X138787000Y-74728000D03*
X240259000Y-93778000D03*
X238609000Y-93778000D03*
X145263000Y-93778000D03*
X143613000Y-93778000D03*
X230861000Y-112828000D03*
X229211000Y-112828000D03*
X154661000Y-112828000D03*
X153011000Y-112828000D03*
X245339000Y-55678000D03*
X243689000Y-55678000D03*
X111989000Y-55678000D03*
X110339000Y-55678000D03*
X254737000Y-74728000D03*
X253087000Y-74728000D03*
X121387000Y-74728000D03*
X119737000Y-74728000D03*
X259309000Y-93778000D03*
X257659000Y-93778000D03*
X126213000Y-93524000D03*
X124563000Y-93524000D03*
X249911000Y-112828000D03*
X248261000Y-112828000D03*
X135611000Y-112828000D03*
X133961000Y-112828000D03*
X264389000Y-55678000D03*
X262739000Y-55678000D03*
X273660000Y-74728000D03*
X272010000Y-74728000D03*
X102337000Y-74728000D03*
X100687000Y-74728000D03*
X278359000Y-93778000D03*
X276709000Y-93778000D03*
X106909000Y-93778000D03*
X105259000Y-93778000D03*
X268961000Y-112828000D03*
X267311000Y-112828000D03*
X116497500Y-112875625D03*
X114847500Y-112875625D03*
X73635000Y-55678000D03*
X71985000Y-55678000D03*
X292583000Y-74728000D03*
X290933000Y-74728000D03*
X83033000Y-74728000D03*
X81383000Y-74728000D03*
X297409000Y-93778000D03*
X295759000Y-93778000D03*
X87859000Y-93778000D03*
X86209000Y-93778000D03*
X321285000Y-112828000D03*
X319635000Y-112828000D03*
X97447500Y-112875625D03*
X95797500Y-112875625D03*
X296393000Y-55424000D03*
X294743000Y-55424000D03*
D38*
X52935000Y-55678000D03*
X54585000Y-55678000D03*
D39*
X306236000Y-76061000D03*
X306236000Y-74411000D03*
D34*
X59502000Y-74728000D03*
X57852000Y-74728000D03*
X126213000Y-24182000D03*
X124563000Y-24182000D03*
D40*
X330874000Y-97779000D03*
X330874000Y-99429000D03*
D38*
X325731000Y-55424000D03*
X327381000Y-55424000D03*
D34*
X115306875Y-131925625D03*
X113656875Y-131925625D03*
X240322500Y-24182000D03*
X238672500Y-24182000D03*
X268961000Y-24182000D03*
X267311000Y-24182000D03*
X297663000Y-24182000D03*
X296013000Y-24182000D03*
X326111000Y-24182000D03*
X324461000Y-24182000D03*
X178410000Y-74728000D03*
X176760000Y-74728000D03*
X202159000Y-93778000D03*
X200509000Y-93778000D03*
X92685000Y-55678000D03*
X91035000Y-55678000D03*
X283185000Y-55678000D03*
X281535000Y-55678000D03*
X183109000Y-24182000D03*
X181459000Y-24182000D03*
X295123000Y-112828000D03*
X293473000Y-112828000D03*
X66459742Y-112875625D03*
X64809742Y-112875625D03*
X61634000Y-93778000D03*
X59984000Y-93778000D03*
D38*
X258913125Y-131925625D03*
X260563125Y-131925625D03*
D36*
X332683000Y-46477000D03*
D37*
X332683000Y-49017000D03*
D35*
X141462000Y-129792000D03*
X138162000Y-129792000D03*
X251117000Y-72569000D03*
X247817000Y-72569000D03*
X303316000Y-91619000D03*
X306616000Y-91619000D03*
X208191000Y-110669000D03*
X204891000Y-110669000D03*
X117767000Y-72569000D03*
X114467000Y-72569000D03*
X279692000Y-91619000D03*
X276392000Y-91619000D03*
D11*
X316265000Y-64060000D03*
D30*
X298935000Y-72315000D03*
D31*
X298935000Y-57075000D03*
D11*
X305605000Y-64060000D03*
D30*
X322935000Y-72315000D03*
D10*
X310935000Y-64060000D03*
D31*
X322935000Y-57075000D03*
D14*
X306235000Y-68310000D03*
D13*
X309715800Y-67743000D03*
D12*
X314435000Y-66930000D03*
D18*
X313535000Y-69810000D03*
D16*
X312195000Y-69252000D03*
D17*
X309665000Y-69267000D03*
D15*
X310935000Y-70060000D03*
D19*
X308395000Y-69140000D03*
D35*
X93891000Y-110669000D03*
X90591000Y-110669000D03*
X265341000Y-110669000D03*
X262041000Y-110669000D03*
X270040000Y-72569000D03*
X266740000Y-72569000D03*
X260642000Y-91619000D03*
X257342000Y-91619000D03*
X284518000Y-110669000D03*
X281218000Y-110669000D03*
X324904000Y-110669000D03*
X321604000Y-110669000D03*
X193967000Y-72569000D03*
X190667000Y-72569000D03*
X131991000Y-110669000D03*
X128691000Y-110669000D03*
X189268000Y-41200000D03*
X185968000Y-41200000D03*
X298742000Y-91619000D03*
X295442000Y-91619000D03*
X266484000Y-148896000D03*
X263184000Y-148896000D03*
X121323000Y-148769000D03*
X118023000Y-148769000D03*
X103362000Y-129792000D03*
X100062000Y-129792000D03*
X184442000Y-91619000D03*
X181142000Y-91619000D03*
X103416000Y-41200000D03*
X100116000Y-41200000D03*
X165392000Y-91619000D03*
X162092000Y-91619000D03*
X179616000Y-129846000D03*
X176316000Y-129846000D03*
X174917000Y-72569000D03*
X171617000Y-72569000D03*
X89192000Y-91619000D03*
X85892000Y-91619000D03*
X213017000Y-72588000D03*
X209717000Y-72588000D03*
X151041000Y-110669000D03*
X147741000Y-110669000D03*
X122478000Y-129846000D03*
X119178000Y-129846000D03*
X317784000Y-72642000D03*
X314484000Y-72642000D03*
X198770000Y-129719000D03*
X195470000Y-129719000D03*
D36*
X332683000Y-51811000D03*
D37*
X332683000Y-54351000D03*
D35*
X65316000Y-91619000D03*
X62016000Y-91619000D03*
X160516000Y-41200000D03*
X157216000Y-41200000D03*
X72428000Y-129846000D03*
X69128000Y-129846000D03*
X160528000Y-129846000D03*
X157228000Y-129846000D03*
D31*
X311093750Y-104635000D03*
D10*
X318078750Y-92635000D03*
D30*
X326333750Y-104635000D03*
D21*
X318078750Y-97965000D03*
D31*
X311093750Y-80635000D03*
D30*
X326333750Y-80635000D03*
D23*
X314395750Y-91415800D03*
D28*
X315208750Y-96135000D03*
D29*
X313828750Y-87935000D03*
D26*
X312871750Y-91365000D03*
D27*
X312328750Y-95235000D03*
D15*
X312078750Y-92635000D03*
D25*
X312886750Y-93895000D03*
D19*
X312998750Y-90095000D03*
D35*
X274866000Y-129719000D03*
X271566000Y-129719000D03*
X189141000Y-110669000D03*
X185841000Y-110669000D03*
X303441000Y-110669000D03*
X300141000Y-110669000D03*
X289244000Y-72496000D03*
X285944000Y-72496000D03*
X146342000Y-91619000D03*
X143042000Y-91619000D03*
X246291000Y-110669000D03*
X242991000Y-110669000D03*
X112940000Y-110669000D03*
X109640000Y-110669000D03*
X132118000Y-41200000D03*
X128818000Y-41200000D03*
X108242000Y-91619000D03*
X104942000Y-91619000D03*
X231940000Y-72569000D03*
X228640000Y-72569000D03*
X241592000Y-91619000D03*
X238292000Y-91619000D03*
X227368000Y-110669000D03*
X224068000Y-110669000D03*
X236766000Y-129719000D03*
X233466000Y-129719000D03*
X98717000Y-72569000D03*
X95417000Y-72569000D03*
X79667000Y-72569000D03*
X76367000Y-72569000D03*
X217716000Y-129719000D03*
X214416000Y-129719000D03*
X60617000Y-72569000D03*
X57317000Y-72569000D03*
X203492000Y-91619000D03*
X200192000Y-91619000D03*
X155867000Y-72569000D03*
X152567000Y-72569000D03*
X327317000Y-129719000D03*
X324017000Y-129719000D03*
X255816000Y-129719000D03*
X252516000Y-129719000D03*
X222542000Y-91619000D03*
X219242000Y-91619000D03*
X127292000Y-91619000D03*
X123992000Y-91619000D03*
X136740000Y-72515000D03*
X133440000Y-72515000D03*
X170091000Y-110669000D03*
X166791000Y-110669000D03*
X194094000Y-148896000D03*
X190794000Y-148896000D03*
X217716000Y-41200000D03*
X214416000Y-41200000D03*
D41*
X324778000Y-45772000D03*
D42*
X324778000Y-43232000D03*
X322238000Y-45772000D03*
X322238000Y-43232000D03*
X319698000Y-45772000D03*
X319698000Y-43232000D03*
X317158000Y-45772000D03*
X317158000Y-43232000D03*
X314618000Y-45772000D03*
X314618000Y-43232000D03*
X312078000Y-45772000D03*
X312078000Y-43232000D03*
X309538000Y-45772000D03*
X309538000Y-43232000D03*
X306998000Y-45772000D03*
X306998000Y-43232000D03*
X304458000Y-45772000D03*
X304458000Y-43232000D03*
X301918000Y-45772000D03*
X301918000Y-43232000D03*
X299378000Y-45772000D03*
X299378000Y-43232000D03*
X296838000Y-45772000D03*
X296838000Y-43232000D03*
M02*
