G04 #@! TF.GenerationSoftware,KiCad,Pcbnew,(7.0.0)*
G04 #@! TF.CreationDate,2023-03-01T21:10:47-08:00*
G04 #@! TF.ProjectId,DecentXE,44656365-6e74-4584-952e-6b696361645f,11*
G04 #@! TF.SameCoordinates,Original*
G04 #@! TF.FileFunction,Soldermask,Bot*
G04 #@! TF.FilePolarity,Negative*
%FSLAX46Y46*%
G04 Gerber Fmt 4.6, Leading zero omitted, Abs format (unit mm)*
G04 Created by KiCad (PCBNEW (7.0.0)) date 2023-03-01 21:10:47*
%MOMM*%
%LPD*%
G01*
G04 APERTURE LIST*
G04 Aperture macros list*
%AMRoundRect*
0 Rectangle with rounded corners*
0 $1 Rounding radius*
0 $2 $3 $4 $5 $6 $7 $8 $9 X,Y pos of 4 corners*
0 Add a 4 corners polygon primitive as box body*
4,1,4,$2,$3,$4,$5,$6,$7,$8,$9,$2,$3,0*
0 Add four circle primitives for the rounded corners*
1,1,$1+$1,$2,$3*
1,1,$1+$1,$4,$5*
1,1,$1+$1,$6,$7*
1,1,$1+$1,$8,$9*
0 Add four rect primitives between the rounded corners*
20,1,$1+$1,$2,$3,$4,$5,0*
20,1,$1+$1,$4,$5,$6,$7,0*
20,1,$1+$1,$6,$7,$8,$9,0*
20,1,$1+$1,$8,$9,$2,$3,0*%
%AMHorizOval*
0 Thick line with rounded ends*
0 $1 width*
0 $2 $3 position (X,Y) of the first rounded end (center of the circle)*
0 $4 $5 position (X,Y) of the second rounded end (center of the circle)*
0 Add line between two ends*
20,1,$1,$2,$3,$4,$5,0*
0 Add two circle primitives to create the rounded ends*
1,1,$1,$2,$3*
1,1,$1,$4,$5*%
G04 Aperture macros list end*
%ADD10R,1.800000X1.800000*%
%ADD11C,1.800000*%
%ADD12O,2.200000X1.800000*%
%ADD13C,5.250000*%
%ADD14HorizOval,1.400000X-0.169047X0.362523X0.169047X-0.362523X0*%
%ADD15HorizOval,2.200000X-0.353553X-0.353553X0.353553X0.353553X0*%
%ADD16C,1.900000*%
%ADD17C,2.200000*%
%ADD18O,2.500000X1.400000*%
%ADD19C,3.048000*%
%ADD20C,3.987800*%
%ADD21O,1.800000X2.200000*%
%ADD22HorizOval,2.200000X0.353553X-0.353553X-0.353553X0.353553X0*%
%ADD23HorizOval,1.400000X-0.362523X-0.169047X0.362523X0.169047X0*%
%ADD24O,1.400000X2.500000*%
%ADD25HorizOval,1.400000X0.362523X0.169047X-0.362523X-0.169047X0*%
%ADD26HorizOval,2.200000X-0.353553X0.353553X0.353553X-0.353553X0*%
%ADD27R,1.700000X1.700000*%
%ADD28O,1.700000X1.700000*%
%ADD29RoundRect,0.250000X0.600000X-0.600000X0.600000X0.600000X-0.600000X0.600000X-0.600000X-0.600000X0*%
%ADD30C,1.700000*%
%ADD31R,0.400000X1.000000*%
%ADD32R,2.000000X1.300000*%
G04 APERTURE END LIST*
D10*
X29359999Y-143199999D03*
D11*
X31900000Y-143200000D03*
D12*
X81767499Y-102159999D03*
D13*
X87097500Y-102160000D03*
D12*
X92427499Y-102159999D03*
D14*
X82397499Y-106409999D03*
D15*
X90597499Y-105029999D03*
D16*
X84557500Y-107240000D03*
D17*
X87097500Y-108160000D03*
D18*
X89697499Y-107909999D03*
D12*
X167492499Y-121209999D03*
D13*
X172822500Y-121210000D03*
D12*
X178152499Y-121209999D03*
D14*
X168122499Y-125459999D03*
D15*
X176322499Y-124079999D03*
D16*
X170282500Y-126290000D03*
D17*
X172822500Y-127210000D03*
D18*
X175422499Y-126959999D03*
D12*
X129392499Y-121209999D03*
D13*
X134722500Y-121210000D03*
D12*
X140052499Y-121209999D03*
D14*
X130022499Y-125459999D03*
D15*
X138222499Y-124079999D03*
D16*
X132182500Y-126290000D03*
D17*
X134722500Y-127210000D03*
D18*
X137322499Y-126959999D03*
D12*
X224642499Y-121209999D03*
D13*
X229972500Y-121210000D03*
D12*
X235302499Y-121209999D03*
D14*
X225272499Y-125459999D03*
D15*
X233472499Y-124079999D03*
D16*
X227432500Y-126290000D03*
D17*
X229972500Y-127210000D03*
D18*
X232572499Y-126959999D03*
D12*
X312748749Y-102159999D03*
D13*
X318078750Y-102160000D03*
D12*
X323408749Y-102159999D03*
D14*
X313378749Y-106409999D03*
D15*
X321578749Y-105029999D03*
D16*
X315538750Y-107240000D03*
D17*
X318078750Y-108160000D03*
D18*
X320678749Y-107909999D03*
D12*
X109151874Y-140259999D03*
D13*
X114481875Y-140260000D03*
D12*
X119811874Y-140259999D03*
D14*
X109781874Y-144509999D03*
D15*
X117981874Y-143129999D03*
D16*
X111941875Y-145340000D03*
D17*
X114481875Y-146260000D03*
D18*
X117081874Y-146009999D03*
D12*
X119867499Y-102159999D03*
D13*
X125197500Y-102160000D03*
D12*
X130527499Y-102159999D03*
D14*
X120497499Y-106409999D03*
D15*
X128697499Y-105029999D03*
D16*
X122657500Y-107240000D03*
D17*
X125197500Y-108160000D03*
D18*
X127797499Y-107909999D03*
D12*
X138917499Y-102159999D03*
D13*
X144247500Y-102160000D03*
D12*
X149577499Y-102159999D03*
D14*
X139547499Y-106409999D03*
D15*
X147747499Y-105029999D03*
D16*
X141707500Y-107240000D03*
D17*
X144247500Y-108160000D03*
D18*
X146847499Y-107909999D03*
D12*
X157967499Y-102159999D03*
D13*
X163297500Y-102160000D03*
D12*
X168627499Y-102159999D03*
D14*
X158597499Y-106409999D03*
D15*
X166797499Y-105029999D03*
D16*
X160757500Y-107240000D03*
D17*
X163297500Y-108160000D03*
D18*
X165897499Y-107909999D03*
D12*
X177017499Y-102159999D03*
D13*
X182347500Y-102160000D03*
D12*
X187677499Y-102159999D03*
D14*
X177647499Y-106409999D03*
D15*
X185847499Y-105029999D03*
D16*
X179807500Y-107240000D03*
D17*
X182347500Y-108160000D03*
D18*
X184947499Y-107909999D03*
D12*
X205592499Y-32609999D03*
D13*
X210922500Y-32610000D03*
D12*
X216252499Y-32609999D03*
D14*
X206222499Y-36859999D03*
D15*
X214422499Y-35479999D03*
D16*
X208382500Y-37690000D03*
D17*
X210922500Y-38610000D03*
D18*
X213522499Y-38359999D03*
D12*
X315129999Y-121209999D03*
D13*
X320460000Y-121210000D03*
D12*
X325789999Y-121209999D03*
D14*
X315759999Y-125459999D03*
D15*
X323959999Y-124079999D03*
D16*
X317920000Y-126290000D03*
D17*
X320460000Y-127210000D03*
D18*
X323059999Y-126959999D03*
D12*
X196067499Y-102159999D03*
D13*
X201397500Y-102160000D03*
D12*
X206727499Y-102159999D03*
D14*
X196697499Y-106409999D03*
D15*
X204897499Y-105029999D03*
D16*
X198857500Y-107240000D03*
D17*
X201397500Y-108160000D03*
D18*
X203997499Y-107909999D03*
D12*
X215117499Y-102159999D03*
D13*
X220447500Y-102160000D03*
D12*
X225777499Y-102159999D03*
D14*
X215747499Y-106409999D03*
D15*
X223947499Y-105029999D03*
D16*
X217907500Y-107240000D03*
D17*
X220447500Y-108160000D03*
D18*
X223047499Y-107909999D03*
D12*
X234167499Y-102159999D03*
D13*
X239497500Y-102160000D03*
D12*
X244827499Y-102159999D03*
D14*
X234797499Y-106409999D03*
D15*
X242997499Y-105029999D03*
D16*
X236957500Y-107240000D03*
D17*
X239497500Y-108160000D03*
D18*
X242097499Y-107909999D03*
D19*
X53666250Y-114225000D03*
D20*
X53666250Y-129465000D03*
D12*
X60336249Y-121209999D03*
D13*
X65666250Y-121210000D03*
D12*
X70996249Y-121209999D03*
D19*
X77666250Y-114225000D03*
D20*
X77666250Y-129465000D03*
D14*
X60966249Y-125459999D03*
D15*
X69166249Y-124079999D03*
D16*
X63126250Y-126290000D03*
D17*
X65666250Y-127210000D03*
D18*
X68266249Y-126959999D03*
D12*
X205592499Y-121209999D03*
D13*
X210922500Y-121210000D03*
D12*
X216252499Y-121209999D03*
D14*
X206222499Y-125459999D03*
D15*
X214422499Y-124079999D03*
D16*
X208382500Y-126290000D03*
D17*
X210922500Y-127210000D03*
D18*
X213522499Y-126959999D03*
D12*
X186542499Y-121209999D03*
D13*
X191872500Y-121210000D03*
D12*
X197202499Y-121209999D03*
D14*
X187172499Y-125459999D03*
D15*
X195372499Y-124079999D03*
D16*
X189332500Y-126290000D03*
D17*
X191872500Y-127210000D03*
D18*
X194472499Y-126959999D03*
D12*
X291329999Y-32609999D03*
D13*
X296660000Y-32610000D03*
D12*
X301989999Y-32609999D03*
D14*
X291959999Y-36859999D03*
D15*
X300159999Y-35479999D03*
D16*
X294120000Y-37690000D03*
D17*
X296660000Y-38610000D03*
D18*
X299259999Y-38359999D03*
D12*
X243692499Y-121209999D03*
D13*
X249022500Y-121210000D03*
D12*
X254352499Y-121209999D03*
D14*
X244322499Y-125459999D03*
D15*
X252522499Y-124079999D03*
D16*
X246482500Y-126290000D03*
D17*
X249022500Y-127210000D03*
D18*
X251622499Y-126959999D03*
D12*
X272267499Y-102159999D03*
D13*
X277597500Y-102160000D03*
D12*
X282927499Y-102159999D03*
D14*
X272897499Y-106409999D03*
D15*
X281097499Y-105029999D03*
D16*
X275057500Y-107240000D03*
D17*
X277597500Y-108160000D03*
D18*
X280197499Y-107909999D03*
D19*
X282266250Y-114225000D03*
D20*
X282266250Y-129465000D03*
D12*
X288936249Y-121209999D03*
D13*
X294266250Y-121210000D03*
D12*
X299596249Y-121209999D03*
D19*
X306266250Y-114225000D03*
D20*
X306266250Y-129465000D03*
D14*
X289566249Y-125459999D03*
D15*
X297766249Y-124079999D03*
D16*
X291726250Y-126290000D03*
D17*
X294266250Y-127210000D03*
D18*
X296866249Y-126959999D03*
D12*
X100817499Y-102159999D03*
D13*
X106147500Y-102160000D03*
D12*
X111477499Y-102159999D03*
D14*
X101447499Y-106409999D03*
D15*
X109647499Y-105029999D03*
D16*
X103607500Y-107240000D03*
D17*
X106147500Y-108160000D03*
D18*
X108747499Y-107909999D03*
D12*
X262742499Y-32609999D03*
D13*
X268072500Y-32610000D03*
D12*
X273402499Y-32609999D03*
D14*
X263372499Y-36859999D03*
D15*
X271572499Y-35479999D03*
D16*
X265532500Y-37690000D03*
D17*
X268072500Y-38610000D03*
D18*
X270672499Y-38359999D03*
D12*
X253217499Y-102159999D03*
D13*
X258547500Y-102160000D03*
D12*
X263877499Y-102159999D03*
D14*
X253847499Y-106409999D03*
D15*
X262047499Y-105029999D03*
D16*
X256007500Y-107240000D03*
D17*
X258547500Y-108160000D03*
D18*
X261147499Y-107909999D03*
D12*
X262742499Y-121209999D03*
D13*
X268072500Y-121210000D03*
D12*
X273402499Y-121209999D03*
D14*
X263372499Y-125459999D03*
D15*
X271572499Y-124079999D03*
D16*
X265532500Y-126290000D03*
D17*
X268072500Y-127210000D03*
D18*
X270672499Y-126959999D03*
D19*
X137110000Y-133275000D03*
D20*
X137110000Y-148515000D03*
D12*
X181779999Y-140259999D03*
D13*
X187110000Y-140260000D03*
D12*
X192439999Y-140259999D03*
D19*
X237110000Y-133275000D03*
D20*
X237110000Y-148515000D03*
D14*
X182409999Y-144509999D03*
D15*
X190609999Y-143129999D03*
D16*
X184570000Y-145340000D03*
D17*
X187110000Y-146260000D03*
D18*
X189709999Y-146009999D03*
D12*
X234167499Y-32609999D03*
D13*
X239497500Y-32610000D03*
D12*
X244827499Y-32609999D03*
D14*
X234797499Y-36859999D03*
D15*
X242997499Y-35479999D03*
D16*
X236957500Y-37690000D03*
D17*
X239497500Y-38610000D03*
D18*
X242097499Y-38359999D03*
D12*
X148442499Y-121209999D03*
D13*
X153772500Y-121210000D03*
D12*
X159102499Y-121209999D03*
D14*
X149072499Y-125459999D03*
D15*
X157272499Y-124079999D03*
D16*
X151232500Y-126290000D03*
D17*
X153772500Y-127210000D03*
D18*
X156372499Y-126959999D03*
D12*
X110342499Y-121209999D03*
D13*
X115672500Y-121210000D03*
D12*
X121002499Y-121209999D03*
D14*
X110972499Y-125459999D03*
D15*
X119172499Y-124079999D03*
D16*
X113132500Y-126290000D03*
D17*
X115672500Y-127210000D03*
D18*
X118272499Y-126959999D03*
D12*
X91292499Y-121209999D03*
D13*
X96622500Y-121210000D03*
D12*
X101952499Y-121209999D03*
D14*
X91922499Y-125459999D03*
D15*
X100122499Y-124079999D03*
D16*
X94082500Y-126290000D03*
D17*
X96622500Y-127210000D03*
D18*
X99222499Y-126959999D03*
D12*
X96054999Y-83109999D03*
D13*
X101385000Y-83110000D03*
D12*
X106714999Y-83109999D03*
D14*
X96684999Y-87359999D03*
D15*
X104884999Y-85979999D03*
D16*
X98845000Y-88190000D03*
D17*
X101385000Y-89110000D03*
D18*
X103984999Y-88859999D03*
D12*
X172254999Y-83109999D03*
D13*
X177585000Y-83110000D03*
D12*
X182914999Y-83109999D03*
D14*
X172884999Y-87359999D03*
D15*
X181084999Y-85979999D03*
D16*
X175045000Y-88190000D03*
D17*
X177585000Y-89110000D03*
D18*
X180184999Y-88859999D03*
D12*
X153204999Y-83109999D03*
D13*
X158535000Y-83110000D03*
D12*
X163864999Y-83109999D03*
D14*
X153834999Y-87359999D03*
D15*
X162034999Y-85979999D03*
D16*
X155995000Y-88190000D03*
D17*
X158535000Y-89110000D03*
D18*
X161134999Y-88859999D03*
D12*
X191304999Y-83109999D03*
D13*
X196635000Y-83110000D03*
D12*
X201964999Y-83109999D03*
D14*
X191934999Y-87359999D03*
D15*
X200134999Y-85979999D03*
D16*
X194095000Y-88190000D03*
D17*
X196635000Y-89110000D03*
D18*
X199234999Y-88859999D03*
D21*
X315697499Y-77779999D03*
D13*
X315697500Y-83110000D03*
D22*
X318567499Y-79609999D03*
D23*
X319947499Y-87809999D03*
D16*
X320777500Y-85650000D03*
D24*
X321447499Y-80509999D03*
D17*
X321697500Y-83110000D03*
D12*
X248454999Y-83109999D03*
D13*
X253785000Y-83110000D03*
D12*
X259114999Y-83109999D03*
D14*
X249084999Y-87359999D03*
D15*
X257284999Y-85979999D03*
D16*
X251245000Y-88190000D03*
D17*
X253785000Y-89110000D03*
D18*
X256384999Y-88859999D03*
D12*
X77004999Y-83109999D03*
D13*
X82335000Y-83110000D03*
D12*
X87664999Y-83109999D03*
D14*
X77634999Y-87359999D03*
D15*
X85834999Y-85979999D03*
D16*
X79795000Y-88190000D03*
D17*
X82335000Y-89110000D03*
D18*
X84934999Y-88859999D03*
D12*
X210354999Y-83109999D03*
D13*
X215685000Y-83110000D03*
D12*
X221014999Y-83109999D03*
D14*
X210984999Y-87359999D03*
D15*
X219184999Y-85979999D03*
D16*
X213145000Y-88190000D03*
D17*
X215685000Y-89110000D03*
D18*
X218284999Y-88859999D03*
D12*
X286554999Y-83109999D03*
D13*
X291885000Y-83110000D03*
D12*
X297214999Y-83109999D03*
D14*
X287184999Y-87359999D03*
D15*
X295384999Y-85979999D03*
D16*
X289345000Y-88190000D03*
D17*
X291885000Y-89110000D03*
D18*
X294484999Y-88859999D03*
D12*
X267504999Y-83109999D03*
D13*
X272835000Y-83110000D03*
D12*
X278164999Y-83109999D03*
D14*
X268134999Y-87359999D03*
D15*
X276334999Y-85979999D03*
D16*
X270295000Y-88190000D03*
D17*
X272835000Y-89110000D03*
D18*
X275434999Y-88859999D03*
D12*
X134154999Y-83109999D03*
D13*
X139485000Y-83110000D03*
D12*
X144814999Y-83109999D03*
D14*
X134784999Y-87359999D03*
D15*
X142984999Y-85979999D03*
D16*
X136945000Y-88190000D03*
D17*
X139485000Y-89110000D03*
D18*
X142084999Y-88859999D03*
D12*
X115104999Y-83109999D03*
D13*
X120435000Y-83110000D03*
D12*
X125764999Y-83109999D03*
D14*
X115734999Y-87359999D03*
D15*
X123934999Y-85979999D03*
D16*
X117895000Y-88190000D03*
D17*
X120435000Y-89110000D03*
D18*
X123034999Y-88859999D03*
D12*
X229404999Y-83109999D03*
D13*
X234735000Y-83110000D03*
D12*
X240064999Y-83109999D03*
D14*
X230034999Y-87359999D03*
D15*
X238234999Y-85979999D03*
D16*
X232195000Y-88190000D03*
D17*
X234735000Y-89110000D03*
D18*
X237334999Y-88859999D03*
D12*
X48429999Y-64059999D03*
D13*
X53760000Y-64060000D03*
D12*
X59089999Y-64059999D03*
D14*
X49059999Y-68309999D03*
D15*
X57259999Y-66929999D03*
D16*
X51220000Y-69140000D03*
D17*
X53760000Y-70060000D03*
D18*
X56359999Y-69809999D03*
D12*
X200829999Y-64059999D03*
D13*
X206160000Y-64060000D03*
D12*
X211489999Y-64059999D03*
D14*
X201459999Y-68309999D03*
D15*
X209659999Y-66929999D03*
D16*
X203620000Y-69140000D03*
D17*
X206160000Y-70060000D03*
D18*
X208759999Y-69809999D03*
D12*
X162729999Y-64059999D03*
D13*
X168060000Y-64060000D03*
D12*
X173389999Y-64059999D03*
D14*
X163359999Y-68309999D03*
D15*
X171559999Y-66929999D03*
D16*
X165520000Y-69140000D03*
D17*
X168060000Y-70060000D03*
D18*
X170659999Y-69809999D03*
D12*
X219879999Y-64059999D03*
D13*
X225210000Y-64060000D03*
D12*
X230539999Y-64059999D03*
D14*
X220509999Y-68309999D03*
D15*
X228709999Y-66929999D03*
D16*
X222670000Y-69140000D03*
D17*
X225210000Y-70060000D03*
D18*
X227809999Y-69809999D03*
D12*
X238929999Y-64059999D03*
D13*
X244260000Y-64060000D03*
D12*
X249589999Y-64059999D03*
D14*
X239559999Y-68309999D03*
D15*
X247759999Y-66929999D03*
D16*
X241720000Y-69140000D03*
D17*
X244260000Y-70060000D03*
D18*
X246859999Y-69809999D03*
D12*
X143679999Y-64059999D03*
D13*
X149010000Y-64060000D03*
D12*
X154339999Y-64059999D03*
D14*
X144309999Y-68309999D03*
D15*
X152509999Y-66929999D03*
D16*
X146470000Y-69140000D03*
D17*
X149010000Y-70060000D03*
D18*
X151609999Y-69809999D03*
D21*
X301409999Y-58729999D03*
D13*
X301410000Y-64060000D03*
D21*
X301409999Y-69389999D03*
D25*
X297159999Y-59359999D03*
D26*
X298539999Y-67559999D03*
D17*
X295410000Y-64060000D03*
D24*
X295659999Y-66659999D03*
D16*
X296330000Y-61520000D03*
D12*
X105579999Y-64059999D03*
D13*
X110910000Y-64060000D03*
D12*
X116239999Y-64059999D03*
D14*
X106209999Y-68309999D03*
D15*
X114409999Y-66929999D03*
D16*
X108370000Y-69140000D03*
D17*
X110910000Y-70060000D03*
D18*
X113509999Y-69809999D03*
D12*
X277029999Y-64059999D03*
D13*
X282360000Y-64060000D03*
D12*
X287689999Y-64059999D03*
D14*
X277659999Y-68309999D03*
D15*
X285859999Y-66929999D03*
D16*
X279820000Y-69140000D03*
D17*
X282360000Y-70060000D03*
D18*
X284959999Y-69809999D03*
D12*
X124629999Y-64059999D03*
D13*
X129960000Y-64060000D03*
D12*
X135289999Y-64059999D03*
D14*
X125259999Y-68309999D03*
D15*
X133459999Y-66929999D03*
D16*
X127420000Y-69140000D03*
D17*
X129960000Y-70060000D03*
D18*
X132559999Y-69809999D03*
D12*
X67479999Y-64059999D03*
D13*
X72810000Y-64060000D03*
D12*
X78139999Y-64059999D03*
D14*
X68109999Y-68309999D03*
D15*
X76309999Y-66929999D03*
D16*
X70270000Y-69140000D03*
D17*
X72810000Y-70060000D03*
D18*
X75409999Y-69809999D03*
D12*
X257979999Y-64059999D03*
D13*
X263310000Y-64060000D03*
D12*
X268639999Y-64059999D03*
D14*
X258609999Y-68309999D03*
D15*
X266809999Y-66929999D03*
D16*
X260770000Y-69140000D03*
D17*
X263310000Y-70060000D03*
D18*
X265909999Y-69809999D03*
D21*
X320459999Y-58729999D03*
D13*
X320460000Y-64060000D03*
D21*
X320459999Y-69389999D03*
D22*
X323329999Y-60559999D03*
D23*
X324709999Y-68759999D03*
D16*
X325540000Y-66600000D03*
D24*
X326209999Y-61459999D03*
D17*
X326460000Y-64060000D03*
D12*
X86529999Y-64059999D03*
D13*
X91860000Y-64060000D03*
D12*
X97189999Y-64059999D03*
D14*
X87159999Y-68309999D03*
D15*
X95359999Y-66929999D03*
D16*
X89320000Y-69140000D03*
D17*
X91860000Y-70060000D03*
D18*
X94459999Y-69809999D03*
D12*
X181779999Y-64059999D03*
D13*
X187110000Y-64060000D03*
D12*
X192439999Y-64059999D03*
D14*
X182409999Y-68309999D03*
D15*
X190609999Y-66929999D03*
D16*
X184570000Y-69140000D03*
D17*
X187110000Y-70060000D03*
D18*
X189709999Y-69809999D03*
D12*
X53192499Y-83109999D03*
D13*
X58522500Y-83110000D03*
D12*
X63852499Y-83109999D03*
D14*
X53822499Y-87359999D03*
D15*
X62022499Y-85979999D03*
D16*
X55982500Y-88190000D03*
D17*
X58522500Y-89110000D03*
D18*
X61122499Y-88859999D03*
D12*
X291317499Y-102159999D03*
D13*
X296647500Y-102160000D03*
D12*
X301977499Y-102159999D03*
D14*
X291947499Y-106409999D03*
D15*
X300147499Y-105029999D03*
D16*
X294107500Y-107240000D03*
D17*
X296647500Y-108160000D03*
D18*
X299247499Y-107909999D03*
D12*
X91292499Y-32609999D03*
D13*
X96622500Y-32610000D03*
D12*
X101952499Y-32609999D03*
D14*
X91922499Y-36859999D03*
D15*
X100122499Y-35479999D03*
D16*
X94082500Y-37690000D03*
D17*
X96622500Y-38610000D03*
D18*
X99222499Y-38359999D03*
D12*
X119867499Y-32609999D03*
D13*
X125197500Y-32610000D03*
D12*
X130527499Y-32609999D03*
D14*
X120497499Y-36859999D03*
D15*
X128697499Y-35479999D03*
D16*
X122657500Y-37690000D03*
D17*
X125197500Y-38610000D03*
D18*
X127797499Y-38359999D03*
D12*
X148442499Y-32609999D03*
D13*
X153772500Y-32610000D03*
D12*
X159102499Y-32609999D03*
D14*
X149072499Y-36859999D03*
D15*
X157272499Y-35479999D03*
D16*
X151232500Y-37690000D03*
D17*
X153772500Y-38610000D03*
D18*
X156372499Y-38359999D03*
D12*
X177017499Y-32609999D03*
D13*
X182347500Y-32610000D03*
D12*
X187677499Y-32609999D03*
D14*
X177647499Y-36859999D03*
D15*
X185847499Y-35479999D03*
D16*
X179807500Y-37690000D03*
D17*
X182347500Y-38610000D03*
D18*
X184947499Y-38359999D03*
D27*
X40028999Y-113589999D03*
D28*
X37488999Y-113589999D03*
X34948999Y-113589999D03*
D27*
X34963999Y-90983999D03*
D28*
X37503999Y-90983999D03*
X40043999Y-90983999D03*
D12*
X319892499Y-32609999D03*
D13*
X325222500Y-32610000D03*
D12*
X330552499Y-32609999D03*
D14*
X320522499Y-36859999D03*
D15*
X328722499Y-35479999D03*
D16*
X322682500Y-37690000D03*
D17*
X325222500Y-38610000D03*
D18*
X327822499Y-38359999D03*
D27*
X332682999Y-46476999D03*
D28*
X332682999Y-49016999D03*
D19*
X298935000Y-57075000D03*
D20*
X298935000Y-72315000D03*
D12*
X305604999Y-64059999D03*
D13*
X310935000Y-64060000D03*
D12*
X316264999Y-64059999D03*
D19*
X322935000Y-57075000D03*
D20*
X322935000Y-72315000D03*
D14*
X306234999Y-68309999D03*
D15*
X314434999Y-66929999D03*
D16*
X308395000Y-69140000D03*
D17*
X310935000Y-70060000D03*
D18*
X313534999Y-69809999D03*
D19*
X48903750Y-95175000D03*
D20*
X48903750Y-110415000D03*
D12*
X55573749Y-102159999D03*
D13*
X60903750Y-102160000D03*
D12*
X66233749Y-102159999D03*
D19*
X72903750Y-95175000D03*
D20*
X72903750Y-110415000D03*
D14*
X56203749Y-106409999D03*
D15*
X64403749Y-105029999D03*
D16*
X58363750Y-107240000D03*
D17*
X60903750Y-108160000D03*
D18*
X63503749Y-107909999D03*
D27*
X332682999Y-51810999D03*
D28*
X332682999Y-54350999D03*
D19*
X311093750Y-80635000D03*
X311093750Y-104635000D03*
D13*
X318078750Y-92635000D03*
D21*
X318078749Y-97964999D03*
D20*
X326333750Y-80635000D03*
X326333750Y-104635000D03*
D25*
X313828749Y-87934999D03*
D26*
X315208749Y-96134999D03*
D17*
X312078750Y-92635000D03*
D24*
X312328749Y-95234999D03*
D16*
X312998750Y-90095000D03*
D12*
X254408124Y-140259999D03*
D13*
X259738125Y-140260000D03*
D12*
X265068124Y-140259999D03*
D14*
X255038124Y-144509999D03*
D15*
X263238124Y-143129999D03*
D16*
X257198125Y-145340000D03*
D17*
X259738125Y-146260000D03*
D18*
X262338124Y-146009999D03*
D29*
X324778000Y-45772000D03*
D30*
X324778000Y-43232000D03*
X322238000Y-45772000D03*
X322238000Y-43232000D03*
X319698000Y-45772000D03*
X319698000Y-43232000D03*
X317158000Y-45772000D03*
X317158000Y-43232000D03*
X314618000Y-45772000D03*
X314618000Y-43232000D03*
X312078000Y-45772000D03*
X312078000Y-43232000D03*
X309538000Y-45772000D03*
X309538000Y-43232000D03*
X306998000Y-45772000D03*
X306998000Y-43232000D03*
X304458000Y-45772000D03*
X304458000Y-43232000D03*
X301918000Y-45772000D03*
X301918000Y-43232000D03*
X299378000Y-45772000D03*
X299378000Y-43232000D03*
X296838000Y-45772000D03*
X296838000Y-43232000D03*
D31*
X323307999Y-48551999D03*
X322307999Y-48551999D03*
X321307999Y-48551999D03*
X320307999Y-48551999D03*
X319307999Y-48551999D03*
X318307999Y-48551999D03*
X317307999Y-48551999D03*
X316307999Y-48551999D03*
X315307999Y-48551999D03*
X314307999Y-48551999D03*
X313307999Y-48551999D03*
X312307999Y-48551999D03*
X311307999Y-48551999D03*
X310307999Y-48551999D03*
X309307999Y-48551999D03*
X308307999Y-48551999D03*
X307307999Y-48551999D03*
X306307999Y-48551999D03*
X305307999Y-48551999D03*
X304307999Y-48551999D03*
X303307999Y-48551999D03*
X302307999Y-48551999D03*
X301307999Y-48551999D03*
X300307999Y-48551999D03*
X299307999Y-48551999D03*
X298307999Y-48551999D03*
D32*
X326107999Y-51251999D03*
X295507999Y-51251999D03*
M02*
