M48
; DRILL file {KiCad (6.0.10)} date Wed Feb  1 23:45:57 2023
; FORMAT={-:-/ absolute / metric / decimal}
; #@! TF.CreationDate,2023-02-01T23:45:57-08:00
; #@! TF.GenerationSoftware,Kicad,Pcbnew,(6.0.10)
; #@! TF.FileFunction,NonPlated,1,2,NPTH
FMAT,2
METRIC
; #@! TA.AperFunction,NonPlated,NPTH,ComponentDrill
T1C1.800
; #@! TA.AperFunction,NonPlated,NPTH,ComponentDrill
T2C3.048
; #@! TA.AperFunction,NonPlated,NPTH,ComponentDrill
T3C3.988
; #@! TA.AperFunction,NonPlated,NPTH,ComponentDrill
T4C5.250
%
G90
G05
T2
X48.904Y-95.175
X53.666Y-114.225
X72.904Y-95.175
X77.666Y-114.225
X137.11Y-133.275
X237.11Y-133.275
X282.266Y-114.225
X298.935Y-57.075
X306.266Y-114.225
X311.094Y-80.635
X311.094Y-104.635
X322.935Y-57.075
T3
X48.904Y-110.415
X53.666Y-129.465
X72.904Y-110.415
X77.666Y-129.465
X137.11Y-148.515
X237.11Y-148.515
X282.266Y-129.465
X298.935Y-72.315
X306.266Y-129.465
X322.935Y-72.315
X326.334Y-80.635
X326.334Y-104.635
T4
X53.76Y-64.06
X58.523Y-83.11
X60.904Y-102.16
X65.666Y-121.21
X72.81Y-64.06
X82.335Y-83.11
X87.097Y-102.16
X91.86Y-64.06
X96.623Y-32.61
X96.623Y-121.21
X101.385Y-83.11
X106.147Y-102.16
X110.91Y-64.06
X114.482Y-140.26
X115.672Y-121.21
X120.435Y-83.11
X125.197Y-32.61
X125.197Y-102.16
X129.96Y-64.06
X134.722Y-121.21
X139.485Y-83.11
X144.248Y-102.16
X149.01Y-64.06
X153.772Y-32.61
X153.772Y-121.21
X158.535Y-83.11
X163.297Y-102.16
X168.06Y-64.06
X172.822Y-121.21
X177.585Y-83.11
X182.347Y-32.61
X182.347Y-102.16
X187.11Y-64.06
X187.11Y-140.26
X191.873Y-121.21
X196.635Y-83.11
X201.397Y-102.16
X206.16Y-64.06
X210.922Y-32.61
X210.922Y-121.21
X215.685Y-83.11
X220.447Y-102.16
X225.21Y-64.06
X229.972Y-121.21
X234.735Y-83.11
X239.498Y-32.61
X239.498Y-102.16
X244.26Y-64.06
X249.022Y-121.21
X253.785Y-83.11
X258.548Y-102.16
X259.738Y-140.26
X263.31Y-64.06
X268.072Y-32.61
X268.072Y-121.21
X272.835Y-83.11
X277.597Y-102.16
X282.36Y-64.06
X291.885Y-83.11
X294.266Y-121.21
X296.647Y-102.16
X296.66Y-32.61
X301.41Y-64.06
X310.935Y-64.06
X315.697Y-83.11
X318.079Y-92.635
X318.079Y-102.16
X320.46Y-64.06
X320.46Y-121.21
X325.222Y-32.61
T1
X48.63Y-64.06G85X48.23Y-64.06
G05
X53.392Y-83.11G85X52.992Y-83.11
G05
X55.774Y-102.16G85X55.374Y-102.16
G05
X59.29Y-64.06G85X58.89Y-64.06
G05
X60.536Y-121.21G85X60.136Y-121.21
G05
X64.052Y-83.11G85X63.652Y-83.11
G05
X66.434Y-102.16G85X66.034Y-102.16
G05
X67.68Y-64.06G85X67.28Y-64.06
G05
X71.196Y-121.21G85X70.796Y-121.21
G05
X77.205Y-83.11G85X76.805Y-83.11
G05
X78.34Y-64.06G85X77.94Y-64.06
G05
X81.968Y-102.16G85X81.567Y-102.16
G05
X86.73Y-64.06G85X86.33Y-64.06
G05
X87.865Y-83.11G85X87.465Y-83.11
G05
X91.492Y-32.61G85X91.093Y-32.61
G05
X91.492Y-121.21G85X91.093Y-121.21
G05
X92.627Y-102.16G85X92.227Y-102.16
G05
X96.255Y-83.11G85X95.855Y-83.11
G05
X97.39Y-64.06G85X96.99Y-64.06
G05
X101.017Y-102.16G85X100.617Y-102.16
G05
X102.152Y-32.61G85X101.752Y-32.61
G05
X102.152Y-121.21G85X101.752Y-121.21
G05
X105.78Y-64.06G85X105.38Y-64.06
G05
X106.915Y-83.11G85X106.515Y-83.11
G05
X109.352Y-140.26G85X108.952Y-140.26
G05
X110.542Y-121.21G85X110.142Y-121.21
G05
X111.677Y-102.16G85X111.277Y-102.16
G05
X115.305Y-83.11G85X114.905Y-83.11
G05
X116.44Y-64.06G85X116.04Y-64.06
G05
X120.012Y-140.26G85X119.612Y-140.26
G05
X120.067Y-32.61G85X119.667Y-32.61
G05
X120.067Y-102.16G85X119.667Y-102.16
G05
X121.203Y-121.21G85X120.802Y-121.21
G05
X124.83Y-64.06G85X124.43Y-64.06
G05
X125.965Y-83.11G85X125.565Y-83.11
G05
X129.593Y-121.21G85X129.192Y-121.21
G05
X130.727Y-32.61G85X130.327Y-32.61
G05
X130.727Y-102.16G85X130.327Y-102.16
G05
X134.355Y-83.11G85X133.955Y-83.11
G05
X135.49Y-64.06G85X135.09Y-64.06
G05
X139.118Y-102.16G85X138.718Y-102.16
G05
X140.252Y-121.21G85X139.852Y-121.21
G05
X143.88Y-64.06G85X143.48Y-64.06
G05
X145.015Y-83.11G85X144.615Y-83.11
G05
X148.642Y-32.61G85X148.243Y-32.61
G05
X148.642Y-121.21G85X148.243Y-121.21
G05
X149.778Y-102.16G85X149.377Y-102.16
G05
X153.405Y-83.11G85X153.005Y-83.11
G05
X154.54Y-64.06G85X154.14Y-64.06
G05
X158.167Y-102.16G85X157.767Y-102.16
G05
X159.302Y-32.61G85X158.903Y-32.61
G05
X159.302Y-121.21G85X158.903Y-121.21
G05
X162.93Y-64.06G85X162.53Y-64.06
G05
X164.065Y-83.11G85X163.665Y-83.11
G05
X167.692Y-121.21G85X167.292Y-121.21
G05
X168.827Y-102.16G85X168.427Y-102.16
G05
X172.455Y-83.11G85X172.055Y-83.11
G05
X173.59Y-64.06G85X173.19Y-64.06
G05
X177.218Y-32.61G85X176.817Y-32.61
G05
X177.218Y-102.16G85X176.817Y-102.16
G05
X178.352Y-121.21G85X177.952Y-121.21
G05
X181.98Y-64.06G85X181.58Y-64.06
G05
X181.98Y-140.26G85X181.58Y-140.26
G05
X183.115Y-83.11G85X182.715Y-83.11
G05
X186.742Y-121.21G85X186.343Y-121.21
G05
X187.877Y-32.61G85X187.477Y-32.61
G05
X187.877Y-102.16G85X187.477Y-102.16
G05
X191.505Y-83.11G85X191.105Y-83.11
G05
X192.64Y-64.06G85X192.24Y-64.06
G05
X192.64Y-140.26G85X192.24Y-140.26
G05
X196.267Y-102.16G85X195.867Y-102.16
G05
X197.403Y-121.21G85X197.002Y-121.21
G05
X201.03Y-64.06G85X200.63Y-64.06
G05
X202.165Y-83.11G85X201.765Y-83.11
G05
X205.792Y-32.61G85X205.392Y-32.61
G05
X205.792Y-121.21G85X205.392Y-121.21
G05
X206.927Y-102.16G85X206.528Y-102.16
G05
X210.555Y-83.11G85X210.155Y-83.11
G05
X211.69Y-64.06G85X211.29Y-64.06
G05
X215.317Y-102.16G85X214.917Y-102.16
G05
X216.452Y-32.61G85X216.052Y-32.61
G05
X216.452Y-121.21G85X216.052Y-121.21
G05
X220.08Y-64.06G85X219.68Y-64.06
G05
X221.215Y-83.11G85X220.815Y-83.11
G05
X224.843Y-121.21G85X224.442Y-121.21
G05
X225.977Y-102.16G85X225.577Y-102.16
G05
X229.605Y-83.11G85X229.205Y-83.11
G05
X230.74Y-64.06G85X230.34Y-64.06
G05
X234.367Y-32.61G85X233.968Y-32.61
G05
X234.367Y-102.16G85X233.968Y-102.16
G05
X235.502Y-121.21G85X235.102Y-121.21
G05
X239.13Y-64.06G85X238.73Y-64.06
G05
X240.265Y-83.11G85X239.865Y-83.11
G05
X243.892Y-121.21G85X243.492Y-121.21
G05
X245.027Y-32.61G85X244.627Y-32.61
G05
X245.027Y-102.16G85X244.627Y-102.16
G05
X248.655Y-83.11G85X248.255Y-83.11
G05
X249.79Y-64.06G85X249.39Y-64.06
G05
X253.417Y-102.16G85X253.017Y-102.16
G05
X254.552Y-121.21G85X254.152Y-121.21
G05
X254.608Y-140.26G85X254.208Y-140.26
G05
X258.18Y-64.06G85X257.78Y-64.06
G05
X259.315Y-83.11G85X258.915Y-83.11
G05
X262.942Y-32.61G85X262.542Y-32.61
G05
X262.942Y-121.21G85X262.542Y-121.21
G05
X264.077Y-102.16G85X263.678Y-102.16
G05
X265.268Y-140.26G85X264.868Y-140.26
G05
X267.705Y-83.11G85X267.305Y-83.11
G05
X268.84Y-64.06G85X268.44Y-64.06
G05
X272.467Y-102.16G85X272.067Y-102.16
G05
X273.602Y-32.61G85X273.202Y-32.61
G05
X273.602Y-121.21G85X273.202Y-121.21
G05
X277.23Y-64.06G85X276.83Y-64.06
G05
X278.365Y-83.11G85X277.965Y-83.11
G05
X283.127Y-102.16G85X282.727Y-102.16
G05
X286.755Y-83.11G85X286.355Y-83.11
G05
X287.89Y-64.06G85X287.49Y-64.06
G05
X289.136Y-121.21G85X288.736Y-121.21
G05
X291.517Y-102.16G85X291.118Y-102.16
G05
X291.53Y-32.61G85X291.13Y-32.61
G05
X297.415Y-83.11G85X297.015Y-83.11
G05
X299.796Y-121.21G85X299.396Y-121.21
G05
X301.41Y-58.93G85X301.41Y-58.53
G05
X301.41Y-69.59G85X301.41Y-69.19
G05
X302.178Y-102.16G85X301.777Y-102.16
G05
X302.19Y-32.61G85X301.79Y-32.61
G05
X305.805Y-64.06G85X305.405Y-64.06
G05
X312.949Y-102.16G85X312.549Y-102.16
G05
X315.33Y-121.21G85X314.93Y-121.21
G05
X315.697Y-77.58G85X315.697Y-77.98
G05
X316.465Y-64.06G85X316.065Y-64.06
G05
X318.079Y-98.165G85X318.079Y-97.765
G05
X320.092Y-32.61G85X319.692Y-32.61
G05
X320.46Y-58.53G85X320.46Y-58.93
G05
X320.46Y-69.19G85X320.46Y-69.59
G05
X323.609Y-102.16G85X323.209Y-102.16
G05
X325.99Y-121.21G85X325.59Y-121.21
G05
X330.752Y-32.61G85X330.352Y-32.61
G05
T0
M30
