%TF.GenerationSoftware,KiCad,Pcbnew,(7.0.0)*%
%TF.CreationDate,2023-04-21T14:06:02-07:00*%
%TF.ProjectId,DecentXE-to-USB,44656365-6e74-4584-952d-746f2d555342,2*%
%TF.SameCoordinates,Original*%
%TF.FileFunction,Legend,Bot*%
%TF.FilePolarity,Positive*%
%FSLAX46Y46*%
G04 Gerber Fmt 4.6, Leading zero omitted, Abs format (unit mm)*
G04 Created by KiCad (PCBNEW (7.0.0)) date 2023-04-21 14:06:02*
%MOMM*%
%LPD*%
G01*
G04 APERTURE LIST*
%ADD10C,0.150000*%
%ADD11C,0.200000*%
%ADD12C,0.120000*%
G04 APERTURE END LIST*
D10*
X31500000Y-71900000D02*
X31500000Y-70400000D01*
X41500000Y-71900000D02*
X41500000Y-70400000D01*
X26500000Y-71900000D02*
X26500000Y-71200000D01*
X46500000Y-71900000D02*
X46500000Y-71200000D01*
X36500000Y-71900000D02*
X36500000Y-71100000D01*
D11*
G36*
X50546000Y-71882000D02*
G01*
X49784000Y-70866000D01*
X51308000Y-70866000D01*
X50546000Y-71882000D01*
G37*
X50546000Y-71882000D02*
X49784000Y-70866000D01*
X51308000Y-70866000D01*
X50546000Y-71882000D01*
D10*
%TO.C,R1*%
X44182380Y-30948333D02*
X43706190Y-30615000D01*
X44182380Y-30376905D02*
X43182380Y-30376905D01*
X43182380Y-30376905D02*
X43182380Y-30757857D01*
X43182380Y-30757857D02*
X43230000Y-30853095D01*
X43230000Y-30853095D02*
X43277619Y-30900714D01*
X43277619Y-30900714D02*
X43372857Y-30948333D01*
X43372857Y-30948333D02*
X43515714Y-30948333D01*
X43515714Y-30948333D02*
X43610952Y-30900714D01*
X43610952Y-30900714D02*
X43658571Y-30853095D01*
X43658571Y-30853095D02*
X43706190Y-30757857D01*
X43706190Y-30757857D02*
X43706190Y-30376905D01*
X44182380Y-31900714D02*
X44182380Y-31329286D01*
X44182380Y-31615000D02*
X43182380Y-31615000D01*
X43182380Y-31615000D02*
X43325238Y-31519762D01*
X43325238Y-31519762D02*
X43420476Y-31424524D01*
X43420476Y-31424524D02*
X43468095Y-31329286D01*
%TO.C,R4*%
X36361666Y-32117380D02*
X36694999Y-31641190D01*
X36933094Y-32117380D02*
X36933094Y-31117380D01*
X36933094Y-31117380D02*
X36552142Y-31117380D01*
X36552142Y-31117380D02*
X36456904Y-31165000D01*
X36456904Y-31165000D02*
X36409285Y-31212619D01*
X36409285Y-31212619D02*
X36361666Y-31307857D01*
X36361666Y-31307857D02*
X36361666Y-31450714D01*
X36361666Y-31450714D02*
X36409285Y-31545952D01*
X36409285Y-31545952D02*
X36456904Y-31593571D01*
X36456904Y-31593571D02*
X36552142Y-31641190D01*
X36552142Y-31641190D02*
X36933094Y-31641190D01*
X35504523Y-31450714D02*
X35504523Y-32117380D01*
X35742618Y-31069761D02*
X35980713Y-31784047D01*
X35980713Y-31784047D02*
X35361666Y-31784047D01*
%TO.C,R8*%
X44022380Y-37298333D02*
X43546190Y-36965000D01*
X44022380Y-36726905D02*
X43022380Y-36726905D01*
X43022380Y-36726905D02*
X43022380Y-37107857D01*
X43022380Y-37107857D02*
X43070000Y-37203095D01*
X43070000Y-37203095D02*
X43117619Y-37250714D01*
X43117619Y-37250714D02*
X43212857Y-37298333D01*
X43212857Y-37298333D02*
X43355714Y-37298333D01*
X43355714Y-37298333D02*
X43450952Y-37250714D01*
X43450952Y-37250714D02*
X43498571Y-37203095D01*
X43498571Y-37203095D02*
X43546190Y-37107857D01*
X43546190Y-37107857D02*
X43546190Y-36726905D01*
X43450952Y-37869762D02*
X43403333Y-37774524D01*
X43403333Y-37774524D02*
X43355714Y-37726905D01*
X43355714Y-37726905D02*
X43260476Y-37679286D01*
X43260476Y-37679286D02*
X43212857Y-37679286D01*
X43212857Y-37679286D02*
X43117619Y-37726905D01*
X43117619Y-37726905D02*
X43070000Y-37774524D01*
X43070000Y-37774524D02*
X43022380Y-37869762D01*
X43022380Y-37869762D02*
X43022380Y-38060238D01*
X43022380Y-38060238D02*
X43070000Y-38155476D01*
X43070000Y-38155476D02*
X43117619Y-38203095D01*
X43117619Y-38203095D02*
X43212857Y-38250714D01*
X43212857Y-38250714D02*
X43260476Y-38250714D01*
X43260476Y-38250714D02*
X43355714Y-38203095D01*
X43355714Y-38203095D02*
X43403333Y-38155476D01*
X43403333Y-38155476D02*
X43450952Y-38060238D01*
X43450952Y-38060238D02*
X43450952Y-37869762D01*
X43450952Y-37869762D02*
X43498571Y-37774524D01*
X43498571Y-37774524D02*
X43546190Y-37726905D01*
X43546190Y-37726905D02*
X43641428Y-37679286D01*
X43641428Y-37679286D02*
X43831904Y-37679286D01*
X43831904Y-37679286D02*
X43927142Y-37726905D01*
X43927142Y-37726905D02*
X43974761Y-37774524D01*
X43974761Y-37774524D02*
X44022380Y-37869762D01*
X44022380Y-37869762D02*
X44022380Y-38060238D01*
X44022380Y-38060238D02*
X43974761Y-38155476D01*
X43974761Y-38155476D02*
X43927142Y-38203095D01*
X43927142Y-38203095D02*
X43831904Y-38250714D01*
X43831904Y-38250714D02*
X43641428Y-38250714D01*
X43641428Y-38250714D02*
X43546190Y-38203095D01*
X43546190Y-38203095D02*
X43498571Y-38155476D01*
X43498571Y-38155476D02*
X43450952Y-38060238D01*
%TO.C,R7*%
X44022380Y-40473333D02*
X43546190Y-40140000D01*
X44022380Y-39901905D02*
X43022380Y-39901905D01*
X43022380Y-39901905D02*
X43022380Y-40282857D01*
X43022380Y-40282857D02*
X43070000Y-40378095D01*
X43070000Y-40378095D02*
X43117619Y-40425714D01*
X43117619Y-40425714D02*
X43212857Y-40473333D01*
X43212857Y-40473333D02*
X43355714Y-40473333D01*
X43355714Y-40473333D02*
X43450952Y-40425714D01*
X43450952Y-40425714D02*
X43498571Y-40378095D01*
X43498571Y-40378095D02*
X43546190Y-40282857D01*
X43546190Y-40282857D02*
X43546190Y-39901905D01*
X43022380Y-40806667D02*
X43022380Y-41473333D01*
X43022380Y-41473333D02*
X44022380Y-41044762D01*
%TO.C,U2*%
X37086380Y-37211095D02*
X37895904Y-37211095D01*
X37895904Y-37211095D02*
X37991142Y-37258714D01*
X37991142Y-37258714D02*
X38038761Y-37306333D01*
X38038761Y-37306333D02*
X38086380Y-37401571D01*
X38086380Y-37401571D02*
X38086380Y-37592047D01*
X38086380Y-37592047D02*
X38038761Y-37687285D01*
X38038761Y-37687285D02*
X37991142Y-37734904D01*
X37991142Y-37734904D02*
X37895904Y-37782523D01*
X37895904Y-37782523D02*
X37086380Y-37782523D01*
X37181619Y-38211095D02*
X37134000Y-38258714D01*
X37134000Y-38258714D02*
X37086380Y-38353952D01*
X37086380Y-38353952D02*
X37086380Y-38592047D01*
X37086380Y-38592047D02*
X37134000Y-38687285D01*
X37134000Y-38687285D02*
X37181619Y-38734904D01*
X37181619Y-38734904D02*
X37276857Y-38782523D01*
X37276857Y-38782523D02*
X37372095Y-38782523D01*
X37372095Y-38782523D02*
X37514952Y-38734904D01*
X37514952Y-38734904D02*
X38086380Y-38163476D01*
X38086380Y-38163476D02*
X38086380Y-38782523D01*
X37419714Y-46894904D02*
X38086380Y-46894904D01*
X37038761Y-46656809D02*
X37753047Y-46418714D01*
X37753047Y-46418714D02*
X37753047Y-47037761D01*
X37086380Y-47894904D02*
X37086380Y-47418714D01*
X37086380Y-47418714D02*
X37562571Y-47371095D01*
X37562571Y-47371095D02*
X37514952Y-47418714D01*
X37514952Y-47418714D02*
X37467333Y-47513952D01*
X37467333Y-47513952D02*
X37467333Y-47752047D01*
X37467333Y-47752047D02*
X37514952Y-47847285D01*
X37514952Y-47847285D02*
X37562571Y-47894904D01*
X37562571Y-47894904D02*
X37657809Y-47942523D01*
X37657809Y-47942523D02*
X37895904Y-47942523D01*
X37895904Y-47942523D02*
X37991142Y-47894904D01*
X37991142Y-47894904D02*
X38038761Y-47847285D01*
X38038761Y-47847285D02*
X38086380Y-47752047D01*
X38086380Y-47752047D02*
X38086380Y-47513952D01*
X38086380Y-47513952D02*
X38038761Y-47418714D01*
X38038761Y-47418714D02*
X37991142Y-47371095D01*
X38086380Y-48894904D02*
X38086380Y-48323476D01*
X38086380Y-48609190D02*
X37086380Y-48609190D01*
X37086380Y-48609190D02*
X37229238Y-48513952D01*
X37229238Y-48513952D02*
X37324476Y-48418714D01*
X37324476Y-48418714D02*
X37372095Y-48323476D01*
X37419714Y-49752047D02*
X38086380Y-49752047D01*
X37038761Y-49513952D02*
X37753047Y-49275857D01*
X37753047Y-49275857D02*
X37753047Y-49894904D01*
%TO.C,R9*%
X44055380Y-43648333D02*
X43579190Y-43315000D01*
X44055380Y-43076905D02*
X43055380Y-43076905D01*
X43055380Y-43076905D02*
X43055380Y-43457857D01*
X43055380Y-43457857D02*
X43103000Y-43553095D01*
X43103000Y-43553095D02*
X43150619Y-43600714D01*
X43150619Y-43600714D02*
X43245857Y-43648333D01*
X43245857Y-43648333D02*
X43388714Y-43648333D01*
X43388714Y-43648333D02*
X43483952Y-43600714D01*
X43483952Y-43600714D02*
X43531571Y-43553095D01*
X43531571Y-43553095D02*
X43579190Y-43457857D01*
X43579190Y-43457857D02*
X43579190Y-43076905D01*
X44055380Y-44124524D02*
X44055380Y-44315000D01*
X44055380Y-44315000D02*
X44007761Y-44410238D01*
X44007761Y-44410238D02*
X43960142Y-44457857D01*
X43960142Y-44457857D02*
X43817285Y-44553095D01*
X43817285Y-44553095D02*
X43626809Y-44600714D01*
X43626809Y-44600714D02*
X43245857Y-44600714D01*
X43245857Y-44600714D02*
X43150619Y-44553095D01*
X43150619Y-44553095D02*
X43103000Y-44505476D01*
X43103000Y-44505476D02*
X43055380Y-44410238D01*
X43055380Y-44410238D02*
X43055380Y-44219762D01*
X43055380Y-44219762D02*
X43103000Y-44124524D01*
X43103000Y-44124524D02*
X43150619Y-44076905D01*
X43150619Y-44076905D02*
X43245857Y-44029286D01*
X43245857Y-44029286D02*
X43483952Y-44029286D01*
X43483952Y-44029286D02*
X43579190Y-44076905D01*
X43579190Y-44076905D02*
X43626809Y-44124524D01*
X43626809Y-44124524D02*
X43674428Y-44219762D01*
X43674428Y-44219762D02*
X43674428Y-44410238D01*
X43674428Y-44410238D02*
X43626809Y-44505476D01*
X43626809Y-44505476D02*
X43579190Y-44553095D01*
X43579190Y-44553095D02*
X43483952Y-44600714D01*
%TO.C,R3*%
X44022380Y-34123333D02*
X43546190Y-33790000D01*
X44022380Y-33551905D02*
X43022380Y-33551905D01*
X43022380Y-33551905D02*
X43022380Y-33932857D01*
X43022380Y-33932857D02*
X43070000Y-34028095D01*
X43070000Y-34028095D02*
X43117619Y-34075714D01*
X43117619Y-34075714D02*
X43212857Y-34123333D01*
X43212857Y-34123333D02*
X43355714Y-34123333D01*
X43355714Y-34123333D02*
X43450952Y-34075714D01*
X43450952Y-34075714D02*
X43498571Y-34028095D01*
X43498571Y-34028095D02*
X43546190Y-33932857D01*
X43546190Y-33932857D02*
X43546190Y-33551905D01*
X43022380Y-34456667D02*
X43022380Y-35075714D01*
X43022380Y-35075714D02*
X43403333Y-34742381D01*
X43403333Y-34742381D02*
X43403333Y-34885238D01*
X43403333Y-34885238D02*
X43450952Y-34980476D01*
X43450952Y-34980476D02*
X43498571Y-35028095D01*
X43498571Y-35028095D02*
X43593809Y-35075714D01*
X43593809Y-35075714D02*
X43831904Y-35075714D01*
X43831904Y-35075714D02*
X43927142Y-35028095D01*
X43927142Y-35028095D02*
X43974761Y-34980476D01*
X43974761Y-34980476D02*
X44022380Y-34885238D01*
X44022380Y-34885238D02*
X44022380Y-34599524D01*
X44022380Y-34599524D02*
X43974761Y-34504286D01*
X43974761Y-34504286D02*
X43927142Y-34456667D01*
%TO.C,R5*%
X44022380Y-49998333D02*
X43546190Y-49665000D01*
X44022380Y-49426905D02*
X43022380Y-49426905D01*
X43022380Y-49426905D02*
X43022380Y-49807857D01*
X43022380Y-49807857D02*
X43070000Y-49903095D01*
X43070000Y-49903095D02*
X43117619Y-49950714D01*
X43117619Y-49950714D02*
X43212857Y-49998333D01*
X43212857Y-49998333D02*
X43355714Y-49998333D01*
X43355714Y-49998333D02*
X43450952Y-49950714D01*
X43450952Y-49950714D02*
X43498571Y-49903095D01*
X43498571Y-49903095D02*
X43546190Y-49807857D01*
X43546190Y-49807857D02*
X43546190Y-49426905D01*
X43022380Y-50903095D02*
X43022380Y-50426905D01*
X43022380Y-50426905D02*
X43498571Y-50379286D01*
X43498571Y-50379286D02*
X43450952Y-50426905D01*
X43450952Y-50426905D02*
X43403333Y-50522143D01*
X43403333Y-50522143D02*
X43403333Y-50760238D01*
X43403333Y-50760238D02*
X43450952Y-50855476D01*
X43450952Y-50855476D02*
X43498571Y-50903095D01*
X43498571Y-50903095D02*
X43593809Y-50950714D01*
X43593809Y-50950714D02*
X43831904Y-50950714D01*
X43831904Y-50950714D02*
X43927142Y-50903095D01*
X43927142Y-50903095D02*
X43974761Y-50855476D01*
X43974761Y-50855476D02*
X44022380Y-50760238D01*
X44022380Y-50760238D02*
X44022380Y-50522143D01*
X44022380Y-50522143D02*
X43974761Y-50426905D01*
X43974761Y-50426905D02*
X43927142Y-50379286D01*
%TO.C,R6*%
X44022380Y-46823333D02*
X43546190Y-46490000D01*
X44022380Y-46251905D02*
X43022380Y-46251905D01*
X43022380Y-46251905D02*
X43022380Y-46632857D01*
X43022380Y-46632857D02*
X43070000Y-46728095D01*
X43070000Y-46728095D02*
X43117619Y-46775714D01*
X43117619Y-46775714D02*
X43212857Y-46823333D01*
X43212857Y-46823333D02*
X43355714Y-46823333D01*
X43355714Y-46823333D02*
X43450952Y-46775714D01*
X43450952Y-46775714D02*
X43498571Y-46728095D01*
X43498571Y-46728095D02*
X43546190Y-46632857D01*
X43546190Y-46632857D02*
X43546190Y-46251905D01*
X43022380Y-47680476D02*
X43022380Y-47490000D01*
X43022380Y-47490000D02*
X43070000Y-47394762D01*
X43070000Y-47394762D02*
X43117619Y-47347143D01*
X43117619Y-47347143D02*
X43260476Y-47251905D01*
X43260476Y-47251905D02*
X43450952Y-47204286D01*
X43450952Y-47204286D02*
X43831904Y-47204286D01*
X43831904Y-47204286D02*
X43927142Y-47251905D01*
X43927142Y-47251905D02*
X43974761Y-47299524D01*
X43974761Y-47299524D02*
X44022380Y-47394762D01*
X44022380Y-47394762D02*
X44022380Y-47585238D01*
X44022380Y-47585238D02*
X43974761Y-47680476D01*
X43974761Y-47680476D02*
X43927142Y-47728095D01*
X43927142Y-47728095D02*
X43831904Y-47775714D01*
X43831904Y-47775714D02*
X43593809Y-47775714D01*
X43593809Y-47775714D02*
X43498571Y-47728095D01*
X43498571Y-47728095D02*
X43450952Y-47680476D01*
X43450952Y-47680476D02*
X43403333Y-47585238D01*
X43403333Y-47585238D02*
X43403333Y-47394762D01*
X43403333Y-47394762D02*
X43450952Y-47299524D01*
X43450952Y-47299524D02*
X43498571Y-47251905D01*
X43498571Y-47251905D02*
X43593809Y-47204286D01*
%TO.C,J1*%
X38306333Y-70297380D02*
X38306333Y-71011666D01*
X38306333Y-71011666D02*
X38353952Y-71154523D01*
X38353952Y-71154523D02*
X38449190Y-71249761D01*
X38449190Y-71249761D02*
X38592047Y-71297380D01*
X38592047Y-71297380D02*
X38687285Y-71297380D01*
X37306333Y-71297380D02*
X37877761Y-71297380D01*
X37592047Y-71297380D02*
X37592047Y-70297380D01*
X37592047Y-70297380D02*
X37687285Y-70440238D01*
X37687285Y-70440238D02*
X37782523Y-70535476D01*
X37782523Y-70535476D02*
X37877761Y-70583095D01*
D12*
%TO.C,R1*%
X45607500Y-31352258D02*
X45607500Y-30877742D01*
X44562500Y-31352258D02*
X44562500Y-30877742D01*
%TO.C,R4*%
X35322742Y-33542500D02*
X35797258Y-33542500D01*
X35322742Y-32497500D02*
X35797258Y-32497500D01*
%TO.C,R8*%
X44562500Y-37227742D02*
X44562500Y-37702258D01*
X45607500Y-37227742D02*
X45607500Y-37702258D01*
%TO.C,R7*%
X44562500Y-40402742D02*
X44562500Y-40877258D01*
X45607500Y-40402742D02*
X45607500Y-40877258D01*
%TO.C,U2*%
X27255000Y-52895000D02*
X27255000Y-52630000D01*
X27255000Y-52630000D02*
X25440000Y-52630000D01*
X27255000Y-37275000D02*
X27255000Y-37540000D01*
X31115000Y-52895000D02*
X27255000Y-52895000D01*
X31115000Y-52895000D02*
X34975000Y-52895000D01*
X31115000Y-37275000D02*
X27255000Y-37275000D01*
X31115000Y-37275000D02*
X34975000Y-37275000D01*
X34975000Y-52895000D02*
X34975000Y-52630000D01*
X34975000Y-37275000D02*
X34975000Y-37540000D01*
%TO.C,R9*%
X45607500Y-44052258D02*
X45607500Y-43577742D01*
X44562500Y-44052258D02*
X44562500Y-43577742D01*
%TO.C,R3*%
X44562500Y-34052742D02*
X44562500Y-34527258D01*
X45607500Y-34052742D02*
X45607500Y-34527258D01*
%TO.C,R5*%
X44562500Y-49927742D02*
X44562500Y-50402258D01*
X45607500Y-49927742D02*
X45607500Y-50402258D01*
%TO.C,R6*%
X44562500Y-46752742D02*
X44562500Y-47227258D01*
X45607500Y-46752742D02*
X45607500Y-47227258D01*
%TO.C,J1*%
X53683000Y-76540000D02*
X52883000Y-76540000D01*
X53683000Y-76240000D02*
X53683000Y-76540000D01*
X53683000Y-72370000D02*
X53683000Y-74420000D01*
X52913000Y-72720000D02*
X52913000Y-72370000D01*
X52913000Y-72370000D02*
X53683000Y-72370000D01*
X52883000Y-77840000D02*
X23063000Y-77840000D01*
X52883000Y-76540000D02*
X52883000Y-77840000D01*
X50933000Y-72720000D02*
X52913000Y-72720000D01*
X50933000Y-72130000D02*
X50933000Y-72720000D01*
X23063000Y-77840000D02*
X23063000Y-76540000D01*
X23063000Y-76540000D02*
X22263000Y-76540000D01*
X23033000Y-72720000D02*
X25013000Y-72720000D01*
X23033000Y-72370000D02*
X23033000Y-72720000D01*
X22263000Y-76540000D02*
X22263000Y-76240000D01*
X22263000Y-74420000D02*
X22263000Y-72370000D01*
X22263000Y-72370000D02*
X23033000Y-72370000D01*
%TD*%
M02*
