G04 #@! TF.GenerationSoftware,KiCad,Pcbnew,(6.0.10)*
G04 #@! TF.CreationDate,2023-01-16T21:57:59-08:00*
G04 #@! TF.ProjectId,DecentXE-plate,44656365-6e74-4584-952d-706c6174652e,11*
G04 #@! TF.SameCoordinates,Original*
G04 #@! TF.FileFunction,Profile,NP*
%FSLAX46Y46*%
G04 Gerber Fmt 4.6, Leading zero omitted, Abs format (unit mm)*
G04 Created by KiCad (PCBNEW (6.0.10)) date 2023-01-16 21:57:59*
%MOMM*%
%LPD*%
G01*
G04 APERTURE LIST*
G04 #@! TA.AperFunction,Profile*
%ADD10C,0.050000*%
G04 #@! TD*
G04 #@! TA.AperFunction,Profile*
%ADD11C,0.120000*%
G04 #@! TD*
G04 APERTURE END LIST*
D10*
X352060000Y-25860000D02*
X352060000Y-149160000D01*
X22860000Y-149160000D02*
G75*
G03*
X25860000Y-152160000I3000000J0D01*
G01*
X352060000Y-25860000D02*
G75*
G03*
X349060000Y-22860000I-3000000J0D01*
G01*
X349060000Y-152160000D02*
G75*
G03*
X352060000Y-149160000I0J3000000D01*
G01*
X47860000Y-152160000D02*
G75*
G03*
X50860000Y-149160000I0J3000000D01*
G01*
X72760000Y-149160000D02*
G75*
G03*
X75760000Y-152160000I3000000J0D01*
G01*
X72760000Y-147060000D02*
X72760000Y-149160000D01*
X75760000Y-152160000D02*
X297100000Y-152160000D01*
X297100000Y-152160000D02*
G75*
G03*
X300100000Y-149160000I0J3000000D01*
G01*
X300100000Y-147060000D02*
X322000000Y-147060000D01*
X322000000Y-147060000D02*
X322000000Y-149160000D01*
X300100000Y-147060000D02*
X300100000Y-149160000D01*
X322000000Y-149160000D02*
G75*
G03*
X325000000Y-152160000I3000000J0D01*
G01*
X325000000Y-152160000D02*
X349060000Y-152160000D01*
X25860000Y-152160000D02*
X47860000Y-152160000D01*
X25860000Y-22860000D02*
X349060000Y-22860000D01*
X50860000Y-147060000D02*
X72760000Y-147060000D01*
X25860000Y-22860000D02*
G75*
G03*
X22860000Y-25860000I0J-3000000D01*
G01*
X50860000Y-147060000D02*
X50860000Y-149160000D01*
X22860000Y-25860000D02*
X22860000Y-149160000D01*
D11*
X80097500Y-95160000D02*
X80097500Y-109160000D01*
X94097500Y-95160000D02*
X94097500Y-109160000D01*
X80097500Y-95160000D02*
X94097500Y-95160000D01*
X80097500Y-109160000D02*
X94097500Y-109160000D01*
X165822500Y-128210000D02*
X179822500Y-128210000D01*
X179822500Y-114210000D02*
X179822500Y-128210000D01*
X165822500Y-114210000D02*
X165822500Y-128210000D01*
X165822500Y-114210000D02*
X179822500Y-114210000D01*
X127722500Y-128210000D02*
X141722500Y-128210000D01*
X141722500Y-114210000D02*
X141722500Y-128210000D01*
X127722500Y-114210000D02*
X141722500Y-114210000D01*
X127722500Y-114210000D02*
X127722500Y-128210000D01*
X236972500Y-114210000D02*
X236972500Y-128210000D01*
X222972500Y-128210000D02*
X236972500Y-128210000D01*
X222972500Y-114210000D02*
X222972500Y-128210000D01*
X222972500Y-114210000D02*
X236972500Y-114210000D01*
X107481875Y-147260000D02*
X121481875Y-147260000D01*
X121481875Y-133260000D02*
X121481875Y-147260000D01*
X107481875Y-133260000D02*
X107481875Y-147260000D01*
X107481875Y-133260000D02*
X121481875Y-133260000D01*
X132197500Y-95160000D02*
X132197500Y-109160000D01*
X118197500Y-95160000D02*
X118197500Y-109160000D01*
X118197500Y-109160000D02*
X132197500Y-109160000D01*
X118197500Y-95160000D02*
X132197500Y-95160000D01*
X151247500Y-95160000D02*
X151247500Y-109160000D01*
X137247500Y-95160000D02*
X151247500Y-95160000D01*
X137247500Y-109160000D02*
X151247500Y-109160000D01*
X137247500Y-95160000D02*
X137247500Y-109160000D01*
X156297500Y-109160000D02*
X170297500Y-109160000D01*
X156297500Y-95160000D02*
X156297500Y-109160000D01*
X156297500Y-95160000D02*
X170297500Y-95160000D01*
X170297500Y-95160000D02*
X170297500Y-109160000D01*
X189347500Y-95160000D02*
X189347500Y-109160000D01*
X175347500Y-95160000D02*
X175347500Y-109160000D01*
X175347500Y-95160000D02*
X189347500Y-95160000D01*
X175347500Y-109160000D02*
X189347500Y-109160000D01*
X203922500Y-39610000D02*
X217922500Y-39610000D01*
X203922500Y-25610000D02*
X203922500Y-39610000D01*
X203922500Y-25610000D02*
X217922500Y-25610000D01*
X217922500Y-25610000D02*
X217922500Y-39610000D01*
X327460000Y-114210000D02*
X327460000Y-128210000D01*
X313460000Y-128210000D02*
X327460000Y-128210000D01*
X313460000Y-114210000D02*
X327460000Y-114210000D01*
X313460000Y-114210000D02*
X313460000Y-128210000D01*
X194397500Y-109160000D02*
X208397500Y-109160000D01*
X194397500Y-95160000D02*
X208397500Y-95160000D01*
X208397500Y-95160000D02*
X208397500Y-109160000D01*
X194397500Y-95160000D02*
X194397500Y-109160000D01*
X213447500Y-95160000D02*
X227447500Y-95160000D01*
X227447500Y-95160000D02*
X227447500Y-109160000D01*
X213447500Y-95160000D02*
X213447500Y-109160000D01*
X213447500Y-109160000D02*
X227447500Y-109160000D01*
X232497500Y-95160000D02*
X232497500Y-109160000D01*
X232497500Y-109160000D02*
X246497500Y-109160000D01*
X246497500Y-95160000D02*
X246497500Y-109160000D01*
X232497500Y-95160000D02*
X246497500Y-95160000D01*
X58666250Y-128210000D02*
X72666250Y-128210000D01*
X74336250Y-126798000D02*
X72666250Y-126798000D01*
X72666250Y-114210000D02*
X72666250Y-115876000D01*
X81882650Y-118924000D02*
X81882650Y-121718000D01*
X58666250Y-128210000D02*
X58666250Y-126798000D01*
X56996250Y-115063200D02*
X56996250Y-115876000D01*
X56996250Y-115063200D02*
X50336250Y-115063200D01*
X55190250Y-127356800D02*
X55190250Y-128525200D01*
X80996250Y-121718000D02*
X80996250Y-127356800D01*
X80996250Y-121718000D02*
X81882650Y-121718000D01*
X52142250Y-127356800D02*
X52142250Y-128525200D01*
X79190250Y-127356800D02*
X80996250Y-127356800D01*
X76142250Y-127356800D02*
X76142250Y-128525200D01*
X56996250Y-126798000D02*
X58666250Y-126798000D01*
X50336250Y-118924000D02*
X49449850Y-118924000D01*
X74336250Y-115063200D02*
X74336250Y-115876000D01*
X76142250Y-128525200D02*
X79190250Y-128525200D01*
X55190250Y-128525200D02*
X52142250Y-128525200D01*
X50336250Y-115063200D02*
X50336250Y-118924000D01*
X50336250Y-121718000D02*
X50336250Y-127356800D01*
X80996250Y-118924000D02*
X81882650Y-118924000D01*
X58666250Y-114210000D02*
X72666250Y-114210000D01*
X50336250Y-121718000D02*
X49449850Y-121718000D01*
X52142250Y-127356800D02*
X50336250Y-127356800D01*
X74336250Y-115063200D02*
X80996250Y-115063200D01*
X56996250Y-127356800D02*
X55190250Y-127356800D01*
X74336250Y-127356800D02*
X76142250Y-127356800D01*
X56996250Y-127356800D02*
X56996250Y-126798000D01*
X58666250Y-114210000D02*
X58666250Y-115876000D01*
X74336250Y-115876000D02*
X72666250Y-115876000D01*
X49449850Y-118924000D02*
X49449850Y-121718000D01*
X72666250Y-128210000D02*
X72666250Y-126798000D01*
X80996250Y-115063200D02*
X80996250Y-118924000D01*
X74336250Y-127356800D02*
X74336250Y-126798000D01*
X56996250Y-115876000D02*
X58666250Y-115876000D01*
X79190250Y-127356800D02*
X79190250Y-128525200D01*
X203922500Y-114210000D02*
X217922500Y-114210000D01*
X203922500Y-114210000D02*
X203922500Y-128210000D01*
X203922500Y-128210000D02*
X217922500Y-128210000D01*
X217922500Y-114210000D02*
X217922500Y-128210000D01*
X184872500Y-114210000D02*
X198872500Y-114210000D01*
X198872500Y-114210000D02*
X198872500Y-128210000D01*
X184872500Y-114210000D02*
X184872500Y-128210000D01*
X184872500Y-128210000D02*
X198872500Y-128210000D01*
X289660000Y-25610000D02*
X303660000Y-25610000D01*
X289660000Y-25610000D02*
X289660000Y-39610000D01*
X303660000Y-25610000D02*
X303660000Y-39610000D01*
X289660000Y-39610000D02*
X303660000Y-39610000D01*
X242022500Y-114210000D02*
X242022500Y-128210000D01*
X242022500Y-114210000D02*
X256022500Y-114210000D01*
X242022500Y-128210000D02*
X256022500Y-128210000D01*
X256022500Y-114210000D02*
X256022500Y-128210000D01*
X270597500Y-95160000D02*
X284597500Y-95160000D01*
X270597500Y-109160000D02*
X284597500Y-109160000D01*
X284597500Y-95160000D02*
X284597500Y-109160000D01*
X270597500Y-95160000D02*
X270597500Y-109160000D01*
X287266250Y-114210000D02*
X301266250Y-114210000D01*
X287266250Y-128210000D02*
X301266250Y-128210000D01*
X301266250Y-114210000D02*
X301266250Y-128210000D01*
X287266250Y-114210000D02*
X287266250Y-128210000D01*
X99147500Y-95160000D02*
X113147500Y-95160000D01*
X113147500Y-95160000D02*
X113147500Y-109160000D01*
X99147500Y-95160000D02*
X99147500Y-109160000D01*
X99147500Y-109160000D02*
X113147500Y-109160000D01*
X261072500Y-25610000D02*
X261072500Y-39610000D01*
X261072500Y-25610000D02*
X275072500Y-25610000D01*
X275072500Y-25610000D02*
X275072500Y-39610000D01*
X261072500Y-39610000D02*
X275072500Y-39610000D01*
X251547500Y-95160000D02*
X265547500Y-95160000D01*
X265547500Y-95160000D02*
X265547500Y-109160000D01*
X251547500Y-109160000D02*
X265547500Y-109160000D01*
X251547500Y-95160000D02*
X251547500Y-109160000D01*
X261072500Y-128210000D02*
X275072500Y-128210000D01*
X261072500Y-114210000D02*
X261072500Y-128210000D01*
X275072500Y-114210000D02*
X275072500Y-128210000D01*
X261072500Y-114210000D02*
X275072500Y-114210000D01*
X140440000Y-134113200D02*
X140440000Y-138010000D01*
X233780000Y-138010000D02*
X194110000Y-138010000D01*
X233780000Y-146406800D02*
X233780000Y-142510000D01*
X240440000Y-140768000D02*
X241326400Y-140768000D01*
X140440000Y-134113200D02*
X133780000Y-134113200D01*
X132893600Y-137974000D02*
X132893600Y-140768000D01*
X233780000Y-134113200D02*
X233780000Y-138010000D01*
X180110000Y-133260000D02*
X194110000Y-133260000D01*
X233780000Y-142510000D02*
X194110000Y-142510000D01*
X138634000Y-147575200D02*
X135586000Y-147575200D01*
X235586000Y-147575200D02*
X238634000Y-147575200D01*
X240440000Y-140768000D02*
X240440000Y-146406800D01*
X180110000Y-147260000D02*
X180110000Y-142510000D01*
X241326400Y-137974000D02*
X241326400Y-140768000D01*
X240440000Y-137974000D02*
X241326400Y-137974000D01*
X180110000Y-147260000D02*
X194110000Y-147260000D01*
X238634000Y-146406800D02*
X240440000Y-146406800D01*
X140440000Y-146406800D02*
X140440000Y-142510000D01*
X135586000Y-146406800D02*
X133780000Y-146406800D01*
X135586000Y-146406800D02*
X135586000Y-147575200D01*
X133780000Y-140768000D02*
X133780000Y-146406800D01*
X133780000Y-134113200D02*
X133780000Y-137974000D01*
X233780000Y-146406800D02*
X235586000Y-146406800D01*
X133780000Y-137974000D02*
X132893600Y-137974000D01*
X140440000Y-142510000D02*
X180110000Y-142510000D01*
X233780000Y-134113200D02*
X240440000Y-134113200D01*
X238634000Y-146406800D02*
X238634000Y-147575200D01*
X140440000Y-146406800D02*
X138634000Y-146406800D01*
X240440000Y-134113200D02*
X240440000Y-137974000D01*
X235586000Y-146406800D02*
X235586000Y-147575200D01*
X180110000Y-133260000D02*
X180110000Y-138010000D01*
X194110000Y-133260000D02*
X194110000Y-138010000D01*
X133780000Y-140768000D02*
X132893600Y-140768000D01*
X138634000Y-146406800D02*
X138634000Y-147575200D01*
X140440000Y-138010000D02*
X180110000Y-138010000D01*
X194110000Y-147260000D02*
X194110000Y-142510000D01*
X232497500Y-25610000D02*
X232497500Y-39610000D01*
X246497500Y-25610000D02*
X246497500Y-39610000D01*
X232497500Y-25610000D02*
X246497500Y-25610000D01*
X232497500Y-39610000D02*
X246497500Y-39610000D01*
X160772500Y-114210000D02*
X160772500Y-128210000D01*
X146772500Y-114210000D02*
X146772500Y-128210000D01*
X146772500Y-128210000D02*
X160772500Y-128210000D01*
X146772500Y-114210000D02*
X160772500Y-114210000D01*
X122672500Y-114210000D02*
X122672500Y-128210000D01*
X108672500Y-114210000D02*
X122672500Y-114210000D01*
X108672500Y-128210000D02*
X122672500Y-128210000D01*
X108672500Y-114210000D02*
X108672500Y-128210000D01*
X89622500Y-128210000D02*
X103622500Y-128210000D01*
X89622500Y-114210000D02*
X103622500Y-114210000D01*
X103622500Y-114210000D02*
X103622500Y-128210000D01*
X89622500Y-114210000D02*
X89622500Y-128210000D01*
X108385000Y-76110000D02*
X108385000Y-90110000D01*
X94385000Y-90110000D02*
X108385000Y-90110000D01*
X94385000Y-76110000D02*
X108385000Y-76110000D01*
X94385000Y-76110000D02*
X94385000Y-90110000D01*
X184585000Y-76110000D02*
X184585000Y-90110000D01*
X170585000Y-76110000D02*
X170585000Y-90110000D01*
X170585000Y-90110000D02*
X184585000Y-90110000D01*
X170585000Y-76110000D02*
X184585000Y-76110000D01*
X151535000Y-90110000D02*
X165535000Y-90110000D01*
X151535000Y-76110000D02*
X151535000Y-90110000D01*
X165535000Y-76110000D02*
X165535000Y-90110000D01*
X151535000Y-76110000D02*
X165535000Y-76110000D01*
X189635000Y-76110000D02*
X203635000Y-76110000D01*
X189635000Y-90110000D02*
X203635000Y-90110000D01*
X203635000Y-76110000D02*
X203635000Y-90110000D01*
X189635000Y-76110000D02*
X189635000Y-90110000D01*
X246785000Y-90110000D02*
X260785000Y-90110000D01*
X260785000Y-76110000D02*
X260785000Y-90110000D01*
X246785000Y-76110000D02*
X246785000Y-90110000D01*
X246785000Y-76110000D02*
X260785000Y-76110000D01*
X75335000Y-90110000D02*
X89335000Y-90110000D01*
X89335000Y-76110000D02*
X89335000Y-90110000D01*
X75335000Y-76110000D02*
X75335000Y-90110000D01*
X75335000Y-76110000D02*
X89335000Y-76110000D01*
X208685000Y-76110000D02*
X208685000Y-90110000D01*
X222685000Y-76110000D02*
X222685000Y-90110000D01*
X208685000Y-90110000D02*
X222685000Y-90110000D01*
X208685000Y-76110000D02*
X222685000Y-76110000D01*
X298885000Y-76110000D02*
X298885000Y-90110000D01*
X284885000Y-90110000D02*
X298885000Y-90110000D01*
X284885000Y-76110000D02*
X284885000Y-90110000D01*
X284885000Y-76110000D02*
X298885000Y-76110000D01*
X279835000Y-76110000D02*
X279835000Y-90110000D01*
X265835000Y-76110000D02*
X265835000Y-90110000D01*
X265835000Y-76110000D02*
X279835000Y-76110000D01*
X265835000Y-90110000D02*
X279835000Y-90110000D01*
X132485000Y-76110000D02*
X132485000Y-90110000D01*
X132485000Y-76110000D02*
X146485000Y-76110000D01*
X146485000Y-76110000D02*
X146485000Y-90110000D01*
X132485000Y-90110000D02*
X146485000Y-90110000D01*
X113435000Y-76110000D02*
X127435000Y-76110000D01*
X127435000Y-76110000D02*
X127435000Y-90110000D01*
X113435000Y-76110000D02*
X113435000Y-90110000D01*
X113435000Y-90110000D02*
X127435000Y-90110000D01*
X241735000Y-76110000D02*
X241735000Y-90110000D01*
X227735000Y-76110000D02*
X227735000Y-90110000D01*
X227735000Y-76110000D02*
X241735000Y-76110000D01*
X227735000Y-90110000D02*
X241735000Y-90110000D01*
X46760000Y-57060000D02*
X46760000Y-71060000D01*
X46760000Y-57060000D02*
X60760000Y-57060000D01*
X60760000Y-57060000D02*
X60760000Y-71060000D01*
X46760000Y-71060000D02*
X60760000Y-71060000D01*
X213160000Y-57060000D02*
X213160000Y-71060000D01*
X199160000Y-71060000D02*
X213160000Y-71060000D01*
X199160000Y-57060000D02*
X199160000Y-71060000D01*
X199160000Y-57060000D02*
X213160000Y-57060000D01*
X175060000Y-57060000D02*
X175060000Y-71060000D01*
X161060000Y-57060000D02*
X161060000Y-71060000D01*
X161060000Y-71060000D02*
X175060000Y-71060000D01*
X161060000Y-57060000D02*
X175060000Y-57060000D01*
X218210000Y-57060000D02*
X232210000Y-57060000D01*
X232210000Y-57060000D02*
X232210000Y-71060000D01*
X218210000Y-71060000D02*
X232210000Y-71060000D01*
X218210000Y-57060000D02*
X218210000Y-71060000D01*
X237260000Y-57060000D02*
X237260000Y-71060000D01*
X237260000Y-71060000D02*
X251260000Y-71060000D01*
X237260000Y-57060000D02*
X251260000Y-57060000D01*
X251260000Y-57060000D02*
X251260000Y-71060000D01*
X142010000Y-57060000D02*
X156010000Y-57060000D01*
X142010000Y-57060000D02*
X142010000Y-71060000D01*
X156010000Y-57060000D02*
X156010000Y-71060000D01*
X142010000Y-71060000D02*
X156010000Y-71060000D01*
X103910000Y-71060000D02*
X117910000Y-71060000D01*
X103910000Y-57060000D02*
X117910000Y-57060000D01*
X103910000Y-57060000D02*
X103910000Y-71060000D01*
X117910000Y-57060000D02*
X117910000Y-71060000D01*
X275360000Y-57060000D02*
X289360000Y-57060000D01*
X275360000Y-71060000D02*
X289360000Y-71060000D01*
X289360000Y-57060000D02*
X289360000Y-71060000D01*
X275360000Y-57060000D02*
X275360000Y-71060000D01*
X122960000Y-57060000D02*
X122960000Y-71060000D01*
X122960000Y-71060000D02*
X136960000Y-71060000D01*
X122960000Y-57060000D02*
X136960000Y-57060000D01*
X136960000Y-57060000D02*
X136960000Y-71060000D01*
X65810000Y-57060000D02*
X65810000Y-71060000D01*
X65810000Y-71060000D02*
X79810000Y-71060000D01*
X79810000Y-57060000D02*
X79810000Y-71060000D01*
X65810000Y-57060000D02*
X79810000Y-57060000D01*
X270310000Y-57060000D02*
X270310000Y-71060000D01*
X256310000Y-71060000D02*
X270310000Y-71060000D01*
X256310000Y-57060000D02*
X270310000Y-57060000D01*
X256310000Y-57060000D02*
X256310000Y-71060000D01*
X84860000Y-71060000D02*
X98860000Y-71060000D01*
X84860000Y-57060000D02*
X98860000Y-57060000D01*
X98860000Y-57060000D02*
X98860000Y-71060000D01*
X84860000Y-57060000D02*
X84860000Y-71060000D01*
X180110000Y-57060000D02*
X194110000Y-57060000D01*
X180110000Y-71060000D02*
X194110000Y-71060000D01*
X180110000Y-57060000D02*
X180110000Y-71060000D01*
X194110000Y-57060000D02*
X194110000Y-71060000D01*
X51522500Y-76110000D02*
X51522500Y-90110000D01*
X65522500Y-76110000D02*
X65522500Y-90110000D01*
X51522500Y-90110000D02*
X65522500Y-90110000D01*
X51522500Y-76110000D02*
X65522500Y-76110000D01*
X303647500Y-95160000D02*
X303647500Y-109160000D01*
X289647500Y-95160000D02*
X289647500Y-109160000D01*
X289647500Y-109160000D02*
X303647500Y-109160000D01*
X289647500Y-95160000D02*
X303647500Y-95160000D01*
X89622500Y-25610000D02*
X89622500Y-39610000D01*
X103622500Y-25610000D02*
X103622500Y-39610000D01*
X89622500Y-39610000D02*
X103622500Y-39610000D01*
X89622500Y-25610000D02*
X103622500Y-25610000D01*
X118197500Y-39610000D02*
X132197500Y-39610000D01*
X132197500Y-25610000D02*
X132197500Y-39610000D01*
X118197500Y-25610000D02*
X118197500Y-39610000D01*
X118197500Y-25610000D02*
X132197500Y-25610000D01*
X146772500Y-39610000D02*
X160772500Y-39610000D01*
X160772500Y-25610000D02*
X160772500Y-39610000D01*
X146772500Y-25610000D02*
X160772500Y-25610000D01*
X146772500Y-25610000D02*
X146772500Y-39610000D01*
X175347500Y-25610000D02*
X175347500Y-39610000D01*
X175347500Y-25610000D02*
X189347500Y-25610000D01*
X189347500Y-25610000D02*
X189347500Y-39610000D01*
X175347500Y-39610000D02*
X189347500Y-39610000D01*
X318222500Y-39610000D02*
X332222500Y-39610000D01*
X318222500Y-25610000D02*
X318222500Y-39610000D01*
X332222500Y-25610000D02*
X332222500Y-39610000D01*
X318222500Y-25610000D02*
X332222500Y-25610000D01*
X297411000Y-71060000D02*
X297411000Y-71375200D01*
X294415000Y-57060000D02*
X294415000Y-71060000D01*
X300459000Y-71060000D02*
X300459000Y-71375200D01*
X294415000Y-71060000D02*
X297411000Y-71060000D01*
X321411000Y-71060000D02*
X321411000Y-71375200D01*
X324459000Y-71060000D02*
X327455000Y-71060000D01*
X300459000Y-71375200D02*
X297411000Y-71375200D01*
X324459000Y-71060000D02*
X324459000Y-71375200D01*
X321411000Y-71375200D02*
X324459000Y-71375200D01*
X300459000Y-71060000D02*
X321411000Y-71060000D01*
X294415000Y-57060000D02*
X327455000Y-57060000D01*
X327455000Y-57060000D02*
X327455000Y-71060000D01*
X67903750Y-95160000D02*
X67903750Y-109160000D01*
X53903750Y-109160000D02*
X67903750Y-109160000D01*
X53903750Y-95160000D02*
X67903750Y-95160000D01*
X53903750Y-95160000D02*
X53903750Y-109160000D01*
X325078750Y-103111000D02*
X325078750Y-85635000D01*
X325078750Y-85635000D02*
X323666750Y-85635000D01*
X324225550Y-82159000D02*
X325393950Y-82159000D01*
X311078750Y-109160000D02*
X311078750Y-90110000D01*
X324225550Y-83965000D02*
X323666750Y-83965000D01*
X323666750Y-83965000D02*
X323666750Y-85635000D01*
X324225550Y-79111000D02*
X324225550Y-77305000D01*
X324225550Y-83965000D02*
X324225550Y-82159000D01*
X322697450Y-76110000D02*
X322697450Y-77305000D01*
X325078750Y-106159000D02*
X325078750Y-109160000D01*
X325078750Y-109160000D02*
X311078750Y-109160000D01*
X324225550Y-79111000D02*
X325393950Y-79111000D01*
X325393950Y-82159000D02*
X325393950Y-79111000D01*
X322697450Y-77305000D02*
X324225550Y-77305000D01*
X325078750Y-106159000D02*
X325393950Y-106159000D01*
X308697450Y-90110000D02*
X308697450Y-76110000D01*
X311078750Y-90110000D02*
X308697450Y-90110000D01*
X325393950Y-103111000D02*
X325393950Y-106159000D01*
X325078750Y-103111000D02*
X325393950Y-103111000D01*
X308697450Y-76110000D02*
X322697450Y-76110000D01*
X252738125Y-133260000D02*
X252738125Y-147260000D01*
X252738125Y-133260000D02*
X266738125Y-133260000D01*
X266738125Y-133260000D02*
X266738125Y-147260000D01*
X252738125Y-147260000D02*
X266738125Y-147260000D01*
M02*
