%TF.GenerationSoftware,KiCad,Pcbnew,(6.0.10)*%
%TF.CreationDate,2023-01-29T19:44:21-08:00*%
%TF.ProjectId,DecentXE-to-USB,44656365-6e74-4584-952d-746f2d555342,rev?*%
%TF.SameCoordinates,Original*%
%TF.FileFunction,Soldermask,Top*%
%TF.FilePolarity,Negative*%
%FSLAX46Y46*%
G04 Gerber Fmt 4.6, Leading zero omitted, Abs format (unit mm)*
G04 Created by KiCad (PCBNEW (6.0.10)) date 2023-01-29 19:44:21*
%MOMM*%
%LPD*%
G01*
G04 APERTURE LIST*
G04 Aperture macros list*
%AMRoundRect*
0 Rectangle with rounded corners*
0 $1 Rounding radius*
0 $2 $3 $4 $5 $6 $7 $8 $9 X,Y pos of 4 corners*
0 Add a 4 corners polygon primitive as box body*
4,1,4,$2,$3,$4,$5,$6,$7,$8,$9,$2,$3,0*
0 Add four circle primitives for the rounded corners*
1,1,$1+$1,$2,$3*
1,1,$1+$1,$4,$5*
1,1,$1+$1,$6,$7*
1,1,$1+$1,$8,$9*
0 Add four rect primitives between the rounded corners*
20,1,$1+$1,$2,$3,$4,$5,0*
20,1,$1+$1,$4,$5,$6,$7,0*
20,1,$1+$1,$6,$7,$8,$9,0*
20,1,$1+$1,$8,$9,$2,$3,0*%
G04 Aperture macros list end*
%ADD10C,2.200000*%
%ADD11RoundRect,0.150000X-0.875000X-0.150000X0.875000X-0.150000X0.875000X0.150000X-0.875000X0.150000X0*%
%ADD12C,1.600000*%
%ADD13O,1.600000X1.600000*%
%ADD14R,1.100000X1.800000*%
%ADD15RoundRect,0.275000X-0.275000X-0.625000X0.275000X-0.625000X0.275000X0.625000X-0.275000X0.625000X0*%
%ADD16R,1.700000X3.500000*%
%ADD17O,1.700000X1.700000*%
%ADD18R,1.700000X1.700000*%
%ADD19R,3.500000X1.700000*%
%ADD20O,1.500000X1.500000*%
%ADD21O,1.800000X1.800000*%
%ADD22C,4.000000*%
%ADD23R,1.600000X1.600000*%
G04 APERTURE END LIST*
D10*
%TO.C,REF\u002A\u002A*%
X15748000Y-75692000D03*
%TD*%
%TO.C,REF\u002A\u002A*%
X60198000Y-75692000D03*
%TD*%
%TO.C,REF\u002A\u002A*%
X15748000Y-19050000D03*
%TD*%
%TO.C,REF\u002A\u002A*%
X60198000Y-19050000D03*
%TD*%
D11*
%TO.C,U2*%
X51230000Y-22987000D03*
X51230000Y-24257000D03*
X51230000Y-25527000D03*
X51230000Y-26797000D03*
X51230000Y-28067000D03*
X51230000Y-29337000D03*
X51230000Y-30607000D03*
X51230000Y-31877000D03*
X51230000Y-33147000D03*
X51230000Y-34417000D03*
X51230000Y-35687000D03*
X51230000Y-36957000D03*
X60530000Y-36957000D03*
X60530000Y-35687000D03*
X60530000Y-34417000D03*
X60530000Y-33147000D03*
X60530000Y-31877000D03*
X60530000Y-30607000D03*
X60530000Y-29337000D03*
X60530000Y-28067000D03*
X60530000Y-26797000D03*
X60530000Y-25527000D03*
X60530000Y-24257000D03*
X60530000Y-22987000D03*
%TD*%
D12*
%TO.C,R1*%
X15240000Y-30226000D03*
D13*
X15240000Y-22606000D03*
%TD*%
D12*
%TO.C,R4*%
X15240000Y-69850000D03*
D13*
X15240000Y-62230000D03*
%TD*%
D14*
%TO.C,Q1*%
X44704000Y-69996000D03*
D15*
X45974000Y-67926000D03*
X47244000Y-69996000D03*
%TD*%
D16*
%TO.C,U1*%
X33577000Y-66943000D03*
D17*
X33577000Y-66043000D03*
D16*
X31037000Y-66943000D03*
D18*
X31037000Y-66043000D03*
D16*
X28497000Y-66943000D03*
D17*
X28497000Y-66043000D03*
D19*
X40827000Y-18013000D03*
D17*
X39927000Y-18013000D03*
X39927000Y-20553000D03*
D19*
X40827000Y-20553000D03*
X40827000Y-23093000D03*
D18*
X39927000Y-23093000D03*
D17*
X39927000Y-25633000D03*
D19*
X40827000Y-25633000D03*
D17*
X39927000Y-28173000D03*
D19*
X40827000Y-28173000D03*
D17*
X39927000Y-30713000D03*
D19*
X40827000Y-30713000D03*
X40827000Y-33253000D03*
D17*
X39927000Y-33253000D03*
D19*
X40827000Y-35793000D03*
D18*
X39927000Y-35793000D03*
D17*
X39927000Y-38333000D03*
D19*
X40827000Y-38333000D03*
D17*
X39927000Y-40873000D03*
D19*
X40827000Y-40873000D03*
D17*
X39927000Y-43413000D03*
D19*
X40827000Y-43413000D03*
D17*
X39927000Y-45953000D03*
D19*
X40827000Y-45953000D03*
X40827000Y-48493000D03*
D18*
X39927000Y-48493000D03*
D17*
X39927000Y-51033000D03*
D19*
X40827000Y-51033000D03*
X40827000Y-53573000D03*
D17*
X39927000Y-53573000D03*
X39927000Y-56113000D03*
D19*
X40827000Y-56113000D03*
D17*
X39927000Y-58653000D03*
D19*
X40827000Y-58653000D03*
X40827000Y-61193000D03*
D18*
X39927000Y-61193000D03*
D17*
X39927000Y-63733000D03*
D19*
X40827000Y-63733000D03*
X40827000Y-66273000D03*
D17*
X39927000Y-66273000D03*
X22147000Y-66273000D03*
D19*
X21247000Y-66273000D03*
D17*
X22147000Y-63733000D03*
D19*
X21247000Y-63733000D03*
X21247000Y-61193000D03*
D18*
X22147000Y-61193000D03*
D17*
X22147000Y-58653000D03*
D19*
X21247000Y-58653000D03*
X21247000Y-56113000D03*
D17*
X22147000Y-56113000D03*
X22147000Y-53573000D03*
D19*
X21247000Y-53573000D03*
D17*
X22147000Y-51033000D03*
D19*
X21247000Y-51033000D03*
X21247000Y-48493000D03*
D18*
X22147000Y-48493000D03*
D17*
X22147000Y-45953000D03*
D19*
X21247000Y-45953000D03*
X21247000Y-43413000D03*
D17*
X22147000Y-43413000D03*
D19*
X21247000Y-40873000D03*
D17*
X22147000Y-40873000D03*
X22147000Y-38333000D03*
D19*
X21247000Y-38333000D03*
D18*
X22147000Y-35793000D03*
D19*
X21247000Y-35793000D03*
X21247000Y-33253000D03*
D17*
X22147000Y-33253000D03*
D19*
X21247000Y-30713000D03*
D17*
X22147000Y-30713000D03*
D19*
X21247000Y-28173000D03*
D17*
X22147000Y-28173000D03*
D19*
X21247000Y-25633000D03*
D17*
X22147000Y-25633000D03*
D18*
X22147000Y-23093000D03*
D19*
X21247000Y-23093000D03*
X21247000Y-20553000D03*
D17*
X22147000Y-20553000D03*
X22147000Y-18013000D03*
D19*
X21247000Y-18013000D03*
D20*
X33462000Y-21173000D03*
D21*
X33762000Y-18143000D03*
D20*
X28612000Y-21173000D03*
D21*
X28312000Y-18143000D03*
%TD*%
D12*
%TO.C,R2*%
X15240000Y-43434000D03*
D13*
X15240000Y-35814000D03*
%TD*%
D22*
%TO.C,J2*%
X53214669Y-42882000D03*
X53214669Y-67882000D03*
D23*
X52914669Y-60922000D03*
D12*
X52914669Y-58152000D03*
X52914669Y-55382000D03*
X52914669Y-52612000D03*
X52914669Y-49842000D03*
X55754669Y-59537000D03*
X55754669Y-56767000D03*
X55754669Y-53997000D03*
X55754669Y-51227000D03*
%TD*%
%TO.C,R3*%
X15240000Y-56642000D03*
D13*
X15240000Y-49022000D03*
%TD*%
M02*
