M48
; DRILL file {KiCad (6.0.10)} date Sun Jan 29 19:44:24 2023
; FORMAT={-:-/ absolute / metric / decimal}
; #@! TF.CreationDate,2023-01-29T19:44:24-08:00
; #@! TF.GenerationSoftware,Kicad,Pcbnew,(6.0.10)
; #@! TF.FileFunction,Plated,1,2,PTH
FMAT,2
METRIC
; #@! TA.AperFunction,Plated,PTH,ViaDrill
T1C0.400
; #@! TA.AperFunction,Plated,PTH,ComponentDrill
T2C0.750
; #@! TA.AperFunction,Plated,PTH,ComponentDrill
T3C0.800
; #@! TA.AperFunction,Plated,PTH,ComponentDrill
T4C1.000
; #@! TA.AperFunction,Plated,PTH,ComponentDrill
T5C1.020
; #@! TA.AperFunction,Plated,PTH,ComponentDrill
T6C3.200
%
G90
G05
T1
X15.748Y-27.94
X17.272Y-42.672
X25.4Y-71.12
X26.443Y-73.925
X26.938Y-58.942
X27.252Y-63.32
X28.448Y-63.5
X32.004Y-70.104
X35.91Y-65.532
X36.068Y-26.924
X37.084Y-27.432
X37.084Y-55.88
X38.1Y-32.512
X39.116Y-69.596
X43.18Y-63.5
X43.457Y-74.972
X43.471Y-33.528
X43.688Y-55.372
X44.196Y-26.924
X45.212Y-34.544
X45.72Y-60.96
X46.228Y-50.8
X46.736Y-29.464
X46.736Y-32.004
X46.736Y-43.18
X46.736Y-65.024
X46.745Y-63.509
X47.244Y-51.816
X47.248Y-61.98
X48.26Y-23.368
X48.26Y-28.448
X48.264Y-49.788
X48.768Y-75.692
X48.843Y-51.816
X48.843Y-53.34
X48.843Y-66.548
X49.276Y-29.464
X49.784Y-54.356
X50.292Y-20.32
X50.292Y-74.168
X50.901Y-39.116
X51.308Y-62.992
X51.308Y-70.612
X52.286Y-45.31
X52.832Y-30.48
X52.832Y-32.004
X53.848Y-47.027
X54.864Y-27.94
X54.864Y-46.228
X57.4Y-59.94
X57.404Y-26.924
X58.42Y-29.464
X59.436Y-48.26
X59.944Y-52.832
T2
X44.704Y-69.596
X45.974Y-68.326
X47.244Y-69.596
T3
X15.24Y-22.606
X15.24Y-30.226
X15.24Y-35.814
X15.24Y-43.434
X15.24Y-49.022
X15.24Y-56.642
X15.24Y-62.23
X15.24Y-69.85
T4
X52.915Y-49.842
X52.915Y-52.612
X52.915Y-55.382
X52.915Y-58.152
X52.915Y-60.922
X55.755Y-51.227
X55.755Y-53.997
X55.755Y-56.767
X55.755Y-59.537
T5
X22.147Y-18.013
X22.147Y-20.553
X22.147Y-23.093
X22.147Y-25.633
X22.147Y-28.173
X22.147Y-30.713
X22.147Y-33.253
X22.147Y-35.793
X22.147Y-38.333
X22.147Y-40.873
X22.147Y-43.413
X22.147Y-45.953
X22.147Y-48.493
X22.147Y-51.033
X22.147Y-53.573
X22.147Y-56.113
X22.147Y-58.653
X22.147Y-61.193
X22.147Y-63.733
X22.147Y-66.273
X28.497Y-66.043
X31.037Y-66.043
X33.577Y-66.043
X39.927Y-18.013
X39.927Y-20.553
X39.927Y-23.093
X39.927Y-25.633
X39.927Y-28.173
X39.927Y-30.713
X39.927Y-33.253
X39.927Y-35.793
X39.927Y-38.333
X39.927Y-40.873
X39.927Y-43.413
X39.927Y-45.953
X39.927Y-48.493
X39.927Y-51.033
X39.927Y-53.573
X39.927Y-56.113
X39.927Y-58.653
X39.927Y-61.193
X39.927Y-63.733
X39.927Y-66.273
T6
X53.215Y-42.882
X53.215Y-67.882
T0
M30
