M48
; DRILL file {KiCad (7.0.0)} date Fri Apr 21 18:23:13 2023
; FORMAT={-:-/ absolute / metric / decimal}
; #@! TF.CreationDate,2023-04-21T18:23:13-07:00
; #@! TF.GenerationSoftware,Kicad,Pcbnew,(7.0.0)
; #@! TF.FileFunction,Plated,1,2,PTH
FMAT,2
METRIC
; #@! TA.AperFunction,Plated,PTH,ViaDrill
T1C0.400
; #@! TA.AperFunction,Plated,PTH,ComponentDrill
T2C1.000
; #@! TA.AperFunction,Plated,PTH,ComponentDrill
T3C1.020
; #@! TA.AperFunction,Plated,PTH,ComponentDrill
T4C3.200
%
G90
G05
T1
X14.732Y-36.83
X17.526Y-57.658
X18.288Y-51.816
X18.542Y-70.104
X24.496Y-30.734
X24.496Y-41.91
X24.496Y-48.26
X24.496Y-49.53
X24.496Y-50.8
X24.496Y-53.848
X25.221Y-54.829
X25.908Y-32.766
X26.416Y-71.374
X27.94Y-61.976
X28.448Y-43.18
X28.448Y-44.45
X28.448Y-45.72
X28.448Y-46.99
X28.448Y-49.022
X28.448Y-71.374
X29.464Y-34.798
X29.972Y-52.578
X30.226Y-39.37
X33.02Y-69.85
X33.274Y-63.754
X33.432Y-47.391
X33.528Y-36.068
X33.883Y-53.086
X34.036Y-70.358
X34.354Y-53.967
X34.798Y-54.864
X35.636Y-55.409
X36.576Y-56.134
X37.121Y-50.546
X37.338Y-54.102
X37.338Y-56.896
X37.846Y-52.07
X38.1Y-59.436
X45.466Y-71.374
X46.482Y-73.914
X46.736Y-24.384
X47.498Y-70.358
X48.26Y-38.862
X50.8Y-34.29
X53.594Y-34.29
X56.134Y-47.498
X57.15Y-34.925
X58.42Y-33.655
T2
X52.915Y-50.985
X52.915Y-53.755
X52.915Y-56.525
X52.915Y-59.295
X52.915Y-62.065
X55.755Y-52.37
X55.755Y-55.14
X55.755Y-57.91
X55.755Y-60.68
T3
X22.147Y-18.013
X22.147Y-20.553
X22.147Y-23.093
X22.147Y-25.633
X22.147Y-28.173
X22.147Y-30.713
X22.147Y-33.253
X22.147Y-35.793
X22.147Y-38.333
X22.147Y-40.873
X22.147Y-43.413
X22.147Y-45.953
X22.147Y-48.493
X22.147Y-51.033
X22.147Y-53.573
X22.147Y-56.113
X22.147Y-58.653
X22.147Y-61.193
X22.147Y-63.733
X22.147Y-66.273
X28.497Y-66.043
X31.037Y-66.043
X33.577Y-66.043
X39.927Y-18.013
X39.927Y-20.553
X39.927Y-23.093
X39.927Y-25.633
X39.927Y-28.173
X39.927Y-30.713
X39.927Y-33.253
X39.927Y-35.793
X39.927Y-38.333
X39.927Y-40.873
X39.927Y-43.413
X39.927Y-45.953
X39.927Y-48.493
X39.927Y-51.033
X39.927Y-53.573
X39.927Y-56.113
X39.927Y-58.653
X39.927Y-61.193
X39.927Y-63.733
X39.927Y-66.273
T4
X53.215Y-44.025
X53.215Y-69.025
T0
M30
