M48
; DRILL file {KiCad (7.0.0)} date Mon Feb 13 12:42:49 2023
; FORMAT={-:-/ absolute / metric / decimal}
; #@! TF.CreationDate,2023-02-13T12:42:49-08:00
; #@! TF.GenerationSoftware,Kicad,Pcbnew,(7.0.0)
; #@! TF.FileFunction,NonPlated,1,2,NPTH
FMAT,2
METRIC
; #@! TA.AperFunction,NonPlated,NPTH,ComponentDrill
T1C6.000
; #@! TA.AperFunction,NonPlated,NPTH,ComponentDrill
T2C7.000
%
G90
G05
T1
X84.716Y-37.372
X108.529Y-27.848
X113.291Y-37.372
X137.104Y-27.848
X141.866Y-37.372
X165.679Y-27.848
X170.441Y-37.372
X194.254Y-27.848
X199.016Y-37.372
X222.829Y-27.848
X227.591Y-37.372
X251.404Y-27.848
X256.166Y-37.372
X279.979Y-27.848
X284.754Y-37.372
X308.566Y-27.848
X313.316Y-37.372
X337.129Y-27.848
T2
X49.404Y-99.66G85X49.404Y-104.66
G05
X72.404Y-99.66G85X72.404Y-104.66
G05
X282.766Y-118.71G85X282.766Y-123.71
G05
X305.766Y-118.71G85X305.766Y-123.71
G05
T0
M30
