%TF.GenerationSoftware,KiCad,Pcbnew,(7.0.0)*%
%TF.CreationDate,2023-04-21T14:06:01-07:00*%
%TF.ProjectId,DecentXE-to-USB,44656365-6e74-4584-952d-746f2d555342,2*%
%TF.SameCoordinates,Original*%
%TF.FileFunction,Copper,L2,Bot*%
%TF.FilePolarity,Positive*%
%FSLAX46Y46*%
G04 Gerber Fmt 4.6, Leading zero omitted, Abs format (unit mm)*
G04 Created by KiCad (PCBNEW (7.0.0)) date 2023-04-21 14:06:01*
%MOMM*%
%LPD*%
G01*
G04 APERTURE LIST*
G04 Aperture macros list*
%AMRoundRect*
0 Rectangle with rounded corners*
0 $1 Rounding radius*
0 $2 $3 $4 $5 $6 $7 $8 $9 X,Y pos of 4 corners*
0 Add a 4 corners polygon primitive as box body*
4,1,4,$2,$3,$4,$5,$6,$7,$8,$9,$2,$3,0*
0 Add four circle primitives for the rounded corners*
1,1,$1+$1,$2,$3*
1,1,$1+$1,$4,$5*
1,1,$1+$1,$6,$7*
1,1,$1+$1,$8,$9*
0 Add four rect primitives between the rounded corners*
20,1,$1+$1,$2,$3,$4,$5,0*
20,1,$1+$1,$4,$5,$6,$7,0*
20,1,$1+$1,$6,$7,$8,$9,0*
20,1,$1+$1,$8,$9,$2,$3,0*%
G04 Aperture macros list end*
%TA.AperFunction,SMDPad,CuDef*%
%ADD10RoundRect,0.200000X0.275000X-0.200000X0.275000X0.200000X-0.275000X0.200000X-0.275000X-0.200000X0*%
%TD*%
%TA.AperFunction,SMDPad,CuDef*%
%ADD11RoundRect,0.200000X-0.200000X-0.275000X0.200000X-0.275000X0.200000X0.275000X-0.200000X0.275000X0*%
%TD*%
%TA.AperFunction,ComponentPad*%
%ADD12O,1.700000X1.700000*%
%TD*%
%TA.AperFunction,ComponentPad*%
%ADD13R,1.700000X1.700000*%
%TD*%
%TA.AperFunction,SMDPad,CuDef*%
%ADD14RoundRect,0.200000X-0.275000X0.200000X-0.275000X-0.200000X0.275000X-0.200000X0.275000X0.200000X0*%
%TD*%
%TA.AperFunction,ComponentPad*%
%ADD15C,4.000000*%
%TD*%
%TA.AperFunction,ComponentPad*%
%ADD16R,1.600000X1.600000*%
%TD*%
%TA.AperFunction,ComponentPad*%
%ADD17C,1.600000*%
%TD*%
%TA.AperFunction,SMDPad,CuDef*%
%ADD18RoundRect,0.150000X-0.875000X-0.150000X0.875000X-0.150000X0.875000X0.150000X-0.875000X0.150000X0*%
%TD*%
%TA.AperFunction,SMDPad,CuDef*%
%ADD19R,0.400000X1.000000*%
%TD*%
%TA.AperFunction,SMDPad,CuDef*%
%ADD20R,2.000000X1.300000*%
%TD*%
%TA.AperFunction,ViaPad*%
%ADD21C,0.800000*%
%TD*%
%TA.AperFunction,Conductor*%
%ADD22C,0.250000*%
%TD*%
G04 APERTURE END LIST*
D10*
%TO.P,R1,1*%
%TO.N,PWR_LED*%
X45085000Y-31940000D03*
%TO.P,R1,2*%
%TO.N,Net-(U1-GPIO2)*%
X45085000Y-30290000D03*
%TD*%
D11*
%TO.P,R4,1*%
%TO.N,GND*%
X34735000Y-33020000D03*
%TO.P,R4,2*%
%TO.N,PADDLE_B*%
X36385000Y-33020000D03*
%TD*%
D12*
%TO.P,U1,1,GPIO0*%
%TO.N,OPTION*%
X22146999Y-18012999D03*
%TO.P,U1,2,GPIO1*%
%TO.N,RESET*%
X22146999Y-20552999D03*
D13*
%TO.P,U1,3,GND*%
%TO.N,GND*%
X22146999Y-23092999D03*
D12*
%TO.P,U1,4,GPIO2*%
%TO.N,Net-(U1-GPIO2)*%
X22146999Y-25632999D03*
%TO.P,U1,5,GPIO3*%
%TO.N,LED_GND*%
X22146999Y-28172999D03*
%TO.P,U1,6,GPIO4*%
%TO.N,STROBE*%
X22146999Y-30712999D03*
%TO.P,U1,7,GPIO5*%
%TO.N,ROW_7*%
X22146999Y-33252999D03*
D13*
%TO.P,U1,8,GND*%
%TO.N,GND*%
X22146999Y-35792999D03*
D12*
%TO.P,U1,9,GPIO6*%
%TO.N,ROW_8*%
X22146999Y-38332999D03*
%TO.P,U1,10,GPIO7*%
%TO.N,ROW_5*%
X22146999Y-40872999D03*
%TO.P,U1,11,GPIO8*%
%TO.N,JOY_VCC*%
X22146999Y-43412999D03*
%TO.P,U1,12,GPIO9*%
%TO.N,VCC_LED*%
X22146999Y-45952999D03*
D13*
%TO.P,U1,13,GND*%
%TO.N,GND*%
X22146999Y-48492999D03*
D12*
%TO.P,U1,14,GPIO10*%
%TO.N,VCC_KBD*%
X22146999Y-51032999D03*
%TO.P,U1,15,GPIO11*%
%TO.N,unconnected-(U1-GPIO11-Pad15)*%
X22146999Y-53572999D03*
%TO.P,U1,16,GPIO12*%
%TO.N,ROW_3*%
X22146999Y-56112999D03*
%TO.P,U1,17,GPIO13*%
%TO.N,ROW_1*%
X22146999Y-58652999D03*
D13*
%TO.P,U1,18,GND*%
%TO.N,GND*%
X22146999Y-61192999D03*
D12*
%TO.P,U1,19,GPIO14*%
%TO.N,ROW_2*%
X22146999Y-63732999D03*
%TO.P,U1,20,GPIO15*%
%TO.N,ROW_4*%
X22146999Y-66272999D03*
%TO.P,U1,21,GPIO16*%
%TO.N,A0*%
X39926999Y-66272999D03*
%TO.P,U1,22,GPIO17*%
%TO.N,A1*%
X39926999Y-63732999D03*
D13*
%TO.P,U1,23,GND*%
%TO.N,GND*%
X39926999Y-61192999D03*
D12*
%TO.P,U1,24,GPIO18*%
%TO.N,ROW_6*%
X39926999Y-58652999D03*
%TO.P,U1,25,GPIO19*%
%TO.N,A2*%
X39926999Y-56112999D03*
%TO.P,U1,26,GPIO20*%
%TO.N,A3*%
X39926999Y-53572999D03*
%TO.P,U1,27,GPIO21*%
%TO.N,START*%
X39926999Y-51032999D03*
D13*
%TO.P,U1,28,GND*%
%TO.N,GND*%
X39926999Y-48492999D03*
D12*
%TO.P,U1,29,GPIO22*%
%TO.N,SELECT*%
X39926999Y-45952999D03*
%TO.P,U1,30,RUN*%
%TO.N,unconnected-(U1-RUN-Pad30)*%
X39926999Y-43412999D03*
%TO.P,U1,31,GPIO26_ADC0*%
%TO.N,JOY_GND*%
X39926999Y-40872999D03*
%TO.P,U1,32,GPIO27_ADC1*%
%TO.N,PADDLE_A*%
X39926999Y-38332999D03*
D13*
%TO.P,U1,33,AGND*%
%TO.N,GND*%
X39926999Y-35792999D03*
D12*
%TO.P,U1,34,GPIO28_ADC2*%
%TO.N,PADDLE_B*%
X39926999Y-33252999D03*
%TO.P,U1,35,ADC_VREF*%
%TO.N,3V3*%
X39926999Y-30712999D03*
%TO.P,U1,36,3V3*%
X39926999Y-28172999D03*
%TO.P,U1,37,3V3_EN*%
%TO.N,unconnected-(U1-3V3_EN-Pad37)*%
X39926999Y-25632999D03*
D13*
%TO.P,U1,38,GND*%
%TO.N,GND*%
X39926999Y-23092999D03*
D12*
%TO.P,U1,39,VSYS*%
%TO.N,unconnected-(U1-VSYS-Pad39)*%
X39926999Y-20552999D03*
%TO.P,U1,40,VBUS*%
%TO.N,unconnected-(U1-VBUS-Pad40)*%
X39926999Y-18012999D03*
%TO.P,U1,41,SWCLK*%
%TO.N,unconnected-(U1-SWCLK-Pad41)*%
X28496999Y-66042999D03*
D13*
%TO.P,U1,42,GND*%
%TO.N,unconnected-(U1-GND-Pad42)*%
X31036999Y-66042999D03*
D12*
%TO.P,U1,43,SWDIO*%
%TO.N,unconnected-(U1-SWDIO-Pad43)*%
X33576999Y-66042999D03*
%TD*%
D14*
%TO.P,R8,1*%
%TO.N,Net-(U2-Q13)*%
X45085000Y-36640000D03*
%TO.P,R8,2*%
%TO.N,LEFT*%
X45085000Y-38290000D03*
%TD*%
D15*
%TO.P,J2,0*%
%TO.N,N/C*%
X53214669Y-69025000D03*
X53214669Y-44025000D03*
D16*
%TO.P,J2,1,Pin_1*%
%TO.N,UP*%
X52914668Y-62064999D03*
D17*
%TO.P,J2,2,Pin_2*%
%TO.N,DOWN*%
X52914669Y-59295000D03*
%TO.P,J2,3,Pin_3*%
%TO.N,LEFT*%
X52914669Y-56525000D03*
%TO.P,J2,4,Pin_4*%
%TO.N,RIGHT*%
X52914669Y-53755000D03*
%TO.P,J2,5,Pin_5*%
%TO.N,PADDLE_B*%
X52914669Y-50985000D03*
%TO.P,J2,6,Pin_6*%
%TO.N,FIRE*%
X55754669Y-60680000D03*
%TO.P,J2,7,Pin_7*%
%TO.N,JOY_VCC*%
X55754669Y-57910000D03*
%TO.P,J2,8,Pin_8*%
%TO.N,JOY_GND*%
X55754669Y-55140000D03*
%TO.P,J2,9,Pin_9*%
%TO.N,PADDLE_A*%
X55754669Y-52370000D03*
%TD*%
D14*
%TO.P,R7,1*%
%TO.N,Net-(U2-Q12)*%
X45085000Y-39815000D03*
%TO.P,R7,2*%
%TO.N,DOWN*%
X45085000Y-41465000D03*
%TD*%
D18*
%TO.P,U2,1,EL*%
%TO.N,STROBE*%
X26465000Y-52070000D03*
%TO.P,U2,2,A0*%
%TO.N,A0*%
X26465000Y-50800000D03*
%TO.P,U2,3,A1*%
%TO.N,A1*%
X26465000Y-49530000D03*
%TO.P,U2,4,Q7*%
%TO.N,COL_7*%
X26465000Y-48260000D03*
%TO.P,U2,5,Q6*%
%TO.N,COL_6*%
X26465000Y-46990000D03*
%TO.P,U2,6,Q5*%
%TO.N,COL_5*%
X26465000Y-45720000D03*
%TO.P,U2,7,Q4*%
%TO.N,COL_4*%
X26465000Y-44450000D03*
%TO.P,U2,8,Q3*%
%TO.N,COL_3*%
X26465000Y-43180000D03*
%TO.P,U2,9,Q1*%
%TO.N,COL_1*%
X26465000Y-41910000D03*
%TO.P,U2,10,Q2*%
%TO.N,COL_2*%
X26465000Y-40640000D03*
%TO.P,U2,11,Q0*%
%TO.N,unconnected-(U2-Q0-Pad11)*%
X26465000Y-39370000D03*
%TO.P,U2,12,Vss*%
%TO.N,GND*%
X26465000Y-38100000D03*
%TO.P,U2,13,Q13*%
%TO.N,Net-(U2-Q13)*%
X35765000Y-38100000D03*
%TO.P,U2,14,Q12*%
%TO.N,Net-(U2-Q12)*%
X35765000Y-39370000D03*
%TO.P,U2,15,Q15*%
%TO.N,unconnected-(U2-Q15-Pad15)*%
X35765000Y-40640000D03*
%TO.P,U2,16,Q14*%
%TO.N,Net-(U2-Q14)*%
X35765000Y-41910000D03*
%TO.P,U2,17,Q9*%
%TO.N,COL_9*%
X35765000Y-43180000D03*
%TO.P,U2,18,Q8*%
%TO.N,COL_8*%
X35765000Y-44450000D03*
%TO.P,U2,19,Q11*%
%TO.N,Net-(U2-Q11)*%
X35765000Y-45720000D03*
%TO.P,U2,20,Q10*%
%TO.N,Net-(U2-Q10)*%
X35765000Y-46990000D03*
%TO.P,U2,21,A2*%
%TO.N,A2*%
X35765000Y-48260000D03*
%TO.P,U2,22,A3*%
%TO.N,A3*%
X35765000Y-49530000D03*
%TO.P,U2,23,~{EN}*%
%TO.N,GND*%
X35765000Y-50800000D03*
%TO.P,U2,24,Vdd*%
%TO.N,3V3*%
X35765000Y-52070000D03*
%TD*%
D10*
%TO.P,R9,1*%
%TO.N,Net-(U2-Q14)*%
X45085000Y-44640000D03*
%TO.P,R9,2*%
%TO.N,RIGHT*%
X45085000Y-42990000D03*
%TD*%
D14*
%TO.P,R3,1*%
%TO.N,GND*%
X45085000Y-33465000D03*
%TO.P,R3,2*%
%TO.N,PADDLE_A*%
X45085000Y-35115000D03*
%TD*%
%TO.P,R5,1*%
%TO.N,Net-(U2-Q10)*%
X45085000Y-49340000D03*
%TO.P,R5,2*%
%TO.N,FIRE*%
X45085000Y-50990000D03*
%TD*%
%TO.P,R6,1*%
%TO.N,Net-(U2-Q11)*%
X45085000Y-46165000D03*
%TO.P,R6,2*%
%TO.N,UP*%
X45085000Y-47815000D03*
%TD*%
D19*
%TO.P,J1,1,Pin_1*%
%TO.N,VCC_KBD*%
X50472999Y-72629999D03*
%TO.P,J1,2,Pin_2*%
%TO.N,PWR_LED*%
X49472999Y-72629999D03*
%TO.P,J1,3,Pin_3*%
%TO.N,GND*%
X48472999Y-72629999D03*
%TO.P,J1,4,Pin_4*%
%TO.N,COL_2*%
X47472999Y-72629999D03*
%TO.P,J1,5,Pin_5*%
%TO.N,ROW_7*%
X46472999Y-72629999D03*
%TO.P,J1,6,Pin_6*%
%TO.N,ROW_8*%
X45472999Y-72629999D03*
%TO.P,J1,7,Pin_7*%
%TO.N,ROW_5*%
X44472999Y-72629999D03*
%TO.P,J1,8,Pin_8*%
%TO.N,COL_3*%
X43472999Y-72629999D03*
%TO.P,J1,9,Pin_9*%
%TO.N,COL_4*%
X42472999Y-72629999D03*
%TO.P,J1,10,Pin_10*%
%TO.N,COL_5*%
X41472999Y-72629999D03*
%TO.P,J1,11,Pin_11*%
%TO.N,COL_6*%
X40472999Y-72629999D03*
%TO.P,J1,12,Pin_12*%
%TO.N,ROW_3*%
X39472999Y-72629999D03*
%TO.P,J1,13,Pin_13*%
%TO.N,ROW_1*%
X38472999Y-72629999D03*
%TO.P,J1,14,Pin_14*%
%TO.N,ROW_2*%
X37472999Y-72629999D03*
%TO.P,J1,15,Pin_15*%
%TO.N,ROW_4*%
X36472999Y-72629999D03*
%TO.P,J1,16,Pin_16*%
%TO.N,COL_8*%
X35472999Y-72629999D03*
%TO.P,J1,17,Pin_17*%
%TO.N,COL_7*%
X34472999Y-72629999D03*
%TO.P,J1,18,Pin_18*%
%TO.N,ROW_6*%
X33472999Y-72629999D03*
%TO.P,J1,19,Pin_19*%
%TO.N,COL_1*%
X32472999Y-72629999D03*
%TO.P,J1,20,Pin_20*%
%TO.N,COL_9*%
X31472999Y-72629999D03*
%TO.P,J1,21,Pin_21*%
%TO.N,START*%
X30472999Y-72629999D03*
%TO.P,J1,22,Pin_22*%
%TO.N,SELECT*%
X29472999Y-72629999D03*
%TO.P,J1,23,Pin_23*%
%TO.N,OPTION*%
X28472999Y-72629999D03*
%TO.P,J1,24,Pin_24*%
%TO.N,RESET*%
X27472999Y-72629999D03*
%TO.P,J1,25,Pin_25*%
%TO.N,VCC_LED*%
X26472999Y-72629999D03*
%TO.P,J1,26,Pin_26*%
%TO.N,LED_GND*%
X25472999Y-72629999D03*
D20*
%TO.P,J1,MP*%
%TO.N,N/C*%
X53272999Y-75329999D03*
X22672999Y-75329999D03*
%TD*%
D21*
%TO.N,GND*%
X46736000Y-24384000D03*
X18542000Y-70104000D03*
X33528000Y-36068000D03*
X37338000Y-54102000D03*
X37121500Y-50546000D03*
X17526000Y-57658000D03*
X18288000Y-51816000D03*
X56134000Y-47498000D03*
X48260000Y-38862000D03*
X38100000Y-59436000D03*
X27940000Y-61976000D03*
X29972000Y-52578000D03*
X25908000Y-32766000D03*
X53594000Y-34290000D03*
X28448000Y-49022000D03*
X14732000Y-36830000D03*
X30226000Y-39370000D03*
%TO.N,COL_2*%
X47498000Y-70358000D03*
X29464000Y-34798000D03*
%TO.N,ROW_8*%
X45466000Y-71374000D03*
%TO.N,ROW_5*%
X35635515Y-55409500D03*
%TO.N,ROW_7*%
X46482000Y-73914000D03*
%TO.N,A1*%
X36576000Y-56134000D03*
X24496500Y-49530000D03*
%TO.N,A0*%
X37338000Y-56896000D03*
X24496500Y-50800000D03*
%TO.N,COL_3*%
X34798000Y-54864000D03*
X28448000Y-43180000D03*
%TO.N,COL_4*%
X34353844Y-53967385D03*
X28448000Y-44450000D03*
%TO.N,COL_5*%
X28448000Y-45720000D03*
X33882500Y-53086000D03*
%TO.N,COL_6*%
X28448000Y-46990000D03*
X33432500Y-47391424D03*
%TO.N,STROBE*%
X24496500Y-30734000D03*
%TO.N,COL_7*%
X24496500Y-48260000D03*
%TO.N,COL_1*%
X24496500Y-41910000D03*
%TO.N,COL_7*%
X33274000Y-63754000D03*
%TO.N,COL_1*%
X33020000Y-69850000D03*
%TO.N,ROW_6*%
X34036000Y-70358000D03*
%TO.N,START*%
X25221000Y-54828968D03*
%TO.N,SELECT*%
X24496500Y-53848000D03*
%TO.N,3V3*%
X37846000Y-52070000D03*
%TO.N,OPTION*%
X28448000Y-71374000D03*
%TO.N,VCC_LED*%
X26416000Y-71374000D03*
%TO.N,GND*%
X50800000Y-34290000D03*
%TO.N,PWR_LED*%
X57150000Y-34925000D03*
X58420000Y-33655000D03*
%TD*%
D22*
%TO.N,LEFT*%
X47403033Y-40608033D02*
X45085000Y-38290000D01*
X47403033Y-56257780D02*
X47403033Y-40608033D01*
X49990253Y-58845000D02*
X47403033Y-56257780D01*
X50594669Y-58845000D02*
X49990253Y-58845000D01*
X52914669Y-56525000D02*
X50594669Y-58845000D01*
%TO.N,DOWN*%
X46953033Y-43333033D02*
X45085000Y-41465000D01*
X46953033Y-56444176D02*
X46953033Y-43333033D01*
X49803857Y-59295000D02*
X46953033Y-56444176D01*
X52914669Y-59295000D02*
X49803857Y-59295000D01*
%TO.N,RIGHT*%
X46503033Y-56630572D02*
X46503033Y-44408033D01*
X46503033Y-44408033D02*
X45085000Y-42990000D01*
X50292461Y-60420000D02*
X46503033Y-56630572D01*
X54039669Y-59760991D02*
X53380660Y-60420000D01*
X54039669Y-54880000D02*
X54039669Y-59760991D01*
X53380660Y-60420000D02*
X50292461Y-60420000D01*
X52914669Y-53755000D02*
X54039669Y-54880000D01*
%TO.N,GND*%
X36867500Y-50800000D02*
X37121500Y-50546000D01*
X35765000Y-50800000D02*
X36867500Y-50800000D01*
%TO.N,ROW_1*%
X35998000Y-75405000D02*
X38473000Y-72930000D01*
X25625208Y-75405000D02*
X35998000Y-75405000D01*
X16394000Y-66173792D02*
X25625208Y-75405000D01*
X16394000Y-62502396D02*
X16394000Y-66173792D01*
X20243396Y-58653000D02*
X16394000Y-62502396D01*
X22147000Y-58653000D02*
X20243396Y-58653000D01*
%TO.N,ROW_3*%
X36548000Y-75855000D02*
X39473000Y-72930000D01*
X15944000Y-66360188D02*
X25438812Y-75855000D01*
X25438812Y-75855000D02*
X36548000Y-75855000D01*
X15944000Y-62316000D02*
X15944000Y-66360188D01*
X22147000Y-56113000D02*
X15944000Y-62316000D01*
%TO.N,VCC_KBD*%
X50473000Y-73352000D02*
X50473000Y-72630000D01*
X47520000Y-76305000D02*
X50473000Y-73352000D01*
X15494000Y-70614000D02*
X21185000Y-76305000D01*
X21185000Y-76305000D02*
X47520000Y-76305000D01*
X22147000Y-51033000D02*
X15494000Y-57686000D01*
X15494000Y-57686000D02*
X15494000Y-70614000D01*
%TO.N,COL_2*%
X47498000Y-70358000D02*
X47498000Y-72605000D01*
X26891751Y-40640000D02*
X29464000Y-38067751D01*
X29464000Y-38067751D02*
X29464000Y-34798000D01*
%TO.N,ROW_8*%
X45473000Y-71381000D02*
X45466000Y-71374000D01*
X45473000Y-72630000D02*
X45473000Y-71381000D01*
%TO.N,ROW_5*%
X35635515Y-61721535D02*
X35635515Y-55409500D01*
X37730000Y-63816020D02*
X35635515Y-61721535D01*
X37730000Y-65737701D02*
X37730000Y-63816020D01*
X39440299Y-67448000D02*
X37730000Y-65737701D01*
X39878000Y-67448000D02*
X39440299Y-67448000D01*
X44473000Y-72630000D02*
X44473000Y-72043000D01*
X44473000Y-72043000D02*
X39878000Y-67448000D01*
%TO.N,ROW_7*%
X46482000Y-73914000D02*
X46482000Y-72639000D01*
%TO.N,A1*%
X36576000Y-60382000D02*
X39927000Y-63733000D01*
X36576000Y-56134000D02*
X36576000Y-60382000D01*
X26465000Y-49530000D02*
X24496500Y-49530000D01*
%TO.N,A0*%
X41656000Y-64544000D02*
X39927000Y-66273000D01*
X41656000Y-58720299D02*
X41656000Y-64544000D01*
X40223701Y-57288000D02*
X41656000Y-58720299D01*
X37730000Y-57288000D02*
X40223701Y-57288000D01*
X37338000Y-56896000D02*
X37730000Y-57288000D01*
X26465000Y-50800000D02*
X24496500Y-50800000D01*
%TO.N,COL_3*%
X37280000Y-66137000D02*
X37280000Y-64002416D01*
X34798000Y-61520416D02*
X34798000Y-54864000D01*
X43473000Y-72330000D02*
X37280000Y-66137000D01*
X37280000Y-64002416D02*
X34798000Y-61520416D01*
X26465000Y-43180000D02*
X28448000Y-43180000D01*
%TO.N,COL_4*%
X34058000Y-61416812D02*
X34058000Y-54263229D01*
X36830000Y-64188812D02*
X34058000Y-61416812D01*
X34058000Y-54263229D02*
X34353844Y-53967385D01*
X36830000Y-66673000D02*
X36830000Y-64188812D01*
X36823000Y-66680000D02*
X36830000Y-66673000D01*
X42473000Y-72330000D02*
X36823000Y-66680000D01*
X26465000Y-44450000D02*
X28448000Y-44450000D01*
%TO.N,COL_5*%
X28448000Y-45720000D02*
X26465000Y-45720000D01*
X33608000Y-53360500D02*
X33882500Y-53086000D01*
X33608000Y-61603208D02*
X33608000Y-53360500D01*
X36373000Y-64368208D02*
X33608000Y-61603208D01*
%TO.N,COL_6*%
X35923000Y-64554604D02*
X35923000Y-67780000D01*
X35923000Y-67780000D02*
X40473000Y-72330000D01*
X33158000Y-47665924D02*
X33158000Y-61789604D01*
X33158000Y-61789604D02*
X35923000Y-64554604D01*
X33432500Y-47391424D02*
X33158000Y-47665924D01*
%TO.N,COL_5*%
X36373000Y-67230000D02*
X36373000Y-64368208D01*
X41473000Y-72330000D02*
X36373000Y-67230000D01*
%TO.N,COL_6*%
X28448000Y-46990000D02*
X26465000Y-46990000D01*
%TO.N,STROBE*%
X27432000Y-52070000D02*
X26465000Y-52070000D01*
X27686000Y-30734000D02*
X31750000Y-34798000D01*
X24496500Y-30734000D02*
X27686000Y-30734000D01*
X31750000Y-47752000D02*
X27432000Y-52070000D01*
X31750000Y-34798000D02*
X31750000Y-47752000D01*
%TO.N,COL_7*%
X24496500Y-48260000D02*
X26465000Y-48260000D01*
%TO.N,COL_1*%
X24496500Y-41910000D02*
X26465000Y-41910000D01*
%TO.N,COL_7*%
X34761000Y-72342000D02*
X34761000Y-65241000D01*
X34761000Y-65241000D02*
X33274000Y-63754000D01*
X34473000Y-72630000D02*
X34761000Y-72342000D01*
%TO.N,COL_1*%
X33020000Y-71783000D02*
X33020000Y-69850000D01*
X32473000Y-72330000D02*
X33020000Y-71783000D01*
%TO.N,ROW_6*%
X33473000Y-70921000D02*
X34036000Y-70358000D01*
X33473000Y-72630000D02*
X33473000Y-70921000D01*
%TO.N,START*%
X25221000Y-66485299D02*
X25221000Y-54828968D01*
X30473000Y-71737299D02*
X25221000Y-66485299D01*
X30473000Y-72630000D02*
X30473000Y-71737299D01*
%TO.N,SELECT*%
X29473000Y-71373695D02*
X29473000Y-72630000D01*
X24496500Y-66397194D02*
X29473000Y-71373695D01*
X24496500Y-53848000D02*
X24496500Y-66397194D01*
%TO.N,ROW_4*%
X25998000Y-74505000D02*
X34898000Y-74505000D01*
X22147000Y-70654000D02*
X25998000Y-74505000D01*
X34898000Y-74505000D02*
X36473000Y-72930000D01*
X22147000Y-66273000D02*
X22147000Y-70654000D01*
%TO.N,ROW_2*%
X25811604Y-74955000D02*
X35448000Y-74955000D01*
X20972000Y-70115396D02*
X25811604Y-74955000D01*
X35448000Y-74955000D02*
X37473000Y-72930000D01*
X22147000Y-63733000D02*
X20972000Y-64908000D01*
X20972000Y-64908000D02*
X20972000Y-70115396D01*
%TO.N,COL_8*%
X35473000Y-64741000D02*
X35473000Y-72630000D01*
X32708000Y-61976000D02*
X35473000Y-64741000D01*
X35338249Y-44450000D02*
X32708000Y-47080249D01*
X32708000Y-47080249D02*
X32708000Y-61976000D01*
%TO.N,COL_9*%
X32258000Y-46260249D02*
X35338249Y-43180000D01*
X32258000Y-71545000D02*
X32258000Y-46260249D01*
X31473000Y-72330000D02*
X32258000Y-71545000D01*
%TO.N,3V3*%
X35765000Y-52070000D02*
X37846000Y-52070000D01*
%TO.N,A2*%
X34036000Y-49562249D02*
X35338249Y-48260000D01*
X34036000Y-52037751D02*
X34036000Y-49562249D01*
X38111249Y-56113000D02*
X34036000Y-52037751D01*
X39927000Y-56113000D02*
X38111249Y-56113000D01*
%TO.N,OPTION*%
X28448000Y-71374000D02*
X28448000Y-72605000D01*
%TO.N,RESET*%
X20828000Y-21872000D02*
X22147000Y-20553000D01*
X22559701Y-26924000D02*
X21776299Y-26924000D01*
X23772000Y-28136299D02*
X22559701Y-26924000D01*
X21776299Y-26924000D02*
X20828000Y-25975701D01*
X23772000Y-67310000D02*
X23772000Y-28136299D01*
X27473000Y-71011000D02*
X23772000Y-67310000D01*
X20828000Y-25975701D02*
X20828000Y-21872000D01*
X27473000Y-72630000D02*
X27473000Y-71011000D01*
%TO.N,LED_GND*%
X23322000Y-70479000D02*
X23322000Y-29348000D01*
X23322000Y-29348000D02*
X22147000Y-28173000D01*
X25473000Y-72630000D02*
X23322000Y-70479000D01*
%TO.N,VCC_LED*%
X26416000Y-71374000D02*
X26416000Y-72573000D01*
%TO.N,PWR_LED*%
X54165000Y-31940000D02*
X45085000Y-31940000D01*
X57150000Y-34925000D02*
X54165000Y-31940000D01*
X58685000Y-60266622D02*
X58685000Y-33920000D01*
X49473000Y-69478622D02*
X58685000Y-60266622D01*
X58685000Y-33920000D02*
X58420000Y-33655000D01*
X49473000Y-72630000D02*
X49473000Y-69478622D01*
%TO.N,A3*%
X41275000Y-50719299D02*
X41275000Y-52225000D01*
X40223701Y-49668000D02*
X41275000Y-50719299D01*
X41275000Y-52225000D02*
X39927000Y-53573000D01*
X35903000Y-49668000D02*
X40223701Y-49668000D01*
%TO.N,JOY_VCC*%
X17145000Y-21353299D02*
X17145000Y-38411000D01*
X21988299Y-16510000D02*
X17145000Y-21353299D01*
X58235000Y-34659299D02*
X40085701Y-16510000D01*
X58235000Y-55429669D02*
X58235000Y-34659299D01*
X17145000Y-38411000D02*
X22147000Y-43413000D01*
X55754669Y-57910000D02*
X58235000Y-55429669D01*
X40085701Y-16510000D02*
X21988299Y-16510000D01*
%TO.N,PADDLE_B*%
X54039669Y-54160000D02*
X54489669Y-54610000D01*
X54039669Y-53289009D02*
X54039669Y-54160000D01*
X54489669Y-54610000D02*
X54489669Y-55759669D01*
X52914669Y-52164009D02*
X54039669Y-53289009D01*
X52914669Y-50985000D02*
X52914669Y-52164009D01*
X40864000Y-34190000D02*
X39927000Y-33253000D01*
X46890000Y-34190000D02*
X40864000Y-34190000D01*
X57785000Y-45085000D02*
X46890000Y-34190000D01*
X57785000Y-54700660D02*
X57785000Y-45085000D01*
X55245000Y-56515000D02*
X55970660Y-56515000D01*
X54489669Y-55759669D02*
X55245000Y-56515000D01*
X55970660Y-56515000D02*
X57785000Y-54700660D01*
%TO.N,PADDLE_A*%
X47178604Y-35115000D02*
X45085000Y-35115000D01*
X50799302Y-44897680D02*
X50799302Y-38735698D01*
X55754669Y-49853047D02*
X50799302Y-44897680D01*
X55754669Y-52370000D02*
X55754669Y-49853047D01*
X50799302Y-38735698D02*
X47178604Y-35115000D01*
%TO.N,UP*%
X46053033Y-56816968D02*
X51301065Y-62065000D01*
X46053033Y-48783033D02*
X46053033Y-56816968D01*
X45085000Y-47815000D02*
X46053033Y-48783033D01*
X51301065Y-62065000D02*
X52914669Y-62065000D01*
%TO.N,FIRE*%
X55754669Y-61475000D02*
X55754669Y-60680000D01*
X52099669Y-63500000D02*
X53729669Y-63500000D01*
X53729669Y-63500000D02*
X55754669Y-61475000D01*
X45085000Y-56485331D02*
X52099669Y-63500000D01*
X45085000Y-50990000D02*
X45085000Y-56485331D01*
%TO.N,Net-(U2-Q10)*%
X42873000Y-47128000D02*
X45085000Y-49340000D01*
X35903000Y-47128000D02*
X42873000Y-47128000D01*
%TO.N,Net-(U2-Q11)*%
X39630299Y-44588000D02*
X43508000Y-44588000D01*
X35765000Y-45720000D02*
X38498299Y-45720000D01*
X38498299Y-45720000D02*
X39630299Y-44588000D01*
X43508000Y-44588000D02*
X45085000Y-46165000D01*
%TO.N,Net-(U2-Q14)*%
X35903000Y-42048000D02*
X42493000Y-42048000D01*
X42493000Y-42048000D02*
X45085000Y-44640000D01*
%TO.N,PADDLE_A*%
X45885000Y-37057462D02*
X45885000Y-35915000D01*
X40777000Y-37483000D02*
X45459462Y-37483000D01*
X45885000Y-35915000D02*
X45085000Y-35115000D01*
X39927000Y-38333000D02*
X40777000Y-37483000D01*
X45459462Y-37483000D02*
X45885000Y-37057462D01*
%TO.N,Net-(U2-Q13)*%
X36897000Y-36968000D02*
X35765000Y-38100000D01*
X44757000Y-36968000D02*
X36897000Y-36968000D01*
X45085000Y-36640000D02*
X44757000Y-36968000D01*
%TO.N,Net-(U1-GPIO2)*%
X45085000Y-28575000D02*
X45085000Y-30290000D01*
X22147000Y-25633000D02*
X23322000Y-24458000D01*
X23322000Y-24458000D02*
X40968000Y-24458000D01*
X40968000Y-24458000D02*
X45085000Y-28575000D01*
%TO.N,PADDLE_B*%
X36385000Y-33020000D02*
X39694000Y-33020000D01*
%TO.N,Net-(U2-Q12)*%
X44778000Y-39508000D02*
X45085000Y-39815000D01*
X35903000Y-39508000D02*
X44778000Y-39508000D01*
%TD*%
%TA.AperFunction,Conductor*%
%TO.N,GND*%
G36*
X21352907Y-16016233D02*
G01*
X21397640Y-16054439D01*
X21420153Y-16108789D01*
X21415537Y-16167436D01*
X21384799Y-16217595D01*
X16752742Y-20849650D01*
X16744459Y-20857187D01*
X16737982Y-20861299D01*
X16732563Y-20867068D01*
X16732555Y-20867076D01*
X16691370Y-20910934D01*
X16688621Y-20913771D01*
X16671667Y-20930726D01*
X16671660Y-20930733D01*
X16668865Y-20933529D01*
X16666442Y-20936651D01*
X16666426Y-20936670D01*
X16666365Y-20936750D01*
X16658690Y-20945734D01*
X16633838Y-20972201D01*
X16633835Y-20972203D01*
X16628414Y-20977978D01*
X16624600Y-20984913D01*
X16624592Y-20984926D01*
X16618650Y-20995735D01*
X16607803Y-21012248D01*
X16600243Y-21021994D01*
X16600237Y-21022003D01*
X16595386Y-21028258D01*
X16592242Y-21035522D01*
X16592238Y-21035530D01*
X16577824Y-21068839D01*
X16572604Y-21079494D01*
X16555125Y-21111288D01*
X16555121Y-21111296D01*
X16551305Y-21118239D01*
X16549333Y-21125915D01*
X16549331Y-21125923D01*
X16546266Y-21137861D01*
X16539865Y-21156558D01*
X16534968Y-21167875D01*
X16534966Y-21167880D01*
X16531819Y-21175154D01*
X16530579Y-21182979D01*
X16530577Y-21182988D01*
X16524901Y-21218823D01*
X16522495Y-21230443D01*
X16513471Y-21265588D01*
X16513469Y-21265596D01*
X16511500Y-21273269D01*
X16511500Y-21281198D01*
X16511500Y-21293523D01*
X16509949Y-21313234D01*
X16508019Y-21325413D01*
X16508018Y-21325420D01*
X16506780Y-21333242D01*
X16507525Y-21341125D01*
X16507525Y-21341133D01*
X16510941Y-21377260D01*
X16511500Y-21389118D01*
X16511500Y-38332233D01*
X16510972Y-38343416D01*
X16509298Y-38350909D01*
X16509547Y-38358833D01*
X16509547Y-38358835D01*
X16511438Y-38418986D01*
X16511500Y-38422945D01*
X16511500Y-38450856D01*
X16511995Y-38454774D01*
X16511997Y-38454806D01*
X16512008Y-38454888D01*
X16512937Y-38466697D01*
X16514077Y-38502969D01*
X16514078Y-38502976D01*
X16514327Y-38510889D01*
X16516537Y-38518498D01*
X16516538Y-38518500D01*
X16519978Y-38530342D01*
X16523986Y-38549693D01*
X16524039Y-38550116D01*
X16526526Y-38569797D01*
X16529444Y-38577169D01*
X16529445Y-38577170D01*
X16542800Y-38610901D01*
X16546645Y-38622130D01*
X16556771Y-38656986D01*
X16556773Y-38656992D01*
X16558982Y-38664593D01*
X16563014Y-38671411D01*
X16563015Y-38671413D01*
X16569293Y-38682029D01*
X16577990Y-38699782D01*
X16580886Y-38707097D01*
X16585448Y-38718617D01*
X16590107Y-38725030D01*
X16590108Y-38725031D01*
X16611432Y-38754381D01*
X16617948Y-38764301D01*
X16634503Y-38792293D01*
X16640458Y-38802362D01*
X16646063Y-38807967D01*
X16654778Y-38816682D01*
X16667618Y-38831715D01*
X16679528Y-38848107D01*
X16685635Y-38853159D01*
X16685636Y-38853160D01*
X16713598Y-38876292D01*
X16722378Y-38884282D01*
X20797132Y-42959036D01*
X20829516Y-43014682D01*
X20830182Y-43079061D01*
X20803715Y-43183578D01*
X20803713Y-43183587D01*
X20802436Y-43188632D01*
X20802006Y-43193814D01*
X20802005Y-43193824D01*
X20787957Y-43363364D01*
X20783844Y-43413000D01*
X20784274Y-43418189D01*
X20799374Y-43600426D01*
X20802436Y-43637368D01*
X20803717Y-43642426D01*
X20848998Y-43821239D01*
X20857704Y-43855616D01*
X20859797Y-43860389D01*
X20859799Y-43860393D01*
X20878296Y-43902561D01*
X20948140Y-44061791D01*
X21071278Y-44250268D01*
X21086345Y-44266635D01*
X21220227Y-44412069D01*
X21220231Y-44412073D01*
X21223760Y-44415906D01*
X21401424Y-44554189D01*
X21406002Y-44556666D01*
X21406009Y-44556671D01*
X21434680Y-44572187D01*
X21482951Y-44618503D01*
X21500710Y-44683000D01*
X21482951Y-44747497D01*
X21434680Y-44793813D01*
X21406009Y-44809328D01*
X21405993Y-44809338D01*
X21401424Y-44811811D01*
X21397313Y-44815010D01*
X21397311Y-44815012D01*
X21227878Y-44946888D01*
X21227872Y-44946893D01*
X21223760Y-44950094D01*
X21220237Y-44953919D01*
X21220227Y-44953930D01*
X21074806Y-45111899D01*
X21074802Y-45111902D01*
X21071278Y-45115732D01*
X21068430Y-45120090D01*
X21068427Y-45120095D01*
X20950992Y-45299843D01*
X20948140Y-45304209D01*
X20946048Y-45308978D01*
X20946046Y-45308982D01*
X20859799Y-45505606D01*
X20859796Y-45505614D01*
X20857704Y-45510384D01*
X20802436Y-45728632D01*
X20802006Y-45733820D01*
X20802005Y-45733827D01*
X20787957Y-45903364D01*
X20783844Y-45953000D01*
X20784274Y-45958189D01*
X20799934Y-46147184D01*
X20802436Y-46177368D01*
X20857704Y-46395616D01*
X20859797Y-46400389D01*
X20859799Y-46400393D01*
X20900833Y-46493941D01*
X20948140Y-46601791D01*
X21071278Y-46790268D01*
X21129681Y-46853710D01*
X21214840Y-46946217D01*
X21244077Y-46999821D01*
X21244680Y-47060877D01*
X21216506Y-47115047D01*
X21166172Y-47149610D01*
X21059484Y-47189403D01*
X21043824Y-47197954D01*
X20941307Y-47274697D01*
X20928697Y-47287307D01*
X20851954Y-47389824D01*
X20843405Y-47405480D01*
X20798259Y-47526521D01*
X20794662Y-47541742D01*
X20789359Y-47591061D01*
X20789000Y-47597777D01*
X20789000Y-48222410D01*
X20792506Y-48235493D01*
X20805590Y-48239000D01*
X22275000Y-48239000D01*
X22338000Y-48255881D01*
X22384119Y-48302000D01*
X22401000Y-48365000D01*
X22401000Y-48621000D01*
X22384119Y-48684000D01*
X22338000Y-48730119D01*
X22275000Y-48747000D01*
X20805590Y-48747000D01*
X20792506Y-48750506D01*
X20789000Y-48763590D01*
X20789000Y-49388223D01*
X20789359Y-49394938D01*
X20794662Y-49444257D01*
X20798259Y-49459478D01*
X20843405Y-49580519D01*
X20851954Y-49596175D01*
X20928697Y-49698692D01*
X20941307Y-49711302D01*
X21043824Y-49788045D01*
X21059480Y-49796594D01*
X21166171Y-49836388D01*
X21216505Y-49870952D01*
X21244680Y-49925122D01*
X21244077Y-49986178D01*
X21214840Y-50039781D01*
X21074811Y-50191892D01*
X21074800Y-50191906D01*
X21071278Y-50195732D01*
X21068430Y-50200090D01*
X21068427Y-50200095D01*
X20950992Y-50379843D01*
X20948140Y-50384209D01*
X20946048Y-50388978D01*
X20946046Y-50388982D01*
X20859799Y-50585606D01*
X20859796Y-50585614D01*
X20857704Y-50590384D01*
X20856423Y-50595440D01*
X20856422Y-50595445D01*
X20822377Y-50729885D01*
X20802436Y-50808632D01*
X20802006Y-50813820D01*
X20802005Y-50813827D01*
X20788275Y-50979525D01*
X20783844Y-51033000D01*
X20784274Y-51038189D01*
X20801832Y-51250085D01*
X20802436Y-51257368D01*
X20807204Y-51276197D01*
X20830182Y-51366935D01*
X20829517Y-51431315D01*
X20797133Y-51486961D01*
X15101742Y-57182351D01*
X15093459Y-57189888D01*
X15086982Y-57194000D01*
X15081563Y-57199769D01*
X15081555Y-57199777D01*
X15040370Y-57243635D01*
X15037621Y-57246472D01*
X15020667Y-57263427D01*
X15020660Y-57263434D01*
X15017865Y-57266230D01*
X15015442Y-57269352D01*
X15015426Y-57269371D01*
X15015365Y-57269451D01*
X15007690Y-57278435D01*
X14982838Y-57304902D01*
X14982835Y-57304904D01*
X14977414Y-57310679D01*
X14973600Y-57317614D01*
X14973592Y-57317627D01*
X14967650Y-57328436D01*
X14956803Y-57344949D01*
X14949243Y-57354695D01*
X14949237Y-57354704D01*
X14944386Y-57360959D01*
X14941242Y-57368223D01*
X14941238Y-57368231D01*
X14926824Y-57401540D01*
X14921604Y-57412195D01*
X14904125Y-57443989D01*
X14904121Y-57443997D01*
X14900305Y-57450940D01*
X14898333Y-57458616D01*
X14898331Y-57458624D01*
X14895266Y-57470562D01*
X14888865Y-57489259D01*
X14883968Y-57500576D01*
X14883966Y-57500581D01*
X14880819Y-57507855D01*
X14879579Y-57515680D01*
X14879577Y-57515689D01*
X14873901Y-57551524D01*
X14871495Y-57563144D01*
X14862471Y-57598289D01*
X14862469Y-57598297D01*
X14860500Y-57605970D01*
X14860500Y-57613899D01*
X14860500Y-57626224D01*
X14858949Y-57645935D01*
X14857019Y-57658114D01*
X14857018Y-57658121D01*
X14855780Y-57665943D01*
X14856525Y-57673826D01*
X14856525Y-57673834D01*
X14859941Y-57709961D01*
X14860500Y-57721819D01*
X14860500Y-70535233D01*
X14859972Y-70546416D01*
X14858298Y-70553909D01*
X14858547Y-70561833D01*
X14858547Y-70561835D01*
X14860438Y-70621986D01*
X14860500Y-70625945D01*
X14860500Y-70653856D01*
X14860995Y-70657774D01*
X14860997Y-70657806D01*
X14861008Y-70657888D01*
X14861937Y-70669697D01*
X14863077Y-70705969D01*
X14863078Y-70705976D01*
X14863327Y-70713889D01*
X14865537Y-70721498D01*
X14865538Y-70721500D01*
X14868978Y-70733342D01*
X14872986Y-70752693D01*
X14875526Y-70772797D01*
X14878444Y-70780169D01*
X14878445Y-70780170D01*
X14891800Y-70813901D01*
X14895645Y-70825130D01*
X14905771Y-70859986D01*
X14905773Y-70859992D01*
X14907982Y-70867593D01*
X14912014Y-70874411D01*
X14912015Y-70874413D01*
X14918293Y-70885029D01*
X14926990Y-70902782D01*
X14934448Y-70921617D01*
X14939107Y-70928030D01*
X14939108Y-70928031D01*
X14960432Y-70957381D01*
X14966948Y-70967301D01*
X14985422Y-70998538D01*
X14989458Y-71005362D01*
X14995062Y-71010966D01*
X14995063Y-71010967D01*
X15003778Y-71019682D01*
X15016618Y-71034715D01*
X15017321Y-71035683D01*
X15028528Y-71051107D01*
X15034635Y-71056159D01*
X15034636Y-71056160D01*
X15062598Y-71079292D01*
X15071378Y-71087282D01*
X20681342Y-76697246D01*
X20688884Y-76705533D01*
X20693000Y-76712018D01*
X20698779Y-76717444D01*
X20698780Y-76717446D01*
X20742667Y-76758658D01*
X20745508Y-76761412D01*
X20765230Y-76781134D01*
X20768414Y-76783604D01*
X20777437Y-76791309D01*
X20809679Y-76821586D01*
X20816628Y-76825406D01*
X20827429Y-76831344D01*
X20843959Y-76842202D01*
X20853694Y-76849754D01*
X20853697Y-76849756D01*
X20859959Y-76854613D01*
X20900536Y-76872172D01*
X20911171Y-76877381D01*
X20949940Y-76898695D01*
X20969566Y-76903734D01*
X20988259Y-76910134D01*
X21006855Y-76918181D01*
X21050518Y-76925095D01*
X21062129Y-76927500D01*
X21104970Y-76938500D01*
X21125231Y-76938500D01*
X21144939Y-76940050D01*
X21164943Y-76943219D01*
X21172835Y-76942473D01*
X21178062Y-76941979D01*
X21208954Y-76939058D01*
X21220811Y-76938500D01*
X47441233Y-76938500D01*
X47452416Y-76939027D01*
X47459909Y-76940702D01*
X47527985Y-76938562D01*
X47531945Y-76938500D01*
X47555894Y-76938500D01*
X47559856Y-76938500D01*
X47563856Y-76937994D01*
X47575699Y-76937061D01*
X47619889Y-76935673D01*
X47639333Y-76930023D01*
X47658702Y-76926012D01*
X47678797Y-76923474D01*
X47719915Y-76907193D01*
X47731117Y-76903357D01*
X47773593Y-76891018D01*
X47791039Y-76880699D01*
X47808769Y-76872013D01*
X47827617Y-76864552D01*
X47863387Y-76838561D01*
X47873298Y-76832051D01*
X47911362Y-76809542D01*
X47925688Y-76795215D01*
X47940717Y-76782378D01*
X47957107Y-76770472D01*
X47985294Y-76736397D01*
X47993272Y-76727630D01*
X48692264Y-76028638D01*
X51764500Y-76028638D01*
X51764859Y-76031985D01*
X51764860Y-76031988D01*
X51770168Y-76081367D01*
X51770169Y-76081373D01*
X51771011Y-76089201D01*
X51773762Y-76096578D01*
X51773763Y-76096580D01*
X51818962Y-76217763D01*
X51818964Y-76217766D01*
X51822111Y-76226204D01*
X51827508Y-76233414D01*
X51827510Y-76233417D01*
X51896526Y-76325611D01*
X51909739Y-76343261D01*
X51916950Y-76348659D01*
X51951247Y-76374334D01*
X52026796Y-76430889D01*
X52163799Y-76481989D01*
X52224362Y-76488500D01*
X54318269Y-76488500D01*
X54321638Y-76488500D01*
X54382201Y-76481989D01*
X54519204Y-76430889D01*
X54636261Y-76343261D01*
X54723889Y-76226204D01*
X54774989Y-76089201D01*
X54781500Y-76028638D01*
X54781500Y-75692000D01*
X58842341Y-75692000D01*
X58842820Y-75697475D01*
X58854008Y-75825358D01*
X58862937Y-75927408D01*
X58864360Y-75932721D01*
X58864361Y-75932723D01*
X58885214Y-76010550D01*
X58924097Y-76155663D01*
X59023965Y-76369829D01*
X59027117Y-76374330D01*
X59027119Y-76374334D01*
X59156345Y-76558889D01*
X59156349Y-76558893D01*
X59159505Y-76563401D01*
X59326599Y-76730495D01*
X59331107Y-76733651D01*
X59331110Y-76733654D01*
X59508353Y-76857760D01*
X59520171Y-76866035D01*
X59734337Y-76965903D01*
X59962592Y-77027063D01*
X60139034Y-77042500D01*
X60254226Y-77042500D01*
X60256966Y-77042500D01*
X60433408Y-77027063D01*
X60661663Y-76965903D01*
X60875829Y-76866035D01*
X61069401Y-76730495D01*
X61236495Y-76563401D01*
X61372035Y-76369830D01*
X61471903Y-76155663D01*
X61533063Y-75927408D01*
X61553659Y-75692000D01*
X61533063Y-75456592D01*
X61471903Y-75228337D01*
X61372035Y-75014171D01*
X61236495Y-74820599D01*
X61069401Y-74653505D01*
X61064893Y-74650349D01*
X61064889Y-74650345D01*
X60880334Y-74521119D01*
X60880330Y-74521117D01*
X60875829Y-74517965D01*
X60713429Y-74442236D01*
X60666645Y-74420420D01*
X60666643Y-74420419D01*
X60661663Y-74418097D01*
X60656355Y-74416674D01*
X60656353Y-74416674D01*
X60438723Y-74358361D01*
X60438721Y-74358360D01*
X60433408Y-74356937D01*
X60427932Y-74356457D01*
X60427927Y-74356457D01*
X60259689Y-74341738D01*
X60259683Y-74341737D01*
X60256966Y-74341500D01*
X60139034Y-74341500D01*
X60136317Y-74341737D01*
X60136310Y-74341738D01*
X59968072Y-74356457D01*
X59968065Y-74356458D01*
X59962592Y-74356937D01*
X59957280Y-74358360D01*
X59957276Y-74358361D01*
X59739646Y-74416674D01*
X59739641Y-74416675D01*
X59734337Y-74418097D01*
X59729360Y-74420417D01*
X59729354Y-74420420D01*
X59525152Y-74515642D01*
X59525149Y-74515643D01*
X59520171Y-74517965D01*
X59515674Y-74521113D01*
X59515665Y-74521119D01*
X59331110Y-74650345D01*
X59331100Y-74650353D01*
X59326599Y-74653505D01*
X59322709Y-74657394D01*
X59322703Y-74657400D01*
X59163402Y-74816701D01*
X59163396Y-74816707D01*
X59159505Y-74820599D01*
X59156348Y-74825107D01*
X59156346Y-74825110D01*
X59027121Y-75009661D01*
X59027119Y-75009665D01*
X59023965Y-75014170D01*
X59021641Y-75019152D01*
X59021639Y-75019157D01*
X58926420Y-75223354D01*
X58926417Y-75223360D01*
X58924097Y-75228337D01*
X58922675Y-75233641D01*
X58922674Y-75233646D01*
X58864361Y-75451276D01*
X58862937Y-75456592D01*
X58862458Y-75462065D01*
X58862457Y-75462072D01*
X58853434Y-75565211D01*
X58842341Y-75692000D01*
X54781500Y-75692000D01*
X54781500Y-74631362D01*
X54774989Y-74570799D01*
X54723889Y-74433796D01*
X54636261Y-74316739D01*
X54629049Y-74311340D01*
X54526417Y-74234510D01*
X54526414Y-74234508D01*
X54519204Y-74229111D01*
X54510766Y-74225964D01*
X54510763Y-74225962D01*
X54389580Y-74180763D01*
X54389578Y-74180762D01*
X54382201Y-74178011D01*
X54374373Y-74177169D01*
X54374367Y-74177168D01*
X54324988Y-74171860D01*
X54324985Y-74171859D01*
X54321638Y-74171500D01*
X52224362Y-74171500D01*
X52221015Y-74171859D01*
X52221011Y-74171860D01*
X52171632Y-74177168D01*
X52171625Y-74177169D01*
X52163799Y-74178011D01*
X52156423Y-74180761D01*
X52156419Y-74180763D01*
X52035236Y-74225962D01*
X52035230Y-74225965D01*
X52026796Y-74229111D01*
X52019588Y-74234506D01*
X52019582Y-74234510D01*
X51916950Y-74311340D01*
X51916946Y-74311343D01*
X51909739Y-74316739D01*
X51904343Y-74323946D01*
X51904340Y-74323950D01*
X51827510Y-74426582D01*
X51827506Y-74426588D01*
X51822111Y-74433796D01*
X51818965Y-74442230D01*
X51818962Y-74442236D01*
X51773763Y-74563419D01*
X51773761Y-74563423D01*
X51771011Y-74570799D01*
X51770169Y-74578625D01*
X51770168Y-74578632D01*
X51768221Y-74596749D01*
X51764500Y-74631362D01*
X51764500Y-76028638D01*
X48692264Y-76028638D01*
X50865259Y-73855643D01*
X50873533Y-73848114D01*
X50880018Y-73844000D01*
X50926676Y-73794312D01*
X50929368Y-73791534D01*
X50949135Y-73771769D01*
X50951589Y-73768604D01*
X50959310Y-73759559D01*
X50989586Y-73727321D01*
X50999345Y-73709567D01*
X51010198Y-73693045D01*
X51022614Y-73677040D01*
X51040177Y-73636450D01*
X51045388Y-73625815D01*
X51066695Y-73587060D01*
X51071732Y-73567442D01*
X51078138Y-73548730D01*
X51083032Y-73537421D01*
X51086181Y-73530145D01*
X51093096Y-73486477D01*
X51095504Y-73474853D01*
X51104527Y-73439712D01*
X51106500Y-73432030D01*
X51106500Y-73424096D01*
X51106588Y-73423399D01*
X51120299Y-73380999D01*
X51123889Y-73376204D01*
X51174989Y-73239201D01*
X51181500Y-73178638D01*
X51181500Y-72081362D01*
X51174989Y-72020799D01*
X51123889Y-71883796D01*
X51036261Y-71766739D01*
X50973000Y-71719382D01*
X50926417Y-71684510D01*
X50926414Y-71684508D01*
X50919204Y-71679111D01*
X50910766Y-71675964D01*
X50910763Y-71675962D01*
X50789580Y-71630763D01*
X50789578Y-71630762D01*
X50782201Y-71628011D01*
X50774373Y-71627169D01*
X50774367Y-71627168D01*
X50724988Y-71621860D01*
X50724985Y-71621859D01*
X50721638Y-71621500D01*
X50232500Y-71621500D01*
X50169500Y-71604619D01*
X50123381Y-71558500D01*
X50106500Y-71495500D01*
X50106500Y-69793217D01*
X50116091Y-69744999D01*
X50143404Y-69704122D01*
X50283329Y-69564197D01*
X50518549Y-69328975D01*
X50577269Y-69295787D01*
X50644694Y-69297641D01*
X50701501Y-69334006D01*
X50731413Y-69394461D01*
X50779429Y-69646171D01*
X50779432Y-69646183D01*
X50780174Y-69650072D01*
X50781396Y-69653834D01*
X50781400Y-69653848D01*
X50834135Y-69816148D01*
X50877713Y-69950266D01*
X50879400Y-69953851D01*
X50879402Y-69953856D01*
X51001168Y-70212623D01*
X51012107Y-70235869D01*
X51014230Y-70239215D01*
X51014231Y-70239216D01*
X51178272Y-70497704D01*
X51181237Y-70502375D01*
X51382436Y-70745582D01*
X51612529Y-70961654D01*
X51867890Y-71147184D01*
X51871361Y-71149092D01*
X52137008Y-71295134D01*
X52144490Y-71299247D01*
X52437967Y-71415443D01*
X52743694Y-71493940D01*
X53056848Y-71533500D01*
X53368531Y-71533500D01*
X53372490Y-71533500D01*
X53685644Y-71493940D01*
X53991371Y-71415443D01*
X54284848Y-71299247D01*
X54561448Y-71147184D01*
X54816809Y-70961654D01*
X55046902Y-70745582D01*
X55248101Y-70502375D01*
X55417231Y-70235869D01*
X55551625Y-69950266D01*
X55649164Y-69650072D01*
X55708310Y-69340020D01*
X55728129Y-69025000D01*
X55708310Y-68709980D01*
X55649164Y-68399928D01*
X55551625Y-68099734D01*
X55417231Y-67814131D01*
X55248101Y-67547625D01*
X55046902Y-67304418D01*
X54816809Y-67088346D01*
X54813605Y-67086018D01*
X54564650Y-66905142D01*
X54564645Y-66905139D01*
X54561448Y-66902816D01*
X54512496Y-66875904D01*
X54288316Y-66752659D01*
X54288308Y-66752655D01*
X54284848Y-66750753D01*
X54203038Y-66718362D01*
X53995040Y-66636009D01*
X53995030Y-66636005D01*
X53991371Y-66634557D01*
X53961949Y-66627002D01*
X53689479Y-66557044D01*
X53689469Y-66557042D01*
X53685644Y-66556060D01*
X53681720Y-66555564D01*
X53681708Y-66555562D01*
X53590845Y-66544084D01*
X53527086Y-66516790D01*
X53487430Y-66459892D01*
X53483891Y-66390627D01*
X53517540Y-66329985D01*
X59077259Y-60770265D01*
X59085533Y-60762736D01*
X59092018Y-60758622D01*
X59138676Y-60708934D01*
X59141368Y-60706156D01*
X59161134Y-60686392D01*
X59163601Y-60683210D01*
X59171310Y-60674183D01*
X59201586Y-60641943D01*
X59211345Y-60624189D01*
X59222199Y-60607665D01*
X59234613Y-60591663D01*
X59252167Y-60551097D01*
X59257392Y-60540430D01*
X59274875Y-60508630D01*
X59274874Y-60508630D01*
X59278695Y-60501682D01*
X59283732Y-60482064D01*
X59290138Y-60463352D01*
X59298181Y-60444767D01*
X59305099Y-60401078D01*
X59307503Y-60389478D01*
X59318500Y-60346652D01*
X59318500Y-60326391D01*
X59320051Y-60306680D01*
X59321979Y-60294506D01*
X59323219Y-60286679D01*
X59319058Y-60242667D01*
X59318500Y-60230811D01*
X59318500Y-33998768D01*
X59319027Y-33987584D01*
X59320702Y-33980092D01*
X59318561Y-33912001D01*
X59318500Y-33908044D01*
X59318500Y-33884109D01*
X59318500Y-33880144D01*
X59317995Y-33876152D01*
X59317062Y-33864310D01*
X59316052Y-33832173D01*
X59316679Y-33815070D01*
X59333504Y-33655000D01*
X59313542Y-33465072D01*
X59254527Y-33283444D01*
X59159040Y-33118056D01*
X59031253Y-32976134D01*
X59025911Y-32972253D01*
X59025908Y-32972250D01*
X58948057Y-32915688D01*
X58876752Y-32863882D01*
X58702288Y-32786206D01*
X58695835Y-32784834D01*
X58695831Y-32784833D01*
X58521943Y-32747872D01*
X58521940Y-32747871D01*
X58515487Y-32746500D01*
X58324513Y-32746500D01*
X58318060Y-32747871D01*
X58318056Y-32747872D01*
X58144168Y-32784833D01*
X58144161Y-32784835D01*
X58137712Y-32786206D01*
X58131682Y-32788890D01*
X58131681Y-32788891D01*
X57969278Y-32861197D01*
X57969275Y-32861198D01*
X57963248Y-32863882D01*
X57957907Y-32867762D01*
X57957906Y-32867763D01*
X57814091Y-32972250D01*
X57814083Y-32972256D01*
X57808747Y-32976134D01*
X57804332Y-32981037D01*
X57804329Y-32981040D01*
X57726547Y-33067427D01*
X57669750Y-33103610D01*
X57602429Y-33105373D01*
X57543816Y-33072211D01*
X43521606Y-19050000D01*
X58842341Y-19050000D01*
X58842820Y-19055475D01*
X58859556Y-19246772D01*
X58862937Y-19285408D01*
X58864360Y-19290721D01*
X58864361Y-19290723D01*
X58918119Y-19491355D01*
X58924097Y-19513663D01*
X59023965Y-19727829D01*
X59027117Y-19732330D01*
X59027119Y-19732334D01*
X59156345Y-19916889D01*
X59156349Y-19916893D01*
X59159505Y-19921401D01*
X59326599Y-20088495D01*
X59331107Y-20091651D01*
X59331110Y-20091654D01*
X59506388Y-20214384D01*
X59520171Y-20224035D01*
X59734337Y-20323903D01*
X59962592Y-20385063D01*
X60139034Y-20400500D01*
X60254226Y-20400500D01*
X60256966Y-20400500D01*
X60433408Y-20385063D01*
X60661663Y-20323903D01*
X60875829Y-20224035D01*
X61069401Y-20088495D01*
X61236495Y-19921401D01*
X61372035Y-19727830D01*
X61471903Y-19513663D01*
X61533063Y-19285408D01*
X61553659Y-19050000D01*
X61533063Y-18814592D01*
X61471903Y-18586337D01*
X61372035Y-18372171D01*
X61362493Y-18358543D01*
X61239654Y-18183110D01*
X61239651Y-18183107D01*
X61236495Y-18178599D01*
X61069401Y-18011505D01*
X61064893Y-18008349D01*
X61064889Y-18008345D01*
X60880334Y-17879119D01*
X60880330Y-17879117D01*
X60875829Y-17875965D01*
X60688544Y-17788632D01*
X60666645Y-17778420D01*
X60666643Y-17778419D01*
X60661663Y-17776097D01*
X60656355Y-17774674D01*
X60656353Y-17774674D01*
X60438723Y-17716361D01*
X60438721Y-17716360D01*
X60433408Y-17714937D01*
X60427932Y-17714457D01*
X60427927Y-17714457D01*
X60259689Y-17699738D01*
X60259683Y-17699737D01*
X60256966Y-17699500D01*
X60139034Y-17699500D01*
X60136317Y-17699737D01*
X60136310Y-17699738D01*
X59968072Y-17714457D01*
X59968065Y-17714458D01*
X59962592Y-17714937D01*
X59957280Y-17716360D01*
X59957276Y-17716361D01*
X59739646Y-17774674D01*
X59739641Y-17774675D01*
X59734337Y-17776097D01*
X59729360Y-17778417D01*
X59729354Y-17778420D01*
X59525152Y-17873642D01*
X59525149Y-17873643D01*
X59520171Y-17875965D01*
X59515674Y-17879113D01*
X59515665Y-17879119D01*
X59331110Y-18008345D01*
X59331100Y-18008353D01*
X59326599Y-18011505D01*
X59322709Y-18015394D01*
X59322703Y-18015400D01*
X59163402Y-18174701D01*
X59163396Y-18174707D01*
X59159505Y-18178599D01*
X59156348Y-18183107D01*
X59156346Y-18183110D01*
X59027121Y-18367661D01*
X59027119Y-18367665D01*
X59023965Y-18372170D01*
X59021641Y-18377152D01*
X59021639Y-18377157D01*
X58926420Y-18581354D01*
X58926417Y-18581360D01*
X58924097Y-18586337D01*
X58922675Y-18591641D01*
X58922674Y-18591646D01*
X58869304Y-18790830D01*
X58862937Y-18814592D01*
X58862458Y-18820065D01*
X58862457Y-18820072D01*
X58845324Y-19015906D01*
X58842341Y-19050000D01*
X43521606Y-19050000D01*
X40689201Y-16217595D01*
X40658463Y-16167436D01*
X40653847Y-16108789D01*
X40676360Y-16054439D01*
X40721093Y-16016233D01*
X40778296Y-16002500D01*
X60194707Y-16002500D01*
X60201300Y-16002672D01*
X60331416Y-16009492D01*
X60517006Y-16019914D01*
X60529604Y-16021262D01*
X60679982Y-16045079D01*
X60681078Y-16045259D01*
X60843579Y-16072870D01*
X60855050Y-16075375D01*
X61006041Y-16115833D01*
X61008031Y-16116387D01*
X61162440Y-16160871D01*
X61172698Y-16164310D01*
X61265865Y-16200074D01*
X61320043Y-16220871D01*
X61323105Y-16222093D01*
X61358870Y-16236907D01*
X61469894Y-16282894D01*
X61478853Y-16287025D01*
X61620259Y-16359076D01*
X61623983Y-16361052D01*
X61762273Y-16437483D01*
X61769938Y-16442081D01*
X61903440Y-16528778D01*
X61907708Y-16531677D01*
X62036219Y-16622860D01*
X62042560Y-16627669D01*
X62166450Y-16727993D01*
X62171097Y-16731947D01*
X62288460Y-16836829D01*
X62293595Y-16841685D01*
X62406313Y-16954403D01*
X62411169Y-16959538D01*
X62516051Y-17076901D01*
X62520011Y-17081556D01*
X62620322Y-17205430D01*
X62625143Y-17211786D01*
X62716321Y-17340290D01*
X62719233Y-17344578D01*
X62805914Y-17478056D01*
X62810519Y-17485731D01*
X62886934Y-17623993D01*
X62888922Y-17627739D01*
X62960973Y-17769145D01*
X62965116Y-17778131D01*
X63025905Y-17924893D01*
X63027127Y-17927955D01*
X63083684Y-18075290D01*
X63087128Y-18085563D01*
X63131571Y-18239824D01*
X63132203Y-18242095D01*
X63172619Y-18392932D01*
X63175132Y-18404437D01*
X63202715Y-18566778D01*
X63202944Y-18568173D01*
X63226733Y-18718371D01*
X63228086Y-18731017D01*
X63238509Y-18916624D01*
X63238534Y-18917094D01*
X63245327Y-19046699D01*
X63245500Y-19053294D01*
X63245500Y-75688705D01*
X63245327Y-75695300D01*
X63238534Y-75824905D01*
X63238509Y-75825375D01*
X63228086Y-76010981D01*
X63226733Y-76023627D01*
X63202944Y-76173825D01*
X63202715Y-76175220D01*
X63175132Y-76337561D01*
X63172619Y-76349066D01*
X63132203Y-76499903D01*
X63131571Y-76502174D01*
X63087128Y-76656435D01*
X63083684Y-76666708D01*
X63027127Y-76814043D01*
X63025905Y-76817105D01*
X62965116Y-76963867D01*
X62960973Y-76972853D01*
X62888922Y-77114259D01*
X62886934Y-77118005D01*
X62810519Y-77256267D01*
X62805914Y-77263942D01*
X62719233Y-77397420D01*
X62716321Y-77401708D01*
X62625143Y-77530212D01*
X62620302Y-77536595D01*
X62520020Y-77660432D01*
X62516051Y-77665097D01*
X62411169Y-77782460D01*
X62406313Y-77787595D01*
X62293595Y-77900313D01*
X62288460Y-77905169D01*
X62171097Y-78010051D01*
X62166432Y-78014020D01*
X62042595Y-78114302D01*
X62036212Y-78119143D01*
X61907708Y-78210321D01*
X61903420Y-78213233D01*
X61769942Y-78299914D01*
X61762267Y-78304519D01*
X61624005Y-78380934D01*
X61620259Y-78382922D01*
X61478853Y-78454973D01*
X61469867Y-78459116D01*
X61323105Y-78519905D01*
X61320043Y-78521127D01*
X61172708Y-78577684D01*
X61162435Y-78581128D01*
X61008174Y-78625571D01*
X61005903Y-78626203D01*
X60855066Y-78666619D01*
X60843561Y-78669132D01*
X60681220Y-78696715D01*
X60679825Y-78696944D01*
X60529627Y-78720733D01*
X60516980Y-78722086D01*
X60331485Y-78732502D01*
X60331017Y-78732527D01*
X60201301Y-78739327D01*
X60194705Y-78739500D01*
X15751294Y-78739500D01*
X15744700Y-78739327D01*
X15740226Y-78739092D01*
X15614981Y-78732527D01*
X15614513Y-78732502D01*
X15429018Y-78722086D01*
X15416371Y-78720733D01*
X15266173Y-78696944D01*
X15264778Y-78696715D01*
X15102437Y-78669132D01*
X15090932Y-78666619D01*
X14940095Y-78626203D01*
X14937824Y-78625571D01*
X14783563Y-78581128D01*
X14773290Y-78577684D01*
X14625955Y-78521127D01*
X14622893Y-78519905D01*
X14476131Y-78459116D01*
X14467145Y-78454973D01*
X14325739Y-78382922D01*
X14321993Y-78380934D01*
X14183731Y-78304519D01*
X14176056Y-78299914D01*
X14042578Y-78213233D01*
X14038290Y-78210321D01*
X13909786Y-78119143D01*
X13903430Y-78114322D01*
X13779556Y-78014011D01*
X13774901Y-78010051D01*
X13657538Y-77905169D01*
X13652403Y-77900313D01*
X13539685Y-77787595D01*
X13534829Y-77782460D01*
X13429947Y-77665097D01*
X13425993Y-77660450D01*
X13325669Y-77536560D01*
X13320855Y-77530212D01*
X13229677Y-77401708D01*
X13226778Y-77397440D01*
X13140081Y-77263938D01*
X13135479Y-77256267D01*
X13059064Y-77118005D01*
X13057076Y-77114259D01*
X12985025Y-76972853D01*
X12980894Y-76963894D01*
X12930488Y-76842202D01*
X12920093Y-76817105D01*
X12918871Y-76814043D01*
X12902146Y-76770472D01*
X12862310Y-76666698D01*
X12858870Y-76656435D01*
X12814387Y-76502031D01*
X12813833Y-76500041D01*
X12773375Y-76349050D01*
X12770870Y-76337579D01*
X12743259Y-76175078D01*
X12743079Y-76173982D01*
X12719262Y-76023604D01*
X12717914Y-76011006D01*
X12707489Y-75825358D01*
X12707465Y-75824904D01*
X12700673Y-75695301D01*
X12700586Y-75692000D01*
X14392341Y-75692000D01*
X14392820Y-75697475D01*
X14404008Y-75825358D01*
X14412937Y-75927408D01*
X14414360Y-75932721D01*
X14414361Y-75932723D01*
X14435214Y-76010550D01*
X14474097Y-76155663D01*
X14573965Y-76369829D01*
X14577117Y-76374330D01*
X14577119Y-76374334D01*
X14706345Y-76558889D01*
X14706349Y-76558893D01*
X14709505Y-76563401D01*
X14876599Y-76730495D01*
X14881107Y-76733651D01*
X14881110Y-76733654D01*
X15058353Y-76857760D01*
X15070171Y-76866035D01*
X15284337Y-76965903D01*
X15512592Y-77027063D01*
X15689034Y-77042500D01*
X15804226Y-77042500D01*
X15806966Y-77042500D01*
X15983408Y-77027063D01*
X16211663Y-76965903D01*
X16425829Y-76866035D01*
X16619401Y-76730495D01*
X16786495Y-76563401D01*
X16922035Y-76369830D01*
X17021903Y-76155663D01*
X17083063Y-75927408D01*
X17103659Y-75692000D01*
X17083063Y-75456592D01*
X17021903Y-75228337D01*
X16922035Y-75014171D01*
X16786495Y-74820599D01*
X16619401Y-74653505D01*
X16614893Y-74650349D01*
X16614889Y-74650345D01*
X16430334Y-74521119D01*
X16430330Y-74521117D01*
X16425829Y-74517965D01*
X16263429Y-74442236D01*
X16216645Y-74420420D01*
X16216643Y-74420419D01*
X16211663Y-74418097D01*
X16206355Y-74416674D01*
X16206353Y-74416674D01*
X15988723Y-74358361D01*
X15988721Y-74358360D01*
X15983408Y-74356937D01*
X15977932Y-74356457D01*
X15977927Y-74356457D01*
X15809689Y-74341738D01*
X15809683Y-74341737D01*
X15806966Y-74341500D01*
X15689034Y-74341500D01*
X15686317Y-74341737D01*
X15686310Y-74341738D01*
X15518072Y-74356457D01*
X15518065Y-74356458D01*
X15512592Y-74356937D01*
X15507280Y-74358360D01*
X15507276Y-74358361D01*
X15289646Y-74416674D01*
X15289641Y-74416675D01*
X15284337Y-74418097D01*
X15279360Y-74420417D01*
X15279354Y-74420420D01*
X15075152Y-74515642D01*
X15075149Y-74515643D01*
X15070171Y-74517965D01*
X15065674Y-74521113D01*
X15065665Y-74521119D01*
X14881110Y-74650345D01*
X14881100Y-74650353D01*
X14876599Y-74653505D01*
X14872709Y-74657394D01*
X14872703Y-74657400D01*
X14713402Y-74816701D01*
X14713396Y-74816707D01*
X14709505Y-74820599D01*
X14706348Y-74825107D01*
X14706346Y-74825110D01*
X14577121Y-75009661D01*
X14577119Y-75009665D01*
X14573965Y-75014170D01*
X14571641Y-75019152D01*
X14571639Y-75019157D01*
X14476420Y-75223354D01*
X14476417Y-75223360D01*
X14474097Y-75228337D01*
X14472675Y-75233641D01*
X14472674Y-75233646D01*
X14414361Y-75451276D01*
X14412937Y-75456592D01*
X14412458Y-75462065D01*
X14412457Y-75462072D01*
X14403434Y-75565211D01*
X14392341Y-75692000D01*
X12700586Y-75692000D01*
X12700500Y-75688707D01*
X12700500Y-19053293D01*
X12700586Y-19050000D01*
X14392341Y-19050000D01*
X14392820Y-19055475D01*
X14409556Y-19246772D01*
X14412937Y-19285408D01*
X14414360Y-19290721D01*
X14414361Y-19290723D01*
X14468119Y-19491355D01*
X14474097Y-19513663D01*
X14573965Y-19727829D01*
X14577117Y-19732330D01*
X14577119Y-19732334D01*
X14706345Y-19916889D01*
X14706349Y-19916893D01*
X14709505Y-19921401D01*
X14876599Y-20088495D01*
X14881107Y-20091651D01*
X14881110Y-20091654D01*
X15056388Y-20214384D01*
X15070171Y-20224035D01*
X15284337Y-20323903D01*
X15512592Y-20385063D01*
X15689034Y-20400500D01*
X15804226Y-20400500D01*
X15806966Y-20400500D01*
X15983408Y-20385063D01*
X16211663Y-20323903D01*
X16425829Y-20224035D01*
X16619401Y-20088495D01*
X16786495Y-19921401D01*
X16922035Y-19727830D01*
X17021903Y-19513663D01*
X17083063Y-19285408D01*
X17103659Y-19050000D01*
X17083063Y-18814592D01*
X17021903Y-18586337D01*
X16922035Y-18372171D01*
X16912493Y-18358543D01*
X16789654Y-18183110D01*
X16789651Y-18183107D01*
X16786495Y-18178599D01*
X16619401Y-18011505D01*
X16614893Y-18008349D01*
X16614889Y-18008345D01*
X16430334Y-17879119D01*
X16430330Y-17879117D01*
X16425829Y-17875965D01*
X16238544Y-17788632D01*
X16216645Y-17778420D01*
X16216643Y-17778419D01*
X16211663Y-17776097D01*
X16206355Y-17774674D01*
X16206353Y-17774674D01*
X15988723Y-17716361D01*
X15988721Y-17716360D01*
X15983408Y-17714937D01*
X15977932Y-17714457D01*
X15977927Y-17714457D01*
X15809689Y-17699738D01*
X15809683Y-17699737D01*
X15806966Y-17699500D01*
X15689034Y-17699500D01*
X15686317Y-17699737D01*
X15686310Y-17699738D01*
X15518072Y-17714457D01*
X15518065Y-17714458D01*
X15512592Y-17714937D01*
X15507280Y-17716360D01*
X15507276Y-17716361D01*
X15289646Y-17774674D01*
X15289641Y-17774675D01*
X15284337Y-17776097D01*
X15279360Y-17778417D01*
X15279354Y-17778420D01*
X15075152Y-17873642D01*
X15075149Y-17873643D01*
X15070171Y-17875965D01*
X15065674Y-17879113D01*
X15065665Y-17879119D01*
X14881110Y-18008345D01*
X14881100Y-18008353D01*
X14876599Y-18011505D01*
X14872709Y-18015394D01*
X14872703Y-18015400D01*
X14713402Y-18174701D01*
X14713396Y-18174707D01*
X14709505Y-18178599D01*
X14706348Y-18183107D01*
X14706346Y-18183110D01*
X14577121Y-18367661D01*
X14577119Y-18367665D01*
X14573965Y-18372170D01*
X14571641Y-18377152D01*
X14571639Y-18377157D01*
X14476420Y-18581354D01*
X14476417Y-18581360D01*
X14474097Y-18586337D01*
X14472675Y-18591641D01*
X14472674Y-18591646D01*
X14419304Y-18790830D01*
X14412937Y-18814592D01*
X14412458Y-18820065D01*
X14412457Y-18820072D01*
X14395324Y-19015906D01*
X14392341Y-19050000D01*
X12700586Y-19050000D01*
X12700673Y-19046699D01*
X12702338Y-19014927D01*
X12707491Y-18916598D01*
X12708639Y-18896161D01*
X12717915Y-18730989D01*
X12719261Y-18718399D01*
X12743087Y-18567970D01*
X12743250Y-18566978D01*
X12770871Y-18404411D01*
X12773373Y-18392958D01*
X12813850Y-18241896D01*
X12814370Y-18240025D01*
X12858875Y-18085545D01*
X12862305Y-18075314D01*
X12918891Y-17927904D01*
X12920093Y-17924893D01*
X12980902Y-17778086D01*
X12985013Y-17769170D01*
X13057089Y-17627713D01*
X13059026Y-17624064D01*
X13135497Y-17485700D01*
X13140066Y-17478085D01*
X13226808Y-17344513D01*
X13229648Y-17340332D01*
X13320882Y-17211749D01*
X13325645Y-17205469D01*
X13426027Y-17081507D01*
X13429914Y-17076939D01*
X13534863Y-16959501D01*
X13539650Y-16954439D01*
X13652439Y-16841650D01*
X13657501Y-16836863D01*
X13774939Y-16731914D01*
X13779507Y-16728027D01*
X13903469Y-16627645D01*
X13909749Y-16622882D01*
X14038332Y-16531648D01*
X14042513Y-16528808D01*
X14176085Y-16442066D01*
X14183700Y-16437497D01*
X14322064Y-16361026D01*
X14325713Y-16359089D01*
X14467170Y-16287013D01*
X14476086Y-16282902D01*
X14622920Y-16222082D01*
X14625904Y-16220891D01*
X14773314Y-16164305D01*
X14783545Y-16160875D01*
X14938025Y-16116370D01*
X14939896Y-16115850D01*
X15090958Y-16075373D01*
X15102411Y-16072871D01*
X15264978Y-16045250D01*
X15265970Y-16045087D01*
X15416399Y-16021261D01*
X15428989Y-16019915D01*
X15614574Y-16009492D01*
X15744699Y-16002672D01*
X15751293Y-16002500D01*
X21295704Y-16002500D01*
X21352907Y-16016233D01*
G37*
%TD.AperFunction*%
%TA.AperFunction,Conductor*%
G36*
X38506000Y-47778381D02*
G01*
X38552119Y-47824500D01*
X38569000Y-47887500D01*
X38569000Y-48222410D01*
X38572506Y-48235493D01*
X38585590Y-48239000D01*
X41268410Y-48239000D01*
X41281493Y-48235493D01*
X41285000Y-48222410D01*
X41285000Y-47887500D01*
X41301881Y-47824500D01*
X41348000Y-47778381D01*
X41411000Y-47761500D01*
X42558406Y-47761500D01*
X42606624Y-47771091D01*
X42647501Y-47798405D01*
X44064595Y-49215499D01*
X44091909Y-49256376D01*
X44101500Y-49304594D01*
X44101500Y-49594400D01*
X44101500Y-49594421D01*
X44101501Y-49597264D01*
X44101759Y-49600113D01*
X44101760Y-49600116D01*
X44107383Y-49662011D01*
X44107384Y-49662019D01*
X44107987Y-49668649D01*
X44109968Y-49675008D01*
X44109969Y-49675010D01*
X44134320Y-49753157D01*
X44159173Y-49832913D01*
X44163115Y-49839434D01*
X44163116Y-49839436D01*
X44166571Y-49845151D01*
X44248184Y-49980155D01*
X44253576Y-49985547D01*
X44343934Y-50075905D01*
X44376546Y-50132389D01*
X44376546Y-50197611D01*
X44343934Y-50254095D01*
X44253576Y-50344452D01*
X44253572Y-50344456D01*
X44248184Y-50349845D01*
X44244243Y-50356364D01*
X44244240Y-50356368D01*
X44163116Y-50490563D01*
X44163113Y-50490568D01*
X44159173Y-50497087D01*
X44156906Y-50504360D01*
X44156905Y-50504364D01*
X44124300Y-50609000D01*
X44107987Y-50661351D01*
X44107384Y-50667981D01*
X44107383Y-50667989D01*
X44101758Y-50729885D01*
X44101757Y-50729906D01*
X44101500Y-50732735D01*
X44101500Y-50735595D01*
X44101500Y-50735596D01*
X44101500Y-51244400D01*
X44101500Y-51244421D01*
X44101501Y-51247264D01*
X44101759Y-51250113D01*
X44101760Y-51250116D01*
X44107383Y-51312011D01*
X44107384Y-51312019D01*
X44107987Y-51318649D01*
X44109968Y-51325008D01*
X44109969Y-51325010D01*
X44121073Y-51360643D01*
X44159173Y-51482913D01*
X44163115Y-51489434D01*
X44163116Y-51489436D01*
X44224585Y-51591118D01*
X44248184Y-51630155D01*
X44369845Y-51751816D01*
X44376366Y-51755758D01*
X44390686Y-51764415D01*
X44435248Y-51810346D01*
X44451500Y-51872243D01*
X44451500Y-56406564D01*
X44450972Y-56417747D01*
X44449298Y-56425240D01*
X44449547Y-56433164D01*
X44449547Y-56433166D01*
X44451438Y-56493317D01*
X44451500Y-56497276D01*
X44451500Y-56525187D01*
X44451995Y-56529105D01*
X44451997Y-56529137D01*
X44452008Y-56529219D01*
X44452937Y-56541028D01*
X44454077Y-56577300D01*
X44454078Y-56577307D01*
X44454327Y-56585220D01*
X44456537Y-56592829D01*
X44456538Y-56592831D01*
X44459978Y-56604673D01*
X44463986Y-56624024D01*
X44466526Y-56644128D01*
X44469444Y-56651500D01*
X44469445Y-56651501D01*
X44482800Y-56685232D01*
X44486645Y-56696461D01*
X44496771Y-56731317D01*
X44496773Y-56731323D01*
X44498982Y-56738924D01*
X44503014Y-56745742D01*
X44503015Y-56745744D01*
X44509293Y-56756360D01*
X44517990Y-56774113D01*
X44525448Y-56792948D01*
X44530107Y-56799361D01*
X44530108Y-56799362D01*
X44551432Y-56828712D01*
X44557948Y-56838632D01*
X44576422Y-56869869D01*
X44580458Y-56876693D01*
X44586063Y-56882298D01*
X44594778Y-56891013D01*
X44607618Y-56906046D01*
X44619528Y-56922438D01*
X44625635Y-56927490D01*
X44625636Y-56927491D01*
X44653598Y-56950623D01*
X44662378Y-56958613D01*
X51596016Y-63892252D01*
X51603555Y-63900535D01*
X51607669Y-63907018D01*
X51613451Y-63912447D01*
X51613453Y-63912450D01*
X51657318Y-63953642D01*
X51660161Y-63956397D01*
X51679899Y-63976135D01*
X51683029Y-63978563D01*
X51683101Y-63978619D01*
X51692109Y-63986313D01*
X51724348Y-64016586D01*
X51731296Y-64020405D01*
X51731298Y-64020407D01*
X51742095Y-64026343D01*
X51758619Y-64037197D01*
X51768363Y-64044755D01*
X51768366Y-64044757D01*
X51774628Y-64049614D01*
X51781901Y-64052761D01*
X51815204Y-64067172D01*
X51825869Y-64072397D01*
X51864609Y-64093695D01*
X51884229Y-64098732D01*
X51902921Y-64105130D01*
X51921524Y-64113181D01*
X51965194Y-64120097D01*
X51976794Y-64122498D01*
X52019639Y-64133500D01*
X52039893Y-64133500D01*
X52059603Y-64135050D01*
X52079612Y-64138220D01*
X52123630Y-64134058D01*
X52135488Y-64133500D01*
X53618026Y-64133500D01*
X53675229Y-64147233D01*
X53719962Y-64185439D01*
X53742475Y-64239789D01*
X53737859Y-64298436D01*
X53707121Y-64348595D01*
X49080742Y-68974973D01*
X49072459Y-68982510D01*
X49065982Y-68986622D01*
X49060563Y-68992391D01*
X49060555Y-68992399D01*
X49019370Y-69036257D01*
X49016621Y-69039094D01*
X48999667Y-69056049D01*
X48999660Y-69056056D01*
X48996865Y-69058852D01*
X48994442Y-69061974D01*
X48994426Y-69061993D01*
X48994365Y-69062073D01*
X48986690Y-69071057D01*
X48961838Y-69097524D01*
X48961835Y-69097526D01*
X48956414Y-69103301D01*
X48952600Y-69110236D01*
X48952592Y-69110249D01*
X48946650Y-69121058D01*
X48935803Y-69137571D01*
X48928243Y-69147317D01*
X48928237Y-69147326D01*
X48923386Y-69153581D01*
X48920242Y-69160845D01*
X48920238Y-69160853D01*
X48905824Y-69194162D01*
X48900604Y-69204817D01*
X48883125Y-69236611D01*
X48883121Y-69236619D01*
X48879305Y-69243562D01*
X48877333Y-69251238D01*
X48877331Y-69251246D01*
X48874266Y-69263184D01*
X48867865Y-69281881D01*
X48862968Y-69293198D01*
X48862966Y-69293203D01*
X48859819Y-69300477D01*
X48858579Y-69308302D01*
X48858577Y-69308311D01*
X48852901Y-69344146D01*
X48850495Y-69355766D01*
X48841471Y-69390911D01*
X48841469Y-69390919D01*
X48839500Y-69398592D01*
X48839500Y-69406521D01*
X48839500Y-69418846D01*
X48837949Y-69438557D01*
X48836019Y-69450736D01*
X48836018Y-69450743D01*
X48834780Y-69458565D01*
X48835525Y-69466448D01*
X48835525Y-69466456D01*
X48838941Y-69502583D01*
X48839500Y-69514441D01*
X48839500Y-71496000D01*
X48822619Y-71559000D01*
X48776500Y-71605119D01*
X48713500Y-71622000D01*
X48689590Y-71622000D01*
X48676506Y-71625506D01*
X48673000Y-71638590D01*
X48673000Y-73621410D01*
X48676506Y-73634493D01*
X48689590Y-73638000D01*
X48718223Y-73638000D01*
X48724938Y-73637640D01*
X48774257Y-73632337D01*
X48789478Y-73628740D01*
X48910512Y-73583597D01*
X48912081Y-73582741D01*
X48914387Y-73582152D01*
X48918962Y-73580446D01*
X48919145Y-73580937D01*
X48972467Y-73567326D01*
X49026693Y-73581164D01*
X49026796Y-73580889D01*
X49061956Y-73594003D01*
X49077195Y-73599687D01*
X49128387Y-73635231D01*
X49156283Y-73690960D01*
X49154058Y-73753241D01*
X49122257Y-73806838D01*
X47294500Y-75634595D01*
X47253623Y-75661909D01*
X47205405Y-75671500D01*
X37931594Y-75671500D01*
X37874391Y-75657767D01*
X37829658Y-75619561D01*
X37807145Y-75565211D01*
X37811761Y-75506564D01*
X37842499Y-75456405D01*
X39623499Y-73675405D01*
X39664376Y-73648091D01*
X39712594Y-73638500D01*
X39718269Y-73638500D01*
X39721638Y-73638500D01*
X39782201Y-73631989D01*
X39919204Y-73580889D01*
X39919359Y-73581306D01*
X39973000Y-73567613D01*
X40026640Y-73581306D01*
X40026796Y-73580889D01*
X40030675Y-73582336D01*
X40030676Y-73582336D01*
X40163799Y-73631989D01*
X40224362Y-73638500D01*
X40718269Y-73638500D01*
X40721638Y-73638500D01*
X40782201Y-73631989D01*
X40919204Y-73580889D01*
X40919359Y-73581306D01*
X40973000Y-73567613D01*
X41026640Y-73581306D01*
X41026796Y-73580889D01*
X41030675Y-73582336D01*
X41030676Y-73582336D01*
X41163799Y-73631989D01*
X41224362Y-73638500D01*
X41718269Y-73638500D01*
X41721638Y-73638500D01*
X41782201Y-73631989D01*
X41919204Y-73580889D01*
X41919359Y-73581306D01*
X41973000Y-73567613D01*
X42026640Y-73581306D01*
X42026796Y-73580889D01*
X42030675Y-73582336D01*
X42030676Y-73582336D01*
X42163799Y-73631989D01*
X42224362Y-73638500D01*
X42718269Y-73638500D01*
X42721638Y-73638500D01*
X42782201Y-73631989D01*
X42919204Y-73580889D01*
X42919359Y-73581306D01*
X42973000Y-73567613D01*
X43026640Y-73581306D01*
X43026796Y-73580889D01*
X43030675Y-73582336D01*
X43030676Y-73582336D01*
X43163799Y-73631989D01*
X43224362Y-73638500D01*
X43718269Y-73638500D01*
X43721638Y-73638500D01*
X43782201Y-73631989D01*
X43919204Y-73580889D01*
X43919359Y-73581306D01*
X43973000Y-73567613D01*
X44026640Y-73581306D01*
X44026796Y-73580889D01*
X44030675Y-73582336D01*
X44030676Y-73582336D01*
X44163799Y-73631989D01*
X44224362Y-73638500D01*
X44718269Y-73638500D01*
X44721638Y-73638500D01*
X44782201Y-73631989D01*
X44919204Y-73580889D01*
X44919359Y-73581306D01*
X44973000Y-73567613D01*
X45026640Y-73581306D01*
X45026796Y-73580889D01*
X45030675Y-73582336D01*
X45030676Y-73582336D01*
X45163799Y-73631989D01*
X45224362Y-73638500D01*
X45457515Y-73638500D01*
X45524285Y-73657646D01*
X45570763Y-73709265D01*
X45582824Y-73777669D01*
X45568496Y-73914000D01*
X45588458Y-74103928D01*
X45590495Y-74110200D01*
X45590497Y-74110205D01*
X45645430Y-74279271D01*
X45645433Y-74279278D01*
X45647473Y-74285556D01*
X45679910Y-74341738D01*
X45733059Y-74433796D01*
X45742960Y-74450944D01*
X45870747Y-74592866D01*
X46025248Y-74705118D01*
X46199712Y-74782794D01*
X46386513Y-74822500D01*
X46570884Y-74822500D01*
X46577487Y-74822500D01*
X46764288Y-74782794D01*
X46938752Y-74705118D01*
X47093253Y-74592866D01*
X47221040Y-74450944D01*
X47316527Y-74285556D01*
X47375542Y-74103928D01*
X47395504Y-73914000D01*
X47381175Y-73777669D01*
X47393237Y-73709265D01*
X47439715Y-73657646D01*
X47506485Y-73638500D01*
X47718269Y-73638500D01*
X47721638Y-73638500D01*
X47782201Y-73631989D01*
X47919204Y-73580889D01*
X47919307Y-73581166D01*
X47973527Y-73567325D01*
X48026854Y-73580938D01*
X48027038Y-73580446D01*
X48031622Y-73582156D01*
X48033922Y-73582743D01*
X48035484Y-73583596D01*
X48156521Y-73628740D01*
X48171742Y-73632337D01*
X48221061Y-73637640D01*
X48227777Y-73638000D01*
X48256410Y-73638000D01*
X48269493Y-73634493D01*
X48273000Y-73621410D01*
X48273000Y-71638590D01*
X48269493Y-71625506D01*
X48240388Y-71617707D01*
X48240461Y-71617434D01*
X48194500Y-71605119D01*
X48148381Y-71559000D01*
X48131500Y-71496000D01*
X48131500Y-71060524D01*
X48139869Y-71015370D01*
X48163861Y-70976216D01*
X48237040Y-70894944D01*
X48332527Y-70729556D01*
X48391542Y-70547928D01*
X48411504Y-70358000D01*
X48391542Y-70168072D01*
X48332527Y-69986444D01*
X48237040Y-69821056D01*
X48109253Y-69679134D01*
X48103911Y-69675253D01*
X48103908Y-69675250D01*
X48026057Y-69618688D01*
X47954752Y-69566882D01*
X47780288Y-69489206D01*
X47773835Y-69487834D01*
X47773831Y-69487833D01*
X47599943Y-69450872D01*
X47599940Y-69450871D01*
X47593487Y-69449500D01*
X47402513Y-69449500D01*
X47396060Y-69450871D01*
X47396056Y-69450872D01*
X47222168Y-69487833D01*
X47222161Y-69487835D01*
X47215712Y-69489206D01*
X47209682Y-69491890D01*
X47209681Y-69491891D01*
X47047278Y-69564197D01*
X47047275Y-69564198D01*
X47041248Y-69566882D01*
X47035907Y-69570762D01*
X47035906Y-69570763D01*
X46892091Y-69675250D01*
X46892083Y-69675256D01*
X46886747Y-69679134D01*
X46882330Y-69684039D01*
X46882325Y-69684044D01*
X46784026Y-69793217D01*
X46758960Y-69821056D01*
X46755661Y-69826769D01*
X46755658Y-69826774D01*
X46666777Y-69980721D01*
X46663473Y-69986444D01*
X46661434Y-69992718D01*
X46661430Y-69992728D01*
X46606497Y-70161794D01*
X46606495Y-70161801D01*
X46604458Y-70168072D01*
X46603768Y-70174633D01*
X46603768Y-70174635D01*
X46585587Y-70347623D01*
X46584496Y-70358000D01*
X46585186Y-70364565D01*
X46601988Y-70524432D01*
X46604458Y-70547928D01*
X46606495Y-70554200D01*
X46606497Y-70554205D01*
X46661430Y-70723271D01*
X46661433Y-70723278D01*
X46663473Y-70729556D01*
X46692695Y-70780170D01*
X46753235Y-70885029D01*
X46758960Y-70894944D01*
X46832138Y-70976216D01*
X46856131Y-71015370D01*
X46864500Y-71060524D01*
X46864500Y-71496587D01*
X46845300Y-71563443D01*
X46793553Y-71609924D01*
X46728401Y-71621276D01*
X46728361Y-71622041D01*
X46725038Y-71621862D01*
X46725028Y-71621864D01*
X46721638Y-71621500D01*
X46718269Y-71621500D01*
X46493428Y-71621500D01*
X46426658Y-71602354D01*
X46380180Y-71550735D01*
X46368118Y-71482329D01*
X46370704Y-71457731D01*
X46379504Y-71374000D01*
X46359542Y-71184072D01*
X46325497Y-71079292D01*
X46302569Y-71008728D01*
X46302568Y-71008726D01*
X46300527Y-71002444D01*
X46205040Y-70837056D01*
X46077253Y-70695134D01*
X46071911Y-70691253D01*
X46071908Y-70691250D01*
X45932210Y-70589754D01*
X45922752Y-70582882D01*
X45748288Y-70505206D01*
X45741835Y-70503834D01*
X45741831Y-70503833D01*
X45567943Y-70466872D01*
X45567940Y-70466871D01*
X45561487Y-70465500D01*
X45370513Y-70465500D01*
X45364060Y-70466871D01*
X45364056Y-70466872D01*
X45190168Y-70503833D01*
X45190161Y-70503835D01*
X45183712Y-70505206D01*
X45177682Y-70507890D01*
X45177681Y-70507891D01*
X45015278Y-70580197D01*
X45015275Y-70580198D01*
X45009248Y-70582882D01*
X45003907Y-70586762D01*
X45003906Y-70586763D01*
X44860091Y-70691250D01*
X44860083Y-70691256D01*
X44854747Y-70695134D01*
X44850330Y-70700039D01*
X44850325Y-70700044D01*
X44737698Y-70825130D01*
X44726960Y-70837056D01*
X44723661Y-70842769D01*
X44723658Y-70842774D01*
X44634777Y-70996721D01*
X44631473Y-71002444D01*
X44629432Y-71008724D01*
X44629429Y-71008732D01*
X44620672Y-71035683D01*
X44586368Y-71089271D01*
X44530253Y-71119264D01*
X44466638Y-71118014D01*
X44411745Y-71085840D01*
X40811433Y-67485528D01*
X40777578Y-67423987D01*
X40781930Y-67353883D01*
X40823137Y-67297001D01*
X40824703Y-67295782D01*
X40850240Y-67275906D01*
X41002722Y-67110268D01*
X41125860Y-66921791D01*
X41216296Y-66715616D01*
X41271564Y-66497368D01*
X41290156Y-66273000D01*
X41271564Y-66048632D01*
X41243816Y-65939062D01*
X41244482Y-65874682D01*
X41276864Y-65819038D01*
X42048259Y-65047643D01*
X42056533Y-65040114D01*
X42063018Y-65036000D01*
X42109676Y-64986312D01*
X42112368Y-64983534D01*
X42132134Y-64963770D01*
X42134601Y-64960588D01*
X42142310Y-64951561D01*
X42172586Y-64919321D01*
X42182345Y-64901567D01*
X42193199Y-64885043D01*
X42205613Y-64869041D01*
X42214621Y-64848224D01*
X42223167Y-64828475D01*
X42228392Y-64817808D01*
X42239756Y-64797139D01*
X42249695Y-64779060D01*
X42254732Y-64759442D01*
X42261138Y-64740730D01*
X42266032Y-64729421D01*
X42269181Y-64722145D01*
X42276096Y-64678477D01*
X42278504Y-64666853D01*
X42287529Y-64631705D01*
X42289500Y-64624030D01*
X42289500Y-64603776D01*
X42291051Y-64584065D01*
X42292980Y-64571885D01*
X42294220Y-64564057D01*
X42290058Y-64520038D01*
X42289500Y-64508181D01*
X42289500Y-58799067D01*
X42290027Y-58787883D01*
X42291702Y-58780391D01*
X42289561Y-58712300D01*
X42289500Y-58708343D01*
X42289500Y-58684408D01*
X42289500Y-58680443D01*
X42288995Y-58676451D01*
X42288062Y-58664604D01*
X42286674Y-58620410D01*
X42281017Y-58600941D01*
X42277013Y-58581601D01*
X42274474Y-58561502D01*
X42258200Y-58520398D01*
X42254356Y-58509171D01*
X42244230Y-58474316D01*
X42244229Y-58474315D01*
X42242019Y-58466706D01*
X42231703Y-58449263D01*
X42223005Y-58431508D01*
X42215552Y-58412682D01*
X42189561Y-58376908D01*
X42183055Y-58367004D01*
X42160542Y-58328937D01*
X42146218Y-58314613D01*
X42133382Y-58299585D01*
X42121472Y-58283192D01*
X42115367Y-58278141D01*
X42115360Y-58278134D01*
X42087394Y-58254999D01*
X42078615Y-58247010D01*
X40982351Y-57150745D01*
X40950200Y-57095934D01*
X40948887Y-57032403D01*
X40978744Y-56976314D01*
X41002722Y-56950268D01*
X41125860Y-56761791D01*
X41216296Y-56555616D01*
X41271564Y-56337368D01*
X41290156Y-56113000D01*
X41271564Y-55888632D01*
X41216296Y-55670384D01*
X41125860Y-55464209D01*
X41002722Y-55275732D01*
X40938755Y-55206246D01*
X40853772Y-55113930D01*
X40853767Y-55113925D01*
X40850240Y-55110094D01*
X40672576Y-54971811D01*
X40668002Y-54969336D01*
X40667995Y-54969331D01*
X40639320Y-54953814D01*
X40591048Y-54907498D01*
X40573289Y-54843000D01*
X40591048Y-54778502D01*
X40639320Y-54732186D01*
X40667990Y-54716671D01*
X40672576Y-54714189D01*
X40850240Y-54575906D01*
X41002722Y-54410268D01*
X41125860Y-54221791D01*
X41216296Y-54015616D01*
X41271564Y-53797368D01*
X41290156Y-53573000D01*
X41271564Y-53348632D01*
X41243817Y-53239063D01*
X41244482Y-53174683D01*
X41276864Y-53119039D01*
X41667264Y-52728639D01*
X41675535Y-52721113D01*
X41682018Y-52717000D01*
X41728661Y-52667328D01*
X41731353Y-52664550D01*
X41751135Y-52644770D01*
X41753613Y-52641574D01*
X41761308Y-52632563D01*
X41791586Y-52600321D01*
X41801348Y-52582562D01*
X41812195Y-52566050D01*
X41824614Y-52550041D01*
X41842179Y-52509446D01*
X41847388Y-52498814D01*
X41868695Y-52460060D01*
X41873733Y-52440434D01*
X41880134Y-52421737D01*
X41888181Y-52403145D01*
X41895096Y-52359477D01*
X41897504Y-52347853D01*
X41902042Y-52330179D01*
X41908500Y-52305030D01*
X41908500Y-52284776D01*
X41910051Y-52265065D01*
X41911980Y-52252885D01*
X41913220Y-52245057D01*
X41909058Y-52201038D01*
X41908500Y-52189181D01*
X41908500Y-50798066D01*
X41909027Y-50786882D01*
X41910702Y-50779390D01*
X41908562Y-50711313D01*
X41908500Y-50707354D01*
X41908500Y-50683407D01*
X41908500Y-50679443D01*
X41907994Y-50675446D01*
X41907061Y-50663596D01*
X41905673Y-50619409D01*
X41900020Y-50599955D01*
X41896012Y-50580596D01*
X41893474Y-50560502D01*
X41877197Y-50519392D01*
X41873351Y-50508159D01*
X41861018Y-50465706D01*
X41850707Y-50448272D01*
X41842008Y-50430514D01*
X41837469Y-50419050D01*
X41834552Y-50411682D01*
X41808561Y-50375909D01*
X41802050Y-50365997D01*
X41797666Y-50358584D01*
X41779542Y-50327936D01*
X41765217Y-50313611D01*
X41752376Y-50298576D01*
X41745134Y-50288608D01*
X41745131Y-50288605D01*
X41740472Y-50282192D01*
X41706405Y-50254009D01*
X41697626Y-50246020D01*
X41224643Y-49773037D01*
X41193721Y-49722306D01*
X41189483Y-49663045D01*
X41212872Y-49608430D01*
X41222045Y-49596176D01*
X41230595Y-49580517D01*
X41275740Y-49459478D01*
X41279337Y-49444257D01*
X41284640Y-49394938D01*
X41285000Y-49388223D01*
X41285000Y-48763590D01*
X41281493Y-48750506D01*
X41268410Y-48747000D01*
X38585590Y-48747000D01*
X38572506Y-48750506D01*
X38569000Y-48763590D01*
X38569000Y-48908500D01*
X38552119Y-48971500D01*
X38506000Y-49017619D01*
X38443000Y-49034500D01*
X37272476Y-49034500D01*
X37217042Y-49021651D01*
X37172915Y-48985724D01*
X37168489Y-48980018D01*
X37164453Y-48973193D01*
X37161518Y-48970258D01*
X37139038Y-48922481D01*
X37139040Y-48867507D01*
X37161520Y-48819739D01*
X37164453Y-48816807D01*
X37249145Y-48673601D01*
X37295562Y-48513831D01*
X37298500Y-48476502D01*
X37298500Y-48043498D01*
X37295562Y-48006169D01*
X37283617Y-47965056D01*
X37271299Y-47922652D01*
X37268346Y-47864862D01*
X37291536Y-47811847D01*
X37335977Y-47774787D01*
X37392296Y-47761500D01*
X38443000Y-47761500D01*
X38506000Y-47778381D01*
G37*
%TD.AperFunction*%
%TA.AperFunction,Conductor*%
G36*
X16292436Y-67623949D02*
G01*
X16342595Y-67654687D01*
X22644312Y-73956405D01*
X22675050Y-74006564D01*
X22679666Y-74065211D01*
X22657153Y-74119561D01*
X22612420Y-74157767D01*
X22555217Y-74171500D01*
X21624362Y-74171500D01*
X21621015Y-74171859D01*
X21621011Y-74171860D01*
X21571632Y-74177168D01*
X21571625Y-74177169D01*
X21563799Y-74178011D01*
X21556423Y-74180761D01*
X21556419Y-74180763D01*
X21435236Y-74225962D01*
X21435230Y-74225965D01*
X21426796Y-74229111D01*
X21419588Y-74234506D01*
X21419582Y-74234510D01*
X21316950Y-74311340D01*
X21316946Y-74311343D01*
X21309739Y-74316739D01*
X21304343Y-74323946D01*
X21304340Y-74323950D01*
X21227510Y-74426582D01*
X21227506Y-74426588D01*
X21222111Y-74433796D01*
X21218965Y-74442230D01*
X21218962Y-74442236D01*
X21173763Y-74563419D01*
X21173761Y-74563423D01*
X21171011Y-74570799D01*
X21170169Y-74578625D01*
X21170168Y-74578632D01*
X21168221Y-74596749D01*
X21164500Y-74631362D01*
X21164500Y-74634731D01*
X21164500Y-75084405D01*
X21150767Y-75141608D01*
X21112561Y-75186341D01*
X21058211Y-75208854D01*
X20999564Y-75204238D01*
X20949405Y-75173500D01*
X16164405Y-70388500D01*
X16137091Y-70347623D01*
X16127500Y-70299405D01*
X16127500Y-67743782D01*
X16141233Y-67686579D01*
X16179439Y-67641846D01*
X16233789Y-67619333D01*
X16292436Y-67623949D01*
G37*
%TD.AperFunction*%
%TA.AperFunction,Conductor*%
G36*
X31572561Y-48975658D02*
G01*
X31610767Y-49020391D01*
X31624500Y-49077594D01*
X31624500Y-64558500D01*
X31607619Y-64621500D01*
X31561500Y-64667619D01*
X31498500Y-64684500D01*
X30138362Y-64684500D01*
X30135015Y-64684859D01*
X30135011Y-64684860D01*
X30085632Y-64690168D01*
X30085625Y-64690169D01*
X30077799Y-64691011D01*
X30070423Y-64693761D01*
X30070419Y-64693763D01*
X29949236Y-64738962D01*
X29949230Y-64738965D01*
X29940796Y-64742111D01*
X29933588Y-64747506D01*
X29933582Y-64747510D01*
X29830950Y-64824340D01*
X29830946Y-64824343D01*
X29823739Y-64829739D01*
X29818343Y-64836946D01*
X29818340Y-64836950D01*
X29741510Y-64939582D01*
X29741506Y-64939588D01*
X29736111Y-64946796D01*
X29732964Y-64955231D01*
X29732960Y-64955240D01*
X29692000Y-65065057D01*
X29655468Y-65117095D01*
X29598178Y-65144671D01*
X29534717Y-65140761D01*
X29481244Y-65106361D01*
X29443220Y-65065057D01*
X29420240Y-65040094D01*
X29242576Y-64901811D01*
X29237997Y-64899333D01*
X29237994Y-64899331D01*
X29049159Y-64797139D01*
X29049156Y-64797137D01*
X29044574Y-64794658D01*
X29039650Y-64792967D01*
X29039642Y-64792964D01*
X28836565Y-64723248D01*
X28836559Y-64723246D01*
X28831635Y-64721556D01*
X28826498Y-64720698D01*
X28826495Y-64720698D01*
X28614706Y-64685357D01*
X28614703Y-64685356D01*
X28609569Y-64684500D01*
X28384431Y-64684500D01*
X28379297Y-64685356D01*
X28379293Y-64685357D01*
X28167504Y-64720698D01*
X28167498Y-64720699D01*
X28162365Y-64721556D01*
X28157443Y-64723245D01*
X28157434Y-64723248D01*
X27954357Y-64792964D01*
X27954344Y-64792969D01*
X27949426Y-64794658D01*
X27944847Y-64797135D01*
X27944840Y-64797139D01*
X27756005Y-64899331D01*
X27755997Y-64899336D01*
X27751424Y-64901811D01*
X27747313Y-64905010D01*
X27747311Y-64905012D01*
X27577878Y-65036888D01*
X27577872Y-65036893D01*
X27573760Y-65040094D01*
X27570237Y-65043919D01*
X27570227Y-65043930D01*
X27424806Y-65201899D01*
X27424802Y-65201902D01*
X27421278Y-65205732D01*
X27418430Y-65210090D01*
X27418427Y-65210095D01*
X27300992Y-65389843D01*
X27298140Y-65394209D01*
X27296048Y-65398978D01*
X27296046Y-65398982D01*
X27209799Y-65595606D01*
X27209796Y-65595614D01*
X27207704Y-65600384D01*
X27206423Y-65605440D01*
X27206422Y-65605445D01*
X27153717Y-65813573D01*
X27152436Y-65818632D01*
X27152006Y-65823820D01*
X27152005Y-65823827D01*
X27141692Y-65948292D01*
X27133844Y-66043000D01*
X27134274Y-66048189D01*
X27151808Y-66259799D01*
X27152436Y-66267368D01*
X27207704Y-66485616D01*
X27209797Y-66490389D01*
X27209799Y-66490393D01*
X27212859Y-66497368D01*
X27298140Y-66691791D01*
X27421278Y-66880268D01*
X27455108Y-66917017D01*
X27570227Y-67042069D01*
X27570231Y-67042073D01*
X27573760Y-67045906D01*
X27751424Y-67184189D01*
X27949426Y-67291342D01*
X27954355Y-67293034D01*
X27954357Y-67293035D01*
X27987515Y-67304418D01*
X28162365Y-67364444D01*
X28384431Y-67401500D01*
X28604358Y-67401500D01*
X28609569Y-67401500D01*
X28831635Y-67364444D01*
X29044574Y-67291342D01*
X29242576Y-67184189D01*
X29420240Y-67045906D01*
X29481243Y-66979639D01*
X29534716Y-66945238D01*
X29598178Y-66941328D01*
X29655469Y-66968904D01*
X29692000Y-67020943D01*
X29732959Y-67130757D01*
X29732963Y-67130765D01*
X29736111Y-67139204D01*
X29741508Y-67146414D01*
X29741510Y-67146417D01*
X29767389Y-67180987D01*
X29823739Y-67256261D01*
X29830950Y-67261659D01*
X29883894Y-67301293D01*
X29940796Y-67343889D01*
X30077799Y-67394989D01*
X30138362Y-67401500D01*
X31498500Y-67401500D01*
X31561500Y-67418381D01*
X31607619Y-67464500D01*
X31624500Y-67527500D01*
X31624500Y-71230405D01*
X31614909Y-71278623D01*
X31587595Y-71319501D01*
X31322499Y-71584596D01*
X31281622Y-71611909D01*
X31233404Y-71621500D01*
X31224362Y-71621500D01*
X31221023Y-71621858D01*
X31221022Y-71621859D01*
X31217485Y-71622239D01*
X31208550Y-71623199D01*
X31154669Y-71617263D01*
X31108268Y-71589237D01*
X31077936Y-71544309D01*
X31075203Y-71537407D01*
X31071356Y-71526171D01*
X31061230Y-71491316D01*
X31061229Y-71491315D01*
X31059019Y-71483706D01*
X31048703Y-71466263D01*
X31040005Y-71448508D01*
X31032552Y-71429682D01*
X31006561Y-71393908D01*
X31000055Y-71384004D01*
X30977542Y-71345937D01*
X30963217Y-71331612D01*
X30950382Y-71316585D01*
X30938472Y-71300192D01*
X30932367Y-71295141D01*
X30932360Y-71295134D01*
X30904394Y-71271999D01*
X30895615Y-71264010D01*
X25891405Y-66259799D01*
X25864091Y-66218922D01*
X25854500Y-66170704D01*
X25854500Y-55531492D01*
X25862869Y-55486338D01*
X25886861Y-55447184D01*
X25960040Y-55365912D01*
X26055527Y-55200524D01*
X26114542Y-55018896D01*
X26134504Y-54828968D01*
X26114542Y-54639040D01*
X26055527Y-54457412D01*
X25960040Y-54292024D01*
X25832253Y-54150102D01*
X25826911Y-54146221D01*
X25826908Y-54146218D01*
X25726915Y-54073569D01*
X25677752Y-54037850D01*
X25598303Y-54002477D01*
X25509322Y-53962860D01*
X25509317Y-53962858D01*
X25503288Y-53960174D01*
X25496821Y-53958799D01*
X25496383Y-53958657D01*
X25451006Y-53932461D01*
X25420208Y-53890072D01*
X25411237Y-53847870D01*
X25410004Y-53848000D01*
X25390042Y-53658072D01*
X25340557Y-53505774D01*
X25333069Y-53482728D01*
X25333068Y-53482726D01*
X25331027Y-53476444D01*
X25235540Y-53311056D01*
X25107753Y-53169134D01*
X25102411Y-53165253D01*
X25102408Y-53165250D01*
X24989997Y-53083579D01*
X24953252Y-53056882D01*
X24778788Y-52979206D01*
X24772335Y-52977834D01*
X24772331Y-52977833D01*
X24598443Y-52940872D01*
X24598440Y-52940871D01*
X24591987Y-52939500D01*
X24585384Y-52939500D01*
X24531500Y-52939500D01*
X24468500Y-52922619D01*
X24422381Y-52876500D01*
X24405500Y-52813500D01*
X24405500Y-51834500D01*
X24422381Y-51771500D01*
X24468500Y-51725381D01*
X24531500Y-51708500D01*
X24585384Y-51708500D01*
X24591987Y-51708500D01*
X24778788Y-51668794D01*
X24778968Y-51669645D01*
X24837129Y-51666380D01*
X24894779Y-51694968D01*
X24930795Y-51748293D01*
X24935728Y-51811728D01*
X24934438Y-51816169D01*
X24933933Y-51822583D01*
X24933933Y-51822584D01*
X24933405Y-51829300D01*
X24931500Y-51853498D01*
X24931500Y-52286502D01*
X24931692Y-52288950D01*
X24931693Y-52288958D01*
X24932334Y-52297105D01*
X24934438Y-52323831D01*
X24936231Y-52330004D01*
X24936232Y-52330007D01*
X24976034Y-52467006D01*
X24980855Y-52483601D01*
X24984890Y-52490424D01*
X24984891Y-52490426D01*
X25039390Y-52582578D01*
X25065547Y-52626807D01*
X25183193Y-52744453D01*
X25326399Y-52829145D01*
X25486169Y-52875562D01*
X25523498Y-52878500D01*
X27404033Y-52878500D01*
X27406502Y-52878500D01*
X27443831Y-52875562D01*
X27603601Y-52829145D01*
X27746807Y-52744453D01*
X27864453Y-52626807D01*
X27949145Y-52483601D01*
X27954385Y-52465562D01*
X27986287Y-52411615D01*
X31409404Y-48988499D01*
X31459564Y-48957761D01*
X31518211Y-48953145D01*
X31572561Y-48975658D01*
G37*
%TD.AperFunction*%
%TA.AperFunction,Conductor*%
G36*
X20929931Y-59301686D02*
G01*
X20975444Y-59343583D01*
X21071278Y-59490268D01*
X21074806Y-59494100D01*
X21214840Y-59646217D01*
X21244077Y-59699821D01*
X21244680Y-59760877D01*
X21216506Y-59815047D01*
X21166172Y-59849610D01*
X21059484Y-59889403D01*
X21043824Y-59897954D01*
X20941307Y-59974697D01*
X20928697Y-59987307D01*
X20851954Y-60089824D01*
X20843405Y-60105480D01*
X20798259Y-60226521D01*
X20794662Y-60241742D01*
X20789359Y-60291061D01*
X20789000Y-60297777D01*
X20789000Y-60922410D01*
X20792506Y-60935493D01*
X20805590Y-60939000D01*
X22275000Y-60939000D01*
X22338000Y-60955881D01*
X22384119Y-61002000D01*
X22401000Y-61065000D01*
X22401000Y-61321000D01*
X22384119Y-61384000D01*
X22338000Y-61430119D01*
X22275000Y-61447000D01*
X20805590Y-61447000D01*
X20792506Y-61450506D01*
X20789000Y-61463590D01*
X20789000Y-62088223D01*
X20789359Y-62094938D01*
X20794662Y-62144257D01*
X20798259Y-62159478D01*
X20843405Y-62280519D01*
X20851954Y-62296175D01*
X20928697Y-62398692D01*
X20941307Y-62411302D01*
X21043824Y-62488045D01*
X21059480Y-62496594D01*
X21166171Y-62536388D01*
X21216505Y-62570952D01*
X21244680Y-62625122D01*
X21244077Y-62686178D01*
X21214840Y-62739781D01*
X21074811Y-62891892D01*
X21074800Y-62891906D01*
X21071278Y-62895732D01*
X21068430Y-62900090D01*
X21068427Y-62900095D01*
X20950992Y-63079843D01*
X20948140Y-63084209D01*
X20946048Y-63088978D01*
X20946046Y-63088982D01*
X20859799Y-63285606D01*
X20859796Y-63285614D01*
X20857704Y-63290384D01*
X20856423Y-63295440D01*
X20856422Y-63295445D01*
X20823701Y-63424658D01*
X20802436Y-63508632D01*
X20802006Y-63513820D01*
X20802005Y-63513827D01*
X20793987Y-63610590D01*
X20783844Y-63733000D01*
X20784274Y-63738189D01*
X20798263Y-63907018D01*
X20802436Y-63957368D01*
X20824565Y-64044755D01*
X20830182Y-64066934D01*
X20829517Y-64131314D01*
X20797133Y-64186960D01*
X20579742Y-64404351D01*
X20571459Y-64411888D01*
X20564982Y-64416000D01*
X20559559Y-64421774D01*
X20559560Y-64421774D01*
X20518370Y-64465636D01*
X20515621Y-64468472D01*
X20498667Y-64485427D01*
X20498660Y-64485434D01*
X20495865Y-64488230D01*
X20493442Y-64491352D01*
X20493426Y-64491371D01*
X20493365Y-64491451D01*
X20485690Y-64500435D01*
X20460838Y-64526902D01*
X20460835Y-64526904D01*
X20455414Y-64532679D01*
X20451600Y-64539614D01*
X20451592Y-64539627D01*
X20445650Y-64550436D01*
X20434803Y-64566949D01*
X20427243Y-64576695D01*
X20427237Y-64576704D01*
X20422386Y-64582959D01*
X20419242Y-64590223D01*
X20419238Y-64590231D01*
X20404824Y-64623540D01*
X20399604Y-64634195D01*
X20382125Y-64665989D01*
X20382121Y-64665997D01*
X20378305Y-64672940D01*
X20376333Y-64680616D01*
X20376331Y-64680624D01*
X20373266Y-64692562D01*
X20366865Y-64711259D01*
X20361968Y-64722576D01*
X20361966Y-64722581D01*
X20358819Y-64729855D01*
X20357579Y-64737680D01*
X20357577Y-64737689D01*
X20351901Y-64773524D01*
X20349495Y-64785144D01*
X20340471Y-64820289D01*
X20340469Y-64820297D01*
X20338500Y-64827970D01*
X20338500Y-64835899D01*
X20338500Y-64848224D01*
X20336949Y-64867935D01*
X20335019Y-64880114D01*
X20335018Y-64880121D01*
X20333780Y-64887943D01*
X20334525Y-64895826D01*
X20334525Y-64895834D01*
X20337941Y-64931961D01*
X20338500Y-64943819D01*
X20338500Y-68918197D01*
X20324767Y-68975400D01*
X20286561Y-69020133D01*
X20232211Y-69042646D01*
X20173564Y-69038030D01*
X20123405Y-69007292D01*
X17064405Y-65948292D01*
X17037091Y-65907415D01*
X17027500Y-65859197D01*
X17027500Y-62816990D01*
X17037091Y-62768772D01*
X17064405Y-62727895D01*
X20468896Y-59323405D01*
X20509773Y-59296091D01*
X20557991Y-59286500D01*
X20869962Y-59286500D01*
X20929931Y-59301686D01*
G37*
%TD.AperFunction*%
%TA.AperFunction,Conductor*%
G36*
X37399290Y-57833216D02*
G01*
X37404959Y-57837614D01*
X37412237Y-57840763D01*
X37412240Y-57840765D01*
X37445535Y-57855172D01*
X37456200Y-57860397D01*
X37494940Y-57881695D01*
X37514560Y-57886732D01*
X37533252Y-57893130D01*
X37551855Y-57901181D01*
X37595525Y-57908097D01*
X37607125Y-57910498D01*
X37649970Y-57921500D01*
X37670224Y-57921500D01*
X37689934Y-57923050D01*
X37709943Y-57926220D01*
X37753961Y-57922058D01*
X37765819Y-57921500D01*
X38571562Y-57921500D01*
X38631531Y-57936686D01*
X38677045Y-57978584D01*
X38697132Y-58037095D01*
X38686950Y-58098113D01*
X38639799Y-58205606D01*
X38639796Y-58205614D01*
X38637704Y-58210384D01*
X38636423Y-58215440D01*
X38636422Y-58215445D01*
X38595533Y-58376913D01*
X38582436Y-58428632D01*
X38582006Y-58433820D01*
X38582005Y-58433827D01*
X38565888Y-58628335D01*
X38563844Y-58653000D01*
X38564274Y-58658189D01*
X38581274Y-58863355D01*
X38582436Y-58877368D01*
X38637704Y-59095616D01*
X38639797Y-59100389D01*
X38639799Y-59100393D01*
X38659675Y-59145706D01*
X38728140Y-59301791D01*
X38851278Y-59490268D01*
X38854806Y-59494100D01*
X38994840Y-59646217D01*
X39024077Y-59699821D01*
X39024680Y-59760877D01*
X38996506Y-59815047D01*
X38946172Y-59849610D01*
X38839484Y-59889403D01*
X38823824Y-59897954D01*
X38721307Y-59974697D01*
X38708697Y-59987307D01*
X38631954Y-60089824D01*
X38623405Y-60105480D01*
X38578259Y-60226521D01*
X38574662Y-60241742D01*
X38569359Y-60291061D01*
X38569000Y-60297777D01*
X38569000Y-60922410D01*
X38572506Y-60935493D01*
X38585590Y-60939000D01*
X40055000Y-60939000D01*
X40118000Y-60955881D01*
X40164119Y-61002000D01*
X40181000Y-61065000D01*
X40181000Y-61321000D01*
X40164119Y-61384000D01*
X40118000Y-61430119D01*
X40055000Y-61447000D01*
X38589094Y-61447000D01*
X38540876Y-61437409D01*
X38499999Y-61410095D01*
X38365013Y-61275109D01*
X37246405Y-60156500D01*
X37219091Y-60115623D01*
X37209500Y-60067405D01*
X37209500Y-57941766D01*
X37226547Y-57878479D01*
X37273074Y-57832317D01*
X37336493Y-57815770D01*
X37399290Y-57833216D01*
G37*
%TD.AperFunction*%
%TA.AperFunction,Conductor*%
G36*
X20702590Y-53476567D02*
G01*
X20759450Y-53518510D01*
X20784794Y-53584464D01*
X20798471Y-53749525D01*
X20802436Y-53797368D01*
X20803717Y-53802426D01*
X20849466Y-53983087D01*
X20857704Y-54015616D01*
X20859797Y-54020389D01*
X20859799Y-54020393D01*
X20918848Y-54155012D01*
X20948140Y-54221791D01*
X21071278Y-54410268D01*
X21093386Y-54434283D01*
X21220227Y-54572069D01*
X21220231Y-54572073D01*
X21223760Y-54575906D01*
X21401424Y-54714189D01*
X21406002Y-54716666D01*
X21406009Y-54716671D01*
X21434680Y-54732187D01*
X21482951Y-54778503D01*
X21500710Y-54843000D01*
X21482951Y-54907497D01*
X21434680Y-54953813D01*
X21406009Y-54969328D01*
X21405993Y-54969338D01*
X21401424Y-54971811D01*
X21397313Y-54975010D01*
X21397311Y-54975012D01*
X21227878Y-55106888D01*
X21227872Y-55106893D01*
X21223760Y-55110094D01*
X21220237Y-55113919D01*
X21220227Y-55113930D01*
X21074806Y-55271899D01*
X21074802Y-55271902D01*
X21071278Y-55275732D01*
X21068430Y-55280090D01*
X21068427Y-55280095D01*
X20950992Y-55459843D01*
X20948140Y-55464209D01*
X20946048Y-55468978D01*
X20946046Y-55468982D01*
X20859799Y-55665606D01*
X20859796Y-55665614D01*
X20857704Y-55670384D01*
X20856423Y-55675440D01*
X20856422Y-55675445D01*
X20853949Y-55685211D01*
X20802436Y-55888632D01*
X20802006Y-55893820D01*
X20802005Y-55893827D01*
X20793920Y-55991403D01*
X20783844Y-56113000D01*
X20784274Y-56118189D01*
X20799537Y-56302393D01*
X20802436Y-56337368D01*
X20822962Y-56418424D01*
X20830182Y-56446935D01*
X20829517Y-56511315D01*
X20797133Y-56566961D01*
X16342595Y-61021500D01*
X16292436Y-61052238D01*
X16233789Y-61056854D01*
X16179439Y-61034341D01*
X16141233Y-60989608D01*
X16127500Y-60932405D01*
X16127500Y-58000594D01*
X16137091Y-57952376D01*
X16164405Y-57911499D01*
X18212162Y-55863742D01*
X20570131Y-53505772D01*
X20632094Y-53471824D01*
X20702590Y-53476567D01*
G37*
%TD.AperFunction*%
%TA.AperFunction,Conductor*%
G36*
X46912228Y-35758091D02*
G01*
X46953105Y-35785405D01*
X50128897Y-38961197D01*
X50156211Y-39002074D01*
X50165802Y-39050292D01*
X50165802Y-44818913D01*
X50165274Y-44830096D01*
X50163600Y-44837589D01*
X50163849Y-44845513D01*
X50163849Y-44845515D01*
X50165740Y-44905666D01*
X50165802Y-44909625D01*
X50165802Y-44937536D01*
X50166297Y-44941454D01*
X50166299Y-44941486D01*
X50166310Y-44941568D01*
X50167239Y-44953377D01*
X50168379Y-44989649D01*
X50168380Y-44989656D01*
X50168629Y-44997569D01*
X50170839Y-45005178D01*
X50170840Y-45005180D01*
X50174280Y-45017022D01*
X50178288Y-45036373D01*
X50178315Y-45036590D01*
X50180828Y-45056477D01*
X50183746Y-45063849D01*
X50183747Y-45063850D01*
X50197102Y-45097581D01*
X50200947Y-45108810D01*
X50211073Y-45143666D01*
X50211075Y-45143672D01*
X50213284Y-45151273D01*
X50217316Y-45158091D01*
X50217317Y-45158093D01*
X50223595Y-45168709D01*
X50232292Y-45186462D01*
X50233207Y-45188774D01*
X50239750Y-45205297D01*
X50244409Y-45211710D01*
X50244410Y-45211711D01*
X50265734Y-45241061D01*
X50272250Y-45250981D01*
X50288575Y-45278584D01*
X50294760Y-45289042D01*
X50300364Y-45294646D01*
X50300365Y-45294647D01*
X50309080Y-45303362D01*
X50321920Y-45318395D01*
X50333830Y-45334787D01*
X50339937Y-45339839D01*
X50339938Y-45339840D01*
X50367900Y-45362972D01*
X50376680Y-45370962D01*
X55084264Y-50078546D01*
X55111578Y-50119423D01*
X55121169Y-50167641D01*
X55121169Y-51150606D01*
X55106932Y-51208786D01*
X55067440Y-51253819D01*
X54914880Y-51360643D01*
X54914877Y-51360645D01*
X54910369Y-51363802D01*
X54906477Y-51367693D01*
X54906471Y-51367699D01*
X54752368Y-51521802D01*
X54752362Y-51521808D01*
X54748471Y-51525700D01*
X54745314Y-51530208D01*
X54745312Y-51530211D01*
X54620302Y-51708742D01*
X54620296Y-51708752D01*
X54617146Y-51713251D01*
X54614822Y-51718233D01*
X54614820Y-51718238D01*
X54522708Y-51915774D01*
X54522705Y-51915779D01*
X54520385Y-51920757D01*
X54518962Y-51926065D01*
X54518962Y-51926067D01*
X54462550Y-52136598D01*
X54461126Y-52141913D01*
X54460647Y-52147386D01*
X54460646Y-52147393D01*
X54448752Y-52283351D01*
X54441171Y-52370000D01*
X54441650Y-52375475D01*
X54451709Y-52490451D01*
X54442172Y-52550665D01*
X54405482Y-52599353D01*
X54350230Y-52625118D01*
X54289349Y-52621927D01*
X54237093Y-52590528D01*
X53787461Y-52140896D01*
X53754849Y-52084412D01*
X53754849Y-52019190D01*
X53787461Y-51962706D01*
X53834393Y-51915774D01*
X53920867Y-51829300D01*
X54052192Y-51641749D01*
X54148953Y-51434243D01*
X54208212Y-51213087D01*
X54228167Y-50985000D01*
X54208212Y-50756913D01*
X54148953Y-50535757D01*
X54052192Y-50328251D01*
X54042764Y-50314787D01*
X53994613Y-50246020D01*
X53920867Y-50140700D01*
X53758969Y-49978802D01*
X53665191Y-49913138D01*
X53575926Y-49850633D01*
X53575921Y-49850630D01*
X53571418Y-49847477D01*
X53554174Y-49839436D01*
X53368894Y-49753039D01*
X53368892Y-49753038D01*
X53363912Y-49750716D01*
X53142756Y-49691457D01*
X53137280Y-49690977D01*
X53137275Y-49690977D01*
X52920144Y-49671981D01*
X52914669Y-49671502D01*
X52909194Y-49671981D01*
X52692062Y-49690977D01*
X52692055Y-49690978D01*
X52686582Y-49691457D01*
X52681268Y-49692880D01*
X52681267Y-49692881D01*
X52470736Y-49749293D01*
X52470734Y-49749293D01*
X52465426Y-49750716D01*
X52460448Y-49753036D01*
X52460443Y-49753039D01*
X52262907Y-49845151D01*
X52262902Y-49845153D01*
X52257920Y-49847477D01*
X52253421Y-49850627D01*
X52253411Y-49850633D01*
X52074880Y-49975643D01*
X52074877Y-49975645D01*
X52070369Y-49978802D01*
X52066477Y-49982693D01*
X52066471Y-49982699D01*
X51912368Y-50136802D01*
X51912362Y-50136808D01*
X51908471Y-50140700D01*
X51905314Y-50145208D01*
X51905312Y-50145211D01*
X51780302Y-50323742D01*
X51780296Y-50323752D01*
X51777146Y-50328251D01*
X51774822Y-50333233D01*
X51774820Y-50333238D01*
X51682708Y-50530774D01*
X51682705Y-50530779D01*
X51680385Y-50535757D01*
X51678962Y-50541065D01*
X51678962Y-50541067D01*
X51626838Y-50735596D01*
X51621126Y-50756913D01*
X51620647Y-50762386D01*
X51620646Y-50762393D01*
X51606158Y-50928000D01*
X51601171Y-50985000D01*
X51601650Y-50990475D01*
X51620321Y-51203892D01*
X51621126Y-51213087D01*
X51680385Y-51434243D01*
X51682707Y-51439223D01*
X51682708Y-51439225D01*
X51768697Y-51623631D01*
X51777146Y-51641749D01*
X51780299Y-51646252D01*
X51780302Y-51646257D01*
X51824055Y-51708742D01*
X51908471Y-51829300D01*
X52070369Y-51991198D01*
X52227475Y-52101205D01*
X52265083Y-52142754D01*
X52280954Y-52196503D01*
X52281169Y-52199920D01*
X52281169Y-52203865D01*
X52281663Y-52207780D01*
X52281665Y-52207802D01*
X52281677Y-52207897D01*
X52282606Y-52219706D01*
X52283746Y-52255978D01*
X52283747Y-52255985D01*
X52283996Y-52263898D01*
X52286206Y-52271507D01*
X52286207Y-52271509D01*
X52289647Y-52283351D01*
X52293655Y-52302702D01*
X52296195Y-52322806D01*
X52299113Y-52330178D01*
X52299114Y-52330179D01*
X52312469Y-52363910D01*
X52316314Y-52375139D01*
X52326440Y-52409995D01*
X52326442Y-52410001D01*
X52328651Y-52417602D01*
X52332683Y-52424420D01*
X52332684Y-52424422D01*
X52335280Y-52428812D01*
X52352795Y-52495735D01*
X52332339Y-52561819D01*
X52280078Y-52607144D01*
X52262908Y-52615150D01*
X52262898Y-52615155D01*
X52257920Y-52617477D01*
X52253421Y-52620627D01*
X52253411Y-52620633D01*
X52074880Y-52745643D01*
X52074877Y-52745645D01*
X52070369Y-52748802D01*
X52066477Y-52752693D01*
X52066471Y-52752699D01*
X51912368Y-52906802D01*
X51912362Y-52906808D01*
X51908471Y-52910700D01*
X51905314Y-52915208D01*
X51905312Y-52915211D01*
X51780302Y-53093742D01*
X51780296Y-53093752D01*
X51777146Y-53098251D01*
X51774822Y-53103233D01*
X51774820Y-53103238D01*
X51682708Y-53300774D01*
X51682705Y-53300779D01*
X51680385Y-53305757D01*
X51678962Y-53311065D01*
X51678962Y-53311067D01*
X51622550Y-53521598D01*
X51621126Y-53526913D01*
X51620647Y-53532386D01*
X51620646Y-53532393D01*
X51604024Y-53722389D01*
X51601171Y-53755000D01*
X51601650Y-53760475D01*
X51618988Y-53958657D01*
X51621126Y-53983087D01*
X51680385Y-54204243D01*
X51682707Y-54209223D01*
X51682708Y-54209225D01*
X51688568Y-54221791D01*
X51777146Y-54411749D01*
X51780299Y-54416252D01*
X51780302Y-54416257D01*
X51826738Y-54482574D01*
X51908471Y-54599300D01*
X52070369Y-54761198D01*
X52257920Y-54892523D01*
X52465426Y-54989284D01*
X52551442Y-55012332D01*
X52573688Y-55018293D01*
X52630173Y-55050905D01*
X52662784Y-55107389D01*
X52662784Y-55172611D01*
X52630173Y-55229095D01*
X52573688Y-55261707D01*
X52470736Y-55289293D01*
X52470734Y-55289293D01*
X52465426Y-55290716D01*
X52460448Y-55293036D01*
X52460443Y-55293039D01*
X52262907Y-55385151D01*
X52262902Y-55385153D01*
X52257920Y-55387477D01*
X52253421Y-55390627D01*
X52253411Y-55390633D01*
X52074880Y-55515643D01*
X52074877Y-55515645D01*
X52070369Y-55518802D01*
X52066477Y-55522693D01*
X52066471Y-55522699D01*
X51912368Y-55676802D01*
X51912362Y-55676808D01*
X51908471Y-55680700D01*
X51905314Y-55685208D01*
X51905312Y-55685211D01*
X51780302Y-55863742D01*
X51780296Y-55863752D01*
X51777146Y-55868251D01*
X51774822Y-55873233D01*
X51774820Y-55873238D01*
X51682708Y-56070774D01*
X51682705Y-56070779D01*
X51680385Y-56075757D01*
X51621126Y-56296913D01*
X51620647Y-56302386D01*
X51620646Y-56302393D01*
X51602564Y-56509074D01*
X51601171Y-56525000D01*
X51601650Y-56530475D01*
X51620483Y-56745744D01*
X51621126Y-56753087D01*
X51622550Y-56758401D01*
X51638128Y-56816540D01*
X51638128Y-56881762D01*
X51605516Y-56938246D01*
X50381555Y-58162208D01*
X50325071Y-58194820D01*
X50259849Y-58194820D01*
X50203365Y-58162208D01*
X48073438Y-56032280D01*
X48046124Y-55991403D01*
X48036533Y-55943185D01*
X48036533Y-40686801D01*
X48037060Y-40675617D01*
X48038735Y-40668125D01*
X48036594Y-40600034D01*
X48036533Y-40596077D01*
X48036533Y-40572142D01*
X48036533Y-40568177D01*
X48036028Y-40564185D01*
X48035095Y-40552338D01*
X48035050Y-40550905D01*
X48033707Y-40508144D01*
X48028052Y-40488680D01*
X48024046Y-40469334D01*
X48021507Y-40449236D01*
X48005232Y-40408131D01*
X48001386Y-40396898D01*
X47996474Y-40379992D01*
X47989051Y-40354440D01*
X47978741Y-40337006D01*
X47970040Y-40319246D01*
X47962585Y-40300416D01*
X47936598Y-40264649D01*
X47930080Y-40254726D01*
X47924247Y-40244862D01*
X47907575Y-40216671D01*
X47893251Y-40202347D01*
X47880415Y-40187319D01*
X47868505Y-40170926D01*
X47862400Y-40165875D01*
X47862393Y-40165868D01*
X47834427Y-40142733D01*
X47825648Y-40134744D01*
X46105404Y-38414499D01*
X46078090Y-38373622D01*
X46068499Y-38325404D01*
X46068499Y-38035599D01*
X46068499Y-38032736D01*
X46062013Y-37961351D01*
X46040720Y-37893022D01*
X46038677Y-37825384D01*
X46071919Y-37766445D01*
X46277259Y-37561105D01*
X46285533Y-37553576D01*
X46292018Y-37549462D01*
X46338676Y-37499774D01*
X46341368Y-37496996D01*
X46361135Y-37477231D01*
X46363589Y-37474066D01*
X46371310Y-37465021D01*
X46401586Y-37432783D01*
X46411345Y-37415029D01*
X46422198Y-37398507D01*
X46434614Y-37382502D01*
X46452177Y-37341912D01*
X46457388Y-37331277D01*
X46478695Y-37292522D01*
X46483732Y-37272904D01*
X46490138Y-37254192D01*
X46495032Y-37242883D01*
X46498181Y-37235607D01*
X46505096Y-37191939D01*
X46507504Y-37180315D01*
X46516529Y-37145167D01*
X46518500Y-37137492D01*
X46518500Y-37117238D01*
X46520051Y-37097527D01*
X46521980Y-37085347D01*
X46523220Y-37077519D01*
X46519058Y-37033500D01*
X46518500Y-37021643D01*
X46518500Y-35993767D01*
X46519027Y-35982583D01*
X46520702Y-35975091D01*
X46518561Y-35907000D01*
X46518500Y-35903043D01*
X46518500Y-35875144D01*
X46520274Y-35875144D01*
X46532768Y-35816180D01*
X46579161Y-35766740D01*
X46644459Y-35748500D01*
X46864010Y-35748500D01*
X46912228Y-35758091D01*
G37*
%TD.AperFunction*%
%TA.AperFunction,Conductor*%
G36*
X38929259Y-51974197D02*
G01*
X38976611Y-52006416D01*
X39000221Y-52032062D01*
X39003760Y-52035906D01*
X39181424Y-52174189D01*
X39214680Y-52192186D01*
X39262950Y-52238499D01*
X39280710Y-52302996D01*
X39262953Y-52367494D01*
X39214683Y-52413811D01*
X39186005Y-52429331D01*
X39185997Y-52429336D01*
X39181424Y-52431811D01*
X39177313Y-52435010D01*
X39177311Y-52435012D01*
X39007878Y-52566888D01*
X39007872Y-52566893D01*
X39003760Y-52570094D01*
X39000237Y-52573919D01*
X39000227Y-52573930D01*
X38854806Y-52731899D01*
X38854802Y-52731902D01*
X38851278Y-52735732D01*
X38848430Y-52740090D01*
X38848427Y-52740095D01*
X38730992Y-52919843D01*
X38728140Y-52924209D01*
X38726048Y-52928978D01*
X38726046Y-52928982D01*
X38639799Y-53125606D01*
X38639796Y-53125614D01*
X38637704Y-53130384D01*
X38636423Y-53135440D01*
X38636422Y-53135445D01*
X38590006Y-53318739D01*
X38582436Y-53348632D01*
X38582006Y-53353820D01*
X38582005Y-53353827D01*
X38569270Y-53507523D01*
X38563844Y-53573000D01*
X38564274Y-53578189D01*
X38578471Y-53749525D01*
X38582436Y-53797368D01*
X38583717Y-53802426D01*
X38629466Y-53983087D01*
X38637704Y-54015616D01*
X38639797Y-54020389D01*
X38639799Y-54020393D01*
X38698848Y-54155012D01*
X38728140Y-54221791D01*
X38851278Y-54410268D01*
X38873386Y-54434283D01*
X39000227Y-54572069D01*
X39000231Y-54572073D01*
X39003760Y-54575906D01*
X39181424Y-54714189D01*
X39186002Y-54716666D01*
X39186009Y-54716671D01*
X39214680Y-54732187D01*
X39262951Y-54778503D01*
X39280710Y-54843000D01*
X39262951Y-54907497D01*
X39214680Y-54953813D01*
X39186009Y-54969328D01*
X39185993Y-54969338D01*
X39181424Y-54971811D01*
X39177313Y-54975010D01*
X39177311Y-54975012D01*
X39007878Y-55106888D01*
X39007872Y-55106893D01*
X39003760Y-55110094D01*
X39000237Y-55113919D01*
X39000227Y-55113930D01*
X38854806Y-55271899D01*
X38854802Y-55271902D01*
X38851278Y-55275732D01*
X38778272Y-55387477D01*
X38755445Y-55422416D01*
X38709931Y-55464314D01*
X38649962Y-55479500D01*
X38425844Y-55479500D01*
X38377626Y-55469909D01*
X38336749Y-55442595D01*
X35987749Y-53093595D01*
X35957011Y-53043436D01*
X35952395Y-52984789D01*
X35974908Y-52930439D01*
X36019641Y-52892233D01*
X36076844Y-52878500D01*
X36704033Y-52878500D01*
X36706502Y-52878500D01*
X36743831Y-52875562D01*
X36903601Y-52829145D01*
X37046807Y-52744453D01*
X37052417Y-52738842D01*
X37058675Y-52733989D01*
X37060015Y-52735716D01*
X37108317Y-52708378D01*
X37175640Y-52710131D01*
X37224106Y-52740998D01*
X37225420Y-52739540D01*
X37230331Y-52743962D01*
X37234747Y-52748866D01*
X37389248Y-52861118D01*
X37563712Y-52938794D01*
X37750513Y-52978500D01*
X37934884Y-52978500D01*
X37941487Y-52978500D01*
X38128288Y-52938794D01*
X38302752Y-52861118D01*
X38457253Y-52748866D01*
X38585040Y-52606944D01*
X38680527Y-52441556D01*
X38739542Y-52259928D01*
X38758602Y-52078580D01*
X38777377Y-52024475D01*
X38818164Y-51984267D01*
X38872536Y-51966268D01*
X38929259Y-51974197D01*
G37*
%TD.AperFunction*%
%TA.AperFunction,Conductor*%
G36*
X55882773Y-44097095D02*
G01*
X55931429Y-44127334D01*
X57114595Y-45310500D01*
X57141909Y-45351377D01*
X57151500Y-45399595D01*
X57151500Y-51700989D01*
X57133503Y-51765884D01*
X57084653Y-51812240D01*
X57018906Y-51826816D01*
X56955042Y-51805448D01*
X56911305Y-51754239D01*
X56894517Y-51718238D01*
X56892192Y-51713251D01*
X56888865Y-51708500D01*
X56806673Y-51591118D01*
X56760867Y-51525700D01*
X56598969Y-51363802D01*
X56477691Y-51278882D01*
X56441898Y-51253819D01*
X56402406Y-51208786D01*
X56388169Y-51150606D01*
X56388169Y-49931814D01*
X56388696Y-49920630D01*
X56390371Y-49913138D01*
X56388231Y-49845061D01*
X56388169Y-49841102D01*
X56388169Y-49817155D01*
X56388169Y-49813191D01*
X56387663Y-49809194D01*
X56386730Y-49797344D01*
X56385342Y-49753157D01*
X56379689Y-49733703D01*
X56375681Y-49714344D01*
X56375297Y-49711302D01*
X56373143Y-49694250D01*
X56356866Y-49653140D01*
X56353020Y-49641907D01*
X56340687Y-49599454D01*
X56330376Y-49582020D01*
X56321677Y-49564262D01*
X56317138Y-49552798D01*
X56314221Y-49545430D01*
X56288230Y-49509657D01*
X56281719Y-49499745D01*
X56259211Y-49461684D01*
X56244887Y-49447360D01*
X56232045Y-49432324D01*
X56224803Y-49422356D01*
X56224800Y-49422353D01*
X56220141Y-49415940D01*
X56186074Y-49387757D01*
X56177295Y-49379768D01*
X53517543Y-46720016D01*
X53483892Y-46659372D01*
X53487431Y-46590107D01*
X53527088Y-46533208D01*
X53590842Y-46505916D01*
X53685644Y-46493940D01*
X53991371Y-46415443D01*
X54284848Y-46299247D01*
X54561448Y-46147184D01*
X54816809Y-45961654D01*
X55046902Y-45745582D01*
X55248101Y-45502375D01*
X55417231Y-45235869D01*
X55551625Y-44950266D01*
X55649164Y-44650072D01*
X55708310Y-44340020D01*
X55716583Y-44208516D01*
X55733083Y-44153658D01*
X55772167Y-44111774D01*
X55825757Y-44091524D01*
X55882773Y-44097095D01*
G37*
%TD.AperFunction*%
%TA.AperFunction,Conductor*%
G36*
X38631531Y-50316686D02*
G01*
X38677045Y-50358584D01*
X38697132Y-50417095D01*
X38686950Y-50478113D01*
X38639799Y-50585606D01*
X38639796Y-50585614D01*
X38637704Y-50590384D01*
X38636423Y-50595440D01*
X38636422Y-50595445D01*
X38602377Y-50729885D01*
X38582436Y-50808632D01*
X38582006Y-50813820D01*
X38582005Y-50813827D01*
X38568275Y-50979525D01*
X38563844Y-51033000D01*
X38564274Y-51038189D01*
X38564274Y-51038190D01*
X38579555Y-51222610D01*
X38565291Y-51292066D01*
X38515778Y-51342822D01*
X38446697Y-51358804D01*
X38379924Y-51334951D01*
X38346759Y-51310855D01*
X38302752Y-51278882D01*
X38128288Y-51201206D01*
X38121835Y-51199834D01*
X38121831Y-51199833D01*
X37947943Y-51162872D01*
X37947940Y-51162871D01*
X37941487Y-51161500D01*
X37750513Y-51161500D01*
X37744060Y-51162871D01*
X37744056Y-51162872D01*
X37570168Y-51199833D01*
X37570161Y-51199835D01*
X37563712Y-51201206D01*
X37557687Y-51203888D01*
X37557676Y-51203892D01*
X37453924Y-51250085D01*
X37383942Y-51259577D01*
X37319845Y-51229926D01*
X37281771Y-51170446D01*
X37281680Y-51099823D01*
X37290902Y-51068082D01*
X37291487Y-51056631D01*
X37280333Y-51054000D01*
X35637000Y-51054000D01*
X35574000Y-51037119D01*
X35527881Y-50991000D01*
X35511000Y-50928000D01*
X35511000Y-50672000D01*
X35527881Y-50609000D01*
X35574000Y-50562881D01*
X35637000Y-50546000D01*
X37280333Y-50546000D01*
X37291487Y-50543368D01*
X37290902Y-50531920D01*
X37270778Y-50462654D01*
X37267825Y-50404864D01*
X37291014Y-50351847D01*
X37335455Y-50314787D01*
X37391775Y-50301500D01*
X38571562Y-50301500D01*
X38631531Y-50316686D01*
G37*
%TD.AperFunction*%
%TA.AperFunction,Conductor*%
G36*
X30520449Y-34485504D02*
G01*
X30573126Y-34517031D01*
X31079595Y-35023500D01*
X31106909Y-35064377D01*
X31116500Y-35112595D01*
X31116500Y-47437405D01*
X31106909Y-47485623D01*
X31079595Y-47526500D01*
X28160704Y-50445390D01*
X28104858Y-50477829D01*
X28040276Y-50478337D01*
X27983926Y-50446780D01*
X27956116Y-50400591D01*
X27954506Y-50401289D01*
X27951356Y-50394012D01*
X27949145Y-50386399D01*
X27864453Y-50243193D01*
X27861520Y-50240260D01*
X27839039Y-50192487D01*
X27839039Y-50137513D01*
X27861520Y-50089739D01*
X27864453Y-50086807D01*
X27949145Y-49943601D01*
X27995562Y-49783831D01*
X27998500Y-49746502D01*
X27998500Y-49313498D01*
X27995562Y-49276169D01*
X27949145Y-49116399D01*
X27912727Y-49054819D01*
X27868491Y-48980020D01*
X27868488Y-48980017D01*
X27864453Y-48973193D01*
X27861518Y-48970258D01*
X27839038Y-48922482D01*
X27839040Y-48867508D01*
X27861520Y-48819739D01*
X27864453Y-48816807D01*
X27949145Y-48673601D01*
X27995562Y-48513831D01*
X27998500Y-48476502D01*
X27998500Y-48043498D01*
X27995562Y-48006169D01*
X27993765Y-47999983D01*
X27993302Y-47997449D01*
X27998286Y-47933295D01*
X28034296Y-47879968D01*
X28091941Y-47851375D01*
X28156187Y-47854974D01*
X28159683Y-47856109D01*
X28165712Y-47858794D01*
X28352513Y-47898500D01*
X28536884Y-47898500D01*
X28543487Y-47898500D01*
X28730288Y-47858794D01*
X28904752Y-47781118D01*
X29059253Y-47668866D01*
X29187040Y-47526944D01*
X29282527Y-47361556D01*
X29341542Y-47179928D01*
X29361504Y-46990000D01*
X29341542Y-46800072D01*
X29313107Y-46712558D01*
X29284569Y-46624728D01*
X29284568Y-46624726D01*
X29282527Y-46618444D01*
X29187040Y-46453056D01*
X29174662Y-46439309D01*
X29146041Y-46385479D01*
X29146043Y-46324511D01*
X29174667Y-46270685D01*
X29187040Y-46256944D01*
X29282527Y-46091556D01*
X29341542Y-45909928D01*
X29361504Y-45720000D01*
X29341542Y-45530072D01*
X29288477Y-45366756D01*
X29284569Y-45354728D01*
X29284568Y-45354726D01*
X29282527Y-45348444D01*
X29187040Y-45183056D01*
X29174661Y-45169308D01*
X29146042Y-45115482D01*
X29146042Y-45054518D01*
X29174661Y-45000691D01*
X29187040Y-44986944D01*
X29282527Y-44821556D01*
X29341542Y-44639928D01*
X29361504Y-44450000D01*
X29341542Y-44260072D01*
X29306966Y-44153658D01*
X29284569Y-44084728D01*
X29284568Y-44084726D01*
X29282527Y-44078444D01*
X29187040Y-43913056D01*
X29177590Y-43902561D01*
X29174660Y-43899306D01*
X29146041Y-43845477D01*
X29146043Y-43784512D01*
X29174663Y-43730689D01*
X29187040Y-43716944D01*
X29282527Y-43551556D01*
X29341542Y-43369928D01*
X29361504Y-43180000D01*
X29341542Y-42990072D01*
X29293642Y-42842652D01*
X29284569Y-42814728D01*
X29284568Y-42814726D01*
X29282527Y-42808444D01*
X29187040Y-42643056D01*
X29059253Y-42501134D01*
X29053911Y-42497253D01*
X29053908Y-42497250D01*
X28976057Y-42440688D01*
X28904752Y-42388882D01*
X28730288Y-42311206D01*
X28723835Y-42309834D01*
X28723831Y-42309833D01*
X28549943Y-42272872D01*
X28549940Y-42272871D01*
X28543487Y-42271500D01*
X28352513Y-42271500D01*
X28346060Y-42272871D01*
X28346056Y-42272872D01*
X28172166Y-42309834D01*
X28172164Y-42309834D01*
X28165712Y-42311206D01*
X28159688Y-42313887D01*
X28156182Y-42315027D01*
X28091937Y-42318623D01*
X28034293Y-42290029D01*
X27998285Y-42236702D01*
X27993302Y-42172549D01*
X27993763Y-42170020D01*
X27995562Y-42163831D01*
X27998500Y-42126502D01*
X27998500Y-41693498D01*
X27995562Y-41656169D01*
X27949145Y-41496399D01*
X27864453Y-41353193D01*
X27861520Y-41350260D01*
X27839039Y-41302487D01*
X27839039Y-41247513D01*
X27861520Y-41199739D01*
X27864453Y-41196807D01*
X27949145Y-41053601D01*
X27995562Y-40893831D01*
X27998500Y-40856502D01*
X27998500Y-40481345D01*
X28008091Y-40433127D01*
X28035402Y-40392252D01*
X29856269Y-38571384D01*
X29864533Y-38563865D01*
X29871018Y-38559751D01*
X29917676Y-38510063D01*
X29920368Y-38507285D01*
X29940134Y-38487521D01*
X29942601Y-38484339D01*
X29950310Y-38475312D01*
X29980586Y-38443072D01*
X29990345Y-38425318D01*
X30001199Y-38408794D01*
X30013613Y-38392792D01*
X30031167Y-38352226D01*
X30036392Y-38341559D01*
X30036668Y-38341058D01*
X30057695Y-38302811D01*
X30062732Y-38283193D01*
X30069138Y-38264481D01*
X30077181Y-38245896D01*
X30084099Y-38202207D01*
X30086503Y-38190607D01*
X30087787Y-38185607D01*
X30097500Y-38147781D01*
X30097500Y-38127520D01*
X30099051Y-38107809D01*
X30100979Y-38095635D01*
X30102219Y-38087808D01*
X30098058Y-38043796D01*
X30097500Y-38031940D01*
X30097500Y-35500524D01*
X30105869Y-35455370D01*
X30129861Y-35416216D01*
X30203040Y-35334944D01*
X30298527Y-35169556D01*
X30357542Y-34987928D01*
X30377504Y-34798000D01*
X30358721Y-34619293D01*
X30367371Y-34558518D01*
X30403715Y-34509041D01*
X30459126Y-34482612D01*
X30520449Y-34485504D01*
G37*
%TD.AperFunction*%
%TA.AperFunction,Conductor*%
G36*
X38556199Y-25104303D02*
G01*
X38600292Y-25140109D01*
X38624178Y-25191643D01*
X38623005Y-25248428D01*
X38582436Y-25408632D01*
X38582006Y-25413820D01*
X38582005Y-25413827D01*
X38564909Y-25620147D01*
X38563844Y-25633000D01*
X38582436Y-25857368D01*
X38637704Y-26075616D01*
X38639797Y-26080389D01*
X38639799Y-26080393D01*
X38683987Y-26181131D01*
X38728140Y-26281791D01*
X38851278Y-26470268D01*
X38854805Y-26474099D01*
X38854806Y-26474100D01*
X39000227Y-26632069D01*
X39000231Y-26632073D01*
X39003760Y-26635906D01*
X39181424Y-26774189D01*
X39186002Y-26776666D01*
X39186009Y-26776671D01*
X39214680Y-26792187D01*
X39262951Y-26838503D01*
X39280710Y-26903000D01*
X39262951Y-26967497D01*
X39214680Y-27013813D01*
X39186009Y-27029328D01*
X39185993Y-27029338D01*
X39181424Y-27031811D01*
X39177313Y-27035010D01*
X39177311Y-27035012D01*
X39007878Y-27166888D01*
X39007872Y-27166893D01*
X39003760Y-27170094D01*
X39000237Y-27173919D01*
X39000227Y-27173930D01*
X38854806Y-27331899D01*
X38854802Y-27331902D01*
X38851278Y-27335732D01*
X38848430Y-27340090D01*
X38848427Y-27340095D01*
X38730992Y-27519843D01*
X38728140Y-27524209D01*
X38726048Y-27528978D01*
X38726046Y-27528982D01*
X38639799Y-27725606D01*
X38639796Y-27725614D01*
X38637704Y-27730384D01*
X38636423Y-27735440D01*
X38636422Y-27735445D01*
X38583717Y-27943573D01*
X38582436Y-27948632D01*
X38582006Y-27953820D01*
X38582005Y-27953827D01*
X38570188Y-28096443D01*
X38563844Y-28173000D01*
X38564274Y-28178189D01*
X38580132Y-28369570D01*
X38582436Y-28397368D01*
X38583717Y-28402426D01*
X38618329Y-28539108D01*
X38637704Y-28615616D01*
X38728140Y-28821791D01*
X38851278Y-29010268D01*
X38854806Y-29014100D01*
X39000227Y-29172069D01*
X39000231Y-29172073D01*
X39003760Y-29175906D01*
X39181424Y-29314189D01*
X39186002Y-29316666D01*
X39186009Y-29316671D01*
X39214680Y-29332187D01*
X39262951Y-29378503D01*
X39280710Y-29443000D01*
X39262951Y-29507497D01*
X39214680Y-29553813D01*
X39186009Y-29569328D01*
X39185993Y-29569338D01*
X39181424Y-29571811D01*
X39177313Y-29575010D01*
X39177311Y-29575012D01*
X39007878Y-29706888D01*
X39007872Y-29706893D01*
X39003760Y-29710094D01*
X39000237Y-29713919D01*
X39000227Y-29713930D01*
X38854806Y-29871899D01*
X38854802Y-29871902D01*
X38851278Y-29875732D01*
X38848430Y-29880090D01*
X38848427Y-29880095D01*
X38734069Y-30055134D01*
X38728140Y-30064209D01*
X38726048Y-30068978D01*
X38726046Y-30068982D01*
X38639799Y-30265606D01*
X38639796Y-30265614D01*
X38637704Y-30270384D01*
X38636423Y-30275440D01*
X38636422Y-30275445D01*
X38624746Y-30321553D01*
X38582436Y-30488632D01*
X38582006Y-30493820D01*
X38582005Y-30493827D01*
X38577577Y-30547265D01*
X38563844Y-30713000D01*
X38564274Y-30718189D01*
X38581297Y-30923631D01*
X38582436Y-30937368D01*
X38583717Y-30942426D01*
X38634145Y-31141564D01*
X38637704Y-31155616D01*
X38639797Y-31160389D01*
X38639799Y-31160393D01*
X38698603Y-31294452D01*
X38728140Y-31361791D01*
X38851278Y-31550268D01*
X38854806Y-31554100D01*
X39000227Y-31712069D01*
X39000231Y-31712073D01*
X39003760Y-31715906D01*
X39181424Y-31854189D01*
X39186002Y-31856666D01*
X39186009Y-31856671D01*
X39214680Y-31872187D01*
X39262951Y-31918503D01*
X39280710Y-31983000D01*
X39262951Y-32047497D01*
X39214680Y-32093813D01*
X39186009Y-32109328D01*
X39185993Y-32109338D01*
X39181424Y-32111811D01*
X39177313Y-32115010D01*
X39177311Y-32115012D01*
X39007878Y-32246888D01*
X39007872Y-32246893D01*
X39003760Y-32250094D01*
X39000231Y-32253926D01*
X39000227Y-32253931D01*
X38915620Y-32345838D01*
X38873532Y-32375888D01*
X38822919Y-32386500D01*
X37267243Y-32386500D01*
X37205346Y-32370248D01*
X37159415Y-32325686D01*
X37150758Y-32311366D01*
X37146816Y-32304845D01*
X37025155Y-32183184D01*
X36907090Y-32111811D01*
X36884436Y-32098116D01*
X36884434Y-32098115D01*
X36877913Y-32094173D01*
X36728122Y-32047497D01*
X36720013Y-32044970D01*
X36720012Y-32044969D01*
X36713649Y-32042987D01*
X36707016Y-32042384D01*
X36707010Y-32042383D01*
X36645114Y-32036758D01*
X36645094Y-32036757D01*
X36642265Y-32036500D01*
X36639403Y-32036500D01*
X36130599Y-32036500D01*
X36130577Y-32036500D01*
X36127736Y-32036501D01*
X36124887Y-32036759D01*
X36124883Y-32036760D01*
X36062988Y-32042383D01*
X36062979Y-32042384D01*
X36056351Y-32042987D01*
X36049993Y-32044968D01*
X36049989Y-32044969D01*
X35899364Y-32091905D01*
X35899360Y-32091906D01*
X35892087Y-32094173D01*
X35885568Y-32098113D01*
X35885563Y-32098116D01*
X35751368Y-32179240D01*
X35751364Y-32179243D01*
X35744845Y-32183184D01*
X35739456Y-32188572D01*
X35739452Y-32188576D01*
X35648741Y-32279288D01*
X35592257Y-32311900D01*
X35527035Y-32311900D01*
X35470551Y-32279288D01*
X35380236Y-32188973D01*
X35368320Y-32179637D01*
X35234225Y-32098574D01*
X35220434Y-32092367D01*
X35069918Y-32045464D01*
X35056921Y-32042878D01*
X35002205Y-32037906D01*
X34992506Y-32040506D01*
X34989000Y-32053590D01*
X34989000Y-33986409D01*
X34992506Y-33999492D01*
X35002205Y-34002092D01*
X35056912Y-33997121D01*
X35069926Y-33994533D01*
X35220434Y-33947632D01*
X35234225Y-33941425D01*
X35368320Y-33860362D01*
X35380236Y-33851026D01*
X35470551Y-33760712D01*
X35527035Y-33728100D01*
X35592257Y-33728100D01*
X35648741Y-33760712D01*
X35744845Y-33856816D01*
X35892087Y-33945827D01*
X36056351Y-33997013D01*
X36127735Y-34003500D01*
X36642264Y-34003499D01*
X36713649Y-33997013D01*
X36877913Y-33945827D01*
X37025155Y-33856816D01*
X37146816Y-33735155D01*
X37159414Y-33714314D01*
X37205346Y-33669752D01*
X37267243Y-33653500D01*
X38536910Y-33653500D01*
X38584325Y-33662762D01*
X38624770Y-33689186D01*
X38652297Y-33728886D01*
X38728140Y-33901791D01*
X38851278Y-34090268D01*
X38854806Y-34094100D01*
X38994840Y-34246217D01*
X39024077Y-34299821D01*
X39024680Y-34360877D01*
X38996506Y-34415047D01*
X38946172Y-34449610D01*
X38839484Y-34489403D01*
X38823824Y-34497954D01*
X38721307Y-34574697D01*
X38708697Y-34587307D01*
X38631954Y-34689824D01*
X38623405Y-34705480D01*
X38578259Y-34826521D01*
X38574662Y-34841742D01*
X38569359Y-34891061D01*
X38569000Y-34897777D01*
X38569000Y-35522410D01*
X38572506Y-35535493D01*
X38585590Y-35539000D01*
X41268410Y-35539000D01*
X41281493Y-35535493D01*
X41285000Y-35522410D01*
X41285000Y-34949500D01*
X41301881Y-34886500D01*
X41348000Y-34840381D01*
X41411000Y-34823500D01*
X43975500Y-34823500D01*
X44038500Y-34840381D01*
X44084619Y-34886500D01*
X44101500Y-34949500D01*
X44101500Y-35369400D01*
X44101500Y-35369421D01*
X44101501Y-35372264D01*
X44101759Y-35375113D01*
X44101760Y-35375116D01*
X44107383Y-35437011D01*
X44107384Y-35437019D01*
X44107987Y-35443649D01*
X44109968Y-35450008D01*
X44109969Y-35450010D01*
X44156905Y-35600635D01*
X44159173Y-35607913D01*
X44163115Y-35614434D01*
X44163116Y-35614436D01*
X44224585Y-35716118D01*
X44248184Y-35755155D01*
X44253575Y-35760546D01*
X44253576Y-35760547D01*
X44281434Y-35788405D01*
X44314046Y-35844889D01*
X44314046Y-35910111D01*
X44281434Y-35966595D01*
X44253576Y-35994452D01*
X44253572Y-35994456D01*
X44248184Y-35999845D01*
X44244243Y-36006364D01*
X44244240Y-36006368D01*
X44163116Y-36140563D01*
X44163113Y-36140568D01*
X44159173Y-36147087D01*
X44156906Y-36154360D01*
X44156904Y-36154366D01*
X44128356Y-36245984D01*
X44102374Y-36292053D01*
X44059773Y-36323399D01*
X44008061Y-36334500D01*
X41411000Y-36334500D01*
X41348000Y-36317619D01*
X41301881Y-36271500D01*
X41285000Y-36208500D01*
X41285000Y-36063590D01*
X41281493Y-36050506D01*
X41268410Y-36047000D01*
X38585590Y-36047000D01*
X38572506Y-36050506D01*
X38569000Y-36063590D01*
X38569000Y-36208500D01*
X38552119Y-36271500D01*
X38506000Y-36317619D01*
X38443000Y-36334500D01*
X36975768Y-36334500D01*
X36964584Y-36333972D01*
X36957092Y-36332298D01*
X36949166Y-36332547D01*
X36889002Y-36334438D01*
X36885044Y-36334500D01*
X36857144Y-36334500D01*
X36853219Y-36334995D01*
X36853198Y-36334997D01*
X36853124Y-36335007D01*
X36841313Y-36335936D01*
X36805034Y-36337076D01*
X36805026Y-36337077D01*
X36797111Y-36337326D01*
X36789500Y-36339536D01*
X36789493Y-36339538D01*
X36777648Y-36342979D01*
X36758303Y-36346985D01*
X36746072Y-36348530D01*
X36746059Y-36348533D01*
X36738203Y-36349526D01*
X36730839Y-36352441D01*
X36730829Y-36352444D01*
X36697092Y-36365802D01*
X36685865Y-36369646D01*
X36651018Y-36379770D01*
X36651013Y-36379772D01*
X36643407Y-36381982D01*
X36636590Y-36386012D01*
X36636581Y-36386017D01*
X36625960Y-36392298D01*
X36608221Y-36400989D01*
X36596749Y-36405531D01*
X36596746Y-36405532D01*
X36589383Y-36408448D01*
X36582976Y-36413102D01*
X36582972Y-36413105D01*
X36553611Y-36434437D01*
X36543693Y-36440951D01*
X36512465Y-36459419D01*
X36512457Y-36459425D01*
X36505638Y-36463458D01*
X36500036Y-36469058D01*
X36500029Y-36469065D01*
X36491308Y-36477786D01*
X36476287Y-36490615D01*
X36466307Y-36497866D01*
X36466298Y-36497873D01*
X36459893Y-36502528D01*
X36454845Y-36508628D01*
X36454836Y-36508638D01*
X36431700Y-36536604D01*
X36423713Y-36545381D01*
X35714497Y-37254597D01*
X35673623Y-37281909D01*
X35625405Y-37291500D01*
X34823498Y-37291500D01*
X34821050Y-37291692D01*
X34821041Y-37291693D01*
X34792579Y-37293933D01*
X34792574Y-37293933D01*
X34786169Y-37294438D01*
X34779997Y-37296231D01*
X34779992Y-37296232D01*
X34634011Y-37338643D01*
X34634007Y-37338644D01*
X34626399Y-37340855D01*
X34619578Y-37344888D01*
X34619573Y-37344891D01*
X34490020Y-37421509D01*
X34490017Y-37421511D01*
X34483193Y-37425547D01*
X34477588Y-37431151D01*
X34477584Y-37431155D01*
X34371155Y-37537584D01*
X34371151Y-37537588D01*
X34365547Y-37543193D01*
X34361511Y-37550017D01*
X34361509Y-37550020D01*
X34284891Y-37679573D01*
X34284888Y-37679578D01*
X34280855Y-37686399D01*
X34278644Y-37694007D01*
X34278643Y-37694011D01*
X34236232Y-37839992D01*
X34236231Y-37839997D01*
X34234438Y-37846169D01*
X34231500Y-37883498D01*
X34231500Y-38316502D01*
X34231692Y-38318950D01*
X34231693Y-38318958D01*
X34233671Y-38344093D01*
X34234438Y-38353831D01*
X34236231Y-38360004D01*
X34236232Y-38360007D01*
X34272357Y-38484352D01*
X34280855Y-38513601D01*
X34284890Y-38520424D01*
X34284891Y-38520426D01*
X34361329Y-38649676D01*
X34365547Y-38656807D01*
X34368481Y-38659741D01*
X34390961Y-38707515D01*
X34390961Y-38762485D01*
X34368481Y-38810258D01*
X34365547Y-38813193D01*
X34361511Y-38820015D01*
X34361508Y-38820021D01*
X34284891Y-38949573D01*
X34284888Y-38949578D01*
X34280855Y-38956399D01*
X34278644Y-38964007D01*
X34278643Y-38964011D01*
X34236232Y-39109992D01*
X34236231Y-39109997D01*
X34234438Y-39116169D01*
X34231500Y-39153498D01*
X34231500Y-39586502D01*
X34234438Y-39623831D01*
X34236231Y-39630004D01*
X34236232Y-39630007D01*
X34278643Y-39775988D01*
X34280855Y-39783601D01*
X34284890Y-39790424D01*
X34284891Y-39790426D01*
X34334275Y-39873930D01*
X34365547Y-39926807D01*
X34368481Y-39929741D01*
X34390961Y-39977515D01*
X34390961Y-40032485D01*
X34368481Y-40080258D01*
X34365547Y-40083193D01*
X34361511Y-40090015D01*
X34361508Y-40090021D01*
X34284891Y-40219573D01*
X34284888Y-40219578D01*
X34280855Y-40226399D01*
X34278644Y-40234007D01*
X34278643Y-40234011D01*
X34236232Y-40379992D01*
X34236231Y-40379997D01*
X34234438Y-40386169D01*
X34233933Y-40392574D01*
X34233933Y-40392579D01*
X34233144Y-40402605D01*
X34231500Y-40423498D01*
X34231500Y-40856502D01*
X34231692Y-40858950D01*
X34231693Y-40858958D01*
X34233933Y-40887420D01*
X34233933Y-40887424D01*
X34234438Y-40893831D01*
X34236231Y-40900004D01*
X34236232Y-40900007D01*
X34276915Y-41040039D01*
X34280855Y-41053601D01*
X34284890Y-41060424D01*
X34284891Y-41060426D01*
X34309723Y-41102415D01*
X34365547Y-41196807D01*
X34368481Y-41199741D01*
X34390961Y-41247515D01*
X34390961Y-41302485D01*
X34368481Y-41350258D01*
X34365547Y-41353193D01*
X34361511Y-41360015D01*
X34361508Y-41360021D01*
X34284891Y-41489573D01*
X34284888Y-41489578D01*
X34280855Y-41496399D01*
X34278644Y-41504007D01*
X34278643Y-41504011D01*
X34236232Y-41649992D01*
X34236231Y-41649997D01*
X34234438Y-41656169D01*
X34231500Y-41693498D01*
X34231500Y-42126502D01*
X34231692Y-42128950D01*
X34231693Y-42128958D01*
X34233932Y-42157411D01*
X34234438Y-42163831D01*
X34236231Y-42170004D01*
X34236232Y-42170007D01*
X34276855Y-42309833D01*
X34280855Y-42323601D01*
X34284890Y-42330424D01*
X34284891Y-42330426D01*
X34361509Y-42459980D01*
X34361511Y-42459982D01*
X34365547Y-42466807D01*
X34368479Y-42469739D01*
X34390960Y-42517509D01*
X34390962Y-42572480D01*
X34368482Y-42620257D01*
X34365547Y-42623193D01*
X34361510Y-42630018D01*
X34361510Y-42630019D01*
X34284891Y-42759573D01*
X34284888Y-42759578D01*
X34280855Y-42766399D01*
X34278644Y-42774007D01*
X34278643Y-42774011D01*
X34236232Y-42919992D01*
X34236231Y-42919997D01*
X34234438Y-42926169D01*
X34231500Y-42963498D01*
X34231500Y-42965968D01*
X34231500Y-43338655D01*
X34221909Y-43386873D01*
X34194595Y-43427750D01*
X32598595Y-45023749D01*
X32548436Y-45054487D01*
X32489789Y-45059103D01*
X32435439Y-45036590D01*
X32397233Y-44991857D01*
X32383500Y-44934654D01*
X32383500Y-34876767D01*
X32384027Y-34865583D01*
X32385702Y-34858091D01*
X32383561Y-34790000D01*
X32383500Y-34786043D01*
X32383500Y-34762109D01*
X32383500Y-34758144D01*
X32382995Y-34754152D01*
X32382062Y-34742305D01*
X32380674Y-34698111D01*
X32375019Y-34678647D01*
X32371013Y-34659301D01*
X32368474Y-34639203D01*
X32352199Y-34598098D01*
X32348353Y-34586865D01*
X32344744Y-34574444D01*
X32336018Y-34544407D01*
X32325708Y-34526973D01*
X32317007Y-34509213D01*
X32314716Y-34503427D01*
X32309552Y-34490383D01*
X32283565Y-34454616D01*
X32277047Y-34444693D01*
X32258578Y-34413463D01*
X32254542Y-34406638D01*
X32240217Y-34392313D01*
X32227382Y-34377286D01*
X32215472Y-34360893D01*
X32209367Y-34355842D01*
X32209360Y-34355835D01*
X32181394Y-34332700D01*
X32172615Y-34324711D01*
X31197265Y-33349361D01*
X33827001Y-33349361D01*
X33827260Y-33355077D01*
X33832878Y-33416912D01*
X33835466Y-33429926D01*
X33882367Y-33580434D01*
X33888574Y-33594225D01*
X33969637Y-33728320D01*
X33978973Y-33740236D01*
X34089763Y-33851026D01*
X34101679Y-33860362D01*
X34235774Y-33941425D01*
X34249565Y-33947632D01*
X34400081Y-33994535D01*
X34413078Y-33997121D01*
X34467794Y-34002093D01*
X34477493Y-33999493D01*
X34481000Y-33986410D01*
X34481000Y-33290590D01*
X34477493Y-33277506D01*
X34464410Y-33274000D01*
X33843591Y-33274000D01*
X33830507Y-33277506D01*
X33827001Y-33290590D01*
X33827001Y-33349361D01*
X31197265Y-33349361D01*
X30597314Y-32749410D01*
X33827000Y-32749410D01*
X33830506Y-32762493D01*
X33843590Y-32766000D01*
X34464410Y-32766000D01*
X34477493Y-32762493D01*
X34481000Y-32749410D01*
X34481000Y-32053591D01*
X34477493Y-32040507D01*
X34467794Y-32037907D01*
X34413087Y-32042878D01*
X34400073Y-32045466D01*
X34249565Y-32092367D01*
X34235774Y-32098574D01*
X34101679Y-32179637D01*
X34089763Y-32188973D01*
X33978973Y-32299763D01*
X33969637Y-32311679D01*
X33888574Y-32445774D01*
X33882367Y-32459565D01*
X33835464Y-32610081D01*
X33832878Y-32623078D01*
X33827258Y-32684925D01*
X33827000Y-32690637D01*
X33827000Y-32749410D01*
X30597314Y-32749410D01*
X28189646Y-30341741D01*
X28182112Y-30333463D01*
X28178000Y-30326982D01*
X28128348Y-30280356D01*
X28125506Y-30277601D01*
X28108574Y-30260669D01*
X28105770Y-30257865D01*
X28102575Y-30255386D01*
X28093554Y-30247682D01*
X28067097Y-30222838D01*
X28061321Y-30217414D01*
X28054377Y-30213596D01*
X28054371Y-30213592D01*
X28043566Y-30207652D01*
X28027047Y-30196801D01*
X28011041Y-30184386D01*
X28003766Y-30181238D01*
X28003763Y-30181236D01*
X27970466Y-30166828D01*
X27959804Y-30161605D01*
X27928007Y-30144124D01*
X27928005Y-30144123D01*
X27921060Y-30140305D01*
X27913383Y-30138334D01*
X27913381Y-30138333D01*
X27901438Y-30135267D01*
X27882734Y-30128863D01*
X27871420Y-30123967D01*
X27871418Y-30123966D01*
X27864145Y-30120819D01*
X27856319Y-30119579D01*
X27856318Y-30119579D01*
X27820475Y-30113902D01*
X27808859Y-30111496D01*
X27766030Y-30100500D01*
X27758101Y-30100500D01*
X27745776Y-30100500D01*
X27726065Y-30098949D01*
X27713885Y-30097019D01*
X27713878Y-30097018D01*
X27706057Y-30095780D01*
X27698173Y-30096525D01*
X27698165Y-30096525D01*
X27662039Y-30099941D01*
X27650181Y-30100500D01*
X25204700Y-30100500D01*
X25153453Y-30089608D01*
X25117775Y-30063687D01*
X25117080Y-30064460D01*
X25112167Y-30060037D01*
X25107753Y-30055134D01*
X25080865Y-30035599D01*
X25056108Y-30017612D01*
X24953252Y-29942882D01*
X24778788Y-29865206D01*
X24772335Y-29863834D01*
X24772331Y-29863833D01*
X24598443Y-29826872D01*
X24598440Y-29826871D01*
X24591987Y-29825500D01*
X24585384Y-29825500D01*
X24531500Y-29825500D01*
X24468500Y-29808619D01*
X24422381Y-29762500D01*
X24405500Y-29699500D01*
X24405500Y-28215067D01*
X24406027Y-28203883D01*
X24407702Y-28196391D01*
X24405561Y-28128300D01*
X24405500Y-28124343D01*
X24405500Y-28100408D01*
X24405500Y-28096443D01*
X24404995Y-28092451D01*
X24404062Y-28080604D01*
X24402674Y-28036410D01*
X24397017Y-28016941D01*
X24393013Y-27997601D01*
X24390474Y-27977502D01*
X24374200Y-27936398D01*
X24370356Y-27925171D01*
X24360230Y-27890316D01*
X24360229Y-27890315D01*
X24358019Y-27882706D01*
X24347703Y-27865263D01*
X24339005Y-27847508D01*
X24331552Y-27828682D01*
X24305561Y-27792908D01*
X24299055Y-27783004D01*
X24276542Y-27744937D01*
X24262218Y-27730613D01*
X24249382Y-27715585D01*
X24237472Y-27699192D01*
X24231367Y-27694141D01*
X24231360Y-27694134D01*
X24203394Y-27670999D01*
X24194615Y-27663010D01*
X23202351Y-26670745D01*
X23170200Y-26615934D01*
X23168887Y-26552403D01*
X23198744Y-26496314D01*
X23222722Y-26470268D01*
X23345860Y-26281791D01*
X23436296Y-26075616D01*
X23491564Y-25857368D01*
X23510156Y-25633000D01*
X23491564Y-25408632D01*
X23463817Y-25299063D01*
X23464482Y-25234683D01*
X23496865Y-25179039D01*
X23547501Y-25128403D01*
X23588379Y-25101091D01*
X23636596Y-25091500D01*
X38500860Y-25091500D01*
X38556199Y-25104303D01*
G37*
%TD.AperFunction*%
%TA.AperFunction,Conductor*%
G36*
X41468758Y-25854662D02*
G01*
X44414595Y-28800499D01*
X44441909Y-28841376D01*
X44451500Y-28889594D01*
X44451500Y-29407757D01*
X44435248Y-29469654D01*
X44390686Y-29515585D01*
X44376366Y-29524241D01*
X44376360Y-29524245D01*
X44369845Y-29528184D01*
X44364458Y-29533570D01*
X44364454Y-29533574D01*
X44253576Y-29644452D01*
X44253572Y-29644456D01*
X44248184Y-29649845D01*
X44244243Y-29656364D01*
X44244240Y-29656368D01*
X44163116Y-29790563D01*
X44163113Y-29790568D01*
X44159173Y-29797087D01*
X44156906Y-29804360D01*
X44156905Y-29804364D01*
X44109970Y-29954986D01*
X44107987Y-29961351D01*
X44107384Y-29967981D01*
X44107383Y-29967989D01*
X44101758Y-30029885D01*
X44101757Y-30029906D01*
X44101500Y-30032735D01*
X44101500Y-30035595D01*
X44101500Y-30035596D01*
X44101500Y-30544400D01*
X44101500Y-30544421D01*
X44101501Y-30547264D01*
X44101759Y-30550113D01*
X44101760Y-30550116D01*
X44107383Y-30612011D01*
X44107384Y-30612019D01*
X44107987Y-30618649D01*
X44109968Y-30625008D01*
X44109969Y-30625010D01*
X44139004Y-30718189D01*
X44159173Y-30782913D01*
X44248184Y-30930155D01*
X44253575Y-30935546D01*
X44253576Y-30935547D01*
X44343934Y-31025905D01*
X44376546Y-31082389D01*
X44376546Y-31147611D01*
X44343934Y-31204095D01*
X44253576Y-31294452D01*
X44253572Y-31294456D01*
X44248184Y-31299845D01*
X44244243Y-31306364D01*
X44244240Y-31306368D01*
X44163116Y-31440563D01*
X44163113Y-31440568D01*
X44159173Y-31447087D01*
X44156906Y-31454360D01*
X44156905Y-31454364D01*
X44111490Y-31600108D01*
X44107987Y-31611351D01*
X44107384Y-31617981D01*
X44107383Y-31617989D01*
X44101758Y-31679885D01*
X44101757Y-31679906D01*
X44101500Y-31682735D01*
X44101500Y-31685595D01*
X44101500Y-31685596D01*
X44101500Y-32194400D01*
X44101500Y-32194421D01*
X44101501Y-32197264D01*
X44101759Y-32200113D01*
X44101760Y-32200116D01*
X44107383Y-32262011D01*
X44107384Y-32262019D01*
X44107987Y-32268649D01*
X44109968Y-32275008D01*
X44109969Y-32275010D01*
X44144710Y-32386500D01*
X44159173Y-32432913D01*
X44163115Y-32439434D01*
X44163116Y-32439436D01*
X44244161Y-32573500D01*
X44248184Y-32580155D01*
X44253576Y-32585547D01*
X44281788Y-32613759D01*
X44314400Y-32670243D01*
X44314400Y-32735465D01*
X44281788Y-32791949D01*
X44253973Y-32819763D01*
X44244637Y-32831679D01*
X44163574Y-32965774D01*
X44157367Y-32979565D01*
X44110464Y-33130081D01*
X44107878Y-33143078D01*
X44102906Y-33197794D01*
X44105506Y-33207493D01*
X44118590Y-33211000D01*
X46051409Y-33211000D01*
X46064492Y-33207493D01*
X46067092Y-33197794D01*
X46062121Y-33143087D01*
X46059533Y-33130073D01*
X46012632Y-32979565D01*
X46006425Y-32965774D01*
X45925362Y-32831679D01*
X45916026Y-32819763D01*
X45888212Y-32791949D01*
X45855600Y-32735465D01*
X45855600Y-32670243D01*
X45888212Y-32613759D01*
X45891566Y-32610405D01*
X45932443Y-32583091D01*
X45980661Y-32573500D01*
X53850406Y-32573500D01*
X53898624Y-32583091D01*
X53939501Y-32610405D01*
X56202877Y-34873781D01*
X56227508Y-34908631D01*
X56239092Y-34949705D01*
X56250727Y-35060405D01*
X56256458Y-35114928D01*
X56258495Y-35121200D01*
X56258497Y-35121205D01*
X56313430Y-35290271D01*
X56313433Y-35290278D01*
X56315473Y-35296556D01*
X56410960Y-35461944D01*
X56538747Y-35603866D01*
X56693248Y-35716118D01*
X56867712Y-35793794D01*
X57054513Y-35833500D01*
X57238884Y-35833500D01*
X57245487Y-35833500D01*
X57432288Y-35793794D01*
X57437138Y-35791634D01*
X57495208Y-35787063D01*
X57549560Y-35809575D01*
X57587766Y-35854308D01*
X57601500Y-35911512D01*
X57601500Y-43701406D01*
X57587767Y-43758609D01*
X57549561Y-43803342D01*
X57495211Y-43825855D01*
X57436564Y-43821239D01*
X57386405Y-43790501D01*
X52480186Y-38884282D01*
X47393646Y-33797741D01*
X47386112Y-33789463D01*
X47382000Y-33782982D01*
X47332348Y-33736356D01*
X47329506Y-33733601D01*
X47312574Y-33716669D01*
X47312573Y-33716668D01*
X47309770Y-33713865D01*
X47306575Y-33711386D01*
X47297554Y-33703682D01*
X47294051Y-33700393D01*
X47265321Y-33673414D01*
X47258377Y-33669596D01*
X47258371Y-33669592D01*
X47247566Y-33663652D01*
X47231047Y-33652801D01*
X47215041Y-33640386D01*
X47207766Y-33637238D01*
X47207763Y-33637236D01*
X47174466Y-33622828D01*
X47163804Y-33617605D01*
X47132007Y-33600124D01*
X47132005Y-33600123D01*
X47125060Y-33596305D01*
X47117383Y-33594334D01*
X47117381Y-33594333D01*
X47105438Y-33591267D01*
X47086734Y-33584863D01*
X47075420Y-33579967D01*
X47075418Y-33579966D01*
X47068145Y-33576819D01*
X47060319Y-33575579D01*
X47060318Y-33575579D01*
X47024475Y-33569902D01*
X47012859Y-33567496D01*
X46970030Y-33556500D01*
X46962101Y-33556500D01*
X46949776Y-33556500D01*
X46930065Y-33554949D01*
X46917885Y-33553019D01*
X46917878Y-33553018D01*
X46910057Y-33551780D01*
X46902173Y-33552525D01*
X46902165Y-33552525D01*
X46866039Y-33555941D01*
X46854181Y-33556500D01*
X41401880Y-33556500D01*
X41335897Y-33537842D01*
X41289456Y-33487393D01*
X41276310Y-33420095D01*
X41289726Y-33258189D01*
X41290156Y-33253000D01*
X41271564Y-33028632D01*
X41216296Y-32810384D01*
X41125860Y-32604209D01*
X41002722Y-32415732D01*
X40906934Y-32311679D01*
X40853772Y-32253930D01*
X40853767Y-32253925D01*
X40850240Y-32250094D01*
X40672576Y-32111811D01*
X40668002Y-32109336D01*
X40667995Y-32109331D01*
X40644405Y-32096566D01*
X40639319Y-32093813D01*
X40591048Y-32047498D01*
X40573289Y-31983000D01*
X40591048Y-31918502D01*
X40639320Y-31872186D01*
X40667990Y-31856671D01*
X40672576Y-31854189D01*
X40850240Y-31715906D01*
X41002722Y-31550268D01*
X41125860Y-31361791D01*
X41216296Y-31155616D01*
X41271564Y-30937368D01*
X41290156Y-30713000D01*
X41271564Y-30488632D01*
X41216296Y-30270384D01*
X41125860Y-30064209D01*
X41002722Y-29875732D01*
X40940940Y-29808619D01*
X40853772Y-29713930D01*
X40853767Y-29713925D01*
X40850240Y-29710094D01*
X40672576Y-29571811D01*
X40668002Y-29569336D01*
X40667995Y-29569331D01*
X40639320Y-29553814D01*
X40591048Y-29507498D01*
X40573289Y-29443000D01*
X40591048Y-29378502D01*
X40639320Y-29332186D01*
X40667990Y-29316671D01*
X40672576Y-29314189D01*
X40850240Y-29175906D01*
X41002722Y-29010268D01*
X41125860Y-28821791D01*
X41216296Y-28615616D01*
X41271564Y-28397368D01*
X41290156Y-28173000D01*
X41271564Y-27948632D01*
X41216296Y-27730384D01*
X41125860Y-27524209D01*
X41002722Y-27335732D01*
X40927104Y-27253590D01*
X40853772Y-27173930D01*
X40853767Y-27173925D01*
X40850240Y-27170094D01*
X40672576Y-27031811D01*
X40668002Y-27029336D01*
X40667995Y-27029331D01*
X40639320Y-27013814D01*
X40591048Y-26967498D01*
X40573289Y-26903000D01*
X40591048Y-26838502D01*
X40639320Y-26792186D01*
X40667990Y-26776671D01*
X40672576Y-26774189D01*
X40850240Y-26635906D01*
X41002722Y-26470268D01*
X41125860Y-26281791D01*
X41216296Y-26075616D01*
X41257521Y-25912821D01*
X41289651Y-25855587D01*
X41346214Y-25822278D01*
X41411855Y-25821939D01*
X41468758Y-25854662D01*
G37*
%TD.AperFunction*%
%TA.AperFunction,Conductor*%
G36*
X27419624Y-31377091D02*
G01*
X27460501Y-31404405D01*
X29749037Y-33692942D01*
X29781300Y-33748153D01*
X29782305Y-33812092D01*
X29751792Y-33868290D01*
X29697621Y-33902271D01*
X29633745Y-33905284D01*
X29565943Y-33890872D01*
X29565940Y-33890871D01*
X29559487Y-33889500D01*
X29368513Y-33889500D01*
X29362060Y-33890871D01*
X29362056Y-33890872D01*
X29188168Y-33927833D01*
X29188161Y-33927835D01*
X29181712Y-33929206D01*
X29175682Y-33931890D01*
X29175681Y-33931891D01*
X29013278Y-34004197D01*
X29013275Y-34004198D01*
X29007248Y-34006882D01*
X29001907Y-34010762D01*
X29001906Y-34010763D01*
X28858091Y-34115250D01*
X28858083Y-34115256D01*
X28852747Y-34119134D01*
X28848330Y-34124039D01*
X28848325Y-34124044D01*
X28738321Y-34246217D01*
X28724960Y-34261056D01*
X28721661Y-34266769D01*
X28721658Y-34266774D01*
X28636053Y-34415047D01*
X28629473Y-34426444D01*
X28627434Y-34432718D01*
X28627430Y-34432728D01*
X28572497Y-34601794D01*
X28572495Y-34601801D01*
X28570458Y-34608072D01*
X28569768Y-34614633D01*
X28569768Y-34614635D01*
X28556350Y-34742305D01*
X28550496Y-34798000D01*
X28570458Y-34987928D01*
X28572495Y-34994200D01*
X28572497Y-34994205D01*
X28627430Y-35163271D01*
X28627433Y-35163278D01*
X28629473Y-35169556D01*
X28724960Y-35334944D01*
X28798138Y-35416216D01*
X28822131Y-35455370D01*
X28830500Y-35500524D01*
X28830500Y-37753156D01*
X28820909Y-37801374D01*
X28793597Y-37842248D01*
X28495990Y-38139856D01*
X28207642Y-38428204D01*
X28156257Y-38459333D01*
X28096297Y-38463128D01*
X28041397Y-38438727D01*
X28004037Y-38391676D01*
X28001095Y-38376351D01*
X27992582Y-38356890D01*
X27980333Y-38354000D01*
X24949667Y-38354000D01*
X24938512Y-38356631D01*
X24939097Y-38368080D01*
X24979107Y-38505789D01*
X24985352Y-38520221D01*
X25061910Y-38649676D01*
X25067871Y-38657360D01*
X25091277Y-38707097D01*
X25091280Y-38762066D01*
X25068718Y-38810021D01*
X25065547Y-38813193D01*
X25061513Y-38820012D01*
X25061512Y-38820015D01*
X24984891Y-38949573D01*
X24984888Y-38949578D01*
X24980855Y-38956399D01*
X24978644Y-38964007D01*
X24978643Y-38964011D01*
X24936232Y-39109992D01*
X24936231Y-39109997D01*
X24934438Y-39116169D01*
X24931500Y-39153498D01*
X24931500Y-39586502D01*
X24934438Y-39623831D01*
X24936231Y-39630004D01*
X24936232Y-39630007D01*
X24978643Y-39775988D01*
X24980855Y-39783601D01*
X24984890Y-39790424D01*
X24984891Y-39790426D01*
X25034275Y-39873930D01*
X25065547Y-39926807D01*
X25068481Y-39929741D01*
X25090961Y-39977515D01*
X25090961Y-40032485D01*
X25068481Y-40080258D01*
X25065547Y-40083193D01*
X25061511Y-40090015D01*
X25061508Y-40090021D01*
X24984891Y-40219573D01*
X24984888Y-40219578D01*
X24980855Y-40226399D01*
X24978644Y-40234007D01*
X24978643Y-40234011D01*
X24936232Y-40379992D01*
X24936231Y-40379997D01*
X24934438Y-40386169D01*
X24933933Y-40392574D01*
X24933933Y-40392579D01*
X24933144Y-40402605D01*
X24931500Y-40423498D01*
X24931500Y-40856502D01*
X24931692Y-40858950D01*
X24931693Y-40858958D01*
X24933933Y-40887422D01*
X24933934Y-40887427D01*
X24934438Y-40893831D01*
X24935727Y-40898268D01*
X24930797Y-40961701D01*
X24894786Y-41015025D01*
X24837142Y-41043616D01*
X24778968Y-41040357D01*
X24778788Y-41041206D01*
X24773300Y-41040039D01*
X24773296Y-41040038D01*
X24772343Y-41039836D01*
X24772337Y-41039834D01*
X24598443Y-41002872D01*
X24598440Y-41002871D01*
X24591987Y-41001500D01*
X24585384Y-41001500D01*
X24531500Y-41001500D01*
X24468500Y-40984619D01*
X24422381Y-40938500D01*
X24405500Y-40875500D01*
X24405500Y-37843368D01*
X24938512Y-37843368D01*
X24949667Y-37846000D01*
X26194410Y-37846000D01*
X26207493Y-37842493D01*
X26211000Y-37829410D01*
X26719000Y-37829410D01*
X26722506Y-37842493D01*
X26735590Y-37846000D01*
X27980333Y-37846000D01*
X27991487Y-37843368D01*
X27990902Y-37831919D01*
X27950892Y-37694210D01*
X27944647Y-37679778D01*
X27868088Y-37550322D01*
X27858449Y-37537896D01*
X27752103Y-37431550D01*
X27739677Y-37421911D01*
X27610221Y-37345352D01*
X27595789Y-37339107D01*
X27449935Y-37296731D01*
X27437333Y-37294429D01*
X27408915Y-37292193D01*
X27403986Y-37292000D01*
X26735590Y-37292000D01*
X26722506Y-37295506D01*
X26719000Y-37308590D01*
X26719000Y-37829410D01*
X26211000Y-37829410D01*
X26211000Y-37308591D01*
X26207493Y-37295507D01*
X26194410Y-37292001D01*
X25526017Y-37292001D01*
X25521080Y-37292194D01*
X25492663Y-37294430D01*
X25480068Y-37296730D01*
X25334210Y-37339107D01*
X25319778Y-37345352D01*
X25190322Y-37421911D01*
X25177896Y-37431550D01*
X25071550Y-37537896D01*
X25061911Y-37550322D01*
X24985352Y-37679778D01*
X24979107Y-37694210D01*
X24939097Y-37831919D01*
X24938512Y-37843368D01*
X24405500Y-37843368D01*
X24405500Y-31768500D01*
X24422381Y-31705500D01*
X24468500Y-31659381D01*
X24531500Y-31642500D01*
X24585384Y-31642500D01*
X24591987Y-31642500D01*
X24778788Y-31602794D01*
X24953252Y-31525118D01*
X25107753Y-31412866D01*
X25112169Y-31407961D01*
X25117080Y-31403540D01*
X25117775Y-31404312D01*
X25153453Y-31378392D01*
X25204700Y-31367500D01*
X27371406Y-31367500D01*
X27419624Y-31377091D01*
G37*
%TD.AperFunction*%
%TA.AperFunction,Conductor*%
G36*
X20914462Y-18626776D02*
G01*
X20946605Y-18662793D01*
X20948140Y-18661791D01*
X21071278Y-18850268D01*
X21074806Y-18854100D01*
X21220227Y-19012069D01*
X21220231Y-19012073D01*
X21223760Y-19015906D01*
X21401424Y-19154189D01*
X21434680Y-19172186D01*
X21482950Y-19218499D01*
X21500710Y-19282996D01*
X21482953Y-19347494D01*
X21434683Y-19393811D01*
X21406005Y-19409331D01*
X21405997Y-19409336D01*
X21401424Y-19411811D01*
X21397313Y-19415010D01*
X21397311Y-19415012D01*
X21227878Y-19546888D01*
X21227872Y-19546893D01*
X21223760Y-19550094D01*
X21220237Y-19553919D01*
X21220227Y-19553930D01*
X21074806Y-19711899D01*
X21074802Y-19711902D01*
X21071278Y-19715732D01*
X21068430Y-19720090D01*
X21068427Y-19720095D01*
X20950992Y-19899843D01*
X20948140Y-19904209D01*
X20946048Y-19908978D01*
X20946046Y-19908982D01*
X20859799Y-20105606D01*
X20859796Y-20105614D01*
X20857704Y-20110384D01*
X20856423Y-20115440D01*
X20856422Y-20115445D01*
X20809742Y-20299782D01*
X20802436Y-20328632D01*
X20802006Y-20333820D01*
X20802005Y-20333827D01*
X20791231Y-20463855D01*
X20783844Y-20553000D01*
X20784274Y-20558189D01*
X20800341Y-20752092D01*
X20802436Y-20777368D01*
X20803717Y-20782426D01*
X20830182Y-20886934D01*
X20829517Y-20951314D01*
X20797133Y-21006960D01*
X20435742Y-21368351D01*
X20427459Y-21375888D01*
X20420982Y-21380000D01*
X20415559Y-21385774D01*
X20415560Y-21385774D01*
X20374370Y-21429636D01*
X20371621Y-21432472D01*
X20354667Y-21449427D01*
X20354660Y-21449434D01*
X20351865Y-21452230D01*
X20349442Y-21455352D01*
X20349426Y-21455371D01*
X20349365Y-21455451D01*
X20341690Y-21464435D01*
X20316838Y-21490902D01*
X20316835Y-21490904D01*
X20311414Y-21496679D01*
X20307600Y-21503614D01*
X20307592Y-21503627D01*
X20301650Y-21514436D01*
X20290803Y-21530949D01*
X20283243Y-21540695D01*
X20283237Y-21540704D01*
X20278386Y-21546959D01*
X20275242Y-21554223D01*
X20275238Y-21554231D01*
X20260824Y-21587540D01*
X20255604Y-21598195D01*
X20238125Y-21629989D01*
X20238121Y-21629997D01*
X20234305Y-21636940D01*
X20232333Y-21644616D01*
X20232331Y-21644624D01*
X20229266Y-21656562D01*
X20222865Y-21675259D01*
X20217968Y-21686576D01*
X20217966Y-21686581D01*
X20214819Y-21693855D01*
X20213579Y-21701680D01*
X20213577Y-21701689D01*
X20207901Y-21737524D01*
X20205495Y-21749144D01*
X20196471Y-21784289D01*
X20196469Y-21784297D01*
X20194500Y-21791970D01*
X20194500Y-21799899D01*
X20194500Y-21812224D01*
X20192949Y-21831935D01*
X20191019Y-21844114D01*
X20191018Y-21844121D01*
X20189780Y-21851943D01*
X20190525Y-21859826D01*
X20190525Y-21859834D01*
X20193941Y-21895961D01*
X20194500Y-21907819D01*
X20194500Y-25896934D01*
X20193972Y-25908117D01*
X20192298Y-25915610D01*
X20192547Y-25923534D01*
X20192547Y-25923536D01*
X20194438Y-25983687D01*
X20194500Y-25987646D01*
X20194500Y-26015557D01*
X20194995Y-26019475D01*
X20194997Y-26019507D01*
X20195008Y-26019589D01*
X20195937Y-26031398D01*
X20197077Y-26067670D01*
X20197078Y-26067677D01*
X20197327Y-26075590D01*
X20199537Y-26083199D01*
X20199538Y-26083201D01*
X20202978Y-26095043D01*
X20206986Y-26114394D01*
X20209526Y-26134498D01*
X20212444Y-26141870D01*
X20212445Y-26141871D01*
X20225800Y-26175602D01*
X20229645Y-26186831D01*
X20239771Y-26221687D01*
X20239773Y-26221693D01*
X20241982Y-26229294D01*
X20246014Y-26236112D01*
X20246015Y-26236114D01*
X20252293Y-26246730D01*
X20260990Y-26264483D01*
X20268448Y-26283318D01*
X20273107Y-26289731D01*
X20273108Y-26289732D01*
X20294432Y-26319082D01*
X20300948Y-26329002D01*
X20319422Y-26360239D01*
X20323458Y-26367063D01*
X20329063Y-26372668D01*
X20337778Y-26381383D01*
X20350618Y-26396416D01*
X20362528Y-26412808D01*
X20368635Y-26417860D01*
X20368636Y-26417861D01*
X20396598Y-26440993D01*
X20405378Y-26448983D01*
X21091648Y-27135253D01*
X21123798Y-27190061D01*
X21125113Y-27253590D01*
X21095258Y-27309682D01*
X21084221Y-27321671D01*
X21071278Y-27335732D01*
X21068429Y-27340091D01*
X21068424Y-27340099D01*
X20950992Y-27519843D01*
X20948140Y-27524209D01*
X20946048Y-27528978D01*
X20946046Y-27528982D01*
X20859799Y-27725606D01*
X20859796Y-27725614D01*
X20857704Y-27730384D01*
X20856423Y-27735440D01*
X20856422Y-27735445D01*
X20803717Y-27943573D01*
X20802436Y-27948632D01*
X20802006Y-27953820D01*
X20802005Y-27953827D01*
X20790188Y-28096443D01*
X20783844Y-28173000D01*
X20784274Y-28178189D01*
X20800132Y-28369570D01*
X20802436Y-28397368D01*
X20803717Y-28402426D01*
X20838329Y-28539108D01*
X20857704Y-28615616D01*
X20948140Y-28821791D01*
X21071278Y-29010268D01*
X21074806Y-29014100D01*
X21220227Y-29172069D01*
X21220231Y-29172073D01*
X21223760Y-29175906D01*
X21401424Y-29314189D01*
X21406002Y-29316666D01*
X21406009Y-29316671D01*
X21434680Y-29332187D01*
X21482951Y-29378503D01*
X21500710Y-29443000D01*
X21482951Y-29507497D01*
X21434680Y-29553813D01*
X21406009Y-29569328D01*
X21405993Y-29569338D01*
X21401424Y-29571811D01*
X21397313Y-29575010D01*
X21397311Y-29575012D01*
X21227878Y-29706888D01*
X21227872Y-29706893D01*
X21223760Y-29710094D01*
X21220237Y-29713919D01*
X21220227Y-29713930D01*
X21074806Y-29871899D01*
X21074802Y-29871902D01*
X21071278Y-29875732D01*
X21068430Y-29880090D01*
X21068427Y-29880095D01*
X20954069Y-30055134D01*
X20948140Y-30064209D01*
X20946048Y-30068978D01*
X20946046Y-30068982D01*
X20859799Y-30265606D01*
X20859796Y-30265614D01*
X20857704Y-30270384D01*
X20856423Y-30275440D01*
X20856422Y-30275445D01*
X20844746Y-30321553D01*
X20802436Y-30488632D01*
X20802006Y-30493820D01*
X20802005Y-30493827D01*
X20797577Y-30547265D01*
X20783844Y-30713000D01*
X20784274Y-30718189D01*
X20801297Y-30923631D01*
X20802436Y-30937368D01*
X20803717Y-30942426D01*
X20854145Y-31141564D01*
X20857704Y-31155616D01*
X20859797Y-31160389D01*
X20859799Y-31160393D01*
X20918603Y-31294452D01*
X20948140Y-31361791D01*
X21071278Y-31550268D01*
X21074806Y-31554100D01*
X21220227Y-31712069D01*
X21220231Y-31712073D01*
X21223760Y-31715906D01*
X21401424Y-31854189D01*
X21406002Y-31856666D01*
X21406009Y-31856671D01*
X21434680Y-31872187D01*
X21482951Y-31918503D01*
X21500710Y-31983000D01*
X21482951Y-32047497D01*
X21434680Y-32093813D01*
X21406009Y-32109328D01*
X21405993Y-32109338D01*
X21401424Y-32111811D01*
X21397313Y-32115010D01*
X21397311Y-32115012D01*
X21227878Y-32246888D01*
X21227872Y-32246893D01*
X21223760Y-32250094D01*
X21220237Y-32253919D01*
X21220227Y-32253930D01*
X21074806Y-32411899D01*
X21074802Y-32411902D01*
X21071278Y-32415732D01*
X21068430Y-32420090D01*
X21068427Y-32420095D01*
X20963855Y-32580155D01*
X20948140Y-32604209D01*
X20946048Y-32608978D01*
X20946046Y-32608982D01*
X20859799Y-32805606D01*
X20859796Y-32805614D01*
X20857704Y-32810384D01*
X20856423Y-32815440D01*
X20856422Y-32815445D01*
X20818354Y-32965774D01*
X20802436Y-33028632D01*
X20802006Y-33033820D01*
X20802005Y-33033827D01*
X20787615Y-33207493D01*
X20783844Y-33253000D01*
X20784274Y-33258189D01*
X20800896Y-33458794D01*
X20802436Y-33477368D01*
X20857704Y-33695616D01*
X20859797Y-33700389D01*
X20859799Y-33700393D01*
X20896026Y-33782982D01*
X20948140Y-33901791D01*
X21071278Y-34090268D01*
X21074806Y-34094100D01*
X21214840Y-34246217D01*
X21244077Y-34299821D01*
X21244680Y-34360877D01*
X21216506Y-34415047D01*
X21166172Y-34449610D01*
X21059484Y-34489403D01*
X21043824Y-34497954D01*
X20941307Y-34574697D01*
X20928697Y-34587307D01*
X20851954Y-34689824D01*
X20843405Y-34705480D01*
X20798259Y-34826521D01*
X20794662Y-34841742D01*
X20789359Y-34891061D01*
X20789000Y-34897777D01*
X20789000Y-35522410D01*
X20792506Y-35535493D01*
X20805590Y-35539000D01*
X22275000Y-35539000D01*
X22338000Y-35555881D01*
X22384119Y-35602000D01*
X22401000Y-35665000D01*
X22401000Y-35921000D01*
X22384119Y-35984000D01*
X22338000Y-36030119D01*
X22275000Y-36047000D01*
X20805590Y-36047000D01*
X20792506Y-36050506D01*
X20789000Y-36063590D01*
X20789000Y-36688223D01*
X20789359Y-36694938D01*
X20794662Y-36744257D01*
X20798259Y-36759478D01*
X20843405Y-36880519D01*
X20851954Y-36896175D01*
X20928697Y-36998692D01*
X20941307Y-37011302D01*
X21043824Y-37088045D01*
X21059480Y-37096594D01*
X21166171Y-37136388D01*
X21216505Y-37170952D01*
X21244680Y-37225122D01*
X21244077Y-37286178D01*
X21214840Y-37339781D01*
X21074811Y-37491892D01*
X21074800Y-37491906D01*
X21071278Y-37495732D01*
X21068430Y-37500090D01*
X21068427Y-37500095D01*
X20950992Y-37679843D01*
X20948140Y-37684209D01*
X20946048Y-37688978D01*
X20946046Y-37688982D01*
X20859799Y-37885606D01*
X20859796Y-37885614D01*
X20857704Y-37890384D01*
X20856423Y-37895440D01*
X20856422Y-37895445D01*
X20820352Y-38037883D01*
X20802436Y-38108632D01*
X20802006Y-38113820D01*
X20802005Y-38113827D01*
X20795643Y-38190607D01*
X20783844Y-38333000D01*
X20784274Y-38338189D01*
X20801598Y-38547264D01*
X20802436Y-38557368D01*
X20818836Y-38622130D01*
X20852326Y-38754381D01*
X20857704Y-38775616D01*
X20859797Y-38780389D01*
X20859799Y-38780393D01*
X20895462Y-38861697D01*
X20948140Y-38981791D01*
X21071278Y-39170268D01*
X21074806Y-39174100D01*
X21220227Y-39332069D01*
X21220231Y-39332073D01*
X21223760Y-39335906D01*
X21401424Y-39474189D01*
X21434680Y-39492186D01*
X21482950Y-39538499D01*
X21500710Y-39602996D01*
X21482953Y-39667494D01*
X21434683Y-39713811D01*
X21406005Y-39729331D01*
X21405997Y-39729336D01*
X21401424Y-39731811D01*
X21397313Y-39735010D01*
X21397311Y-39735012D01*
X21227878Y-39866888D01*
X21227872Y-39866893D01*
X21223760Y-39870094D01*
X21220237Y-39873919D01*
X21220227Y-39873930D01*
X21074806Y-40031899D01*
X21074802Y-40031902D01*
X21071278Y-40035732D01*
X21068430Y-40040090D01*
X21068427Y-40040095D01*
X20950992Y-40219843D01*
X20948140Y-40224209D01*
X20946048Y-40228978D01*
X20946046Y-40228982D01*
X20859799Y-40425606D01*
X20859796Y-40425614D01*
X20857704Y-40430384D01*
X20856423Y-40435440D01*
X20856422Y-40435445D01*
X20844799Y-40481345D01*
X20802436Y-40648632D01*
X20802006Y-40653820D01*
X20802005Y-40653827D01*
X20784794Y-40861534D01*
X20759450Y-40927488D01*
X20702590Y-40969431D01*
X20632094Y-40974174D01*
X20570129Y-40940224D01*
X17815405Y-38185500D01*
X17788091Y-38144623D01*
X17778500Y-38096405D01*
X17778500Y-21667893D01*
X17788091Y-21619675D01*
X17815405Y-21578798D01*
X19283819Y-20110384D01*
X20753223Y-18640979D01*
X20802635Y-18610487D01*
X20860477Y-18605392D01*
X20914462Y-18626776D01*
G37*
%TD.AperFunction*%
%TA.AperFunction,Conductor*%
G36*
X27115511Y-17162207D02*
G01*
X27161956Y-17212774D01*
X27174994Y-17280185D01*
X27150752Y-17344423D01*
X27111468Y-17397537D01*
X27111459Y-17397550D01*
X27108285Y-17401843D01*
X27105875Y-17406621D01*
X27105871Y-17406629D01*
X27092940Y-17432274D01*
X27085920Y-17444455D01*
X27071869Y-17465964D01*
X27069016Y-17470331D01*
X27066930Y-17475085D01*
X27066921Y-17475103D01*
X27038663Y-17539524D01*
X27035787Y-17545632D01*
X27000343Y-17615933D01*
X26998779Y-17621039D01*
X26998776Y-17621047D01*
X26991371Y-17645225D01*
X26986286Y-17658930D01*
X26977344Y-17679318D01*
X26977339Y-17679332D01*
X26975251Y-17684093D01*
X26973975Y-17689129D01*
X26973972Y-17689140D01*
X26955859Y-17760668D01*
X26954192Y-17766630D01*
X26931705Y-17840058D01*
X26931702Y-17840069D01*
X26930136Y-17845185D01*
X26929455Y-17850495D01*
X26929456Y-17850495D01*
X26926681Y-17872159D01*
X26923848Y-17887074D01*
X26919227Y-17905323D01*
X26919225Y-17905334D01*
X26917949Y-17910374D01*
X26917519Y-17915557D01*
X26917519Y-17915560D01*
X26911141Y-17992523D01*
X26910551Y-17998119D01*
X26900360Y-18077706D01*
X26900359Y-18077712D01*
X26899682Y-18083005D01*
X26899908Y-18088336D01*
X26899908Y-18088344D01*
X26900689Y-18106741D01*
X26900372Y-18122480D01*
X26899103Y-18137804D01*
X26898673Y-18143000D01*
X26899103Y-18148190D01*
X26899103Y-18148191D01*
X26905763Y-18228577D01*
X26906079Y-18233631D01*
X26908502Y-18290672D01*
X26909857Y-18322551D01*
X26914138Y-18342418D01*
X26916533Y-18358543D01*
X26917288Y-18367661D01*
X26917949Y-18375626D01*
X26919225Y-18380668D01*
X26919227Y-18380675D01*
X26939865Y-18462174D01*
X26940892Y-18466557D01*
X26960370Y-18556932D01*
X26962365Y-18561898D01*
X26962368Y-18561906D01*
X26966659Y-18572584D01*
X26971889Y-18588629D01*
X26973970Y-18596851D01*
X26975251Y-18601907D01*
X27001958Y-18662793D01*
X27012490Y-18686803D01*
X27014014Y-18690431D01*
X27049767Y-18779404D01*
X27052575Y-18783965D01*
X27052577Y-18783968D01*
X27056802Y-18790830D01*
X27064896Y-18806277D01*
X27069016Y-18815669D01*
X27121622Y-18896189D01*
X27123363Y-18898933D01*
X27175476Y-18983569D01*
X27179006Y-18987580D01*
X27179012Y-18987588D01*
X27182066Y-18991058D01*
X27192955Y-19005374D01*
X27193834Y-19006720D01*
X27193842Y-19006731D01*
X27196686Y-19011083D01*
X27200208Y-19014909D01*
X27200216Y-19014919D01*
X27264124Y-19084340D01*
X27265982Y-19086403D01*
X27301410Y-19126657D01*
X27327820Y-19156665D01*
X27333881Y-19163551D01*
X27338949Y-19167642D01*
X27347352Y-19175518D01*
X27347414Y-19175452D01*
X27351251Y-19178984D01*
X27354780Y-19182818D01*
X27358893Y-19186019D01*
X27358896Y-19186022D01*
X27436083Y-19246099D01*
X27437762Y-19247429D01*
X27520424Y-19314175D01*
X27525094Y-19316784D01*
X27526333Y-19317621D01*
X27530678Y-19320249D01*
X27534865Y-19322984D01*
X27538983Y-19326190D01*
X27543566Y-19328670D01*
X27543574Y-19328675D01*
X27632581Y-19376842D01*
X27634063Y-19377657D01*
X27695202Y-19411811D01*
X27729740Y-19431105D01*
X27734781Y-19432886D01*
X27736002Y-19433438D01*
X27740301Y-19435137D01*
X27744273Y-19437287D01*
X27848364Y-19473022D01*
X27849121Y-19473285D01*
X27955806Y-19510980D01*
X27961091Y-19511885D01*
X27962587Y-19512275D01*
X27962897Y-19512340D01*
X27965049Y-19513080D01*
X28076961Y-19531754D01*
X28077397Y-19531829D01*
X28134487Y-19541618D01*
X28192119Y-19551500D01*
X28195288Y-19551500D01*
X28371827Y-19551500D01*
X28423504Y-19551500D01*
X28428712Y-19551500D01*
X28482929Y-19542452D01*
X28492976Y-19541188D01*
X28550898Y-19536259D01*
X28600494Y-19523344D01*
X28611505Y-19520996D01*
X28658951Y-19513080D01*
X28687851Y-19503158D01*
X28714185Y-19494118D01*
X28723346Y-19491356D01*
X28782924Y-19475844D01*
X28826504Y-19456144D01*
X28837491Y-19451786D01*
X28879727Y-19437287D01*
X28934117Y-19407851D01*
X28942149Y-19403869D01*
X29001402Y-19377086D01*
X29038181Y-19352226D01*
X29048755Y-19345812D01*
X29085017Y-19326190D01*
X29136527Y-19286096D01*
X29143354Y-19281142D01*
X29195606Y-19245827D01*
X29195609Y-19245824D01*
X29200047Y-19242825D01*
X29229630Y-19214471D01*
X29239396Y-19206030D01*
X29269220Y-19182818D01*
X29315751Y-19132270D01*
X29321235Y-19126675D01*
X29373144Y-19076925D01*
X29395450Y-19046763D01*
X29404056Y-19036348D01*
X29415843Y-19023543D01*
X29427314Y-19011083D01*
X29466774Y-18950682D01*
X29470941Y-18944693D01*
X29491353Y-18917095D01*
X29515715Y-18884157D01*
X29531055Y-18853730D01*
X29538084Y-18841535D01*
X29552133Y-18820033D01*
X29552134Y-18820030D01*
X29554984Y-18815669D01*
X29585334Y-18746477D01*
X29588214Y-18740362D01*
X29623657Y-18670067D01*
X29632630Y-18640765D01*
X29637716Y-18627058D01*
X29644985Y-18610487D01*
X29648749Y-18601907D01*
X29668143Y-18525314D01*
X29669807Y-18519367D01*
X29686655Y-18464353D01*
X29693864Y-18440815D01*
X29697317Y-18413840D01*
X29700151Y-18398920D01*
X29706051Y-18375626D01*
X29712860Y-18293443D01*
X29713445Y-18287895D01*
X29724318Y-18202995D01*
X29723310Y-18179270D01*
X29723627Y-18163518D01*
X29724897Y-18148197D01*
X29724897Y-18148189D01*
X29725327Y-18143000D01*
X29718233Y-18057392D01*
X29717922Y-18052434D01*
X29714143Y-17963449D01*
X29709863Y-17943593D01*
X29707465Y-17927445D01*
X29706481Y-17915569D01*
X29706051Y-17910374D01*
X29684129Y-17823808D01*
X29683109Y-17819453D01*
X29677586Y-17793827D01*
X29663630Y-17729068D01*
X29657338Y-17713411D01*
X29652107Y-17697357D01*
X29648749Y-17684093D01*
X29611502Y-17599181D01*
X29609982Y-17595561D01*
X29576229Y-17511562D01*
X29576226Y-17511557D01*
X29574233Y-17506596D01*
X29567197Y-17495169D01*
X29559102Y-17479720D01*
X29557077Y-17475104D01*
X29554984Y-17470331D01*
X29552131Y-17465964D01*
X29502412Y-17389863D01*
X29500603Y-17387011D01*
X29468925Y-17335563D01*
X29450245Y-17272175D01*
X29466217Y-17208051D01*
X29512446Y-17160829D01*
X29576217Y-17143500D01*
X32499448Y-17143500D01*
X32565511Y-17162207D01*
X32611956Y-17212774D01*
X32624994Y-17280185D01*
X32600752Y-17344423D01*
X32561468Y-17397537D01*
X32561459Y-17397550D01*
X32558285Y-17401843D01*
X32555875Y-17406621D01*
X32555871Y-17406629D01*
X32542940Y-17432274D01*
X32535920Y-17444455D01*
X32521869Y-17465964D01*
X32519016Y-17470331D01*
X32516930Y-17475085D01*
X32516921Y-17475103D01*
X32488663Y-17539524D01*
X32485787Y-17545632D01*
X32450343Y-17615933D01*
X32448779Y-17621039D01*
X32448776Y-17621047D01*
X32441371Y-17645225D01*
X32436286Y-17658930D01*
X32427344Y-17679318D01*
X32427339Y-17679332D01*
X32425251Y-17684093D01*
X32423975Y-17689129D01*
X32423972Y-17689140D01*
X32405859Y-17760668D01*
X32404192Y-17766630D01*
X32381705Y-17840058D01*
X32381702Y-17840069D01*
X32380136Y-17845185D01*
X32379455Y-17850495D01*
X32379456Y-17850495D01*
X32376681Y-17872159D01*
X32373848Y-17887074D01*
X32369227Y-17905323D01*
X32369225Y-17905334D01*
X32367949Y-17910374D01*
X32367519Y-17915557D01*
X32367519Y-17915560D01*
X32361141Y-17992523D01*
X32360551Y-17998119D01*
X32350360Y-18077706D01*
X32350359Y-18077712D01*
X32349682Y-18083005D01*
X32349908Y-18088336D01*
X32349908Y-18088344D01*
X32350689Y-18106741D01*
X32350372Y-18122480D01*
X32349103Y-18137804D01*
X32348673Y-18143000D01*
X32349103Y-18148190D01*
X32349103Y-18148191D01*
X32355763Y-18228577D01*
X32356079Y-18233631D01*
X32358502Y-18290672D01*
X32359857Y-18322551D01*
X32364138Y-18342418D01*
X32366533Y-18358543D01*
X32367288Y-18367661D01*
X32367949Y-18375626D01*
X32369225Y-18380668D01*
X32369227Y-18380675D01*
X32389865Y-18462174D01*
X32390892Y-18466557D01*
X32410370Y-18556932D01*
X32412365Y-18561898D01*
X32412368Y-18561906D01*
X32416659Y-18572584D01*
X32421889Y-18588629D01*
X32423970Y-18596851D01*
X32425251Y-18601907D01*
X32451958Y-18662793D01*
X32462490Y-18686803D01*
X32464014Y-18690431D01*
X32499767Y-18779404D01*
X32502575Y-18783965D01*
X32502577Y-18783968D01*
X32506802Y-18790830D01*
X32514896Y-18806277D01*
X32519016Y-18815669D01*
X32571622Y-18896189D01*
X32573363Y-18898933D01*
X32625476Y-18983569D01*
X32629006Y-18987580D01*
X32629012Y-18987588D01*
X32632066Y-18991058D01*
X32642955Y-19005374D01*
X32643834Y-19006720D01*
X32643842Y-19006731D01*
X32646686Y-19011083D01*
X32650208Y-19014909D01*
X32650216Y-19014919D01*
X32714124Y-19084340D01*
X32715982Y-19086403D01*
X32751410Y-19126657D01*
X32777820Y-19156665D01*
X32783881Y-19163551D01*
X32788949Y-19167642D01*
X32797352Y-19175518D01*
X32797414Y-19175452D01*
X32801251Y-19178984D01*
X32804780Y-19182818D01*
X32808893Y-19186019D01*
X32808896Y-19186022D01*
X32886083Y-19246099D01*
X32887762Y-19247429D01*
X32970424Y-19314175D01*
X32975094Y-19316784D01*
X32976333Y-19317621D01*
X32980678Y-19320249D01*
X32984865Y-19322984D01*
X32988983Y-19326190D01*
X32993566Y-19328670D01*
X32993574Y-19328675D01*
X33082581Y-19376842D01*
X33084063Y-19377657D01*
X33145202Y-19411811D01*
X33179740Y-19431105D01*
X33184781Y-19432886D01*
X33186002Y-19433438D01*
X33190301Y-19435137D01*
X33194273Y-19437287D01*
X33298364Y-19473022D01*
X33299121Y-19473285D01*
X33405806Y-19510980D01*
X33411091Y-19511885D01*
X33412587Y-19512275D01*
X33412897Y-19512340D01*
X33415049Y-19513080D01*
X33526961Y-19531754D01*
X33527397Y-19531829D01*
X33584487Y-19541618D01*
X33642119Y-19551500D01*
X33645288Y-19551500D01*
X33821827Y-19551500D01*
X33873504Y-19551500D01*
X33878712Y-19551500D01*
X33932929Y-19542452D01*
X33942976Y-19541188D01*
X34000898Y-19536259D01*
X34050494Y-19523344D01*
X34061505Y-19520996D01*
X34108951Y-19513080D01*
X34137851Y-19503158D01*
X34164185Y-19494118D01*
X34173346Y-19491356D01*
X34232924Y-19475844D01*
X34276504Y-19456144D01*
X34287491Y-19451786D01*
X34329727Y-19437287D01*
X34384117Y-19407851D01*
X34392149Y-19403869D01*
X34451402Y-19377086D01*
X34488181Y-19352226D01*
X34498755Y-19345812D01*
X34535017Y-19326190D01*
X34586527Y-19286096D01*
X34593354Y-19281142D01*
X34645606Y-19245827D01*
X34645609Y-19245824D01*
X34650047Y-19242825D01*
X34679630Y-19214471D01*
X34689396Y-19206030D01*
X34719220Y-19182818D01*
X34765751Y-19132270D01*
X34771235Y-19126675D01*
X34823144Y-19076925D01*
X34845450Y-19046763D01*
X34854056Y-19036348D01*
X34865843Y-19023543D01*
X34877314Y-19011083D01*
X34916774Y-18950682D01*
X34920941Y-18944693D01*
X34941353Y-18917095D01*
X34965715Y-18884157D01*
X34981055Y-18853730D01*
X34988084Y-18841535D01*
X35002133Y-18820033D01*
X35002134Y-18820030D01*
X35004984Y-18815669D01*
X35035334Y-18746477D01*
X35038214Y-18740362D01*
X35073657Y-18670067D01*
X35082630Y-18640765D01*
X35087716Y-18627058D01*
X35094985Y-18610487D01*
X35098749Y-18601907D01*
X35118143Y-18525314D01*
X35119807Y-18519367D01*
X35136655Y-18464353D01*
X35143864Y-18440815D01*
X35147317Y-18413840D01*
X35150151Y-18398920D01*
X35156051Y-18375626D01*
X35162860Y-18293443D01*
X35163445Y-18287895D01*
X35174318Y-18202995D01*
X35173310Y-18179270D01*
X35173627Y-18163518D01*
X35174897Y-18148197D01*
X35174897Y-18148189D01*
X35175327Y-18143000D01*
X35168233Y-18057392D01*
X35167922Y-18052434D01*
X35164143Y-17963449D01*
X35159863Y-17943593D01*
X35157465Y-17927445D01*
X35156481Y-17915569D01*
X35156051Y-17910374D01*
X35134129Y-17823808D01*
X35133109Y-17819453D01*
X35127586Y-17793827D01*
X35113630Y-17729068D01*
X35107338Y-17713411D01*
X35102107Y-17697357D01*
X35098749Y-17684093D01*
X35061502Y-17599181D01*
X35059982Y-17595561D01*
X35026229Y-17511562D01*
X35026226Y-17511557D01*
X35024233Y-17506596D01*
X35017197Y-17495169D01*
X35009102Y-17479720D01*
X35007077Y-17475104D01*
X35004984Y-17470331D01*
X35002131Y-17465964D01*
X34952412Y-17389863D01*
X34950603Y-17387011D01*
X34918925Y-17335563D01*
X34900245Y-17272175D01*
X34916217Y-17208051D01*
X34962446Y-17160829D01*
X35026217Y-17143500D01*
X38639509Y-17143500D01*
X38704006Y-17161259D01*
X38750323Y-17209531D01*
X38765401Y-17274707D01*
X38744992Y-17338415D01*
X38740966Y-17344578D01*
X38728140Y-17364209D01*
X38726048Y-17368978D01*
X38726046Y-17368982D01*
X38639799Y-17565606D01*
X38639796Y-17565614D01*
X38637704Y-17570384D01*
X38636423Y-17575440D01*
X38636422Y-17575445D01*
X38585095Y-17778131D01*
X38582436Y-17788632D01*
X38582006Y-17793820D01*
X38582005Y-17793827D01*
X38565541Y-17992523D01*
X38563844Y-18013000D01*
X38564274Y-18018189D01*
X38581707Y-18228577D01*
X38582436Y-18237368D01*
X38596642Y-18293466D01*
X38623343Y-18398908D01*
X38637704Y-18455616D01*
X38639797Y-18460389D01*
X38639799Y-18460393D01*
X38692857Y-18581354D01*
X38728140Y-18661791D01*
X38851278Y-18850268D01*
X38854806Y-18854100D01*
X39000227Y-19012069D01*
X39000231Y-19012073D01*
X39003760Y-19015906D01*
X39181424Y-19154189D01*
X39186002Y-19156666D01*
X39186009Y-19156671D01*
X39214680Y-19172187D01*
X39262951Y-19218503D01*
X39280710Y-19283000D01*
X39262951Y-19347497D01*
X39214680Y-19393813D01*
X39186009Y-19409328D01*
X39185993Y-19409338D01*
X39181424Y-19411811D01*
X39177313Y-19415010D01*
X39177311Y-19415012D01*
X39007878Y-19546888D01*
X39007872Y-19546893D01*
X39003760Y-19550094D01*
X39000237Y-19553919D01*
X39000227Y-19553930D01*
X38854806Y-19711899D01*
X38854802Y-19711902D01*
X38851278Y-19715732D01*
X38848430Y-19720090D01*
X38848427Y-19720095D01*
X38730992Y-19899843D01*
X38728140Y-19904209D01*
X38726048Y-19908978D01*
X38726046Y-19908982D01*
X38639799Y-20105606D01*
X38639796Y-20105614D01*
X38637704Y-20110384D01*
X38636423Y-20115440D01*
X38636422Y-20115445D01*
X38589742Y-20299782D01*
X38582436Y-20328632D01*
X38582006Y-20333820D01*
X38582005Y-20333827D01*
X38571231Y-20463855D01*
X38563844Y-20553000D01*
X38564274Y-20558189D01*
X38580341Y-20752092D01*
X38582436Y-20777368D01*
X38583717Y-20782426D01*
X38631774Y-20972201D01*
X38637704Y-20995616D01*
X38639797Y-21000389D01*
X38639799Y-21000393D01*
X38669822Y-21068839D01*
X38728140Y-21201791D01*
X38851278Y-21390268D01*
X38854806Y-21394100D01*
X38994840Y-21546217D01*
X39024077Y-21599821D01*
X39024680Y-21660877D01*
X38996506Y-21715047D01*
X38946172Y-21749610D01*
X38839484Y-21789403D01*
X38823824Y-21797954D01*
X38721307Y-21874697D01*
X38708697Y-21887307D01*
X38631954Y-21989824D01*
X38623405Y-22005480D01*
X38578259Y-22126521D01*
X38574662Y-22141742D01*
X38569359Y-22191061D01*
X38569000Y-22197777D01*
X38569000Y-22822410D01*
X38572506Y-22835493D01*
X38585590Y-22839000D01*
X41268410Y-22839000D01*
X41281493Y-22835493D01*
X41285000Y-22822410D01*
X41285000Y-22197777D01*
X41284640Y-22191061D01*
X41279337Y-22141742D01*
X41275740Y-22126521D01*
X41230594Y-22005480D01*
X41222045Y-21989824D01*
X41145302Y-21887307D01*
X41132692Y-21874697D01*
X41030175Y-21797954D01*
X41014521Y-21789406D01*
X40907827Y-21749611D01*
X40857493Y-21715047D01*
X40829319Y-21660877D01*
X40829922Y-21599821D01*
X40859159Y-21546217D01*
X41002722Y-21390268D01*
X41125860Y-21201791D01*
X41216296Y-20995616D01*
X41271564Y-20777368D01*
X41290156Y-20553000D01*
X41271564Y-20328632D01*
X41216296Y-20110384D01*
X41125860Y-19904209D01*
X41002722Y-19715732D01*
X40941956Y-19649723D01*
X40853772Y-19553930D01*
X40853767Y-19553925D01*
X40850240Y-19550094D01*
X40672576Y-19411811D01*
X40667997Y-19409333D01*
X40667994Y-19409331D01*
X40639318Y-19393812D01*
X40591047Y-19347494D01*
X40573289Y-19282996D01*
X40591050Y-19218499D01*
X40639321Y-19172185D01*
X40672576Y-19154189D01*
X40850240Y-19015906D01*
X41002722Y-18850268D01*
X41125860Y-18661791D01*
X41127403Y-18662799D01*
X41159493Y-18626807D01*
X41213487Y-18605398D01*
X41271347Y-18610483D01*
X41320778Y-18640982D01*
X53771201Y-31091405D01*
X53801939Y-31141564D01*
X53806555Y-31200211D01*
X53784042Y-31254561D01*
X53739309Y-31292767D01*
X53682106Y-31306500D01*
X45980661Y-31306500D01*
X45932443Y-31296909D01*
X45891566Y-31269595D01*
X45826066Y-31204095D01*
X45793454Y-31147611D01*
X45793454Y-31082389D01*
X45826066Y-31025905D01*
X45826065Y-31025905D01*
X45921816Y-30930155D01*
X46010827Y-30782913D01*
X46062013Y-30618649D01*
X46068500Y-30547265D01*
X46068499Y-30032736D01*
X46062013Y-29961351D01*
X46010827Y-29797087D01*
X45921816Y-29649845D01*
X45800155Y-29528184D01*
X45793634Y-29524242D01*
X45793633Y-29524241D01*
X45779314Y-29515585D01*
X45734752Y-29469654D01*
X45718500Y-29407757D01*
X45718500Y-28653767D01*
X45719027Y-28642583D01*
X45720702Y-28635091D01*
X45718562Y-28567014D01*
X45718500Y-28563055D01*
X45718500Y-28539108D01*
X45718500Y-28535144D01*
X45717994Y-28531147D01*
X45717061Y-28519297D01*
X45715673Y-28475110D01*
X45710020Y-28455656D01*
X45706012Y-28436297D01*
X45703474Y-28416203D01*
X45687197Y-28375093D01*
X45683351Y-28363860D01*
X45673229Y-28329019D01*
X45671018Y-28321407D01*
X45660707Y-28303973D01*
X45652008Y-28286215D01*
X45647469Y-28274751D01*
X45644552Y-28267383D01*
X45618561Y-28231610D01*
X45612050Y-28221698D01*
X45589542Y-28183637D01*
X45575217Y-28169312D01*
X45562376Y-28154277D01*
X45555134Y-28144309D01*
X45555131Y-28144306D01*
X45550472Y-28137893D01*
X45538877Y-28128301D01*
X45516405Y-28109710D01*
X45507626Y-28101721D01*
X41471646Y-24065741D01*
X41464112Y-24057463D01*
X41460000Y-24050982D01*
X41410348Y-24004356D01*
X41407506Y-24001601D01*
X41390574Y-23984669D01*
X41387770Y-23981865D01*
X41384575Y-23979386D01*
X41375554Y-23971682D01*
X41349099Y-23946840D01*
X41349100Y-23946840D01*
X41343321Y-23941414D01*
X41336779Y-23937817D01*
X41298734Y-23893272D01*
X41285000Y-23836069D01*
X41285000Y-23363590D01*
X41281493Y-23350506D01*
X41268410Y-23347000D01*
X38585590Y-23347000D01*
X38572506Y-23350506D01*
X38569000Y-23363590D01*
X38569000Y-23698500D01*
X38552119Y-23761500D01*
X38506000Y-23807619D01*
X38443000Y-23824500D01*
X23631000Y-23824500D01*
X23568000Y-23807619D01*
X23521881Y-23761500D01*
X23505000Y-23698500D01*
X23505000Y-23363590D01*
X23501493Y-23350506D01*
X23488410Y-23347000D01*
X22019000Y-23347000D01*
X21956000Y-23330119D01*
X21909881Y-23284000D01*
X21893000Y-23221000D01*
X21893000Y-22965000D01*
X21909881Y-22902000D01*
X21956000Y-22855881D01*
X22019000Y-22839000D01*
X23488410Y-22839000D01*
X23501493Y-22835493D01*
X23505000Y-22822410D01*
X23505000Y-22197777D01*
X23504640Y-22191061D01*
X23499337Y-22141742D01*
X23495740Y-22126521D01*
X23450594Y-22005480D01*
X23442045Y-21989824D01*
X23365302Y-21887307D01*
X23352692Y-21874697D01*
X23250175Y-21797954D01*
X23234521Y-21789406D01*
X23127827Y-21749611D01*
X23077493Y-21715047D01*
X23049319Y-21660877D01*
X23049922Y-21599821D01*
X23079159Y-21546217D01*
X23222722Y-21390268D01*
X23345860Y-21201791D01*
X23358489Y-21173000D01*
X27348693Y-21173000D01*
X27349172Y-21178477D01*
X27349172Y-21178479D01*
X27350304Y-21191425D01*
X27350656Y-21208049D01*
X27349938Y-21224038D01*
X27349938Y-21224045D01*
X27349685Y-21229691D01*
X27350442Y-21235284D01*
X27350443Y-21235292D01*
X27360487Y-21309434D01*
X27361148Y-21315366D01*
X27366329Y-21374593D01*
X27367885Y-21392371D01*
X27373569Y-21413585D01*
X27376720Y-21429273D01*
X27377848Y-21437603D01*
X27380094Y-21454175D01*
X27381844Y-21459561D01*
X27403895Y-21527428D01*
X27405768Y-21533752D01*
X27419569Y-21585258D01*
X27424880Y-21605076D01*
X27431687Y-21619675D01*
X27435622Y-21628112D01*
X27441258Y-21642422D01*
X27448344Y-21664231D01*
X27448350Y-21664246D01*
X27450097Y-21669621D01*
X27452777Y-21674602D01*
X27452780Y-21674608D01*
X27484957Y-21734403D01*
X27488195Y-21740857D01*
X27517944Y-21804654D01*
X27530189Y-21822142D01*
X27534511Y-21828315D01*
X27542251Y-21840874D01*
X27557444Y-21869106D01*
X27560969Y-21873527D01*
X27560971Y-21873529D01*
X27601159Y-21923923D01*
X27605861Y-21930212D01*
X27644251Y-21985038D01*
X27648148Y-21988935D01*
X27667116Y-22007903D01*
X27676531Y-22018438D01*
X27695153Y-22041790D01*
X27695163Y-22041801D01*
X27698686Y-22046218D01*
X27702945Y-22049938D01*
X27702946Y-22049940D01*
X27748887Y-22090077D01*
X27755082Y-22095869D01*
X27799962Y-22140749D01*
X27804470Y-22143906D01*
X27804472Y-22143907D01*
X27829294Y-22161287D01*
X27839926Y-22169615D01*
X27869282Y-22195263D01*
X27874143Y-22198167D01*
X27923533Y-22227677D01*
X27931178Y-22232628D01*
X27959861Y-22252712D01*
X27980346Y-22267056D01*
X27985330Y-22269380D01*
X28015935Y-22283651D01*
X28027313Y-22289682D01*
X28063750Y-22311453D01*
X28069046Y-22313440D01*
X28069049Y-22313442D01*
X28119682Y-22332444D01*
X28128662Y-22336216D01*
X28174933Y-22357793D01*
X28174936Y-22357794D01*
X28179924Y-22360120D01*
X28221214Y-22371183D01*
X28232858Y-22374919D01*
X28275839Y-22391051D01*
X28281402Y-22392060D01*
X28281404Y-22392061D01*
X28303858Y-22396135D01*
X28331207Y-22401098D01*
X28341319Y-22403367D01*
X28387308Y-22415690D01*
X28387316Y-22415691D01*
X28392629Y-22417115D01*
X28438663Y-22421142D01*
X28450159Y-22422685D01*
X28498733Y-22431500D01*
X28551548Y-22431500D01*
X28562529Y-22431979D01*
X28612000Y-22436307D01*
X28617475Y-22435828D01*
X28617484Y-22435828D01*
X28665609Y-22431617D01*
X28667377Y-22431500D01*
X28668522Y-22431500D01*
X28671358Y-22431244D01*
X28671373Y-22431244D01*
X28723247Y-22426574D01*
X28723379Y-22426561D01*
X28831371Y-22417115D01*
X28832896Y-22416706D01*
X28837622Y-22416281D01*
X28942108Y-22387443D01*
X28942602Y-22387309D01*
X29044076Y-22360120D01*
X29047177Y-22358673D01*
X29049073Y-22358068D01*
X29050525Y-22357522D01*
X29055993Y-22356014D01*
X29150435Y-22310531D01*
X29151590Y-22309984D01*
X29243654Y-22267056D01*
X29248177Y-22263888D01*
X29248540Y-22263679D01*
X29253718Y-22260942D01*
X29254987Y-22260183D01*
X29260093Y-22257725D01*
X29342002Y-22198213D01*
X29343762Y-22196959D01*
X29419528Y-22143907D01*
X29419528Y-22143906D01*
X29424038Y-22140749D01*
X29427933Y-22136854D01*
X29432145Y-22133320D01*
X29432336Y-22133548D01*
X29434553Y-22131653D01*
X29434523Y-22131619D01*
X29438777Y-22127902D01*
X29443363Y-22124571D01*
X29510966Y-22053862D01*
X29512855Y-22051930D01*
X29579749Y-21985038D01*
X29582908Y-21980526D01*
X29586441Y-21976316D01*
X29586446Y-21976320D01*
X29594531Y-21966460D01*
X29599912Y-21960834D01*
X29651865Y-21882126D01*
X29653778Y-21879312D01*
X29706056Y-21804654D01*
X29709471Y-21797329D01*
X29718515Y-21781156D01*
X29724709Y-21771774D01*
X29760435Y-21688185D01*
X29762041Y-21684590D01*
X29799120Y-21605076D01*
X29802108Y-21593925D01*
X29807955Y-21577011D01*
X29813743Y-21563470D01*
X29833201Y-21478210D01*
X29834308Y-21473747D01*
X29856115Y-21392371D01*
X29857424Y-21377392D01*
X29860104Y-21360341D01*
X29864151Y-21342615D01*
X29867917Y-21258739D01*
X29868266Y-21253466D01*
X29875307Y-21173000D01*
X32198693Y-21173000D01*
X32199172Y-21178477D01*
X32199172Y-21178479D01*
X32200304Y-21191425D01*
X32200656Y-21208049D01*
X32199938Y-21224038D01*
X32199938Y-21224045D01*
X32199685Y-21229691D01*
X32200442Y-21235284D01*
X32200443Y-21235292D01*
X32210487Y-21309434D01*
X32211148Y-21315366D01*
X32216329Y-21374593D01*
X32217885Y-21392371D01*
X32223569Y-21413585D01*
X32226720Y-21429273D01*
X32227848Y-21437603D01*
X32230094Y-21454175D01*
X32231844Y-21459561D01*
X32253895Y-21527428D01*
X32255768Y-21533752D01*
X32269569Y-21585258D01*
X32274880Y-21605076D01*
X32281687Y-21619675D01*
X32285622Y-21628112D01*
X32291258Y-21642422D01*
X32298344Y-21664231D01*
X32298350Y-21664246D01*
X32300097Y-21669621D01*
X32302777Y-21674602D01*
X32302780Y-21674608D01*
X32334957Y-21734403D01*
X32338195Y-21740857D01*
X32367944Y-21804654D01*
X32380189Y-21822142D01*
X32384511Y-21828315D01*
X32392251Y-21840874D01*
X32407444Y-21869106D01*
X32410969Y-21873527D01*
X32410971Y-21873529D01*
X32451159Y-21923923D01*
X32455861Y-21930212D01*
X32494251Y-21985038D01*
X32498148Y-21988935D01*
X32517116Y-22007903D01*
X32526531Y-22018438D01*
X32545153Y-22041790D01*
X32545163Y-22041801D01*
X32548686Y-22046218D01*
X32552945Y-22049938D01*
X32552946Y-22049940D01*
X32598887Y-22090077D01*
X32605082Y-22095869D01*
X32649962Y-22140749D01*
X32654470Y-22143906D01*
X32654472Y-22143907D01*
X32679294Y-22161287D01*
X32689926Y-22169615D01*
X32719282Y-22195263D01*
X32724143Y-22198167D01*
X32773533Y-22227677D01*
X32781178Y-22232628D01*
X32809861Y-22252712D01*
X32830346Y-22267056D01*
X32835330Y-22269380D01*
X32865935Y-22283651D01*
X32877313Y-22289682D01*
X32913750Y-22311453D01*
X32919046Y-22313440D01*
X32919049Y-22313442D01*
X32969682Y-22332444D01*
X32978662Y-22336216D01*
X33024933Y-22357793D01*
X33024936Y-22357794D01*
X33029924Y-22360120D01*
X33071214Y-22371183D01*
X33082858Y-22374919D01*
X33125839Y-22391051D01*
X33131402Y-22392060D01*
X33131404Y-22392061D01*
X33153858Y-22396135D01*
X33181207Y-22401098D01*
X33191319Y-22403367D01*
X33237308Y-22415690D01*
X33237316Y-22415691D01*
X33242629Y-22417115D01*
X33288663Y-22421142D01*
X33300159Y-22422685D01*
X33348733Y-22431500D01*
X33401548Y-22431500D01*
X33412529Y-22431979D01*
X33462000Y-22436307D01*
X33467475Y-22435828D01*
X33467484Y-22435828D01*
X33515609Y-22431617D01*
X33517377Y-22431500D01*
X33518522Y-22431500D01*
X33521358Y-22431244D01*
X33521373Y-22431244D01*
X33573247Y-22426574D01*
X33573379Y-22426561D01*
X33681371Y-22417115D01*
X33682896Y-22416706D01*
X33687622Y-22416281D01*
X33792108Y-22387443D01*
X33792602Y-22387309D01*
X33894076Y-22360120D01*
X33897177Y-22358673D01*
X33899073Y-22358068D01*
X33900525Y-22357522D01*
X33905993Y-22356014D01*
X34000435Y-22310531D01*
X34001590Y-22309984D01*
X34093654Y-22267056D01*
X34098177Y-22263888D01*
X34098540Y-22263679D01*
X34103718Y-22260942D01*
X34104987Y-22260183D01*
X34110093Y-22257725D01*
X34192002Y-22198213D01*
X34193762Y-22196959D01*
X34269528Y-22143907D01*
X34269528Y-22143906D01*
X34274038Y-22140749D01*
X34277933Y-22136854D01*
X34282145Y-22133320D01*
X34282336Y-22133548D01*
X34284553Y-22131653D01*
X34284523Y-22131619D01*
X34288777Y-22127902D01*
X34293363Y-22124571D01*
X34360966Y-22053862D01*
X34362855Y-22051930D01*
X34429749Y-21985038D01*
X34432908Y-21980526D01*
X34436441Y-21976316D01*
X34436446Y-21976320D01*
X34444531Y-21966460D01*
X34449912Y-21960834D01*
X34501865Y-21882126D01*
X34503778Y-21879312D01*
X34556056Y-21804654D01*
X34559471Y-21797329D01*
X34568515Y-21781156D01*
X34574709Y-21771774D01*
X34610435Y-21688185D01*
X34612041Y-21684590D01*
X34649120Y-21605076D01*
X34652108Y-21593925D01*
X34657955Y-21577011D01*
X34663743Y-21563470D01*
X34683201Y-21478210D01*
X34684308Y-21473747D01*
X34706115Y-21392371D01*
X34707424Y-21377392D01*
X34710104Y-21360341D01*
X34714151Y-21342615D01*
X34717917Y-21258739D01*
X34718266Y-21253466D01*
X34725307Y-21173000D01*
X34723869Y-21156558D01*
X34723696Y-21154579D01*
X34723343Y-21137940D01*
X34723347Y-21137861D01*
X34724315Y-21116309D01*
X34713513Y-21036579D01*
X34712852Y-21030646D01*
X34710780Y-21006960D01*
X34706115Y-20953629D01*
X34700430Y-20932415D01*
X34697278Y-20916720D01*
X34694666Y-20897438D01*
X34693906Y-20891825D01*
X34670103Y-20818568D01*
X34668232Y-20812252D01*
X34658873Y-20777324D01*
X34649120Y-20740924D01*
X34638372Y-20717875D01*
X34632740Y-20703578D01*
X34623903Y-20676379D01*
X34589030Y-20611574D01*
X34585820Y-20605178D01*
X34556056Y-20541347D01*
X34539490Y-20517689D01*
X34531746Y-20505122D01*
X34519236Y-20481874D01*
X34519234Y-20481871D01*
X34516556Y-20476894D01*
X34513031Y-20472475D01*
X34513028Y-20472469D01*
X34472832Y-20422065D01*
X34468148Y-20415803D01*
X34429749Y-20360962D01*
X34406881Y-20338094D01*
X34397466Y-20327559D01*
X34378844Y-20304208D01*
X34378841Y-20304205D01*
X34375314Y-20299782D01*
X34325111Y-20255921D01*
X34318916Y-20250129D01*
X34277928Y-20209141D01*
X34277928Y-20209140D01*
X34274038Y-20205251D01*
X34244697Y-20184707D01*
X34234078Y-20176389D01*
X34204718Y-20150737D01*
X34199858Y-20147833D01*
X34199855Y-20147831D01*
X34150469Y-20118324D01*
X34142825Y-20113373D01*
X34098168Y-20082104D01*
X34098161Y-20082100D01*
X34093654Y-20078944D01*
X34088667Y-20076618D01*
X34088661Y-20076615D01*
X34058053Y-20062342D01*
X34046687Y-20056317D01*
X34010250Y-20034547D01*
X34004949Y-20032557D01*
X34004944Y-20032555D01*
X33954309Y-20013551D01*
X33945334Y-20009781D01*
X33899066Y-19988206D01*
X33899057Y-19988202D01*
X33894076Y-19985880D01*
X33888770Y-19984458D01*
X33888764Y-19984456D01*
X33852800Y-19974820D01*
X33841139Y-19971079D01*
X33798161Y-19954949D01*
X33792602Y-19953940D01*
X33792598Y-19953939D01*
X33742781Y-19944898D01*
X33732672Y-19942630D01*
X33686685Y-19930308D01*
X33686675Y-19930306D01*
X33681371Y-19928885D01*
X33675896Y-19928405D01*
X33675891Y-19928405D01*
X33635344Y-19924857D01*
X33623836Y-19923313D01*
X33606313Y-19920133D01*
X33580834Y-19915510D01*
X33580832Y-19915509D01*
X33575267Y-19914500D01*
X33569603Y-19914500D01*
X33522452Y-19914500D01*
X33511471Y-19914021D01*
X33467475Y-19910172D01*
X33462000Y-19909693D01*
X33456525Y-19910172D01*
X33456523Y-19910172D01*
X33408386Y-19914383D01*
X33406619Y-19914500D01*
X33405478Y-19914500D01*
X33402675Y-19914752D01*
X33402657Y-19914753D01*
X33350887Y-19919412D01*
X33350578Y-19919439D01*
X33245959Y-19928592D01*
X33245922Y-19928596D01*
X33242629Y-19928885D01*
X33241103Y-19929293D01*
X33236378Y-19929719D01*
X33230933Y-19931221D01*
X33230931Y-19931222D01*
X33132123Y-19958491D01*
X33131217Y-19958737D01*
X33035238Y-19984456D01*
X33029924Y-19985880D01*
X33026820Y-19987326D01*
X33024893Y-19987942D01*
X33023455Y-19988481D01*
X33018007Y-19989986D01*
X33012924Y-19992433D01*
X33012910Y-19992439D01*
X32923633Y-20035431D01*
X32922218Y-20036102D01*
X32835323Y-20076623D01*
X32835317Y-20076626D01*
X32830347Y-20078944D01*
X32825851Y-20082090D01*
X32825429Y-20082335D01*
X32820290Y-20085051D01*
X32818997Y-20085823D01*
X32813907Y-20088275D01*
X32809340Y-20091592D01*
X32809325Y-20091602D01*
X32731992Y-20147787D01*
X32730206Y-20149062D01*
X32654460Y-20202101D01*
X32654457Y-20202103D01*
X32649962Y-20205251D01*
X32646077Y-20209134D01*
X32641860Y-20212674D01*
X32641673Y-20212451D01*
X32639445Y-20214353D01*
X32639472Y-20214384D01*
X32635216Y-20218101D01*
X32630637Y-20221429D01*
X32626731Y-20225513D01*
X32626722Y-20225522D01*
X32563077Y-20292089D01*
X32561103Y-20294108D01*
X32498137Y-20357075D01*
X32498132Y-20357080D01*
X32494251Y-20360962D01*
X32491099Y-20365462D01*
X32487562Y-20369678D01*
X32487558Y-20369675D01*
X32479473Y-20379533D01*
X32477998Y-20381075D01*
X32477993Y-20381080D01*
X32474088Y-20385166D01*
X32470971Y-20389887D01*
X32470967Y-20389893D01*
X32422144Y-20463855D01*
X32420203Y-20466710D01*
X32371096Y-20536843D01*
X32371088Y-20536856D01*
X32367944Y-20541347D01*
X32365625Y-20546318D01*
X32365620Y-20546328D01*
X32364520Y-20548687D01*
X32355494Y-20564827D01*
X32352412Y-20569496D01*
X32352407Y-20569503D01*
X32349291Y-20574226D01*
X32347069Y-20579423D01*
X32347066Y-20579430D01*
X32313582Y-20657769D01*
X32311918Y-20661494D01*
X32285625Y-20717880D01*
X32274880Y-20740924D01*
X32273459Y-20746225D01*
X32273455Y-20746237D01*
X32271886Y-20752092D01*
X32266051Y-20768970D01*
X32262481Y-20777324D01*
X32262478Y-20777332D01*
X32260257Y-20782530D01*
X32258998Y-20788042D01*
X32258998Y-20788045D01*
X32240816Y-20867708D01*
X32239682Y-20872281D01*
X32219309Y-20948311D01*
X32219307Y-20948321D01*
X32217885Y-20953629D01*
X32217406Y-20959108D01*
X32217405Y-20959114D01*
X32216575Y-20968600D01*
X32213896Y-20985648D01*
X32209849Y-21003385D01*
X32209595Y-21009033D01*
X32209594Y-21009043D01*
X32206083Y-21087218D01*
X32205731Y-21092543D01*
X32198693Y-21173000D01*
X29875307Y-21173000D01*
X29873869Y-21156558D01*
X29873696Y-21154579D01*
X29873343Y-21137940D01*
X29873347Y-21137861D01*
X29874315Y-21116309D01*
X29863513Y-21036579D01*
X29862852Y-21030646D01*
X29860780Y-21006960D01*
X29856115Y-20953629D01*
X29850430Y-20932415D01*
X29847278Y-20916720D01*
X29844666Y-20897438D01*
X29843906Y-20891825D01*
X29820103Y-20818568D01*
X29818232Y-20812252D01*
X29808873Y-20777324D01*
X29799120Y-20740924D01*
X29788372Y-20717875D01*
X29782740Y-20703578D01*
X29773903Y-20676379D01*
X29739030Y-20611574D01*
X29735820Y-20605178D01*
X29706056Y-20541347D01*
X29689490Y-20517689D01*
X29681746Y-20505122D01*
X29669236Y-20481874D01*
X29669234Y-20481871D01*
X29666556Y-20476894D01*
X29663031Y-20472475D01*
X29663028Y-20472469D01*
X29622832Y-20422065D01*
X29618148Y-20415803D01*
X29579749Y-20360962D01*
X29556881Y-20338094D01*
X29547466Y-20327559D01*
X29528844Y-20304208D01*
X29528841Y-20304205D01*
X29525314Y-20299782D01*
X29475111Y-20255921D01*
X29468916Y-20250129D01*
X29427928Y-20209141D01*
X29427927Y-20209140D01*
X29424038Y-20205251D01*
X29394697Y-20184707D01*
X29384078Y-20176389D01*
X29354718Y-20150737D01*
X29349858Y-20147833D01*
X29349855Y-20147831D01*
X29300469Y-20118324D01*
X29292825Y-20113373D01*
X29248168Y-20082104D01*
X29248161Y-20082100D01*
X29243654Y-20078944D01*
X29238667Y-20076618D01*
X29238661Y-20076615D01*
X29208053Y-20062342D01*
X29196687Y-20056317D01*
X29160250Y-20034547D01*
X29154949Y-20032557D01*
X29154944Y-20032555D01*
X29104309Y-20013551D01*
X29095334Y-20009781D01*
X29049066Y-19988206D01*
X29049057Y-19988202D01*
X29044076Y-19985880D01*
X29038770Y-19984458D01*
X29038764Y-19984456D01*
X29002800Y-19974820D01*
X28991139Y-19971079D01*
X28948161Y-19954949D01*
X28942602Y-19953940D01*
X28942598Y-19953939D01*
X28892781Y-19944898D01*
X28882672Y-19942630D01*
X28836685Y-19930308D01*
X28836675Y-19930306D01*
X28831371Y-19928885D01*
X28825896Y-19928405D01*
X28825891Y-19928405D01*
X28785344Y-19924857D01*
X28773836Y-19923313D01*
X28756313Y-19920133D01*
X28730834Y-19915510D01*
X28730832Y-19915509D01*
X28725267Y-19914500D01*
X28719603Y-19914500D01*
X28672452Y-19914500D01*
X28661471Y-19914021D01*
X28617475Y-19910172D01*
X28612000Y-19909693D01*
X28606525Y-19910172D01*
X28606523Y-19910172D01*
X28558386Y-19914383D01*
X28556619Y-19914500D01*
X28555478Y-19914500D01*
X28552675Y-19914752D01*
X28552657Y-19914753D01*
X28500887Y-19919412D01*
X28500578Y-19919439D01*
X28395959Y-19928592D01*
X28395922Y-19928596D01*
X28392629Y-19928885D01*
X28391103Y-19929293D01*
X28386378Y-19929719D01*
X28380933Y-19931221D01*
X28380931Y-19931222D01*
X28282123Y-19958491D01*
X28281217Y-19958737D01*
X28185238Y-19984456D01*
X28179924Y-19985880D01*
X28176820Y-19987326D01*
X28174893Y-19987942D01*
X28173455Y-19988481D01*
X28168007Y-19989986D01*
X28162924Y-19992433D01*
X28162910Y-19992439D01*
X28073633Y-20035431D01*
X28072218Y-20036102D01*
X27985323Y-20076623D01*
X27985317Y-20076626D01*
X27980347Y-20078944D01*
X27975851Y-20082090D01*
X27975429Y-20082335D01*
X27970290Y-20085051D01*
X27968997Y-20085823D01*
X27963907Y-20088275D01*
X27959340Y-20091592D01*
X27959325Y-20091602D01*
X27881992Y-20147787D01*
X27880206Y-20149062D01*
X27804460Y-20202101D01*
X27804457Y-20202103D01*
X27799962Y-20205251D01*
X27796077Y-20209134D01*
X27791860Y-20212674D01*
X27791673Y-20212451D01*
X27789445Y-20214353D01*
X27789472Y-20214384D01*
X27785216Y-20218101D01*
X27780637Y-20221429D01*
X27776731Y-20225513D01*
X27776722Y-20225522D01*
X27713077Y-20292089D01*
X27711103Y-20294108D01*
X27648137Y-20357075D01*
X27648132Y-20357080D01*
X27644251Y-20360962D01*
X27641099Y-20365462D01*
X27637562Y-20369678D01*
X27637558Y-20369675D01*
X27629473Y-20379533D01*
X27627998Y-20381075D01*
X27627993Y-20381080D01*
X27624088Y-20385166D01*
X27620971Y-20389887D01*
X27620967Y-20389893D01*
X27572144Y-20463855D01*
X27570203Y-20466710D01*
X27521096Y-20536843D01*
X27521088Y-20536856D01*
X27517944Y-20541347D01*
X27515625Y-20546318D01*
X27515620Y-20546328D01*
X27514520Y-20548687D01*
X27505494Y-20564827D01*
X27502412Y-20569496D01*
X27502407Y-20569503D01*
X27499291Y-20574226D01*
X27497069Y-20579423D01*
X27497066Y-20579430D01*
X27463582Y-20657769D01*
X27461918Y-20661494D01*
X27435625Y-20717880D01*
X27424880Y-20740924D01*
X27423459Y-20746225D01*
X27423455Y-20746237D01*
X27421886Y-20752092D01*
X27416051Y-20768970D01*
X27412481Y-20777324D01*
X27412478Y-20777332D01*
X27410257Y-20782530D01*
X27408998Y-20788042D01*
X27408998Y-20788045D01*
X27390816Y-20867708D01*
X27389682Y-20872281D01*
X27369309Y-20948311D01*
X27369307Y-20948321D01*
X27367885Y-20953629D01*
X27367406Y-20959108D01*
X27367405Y-20959114D01*
X27366575Y-20968600D01*
X27363896Y-20985648D01*
X27359849Y-21003385D01*
X27359595Y-21009033D01*
X27359594Y-21009043D01*
X27356083Y-21087218D01*
X27355731Y-21092543D01*
X27348693Y-21173000D01*
X23358489Y-21173000D01*
X23436296Y-20995616D01*
X23491564Y-20777368D01*
X23510156Y-20553000D01*
X23491564Y-20328632D01*
X23436296Y-20110384D01*
X23345860Y-19904209D01*
X23222722Y-19715732D01*
X23161956Y-19649723D01*
X23073772Y-19553930D01*
X23073767Y-19553925D01*
X23070240Y-19550094D01*
X22892576Y-19411811D01*
X22887997Y-19409333D01*
X22887994Y-19409331D01*
X22859318Y-19393812D01*
X22811047Y-19347494D01*
X22793289Y-19282996D01*
X22811050Y-19218499D01*
X22859321Y-19172185D01*
X22892576Y-19154189D01*
X23070240Y-19015906D01*
X23222722Y-18850268D01*
X23345860Y-18661791D01*
X23436296Y-18455616D01*
X23491564Y-18237368D01*
X23510156Y-18013000D01*
X23491564Y-17788632D01*
X23436296Y-17570384D01*
X23345860Y-17364209D01*
X23329008Y-17338415D01*
X23308599Y-17274707D01*
X23323677Y-17209531D01*
X23369994Y-17161259D01*
X23434491Y-17143500D01*
X27049448Y-17143500D01*
X27115511Y-17162207D01*
G37*
%TD.AperFunction*%
%TD*%
M02*
