<?xml version="1.0" encoding="UTF-8" standalone="no"?>
<!DOCTYPE svg PUBLIC "-//W3C//DTD SVG 1.1//EN" "http://www.w3.org/Graphics/SVG/1.1/DTD/svg11.dtd">
<svg width="100%" height="100%" viewBox="0 0 154 154" version="1.1" xmlns="http://www.w3.org/2000/svg" xmlns:xlink="http://www.w3.org/1999/xlink" xml:space="preserve" xmlns:serif="http://www.serif.com/" style="fill-rule:evenodd;clip-rule:evenodd;stroke-linejoin:round;stroke-miterlimit:2;">
    <g transform="matrix(1,0,0,1,-2037.4,-46.063)">
        <g id="_0--" serif:id="0-)" transform="matrix(1,0,0,1,1792.91,0)">
            <g id="Global-background" serif:id="Global background" transform="matrix(3.19882,0,0,2.88209,-138.632,-381.554)">
                <path d="M119.769,160.665C119.769,157.404 120.936,154.277 123.014,151.971C125.091,149.666 127.908,148.37 130.846,148.37L156.692,148.37C159.63,148.37 162.448,149.666 164.525,151.971C166.602,154.277 167.769,157.404 167.769,160.665L167.769,189.351C167.769,192.612 166.602,195.739 164.525,198.044C162.448,200.35 159.63,201.645 156.692,201.645L130.846,201.645C127.908,201.645 125.091,200.35 123.014,198.044C120.936,195.739 119.769,192.612 119.769,189.351L119.769,160.665Z" style="fill:rgb(230,230,230);"/>
            </g>
            <g id="Bottom-background" serif:id="Bottom background" transform="matrix(3.19882,0,0,2.88209,-138.632,-381.554)">
                <path d="M163.63,176.259C164.241,176.259 164.737,176.809 164.737,177.488C164.737,179.758 164.737,184.794 164.737,189.351C164.737,191.742 163.882,194.035 162.358,195.726C160.835,197.417 158.769,198.367 156.614,198.367L130.895,198.367C128.741,198.367 126.675,197.417 125.151,195.726C123.628,194.035 122.772,191.742 122.772,189.351L122.772,177.488C122.772,176.809 123.268,176.259 123.88,176.259C129.805,176.259 157.705,176.259 163.63,176.259Z" style="fill:rgb(92,60,28);"/>
            </g>
            <g id="Top-background" serif:id="Top background" transform="matrix(3.19882,0,0,2.88209,-138.632,-381.554)">
                <path d="M163.708,173.259C164.001,173.259 164.283,173.129 164.491,172.898C164.699,172.668 164.815,172.355 164.815,172.029C164.815,169.831 164.815,165.046 164.815,160.665C164.815,158.273 163.96,155.98 162.436,154.289C160.913,152.599 158.847,151.649 156.692,151.649L130.846,151.649C128.692,151.649 126.626,152.599 125.102,154.289C123.579,155.98 122.723,158.273 122.723,160.665L122.723,172.029C122.723,172.355 122.84,172.668 123.048,172.898C123.255,173.129 123.537,173.259 123.831,173.259C129.768,173.259 157.771,173.259 163.708,173.259Z" style="fill:rgb(187,101,43);"/>
            </g>
            <g id="Bottom-glyph" serif:id="Bottom glyph" transform="matrix(1,0,0,1,-38.4052,1.87907)">
                <g transform="matrix(58.3333,0,0,58.3333,340.328,177.097)">
                    <path d="M0.331,0.016C0.274,0.016 0.224,0.001 0.182,-0.029C0.14,-0.059 0.108,-0.102 0.085,-0.157C0.062,-0.212 0.05,-0.278 0.05,-0.354C0.05,-0.43 0.062,-0.496 0.085,-0.552C0.108,-0.607 0.14,-0.65 0.182,-0.681C0.224,-0.711 0.274,-0.726 0.331,-0.726C0.389,-0.726 0.439,-0.711 0.481,-0.681C0.523,-0.65 0.556,-0.607 0.579,-0.552C0.602,-0.497 0.613,-0.431 0.613,-0.354C0.613,-0.278 0.602,-0.212 0.579,-0.157C0.556,-0.102 0.523,-0.059 0.481,-0.029C0.439,0.001 0.389,0.016 0.331,0.016ZM0.331,-0.068C0.392,-0.068 0.44,-0.093 0.473,-0.143C0.506,-0.192 0.523,-0.263 0.523,-0.354C0.523,-0.415 0.516,-0.468 0.501,-0.511C0.486,-0.554 0.464,-0.586 0.436,-0.609C0.407,-0.631 0.372,-0.642 0.331,-0.642C0.29,-0.642 0.256,-0.631 0.228,-0.609C0.199,-0.586 0.178,-0.554 0.163,-0.511C0.148,-0.468 0.14,-0.415 0.14,-0.354C0.14,-0.263 0.157,-0.192 0.19,-0.143C0.223,-0.093 0.27,-0.068 0.331,-0.068Z" style="fill:rgb(230,230,230);fill-rule:nonzero;"/>
                </g>
            </g>
            <g id="Top-glyph" serif:id="Top glyph" transform="matrix(1,0,0,1,-36.049,-7.36483)">
                <g transform="matrix(58.3333,0,0,58.3333,350.192,112.252)">
                    <path d="M0.09,0.11L0.015,0.11C0.057,0.038 0.089,-0.034 0.11,-0.106C0.131,-0.177 0.142,-0.249 0.142,-0.32C0.142,-0.463 0.1,-0.606 0.015,-0.75L0.09,-0.75C0.183,-0.611 0.229,-0.468 0.229,-0.32C0.229,-0.173 0.183,-0.029 0.09,0.11Z" style="fill:rgb(230,230,230);fill-rule:nonzero;"/>
                </g>
            </g>
        </g>
    </g>
</svg>
