<?xml version="1.0" encoding="UTF-8" standalone="no"?>
<!DOCTYPE svg PUBLIC "-//W3C//DTD SVG 1.1//EN" "http://www.w3.org/Graphics/SVG/1.1/DTD/svg11.dtd">
<svg width="100%" height="100%" viewBox="0 0 154 154" version="1.1" xmlns="http://www.w3.org/2000/svg" xmlns:xlink="http://www.w3.org/1999/xlink" xml:space="preserve" xmlns:serif="http://www.serif.com/" style="fill-rule:evenodd;clip-rule:evenodd;stroke-linejoin:round;stroke-miterlimit:2;">
    <g transform="matrix(1,0,0,1,-450,-46.063)">
        <g id="_2--" serif:id="2-&quot;" transform="matrix(1,0,0,1,205.512,0)">
            <g id="Global-background" serif:id="Global background" transform="matrix(3.19882,0,0,2.88209,-138.632,-381.554)">
                <path d="M119.769,160.665C119.769,157.404 120.936,154.277 123.014,151.971C125.091,149.666 127.908,148.37 130.846,148.37L156.692,148.37C159.63,148.37 162.448,149.666 164.525,151.971C166.602,154.277 167.769,157.404 167.769,160.665L167.769,189.351C167.769,192.612 166.602,195.739 164.525,198.044C162.448,200.35 159.63,201.645 156.692,201.645L130.846,201.645C127.908,201.645 125.091,200.35 123.014,198.044C120.936,195.739 119.769,192.612 119.769,189.351L119.769,160.665Z" style="fill:rgb(230,230,230);"/>
            </g>
            <g id="Bottom-background" serif:id="Bottom background" transform="matrix(3.19882,0,0,2.88209,-138.632,-381.554)">
                <path d="M163.63,176.259C164.241,176.259 164.737,176.809 164.737,177.488C164.737,179.758 164.737,184.794 164.737,189.351C164.737,191.742 163.882,194.035 162.358,195.726C160.835,197.417 158.769,198.367 156.614,198.367L130.895,198.367C128.741,198.367 126.675,197.417 125.151,195.726C123.628,194.035 122.772,191.742 122.772,189.351L122.772,177.488C122.772,176.809 123.268,176.259 123.88,176.259C129.805,176.259 157.705,176.259 163.63,176.259Z" style="fill:rgb(92,60,28);"/>
            </g>
            <g id="Top-background" serif:id="Top background" transform="matrix(3.19882,0,0,2.88209,-138.632,-381.554)">
                <path d="M163.708,173.259C164.001,173.259 164.283,173.129 164.491,172.898C164.699,172.668 164.815,172.355 164.815,172.029C164.815,169.831 164.815,165.046 164.815,160.665C164.815,158.273 163.96,155.98 162.436,154.289C160.913,152.599 158.847,151.649 156.692,151.649L130.846,151.649C128.692,151.649 126.626,152.599 125.102,154.289C123.579,155.98 122.723,158.273 122.723,160.665L122.723,172.029C122.723,172.355 122.84,172.668 123.048,172.898C123.255,173.129 123.537,173.259 123.831,173.259C129.768,173.259 157.771,173.259 163.708,173.259Z" style="fill:rgb(187,101,43);"/>
            </g>
            <g id="Bottom-glyph" serif:id="Bottom glyph" transform="matrix(1,0,0,1,-37.1219,1.87907)">
                <g transform="matrix(58.3333,0,0,58.3333,340.328,177.097)">
                    <path d="M0.06,-0C0.06,-0.05 0.068,-0.095 0.084,-0.136C0.099,-0.176 0.127,-0.214 0.167,-0.251C0.206,-0.288 0.261,-0.325 0.332,-0.362C0.365,-0.379 0.391,-0.395 0.411,-0.41C0.431,-0.425 0.446,-0.44 0.455,-0.457C0.464,-0.474 0.469,-0.494 0.469,-0.518C0.469,-0.543 0.464,-0.564 0.453,-0.583C0.442,-0.601 0.427,-0.615 0.406,-0.626C0.385,-0.637 0.358,-0.642 0.327,-0.642C0.277,-0.642 0.238,-0.629 0.209,-0.603C0.18,-0.577 0.161,-0.54 0.154,-0.492L0.064,-0.498C0.072,-0.567 0.099,-0.623 0.144,-0.664C0.189,-0.705 0.25,-0.726 0.327,-0.726C0.376,-0.726 0.417,-0.717 0.452,-0.7C0.487,-0.683 0.513,-0.659 0.532,-0.628C0.55,-0.596 0.559,-0.561 0.559,-0.52C0.559,-0.484 0.553,-0.453 0.541,-0.427C0.529,-0.4 0.509,-0.376 0.481,-0.353C0.452,-0.33 0.413,-0.306 0.364,-0.28C0.3,-0.246 0.252,-0.212 0.219,-0.177C0.186,-0.142 0.168,-0.111 0.166,-0.084L0.559,-0.084L0.559,-0L0.06,-0Z" style="fill:rgb(230,230,230);fill-rule:nonzero;"/>
                </g>
            </g>
            <g id="Top-glyph" serif:id="Top glyph">
                <g id="Top-glyph-half-2" serif:id="Top glyph half 2" transform="matrix(1,0,0,1,-41.9334,-42.1128)">
                    <g transform="matrix(58.3333,0,0,58.3333,351.425,114.21)">
                        <path d="M0.047,0.156L0.095,-0L0.044,-0L0.044,-0.113L0.157,-0.113L0.157,-0.014L0.097,0.156L0.047,0.156Z" style="fill:rgb(230,230,230);fill-rule:nonzero;"/>
                    </g>
                </g>
                <g id="Top-glyph-half-1" serif:id="Top glyph half 1" transform="matrix(1,0,0,1,-28.9412,-42.1128)">
                    <g transform="matrix(58.3333,0,0,58.3333,351.425,114.21)">
                        <path d="M0.047,0.156L0.095,-0L0.044,-0L0.044,-0.113L0.157,-0.113L0.157,-0.014L0.097,0.156L0.047,0.156Z" style="fill:rgb(230,230,230);fill-rule:nonzero;"/>
                    </g>
                </g>
            </g>
        </g>
    </g>
</svg>
