<?xml version="1.0" encoding="UTF-8" standalone="no"?>
<!DOCTYPE svg PUBLIC "-//W3C//DTD SVG 1.1//EN" "http://www.w3.org/Graphics/SVG/1.1/DTD/svg11.dtd">
<svg width="100%" height="100%" viewBox="0 0 154 154" version="1.1" xmlns="http://www.w3.org/2000/svg" xmlns:xlink="http://www.w3.org/1999/xlink" xml:space="preserve" xmlns:serif="http://www.serif.com/" style="fill-rule:evenodd;clip-rule:evenodd;stroke-linejoin:round;stroke-miterlimit:2;">
    <g transform="matrix(1,0,0,1,-648.425,-46.063)">
        <g id="_3--" serif:id="3-#" transform="matrix(1,0,0,1,403.937,0)">
            <g id="Global-background" serif:id="Global background" transform="matrix(3.19882,0,0,2.88209,-138.632,-381.554)">
                <path d="M119.769,160.665C119.769,157.404 120.936,154.277 123.014,151.971C125.091,149.666 127.908,148.37 130.846,148.37L156.692,148.37C159.63,148.37 162.448,149.666 164.525,151.971C166.602,154.277 167.769,157.404 167.769,160.665L167.769,189.351C167.769,192.612 166.602,195.739 164.525,198.044C162.448,200.35 159.63,201.645 156.692,201.645L130.846,201.645C127.908,201.645 125.091,200.35 123.014,198.044C120.936,195.739 119.769,192.612 119.769,189.351L119.769,160.665Z" style="fill:rgb(230,230,230);"/>
            </g>
            <g id="Bottom-background" serif:id="Bottom background" transform="matrix(3.19882,0,0,2.88209,-138.632,-381.554)">
                <path d="M163.63,176.259C164.241,176.259 164.737,176.809 164.737,177.488C164.737,179.758 164.737,184.794 164.737,189.351C164.737,191.742 163.882,194.035 162.358,195.726C160.835,197.417 158.769,198.367 156.614,198.367L130.895,198.367C128.741,198.367 126.675,197.417 125.151,195.726C123.628,194.035 122.772,191.742 122.772,189.351L122.772,177.488C122.772,176.809 123.268,176.259 123.88,176.259C129.805,176.259 157.705,176.259 163.63,176.259Z" style="fill:rgb(92,60,28);"/>
            </g>
            <g id="Top-background" serif:id="Top background" transform="matrix(3.19882,0,0,2.88209,-138.632,-381.554)">
                <path d="M163.708,173.259C164.001,173.259 164.283,173.129 164.491,172.898C164.699,172.668 164.815,172.355 164.815,172.029C164.815,169.831 164.815,165.046 164.815,160.665C164.815,158.273 163.96,155.98 162.436,154.289C160.913,152.599 158.847,151.649 156.692,151.649L130.846,151.649C128.692,151.649 126.626,152.599 125.102,154.289C123.579,155.98 122.723,158.273 122.723,160.665L122.723,172.029C122.723,172.355 122.84,172.668 123.048,172.898C123.255,173.129 123.537,173.259 123.831,173.259C129.768,173.259 157.771,173.259 163.708,173.259Z" style="fill:rgb(187,101,43);"/>
            </g>
            <g id="Bottom-glyph" serif:id="Bottom glyph" transform="matrix(1,0,0,1,-37.1219,1.87907)">
                <g transform="matrix(58.3333,0,0,58.3333,340.328,177.097)">
                    <path d="M0.301,0.016C0.222,0.016 0.162,-0.003 0.119,-0.04C0.076,-0.077 0.053,-0.124 0.05,-0.183L0.139,-0.189C0.143,-0.146 0.16,-0.115 0.19,-0.096C0.219,-0.077 0.256,-0.068 0.301,-0.068C0.332,-0.068 0.36,-0.072 0.386,-0.081C0.412,-0.089 0.433,-0.102 0.449,-0.122C0.465,-0.14 0.473,-0.166 0.473,-0.198C0.473,-0.245 0.457,-0.28 0.426,-0.302C0.395,-0.324 0.353,-0.335 0.302,-0.335L0.246,-0.335L0.246,-0.419L0.302,-0.419C0.344,-0.419 0.379,-0.427 0.407,-0.444C0.434,-0.461 0.448,-0.489 0.448,-0.53C0.448,-0.567 0.436,-0.595 0.413,-0.614C0.389,-0.632 0.353,-0.642 0.306,-0.642C0.259,-0.642 0.224,-0.633 0.201,-0.615C0.177,-0.597 0.163,-0.572 0.158,-0.541L0.068,-0.547C0.075,-0.6 0.098,-0.644 0.139,-0.677C0.18,-0.709 0.235,-0.726 0.306,-0.726C0.354,-0.726 0.395,-0.718 0.43,-0.703C0.465,-0.687 0.491,-0.665 0.51,-0.636C0.529,-0.607 0.538,-0.573 0.538,-0.534C0.538,-0.49 0.524,-0.455 0.497,-0.428C0.469,-0.401 0.428,-0.382 0.374,-0.372L0.374,-0.39C0.432,-0.383 0.478,-0.363 0.512,-0.328C0.546,-0.293 0.563,-0.25 0.563,-0.198C0.563,-0.153 0.552,-0.114 0.53,-0.082C0.507,-0.05 0.476,-0.026 0.437,-0.009C0.398,0.008 0.352,0.016 0.301,0.016Z" style="fill:rgb(230,230,230);fill-rule:nonzero;"/>
                </g>
            </g>
            <g id="Top-glyph" serif:id="Top glyph" transform="matrix(1,0,0,1,-42.7281,-5.32316)">
                <g transform="matrix(58.3333,0,0,58.3333,350.192,112.252)">
                    <path d="M0.234,-0L0.366,-0.71L0.438,-0.71L0.306,-0L0.234,-0ZM-0.01,-0.197L0.002,-0.267L0.443,-0.267L0.431,-0.197L-0.01,-0.197ZM0.036,-0L0.168,-0.71L0.24,-0.71L0.108,-0L0.036,-0ZM0.03,-0.44L0.042,-0.51L0.483,-0.51L0.471,-0.44L0.03,-0.44Z" style="fill:rgb(230,230,230);fill-rule:nonzero;"/>
                </g>
            </g>
        </g>
    </g>
</svg>
