<?xml version="1.0" encoding="UTF-8" standalone="no"?>
<!DOCTYPE svg PUBLIC "-//W3C//DTD SVG 1.1//EN" "http://www.w3.org/Graphics/SVG/1.1/DTD/svg11.dtd">
<svg width="100%" height="100%" viewBox="0 0 154 154" version="1.1" xmlns="http://www.w3.org/2000/svg" xmlns:xlink="http://www.w3.org/1999/xlink" xml:space="preserve" xmlns:serif="http://www.serif.com/" style="fill-rule:evenodd;clip-rule:evenodd;stroke-linejoin:round;stroke-miterlimit:2;">
    <g transform="matrix(1,0,0,1,-846.85,-46.063)">
        <g id="_4--" serif:id="4-$" transform="matrix(1,0,0,1,602.362,0)">
            <g id="Global-background" serif:id="Global background" transform="matrix(3.19882,0,0,2.88209,-138.632,-381.554)">
                <path d="M119.769,160.665C119.769,157.404 120.936,154.277 123.014,151.971C125.091,149.666 127.908,148.37 130.846,148.37L156.692,148.37C159.63,148.37 162.448,149.666 164.525,151.971C166.602,154.277 167.769,157.404 167.769,160.665L167.769,189.351C167.769,192.612 166.602,195.739 164.525,198.044C162.448,200.35 159.63,201.645 156.692,201.645L130.846,201.645C127.908,201.645 125.091,200.35 123.014,198.044C120.936,195.739 119.769,192.612 119.769,189.351L119.769,160.665Z" style="fill:rgb(230,230,230);"/>
            </g>
            <g id="Bottom-background" serif:id="Bottom background" transform="matrix(3.19882,0,0,2.88209,-138.632,-381.554)">
                <path d="M163.63,176.259C164.241,176.259 164.737,176.809 164.737,177.488C164.737,179.758 164.737,184.794 164.737,189.351C164.737,191.742 163.882,194.035 162.358,195.726C160.835,197.417 158.769,198.367 156.614,198.367L130.895,198.367C128.741,198.367 126.675,197.417 125.151,195.726C123.628,194.035 122.772,191.742 122.772,189.351L122.772,177.488C122.772,176.809 123.268,176.259 123.88,176.259C129.805,176.259 157.705,176.259 163.63,176.259Z" style="fill:rgb(92,60,28);"/>
            </g>
            <g id="Top-background" serif:id="Top background" transform="matrix(3.19882,0,0,2.88209,-138.632,-381.554)">
                <path d="M163.708,173.259C164.001,173.259 164.283,173.129 164.491,172.898C164.699,172.668 164.815,172.355 164.815,172.029C164.815,169.831 164.815,165.046 164.815,160.665C164.815,158.273 163.96,155.98 162.436,154.289C160.913,152.599 158.847,151.649 156.692,151.649L130.846,151.649C128.692,151.649 126.626,152.599 125.102,154.289C123.579,155.98 122.723,158.273 122.723,160.665L122.723,172.029C122.723,172.355 122.84,172.668 123.048,172.898C123.255,173.129 123.537,173.259 123.831,173.259C129.768,173.259 157.771,173.259 163.708,173.259Z" style="fill:rgb(187,101,43);"/>
            </g>
            <g id="Bottom-glyph" serif:id="Bottom glyph" transform="matrix(1,0,0,1,-36.4219,1.87907)">
                <g transform="matrix(58.3333,0,0,58.3333,340.328,177.097)">
                    <path d="M0.391,-0L0.391,-0.154L0.03,-0.154L0.03,-0.232L0.385,-0.71L0.477,-0.71L0.477,-0.238L0.565,-0.238L0.565,-0.154L0.477,-0.154L0.477,-0L0.391,-0ZM0.134,-0.238L0.391,-0.238L0.391,-0.578L0.134,-0.238Z" style="fill:rgb(230,230,230);fill-rule:nonzero;"/>
                </g>
            </g>
            <g id="Top-glyph" serif:id="Top glyph" transform="matrix(1,0,0,1,-47.2781,-5.32316)">
                <g transform="matrix(58.3333,0,0,58.3333,350.192,112.252)">
                    <path d="M0.285,0.09L0.285,-0.8L0.359,-0.8L0.359,0.09L0.285,0.09ZM0.33,0.016C0.277,0.016 0.23,0.006 0.191,-0.015C0.151,-0.035 0.119,-0.063 0.096,-0.099C0.073,-0.134 0.059,-0.175 0.055,-0.222L0.143,-0.228C0.148,-0.193 0.158,-0.164 0.174,-0.14C0.189,-0.116 0.21,-0.098 0.237,-0.086C0.263,-0.073 0.295,-0.067 0.332,-0.067C0.365,-0.067 0.393,-0.071 0.416,-0.08C0.439,-0.088 0.456,-0.1 0.468,-0.117C0.48,-0.133 0.486,-0.153 0.486,-0.176C0.486,-0.198 0.481,-0.217 0.471,-0.234C0.461,-0.251 0.442,-0.266 0.413,-0.28C0.384,-0.294 0.342,-0.308 0.287,-0.321C0.234,-0.335 0.191,-0.35 0.159,-0.367C0.127,-0.383 0.104,-0.403 0.091,-0.427C0.077,-0.45 0.07,-0.479 0.07,-0.514C0.07,-0.553 0.079,-0.587 0.098,-0.617C0.117,-0.646 0.143,-0.669 0.178,-0.686C0.212,-0.703 0.253,-0.711 0.301,-0.711C0.352,-0.711 0.395,-0.701 0.432,-0.683C0.469,-0.664 0.498,-0.637 0.52,-0.604C0.541,-0.571 0.555,-0.533 0.56,-0.49L0.471,-0.484C0.468,-0.512 0.459,-0.537 0.445,-0.559C0.431,-0.581 0.412,-0.598 0.388,-0.611C0.363,-0.623 0.334,-0.629 0.299,-0.629C0.256,-0.629 0.221,-0.619 0.196,-0.598C0.171,-0.577 0.158,-0.55 0.158,-0.517C0.158,-0.496 0.163,-0.478 0.173,-0.464C0.183,-0.449 0.201,-0.437 0.228,-0.426C0.254,-0.415 0.291,-0.404 0.34,-0.392C0.398,-0.377 0.444,-0.36 0.479,-0.341C0.513,-0.321 0.537,-0.298 0.552,-0.272C0.567,-0.245 0.574,-0.215 0.574,-0.182C0.574,-0.142 0.564,-0.107 0.543,-0.078C0.522,-0.048 0.493,-0.025 0.456,-0.009C0.419,0.008 0.377,0.016 0.33,0.016Z" style="fill:rgb(230,230,230);fill-rule:nonzero;"/>
                </g>
            </g>
        </g>
    </g>
</svg>
