<?xml version="1.0" encoding="UTF-8" standalone="no"?>
<!DOCTYPE svg PUBLIC "-//W3C//DTD SVG 1.1//EN" "http://www.w3.org/Graphics/SVG/1.1/DTD/svg11.dtd">
<svg width="100%" height="100%" viewBox="0 0 154 154" version="1.1" xmlns="http://www.w3.org/2000/svg" xmlns:xlink="http://www.w3.org/1999/xlink" xml:space="preserve" xmlns:serif="http://www.serif.com/" style="fill-rule:evenodd;clip-rule:evenodd;stroke-linejoin:round;stroke-miterlimit:2;">
    <g transform="matrix(1,0,0,1,-1045.28,-46.063)">
        <g id="_5--" serif:id="5-%" transform="matrix(1,0,0,1,800.787,0)">
            <g id="Global-background" serif:id="Global background" transform="matrix(3.19882,0,0,2.88209,-138.632,-381.554)">
                <path d="M119.769,160.665C119.769,157.404 120.936,154.277 123.014,151.971C125.091,149.666 127.908,148.37 130.846,148.37L156.692,148.37C159.63,148.37 162.448,149.666 164.525,151.971C166.602,154.277 167.769,157.404 167.769,160.665L167.769,189.351C167.769,192.612 166.602,195.739 164.525,198.044C162.448,200.35 159.63,201.645 156.692,201.645L130.846,201.645C127.908,201.645 125.091,200.35 123.014,198.044C120.936,195.739 119.769,192.612 119.769,189.351L119.769,160.665Z" style="fill:rgb(230,230,230);"/>
            </g>
            <g id="Bottom-background" serif:id="Bottom background" transform="matrix(3.19882,0,0,2.88209,-138.632,-381.554)">
                <path d="M163.63,176.259C164.241,176.259 164.737,176.809 164.737,177.488C164.737,179.758 164.737,184.794 164.737,189.351C164.737,191.742 163.882,194.035 162.358,195.726C160.835,197.417 158.769,198.367 156.614,198.367L130.895,198.367C128.741,198.367 126.675,197.417 125.151,195.726C123.628,194.035 122.772,191.742 122.772,189.351L122.772,177.488C122.772,176.809 123.268,176.259 123.88,176.259C129.805,176.259 157.705,176.259 163.63,176.259Z" style="fill:rgb(92,60,28);"/>
            </g>
            <g id="Top-background" serif:id="Top background" transform="matrix(3.19882,0,0,2.88209,-138.632,-381.554)">
                <path d="M163.708,173.259C164.001,173.259 164.283,173.129 164.491,172.898C164.699,172.668 164.815,172.355 164.815,172.029C164.815,169.831 164.815,165.046 164.815,160.665C164.815,158.273 163.96,155.98 162.436,154.289C160.913,152.599 158.847,151.649 156.692,151.649L130.846,151.649C128.692,151.649 126.626,152.599 125.102,154.289C123.579,155.98 122.723,158.273 122.723,160.665L122.723,172.029C122.723,172.355 122.84,172.668 123.048,172.898C123.255,173.129 123.537,173.259 123.831,173.259C129.768,173.259 157.771,173.259 163.708,173.259Z" style="fill:rgb(187,101,43);"/>
            </g>
            <g id="Bottom-glyph" serif:id="Bottom glyph" transform="matrix(1,0,0,1,-37.2969,1.87907)">
                <g transform="matrix(58.3333,0,0,58.3333,340.328,177.097)">
                    <path d="M0.312,0.016C0.262,0.016 0.219,0.008 0.183,-0.009C0.146,-0.026 0.118,-0.049 0.097,-0.079C0.076,-0.109 0.063,-0.144 0.06,-0.183L0.15,-0.189C0.155,-0.149 0.173,-0.119 0.202,-0.099C0.231,-0.078 0.267,-0.068 0.312,-0.068C0.362,-0.068 0.402,-0.082 0.431,-0.111C0.46,-0.139 0.475,-0.178 0.475,-0.228C0.475,-0.261 0.468,-0.29 0.456,-0.315C0.443,-0.339 0.424,-0.358 0.399,-0.371C0.374,-0.384 0.345,-0.391 0.31,-0.391C0.277,-0.391 0.248,-0.384 0.221,-0.37C0.194,-0.356 0.175,-0.336 0.164,-0.311L0.072,-0.311L0.119,-0.71L0.517,-0.71L0.517,-0.626L0.198,-0.626L0.166,-0.364L0.15,-0.38C0.161,-0.401 0.175,-0.418 0.193,-0.432C0.21,-0.445 0.231,-0.456 0.254,-0.463C0.277,-0.47 0.301,-0.473 0.326,-0.473C0.373,-0.473 0.415,-0.463 0.451,-0.442C0.487,-0.421 0.515,-0.392 0.535,-0.355C0.555,-0.317 0.565,-0.275 0.565,-0.228C0.565,-0.181 0.554,-0.138 0.533,-0.102C0.512,-0.065 0.482,-0.036 0.444,-0.015C0.406,0.006 0.362,0.016 0.312,0.016Z" style="fill:rgb(230,230,230);fill-rule:nonzero;"/>
                </g>
            </g>
            <g id="Top-glyph" serif:id="Top glyph" transform="matrix(1,0,0,1,-52.324,-5.32316)">
                <g transform="matrix(58.3333,0,0,58.3333,350.192,112.252)">
                    <path d="M0.198,-0.366C0.153,-0.366 0.117,-0.381 0.088,-0.412C0.058,-0.442 0.044,-0.485 0.044,-0.542C0.044,-0.599 0.058,-0.643 0.088,-0.673C0.117,-0.703 0.153,-0.718 0.198,-0.718C0.243,-0.718 0.28,-0.703 0.309,-0.673C0.338,-0.643 0.352,-0.599 0.352,-0.542C0.352,-0.485 0.338,-0.442 0.309,-0.412C0.28,-0.381 0.243,-0.366 0.198,-0.366ZM0.198,-0.428C0.225,-0.428 0.246,-0.438 0.26,-0.458C0.273,-0.478 0.28,-0.506 0.28,-0.542C0.28,-0.578 0.273,-0.606 0.26,-0.626C0.246,-0.646 0.225,-0.656 0.198,-0.656C0.171,-0.656 0.151,-0.646 0.137,-0.626C0.123,-0.606 0.116,-0.578 0.116,-0.542C0.116,-0.506 0.123,-0.478 0.137,-0.458C0.151,-0.438 0.171,-0.428 0.198,-0.428ZM0.604,0.008C0.559,0.008 0.523,-0.007 0.494,-0.038C0.464,-0.068 0.45,-0.111 0.45,-0.168C0.45,-0.225 0.464,-0.269 0.494,-0.299C0.523,-0.329 0.559,-0.344 0.604,-0.344C0.649,-0.344 0.686,-0.329 0.715,-0.299C0.744,-0.269 0.758,-0.225 0.758,-0.168C0.758,-0.111 0.744,-0.068 0.715,-0.038C0.686,-0.007 0.649,0.008 0.604,0.008ZM0.604,-0.054C0.631,-0.054 0.652,-0.064 0.666,-0.084C0.679,-0.104 0.686,-0.132 0.686,-0.168C0.686,-0.204 0.679,-0.232 0.666,-0.252C0.652,-0.272 0.631,-0.282 0.604,-0.282C0.577,-0.282 0.557,-0.272 0.543,-0.252C0.529,-0.232 0.522,-0.204 0.522,-0.168C0.522,-0.132 0.529,-0.104 0.543,-0.084C0.557,-0.064 0.577,-0.054 0.604,-0.054ZM0.116,-0L0.606,-0.71L0.686,-0.71L0.196,-0L0.116,-0Z" style="fill:rgb(230,230,230);fill-rule:nonzero;"/>
                </g>
            </g>
        </g>
    </g>
</svg>
