<?xml version="1.0" encoding="UTF-8" standalone="no"?>
<!DOCTYPE svg PUBLIC "-//W3C//DTD SVG 1.1//EN" "http://www.w3.org/Graphics/SVG/1.1/DTD/svg11.dtd">
<svg width="100%" height="100%" viewBox="0 0 154 154" version="1.1" xmlns="http://www.w3.org/2000/svg" xmlns:xlink="http://www.w3.org/1999/xlink" xml:space="preserve" xmlns:serif="http://www.serif.com/" style="fill-rule:evenodd;clip-rule:evenodd;stroke-linejoin:round;stroke-miterlimit:2;">
    <g transform="matrix(1,0,0,1,-1243.7,-46.063)">
        <g id="_6--" serif:id="6-&amp;" transform="matrix(1,0,0,1,999.213,0)">
            <g id="Global-background" serif:id="Global background" transform="matrix(3.19882,0,0,2.88209,-138.632,-381.554)">
                <path d="M119.769,160.665C119.769,157.404 120.936,154.277 123.014,151.971C125.091,149.666 127.908,148.37 130.846,148.37L156.692,148.37C159.63,148.37 162.448,149.666 164.525,151.971C166.602,154.277 167.769,157.404 167.769,160.665L167.769,189.351C167.769,192.612 166.602,195.739 164.525,198.044C162.448,200.35 159.63,201.645 156.692,201.645L130.846,201.645C127.908,201.645 125.091,200.35 123.014,198.044C120.936,195.739 119.769,192.612 119.769,189.351L119.769,160.665Z" style="fill:rgb(230,230,230);"/>
            </g>
            <g id="Bottom-background" serif:id="Bottom background" transform="matrix(3.19882,0,0,2.88209,-138.632,-381.554)">
                <path d="M163.63,176.259C164.241,176.259 164.737,176.809 164.737,177.488C164.737,179.758 164.737,184.794 164.737,189.351C164.737,191.742 163.882,194.035 162.358,195.726C160.835,197.417 158.769,198.367 156.614,198.367L130.895,198.367C128.741,198.367 126.675,197.417 125.151,195.726C123.628,194.035 122.772,191.742 122.772,189.351L122.772,177.488C122.772,176.809 123.268,176.259 123.88,176.259C129.805,176.259 157.705,176.259 163.63,176.259Z" style="fill:rgb(92,60,28);"/>
            </g>
            <g id="Top-background" serif:id="Top background" transform="matrix(3.19882,0,0,2.88209,-138.632,-381.554)">
                <path d="M163.708,173.259C164.001,173.259 164.283,173.129 164.491,172.898C164.699,172.668 164.815,172.355 164.815,172.029C164.815,169.831 164.815,165.046 164.815,160.665C164.815,158.273 163.96,155.98 162.436,154.289C160.913,152.599 158.847,151.649 156.692,151.649L130.846,151.649C128.692,151.649 126.626,152.599 125.102,154.289C123.579,155.98 122.723,158.273 122.723,160.665L122.723,172.029C122.723,172.355 122.84,172.668 123.048,172.898C123.255,173.129 123.537,173.259 123.831,173.259C129.768,173.259 157.771,173.259 163.708,173.259Z" style="fill:rgb(187,101,43);"/>
            </g>
            <g id="Bottom-glyph" serif:id="Bottom glyph" transform="matrix(1,0,0,1,-37.2969,1.87907)">
                <g transform="matrix(58.3333,0,0,58.3333,340.328,177.097)">
                    <path d="M0.312,0.016C0.259,0.016 0.213,0.004 0.176,-0.021C0.138,-0.045 0.109,-0.081 0.09,-0.128C0.07,-0.175 0.06,-0.233 0.06,-0.3C0.06,-0.359 0.065,-0.414 0.075,-0.465C0.084,-0.516 0.1,-0.562 0.122,-0.601C0.143,-0.64 0.172,-0.67 0.208,-0.693C0.243,-0.715 0.287,-0.726 0.34,-0.726C0.403,-0.726 0.452,-0.711 0.487,-0.68C0.522,-0.649 0.546,-0.608 0.56,-0.558L0.47,-0.55C0.462,-0.578 0.448,-0.6 0.429,-0.617C0.409,-0.634 0.379,-0.642 0.34,-0.642C0.281,-0.642 0.235,-0.617 0.202,-0.567C0.168,-0.517 0.15,-0.441 0.148,-0.34L0.13,-0.344C0.137,-0.368 0.15,-0.39 0.169,-0.411C0.187,-0.431 0.21,-0.447 0.237,-0.46C0.264,-0.472 0.294,-0.478 0.328,-0.478C0.375,-0.478 0.416,-0.468 0.451,-0.448C0.486,-0.428 0.514,-0.4 0.534,-0.364C0.553,-0.327 0.563,-0.285 0.563,-0.236C0.563,-0.184 0.552,-0.139 0.531,-0.102C0.51,-0.064 0.48,-0.035 0.443,-0.015C0.405,0.006 0.361,0.016 0.312,0.016ZM0.314,-0.068C0.361,-0.068 0.399,-0.083 0.429,-0.113C0.458,-0.142 0.473,-0.183 0.473,-0.236C0.473,-0.269 0.467,-0.297 0.454,-0.321C0.441,-0.345 0.424,-0.364 0.401,-0.377C0.378,-0.39 0.352,-0.396 0.322,-0.396C0.29,-0.396 0.261,-0.39 0.236,-0.377C0.211,-0.364 0.191,-0.345 0.176,-0.321C0.161,-0.297 0.154,-0.269 0.154,-0.236C0.154,-0.203 0.161,-0.174 0.174,-0.149C0.187,-0.124 0.205,-0.104 0.229,-0.09C0.253,-0.075 0.281,-0.068 0.314,-0.068Z" style="fill:rgb(230,230,230);fill-rule:nonzero;"/>
                </g>
            </g>
            <g id="Top-glyph" serif:id="Top glyph" transform="matrix(1,0,0,1,-47.599,-5.32316)">
                <g transform="matrix(58.3333,0,0,58.3333,350.192,112.252)">
                    <path d="M0.26,0.016C0.192,0.016 0.138,-0.001 0.099,-0.034C0.06,-0.067 0.04,-0.113 0.04,-0.174C0.04,-0.205 0.044,-0.232 0.053,-0.256C0.062,-0.279 0.076,-0.302 0.097,-0.324C0.117,-0.346 0.145,-0.369 0.18,-0.394C0.165,-0.414 0.152,-0.433 0.141,-0.451C0.13,-0.468 0.122,-0.486 0.117,-0.504C0.111,-0.522 0.108,-0.541 0.108,-0.562C0.108,-0.613 0.124,-0.654 0.155,-0.683C0.186,-0.712 0.228,-0.726 0.282,-0.726C0.317,-0.726 0.347,-0.72 0.372,-0.708C0.397,-0.695 0.416,-0.678 0.429,-0.655C0.442,-0.632 0.448,-0.605 0.448,-0.574C0.448,-0.536 0.437,-0.502 0.414,-0.472C0.391,-0.441 0.353,-0.408 0.3,-0.373L0.462,-0.166C0.486,-0.199 0.498,-0.25 0.498,-0.318L0.582,-0.31C0.581,-0.27 0.575,-0.231 0.563,-0.194C0.55,-0.157 0.534,-0.126 0.515,-0.103L0.6,-0L0.499,-0L0.462,-0.045C0.443,-0.026 0.416,-0.012 0.383,-0.001C0.349,0.011 0.308,0.016 0.26,0.016ZM0.27,-0.064C0.304,-0.064 0.332,-0.068 0.355,-0.076C0.378,-0.084 0.395,-0.094 0.406,-0.106L0.23,-0.328C0.194,-0.303 0.168,-0.279 0.153,-0.256C0.138,-0.233 0.13,-0.205 0.13,-0.174C0.13,-0.141 0.141,-0.114 0.164,-0.094C0.186,-0.074 0.221,-0.064 0.27,-0.064ZM0.254,-0.434C0.279,-0.45 0.3,-0.465 0.315,-0.479C0.33,-0.492 0.341,-0.506 0.348,-0.521C0.355,-0.536 0.358,-0.551 0.358,-0.568C0.358,-0.592 0.351,-0.61 0.338,-0.623C0.325,-0.636 0.306,-0.642 0.282,-0.642C0.255,-0.642 0.235,-0.635 0.22,-0.621C0.205,-0.607 0.198,-0.587 0.198,-0.562C0.198,-0.549 0.2,-0.536 0.203,-0.523C0.206,-0.509 0.212,-0.496 0.221,-0.482C0.229,-0.468 0.24,-0.452 0.254,-0.434Z" style="fill:rgb(230,230,230);fill-rule:nonzero;"/>
                </g>
            </g>
        </g>
    </g>
</svg>
