<?xml version="1.0" encoding="UTF-8" standalone="no"?>
<!DOCTYPE svg PUBLIC "-//W3C//DTD SVG 1.1//EN" "http://www.w3.org/Graphics/SVG/1.1/DTD/svg11.dtd">
<svg width="100%" height="100%" viewBox="0 0 154 154" version="1.1" xmlns="http://www.w3.org/2000/svg" xmlns:xlink="http://www.w3.org/1999/xlink" xml:space="preserve" xmlns:serif="http://www.serif.com/" style="fill-rule:evenodd;clip-rule:evenodd;stroke-linejoin:round;stroke-miterlimit:2;">
    <g transform="matrix(1,0,0,1,-1640.55,-46.063)">
        <g id="_8--" serif:id="8-@" transform="matrix(1,0,0,1,1396.06,0)">
            <g id="Global-background" serif:id="Global background" transform="matrix(3.19882,0,0,2.88209,-138.632,-381.554)">
                <path d="M119.769,160.665C119.769,157.404 120.936,154.277 123.014,151.971C125.091,149.666 127.908,148.37 130.846,148.37L156.692,148.37C159.63,148.37 162.448,149.666 164.525,151.971C166.602,154.277 167.769,157.404 167.769,160.665L167.769,189.351C167.769,192.612 166.602,195.739 164.525,198.044C162.448,200.35 159.63,201.645 156.692,201.645L130.846,201.645C127.908,201.645 125.091,200.35 123.014,198.044C120.936,195.739 119.769,192.612 119.769,189.351L119.769,160.665Z" style="fill:rgb(230,230,230);"/>
            </g>
            <g id="Bottom-background" serif:id="Bottom background" transform="matrix(3.19882,0,0,2.88209,-138.632,-381.554)">
                <path d="M163.63,176.259C164.241,176.259 164.737,176.809 164.737,177.488C164.737,179.758 164.737,184.794 164.737,189.351C164.737,191.742 163.882,194.035 162.358,195.726C160.835,197.417 158.769,198.367 156.614,198.367L130.895,198.367C128.741,198.367 126.675,197.417 125.151,195.726C123.628,194.035 122.772,191.742 122.772,189.351L122.772,177.488C122.772,176.809 123.268,176.259 123.88,176.259C129.805,176.259 157.705,176.259 163.63,176.259Z" style="fill:rgb(92,60,28);"/>
            </g>
            <g id="Top-background" serif:id="Top background" transform="matrix(3.19882,0,0,2.88209,-138.632,-381.554)">
                <path d="M163.708,173.259C164.001,173.259 164.283,173.129 164.491,172.898C164.699,172.668 164.815,172.355 164.815,172.029C164.815,169.831 164.815,165.046 164.815,160.665C164.815,158.273 163.96,155.98 162.436,154.289C160.913,152.599 158.847,151.649 156.692,151.649L130.846,151.649C128.692,151.649 126.626,152.599 125.102,154.289C123.579,155.98 122.723,158.273 122.723,160.665L122.723,172.029C122.723,172.355 122.84,172.668 123.048,172.898C123.255,173.129 123.537,173.259 123.831,173.259C129.768,173.259 157.771,173.259 163.708,173.259Z" style="fill:rgb(187,101,43);"/>
            </g>
            <g id="Bottom-glyph" serif:id="Bottom glyph" transform="matrix(1,0,0,1,-36.6844,1.87907)">
                <g transform="matrix(58.3333,0,0,58.3333,340.328,177.097)">
                    <path d="M0.302,0.016C0.251,0.016 0.206,0.008 0.167,-0.008C0.127,-0.024 0.096,-0.048 0.074,-0.079C0.051,-0.11 0.04,-0.149 0.04,-0.195C0.04,-0.246 0.055,-0.289 0.086,-0.323C0.117,-0.356 0.157,-0.379 0.208,-0.391L0.21,-0.371C0.169,-0.382 0.136,-0.401 0.112,-0.427C0.087,-0.452 0.074,-0.487 0.074,-0.531C0.074,-0.568 0.084,-0.602 0.103,-0.631C0.122,-0.66 0.148,-0.684 0.182,-0.701C0.216,-0.717 0.256,-0.726 0.302,-0.726C0.348,-0.726 0.388,-0.717 0.423,-0.701C0.457,-0.684 0.483,-0.66 0.502,-0.631C0.521,-0.602 0.53,-0.568 0.53,-0.531C0.53,-0.487 0.518,-0.452 0.493,-0.427C0.468,-0.401 0.435,-0.382 0.394,-0.371L0.396,-0.391C0.447,-0.379 0.488,-0.356 0.519,-0.323C0.549,-0.289 0.564,-0.246 0.564,-0.195C0.564,-0.149 0.553,-0.11 0.531,-0.079C0.508,-0.048 0.477,-0.024 0.438,-0.008C0.399,0.008 0.353,0.016 0.302,0.016ZM0.302,-0.068C0.355,-0.068 0.397,-0.079 0.428,-0.101C0.459,-0.122 0.474,-0.155 0.474,-0.2C0.474,-0.241 0.46,-0.275 0.433,-0.3C0.405,-0.325 0.361,-0.337 0.302,-0.337C0.243,-0.337 0.2,-0.325 0.172,-0.3C0.144,-0.275 0.13,-0.241 0.13,-0.2C0.13,-0.155 0.146,-0.122 0.177,-0.101C0.208,-0.079 0.249,-0.068 0.302,-0.068ZM0.302,-0.417C0.346,-0.417 0.38,-0.427 0.404,-0.446C0.428,-0.464 0.44,-0.493 0.44,-0.531C0.44,-0.565 0.428,-0.592 0.405,-0.612C0.382,-0.632 0.347,-0.642 0.302,-0.642C0.257,-0.642 0.223,-0.632 0.2,-0.612C0.176,-0.592 0.164,-0.565 0.164,-0.531C0.164,-0.493 0.176,-0.464 0.2,-0.446C0.224,-0.427 0.258,-0.417 0.302,-0.417Z" style="fill:rgb(230,230,230);fill-rule:nonzero;"/>
                </g>
            </g>
            <g id="Top-glyph" serif:id="Top glyph" transform="matrix(1,0,0,1,-55.3573,-8.5315)">
                <g transform="matrix(58.3333,0,0,58.3333,350.192,112.252)">
                    <path d="M0.632,0.068C0.599,0.082 0.564,0.092 0.527,0.1C0.49,0.107 0.451,0.11 0.41,0.11C0.333,0.11 0.268,0.096 0.214,0.068C0.159,0.039 0.118,-0.002 0.089,-0.056C0.059,-0.11 0.045,-0.175 0.045,-0.25C0.045,-0.318 0.056,-0.38 0.077,-0.436C0.098,-0.492 0.129,-0.541 0.169,-0.582C0.208,-0.623 0.255,-0.654 0.309,-0.677C0.363,-0.699 0.423,-0.71 0.488,-0.71C0.563,-0.71 0.629,-0.695 0.685,-0.666C0.741,-0.637 0.784,-0.595 0.815,-0.542C0.846,-0.489 0.861,-0.426 0.861,-0.353C0.861,-0.3 0.853,-0.253 0.837,-0.212C0.821,-0.171 0.799,-0.139 0.771,-0.117C0.743,-0.094 0.711,-0.082 0.674,-0.082C0.643,-0.082 0.618,-0.091 0.599,-0.109C0.579,-0.127 0.568,-0.151 0.566,-0.182L0.581,-0.186C0.573,-0.167 0.56,-0.149 0.543,-0.132C0.526,-0.115 0.506,-0.102 0.484,-0.093C0.462,-0.083 0.439,-0.078 0.416,-0.078C0.377,-0.078 0.343,-0.086 0.317,-0.101C0.29,-0.116 0.269,-0.138 0.255,-0.165C0.241,-0.192 0.234,-0.224 0.234,-0.26C0.234,-0.305 0.243,-0.345 0.261,-0.382C0.278,-0.419 0.303,-0.448 0.335,-0.47C0.366,-0.491 0.403,-0.502 0.446,-0.502C0.481,-0.502 0.511,-0.494 0.537,-0.479C0.562,-0.463 0.577,-0.442 0.584,-0.417L0.574,-0.407L0.581,-0.5L0.654,-0.5L0.638,-0.29C0.637,-0.275 0.636,-0.259 0.635,-0.24C0.633,-0.221 0.632,-0.206 0.632,-0.194C0.632,-0.179 0.636,-0.168 0.644,-0.16C0.652,-0.152 0.664,-0.148 0.68,-0.148C0.714,-0.148 0.741,-0.166 0.76,-0.202C0.779,-0.238 0.789,-0.287 0.789,-0.35C0.789,-0.412 0.777,-0.465 0.754,-0.508C0.731,-0.551 0.697,-0.584 0.652,-0.607C0.606,-0.629 0.551,-0.64 0.486,-0.64C0.431,-0.64 0.381,-0.631 0.336,-0.612C0.291,-0.593 0.252,-0.567 0.219,-0.533C0.186,-0.498 0.161,-0.457 0.144,-0.41C0.126,-0.363 0.117,-0.31 0.117,-0.252C0.117,-0.19 0.129,-0.137 0.152,-0.094C0.174,-0.05 0.208,-0.017 0.252,0.006C0.296,0.029 0.349,0.04 0.412,0.04C0.448,0.04 0.484,0.037 0.519,0.03C0.554,0.023 0.586,0.013 0.615,-0L0.632,0.068ZM0.426,-0.144C0.459,-0.144 0.487,-0.152 0.508,-0.169C0.529,-0.185 0.544,-0.206 0.555,-0.232C0.565,-0.257 0.57,-0.284 0.57,-0.311C0.57,-0.334 0.566,-0.356 0.559,-0.375C0.551,-0.394 0.539,-0.409 0.522,-0.42C0.505,-0.431 0.482,-0.436 0.454,-0.436C0.424,-0.436 0.399,-0.428 0.379,-0.413C0.358,-0.397 0.343,-0.376 0.332,-0.351C0.321,-0.325 0.316,-0.297 0.316,-0.266C0.316,-0.231 0.324,-0.202 0.341,-0.179C0.357,-0.156 0.385,-0.144 0.426,-0.144Z" style="fill:rgb(230,230,230);fill-rule:nonzero;"/>
                </g>
            </g>
        </g>
    </g>
</svg>
