<?xml version="1.0" encoding="UTF-8" standalone="no"?>
<!DOCTYPE svg PUBLIC "-//W3C//DTD SVG 1.1//EN" "http://www.w3.org/Graphics/SVG/1.1/DTD/svg11.dtd">
<svg width="100%" height="100%" viewBox="0 0 154 154" version="1.1" xmlns="http://www.w3.org/2000/svg" xmlns:xlink="http://www.w3.org/1999/xlink" xml:space="preserve" xmlns:serif="http://www.serif.com/" style="fill-rule:evenodd;clip-rule:evenodd;stroke-linejoin:round;stroke-miterlimit:2;">
    <g transform="matrix(1,0,0,1,-1838.98,-46.063)">
        <g id="_9--" serif:id="9-(" transform="matrix(1,0,0,1,1594.49,0)">
            <g id="Global-background" serif:id="Global background" transform="matrix(3.19882,0,0,2.88209,-138.632,-381.554)">
                <path d="M119.769,160.665C119.769,157.404 120.936,154.277 123.014,151.971C125.091,149.666 127.908,148.37 130.846,148.37L156.692,148.37C159.63,148.37 162.448,149.666 164.525,151.971C166.602,154.277 167.769,157.404 167.769,160.665L167.769,189.351C167.769,192.612 166.602,195.739 164.525,198.044C162.448,200.35 159.63,201.645 156.692,201.645L130.846,201.645C127.908,201.645 125.091,200.35 123.014,198.044C120.936,195.739 119.769,192.612 119.769,189.351L119.769,160.665Z" style="fill:rgb(230,230,230);"/>
            </g>
            <g id="Bottom-background" serif:id="Bottom background" transform="matrix(3.19882,0,0,2.88209,-138.632,-381.554)">
                <path d="M163.63,176.259C164.241,176.259 164.737,176.809 164.737,177.488C164.737,179.758 164.737,184.794 164.737,189.351C164.737,191.742 163.882,194.035 162.358,195.726C160.835,197.417 158.769,198.367 156.614,198.367L130.895,198.367C128.741,198.367 126.675,197.417 125.151,195.726C123.628,194.035 122.772,191.742 122.772,189.351L122.772,177.488C122.772,176.809 123.268,176.259 123.88,176.259C129.805,176.259 157.705,176.259 163.63,176.259Z" style="fill:rgb(92,60,28);"/>
            </g>
            <g id="Top-background" serif:id="Top background" transform="matrix(3.19882,0,0,2.88209,-138.632,-381.554)">
                <path d="M163.708,173.259C164.001,173.259 164.283,173.129 164.491,172.898C164.699,172.668 164.815,172.355 164.815,172.029C164.815,169.831 164.815,165.046 164.815,160.665C164.815,158.273 163.96,155.98 162.436,154.289C160.913,152.599 158.847,151.649 156.692,151.649L130.846,151.649C128.692,151.649 126.626,152.599 125.102,154.289C123.579,155.98 122.723,158.273 122.723,160.665L122.723,172.029C122.723,172.355 122.84,172.668 123.048,172.898C123.255,173.129 123.537,173.259 123.831,173.259C129.768,173.259 157.771,173.259 163.708,173.259Z" style="fill:rgb(187,101,43);"/>
            </g>
            <g id="Bottom-glyph" serif:id="Bottom glyph" transform="matrix(1,0,0,1,-36.6844,1.87907)">
                <g transform="matrix(58.3333,0,0,58.3333,340.328,177.097)">
                    <path d="M0.288,0.016C0.229,0.016 0.182,0.002 0.145,-0.028C0.108,-0.057 0.082,-0.093 0.069,-0.137L0.16,-0.144C0.168,-0.12 0.183,-0.101 0.204,-0.088C0.225,-0.075 0.253,-0.068 0.288,-0.068C0.347,-0.068 0.393,-0.092 0.425,-0.14C0.456,-0.187 0.472,-0.264 0.473,-0.37L0.494,-0.366C0.477,-0.321 0.452,-0.287 0.417,-0.263C0.382,-0.238 0.342,-0.226 0.296,-0.226C0.25,-0.226 0.209,-0.236 0.174,-0.257C0.139,-0.278 0.111,-0.307 0.091,-0.344C0.07,-0.381 0.06,-0.425 0.06,-0.474C0.06,-0.526 0.071,-0.571 0.092,-0.609C0.113,-0.646 0.142,-0.675 0.18,-0.696C0.217,-0.716 0.259,-0.726 0.307,-0.726C0.366,-0.726 0.415,-0.712 0.453,-0.685C0.49,-0.658 0.518,-0.62 0.536,-0.571C0.554,-0.522 0.563,-0.464 0.563,-0.397C0.563,-0.338 0.558,-0.283 0.549,-0.233C0.54,-0.182 0.524,-0.138 0.503,-0.102C0.482,-0.065 0.454,-0.036 0.419,-0.015C0.384,0.006 0.34,0.016 0.288,0.016ZM0.302,-0.311C0.335,-0.311 0.363,-0.317 0.388,-0.33C0.413,-0.343 0.432,-0.361 0.447,-0.385C0.461,-0.409 0.468,-0.438 0.468,-0.472C0.468,-0.505 0.462,-0.534 0.449,-0.56C0.436,-0.585 0.417,-0.605 0.393,-0.62C0.369,-0.635 0.34,-0.642 0.307,-0.642C0.274,-0.642 0.246,-0.635 0.223,-0.621C0.2,-0.606 0.182,-0.586 0.169,-0.561C0.156,-0.536 0.15,-0.507 0.15,-0.474C0.15,-0.441 0.157,-0.412 0.17,-0.388C0.183,-0.363 0.2,-0.344 0.223,-0.331C0.246,-0.318 0.272,-0.311 0.302,-0.311Z" style="fill:rgb(230,230,230);fill-rule:nonzero;"/>
                </g>
            </g>
            <g id="Top-glyph" serif:id="Top glyph" transform="matrix(1,0,0,1,-37.799,-7.36483)">
                <g transform="matrix(58.3333,0,0,58.3333,350.192,112.252)">
                    <path d="M0.184,0.11C0.091,-0.029 0.045,-0.173 0.045,-0.32C0.045,-0.468 0.091,-0.611 0.184,-0.75L0.259,-0.75C0.174,-0.606 0.132,-0.463 0.132,-0.32C0.132,-0.249 0.143,-0.177 0.164,-0.106C0.185,-0.034 0.217,0.038 0.259,0.11L0.184,0.11Z" style="fill:rgb(230,230,230);fill-rule:nonzero;"/>
                </g>
            </g>
        </g>
    </g>
</svg>
