<?xml version="1.0" encoding="UTF-8" standalone="no"?>
<!DOCTYPE svg PUBLIC "-//W3C//DTD SVG 1.1//EN" "http://www.w3.org/Graphics/SVG/1.1/DTD/svg11.dtd">
<svg width="100%" height="100%" viewBox="0 0 154 154" version="1.1" xmlns="http://www.w3.org/2000/svg" xmlns:xlink="http://www.w3.org/1999/xlink" xml:space="preserve" xmlns:serif="http://www.serif.com/" style="fill-rule:evenodd;clip-rule:evenodd;stroke-linejoin:round;stroke-miterlimit:2;">
    <g transform="matrix(1,0,0,1,-1268.5,-683.858)">
        <g id="B" transform="matrix(1,0,0,1,1236.61,637.795)">
            <g id="Global-background" serif:id="Global background" transform="matrix(3.19882,0,0,2.88209,-351.23,-381.554)">
                <path d="M119.769,160.665C119.769,157.404 120.936,154.277 123.014,151.971C125.091,149.666 127.908,148.37 130.846,148.37L156.692,148.37C159.63,148.37 162.448,149.666 164.525,151.971C166.602,154.277 167.769,157.404 167.769,160.665L167.769,189.351C167.769,192.612 166.602,195.739 164.525,198.044C162.448,200.35 159.63,201.645 156.692,201.645L130.846,201.645C127.908,201.645 125.091,200.35 123.014,198.044C120.936,195.739 119.769,192.612 119.769,189.351L119.769,160.665Z" style="fill:rgb(230,230,230);"/>
            </g>
            <g id="Bottom-background" serif:id="Bottom background" transform="matrix(3.19882,0,0,2.88209,-351.23,-381.554)">
                <path d="M156.614,151.649C158.769,151.649 160.835,152.599 162.358,154.289C163.882,155.98 164.737,158.273 164.737,160.665L164.737,189.351C164.737,191.742 163.882,194.035 162.358,195.726C160.835,197.417 158.769,198.367 156.614,198.367L130.895,198.367C128.741,198.367 126.675,197.417 125.151,195.726C123.628,194.035 122.772,191.742 122.772,189.351L122.772,160.665C122.772,158.273 123.628,155.98 125.151,154.289C126.675,152.599 128.741,151.649 130.895,151.649L156.614,151.649Z" style="fill:rgb(92,60,28);"/>
                <clipPath id="_clip1">
                    <path d="M156.614,151.649C158.769,151.649 160.835,152.599 162.358,154.289C163.882,155.98 164.737,158.273 164.737,160.665L164.737,189.351C164.737,191.742 163.882,194.035 162.358,195.726C160.835,197.417 158.769,198.367 156.614,198.367L130.895,198.367C128.741,198.367 126.675,197.417 125.151,195.726C123.628,194.035 122.772,191.742 122.772,189.351L122.772,160.665C122.772,158.273 123.628,155.98 125.151,154.289C126.675,152.599 128.741,151.649 130.895,151.649L156.614,151.649Z"/>
                </clipPath>
                <g clip-path="url(#_clip1)">
                    <g id="Space-2" serif:id="Space 2">
                    </g>
                </g>
            </g>
            <g id="Glyph" transform="matrix(1,0,0,1,-45.1093,27.2867)">
                <g transform="matrix(75,0,0,75,127.146,122.173)">
                    <path d="M0.092,-0L0.092,-0.71L0.336,-0.71C0.42,-0.71 0.483,-0.695 0.525,-0.664C0.567,-0.633 0.588,-0.585 0.588,-0.519C0.588,-0.488 0.581,-0.461 0.568,-0.438C0.555,-0.415 0.536,-0.397 0.511,-0.384C0.486,-0.371 0.457,-0.364 0.423,-0.364L0.422,-0.37C0.483,-0.37 0.531,-0.354 0.566,-0.322C0.6,-0.289 0.618,-0.247 0.618,-0.195C0.618,-0.13 0.597,-0.082 0.555,-0.049C0.513,-0.016 0.453,-0 0.376,-0L0.092,-0ZM0.178,-0.084L0.376,-0.084C0.425,-0.084 0.462,-0.094 0.489,-0.114C0.515,-0.134 0.528,-0.163 0.528,-0.2C0.528,-0.237 0.515,-0.267 0.489,-0.288C0.462,-0.309 0.425,-0.319 0.376,-0.319L0.178,-0.319L0.178,-0.084ZM0.178,-0.403L0.336,-0.403C0.388,-0.403 0.428,-0.413 0.456,-0.433C0.484,-0.452 0.498,-0.48 0.498,-0.515C0.498,-0.552 0.485,-0.58 0.458,-0.599C0.431,-0.617 0.39,-0.626 0.336,-0.626L0.178,-0.626L0.178,-0.403Z" style="fill:rgb(230,230,230);fill-rule:nonzero;"/>
                </g>
            </g>
        </g>
    </g>
</svg>
