<?xml version="1.0" encoding="UTF-8" standalone="no"?>
<!DOCTYPE svg PUBLIC "-//W3C//DTD SVG 1.1//EN" "http://www.w3.org/Graphics/SVG/1.1/DTD/svg11.dtd">
<svg width="100%" height="100%" viewBox="0 0 267 154" version="1.1" xmlns="http://www.w3.org/2000/svg" xmlns:xlink="http://www.w3.org/1999/xlink" xml:space="preserve" xmlns:serif="http://www.serif.com/" style="fill-rule:evenodd;clip-rule:evenodd;stroke-linejoin:round;stroke-miterlimit:2;">
    <g transform="matrix(1,0,0,1,-53.1496,-471.26)">
        <g id="Ctrl" transform="matrix(1,0,0,1,-135.089,425.197)">
            <g id="Global-background" serif:id="Global background" transform="matrix(5.54257,0,0,2.88209,-475.591,-381.554)">
                <path d="M119.769,160.665C119.769,153.875 122.631,148.37 126.162,148.37L161.376,148.37C164.907,148.37 167.769,153.875 167.769,160.665L167.769,189.351C167.769,196.141 164.907,201.645 161.376,201.645L126.162,201.645C122.631,201.645 119.769,196.141 119.769,189.351L119.769,160.665Z" style="fill:rgb(230,230,230);"/>
            </g>
            <g transform="matrix(1,0,0,1.06122,-7.08661,-229.904)">
                <path d="M425.64,268.949C432.531,268.949 439.14,271.529 444.013,276.121C448.886,280.712 451.624,286.94 451.624,293.434L451.624,371.342C451.624,377.835 448.886,384.063 444.013,388.655C439.14,393.247 432.531,395.827 425.64,395.827L230.758,395.827C223.866,395.827 217.257,393.247 212.384,388.655C207.511,384.063 204.774,377.835 204.774,371.342L204.774,293.434C204.774,286.94 207.511,280.712 212.384,276.121C217.257,271.529 223.866,268.949 230.758,268.949L425.64,268.949Z" style="fill:rgb(255,197,2);"/>
            </g>
            <g id="Glyph" transform="matrix(1,0,0,1,-70.6762,-42.0747)">
                <g transform="matrix(33.3333,0,0,33.3333,355.319,177.097)">
                    <path d="M0.364,0.016C0.301,0.016 0.245,0.001 0.197,-0.029C0.149,-0.058 0.112,-0.101 0.085,-0.156C0.058,-0.211 0.045,-0.277 0.045,-0.354C0.045,-0.431 0.058,-0.497 0.085,-0.553C0.112,-0.608 0.149,-0.651 0.197,-0.681C0.245,-0.711 0.301,-0.726 0.364,-0.726C0.45,-0.726 0.517,-0.704 0.564,-0.661C0.611,-0.618 0.642,-0.559 0.657,-0.484L0.566,-0.478C0.556,-0.529 0.535,-0.569 0.502,-0.598C0.469,-0.627 0.423,-0.642 0.364,-0.642C0.319,-0.642 0.279,-0.631 0.245,-0.608C0.21,-0.585 0.183,-0.552 0.164,-0.509C0.145,-0.466 0.135,-0.414 0.135,-0.354C0.135,-0.294 0.145,-0.243 0.164,-0.2C0.183,-0.157 0.21,-0.125 0.245,-0.102C0.279,-0.079 0.319,-0.068 0.364,-0.068C0.426,-0.068 0.474,-0.084 0.508,-0.117C0.542,-0.149 0.563,-0.193 0.572,-0.248L0.663,-0.242C0.654,-0.191 0.637,-0.146 0.612,-0.107C0.587,-0.068 0.553,-0.038 0.512,-0.017C0.47,0.005 0.421,0.016 0.364,0.016Z" style="fill-rule:nonzero;"/>
                </g>
                <g transform="matrix(33.3333,0,0,33.3333,378.253,177.097)">
                    <path d="M0.233,-0L0.233,-0.626L0.012,-0.626L0.012,-0.71L0.54,-0.71L0.54,-0.626L0.319,-0.626L0.319,-0L0.233,-0Z" style="fill-rule:nonzero;"/>
                </g>
                <g transform="matrix(33.3333,0,0,33.3333,395.653,177.097)">
                    <path d="M0.092,-0L0.092,-0.71L0.361,-0.71C0.411,-0.71 0.454,-0.701 0.49,-0.684C0.526,-0.667 0.554,-0.642 0.574,-0.61C0.593,-0.577 0.603,-0.539 0.603,-0.495C0.603,-0.463 0.596,-0.435 0.581,-0.41C0.566,-0.385 0.546,-0.365 0.523,-0.35C0.5,-0.335 0.475,-0.327 0.45,-0.326L0.444,-0.335C0.487,-0.335 0.522,-0.325 0.547,-0.305C0.572,-0.285 0.586,-0.253 0.59,-0.209L0.61,-0L0.523,-0L0.505,-0.2C0.502,-0.229 0.492,-0.251 0.474,-0.265C0.455,-0.279 0.425,-0.286 0.384,-0.286L0.178,-0.286L0.178,-0L0.092,-0ZM0.178,-0.37L0.372,-0.37C0.415,-0.37 0.45,-0.381 0.475,-0.403C0.5,-0.425 0.513,-0.456 0.513,-0.497C0.513,-0.538 0.5,-0.57 0.474,-0.593C0.448,-0.615 0.41,-0.626 0.361,-0.626L0.178,-0.626L0.178,-0.37Z" style="fill-rule:nonzero;"/>
                </g>
                <g transform="matrix(33.3333,0,0,33.3333,417.553,177.097)">
                    <path d="M0.092,-0L0.092,-0.71L0.178,-0.71L0.178,-0.04L0.135,-0.084L0.533,-0.084L0.533,-0L0.092,-0Z" style="fill-rule:nonzero;"/>
                </g>
            </g>
        </g>
    </g>
</svg>
