<?xml version="1.0" encoding="UTF-8" standalone="no"?>
<!DOCTYPE svg PUBLIC "-//W3C//DTD SVG 1.1//EN" "http://www.w3.org/Graphics/SVG/1.1/DTD/svg11.dtd">
<svg width="100%" height="100%" viewBox="0 0 154 154" version="1.1" xmlns="http://www.w3.org/2000/svg" xmlns:xlink="http://www.w3.org/1999/xlink" xml:space="preserve" xmlns:serif="http://www.serif.com/" style="fill-rule:evenodd;clip-rule:evenodd;stroke-linejoin:round;stroke-miterlimit:2;">
    <g transform="matrix(1,0,0,1,-846.85,-471.26)">
        <g id="D" transform="matrix(1,0,0,1,814.961,425.197)">
            <g id="Global-background" serif:id="Global background" transform="matrix(3.19882,0,0,2.88209,-351.23,-381.554)">
                <path d="M119.769,160.665C119.769,157.404 120.936,154.277 123.014,151.971C125.091,149.666 127.908,148.37 130.846,148.37L156.692,148.37C159.63,148.37 162.448,149.666 164.525,151.971C166.602,154.277 167.769,157.404 167.769,160.665L167.769,189.351C167.769,192.612 166.602,195.739 164.525,198.044C162.448,200.35 159.63,201.645 156.692,201.645L130.846,201.645C127.908,201.645 125.091,200.35 123.014,198.044C120.936,195.739 119.769,192.612 119.769,189.351L119.769,160.665Z" style="fill:rgb(230,230,230);"/>
            </g>
            <g id="Bottom-background" serif:id="Bottom background" transform="matrix(3.19882,0,0,2.88209,-351.23,-381.554)">
                <path d="M156.614,151.649C158.769,151.649 160.835,152.599 162.358,154.289C163.882,155.98 164.737,158.273 164.737,160.665L164.737,189.351C164.737,191.742 163.882,194.035 162.358,195.726C160.835,197.417 158.769,198.367 156.614,198.367L130.895,198.367C128.741,198.367 126.675,197.417 125.151,195.726C123.628,194.035 122.772,191.742 122.772,189.351L122.772,160.665C122.772,158.273 123.628,155.98 125.151,154.289C126.675,152.599 128.741,151.649 130.895,151.649L156.614,151.649Z" style="fill:rgb(92,60,28);"/>
                <clipPath id="_clip1">
                    <path d="M156.614,151.649C158.769,151.649 160.835,152.599 162.358,154.289C163.882,155.98 164.737,158.273 164.737,160.665L164.737,189.351C164.737,191.742 163.882,194.035 162.358,195.726C160.835,197.417 158.769,198.367 156.614,198.367L130.895,198.367C128.741,198.367 126.675,197.417 125.151,195.726C123.628,194.035 122.772,191.742 122.772,189.351L122.772,160.665C122.772,158.273 123.628,155.98 125.151,154.289C126.675,152.599 128.741,151.649 130.895,151.649L156.614,151.649Z"/>
                </clipPath>
                <g clip-path="url(#_clip1)">
                    <g id="Space-2" serif:id="Space 2">
                    </g>
                </g>
            </g>
            <g id="Glyph" transform="matrix(1,0,0,1,-45.4843,27.2867)">
                <g transform="matrix(75,0,0,75,126.471,122.173)">
                    <path d="M0.092,-0L0.092,-0.71L0.312,-0.71C0.421,-0.71 0.506,-0.679 0.565,-0.618C0.624,-0.556 0.653,-0.468 0.653,-0.354C0.653,-0.241 0.624,-0.153 0.566,-0.092C0.508,-0.031 0.425,-0 0.318,-0L0.092,-0ZM0.178,-0.084L0.312,-0.084C0.395,-0.084 0.458,-0.107 0.5,-0.152C0.542,-0.197 0.563,-0.264 0.563,-0.354C0.563,-0.445 0.542,-0.514 0.5,-0.559C0.458,-0.604 0.395,-0.626 0.312,-0.626L0.178,-0.626L0.178,-0.084Z" style="fill:rgb(230,230,230);fill-rule:nonzero;"/>
                </g>
            </g>
        </g>
    </g>
</svg>
