<?xml version="1.0" encoding="UTF-8" standalone="no"?>
<!DOCTYPE svg PUBLIC "-//W3C//DTD SVG 1.1//EN" "http://www.w3.org/Graphics/SVG/1.1/DTD/svg11.dtd">
<svg width="100%" height="100%" viewBox="0 0 154 154" version="1.1" xmlns="http://www.w3.org/2000/svg" xmlns:xlink="http://www.w3.org/1999/xlink" xml:space="preserve" xmlns:serif="http://www.serif.com/" style="fill-rule:evenodd;clip-rule:evenodd;stroke-linejoin:round;stroke-miterlimit:2;">
    <g transform="matrix(1,0,0,1,-1243.7,-471.26)">
        <g id="G" transform="matrix(1,0,0,1,1211.81,425.197)">
            <g id="Global-background" serif:id="Global background" transform="matrix(3.19882,0,0,2.88209,-351.23,-381.554)">
                <path d="M119.769,160.665C119.769,157.404 120.936,154.277 123.014,151.971C125.091,149.666 127.908,148.37 130.846,148.37L156.692,148.37C159.63,148.37 162.448,149.666 164.525,151.971C166.602,154.277 167.769,157.404 167.769,160.665L167.769,189.351C167.769,192.612 166.602,195.739 164.525,198.044C162.448,200.35 159.63,201.645 156.692,201.645L130.846,201.645C127.908,201.645 125.091,200.35 123.014,198.044C120.936,195.739 119.769,192.612 119.769,189.351L119.769,160.665Z" style="fill:rgb(230,230,230);"/>
            </g>
            <g id="Bottom-background" serif:id="Bottom background" transform="matrix(3.19882,0,0,2.88209,-351.23,-381.554)">
                <path d="M156.614,151.649C158.769,151.649 160.835,152.599 162.358,154.289C163.882,155.98 164.737,158.273 164.737,160.665L164.737,189.351C164.737,191.742 163.882,194.035 162.358,195.726C160.835,197.417 158.769,198.367 156.614,198.367L130.895,198.367C128.741,198.367 126.675,197.417 125.151,195.726C123.628,194.035 122.772,191.742 122.772,189.351L122.772,160.665C122.772,158.273 123.628,155.98 125.151,154.289C126.675,152.599 128.741,151.649 130.895,151.649L156.614,151.649Z" style="fill:rgb(92,60,28);"/>
                <clipPath id="_clip1">
                    <path d="M156.614,151.649C158.769,151.649 160.835,152.599 162.358,154.289C163.882,155.98 164.737,158.273 164.737,160.665L164.737,189.351C164.737,191.742 163.882,194.035 162.358,195.726C160.835,197.417 158.769,198.367 156.614,198.367L130.895,198.367C128.741,198.367 126.675,197.417 125.151,195.726C123.628,194.035 122.772,191.742 122.772,189.351L122.772,160.665C122.772,158.273 123.628,155.98 125.151,154.289C126.675,152.599 128.741,151.649 130.895,151.649L156.614,151.649Z"/>
                </clipPath>
                <g clip-path="url(#_clip1)">
                    <g id="Space-2" serif:id="Space 2">
                    </g>
                </g>
            </g>
            <g id="Glyph" transform="matrix(1,0,0,1,-43.6093,27.2867)">
                <g transform="matrix(75,0,0,75,126.396,122.173)">
                    <path d="M0.362,0.016C0.295,0.016 0.238,0 0.191,-0.032C0.144,-0.064 0.108,-0.108 0.083,-0.164C0.057,-0.219 0.045,-0.283 0.045,-0.354C0.045,-0.425 0.058,-0.489 0.083,-0.545C0.108,-0.601 0.145,-0.645 0.193,-0.678C0.24,-0.71 0.297,-0.726 0.364,-0.726C0.421,-0.726 0.468,-0.716 0.508,-0.695C0.547,-0.674 0.578,-0.646 0.601,-0.611C0.624,-0.576 0.639,-0.536 0.648,-0.492L0.558,-0.486C0.549,-0.532 0.53,-0.57 0.5,-0.599C0.47,-0.628 0.425,-0.642 0.364,-0.642C0.31,-0.642 0.266,-0.629 0.233,-0.602C0.199,-0.575 0.174,-0.54 0.159,-0.497C0.143,-0.453 0.135,-0.405 0.135,-0.354C0.135,-0.3 0.143,-0.252 0.159,-0.209C0.175,-0.166 0.2,-0.131 0.234,-0.106C0.268,-0.081 0.311,-0.068 0.364,-0.068C0.406,-0.068 0.442,-0.078 0.473,-0.097C0.504,-0.116 0.527,-0.141 0.544,-0.173C0.561,-0.205 0.569,-0.24 0.57,-0.277L0.366,-0.277L0.366,-0.359L0.65,-0.359L0.65,-0L0.586,-0L0.58,-0.164L0.592,-0.15C0.584,-0.118 0.569,-0.09 0.546,-0.065C0.523,-0.04 0.496,-0.02 0.465,-0.006C0.433,0.009 0.399,0.016 0.362,0.016Z" style="fill:rgb(230,230,230);fill-rule:nonzero;"/>
                </g>
            </g>
        </g>
    </g>
</svg>
