<?xml version="1.0" encoding="UTF-8" standalone="no"?>
<!DOCTYPE svg PUBLIC "-//W3C//DTD SVG 1.1//EN" "http://www.w3.org/Graphics/SVG/1.1/DTD/svg11.dtd">
<svg width="100%" height="100%" viewBox="0 0 379 154" version="1.1" xmlns="http://www.w3.org/2000/svg" xmlns:xlink="http://www.w3.org/1999/xlink" xml:space="preserve" xmlns:serif="http://www.serif.com/" style="fill-rule:evenodd;clip-rule:evenodd;stroke-linejoin:round;stroke-miterlimit:2;">
    <g transform="matrix(1,0,0,1,-53.1496,-683.858)">
        <g id="Left-shift" serif:id="Left shift" transform="matrix(1,0,0,1,-135.089,637.795)">
            <g id="Global-background" serif:id="Global background" transform="matrix(7.88017,0,0,2.88209,-755.563,-381.554)">
                <path d="M119.769,160.665C119.769,153.875 121.782,148.37 124.266,148.37C133.418,148.37 154.12,148.37 163.273,148.37C165.756,148.37 167.769,153.875 167.769,160.665L167.769,189.351C167.769,196.141 165.756,201.645 163.273,201.645C154.12,201.645 133.418,201.645 124.266,201.645C121.782,201.645 119.769,196.141 119.769,189.351L119.769,160.665Z" style="fill:rgb(230,230,230);"/>
            </g>
            <g id="Top-background" serif:id="Top background" transform="matrix(8.5372,0,0,6.23077,-850.024,-889.377)">
                <path d="M161.772,173.259C162.579,173.259 163.353,172.819 163.924,172.037C164.495,171.255 164.815,170.194 164.815,169.088L164.815,155.819C164.815,154.713 164.495,153.652 163.924,152.87C163.353,152.088 162.579,151.649 161.772,151.649L125.767,151.649C124.96,151.649 124.185,152.088 123.615,152.87C123.044,153.652 122.723,154.713 122.723,155.819L122.723,169.088C122.723,170.194 123.044,171.255 123.615,172.037C124.185,172.819 124.96,173.259 125.767,173.259L161.772,173.259Z" style="fill:rgb(187,101,43);"/>
            </g>
            <g id="Top-right-glyph" serif:id="Top-right glyph" transform="matrix(1,0,0,1,-9.13543,22.416)">
                <g transform="matrix(33.3333,0,0,33.3333,350.192,112.252)">
                    <path d="M0.336,0.016C0.281,0.016 0.234,0.006 0.193,-0.015C0.152,-0.036 0.12,-0.064 0.097,-0.101C0.073,-0.137 0.059,-0.179 0.055,-0.227L0.145,-0.233C0.15,-0.198 0.16,-0.168 0.176,-0.143C0.192,-0.118 0.214,-0.1 0.241,-0.087C0.268,-0.074 0.3,-0.068 0.338,-0.068C0.371,-0.068 0.4,-0.072 0.423,-0.081C0.446,-0.09 0.464,-0.102 0.477,-0.119C0.489,-0.136 0.495,-0.156 0.495,-0.18C0.495,-0.202 0.49,-0.222 0.48,-0.239C0.469,-0.256 0.45,-0.271 0.421,-0.286C0.392,-0.3 0.349,-0.314 0.292,-0.328C0.237,-0.342 0.194,-0.357 0.162,-0.374C0.129,-0.391 0.106,-0.411 0.092,-0.435C0.077,-0.459 0.07,-0.489 0.07,-0.524C0.07,-0.564 0.08,-0.599 0.099,-0.63C0.118,-0.66 0.145,-0.684 0.18,-0.701C0.215,-0.717 0.257,-0.726 0.306,-0.726C0.358,-0.726 0.403,-0.716 0.44,-0.697C0.477,-0.677 0.507,-0.65 0.529,-0.616C0.551,-0.582 0.565,-0.543 0.57,-0.5L0.48,-0.494C0.476,-0.523 0.467,-0.548 0.453,-0.571C0.438,-0.593 0.419,-0.61 0.394,-0.623C0.369,-0.636 0.339,-0.642 0.304,-0.642C0.26,-0.642 0.225,-0.632 0.199,-0.611C0.173,-0.59 0.16,-0.562 0.16,-0.528C0.16,-0.506 0.165,-0.488 0.176,-0.474C0.186,-0.459 0.204,-0.447 0.231,-0.436C0.258,-0.424 0.296,-0.413 0.346,-0.4C0.405,-0.385 0.452,-0.368 0.488,-0.348C0.523,-0.327 0.548,-0.304 0.563,-0.277C0.578,-0.25 0.585,-0.22 0.585,-0.186C0.585,-0.145 0.574,-0.109 0.553,-0.079C0.532,-0.048 0.502,-0.025 0.465,-0.009C0.428,0.008 0.385,0.016 0.336,0.016Z" style="fill:rgb(230,230,230);fill-rule:nonzero;"/>
                </g>
                <g transform="matrix(33.3333,0,0,33.3333,371.059,112.252)">
                    <path d="M0.092,-0L0.092,-0.71L0.178,-0.71L0.178,-0.365L0.134,-0.399L0.579,-0.399L0.535,-0.365L0.535,-0.71L0.621,-0.71L0.621,-0L0.535,-0L0.535,-0.349L0.579,-0.315L0.134,-0.315L0.178,-0.349L0.178,-0L0.092,-0Z" style="fill:rgb(230,230,230);fill-rule:nonzero;"/>
                </g>
                <g transform="matrix(33.3333,0,0,33.3333,394.159,112.252)">
                    <rect x="0.092" y="-0.71" width="0.086" height="0.71" style="fill:rgb(230,230,230);fill-rule:nonzero;"/>
                </g>
                <g transform="matrix(33.3333,0,0,33.3333,402.492,112.252)">
                    <path d="M0.092,-0L0.092,-0.71L0.538,-0.71L0.538,-0.626L0.135,-0.626L0.178,-0.67L0.178,-0.344L0.135,-0.388L0.52,-0.388L0.52,-0.306L0.135,-0.306L0.178,-0.35L0.178,-0L0.092,-0Z" style="fill:rgb(230,230,230);fill-rule:nonzero;"/>
                </g>
                <g transform="matrix(33.3333,0,0,33.3333,422.159,112.252)">
                    <path d="M0.233,-0L0.233,-0.626L0.012,-0.626L0.012,-0.71L0.54,-0.71L0.54,-0.626L0.319,-0.626L0.319,-0L0.233,-0Z" style="fill:rgb(230,230,230);fill-rule:nonzero;"/>
                </g>
            </g>
        </g>
    </g>
</svg>
