<?xml version="1.0" encoding="UTF-8" standalone="no"?>
<!DOCTYPE svg PUBLIC "-//W3C//DTD SVG 1.1//EN" "http://www.w3.org/Graphics/SVG/1.1/DTD/svg11.dtd">
<svg width="100%" height="100%" viewBox="0 0 154 154" version="1.1" xmlns="http://www.w3.org/2000/svg" xmlns:xlink="http://www.w3.org/1999/xlink" xml:space="preserve" xmlns:serif="http://www.serif.com/" style="fill-rule:evenodd;clip-rule:evenodd;stroke-linejoin:round;stroke-miterlimit:2;">
    <g transform="matrix(1,0,0,1,-2235.83,-46.063)">
        <g id="_--Clear" serif:id="&lt;-Clear" transform="matrix(1,0,0,1,1991.34,0)">
            <g id="Global-background" serif:id="Global background" transform="matrix(3.19882,0,0,2.88209,-138.632,-381.554)">
                <path d="M119.769,160.665C119.769,157.404 120.936,154.277 123.014,151.971C125.091,149.666 127.908,148.37 130.846,148.37L156.692,148.37C159.63,148.37 162.448,149.666 164.525,151.971C166.602,154.277 167.769,157.404 167.769,160.665L167.769,189.351C167.769,192.612 166.602,195.739 164.525,198.044C162.448,200.35 159.63,201.645 156.692,201.645L130.846,201.645C127.908,201.645 125.091,200.35 123.014,198.044C120.936,195.739 119.769,192.612 119.769,189.351L119.769,160.665Z" style="fill:rgb(230,230,230);"/>
            </g>
            <g id="Bottom-background" serif:id="Bottom background" transform="matrix(3.19882,0,0,2.88209,-138.632,-381.554)">
                <path d="M163.63,176.259C164.241,176.259 164.737,176.809 164.737,177.488C164.737,179.758 164.737,184.794 164.737,189.351C164.737,191.742 163.882,194.035 162.358,195.726C160.835,197.417 158.769,198.367 156.614,198.367L130.895,198.367C128.741,198.367 126.675,197.417 125.151,195.726C123.628,194.035 122.772,191.742 122.772,189.351L122.772,177.488C122.772,176.809 123.268,176.259 123.88,176.259C129.805,176.259 157.705,176.259 163.63,176.259Z" style="fill:rgb(92,60,28);"/>
            </g>
            <g id="Top-background" serif:id="Top background" transform="matrix(3.19882,0,0,2.88209,-138.632,-381.554)">
                <path d="M163.708,173.259C164.001,173.259 164.283,173.129 164.491,172.898C164.699,172.668 164.815,172.355 164.815,172.029C164.815,169.831 164.815,165.046 164.815,160.665C164.815,158.273 163.96,155.98 162.436,154.289C160.913,152.599 158.847,151.649 156.692,151.649L130.846,151.649C128.692,151.649 126.626,152.599 125.102,154.289C123.579,155.98 122.723,158.273 122.723,160.665L122.723,172.029C122.723,172.355 122.84,172.668 123.048,172.898C123.255,173.129 123.537,173.259 123.831,173.259C129.768,173.259 157.771,173.259 163.708,173.259Z" style="fill:rgb(187,101,43);"/>
            </g>
            <g id="Bottom-glyph" serif:id="Bottom glyph" transform="matrix(0.955486,0,0,1,-17.2791,1.87907)">
                <path d="M369.144,174.857L337.005,156.389L369.144,137.491L369.144,143.397L345.928,156.389L369.144,168.977L369.144,174.857Z" style="fill:rgb(230,230,230);fill-rule:nonzero;"/>
            </g>
            <g id="Top-glyph" serif:id="Top glyph" transform="matrix(1,0,0,1,-81.0823,-14.1982)">
                <g transform="matrix(33.3333,0,0,33.3333,350.192,112.252)">
                    <path d="M0.364,0.016C0.301,0.016 0.245,0.001 0.197,-0.029C0.149,-0.058 0.112,-0.101 0.085,-0.156C0.058,-0.211 0.045,-0.277 0.045,-0.354C0.045,-0.431 0.058,-0.497 0.085,-0.553C0.112,-0.608 0.149,-0.651 0.197,-0.681C0.245,-0.711 0.301,-0.726 0.364,-0.726C0.45,-0.726 0.517,-0.704 0.564,-0.661C0.611,-0.618 0.642,-0.559 0.657,-0.484L0.566,-0.478C0.556,-0.529 0.535,-0.569 0.502,-0.598C0.469,-0.627 0.423,-0.642 0.364,-0.642C0.319,-0.642 0.279,-0.631 0.245,-0.608C0.21,-0.585 0.183,-0.552 0.164,-0.509C0.145,-0.466 0.135,-0.414 0.135,-0.354C0.135,-0.294 0.145,-0.243 0.164,-0.2C0.183,-0.157 0.21,-0.125 0.245,-0.102C0.279,-0.079 0.319,-0.068 0.364,-0.068C0.426,-0.068 0.474,-0.084 0.508,-0.117C0.542,-0.149 0.563,-0.193 0.572,-0.248L0.663,-0.242C0.654,-0.191 0.637,-0.146 0.612,-0.107C0.587,-0.068 0.553,-0.038 0.512,-0.017C0.47,0.005 0.421,0.016 0.364,0.016Z" style="fill:rgb(230,230,230);fill-rule:nonzero;"/>
                </g>
                <g transform="matrix(33.3333,0,0,33.3333,373.292,112.252)">
                    <path d="M0.092,-0L0.092,-0.71L0.178,-0.71L0.178,-0.04L0.135,-0.084L0.533,-0.084L0.533,-0L0.092,-0Z" style="fill:rgb(230,230,230);fill-rule:nonzero;"/>
                </g>
                <g transform="matrix(33.3333,0,0,33.3333,390.959,112.252)">
                    <path d="M0.092,-0L0.092,-0.71L0.538,-0.71L0.538,-0.626L0.178,-0.626L0.178,-0.397L0.526,-0.397L0.526,-0.315L0.178,-0.315L0.178,-0.084L0.546,-0.084L0.546,-0L0.092,-0Z" style="fill:rgb(230,230,230);fill-rule:nonzero;"/>
                </g>
                <g transform="matrix(33.3333,0,0,33.3333,411.059,112.252)">
                    <path d="M0.02,-0L0.276,-0.71L0.392,-0.71L0.648,-0L0.554,-0L0.483,-0.202L0.185,-0.202L0.114,-0L0.02,-0ZM0.214,-0.286L0.454,-0.286L0.334,-0.635L0.214,-0.286Z" style="fill:rgb(230,230,230);fill-rule:nonzero;"/>
                </g>
                <g transform="matrix(33.3333,0,0,33.3333,432.659,112.252)">
                    <path d="M0.092,-0L0.092,-0.71L0.361,-0.71C0.411,-0.71 0.454,-0.701 0.49,-0.684C0.526,-0.667 0.554,-0.642 0.574,-0.61C0.593,-0.577 0.603,-0.539 0.603,-0.495C0.603,-0.463 0.596,-0.435 0.581,-0.41C0.566,-0.385 0.546,-0.365 0.523,-0.35C0.5,-0.335 0.475,-0.327 0.45,-0.326L0.444,-0.335C0.487,-0.335 0.522,-0.325 0.547,-0.305C0.572,-0.285 0.586,-0.253 0.59,-0.209L0.61,-0L0.523,-0L0.505,-0.2C0.502,-0.229 0.492,-0.251 0.474,-0.265C0.455,-0.279 0.425,-0.286 0.384,-0.286L0.178,-0.286L0.178,-0L0.092,-0ZM0.178,-0.37L0.372,-0.37C0.415,-0.37 0.45,-0.381 0.475,-0.403C0.5,-0.425 0.513,-0.456 0.513,-0.497C0.513,-0.538 0.5,-0.57 0.474,-0.593C0.448,-0.615 0.41,-0.626 0.361,-0.626L0.178,-0.626L0.178,-0.37Z" style="fill:rgb(230,230,230);fill-rule:nonzero;"/>
                </g>
            </g>
        </g>
    </g>
</svg>
