<?xml version="1.0" encoding="UTF-8" standalone="no"?>
<!DOCTYPE svg PUBLIC "-//W3C//DTD SVG 1.1//EN" "http://www.w3.org/Graphics/SVG/1.1/DTD/svg11.dtd">
<svg width="100%" height="100%" viewBox="0 0 154 154" version="1.1" xmlns="http://www.w3.org/2000/svg" xmlns:xlink="http://www.w3.org/1999/xlink" xml:space="preserve" xmlns:serif="http://www.serif.com/" style="fill-rule:evenodd;clip-rule:evenodd;stroke-linejoin:round;stroke-miterlimit:2;">
    <g transform="matrix(1,0,0,1,-2378.74,-258.661)">
        <g id="Minus-Up-Underscore" transform="matrix(1,0,0,1,2134.25,212.598)">
            <g id="Global-background" serif:id="Global background" transform="matrix(3.19882,0,0,2.88209,-138.632,-381.554)">
                <path d="M119.769,160.665C119.769,157.404 120.936,154.277 123.014,151.971C125.091,149.666 127.908,148.37 130.846,148.37L156.692,148.37C159.63,148.37 162.448,149.666 164.525,151.971C166.602,154.277 167.769,157.404 167.769,160.665L167.769,189.351C167.769,192.612 166.602,195.739 164.525,198.044C162.448,200.35 159.63,201.645 156.692,201.645L130.846,201.645C127.908,201.645 125.091,200.35 123.014,198.044C120.936,195.739 119.769,192.612 119.769,189.351L119.769,160.665Z" style="fill:rgb(230,230,230);"/>
            </g>
            <g id="Bottom-background" serif:id="Bottom background" transform="matrix(3.19882,0,0,2.88209,-138.632,-381.554)">
                <path d="M163.63,176.259C164.241,176.259 164.737,176.809 164.737,177.488C164.737,179.758 164.737,184.794 164.737,189.351C164.737,191.742 163.882,194.035 162.358,195.726C160.835,197.417 158.769,198.367 156.614,198.367L130.895,198.367C128.741,198.367 126.675,197.417 125.151,195.726C123.628,194.035 122.772,191.742 122.772,189.351L122.772,177.488C122.772,176.809 123.268,176.259 123.88,176.259C129.805,176.259 157.705,176.259 163.63,176.259Z" style="fill:rgb(92,60,28);"/>
            </g>
            <g id="Top-background" serif:id="Top background" transform="matrix(3.19882,0,0,2.88209,-138.632,-381.554)">
                <path d="M163.708,173.259C164.001,173.259 164.283,173.129 164.491,172.898C164.699,172.668 164.815,172.355 164.815,172.029C164.815,169.831 164.815,165.046 164.815,160.665C164.815,158.273 163.96,155.98 162.436,154.289C160.913,152.599 158.847,151.649 156.692,151.649L130.846,151.649C128.692,151.649 126.626,152.599 125.102,154.289C123.579,155.98 122.723,158.273 122.723,160.665L122.723,172.029C122.723,172.355 122.84,172.668 123.048,172.898C123.255,173.129 123.537,173.259 123.831,173.259C129.768,173.259 157.771,173.259 163.708,173.259Z" style="fill:rgb(187,101,43);"/>
            </g>
            <g transform="matrix(1,0,0,1.06122,46.7776,-229.608)">
                <path d="M270.975,277.819C272.918,277.838 274.482,279.327 274.482,281.158C274.482,289.394 274.482,310.761 274.482,319.032C274.482,320.876 272.896,322.371 270.939,322.371C260.508,322.371 229.992,322.371 219.561,322.371C217.604,322.371 216.018,320.876 216.018,319.032C216.018,313.69 216.018,302.879 216.018,293.598C216.018,289.29 217.846,285.16 221.095,282.129C224.344,279.098 228.745,277.417 233.317,277.461C246.541,277.587 263.699,277.75 270.975,277.819Z" style="fill:rgb(255,197,2);"/>
            </g>
            <g transform="matrix(0.90625,0,0,0.90625,-2092.16,-182.335)">
                <path d="M2619.09,319.145L2637.99,319.145L2637.99,300.837L2647.44,300.837L2628.54,281.94L2609.65,300.837L2619.09,300.837L2619.09,319.145Z"/>
            </g>
            <g id="Bottom-glyph" serif:id="Bottom glyph" transform="matrix(1,0,0,1,-28.0677,-8.8626)">
                <g transform="matrix(66.6667,0,0,33.3333,335.361,177.097)">
                    <rect x="0.044" y="-0.331" width="0.331" height="0.079" style="fill:rgb(230,230,230);fill-rule:nonzero;"/>
                </g>
            </g>
            <g id="Top-glyph" serif:id="Top glyph" transform="matrix(1,0,0,1,-13.8375,-3.70945)">
                <g transform="matrix(73.3333,0,0,33.3333,350.192,112.252)">
                    <rect x="0.044" y="-0" width="0.469" height="0.078" style="fill:rgb(230,230,230);fill-rule:nonzero;"/>
                </g>
            </g>
        </g>
    </g>
</svg>
