<?xml version="1.0" encoding="UTF-8" standalone="no"?>
<!DOCTYPE svg PUBLIC "-//W3C//DTD SVG 1.1//EN" "http://www.w3.org/Graphics/SVG/1.1/DTD/svg11.dtd">
<svg width="100%" height="100%" viewBox="0 0 154 154" version="1.1" xmlns="http://www.w3.org/2000/svg" xmlns:xlink="http://www.w3.org/1999/xlink" xml:space="preserve" xmlns:serif="http://www.serif.com/" style="fill-rule:evenodd;clip-rule:evenodd;stroke-linejoin:round;stroke-miterlimit:2;">
    <g transform="matrix(1,0,0,1,-2775.59,-258.661)">
        <g id="Option" transform="matrix(1,0,0,1,2743.7,212.598)">
            <g id="Global-background" serif:id="Global background" transform="matrix(3.19882,0,0,2.88209,-351.23,-381.554)">
                <path d="M119.769,160.665C119.769,157.404 120.936,154.277 123.014,151.971C125.091,149.666 127.908,148.37 130.846,148.37L156.692,148.37C159.63,148.37 162.448,149.666 164.525,151.971C166.602,154.277 167.769,157.404 167.769,160.665L167.769,189.351C167.769,192.612 166.602,195.739 164.525,198.044C162.448,200.35 159.63,201.645 156.692,201.645L130.846,201.645C127.908,201.645 125.091,200.35 123.014,198.044C120.936,195.739 119.769,192.612 119.769,189.351L119.769,160.665Z" style="fill:rgb(255,197,2);"/>
            </g>
            <g id="Glyph" transform="matrix(1,0,0,1,-51.5009,12.4951)">
                <g transform="matrix(33.3333,0,0,33.3333,100.429,122.173)">
                    <path d="M0.369,0.016C0.302,0.016 0.244,0.001 0.196,-0.029C0.147,-0.058 0.11,-0.101 0.084,-0.156C0.058,-0.211 0.045,-0.277 0.045,-0.354C0.045,-0.431 0.058,-0.497 0.084,-0.553C0.11,-0.608 0.147,-0.651 0.196,-0.681C0.244,-0.711 0.302,-0.726 0.369,-0.726C0.437,-0.726 0.495,-0.711 0.544,-0.681C0.592,-0.651 0.629,-0.608 0.655,-0.553C0.681,-0.497 0.694,-0.431 0.694,-0.354C0.694,-0.277 0.681,-0.211 0.655,-0.156C0.629,-0.101 0.592,-0.058 0.544,-0.029C0.495,0.001 0.437,0.016 0.369,0.016ZM0.369,-0.068C0.418,-0.068 0.46,-0.079 0.496,-0.102C0.531,-0.125 0.557,-0.157 0.576,-0.2C0.595,-0.243 0.604,-0.294 0.604,-0.354C0.604,-0.414 0.595,-0.466 0.576,-0.509C0.557,-0.552 0.531,-0.585 0.496,-0.608C0.46,-0.631 0.418,-0.642 0.369,-0.642C0.32,-0.642 0.278,-0.631 0.244,-0.608C0.209,-0.585 0.182,-0.552 0.163,-0.509C0.144,-0.466 0.135,-0.414 0.135,-0.354C0.135,-0.294 0.144,-0.243 0.163,-0.2C0.182,-0.157 0.209,-0.125 0.244,-0.102C0.278,-0.079 0.32,-0.068 0.369,-0.068Z" style="fill-rule:nonzero;"/>
                </g>
                <g transform="matrix(33.3333,0,0,33.3333,124.596,122.173)">
                    <path d="M0.092,-0L0.092,-0.71L0.347,-0.71C0.426,-0.71 0.488,-0.691 0.532,-0.653C0.576,-0.615 0.598,-0.562 0.598,-0.495C0.598,-0.45 0.588,-0.411 0.568,-0.378C0.548,-0.345 0.519,-0.319 0.482,-0.302C0.445,-0.285 0.4,-0.276 0.347,-0.276L0.178,-0.276L0.178,-0L0.092,-0ZM0.178,-0.36L0.347,-0.36C0.4,-0.36 0.44,-0.371 0.468,-0.394C0.495,-0.417 0.508,-0.45 0.508,-0.495C0.508,-0.538 0.495,-0.571 0.468,-0.593C0.44,-0.615 0.4,-0.626 0.347,-0.626L0.178,-0.626L0.178,-0.36Z" style="fill-rule:nonzero;"/>
                </g>
                <g transform="matrix(33.3333,0,0,33.3333,146.262,122.173)">
                    <path d="M0.233,-0L0.233,-0.626L0.012,-0.626L0.012,-0.71L0.54,-0.71L0.54,-0.626L0.319,-0.626L0.319,-0L0.233,-0Z" style="fill-rule:nonzero;"/>
                </g>
                <g transform="matrix(33.3333,0,0,33.3333,163.662,122.173)">
                    <rect x="0.092" y="-0.71" width="0.086" height="0.71" style="fill-rule:nonzero;"/>
                </g>
                <g transform="matrix(33.3333,0,0,33.3333,172.196,122.173)">
                    <path d="M0.369,0.016C0.302,0.016 0.244,0.001 0.196,-0.029C0.147,-0.058 0.11,-0.101 0.084,-0.156C0.058,-0.211 0.045,-0.277 0.045,-0.354C0.045,-0.431 0.058,-0.497 0.084,-0.553C0.11,-0.608 0.147,-0.651 0.196,-0.681C0.244,-0.711 0.302,-0.726 0.369,-0.726C0.437,-0.726 0.495,-0.711 0.544,-0.681C0.592,-0.651 0.629,-0.608 0.655,-0.553C0.681,-0.497 0.694,-0.431 0.694,-0.354C0.694,-0.277 0.681,-0.211 0.655,-0.156C0.629,-0.101 0.592,-0.058 0.544,-0.029C0.495,0.001 0.437,0.016 0.369,0.016ZM0.369,-0.068C0.418,-0.068 0.46,-0.079 0.496,-0.102C0.531,-0.125 0.557,-0.157 0.576,-0.2C0.595,-0.243 0.604,-0.294 0.604,-0.354C0.604,-0.414 0.595,-0.466 0.576,-0.509C0.557,-0.552 0.531,-0.585 0.496,-0.608C0.46,-0.631 0.418,-0.642 0.369,-0.642C0.32,-0.642 0.278,-0.631 0.244,-0.608C0.209,-0.585 0.182,-0.552 0.163,-0.509C0.144,-0.466 0.135,-0.414 0.135,-0.354C0.135,-0.294 0.144,-0.243 0.163,-0.2C0.182,-0.157 0.209,-0.125 0.244,-0.102C0.278,-0.079 0.32,-0.068 0.369,-0.068Z" style="fill-rule:nonzero;"/>
                </g>
                <g transform="matrix(33.3333,0,0,33.3333,196.362,122.173)">
                    <path d="M0.092,-0L0.092,-0.71L0.214,-0.71L0.565,-0.086L0.565,-0.71L0.651,-0.71L0.651,-0L0.523,-0L0.178,-0.612L0.178,-0L0.092,-0Z" style="fill-rule:nonzero;"/>
                </g>
            </g>
        </g>
    </g>
</svg>
