<?xml version="1.0" encoding="UTF-8" standalone="no"?>
<!DOCTYPE svg PUBLIC "-//W3C//DTD SVG 1.1//EN" "http://www.w3.org/Graphics/SVG/1.1/DTD/svg11.dtd">
<svg width="100%" height="100%" viewBox="0 0 154 154" version="1.1" xmlns="http://www.w3.org/2000/svg" xmlns:xlink="http://www.w3.org/1999/xlink" xml:space="preserve" xmlns:serif="http://www.serif.com/" style="fill-rule:evenodd;clip-rule:evenodd;stroke-linejoin:round;stroke-miterlimit:2;">
    <g transform="matrix(1,0,0,1,-394.488,-258.661)">
        <g id="Q" transform="matrix(1,0,0,1,362.598,212.598)">
            <g id="Global-background" serif:id="Global background" transform="matrix(3.19882,0,0,2.88209,-351.23,-381.554)">
                <path d="M119.769,160.665C119.769,157.404 120.936,154.277 123.014,151.971C125.091,149.666 127.908,148.37 130.846,148.37L156.692,148.37C159.63,148.37 162.448,149.666 164.525,151.971C166.602,154.277 167.769,157.404 167.769,160.665L167.769,189.351C167.769,192.612 166.602,195.739 164.525,198.044C162.448,200.35 159.63,201.645 156.692,201.645L130.846,201.645C127.908,201.645 125.091,200.35 123.014,198.044C120.936,195.739 119.769,192.612 119.769,189.351L119.769,160.665Z" style="fill:rgb(230,230,230);"/>
            </g>
            <g id="Bottom-background" serif:id="Bottom background" transform="matrix(3.19882,0,0,2.88209,-351.23,-381.554)">
                <path d="M156.614,151.649C158.769,151.649 160.835,152.599 162.358,154.289C163.882,155.98 164.737,158.273 164.737,160.665L164.737,189.351C164.737,191.742 163.882,194.035 162.358,195.726C160.835,197.417 158.769,198.367 156.614,198.367L130.895,198.367C128.741,198.367 126.675,197.417 125.151,195.726C123.628,194.035 122.772,191.742 122.772,189.351L122.772,160.665C122.772,158.273 123.628,155.98 125.151,154.289C126.675,152.599 128.741,151.649 130.895,151.649L156.614,151.649Z" style="fill:rgb(92,60,28);"/>
            </g>
            <g id="Glyph" transform="matrix(1,0,0,1,-0.109252,27.2867)">
                <g transform="matrix(75,0,0,75,81.2832,122.173)">
                    <path d="M0.548,0.069L0.489,-0.007C0.473,-0 0.454,0.005 0.433,0.01C0.412,0.014 0.389,0.016 0.366,0.016C0.298,0.016 0.24,-0.001 0.193,-0.034C0.145,-0.067 0.108,-0.111 0.083,-0.167C0.058,-0.223 0.045,-0.285 0.045,-0.354C0.045,-0.423 0.057,-0.486 0.083,-0.542C0.108,-0.598 0.144,-0.643 0.192,-0.676C0.24,-0.709 0.298,-0.726 0.366,-0.726C0.435,-0.726 0.494,-0.709 0.542,-0.676C0.59,-0.643 0.626,-0.598 0.651,-0.542C0.676,-0.486 0.688,-0.423 0.688,-0.354C0.688,-0.289 0.676,-0.229 0.653,-0.174C0.63,-0.119 0.596,-0.075 0.552,-0.042L0.64,0.069L0.548,0.069ZM0.366,-0.068C0.381,-0.068 0.394,-0.069 0.405,-0.071C0.416,-0.072 0.426,-0.075 0.435,-0.079L0.332,-0.208L0.424,-0.208L0.5,-0.108C0.533,-0.134 0.557,-0.168 0.574,-0.21C0.59,-0.251 0.598,-0.299 0.598,-0.354C0.598,-0.407 0.59,-0.455 0.573,-0.498C0.556,-0.541 0.53,-0.576 0.496,-0.603C0.461,-0.629 0.418,-0.642 0.366,-0.642C0.314,-0.642 0.271,-0.629 0.237,-0.603C0.203,-0.576 0.178,-0.541 0.161,-0.498C0.143,-0.455 0.135,-0.407 0.135,-0.354C0.135,-0.302 0.143,-0.254 0.161,-0.211C0.178,-0.168 0.203,-0.133 0.238,-0.107C0.272,-0.081 0.315,-0.068 0.366,-0.068Z" style="fill:rgb(230,230,230);fill-rule:nonzero;"/>
                </g>
            </g>
        </g>
    </g>
</svg>
