<?xml version="1.0" encoding="UTF-8" standalone="no"?>
<!DOCTYPE svg PUBLIC "-//W3C//DTD SVG 1.1//EN" "http://www.w3.org/Graphics/SVG/1.1/DTD/svg11.dtd">
<svg width="100%" height="100%" viewBox="0 0 154 154" version="1.1" xmlns="http://www.w3.org/2000/svg" xmlns:xlink="http://www.w3.org/1999/xlink" xml:space="preserve" xmlns:serif="http://www.serif.com/" style="fill-rule:evenodd;clip-rule:evenodd;stroke-linejoin:round;stroke-miterlimit:2;">
    <g transform="matrix(1,0,0,1,-989.764,-258.661)">
        <g id="R" transform="matrix(1,0,0,1,957.874,212.598)">
            <g id="Global-background" serif:id="Global background" transform="matrix(3.19882,0,0,2.88209,-351.23,-381.554)">
                <path d="M119.769,160.665C119.769,157.404 120.936,154.277 123.014,151.971C125.091,149.666 127.908,148.37 130.846,148.37L156.692,148.37C159.63,148.37 162.448,149.666 164.525,151.971C166.602,154.277 167.769,157.404 167.769,160.665L167.769,189.351C167.769,192.612 166.602,195.739 164.525,198.044C162.448,200.35 159.63,201.645 156.692,201.645L130.846,201.645C127.908,201.645 125.091,200.35 123.014,198.044C120.936,195.739 119.769,192.612 119.769,189.351L119.769,160.665Z" style="fill:rgb(230,230,230);"/>
            </g>
            <g id="Bottom-background" serif:id="Bottom background" transform="matrix(3.19882,0,0,2.88209,-351.23,-381.554)">
                <path d="M156.614,151.649C158.769,151.649 160.835,152.599 162.358,154.289C163.882,155.98 164.737,158.273 164.737,160.665L164.737,189.351C164.737,191.742 163.882,194.035 162.358,195.726C160.835,197.417 158.769,198.367 156.614,198.367L130.895,198.367C128.741,198.367 126.675,197.417 125.151,195.726C123.628,194.035 122.772,191.742 122.772,189.351L122.772,160.665C122.772,158.273 123.628,155.98 125.151,154.289C126.675,152.599 128.741,151.649 130.895,151.649L156.614,151.649Z" style="fill:rgb(92,60,28);"/>
            </g>
            <g id="Glyph" transform="matrix(1,0,0,1,-1.23425,27.2867)">
                <g transform="matrix(75,0,0,75,83.5707,122.173)">
                    <path d="M0.092,-0L0.092,-0.71L0.361,-0.71C0.411,-0.71 0.454,-0.701 0.49,-0.684C0.526,-0.667 0.554,-0.642 0.574,-0.61C0.593,-0.577 0.603,-0.539 0.603,-0.495C0.603,-0.463 0.596,-0.435 0.581,-0.41C0.566,-0.385 0.546,-0.365 0.523,-0.35C0.5,-0.335 0.475,-0.327 0.45,-0.326L0.444,-0.335C0.487,-0.335 0.522,-0.325 0.547,-0.305C0.572,-0.285 0.586,-0.253 0.59,-0.209L0.61,-0L0.523,-0L0.505,-0.2C0.502,-0.229 0.492,-0.251 0.474,-0.265C0.455,-0.279 0.425,-0.286 0.384,-0.286L0.178,-0.286L0.178,-0L0.092,-0ZM0.178,-0.37L0.372,-0.37C0.415,-0.37 0.45,-0.381 0.475,-0.403C0.5,-0.425 0.513,-0.456 0.513,-0.497C0.513,-0.538 0.5,-0.57 0.474,-0.593C0.448,-0.615 0.41,-0.626 0.361,-0.626L0.178,-0.626L0.178,-0.37Z" style="fill:rgb(230,230,230);fill-rule:nonzero;"/>
                </g>
            </g>
        </g>
    </g>
</svg>
