<?xml version="1.0" encoding="UTF-8" standalone="no"?>
<!DOCTYPE svg PUBLIC "-//W3C//DTD SVG 1.1//EN" "http://www.w3.org/Graphics/SVG/1.1/DTD/svg11.dtd">
<svg width="100%" height="100%" viewBox="0 0 210 154" version="1.1" xmlns="http://www.w3.org/2000/svg" xmlns:xlink="http://www.w3.org/1999/xlink" xml:space="preserve" xmlns:serif="http://www.serif.com/" style="fill-rule:evenodd;clip-rule:evenodd;stroke-linejoin:round;stroke-miterlimit:2;">
    <g transform="matrix(1,0,0,1,-2973.28,-258.661)">
        <g id="Return" transform="matrix(1,0,0,1,2997.64,212.598)">
            <g id="Global-background" serif:id="Global background" transform="matrix(4.37069,0,0,2.88209,-547.835,-381.554)">
                <path d="M119.769,160.665C119.769,157.404 120.623,154.277 122.144,151.971C123.664,149.666 125.726,148.37 127.876,148.37C136.726,148.37 150.813,148.37 159.662,148.37C161.812,148.37 163.874,149.666 165.395,151.971C166.915,154.277 167.769,157.404 167.769,160.665L167.769,189.351C167.769,192.612 166.915,195.739 165.395,198.044C163.874,200.35 161.812,201.645 159.662,201.645C150.813,201.645 136.726,201.645 127.876,201.645C125.726,201.645 123.664,200.35 122.144,198.044C120.623,195.739 119.769,192.612 119.769,189.351C119.769,180.739 119.769,169.277 119.769,160.665Z" style="fill:rgb(230,230,230);"/>
            </g>
            <g id="Bottom-background" serif:id="Bottom background" transform="matrix(4.54889,0,0,2.88209,-573.637,-381.554)">
                <path d="M159.025,151.649C160.54,151.649 161.993,152.599 163.064,154.289C164.136,155.98 164.737,158.273 164.737,160.665L164.737,189.351C164.737,191.742 164.136,194.035 163.064,195.726C161.993,197.417 160.54,198.367 159.025,198.367L128.484,198.367C126.969,198.367 125.516,197.417 124.445,195.726C123.374,194.035 122.772,191.742 122.772,189.351L122.772,160.665C122.772,158.273 123.374,155.98 124.445,154.289C125.516,152.599 126.969,151.649 128.484,151.649L159.025,151.649Z" style="fill:rgb(92,60,28);"/>
            </g>
            <g id="Glyph" transform="matrix(1,0,0,1,-84.0974,12.4951)">
                <g transform="matrix(33.3333,0,0,33.3333,98.6457,122.173)">
                    <path d="M0.092,-0L0.092,-0.71L0.361,-0.71C0.411,-0.71 0.454,-0.701 0.49,-0.684C0.526,-0.667 0.554,-0.642 0.574,-0.61C0.593,-0.577 0.603,-0.539 0.603,-0.495C0.603,-0.463 0.596,-0.435 0.581,-0.41C0.566,-0.385 0.546,-0.365 0.523,-0.35C0.5,-0.335 0.475,-0.327 0.45,-0.326L0.444,-0.335C0.487,-0.335 0.522,-0.325 0.547,-0.305C0.572,-0.285 0.586,-0.253 0.59,-0.209L0.61,-0L0.523,-0L0.505,-0.2C0.502,-0.229 0.492,-0.251 0.474,-0.265C0.455,-0.279 0.425,-0.286 0.384,-0.286L0.178,-0.286L0.178,-0L0.092,-0ZM0.178,-0.37L0.372,-0.37C0.415,-0.37 0.45,-0.381 0.475,-0.403C0.5,-0.425 0.513,-0.456 0.513,-0.497C0.513,-0.538 0.5,-0.57 0.474,-0.593C0.448,-0.615 0.41,-0.626 0.361,-0.626L0.178,-0.626L0.178,-0.37Z" style="fill:rgb(230,230,230);fill-rule:nonzero;"/>
                </g>
                <g transform="matrix(33.3333,0,0,33.3333,121.046,122.173)">
                    <path d="M0.092,-0L0.092,-0.71L0.538,-0.71L0.538,-0.626L0.178,-0.626L0.178,-0.397L0.526,-0.397L0.526,-0.315L0.178,-0.315L0.178,-0.084L0.546,-0.084L0.546,-0L0.092,-0Z" style="fill:rgb(230,230,230);fill-rule:nonzero;"/>
                </g>
                <g transform="matrix(33.3333,0,0,33.3333,141.146,122.173)">
                    <path d="M0.233,-0L0.233,-0.626L0.012,-0.626L0.012,-0.71L0.54,-0.71L0.54,-0.626L0.319,-0.626L0.319,-0L0.233,-0Z" style="fill:rgb(230,230,230);fill-rule:nonzero;"/>
                </g>
                <g transform="matrix(33.3333,0,0,33.3333,159.546,122.173)">
                    <path d="M0.345,0.016C0.29,0.016 0.243,0.005 0.203,-0.016C0.162,-0.037 0.131,-0.068 0.11,-0.108C0.088,-0.147 0.077,-0.194 0.077,-0.248L0.077,-0.711L0.163,-0.711L0.163,-0.248C0.163,-0.191 0.179,-0.146 0.211,-0.115C0.242,-0.084 0.287,-0.068 0.345,-0.068C0.402,-0.068 0.447,-0.084 0.479,-0.115C0.51,-0.146 0.526,-0.191 0.526,-0.248L0.526,-0.711L0.612,-0.711L0.612,-0.248C0.612,-0.194 0.601,-0.147 0.58,-0.108C0.558,-0.068 0.527,-0.037 0.487,-0.016C0.447,0.005 0.4,0.016 0.345,0.016Z" style="fill:rgb(230,230,230);fill-rule:nonzero;"/>
                </g>
                <g transform="matrix(33.3333,0,0,33.3333,183.012,122.173)">
                    <path d="M0.092,-0L0.092,-0.71L0.361,-0.71C0.411,-0.71 0.454,-0.701 0.49,-0.684C0.526,-0.667 0.554,-0.642 0.574,-0.61C0.593,-0.577 0.603,-0.539 0.603,-0.495C0.603,-0.463 0.596,-0.435 0.581,-0.41C0.566,-0.385 0.546,-0.365 0.523,-0.35C0.5,-0.335 0.475,-0.327 0.45,-0.326L0.444,-0.335C0.487,-0.335 0.522,-0.325 0.547,-0.305C0.572,-0.285 0.586,-0.253 0.59,-0.209L0.61,-0L0.523,-0L0.505,-0.2C0.502,-0.229 0.492,-0.251 0.474,-0.265C0.455,-0.279 0.425,-0.286 0.384,-0.286L0.178,-0.286L0.178,-0L0.092,-0ZM0.178,-0.37L0.372,-0.37C0.415,-0.37 0.45,-0.381 0.475,-0.403C0.5,-0.425 0.513,-0.456 0.513,-0.497C0.513,-0.538 0.5,-0.57 0.474,-0.593C0.448,-0.615 0.41,-0.626 0.361,-0.626L0.178,-0.626L0.178,-0.37Z" style="fill:rgb(230,230,230);fill-rule:nonzero;"/>
                </g>
                <g transform="matrix(33.3333,0,0,33.3333,205.412,122.173)">
                    <path d="M0.092,-0L0.092,-0.71L0.214,-0.71L0.565,-0.086L0.565,-0.71L0.651,-0.71L0.651,-0L0.523,-0L0.178,-0.612L0.178,-0L0.092,-0Z" style="fill:rgb(230,230,230);fill-rule:nonzero;"/>
                </g>
            </g>
        </g>
    </g>
</svg>
