<?xml version="1.0" encoding="UTF-8" standalone="no"?>
<!DOCTYPE svg PUBLIC "-//W3C//DTD SVG 1.1//EN" "http://www.w3.org/Graphics/SVG/1.1/DTD/svg11.dtd">
<svg width="100%" height="100%" viewBox="0 0 154 154" version="1.1" xmlns="http://www.w3.org/2000/svg" xmlns:xlink="http://www.w3.org/1999/xlink" xml:space="preserve" xmlns:serif="http://www.serif.com/" style="fill-rule:evenodd;clip-rule:evenodd;stroke-linejoin:round;stroke-miterlimit:2;">
    <g transform="matrix(1,0,0,1,-2260.63,-683.858)">
        <g id="_---" serif:id="/-?" transform="matrix(1,0,0,1,2016.14,637.795)">
            <g id="Global-background" serif:id="Global background" transform="matrix(3.19882,0,0,2.88209,-138.632,-381.554)">
                <path d="M119.769,160.665C119.769,157.404 120.936,154.277 123.014,151.971C125.091,149.666 127.908,148.37 130.846,148.37L156.692,148.37C159.63,148.37 162.448,149.666 164.525,151.971C166.602,154.277 167.769,157.404 167.769,160.665L167.769,189.351C167.769,192.612 166.602,195.739 164.525,198.044C162.448,200.35 159.63,201.645 156.692,201.645L130.846,201.645C127.908,201.645 125.091,200.35 123.014,198.044C120.936,195.739 119.769,192.612 119.769,189.351L119.769,160.665Z" style="fill:rgb(230,230,230);"/>
            </g>
            <g id="Bottom-background" serif:id="Bottom background" transform="matrix(3.19882,0,0,2.88209,-138.632,-381.554)">
                <path d="M163.63,176.259C164.241,176.259 164.737,176.809 164.737,177.488C164.737,179.758 164.737,184.794 164.737,189.351C164.737,191.742 163.882,194.035 162.358,195.726C160.835,197.417 158.769,198.367 156.614,198.367L130.895,198.367C128.741,198.367 126.675,197.417 125.151,195.726C123.628,194.035 122.772,191.742 122.772,189.351L122.772,177.488C122.772,176.809 123.268,176.259 123.88,176.259C129.805,176.259 157.705,176.259 163.63,176.259Z" style="fill:rgb(92,60,28);"/>
            </g>
            <g id="Top-background" serif:id="Top background" transform="matrix(3.19882,0,0,2.88209,-138.632,-381.554)">
                <path d="M163.708,173.259C164.001,173.259 164.283,173.129 164.491,172.898C164.699,172.668 164.815,172.355 164.815,172.029C164.815,169.831 164.815,165.046 164.815,160.665C164.815,158.273 163.96,155.98 162.436,154.289C160.913,152.599 158.847,151.649 156.692,151.649L130.846,151.649C128.692,151.649 126.626,152.599 125.102,154.289C123.579,155.98 122.723,158.273 122.723,160.665L122.723,172.029C122.723,172.355 122.84,172.668 123.048,172.898C123.255,173.129 123.537,173.259 123.831,173.259C129.768,173.259 157.771,173.259 163.708,173.259Z" style="fill:rgb(187,101,43);"/>
            </g>
            <g id="Bottom-glyph" serif:id="Bottom glyph" transform="matrix(1,0,0,1,-32.3385,-0.162598)">
                <g transform="matrix(70,0,0,58.3333,338.088,177.097)">
                    <path d="M0.04,0.11L0.335,-0.75L0.399,-0.75L0.104,0.11L0.04,0.11Z" style="fill:rgb(230,230,230);fill-rule:nonzero;"/>
                </g>
            </g>
            <g id="Top-glyph" serif:id="Top glyph" transform="matrix(1,0,0,1,-45.2365,-4.8565)">
                <g transform="matrix(58.3333,0,0,58.3333,350.192,112.252)">
                    <path d="M0.234,-0.201C0.234,-0.249 0.242,-0.287 0.257,-0.316C0.272,-0.344 0.296,-0.369 0.331,-0.39C0.357,-0.406 0.377,-0.42 0.391,-0.433C0.404,-0.445 0.413,-0.458 0.418,-0.472C0.423,-0.485 0.425,-0.502 0.425,-0.522C0.425,-0.557 0.413,-0.585 0.391,-0.608C0.368,-0.631 0.336,-0.642 0.295,-0.642C0.246,-0.642 0.208,-0.629 0.182,-0.604C0.155,-0.579 0.139,-0.542 0.134,-0.494L0.044,-0.5C0.048,-0.544 0.061,-0.583 0.082,-0.617C0.103,-0.651 0.132,-0.678 0.168,-0.697C0.204,-0.716 0.246,-0.726 0.295,-0.726C0.338,-0.726 0.377,-0.717 0.41,-0.7C0.443,-0.683 0.468,-0.659 0.487,-0.628C0.506,-0.597 0.515,-0.562 0.515,-0.522C0.515,-0.494 0.511,-0.47 0.502,-0.449C0.493,-0.428 0.479,-0.409 0.46,-0.392C0.441,-0.375 0.418,-0.357 0.389,-0.338C0.362,-0.321 0.344,-0.302 0.335,-0.283C0.325,-0.264 0.32,-0.236 0.32,-0.201L0.234,-0.201ZM0.218,-0L0.218,-0.113L0.331,-0.113L0.331,-0L0.218,-0Z" style="fill:rgb(230,230,230);fill-rule:nonzero;"/>
                </g>
            </g>
        </g>
    </g>
</svg>
