<?xml version="1.0" encoding="UTF-8" standalone="no"?>
<!DOCTYPE svg PUBLIC "-//W3C//DTD SVG 1.1//EN" "http://www.w3.org/Graphics/SVG/1.1/DTD/svg11.dtd">
<svg width="100%" height="100%" viewBox="0 0 384 154" version="1.1" xmlns="http://www.w3.org/2000/svg" xmlns:xlink="http://www.w3.org/1999/xlink" xml:space="preserve" xmlns:serif="http://www.serif.com/" style="fill-rule:evenodd;clip-rule:evenodd;stroke-linejoin:round;stroke-miterlimit:2;">
    <g transform="matrix(1,0,0,1,-3245.08,-258.661)">
        <g id="Space-2" serif:id="Space 2" transform="matrix(1,0,0,1,3115.75,212.598)">
            <g id="Global-background" serif:id="Global background" transform="matrix(7.99705,0,0,2.88209,-828.47,-381.554)">
                <path d="M119.769,160.665C119.769,157.404 120.236,154.277 121.067,151.971C121.898,149.666 123.025,148.37 124.2,148.37L163.338,148.37C164.514,148.37 165.641,149.666 166.471,151.971C167.302,154.277 167.769,157.404 167.769,160.665L167.769,189.351C167.769,192.612 167.302,195.739 166.471,198.044C165.641,200.35 164.514,201.645 163.338,201.645L124.2,201.645C123.025,201.645 121.898,200.35 121.067,198.044C120.236,195.739 119.769,192.612 119.769,189.351L119.769,160.665Z" style="fill:rgb(230,230,230);"/>
            </g>
            <g id="Bottom-background" serif:id="Bottom background" transform="matrix(8.69672,0,0,2.88209,-928.98,-381.554)">
                <path d="M161.75,151.649C162.542,151.649 163.302,152.599 163.862,154.289C164.423,155.98 164.737,158.273 164.737,160.665L164.737,189.351C164.737,191.742 164.423,194.035 163.862,195.726C163.302,197.417 162.542,198.367 161.75,198.367L125.76,198.367C124.967,198.367 124.207,197.417 123.647,195.726C123.087,194.035 122.772,191.742 122.772,189.351L122.772,160.665C122.772,158.273 123.087,155.98 123.647,154.289C124.207,152.599 124.967,151.649 125.76,151.649L161.75,151.649Z" style="fill:rgb(92,60,28);"/>
            </g>
        </g>
    </g>
</svg>
