<?xml version="1.0" encoding="UTF-8" standalone="no"?>
<!DOCTYPE svg PUBLIC "-//W3C//DTD SVG 1.1//EN" "http://www.w3.org/Graphics/SVG/1.1/DTD/svg11.dtd">
<svg width="100%" height="100%" viewBox="0 0 154 154" version="1.1" xmlns="http://www.w3.org/2000/svg" xmlns:xlink="http://www.w3.org/1999/xlink" xml:space="preserve" xmlns:serif="http://www.serif.com/" style="fill-rule:evenodd;clip-rule:evenodd;stroke-linejoin:round;stroke-miterlimit:2;">
    <g transform="matrix(1,0,0,1,-3029.53,-46.063)">
        <g id="System-reset" serif:id="System reset" transform="matrix(1,0,0,1,2997.64,0)">
            <g id="Global-background" serif:id="Global background" transform="matrix(3.19882,0,0,2.88209,-351.23,-381.554)">
                <path d="M119.769,160.665C119.769,157.404 120.936,154.277 123.014,151.971C125.091,149.666 127.908,148.37 130.846,148.37L156.692,148.37C159.63,148.37 162.448,149.666 164.525,151.971C166.602,154.277 167.769,157.404 167.769,160.665L167.769,189.351C167.769,192.612 166.602,195.739 164.525,198.044C162.448,200.35 159.63,201.645 156.692,201.645L130.846,201.645C127.908,201.645 125.091,200.35 123.014,198.044C120.936,195.739 119.769,192.612 119.769,189.351L119.769,160.665Z" style="fill:rgb(255,197,2);"/>
            </g>
            <g id="Glyph" transform="matrix(1,0,0,1,-51.5009,-4.1716)">
                <g transform="matrix(33.3333,0,0,33.3333,98.6457,122.173)">
                    <path d="M0.336,0.016C0.281,0.016 0.234,0.006 0.193,-0.015C0.152,-0.036 0.12,-0.064 0.097,-0.101C0.073,-0.137 0.059,-0.179 0.055,-0.227L0.145,-0.233C0.15,-0.198 0.16,-0.168 0.176,-0.143C0.192,-0.118 0.214,-0.1 0.241,-0.087C0.268,-0.074 0.3,-0.068 0.338,-0.068C0.371,-0.068 0.4,-0.072 0.423,-0.081C0.446,-0.09 0.464,-0.102 0.477,-0.119C0.489,-0.136 0.495,-0.156 0.495,-0.18C0.495,-0.202 0.49,-0.222 0.48,-0.239C0.469,-0.256 0.45,-0.271 0.421,-0.286C0.392,-0.3 0.349,-0.314 0.292,-0.328C0.237,-0.342 0.194,-0.357 0.162,-0.374C0.129,-0.391 0.106,-0.411 0.092,-0.435C0.077,-0.459 0.07,-0.489 0.07,-0.524C0.07,-0.564 0.08,-0.599 0.099,-0.63C0.118,-0.66 0.145,-0.684 0.18,-0.701C0.215,-0.717 0.257,-0.726 0.306,-0.726C0.358,-0.726 0.403,-0.716 0.44,-0.697C0.477,-0.677 0.507,-0.65 0.529,-0.616C0.551,-0.582 0.565,-0.543 0.57,-0.5L0.48,-0.494C0.476,-0.523 0.467,-0.548 0.453,-0.571C0.438,-0.593 0.419,-0.61 0.394,-0.623C0.369,-0.636 0.339,-0.642 0.304,-0.642C0.26,-0.642 0.225,-0.632 0.199,-0.611C0.173,-0.59 0.16,-0.562 0.16,-0.528C0.16,-0.506 0.165,-0.488 0.176,-0.474C0.186,-0.459 0.204,-0.447 0.231,-0.436C0.258,-0.424 0.296,-0.413 0.346,-0.4C0.405,-0.385 0.452,-0.368 0.488,-0.348C0.523,-0.327 0.548,-0.304 0.563,-0.277C0.578,-0.25 0.585,-0.22 0.585,-0.186C0.585,-0.145 0.574,-0.109 0.553,-0.079C0.532,-0.048 0.502,-0.025 0.465,-0.009C0.428,0.008 0.385,0.016 0.336,0.016Z" style="fill-rule:nonzero;"/>
                </g>
                <g transform="matrix(33.3333,0,0,33.3333,118.646,122.173)">
                    <path d="M0.245,-0L0.245,-0.29L-0.006,-0.71L0.096,-0.71L0.288,-0.378L0.48,-0.71L0.582,-0.71L0.331,-0.29L0.331,-0L0.245,-0Z" style="fill-rule:nonzero;"/>
                </g>
                <g transform="matrix(33.3333,0,0,33.3333,136.512,122.173)">
                    <path d="M0.336,0.016C0.281,0.016 0.234,0.006 0.193,-0.015C0.152,-0.036 0.12,-0.064 0.097,-0.101C0.073,-0.137 0.059,-0.179 0.055,-0.227L0.145,-0.233C0.15,-0.198 0.16,-0.168 0.176,-0.143C0.192,-0.118 0.214,-0.1 0.241,-0.087C0.268,-0.074 0.3,-0.068 0.338,-0.068C0.371,-0.068 0.4,-0.072 0.423,-0.081C0.446,-0.09 0.464,-0.102 0.477,-0.119C0.489,-0.136 0.495,-0.156 0.495,-0.18C0.495,-0.202 0.49,-0.222 0.48,-0.239C0.469,-0.256 0.45,-0.271 0.421,-0.286C0.392,-0.3 0.349,-0.314 0.292,-0.328C0.237,-0.342 0.194,-0.357 0.162,-0.374C0.129,-0.391 0.106,-0.411 0.092,-0.435C0.077,-0.459 0.07,-0.489 0.07,-0.524C0.07,-0.564 0.08,-0.599 0.099,-0.63C0.118,-0.66 0.145,-0.684 0.18,-0.701C0.215,-0.717 0.257,-0.726 0.306,-0.726C0.358,-0.726 0.403,-0.716 0.44,-0.697C0.477,-0.677 0.507,-0.65 0.529,-0.616C0.551,-0.582 0.565,-0.543 0.57,-0.5L0.48,-0.494C0.476,-0.523 0.467,-0.548 0.453,-0.571C0.438,-0.593 0.419,-0.61 0.394,-0.623C0.369,-0.636 0.339,-0.642 0.304,-0.642C0.26,-0.642 0.225,-0.632 0.199,-0.611C0.173,-0.59 0.16,-0.562 0.16,-0.528C0.16,-0.506 0.165,-0.488 0.176,-0.474C0.186,-0.459 0.204,-0.447 0.231,-0.436C0.258,-0.424 0.296,-0.413 0.346,-0.4C0.405,-0.385 0.452,-0.368 0.488,-0.348C0.523,-0.327 0.548,-0.304 0.563,-0.277C0.578,-0.25 0.585,-0.22 0.585,-0.186C0.585,-0.145 0.574,-0.109 0.553,-0.079C0.532,-0.048 0.502,-0.025 0.465,-0.009C0.428,0.008 0.385,0.016 0.336,0.016Z" style="fill-rule:nonzero;"/>
                </g>
                <g transform="matrix(33.3333,0,0,33.3333,156.512,122.173)">
                    <path d="M0.233,-0L0.233,-0.626L0.012,-0.626L0.012,-0.71L0.54,-0.71L0.54,-0.626L0.319,-0.626L0.319,-0L0.233,-0Z" style="fill-rule:nonzero;"/>
                </g>
                <g transform="matrix(33.3333,0,0,33.3333,173.912,122.173)">
                    <path d="M0.092,-0L0.092,-0.71L0.538,-0.71L0.538,-0.626L0.178,-0.626L0.178,-0.397L0.526,-0.397L0.526,-0.315L0.178,-0.315L0.178,-0.084L0.546,-0.084L0.546,-0L0.092,-0Z" style="fill-rule:nonzero;"/>
                </g>
                <g transform="matrix(33.3333,0,0,33.3333,193.679,122.173)">
                    <path d="M0.092,-0L0.092,-0.71L0.212,-0.71L0.439,-0.094L0.665,-0.71L0.785,-0.71L0.785,-0L0.699,-0L0.699,-0.55L0.496,-0L0.381,-0L0.178,-0.55L0.178,-0L0.092,-0Z" style="fill-rule:nonzero;"/>
                </g>
                <g transform="matrix(33.3333,0,0,33.3333,109.846,155.506)">
                    <path d="M0.092,-0L0.092,-0.71L0.361,-0.71C0.411,-0.71 0.454,-0.701 0.49,-0.684C0.526,-0.667 0.554,-0.642 0.574,-0.61C0.593,-0.577 0.603,-0.539 0.603,-0.495C0.603,-0.463 0.596,-0.435 0.581,-0.41C0.566,-0.385 0.546,-0.365 0.523,-0.35C0.5,-0.335 0.475,-0.327 0.45,-0.326L0.444,-0.335C0.487,-0.335 0.522,-0.325 0.547,-0.305C0.572,-0.285 0.586,-0.253 0.59,-0.209L0.61,-0L0.523,-0L0.505,-0.2C0.502,-0.229 0.492,-0.251 0.474,-0.265C0.455,-0.279 0.425,-0.286 0.384,-0.286L0.178,-0.286L0.178,-0L0.092,-0ZM0.178,-0.37L0.372,-0.37C0.415,-0.37 0.45,-0.381 0.475,-0.403C0.5,-0.425 0.513,-0.456 0.513,-0.497C0.513,-0.538 0.5,-0.57 0.474,-0.593C0.448,-0.615 0.41,-0.626 0.361,-0.626L0.178,-0.626L0.178,-0.37Z" style="fill-rule:nonzero;"/>
                </g>
                <g transform="matrix(33.3333,0,0,33.3333,132.246,155.506)">
                    <path d="M0.092,-0L0.092,-0.71L0.538,-0.71L0.538,-0.626L0.178,-0.626L0.178,-0.397L0.526,-0.397L0.526,-0.315L0.178,-0.315L0.178,-0.084L0.546,-0.084L0.546,-0L0.092,-0Z" style="fill-rule:nonzero;"/>
                </g>
                <g transform="matrix(33.3333,0,0,33.3333,152.346,155.506)">
                    <path d="M0.336,0.016C0.281,0.016 0.234,0.006 0.193,-0.015C0.152,-0.036 0.12,-0.064 0.097,-0.101C0.073,-0.137 0.059,-0.179 0.055,-0.227L0.145,-0.233C0.15,-0.198 0.16,-0.168 0.176,-0.143C0.192,-0.118 0.214,-0.1 0.241,-0.087C0.268,-0.074 0.3,-0.068 0.338,-0.068C0.371,-0.068 0.4,-0.072 0.423,-0.081C0.446,-0.09 0.464,-0.102 0.477,-0.119C0.489,-0.136 0.495,-0.156 0.495,-0.18C0.495,-0.202 0.49,-0.222 0.48,-0.239C0.469,-0.256 0.45,-0.271 0.421,-0.286C0.392,-0.3 0.349,-0.314 0.292,-0.328C0.237,-0.342 0.194,-0.357 0.162,-0.374C0.129,-0.391 0.106,-0.411 0.092,-0.435C0.077,-0.459 0.07,-0.489 0.07,-0.524C0.07,-0.564 0.08,-0.599 0.099,-0.63C0.118,-0.66 0.145,-0.684 0.18,-0.701C0.215,-0.717 0.257,-0.726 0.306,-0.726C0.358,-0.726 0.403,-0.716 0.44,-0.697C0.477,-0.677 0.507,-0.65 0.529,-0.616C0.551,-0.582 0.565,-0.543 0.57,-0.5L0.48,-0.494C0.476,-0.523 0.467,-0.548 0.453,-0.571C0.438,-0.593 0.419,-0.61 0.394,-0.623C0.369,-0.636 0.339,-0.642 0.304,-0.642C0.26,-0.642 0.225,-0.632 0.199,-0.611C0.173,-0.59 0.16,-0.562 0.16,-0.528C0.16,-0.506 0.165,-0.488 0.176,-0.474C0.186,-0.459 0.204,-0.447 0.231,-0.436C0.258,-0.424 0.296,-0.413 0.346,-0.4C0.405,-0.385 0.452,-0.368 0.488,-0.348C0.523,-0.327 0.548,-0.304 0.563,-0.277C0.578,-0.25 0.585,-0.22 0.585,-0.186C0.585,-0.145 0.574,-0.109 0.553,-0.079C0.532,-0.048 0.502,-0.025 0.465,-0.009C0.428,0.008 0.385,0.016 0.336,0.016Z" style="fill-rule:nonzero;"/>
                </g>
                <g transform="matrix(33.3333,0,0,33.3333,173.212,155.506)">
                    <path d="M0.092,-0L0.092,-0.71L0.538,-0.71L0.538,-0.626L0.178,-0.626L0.178,-0.397L0.526,-0.397L0.526,-0.315L0.178,-0.315L0.178,-0.084L0.546,-0.084L0.546,-0L0.092,-0Z" style="fill-rule:nonzero;"/>
                </g>
                <g transform="matrix(33.3333,0,0,33.3333,193.312,155.506)">
                    <path d="M0.233,-0L0.233,-0.626L0.012,-0.626L0.012,-0.71L0.54,-0.71L0.54,-0.626L0.319,-0.626L0.319,-0L0.233,-0Z" style="fill-rule:nonzero;"/>
                </g>
            </g>
        </g>
    </g>
</svg>
