<?xml version="1.0" encoding="UTF-8" standalone="no"?>
<!DOCTYPE svg PUBLIC "-//W3C//DTD SVG 1.1//EN" "http://www.w3.org/Graphics/SVG/1.1/DTD/svg11.dtd">
<svg width="100%" height="100%" viewBox="0 0 3898 1654" version="1.1" xmlns="http://www.w3.org/2000/svg" xmlns:xlink="http://www.w3.org/1999/xlink" xml:space="preserve" xmlns:serif="http://www.serif.com/" style="fill-rule:evenodd;clip-rule:evenodd;stroke-linejoin:round;stroke-miterlimit:2;">
    <g transform="matrix(1,0,0,1,-170,32)">
        <path d="M2284.25,1450.39L2488.1,1246.06L3947.43,1246.06L3742.63,1450.39L2284.25,1450.39ZM3294.55,1401.15L3294.55,1281.23L3264.57,1281.23L3264.57,1361.99L3222.77,1294.51C3217.3,1285.66 3210.79,1281.23 3203.24,1281.23C3199.01,1281.23 3195.01,1282.34 3191.23,1284.55C3186.8,1287.22 3184.59,1290.54 3184.59,1294.51L3184.59,1414.53L3214.57,1414.53L3214.57,1333.67L3256.46,1401.15C3261.87,1410.07 3268.35,1414.53 3275.9,1414.53C3280.13,1414.53 3284.13,1413.42 3287.91,1411.21C3292.34,1408.54 3294.55,1405.19 3294.55,1401.15ZM2589.52,1393.62C2580.14,1390.57 2571.51,1385.43 2564.36,1378.58C2556.92,1371.51 2551.18,1362.65 2547.24,1353.2C2543.07,1343.37 2541.21,1332.8 2539.87,1322.31C2538.23,1308.76 2537.78,1295.14 2537.86,1281.51L2527.74,1281.51L2527.74,1303.47C2527.66,1316.43 2528.11,1329.38 2529.23,1342.26C2529.82,1348.21 2530.49,1354.24 2532.05,1360.05C2533.62,1365.85 2535.93,1371.44 2538.9,1376.72C2542.7,1383.42 2547.76,1389.38 2553.42,1394.66C2556.84,1397.79 2560.41,1400.84 2564.36,1403.37C2569.72,1406.87 2575.6,1409.63 2581.7,1411.71C2586.84,1413.42 2592.05,1414.84 2597.41,1415.51L2597.41,1395.48C2594.81,1395.11 2592.13,1394.44 2589.52,1393.62ZM2504.88,1372.85C2504.88,1387.07 2504.81,1401.36 2504.96,1415.58C2511.14,1415.51 2517.39,1415.58 2523.64,1415.58L2523.64,1281.59L2504.88,1281.59C2504.88,1311.96 2504.88,1342.41 2504.88,1372.85ZM2824.72,1414.53L2902.17,1414.53L2902.17,1394.51L2834.69,1394.51L2834.69,1357.89L2877.17,1357.89L2877.17,1337.87L2834.69,1337.87L2834.69,1301.25L2902.17,1301.25L2902.17,1281.23L2824.72,1281.23C2820.3,1281.23 2816,1282.34 2811.83,1284.55C2807.08,1287.15 2804.7,1290.48 2804.7,1294.51L2804.7,1401.15C2804.7,1405.25 2807.08,1408.61 2811.83,1411.21C2816,1413.42 2820.3,1414.53 2824.72,1414.53ZM2779.7,1377.91L2779.7,1317.85C2779.7,1306.72 2773.07,1297.57 2759.78,1290.41C2748.59,1284.29 2736.9,1281.23 2724.72,1281.23L2669.74,1281.23L2669.74,1414.53L2724.72,1414.53C2736.9,1414.53 2748.59,1411.47 2759.78,1405.35C2773.07,1398.12 2779.7,1388.98 2779.7,1377.91ZM2749.72,1317.93L2749.72,1377.93C2749.72,1383 2746.73,1387.16 2740.74,1390.41C2735.66,1393.15 2730.32,1394.51 2724.72,1394.51L2699.72,1394.51L2699.72,1301.25L2724.72,1301.25C2730.45,1301.25 2735.79,1302.65 2740.74,1305.44C2746.73,1308.7 2749.72,1312.86 2749.72,1317.93ZM3082.15,1414.53L3159.59,1414.53L3159.59,1394.51L3092.11,1394.51L3092.11,1357.89L3134.59,1357.89L3134.59,1337.87L3092.11,1337.87L3092.11,1301.25L3159.59,1301.25L3159.59,1281.23L3082.15,1281.23C3077.72,1281.23 3073.42,1282.34 3069.26,1284.55C3064.5,1287.15 3062.13,1290.48 3062.13,1294.51L3062.13,1401.15C3062.13,1405.25 3064.5,1408.61 3069.26,1411.21C3073.42,1413.42 3077.72,1414.53 3082.15,1414.53ZM3597.09,1414.53L3632.05,1414.53L3582.05,1347.83L3632.05,1281.23L3597.09,1281.23L3564.57,1324.49L3532.05,1281.23L3497.09,1281.23L3547.09,1347.83L3497.09,1414.53L3532.05,1414.53L3564.57,1371.17L3597.09,1414.53ZM3379.51,1301.25L3419.55,1301.25L3419.55,1281.23L3309.59,1281.23L3309.59,1301.25L3349.53,1301.25L3349.53,1414.53L3379.51,1414.53L3379.51,1301.25ZM3037.13,1377.91L3007.15,1377.91C3006.3,1382.99 3003.14,1387.15 2997.67,1390.41C2992.99,1393.14 2987.81,1394.51 2982.15,1394.51C2976.61,1394.51 2971.27,1393.15 2966.13,1390.41C2960.14,1387.16 2957.15,1383 2957.15,1377.93L2957.15,1317.93C2957.15,1312.86 2960.14,1308.7 2966.13,1305.44C2971.27,1302.65 2976.61,1301.25 2982.15,1301.25C2987.94,1301.25 2993.12,1302.64 2997.67,1305.42C3003.14,1308.66 3006.3,1312.8 3007.15,1317.85L3037.13,1317.85C3036.61,1306.65 3029.9,1297.51 3017.01,1290.41C3006.01,1284.29 2994.39,1281.23 2982.15,1281.23C2970.04,1281.23 2958.38,1284.29 2947.19,1290.41C2933.84,1297.51 2927.17,1306.65 2927.17,1317.85L2927.17,1377.91C2927.17,1388.98 2933.84,1398.12 2947.19,1405.35C2958.38,1411.47 2970.04,1414.53 2982.15,1414.53C2994.39,1414.53 3006.01,1411.47 3017.01,1405.35C3030.03,1398.19 3036.74,1389.04 3037.13,1377.91ZM3664.57,1414.53L3742.01,1414.53L3742.01,1394.51L3674.53,1394.51L3674.53,1357.89L3717.01,1357.89L3717.01,1337.87L3674.53,1337.87L3674.53,1301.25L3742.01,1301.25L3742.01,1281.23L3664.57,1281.23C3660.14,1281.23 3655.85,1282.34 3651.68,1284.55C3646.93,1287.15 3644.55,1290.48 3644.55,1294.51L3644.55,1401.15C3644.55,1405.25 3646.93,1408.61 3651.68,1411.21C3655.85,1413.42 3660.14,1414.53 3664.57,1414.53ZM2471.76,1397.49C2479.8,1390.64 2487.02,1382.46 2491.63,1372.85C2494.46,1366.82 2496.7,1360.57 2497.81,1354.02C2499.37,1344.57 2499.97,1334.96 2500.49,1325.36C2500.79,1318.74 2500.94,1312.11 2500.94,1305.41L2500.94,1281.51L2490.74,1281.51L2490.74,1293.35C2490.44,1305.04 2489.77,1316.73 2487.99,1328.26C2486.57,1337.35 2484.56,1346.42 2480.77,1354.76C2477.49,1362.06 2473.25,1368.98 2467.89,1374.86C2462.68,1380.67 2456.5,1385.51 2449.65,1389.15C2443.84,1392.21 2437.59,1394.51 2431.11,1395.48L2431.11,1415.51C2436.47,1414.76 2441.76,1413.42 2446.89,1411.63C2455.83,1408.51 2464.54,1403.89 2471.76,1397.49Z"/>
    </g>
    <g id="g5" transform="matrix(11.597,-2.52854,2.52854,11.597,-8358.23,777.798)">
        <path id="path7" d="M690.77,213.209C698.38,206.725 705.217,198.974 709.586,189.882C712.264,184.174 714.379,178.255 715.436,172.052C716.915,163.103 717.479,154.011 717.973,144.92C718.254,138.649 718.395,132.376 718.395,126.034L718.395,103.412L708.742,103.412L708.742,114.617C708.46,125.682 707.825,136.746 706.134,147.669C704.795,156.267 702.893,164.864 699.299,172.757C696.196,179.663 692.181,186.218 687.107,191.785C682.173,197.282 676.325,201.863 669.84,205.316C664.344,208.205 658.424,210.389 652.293,211.306L652.293,230.263C657.367,229.558 662.371,228.29 667.233,226.598C675.688,223.64 683.934,219.27 690.77,213.209Z" style="fill-rule:nonzero;"/>
        <path id="path9" d="M722.13,189.882C722.13,203.343 722.061,216.874 722.201,230.334C728.05,230.263 733.97,230.334 739.889,230.334L739.889,103.482L722.129,103.482C722.13,132.235 722.13,161.059 722.13,189.882Z" style="fill-rule:nonzero;"/>
        <path id="path11" d="M802.258,209.544C793.379,206.655 785.204,201.792 778.438,195.308C771.391,188.613 765.965,180.227 762.23,171.277C758.284,161.974 756.522,151.967 755.253,142.03C753.702,129.204 753.279,116.308 753.351,103.411L743.766,103.411L743.766,124.201C743.695,136.463 744.119,148.725 745.176,160.917C745.739,166.555 746.374,172.263 747.854,177.76C749.333,183.257 751.518,188.543 754.337,193.547C757.931,199.889 762.724,205.527 768.078,210.531C771.321,213.49 774.703,216.38 778.437,218.776C783.512,222.089 789.08,224.696 794.858,226.669C799.72,228.29 804.655,229.629 809.728,230.263L809.728,211.306C807.262,210.954 804.725,210.32 802.258,209.544Z" style="fill-rule:nonzero;"/>
        <path id="path13" d="M976.773,124.576L976.773,105.485L906.318,105.485L906.318,124.576L932.227,124.576L932.227,230.182L950.864,230.182L950.864,124.576L976.773,124.576Z" style="fill-rule:nonzero;"/>
        <path id="path19" d="M1014.5,105.789C1008.59,104.273 1002.38,106.546 998.742,111.546C996.621,114.425 996.167,118.061 995.106,121.242C984.5,157.606 974.045,193.971 963.439,230.182L982.834,230.182C985.864,219.727 988.895,209.273 991.925,198.818L1029.65,198.818C1032.68,209.273 1035.71,219.727 1038.74,230.182L1058.29,230.182C1047.23,192.303 1036.32,154.424 1025.26,116.545C1023.89,111.546 1019.8,107 1014.5,105.789ZM997.228,181.092C1001.77,165.334 1006.32,149.576 1010.87,133.819C1015.41,149.577 1019.96,165.335 1024.5,181.092L997.228,181.092Z" style="fill-rule:nonzero;"/>
        <path id="path21" d="M882.682,108.667C876.774,103.516 866.774,104.576 861.774,110.788C859.046,113.818 858.592,118.06 857.379,121.85C846.774,158.061 836.318,194.121 825.864,230.334L845.258,230.334C848.288,219.879 851.319,209.425 854.5,198.97L892.228,198.97C895.258,209.425 898.289,219.879 901.319,230.334L920.865,230.334C909.804,192.455 898.743,154.576 887.682,116.697C886.925,113.516 885.106,110.789 882.682,108.667ZM859.652,181.092C864.197,165.334 868.742,149.576 873.439,133.971C877.985,149.728 882.531,165.486 887.076,181.092C877.834,181.092 868.742,181.242 859.652,181.092Z" style="fill-rule:nonzero;"/>
    </g>
    <g transform="matrix(1,0,0,1,-100,-18)">
        <g transform="matrix(25,0,0,25,2222.59,1531.89)">
            <path d="M0.875,-0L0.625,-0L0.625,-0.125L0.5,-0.125L0.5,-0.25L0.375,-0.25L0.375,-0L0.125,-0L0.125,-0.75L0.375,-0.75L0.375,-0.375L0.5,-0.375L0.5,-0.5L0.75,-0.5L0.75,-0.375L0.625,-0.375L0.625,-0.25L0.75,-0.25L0.75,-0.125L0.875,-0.125L0.875,-0Z" style="fill-rule:nonzero;"/>
        </g>
        <g transform="matrix(25,0,0,25,2247.59,1531.89)">
            <path d="M0.875,-0.25L0.375,-0.25L0.375,-0.125L0.75,-0.125L0.75,-0L0.25,-0L0.25,-0.125L0.125,-0.125L0.125,-0.5L0.25,-0.5L0.25,-0.625L0.75,-0.625L0.75,-0.5L0.875,-0.5L0.875,-0.25ZM0.625,-0.375L0.625,-0.5L0.375,-0.5L0.375,-0.375L0.625,-0.375Z" style="fill-rule:nonzero;"/>
        </g>
        <g transform="matrix(25,0,0,25,2272.59,1531.89)">
            <path d="M0.875,-0.125L0.75,-0.125L0.75,-0L0.625,-0L0.625,0.125L0.125,0.125L0.125,-0L0.5,-0L0.5,-0.125L0.25,-0.125L0.25,-0.25L0.125,-0.25L0.125,-0.625L0.375,-0.625L0.375,-0.25L0.625,-0.25L0.625,-0.625L0.875,-0.625L0.875,-0.125Z" style="fill-rule:nonzero;"/>
        </g>
        <g transform="matrix(25,0,0,25,2297.59,1531.89)">
            <path d="M0.875,-0.125L0.75,-0.125L0.75,-0L0.125,-0L0.125,-0.75L0.375,-0.75L0.375,-0.5L0.75,-0.5L0.75,-0.375L0.875,-0.375L0.875,-0.125ZM0.625,-0.125L0.625,-0.375L0.375,-0.375L0.375,-0.125L0.625,-0.125Z" style="fill-rule:nonzero;"/>
        </g>
        <g transform="matrix(25,0,0,25,2322.59,1531.89)">
            <path d="M0.875,-0.125L0.75,-0.125L0.75,-0L0.25,-0L0.25,-0.125L0.125,-0.125L0.125,-0.5L0.25,-0.5L0.25,-0.625L0.75,-0.625L0.75,-0.5L0.875,-0.5L0.875,-0.125ZM0.625,-0.125L0.625,-0.5L0.375,-0.5L0.375,-0.125L0.625,-0.125Z" style="fill-rule:nonzero;"/>
        </g>
        <g transform="matrix(25,0,0,25,2347.59,1531.89)">
            <path d="M0.875,-0L0.25,-0L0.25,-0.125L0.125,-0.125L0.125,-0.25L0.25,-0.25L0.25,-0.375L0.625,-0.375L0.625,-0.5L0.25,-0.5L0.25,-0.625L0.75,-0.625L0.75,-0.5L0.875,-0.5L0.875,-0ZM0.625,-0.125L0.625,-0.25L0.375,-0.25L0.375,-0.125L0.625,-0.125Z" style="fill-rule:nonzero;"/>
        </g>
        <g transform="matrix(25,0,0,25,2372.59,1531.89)">
            <path d="M0.875,-0.375L0.625,-0.375L0.625,-0.5L0.375,-0.5L0.375,-0L0.125,-0L0.125,-0.625L0.75,-0.625L0.75,-0.5L0.875,-0.5L0.875,-0.375Z" style="fill-rule:nonzero;"/>
        </g>
        <g transform="matrix(25,0,0,25,2397.59,1531.89)">
            <path d="M0.875,-0L0.25,-0L0.25,-0.125L0.125,-0.125L0.125,-0.375L0.25,-0.375L0.25,-0.5L0.625,-0.5L0.625,-0.75L0.875,-0.75L0.875,-0ZM0.625,-0.125L0.625,-0.375L0.375,-0.375L0.375,-0.125L0.625,-0.125Z" style="fill-rule:nonzero;"/>
        </g>
        <g transform="matrix(25,0,0,25,2447.59,1531.89)">
            <path d="M0.875,-0.375L0.625,-0.375L0.625,-0.5L0.375,-0.5L0.375,-0L0.125,-0L0.125,-0.625L0.75,-0.625L0.75,-0.5L0.875,-0.5L0.875,-0.375Z" style="fill-rule:nonzero;"/>
        </g>
        <g transform="matrix(25,0,0,25,2472.59,1531.89)">
            <path d="M0.875,-0.25L0.375,-0.25L0.375,-0.125L0.75,-0.125L0.75,-0L0.25,-0L0.25,-0.125L0.125,-0.125L0.125,-0.5L0.25,-0.5L0.25,-0.625L0.75,-0.625L0.75,-0.5L0.875,-0.5L0.875,-0.25ZM0.625,-0.375L0.625,-0.5L0.375,-0.5L0.375,-0.375L0.625,-0.375Z" style="fill-rule:nonzero;"/>
        </g>
        <g transform="matrix(25,0,0,25,2497.59,1531.89)">
            <path d="M0.875,-0.25L0.75,-0.25L0.75,-0.125L0.625,-0.125L0.625,-0L0.375,-0L0.375,-0.125L0.25,-0.125L0.25,-0.25L0.125,-0.25L0.125,-0.625L0.375,-0.625L0.375,-0.25L0.625,-0.25L0.625,-0.625L0.875,-0.625L0.875,-0.25Z" style="fill-rule:nonzero;"/>
        </g>
        <g transform="matrix(25,0,0,25,2522.59,1531.89)">
            <rect x="0.375" y="-0.25" width="0.25" height="0.25" style="fill-rule:nonzero;"/>
        </g>
        <g transform="matrix(25,0,0,25,2572.59,1531.89)">
            <path d="M0.875,-0L0.125,-0L0.125,-0.125L0.375,-0.125L0.375,-0.5L0.25,-0.5L0.25,-0.625L0.375,-0.625L0.375,-0.75L0.625,-0.75L0.625,-0.125L0.875,-0.125L0.875,-0Z" style="fill-rule:nonzero;"/>
        </g>
        <g transform="matrix(25,0,0,25,2597.59,1531.89)">
            <path d="M0.875,-0L0.125,-0L0.125,-0.125L0.375,-0.125L0.375,-0.5L0.25,-0.5L0.25,-0.625L0.375,-0.625L0.375,-0.75L0.625,-0.75L0.625,-0.125L0.875,-0.125L0.875,-0Z" style="fill-rule:nonzero;"/>
        </g>
        <g transform="matrix(25,0,0,25,2647.59,1531.89)">
            <path d="M0.875,-0L0.5,-0L0.5,-0.125L0.375,-0.125L0.375,-0.625L0.5,-0.625L0.5,-0.75L0.875,-0.75L0.875,-0.625L0.75,-0.625L0.75,-0.5L0.625,-0.5L0.625,-0.25L0.75,-0.25L0.75,-0.125L0.875,-0.125L0.875,-0Z" style="fill-rule:nonzero;"/>
        </g>
        <g transform="matrix(25,0,0,25,2672.59,1531.89)">
            <path d="M0.75,-0L0.25,-0L0.25,-0.125L0.125,-0.125L0.125,-0.5L0.25,-0.5L0.25,-0.625L0.75,-0.625L0.75,-0.5L0.375,-0.5L0.375,-0.125L0.75,-0.125L0.75,-0Z" style="fill-rule:nonzero;"/>
        </g>
        <g transform="matrix(25,0,0,25,2697.59,1531.89)">
            <path d="M0.625,-0.125L0.5,-0.125L0.5,-0L0.125,-0L0.125,-0.125L0.25,-0.125L0.25,-0.25L0.375,-0.25L0.375,-0.5L0.25,-0.5L0.25,-0.625L0.125,-0.625L0.125,-0.75L0.5,-0.75L0.5,-0.625L0.625,-0.625L0.625,-0.125Z" style="fill-rule:nonzero;"/>
        </g>
        <g transform="matrix(25,0,0,25,2747.59,1531.89)">
            <path d="M0.875,-0.125L0.75,-0.125L0.75,-0L0.125,-0L0.125,-0.75L0.75,-0.75L0.75,-0.625L0.875,-0.625L0.875,-0.5L0.75,-0.5L0.75,-0.375L0.875,-0.375L0.875,-0.125ZM0.625,-0.5L0.625,-0.625L0.375,-0.625L0.375,-0.5L0.625,-0.5ZM0.625,-0.125L0.625,-0.375L0.375,-0.375L0.375,-0.125L0.625,-0.125Z" style="fill-rule:nonzero;"/>
        </g>
        <g transform="matrix(25,0,0,25,2772.59,1531.89)">
            <path d="M0.875,-0.25L0.375,-0.25L0.375,-0.125L0.75,-0.125L0.75,-0L0.25,-0L0.25,-0.125L0.125,-0.125L0.125,-0.5L0.25,-0.5L0.25,-0.625L0.75,-0.625L0.75,-0.5L0.875,-0.5L0.875,-0.25ZM0.625,-0.375L0.625,-0.5L0.375,-0.5L0.375,-0.375L0.625,-0.375Z" style="fill-rule:nonzero;"/>
        </g>
        <g transform="matrix(25,0,0,25,2797.59,1531.89)">
            <path d="M0.875,-0.375L0.625,-0.375L0.625,-0.5L0.375,-0.5L0.375,-0L0.125,-0L0.125,-0.625L0.75,-0.625L0.75,-0.5L0.875,-0.5L0.875,-0.375Z" style="fill-rule:nonzero;"/>
        </g>
        <g transform="matrix(25,0,0,25,2822.59,1531.89)">
            <path d="M0.875,-0L0.5,-0L0.5,-0.125L0.375,-0.125L0.375,-0.5L0.125,-0.5L0.125,-0.625L0.375,-0.625L0.375,-0.75L0.625,-0.75L0.625,-0.625L0.875,-0.625L0.875,-0.5L0.625,-0.5L0.625,-0.125L0.875,-0.125L0.875,-0Z" style="fill-rule:nonzero;"/>
        </g>
        <g transform="matrix(25,0,0,25,2847.59,1531.89)">
            <path d="M0.875,-0.375L0.625,-0.375L0.625,-0.5L0.375,-0.5L0.375,-0L0.125,-0L0.125,-0.625L0.75,-0.625L0.75,-0.5L0.875,-0.5L0.875,-0.375Z" style="fill-rule:nonzero;"/>
        </g>
        <g transform="matrix(25,0,0,25,2872.59,1531.89)">
            <path d="M0.875,-0L0.25,-0L0.25,-0.125L0.125,-0.125L0.125,-0.25L0.25,-0.25L0.25,-0.375L0.625,-0.375L0.625,-0.5L0.25,-0.5L0.25,-0.625L0.75,-0.625L0.75,-0.5L0.875,-0.5L0.875,-0ZM0.625,-0.125L0.625,-0.25L0.375,-0.25L0.375,-0.125L0.625,-0.125Z" style="fill-rule:nonzero;"/>
        </g>
        <g transform="matrix(25,0,0,25,2897.59,1531.89)">
            <path d="M0.875,-0L0.625,-0L0.625,-0.5L0.375,-0.5L0.375,-0L0.125,-0L0.125,-0.625L0.75,-0.625L0.75,-0.5L0.875,-0.5L0.875,-0Z" style="fill-rule:nonzero;"/>
        </g>
        <g transform="matrix(25,0,0,25,2922.59,1531.89)">
            <path d="M0.875,-0L0.25,-0L0.25,-0.125L0.125,-0.125L0.125,-0.375L0.25,-0.375L0.25,-0.5L0.625,-0.5L0.625,-0.75L0.875,-0.75L0.875,-0ZM0.625,-0.125L0.625,-0.375L0.375,-0.375L0.375,-0.125L0.625,-0.125Z" style="fill-rule:nonzero;"/>
        </g>
        <g transform="matrix(25,0,0,25,2972.59,1531.89)">
            <path d="M0.875,-0L0.125,-0L0.125,-0.75L0.375,-0.75L0.375,-0.125L0.875,-0.125L0.875,-0Z" style="fill-rule:nonzero;"/>
        </g>
        <g transform="matrix(25,0,0,25,2997.59,1531.89)">
            <path d="M0.875,-0.25L0.375,-0.25L0.375,-0.125L0.75,-0.125L0.75,-0L0.25,-0L0.25,-0.125L0.125,-0.125L0.125,-0.5L0.25,-0.5L0.25,-0.625L0.75,-0.625L0.75,-0.5L0.875,-0.5L0.875,-0.25ZM0.625,-0.375L0.625,-0.5L0.375,-0.5L0.375,-0.375L0.625,-0.375Z" style="fill-rule:nonzero;"/>
        </g>
        <g transform="matrix(25,0,0,25,3047.59,1531.89)">
            <path d="M0.875,-0L0.625,-0L0.625,-0.125L0.5,-0.125L0.5,-0.25L0.375,-0.25L0.375,-0L0.125,-0L0.125,-0.75L0.75,-0.75L0.75,-0.625L0.875,-0.625L0.875,-0.375L0.75,-0.375L0.75,-0.125L0.875,-0.125L0.875,-0ZM0.625,-0.375L0.625,-0.625L0.375,-0.625L0.375,-0.375L0.625,-0.375Z" style="fill-rule:nonzero;"/>
        </g>
        <g transform="matrix(25,0,0,25,3072.59,1531.89)">
            <path d="M0.875,-0.125L0.75,-0.125L0.75,-0L0.25,-0L0.25,-0.125L0.125,-0.125L0.125,-0.5L0.25,-0.5L0.25,-0.625L0.75,-0.625L0.75,-0.5L0.875,-0.5L0.875,-0.125ZM0.625,-0.125L0.625,-0.5L0.375,-0.5L0.375,-0.125L0.625,-0.125Z" style="fill-rule:nonzero;"/>
        </g>
        <g transform="matrix(25,0,0,25,3097.59,1531.89)">
            <path d="M0.875,-0.125L0.75,-0.125L0.75,-0L0.625,-0L0.625,0.125L0.125,0.125L0.125,-0L0.5,-0L0.5,-0.125L0.25,-0.125L0.25,-0.25L0.125,-0.25L0.125,-0.625L0.375,-0.625L0.375,-0.25L0.625,-0.25L0.625,-0.625L0.875,-0.625L0.875,-0.125Z" style="fill-rule:nonzero;"/>
        </g>
        <g transform="matrix(25,0,0,25,3147.59,1531.89)">
            <path d="M0.875,-0L0.125,-0L0.125,-0.125L0.25,-0.125L0.25,-0.25L0.375,-0.25L0.375,-0.375L0.5,-0.375L0.5,-0.5L0.625,-0.5L0.625,-0.625L0.375,-0.625L0.375,-0.5L0.125,-0.5L0.125,-0.625L0.25,-0.625L0.25,-0.75L0.75,-0.75L0.75,-0.625L0.875,-0.625L0.875,-0.5L0.75,-0.5L0.75,-0.375L0.625,-0.375L0.625,-0.25L0.5,-0.25L0.5,-0.125L0.875,-0.125L0.875,-0Z" style="fill-rule:nonzero;"/>
        </g>
        <g transform="matrix(25,0,0,25,3172.59,1531.89)">
            <path d="M0.875,-0.125L0.75,-0.125L0.75,-0L0.25,-0L0.25,-0.125L0.125,-0.125L0.125,-0.625L0.25,-0.625L0.25,-0.75L0.75,-0.75L0.75,-0.625L0.875,-0.625L0.875,-0.125ZM0.625,-0.125L0.625,-0.375L0.5,-0.375L0.5,-0.5L0.625,-0.5L0.625,-0.625L0.375,-0.625L0.375,-0.375L0.5,-0.375L0.5,-0.25L0.375,-0.25L0.375,-0.125L0.625,-0.125Z" style="fill-rule:nonzero;"/>
        </g>
        <g transform="matrix(25,0,0,25,3197.59,1531.89)">
            <path d="M0.875,-0L0.125,-0L0.125,-0.125L0.25,-0.125L0.25,-0.25L0.375,-0.25L0.375,-0.375L0.5,-0.375L0.5,-0.5L0.625,-0.5L0.625,-0.625L0.375,-0.625L0.375,-0.5L0.125,-0.5L0.125,-0.625L0.25,-0.625L0.25,-0.75L0.75,-0.75L0.75,-0.625L0.875,-0.625L0.875,-0.5L0.75,-0.5L0.75,-0.375L0.625,-0.375L0.625,-0.25L0.5,-0.25L0.5,-0.125L0.875,-0.125L0.875,-0Z" style="fill-rule:nonzero;"/>
        </g>
        <g transform="matrix(25,0,0,25,3222.59,1531.89)">
            <path d="M0.875,-0.125L0.75,-0.125L0.75,-0L0.25,-0L0.25,-0.125L0.125,-0.125L0.125,-0.25L0.375,-0.25L0.375,-0.125L0.625,-0.125L0.625,-0.25L0.5,-0.25L0.5,-0.375L0.375,-0.375L0.375,-0.5L0.5,-0.5L0.5,-0.625L0.125,-0.625L0.125,-0.75L0.875,-0.75L0.875,-0.625L0.75,-0.625L0.75,-0.5L0.625,-0.5L0.625,-0.375L0.75,-0.375L0.75,-0.25L0.875,-0.25L0.875,-0.125Z" style="fill-rule:nonzero;"/>
        </g>
        <g transform="matrix(25,0,0,25,2222.59,1561.16)">
            <path d="M0.875,-0L0.625,-0L0.625,-0.375L0.375,-0.375L0.375,-0L0.125,-0L0.125,-0.75L0.375,-0.75L0.375,-0.5L0.75,-0.5L0.75,-0.375L0.875,-0.375L0.875,-0Z" style="fill-rule:nonzero;"/>
        </g>
        <g transform="matrix(25,0,0,25,2247.59,1561.16)">
            <path d="M0.875,-0L0.5,-0L0.5,-0.125L0.375,-0.125L0.375,-0.5L0.125,-0.5L0.125,-0.625L0.375,-0.625L0.375,-0.75L0.625,-0.75L0.625,-0.625L0.875,-0.625L0.875,-0.5L0.625,-0.5L0.625,-0.125L0.875,-0.125L0.875,-0Z" style="fill-rule:nonzero;"/>
        </g>
        <g transform="matrix(25,0,0,25,2272.59,1561.16)">
            <path d="M0.875,-0L0.5,-0L0.5,-0.125L0.375,-0.125L0.375,-0.5L0.125,-0.5L0.125,-0.625L0.375,-0.625L0.375,-0.75L0.625,-0.75L0.625,-0.625L0.875,-0.625L0.875,-0.5L0.625,-0.5L0.625,-0.125L0.875,-0.125L0.875,-0Z" style="fill-rule:nonzero;"/>
        </g>
        <g transform="matrix(25,0,0,25,2297.59,1561.16)">
            <path d="M0.875,-0.25L0.75,-0.25L0.75,-0.125L0.375,-0.125L0.375,0.125L0.125,0.125L0.125,-0.625L0.75,-0.625L0.75,-0.5L0.875,-0.5L0.875,-0.25ZM0.625,-0.25L0.625,-0.5L0.375,-0.5L0.375,-0.25L0.625,-0.25Z" style="fill-rule:nonzero;"/>
        </g>
        <g transform="matrix(25,0,0,25,2322.59,1561.16)">
            <path d="M0.875,-0.125L0.75,-0.125L0.75,-0L0.125,-0L0.125,-0.125L0.625,-0.125L0.625,-0.25L0.25,-0.25L0.25,-0.375L0.125,-0.375L0.125,-0.5L0.25,-0.5L0.25,-0.625L0.875,-0.625L0.875,-0.5L0.375,-0.5L0.375,-0.375L0.75,-0.375L0.75,-0.25L0.875,-0.25L0.875,-0.125Z" style="fill-rule:nonzero;"/>
        </g>
        <g transform="matrix(25,0,0,25,2347.59,1561.16)">
            <path d="M0.625,-0.375L0.375,-0.375L0.375,-0.625L0.625,-0.625L0.625,-0.375ZM0.625,-0L0.375,-0L0.375,-0.25L0.625,-0.25L0.625,-0Z" style="fill-rule:nonzero;"/>
        </g>
        <g transform="matrix(25,0,0,25,2372.59,1561.16)">
            <path d="M0.875,-0.625L0.75,-0.625L0.75,-0.5L0.625,-0.5L0.625,-0.375L0.5,-0.375L0.5,-0.25L0.375,-0.25L0.375,-0.125L0.25,-0.125L0.25,-0L0.125,-0L0.125,-0.25L0.25,-0.25L0.25,-0.375L0.375,-0.375L0.375,-0.5L0.5,-0.5L0.5,-0.625L0.625,-0.625L0.625,-0.75L0.875,-0.75L0.875,-0.625Z" style="fill-rule:nonzero;"/>
        </g>
        <g transform="matrix(25,0,0,25,2397.59,1561.16)">
            <path d="M0.875,-0.625L0.75,-0.625L0.75,-0.5L0.625,-0.5L0.625,-0.375L0.5,-0.375L0.5,-0.25L0.375,-0.25L0.375,-0.125L0.25,-0.125L0.25,-0L0.125,-0L0.125,-0.25L0.25,-0.25L0.25,-0.375L0.375,-0.375L0.375,-0.5L0.5,-0.5L0.5,-0.625L0.625,-0.625L0.625,-0.75L0.875,-0.75L0.875,-0.625Z" style="fill-rule:nonzero;"/>
        </g>
        <g transform="matrix(25,0,0,25,2422.59,1561.16)">
            <path d="M0.875,-0L0.75,-0L0.75,0.125L0.125,0.125L0.125,-0L0.625,-0L0.625,-0.125L0.25,-0.125L0.25,-0.25L0.125,-0.25L0.125,-0.5L0.25,-0.5L0.25,-0.625L0.875,-0.625L0.875,-0ZM0.625,-0.25L0.625,-0.5L0.375,-0.5L0.375,-0.25L0.625,-0.25Z" style="fill-rule:nonzero;"/>
        </g>
        <g transform="matrix(25,0,0,25,2447.59,1561.16)">
            <path d="M0.625,-0.625L0.375,-0.625L0.375,-0.75L0.625,-0.75L0.625,-0.625ZM0.75,-0L0.25,-0L0.25,-0.125L0.375,-0.125L0.375,-0.375L0.25,-0.375L0.25,-0.5L0.625,-0.5L0.625,-0.125L0.75,-0.125L0.75,-0Z" style="fill-rule:nonzero;"/>
        </g>
        <g transform="matrix(25,0,0,25,2472.59,1561.16)">
            <path d="M0.875,-0L0.5,-0L0.5,-0.125L0.375,-0.125L0.375,-0.5L0.125,-0.5L0.125,-0.625L0.375,-0.625L0.375,-0.75L0.625,-0.75L0.625,-0.625L0.875,-0.625L0.875,-0.5L0.625,-0.5L0.625,-0.125L0.875,-0.125L0.875,-0Z" style="fill-rule:nonzero;"/>
        </g>
        <g transform="matrix(25,0,0,25,2497.59,1561.16)">
            <path d="M0.875,-0L0.625,-0L0.625,-0.375L0.375,-0.375L0.375,-0L0.125,-0L0.125,-0.75L0.375,-0.75L0.375,-0.5L0.75,-0.5L0.75,-0.375L0.875,-0.375L0.875,-0Z" style="fill-rule:nonzero;"/>
        </g>
        <g transform="matrix(25,0,0,25,2522.59,1561.16)">
            <path d="M0.875,-0L0.25,-0L0.25,-0.125L0.125,-0.125L0.125,-0.625L0.375,-0.625L0.375,-0.125L0.625,-0.125L0.625,-0.625L0.875,-0.625L0.875,-0Z" style="fill-rule:nonzero;"/>
        </g>
        <g transform="matrix(25,0,0,25,2547.59,1561.16)">
            <path d="M0.875,-0.125L0.75,-0.125L0.75,-0L0.125,-0L0.125,-0.75L0.375,-0.75L0.375,-0.5L0.75,-0.5L0.75,-0.375L0.875,-0.375L0.875,-0.125ZM0.625,-0.125L0.625,-0.375L0.375,-0.375L0.375,-0.125L0.625,-0.125Z" style="fill-rule:nonzero;"/>
        </g>
        <g transform="matrix(25,0,0,25,2572.59,1561.16)">
            <rect x="0.375" y="-0.25" width="0.25" height="0.25" style="fill-rule:nonzero;"/>
        </g>
        <g transform="matrix(25,0,0,25,2597.59,1561.16)">
            <path d="M0.75,-0L0.25,-0L0.25,-0.125L0.125,-0.125L0.125,-0.5L0.25,-0.5L0.25,-0.625L0.75,-0.625L0.75,-0.5L0.375,-0.5L0.375,-0.125L0.75,-0.125L0.75,-0Z" style="fill-rule:nonzero;"/>
        </g>
        <g transform="matrix(25,0,0,25,2622.59,1561.16)">
            <path d="M0.875,-0.125L0.75,-0.125L0.75,-0L0.25,-0L0.25,-0.125L0.125,-0.125L0.125,-0.5L0.25,-0.5L0.25,-0.625L0.75,-0.625L0.75,-0.5L0.875,-0.5L0.875,-0.125ZM0.625,-0.125L0.625,-0.5L0.375,-0.5L0.375,-0.125L0.625,-0.125Z" style="fill-rule:nonzero;"/>
        </g>
        <g transform="matrix(25,0,0,25,2647.59,1561.16)">
            <path d="M1,-0L0.75,-0L0.75,-0.25L0.625,-0.25L0.625,-0.125L0.5,-0.125L0.5,-0.25L0.375,-0.25L0.375,-0L0.125,-0L0.125,-0.625L0.375,-0.625L0.375,-0.5L0.625,-0.5L0.625,-0.625L0.875,-0.625L0.875,-0.5L1,-0.5L1,-0Z" style="fill-rule:nonzero;"/>
        </g>
        <g transform="matrix(25,0,0,25,2672.59,1561.16)">
            <path d="M0.875,-0.625L0.75,-0.625L0.75,-0.5L0.625,-0.5L0.625,-0.375L0.5,-0.375L0.5,-0.25L0.375,-0.25L0.375,-0.125L0.25,-0.125L0.25,-0L0.125,-0L0.125,-0.25L0.25,-0.25L0.25,-0.375L0.375,-0.375L0.375,-0.5L0.5,-0.5L0.5,-0.625L0.625,-0.625L0.625,-0.75L0.875,-0.75L0.875,-0.625Z" style="fill-rule:nonzero;"/>
        </g>
        <g transform="matrix(25,0,0,25,2697.59,1561.16)">
            <path d="M0.875,-0.125L0.75,-0.125L0.75,-0L0.125,-0L0.125,-0.75L0.375,-0.75L0.375,-0.5L0.75,-0.5L0.75,-0.375L0.875,-0.375L0.875,-0.125ZM0.625,-0.125L0.625,-0.375L0.375,-0.375L0.375,-0.125L0.625,-0.125Z" style="fill-rule:nonzero;"/>
        </g>
        <g transform="matrix(25,0,0,25,2722.59,1561.16)">
            <path d="M0.75,-0L0.25,-0L0.25,-0.125L0.375,-0.125L0.375,-0.625L0.25,-0.625L0.25,-0.75L0.625,-0.75L0.625,-0.125L0.75,-0.125L0.75,-0Z" style="fill-rule:nonzero;"/>
        </g>
        <g transform="matrix(25,0,0,25,2747.59,1561.16)">
            <path d="M0.875,-0.25L0.375,-0.25L0.375,-0.125L0.75,-0.125L0.75,-0L0.25,-0L0.25,-0.125L0.125,-0.125L0.125,-0.5L0.25,-0.5L0.25,-0.625L0.75,-0.625L0.75,-0.5L0.875,-0.5L0.875,-0.25ZM0.625,-0.375L0.625,-0.5L0.375,-0.5L0.375,-0.375L0.625,-0.375Z" style="fill-rule:nonzero;"/>
        </g>
        <g transform="matrix(25,0,0,25,2772.59,1561.16)">
            <path d="M0.875,-0.375L0.625,-0.375L0.625,-0.5L0.375,-0.5L0.375,-0L0.125,-0L0.125,-0.625L0.75,-0.625L0.75,-0.5L0.875,-0.5L0.875,-0.375Z" style="fill-rule:nonzero;"/>
        </g>
        <g transform="matrix(25,0,0,25,2797.59,1561.16)">
            <path d="M0.875,-0.125L0.75,-0.125L0.75,-0L0.25,-0L0.25,-0.125L0.125,-0.125L0.125,-0.5L0.25,-0.5L0.25,-0.625L0.75,-0.625L0.75,-0.5L0.875,-0.5L0.875,-0.125ZM0.625,-0.125L0.625,-0.5L0.375,-0.5L0.375,-0.125L0.625,-0.125Z" style="fill-rule:nonzero;"/>
        </g>
        <g transform="matrix(25,0,0,25,2822.59,1561.16)">
            <path d="M0.875,-0.125L0.75,-0.125L0.75,-0L0.625,-0L0.625,0.125L0.125,0.125L0.125,-0L0.5,-0L0.5,-0.125L0.25,-0.125L0.25,-0.25L0.125,-0.25L0.125,-0.625L0.375,-0.625L0.375,-0.25L0.625,-0.25L0.625,-0.625L0.875,-0.625L0.875,-0.125Z" style="fill-rule:nonzero;"/>
        </g>
        <g transform="matrix(25,0,0,25,2847.59,1561.16)">
            <path d="M0.875,-0.625L0.75,-0.625L0.75,-0.5L0.625,-0.5L0.625,-0.375L0.5,-0.375L0.5,-0.25L0.375,-0.25L0.375,-0.125L0.25,-0.125L0.25,-0L0.125,-0L0.125,-0.25L0.25,-0.25L0.25,-0.375L0.375,-0.375L0.375,-0.5L0.5,-0.5L0.5,-0.625L0.625,-0.625L0.625,-0.75L0.875,-0.75L0.875,-0.625Z" style="fill-rule:nonzero;"/>
        </g>
        <g transform="matrix(25,0,0,25,2872.59,1561.16)">
            <path d="M0.875,-0.125L0.75,-0.125L0.75,-0L0.25,-0L0.25,-0.125L0.125,-0.125L0.125,-0.25L0.375,-0.25L0.375,-0.125L0.625,-0.125L0.625,-0.25L0.5,-0.25L0.5,-0.375L0.375,-0.375L0.375,-0.5L0.5,-0.5L0.5,-0.625L0.125,-0.625L0.125,-0.75L0.875,-0.75L0.875,-0.625L0.75,-0.625L0.75,-0.5L0.625,-0.5L0.625,-0.375L0.75,-0.375L0.75,-0.25L0.875,-0.25L0.875,-0.125Z" style="fill-rule:nonzero;"/>
        </g>
        <g transform="matrix(25,0,0,25,2897.59,1561.16)">
            <path d="M0.875,-0L0.25,-0L0.25,-0.125L0.125,-0.125L0.125,-0.375L0.25,-0.375L0.25,-0.5L0.625,-0.5L0.625,-0.75L0.875,-0.75L0.875,-0ZM0.625,-0.125L0.625,-0.375L0.375,-0.375L0.375,-0.125L0.625,-0.125Z" style="fill-rule:nonzero;"/>
        </g>
        <g transform="matrix(25,0,0,25,2922.59,1561.16)">
            <rect x="0.129" y="-0.306" width="0.292" height="0.08" style="fill-rule:nonzero;"/>
        </g>
        <g transform="matrix(25,0,0,25,2936.33,1561.16)">
            <path d="M0.875,-0.625L0.625,-0.625L0.625,-0.75L0.875,-0.75L0.875,-0.625ZM0.875,-0L0.75,-0L0.75,0.125L0.25,0.125L0.25,-0L0.625,-0L0.625,-0.5L0.875,-0.5L0.875,-0Z" style="fill-rule:nonzero;"/>
        </g>
        <g transform="matrix(25,0,0,25,2961.33,1561.16)">
            <path d="M0.875,-0L0.25,-0L0.25,-0.125L0.125,-0.125L0.125,-0.625L0.375,-0.625L0.375,-0.125L0.625,-0.125L0.625,-0.625L0.875,-0.625L0.875,-0Z" style="fill-rule:nonzero;"/>
        </g>
        <g transform="matrix(25,0,0,25,2986.33,1561.16)">
            <path d="M0.875,-0L0.625,-0L0.625,-0.5L0.375,-0.5L0.375,-0L0.125,-0L0.125,-0.625L0.75,-0.625L0.75,-0.5L0.875,-0.5L0.875,-0Z" style="fill-rule:nonzero;"/>
        </g>
        <g transform="matrix(25,0,0,25,3011.33,1561.16)">
            <path d="M0.875,-0L0.625,-0L0.625,-0.125L0.5,-0.125L0.5,-0.25L0.375,-0.25L0.375,-0L0.125,-0L0.125,-0.75L0.375,-0.75L0.375,-0.375L0.5,-0.375L0.5,-0.5L0.75,-0.5L0.75,-0.375L0.625,-0.375L0.625,-0.25L0.75,-0.25L0.75,-0.125L0.875,-0.125L0.875,-0Z" style="fill-rule:nonzero;"/>
        </g>
        <g transform="matrix(25,0,0,25,3036.33,1561.16)">
            <path d="M0.875,-0.125L0.75,-0.125L0.75,-0L0.625,-0L0.625,0.125L0.125,0.125L0.125,-0L0.5,-0L0.5,-0.125L0.25,-0.125L0.25,-0.25L0.125,-0.25L0.125,-0.625L0.375,-0.625L0.375,-0.25L0.625,-0.25L0.625,-0.625L0.875,-0.625L0.875,-0.125Z" style="fill-rule:nonzero;"/>
        </g>
        <g transform="matrix(25,0,0,25,3061.33,1561.16)">
            <path d="M0.875,-0L0.25,-0L0.25,-0.125L0.125,-0.125L0.125,-0.25L0.25,-0.25L0.25,-0.375L0.625,-0.375L0.625,-0.5L0.25,-0.5L0.25,-0.625L0.75,-0.625L0.75,-0.5L0.875,-0.5L0.875,-0ZM0.625,-0.125L0.625,-0.25L0.375,-0.25L0.375,-0.125L0.625,-0.125Z" style="fill-rule:nonzero;"/>
        </g>
        <g transform="matrix(25,0,0,25,3086.33,1561.16)">
            <path d="M0.875,-0.375L0.625,-0.375L0.625,-0.5L0.375,-0.5L0.375,-0L0.125,-0L0.125,-0.625L0.75,-0.625L0.75,-0.5L0.875,-0.5L0.875,-0.375Z" style="fill-rule:nonzero;"/>
        </g>
        <g transform="matrix(25,0,0,25,3111.33,1561.16)">
            <path d="M0.875,-0L0.25,-0L0.25,-0.125L0.125,-0.125L0.125,-0.375L0.25,-0.375L0.25,-0.5L0.625,-0.5L0.625,-0.75L0.875,-0.75L0.875,-0ZM0.625,-0.125L0.625,-0.375L0.375,-0.375L0.375,-0.125L0.625,-0.125Z" style="fill-rule:nonzero;"/>
        </g>
        <g transform="matrix(25,0,0,25,3136.33,1561.16)">
            <path d="M0.875,-0.625L0.75,-0.625L0.75,-0.5L0.625,-0.5L0.625,-0.375L0.5,-0.375L0.5,-0.25L0.375,-0.25L0.375,-0.125L0.25,-0.125L0.25,-0L0.125,-0L0.125,-0.25L0.25,-0.25L0.25,-0.375L0.375,-0.375L0.375,-0.5L0.5,-0.5L0.5,-0.625L0.625,-0.625L0.625,-0.75L0.875,-0.75L0.875,-0.625Z" style="fill-rule:nonzero;"/>
        </g>
        <g transform="matrix(25,0,0,25,3161.33,1561.16)">
            <path d="M0.875,-0L0.5,-0L0.5,-0.125L0.375,-0.125L0.375,-0.5L0.125,-0.5L0.125,-0.625L0.375,-0.625L0.375,-0.75L0.625,-0.75L0.625,-0.625L0.875,-0.625L0.875,-0.5L0.625,-0.5L0.625,-0.125L0.875,-0.125L0.875,-0Z" style="fill-rule:nonzero;"/>
        </g>
        <g transform="matrix(25,0,0,25,3186.33,1561.16)">
            <path d="M0.875,-0.375L0.625,-0.375L0.625,-0.5L0.375,-0.5L0.375,-0L0.125,-0L0.125,-0.625L0.75,-0.625L0.75,-0.5L0.875,-0.5L0.875,-0.375Z" style="fill-rule:nonzero;"/>
        </g>
        <g transform="matrix(25,0,0,25,3211.33,1561.16)">
            <path d="M0.875,-0.25L0.375,-0.25L0.375,-0.125L0.75,-0.125L0.75,-0L0.25,-0L0.25,-0.125L0.125,-0.125L0.125,-0.5L0.25,-0.5L0.25,-0.625L0.75,-0.625L0.75,-0.5L0.875,-0.5L0.875,-0.25ZM0.625,-0.375L0.625,-0.5L0.375,-0.5L0.375,-0.375L0.625,-0.375Z" style="fill-rule:nonzero;"/>
        </g>
        <g transform="matrix(25,0,0,25,3236.33,1561.16)">
            <path d="M0.875,-0.25L0.375,-0.25L0.375,-0.125L0.75,-0.125L0.75,-0L0.25,-0L0.25,-0.125L0.125,-0.125L0.125,-0.5L0.25,-0.5L0.25,-0.625L0.75,-0.625L0.75,-0.5L0.875,-0.5L0.875,-0.25ZM0.625,-0.375L0.625,-0.5L0.375,-0.5L0.375,-0.375L0.625,-0.375Z" style="fill-rule:nonzero;"/>
        </g>
        <g transform="matrix(25,0,0,25,3261.33,1561.16)">
            <path d="M0.875,-0.625L0.75,-0.625L0.75,-0.5L0.625,-0.5L0.625,-0.375L0.5,-0.375L0.5,-0.25L0.375,-0.25L0.375,-0.125L0.25,-0.125L0.25,-0L0.125,-0L0.125,-0.25L0.25,-0.25L0.25,-0.375L0.375,-0.375L0.375,-0.5L0.5,-0.5L0.5,-0.625L0.625,-0.625L0.625,-0.75L0.875,-0.75L0.875,-0.625Z" style="fill-rule:nonzero;"/>
        </g>
        <g transform="matrix(25,0,0,25,3286.33,1561.16)">
            <path d="M1,-0L0.75,-0L0.75,-0.25L0.625,-0.25L0.625,-0.125L0.5,-0.125L0.5,-0.25L0.375,-0.25L0.375,-0L0.125,-0L0.125,-0.625L0.375,-0.625L0.375,-0.5L0.625,-0.5L0.625,-0.625L0.875,-0.625L0.875,-0.5L1,-0.5L1,-0Z" style="fill-rule:nonzero;"/>
        </g>
        <g transform="matrix(25,0,0,25,3311.33,1561.16)">
            <path d="M0.875,-0L0.25,-0L0.25,-0.125L0.125,-0.125L0.125,-0.25L0.25,-0.25L0.25,-0.375L0.625,-0.375L0.625,-0.5L0.25,-0.5L0.25,-0.625L0.75,-0.625L0.75,-0.5L0.875,-0.5L0.875,-0ZM0.625,-0.125L0.625,-0.25L0.375,-0.25L0.375,-0.125L0.625,-0.125Z" style="fill-rule:nonzero;"/>
        </g>
        <g transform="matrix(25,0,0,25,3336.33,1561.16)">
            <path d="M0.625,-0.625L0.375,-0.625L0.375,-0.75L0.625,-0.75L0.625,-0.625ZM0.75,-0L0.25,-0L0.25,-0.125L0.375,-0.125L0.375,-0.375L0.25,-0.375L0.25,-0.5L0.625,-0.5L0.625,-0.125L0.75,-0.125L0.75,-0Z" style="fill-rule:nonzero;"/>
        </g>
        <g transform="matrix(25,0,0,25,3361.33,1561.16)">
            <path d="M0.875,-0L0.625,-0L0.625,-0.5L0.375,-0.5L0.375,-0L0.125,-0L0.125,-0.625L0.75,-0.625L0.75,-0.5L0.875,-0.5L0.875,-0Z" style="fill-rule:nonzero;"/>
        </g>
        <g transform="matrix(25,0,0,25,3386.33,1561.16)">
            <path d="M0.875,-0.625L0.75,-0.625L0.75,-0.5L0.625,-0.5L0.625,-0.375L0.5,-0.375L0.5,-0.25L0.375,-0.25L0.375,-0.125L0.25,-0.125L0.25,-0L0.125,-0L0.125,-0.25L0.25,-0.25L0.25,-0.375L0.375,-0.375L0.375,-0.5L0.5,-0.5L0.5,-0.625L0.625,-0.625L0.625,-0.75L0.875,-0.75L0.875,-0.625Z" style="fill-rule:nonzero;"/>
        </g>
        <g transform="matrix(25,0,0,25,3411.33,1561.16)">
            <path d="M0.875,-0L0.625,-0L0.625,-0.125L0.375,-0.125L0.375,-0L0.125,-0L0.125,-0.5L0.25,-0.5L0.25,-0.625L0.375,-0.625L0.375,-0.75L0.625,-0.75L0.625,-0.625L0.75,-0.625L0.75,-0.5L0.875,-0.5L0.875,-0ZM0.625,-0.25L0.625,-0.5L0.375,-0.5L0.375,-0.25L0.625,-0.25Z" style="fill-rule:nonzero;"/>
        </g>
        <g transform="matrix(25,0,0,25,3436.33,1561.16)">
            <path d="M0.875,-0L0.5,-0L0.5,-0.125L0.375,-0.125L0.375,-0.5L0.125,-0.5L0.125,-0.625L0.375,-0.625L0.375,-0.75L0.625,-0.75L0.625,-0.625L0.875,-0.625L0.875,-0.5L0.625,-0.5L0.625,-0.125L0.875,-0.125L0.875,-0Z" style="fill-rule:nonzero;"/>
        </g>
        <g transform="matrix(25,0,0,25,3461.33,1561.16)">
            <path d="M0.875,-0L0.25,-0L0.25,-0.125L0.125,-0.125L0.125,-0.25L0.25,-0.25L0.25,-0.375L0.625,-0.375L0.625,-0.5L0.25,-0.5L0.25,-0.625L0.75,-0.625L0.75,-0.5L0.875,-0.5L0.875,-0ZM0.625,-0.125L0.625,-0.25L0.375,-0.25L0.375,-0.125L0.625,-0.125Z" style="fill-rule:nonzero;"/>
        </g>
        <g transform="matrix(25,0,0,25,3486.33,1561.16)">
            <path d="M0.875,-0.375L0.625,-0.375L0.625,-0.5L0.375,-0.5L0.375,-0L0.125,-0L0.125,-0.625L0.75,-0.625L0.75,-0.5L0.875,-0.5L0.875,-0.375Z" style="fill-rule:nonzero;"/>
        </g>
        <g transform="matrix(25,0,0,25,3511.33,1561.16)">
            <path d="M0.625,-0.625L0.375,-0.625L0.375,-0.75L0.625,-0.75L0.625,-0.625ZM0.75,-0L0.25,-0L0.25,-0.125L0.375,-0.125L0.375,-0.375L0.25,-0.375L0.25,-0.5L0.625,-0.5L0.625,-0.125L0.75,-0.125L0.75,-0Z" style="fill-rule:nonzero;"/>
        </g>
        <g transform="matrix(25,0,0,25,3536.33,1561.16)">
            <path d="M0.875,-0L0.125,-0L0.125,-0.125L0.375,-0.125L0.375,-0.5L0.25,-0.5L0.25,-0.625L0.375,-0.625L0.375,-0.75L0.625,-0.75L0.625,-0.125L0.875,-0.125L0.875,-0Z" style="fill-rule:nonzero;"/>
        </g>
        <g transform="matrix(25,0,0,25,3561.33,1561.16)">
            <path d="M0.875,-0.125L0.75,-0.125L0.75,-0L0.25,-0L0.25,-0.125L0.125,-0.125L0.125,-0.25L0.375,-0.25L0.375,-0.125L0.625,-0.125L0.625,-0.25L0.5,-0.25L0.5,-0.375L0.375,-0.375L0.375,-0.5L0.5,-0.5L0.5,-0.625L0.125,-0.625L0.125,-0.75L0.875,-0.75L0.875,-0.625L0.75,-0.625L0.75,-0.5L0.625,-0.5L0.625,-0.375L0.75,-0.375L0.75,-0.25L0.875,-0.25L0.875,-0.125Z" style="fill-rule:nonzero;"/>
        </g>
        <g transform="matrix(25,0,0,25,3586.33,1561.16)">
            <path d="M0.875,-0.125L0.75,-0.125L0.75,-0L0.25,-0L0.25,-0.125L0.125,-0.125L0.125,-0.625L0.25,-0.625L0.25,-0.75L0.75,-0.75L0.75,-0.625L0.875,-0.625L0.875,-0.125ZM0.625,-0.125L0.625,-0.375L0.5,-0.375L0.5,-0.5L0.625,-0.5L0.625,-0.625L0.375,-0.625L0.375,-0.375L0.5,-0.375L0.5,-0.25L0.375,-0.25L0.375,-0.125L0.625,-0.125Z" style="fill-rule:nonzero;"/>
        </g>
        <g transform="matrix(25,0,0,25,3611.33,1561.16)">
            <path d="M1,-0L0.75,-0L0.75,-0.375L0.625,-0.375L0.625,-0.25L0.5,-0.25L0.5,-0.375L0.375,-0.375L0.375,-0L0.125,-0L0.125,-0.75L0.375,-0.75L0.375,-0.625L0.5,-0.625L0.5,-0.5L0.625,-0.5L0.625,-0.625L0.75,-0.625L0.75,-0.75L1,-0.75L1,-0Z" style="fill-rule:nonzero;"/>
        </g>
        <g transform="matrix(25,0,0,25,3636.33,1561.16)">
            <path d="M0.875,-0L0.625,-0L0.625,-0.25L0.375,-0.25L0.375,-0L0.125,-0L0.125,-0.25L0.25,-0.25L0.25,-0.5L0.125,-0.5L0.125,-0.75L0.375,-0.75L0.375,-0.5L0.625,-0.5L0.625,-0.75L0.875,-0.75L0.875,-0.5L0.75,-0.5L0.75,-0.25L0.875,-0.25L0.875,-0Z" style="fill-rule:nonzero;"/>
        </g>
        <g transform="matrix(25,0,0,25,2222.59,1590.43)">
            <path d="M0.875,-0L0.625,-0L0.625,-0.375L0.375,-0.375L0.375,-0L0.125,-0L0.125,-0.75L0.375,-0.75L0.375,-0.5L0.75,-0.5L0.75,-0.375L0.875,-0.375L0.875,-0Z" style="fill-rule:nonzero;"/>
        </g>
        <g transform="matrix(25,0,0,25,2247.59,1590.43)">
            <path d="M0.875,-0L0.5,-0L0.5,-0.125L0.375,-0.125L0.375,-0.5L0.125,-0.5L0.125,-0.625L0.375,-0.625L0.375,-0.75L0.625,-0.75L0.625,-0.625L0.875,-0.625L0.875,-0.5L0.625,-0.5L0.625,-0.125L0.875,-0.125L0.875,-0Z" style="fill-rule:nonzero;"/>
        </g>
        <g transform="matrix(25,0,0,25,2272.59,1590.43)">
            <path d="M0.875,-0L0.5,-0L0.5,-0.125L0.375,-0.125L0.375,-0.5L0.125,-0.5L0.125,-0.625L0.375,-0.625L0.375,-0.75L0.625,-0.75L0.625,-0.625L0.875,-0.625L0.875,-0.5L0.625,-0.5L0.625,-0.125L0.875,-0.125L0.875,-0Z" style="fill-rule:nonzero;"/>
        </g>
        <g transform="matrix(25,0,0,25,2297.59,1590.43)">
            <path d="M0.875,-0.25L0.75,-0.25L0.75,-0.125L0.375,-0.125L0.375,0.125L0.125,0.125L0.125,-0.625L0.75,-0.625L0.75,-0.5L0.875,-0.5L0.875,-0.25ZM0.625,-0.25L0.625,-0.5L0.375,-0.5L0.375,-0.25L0.625,-0.25Z" style="fill-rule:nonzero;"/>
        </g>
        <g transform="matrix(25,0,0,25,2322.59,1590.43)">
            <path d="M0.875,-0.125L0.75,-0.125L0.75,-0L0.125,-0L0.125,-0.125L0.625,-0.125L0.625,-0.25L0.25,-0.25L0.25,-0.375L0.125,-0.375L0.125,-0.5L0.25,-0.5L0.25,-0.625L0.875,-0.625L0.875,-0.5L0.375,-0.5L0.375,-0.375L0.75,-0.375L0.75,-0.25L0.875,-0.25L0.875,-0.125Z" style="fill-rule:nonzero;"/>
        </g>
        <g transform="matrix(25,0,0,25,2347.59,1590.43)">
            <path d="M0.625,-0.375L0.375,-0.375L0.375,-0.625L0.625,-0.625L0.625,-0.375ZM0.625,-0L0.375,-0L0.375,-0.25L0.625,-0.25L0.625,-0Z" style="fill-rule:nonzero;"/>
        </g>
        <g transform="matrix(25,0,0,25,2372.59,1590.43)">
            <path d="M0.875,-0.625L0.75,-0.625L0.75,-0.5L0.625,-0.5L0.625,-0.375L0.5,-0.375L0.5,-0.25L0.375,-0.25L0.375,-0.125L0.25,-0.125L0.25,-0L0.125,-0L0.125,-0.25L0.25,-0.25L0.25,-0.375L0.375,-0.375L0.375,-0.5L0.5,-0.5L0.5,-0.625L0.625,-0.625L0.625,-0.75L0.875,-0.75L0.875,-0.625Z" style="fill-rule:nonzero;"/>
        </g>
        <g transform="matrix(25,0,0,25,2397.59,1590.43)">
            <path d="M0.875,-0.625L0.75,-0.625L0.75,-0.5L0.625,-0.5L0.625,-0.375L0.5,-0.375L0.5,-0.25L0.375,-0.25L0.375,-0.125L0.25,-0.125L0.25,-0L0.125,-0L0.125,-0.25L0.25,-0.25L0.25,-0.375L0.375,-0.375L0.375,-0.5L0.5,-0.5L0.5,-0.625L0.625,-0.625L0.625,-0.75L0.875,-0.75L0.875,-0.625Z" style="fill-rule:nonzero;"/>
        </g>
        <g transform="matrix(25,0,0,25,2422.59,1590.43)">
            <path d="M0.875,-0L0.25,-0L0.25,-0.125L0.125,-0.125L0.125,-0.25L0.25,-0.25L0.25,-0.375L0.625,-0.375L0.625,-0.5L0.25,-0.5L0.25,-0.625L0.75,-0.625L0.75,-0.5L0.875,-0.5L0.875,-0ZM0.625,-0.125L0.625,-0.25L0.375,-0.25L0.375,-0.125L0.625,-0.125Z" style="fill-rule:nonzero;"/>
        </g>
        <g transform="matrix(25,0,0,25,2447.59,1590.43)">
            <path d="M0.875,-0L0.5,-0L0.5,-0.125L0.375,-0.125L0.375,-0.5L0.125,-0.5L0.125,-0.625L0.375,-0.625L0.375,-0.75L0.625,-0.75L0.625,-0.625L0.875,-0.625L0.875,-0.5L0.625,-0.5L0.625,-0.125L0.875,-0.125L0.875,-0Z" style="fill-rule:nonzero;"/>
        </g>
        <g transform="matrix(25,0,0,25,2472.59,1590.43)">
            <path d="M0.875,-0L0.25,-0L0.25,-0.125L0.125,-0.125L0.125,-0.25L0.25,-0.25L0.25,-0.375L0.625,-0.375L0.625,-0.5L0.25,-0.5L0.25,-0.625L0.75,-0.625L0.75,-0.5L0.875,-0.5L0.875,-0ZM0.625,-0.125L0.625,-0.25L0.375,-0.25L0.375,-0.125L0.625,-0.125Z" style="fill-rule:nonzero;"/>
        </g>
        <g transform="matrix(25,0,0,25,2497.59,1590.43)">
            <path d="M0.875,-0.375L0.625,-0.375L0.625,-0.5L0.375,-0.5L0.375,-0L0.125,-0L0.125,-0.625L0.75,-0.625L0.75,-0.5L0.875,-0.5L0.875,-0.375Z" style="fill-rule:nonzero;"/>
        </g>
        <g transform="matrix(25,0,0,25,2522.59,1590.43)">
            <path d="M0.625,-0.625L0.375,-0.625L0.375,-0.75L0.625,-0.75L0.625,-0.625ZM0.75,-0L0.25,-0L0.25,-0.125L0.375,-0.125L0.375,-0.375L0.25,-0.375L0.25,-0.5L0.625,-0.5L0.625,-0.125L0.75,-0.125L0.75,-0Z" style="fill-rule:nonzero;"/>
        </g>
        <g transform="matrix(25,0,0,25,2547.59,1590.43)">
            <path d="M0.875,-0L0.25,-0L0.25,-0.125L0.125,-0.125L0.125,-0.25L0.25,-0.25L0.25,-0.375L0.625,-0.375L0.625,-0.5L0.25,-0.5L0.25,-0.625L0.75,-0.625L0.75,-0.5L0.875,-0.5L0.875,-0ZM0.625,-0.125L0.625,-0.25L0.375,-0.25L0.375,-0.125L0.625,-0.125Z" style="fill-rule:nonzero;"/>
        </g>
        <g transform="matrix(25,0,0,25,2572.59,1590.43)">
            <path d="M0.875,-0L0.75,-0L0.75,0.125L0.125,0.125L0.125,-0L0.625,-0L0.625,-0.125L0.25,-0.125L0.25,-0.25L0.125,-0.25L0.125,-0.5L0.25,-0.5L0.25,-0.625L0.875,-0.625L0.875,-0ZM0.625,-0.25L0.625,-0.5L0.375,-0.5L0.375,-0.25L0.625,-0.25Z" style="fill-rule:nonzero;"/>
        </g>
        <g transform="matrix(25,0,0,25,2597.59,1590.43)">
            <path d="M0.875,-0.25L0.375,-0.25L0.375,-0.125L0.75,-0.125L0.75,-0L0.25,-0L0.25,-0.125L0.125,-0.125L0.125,-0.5L0.25,-0.5L0.25,-0.625L0.75,-0.625L0.75,-0.5L0.875,-0.5L0.875,-0.25ZM0.625,-0.375L0.625,-0.5L0.375,-0.5L0.375,-0.375L0.625,-0.375Z" style="fill-rule:nonzero;"/>
        </g>
        <g transform="matrix(25,0,0,25,2622.59,1590.43)">
            <rect x="0.375" y="-0.25" width="0.25" height="0.25" style="fill-rule:nonzero;"/>
        </g>
        <g transform="matrix(25,0,0,25,2647.59,1590.43)">
            <path d="M0.75,-0L0.25,-0L0.25,-0.125L0.125,-0.125L0.125,-0.5L0.25,-0.5L0.25,-0.625L0.75,-0.625L0.75,-0.5L0.375,-0.5L0.375,-0.125L0.75,-0.125L0.75,-0Z" style="fill-rule:nonzero;"/>
        </g>
        <g transform="matrix(25,0,0,25,2672.59,1590.43)">
            <path d="M0.875,-0.125L0.75,-0.125L0.75,-0L0.25,-0L0.25,-0.125L0.125,-0.125L0.125,-0.5L0.25,-0.5L0.25,-0.625L0.75,-0.625L0.75,-0.5L0.875,-0.5L0.875,-0.125ZM0.625,-0.125L0.625,-0.5L0.375,-0.5L0.375,-0.125L0.625,-0.125Z" style="fill-rule:nonzero;"/>
        </g>
        <g transform="matrix(25,0,0,25,2697.59,1590.43)">
            <path d="M1,-0L0.75,-0L0.75,-0.25L0.625,-0.25L0.625,-0.125L0.5,-0.125L0.5,-0.25L0.375,-0.25L0.375,-0L0.125,-0L0.125,-0.625L0.375,-0.625L0.375,-0.5L0.625,-0.5L0.625,-0.625L0.875,-0.625L0.875,-0.5L1,-0.5L1,-0Z" style="fill-rule:nonzero;"/>
        </g>
        <g transform="matrix(25,0,0,25,2722.59,1590.43)">
            <path d="M0.875,-0.625L0.75,-0.625L0.75,-0.5L0.625,-0.5L0.625,-0.375L0.5,-0.375L0.5,-0.25L0.375,-0.25L0.375,-0.125L0.25,-0.125L0.25,-0L0.125,-0L0.125,-0.25L0.25,-0.25L0.25,-0.375L0.375,-0.375L0.375,-0.5L0.5,-0.5L0.5,-0.625L0.625,-0.625L0.625,-0.75L0.875,-0.75L0.875,-0.625Z" style="fill-rule:nonzero;"/>
        </g>
        <g transform="matrix(25,0,0,25,2747.59,1590.43)">
            <path d="M0.875,-0.375L0.625,-0.375L0.625,-0L0.375,-0L0.375,-0.375L0.25,-0.375L0.25,-0.5L0.375,-0.5L0.375,-0.625L0.5,-0.625L0.5,-0.75L0.875,-0.75L0.875,-0.625L0.625,-0.625L0.625,-0.5L0.875,-0.5L0.875,-0.375Z" style="fill-rule:nonzero;"/>
        </g>
        <g transform="matrix(25,0,0,25,2772.59,1590.43)">
            <path d="M0.875,-0.125L0.75,-0.125L0.75,-0L0.25,-0L0.25,-0.125L0.125,-0.125L0.125,-0.5L0.25,-0.5L0.25,-0.625L0.75,-0.625L0.75,-0.5L0.875,-0.5L0.875,-0.125ZM0.625,-0.125L0.625,-0.5L0.375,-0.5L0.375,-0.125L0.625,-0.125Z" style="fill-rule:nonzero;"/>
        </g>
        <g transform="matrix(25,0,0,25,2797.59,1590.43)">
            <path d="M0.875,-0.375L0.625,-0.375L0.625,-0.5L0.375,-0.5L0.375,-0L0.125,-0L0.125,-0.625L0.75,-0.625L0.75,-0.5L0.875,-0.5L0.875,-0.375Z" style="fill-rule:nonzero;"/>
        </g>
        <g transform="matrix(25,0,0,25,2822.59,1590.43)">
            <path d="M0.875,-0L0.25,-0L0.25,-0.125L0.125,-0.125L0.125,-0.625L0.375,-0.625L0.375,-0.125L0.625,-0.125L0.625,-0.625L0.875,-0.625L0.875,-0Z" style="fill-rule:nonzero;"/>
        </g>
        <g transform="matrix(25,0,0,25,2847.59,1590.43)">
            <path d="M1,-0L0.75,-0L0.75,-0.25L0.625,-0.25L0.625,-0.125L0.5,-0.125L0.5,-0.25L0.375,-0.25L0.375,-0L0.125,-0L0.125,-0.625L0.375,-0.625L0.375,-0.5L0.625,-0.5L0.625,-0.625L0.875,-0.625L0.875,-0.5L1,-0.5L1,-0Z" style="fill-rule:nonzero;"/>
        </g>
        <g transform="matrix(25,0,0,25,2872.59,1590.43)">
            <path d="M0.875,-0.125L0.75,-0.125L0.75,-0L0.125,-0L0.125,-0.125L0.625,-0.125L0.625,-0.25L0.25,-0.25L0.25,-0.375L0.125,-0.375L0.125,-0.5L0.25,-0.5L0.25,-0.625L0.875,-0.625L0.875,-0.5L0.375,-0.5L0.375,-0.375L0.75,-0.375L0.75,-0.25L0.875,-0.25L0.875,-0.125Z" style="fill-rule:nonzero;"/>
        </g>
        <g transform="matrix(25,0,0,25,2897.59,1590.43)">
            <path d="M0.875,-0.625L0.75,-0.625L0.75,-0.5L0.625,-0.5L0.625,-0.375L0.5,-0.375L0.5,-0.25L0.375,-0.25L0.375,-0.125L0.25,-0.125L0.25,-0L0.125,-0L0.125,-0.25L0.25,-0.25L0.25,-0.375L0.375,-0.375L0.375,-0.5L0.5,-0.5L0.5,-0.625L0.625,-0.625L0.625,-0.75L0.875,-0.75L0.875,-0.625Z" style="fill-rule:nonzero;"/>
        </g>
        <g transform="matrix(25,0,0,25,2922.59,1590.43)">
            <path d="M0.875,-0.25L0.75,-0.25L0.75,-0.125L0.375,-0.125L0.375,0.125L0.125,0.125L0.125,-0.625L0.75,-0.625L0.75,-0.5L0.875,-0.5L0.875,-0.25ZM0.625,-0.25L0.625,-0.5L0.375,-0.5L0.375,-0.25L0.625,-0.25Z" style="fill-rule:nonzero;"/>
        </g>
        <g transform="matrix(25,0,0,25,2947.59,1590.43)">
            <path d="M0.875,-0.375L0.625,-0.375L0.625,-0.5L0.375,-0.5L0.375,-0L0.125,-0L0.125,-0.625L0.75,-0.625L0.75,-0.5L0.875,-0.5L0.875,-0.375Z" style="fill-rule:nonzero;"/>
        </g>
        <g transform="matrix(25,0,0,25,2972.59,1590.43)">
            <path d="M0.875,-0.125L0.75,-0.125L0.75,-0L0.25,-0L0.25,-0.125L0.125,-0.125L0.125,-0.5L0.25,-0.5L0.25,-0.625L0.75,-0.625L0.75,-0.5L0.875,-0.5L0.875,-0.125ZM0.625,-0.125L0.625,-0.5L0.375,-0.5L0.375,-0.125L0.625,-0.125Z" style="fill-rule:nonzero;"/>
        </g>
        <g transform="matrix(25,0,0,25,2997.59,1590.43)">
            <path d="M0.875,-0.375L0.625,-0.375L0.625,-0L0.375,-0L0.375,-0.375L0.25,-0.375L0.25,-0.5L0.375,-0.5L0.375,-0.625L0.5,-0.625L0.5,-0.75L0.875,-0.75L0.875,-0.625L0.625,-0.625L0.625,-0.5L0.875,-0.5L0.875,-0.375Z" style="fill-rule:nonzero;"/>
        </g>
        <g transform="matrix(25,0,0,25,3022.59,1590.43)">
            <path d="M0.625,-0.625L0.375,-0.625L0.375,-0.75L0.625,-0.75L0.625,-0.625ZM0.75,-0L0.25,-0L0.25,-0.125L0.375,-0.125L0.375,-0.375L0.25,-0.375L0.25,-0.5L0.625,-0.5L0.625,-0.125L0.75,-0.125L0.75,-0Z" style="fill-rule:nonzero;"/>
        </g>
        <g transform="matrix(25,0,0,25,3047.59,1590.43)">
            <path d="M0.75,-0L0.25,-0L0.25,-0.125L0.375,-0.125L0.375,-0.625L0.25,-0.625L0.25,-0.75L0.625,-0.75L0.625,-0.125L0.75,-0.125L0.75,-0Z" style="fill-rule:nonzero;"/>
        </g>
        <g transform="matrix(25,0,0,25,3072.59,1590.43)">
            <path d="M0.875,-0.25L0.375,-0.25L0.375,-0.125L0.75,-0.125L0.75,-0L0.25,-0L0.25,-0.125L0.125,-0.125L0.125,-0.5L0.25,-0.5L0.25,-0.625L0.75,-0.625L0.75,-0.5L0.875,-0.5L0.875,-0.25ZM0.625,-0.375L0.625,-0.5L0.375,-0.5L0.375,-0.375L0.625,-0.375Z" style="fill-rule:nonzero;"/>
        </g>
        <g transform="matrix(25,0,0,25,3097.59,1590.43)">
            <path d="M0.875,-0.625L0.75,-0.625L0.75,-0.5L0.625,-0.5L0.625,-0.375L0.5,-0.375L0.5,-0.25L0.375,-0.25L0.375,-0.125L0.25,-0.125L0.25,-0L0.125,-0L0.125,-0.25L0.25,-0.25L0.25,-0.375L0.375,-0.375L0.375,-0.5L0.5,-0.5L0.5,-0.625L0.625,-0.625L0.625,-0.75L0.875,-0.75L0.875,-0.625Z" style="fill-rule:nonzero;"/>
        </g>
        <g transform="matrix(25,0,0,25,3122.59,1590.43)">
            <path d="M0.875,-0.5L0.75,-0.5L0.75,-0.375L0.625,-0.375L0.625,-0.25L0.5,-0.25L0.5,-0L0.25,-0L0.25,-0.25L0.375,-0.25L0.375,-0.375L0.5,-0.375L0.5,-0.5L0.625,-0.5L0.625,-0.625L0.125,-0.625L0.125,-0.75L0.875,-0.75L0.875,-0.5Z" style="fill-rule:nonzero;"/>
        </g>
        <g transform="matrix(25,0,0,25,3147.59,1590.43)">
            <path d="M0.875,-0.125L0.75,-0.125L0.75,-0L0.25,-0L0.25,-0.125L0.125,-0.125L0.125,-0.625L0.25,-0.625L0.25,-0.75L0.75,-0.75L0.75,-0.625L0.375,-0.625L0.375,-0.5L0.75,-0.5L0.75,-0.375L0.875,-0.375L0.875,-0.125ZM0.625,-0.125L0.625,-0.375L0.375,-0.375L0.375,-0.125L0.625,-0.125Z" style="fill-rule:nonzero;"/>
        </g>
        <g transform="matrix(25,0,0,25,3172.59,1590.43)">
            <path d="M0.875,-0.125L0.75,-0.125L0.75,-0L0.25,-0L0.25,-0.125L0.125,-0.125L0.125,-0.375L0.25,-0.375L0.25,-0.5L0.125,-0.5L0.125,-0.625L0.25,-0.625L0.25,-0.75L0.75,-0.75L0.75,-0.625L0.875,-0.625L0.875,-0.5L0.75,-0.5L0.75,-0.375L0.875,-0.375L0.875,-0.125ZM0.625,-0.5L0.625,-0.625L0.375,-0.625L0.375,-0.5L0.625,-0.5ZM0.625,-0.125L0.625,-0.375L0.375,-0.375L0.375,-0.125L0.625,-0.125Z" style="fill-rule:nonzero;"/>
        </g>
        <g transform="matrix(25,0,0,25,3197.59,1590.43)">
            <path d="M0.875,-0.125L0.75,-0.125L0.75,-0L0.25,-0L0.25,-0.125L0.125,-0.125L0.125,-0.25L0.375,-0.25L0.375,-0.125L0.625,-0.125L0.625,-0.375L0.125,-0.375L0.125,-0.75L0.875,-0.75L0.875,-0.625L0.375,-0.625L0.375,-0.5L0.75,-0.5L0.75,-0.375L0.875,-0.375L0.875,-0.125Z" style="fill-rule:nonzero;"/>
        </g>
        <g transform="matrix(25,0,0,25,3222.59,1590.43)">
            <path d="M0.875,-0.125L0.75,-0.125L0.75,-0L0.25,-0L0.25,-0.125L0.125,-0.125L0.125,-0.625L0.25,-0.625L0.25,-0.75L0.75,-0.75L0.75,-0.625L0.875,-0.625L0.875,-0.125ZM0.625,-0.125L0.625,-0.375L0.5,-0.375L0.5,-0.5L0.625,-0.5L0.625,-0.625L0.375,-0.625L0.375,-0.375L0.5,-0.375L0.5,-0.25L0.375,-0.25L0.375,-0.125L0.625,-0.125Z" style="fill-rule:nonzero;"/>
        </g>
        <g transform="matrix(25,0,0,25,3247.59,1590.43)">
            <rect x="0.129" y="-0.306" width="0.292" height="0.08" style="fill-rule:nonzero;"/>
        </g>
        <g transform="matrix(25,0,0,25,3261.33,1590.43)">
            <path d="M0.875,-0.125L0.75,-0.125L0.75,-0L0.125,-0L0.125,-0.125L0.625,-0.125L0.625,-0.25L0.25,-0.25L0.25,-0.375L0.125,-0.375L0.125,-0.5L0.25,-0.5L0.25,-0.625L0.875,-0.625L0.875,-0.5L0.375,-0.5L0.375,-0.375L0.75,-0.375L0.75,-0.25L0.875,-0.25L0.875,-0.125Z" style="fill-rule:nonzero;"/>
        </g>
        <g transform="matrix(25,0,0,25,3286.33,1590.43)">
            <path d="M0.75,-0L0.25,-0L0.25,-0.125L0.125,-0.125L0.125,-0.5L0.25,-0.5L0.25,-0.625L0.75,-0.625L0.75,-0.5L0.375,-0.5L0.375,-0.125L0.75,-0.125L0.75,-0Z" style="fill-rule:nonzero;"/>
        </g>
        <g transform="matrix(25,0,0,25,3311.33,1590.43)">
            <path d="M0.875,-0.375L0.625,-0.375L0.625,-0.5L0.375,-0.5L0.375,-0L0.125,-0L0.125,-0.625L0.75,-0.625L0.75,-0.5L0.875,-0.5L0.875,-0.375Z" style="fill-rule:nonzero;"/>
        </g>
        <g transform="matrix(25,0,0,25,3336.33,1590.43)">
            <path d="M0.875,-0.25L0.375,-0.25L0.375,-0.125L0.75,-0.125L0.75,-0L0.25,-0L0.25,-0.125L0.125,-0.125L0.125,-0.5L0.25,-0.5L0.25,-0.625L0.75,-0.625L0.75,-0.5L0.875,-0.5L0.875,-0.25ZM0.625,-0.375L0.625,-0.5L0.375,-0.5L0.375,-0.375L0.625,-0.375Z" style="fill-rule:nonzero;"/>
        </g>
        <g transform="matrix(25,0,0,25,3361.33,1590.43)">
            <path d="M0.875,-0L0.25,-0L0.25,-0.125L0.125,-0.125L0.125,-0.25L0.25,-0.25L0.25,-0.375L0.625,-0.375L0.625,-0.5L0.25,-0.5L0.25,-0.625L0.75,-0.625L0.75,-0.5L0.875,-0.5L0.875,-0ZM0.625,-0.125L0.625,-0.25L0.375,-0.25L0.375,-0.125L0.625,-0.125Z" style="fill-rule:nonzero;"/>
        </g>
        <g transform="matrix(25,0,0,25,3386.33,1590.43)">
            <path d="M1,-0L0.75,-0L0.75,-0.25L0.625,-0.25L0.625,-0.125L0.5,-0.125L0.5,-0.25L0.375,-0.25L0.375,-0L0.125,-0L0.125,-0.625L0.375,-0.625L0.375,-0.5L0.625,-0.5L0.625,-0.625L0.875,-0.625L0.875,-0.5L1,-0.5L1,-0Z" style="fill-rule:nonzero;"/>
        </g>
        <g transform="matrix(25,0,0,25,3411.33,1590.43)">
            <path d="M0.625,-0.625L0.375,-0.625L0.375,-0.75L0.625,-0.75L0.625,-0.625ZM0.75,-0L0.25,-0L0.25,-0.125L0.375,-0.125L0.375,-0.375L0.25,-0.375L0.25,-0.5L0.625,-0.5L0.625,-0.125L0.75,-0.125L0.75,-0Z" style="fill-rule:nonzero;"/>
        </g>
        <g transform="matrix(25,0,0,25,3436.33,1590.43)">
            <path d="M0.875,-0L0.625,-0L0.625,-0.5L0.375,-0.5L0.375,-0L0.125,-0L0.125,-0.625L0.75,-0.625L0.75,-0.5L0.875,-0.5L0.875,-0Z" style="fill-rule:nonzero;"/>
        </g>
        <g transform="matrix(25,0,0,25,3461.33,1590.43)">
            <path d="M0.875,-0L0.75,-0L0.75,0.125L0.125,0.125L0.125,-0L0.625,-0L0.625,-0.125L0.25,-0.125L0.25,-0.25L0.125,-0.25L0.125,-0.5L0.25,-0.5L0.25,-0.625L0.875,-0.625L0.875,-0ZM0.625,-0.25L0.625,-0.5L0.375,-0.5L0.375,-0.25L0.625,-0.25Z" style="fill-rule:nonzero;"/>
        </g>
        <g transform="matrix(25,0,0,25,3486.33,1590.43)">
            <path d="M0.875,-0L0.25,-0L0.25,-0.125L0.125,-0.125L0.125,-0.25L0.25,-0.25L0.25,-0.375L0.625,-0.375L0.625,-0.5L0.25,-0.5L0.25,-0.625L0.75,-0.625L0.75,-0.5L0.875,-0.5L0.875,-0ZM0.625,-0.125L0.625,-0.25L0.375,-0.25L0.375,-0.125L0.625,-0.125Z" style="fill-rule:nonzero;"/>
        </g>
        <g transform="matrix(25,0,0,25,3511.33,1590.43)">
            <path d="M0.875,-0L0.5,-0L0.5,-0.125L0.375,-0.125L0.375,-0.5L0.125,-0.5L0.125,-0.625L0.375,-0.625L0.375,-0.75L0.625,-0.75L0.625,-0.625L0.875,-0.625L0.875,-0.5L0.625,-0.5L0.625,-0.125L0.875,-0.125L0.875,-0Z" style="fill-rule:nonzero;"/>
        </g>
        <g transform="matrix(25,0,0,25,3536.33,1590.43)">
            <path d="M0.875,-0L0.5,-0L0.5,-0.125L0.375,-0.125L0.375,-0.5L0.125,-0.5L0.125,-0.625L0.375,-0.625L0.375,-0.75L0.625,-0.75L0.625,-0.625L0.875,-0.625L0.875,-0.5L0.625,-0.5L0.625,-0.125L0.875,-0.125L0.875,-0Z" style="fill-rule:nonzero;"/>
        </g>
        <g transform="matrix(25,0,0,25,3561.33,1590.43)">
            <path d="M0.875,-0L0.625,-0L0.625,-0.375L0.375,-0.375L0.375,-0L0.125,-0L0.125,-0.75L0.375,-0.75L0.375,-0.5L0.75,-0.5L0.75,-0.375L0.875,-0.375L0.875,-0Z" style="fill-rule:nonzero;"/>
        </g>
        <g transform="matrix(25,0,0,25,3586.33,1590.43)">
            <path d="M0.875,-0.25L0.375,-0.25L0.375,-0.125L0.75,-0.125L0.75,-0L0.25,-0L0.25,-0.125L0.125,-0.125L0.125,-0.5L0.25,-0.5L0.25,-0.625L0.75,-0.625L0.75,-0.5L0.875,-0.5L0.875,-0.25ZM0.625,-0.375L0.625,-0.5L0.375,-0.5L0.375,-0.375L0.625,-0.375Z" style="fill-rule:nonzero;"/>
        </g>
        <g transform="matrix(25,0,0,25,3611.33,1590.43)">
            <path d="M0.875,-0.375L0.625,-0.375L0.625,-0.5L0.375,-0.5L0.375,-0L0.125,-0L0.125,-0.625L0.75,-0.625L0.75,-0.5L0.875,-0.5L0.875,-0.375Z" style="fill-rule:nonzero;"/>
        </g>
        <g transform="matrix(25,0,0,25,3636.33,1590.43)">
            <path d="M0.875,-0L0.25,-0L0.25,-0.125L0.125,-0.125L0.125,-0.25L0.25,-0.25L0.25,-0.375L0.625,-0.375L0.625,-0.5L0.25,-0.5L0.25,-0.625L0.75,-0.625L0.75,-0.5L0.875,-0.5L0.875,-0ZM0.625,-0.125L0.625,-0.25L0.375,-0.25L0.375,-0.125L0.625,-0.125Z" style="fill-rule:nonzero;"/>
        </g>
        <g transform="matrix(25,0,0,25,3661.33,1590.43)">
            <path d="M0.875,-0L0.25,-0L0.25,-0.125L0.125,-0.125L0.125,-0.375L0.25,-0.375L0.25,-0.5L0.625,-0.5L0.625,-0.75L0.875,-0.75L0.875,-0ZM0.625,-0.125L0.625,-0.375L0.375,-0.375L0.375,-0.125L0.625,-0.125Z" style="fill-rule:nonzero;"/>
        </g>
        <g transform="matrix(25,0,0,25,3686.33,1590.43)">
            <path d="M0.625,-0.625L0.375,-0.625L0.375,-0.75L0.625,-0.75L0.625,-0.625ZM0.75,-0L0.25,-0L0.25,-0.125L0.375,-0.125L0.375,-0.375L0.25,-0.375L0.25,-0.5L0.625,-0.5L0.625,-0.125L0.75,-0.125L0.75,-0Z" style="fill-rule:nonzero;"/>
        </g>
        <g transform="matrix(25,0,0,25,3711.33,1590.43)">
            <path d="M0.875,-0.125L0.75,-0.125L0.75,-0L0.25,-0L0.25,-0.125L0.125,-0.125L0.125,-0.5L0.25,-0.5L0.25,-0.625L0.75,-0.625L0.75,-0.5L0.875,-0.5L0.875,-0.125ZM0.625,-0.125L0.625,-0.5L0.375,-0.5L0.375,-0.125L0.625,-0.125Z" style="fill-rule:nonzero;"/>
        </g>
        <g transform="matrix(25,0,0,25,3736.33,1590.43)">
            <path d="M0.875,-0.625L0.75,-0.625L0.75,-0.5L0.625,-0.5L0.625,-0.375L0.5,-0.375L0.5,-0.25L0.375,-0.25L0.375,-0.125L0.25,-0.125L0.25,-0L0.125,-0L0.125,-0.25L0.25,-0.25L0.25,-0.375L0.375,-0.375L0.375,-0.5L0.5,-0.5L0.5,-0.625L0.625,-0.625L0.625,-0.75L0.875,-0.75L0.875,-0.625Z" style="fill-rule:nonzero;"/>
        </g>
        <g transform="matrix(25,0,0,25,2222.59,1615.43)">
            <path d="M0.875,-0L0.625,-0L0.625,-0.375L0.375,-0.375L0.375,-0L0.125,-0L0.125,-0.75L0.375,-0.75L0.375,-0.5L0.75,-0.5L0.75,-0.375L0.875,-0.375L0.875,-0Z" style="fill-rule:nonzero;"/>
        </g>
        <g transform="matrix(25,0,0,25,2247.59,1615.43)">
            <path d="M0.875,-0L0.5,-0L0.5,-0.125L0.375,-0.125L0.375,-0.5L0.125,-0.5L0.125,-0.625L0.375,-0.625L0.375,-0.75L0.625,-0.75L0.625,-0.625L0.875,-0.625L0.875,-0.5L0.625,-0.5L0.625,-0.125L0.875,-0.125L0.875,-0Z" style="fill-rule:nonzero;"/>
        </g>
        <g transform="matrix(25,0,0,25,2272.59,1615.43)">
            <path d="M0.875,-0L0.5,-0L0.5,-0.125L0.375,-0.125L0.375,-0.5L0.125,-0.5L0.125,-0.625L0.375,-0.625L0.375,-0.75L0.625,-0.75L0.625,-0.625L0.875,-0.625L0.875,-0.5L0.625,-0.5L0.625,-0.125L0.875,-0.125L0.875,-0Z" style="fill-rule:nonzero;"/>
        </g>
        <g transform="matrix(25,0,0,25,2297.59,1615.43)">
            <path d="M0.875,-0.25L0.75,-0.25L0.75,-0.125L0.375,-0.125L0.375,0.125L0.125,0.125L0.125,-0.625L0.75,-0.625L0.75,-0.5L0.875,-0.5L0.875,-0.25ZM0.625,-0.25L0.625,-0.5L0.375,-0.5L0.375,-0.25L0.625,-0.25Z" style="fill-rule:nonzero;"/>
        </g>
        <g transform="matrix(25,0,0,25,2322.59,1615.43)">
            <path d="M0.875,-0.125L0.75,-0.125L0.75,-0L0.125,-0L0.125,-0.125L0.625,-0.125L0.625,-0.25L0.25,-0.25L0.25,-0.375L0.125,-0.375L0.125,-0.5L0.25,-0.5L0.25,-0.625L0.875,-0.625L0.875,-0.5L0.375,-0.5L0.375,-0.375L0.75,-0.375L0.75,-0.25L0.875,-0.25L0.875,-0.125Z" style="fill-rule:nonzero;"/>
        </g>
        <g transform="matrix(25,0,0,25,2347.59,1615.43)">
            <path d="M0.625,-0.375L0.375,-0.375L0.375,-0.625L0.625,-0.625L0.625,-0.375ZM0.625,-0L0.375,-0L0.375,-0.25L0.625,-0.25L0.625,-0Z" style="fill-rule:nonzero;"/>
        </g>
        <g transform="matrix(25,0,0,25,2372.59,1615.43)">
            <path d="M0.875,-0.625L0.75,-0.625L0.75,-0.5L0.625,-0.5L0.625,-0.375L0.5,-0.375L0.5,-0.25L0.375,-0.25L0.375,-0.125L0.25,-0.125L0.25,-0L0.125,-0L0.125,-0.25L0.25,-0.25L0.25,-0.375L0.375,-0.375L0.375,-0.5L0.5,-0.5L0.5,-0.625L0.625,-0.625L0.625,-0.75L0.875,-0.75L0.875,-0.625Z" style="fill-rule:nonzero;"/>
        </g>
        <g transform="matrix(25,0,0,25,2397.59,1615.43)">
            <path d="M0.875,-0.625L0.75,-0.625L0.75,-0.5L0.625,-0.5L0.625,-0.375L0.5,-0.375L0.5,-0.25L0.375,-0.25L0.375,-0.125L0.25,-0.125L0.25,-0L0.125,-0L0.125,-0.25L0.25,-0.25L0.25,-0.375L0.375,-0.375L0.375,-0.5L0.5,-0.5L0.5,-0.625L0.625,-0.625L0.625,-0.75L0.875,-0.75L0.875,-0.625Z" style="fill-rule:nonzero;"/>
        </g>
        <g transform="matrix(25,0,0,25,2422.59,1615.43)">
            <path d="M1,-0.25L0.875,-0.25L0.875,-0L0.625,-0L0.625,-0.125L0.5,-0.125L0.5,-0L0.25,-0L0.25,-0.25L0.125,-0.25L0.125,-0.625L0.375,-0.625L0.375,-0.375L0.5,-0.375L0.5,-0.5L0.625,-0.5L0.625,-0.375L0.75,-0.375L0.75,-0.625L1,-0.625L1,-0.25Z" style="fill-rule:nonzero;"/>
        </g>
        <g transform="matrix(25,0,0,25,2447.59,1615.43)">
            <path d="M1,-0.25L0.875,-0.25L0.875,-0L0.625,-0L0.625,-0.125L0.5,-0.125L0.5,-0L0.25,-0L0.25,-0.25L0.125,-0.25L0.125,-0.625L0.375,-0.625L0.375,-0.375L0.5,-0.375L0.5,-0.5L0.625,-0.5L0.625,-0.375L0.75,-0.375L0.75,-0.625L1,-0.625L1,-0.25Z" style="fill-rule:nonzero;"/>
        </g>
        <g transform="matrix(25,0,0,25,2472.59,1615.43)">
            <path d="M1,-0.25L0.875,-0.25L0.875,-0L0.625,-0L0.625,-0.125L0.5,-0.125L0.5,-0L0.25,-0L0.25,-0.25L0.125,-0.25L0.125,-0.625L0.375,-0.625L0.375,-0.375L0.5,-0.375L0.5,-0.5L0.625,-0.5L0.625,-0.375L0.75,-0.375L0.75,-0.625L1,-0.625L1,-0.25Z" style="fill-rule:nonzero;"/>
        </g>
        <g transform="matrix(25,0,0,25,2497.59,1615.43)">
            <rect x="0.375" y="-0.25" width="0.25" height="0.25" style="fill-rule:nonzero;"/>
        </g>
        <g transform="matrix(25,0,0,25,2522.59,1615.43)">
            <path d="M0.875,-0L0.5,-0L0.5,-0.125L0.375,-0.125L0.375,-0.5L0.125,-0.5L0.125,-0.625L0.375,-0.625L0.375,-0.75L0.625,-0.75L0.625,-0.625L0.875,-0.625L0.875,-0.5L0.625,-0.5L0.625,-0.125L0.875,-0.125L0.875,-0Z" style="fill-rule:nonzero;"/>
        </g>
        <g transform="matrix(25,0,0,25,2547.59,1615.43)">
            <path d="M1,-0.25L0.875,-0.25L0.875,-0L0.625,-0L0.625,-0.125L0.5,-0.125L0.5,-0L0.25,-0L0.25,-0.25L0.125,-0.25L0.125,-0.625L0.375,-0.625L0.375,-0.375L0.5,-0.375L0.5,-0.5L0.625,-0.5L0.625,-0.375L0.75,-0.375L0.75,-0.625L1,-0.625L1,-0.25Z" style="fill-rule:nonzero;"/>
        </g>
        <g transform="matrix(25,0,0,25,2572.59,1615.43)">
            <path d="M0.625,-0.625L0.375,-0.625L0.375,-0.75L0.625,-0.75L0.625,-0.625ZM0.75,-0L0.25,-0L0.25,-0.125L0.375,-0.125L0.375,-0.375L0.25,-0.375L0.25,-0.5L0.625,-0.5L0.625,-0.125L0.75,-0.125L0.75,-0Z" style="fill-rule:nonzero;"/>
        </g>
        <g transform="matrix(25,0,0,25,2597.59,1615.43)">
            <path d="M0.875,-0L0.5,-0L0.5,-0.125L0.375,-0.125L0.375,-0.5L0.125,-0.5L0.125,-0.625L0.375,-0.625L0.375,-0.75L0.625,-0.75L0.625,-0.625L0.875,-0.625L0.875,-0.5L0.625,-0.5L0.625,-0.125L0.875,-0.125L0.875,-0Z" style="fill-rule:nonzero;"/>
        </g>
        <g transform="matrix(25,0,0,25,2622.59,1615.43)">
            <path d="M0.75,-0L0.25,-0L0.25,-0.125L0.125,-0.125L0.125,-0.5L0.25,-0.5L0.25,-0.625L0.75,-0.625L0.75,-0.5L0.375,-0.5L0.375,-0.125L0.75,-0.125L0.75,-0Z" style="fill-rule:nonzero;"/>
        </g>
        <g transform="matrix(25,0,0,25,2647.59,1615.43)">
            <path d="M0.875,-0L0.625,-0L0.625,-0.375L0.375,-0.375L0.375,-0L0.125,-0L0.125,-0.75L0.375,-0.75L0.375,-0.5L0.75,-0.5L0.75,-0.375L0.875,-0.375L0.875,-0Z" style="fill-rule:nonzero;"/>
        </g>
        <g transform="matrix(25,0,0,25,2672.59,1615.43)">
            <rect x="0.375" y="-0.25" width="0.25" height="0.25" style="fill-rule:nonzero;"/>
        </g>
        <g transform="matrix(25,0,0,25,2697.59,1615.43)">
            <path d="M0.875,-0L0.5,-0L0.5,-0.125L0.375,-0.125L0.375,-0.5L0.125,-0.5L0.125,-0.625L0.375,-0.625L0.375,-0.75L0.625,-0.75L0.625,-0.625L0.875,-0.625L0.875,-0.5L0.625,-0.5L0.625,-0.125L0.875,-0.125L0.875,-0Z" style="fill-rule:nonzero;"/>
        </g>
        <g transform="matrix(25,0,0,25,2722.59,1615.43)">
            <path d="M0.875,-0.25L0.75,-0.25L0.75,-0.125L0.625,-0.125L0.625,-0L0.375,-0L0.375,-0.125L0.25,-0.125L0.25,-0.25L0.125,-0.25L0.125,-0.625L0.375,-0.625L0.375,-0.25L0.625,-0.25L0.625,-0.625L0.875,-0.625L0.875,-0.25Z" style="fill-rule:nonzero;"/>
        </g>
        <g transform="matrix(25,0,0,25,2747.59,1615.43)">
            <path d="M0.875,-0.625L0.75,-0.625L0.75,-0.5L0.625,-0.5L0.625,-0.375L0.5,-0.375L0.5,-0.25L0.375,-0.25L0.375,-0.125L0.25,-0.125L0.25,-0L0.125,-0L0.125,-0.25L0.25,-0.25L0.25,-0.375L0.375,-0.375L0.375,-0.5L0.5,-0.5L0.5,-0.625L0.625,-0.625L0.625,-0.75L0.875,-0.75L0.875,-0.625Z" style="fill-rule:nonzero;"/>
        </g>
        <g transform="matrix(25,0,0,25,2772.59,1615.43)">
            <path d="M0.875,-0.125L0.75,-0.125L0.75,-0L0.125,-0L0.125,-0.125L0.625,-0.125L0.625,-0.25L0.25,-0.25L0.25,-0.375L0.125,-0.375L0.125,-0.5L0.25,-0.5L0.25,-0.625L0.875,-0.625L0.875,-0.5L0.375,-0.5L0.375,-0.375L0.75,-0.375L0.75,-0.25L0.875,-0.25L0.875,-0.125Z" style="fill-rule:nonzero;"/>
        </g>
        <g transform="matrix(25,0,0,25,2797.59,1615.43)">
            <path d="M0.75,-0L0.25,-0L0.25,-0.125L0.125,-0.125L0.125,-0.5L0.25,-0.5L0.25,-0.625L0.75,-0.625L0.75,-0.5L0.375,-0.5L0.375,-0.125L0.75,-0.125L0.75,-0Z" style="fill-rule:nonzero;"/>
        </g>
        <g transform="matrix(25,0,0,25,2822.59,1615.43)">
            <path d="M0.875,-0.375L0.625,-0.375L0.625,-0.5L0.375,-0.5L0.375,-0L0.125,-0L0.125,-0.625L0.75,-0.625L0.75,-0.5L0.875,-0.5L0.875,-0.375Z" style="fill-rule:nonzero;"/>
        </g>
        <g transform="matrix(25,0,0,25,2847.59,1615.43)">
            <path d="M0.875,-0.25L0.375,-0.25L0.375,-0.125L0.75,-0.125L0.75,-0L0.25,-0L0.25,-0.125L0.125,-0.125L0.125,-0.5L0.25,-0.5L0.25,-0.625L0.75,-0.625L0.75,-0.5L0.875,-0.5L0.875,-0.25ZM0.625,-0.375L0.625,-0.5L0.375,-0.5L0.375,-0.375L0.625,-0.375Z" style="fill-rule:nonzero;"/>
        </g>
        <g transform="matrix(25,0,0,25,2872.59,1615.43)">
            <path d="M0.875,-0L0.25,-0L0.25,-0.125L0.125,-0.125L0.125,-0.25L0.25,-0.25L0.25,-0.375L0.625,-0.375L0.625,-0.5L0.25,-0.5L0.25,-0.625L0.75,-0.625L0.75,-0.5L0.875,-0.5L0.875,-0ZM0.625,-0.125L0.625,-0.25L0.375,-0.25L0.375,-0.125L0.625,-0.125Z" style="fill-rule:nonzero;"/>
        </g>
        <g transform="matrix(25,0,0,25,2897.59,1615.43)">
            <path d="M1,-0L0.75,-0L0.75,-0.25L0.625,-0.25L0.625,-0.125L0.5,-0.125L0.5,-0.25L0.375,-0.25L0.375,-0L0.125,-0L0.125,-0.625L0.375,-0.625L0.375,-0.5L0.625,-0.5L0.625,-0.625L0.875,-0.625L0.875,-0.5L1,-0.5L1,-0Z" style="fill-rule:nonzero;"/>
        </g>
        <g transform="matrix(25,0,0,25,2922.59,1615.43)">
            <path d="M0.625,-0.625L0.375,-0.625L0.375,-0.75L0.625,-0.75L0.625,-0.625ZM0.75,-0L0.25,-0L0.25,-0.125L0.375,-0.125L0.375,-0.375L0.25,-0.375L0.25,-0.5L0.625,-0.5L0.625,-0.125L0.75,-0.125L0.75,-0Z" style="fill-rule:nonzero;"/>
        </g>
        <g transform="matrix(25,0,0,25,2947.59,1615.43)">
            <path d="M0.875,-0L0.625,-0L0.625,-0.5L0.375,-0.5L0.375,-0L0.125,-0L0.125,-0.625L0.75,-0.625L0.75,-0.5L0.875,-0.5L0.875,-0Z" style="fill-rule:nonzero;"/>
        </g>
        <g transform="matrix(25,0,0,25,2972.59,1615.43)">
            <path d="M0.875,-0L0.75,-0L0.75,0.125L0.125,0.125L0.125,-0L0.625,-0L0.625,-0.125L0.25,-0.125L0.25,-0.25L0.125,-0.25L0.125,-0.5L0.25,-0.5L0.25,-0.625L0.875,-0.625L0.875,-0ZM0.625,-0.25L0.625,-0.5L0.375,-0.5L0.375,-0.25L0.625,-0.25Z" style="fill-rule:nonzero;"/>
        </g>
        <g transform="matrix(25,0,0,25,2997.59,1615.43)">
            <path d="M0.875,-0L0.25,-0L0.25,-0.125L0.125,-0.125L0.125,-0.25L0.25,-0.25L0.25,-0.375L0.625,-0.375L0.625,-0.5L0.25,-0.5L0.25,-0.625L0.75,-0.625L0.75,-0.5L0.875,-0.5L0.875,-0ZM0.625,-0.125L0.625,-0.25L0.375,-0.25L0.375,-0.125L0.625,-0.125Z" style="fill-rule:nonzero;"/>
        </g>
        <g transform="matrix(25,0,0,25,3022.59,1615.43)">
            <path d="M0.875,-0L0.5,-0L0.5,-0.125L0.375,-0.125L0.375,-0.5L0.125,-0.5L0.125,-0.625L0.375,-0.625L0.375,-0.75L0.625,-0.75L0.625,-0.625L0.875,-0.625L0.875,-0.5L0.625,-0.5L0.625,-0.125L0.875,-0.125L0.875,-0Z" style="fill-rule:nonzero;"/>
        </g>
        <g transform="matrix(25,0,0,25,3047.59,1615.43)">
            <path d="M0.875,-0L0.5,-0L0.5,-0.125L0.375,-0.125L0.375,-0.5L0.125,-0.5L0.125,-0.625L0.375,-0.625L0.375,-0.75L0.625,-0.75L0.625,-0.625L0.875,-0.625L0.875,-0.5L0.625,-0.5L0.625,-0.125L0.875,-0.125L0.875,-0Z" style="fill-rule:nonzero;"/>
        </g>
        <g transform="matrix(25,0,0,25,3072.59,1615.43)">
            <path d="M0.875,-0L0.625,-0L0.625,-0.375L0.375,-0.375L0.375,-0L0.125,-0L0.125,-0.75L0.375,-0.75L0.375,-0.5L0.75,-0.5L0.75,-0.375L0.875,-0.375L0.875,-0Z" style="fill-rule:nonzero;"/>
        </g>
        <g transform="matrix(25,0,0,25,3097.59,1615.43)">
            <path d="M0.875,-0.25L0.375,-0.25L0.375,-0.125L0.75,-0.125L0.75,-0L0.25,-0L0.25,-0.125L0.125,-0.125L0.125,-0.5L0.25,-0.5L0.25,-0.625L0.75,-0.625L0.75,-0.5L0.875,-0.5L0.875,-0.25ZM0.625,-0.375L0.625,-0.5L0.375,-0.5L0.375,-0.375L0.625,-0.375Z" style="fill-rule:nonzero;"/>
        </g>
        <g transform="matrix(25,0,0,25,3122.59,1615.43)">
            <path d="M0.875,-0.375L0.625,-0.375L0.625,-0.5L0.375,-0.5L0.375,-0L0.125,-0L0.125,-0.625L0.75,-0.625L0.75,-0.5L0.875,-0.5L0.875,-0.375Z" style="fill-rule:nonzero;"/>
        </g>
        <g transform="matrix(25,0,0,25,3147.59,1615.43)">
            <path d="M0.875,-0L0.25,-0L0.25,-0.125L0.125,-0.125L0.125,-0.25L0.25,-0.25L0.25,-0.375L0.625,-0.375L0.625,-0.5L0.25,-0.5L0.25,-0.625L0.75,-0.625L0.75,-0.5L0.875,-0.5L0.875,-0ZM0.625,-0.125L0.625,-0.25L0.375,-0.25L0.375,-0.125L0.625,-0.125Z" style="fill-rule:nonzero;"/>
        </g>
        <g transform="matrix(25,0,0,25,3172.59,1615.43)">
            <path d="M0.875,-0L0.25,-0L0.25,-0.125L0.125,-0.125L0.125,-0.375L0.25,-0.375L0.25,-0.5L0.625,-0.5L0.625,-0.75L0.875,-0.75L0.875,-0ZM0.625,-0.125L0.625,-0.375L0.375,-0.375L0.375,-0.125L0.625,-0.125Z" style="fill-rule:nonzero;"/>
        </g>
        <g transform="matrix(25,0,0,25,3197.59,1615.43)">
            <path d="M0.625,-0.625L0.375,-0.625L0.375,-0.75L0.625,-0.75L0.625,-0.625ZM0.75,-0L0.25,-0L0.25,-0.125L0.375,-0.125L0.375,-0.375L0.25,-0.375L0.25,-0.5L0.625,-0.5L0.625,-0.125L0.75,-0.125L0.75,-0Z" style="fill-rule:nonzero;"/>
        </g>
        <g transform="matrix(25,0,0,25,3222.59,1615.43)">
            <path d="M0.875,-0.125L0.75,-0.125L0.75,-0L0.25,-0L0.25,-0.125L0.125,-0.125L0.125,-0.5L0.25,-0.5L0.25,-0.625L0.75,-0.625L0.75,-0.5L0.875,-0.5L0.875,-0.125ZM0.625,-0.125L0.625,-0.5L0.375,-0.5L0.375,-0.125L0.625,-0.125Z" style="fill-rule:nonzero;"/>
        </g>
        <g transform="matrix(25,0,0,25,2222.59,1640.43)">
            <path d="M0.875,-0L0.625,-0L0.625,-0.375L0.375,-0.375L0.375,-0L0.125,-0L0.125,-0.75L0.375,-0.75L0.375,-0.5L0.75,-0.5L0.75,-0.375L0.875,-0.375L0.875,-0Z" style="fill-rule:nonzero;"/>
        </g>
        <g transform="matrix(25,0,0,25,2247.59,1640.43)">
            <path d="M0.875,-0L0.5,-0L0.5,-0.125L0.375,-0.125L0.375,-0.5L0.125,-0.5L0.125,-0.625L0.375,-0.625L0.375,-0.75L0.625,-0.75L0.625,-0.625L0.875,-0.625L0.875,-0.5L0.625,-0.5L0.625,-0.125L0.875,-0.125L0.875,-0Z" style="fill-rule:nonzero;"/>
        </g>
        <g transform="matrix(25,0,0,25,2272.59,1640.43)">
            <path d="M0.875,-0L0.5,-0L0.5,-0.125L0.375,-0.125L0.375,-0.5L0.125,-0.5L0.125,-0.625L0.375,-0.625L0.375,-0.75L0.625,-0.75L0.625,-0.625L0.875,-0.625L0.875,-0.5L0.625,-0.5L0.625,-0.125L0.875,-0.125L0.875,-0Z" style="fill-rule:nonzero;"/>
        </g>
        <g transform="matrix(25,0,0,25,2297.59,1640.43)">
            <path d="M0.875,-0.25L0.75,-0.25L0.75,-0.125L0.375,-0.125L0.375,0.125L0.125,0.125L0.125,-0.625L0.75,-0.625L0.75,-0.5L0.875,-0.5L0.875,-0.25ZM0.625,-0.25L0.625,-0.5L0.375,-0.5L0.375,-0.25L0.625,-0.25Z" style="fill-rule:nonzero;"/>
        </g>
        <g transform="matrix(25,0,0,25,2322.59,1640.43)">
            <path d="M0.875,-0.125L0.75,-0.125L0.75,-0L0.125,-0L0.125,-0.125L0.625,-0.125L0.625,-0.25L0.25,-0.25L0.25,-0.375L0.125,-0.375L0.125,-0.5L0.25,-0.5L0.25,-0.625L0.875,-0.625L0.875,-0.5L0.375,-0.5L0.375,-0.375L0.75,-0.375L0.75,-0.25L0.875,-0.25L0.875,-0.125Z" style="fill-rule:nonzero;"/>
        </g>
        <g transform="matrix(25,0,0,25,2347.59,1640.43)">
            <path d="M0.625,-0.375L0.375,-0.375L0.375,-0.625L0.625,-0.625L0.625,-0.375ZM0.625,-0L0.375,-0L0.375,-0.25L0.625,-0.25L0.625,-0Z" style="fill-rule:nonzero;"/>
        </g>
        <g transform="matrix(25,0,0,25,2372.59,1640.43)">
            <path d="M0.875,-0.625L0.75,-0.625L0.75,-0.5L0.625,-0.5L0.625,-0.375L0.5,-0.375L0.5,-0.25L0.375,-0.25L0.375,-0.125L0.25,-0.125L0.25,-0L0.125,-0L0.125,-0.25L0.25,-0.25L0.25,-0.375L0.375,-0.375L0.375,-0.5L0.5,-0.5L0.5,-0.625L0.625,-0.625L0.625,-0.75L0.875,-0.75L0.875,-0.625Z" style="fill-rule:nonzero;"/>
        </g>
        <g transform="matrix(25,0,0,25,2397.59,1640.43)">
            <path d="M0.875,-0.625L0.75,-0.625L0.75,-0.5L0.625,-0.5L0.625,-0.375L0.5,-0.375L0.5,-0.25L0.375,-0.25L0.375,-0.125L0.25,-0.125L0.25,-0L0.125,-0L0.125,-0.25L0.25,-0.25L0.25,-0.375L0.375,-0.375L0.375,-0.5L0.5,-0.5L0.5,-0.625L0.625,-0.625L0.625,-0.75L0.875,-0.75L0.875,-0.625Z" style="fill-rule:nonzero;"/>
        </g>
        <g transform="matrix(25,0,0,25,2422.59,1640.43)">
            <path d="M1,-0.25L0.875,-0.25L0.875,-0L0.625,-0L0.625,-0.125L0.5,-0.125L0.5,-0L0.25,-0L0.25,-0.25L0.125,-0.25L0.125,-0.625L0.375,-0.625L0.375,-0.375L0.5,-0.375L0.5,-0.5L0.625,-0.5L0.625,-0.375L0.75,-0.375L0.75,-0.625L1,-0.625L1,-0.25Z" style="fill-rule:nonzero;"/>
        </g>
        <g transform="matrix(25,0,0,25,2447.59,1640.43)">
            <path d="M1,-0.25L0.875,-0.25L0.875,-0L0.625,-0L0.625,-0.125L0.5,-0.125L0.5,-0L0.25,-0L0.25,-0.25L0.125,-0.25L0.125,-0.625L0.375,-0.625L0.375,-0.375L0.5,-0.375L0.5,-0.5L0.625,-0.5L0.625,-0.375L0.75,-0.375L0.75,-0.625L1,-0.625L1,-0.25Z" style="fill-rule:nonzero;"/>
        </g>
        <g transform="matrix(25,0,0,25,2472.59,1640.43)">
            <path d="M1,-0.25L0.875,-0.25L0.875,-0L0.625,-0L0.625,-0.125L0.5,-0.125L0.5,-0L0.25,-0L0.25,-0.25L0.125,-0.25L0.125,-0.625L0.375,-0.625L0.375,-0.375L0.5,-0.375L0.5,-0.5L0.625,-0.5L0.625,-0.375L0.75,-0.375L0.75,-0.625L1,-0.625L1,-0.25Z" style="fill-rule:nonzero;"/>
        </g>
        <g transform="matrix(25,0,0,25,2497.59,1640.43)">
            <rect x="0.375" y="-0.25" width="0.25" height="0.25" style="fill-rule:nonzero;"/>
        </g>
        <g transform="matrix(25,0,0,25,2522.59,1640.43)">
            <path d="M0.875,-0.125L0.75,-0.125L0.75,-0L0.625,-0L0.625,0.125L0.125,0.125L0.125,-0L0.5,-0L0.5,-0.125L0.25,-0.125L0.25,-0.25L0.125,-0.25L0.125,-0.625L0.375,-0.625L0.375,-0.25L0.625,-0.25L0.625,-0.625L0.875,-0.625L0.875,-0.125Z" style="fill-rule:nonzero;"/>
        </g>
        <g transform="matrix(25,0,0,25,2547.59,1640.43)">
            <path d="M0.875,-0.125L0.75,-0.125L0.75,-0L0.25,-0L0.25,-0.125L0.125,-0.125L0.125,-0.5L0.25,-0.5L0.25,-0.625L0.75,-0.625L0.75,-0.5L0.875,-0.5L0.875,-0.125ZM0.625,-0.125L0.625,-0.5L0.375,-0.5L0.375,-0.125L0.625,-0.125Z" style="fill-rule:nonzero;"/>
        </g>
        <g transform="matrix(25,0,0,25,2572.59,1640.43)">
            <path d="M0.875,-0L0.25,-0L0.25,-0.125L0.125,-0.125L0.125,-0.625L0.375,-0.625L0.375,-0.125L0.625,-0.125L0.625,-0.625L0.875,-0.625L0.875,-0Z" style="fill-rule:nonzero;"/>
        </g>
        <g transform="matrix(25,0,0,25,2597.59,1640.43)">
            <path d="M0.875,-0L0.5,-0L0.5,-0.125L0.375,-0.125L0.375,-0.5L0.125,-0.5L0.125,-0.625L0.375,-0.625L0.375,-0.75L0.625,-0.75L0.625,-0.625L0.875,-0.625L0.875,-0.5L0.625,-0.5L0.625,-0.125L0.875,-0.125L0.875,-0Z" style="fill-rule:nonzero;"/>
        </g>
        <g transform="matrix(25,0,0,25,2622.59,1640.43)">
            <path d="M0.875,-0L0.25,-0L0.25,-0.125L0.125,-0.125L0.125,-0.625L0.375,-0.625L0.375,-0.125L0.625,-0.125L0.625,-0.625L0.875,-0.625L0.875,-0Z" style="fill-rule:nonzero;"/>
        </g>
        <g transform="matrix(25,0,0,25,2647.59,1640.43)">
            <path d="M0.875,-0.125L0.75,-0.125L0.75,-0L0.125,-0L0.125,-0.75L0.375,-0.75L0.375,-0.5L0.75,-0.5L0.75,-0.375L0.875,-0.375L0.875,-0.125ZM0.625,-0.125L0.625,-0.375L0.375,-0.375L0.375,-0.125L0.625,-0.125Z" style="fill-rule:nonzero;"/>
        </g>
        <g transform="matrix(25,0,0,25,2672.59,1640.43)">
            <path d="M0.875,-0.25L0.375,-0.25L0.375,-0.125L0.75,-0.125L0.75,-0L0.25,-0L0.25,-0.125L0.125,-0.125L0.125,-0.5L0.25,-0.5L0.25,-0.625L0.75,-0.625L0.75,-0.5L0.875,-0.5L0.875,-0.25ZM0.625,-0.375L0.625,-0.5L0.375,-0.5L0.375,-0.375L0.625,-0.375Z" style="fill-rule:nonzero;"/>
        </g>
        <g transform="matrix(25,0,0,25,2697.59,1640.43)">
            <rect x="0.375" y="-0.25" width="0.25" height="0.25" style="fill-rule:nonzero;"/>
        </g>
        <g transform="matrix(25,0,0,25,2722.59,1640.43)">
            <path d="M0.75,-0L0.25,-0L0.25,-0.125L0.125,-0.125L0.125,-0.5L0.25,-0.5L0.25,-0.625L0.75,-0.625L0.75,-0.5L0.375,-0.5L0.375,-0.125L0.75,-0.125L0.75,-0Z" style="fill-rule:nonzero;"/>
        </g>
        <g transform="matrix(25,0,0,25,2747.59,1640.43)">
            <path d="M0.875,-0.125L0.75,-0.125L0.75,-0L0.25,-0L0.25,-0.125L0.125,-0.125L0.125,-0.5L0.25,-0.5L0.25,-0.625L0.75,-0.625L0.75,-0.5L0.875,-0.5L0.875,-0.125ZM0.625,-0.125L0.625,-0.5L0.375,-0.5L0.375,-0.125L0.625,-0.125Z" style="fill-rule:nonzero;"/>
        </g>
        <g transform="matrix(25,0,0,25,2772.59,1640.43)">
            <path d="M1,-0L0.75,-0L0.75,-0.25L0.625,-0.25L0.625,-0.125L0.5,-0.125L0.5,-0.25L0.375,-0.25L0.375,-0L0.125,-0L0.125,-0.625L0.375,-0.625L0.375,-0.5L0.625,-0.5L0.625,-0.625L0.875,-0.625L0.875,-0.5L1,-0.5L1,-0Z" style="fill-rule:nonzero;"/>
        </g>
        <g transform="matrix(25,0,0,25,2797.59,1640.43)">
            <path d="M0.875,-0.625L0.75,-0.625L0.75,-0.5L0.625,-0.5L0.625,-0.375L0.5,-0.375L0.5,-0.25L0.375,-0.25L0.375,-0.125L0.25,-0.125L0.25,-0L0.125,-0L0.125,-0.25L0.25,-0.25L0.25,-0.375L0.375,-0.375L0.375,-0.5L0.5,-0.5L0.5,-0.625L0.625,-0.625L0.625,-0.75L0.875,-0.75L0.875,-0.625Z" style="fill-rule:nonzero;"/>
        </g>
        <g transform="matrix(25,0,0,25,2822.59,1640.43)">
            <path d="M0.875,-0L0.25,-0L0.25,-0.125L0.125,-0.125L0.125,-0.625L0.25,-0.625L0.25,-0.75L0.75,-0.75L0.75,-0.625L0.875,-0.625L0.875,-0.25L0.5,-0.25L0.5,-0.5L0.625,-0.5L0.625,-0.625L0.375,-0.625L0.375,-0.125L0.875,-0.125L0.875,-0Z" style="fill-rule:nonzero;"/>
        </g>
        <g transform="matrix(25,0,0,25,2847.59,1640.43)">
            <path d="M0.875,-0.125L0.75,-0.125L0.75,-0L0.25,-0L0.25,-0.125L0.625,-0.125L0.625,-0.375L0.25,-0.375L0.25,-0.5L0.125,-0.5L0.125,-0.625L0.25,-0.625L0.25,-0.75L0.75,-0.75L0.75,-0.625L0.375,-0.625L0.375,-0.5L0.75,-0.5L0.75,-0.375L0.875,-0.375L0.875,-0.125Z" style="fill-rule:nonzero;"/>
        </g>
        <g transform="matrix(25,0,0,25,2872.59,1640.43)">
            <path d="M0.75,-0L0.25,-0L0.25,-0.125L0.125,-0.125L0.125,-0.5L0.25,-0.5L0.25,-0.625L0.75,-0.625L0.75,-0.5L0.375,-0.5L0.375,-0.125L0.75,-0.125L0.75,-0Z" style="fill-rule:nonzero;"/>
        </g>
        <g transform="matrix(25,0,0,25,2897.59,1640.43)">
            <path d="M0.875,-0.375L0.625,-0.375L0.625,-0.5L0.375,-0.5L0.375,-0L0.125,-0L0.125,-0.625L0.75,-0.625L0.75,-0.5L0.875,-0.5L0.875,-0.375Z" style="fill-rule:nonzero;"/>
        </g>
        <g transform="matrix(25,0,0,25,2922.59,1640.43)">
            <path d="M0.875,-0.25L0.375,-0.25L0.375,-0.125L0.75,-0.125L0.75,-0L0.25,-0L0.25,-0.125L0.125,-0.125L0.125,-0.5L0.25,-0.5L0.25,-0.625L0.75,-0.625L0.75,-0.5L0.875,-0.5L0.875,-0.25ZM0.625,-0.375L0.625,-0.5L0.375,-0.5L0.375,-0.375L0.625,-0.375Z" style="fill-rule:nonzero;"/>
        </g>
        <g transform="matrix(25,0,0,25,2947.59,1640.43)">
            <path d="M0.875,-0L0.25,-0L0.25,-0.125L0.125,-0.125L0.125,-0.25L0.25,-0.25L0.25,-0.375L0.625,-0.375L0.625,-0.5L0.25,-0.5L0.25,-0.625L0.75,-0.625L0.75,-0.5L0.875,-0.5L0.875,-0ZM0.625,-0.125L0.625,-0.25L0.375,-0.25L0.375,-0.125L0.625,-0.125Z" style="fill-rule:nonzero;"/>
        </g>
        <g transform="matrix(25,0,0,25,2972.59,1640.43)">
            <path d="M1,-0L0.75,-0L0.75,-0.25L0.625,-0.25L0.625,-0.125L0.5,-0.125L0.5,-0.25L0.375,-0.25L0.375,-0L0.125,-0L0.125,-0.625L0.375,-0.625L0.375,-0.5L0.625,-0.5L0.625,-0.625L0.875,-0.625L0.875,-0.5L1,-0.5L1,-0Z" style="fill-rule:nonzero;"/>
        </g>
        <g transform="matrix(25,0,0,25,2997.59,1640.43)">
            <path d="M0.625,-0.625L0.375,-0.625L0.375,-0.75L0.625,-0.75L0.625,-0.625ZM0.75,-0L0.25,-0L0.25,-0.125L0.375,-0.125L0.375,-0.375L0.25,-0.375L0.25,-0.5L0.625,-0.5L0.625,-0.125L0.75,-0.125L0.75,-0Z" style="fill-rule:nonzero;"/>
        </g>
        <g transform="matrix(25,0,0,25,3022.59,1640.43)">
            <path d="M0.875,-0L0.625,-0L0.625,-0.5L0.375,-0.5L0.375,-0L0.125,-0L0.125,-0.625L0.75,-0.625L0.75,-0.5L0.875,-0.5L0.875,-0Z" style="fill-rule:nonzero;"/>
        </g>
        <g transform="matrix(25,0,0,25,3047.59,1640.43)">
            <path d="M0.875,-0L0.75,-0L0.75,0.125L0.125,0.125L0.125,-0L0.625,-0L0.625,-0.125L0.25,-0.125L0.25,-0.25L0.125,-0.25L0.125,-0.5L0.25,-0.5L0.25,-0.625L0.875,-0.625L0.875,-0ZM0.625,-0.25L0.625,-0.5L0.375,-0.5L0.375,-0.25L0.625,-0.25Z" style="fill-rule:nonzero;"/>
        </g>
        <g transform="matrix(25,0,0,25,3072.59,1640.43)">
            <path d="M0.875,-0L0.625,-0L0.625,-0.125L0.375,-0.125L0.375,-0L0.125,-0L0.125,-0.5L0.25,-0.5L0.25,-0.625L0.375,-0.625L0.375,-0.75L0.625,-0.75L0.625,-0.625L0.75,-0.625L0.75,-0.5L0.875,-0.5L0.875,-0ZM0.625,-0.25L0.625,-0.5L0.375,-0.5L0.375,-0.25L0.625,-0.25Z" style="fill-rule:nonzero;"/>
        </g>
        <g transform="matrix(25,0,0,25,3097.59,1640.43)">
            <path d="M0.875,-0L0.5,-0L0.5,-0.125L0.375,-0.125L0.375,-0.5L0.125,-0.5L0.125,-0.625L0.375,-0.625L0.375,-0.75L0.625,-0.75L0.625,-0.625L0.875,-0.625L0.875,-0.5L0.625,-0.5L0.625,-0.125L0.875,-0.125L0.875,-0Z" style="fill-rule:nonzero;"/>
        </g>
        <g transform="matrix(25,0,0,25,3122.59,1640.43)">
            <path d="M0.875,-0.625L0.625,-0.625L0.625,-0L0.375,-0L0.375,-0.625L0.125,-0.625L0.125,-0.75L0.875,-0.75L0.875,-0.625Z" style="fill-rule:nonzero;"/>
        </g>
        <g transform="matrix(25,0,0,25,3147.59,1640.43)">
            <path d="M0.875,-0L0.625,-0L0.625,-0.375L0.375,-0.375L0.375,-0L0.125,-0L0.125,-0.75L0.375,-0.75L0.375,-0.5L0.75,-0.5L0.75,-0.375L0.875,-0.375L0.875,-0Z" style="fill-rule:nonzero;"/>
        </g>
        <g transform="matrix(25,0,0,25,3172.59,1640.43)">
            <path d="M0.875,-0.25L0.375,-0.25L0.375,-0.125L0.75,-0.125L0.75,-0L0.25,-0L0.25,-0.125L0.125,-0.125L0.125,-0.5L0.25,-0.5L0.25,-0.625L0.75,-0.625L0.75,-0.5L0.875,-0.5L0.875,-0.25ZM0.625,-0.375L0.625,-0.5L0.375,-0.5L0.375,-0.375L0.625,-0.375Z" style="fill-rule:nonzero;"/>
        </g>
        <g transform="matrix(25,0,0,25,3197.59,1640.43)">
            <path d="M0.875,-0L0.625,-0L0.625,-0.125L0.5,-0.125L0.5,-0.25L0.375,-0.25L0.375,-0L0.125,-0L0.125,-0.75L0.75,-0.75L0.75,-0.625L0.875,-0.625L0.875,-0.375L0.75,-0.375L0.75,-0.125L0.875,-0.125L0.875,-0ZM0.625,-0.375L0.625,-0.625L0.375,-0.625L0.375,-0.375L0.625,-0.375Z" style="fill-rule:nonzero;"/>
        </g>
        <g transform="matrix(25,0,0,25,3222.59,1640.43)">
            <path d="M0.875,-0L0.25,-0L0.25,-0.125L0.125,-0.125L0.125,-0.25L0.25,-0.25L0.25,-0.375L0.625,-0.375L0.625,-0.5L0.25,-0.5L0.25,-0.625L0.75,-0.625L0.75,-0.5L0.875,-0.5L0.875,-0ZM0.625,-0.125L0.625,-0.25L0.375,-0.25L0.375,-0.125L0.625,-0.125Z" style="fill-rule:nonzero;"/>
        </g>
        <g transform="matrix(25,0,0,25,3247.59,1640.43)">
            <path d="M0.875,-0L0.25,-0L0.25,-0.125L0.125,-0.125L0.125,-0.375L0.25,-0.375L0.25,-0.5L0.625,-0.5L0.625,-0.75L0.875,-0.75L0.875,-0ZM0.625,-0.125L0.625,-0.375L0.375,-0.375L0.375,-0.125L0.625,-0.125Z" style="fill-rule:nonzero;"/>
        </g>
        <g transform="matrix(25,0,0,25,3272.59,1640.43)">
            <path d="M0.625,-0.625L0.375,-0.625L0.375,-0.75L0.625,-0.75L0.625,-0.625ZM0.75,-0L0.25,-0L0.25,-0.125L0.375,-0.125L0.375,-0.375L0.25,-0.375L0.25,-0.5L0.625,-0.5L0.625,-0.125L0.75,-0.125L0.75,-0Z" style="fill-rule:nonzero;"/>
        </g>
        <g transform="matrix(25,0,0,25,3297.59,1640.43)">
            <path d="M0.875,-0.125L0.75,-0.125L0.75,-0L0.25,-0L0.25,-0.125L0.125,-0.125L0.125,-0.5L0.25,-0.5L0.25,-0.625L0.75,-0.625L0.75,-0.5L0.875,-0.5L0.875,-0.125ZM0.625,-0.125L0.625,-0.5L0.375,-0.5L0.375,-0.125L0.625,-0.125Z" style="fill-rule:nonzero;"/>
        </g>
    </g>
</svg>
