<?xml version="1.0" encoding="UTF-8" standalone="no"?>
<!DOCTYPE svg PUBLIC "-//W3C//DTD SVG 1.1//EN" "http://www.w3.org/Graphics/SVG/1.1/DTD/svg11.dtd">
<svg width="100%" height="100%" viewBox="0 0 8 8" version="1.1" xmlns="http://www.w3.org/2000/svg" xmlns:xlink="http://www.w3.org/1999/xlink" xml:space="preserve" xmlns:serif="http://www.serif.com/" style="fill-rule:evenodd;clip-rule:evenodd;stroke-linejoin:round;stroke-miterlimit:2;">
    <g transform="matrix(0.015625,0,0,0.015625,0,0)">
        <path d="M477.443,295.143C477.443,295.151 477.443,295.158 477.443,295.166C477.443,352.466 430.293,399.616 372.993,399.616C329.542,399.616 290.428,372.502 275.183,331.813C275.103,400.543 279.513,446.273 344.733,480.813L167.163,480.813C232.383,446.283 236.793,400.563 236.713,331.813C221.453,372.449 182.374,399.518 138.968,399.518C81.69,399.518 34.558,352.385 34.558,295.108C34.558,237.83 81.69,190.698 138.968,190.698C149.621,190.698 160.213,192.328 170.373,195.533C158.086,177.979 151.493,157.063 151.493,135.637C151.493,78.337 198.643,31.187 255.943,31.187C313.243,31.187 360.393,78.337 360.393,135.637C360.393,157.063 353.8,177.979 341.513,195.533C351.681,192.326 362.281,190.694 372.943,190.694C430.251,190.694 477.415,237.835 477.443,295.143Z"/>
        <g transform="matrix(68.9299,0,0,67.7209,-1.39943,-1.39992)">
            <path d="M7.463,1.154L7.463,6.443C7.463,7.068 6.964,7.576 6.349,7.576L1.129,7.576C0.514,7.576 0.016,7.068 0.016,6.443L0.016,1.154C0.016,0.529 0.514,0.021 1.129,0.021L6.349,0.021C6.964,0.021 7.463,0.529 7.463,1.154ZM7.286,1.154C7.286,0.627 6.866,0.2 6.349,0.2L1.129,0.2C0.612,0.2 0.192,0.628 0.192,1.154L0.192,6.443C0.192,6.969 0.612,7.397 1.129,7.397L6.349,7.397C6.866,7.397 7.286,6.969 7.286,6.443L7.286,1.154Z"/>
        </g>
    </g>
</svg>
