<?xml version="1.0" encoding="UTF-8" standalone="no"?>
<!DOCTYPE svg PUBLIC "-//W3C//DTD SVG 1.1//EN" "http://www.w3.org/Graphics/SVG/1.1/DTD/svg11.dtd">
<svg width="100%" height="100%" viewBox="0 0 8 8" version="1.1" xmlns="http://www.w3.org/2000/svg" xmlns:xlink="http://www.w3.org/1999/xlink" xml:space="preserve" xmlns:serif="http://www.serif.com/" style="fill-rule:evenodd;clip-rule:evenodd;stroke-linejoin:round;stroke-miterlimit:2;">
    <g transform="matrix(1.07703,0,0,1.05814,-0.0218661,-0.0218737)">
        <path d="M7.463,1.154C7.463,0.529 6.964,0.021 6.349,0.021L1.129,0.021C0.514,0.021 0.016,0.529 0.016,1.154L0.016,6.443C0.016,7.068 0.514,7.576 1.129,7.576L6.349,7.576C6.964,7.576 7.463,7.068 7.463,6.443L7.463,1.154Z" style="fill:none;"/>
        <clipPath id="_clip1">
            <path d="M7.463,1.154C7.463,0.529 6.964,0.021 6.349,0.021L1.129,0.021C0.514,0.021 0.016,0.529 0.016,1.154L0.016,6.443C0.016,7.068 0.514,7.576 1.129,7.576L6.349,7.576C6.964,7.576 7.463,7.068 7.463,6.443L7.463,1.154Z"/>
        </clipPath>
        <g clip-path="url(#_clip1)">
            <g transform="matrix(5.68529e-17,0.945055,-0.928479,5.78679e-17,7.44814,0.0206718)">
                <path d="M0,6L6,0L8,0L8,2L2,8L0,8L0,6Z"/>
            </g>
        </g>
        <path d="M7.463,1.154L7.463,6.443C7.463,7.068 6.964,7.576 6.349,7.576L1.129,7.576C0.514,7.576 0.016,7.068 0.016,6.443L0.016,1.154C0.016,0.529 0.514,0.021 1.129,0.021L6.349,0.021C6.964,0.021 7.463,0.529 7.463,1.154ZM7.286,1.154C7.286,0.627 6.866,0.2 6.349,0.2L1.129,0.2C0.612,0.2 0.192,0.628 0.192,1.154L0.192,6.443C0.192,6.969 0.612,7.397 1.129,7.397L6.349,7.397C6.866,7.397 7.286,6.969 7.286,6.443L7.286,1.154Z"/>
    </g>
</svg>
