<?xml version="1.0" encoding="UTF-8" standalone="no"?>
<!DOCTYPE svg PUBLIC "-//W3C//DTD SVG 1.1//EN" "http://www.w3.org/Graphics/SVG/1.1/DTD/svg11.dtd">
<svg width="100%" height="100%" viewBox="0 0 114 90" version="1.1" xmlns="http://www.w3.org/2000/svg" xmlns:xlink="http://www.w3.org/1999/xlink" xml:space="preserve" xmlns:serif="http://www.serif.com/" style="fill-rule:evenodd;clip-rule:evenodd;stroke-linejoin:round;stroke-miterlimit:2;">
    <g transform="matrix(1,0,0,1,-3.16598,-3)">
        <path id="path13" d="M35.653,55.229C45.096,40.93 44.884,10.498 44.884,3L51.837,3C51.81,5.887 53.355,34.899 48.456,53.169C43.557,71.439 25.273,91.932 3.166,91.932L3.166,78.971C9.666,78.971 26.21,69.527 35.653,55.229Z" style="fill-rule:nonzero;"/>
        <rect id="rect2854" x="53.768" y="3" width="12.463" height="89.117"/>
        <path id="path2858" d="M84.347,55.229C74.904,40.93 75.116,10.498 75.116,3L68.163,3C68.19,5.887 66.645,34.899 71.544,53.169C76.443,71.439 94.727,91.932 116.834,91.932L116.834,78.971C110.334,78.971 93.79,69.527 84.347,55.229Z" style="fill-rule:nonzero;"/>
    </g>
</svg>
