<?xml version="1.0" encoding="UTF-8" standalone="no"?>
<!DOCTYPE svg PUBLIC "-//W3C//DTD SVG 1.1//EN" "http://www.w3.org/Graphics/SVG/1.1/DTD/svg11.dtd">
<svg width="100%" height="100%" viewBox="0 0 8 8" version="1.1" xmlns="http://www.w3.org/2000/svg" xmlns:xlink="http://www.w3.org/1999/xlink" xml:space="preserve" xmlns:serif="http://www.serif.com/" style="fill-rule:evenodd;clip-rule:evenodd;stroke-linejoin:round;stroke-miterlimit:2;">
    <g id="Fuji">
        <g id="Frame">
            <path d="M8.016,1.199L8.016,6.796C8.016,7.457 7.478,7.995 6.816,7.995L1.194,7.995C0.532,7.995 -0.005,7.457 -0.005,6.796L-0.005,1.199C-0.005,0.537 0.532,-0 1.194,-0L6.816,-0C7.478,-0 8.016,0.537 8.016,1.199ZM2.501,4.472C1.919,5.353 0.9,5.934 0.5,5.934L0.5,6.733C1.861,6.733 2.987,5.471 3.289,4.346C3.591,3.22 3.496,1.434 3.497,1.256L3.069,1.256C3.069,1.718 3.082,3.592 2.501,4.472ZM4.384,1.256L3.616,1.256L3.616,6.744L4.384,6.744L4.384,1.256ZM5.499,4.472C4.918,3.592 4.931,1.718 4.931,1.256L4.503,1.256C4.504,1.434 4.409,3.22 4.711,4.346C5.013,5.471 6.139,6.733 7.5,6.733L7.5,5.934C7.1,5.934 6.081,5.353 5.499,4.472Z"/>
            <path d="M8.016,1.199L8.016,6.796C8.016,7.457 7.478,7.995 6.816,7.995L1.194,7.995C0.532,7.995 -0.005,7.457 -0.005,6.796L-0.005,1.199C-0.005,0.537 0.532,-0 1.194,-0L6.816,-0C7.478,-0 8.016,0.537 8.016,1.199ZM7.826,1.199C7.826,0.642 7.373,0.19 6.816,0.19L1.194,0.19C0.637,0.19 0.185,0.642 0.185,1.199L0.185,6.796C0.185,7.353 0.637,7.805 1.194,7.805L6.816,7.805C7.373,7.805 7.826,7.353 7.826,6.796L7.826,1.199ZM4.931,1.446L5.121,1.256C5.121,1.529 5.116,2.301 5.236,3.063C5.312,3.551 5.438,4.035 5.658,4.368C5.989,4.87 6.471,5.27 6.885,5.509C7.138,5.655 7.361,5.745 7.5,5.745C7.605,5.745 7.69,5.83 7.69,5.934L7.69,6.733C7.69,6.837 7.605,6.922 7.5,6.922C6.115,6.922 4.952,5.702 4.574,4.549L4.574,6.744C4.574,6.849 4.489,6.934 4.384,6.934L3.616,6.934C3.511,6.934 3.426,6.849 3.426,6.744L3.426,4.549C3.048,5.702 1.885,6.922 0.5,6.922C0.395,6.922 0.31,6.837 0.31,6.733L0.31,5.934C0.31,5.83 0.395,5.745 0.5,5.745C0.639,5.745 0.862,5.655 1.115,5.509C1.529,5.27 2.011,4.87 2.342,4.368C2.562,4.035 2.688,3.551 2.764,3.063C2.884,2.301 2.879,1.529 2.879,1.256C2.879,1.361 2.964,1.446 3.069,1.446C3.065,2.101 3.021,3.684 2.501,4.472C1.919,5.353 0.9,5.934 0.5,5.934L0.5,6.733C1.861,6.733 2.987,5.471 3.289,4.346C3.591,3.22 3.496,1.434 3.497,1.256L3.069,1.256C3.069,1.305 3.069,1.369 3.069,1.446C3.069,1.446 2.828,1.066 3.075,1.066L3.496,1.066C3.52,1.066 3.54,1.07 3.555,1.076C3.575,1.07 3.595,1.066 3.616,1.066L4.384,1.066C4.406,1.066 4.428,1.07 4.448,1.077C4.463,1.07 4.484,1.066 4.509,1.066L4.93,1.066C5.18,1.066 4.931,1.446 4.931,1.446C4.931,1.369 4.931,1.305 4.931,1.256L4.503,1.256C4.504,1.434 4.409,3.22 4.711,4.346C5.013,5.471 6.139,6.733 7.5,6.733L7.5,5.934C7.1,5.934 6.081,5.353 5.499,4.472C4.979,3.684 4.935,2.101 4.931,1.446ZM4.384,1.256L3.616,1.256L3.616,6.744L4.384,6.744L4.384,1.256Z"/>
        </g>
    </g>
</svg>
