<?xml version="1.0" standalone="no"?>
 <!DOCTYPE svg PUBLIC "-//W3C//DTD SVG 1.1//EN" 
 "http://www.w3.org/Graphics/SVG/1.1/DTD/svg11.dtd"> 
<svg
  xmlns:svg="http://www.w3.org/2000/svg"
  xmlns="http://www.w3.org/2000/svg"
  xmlns:xlink="http://www.w3.org/1999/xlink"
  version="1.1"
  width="70mm" height="45mm" viewBox="10 10 70.0 45.0">
<title>SVG Image created as DecentKeyboardTester-RGB_F1.svg date 2025/04/16 15:58:03 </title>
  <desc>Image generated by Eeschema-SVG </desc>
<g style="fill:#000000; fill-opacity:1.0000;stroke:#000000; stroke-opacity:1.0000;
stroke-linecap:round; stroke-linejoin:round;"
 transform="translate(0 0) scale(1 1)">
</g>
<g style="fill:#F5F4EF; fill-opacity:1.0000; 
stroke:#F5F4EF; stroke-width:0.0001; stroke-opacity:1; 
stroke-linecap:round; stroke-linejoin:round;">
<rect x="0.000000" y="0.000000" width="210.007200" height="148.005800" rx="0.000000" />
</g>
<g style="fill:#FFFFC2; fill-opacity:1.0000; stroke:none;">
<rect x="27.940000" y="25.400000" width="10.160000" height="10.160000" rx="0.000000" />
<path style="fill:none; 
stroke:#840000; stroke-width:0.1524; stroke-opacity:1; 
stroke-linecap:round; stroke-linejoin:round;fill:none"
d="M 34.2900,33.0200
34.7980,33.0200
" /> 
<path style="fill:none; 
stroke:#840000; stroke-width:0.1524; stroke-opacity:1; 
stroke-linecap:round; stroke-linejoin:round;fill:none"
d="M 34.2900,34.0360
34.7980,34.0360
" /> 
<path style="fill:none; 
stroke:#840000; stroke-width:0.1524; stroke-opacity:1; 
stroke-linecap:round; stroke-linejoin:round;fill:none"
d="M 35.3060,32.0040
34.2900,33.0200
34.2900,32.5120
" /> 
<path style="fill:none; 
stroke:#840000; stroke-width:0.1524; stroke-opacity:1; 
stroke-linecap:round; stroke-linejoin:round;fill:none"
d="M 35.3060,33.0200
34.2900,34.0360
34.2900,33.5280
" /> 
<path style="fill:none; 
stroke:#840000; stroke-width:0.1524; stroke-opacity:1; 
stroke-linecap:round; stroke-linejoin:round;fill:none"
d="M 36.7030,31.4960
36.7030,34.0360
36.7030,34.5440
" /> 
<path style="fill:none; 
stroke:#840000; stroke-width:0.1524; stroke-opacity:1; 
stroke-linecap:round; stroke-linejoin:round;fill:none"
d="M 37.7190,32.0040
35.6870,32.0040
36.7030,34.0360
Z" /> 
<path style="fill:none; 
stroke:#840000; stroke-width:0.1524; stroke-opacity:1; 
stroke-linecap:round; stroke-linejoin:round;fill:none"
d="M 37.7190,34.0360
35.6870,34.0360
" /> 
</g>
<g style="fill:none; 
stroke:#840000; stroke-width:0.2540; stroke-opacity:1; 
stroke-linecap:round; stroke-linejoin:round;">
<rect x="27.940000" y="25.400000" width="10.160000" height="10.160000" rx="0.000000" />
</g>
<g style="fill:none; 
stroke:#840000; stroke-width:0.1524; stroke-opacity:1; 
stroke-linecap:round; stroke-linejoin:round;">
<text x="35.3060" y="35.0520"
textLength="2.5908" font-size="1.0160" lengthAdjust="spacingAndGlyphs"
text-anchor="middle" opacity="0" stroke-opacity="0">RGB</text>
<g class="stroked-text"><desc>RGB</desc>
<path d="M34.7798 35.0155
L34.5258 34.6527
" />
<path d="M34.3444 35.0155
L34.3444 34.2535
" />
<path d="M34.3444 34.2535
L34.6347 34.2535
" />
<path d="M34.6347 34.2535
L34.7072 34.2898
" />
<path d="M34.7072 34.2898
L34.7435 34.3261
" />
<path d="M34.7435 34.3261
L34.7798 34.3987
" />
<path d="M34.7798 34.3987
L34.7798 34.5075
" />
<path d="M34.7798 34.5075
L34.7435 34.5801
" />
<path d="M34.7435 34.5801
L34.7072 34.6164
" />
<path d="M34.7072 34.6164
L34.6347 34.6527
" />
<path d="M34.6347 34.6527
L34.3444 34.6527
" />
<path d="M35.5055 34.2898
L35.4330 34.2535
" />
<path d="M35.4330 34.2535
L35.3241 34.2535
" />
<path d="M35.3241 34.2535
L35.2152 34.2898
" />
<path d="M35.2152 34.2898
L35.1427 34.3624
" />
<path d="M35.1427 34.3624
L35.1064 34.4350
" />
<path d="M35.1064 34.4350
L35.0701 34.5801
" />
<path d="M35.0701 34.5801
L35.0701 34.6890
" />
<path d="M35.0701 34.6890
L35.1064 34.8341
" />
<path d="M35.1064 34.8341
L35.1427 34.9067
" />
<path d="M35.1427 34.9067
L35.2152 34.9793
" />
<path d="M35.2152 34.9793
L35.3241 35.0155
" />
<path d="M35.3241 35.0155
L35.3967 35.0155
" />
<path d="M35.3967 35.0155
L35.5055 34.9793
" />
<path d="M35.5055 34.9793
L35.5418 34.9430
" />
<path d="M35.5418 34.9430
L35.5418 34.6890
" />
<path d="M35.5418 34.6890
L35.3967 34.6890
" />
<path d="M36.1224 34.6164
L36.2312 34.6527
" />
<path d="M36.2312 34.6527
L36.2675 34.6890
" />
<path d="M36.2675 34.6890
L36.3038 34.7615
" />
<path d="M36.3038 34.7615
L36.3038 34.8704
" />
<path d="M36.3038 34.8704
L36.2675 34.9430
" />
<path d="M36.2675 34.9430
L36.2312 34.9793
" />
<path d="M36.2312 34.9793
L36.1587 35.0155
" />
<path d="M36.1587 35.0155
L35.8684 35.0155
" />
<path d="M35.8684 35.0155
L35.8684 34.2535
" />
<path d="M35.8684 34.2535
L36.1224 34.2535
" />
<path d="M36.1224 34.2535
L36.1950 34.2898
" />
<path d="M36.1950 34.2898
L36.2312 34.3261
" />
<path d="M36.2312 34.3261
L36.2675 34.3987
" />
<path d="M36.2675 34.3987
L36.2675 34.4713
" />
<path d="M36.2675 34.4713
L36.2312 34.5438
" />
<path d="M36.2312 34.5438
L36.1950 34.5801
" />
<path d="M36.1950 34.5801
L36.1224 34.6164
" />
<path d="M36.1224 34.6164
L35.8684 34.6164
" />
</g><path d="M27.9400 30.4800
L25.4000 30.4800
" />
</g>
<g style="fill:none; 
stroke:#006464; stroke-width:0.1524; stroke-opacity:1; 
stroke-linecap:round; stroke-linejoin:round;">
<text x="28.1940" y="31.1150"
textLength="3.4085" font-size="1.6933" lengthAdjust="spacingAndGlyphs"
text-anchor="start" opacity="0" stroke-opacity="0">DIN</text>
<g class="stroked-text"><desc>DIN</desc>
<path d="M28.5965 31.0595
L28.5965 29.7895
" />
<path d="M28.5965 29.7895
L28.8989 29.7895
" />
<path d="M28.8989 29.7895
L29.0803 29.8500
" />
<path d="M29.0803 29.8500
L29.2013 29.9710
" />
<path d="M29.2013 29.9710
L29.2618 30.0919
" />
<path d="M29.2618 30.0919
L29.3222 30.3338
" />
<path d="M29.3222 30.3338
L29.3222 30.5152
" />
<path d="M29.3222 30.5152
L29.2618 30.7571
" />
<path d="M29.2618 30.7571
L29.2013 30.8781
" />
<path d="M29.2013 30.8781
L29.0803 30.9991
" />
<path d="M29.0803 30.9991
L28.8989 31.0595
" />
<path d="M28.8989 31.0595
L28.5965 31.0595
" />
<path d="M29.8665 31.0595
L29.8665 29.7895
" />
<path d="M30.4713 31.0595
L30.4713 29.7895
" />
<path d="M30.4713 29.7895
L31.1970 31.0595
" />
<path d="M31.1970 31.0595
L31.1970 29.7895
" />
</g></g>
<g style="fill:none; 
stroke:#A90000; stroke-width:0.1524; stroke-opacity:1; 
stroke-linecap:round; stroke-linejoin:round;">
<text x="26.6700" y="30.2260"
textLength="1.4127" font-size="1.6933" lengthAdjust="spacingAndGlyphs"
text-anchor="middle" opacity="0" stroke-opacity="0">3</text>
<g class="stroked-text"><desc>3</desc>
<path d="M26.2467 28.7925
L27.0329 28.7925
" />
<path d="M27.0329 28.7925
L26.6095 29.2763
" />
<path d="M26.6095 29.2763
L26.7910 29.2763
" />
<path d="M26.7910 29.2763
L26.9119 29.3368
" />
<path d="M26.9119 29.3368
L26.9724 29.3973
" />
<path d="M26.9724 29.3973
L27.0329 29.5182
" />
<path d="M27.0329 29.5182
L27.0329 29.8206
" />
<path d="M27.0329 29.8206
L26.9724 29.9416
" />
<path d="M26.9724 29.9416
L26.9119 30.0021
" />
<path d="M26.9119 30.0021
L26.7910 30.0625
" />
<path d="M26.7910 30.0625
L26.4281 30.0625
" />
<path d="M26.4281 30.0625
L26.3072 30.0021
" />
<path d="M26.3072 30.0021
L26.2467 29.9416
" />
</g></g>
<g style="fill:none; 
stroke:#840000; stroke-width:0.1524; stroke-opacity:1; 
stroke-linecap:round; stroke-linejoin:round;">
<path d="M33.0200 25.4000
L33.0200 22.8600
" />
</g>
<g style="fill:none; 
stroke:#006464; stroke-width:0.1524; stroke-opacity:1; 
stroke-linecap:round; stroke-linejoin:round;">
<g transform="rotate(-90.000000 33.0200 25.6540)">
<text x="33.0200" y="26.2890"
textLength="3.8318" font-size="1.6933" lengthAdjust="spacingAndGlyphs"
text-anchor="end" opacity="0" stroke-opacity="0">VDD</text>
</g>
<g class="stroked-text"><desc>VDD</desc>
<path d="M32.3295 29.2618
L33.5995 28.8385
" />
<path d="M33.5995 28.8385
L32.3295 28.4151
" />
<path d="M33.5995 27.9918
L32.3295 27.9918
" />
<path d="M32.3295 27.9918
L32.3295 27.6894
" />
<path d="M32.3295 27.6894
L32.3900 27.5080
" />
<path d="M32.3900 27.5080
L32.5110 27.3870
" />
<path d="M32.5110 27.3870
L32.6319 27.3265
" />
<path d="M32.6319 27.3265
L32.8738 27.2661
" />
<path d="M32.8738 27.2661
L33.0552 27.2661
" />
<path d="M33.0552 27.2661
L33.2971 27.3265
" />
<path d="M33.2971 27.3265
L33.4181 27.3870
" />
<path d="M33.4181 27.3870
L33.5391 27.5080
" />
<path d="M33.5391 27.5080
L33.5995 27.6894
" />
<path d="M33.5995 27.6894
L33.5995 27.9918
" />
<path d="M33.5995 26.7218
L32.3295 26.7218
" />
<path d="M32.3295 26.7218
L32.3295 26.4194
" />
<path d="M32.3295 26.4194
L32.3900 26.2380
" />
<path d="M32.3900 26.2380
L32.5110 26.1170
" />
<path d="M32.5110 26.1170
L32.6319 26.0565
" />
<path d="M32.6319 26.0565
L32.8738 25.9961
" />
<path d="M32.8738 25.9961
L33.0552 25.9961
" />
<path d="M33.0552 25.9961
L33.2971 26.0565
" />
<path d="M33.2971 26.0565
L33.4181 26.1170
" />
<path d="M33.4181 26.1170
L33.5391 26.2380
" />
<path d="M33.5391 26.2380
L33.5995 26.4194
" />
<path d="M33.5995 26.4194
L33.5995 26.7218
" />
</g></g>
<g style="fill:none; 
stroke:#A90000; stroke-width:0.1524; stroke-opacity:1; 
stroke-linecap:round; stroke-linejoin:round;">
<g transform="rotate(-90.000000 32.7660 24.1300)">
<text x="32.7660" y="24.1300"
textLength="1.4127" font-size="1.6933" lengthAdjust="spacingAndGlyphs"
text-anchor="middle" opacity="0" stroke-opacity="0">4</text>
</g>
<g class="stroked-text"><desc>4</desc>
<path d="M31.7559 23.8880
L32.6025 23.8880
" />
<path d="M31.2721 24.1904
L32.1792 24.4927
" />
<path d="M32.1792 24.4927
L32.1792 23.7066
" />
</g></g>
<g style="fill:none; 
stroke:#840000; stroke-width:0.1524; stroke-opacity:1; 
stroke-linecap:round; stroke-linejoin:round;">
<path d="M33.0200 35.5600
L33.0200 38.1000
" />
</g>
<g style="fill:none; 
stroke:#006464; stroke-width:0.1524; stroke-opacity:1; 
stroke-linecap:round; stroke-linejoin:round;">
<g transform="rotate(-90.000000 33.0200 35.3060)">
<text x="33.0200" y="35.9410"
textLength="3.7108" font-size="1.6933" lengthAdjust="spacingAndGlyphs"
text-anchor="start" opacity="0" stroke-opacity="0">VSS</text>
</g>
<g class="stroked-text"><desc>VSS</desc>
<path d="M32.3295 35.0848
L33.5995 34.6615
" />
<path d="M33.5995 34.6615
L32.3295 34.2381
" />
<path d="M33.5391 33.8752
L33.5995 33.6938
" />
<path d="M33.5995 33.6938
L33.5995 33.3914
" />
<path d="M33.5995 33.3914
L33.5391 33.2705
" />
<path d="M33.5391 33.2705
L33.4786 33.2100
" />
<path d="M33.4786 33.2100
L33.3576 33.1495
" />
<path d="M33.3576 33.1495
L33.2367 33.1495
" />
<path d="M33.2367 33.1495
L33.1157 33.2100
" />
<path d="M33.1157 33.2100
L33.0552 33.2705
" />
<path d="M33.0552 33.2705
L32.9948 33.3914
" />
<path d="M32.9948 33.3914
L32.9343 33.6333
" />
<path d="M32.9343 33.6333
L32.8738 33.7543
" />
<path d="M32.8738 33.7543
L32.8133 33.8148
" />
<path d="M32.8133 33.8148
L32.6924 33.8752
" />
<path d="M32.6924 33.8752
L32.5714 33.8752
" />
<path d="M32.5714 33.8752
L32.4505 33.8148
" />
<path d="M32.4505 33.8148
L32.3900 33.7543
" />
<path d="M32.3900 33.7543
L32.3295 33.6333
" />
<path d="M32.3295 33.6333
L32.3295 33.3310
" />
<path d="M32.3295 33.3310
L32.3900 33.1495
" />
<path d="M33.5391 32.6657
L33.5995 32.4843
" />
<path d="M33.5995 32.4843
L33.5995 32.1819
" />
<path d="M33.5995 32.1819
L33.5391 32.0610
" />
<path d="M33.5391 32.0610
L33.4786 32.0005
" />
<path d="M33.4786 32.0005
L33.3576 31.9400
" />
<path d="M33.3576 31.9400
L33.2367 31.9400
" />
<path d="M33.2367 31.9400
L33.1157 32.0005
" />
<path d="M33.1157 32.0005
L33.0552 32.0610
" />
<path d="M33.0552 32.0610
L32.9948 32.1819
" />
<path d="M32.9948 32.1819
L32.9343 32.4238
" />
<path d="M32.9343 32.4238
L32.8738 32.5448
" />
<path d="M32.8738 32.5448
L32.8133 32.6053
" />
<path d="M32.8133 32.6053
L32.6924 32.6657
" />
<path d="M32.6924 32.6657
L32.5714 32.6657
" />
<path d="M32.5714 32.6657
L32.4505 32.6053
" />
<path d="M32.4505 32.6053
L32.3900 32.5448
" />
<path d="M32.3900 32.5448
L32.3295 32.4238
" />
<path d="M32.3295 32.4238
L32.3295 32.1215
" />
<path d="M32.3295 32.1215
L32.3900 31.9400
" />
</g></g>
<g style="fill:none; 
stroke:#A90000; stroke-width:0.1524; stroke-opacity:1; 
stroke-linecap:round; stroke-linejoin:round;">
<g transform="rotate(-90.000000 32.7660 36.8300)">
<text x="32.7660" y="36.8300"
textLength="1.4127" font-size="1.6933" lengthAdjust="spacingAndGlyphs"
text-anchor="middle" opacity="0" stroke-opacity="0">2</text>
</g>
<g class="stroked-text"><desc>2</desc>
<path d="M31.4535 37.1927
L31.3930 37.1323
" />
<path d="M31.3930 37.1323
L31.3325 37.0113
" />
<path d="M31.3325 37.0113
L31.3325 36.7089
" />
<path d="M31.3325 36.7089
L31.3930 36.5880
" />
<path d="M31.3930 36.5880
L31.4535 36.5275
" />
<path d="M31.4535 36.5275
L31.5744 36.4670
" />
<path d="M31.5744 36.4670
L31.6954 36.4670
" />
<path d="M31.6954 36.4670
L31.8768 36.5275
" />
<path d="M31.8768 36.5275
L32.6025 37.2532
" />
<path d="M32.6025 37.2532
L32.6025 36.4670
" />
</g></g>
<g style="fill:none; 
stroke:#840000; stroke-width:0.1524; stroke-opacity:1; 
stroke-linecap:round; stroke-linejoin:round;">
<path d="M38.1000 30.4800
L40.6400 30.4800
" />
</g>
<g style="fill:none; 
stroke:#006464; stroke-width:0.1524; stroke-opacity:1; 
stroke-linecap:round; stroke-linejoin:round;">
<text x="37.8460" y="31.1150"
textLength="5.1018" font-size="1.6933" lengthAdjust="spacingAndGlyphs"
text-anchor="end" opacity="0" stroke-opacity="0">DOUT</text>
<g class="stroked-text"><desc>DOUT</desc>
<path d="M33.1495 31.0595
L33.1495 29.7895
" />
<path d="M33.1495 29.7895
L33.4519 29.7895
" />
<path d="M33.4519 29.7895
L33.6333 29.8500
" />
<path d="M33.6333 29.8500
L33.7543 29.9710
" />
<path d="M33.7543 29.9710
L33.8148 30.0919
" />
<path d="M33.8148 30.0919
L33.8752 30.3338
" />
<path d="M33.8752 30.3338
L33.8752 30.5152
" />
<path d="M33.8752 30.5152
L33.8148 30.7571
" />
<path d="M33.8148 30.7571
L33.7543 30.8781
" />
<path d="M33.7543 30.8781
L33.6333 30.9991
" />
<path d="M33.6333 30.9991
L33.4519 31.0595
" />
<path d="M33.4519 31.0595
L33.1495 31.0595
" />
<path d="M34.6614 29.7895
L34.9033 29.7895
" />
<path d="M34.9033 29.7895
L35.0243 29.8500
" />
<path d="M35.0243 29.8500
L35.1452 29.9710
" />
<path d="M35.1452 29.9710
L35.2057 30.2129
" />
<path d="M35.2057 30.2129
L35.2057 30.6362
" />
<path d="M35.2057 30.6362
L35.1452 30.8781
" />
<path d="M35.1452 30.8781
L35.0243 30.9991
" />
<path d="M35.0243 30.9991
L34.9033 31.0595
" />
<path d="M34.9033 31.0595
L34.6614 31.0595
" />
<path d="M34.6614 31.0595
L34.5405 30.9991
" />
<path d="M34.5405 30.9991
L34.4195 30.8781
" />
<path d="M34.4195 30.8781
L34.3591 30.6362
" />
<path d="M34.3591 30.6362
L34.3591 30.2129
" />
<path d="M34.3591 30.2129
L34.4195 29.9710
" />
<path d="M34.4195 29.9710
L34.5405 29.8500
" />
<path d="M34.5405 29.8500
L34.6614 29.7895
" />
<path d="M35.7500 29.7895
L35.7500 30.8176
" />
<path d="M35.7500 30.8176
L35.8105 30.9386
" />
<path d="M35.8105 30.9386
L35.8710 30.9991
" />
<path d="M35.8710 30.9991
L35.9919 31.0595
" />
<path d="M35.9919 31.0595
L36.2338 31.0595
" />
<path d="M36.2338 31.0595
L36.3548 30.9991
" />
<path d="M36.3548 30.9991
L36.4153 30.9386
" />
<path d="M36.4153 30.9386
L36.4757 30.8176
" />
<path d="M36.4757 30.8176
L36.4757 29.7895
" />
<path d="M36.8991 29.7895
L37.6248 29.7895
" />
<path d="M37.2620 31.0595
L37.2620 29.7895
" />
</g></g>
<g style="fill:none; 
stroke:#A90000; stroke-width:0.1524; stroke-opacity:1; 
stroke-linecap:round; stroke-linejoin:round;">
<text x="39.3700" y="30.2260"
textLength="1.4127" font-size="1.6933" lengthAdjust="spacingAndGlyphs"
text-anchor="middle" opacity="0" stroke-opacity="0">1</text>
<g class="stroked-text"><desc>1</desc>
<path d="M39.7329 30.0625
L39.0072 30.0625
" />
<path d="M39.3700 30.0625
L39.3700 28.7925
" />
<path d="M39.3700 28.7925
L39.2491 28.9740
" />
<path d="M39.2491 28.9740
L39.1281 29.0949
" />
<path d="M39.1281 29.0949
L39.0072 29.1554
" />
</g></g>
<g style="fill:none; 
stroke:#006464; stroke-width:0.1524; stroke-opacity:1; 
stroke-linecap:round; stroke-linejoin:round;">
<text x="42.6319" y="24.9700"
textLength="2.6827" font-size="1.6933" lengthAdjust="spacingAndGlyphs"
text-anchor="middle" opacity="0" stroke-opacity="0">D1</text>
<g class="stroked-text"><desc>D1</desc>
<path d="M41.6945 24.9145
L41.6945 23.6445
" />
<path d="M41.6945 23.6445
L41.9969 23.6445
" />
<path d="M41.9969 23.6445
L42.1783 23.7050
" />
<path d="M42.1783 23.7050
L42.2993 23.8260
" />
<path d="M42.2993 23.8260
L42.3598 23.9469
" />
<path d="M42.3598 23.9469
L42.4202 24.1888
" />
<path d="M42.4202 24.1888
L42.4202 24.3702
" />
<path d="M42.4202 24.3702
L42.3598 24.6121
" />
<path d="M42.3598 24.6121
L42.2993 24.7331
" />
<path d="M42.2993 24.7331
L42.1783 24.8541
" />
<path d="M42.1783 24.8541
L41.9969 24.9145
" />
<path d="M41.9969 24.9145
L41.6945 24.9145
" />
<path d="M43.6298 24.9145
L42.9041 24.9145
" />
<path d="M43.2669 24.9145
L43.2669 23.6445
" />
<path d="M43.2669 23.6445
L43.1460 23.8260
" />
<path d="M43.1460 23.8260
L43.0250 23.9469
" />
<path d="M43.0250 23.9469
L42.9041 24.0074
" />
</g><text x="42.6319" y="27.3943"
textLength="7.5207" font-size="1.6933" lengthAdjust="spacingAndGlyphs"
text-anchor="middle" opacity="0" stroke-opacity="0">SK6805</text>
<g class="stroked-text"><desc>SK6805</desc>
<path d="M39.2151 27.2784
L39.3965 27.3388
" />
<path d="M39.3965 27.3388
L39.6989 27.3388
" />
<path d="M39.6989 27.3388
L39.8198 27.2784
" />
<path d="M39.8198 27.2784
L39.8803 27.2179
" />
<path d="M39.8803 27.2179
L39.9408 27.0969
" />
<path d="M39.9408 27.0969
L39.9408 26.9760
" />
<path d="M39.9408 26.9760
L39.8803 26.8550
" />
<path d="M39.8803 26.8550
L39.8198 26.7945
" />
<path d="M39.8198 26.7945
L39.6989 26.7341
" />
<path d="M39.6989 26.7341
L39.4570 26.6736
" />
<path d="M39.4570 26.6736
L39.3360 26.6131
" />
<path d="M39.3360 26.6131
L39.2755 26.5526
" />
<path d="M39.2755 26.5526
L39.2151 26.4317
" />
<path d="M39.2151 26.4317
L39.2151 26.3107
" />
<path d="M39.2151 26.3107
L39.2755 26.1898
" />
<path d="M39.2755 26.1898
L39.3360 26.1293
" />
<path d="M39.3360 26.1293
L39.4570 26.0688
" />
<path d="M39.4570 26.0688
L39.7593 26.0688
" />
<path d="M39.7593 26.0688
L39.9408 26.1293
" />
<path d="M40.4850 27.3388
L40.4850 26.0688
" />
<path d="M41.2107 27.3388
L40.6665 26.6131
" />
<path d="M41.2107 26.0688
L40.4850 26.7945
" />
<path d="M42.2993 26.0688
L42.0574 26.0688
" />
<path d="M42.0574 26.0688
L41.9365 26.1293
" />
<path d="M41.9365 26.1293
L41.8760 26.1898
" />
<path d="M41.8760 26.1898
L41.7550 26.3712
" />
<path d="M41.7550 26.3712
L41.6946 26.6131
" />
<path d="M41.6946 26.6131
L41.6946 27.0969
" />
<path d="M41.6946 27.0969
L41.7550 27.2179
" />
<path d="M41.7550 27.2179
L41.8155 27.2784
" />
<path d="M41.8155 27.2784
L41.9365 27.3388
" />
<path d="M41.9365 27.3388
L42.1784 27.3388
" />
<path d="M42.1784 27.3388
L42.2993 27.2784
" />
<path d="M42.2993 27.2784
L42.3598 27.2179
" />
<path d="M42.3598 27.2179
L42.4203 27.0969
" />
<path d="M42.4203 27.0969
L42.4203 26.7945
" />
<path d="M42.4203 26.7945
L42.3598 26.6736
" />
<path d="M42.3598 26.6736
L42.2993 26.6131
" />
<path d="M42.2993 26.6131
L42.1784 26.5526
" />
<path d="M42.1784 26.5526
L41.9365 26.5526
" />
<path d="M41.9365 26.5526
L41.8155 26.6131
" />
<path d="M41.8155 26.6131
L41.7550 26.6736
" />
<path d="M41.7550 26.6736
L41.6946 26.7945
" />
<path d="M43.1460 26.6131
L43.0250 26.5526
" />
<path d="M43.0250 26.5526
L42.9645 26.4922
" />
<path d="M42.9645 26.4922
L42.9041 26.3712
" />
<path d="M42.9041 26.3712
L42.9041 26.3107
" />
<path d="M42.9041 26.3107
L42.9645 26.1898
" />
<path d="M42.9645 26.1898
L43.0250 26.1293
" />
<path d="M43.0250 26.1293
L43.1460 26.0688
" />
<path d="M43.1460 26.0688
L43.3879 26.0688
" />
<path d="M43.3879 26.0688
L43.5088 26.1293
" />
<path d="M43.5088 26.1293
L43.5693 26.1898
" />
<path d="M43.5693 26.1898
L43.6298 26.3107
" />
<path d="M43.6298 26.3107
L43.6298 26.3712
" />
<path d="M43.6298 26.3712
L43.5693 26.4922
" />
<path d="M43.5693 26.4922
L43.5088 26.5526
" />
<path d="M43.5088 26.5526
L43.3879 26.6131
" />
<path d="M43.3879 26.6131
L43.1460 26.6131
" />
<path d="M43.1460 26.6131
L43.0250 26.6736
" />
<path d="M43.0250 26.6736
L42.9645 26.7341
" />
<path d="M42.9645 26.7341
L42.9041 26.8550
" />
<path d="M42.9041 26.8550
L42.9041 27.0969
" />
<path d="M42.9041 27.0969
L42.9645 27.2179
" />
<path d="M42.9645 27.2179
L43.0250 27.2784
" />
<path d="M43.0250 27.2784
L43.1460 27.3388
" />
<path d="M43.1460 27.3388
L43.3879 27.3388
" />
<path d="M43.3879 27.3388
L43.5088 27.2784
" />
<path d="M43.5088 27.2784
L43.5693 27.2179
" />
<path d="M43.5693 27.2179
L43.6298 27.0969
" />
<path d="M43.6298 27.0969
L43.6298 26.8550
" />
<path d="M43.6298 26.8550
L43.5693 26.7341
" />
<path d="M43.5693 26.7341
L43.5088 26.6736
" />
<path d="M43.5088 26.6736
L43.3879 26.6131
" />
<path d="M44.4159 26.0688
L44.5369 26.0688
" />
<path d="M44.5369 26.0688
L44.6578 26.1293
" />
<path d="M44.6578 26.1293
L44.7183 26.1898
" />
<path d="M44.7183 26.1898
L44.7788 26.3107
" />
<path d="M44.7788 26.3107
L44.8393 26.5526
" />
<path d="M44.8393 26.5526
L44.8393 26.8550
" />
<path d="M44.8393 26.8550
L44.7788 27.0969
" />
<path d="M44.7788 27.0969
L44.7183 27.2179
" />
<path d="M44.7183 27.2179
L44.6578 27.2784
" />
<path d="M44.6578 27.2784
L44.5369 27.3388
" />
<path d="M44.5369 27.3388
L44.4159 27.3388
" />
<path d="M44.4159 27.3388
L44.2950 27.2784
" />
<path d="M44.2950 27.2784
L44.2345 27.2179
" />
<path d="M44.2345 27.2179
L44.1740 27.0969
" />
<path d="M44.1740 27.0969
L44.1136 26.8550
" />
<path d="M44.1136 26.8550
L44.1136 26.5526
" />
<path d="M44.1136 26.5526
L44.1740 26.3107
" />
<path d="M44.1740 26.3107
L44.2345 26.1898
" />
<path d="M44.2345 26.1898
L44.2950 26.1293
" />
<path d="M44.2950 26.1293
L44.4159 26.0688
" />
<path d="M45.9883 26.0688
L45.3835 26.0688
" />
<path d="M45.3835 26.0688
L45.3231 26.6736
" />
<path d="M45.3231 26.6736
L45.3835 26.6131
" />
<path d="M45.3835 26.6131
L45.5045 26.5526
" />
<path d="M45.5045 26.5526
L45.8069 26.5526
" />
<path d="M45.8069 26.5526
L45.9278 26.6131
" />
<path d="M45.9278 26.6131
L45.9883 26.6736
" />
<path d="M45.9883 26.6736
L46.0488 26.7945
" />
<path d="M46.0488 26.7945
L46.0488 27.0969
" />
<path d="M46.0488 27.0969
L45.9883 27.2179
" />
<path d="M45.9883 27.2179
L45.9278 27.2784
" />
<path d="M45.9278 27.2784
L45.8069 27.3388
" />
<path d="M45.8069 27.3388
L45.5045 27.3388
" />
<path d="M45.5045 27.3388
L45.3835 27.2784
" />
<path d="M45.3835 27.2784
L45.3231 27.2179
" />
</g><path style="fill:none; 
stroke:#840000; stroke-width:0.5080; stroke-opacity:1; 
stroke-linecap:round; stroke-linejoin:round;fill:none"
d="M 52.5780,29.7180
56.6420,29.7180
" /> 
<path style="fill:none; 
stroke:#840000; stroke-width:0.5080; stroke-opacity:1; 
stroke-linecap:round; stroke-linejoin:round;fill:none"
d="M 52.5780,31.2420
56.6420,31.2420
" /> 
</g>
<g style="fill:none; 
stroke:#840000; stroke-width:0.1524; stroke-opacity:1; 
stroke-linecap:round; stroke-linejoin:round;">
<path d="M54.6100 29.4640
L54.6100 26.6700
" />
<path d="M54.6100 31.4960
L54.6100 34.2900
" />
</g>
<g style="fill:none; 
stroke:#006464; stroke-width:0.1524; stroke-opacity:1; 
stroke-linecap:round; stroke-linejoin:round;">
<text x="59.4867" y="29.9028"
textLength="3.8922" font-size="1.6933" lengthAdjust="spacingAndGlyphs"
text-anchor="middle" opacity="0" stroke-opacity="0">C18</text>
<g class="stroked-text"><desc>C18</desc>
<path d="M58.6702 29.7264
L58.6098 29.7869
" />
<path d="M58.6098 29.7869
L58.4283 29.8473
" />
<path d="M58.4283 29.8473
L58.3074 29.8473
" />
<path d="M58.3074 29.8473
L58.1260 29.7869
" />
<path d="M58.1260 29.7869
L58.0050 29.6659
" />
<path d="M58.0050 29.6659
L57.9445 29.5449
" />
<path d="M57.9445 29.5449
L57.8841 29.3030
" />
<path d="M57.8841 29.3030
L57.8841 29.1216
" />
<path d="M57.8841 29.1216
L57.9445 28.8797
" />
<path d="M57.9445 28.8797
L58.0050 28.7588
" />
<path d="M58.0050 28.7588
L58.1260 28.6378
" />
<path d="M58.1260 28.6378
L58.3074 28.5773
" />
<path d="M58.3074 28.5773
L58.4283 28.5773
" />
<path d="M58.4283 28.5773
L58.6098 28.6378
" />
<path d="M58.6098 28.6378
L58.6702 28.6983
" />
<path d="M59.8798 29.8473
L59.1541 29.8473
" />
<path d="M59.5169 29.8473
L59.5169 28.5773
" />
<path d="M59.5169 28.5773
L59.3960 28.7588
" />
<path d="M59.3960 28.7588
L59.2750 28.8797
" />
<path d="M59.2750 28.8797
L59.1541 28.9402
" />
<path d="M60.6055 29.1216
L60.4845 29.0611
" />
<path d="M60.4845 29.0611
L60.4240 29.0007
" />
<path d="M60.4240 29.0007
L60.3636 28.8797
" />
<path d="M60.3636 28.8797
L60.3636 28.8192
" />
<path d="M60.3636 28.8192
L60.4240 28.6983
" />
<path d="M60.4240 28.6983
L60.4845 28.6378
" />
<path d="M60.4845 28.6378
L60.6055 28.5773
" />
<path d="M60.6055 28.5773
L60.8474 28.5773
" />
<path d="M60.8474 28.5773
L60.9683 28.6378
" />
<path d="M60.9683 28.6378
L61.0288 28.6983
" />
<path d="M61.0288 28.6983
L61.0893 28.8192
" />
<path d="M61.0893 28.8192
L61.0893 28.8797
" />
<path d="M61.0893 28.8797
L61.0288 29.0007
" />
<path d="M61.0288 29.0007
L60.9683 29.0611
" />
<path d="M60.9683 29.0611
L60.8474 29.1216
" />
<path d="M60.8474 29.1216
L60.6055 29.1216
" />
<path d="M60.6055 29.1216
L60.4845 29.1821
" />
<path d="M60.4845 29.1821
L60.4240 29.2426
" />
<path d="M60.4240 29.2426
L60.3636 29.3635
" />
<path d="M60.3636 29.3635
L60.3636 29.6054
" />
<path d="M60.3636 29.6054
L60.4240 29.7264
" />
<path d="M60.4240 29.7264
L60.4845 29.7869
" />
<path d="M60.4845 29.7869
L60.6055 29.8473
" />
<path d="M60.6055 29.8473
L60.8474 29.8473
" />
<path d="M60.8474 29.8473
L60.9683 29.7869
" />
<path d="M60.9683 29.7869
L61.0288 29.7264
" />
<path d="M61.0288 29.7264
L61.0893 29.6054
" />
<path d="M61.0893 29.6054
L61.0893 29.3635
" />
<path d="M61.0893 29.3635
L61.0288 29.2426
" />
<path d="M61.0288 29.2426
L60.9683 29.1821
" />
<path d="M60.9683 29.1821
L60.8474 29.1216
" />
</g><text x="60.5752" y="32.3271"
textLength="6.0693" font-size="1.6933" lengthAdjust="spacingAndGlyphs"
text-anchor="middle" opacity="0" stroke-opacity="0">100nF</text>
<g class="stroked-text"><desc>100nF</desc>
<path d="M58.6098 32.2716
L57.8841 32.2716
" />
<path d="M58.2469 32.2716
L58.2469 31.0016
" />
<path d="M58.2469 31.0016
L58.1260 31.1831
" />
<path d="M58.1260 31.1831
L58.0050 31.3040
" />
<path d="M58.0050 31.3040
L57.8841 31.3645
" />
<path d="M59.3959 31.0016
L59.5169 31.0016
" />
<path d="M59.5169 31.0016
L59.6378 31.0621
" />
<path d="M59.6378 31.0621
L59.6983 31.1226
" />
<path d="M59.6983 31.1226
L59.7588 31.2435
" />
<path d="M59.7588 31.2435
L59.8193 31.4854
" />
<path d="M59.8193 31.4854
L59.8193 31.7878
" />
<path d="M59.8193 31.7878
L59.7588 32.0297
" />
<path d="M59.7588 32.0297
L59.6983 32.1507
" />
<path d="M59.6983 32.1507
L59.6378 32.2112
" />
<path d="M59.6378 32.2112
L59.5169 32.2716
" />
<path d="M59.5169 32.2716
L59.3959 32.2716
" />
<path d="M59.3959 32.2716
L59.2750 32.2112
" />
<path d="M59.2750 32.2112
L59.2145 32.1507
" />
<path d="M59.2145 32.1507
L59.1540 32.0297
" />
<path d="M59.1540 32.0297
L59.0936 31.7878
" />
<path d="M59.0936 31.7878
L59.0936 31.4854
" />
<path d="M59.0936 31.4854
L59.1540 31.2435
" />
<path d="M59.1540 31.2435
L59.2145 31.1226
" />
<path d="M59.2145 31.1226
L59.2750 31.0621
" />
<path d="M59.2750 31.0621
L59.3959 31.0016
" />
<path d="M60.6054 31.0016
L60.7264 31.0016
" />
<path d="M60.7264 31.0016
L60.8473 31.0621
" />
<path d="M60.8473 31.0621
L60.9078 31.1226
" />
<path d="M60.9078 31.1226
L60.9683 31.2435
" />
<path d="M60.9683 31.2435
L61.0288 31.4854
" />
<path d="M61.0288 31.4854
L61.0288 31.7878
" />
<path d="M61.0288 31.7878
L60.9683 32.0297
" />
<path d="M60.9683 32.0297
L60.9078 32.1507
" />
<path d="M60.9078 32.1507
L60.8473 32.2112
" />
<path d="M60.8473 32.2112
L60.7264 32.2716
" />
<path d="M60.7264 32.2716
L60.6054 32.2716
" />
<path d="M60.6054 32.2716
L60.4845 32.2112
" />
<path d="M60.4845 32.2112
L60.4240 32.1507
" />
<path d="M60.4240 32.1507
L60.3635 32.0297
" />
<path d="M60.3635 32.0297
L60.3031 31.7878
" />
<path d="M60.3031 31.7878
L60.3031 31.4854
" />
<path d="M60.3031 31.4854
L60.3635 31.2435
" />
<path d="M60.3635 31.2435
L60.4240 31.1226
" />
<path d="M60.4240 31.1226
L60.4845 31.0621
" />
<path d="M60.4845 31.0621
L60.6054 31.0016
" />
<path d="M61.5730 31.4250
L61.5730 32.2716
" />
<path d="M61.5730 31.5459
L61.6335 31.4854
" />
<path d="M61.6335 31.4854
L61.7545 31.4250
" />
<path d="M61.7545 31.4250
L61.9359 31.4250
" />
<path d="M61.9359 31.4250
L62.0568 31.4854
" />
<path d="M62.0568 31.4854
L62.1173 31.6064
" />
<path d="M62.1173 31.6064
L62.1173 32.2716
" />
<path d="M63.1454 31.6064
L62.7220 31.6064
" />
<path d="M62.7220 32.2716
L62.7220 31.0016
" />
<path d="M62.7220 31.0016
L63.3268 31.0016
" />
</g><path style="fill:none; 
stroke:#840000; stroke-width:0.1524; stroke-opacity:1; 
stroke-linecap:round; stroke-linejoin:round;fill:none"
d="M 54.6100,38.1000
54.6100,39.3700
55.8800,39.3700
54.6100,40.6400
53.3400,39.3700
54.6100,39.3700
" /> 
</g>
<g style="fill:none; 
stroke:#006464; stroke-width:0.1524; stroke-opacity:1; 
stroke-linecap:round; stroke-linejoin:round;">
<text x="54.6100" y="42.8681"
textLength="4.0737" font-size="1.6933" lengthAdjust="spacingAndGlyphs"
text-anchor="middle" opacity="0" stroke-opacity="0">GND</text>
<g class="stroked-text"><desc>GND</desc>
<path d="M53.6424 41.6031
L53.5214 41.5426
" />
<path d="M53.5214 41.5426
L53.3400 41.5426
" />
<path d="M53.3400 41.5426
L53.1586 41.6031
" />
<path d="M53.1586 41.6031
L53.0376 41.7241
" />
<path d="M53.0376 41.7241
L52.9771 41.8450
" />
<path d="M52.9771 41.8450
L52.9167 42.0869
" />
<path d="M52.9167 42.0869
L52.9167 42.2683
" />
<path d="M52.9167 42.2683
L52.9771 42.5102
" />
<path d="M52.9771 42.5102
L53.0376 42.6312
" />
<path d="M53.0376 42.6312
L53.1586 42.7522
" />
<path d="M53.1586 42.7522
L53.3400 42.8126
" />
<path d="M53.3400 42.8126
L53.4609 42.8126
" />
<path d="M53.4609 42.8126
L53.6424 42.7522
" />
<path d="M53.6424 42.7522
L53.7028 42.6917
" />
<path d="M53.7028 42.6917
L53.7028 42.2683
" />
<path d="M53.7028 42.2683
L53.4609 42.2683
" />
<path d="M54.2471 42.8126
L54.2471 41.5426
" />
<path d="M54.2471 41.5426
L54.9728 42.8126
" />
<path d="M54.9728 42.8126
L54.9728 41.5426
" />
<path d="M55.5776 42.8126
L55.5776 41.5426
" />
<path d="M55.5776 41.5426
L55.8800 41.5426
" />
<path d="M55.8800 41.5426
L56.0614 41.6031
" />
<path d="M56.0614 41.6031
L56.1824 41.7241
" />
<path d="M56.1824 41.7241
L56.2429 41.8450
" />
<path d="M56.2429 41.8450
L56.3033 42.0869
" />
<path d="M56.3033 42.0869
L56.3033 42.2683
" />
<path d="M56.3033 42.2683
L56.2429 42.5102
" />
<path d="M56.2429 42.5102
L56.1824 42.6312
" />
<path d="M56.1824 42.6312
L56.0614 42.7522
" />
<path d="M56.0614 42.7522
L55.8800 42.8126
" />
<path d="M55.8800 42.8126
L55.5776 42.8126
" />
</g><path style="fill:none; 
stroke:#840000; stroke-width:0.1524; stroke-opacity:1; 
stroke-linecap:round; stroke-linejoin:round;fill:none"
d="M 53.8480,21.5900
54.6100,20.3200
" /> 
<path style="fill:none; 
stroke:#840000; stroke-width:0.1524; stroke-opacity:1; 
stroke-linecap:round; stroke-linejoin:round;fill:none"
d="M 54.6100,20.3200
55.3720,21.5900
" /> 
<path style="fill:none; 
stroke:#840000; stroke-width:0.1524; stroke-opacity:1; 
stroke-linecap:round; stroke-linejoin:round;fill:none"
d="M 54.6100,22.8600
54.6100,20.3200
" /> 
</g>
<g style="fill:none; 
stroke:#840000; stroke-width:0.1524; stroke-opacity:1; 
stroke-linecap:round; stroke-linejoin:round;">
<path d="M54.6100 22.8600
L54.6100 22.8600
" />
</g>
<g style="fill:none; 
stroke:#006464; stroke-width:0.1524; stroke-opacity:1; 
stroke-linecap:round; stroke-linejoin:round;">
<text x="54.6100" y="19.3619"
textLength="4.0737" font-size="1.6933" lengthAdjust="spacingAndGlyphs"
text-anchor="middle" opacity="0" stroke-opacity="0">+5V</text>
<g class="stroked-text"><desc>+5V</desc>
<path d="M52.9771 18.8226
L53.9448 18.8226
" />
<path d="M53.4609 19.3064
L53.4609 18.3388
" />
<path d="M55.1543 18.0364
L54.5495 18.0364
" />
<path d="M54.5495 18.0364
L54.4891 18.6412
" />
<path d="M54.4891 18.6412
L54.5495 18.5807
" />
<path d="M54.5495 18.5807
L54.6705 18.5202
" />
<path d="M54.6705 18.5202
L54.9729 18.5202
" />
<path d="M54.9729 18.5202
L55.0938 18.5807
" />
<path d="M55.0938 18.5807
L55.1543 18.6412
" />
<path d="M55.1543 18.6412
L55.2148 18.7621
" />
<path d="M55.2148 18.7621
L55.2148 19.0645
" />
<path d="M55.2148 19.0645
L55.1543 19.1855
" />
<path d="M55.1543 19.1855
L55.0938 19.2460
" />
<path d="M55.0938 19.2460
L54.9729 19.3064
" />
<path d="M54.9729 19.3064
L54.6705 19.3064
" />
<path d="M54.6705 19.3064
L54.5495 19.2460
" />
<path d="M54.5495 19.2460
L54.4891 19.1855
" />
<path d="M55.5776 18.0364
L56.0009 19.3064
" />
<path d="M56.0009 19.3064
L56.4243 18.0364
" />
</g></g>
<g style="fill:none; 
stroke:#725600; stroke-width:0.1524; stroke-opacity:1; 
stroke-linecap:round; stroke-linejoin:round;">
<text x="42.0116" y="31.1150"
textLength="5.1018" font-size="1.6933" lengthAdjust="spacingAndGlyphs"
text-anchor="start" opacity="0" stroke-opacity="0">DOUT</text>
<g class="stroked-text"><desc>DOUT</desc>
<path d="M42.4141 31.0595
L42.4141 29.7895
" />
<path d="M42.4141 29.7895
L42.7165 29.7895
" />
<path d="M42.7165 29.7895
L42.8979 29.8500
" />
<path d="M42.8979 29.8500
L43.0189 29.9710
" />
<path d="M43.0189 29.9710
L43.0794 30.0919
" />
<path d="M43.0794 30.0919
L43.1398 30.3338
" />
<path d="M43.1398 30.3338
L43.1398 30.5152
" />
<path d="M43.1398 30.5152
L43.0794 30.7571
" />
<path d="M43.0794 30.7571
L43.0189 30.8781
" />
<path d="M43.0189 30.8781
L42.8979 30.9991
" />
<path d="M42.8979 30.9991
L42.7165 31.0595
" />
<path d="M42.7165 31.0595
L42.4141 31.0595
" />
<path d="M43.9260 29.7895
L44.1679 29.7895
" />
<path d="M44.1679 29.7895
L44.2889 29.8500
" />
<path d="M44.2889 29.8500
L44.4098 29.9710
" />
<path d="M44.4098 29.9710
L44.4703 30.2129
" />
<path d="M44.4703 30.2129
L44.4703 30.6362
" />
<path d="M44.4703 30.6362
L44.4098 30.8781
" />
<path d="M44.4098 30.8781
L44.2889 30.9991
" />
<path d="M44.2889 30.9991
L44.1679 31.0595
" />
<path d="M44.1679 31.0595
L43.9260 31.0595
" />
<path d="M43.9260 31.0595
L43.8051 30.9991
" />
<path d="M43.8051 30.9991
L43.6841 30.8781
" />
<path d="M43.6841 30.8781
L43.6237 30.6362
" />
<path d="M43.6237 30.6362
L43.6237 30.2129
" />
<path d="M43.6237 30.2129
L43.6841 29.9710
" />
<path d="M43.6841 29.9710
L43.8051 29.8500
" />
<path d="M43.8051 29.8500
L43.9260 29.7895
" />
<path d="M45.0146 29.7895
L45.0146 30.8176
" />
<path d="M45.0146 30.8176
L45.0751 30.9386
" />
<path d="M45.0751 30.9386
L45.1356 30.9991
" />
<path d="M45.1356 30.9991
L45.2565 31.0595
" />
<path d="M45.2565 31.0595
L45.4984 31.0595
" />
<path d="M45.4984 31.0595
L45.6194 30.9991
" />
<path d="M45.6194 30.9991
L45.6799 30.9386
" />
<path d="M45.6799 30.9386
L45.7403 30.8176
" />
<path d="M45.7403 30.8176
L45.7403 29.7895
" />
<path d="M46.1637 29.7895
L46.8894 29.7895
" />
<path d="M46.5266 31.0595
L46.5266 29.7895
" />
</g><path style="fill:none; 
stroke:#725600; stroke-width:0.1524; stroke-opacity:1; 
stroke-linecap:round; stroke-linejoin:round;fill:none"
d="M 41.9100,30.4800
41.2750,29.8450
40.6400,29.8450
40.6400,31.1150
41.2750,31.1150
Z" /> 
</g>
<g style="fill:none; 
stroke:#725600; stroke-width:0.1524; stroke-opacity:1; 
stroke-linecap:round; stroke-linejoin:round;">
<text x="24.0284" y="31.1150"
textLength="3.4085" font-size="1.6933" lengthAdjust="spacingAndGlyphs"
text-anchor="end" opacity="0" stroke-opacity="0">DIN</text>
<g class="stroked-text"><desc>DIN</desc>
<path d="M21.0252 31.0595
L21.0252 29.7895
" />
<path d="M21.0252 29.7895
L21.3276 29.7895
" />
<path d="M21.3276 29.7895
L21.5090 29.8500
" />
<path d="M21.5090 29.8500
L21.6300 29.9710
" />
<path d="M21.6300 29.9710
L21.6905 30.0919
" />
<path d="M21.6905 30.0919
L21.7509 30.3338
" />
<path d="M21.7509 30.3338
L21.7509 30.5152
" />
<path d="M21.7509 30.5152
L21.6905 30.7571
" />
<path d="M21.6905 30.7571
L21.6300 30.8781
" />
<path d="M21.6300 30.8781
L21.5090 30.9991
" />
<path d="M21.5090 30.9991
L21.3276 31.0595
" />
<path d="M21.3276 31.0595
L21.0252 31.0595
" />
<path d="M22.2952 31.0595
L22.2952 29.7895
" />
<path d="M22.9000 31.0595
L22.9000 29.7895
" />
<path d="M22.9000 29.7895
L23.6257 31.0595
" />
<path d="M23.6257 31.0595
L23.6257 29.7895
" />
</g><path style="fill:none; 
stroke:#725600; stroke-width:0.1524; stroke-opacity:1; 
stroke-linecap:round; stroke-linejoin:round;fill:none"
d="M 25.4000,30.4800
24.7650,29.8450
24.1300,29.8450
24.1300,31.1150
24.7650,31.1150
Z" /> 
</g>
<g style="fill:none; 
stroke:#009600; stroke-width:0.1524; stroke-opacity:1; 
stroke-linecap:round; stroke-linejoin:round;">
<path d="M54.6100 38.1000
L33.0200 38.1000
" />
<path d="M33.0200 22.8600
L54.6100 22.8600
" />
<path d="M54.6100 22.8600
L54.6100 26.6700
" />
<path d="M54.6100 34.2900
L54.6100 38.1000
" />
</g>
<g style="fill:#009600; fill-opacity:1.0000; 
stroke:#009600; stroke-width:0.1524; stroke-opacity:1; 
stroke-linecap:round; stroke-linejoin:round;">
<circle cx="54.6100" cy="38.1000" r="0.4572" /> 
<circle cx="54.6100" cy="22.8600" r="0.4572" /> 
</g> 
</svg>
