<?xml version="1.0" encoding="UTF-8" standalone="no"?>
<!DOCTYPE svg PUBLIC "-//W3C//DTD SVG 1.1//EN" "http://www.w3.org/Graphics/SVG/1.1/DTD/svg11.dtd">
<svg width="100%" height="100%" viewBox="0 0 8 8" version="1.1" xmlns="http://www.w3.org/2000/svg" xmlns:xlink="http://www.w3.org/1999/xlink" xml:space="preserve" xmlns:serif="http://www.serif.com/" style="fill-rule:evenodd;clip-rule:evenodd;stroke-linejoin:round;stroke-miterlimit:2;">
    <g transform="matrix(1.07703,0,0,1.05814,-0.0218661,-0.0218737)">
        <path d="M7.463,1.154L7.463,6.443C7.463,7.068 6.964,7.576 6.349,7.576L1.129,7.576C0.514,7.576 0.016,7.068 0.016,6.443L0.016,1.154C0.016,0.529 0.514,0.021 1.129,0.021L6.349,0.021C6.964,0.021 7.463,0.529 7.463,1.154ZM7.286,1.154C7.286,0.627 6.866,0.2 6.349,0.2L1.129,0.2C0.612,0.2 0.192,0.628 0.192,1.154L0.192,6.443C0.192,6.969 0.612,7.397 1.129,7.397L6.349,7.397C6.866,7.397 7.286,6.969 7.286,6.443L7.286,1.154Z" style="fill:rgb(96,96,96)"/>
    </g>
    <g>
        <g>
            <path d="M4.8,3.431L4.8,6.5C4.8,6.942 4.442,7.3 4,7.3C3.558,7.3 3.2,6.942 3.2,6.5L3.2,3.431L2.066,4.566C1.753,4.878 1.247,4.878 0.934,4.566C0.622,4.253 0.622,3.747 0.934,3.434L3.434,0.934C3.666,0.702 4.012,0.639 4.306,0.761C4.403,0.801 4.491,0.86 4.566,0.934L7.066,3.434C7.378,3.747 7.378,4.253 7.066,4.566C6.753,4.878 6.247,4.878 5.934,4.566L4.8,3.431Z" style="fill:rgb(96,96,96)"/>
        </g>
    </g>
</svg>
