<?xml version="1.0" encoding="UTF-8" standalone="no"?>
<!DOCTYPE svg PUBLIC "-//W3C//DTD SVG 1.1//EN" "http://www.w3.org/Graphics/SVG/1.1/DTD/svg11.dtd">
<svg width="100%" height="100%" viewBox="0 0 8 8" version="1.1" xmlns="http://www.w3.org/2000/svg" xmlns:xlink="http://www.w3.org/1999/xlink" xml:space="preserve" xmlns:serif="http://www.serif.com/" style="fill-rule:evenodd;clip-rule:evenodd;stroke-linejoin:round;stroke-miterlimit:2;">
    <g transform="matrix(0.75,0,0,0.461538,1,1)">
        <path d="M4,2.6C4.842,0 6.526,0 7.368,1.3C8.211,2.6 8.211,5.2 7.368,7.8C6.779,9.75 5.263,11.7 4,13C2.737,11.7 1.221,9.75 0.632,7.8C-0.211,5.2 -0.211,2.6 0.632,1.3C1.474,0 3.158,0 4,2.6Z" style="fill:rgb(96,96,96)"/>
        <g transform="matrix(1.43604,0,0,2.29264,-1.36249,-2.21406)">
            <path d="M7.463,1.154L7.463,6.443C7.463,7.068 6.964,7.576 6.349,7.576L1.129,7.576C0.514,7.576 0.016,7.068 0.016,6.443L0.016,1.154C0.016,0.529 0.514,0.021 1.129,0.021L6.349,0.021C6.964,0.021 7.463,0.529 7.463,1.154ZM7.286,1.154C7.286,0.627 6.866,0.2 6.349,0.2L1.129,0.2C0.612,0.2 0.192,0.628 0.192,1.154L0.192,6.443C0.192,6.969 0.612,7.397 1.129,7.397L6.349,7.397C6.866,7.397 7.286,6.969 7.286,6.443L7.286,1.154Z" style="fill:rgb(96,96,96)"/>
        </g>
    </g>
</svg>
