<?xml version="1.0" encoding="UTF-8" standalone="no"?>
<!DOCTYPE svg PUBLIC "-//W3C//DTD SVG 1.1//EN" "http://www.w3.org/Graphics/SVG/1.1/DTD/svg11.dtd">
<svg width="100%" height="100%" viewBox="0 0 8 8" version="1.1" xmlns="http://www.w3.org/2000/svg" xmlns:xlink="http://www.w3.org/1999/xlink" xml:space="preserve" xmlns:serif="http://www.serif.com/" style="fill-rule:evenodd;clip-rule:evenodd;stroke-linejoin:round;stroke-miterlimit:2;">
    <g transform="matrix(0.015625,0,0,0.015625,0,0)">
        <path d="M458.915,307.705C458.915,370.335 404.915,399.025 367.575,399.045C325.935,399.045 294.475,380.185 275.745,364.785C278.215,415.735 290.275,452.135 344.395,480.785L167.605,480.785C221.725,452.135 233.785,415.735 236.255,364.785C217.525,380.175 186.055,399.065 144.425,399.045C107.135,399.045 53.085,370.335 53.085,307.705C53.085,193.235 133.725,224.385 255.995,31.215C378.275,224.385 458.915,193.245 458.915,307.705Z" style="fill:rgb(96,96,96);"/>
        <g transform="matrix(68.9299,0,0,67.7209,-1.39943,-1.39992)">
            <path d="M7.463,1.154L7.463,6.443C7.463,7.068 6.964,7.576 6.349,7.576L1.129,7.576C0.514,7.576 0.016,7.068 0.016,6.443L0.016,1.154C0.016,0.529 0.514,0.021 1.129,0.021L6.349,0.021C6.964,0.021 7.463,0.529 7.463,1.154ZM7.092,1.154C7.092,0.737 6.759,0.399 6.349,0.399L1.129,0.399C0.719,0.399 0.387,0.738 0.387,1.154L0.387,6.443C0.387,6.859 0.719,7.198 1.129,7.198L6.349,7.198C6.759,7.198 7.092,6.86 7.092,6.443L7.092,1.154Z" style="fill:rgb(96,96,96);"/>
        </g>
    </g>
</svg>
