<?xml version="1.0" encoding="UTF-8" standalone="no"?>
<!DOCTYPE svg PUBLIC "-//W3C//DTD SVG 1.1//EN" "http://www.w3.org/Graphics/SVG/1.1/DTD/svg11.dtd">
<svg width="100%" height="100%" viewBox="0 0 8 8" version="1.1" xmlns="http://www.w3.org/2000/svg" xmlns:xlink="http://www.w3.org/1999/xlink" xml:space="preserve" xmlns:serif="http://www.serif.com/" style="fill-rule:evenodd;clip-rule:evenodd;stroke-linejoin:round;stroke-miterlimit:2;">
    <g transform="matrix(1.07703,0,0,1.05814,-0.0218661,-0.0218737)">
        <path d="M7.463,1.154C7.463,0.529 6.964,0.021 6.349,0.021L1.129,0.021C0.514,0.021 0.016,0.529 0.016,1.154L0.016,6.443C0.016,7.068 0.514,7.576 1.129,7.576L6.349,7.576C6.964,7.576 7.463,7.068 7.463,6.443L7.463,1.154Z" style="fill:none;"/>
        <g>
            <clipPath id="_clip1">
                <path d="M7.463,1.154C7.463,0.529 6.964,0.021 6.349,0.021L1.129,0.021C0.514,0.021 0.016,0.529 0.016,1.154L0.016,6.443C0.016,7.068 0.514,7.576 1.129,7.576L6.349,7.576C6.964,7.576 7.463,7.068 7.463,6.443L7.463,1.154Z"/>
            </clipPath>
            <g clip-path="url(#_clip1)">
                <g transform="matrix(0.928479,0,0,0.945055,0.0203022,0.0206718)">
                    <path d="M0,8L8,0L8,8L0,8Z" style="fill:rgb(96,96,96);"/>
                </g>
            </g>
        </g>
        <path d="M7.463,1.154L7.463,6.443C7.463,7.068 6.964,7.576 6.349,7.576L1.129,7.576C0.514,7.576 0.016,7.068 0.016,6.443L0.016,1.154C0.016,0.529 0.514,0.021 1.129,0.021L6.349,0.021C6.964,0.021 7.463,0.529 7.463,1.154ZM7.092,1.154C7.092,0.737 6.759,0.399 6.349,0.399L1.129,0.399C0.719,0.399 0.387,0.738 0.387,1.154L0.387,6.443C0.387,6.859 0.719,7.198 1.129,7.198L6.349,7.198C6.759,7.198 7.092,6.86 7.092,6.443L7.092,1.154Z" style="fill:rgb(96,96,96);"/>
    </g>
</svg>
