<?xml version="1.0" encoding="UTF-8" standalone="no"?>
<!DOCTYPE svg PUBLIC "-//W3C//DTD SVG 1.1//EN" "http://www.w3.org/Graphics/SVG/1.1/DTD/svg11.dtd">
<svg width="100%" height="100%" viewBox="0 0 8 8" version="1.1" xmlns="http://www.w3.org/2000/svg" xmlns:xlink="http://www.w3.org/1999/xlink" xml:space="preserve" xmlns:serif="http://www.serif.com/" style="fill-rule:evenodd;clip-rule:evenodd;stroke-linejoin:round;stroke-miterlimit:2;">
    <g transform="matrix(1.07703,0,0,1.05814,-0.0218661,-0.0218737)">
        <path d="M7.463,1.154C7.463,0.529 6.964,0.021 6.349,0.021L1.129,0.021C0.514,0.021 0.016,0.529 0.016,1.154L0.016,6.443C0.016,7.068 0.514,7.576 1.129,7.576L6.349,7.576C6.964,7.576 7.463,7.068 7.463,6.443L7.463,1.154Z" style="fill:none;"/>
        <g>
            <clipPath id="_clip1">
                <path d="M7.463,1.154C7.463,0.529 6.964,0.021 6.349,0.021L1.129,0.021C0.514,0.021 0.016,0.529 0.016,1.154L0.016,6.443C0.016,7.068 0.514,7.576 1.129,7.576L6.349,7.576C6.964,7.576 7.463,7.068 7.463,6.443L7.463,1.154Z"/>
            </clipPath>
            <g clip-path="url(#_clip1)">
                <g transform="matrix(0.928479,0,0,1.89011,0.0203022,3.80089)">
                    <rect x="0" y="0" width="8" height="2" style="fill:rgb(96,96,96);"/>
                </g>
            </g>
        </g>
        <path d="M7.463,1.154L7.463,6.443C7.463,7.068 6.964,7.576 6.349,7.576L1.129,7.576C0.514,7.576 0.016,7.068 0.016,6.443L0.016,1.154C0.016,0.529 0.514,0.021 1.129,0.021L6.349,0.021C6.964,0.021 7.463,0.529 7.463,1.154ZM7.123,1.154C7.123,0.72 6.776,0.368 6.349,0.368L1.129,0.368C0.702,0.368 0.356,0.72 0.356,1.154L0.356,6.443C0.356,6.877 0.702,7.229 1.129,7.229L6.349,7.229C6.776,7.229 7.123,6.877 7.123,6.443L7.123,1.154Z" style="fill:rgb(96,96,96);"/>
    </g>
</svg>
