<?xml version="1.0" encoding="UTF-8" standalone="no"?>
<!DOCTYPE svg PUBLIC "-//W3C//DTD SVG 1.1//EN" "http://www.w3.org/Graphics/SVG/1.1/DTD/svg11.dtd">
<svg width="100%" height="100%" viewBox="0 0 151 151" version="1.1" xmlns="http://www.w3.org/2000/svg" xmlns:xlink="http://www.w3.org/1999/xlink" xml:space="preserve" xmlns:serif="http://www.serif.com/" style="fill-rule:evenodd;clip-rule:evenodd;stroke-linejoin:round;stroke-miterlimit:2;">
    <g transform="matrix(0.24,0,0,0.24,0,0)">
        <g id="R">
        </g>
        <g id="E" transform="matrix(1,0,0,1,440.551,426.378)">
            <g id="Global-background" serif:id="Global background" transform="matrix(3.19882,0,0,2.88209,-351.23,-381.554)">
                <path d="M119.769,160.665C119.769,157.404 120.936,154.277 123.014,151.971C125.091,149.666 127.908,148.37 130.846,148.37L156.692,148.37C159.63,148.37 162.448,149.666 164.525,151.971C166.602,154.277 167.769,157.404 167.769,160.665L167.769,189.351C167.769,192.612 166.602,195.739 164.525,198.044C162.448,200.35 159.63,201.645 156.692,201.645L130.846,201.645C127.908,201.645 125.091,200.35 123.014,198.044C120.936,195.739 119.769,192.612 119.769,189.351L119.769,160.665Z" style="fill:rgb(230,230,230);"/>
            </g>
            <g id="Bottom-background" serif:id="Bottom background" transform="matrix(3.19882,0,0,2.88209,-351.23,-381.554)">
                <path d="M156.614,151.649C158.769,151.649 160.835,152.599 162.358,154.289C163.882,155.98 164.737,158.273 164.737,160.665L164.737,189.351C164.737,191.742 163.882,194.035 162.358,195.726C160.835,197.417 158.769,198.367 156.614,198.367L130.895,198.367C128.741,198.367 126.675,197.417 125.151,195.726C123.628,194.035 122.772,191.742 122.772,189.351L122.772,160.665C122.772,158.273 123.628,155.98 125.151,154.289C126.675,152.599 128.741,151.649 130.895,151.649L156.614,151.649Z" style="fill:rgb(92,60,28);"/>
            </g>
            <g id="Glyph" transform="matrix(1,0,0,1,-1.23425,27.2867)">
                <g transform="matrix(75,0,0,75,86.1582,122.173)">
                    <path d="M0.092,-0L0.092,-0.71L0.538,-0.71L0.538,-0.626L0.178,-0.626L0.178,-0.397L0.526,-0.397L0.526,-0.315L0.178,-0.315L0.178,-0.084L0.546,-0.084L0.546,-0L0.092,-0Z" style="fill:rgb(230,230,230);fill-rule:nonzero;"/>
                </g>
            </g>
        </g>
        <g id="W" transform="matrix(1,0,0,1,204.331,426.378)">
            <g id="Global-background1" serif:id="Global background" transform="matrix(3.19882,0,0,2.88209,-351.23,-381.554)">
                <path d="M119.769,160.665C119.769,157.404 120.936,154.277 123.014,151.971C125.091,149.666 127.908,148.37 130.846,148.37L156.692,148.37C159.63,148.37 162.448,149.666 164.525,151.971C166.602,154.277 167.769,157.404 167.769,160.665L167.769,189.351C167.769,192.612 166.602,195.739 164.525,198.044C162.448,200.35 159.63,201.645 156.692,201.645L130.846,201.645C127.908,201.645 125.091,200.35 123.014,198.044C120.936,195.739 119.769,192.612 119.769,189.351L119.769,160.665Z" style="fill:rgb(230,230,230);"/>
            </g>
            <g id="Bottom-background1" serif:id="Bottom background" transform="matrix(3.19882,0,0,2.88209,-351.23,-381.554)">
                <path d="M156.614,151.649C158.769,151.649 160.835,152.599 162.358,154.289C163.882,155.98 164.737,158.273 164.737,160.665L164.737,189.351C164.737,191.742 163.882,194.035 162.358,195.726C160.835,197.417 158.769,198.367 156.614,198.367L130.895,198.367C128.741,198.367 126.675,197.417 125.151,195.726C123.628,194.035 122.772,191.742 122.772,189.351L122.772,160.665C122.772,158.273 123.628,155.98 125.151,154.289C126.675,152.599 128.741,151.649 130.895,151.649L156.614,151.649Z" style="fill:rgb(92,60,28);"/>
            </g>
            <g id="Glyph1" serif:id="Glyph" transform="matrix(1,0,0,1,-0.109252,27.2867)">
                <g transform="matrix(75,0,0,75,73.3332,122.173)">
                    <path d="M0.225,-0L0.038,-0.71L0.132,-0.71L0.278,-0.118L0.423,-0.71L0.521,-0.71L0.667,-0.118L0.812,-0.71L0.907,-0.71L0.72,-0L0.612,-0L0.472,-0.55L0.332,-0L0.225,-0Z" style="fill:rgb(230,230,230);fill-rule:nonzero;"/>
                </g>
            </g>
        </g>
        <g id="Q" transform="matrix(1,0,0,1,-31.8898,426.378)">
            <g id="Global-background2" serif:id="Global background" transform="matrix(3.19882,0,0,2.88209,-351.23,-381.554)">
                <path d="M119.769,160.665C119.769,157.404 120.936,154.277 123.014,151.971C125.091,149.666 127.908,148.37 130.846,148.37L156.692,148.37C159.63,148.37 162.448,149.666 164.525,151.971C166.602,154.277 167.769,157.404 167.769,160.665L167.769,189.351C167.769,192.612 166.602,195.739 164.525,198.044C162.448,200.35 159.63,201.645 156.692,201.645L130.846,201.645C127.908,201.645 125.091,200.35 123.014,198.044C120.936,195.739 119.769,192.612 119.769,189.351L119.769,160.665Z" style="fill:rgb(230,230,230);"/>
            </g>
            <g id="Bottom-background2" serif:id="Bottom background" transform="matrix(3.19882,0,0,2.88209,-351.23,-381.554)">
                <path d="M156.614,151.649C158.769,151.649 160.835,152.599 162.358,154.289C163.882,155.98 164.737,158.273 164.737,160.665L164.737,189.351C164.737,191.742 163.882,194.035 162.358,195.726C160.835,197.417 158.769,198.367 156.614,198.367L130.895,198.367C128.741,198.367 126.675,197.417 125.151,195.726C123.628,194.035 122.772,191.742 122.772,189.351L122.772,160.665C122.772,158.273 123.628,155.98 125.151,154.289C126.675,152.599 128.741,151.649 130.895,151.649L156.614,151.649Z" style="fill:rgb(92,60,28);"/>
            </g>
            <g id="Glyph2" serif:id="Glyph" transform="matrix(1,0,0,1,-0.109252,27.2867)">
                <g transform="matrix(75,0,0,75,81.2832,122.173)">
                    <path d="M0.548,0.069L0.489,-0.007C0.473,-0 0.454,0.005 0.433,0.01C0.412,0.014 0.389,0.016 0.366,0.016C0.298,0.016 0.24,-0.001 0.193,-0.034C0.145,-0.067 0.108,-0.111 0.083,-0.167C0.058,-0.223 0.045,-0.285 0.045,-0.354C0.045,-0.423 0.057,-0.486 0.083,-0.542C0.108,-0.598 0.144,-0.643 0.192,-0.676C0.24,-0.709 0.298,-0.726 0.366,-0.726C0.435,-0.726 0.494,-0.709 0.542,-0.676C0.59,-0.643 0.626,-0.598 0.651,-0.542C0.676,-0.486 0.688,-0.423 0.688,-0.354C0.688,-0.289 0.676,-0.229 0.653,-0.174C0.63,-0.119 0.596,-0.075 0.552,-0.042L0.64,0.069L0.548,0.069ZM0.366,-0.068C0.381,-0.068 0.394,-0.069 0.405,-0.071C0.416,-0.072 0.426,-0.075 0.435,-0.079L0.332,-0.208L0.424,-0.208L0.5,-0.108C0.533,-0.134 0.557,-0.168 0.574,-0.21C0.59,-0.251 0.598,-0.299 0.598,-0.354C0.598,-0.407 0.59,-0.455 0.573,-0.498C0.556,-0.541 0.53,-0.576 0.496,-0.603C0.461,-0.629 0.418,-0.642 0.366,-0.642C0.314,-0.642 0.271,-0.629 0.237,-0.603C0.203,-0.576 0.178,-0.541 0.161,-0.498C0.143,-0.455 0.135,-0.407 0.135,-0.354C0.135,-0.302 0.143,-0.254 0.161,-0.211C0.178,-0.168 0.203,-0.133 0.238,-0.107C0.272,-0.081 0.315,-0.068 0.366,-0.068Z" style="fill:rgb(230,230,230);fill-rule:nonzero;"/>
                </g>
            </g>
        </g>
        <g id="Break" transform="matrix(1,0,0,1,440.551,190.157)">
            <g id="Global-background3" serif:id="Global background" transform="matrix(3.19882,0,0,2.88209,-351.23,-381.554)">
                <path d="M119.769,160.665C119.769,157.404 120.936,154.277 123.014,151.971C125.091,149.666 127.908,148.37 130.846,148.37L156.692,148.37C159.63,148.37 162.448,149.666 164.525,151.971C166.602,154.277 167.769,157.404 167.769,160.665L167.769,189.351C167.769,192.612 166.602,195.739 164.525,198.044C162.448,200.35 159.63,201.645 156.692,201.645L130.846,201.645C127.908,201.645 125.091,200.35 123.014,198.044C120.936,195.739 119.769,192.612 119.769,189.351L119.769,160.665Z" style="fill:rgb(230,230,230);"/>
            </g>
            <g id="Bottom-background3" serif:id="Bottom background" transform="matrix(3.19882,0,0,2.88209,-351.23,-381.554)">
                <path d="M156.614,151.649C158.769,151.649 160.835,152.599 162.358,154.289C163.882,155.98 164.737,158.273 164.737,160.665L164.737,189.351C164.737,191.742 163.882,194.035 162.358,195.726C160.835,197.417 158.769,198.367 156.614,198.367L130.895,198.367C128.741,198.367 126.675,197.417 125.151,195.726C123.628,194.035 122.772,191.742 122.772,189.351L122.772,160.665C122.772,158.273 123.628,155.98 125.151,154.289C126.675,152.599 128.741,151.649 130.895,151.649L156.614,151.649Z" style="fill:rgb(92,60,28);"/>
            </g>
            <g id="Glyph3" serif:id="Glyph" transform="matrix(1,0,0,1,-45.2676,12.4951)">
                <g transform="matrix(33.3333,0,0,33.3333,98.6457,122.173)">
                    <path d="M0.092,-0L0.092,-0.71L0.336,-0.71C0.42,-0.71 0.483,-0.695 0.525,-0.664C0.567,-0.633 0.588,-0.585 0.588,-0.519C0.588,-0.488 0.581,-0.461 0.568,-0.438C0.555,-0.415 0.536,-0.397 0.511,-0.384C0.486,-0.371 0.457,-0.364 0.423,-0.364L0.422,-0.37C0.483,-0.37 0.531,-0.354 0.566,-0.322C0.6,-0.289 0.618,-0.247 0.618,-0.195C0.618,-0.13 0.597,-0.082 0.555,-0.049C0.513,-0.016 0.453,-0 0.376,-0L0.092,-0ZM0.178,-0.084L0.376,-0.084C0.425,-0.084 0.462,-0.094 0.489,-0.114C0.515,-0.134 0.528,-0.163 0.528,-0.2C0.528,-0.237 0.515,-0.267 0.489,-0.288C0.462,-0.309 0.425,-0.319 0.376,-0.319L0.178,-0.319L0.178,-0.084ZM0.178,-0.403L0.336,-0.403C0.388,-0.403 0.428,-0.413 0.456,-0.433C0.484,-0.452 0.498,-0.48 0.498,-0.515C0.498,-0.552 0.485,-0.58 0.458,-0.599C0.431,-0.617 0.39,-0.626 0.336,-0.626L0.178,-0.626L0.178,-0.403Z" style="fill:rgb(230,230,230);fill-rule:nonzero;"/>
                </g>
                <g transform="matrix(33.3333,0,0,33.3333,121.046,122.173)">
                    <path d="M0.092,-0L0.092,-0.71L0.361,-0.71C0.411,-0.71 0.454,-0.701 0.49,-0.684C0.526,-0.667 0.554,-0.642 0.574,-0.61C0.593,-0.577 0.603,-0.539 0.603,-0.495C0.603,-0.463 0.596,-0.435 0.581,-0.41C0.566,-0.385 0.546,-0.365 0.523,-0.35C0.5,-0.335 0.475,-0.327 0.45,-0.326L0.444,-0.335C0.487,-0.335 0.522,-0.325 0.547,-0.305C0.572,-0.285 0.586,-0.253 0.59,-0.209L0.61,-0L0.523,-0L0.505,-0.2C0.502,-0.229 0.492,-0.251 0.474,-0.265C0.455,-0.279 0.425,-0.286 0.384,-0.286L0.178,-0.286L0.178,-0L0.092,-0ZM0.178,-0.37L0.372,-0.37C0.415,-0.37 0.45,-0.381 0.475,-0.403C0.5,-0.425 0.513,-0.456 0.513,-0.497C0.513,-0.538 0.5,-0.57 0.474,-0.593C0.448,-0.615 0.41,-0.626 0.361,-0.626L0.178,-0.626L0.178,-0.37Z" style="fill:rgb(230,230,230);fill-rule:nonzero;"/>
                </g>
                <g transform="matrix(33.3333,0,0,33.3333,143.446,122.173)">
                    <path d="M0.092,-0L0.092,-0.71L0.538,-0.71L0.538,-0.626L0.178,-0.626L0.178,-0.397L0.526,-0.397L0.526,-0.315L0.178,-0.315L0.178,-0.084L0.546,-0.084L0.546,-0L0.092,-0Z" style="fill:rgb(230,230,230);fill-rule:nonzero;"/>
                </g>
                <g transform="matrix(33.3333,0,0,33.3333,163.546,122.173)">
                    <path d="M0.02,-0L0.276,-0.71L0.392,-0.71L0.648,-0L0.554,-0L0.483,-0.202L0.185,-0.202L0.114,-0L0.02,-0ZM0.214,-0.286L0.454,-0.286L0.334,-0.635L0.214,-0.286Z" style="fill:rgb(230,230,230);fill-rule:nonzero;"/>
                </g>
                <g transform="matrix(33.3333,0,0,33.3333,185.312,122.173)">
                    <path d="M0.092,-0L0.092,-0.71L0.178,-0.71L0.178,-0.357L0.497,-0.71L0.606,-0.71L0.328,-0.402L0.625,-0L0.52,-0L0.27,-0.338L0.178,-0.237L0.178,-0L0.092,-0Z" style="fill:rgb(230,230,230);fill-rule:nonzero;"/>
                </g>
            </g>
        </g>
        <g id="Delete---Back-s" serif:id="Delete - Back s" transform="matrix(1,0,0,1,-8.26772,190.157)">
            <g id="Global-background4" serif:id="Global background" transform="matrix(3.19882,0,0,2.88209,-138.632,-381.554)">
                <path d="M119.769,160.665C119.769,157.404 120.936,154.277 123.014,151.971C125.091,149.666 127.908,148.37 130.846,148.37L156.692,148.37C159.63,148.37 162.448,149.666 164.525,151.971C166.602,154.277 167.769,157.404 167.769,160.665L167.769,189.351C167.769,192.612 166.602,195.739 164.525,198.044C162.448,200.35 159.63,201.645 156.692,201.645L130.846,201.645C127.908,201.645 125.091,200.35 123.014,198.044C120.936,195.739 119.769,192.612 119.769,189.351L119.769,160.665Z" style="fill:rgb(230,230,230);"/>
            </g>
            <g id="Bottom-background4" serif:id="Bottom background" transform="matrix(3.19882,0,0,2.88209,-138.632,-381.554)">
                <path d="M163.63,176.259C164.241,176.259 164.737,176.809 164.737,177.488C164.737,179.758 164.737,184.794 164.737,189.351C164.737,191.742 163.882,194.035 162.358,195.726C160.835,197.417 158.769,198.367 156.614,198.367L130.895,198.367C128.741,198.367 126.675,197.417 125.151,195.726C123.628,194.035 122.772,191.742 122.772,189.351L122.772,177.488C122.772,176.809 123.268,176.259 123.88,176.259C129.805,176.259 157.705,176.259 163.63,176.259Z" style="fill:rgb(92,60,28);"/>
            </g>
            <g id="Top-background" serif:id="Top background" transform="matrix(3.19882,0,0,2.88209,-138.632,-381.554)">
                <path d="M163.708,173.259C164.001,173.259 164.283,173.129 164.491,172.898C164.699,172.668 164.815,172.355 164.815,172.029C164.815,169.831 164.815,165.046 164.815,160.665C164.815,158.273 163.96,155.98 162.436,154.289C160.913,152.599 158.847,151.649 156.692,151.649L130.846,151.649C128.692,151.649 126.626,152.599 125.102,154.289C123.579,155.98 122.723,158.273 122.723,160.665L122.723,172.029C122.723,172.355 122.84,172.668 123.048,172.898C123.255,173.129 123.537,173.259 123.831,173.259C129.768,173.259 157.771,173.259 163.708,173.259Z" style="fill:rgb(187,101,43);"/>
            </g>
            <g id="Bottom-glyph" serif:id="Bottom glyph" transform="matrix(1,0,0,1,-78.401,-6.99593)">
                <g transform="matrix(33.3333,0,0,33.3333,340.328,177.097)">
                    <path d="M0.092,-0L0.092,-0.71L0.336,-0.71C0.42,-0.71 0.483,-0.695 0.525,-0.664C0.567,-0.633 0.588,-0.585 0.588,-0.519C0.588,-0.488 0.581,-0.461 0.568,-0.438C0.555,-0.415 0.536,-0.397 0.511,-0.384C0.486,-0.371 0.457,-0.364 0.423,-0.364L0.422,-0.37C0.483,-0.37 0.531,-0.354 0.566,-0.322C0.6,-0.289 0.618,-0.247 0.618,-0.195C0.618,-0.13 0.597,-0.082 0.555,-0.049C0.513,-0.016 0.453,-0 0.376,-0L0.092,-0ZM0.178,-0.084L0.376,-0.084C0.425,-0.084 0.462,-0.094 0.489,-0.114C0.515,-0.134 0.528,-0.163 0.528,-0.2C0.528,-0.237 0.515,-0.267 0.489,-0.288C0.462,-0.309 0.425,-0.319 0.376,-0.319L0.178,-0.319L0.178,-0.084ZM0.178,-0.403L0.336,-0.403C0.388,-0.403 0.428,-0.413 0.456,-0.433C0.484,-0.452 0.498,-0.48 0.498,-0.515C0.498,-0.552 0.485,-0.58 0.458,-0.599C0.431,-0.617 0.39,-0.626 0.336,-0.626L0.178,-0.626L0.178,-0.403Z" style="fill:rgb(230,230,230);fill-rule:nonzero;"/>
                </g>
                <g transform="matrix(33.3333,0,0,33.3333,362.394,177.097)">
                    <path d="M0.02,-0L0.276,-0.71L0.392,-0.71L0.648,-0L0.554,-0L0.483,-0.202L0.185,-0.202L0.114,-0L0.02,-0ZM0.214,-0.286L0.454,-0.286L0.334,-0.635L0.214,-0.286Z" style="fill:rgb(230,230,230);fill-rule:nonzero;"/>
                </g>
                <g transform="matrix(33.3333,0,0,33.3333,383.661,177.097)">
                    <path d="M0.364,0.016C0.301,0.016 0.245,0.001 0.197,-0.029C0.149,-0.058 0.112,-0.101 0.085,-0.156C0.058,-0.211 0.045,-0.277 0.045,-0.354C0.045,-0.431 0.058,-0.497 0.085,-0.553C0.112,-0.608 0.149,-0.651 0.197,-0.681C0.245,-0.711 0.301,-0.726 0.364,-0.726C0.45,-0.726 0.517,-0.704 0.564,-0.661C0.611,-0.618 0.642,-0.559 0.657,-0.484L0.566,-0.478C0.556,-0.529 0.535,-0.569 0.502,-0.598C0.469,-0.627 0.423,-0.642 0.364,-0.642C0.319,-0.642 0.279,-0.631 0.245,-0.608C0.21,-0.585 0.183,-0.552 0.164,-0.509C0.145,-0.466 0.135,-0.414 0.135,-0.354C0.135,-0.294 0.145,-0.243 0.164,-0.2C0.183,-0.157 0.21,-0.125 0.245,-0.102C0.279,-0.079 0.319,-0.068 0.364,-0.068C0.426,-0.068 0.474,-0.084 0.508,-0.117C0.542,-0.149 0.563,-0.193 0.572,-0.248L0.663,-0.242C0.654,-0.191 0.637,-0.146 0.612,-0.107C0.587,-0.068 0.553,-0.038 0.512,-0.017C0.47,0.005 0.421,0.016 0.364,0.016Z" style="fill:rgb(230,230,230);fill-rule:nonzero;"/>
                </g>
                <g transform="matrix(33.3333,0,0,33.3333,406.761,177.097)">
                    <path d="M0.092,-0L0.092,-0.71L0.178,-0.71L0.178,-0.357L0.497,-0.71L0.606,-0.71L0.328,-0.402L0.625,-0L0.52,-0L0.27,-0.338L0.178,-0.237L0.178,-0L0.092,-0Z" style="fill:rgb(230,230,230);fill-rule:nonzero;"/>
                </g>
                <g transform="matrix(33.3333,0,0,33.3333,436.428,177.097)">
                    <path d="M0.336,0.016C0.281,0.016 0.234,0.006 0.193,-0.015C0.152,-0.036 0.12,-0.064 0.097,-0.101C0.073,-0.137 0.059,-0.179 0.055,-0.227L0.145,-0.233C0.15,-0.198 0.16,-0.168 0.176,-0.143C0.192,-0.118 0.214,-0.1 0.241,-0.087C0.268,-0.074 0.3,-0.068 0.338,-0.068C0.371,-0.068 0.4,-0.072 0.423,-0.081C0.446,-0.09 0.464,-0.102 0.477,-0.119C0.489,-0.136 0.495,-0.156 0.495,-0.18C0.495,-0.202 0.49,-0.222 0.48,-0.239C0.469,-0.256 0.45,-0.271 0.421,-0.286C0.392,-0.3 0.349,-0.314 0.292,-0.328C0.237,-0.342 0.194,-0.357 0.162,-0.374C0.129,-0.391 0.106,-0.411 0.092,-0.435C0.077,-0.459 0.07,-0.489 0.07,-0.524C0.07,-0.564 0.08,-0.599 0.099,-0.63C0.118,-0.66 0.145,-0.684 0.18,-0.701C0.215,-0.717 0.257,-0.726 0.306,-0.726C0.358,-0.726 0.403,-0.716 0.44,-0.697C0.477,-0.677 0.507,-0.65 0.529,-0.616C0.551,-0.582 0.565,-0.543 0.57,-0.5L0.48,-0.494C0.476,-0.523 0.467,-0.548 0.453,-0.571C0.438,-0.593 0.419,-0.61 0.394,-0.623C0.369,-0.636 0.339,-0.642 0.304,-0.642C0.26,-0.642 0.225,-0.632 0.199,-0.611C0.173,-0.59 0.16,-0.562 0.16,-0.528C0.16,-0.506 0.165,-0.488 0.176,-0.474C0.186,-0.459 0.204,-0.447 0.231,-0.436C0.258,-0.424 0.296,-0.413 0.346,-0.4C0.405,-0.385 0.452,-0.368 0.488,-0.348C0.523,-0.327 0.548,-0.304 0.563,-0.277C0.578,-0.25 0.585,-0.22 0.585,-0.186C0.585,-0.145 0.574,-0.109 0.553,-0.079C0.532,-0.048 0.502,-0.025 0.465,-0.009C0.428,0.008 0.385,0.016 0.336,0.016Z" style="fill:rgb(230,230,230);fill-rule:nonzero;"/>
                </g>
            </g>
            <g id="Top-glyph" serif:id="Top glyph" transform="matrix(1,0,0,1,-88.599,-14.1982)">
                <g transform="matrix(33.3333,0,0,33.3333,350.192,112.252)">
                    <path d="M0.092,-0L0.092,-0.71L0.312,-0.71C0.421,-0.71 0.506,-0.679 0.565,-0.618C0.624,-0.556 0.653,-0.468 0.653,-0.354C0.653,-0.241 0.624,-0.153 0.566,-0.092C0.508,-0.031 0.425,-0 0.318,-0L0.092,-0ZM0.178,-0.084L0.312,-0.084C0.395,-0.084 0.458,-0.107 0.5,-0.152C0.542,-0.197 0.563,-0.264 0.563,-0.354C0.563,-0.445 0.542,-0.514 0.5,-0.559C0.458,-0.604 0.395,-0.626 0.312,-0.626L0.178,-0.626L0.178,-0.084Z" style="fill:rgb(230,230,230);fill-rule:nonzero;"/>
                </g>
                <g transform="matrix(33.3333,0,0,33.3333,372.992,112.252)">
                    <path d="M0.092,-0L0.092,-0.71L0.538,-0.71L0.538,-0.626L0.178,-0.626L0.178,-0.397L0.526,-0.397L0.526,-0.315L0.178,-0.315L0.178,-0.084L0.546,-0.084L0.546,-0L0.092,-0Z" style="fill:rgb(230,230,230);fill-rule:nonzero;"/>
                </g>
                <g transform="matrix(33.3333,0,0,33.3333,393.092,112.252)">
                    <path d="M0.092,-0L0.092,-0.71L0.178,-0.71L0.178,-0.04L0.135,-0.084L0.533,-0.084L0.533,-0L0.092,-0Z" style="fill:rgb(230,230,230);fill-rule:nonzero;"/>
                </g>
                <g transform="matrix(33.3333,0,0,33.3333,410.759,112.252)">
                    <path d="M0.092,-0L0.092,-0.71L0.538,-0.71L0.538,-0.626L0.178,-0.626L0.178,-0.397L0.526,-0.397L0.526,-0.315L0.178,-0.315L0.178,-0.084L0.546,-0.084L0.546,-0L0.092,-0Z" style="fill:rgb(230,230,230);fill-rule:nonzero;"/>
                </g>
                <g transform="matrix(33.3333,0,0,33.3333,430.859,112.252)">
                    <path d="M0.233,-0L0.233,-0.626L0.012,-0.626L0.012,-0.71L0.54,-0.71L0.54,-0.626L0.319,-0.626L0.319,-0L0.233,-0Z" style="fill:rgb(230,230,230);fill-rule:nonzero;"/>
                </g>
                <g transform="matrix(33.3333,0,0,33.3333,448.259,112.252)">
                    <path d="M0.092,-0L0.092,-0.71L0.538,-0.71L0.538,-0.626L0.178,-0.626L0.178,-0.397L0.526,-0.397L0.526,-0.315L0.178,-0.315L0.178,-0.084L0.546,-0.084L0.546,-0L0.092,-0Z" style="fill:rgb(230,230,230);fill-rule:nonzero;"/>
                </g>
            </g>
        </g>
        <g id="_--Insert" serif:id="&gt;-Insert" transform="matrix(1,0,0,1,-244.488,190.157)">
            <g id="Global-background5" serif:id="Global background" transform="matrix(3.19882,0,0,2.88209,-138.632,-381.554)">
                <path d="M119.769,160.665C119.769,157.404 120.936,154.277 123.014,151.971C125.091,149.666 127.908,148.37 130.846,148.37L156.692,148.37C159.63,148.37 162.448,149.666 164.525,151.971C166.602,154.277 167.769,157.404 167.769,160.665L167.769,189.351C167.769,192.612 166.602,195.739 164.525,198.044C162.448,200.35 159.63,201.645 156.692,201.645L130.846,201.645C127.908,201.645 125.091,200.35 123.014,198.044C120.936,195.739 119.769,192.612 119.769,189.351L119.769,160.665Z" style="fill:rgb(230,230,230);"/>
            </g>
            <g id="Bottom-background5" serif:id="Bottom background" transform="matrix(3.19882,0,0,2.88209,-138.632,-381.554)">
                <path d="M163.63,176.259C164.241,176.259 164.737,176.809 164.737,177.488C164.737,179.758 164.737,184.794 164.737,189.351C164.737,191.742 163.882,194.035 162.358,195.726C160.835,197.417 158.769,198.367 156.614,198.367L130.895,198.367C128.741,198.367 126.675,197.417 125.151,195.726C123.628,194.035 122.772,191.742 122.772,189.351L122.772,177.488C122.772,176.809 123.268,176.259 123.88,176.259C129.805,176.259 157.705,176.259 163.63,176.259Z" style="fill:rgb(92,60,28);"/>
            </g>
            <g id="Top-background1" serif:id="Top background" transform="matrix(3.19882,0,0,2.88209,-138.632,-381.554)">
                <path d="M163.708,173.259C164.001,173.259 164.283,173.129 164.491,172.898C164.699,172.668 164.815,172.355 164.815,172.029C164.815,169.831 164.815,165.046 164.815,160.665C164.815,158.273 163.96,155.98 162.436,154.289C160.913,152.599 158.847,151.649 156.692,151.649L130.846,151.649C128.692,151.649 126.626,152.599 125.102,154.289C123.579,155.98 122.723,158.273 122.723,160.665L122.723,172.029C122.723,172.355 122.84,172.668 123.048,172.898C123.255,173.129 123.537,173.259 123.831,173.259C129.768,173.259 157.771,173.259 163.708,173.259Z" style="fill:rgb(187,101,43);"/>
            </g>
            <g id="Bottom-glyph1" serif:id="Bottom glyph" transform="matrix(-0.955486,0,0,1,659.799,1.87907)">
                <path d="M369.144,174.857L337.005,156.389L369.144,137.491L369.144,143.397L345.928,156.389L369.144,168.977L369.144,174.857Z" style="fill:rgb(230,230,230);fill-rule:nonzero;"/>
            </g>
            <g id="Top-glyph1" serif:id="Top glyph" transform="matrix(1,0,0,1,-86.9656,-14.1982)">
                <g transform="matrix(33.3333,0,0,33.3333,350.192,112.252)">
                    <rect x="0.092" y="-0.71" width="0.086" height="0.71" style="fill:rgb(230,230,230);fill-rule:nonzero;"/>
                </g>
                <g transform="matrix(33.3333,0,0,33.3333,358.525,112.252)">
                    <path d="M0.092,-0L0.092,-0.71L0.214,-0.71L0.565,-0.086L0.565,-0.71L0.651,-0.71L0.651,-0L0.523,-0L0.178,-0.612L0.178,-0L0.092,-0Z" style="fill:rgb(230,230,230);fill-rule:nonzero;"/>
                </g>
                <g transform="matrix(33.3333,0,0,33.3333,382.825,112.252)">
                    <path d="M0.336,0.016C0.281,0.016 0.234,0.006 0.193,-0.015C0.152,-0.036 0.12,-0.064 0.097,-0.101C0.073,-0.137 0.059,-0.179 0.055,-0.227L0.145,-0.233C0.15,-0.198 0.16,-0.168 0.176,-0.143C0.192,-0.118 0.214,-0.1 0.241,-0.087C0.268,-0.074 0.3,-0.068 0.338,-0.068C0.371,-0.068 0.4,-0.072 0.423,-0.081C0.446,-0.09 0.464,-0.102 0.477,-0.119C0.489,-0.136 0.495,-0.156 0.495,-0.18C0.495,-0.202 0.49,-0.222 0.48,-0.239C0.469,-0.256 0.45,-0.271 0.421,-0.286C0.392,-0.3 0.349,-0.314 0.292,-0.328C0.237,-0.342 0.194,-0.357 0.162,-0.374C0.129,-0.391 0.106,-0.411 0.092,-0.435C0.077,-0.459 0.07,-0.489 0.07,-0.524C0.07,-0.564 0.08,-0.599 0.099,-0.63C0.118,-0.66 0.145,-0.684 0.18,-0.701C0.215,-0.717 0.257,-0.726 0.306,-0.726C0.358,-0.726 0.403,-0.716 0.44,-0.697C0.477,-0.677 0.507,-0.65 0.529,-0.616C0.551,-0.582 0.565,-0.543 0.57,-0.5L0.48,-0.494C0.476,-0.523 0.467,-0.548 0.453,-0.571C0.438,-0.593 0.419,-0.61 0.394,-0.623C0.369,-0.636 0.339,-0.642 0.304,-0.642C0.26,-0.642 0.225,-0.632 0.199,-0.611C0.173,-0.59 0.16,-0.562 0.16,-0.528C0.16,-0.506 0.165,-0.488 0.176,-0.474C0.186,-0.459 0.204,-0.447 0.231,-0.436C0.258,-0.424 0.296,-0.413 0.346,-0.4C0.405,-0.385 0.452,-0.368 0.488,-0.348C0.523,-0.327 0.548,-0.304 0.563,-0.277C0.578,-0.25 0.585,-0.22 0.585,-0.186C0.585,-0.145 0.574,-0.109 0.553,-0.079C0.532,-0.048 0.502,-0.025 0.465,-0.009C0.428,0.008 0.385,0.016 0.336,0.016Z" style="fill:rgb(230,230,230);fill-rule:nonzero;"/>
                </g>
                <g transform="matrix(33.3333,0,0,33.3333,403.692,112.252)">
                    <path d="M0.092,-0L0.092,-0.71L0.538,-0.71L0.538,-0.626L0.178,-0.626L0.178,-0.397L0.526,-0.397L0.526,-0.315L0.178,-0.315L0.178,-0.084L0.546,-0.084L0.546,-0L0.092,-0Z" style="fill:rgb(230,230,230);fill-rule:nonzero;"/>
                </g>
                <g transform="matrix(33.3333,0,0,33.3333,423.459,112.252)">
                    <path d="M0.092,-0L0.092,-0.71L0.361,-0.71C0.411,-0.71 0.454,-0.701 0.49,-0.684C0.526,-0.667 0.554,-0.642 0.574,-0.61C0.593,-0.577 0.603,-0.539 0.603,-0.495C0.603,-0.463 0.596,-0.435 0.581,-0.41C0.566,-0.385 0.546,-0.365 0.523,-0.35C0.5,-0.335 0.475,-0.327 0.45,-0.326L0.444,-0.335C0.487,-0.335 0.522,-0.325 0.547,-0.305C0.572,-0.285 0.586,-0.253 0.59,-0.209L0.61,-0L0.523,-0L0.505,-0.2C0.502,-0.229 0.492,-0.251 0.474,-0.265C0.455,-0.279 0.425,-0.286 0.384,-0.286L0.178,-0.286L0.178,-0L0.092,-0ZM0.178,-0.37L0.372,-0.37C0.415,-0.37 0.45,-0.381 0.475,-0.403C0.5,-0.425 0.513,-0.456 0.513,-0.497C0.513,-0.538 0.5,-0.57 0.474,-0.593C0.448,-0.615 0.41,-0.626 0.361,-0.626L0.178,-0.626L0.178,-0.37Z" style="fill:rgb(230,230,230);fill-rule:nonzero;"/>
                </g>
                <g transform="matrix(33.3333,0,0,33.3333,445.192,112.252)">
                    <path d="M0.233,-0L0.233,-0.626L0.012,-0.626L0.012,-0.71L0.54,-0.71L0.54,-0.626L0.319,-0.626L0.319,-0L0.233,-0Z" style="fill:rgb(230,230,230);fill-rule:nonzero;"/>
                </g>
            </g>
        </g>
        <g id="_--Clear" serif:id="&lt;-Clear" transform="matrix(1,0,0,1,227.953,-46.063)">
            <g id="Global-background6" serif:id="Global background" transform="matrix(3.19882,0,0,2.88209,-138.632,-381.554)">
                <path d="M119.769,160.665C119.769,157.404 120.936,154.277 123.014,151.971C125.091,149.666 127.908,148.37 130.846,148.37L156.692,148.37C159.63,148.37 162.448,149.666 164.525,151.971C166.602,154.277 167.769,157.404 167.769,160.665L167.769,189.351C167.769,192.612 166.602,195.739 164.525,198.044C162.448,200.35 159.63,201.645 156.692,201.645L130.846,201.645C127.908,201.645 125.091,200.35 123.014,198.044C120.936,195.739 119.769,192.612 119.769,189.351L119.769,160.665Z" style="fill:rgb(230,230,230);"/>
            </g>
            <g id="Bottom-background6" serif:id="Bottom background" transform="matrix(3.19882,0,0,2.88209,-138.632,-381.554)">
                <path d="M163.63,176.259C164.241,176.259 164.737,176.809 164.737,177.488C164.737,179.758 164.737,184.794 164.737,189.351C164.737,191.742 163.882,194.035 162.358,195.726C160.835,197.417 158.769,198.367 156.614,198.367L130.895,198.367C128.741,198.367 126.675,197.417 125.151,195.726C123.628,194.035 122.772,191.742 122.772,189.351L122.772,177.488C122.772,176.809 123.268,176.259 123.88,176.259C129.805,176.259 157.705,176.259 163.63,176.259Z" style="fill:rgb(92,60,28);"/>
            </g>
            <g id="Top-background2" serif:id="Top background" transform="matrix(3.19882,0,0,2.88209,-138.632,-381.554)">
                <path d="M163.708,173.259C164.001,173.259 164.283,173.129 164.491,172.898C164.699,172.668 164.815,172.355 164.815,172.029C164.815,169.831 164.815,165.046 164.815,160.665C164.815,158.273 163.96,155.98 162.436,154.289C160.913,152.599 158.847,151.649 156.692,151.649L130.846,151.649C128.692,151.649 126.626,152.599 125.102,154.289C123.579,155.98 122.723,158.273 122.723,160.665L122.723,172.029C122.723,172.355 122.84,172.668 123.048,172.898C123.255,173.129 123.537,173.259 123.831,173.259C129.768,173.259 157.771,173.259 163.708,173.259Z" style="fill:rgb(187,101,43);"/>
            </g>
            <g id="Bottom-glyph2" serif:id="Bottom glyph" transform="matrix(0.955486,0,0,1,-17.2791,1.87907)">
                <path d="M369.144,174.857L337.005,156.389L369.144,137.491L369.144,143.397L345.928,156.389L369.144,168.977L369.144,174.857Z" style="fill:rgb(230,230,230);fill-rule:nonzero;"/>
            </g>
            <g id="Top-glyph2" serif:id="Top glyph" transform="matrix(1,0,0,1,-81.0823,-14.1982)">
                <g transform="matrix(33.3333,0,0,33.3333,350.192,112.252)">
                    <path d="M0.364,0.016C0.301,0.016 0.245,0.001 0.197,-0.029C0.149,-0.058 0.112,-0.101 0.085,-0.156C0.058,-0.211 0.045,-0.277 0.045,-0.354C0.045,-0.431 0.058,-0.497 0.085,-0.553C0.112,-0.608 0.149,-0.651 0.197,-0.681C0.245,-0.711 0.301,-0.726 0.364,-0.726C0.45,-0.726 0.517,-0.704 0.564,-0.661C0.611,-0.618 0.642,-0.559 0.657,-0.484L0.566,-0.478C0.556,-0.529 0.535,-0.569 0.502,-0.598C0.469,-0.627 0.423,-0.642 0.364,-0.642C0.319,-0.642 0.279,-0.631 0.245,-0.608C0.21,-0.585 0.183,-0.552 0.164,-0.509C0.145,-0.466 0.135,-0.414 0.135,-0.354C0.135,-0.294 0.145,-0.243 0.164,-0.2C0.183,-0.157 0.21,-0.125 0.245,-0.102C0.279,-0.079 0.319,-0.068 0.364,-0.068C0.426,-0.068 0.474,-0.084 0.508,-0.117C0.542,-0.149 0.563,-0.193 0.572,-0.248L0.663,-0.242C0.654,-0.191 0.637,-0.146 0.612,-0.107C0.587,-0.068 0.553,-0.038 0.512,-0.017C0.47,0.005 0.421,0.016 0.364,0.016Z" style="fill:rgb(230,230,230);fill-rule:nonzero;"/>
                </g>
                <g transform="matrix(33.3333,0,0,33.3333,373.292,112.252)">
                    <path d="M0.092,-0L0.092,-0.71L0.178,-0.71L0.178,-0.04L0.135,-0.084L0.533,-0.084L0.533,-0L0.092,-0Z" style="fill:rgb(230,230,230);fill-rule:nonzero;"/>
                </g>
                <g transform="matrix(33.3333,0,0,33.3333,390.959,112.252)">
                    <path d="M0.092,-0L0.092,-0.71L0.538,-0.71L0.538,-0.626L0.178,-0.626L0.178,-0.397L0.526,-0.397L0.526,-0.315L0.178,-0.315L0.178,-0.084L0.546,-0.084L0.546,-0L0.092,-0Z" style="fill:rgb(230,230,230);fill-rule:nonzero;"/>
                </g>
                <g transform="matrix(33.3333,0,0,33.3333,411.059,112.252)">
                    <path d="M0.02,-0L0.276,-0.71L0.392,-0.71L0.648,-0L0.554,-0L0.483,-0.202L0.185,-0.202L0.114,-0L0.02,-0ZM0.214,-0.286L0.454,-0.286L0.334,-0.635L0.214,-0.286Z" style="fill:rgb(230,230,230);fill-rule:nonzero;"/>
                </g>
                <g transform="matrix(33.3333,0,0,33.3333,432.659,112.252)">
                    <path d="M0.092,-0L0.092,-0.71L0.361,-0.71C0.411,-0.71 0.454,-0.701 0.49,-0.684C0.526,-0.667 0.554,-0.642 0.574,-0.61C0.593,-0.577 0.603,-0.539 0.603,-0.495C0.603,-0.463 0.596,-0.435 0.581,-0.41C0.566,-0.385 0.546,-0.365 0.523,-0.35C0.5,-0.335 0.475,-0.327 0.45,-0.326L0.444,-0.335C0.487,-0.335 0.522,-0.325 0.547,-0.305C0.572,-0.285 0.586,-0.253 0.59,-0.209L0.61,-0L0.523,-0L0.505,-0.2C0.502,-0.229 0.492,-0.251 0.474,-0.265C0.455,-0.279 0.425,-0.286 0.384,-0.286L0.178,-0.286L0.178,-0L0.092,-0ZM0.178,-0.37L0.372,-0.37C0.415,-0.37 0.45,-0.381 0.475,-0.403C0.5,-0.425 0.513,-0.456 0.513,-0.497C0.513,-0.538 0.5,-0.57 0.474,-0.593C0.448,-0.615 0.41,-0.626 0.361,-0.626L0.178,-0.626L0.178,-0.37Z" style="fill:rgb(230,230,230);fill-rule:nonzero;"/>
                </g>
            </g>
        </g>
        <g id="_0--" serif:id="0-)" transform="matrix(1,0,0,1,-8.26772,-46.063)">
            <g id="Global-background7" serif:id="Global background" transform="matrix(3.19882,0,0,2.88209,-138.632,-381.554)">
                <path d="M119.769,160.665C119.769,157.404 120.936,154.277 123.014,151.971C125.091,149.666 127.908,148.37 130.846,148.37L156.692,148.37C159.63,148.37 162.448,149.666 164.525,151.971C166.602,154.277 167.769,157.404 167.769,160.665L167.769,189.351C167.769,192.612 166.602,195.739 164.525,198.044C162.448,200.35 159.63,201.645 156.692,201.645L130.846,201.645C127.908,201.645 125.091,200.35 123.014,198.044C120.936,195.739 119.769,192.612 119.769,189.351L119.769,160.665Z" style="fill:rgb(230,230,230);"/>
            </g>
            <g id="Bottom-background7" serif:id="Bottom background" transform="matrix(3.19882,0,0,2.88209,-138.632,-381.554)">
                <path d="M163.63,176.259C164.241,176.259 164.737,176.809 164.737,177.488C164.737,179.758 164.737,184.794 164.737,189.351C164.737,191.742 163.882,194.035 162.358,195.726C160.835,197.417 158.769,198.367 156.614,198.367L130.895,198.367C128.741,198.367 126.675,197.417 125.151,195.726C123.628,194.035 122.772,191.742 122.772,189.351L122.772,177.488C122.772,176.809 123.268,176.259 123.88,176.259C129.805,176.259 157.705,176.259 163.63,176.259Z" style="fill:rgb(92,60,28);"/>
            </g>
            <g id="Top-background3" serif:id="Top background" transform="matrix(3.19882,0,0,2.88209,-138.632,-381.554)">
                <path d="M163.708,173.259C164.001,173.259 164.283,173.129 164.491,172.898C164.699,172.668 164.815,172.355 164.815,172.029C164.815,169.831 164.815,165.046 164.815,160.665C164.815,158.273 163.96,155.98 162.436,154.289C160.913,152.599 158.847,151.649 156.692,151.649L130.846,151.649C128.692,151.649 126.626,152.599 125.102,154.289C123.579,155.98 122.723,158.273 122.723,160.665L122.723,172.029C122.723,172.355 122.84,172.668 123.048,172.898C123.255,173.129 123.537,173.259 123.831,173.259C129.768,173.259 157.771,173.259 163.708,173.259Z" style="fill:rgb(187,101,43);"/>
            </g>
            <g id="Bottom-glyph3" serif:id="Bottom glyph" transform="matrix(1,0,0,1,-38.4052,1.87907)">
                <g transform="matrix(58.3333,0,0,58.3333,340.328,177.097)">
                    <path d="M0.331,0.016C0.274,0.016 0.224,0.001 0.182,-0.029C0.14,-0.059 0.108,-0.102 0.085,-0.157C0.062,-0.212 0.05,-0.278 0.05,-0.354C0.05,-0.43 0.062,-0.496 0.085,-0.552C0.108,-0.607 0.14,-0.65 0.182,-0.681C0.224,-0.711 0.274,-0.726 0.331,-0.726C0.389,-0.726 0.439,-0.711 0.481,-0.681C0.523,-0.65 0.556,-0.607 0.579,-0.552C0.602,-0.497 0.613,-0.431 0.613,-0.354C0.613,-0.278 0.602,-0.212 0.579,-0.157C0.556,-0.102 0.523,-0.059 0.481,-0.029C0.439,0.001 0.389,0.016 0.331,0.016ZM0.331,-0.068C0.392,-0.068 0.44,-0.093 0.473,-0.143C0.506,-0.192 0.523,-0.263 0.523,-0.354C0.523,-0.415 0.516,-0.468 0.501,-0.511C0.486,-0.554 0.464,-0.586 0.436,-0.609C0.407,-0.631 0.372,-0.642 0.331,-0.642C0.29,-0.642 0.256,-0.631 0.228,-0.609C0.199,-0.586 0.178,-0.554 0.163,-0.511C0.148,-0.468 0.14,-0.415 0.14,-0.354C0.14,-0.263 0.157,-0.192 0.19,-0.143C0.223,-0.093 0.27,-0.068 0.331,-0.068Z" style="fill:rgb(230,230,230);fill-rule:nonzero;"/>
                </g>
            </g>
            <g id="Top-glyph3" serif:id="Top glyph" transform="matrix(1,0,0,1,-36.049,-7.36483)">
                <g transform="matrix(58.3333,0,0,58.3333,350.192,112.252)">
                    <path d="M0.09,0.11L0.015,0.11C0.057,0.038 0.089,-0.034 0.11,-0.106C0.131,-0.177 0.142,-0.249 0.142,-0.32C0.142,-0.463 0.1,-0.606 0.015,-0.75L0.09,-0.75C0.183,-0.611 0.229,-0.468 0.229,-0.32C0.229,-0.173 0.183,-0.029 0.09,0.11Z" style="fill:rgb(230,230,230);fill-rule:nonzero;"/>
                </g>
            </g>
        </g>
        <g id="Esc" transform="matrix(1,0,0,1,-31.8898,-46.063)">
            <g id="Global-background8" serif:id="Global background" transform="matrix(3.19882,0,0,2.88209,-351.23,-381.554)">
                <path d="M119.769,160.665C119.769,157.404 120.936,154.277 123.014,151.971C125.091,149.666 127.908,148.37 130.846,148.37L156.692,148.37C159.63,148.37 162.448,149.666 164.525,151.971C166.602,154.277 167.769,157.404 167.769,160.665L167.769,189.351C167.769,192.612 166.602,195.739 164.525,198.044C162.448,200.35 159.63,201.645 156.692,201.645L130.846,201.645C127.908,201.645 125.091,200.35 123.014,198.044C120.936,195.739 119.769,192.612 119.769,189.351L119.769,160.665Z" style="fill:rgb(230,230,230);"/>
            </g>
            <g id="Bottom-background8" serif:id="Bottom background" transform="matrix(3.19882,0,0,2.88209,-351.23,-381.554)">
                <path d="M156.614,151.649C158.769,151.649 160.835,152.599 162.358,154.289C163.882,155.98 164.737,158.273 164.737,160.665L164.737,189.351C164.737,191.742 163.882,194.035 162.358,195.726C160.835,197.417 158.769,198.367 156.614,198.367L130.895,198.367C128.741,198.367 126.675,197.417 125.151,195.726C123.628,194.035 122.772,191.742 122.772,189.351L122.772,160.665C122.772,158.273 123.628,155.98 125.151,154.289C126.675,152.599 128.741,151.649 130.895,151.649L156.614,151.649Z" style="fill:rgb(92,60,28);"/>
            </g>
            <g id="Glyph4" serif:id="Glyph" transform="matrix(1,0,0,1,-23.2843,12.4951)">
                <g transform="matrix(33.3333,0,0,33.3333,98.6457,122.173)">
                    <path d="M0.092,-0L0.092,-0.71L0.538,-0.71L0.538,-0.626L0.178,-0.626L0.178,-0.397L0.526,-0.397L0.526,-0.315L0.178,-0.315L0.178,-0.084L0.546,-0.084L0.546,-0L0.092,-0Z" style="fill:rgb(230,230,230);fill-rule:nonzero;"/>
                </g>
                <g transform="matrix(33.3333,0,0,33.3333,118.746,122.173)">
                    <path d="M0.336,0.016C0.281,0.016 0.234,0.006 0.193,-0.015C0.152,-0.036 0.12,-0.064 0.097,-0.101C0.073,-0.137 0.059,-0.179 0.055,-0.227L0.145,-0.233C0.15,-0.198 0.16,-0.168 0.176,-0.143C0.192,-0.118 0.214,-0.1 0.241,-0.087C0.268,-0.074 0.3,-0.068 0.338,-0.068C0.371,-0.068 0.4,-0.072 0.423,-0.081C0.446,-0.09 0.464,-0.102 0.477,-0.119C0.489,-0.136 0.495,-0.156 0.495,-0.18C0.495,-0.202 0.49,-0.222 0.48,-0.239C0.469,-0.256 0.45,-0.271 0.421,-0.286C0.392,-0.3 0.349,-0.314 0.292,-0.328C0.237,-0.342 0.194,-0.357 0.162,-0.374C0.129,-0.391 0.106,-0.411 0.092,-0.435C0.077,-0.459 0.07,-0.489 0.07,-0.524C0.07,-0.564 0.08,-0.599 0.099,-0.63C0.118,-0.66 0.145,-0.684 0.18,-0.701C0.215,-0.717 0.257,-0.726 0.306,-0.726C0.358,-0.726 0.403,-0.716 0.44,-0.697C0.477,-0.677 0.507,-0.65 0.529,-0.616C0.551,-0.582 0.565,-0.543 0.57,-0.5L0.48,-0.494C0.476,-0.523 0.467,-0.548 0.453,-0.571C0.438,-0.593 0.419,-0.61 0.394,-0.623C0.369,-0.636 0.339,-0.642 0.304,-0.642C0.26,-0.642 0.225,-0.632 0.199,-0.611C0.173,-0.59 0.16,-0.562 0.16,-0.528C0.16,-0.506 0.165,-0.488 0.176,-0.474C0.186,-0.459 0.204,-0.447 0.231,-0.436C0.258,-0.424 0.296,-0.413 0.346,-0.4C0.405,-0.385 0.452,-0.368 0.488,-0.348C0.523,-0.327 0.548,-0.304 0.563,-0.277C0.578,-0.25 0.585,-0.22 0.585,-0.186C0.585,-0.145 0.574,-0.109 0.553,-0.079C0.532,-0.048 0.502,-0.025 0.465,-0.009C0.428,0.008 0.385,0.016 0.336,0.016Z" style="fill:rgb(230,230,230);fill-rule:nonzero;"/>
                </g>
                <g transform="matrix(33.3333,0,0,33.3333,140.079,122.173)">
                    <path d="M0.364,0.016C0.301,0.016 0.245,0.001 0.197,-0.029C0.149,-0.058 0.112,-0.101 0.085,-0.156C0.058,-0.211 0.045,-0.277 0.045,-0.354C0.045,-0.431 0.058,-0.497 0.085,-0.553C0.112,-0.608 0.149,-0.651 0.197,-0.681C0.245,-0.711 0.301,-0.726 0.364,-0.726C0.45,-0.726 0.517,-0.704 0.564,-0.661C0.611,-0.618 0.642,-0.559 0.657,-0.484L0.566,-0.478C0.556,-0.529 0.535,-0.569 0.502,-0.598C0.469,-0.627 0.423,-0.642 0.364,-0.642C0.319,-0.642 0.279,-0.631 0.245,-0.608C0.21,-0.585 0.183,-0.552 0.164,-0.509C0.145,-0.466 0.135,-0.414 0.135,-0.354C0.135,-0.294 0.145,-0.243 0.164,-0.2C0.183,-0.157 0.21,-0.125 0.245,-0.102C0.279,-0.079 0.319,-0.068 0.364,-0.068C0.426,-0.068 0.474,-0.084 0.508,-0.117C0.542,-0.149 0.563,-0.193 0.572,-0.248L0.663,-0.242C0.654,-0.191 0.637,-0.146 0.612,-0.107C0.587,-0.068 0.553,-0.038 0.512,-0.017C0.47,0.005 0.421,0.016 0.364,0.016Z" style="fill:rgb(230,230,230);fill-rule:nonzero;"/>
                </g>
            </g>
        </g>
    </g>
</svg>
