<?xml version="1.0" encoding="UTF-8" standalone="no"?>
<!DOCTYPE svg PUBLIC "-//W3C//DTD SVG 1.1//EN" "http://www.w3.org/Graphics/SVG/1.1/DTD/svg11.dtd">
<svg width="100%" height="100%" viewBox="0 0 321 37" version="1.1" xmlns="http://www.w3.org/2000/svg" xmlns:xlink="http://www.w3.org/1999/xlink" xml:space="preserve" xmlns:serif="http://www.serif.com/" style="fill-rule:evenodd;clip-rule:evenodd;stroke-linejoin:round;stroke-miterlimit:2;">
    <g id="Space-bar-relief" serif:id="Space bar relief" transform="matrix(6.9685,0,0,0.691701,-834.612,-102.628)">
        <g id="Emboss">
            <g id="Space-bar-relief1" serif:id="Space bar relief">
                <path d="M119.769,160.665C119.769,157.404 119.898,154.277 120.127,151.971C120.356,149.666 120.666,148.37 120.99,148.37L164.515,148.37C164.839,148.37 165.149,149.666 165.378,151.971C165.607,154.277 165.735,157.404 165.735,160.665L165.735,189.351C165.735,192.612 165.607,195.739 165.378,198.044C165.149,200.35 164.839,201.645 164.515,201.645L120.99,201.645C120.666,201.645 120.356,200.35 120.127,198.044C119.898,195.739 119.769,192.612 119.769,189.351L119.769,160.665Z" style="fill:rgb(70,70,70);"/>
                <path d="M119.769,160.665C119.769,157.404 119.898,154.277 120.127,151.971C120.356,149.666 120.666,148.37 120.99,148.37L164.515,148.37C164.839,148.37 165.149,149.666 165.378,151.971C165.607,154.277 165.735,157.404 165.735,160.665L165.735,189.351C165.735,192.612 165.607,195.739 165.378,198.044C165.149,200.35 164.839,201.645 164.515,201.645L120.99,201.645C120.666,201.645 120.356,200.35 120.127,198.044C119.898,195.739 119.769,192.612 119.769,189.351L119.769,160.665ZM120.071,160.665L120.071,189.351C120.071,191.807 120.167,194.161 120.34,195.898C120.512,197.634 120.746,198.609 120.99,198.609L164.515,198.609C164.759,198.609 164.992,197.634 165.165,195.898C165.337,194.161 165.434,191.807 165.434,189.351L165.434,160.665C165.434,158.209 165.337,155.854 165.165,154.118C164.992,152.382 164.759,151.406 164.515,151.406L120.99,151.406C120.746,151.406 120.512,152.382 120.34,154.118C120.167,155.854 120.071,158.209 120.071,160.665Z" style="fill:white;"/>
            </g>
        </g>
    </g>
</svg>
