<?xml version="1.0" encoding="UTF-8" standalone="no"?>
<!DOCTYPE svg PUBLIC "-//W3C//DTD SVG 1.1//EN" "http://www.w3.org/Graphics/SVG/1.1/DTD/svg11.dtd">
<svg width="100%" height="100%" viewBox="0 0 151 151" version="1.1" xmlns="http://www.w3.org/2000/svg" xmlns:xlink="http://www.w3.org/1999/xlink" xml:space="preserve" xmlns:serif="http://www.serif.com/" style="fill-rule:evenodd;clip-rule:evenodd;stroke-linejoin:round;stroke-miterlimit:2;">
    <g transform="matrix(0.24,0,0,0.24,0,0)">
        <g id="_9--" serif:id="9-(" transform="matrix(1,0,0,1,227.953,426.378)">
            <g id="Global-background" serif:id="Global background" transform="matrix(3.19882,0,0,2.88209,-138.632,-381.554)">
                <path d="M119.769,160.665C119.769,157.404 120.936,154.277 123.014,151.971C125.091,149.666 127.908,148.37 130.846,148.37L156.692,148.37C159.63,148.37 162.448,149.666 164.525,151.971C166.602,154.277 167.769,157.404 167.769,160.665L167.769,189.351C167.769,192.612 166.602,195.739 164.525,198.044C162.448,200.35 159.63,201.645 156.692,201.645L130.846,201.645C127.908,201.645 125.091,200.35 123.014,198.044C120.936,195.739 119.769,192.612 119.769,189.351L119.769,160.665Z" style="fill:rgb(230,230,230);"/>
            </g>
            <g id="Bottom-background" serif:id="Bottom background" transform="matrix(3.19882,0,0,2.88209,-138.632,-381.554)">
                <path d="M163.63,176.259C164.241,176.259 164.737,176.809 164.737,177.488C164.737,179.758 164.737,184.794 164.737,189.351C164.737,191.742 163.882,194.035 162.358,195.726C160.835,197.417 158.769,198.367 156.614,198.367L130.895,198.367C128.741,198.367 126.675,197.417 125.151,195.726C123.628,194.035 122.772,191.742 122.772,189.351L122.772,177.488C122.772,176.809 123.268,176.259 123.88,176.259C129.805,176.259 157.705,176.259 163.63,176.259Z" style="fill:rgb(92,60,28);"/>
            </g>
            <g id="Top-background" serif:id="Top background" transform="matrix(3.19882,0,0,2.88209,-138.632,-381.554)">
                <path d="M163.708,173.259C164.001,173.259 164.283,173.129 164.491,172.898C164.699,172.668 164.815,172.355 164.815,172.029C164.815,169.831 164.815,165.046 164.815,160.665C164.815,158.273 163.96,155.98 162.436,154.289C160.913,152.599 158.847,151.649 156.692,151.649L130.846,151.649C128.692,151.649 126.626,152.599 125.102,154.289C123.579,155.98 122.723,158.273 122.723,160.665L122.723,172.029C122.723,172.355 122.84,172.668 123.048,172.898C123.255,173.129 123.537,173.259 123.831,173.259C129.768,173.259 157.771,173.259 163.708,173.259Z" style="fill:rgb(187,101,43);"/>
            </g>
            <g id="Bottom-glyph" serif:id="Bottom glyph" transform="matrix(1,0,0,1,-36.6844,1.87907)">
                <g transform="matrix(58.3333,0,0,58.3333,340.328,177.097)">
                    <path d="M0.288,0.016C0.229,0.016 0.182,0.002 0.145,-0.028C0.108,-0.057 0.082,-0.093 0.069,-0.137L0.16,-0.144C0.168,-0.12 0.183,-0.101 0.204,-0.088C0.225,-0.075 0.253,-0.068 0.288,-0.068C0.347,-0.068 0.393,-0.092 0.425,-0.14C0.456,-0.187 0.472,-0.264 0.473,-0.37L0.494,-0.366C0.477,-0.321 0.452,-0.287 0.417,-0.263C0.382,-0.238 0.342,-0.226 0.296,-0.226C0.25,-0.226 0.209,-0.236 0.174,-0.257C0.139,-0.278 0.111,-0.307 0.091,-0.344C0.07,-0.381 0.06,-0.425 0.06,-0.474C0.06,-0.526 0.071,-0.571 0.092,-0.609C0.113,-0.646 0.142,-0.675 0.18,-0.696C0.217,-0.716 0.259,-0.726 0.307,-0.726C0.366,-0.726 0.415,-0.712 0.453,-0.685C0.49,-0.658 0.518,-0.62 0.536,-0.571C0.554,-0.522 0.563,-0.464 0.563,-0.397C0.563,-0.338 0.558,-0.283 0.549,-0.233C0.54,-0.182 0.524,-0.138 0.503,-0.102C0.482,-0.065 0.454,-0.036 0.419,-0.015C0.384,0.006 0.34,0.016 0.288,0.016ZM0.302,-0.311C0.335,-0.311 0.363,-0.317 0.388,-0.33C0.413,-0.343 0.432,-0.361 0.447,-0.385C0.461,-0.409 0.468,-0.438 0.468,-0.472C0.468,-0.505 0.462,-0.534 0.449,-0.56C0.436,-0.585 0.417,-0.605 0.393,-0.62C0.369,-0.635 0.34,-0.642 0.307,-0.642C0.274,-0.642 0.246,-0.635 0.223,-0.621C0.2,-0.606 0.182,-0.586 0.169,-0.561C0.156,-0.536 0.15,-0.507 0.15,-0.474C0.15,-0.441 0.157,-0.412 0.17,-0.388C0.183,-0.363 0.2,-0.344 0.223,-0.331C0.246,-0.318 0.272,-0.311 0.302,-0.311Z" style="fill:rgb(230,230,230);fill-rule:nonzero;"/>
                </g>
            </g>
            <g id="Top-glyph" serif:id="Top glyph" transform="matrix(1,0,0,1,-37.799,-7.36483)">
                <g transform="matrix(58.3333,0,0,58.3333,350.192,112.252)">
                    <path d="M0.184,0.11C0.091,-0.029 0.045,-0.173 0.045,-0.32C0.045,-0.468 0.091,-0.611 0.184,-0.75L0.259,-0.75C0.174,-0.606 0.132,-0.463 0.132,-0.32C0.132,-0.249 0.143,-0.177 0.164,-0.106C0.185,-0.034 0.217,0.038 0.259,0.11L0.184,0.11Z" style="fill:rgb(230,230,230);fill-rule:nonzero;"/>
                </g>
            </g>
        </g>
        <g id="_8--" serif:id="8-@" transform="matrix(1,0,0,1,-8.26772,426.378)">
            <g id="Global-background1" serif:id="Global background" transform="matrix(3.19882,0,0,2.88209,-138.632,-381.554)">
                <path d="M119.769,160.665C119.769,157.404 120.936,154.277 123.014,151.971C125.091,149.666 127.908,148.37 130.846,148.37L156.692,148.37C159.63,148.37 162.448,149.666 164.525,151.971C166.602,154.277 167.769,157.404 167.769,160.665L167.769,189.351C167.769,192.612 166.602,195.739 164.525,198.044C162.448,200.35 159.63,201.645 156.692,201.645L130.846,201.645C127.908,201.645 125.091,200.35 123.014,198.044C120.936,195.739 119.769,192.612 119.769,189.351L119.769,160.665Z" style="fill:rgb(230,230,230);"/>
            </g>
            <g id="Bottom-background1" serif:id="Bottom background" transform="matrix(3.19882,0,0,2.88209,-138.632,-381.554)">
                <path d="M163.63,176.259C164.241,176.259 164.737,176.809 164.737,177.488C164.737,179.758 164.737,184.794 164.737,189.351C164.737,191.742 163.882,194.035 162.358,195.726C160.835,197.417 158.769,198.367 156.614,198.367L130.895,198.367C128.741,198.367 126.675,197.417 125.151,195.726C123.628,194.035 122.772,191.742 122.772,189.351L122.772,177.488C122.772,176.809 123.268,176.259 123.88,176.259C129.805,176.259 157.705,176.259 163.63,176.259Z" style="fill:rgb(92,60,28);"/>
            </g>
            <g id="Top-background1" serif:id="Top background" transform="matrix(3.19882,0,0,2.88209,-138.632,-381.554)">
                <path d="M163.708,173.259C164.001,173.259 164.283,173.129 164.491,172.898C164.699,172.668 164.815,172.355 164.815,172.029C164.815,169.831 164.815,165.046 164.815,160.665C164.815,158.273 163.96,155.98 162.436,154.289C160.913,152.599 158.847,151.649 156.692,151.649L130.846,151.649C128.692,151.649 126.626,152.599 125.102,154.289C123.579,155.98 122.723,158.273 122.723,160.665L122.723,172.029C122.723,172.355 122.84,172.668 123.048,172.898C123.255,173.129 123.537,173.259 123.831,173.259C129.768,173.259 157.771,173.259 163.708,173.259Z" style="fill:rgb(187,101,43);"/>
            </g>
            <g id="Bottom-glyph1" serif:id="Bottom glyph" transform="matrix(1,0,0,1,-36.6844,1.87907)">
                <g transform="matrix(58.3333,0,0,58.3333,340.328,177.097)">
                    <path d="M0.302,0.016C0.251,0.016 0.206,0.008 0.167,-0.008C0.127,-0.024 0.096,-0.048 0.074,-0.079C0.051,-0.11 0.04,-0.149 0.04,-0.195C0.04,-0.246 0.055,-0.289 0.086,-0.323C0.117,-0.356 0.157,-0.379 0.208,-0.391L0.21,-0.371C0.169,-0.382 0.136,-0.401 0.112,-0.427C0.087,-0.452 0.074,-0.487 0.074,-0.531C0.074,-0.568 0.084,-0.602 0.103,-0.631C0.122,-0.66 0.148,-0.684 0.182,-0.701C0.216,-0.717 0.256,-0.726 0.302,-0.726C0.348,-0.726 0.388,-0.717 0.423,-0.701C0.457,-0.684 0.483,-0.66 0.502,-0.631C0.521,-0.602 0.53,-0.568 0.53,-0.531C0.53,-0.487 0.518,-0.452 0.493,-0.427C0.468,-0.401 0.435,-0.382 0.394,-0.371L0.396,-0.391C0.447,-0.379 0.488,-0.356 0.519,-0.323C0.549,-0.289 0.564,-0.246 0.564,-0.195C0.564,-0.149 0.553,-0.11 0.531,-0.079C0.508,-0.048 0.477,-0.024 0.438,-0.008C0.399,0.008 0.353,0.016 0.302,0.016ZM0.302,-0.068C0.355,-0.068 0.397,-0.079 0.428,-0.101C0.459,-0.122 0.474,-0.155 0.474,-0.2C0.474,-0.241 0.46,-0.275 0.433,-0.3C0.405,-0.325 0.361,-0.337 0.302,-0.337C0.243,-0.337 0.2,-0.325 0.172,-0.3C0.144,-0.275 0.13,-0.241 0.13,-0.2C0.13,-0.155 0.146,-0.122 0.177,-0.101C0.208,-0.079 0.249,-0.068 0.302,-0.068ZM0.302,-0.417C0.346,-0.417 0.38,-0.427 0.404,-0.446C0.428,-0.464 0.44,-0.493 0.44,-0.531C0.44,-0.565 0.428,-0.592 0.405,-0.612C0.382,-0.632 0.347,-0.642 0.302,-0.642C0.257,-0.642 0.223,-0.632 0.2,-0.612C0.176,-0.592 0.164,-0.565 0.164,-0.531C0.164,-0.493 0.176,-0.464 0.2,-0.446C0.224,-0.427 0.258,-0.417 0.302,-0.417Z" style="fill:rgb(230,230,230);fill-rule:nonzero;"/>
                </g>
            </g>
            <g id="Top-glyph1" serif:id="Top glyph" transform="matrix(1,0,0,1,-55.3573,-8.5315)">
                <g transform="matrix(58.3333,0,0,58.3333,350.192,112.252)">
                    <path d="M0.632,0.068C0.599,0.082 0.564,0.092 0.527,0.1C0.49,0.107 0.451,0.11 0.41,0.11C0.333,0.11 0.268,0.096 0.214,0.068C0.159,0.039 0.118,-0.002 0.089,-0.056C0.059,-0.11 0.045,-0.175 0.045,-0.25C0.045,-0.318 0.056,-0.38 0.077,-0.436C0.098,-0.492 0.129,-0.541 0.169,-0.582C0.208,-0.623 0.255,-0.654 0.309,-0.677C0.363,-0.699 0.423,-0.71 0.488,-0.71C0.563,-0.71 0.629,-0.695 0.685,-0.666C0.741,-0.637 0.784,-0.595 0.815,-0.542C0.846,-0.489 0.861,-0.426 0.861,-0.353C0.861,-0.3 0.853,-0.253 0.837,-0.212C0.821,-0.171 0.799,-0.139 0.771,-0.117C0.743,-0.094 0.711,-0.082 0.674,-0.082C0.643,-0.082 0.618,-0.091 0.599,-0.109C0.579,-0.127 0.568,-0.151 0.566,-0.182L0.581,-0.186C0.573,-0.167 0.56,-0.149 0.543,-0.132C0.526,-0.115 0.506,-0.102 0.484,-0.093C0.462,-0.083 0.439,-0.078 0.416,-0.078C0.377,-0.078 0.343,-0.086 0.317,-0.101C0.29,-0.116 0.269,-0.138 0.255,-0.165C0.241,-0.192 0.234,-0.224 0.234,-0.26C0.234,-0.305 0.243,-0.345 0.261,-0.382C0.278,-0.419 0.303,-0.448 0.335,-0.47C0.366,-0.491 0.403,-0.502 0.446,-0.502C0.481,-0.502 0.511,-0.494 0.537,-0.479C0.562,-0.463 0.577,-0.442 0.584,-0.417L0.574,-0.407L0.581,-0.5L0.654,-0.5L0.638,-0.29C0.637,-0.275 0.636,-0.259 0.635,-0.24C0.633,-0.221 0.632,-0.206 0.632,-0.194C0.632,-0.179 0.636,-0.168 0.644,-0.16C0.652,-0.152 0.664,-0.148 0.68,-0.148C0.714,-0.148 0.741,-0.166 0.76,-0.202C0.779,-0.238 0.789,-0.287 0.789,-0.35C0.789,-0.412 0.777,-0.465 0.754,-0.508C0.731,-0.551 0.697,-0.584 0.652,-0.607C0.606,-0.629 0.551,-0.64 0.486,-0.64C0.431,-0.64 0.381,-0.631 0.336,-0.612C0.291,-0.593 0.252,-0.567 0.219,-0.533C0.186,-0.498 0.161,-0.457 0.144,-0.41C0.126,-0.363 0.117,-0.31 0.117,-0.252C0.117,-0.19 0.129,-0.137 0.152,-0.094C0.174,-0.05 0.208,-0.017 0.252,0.006C0.296,0.029 0.349,0.04 0.412,0.04C0.448,0.04 0.484,0.037 0.519,0.03C0.554,0.023 0.586,0.013 0.615,-0L0.632,0.068ZM0.426,-0.144C0.459,-0.144 0.487,-0.152 0.508,-0.169C0.529,-0.185 0.544,-0.206 0.555,-0.232C0.565,-0.257 0.57,-0.284 0.57,-0.311C0.57,-0.334 0.566,-0.356 0.559,-0.375C0.551,-0.394 0.539,-0.409 0.522,-0.42C0.505,-0.431 0.482,-0.436 0.454,-0.436C0.424,-0.436 0.399,-0.428 0.379,-0.413C0.358,-0.397 0.343,-0.376 0.332,-0.351C0.321,-0.325 0.316,-0.297 0.316,-0.266C0.316,-0.231 0.324,-0.202 0.341,-0.179C0.357,-0.156 0.385,-0.144 0.426,-0.144Z" style="fill:rgb(230,230,230);fill-rule:nonzero;"/>
                </g>
            </g>
        </g>
        <g id="_7--" serif:id="7-&apos;" transform="matrix(1,0,0,1,-244.488,426.378)">
            <g id="Global-background2" serif:id="Global background" transform="matrix(3.19882,0,0,2.88209,-138.632,-381.554)">
                <path d="M119.769,160.665C119.769,157.404 120.936,154.277 123.014,151.971C125.091,149.666 127.908,148.37 130.846,148.37L156.692,148.37C159.63,148.37 162.448,149.666 164.525,151.971C166.602,154.277 167.769,157.404 167.769,160.665L167.769,189.351C167.769,192.612 166.602,195.739 164.525,198.044C162.448,200.35 159.63,201.645 156.692,201.645L130.846,201.645C127.908,201.645 125.091,200.35 123.014,198.044C120.936,195.739 119.769,192.612 119.769,189.351L119.769,160.665Z" style="fill:rgb(230,230,230);"/>
            </g>
            <g id="Bottom-background2" serif:id="Bottom background" transform="matrix(3.19882,0,0,2.88209,-138.632,-381.554)">
                <path d="M163.63,176.259C164.241,176.259 164.737,176.809 164.737,177.488C164.737,179.758 164.737,184.794 164.737,189.351C164.737,191.742 163.882,194.035 162.358,195.726C160.835,197.417 158.769,198.367 156.614,198.367L130.895,198.367C128.741,198.367 126.675,197.417 125.151,195.726C123.628,194.035 122.772,191.742 122.772,189.351L122.772,177.488C122.772,176.809 123.268,176.259 123.88,176.259C129.805,176.259 157.705,176.259 163.63,176.259Z" style="fill:rgb(92,60,28);"/>
            </g>
            <g id="Top-background2" serif:id="Top background" transform="matrix(3.19882,0,0,2.88209,-138.632,-381.554)">
                <path d="M163.708,173.259C164.001,173.259 164.283,173.129 164.491,172.898C164.699,172.668 164.815,172.355 164.815,172.029C164.815,169.831 164.815,165.046 164.815,160.665C164.815,158.273 163.96,155.98 162.436,154.289C160.913,152.599 158.847,151.649 156.692,151.649L130.846,151.649C128.692,151.649 126.626,152.599 125.102,154.289C123.579,155.98 122.723,158.273 122.723,160.665L122.723,172.029C122.723,172.355 122.84,172.668 123.048,172.898C123.255,173.129 123.537,173.259 123.831,173.259C129.768,173.259 157.771,173.259 163.708,173.259Z" style="fill:rgb(187,101,43);"/>
            </g>
            <g id="Bottom-glyph2" serif:id="Bottom glyph" transform="matrix(1,0,0,1,-34.9344,1.87907)">
                <g transform="matrix(58.3333,0,0,58.3333,340.328,177.097)">
                    <path d="M0.178,-0C0.178,-0.073 0.188,-0.147 0.208,-0.22C0.228,-0.293 0.257,-0.363 0.295,-0.432C0.332,-0.501 0.377,-0.565 0.43,-0.626L0.02,-0.626L0.02,-0.71L0.524,-0.71L0.524,-0.632C0.465,-0.564 0.416,-0.497 0.378,-0.431C0.339,-0.364 0.311,-0.296 0.293,-0.226C0.275,-0.155 0.266,-0.08 0.266,-0L0.178,-0Z" style="fill:rgb(230,230,230);fill-rule:nonzero;"/>
                </g>
            </g>
            <g id="Top-glyph2" serif:id="Top glyph" transform="matrix(1,0,0,1,-36.0481,-42.2003)">
                <g transform="matrix(58.3333,0,0,58.3333,351.425,114.21)">
                    <path d="M0.047,0.156L0.095,-0L0.044,-0L0.044,-0.113L0.157,-0.113L0.157,-0.014L0.097,0.156L0.047,0.156Z" style="fill:rgb(230,230,230);fill-rule:nonzero;"/>
                </g>
            </g>
        </g>
        <g id="_6--" serif:id="6-&amp;" transform="matrix(1,0,0,1,227.953,190.157)">
            <g id="Global-background3" serif:id="Global background" transform="matrix(3.19882,0,0,2.88209,-138.632,-381.554)">
                <path d="M119.769,160.665C119.769,157.404 120.936,154.277 123.014,151.971C125.091,149.666 127.908,148.37 130.846,148.37L156.692,148.37C159.63,148.37 162.448,149.666 164.525,151.971C166.602,154.277 167.769,157.404 167.769,160.665L167.769,189.351C167.769,192.612 166.602,195.739 164.525,198.044C162.448,200.35 159.63,201.645 156.692,201.645L130.846,201.645C127.908,201.645 125.091,200.35 123.014,198.044C120.936,195.739 119.769,192.612 119.769,189.351L119.769,160.665Z" style="fill:rgb(230,230,230);"/>
            </g>
            <g id="Bottom-background3" serif:id="Bottom background" transform="matrix(3.19882,0,0,2.88209,-138.632,-381.554)">
                <path d="M163.63,176.259C164.241,176.259 164.737,176.809 164.737,177.488C164.737,179.758 164.737,184.794 164.737,189.351C164.737,191.742 163.882,194.035 162.358,195.726C160.835,197.417 158.769,198.367 156.614,198.367L130.895,198.367C128.741,198.367 126.675,197.417 125.151,195.726C123.628,194.035 122.772,191.742 122.772,189.351L122.772,177.488C122.772,176.809 123.268,176.259 123.88,176.259C129.805,176.259 157.705,176.259 163.63,176.259Z" style="fill:rgb(92,60,28);"/>
            </g>
            <g id="Top-background3" serif:id="Top background" transform="matrix(3.19882,0,0,2.88209,-138.632,-381.554)">
                <path d="M163.708,173.259C164.001,173.259 164.283,173.129 164.491,172.898C164.699,172.668 164.815,172.355 164.815,172.029C164.815,169.831 164.815,165.046 164.815,160.665C164.815,158.273 163.96,155.98 162.436,154.289C160.913,152.599 158.847,151.649 156.692,151.649L130.846,151.649C128.692,151.649 126.626,152.599 125.102,154.289C123.579,155.98 122.723,158.273 122.723,160.665L122.723,172.029C122.723,172.355 122.84,172.668 123.048,172.898C123.255,173.129 123.537,173.259 123.831,173.259C129.768,173.259 157.771,173.259 163.708,173.259Z" style="fill:rgb(187,101,43);"/>
            </g>
            <g id="Bottom-glyph3" serif:id="Bottom glyph" transform="matrix(1,0,0,1,-37.2969,1.87907)">
                <g transform="matrix(58.3333,0,0,58.3333,340.328,177.097)">
                    <path d="M0.312,0.016C0.259,0.016 0.213,0.004 0.176,-0.021C0.138,-0.045 0.109,-0.081 0.09,-0.128C0.07,-0.175 0.06,-0.233 0.06,-0.3C0.06,-0.359 0.065,-0.414 0.075,-0.465C0.084,-0.516 0.1,-0.562 0.122,-0.601C0.143,-0.64 0.172,-0.67 0.208,-0.693C0.243,-0.715 0.287,-0.726 0.34,-0.726C0.403,-0.726 0.452,-0.711 0.487,-0.68C0.522,-0.649 0.546,-0.608 0.56,-0.558L0.47,-0.55C0.462,-0.578 0.448,-0.6 0.429,-0.617C0.409,-0.634 0.379,-0.642 0.34,-0.642C0.281,-0.642 0.235,-0.617 0.202,-0.567C0.168,-0.517 0.15,-0.441 0.148,-0.34L0.13,-0.344C0.137,-0.368 0.15,-0.39 0.169,-0.411C0.187,-0.431 0.21,-0.447 0.237,-0.46C0.264,-0.472 0.294,-0.478 0.328,-0.478C0.375,-0.478 0.416,-0.468 0.451,-0.448C0.486,-0.428 0.514,-0.4 0.534,-0.364C0.553,-0.327 0.563,-0.285 0.563,-0.236C0.563,-0.184 0.552,-0.139 0.531,-0.102C0.51,-0.064 0.48,-0.035 0.443,-0.015C0.405,0.006 0.361,0.016 0.312,0.016ZM0.314,-0.068C0.361,-0.068 0.399,-0.083 0.429,-0.113C0.458,-0.142 0.473,-0.183 0.473,-0.236C0.473,-0.269 0.467,-0.297 0.454,-0.321C0.441,-0.345 0.424,-0.364 0.401,-0.377C0.378,-0.39 0.352,-0.396 0.322,-0.396C0.29,-0.396 0.261,-0.39 0.236,-0.377C0.211,-0.364 0.191,-0.345 0.176,-0.321C0.161,-0.297 0.154,-0.269 0.154,-0.236C0.154,-0.203 0.161,-0.174 0.174,-0.149C0.187,-0.124 0.205,-0.104 0.229,-0.09C0.253,-0.075 0.281,-0.068 0.314,-0.068Z" style="fill:rgb(230,230,230);fill-rule:nonzero;"/>
                </g>
            </g>
            <g id="Top-glyph3" serif:id="Top glyph" transform="matrix(1,0,0,1,-47.599,-5.32316)">
                <g transform="matrix(58.3333,0,0,58.3333,350.192,112.252)">
                    <path d="M0.26,0.016C0.192,0.016 0.138,-0.001 0.099,-0.034C0.06,-0.067 0.04,-0.113 0.04,-0.174C0.04,-0.205 0.044,-0.232 0.053,-0.256C0.062,-0.279 0.076,-0.302 0.097,-0.324C0.117,-0.346 0.145,-0.369 0.18,-0.394C0.165,-0.414 0.152,-0.433 0.141,-0.451C0.13,-0.468 0.122,-0.486 0.117,-0.504C0.111,-0.522 0.108,-0.541 0.108,-0.562C0.108,-0.613 0.124,-0.654 0.155,-0.683C0.186,-0.712 0.228,-0.726 0.282,-0.726C0.317,-0.726 0.347,-0.72 0.372,-0.708C0.397,-0.695 0.416,-0.678 0.429,-0.655C0.442,-0.632 0.448,-0.605 0.448,-0.574C0.448,-0.536 0.437,-0.502 0.414,-0.472C0.391,-0.441 0.353,-0.408 0.3,-0.373L0.462,-0.166C0.486,-0.199 0.498,-0.25 0.498,-0.318L0.582,-0.31C0.581,-0.27 0.575,-0.231 0.563,-0.194C0.55,-0.157 0.534,-0.126 0.515,-0.103L0.6,-0L0.499,-0L0.462,-0.045C0.443,-0.026 0.416,-0.012 0.383,-0.001C0.349,0.011 0.308,0.016 0.26,0.016ZM0.27,-0.064C0.304,-0.064 0.332,-0.068 0.355,-0.076C0.378,-0.084 0.395,-0.094 0.406,-0.106L0.23,-0.328C0.194,-0.303 0.168,-0.279 0.153,-0.256C0.138,-0.233 0.13,-0.205 0.13,-0.174C0.13,-0.141 0.141,-0.114 0.164,-0.094C0.186,-0.074 0.221,-0.064 0.27,-0.064ZM0.254,-0.434C0.279,-0.45 0.3,-0.465 0.315,-0.479C0.33,-0.492 0.341,-0.506 0.348,-0.521C0.355,-0.536 0.358,-0.551 0.358,-0.568C0.358,-0.592 0.351,-0.61 0.338,-0.623C0.325,-0.636 0.306,-0.642 0.282,-0.642C0.255,-0.642 0.235,-0.635 0.22,-0.621C0.205,-0.607 0.198,-0.587 0.198,-0.562C0.198,-0.549 0.2,-0.536 0.203,-0.523C0.206,-0.509 0.212,-0.496 0.221,-0.482C0.229,-0.468 0.24,-0.452 0.254,-0.434Z" style="fill:rgb(230,230,230);fill-rule:nonzero;"/>
                </g>
            </g>
        </g>
        <g id="_5--" serif:id="5-%" transform="matrix(1,0,0,1,-8.26772,190.157)">
            <g id="Global-background4" serif:id="Global background" transform="matrix(3.19882,0,0,2.88209,-138.632,-381.554)">
                <path d="M119.769,160.665C119.769,157.404 120.936,154.277 123.014,151.971C125.091,149.666 127.908,148.37 130.846,148.37L156.692,148.37C159.63,148.37 162.448,149.666 164.525,151.971C166.602,154.277 167.769,157.404 167.769,160.665L167.769,189.351C167.769,192.612 166.602,195.739 164.525,198.044C162.448,200.35 159.63,201.645 156.692,201.645L130.846,201.645C127.908,201.645 125.091,200.35 123.014,198.044C120.936,195.739 119.769,192.612 119.769,189.351L119.769,160.665Z" style="fill:rgb(230,230,230);"/>
            </g>
            <g id="Bottom-background4" serif:id="Bottom background" transform="matrix(3.19882,0,0,2.88209,-138.632,-381.554)">
                <path d="M163.63,176.259C164.241,176.259 164.737,176.809 164.737,177.488C164.737,179.758 164.737,184.794 164.737,189.351C164.737,191.742 163.882,194.035 162.358,195.726C160.835,197.417 158.769,198.367 156.614,198.367L130.895,198.367C128.741,198.367 126.675,197.417 125.151,195.726C123.628,194.035 122.772,191.742 122.772,189.351L122.772,177.488C122.772,176.809 123.268,176.259 123.88,176.259C129.805,176.259 157.705,176.259 163.63,176.259Z" style="fill:rgb(92,60,28);"/>
            </g>
            <g id="Top-background4" serif:id="Top background" transform="matrix(3.19882,0,0,2.88209,-138.632,-381.554)">
                <path d="M163.708,173.259C164.001,173.259 164.283,173.129 164.491,172.898C164.699,172.668 164.815,172.355 164.815,172.029C164.815,169.831 164.815,165.046 164.815,160.665C164.815,158.273 163.96,155.98 162.436,154.289C160.913,152.599 158.847,151.649 156.692,151.649L130.846,151.649C128.692,151.649 126.626,152.599 125.102,154.289C123.579,155.98 122.723,158.273 122.723,160.665L122.723,172.029C122.723,172.355 122.84,172.668 123.048,172.898C123.255,173.129 123.537,173.259 123.831,173.259C129.768,173.259 157.771,173.259 163.708,173.259Z" style="fill:rgb(187,101,43);"/>
            </g>
            <g id="Bottom-glyph4" serif:id="Bottom glyph" transform="matrix(1,0,0,1,-37.2969,1.87907)">
                <g transform="matrix(58.3333,0,0,58.3333,340.328,177.097)">
                    <path d="M0.312,0.016C0.262,0.016 0.219,0.008 0.183,-0.009C0.146,-0.026 0.118,-0.049 0.097,-0.079C0.076,-0.109 0.063,-0.144 0.06,-0.183L0.15,-0.189C0.155,-0.149 0.173,-0.119 0.202,-0.099C0.231,-0.078 0.267,-0.068 0.312,-0.068C0.362,-0.068 0.402,-0.082 0.431,-0.111C0.46,-0.139 0.475,-0.178 0.475,-0.228C0.475,-0.261 0.468,-0.29 0.456,-0.315C0.443,-0.339 0.424,-0.358 0.399,-0.371C0.374,-0.384 0.345,-0.391 0.31,-0.391C0.277,-0.391 0.248,-0.384 0.221,-0.37C0.194,-0.356 0.175,-0.336 0.164,-0.311L0.072,-0.311L0.119,-0.71L0.517,-0.71L0.517,-0.626L0.198,-0.626L0.166,-0.364L0.15,-0.38C0.161,-0.401 0.175,-0.418 0.193,-0.432C0.21,-0.445 0.231,-0.456 0.254,-0.463C0.277,-0.47 0.301,-0.473 0.326,-0.473C0.373,-0.473 0.415,-0.463 0.451,-0.442C0.487,-0.421 0.515,-0.392 0.535,-0.355C0.555,-0.317 0.565,-0.275 0.565,-0.228C0.565,-0.181 0.554,-0.138 0.533,-0.102C0.512,-0.065 0.482,-0.036 0.444,-0.015C0.406,0.006 0.362,0.016 0.312,0.016Z" style="fill:rgb(230,230,230);fill-rule:nonzero;"/>
                </g>
            </g>
            <g id="Top-glyph4" serif:id="Top glyph" transform="matrix(1,0,0,1,-52.324,-5.32316)">
                <g transform="matrix(58.3333,0,0,58.3333,350.192,112.252)">
                    <path d="M0.198,-0.366C0.153,-0.366 0.117,-0.381 0.088,-0.412C0.058,-0.442 0.044,-0.485 0.044,-0.542C0.044,-0.599 0.058,-0.643 0.088,-0.673C0.117,-0.703 0.153,-0.718 0.198,-0.718C0.243,-0.718 0.28,-0.703 0.309,-0.673C0.338,-0.643 0.352,-0.599 0.352,-0.542C0.352,-0.485 0.338,-0.442 0.309,-0.412C0.28,-0.381 0.243,-0.366 0.198,-0.366ZM0.198,-0.428C0.225,-0.428 0.246,-0.438 0.26,-0.458C0.273,-0.478 0.28,-0.506 0.28,-0.542C0.28,-0.578 0.273,-0.606 0.26,-0.626C0.246,-0.646 0.225,-0.656 0.198,-0.656C0.171,-0.656 0.151,-0.646 0.137,-0.626C0.123,-0.606 0.116,-0.578 0.116,-0.542C0.116,-0.506 0.123,-0.478 0.137,-0.458C0.151,-0.438 0.171,-0.428 0.198,-0.428ZM0.604,0.008C0.559,0.008 0.523,-0.007 0.494,-0.038C0.464,-0.068 0.45,-0.111 0.45,-0.168C0.45,-0.225 0.464,-0.269 0.494,-0.299C0.523,-0.329 0.559,-0.344 0.604,-0.344C0.649,-0.344 0.686,-0.329 0.715,-0.299C0.744,-0.269 0.758,-0.225 0.758,-0.168C0.758,-0.111 0.744,-0.068 0.715,-0.038C0.686,-0.007 0.649,0.008 0.604,0.008ZM0.604,-0.054C0.631,-0.054 0.652,-0.064 0.666,-0.084C0.679,-0.104 0.686,-0.132 0.686,-0.168C0.686,-0.204 0.679,-0.232 0.666,-0.252C0.652,-0.272 0.631,-0.282 0.604,-0.282C0.577,-0.282 0.557,-0.272 0.543,-0.252C0.529,-0.232 0.522,-0.204 0.522,-0.168C0.522,-0.132 0.529,-0.104 0.543,-0.084C0.557,-0.064 0.577,-0.054 0.604,-0.054ZM0.116,-0L0.606,-0.71L0.686,-0.71L0.196,-0L0.116,-0Z" style="fill:rgb(230,230,230);fill-rule:nonzero;"/>
                </g>
            </g>
        </g>
        <g id="_4--" serif:id="4-$" transform="matrix(1,0,0,1,-244.488,190.157)">
            <g id="Global-background5" serif:id="Global background" transform="matrix(3.19882,0,0,2.88209,-138.632,-381.554)">
                <path d="M119.769,160.665C119.769,157.404 120.936,154.277 123.014,151.971C125.091,149.666 127.908,148.37 130.846,148.37L156.692,148.37C159.63,148.37 162.448,149.666 164.525,151.971C166.602,154.277 167.769,157.404 167.769,160.665L167.769,189.351C167.769,192.612 166.602,195.739 164.525,198.044C162.448,200.35 159.63,201.645 156.692,201.645L130.846,201.645C127.908,201.645 125.091,200.35 123.014,198.044C120.936,195.739 119.769,192.612 119.769,189.351L119.769,160.665Z" style="fill:rgb(230,230,230);"/>
            </g>
            <g id="Bottom-background5" serif:id="Bottom background" transform="matrix(3.19882,0,0,2.88209,-138.632,-381.554)">
                <path d="M163.63,176.259C164.241,176.259 164.737,176.809 164.737,177.488C164.737,179.758 164.737,184.794 164.737,189.351C164.737,191.742 163.882,194.035 162.358,195.726C160.835,197.417 158.769,198.367 156.614,198.367L130.895,198.367C128.741,198.367 126.675,197.417 125.151,195.726C123.628,194.035 122.772,191.742 122.772,189.351L122.772,177.488C122.772,176.809 123.268,176.259 123.88,176.259C129.805,176.259 157.705,176.259 163.63,176.259Z" style="fill:rgb(92,60,28);"/>
            </g>
            <g id="Top-background5" serif:id="Top background" transform="matrix(3.19882,0,0,2.88209,-138.632,-381.554)">
                <path d="M163.708,173.259C164.001,173.259 164.283,173.129 164.491,172.898C164.699,172.668 164.815,172.355 164.815,172.029C164.815,169.831 164.815,165.046 164.815,160.665C164.815,158.273 163.96,155.98 162.436,154.289C160.913,152.599 158.847,151.649 156.692,151.649L130.846,151.649C128.692,151.649 126.626,152.599 125.102,154.289C123.579,155.98 122.723,158.273 122.723,160.665L122.723,172.029C122.723,172.355 122.84,172.668 123.048,172.898C123.255,173.129 123.537,173.259 123.831,173.259C129.768,173.259 157.771,173.259 163.708,173.259Z" style="fill:rgb(187,101,43);"/>
            </g>
            <g id="Bottom-glyph5" serif:id="Bottom glyph" transform="matrix(1,0,0,1,-36.4219,1.87907)">
                <g transform="matrix(58.3333,0,0,58.3333,340.328,177.097)">
                    <path d="M0.391,-0L0.391,-0.154L0.03,-0.154L0.03,-0.232L0.385,-0.71L0.477,-0.71L0.477,-0.238L0.565,-0.238L0.565,-0.154L0.477,-0.154L0.477,-0L0.391,-0ZM0.134,-0.238L0.391,-0.238L0.391,-0.578L0.134,-0.238Z" style="fill:rgb(230,230,230);fill-rule:nonzero;"/>
                </g>
            </g>
            <g id="Top-glyph5" serif:id="Top glyph" transform="matrix(1,0,0,1,-47.2781,-5.32316)">
                <g transform="matrix(58.3333,0,0,58.3333,350.192,112.252)">
                    <path d="M0.285,0.09L0.285,-0.8L0.359,-0.8L0.359,0.09L0.285,0.09ZM0.33,0.016C0.277,0.016 0.23,0.006 0.191,-0.015C0.151,-0.035 0.119,-0.063 0.096,-0.099C0.073,-0.134 0.059,-0.175 0.055,-0.222L0.143,-0.228C0.148,-0.193 0.158,-0.164 0.174,-0.14C0.189,-0.116 0.21,-0.098 0.237,-0.086C0.263,-0.073 0.295,-0.067 0.332,-0.067C0.365,-0.067 0.393,-0.071 0.416,-0.08C0.439,-0.088 0.456,-0.1 0.468,-0.117C0.48,-0.133 0.486,-0.153 0.486,-0.176C0.486,-0.198 0.481,-0.217 0.471,-0.234C0.461,-0.251 0.442,-0.266 0.413,-0.28C0.384,-0.294 0.342,-0.308 0.287,-0.321C0.234,-0.335 0.191,-0.35 0.159,-0.367C0.127,-0.383 0.104,-0.403 0.091,-0.427C0.077,-0.45 0.07,-0.479 0.07,-0.514C0.07,-0.553 0.079,-0.587 0.098,-0.617C0.117,-0.646 0.143,-0.669 0.178,-0.686C0.212,-0.703 0.253,-0.711 0.301,-0.711C0.352,-0.711 0.395,-0.701 0.432,-0.683C0.469,-0.664 0.498,-0.637 0.52,-0.604C0.541,-0.571 0.555,-0.533 0.56,-0.49L0.471,-0.484C0.468,-0.512 0.459,-0.537 0.445,-0.559C0.431,-0.581 0.412,-0.598 0.388,-0.611C0.363,-0.623 0.334,-0.629 0.299,-0.629C0.256,-0.629 0.221,-0.619 0.196,-0.598C0.171,-0.577 0.158,-0.55 0.158,-0.517C0.158,-0.496 0.163,-0.478 0.173,-0.464C0.183,-0.449 0.201,-0.437 0.228,-0.426C0.254,-0.415 0.291,-0.404 0.34,-0.392C0.398,-0.377 0.444,-0.36 0.479,-0.341C0.513,-0.321 0.537,-0.298 0.552,-0.272C0.567,-0.245 0.574,-0.215 0.574,-0.182C0.574,-0.142 0.564,-0.107 0.543,-0.078C0.522,-0.048 0.493,-0.025 0.456,-0.009C0.419,0.008 0.377,0.016 0.33,0.016Z" style="fill:rgb(230,230,230);fill-rule:nonzero;"/>
                </g>
            </g>
        </g>
        <g id="_3--" serif:id="3-#" transform="matrix(1,0,0,1,227.953,-46.063)">
            <g id="Global-background6" serif:id="Global background" transform="matrix(3.19882,0,0,2.88209,-138.632,-381.554)">
                <path d="M119.769,160.665C119.769,157.404 120.936,154.277 123.014,151.971C125.091,149.666 127.908,148.37 130.846,148.37L156.692,148.37C159.63,148.37 162.448,149.666 164.525,151.971C166.602,154.277 167.769,157.404 167.769,160.665L167.769,189.351C167.769,192.612 166.602,195.739 164.525,198.044C162.448,200.35 159.63,201.645 156.692,201.645L130.846,201.645C127.908,201.645 125.091,200.35 123.014,198.044C120.936,195.739 119.769,192.612 119.769,189.351L119.769,160.665Z" style="fill:rgb(230,230,230);"/>
            </g>
            <g id="Bottom-background6" serif:id="Bottom background" transform="matrix(3.19882,0,0,2.88209,-138.632,-381.554)">
                <path d="M163.63,176.259C164.241,176.259 164.737,176.809 164.737,177.488C164.737,179.758 164.737,184.794 164.737,189.351C164.737,191.742 163.882,194.035 162.358,195.726C160.835,197.417 158.769,198.367 156.614,198.367L130.895,198.367C128.741,198.367 126.675,197.417 125.151,195.726C123.628,194.035 122.772,191.742 122.772,189.351L122.772,177.488C122.772,176.809 123.268,176.259 123.88,176.259C129.805,176.259 157.705,176.259 163.63,176.259Z" style="fill:rgb(92,60,28);"/>
            </g>
            <g id="Top-background6" serif:id="Top background" transform="matrix(3.19882,0,0,2.88209,-138.632,-381.554)">
                <path d="M163.708,173.259C164.001,173.259 164.283,173.129 164.491,172.898C164.699,172.668 164.815,172.355 164.815,172.029C164.815,169.831 164.815,165.046 164.815,160.665C164.815,158.273 163.96,155.98 162.436,154.289C160.913,152.599 158.847,151.649 156.692,151.649L130.846,151.649C128.692,151.649 126.626,152.599 125.102,154.289C123.579,155.98 122.723,158.273 122.723,160.665L122.723,172.029C122.723,172.355 122.84,172.668 123.048,172.898C123.255,173.129 123.537,173.259 123.831,173.259C129.768,173.259 157.771,173.259 163.708,173.259Z" style="fill:rgb(187,101,43);"/>
            </g>
            <g id="Bottom-glyph6" serif:id="Bottom glyph" transform="matrix(1,0,0,1,-37.1219,1.87907)">
                <g transform="matrix(58.3333,0,0,58.3333,340.328,177.097)">
                    <path d="M0.301,0.016C0.222,0.016 0.162,-0.003 0.119,-0.04C0.076,-0.077 0.053,-0.124 0.05,-0.183L0.139,-0.189C0.143,-0.146 0.16,-0.115 0.19,-0.096C0.219,-0.077 0.256,-0.068 0.301,-0.068C0.332,-0.068 0.36,-0.072 0.386,-0.081C0.412,-0.089 0.433,-0.102 0.449,-0.122C0.465,-0.14 0.473,-0.166 0.473,-0.198C0.473,-0.245 0.457,-0.28 0.426,-0.302C0.395,-0.324 0.353,-0.335 0.302,-0.335L0.246,-0.335L0.246,-0.419L0.302,-0.419C0.344,-0.419 0.379,-0.427 0.407,-0.444C0.434,-0.461 0.448,-0.489 0.448,-0.53C0.448,-0.567 0.436,-0.595 0.413,-0.614C0.389,-0.632 0.353,-0.642 0.306,-0.642C0.259,-0.642 0.224,-0.633 0.201,-0.615C0.177,-0.597 0.163,-0.572 0.158,-0.541L0.068,-0.547C0.075,-0.6 0.098,-0.644 0.139,-0.677C0.18,-0.709 0.235,-0.726 0.306,-0.726C0.354,-0.726 0.395,-0.718 0.43,-0.703C0.465,-0.687 0.491,-0.665 0.51,-0.636C0.529,-0.607 0.538,-0.573 0.538,-0.534C0.538,-0.49 0.524,-0.455 0.497,-0.428C0.469,-0.401 0.428,-0.382 0.374,-0.372L0.374,-0.39C0.432,-0.383 0.478,-0.363 0.512,-0.328C0.546,-0.293 0.563,-0.25 0.563,-0.198C0.563,-0.153 0.552,-0.114 0.53,-0.082C0.507,-0.05 0.476,-0.026 0.437,-0.009C0.398,0.008 0.352,0.016 0.301,0.016Z" style="fill:rgb(230,230,230);fill-rule:nonzero;"/>
                </g>
            </g>
            <g id="Top-glyph6" serif:id="Top glyph" transform="matrix(1,0,0,1,-42.7281,-5.32316)">
                <g transform="matrix(58.3333,0,0,58.3333,350.192,112.252)">
                    <path d="M0.234,-0L0.366,-0.71L0.438,-0.71L0.306,-0L0.234,-0ZM-0.01,-0.197L0.002,-0.267L0.443,-0.267L0.431,-0.197L-0.01,-0.197ZM0.036,-0L0.168,-0.71L0.24,-0.71L0.108,-0L0.036,-0ZM0.03,-0.44L0.042,-0.51L0.483,-0.51L0.471,-0.44L0.03,-0.44Z" style="fill:rgb(230,230,230);fill-rule:nonzero;"/>
                </g>
            </g>
        </g>
        <g id="_2--" serif:id="2-&quot;" transform="matrix(1,0,0,1,-8.26772,-46.063)">
            <g id="Global-background7" serif:id="Global background" transform="matrix(3.19882,0,0,2.88209,-138.632,-381.554)">
                <path d="M119.769,160.665C119.769,157.404 120.936,154.277 123.014,151.971C125.091,149.666 127.908,148.37 130.846,148.37L156.692,148.37C159.63,148.37 162.448,149.666 164.525,151.971C166.602,154.277 167.769,157.404 167.769,160.665L167.769,189.351C167.769,192.612 166.602,195.739 164.525,198.044C162.448,200.35 159.63,201.645 156.692,201.645L130.846,201.645C127.908,201.645 125.091,200.35 123.014,198.044C120.936,195.739 119.769,192.612 119.769,189.351L119.769,160.665Z" style="fill:rgb(230,230,230);"/>
            </g>
            <g id="Bottom-background7" serif:id="Bottom background" transform="matrix(3.19882,0,0,2.88209,-138.632,-381.554)">
                <path d="M163.63,176.259C164.241,176.259 164.737,176.809 164.737,177.488C164.737,179.758 164.737,184.794 164.737,189.351C164.737,191.742 163.882,194.035 162.358,195.726C160.835,197.417 158.769,198.367 156.614,198.367L130.895,198.367C128.741,198.367 126.675,197.417 125.151,195.726C123.628,194.035 122.772,191.742 122.772,189.351L122.772,177.488C122.772,176.809 123.268,176.259 123.88,176.259C129.805,176.259 157.705,176.259 163.63,176.259Z" style="fill:rgb(92,60,28);"/>
            </g>
            <g id="Top-background7" serif:id="Top background" transform="matrix(3.19882,0,0,2.88209,-138.632,-381.554)">
                <path d="M163.708,173.259C164.001,173.259 164.283,173.129 164.491,172.898C164.699,172.668 164.815,172.355 164.815,172.029C164.815,169.831 164.815,165.046 164.815,160.665C164.815,158.273 163.96,155.98 162.436,154.289C160.913,152.599 158.847,151.649 156.692,151.649L130.846,151.649C128.692,151.649 126.626,152.599 125.102,154.289C123.579,155.98 122.723,158.273 122.723,160.665L122.723,172.029C122.723,172.355 122.84,172.668 123.048,172.898C123.255,173.129 123.537,173.259 123.831,173.259C129.768,173.259 157.771,173.259 163.708,173.259Z" style="fill:rgb(187,101,43);"/>
            </g>
            <g id="Bottom-glyph7" serif:id="Bottom glyph" transform="matrix(1,0,0,1,-37.1219,1.87907)">
                <g transform="matrix(58.3333,0,0,58.3333,340.328,177.097)">
                    <path d="M0.06,-0C0.06,-0.05 0.068,-0.095 0.084,-0.136C0.099,-0.176 0.127,-0.214 0.167,-0.251C0.206,-0.288 0.261,-0.325 0.332,-0.362C0.365,-0.379 0.391,-0.395 0.411,-0.41C0.431,-0.425 0.446,-0.44 0.455,-0.457C0.464,-0.474 0.469,-0.494 0.469,-0.518C0.469,-0.543 0.464,-0.564 0.453,-0.583C0.442,-0.601 0.427,-0.615 0.406,-0.626C0.385,-0.637 0.358,-0.642 0.327,-0.642C0.277,-0.642 0.238,-0.629 0.209,-0.603C0.18,-0.577 0.161,-0.54 0.154,-0.492L0.064,-0.498C0.072,-0.567 0.099,-0.623 0.144,-0.664C0.189,-0.705 0.25,-0.726 0.327,-0.726C0.376,-0.726 0.417,-0.717 0.452,-0.7C0.487,-0.683 0.513,-0.659 0.532,-0.628C0.55,-0.596 0.559,-0.561 0.559,-0.52C0.559,-0.484 0.553,-0.453 0.541,-0.427C0.529,-0.4 0.509,-0.376 0.481,-0.353C0.452,-0.33 0.413,-0.306 0.364,-0.28C0.3,-0.246 0.252,-0.212 0.219,-0.177C0.186,-0.142 0.168,-0.111 0.166,-0.084L0.559,-0.084L0.559,-0L0.06,-0Z" style="fill:rgb(230,230,230);fill-rule:nonzero;"/>
                </g>
            </g>
            <g id="Top-glyph7" serif:id="Top glyph">
                <g id="Top-glyph-half-2" serif:id="Top glyph half 2" transform="matrix(1,0,0,1,-41.9334,-42.1128)">
                    <g transform="matrix(58.3333,0,0,58.3333,351.425,114.21)">
                        <path d="M0.047,0.156L0.095,-0L0.044,-0L0.044,-0.113L0.157,-0.113L0.157,-0.014L0.097,0.156L0.047,0.156Z" style="fill:rgb(230,230,230);fill-rule:nonzero;"/>
                    </g>
                </g>
                <g id="Top-glyph-half-1" serif:id="Top glyph half 1" transform="matrix(1,0,0,1,-28.9412,-42.1128)">
                    <g transform="matrix(58.3333,0,0,58.3333,351.425,114.21)">
                        <path d="M0.047,0.156L0.095,-0L0.044,-0L0.044,-0.113L0.157,-0.113L0.157,-0.014L0.097,0.156L0.047,0.156Z" style="fill:rgb(230,230,230);fill-rule:nonzero;"/>
                    </g>
                </g>
            </g>
        </g>
        <g id="_1--" serif:id="1-!" transform="matrix(1,0,0,1,-244.488,-46.063)">
            <g id="Global-background8" serif:id="Global background" transform="matrix(3.19882,0,0,2.88209,-138.632,-381.554)">
                <path d="M119.769,160.665C119.769,157.404 120.936,154.277 123.014,151.971C125.091,149.666 127.908,148.37 130.846,148.37L156.692,148.37C159.63,148.37 162.448,149.666 164.525,151.971C166.602,154.277 167.769,157.404 167.769,160.665L167.769,189.351C167.769,192.612 166.602,195.739 164.525,198.044C162.448,200.35 159.63,201.645 156.692,201.645L130.846,201.645C127.908,201.645 125.091,200.35 123.014,198.044C120.936,195.739 119.769,192.612 119.769,189.351L119.769,160.665Z" style="fill:rgb(230,230,230);"/>
            </g>
            <g id="Bottom-background8" serif:id="Bottom background" transform="matrix(3.19882,0,0,2.88209,-138.632,-381.554)">
                <path d="M163.63,176.259C164.241,176.259 164.737,176.809 164.737,177.488C164.737,179.758 164.737,184.794 164.737,189.351C164.737,191.742 163.882,194.035 162.358,195.726C160.835,197.417 158.769,198.367 156.614,198.367L130.895,198.367C128.741,198.367 126.675,197.417 125.151,195.726C123.628,194.035 122.772,191.742 122.772,189.351L122.772,177.488C122.772,176.809 123.268,176.259 123.88,176.259C129.805,176.259 157.705,176.259 163.63,176.259Z" style="fill:rgb(92,60,28);"/>
            </g>
            <g id="Top-background8" serif:id="Top background" transform="matrix(3.19882,0,0,2.88209,-138.632,-381.554)">
                <path d="M163.708,173.259C164.001,173.259 164.283,173.129 164.491,172.898C164.699,172.668 164.815,172.355 164.815,172.029C164.815,169.831 164.815,165.046 164.815,160.665C164.815,158.273 163.96,155.98 162.436,154.289C160.913,152.599 158.847,151.649 156.692,151.649L130.846,151.649C128.692,151.649 126.626,152.599 125.102,154.289C123.579,155.98 122.723,158.273 122.723,160.665L122.723,172.029C122.723,172.355 122.84,172.668 123.048,172.898C123.255,173.129 123.537,173.259 123.831,173.259C129.768,173.259 157.771,173.259 163.708,173.259Z" style="fill:rgb(187,101,43);"/>
            </g>
            <g id="Bottom-glyph8" serif:id="Bottom glyph" transform="matrix(1,0,0,1,-28.226,1.87907)">
                <g transform="matrix(58.3333,0,0,58.3333,340.328,177.097)">
                    <path d="M0.188,-0L0.188,-0.526L0.04,-0.526L0.04,-0.6L0.1,-0.6C0.126,-0.6 0.147,-0.603 0.163,-0.61C0.178,-0.617 0.189,-0.628 0.196,-0.644C0.203,-0.66 0.206,-0.682 0.206,-0.71L0.274,-0.71L0.274,-0L0.188,-0Z" style="fill:rgb(230,230,230);fill-rule:nonzero;"/>
                </g>
            </g>
            <g id="Top-glyph8" serif:id="Top glyph" transform="matrix(1,0,0,1,-35.1448,-5.32316)">
                <g transform="matrix(58.3333,0,0,58.3333,350.192,112.252)">
                    <path d="M0.083,-0.205C0.081,-0.228 0.079,-0.256 0.077,-0.289C0.074,-0.322 0.072,-0.355 0.07,-0.389C0.068,-0.423 0.067,-0.453 0.067,-0.48L0.067,-0.71L0.153,-0.71L0.153,-0.48C0.153,-0.453 0.152,-0.423 0.151,-0.389C0.149,-0.355 0.147,-0.322 0.145,-0.289C0.142,-0.256 0.14,-0.228 0.138,-0.205L0.083,-0.205ZM0.05,-0L0.05,-0.113L0.163,-0.113L0.163,-0L0.05,-0Z" style="fill:rgb(230,230,230);fill-rule:nonzero;"/>
                </g>
            </g>
        </g>
    </g>
</svg>
