<?xml version="1.0" encoding="UTF-8" standalone="no"?>
<!DOCTYPE svg PUBLIC "-//W3C//DTD SVG 1.1//EN" "http://www.w3.org/Graphics/SVG/1.1/DTD/svg11.dtd">
<svg width="100%" height="100%" viewBox="0 0 151 151" version="1.1" xmlns="http://www.w3.org/2000/svg" xmlns:xlink="http://www.w3.org/1999/xlink" xml:space="preserve" xmlns:serif="http://www.serif.com/" style="fill-rule:evenodd;clip-rule:evenodd;stroke-linejoin:round;stroke-miterlimit:2;">
    <g transform="matrix(0.24,0,0,0.24,0,0)">
        <g id="Equal-Down-pipe" transform="matrix(1,0,0,1,227.953,426.378)">
            <g id="Global-background" serif:id="Global background" transform="matrix(3.19882,0,0,2.88209,-138.632,-381.554)">
                <path d="M119.769,160.665C119.769,157.404 120.936,154.277 123.014,151.971C125.091,149.666 127.908,148.37 130.846,148.37L156.692,148.37C159.63,148.37 162.448,149.666 164.525,151.971C166.602,154.277 167.769,157.404 167.769,160.665L167.769,189.351C167.769,192.612 166.602,195.739 164.525,198.044C162.448,200.35 159.63,201.645 156.692,201.645L130.846,201.645C127.908,201.645 125.091,200.35 123.014,198.044C120.936,195.739 119.769,192.612 119.769,189.351L119.769,160.665Z" style="fill:rgb(230,230,230);"/>
            </g>
            <g id="Bottom-background" serif:id="Bottom background" transform="matrix(3.19882,0,0,2.88209,-138.632,-381.554)">
                <path d="M163.63,176.259C164.241,176.259 164.737,176.809 164.737,177.488C164.737,179.758 164.737,184.794 164.737,189.351C164.737,191.742 163.882,194.035 162.358,195.726C160.835,197.417 158.769,198.367 156.614,198.367L130.895,198.367C128.741,198.367 126.675,197.417 125.151,195.726C123.628,194.035 122.772,191.742 122.772,189.351L122.772,177.488C122.772,176.809 123.268,176.259 123.88,176.259C129.805,176.259 157.705,176.259 163.63,176.259Z" style="fill:rgb(92,60,28);"/>
            </g>
            <g id="Top-background" serif:id="Top background" transform="matrix(3.19882,0,0,2.88209,-138.632,-381.554)">
                <path d="M163.708,173.259C164.001,173.259 164.283,173.129 164.491,172.898C164.699,172.668 164.815,172.355 164.815,172.029C164.815,169.831 164.815,165.046 164.815,160.665C164.815,158.273 163.96,155.98 162.436,154.289C160.913,152.599 158.847,151.649 156.692,151.649L130.846,151.649C128.692,151.649 126.626,152.599 125.102,154.289C123.579,155.98 122.723,158.273 122.723,160.665L122.723,172.029C122.723,172.355 122.84,172.668 123.048,172.898C123.255,173.129 123.537,173.259 123.831,173.259C129.768,173.259 157.771,173.259 163.708,173.259Z" style="fill:rgb(187,101,43);"/>
            </g>
            <g transform="matrix(1,0,0,1.06122,46.7776,-229.608)">
                <path d="M270.975,277.819C272.918,277.838 274.482,279.327 274.482,281.158C274.482,289.394 274.482,310.761 274.482,319.032C274.482,320.876 272.896,322.371 270.939,322.371C260.508,322.371 229.992,322.371 219.561,322.371C217.604,322.371 216.018,320.876 216.018,319.032C216.018,313.69 216.018,302.879 216.018,293.598C216.018,289.29 217.846,285.16 221.095,282.129C224.344,279.098 228.745,277.417 233.317,277.461C246.541,277.587 263.699,277.75 270.975,277.819Z" style="fill:rgb(255,197,2);"/>
            </g>
            <g transform="matrix(0.90625,0,0,-0.90625,-2092.16,362.398)">
                <path d="M2619.09,319.145L2637.99,319.145L2637.99,300.837L2647.44,300.837L2628.54,281.94L2609.65,300.837L2619.09,300.837L2619.09,319.145Z"/>
            </g>
            <g id="Bottom-glyph" serif:id="Bottom glyph" transform="matrix(1,0,0,1,-28.0677,-8.8626)">
                <g transform="matrix(46.6667,0,0,33.3333,336.728,177.097)">
                    <path d="M0.04,-0.363L0.04,-0.441L0.5,-0.441L0.5,-0.363L0.04,-0.363ZM0.04,-0.157L0.04,-0.235L0.5,-0.235L0.5,-0.157L0.04,-0.157Z" style="fill:rgb(230,230,230);fill-rule:nonzero;"/>
                </g>
            </g>
            <g id="Top-glyph" serif:id="Top glyph" transform="matrix(1,0,0,1,0.329134,-15.3648)">
                <g transform="matrix(33.3333,0,0,33.3333,350.192,112.252)">
                    <rect x="0.092" y="-0.75" width="0.08" height="0.86" style="fill:rgb(230,230,230);fill-rule:nonzero;"/>
                </g>
            </g>
        </g>
        <g id="Minus-Up-Underscore" transform="matrix(1,0,0,1,-8.26772,426.378)">
            <g id="Global-background1" serif:id="Global background" transform="matrix(3.19882,0,0,2.88209,-138.632,-381.554)">
                <path d="M119.769,160.665C119.769,157.404 120.936,154.277 123.014,151.971C125.091,149.666 127.908,148.37 130.846,148.37L156.692,148.37C159.63,148.37 162.448,149.666 164.525,151.971C166.602,154.277 167.769,157.404 167.769,160.665L167.769,189.351C167.769,192.612 166.602,195.739 164.525,198.044C162.448,200.35 159.63,201.645 156.692,201.645L130.846,201.645C127.908,201.645 125.091,200.35 123.014,198.044C120.936,195.739 119.769,192.612 119.769,189.351L119.769,160.665Z" style="fill:rgb(230,230,230);"/>
            </g>
            <g id="Bottom-background1" serif:id="Bottom background" transform="matrix(3.19882,0,0,2.88209,-138.632,-381.554)">
                <path d="M163.63,176.259C164.241,176.259 164.737,176.809 164.737,177.488C164.737,179.758 164.737,184.794 164.737,189.351C164.737,191.742 163.882,194.035 162.358,195.726C160.835,197.417 158.769,198.367 156.614,198.367L130.895,198.367C128.741,198.367 126.675,197.417 125.151,195.726C123.628,194.035 122.772,191.742 122.772,189.351L122.772,177.488C122.772,176.809 123.268,176.259 123.88,176.259C129.805,176.259 157.705,176.259 163.63,176.259Z" style="fill:rgb(92,60,28);"/>
            </g>
            <g id="Top-background1" serif:id="Top background" transform="matrix(3.19882,0,0,2.88209,-138.632,-381.554)">
                <path d="M163.708,173.259C164.001,173.259 164.283,173.129 164.491,172.898C164.699,172.668 164.815,172.355 164.815,172.029C164.815,169.831 164.815,165.046 164.815,160.665C164.815,158.273 163.96,155.98 162.436,154.289C160.913,152.599 158.847,151.649 156.692,151.649L130.846,151.649C128.692,151.649 126.626,152.599 125.102,154.289C123.579,155.98 122.723,158.273 122.723,160.665L122.723,172.029C122.723,172.355 122.84,172.668 123.048,172.898C123.255,173.129 123.537,173.259 123.831,173.259C129.768,173.259 157.771,173.259 163.708,173.259Z" style="fill:rgb(187,101,43);"/>
            </g>
            <g transform="matrix(1,0,0,1.06122,46.7776,-229.608)">
                <path d="M270.975,277.819C272.918,277.838 274.482,279.327 274.482,281.158C274.482,289.394 274.482,310.761 274.482,319.032C274.482,320.876 272.896,322.371 270.939,322.371C260.508,322.371 229.992,322.371 219.561,322.371C217.604,322.371 216.018,320.876 216.018,319.032C216.018,313.69 216.018,302.879 216.018,293.598C216.018,289.29 217.846,285.16 221.095,282.129C224.344,279.098 228.745,277.417 233.317,277.461C246.541,277.587 263.699,277.75 270.975,277.819Z" style="fill:rgb(255,197,2);"/>
            </g>
            <g transform="matrix(0.90625,0,0,0.90625,-2092.16,-182.335)">
                <path d="M2619.09,319.145L2637.99,319.145L2637.99,300.837L2647.44,300.837L2628.54,281.94L2609.65,300.837L2619.09,300.837L2619.09,319.145Z"/>
            </g>
            <g id="Bottom-glyph1" serif:id="Bottom glyph" transform="matrix(1,0,0,1,-28.0677,-8.8626)">
                <g transform="matrix(66.6667,0,0,33.3333,335.361,177.097)">
                    <rect x="0.044" y="-0.331" width="0.331" height="0.079" style="fill:rgb(230,230,230);fill-rule:nonzero;"/>
                </g>
            </g>
            <g id="Top-glyph1" serif:id="Top glyph" transform="matrix(1,0,0,1,-13.8375,-3.70945)">
                <g transform="matrix(73.3333,0,0,33.3333,350.192,112.252)">
                    <rect x="0.044" y="-0" width="0.469" height="0.078" style="fill:rgb(230,230,230);fill-rule:nonzero;"/>
                </g>
            </g>
        </g>
        <g id="P" transform="matrix(1,0,0,1,-31.8898,426.378)">
            <g id="Global-background2" serif:id="Global background" transform="matrix(3.19882,0,0,2.88209,-351.23,-381.554)">
                <path d="M119.769,160.665C119.769,157.404 120.936,154.277 123.014,151.971C125.091,149.666 127.908,148.37 130.846,148.37L156.692,148.37C159.63,148.37 162.448,149.666 164.525,151.971C166.602,154.277 167.769,157.404 167.769,160.665L167.769,189.351C167.769,192.612 166.602,195.739 164.525,198.044C162.448,200.35 159.63,201.645 156.692,201.645L130.846,201.645C127.908,201.645 125.091,200.35 123.014,198.044C120.936,195.739 119.769,192.612 119.769,189.351L119.769,160.665Z" style="fill:rgb(230,230,230);"/>
            </g>
            <g id="Bottom-background2" serif:id="Bottom background" transform="matrix(3.19882,0,0,2.88209,-351.23,-381.554)">
                <path d="M156.614,151.649C158.769,151.649 160.835,152.599 162.358,154.289C163.882,155.98 164.737,158.273 164.737,160.665L164.737,189.351C164.737,191.742 163.882,194.035 162.358,195.726C160.835,197.417 158.769,198.367 156.614,198.367L130.895,198.367C128.741,198.367 126.675,197.417 125.151,195.726C123.628,194.035 122.772,191.742 122.772,189.351L122.772,160.665C122.772,158.273 123.628,155.98 125.151,154.289C126.675,152.599 128.741,151.649 130.895,151.649L156.614,151.649Z" style="fill:rgb(92,60,28);"/>
            </g>
            <g id="Glyph" transform="matrix(1,0,0,1,-15.8593,27.2867)">
                <g transform="matrix(75,0,0,75,98.6457,122.173)">
                    <path d="M0.092,-0L0.092,-0.71L0.347,-0.71C0.426,-0.71 0.488,-0.691 0.532,-0.653C0.576,-0.615 0.598,-0.562 0.598,-0.495C0.598,-0.45 0.588,-0.411 0.568,-0.378C0.548,-0.345 0.519,-0.319 0.482,-0.302C0.445,-0.285 0.4,-0.276 0.347,-0.276L0.178,-0.276L0.178,-0L0.092,-0ZM0.178,-0.36L0.347,-0.36C0.4,-0.36 0.44,-0.371 0.468,-0.394C0.495,-0.417 0.508,-0.45 0.508,-0.495C0.508,-0.538 0.495,-0.571 0.468,-0.593C0.44,-0.615 0.4,-0.626 0.347,-0.626L0.178,-0.626L0.178,-0.36Z" style="fill:rgb(230,230,230);fill-rule:nonzero;"/>
                </g>
            </g>
        </g>
        <g id="O" transform="matrix(1,0,0,1,440.551,190.157)">
            <g id="Global-background3" serif:id="Global background" transform="matrix(3.19882,0,0,2.88209,-351.23,-381.554)">
                <path d="M119.769,160.665C119.769,157.404 120.936,154.277 123.014,151.971C125.091,149.666 127.908,148.37 130.846,148.37L156.692,148.37C159.63,148.37 162.448,149.666 164.525,151.971C166.602,154.277 167.769,157.404 167.769,160.665L167.769,189.351C167.769,192.612 166.602,195.739 164.525,198.044C162.448,200.35 159.63,201.645 156.692,201.645L130.846,201.645C127.908,201.645 125.091,200.35 123.014,198.044C120.936,195.739 119.769,192.612 119.769,189.351L119.769,160.665Z" style="fill:rgb(230,230,230);"/>
            </g>
            <g id="Bottom-background3" serif:id="Bottom background" transform="matrix(3.19882,0,0,2.88209,-351.23,-381.554)">
                <path d="M156.614,151.649C158.769,151.649 160.835,152.599 162.358,154.289C163.882,155.98 164.737,158.273 164.737,160.665L164.737,189.351C164.737,191.742 163.882,194.035 162.358,195.726C160.835,197.417 158.769,198.367 156.614,198.367L130.895,198.367C128.741,198.367 126.675,197.417 125.151,195.726C123.628,194.035 122.772,191.742 122.772,189.351L122.772,160.665C122.772,158.273 123.628,155.98 125.151,154.289C126.675,152.599 128.741,151.649 130.895,151.649L156.614,151.649Z" style="fill:rgb(92,60,28);"/>
            </g>
            <g id="Glyph1" serif:id="Glyph" transform="matrix(1,0,0,1,-17.6968,27.2867)">
                <g transform="matrix(75,0,0,75,98.6457,122.173)">
                    <path d="M0.369,0.016C0.302,0.016 0.244,0.001 0.196,-0.029C0.147,-0.058 0.11,-0.101 0.084,-0.156C0.058,-0.211 0.045,-0.277 0.045,-0.354C0.045,-0.431 0.058,-0.497 0.084,-0.553C0.11,-0.608 0.147,-0.651 0.196,-0.681C0.244,-0.711 0.302,-0.726 0.369,-0.726C0.437,-0.726 0.495,-0.711 0.544,-0.681C0.592,-0.651 0.629,-0.608 0.655,-0.553C0.681,-0.497 0.694,-0.431 0.694,-0.354C0.694,-0.277 0.681,-0.211 0.655,-0.156C0.629,-0.101 0.592,-0.058 0.544,-0.029C0.495,0.001 0.437,0.016 0.369,0.016ZM0.369,-0.068C0.418,-0.068 0.46,-0.079 0.496,-0.102C0.531,-0.125 0.557,-0.157 0.576,-0.2C0.595,-0.243 0.604,-0.294 0.604,-0.354C0.604,-0.414 0.595,-0.466 0.576,-0.509C0.557,-0.552 0.531,-0.585 0.496,-0.608C0.46,-0.631 0.418,-0.642 0.369,-0.642C0.32,-0.642 0.278,-0.631 0.244,-0.608C0.209,-0.585 0.182,-0.552 0.163,-0.509C0.144,-0.466 0.135,-0.414 0.135,-0.354C0.135,-0.294 0.144,-0.243 0.163,-0.2C0.182,-0.157 0.209,-0.125 0.244,-0.102C0.278,-0.079 0.32,-0.068 0.369,-0.068Z" style="fill:rgb(230,230,230);fill-rule:nonzero;"/>
                </g>
            </g>
        </g>
        <g id="I" transform="matrix(1,0,0,1,204.331,190.157)">
            <g id="Global-background4" serif:id="Global background" transform="matrix(3.19882,0,0,2.88209,-351.23,-381.554)">
                <path d="M119.769,160.665C119.769,157.404 120.936,154.277 123.014,151.971C125.091,149.666 127.908,148.37 130.846,148.37L156.692,148.37C159.63,148.37 162.448,149.666 164.525,151.971C166.602,154.277 167.769,157.404 167.769,160.665L167.769,189.351C167.769,192.612 166.602,195.739 164.525,198.044C162.448,200.35 159.63,201.645 156.692,201.645L130.846,201.645C127.908,201.645 125.091,200.35 123.014,198.044C120.936,195.739 119.769,192.612 119.769,189.351L119.769,160.665Z" style="fill:rgb(230,230,230);"/>
            </g>
            <g id="Bottom-background4" serif:id="Bottom background" transform="matrix(3.19882,0,0,2.88209,-351.23,-381.554)">
                <path d="M156.614,151.649C158.769,151.649 160.835,152.599 162.358,154.289C163.882,155.98 164.737,158.273 164.737,160.665L164.737,189.351C164.737,191.742 163.882,194.035 162.358,195.726C160.835,197.417 158.769,198.367 156.614,198.367L130.895,198.367C128.741,198.367 126.675,197.417 125.151,195.726C123.628,194.035 122.772,191.742 122.772,189.351L122.772,160.665C122.772,158.273 123.628,155.98 125.151,154.289C126.675,152.599 128.741,151.649 130.895,151.649L156.614,151.649Z" style="fill:rgb(92,60,28);"/>
            </g>
            <g id="Glyph2" serif:id="Glyph" transform="matrix(1,0,0,1,-0.109252,27.2867)">
                <g transform="matrix(75,0,0,75,98.6457,122.173)">
                    <rect x="0.092" y="-0.71" width="0.086" height="0.71" style="fill:rgb(230,230,230);fill-rule:nonzero;"/>
                </g>
            </g>
        </g>
        <g id="U" transform="matrix(1,0,0,1,-31.8898,190.157)">
            <g id="Global-background5" serif:id="Global background" transform="matrix(3.19882,0,0,2.88209,-351.23,-381.554)">
                <path d="M119.769,160.665C119.769,157.404 120.936,154.277 123.014,151.971C125.091,149.666 127.908,148.37 130.846,148.37L156.692,148.37C159.63,148.37 162.448,149.666 164.525,151.971C166.602,154.277 167.769,157.404 167.769,160.665L167.769,189.351C167.769,192.612 166.602,195.739 164.525,198.044C162.448,200.35 159.63,201.645 156.692,201.645L130.846,201.645C127.908,201.645 125.091,200.35 123.014,198.044C120.936,195.739 119.769,192.612 119.769,189.351L119.769,160.665Z" style="fill:rgb(230,230,230);"/>
            </g>
            <g id="Bottom-background5" serif:id="Bottom background" transform="matrix(3.19882,0,0,2.88209,-351.23,-381.554)">
                <path d="M156.614,151.649C158.769,151.649 160.835,152.599 162.358,154.289C163.882,155.98 164.737,158.273 164.737,160.665L164.737,189.351C164.737,191.742 163.882,194.035 162.358,195.726C160.835,197.417 158.769,198.367 156.614,198.367L130.895,198.367C128.741,198.367 126.675,197.417 125.151,195.726C123.628,194.035 122.772,191.742 122.772,189.351L122.772,160.665C122.772,158.273 123.628,155.98 125.151,154.289C126.675,152.599 128.741,151.649 130.895,151.649L156.614,151.649Z" style="fill:rgb(92,60,28);"/>
            </g>
            <g id="Glyph3" serif:id="Glyph" transform="matrix(1,0,0,1,-0.109252,27.2867)">
                <g transform="matrix(75,0,0,75,82.9332,122.173)">
                    <path d="M0.345,0.016C0.29,0.016 0.243,0.005 0.203,-0.016C0.162,-0.037 0.131,-0.068 0.11,-0.108C0.088,-0.147 0.077,-0.194 0.077,-0.248L0.077,-0.711L0.163,-0.711L0.163,-0.248C0.163,-0.191 0.179,-0.146 0.211,-0.115C0.242,-0.084 0.287,-0.068 0.345,-0.068C0.402,-0.068 0.447,-0.084 0.479,-0.115C0.51,-0.146 0.526,-0.191 0.526,-0.248L0.526,-0.711L0.612,-0.711L0.612,-0.248C0.612,-0.194 0.601,-0.147 0.58,-0.108C0.558,-0.068 0.527,-0.037 0.487,-0.016C0.447,0.005 0.4,0.016 0.345,0.016Z" style="fill:rgb(230,230,230);fill-rule:nonzero;"/>
                </g>
            </g>
        </g>
        <g id="Y" transform="matrix(1,0,0,1,440.551,-46.063)">
            <g id="Global-background6" serif:id="Global background" transform="matrix(3.19882,0,0,2.88209,-351.23,-381.554)">
                <path d="M119.769,160.665C119.769,157.404 120.936,154.277 123.014,151.971C125.091,149.666 127.908,148.37 130.846,148.37L156.692,148.37C159.63,148.37 162.448,149.666 164.525,151.971C166.602,154.277 167.769,157.404 167.769,160.665L167.769,189.351C167.769,192.612 166.602,195.739 164.525,198.044C162.448,200.35 159.63,201.645 156.692,201.645L130.846,201.645C127.908,201.645 125.091,200.35 123.014,198.044C120.936,195.739 119.769,192.612 119.769,189.351L119.769,160.665Z" style="fill:rgb(230,230,230);"/>
            </g>
            <g id="Bottom-background6" serif:id="Bottom background" transform="matrix(3.19882,0,0,2.88209,-351.23,-381.554)">
                <path d="M156.614,151.649C158.769,151.649 160.835,152.599 162.358,154.289C163.882,155.98 164.737,158.273 164.737,160.665L164.737,189.351C164.737,191.742 163.882,194.035 162.358,195.726C160.835,197.417 158.769,198.367 156.614,198.367L130.895,198.367C128.741,198.367 126.675,197.417 125.151,195.726C123.628,194.035 122.772,191.742 122.772,189.351L122.772,160.665C122.772,158.273 123.628,155.98 125.151,154.289C126.675,152.599 128.741,151.649 130.895,151.649L156.614,151.649Z" style="fill:rgb(92,60,28);"/>
            </g>
            <g id="Glyph4" serif:id="Glyph" transform="matrix(1,0,0,1,-0.109252,27.2867)">
                <g transform="matrix(75,0,0,75,87.1707,122.173)">
                    <path d="M0.245,-0L0.245,-0.29L-0.006,-0.71L0.096,-0.71L0.288,-0.378L0.48,-0.71L0.582,-0.71L0.331,-0.29L0.331,-0L0.245,-0Z" style="fill:rgb(230,230,230);fill-rule:nonzero;"/>
                </g>
            </g>
        </g>
        <g id="T" transform="matrix(1,0,0,1,204.331,-46.063)">
            <g id="Global-background7" serif:id="Global background" transform="matrix(3.19882,0,0,2.88209,-351.23,-381.554)">
                <path d="M119.769,160.665C119.769,157.404 120.936,154.277 123.014,151.971C125.091,149.666 127.908,148.37 130.846,148.37L156.692,148.37C159.63,148.37 162.448,149.666 164.525,151.971C166.602,154.277 167.769,157.404 167.769,160.665L167.769,189.351C167.769,192.612 166.602,195.739 164.525,198.044C162.448,200.35 159.63,201.645 156.692,201.645L130.846,201.645C127.908,201.645 125.091,200.35 123.014,198.044C120.936,195.739 119.769,192.612 119.769,189.351L119.769,160.665Z" style="fill:rgb(230,230,230);"/>
            </g>
            <g id="Bottom-background7" serif:id="Bottom background" transform="matrix(3.19882,0,0,2.88209,-351.23,-381.554)">
                <path d="M156.614,151.649C158.769,151.649 160.835,152.599 162.358,154.289C163.882,155.98 164.737,158.273 164.737,160.665L164.737,189.351C164.737,191.742 163.882,194.035 162.358,195.726C160.835,197.417 158.769,198.367 156.614,198.367L130.895,198.367C128.741,198.367 126.675,197.417 125.151,195.726C123.628,194.035 122.772,191.742 122.772,189.351L122.772,160.665C122.772,158.273 123.628,155.98 125.151,154.289C126.675,152.599 128.741,151.649 130.895,151.649L156.614,151.649Z" style="fill:rgb(92,60,28);"/>
            </g>
            <g id="Glyph5" serif:id="Glyph" transform="matrix(1,0,0,1,-0.109252,27.2867)">
                <g transform="matrix(75,0,0,75,88.0707,122.173)">
                    <path d="M0.233,-0L0.233,-0.626L0.012,-0.626L0.012,-0.71L0.54,-0.71L0.54,-0.626L0.319,-0.626L0.319,-0L0.233,-0Z" style="fill:rgb(230,230,230);fill-rule:nonzero;"/>
                </g>
            </g>
        </g>
        <g id="R" transform="matrix(1,0,0,1,-31.8898,-46.063)">
            <g id="Global-background8" serif:id="Global background" transform="matrix(3.19882,0,0,2.88209,-351.23,-381.554)">
                <path d="M119.769,160.665C119.769,157.404 120.936,154.277 123.014,151.971C125.091,149.666 127.908,148.37 130.846,148.37L156.692,148.37C159.63,148.37 162.448,149.666 164.525,151.971C166.602,154.277 167.769,157.404 167.769,160.665L167.769,189.351C167.769,192.612 166.602,195.739 164.525,198.044C162.448,200.35 159.63,201.645 156.692,201.645L130.846,201.645C127.908,201.645 125.091,200.35 123.014,198.044C120.936,195.739 119.769,192.612 119.769,189.351L119.769,160.665Z" style="fill:rgb(230,230,230);"/>
            </g>
            <g id="Bottom-background8" serif:id="Bottom background" transform="matrix(3.19882,0,0,2.88209,-351.23,-381.554)">
                <path d="M156.614,151.649C158.769,151.649 160.835,152.599 162.358,154.289C163.882,155.98 164.737,158.273 164.737,160.665L164.737,189.351C164.737,191.742 163.882,194.035 162.358,195.726C160.835,197.417 158.769,198.367 156.614,198.367L130.895,198.367C128.741,198.367 126.675,197.417 125.151,195.726C123.628,194.035 122.772,191.742 122.772,189.351L122.772,160.665C122.772,158.273 123.628,155.98 125.151,154.289C126.675,152.599 128.741,151.649 130.895,151.649L156.614,151.649Z" style="fill:rgb(92,60,28);"/>
            </g>
            <g id="Glyph6" serif:id="Glyph" transform="matrix(1,0,0,1,-1.23425,27.2867)">
                <g transform="matrix(75,0,0,75,83.5707,122.173)">
                    <path d="M0.092,-0L0.092,-0.71L0.361,-0.71C0.411,-0.71 0.454,-0.701 0.49,-0.684C0.526,-0.667 0.554,-0.642 0.574,-0.61C0.593,-0.577 0.603,-0.539 0.603,-0.495C0.603,-0.463 0.596,-0.435 0.581,-0.41C0.566,-0.385 0.546,-0.365 0.523,-0.35C0.5,-0.335 0.475,-0.327 0.45,-0.326L0.444,-0.335C0.487,-0.335 0.522,-0.325 0.547,-0.305C0.572,-0.285 0.586,-0.253 0.59,-0.209L0.61,-0L0.523,-0L0.505,-0.2C0.502,-0.229 0.492,-0.251 0.474,-0.265C0.455,-0.279 0.425,-0.286 0.384,-0.286L0.178,-0.286L0.178,-0L0.092,-0ZM0.178,-0.37L0.372,-0.37C0.415,-0.37 0.45,-0.381 0.475,-0.403C0.5,-0.425 0.513,-0.456 0.513,-0.497C0.513,-0.538 0.5,-0.57 0.474,-0.593C0.448,-0.615 0.41,-0.626 0.361,-0.626L0.178,-0.626L0.178,-0.37Z" style="fill:rgb(230,230,230);fill-rule:nonzero;"/>
                </g>
            </g>
        </g>
    </g>
</svg>
