<?xml version="1.0" encoding="UTF-8" standalone="no"?>
<!DOCTYPE svg PUBLIC "-//W3C//DTD SVG 1.1//EN" "http://www.w3.org/Graphics/SVG/1.1/DTD/svg11.dtd">
<svg width="100%" height="100%" viewBox="0 0 91 151" version="1.1" xmlns="http://www.w3.org/2000/svg" xmlns:xlink="http://www.w3.org/1999/xlink" xml:space="preserve" xmlns:serif="http://www.serif.com/" style="fill-rule:evenodd;clip-rule:evenodd;stroke-linejoin:round;stroke-miterlimit:2;">
    <g transform="matrix(0.24,0,0,0.24,0,0)">
        <g id="Left-shift" serif:id="Left shift" transform="matrix(1,0,0,1,-188.238,426.378)">
            <g id="Global-background" serif:id="Global background" transform="matrix(7.88017,0,0,2.88209,-755.563,-381.554)">
                <path d="M119.769,160.665C119.769,153.875 121.782,148.37 124.266,148.37C133.418,148.37 154.12,148.37 163.273,148.37C165.756,148.37 167.769,153.875 167.769,160.665L167.769,189.351C167.769,196.141 165.756,201.645 163.273,201.645C154.12,201.645 133.418,201.645 124.266,201.645C121.782,201.645 119.769,196.141 119.769,189.351L119.769,160.665Z" style="fill:rgb(230,230,230);"/>
            </g>
            <g id="Top-background" serif:id="Top background" transform="matrix(8.5372,0,0,6.23077,-850.024,-889.377)">
                <path d="M161.772,173.259C162.579,173.259 163.353,172.819 163.924,172.037C164.495,171.255 164.815,170.194 164.815,169.088L164.815,155.819C164.815,154.713 164.495,153.652 163.924,152.87C163.353,152.088 162.579,151.649 161.772,151.649L125.767,151.649C124.96,151.649 124.185,152.088 123.615,152.87C123.044,153.652 122.723,154.713 122.723,155.819L122.723,169.088C122.723,170.194 123.044,171.255 123.615,172.037C124.185,172.819 124.96,173.259 125.767,173.259L161.772,173.259Z" style="fill:rgb(187,101,43);"/>
            </g>
            <g id="Top-right-glyph" serif:id="Top-right glyph" transform="matrix(1,0,0,1,-9.13543,22.416)">
                <g transform="matrix(33.3333,0,0,33.3333,350.192,112.252)">
                    <path d="M0.336,0.016C0.281,0.016 0.234,0.006 0.193,-0.015C0.152,-0.036 0.12,-0.064 0.097,-0.101C0.073,-0.137 0.059,-0.179 0.055,-0.227L0.145,-0.233C0.15,-0.198 0.16,-0.168 0.176,-0.143C0.192,-0.118 0.214,-0.1 0.241,-0.087C0.268,-0.074 0.3,-0.068 0.338,-0.068C0.371,-0.068 0.4,-0.072 0.423,-0.081C0.446,-0.09 0.464,-0.102 0.477,-0.119C0.489,-0.136 0.495,-0.156 0.495,-0.18C0.495,-0.202 0.49,-0.222 0.48,-0.239C0.469,-0.256 0.45,-0.271 0.421,-0.286C0.392,-0.3 0.349,-0.314 0.292,-0.328C0.237,-0.342 0.194,-0.357 0.162,-0.374C0.129,-0.391 0.106,-0.411 0.092,-0.435C0.077,-0.459 0.07,-0.489 0.07,-0.524C0.07,-0.564 0.08,-0.599 0.099,-0.63C0.118,-0.66 0.145,-0.684 0.18,-0.701C0.215,-0.717 0.257,-0.726 0.306,-0.726C0.358,-0.726 0.403,-0.716 0.44,-0.697C0.477,-0.677 0.507,-0.65 0.529,-0.616C0.551,-0.582 0.565,-0.543 0.57,-0.5L0.48,-0.494C0.476,-0.523 0.467,-0.548 0.453,-0.571C0.438,-0.593 0.419,-0.61 0.394,-0.623C0.369,-0.636 0.339,-0.642 0.304,-0.642C0.26,-0.642 0.225,-0.632 0.199,-0.611C0.173,-0.59 0.16,-0.562 0.16,-0.528C0.16,-0.506 0.165,-0.488 0.176,-0.474C0.186,-0.459 0.204,-0.447 0.231,-0.436C0.258,-0.424 0.296,-0.413 0.346,-0.4C0.405,-0.385 0.452,-0.368 0.488,-0.348C0.523,-0.327 0.548,-0.304 0.563,-0.277C0.578,-0.25 0.585,-0.22 0.585,-0.186C0.585,-0.145 0.574,-0.109 0.553,-0.079C0.532,-0.048 0.502,-0.025 0.465,-0.009C0.428,0.008 0.385,0.016 0.336,0.016Z" style="fill:rgb(230,230,230);fill-rule:nonzero;"/>
                </g>
                <g transform="matrix(33.3333,0,0,33.3333,371.059,112.252)">
                    <path d="M0.092,-0L0.092,-0.71L0.178,-0.71L0.178,-0.365L0.134,-0.399L0.579,-0.399L0.535,-0.365L0.535,-0.71L0.621,-0.71L0.621,-0L0.535,-0L0.535,-0.349L0.579,-0.315L0.134,-0.315L0.178,-0.349L0.178,-0L0.092,-0Z" style="fill:rgb(230,230,230);fill-rule:nonzero;"/>
                </g>
                <g transform="matrix(33.3333,0,0,33.3333,394.159,112.252)">
                    <rect x="0.092" y="-0.71" width="0.086" height="0.71" style="fill:rgb(230,230,230);fill-rule:nonzero;"/>
                </g>
                <g transform="matrix(33.3333,0,0,33.3333,402.492,112.252)">
                    <path d="M0.092,-0L0.092,-0.71L0.538,-0.71L0.538,-0.626L0.135,-0.626L0.178,-0.67L0.178,-0.344L0.135,-0.388L0.52,-0.388L0.52,-0.306L0.135,-0.306L0.178,-0.35L0.178,-0L0.092,-0Z" style="fill:rgb(230,230,230);fill-rule:nonzero;"/>
                </g>
                <g transform="matrix(33.3333,0,0,33.3333,422.159,112.252)">
                    <path d="M0.233,-0L0.233,-0.626L0.012,-0.626L0.012,-0.71L0.54,-0.71L0.54,-0.626L0.319,-0.626L0.319,-0L0.233,-0Z" style="fill:rgb(230,230,230);fill-rule:nonzero;"/>
                </g>
            </g>
        </g>
        <g id="Ctrl" transform="matrix(1,0,0,1,-132.283,190.157)">
            <g id="Global-background1" serif:id="Global background" transform="matrix(5.54257,0,0,2.88209,-475.591,-381.554)">
                <path d="M119.769,160.665C119.769,153.875 122.631,148.37 126.162,148.37L161.376,148.37C164.907,148.37 167.769,153.875 167.769,160.665L167.769,189.351C167.769,196.141 164.907,201.645 161.376,201.645L126.162,201.645C122.631,201.645 119.769,196.141 119.769,189.351L119.769,160.665Z" style="fill:rgb(230,230,230);"/>
            </g>
            <g transform="matrix(1,0,0,1.06122,-7.08661,-229.904)">
                <path d="M425.64,268.949C432.531,268.949 439.14,271.529 444.013,276.121C448.886,280.712 451.624,286.94 451.624,293.434L451.624,371.342C451.624,377.835 448.886,384.063 444.013,388.655C439.14,393.247 432.531,395.827 425.64,395.827L230.758,395.827C223.866,395.827 217.257,393.247 212.384,388.655C207.511,384.063 204.774,377.835 204.774,371.342L204.774,293.434C204.774,286.94 207.511,280.712 212.384,276.121C217.257,271.529 223.866,268.949 230.758,268.949L425.64,268.949Z" style="fill:rgb(255,197,2);"/>
            </g>
            <g id="Glyph" transform="matrix(1,0,0,1,-70.6762,-42.0747)">
                <g transform="matrix(33.3333,0,0,33.3333,355.319,177.097)">
                    <path d="M0.364,0.016C0.301,0.016 0.245,0.001 0.197,-0.029C0.149,-0.058 0.112,-0.101 0.085,-0.156C0.058,-0.211 0.045,-0.277 0.045,-0.354C0.045,-0.431 0.058,-0.497 0.085,-0.553C0.112,-0.608 0.149,-0.651 0.197,-0.681C0.245,-0.711 0.301,-0.726 0.364,-0.726C0.45,-0.726 0.517,-0.704 0.564,-0.661C0.611,-0.618 0.642,-0.559 0.657,-0.484L0.566,-0.478C0.556,-0.529 0.535,-0.569 0.502,-0.598C0.469,-0.627 0.423,-0.642 0.364,-0.642C0.319,-0.642 0.279,-0.631 0.245,-0.608C0.21,-0.585 0.183,-0.552 0.164,-0.509C0.145,-0.466 0.135,-0.414 0.135,-0.354C0.135,-0.294 0.145,-0.243 0.164,-0.2C0.183,-0.157 0.21,-0.125 0.245,-0.102C0.279,-0.079 0.319,-0.068 0.364,-0.068C0.426,-0.068 0.474,-0.084 0.508,-0.117C0.542,-0.149 0.563,-0.193 0.572,-0.248L0.663,-0.242C0.654,-0.191 0.637,-0.146 0.612,-0.107C0.587,-0.068 0.553,-0.038 0.512,-0.017C0.47,0.005 0.421,0.016 0.364,0.016Z" style="fill-rule:nonzero;"/>
                </g>
                <g transform="matrix(33.3333,0,0,33.3333,378.253,177.097)">
                    <path d="M0.233,-0L0.233,-0.626L0.012,-0.626L0.012,-0.71L0.54,-0.71L0.54,-0.626L0.319,-0.626L0.319,-0L0.233,-0Z" style="fill-rule:nonzero;"/>
                </g>
                <g transform="matrix(33.3333,0,0,33.3333,395.653,177.097)">
                    <path d="M0.092,-0L0.092,-0.71L0.361,-0.71C0.411,-0.71 0.454,-0.701 0.49,-0.684C0.526,-0.667 0.554,-0.642 0.574,-0.61C0.593,-0.577 0.603,-0.539 0.603,-0.495C0.603,-0.463 0.596,-0.435 0.581,-0.41C0.566,-0.385 0.546,-0.365 0.523,-0.35C0.5,-0.335 0.475,-0.327 0.45,-0.326L0.444,-0.335C0.487,-0.335 0.522,-0.325 0.547,-0.305C0.572,-0.285 0.586,-0.253 0.59,-0.209L0.61,-0L0.523,-0L0.505,-0.2C0.502,-0.229 0.492,-0.251 0.474,-0.265C0.455,-0.279 0.425,-0.286 0.384,-0.286L0.178,-0.286L0.178,-0L0.092,-0ZM0.178,-0.37L0.372,-0.37C0.415,-0.37 0.45,-0.381 0.475,-0.403C0.5,-0.425 0.513,-0.456 0.513,-0.497C0.513,-0.538 0.5,-0.57 0.474,-0.593C0.448,-0.615 0.41,-0.626 0.361,-0.626L0.178,-0.626L0.178,-0.37Z" style="fill-rule:nonzero;"/>
                </g>
                <g transform="matrix(33.3333,0,0,33.3333,417.553,177.097)">
                    <path d="M0.092,-0L0.092,-0.71L0.178,-0.71L0.178,-0.04L0.135,-0.084L0.533,-0.084L0.533,-0L0.092,-0Z" style="fill-rule:nonzero;"/>
                </g>
            </g>
        </g>
        <g id="Right-shift" serif:id="Right shift" transform="matrix(1,0,0,1,-272.908,-46.063)">
            <g id="Global-background2" serif:id="Global background" transform="matrix(4.35839,0,0,2.88209,-164.718,-381.554)">
                <path d="M119.769,160.665C119.769,153.875 123.409,148.37 127.899,148.37L159.639,148.37C164.129,148.37 167.769,153.875 167.769,160.665L167.769,189.351C167.769,196.141 164.129,201.645 159.639,201.645L127.899,201.645C123.409,201.645 119.769,196.141 119.769,189.351L119.769,160.665Z" style="fill:rgb(230,230,230);"/>
            </g>
            <g id="Top-background1" serif:id="Top background" transform="matrix(4.52114,0,0,6.23077,-188.116,-889.377)">
                <path d="M159.068,173.259C160.592,173.259 162.054,172.819 163.132,172.037C164.21,171.255 164.815,170.194 164.815,169.088L164.815,155.819C164.815,154.713 164.21,153.652 163.132,152.87C162.054,152.088 160.592,151.649 159.068,151.649L128.47,151.649C126.946,151.649 125.484,152.088 124.406,152.87C123.329,153.652 122.723,154.713 122.723,155.819L122.723,169.088C122.723,170.194 123.329,171.255 124.406,172.037C125.484,172.819 126.946,173.259 128.47,173.259L159.068,173.259Z" style="fill:rgb(187,101,43);"/>
            </g>
            <g id="Top-right-glyph1" serif:id="Top-right glyph" transform="matrix(1,0,0,1,65.276,22.416)">
                <g transform="matrix(33.3333,0,0,33.3333,350.192,112.252)">
                    <path d="M0.336,0.016C0.281,0.016 0.234,0.006 0.193,-0.015C0.152,-0.036 0.12,-0.064 0.097,-0.101C0.073,-0.137 0.059,-0.179 0.055,-0.227L0.145,-0.233C0.15,-0.198 0.16,-0.168 0.176,-0.143C0.192,-0.118 0.214,-0.1 0.241,-0.087C0.268,-0.074 0.3,-0.068 0.338,-0.068C0.371,-0.068 0.4,-0.072 0.423,-0.081C0.446,-0.09 0.464,-0.102 0.477,-0.119C0.489,-0.136 0.495,-0.156 0.495,-0.18C0.495,-0.202 0.49,-0.222 0.48,-0.239C0.469,-0.256 0.45,-0.271 0.421,-0.286C0.392,-0.3 0.349,-0.314 0.292,-0.328C0.237,-0.342 0.194,-0.357 0.162,-0.374C0.129,-0.391 0.106,-0.411 0.092,-0.435C0.077,-0.459 0.07,-0.489 0.07,-0.524C0.07,-0.564 0.08,-0.599 0.099,-0.63C0.118,-0.66 0.145,-0.684 0.18,-0.701C0.215,-0.717 0.257,-0.726 0.306,-0.726C0.358,-0.726 0.403,-0.716 0.44,-0.697C0.477,-0.677 0.507,-0.65 0.529,-0.616C0.551,-0.582 0.565,-0.543 0.57,-0.5L0.48,-0.494C0.476,-0.523 0.467,-0.548 0.453,-0.571C0.438,-0.593 0.419,-0.61 0.394,-0.623C0.369,-0.636 0.339,-0.642 0.304,-0.642C0.26,-0.642 0.225,-0.632 0.199,-0.611C0.173,-0.59 0.16,-0.562 0.16,-0.528C0.16,-0.506 0.165,-0.488 0.176,-0.474C0.186,-0.459 0.204,-0.447 0.231,-0.436C0.258,-0.424 0.296,-0.413 0.346,-0.4C0.405,-0.385 0.452,-0.368 0.488,-0.348C0.523,-0.327 0.548,-0.304 0.563,-0.277C0.578,-0.25 0.585,-0.22 0.585,-0.186C0.585,-0.145 0.574,-0.109 0.553,-0.079C0.532,-0.048 0.502,-0.025 0.465,-0.009C0.428,0.008 0.385,0.016 0.336,0.016Z" style="fill:rgb(230,230,230);fill-rule:nonzero;"/>
                </g>
                <g transform="matrix(33.3333,0,0,33.3333,371.059,112.252)">
                    <path d="M0.092,-0L0.092,-0.71L0.178,-0.71L0.178,-0.365L0.134,-0.399L0.579,-0.399L0.535,-0.365L0.535,-0.71L0.621,-0.71L0.621,-0L0.535,-0L0.535,-0.349L0.579,-0.315L0.134,-0.315L0.178,-0.349L0.178,-0L0.092,-0Z" style="fill:rgb(230,230,230);fill-rule:nonzero;"/>
                </g>
                <g transform="matrix(33.3333,0,0,33.3333,394.159,112.252)">
                    <rect x="0.092" y="-0.71" width="0.086" height="0.71" style="fill:rgb(230,230,230);fill-rule:nonzero;"/>
                </g>
                <g transform="matrix(33.3333,0,0,33.3333,402.492,112.252)">
                    <path d="M0.092,-0L0.092,-0.71L0.538,-0.71L0.538,-0.626L0.135,-0.626L0.178,-0.67L0.178,-0.344L0.135,-0.388L0.52,-0.388L0.52,-0.306L0.135,-0.306L0.178,-0.35L0.178,-0L0.092,-0Z" style="fill:rgb(230,230,230);fill-rule:nonzero;"/>
                </g>
                <g transform="matrix(33.3333,0,0,33.3333,422.159,112.252)">
                    <path d="M0.233,-0L0.233,-0.626L0.012,-0.626L0.012,-0.71L0.54,-0.71L0.54,-0.626L0.319,-0.626L0.319,-0L0.233,-0Z" style="fill:rgb(230,230,230);fill-rule:nonzero;"/>
                </g>
            </g>
        </g>
    </g>
</svg>
