<?xml version="1.0" encoding="UTF-8" standalone="no"?>
<!DOCTYPE svg PUBLIC "-//W3C//DTD SVG 1.1//EN" "http://www.w3.org/Graphics/SVG/1.1/DTD/svg11.dtd">
<svg width="100%" height="100%" viewBox="0 0 105 151" version="1.1" xmlns="http://www.w3.org/2000/svg" xmlns:xlink="http://www.w3.org/1999/xlink" xml:space="preserve" xmlns:serif="http://www.serif.com/" style="fill-rule:evenodd;clip-rule:evenodd;stroke-linejoin:round;stroke-miterlimit:2;">
    <g transform="matrix(0.24,0,0,0.24,0,0)">
        <g id="Space-3" serif:id="Space 3" transform="matrix(1.13846,0,0,1,-147.238,426.378)">
            <g id="Global-background" serif:id="Global background" transform="matrix(7.99705,0,0,2.88209,-828.47,-381.554)">
                <path d="M119.769,160.665C119.769,153.875 121.512,148.37 123.661,148.37L163.877,148.37C166.027,148.37 167.769,153.875 167.769,160.665L167.769,189.351C167.769,196.141 166.027,201.645 163.877,201.645L123.661,201.645C121.512,201.645 119.769,196.141 119.769,189.351L119.769,160.665Z" style="fill:rgb(230,230,230);"/>
            </g>
            <g id="Bottom-background" serif:id="Bottom background" transform="matrix(8.69672,0,0,2.88209,-928.98,-381.554)">
                <path d="M162.113,151.649C162.809,151.649 163.476,152.599 163.969,154.289C164.461,155.98 164.737,158.273 164.737,160.665L164.737,189.351C164.737,191.742 164.461,194.035 163.969,195.726C163.476,197.417 162.809,198.367 162.113,198.367L125.396,198.367C124.7,198.367 124.033,197.417 123.541,195.726C123.049,194.035 122.772,191.742 122.772,189.351L122.772,160.665C122.772,158.273 123.049,155.98 123.541,154.289C124.033,152.599 124.7,151.649 125.396,151.649L162.113,151.649Z" style="fill:rgb(92,60,28);"/>
            </g>
        </g>
        <g id="Space-2" serif:id="Space 2" transform="matrix(1.13846,0,0,1,-147.238,190.157)">
            <g id="Global-background1" serif:id="Global background" transform="matrix(7.99705,0,0,2.88209,-828.47,-381.554)">
                <path d="M119.769,160.665C119.769,153.875 121.512,148.37 123.661,148.37L163.877,148.37C166.027,148.37 167.769,153.875 167.769,160.665L167.769,189.351C167.769,196.141 166.027,201.645 163.877,201.645L123.661,201.645C121.512,201.645 119.769,196.141 119.769,189.351L119.769,160.665Z" style="fill:rgb(230,230,230);"/>
            </g>
            <g id="Bottom-background1" serif:id="Bottom background" transform="matrix(8.69672,0,0,2.88209,-928.98,-381.554)">
                <path d="M162.113,151.649C162.809,151.649 163.476,152.599 163.969,154.289C164.461,155.98 164.737,158.273 164.737,160.665L164.737,189.351C164.737,191.742 164.461,194.035 163.969,195.726C163.476,197.417 162.809,198.367 162.113,198.367L125.396,198.367C124.7,198.367 124.033,197.417 123.541,195.726C123.049,194.035 122.772,191.742 122.772,189.351L122.772,160.665C122.772,158.273 123.049,155.98 123.541,154.289C124.033,152.599 124.7,151.649 125.396,151.649L162.113,151.649Z" style="fill:rgb(92,60,28);"/>
            </g>
        </g>
        <g id="Space-1" serif:id="Space 1" transform="matrix(1.13846,0,0,1,-147.238,-46.063)">
            <g id="Global-background2" serif:id="Global background" transform="matrix(7.99705,0,0,2.88209,-828.47,-381.554)">
                <path d="M119.769,160.665C119.769,153.875 121.512,148.37 123.661,148.37L163.877,148.37C166.027,148.37 167.769,153.875 167.769,160.665L167.769,189.351C167.769,196.141 166.027,201.645 163.877,201.645L123.661,201.645C121.512,201.645 119.769,196.141 119.769,189.351L119.769,160.665Z" style="fill:rgb(230,230,230);"/>
            </g>
            <g id="Bottom-background2" serif:id="Bottom background" transform="matrix(8.69672,0,0,2.88209,-928.98,-381.554)">
                <path d="M162.113,151.649C162.809,151.649 163.476,152.599 163.969,154.289C164.461,155.98 164.737,158.273 164.737,160.665L164.737,189.351C164.737,191.742 164.461,194.035 163.969,195.726C163.476,197.417 162.809,198.367 162.113,198.367L125.396,198.367C124.7,198.367 124.033,197.417 123.541,195.726C123.049,194.035 122.772,191.742 122.772,189.351L122.772,160.665C122.772,158.273 123.049,155.98 123.541,154.289C124.033,152.599 124.7,151.649 125.396,151.649L162.113,151.649Z" style="fill:rgb(92,60,28);"/>
            </g>
        </g>
    </g>
</svg>
