<?xml version="1.0" encoding="UTF-8" standalone="no"?>
<!DOCTYPE svg PUBLIC "-//W3C//DTD SVG 1.1//EN" "http://www.w3.org/Graphics/SVG/1.1/DTD/svg11.dtd">
<svg width="100%" height="100%" viewBox="0 0 162 162" version="1.1" xmlns="http://www.w3.org/2000/svg" xmlns:xlink="http://www.w3.org/1999/xlink" xml:space="preserve" xmlns:serif="http://www.serif.com/" style="fill-rule:evenodd;clip-rule:evenodd;stroke-linejoin:round;stroke-miterlimit:2;">
    <g transform="matrix(0.24,0,0,0.24,0,0)">
        <g id="_---" serif:id="/-?" transform="matrix(1,0,0,1,251.575,450)">
            <g id="Global-background" serif:id="Global background" transform="matrix(3.19882,0,0,2.88209,-138.632,-381.554)">
                <path d="M119.769,160.665C119.769,157.404 120.936,154.277 123.014,151.971C125.091,149.666 127.908,148.37 130.846,148.37L156.692,148.37C159.63,148.37 162.448,149.666 164.525,151.971C166.602,154.277 167.769,157.404 167.769,160.665L167.769,189.351C167.769,192.612 166.602,195.739 164.525,198.044C162.448,200.35 159.63,201.645 156.692,201.645L130.846,201.645C127.908,201.645 125.091,200.35 123.014,198.044C120.936,195.739 119.769,192.612 119.769,189.351L119.769,160.665Z" style="fill:rgb(230,230,230);"/>
            </g>
            <g id="Bottom-background" serif:id="Bottom background" transform="matrix(3.19882,0,0,2.88209,-138.632,-381.554)">
                <path d="M163.63,176.259C164.241,176.259 164.737,176.809 164.737,177.488C164.737,179.758 164.737,184.794 164.737,189.351C164.737,191.742 163.882,194.035 162.358,195.726C160.835,197.417 158.769,198.367 156.614,198.367L130.895,198.367C128.741,198.367 126.675,197.417 125.151,195.726C123.628,194.035 122.772,191.742 122.772,189.351L122.772,177.488C122.772,176.809 123.268,176.259 123.88,176.259C129.805,176.259 157.705,176.259 163.63,176.259Z" style="fill:rgb(92,60,28);"/>
            </g>
            <g id="Top-background" serif:id="Top background" transform="matrix(3.19882,0,0,2.88209,-138.632,-381.554)">
                <path d="M163.708,173.259C164.001,173.259 164.283,173.129 164.491,172.898C164.699,172.668 164.815,172.355 164.815,172.029C164.815,169.831 164.815,165.046 164.815,160.665C164.815,158.273 163.96,155.98 162.436,154.289C160.913,152.599 158.847,151.649 156.692,151.649L130.846,151.649C128.692,151.649 126.626,152.599 125.102,154.289C123.579,155.98 122.723,158.273 122.723,160.665L122.723,172.029C122.723,172.355 122.84,172.668 123.048,172.898C123.255,173.129 123.537,173.259 123.831,173.259C129.768,173.259 157.771,173.259 163.708,173.259Z" style="fill:rgb(187,101,43);"/>
            </g>
            <g id="Bottom-glyph" serif:id="Bottom glyph" transform="matrix(1,0,0,1,-32.3385,-0.162598)">
                <g transform="matrix(70,0,0,58.3333,338.088,177.097)">
                    <path d="M0.04,0.11L0.335,-0.75L0.399,-0.75L0.104,0.11L0.04,0.11Z" style="fill:rgb(230,230,230);fill-rule:nonzero;"/>
                </g>
            </g>
            <g id="Top-glyph" serif:id="Top glyph" transform="matrix(1,0,0,1,-45.2365,-4.8565)">
                <g transform="matrix(58.3333,0,0,58.3333,350.192,112.252)">
                    <path d="M0.234,-0.201C0.234,-0.249 0.242,-0.287 0.257,-0.316C0.272,-0.344 0.296,-0.369 0.331,-0.39C0.357,-0.406 0.377,-0.42 0.391,-0.433C0.404,-0.445 0.413,-0.458 0.418,-0.472C0.423,-0.485 0.425,-0.502 0.425,-0.522C0.425,-0.557 0.413,-0.585 0.391,-0.608C0.368,-0.631 0.336,-0.642 0.295,-0.642C0.246,-0.642 0.208,-0.629 0.182,-0.604C0.155,-0.579 0.139,-0.542 0.134,-0.494L0.044,-0.5C0.048,-0.544 0.061,-0.583 0.082,-0.617C0.103,-0.651 0.132,-0.678 0.168,-0.697C0.204,-0.716 0.246,-0.726 0.295,-0.726C0.338,-0.726 0.377,-0.717 0.41,-0.7C0.443,-0.683 0.468,-0.659 0.487,-0.628C0.506,-0.597 0.515,-0.562 0.515,-0.522C0.515,-0.494 0.511,-0.47 0.502,-0.449C0.493,-0.428 0.479,-0.409 0.46,-0.392C0.441,-0.375 0.418,-0.357 0.389,-0.338C0.362,-0.321 0.344,-0.302 0.335,-0.283C0.325,-0.264 0.32,-0.236 0.32,-0.201L0.234,-0.201ZM0.218,-0L0.218,-0.113L0.331,-0.113L0.331,-0L0.218,-0Z" style="fill:rgb(230,230,230);fill-rule:nonzero;"/>
                </g>
            </g>
        </g>
        <g id="Star-Right-Circumflex" transform="matrix(1,0,0,1,15.3543,450)">
            <g id="Global-background1" serif:id="Global background" transform="matrix(3.19882,0,0,2.88209,-138.632,-381.554)">
                <path d="M119.769,160.665C119.769,157.404 120.936,154.277 123.014,151.971C125.091,149.666 127.908,148.37 130.846,148.37L156.692,148.37C159.63,148.37 162.448,149.666 164.525,151.971C166.602,154.277 167.769,157.404 167.769,160.665L167.769,189.351C167.769,192.612 166.602,195.739 164.525,198.044C162.448,200.35 159.63,201.645 156.692,201.645L130.846,201.645C127.908,201.645 125.091,200.35 123.014,198.044C120.936,195.739 119.769,192.612 119.769,189.351L119.769,160.665Z" style="fill:rgb(230,230,230);"/>
            </g>
            <g id="Bottom-background1" serif:id="Bottom background" transform="matrix(3.19882,0,0,2.88209,-138.632,-381.554)">
                <path d="M163.63,176.259C164.241,176.259 164.737,176.809 164.737,177.488C164.737,179.758 164.737,184.794 164.737,189.351C164.737,191.742 163.882,194.035 162.358,195.726C160.835,197.417 158.769,198.367 156.614,198.367L130.895,198.367C128.741,198.367 126.675,197.417 125.151,195.726C123.628,194.035 122.772,191.742 122.772,189.351L122.772,177.488C122.772,176.809 123.268,176.259 123.88,176.259C129.805,176.259 157.705,176.259 163.63,176.259Z" style="fill:rgb(92,60,28);"/>
            </g>
            <g id="Top-background1" serif:id="Top background" transform="matrix(3.19882,0,0,2.88209,-138.632,-381.554)">
                <path d="M163.708,173.259C164.001,173.259 164.283,173.129 164.491,172.898C164.699,172.668 164.815,172.355 164.815,172.029C164.815,169.831 164.815,165.046 164.815,160.665C164.815,158.273 163.96,155.98 162.436,154.289C160.913,152.599 158.847,151.649 156.692,151.649L130.846,151.649C128.692,151.649 126.626,152.599 125.102,154.289C123.579,155.98 122.723,158.273 122.723,160.665L122.723,172.029C122.723,172.355 122.84,172.668 123.048,172.898C123.255,173.129 123.537,173.259 123.831,173.259C129.768,173.259 157.771,173.259 163.708,173.259Z" style="fill:rgb(187,101,43);"/>
            </g>
            <g transform="matrix(1,0,0,1.06122,46.7776,-229.608)">
                <path d="M270.975,277.819C272.918,277.838 274.482,279.327 274.482,281.158C274.482,289.394 274.482,310.761 274.482,319.032C274.482,320.876 272.896,322.371 270.939,322.371C260.508,322.371 229.992,322.371 219.561,322.371C217.604,322.371 216.018,320.876 216.018,319.032C216.018,313.69 216.018,302.879 216.018,293.598C216.018,289.29 217.846,285.16 221.095,282.129C224.344,279.098 228.745,277.417 233.317,277.461C246.541,277.587 263.699,277.75 270.975,277.819Z" style="fill:rgb(255,197,2);"/>
            </g>
            <g id="Top-right-glyph" serif:id="Top-right glyph" transform="matrix(0.9,0,0,0.9,-2113.94,-375.663)">
                <path d="M2718.9,536.22L2742.52,494.463L2766.14,536.22L2760.24,536.22L2742.52,504.047L2724.48,536.22L2718.9,536.22Z" style="fill:rgb(230,230,230);"/>
            </g>
            <g id="Top-left-glyph" serif:id="Top-left glyph" transform="matrix(5.54918e-17,-0.90625,-0.90625,-5.54918e-17,562.327,2472.15)">
                <path d="M2619.09,319.145L2637.99,319.145L2637.99,300.837L2647.44,300.837L2628.54,281.94L2609.65,300.837L2619.09,300.837L2619.09,319.145Z"/>
            </g>
            <g id="Bottom-glyph1" serif:id="Bottom glyph" transform="matrix(6.12323e-17,-1,1,6.12323e-17,190.241,507.587)">
                <g transform="matrix(83.3333,0,0,83.3333,331.036,177.097)">
                    <path d="M0.145,-0.394L0.112,-0.415L0.186,-0.533L0.048,-0.533L0.048,-0.572L0.186,-0.572L0.112,-0.691L0.145,-0.712L0.219,-0.587L0.294,-0.712L0.327,-0.691L0.253,-0.572L0.39,-0.572L0.39,-0.533L0.253,-0.533L0.327,-0.415L0.294,-0.394L0.219,-0.519L0.145,-0.394Z" style="fill:rgb(230,230,230);fill-rule:nonzero;"/>
                </g>
            </g>
        </g>
        <g id="Plus-Left-Backlash" transform="matrix(1,0,0,1,-220.866,450)">
            <g id="Global-background2" serif:id="Global background" transform="matrix(3.19882,0,0,2.88209,-138.632,-381.554)">
                <path d="M119.769,160.665C119.769,157.404 120.936,154.277 123.014,151.971C125.091,149.666 127.908,148.37 130.846,148.37L156.692,148.37C159.63,148.37 162.448,149.666 164.525,151.971C166.602,154.277 167.769,157.404 167.769,160.665L167.769,189.351C167.769,192.612 166.602,195.739 164.525,198.044C162.448,200.35 159.63,201.645 156.692,201.645L130.846,201.645C127.908,201.645 125.091,200.35 123.014,198.044C120.936,195.739 119.769,192.612 119.769,189.351L119.769,160.665Z" style="fill:rgb(230,230,230);"/>
            </g>
            <g id="Bottom-background2" serif:id="Bottom background" transform="matrix(3.19882,0,0,2.88209,-138.632,-381.554)">
                <path d="M163.63,176.259C164.241,176.259 164.737,176.809 164.737,177.488C164.737,179.758 164.737,184.794 164.737,189.351C164.737,191.742 163.882,194.035 162.358,195.726C160.835,197.417 158.769,198.367 156.614,198.367L130.895,198.367C128.741,198.367 126.675,197.417 125.151,195.726C123.628,194.035 122.772,191.742 122.772,189.351L122.772,177.488C122.772,176.809 123.268,176.259 123.88,176.259C129.805,176.259 157.705,176.259 163.63,176.259Z" style="fill:rgb(92,60,28);"/>
            </g>
            <g id="Top-background2" serif:id="Top background" transform="matrix(3.19882,0,0,2.88209,-138.632,-381.554)">
                <path d="M163.708,173.259C164.001,173.259 164.283,173.129 164.491,172.898C164.699,172.668 164.815,172.355 164.815,172.029C164.815,169.831 164.815,165.046 164.815,160.665C164.815,158.273 163.96,155.98 162.436,154.289C160.913,152.599 158.847,151.649 156.692,151.649L130.846,151.649C128.692,151.649 126.626,152.599 125.102,154.289C123.579,155.98 122.723,158.273 122.723,160.665L122.723,172.029C122.723,172.355 122.84,172.668 123.048,172.898C123.255,173.129 123.537,173.259 123.831,173.259C129.768,173.259 157.771,173.259 163.708,173.259Z" style="fill:rgb(187,101,43);"/>
            </g>
            <g transform="matrix(1,0,0,1.06122,46.7776,-229.608)">
                <path d="M270.975,277.819C272.918,277.838 274.482,279.327 274.482,281.158C274.482,289.394 274.482,310.761 274.482,319.032C274.482,320.876 272.896,322.371 270.939,322.371C260.508,322.371 229.992,322.371 219.561,322.371C217.604,322.371 216.018,320.876 216.018,319.032C216.018,313.69 216.018,302.879 216.018,293.598C216.018,289.29 217.846,285.16 221.095,282.129C224.344,279.098 228.745,277.417 233.317,277.461C246.541,277.587 263.699,277.75 270.975,277.819Z" style="fill:rgb(255,197,2);"/>
            </g>
            <g transform="matrix(5.54918e-17,-0.90625,0.90625,5.54918e-17,17.5943,2472.15)">
                <path d="M2619.09,319.145L2637.99,319.145L2637.99,300.837L2647.44,300.837L2628.54,281.94L2609.65,300.837L2619.09,300.837L2619.09,319.145Z"/>
            </g>
            <g id="Bottom-glyph2" serif:id="Bottom glyph" transform="matrix(1,0,0,1,-28.0677,-1.81507)">
                <g transform="matrix(58.3333,0,0,58.3333,333.053,177.097)">
                    <path d="M0.248,-0.053L0.248,-0.531L0.31,-0.531L0.31,-0.053L0.248,-0.053ZM0.04,-0.261L0.04,-0.322L0.518,-0.322L0.518,-0.261L0.04,-0.261Z" style="fill:rgb(230,230,230);fill-rule:nonzero;"/>
                </g>
            </g>
            <g id="Top-glyph1" serif:id="Top glyph" transform="matrix(1,0,0,1,-6.05531,-7.66929)">
                <g transform="matrix(60,0,0,50,348.007,112.252)">
                    <path d="M0.406,0.11L0.342,0.11L0.047,-0.75L0.111,-0.75L0.406,0.11Z" style="fill:rgb(230,230,230);fill-rule:nonzero;"/>
                </g>
            </g>
        </g>
        <g id="_--:" serif:id=";-:" transform="matrix(1,0,0,1,251.575,213.78)">
            <g id="Global-background3" serif:id="Global background" transform="matrix(3.19882,0,0,2.88209,-138.632,-381.554)">
                <path d="M119.769,160.665C119.769,157.404 120.936,154.277 123.014,151.971C125.091,149.666 127.908,148.37 130.846,148.37L156.692,148.37C159.63,148.37 162.448,149.666 164.525,151.971C166.602,154.277 167.769,157.404 167.769,160.665L167.769,189.351C167.769,192.612 166.602,195.739 164.525,198.044C162.448,200.35 159.63,201.645 156.692,201.645L130.846,201.645C127.908,201.645 125.091,200.35 123.014,198.044C120.936,195.739 119.769,192.612 119.769,189.351L119.769,160.665Z" style="fill:rgb(230,230,230);"/>
            </g>
            <g id="Bottom-background3" serif:id="Bottom background" transform="matrix(3.19882,0,0,2.88209,-138.632,-381.554)">
                <path d="M163.63,176.259C164.241,176.259 164.737,176.809 164.737,177.488C164.737,179.758 164.737,184.794 164.737,189.351C164.737,191.742 163.882,194.035 162.358,195.726C160.835,197.417 158.769,198.367 156.614,198.367L130.895,198.367C128.741,198.367 126.675,197.417 125.151,195.726C123.628,194.035 122.772,191.742 122.772,189.351L122.772,177.488C122.772,176.809 123.268,176.259 123.88,176.259C129.805,176.259 157.705,176.259 163.63,176.259Z" style="fill:rgb(92,60,28);"/>
            </g>
            <g id="Top-background3" serif:id="Top background" transform="matrix(3.19882,0,0,2.88209,-138.632,-381.554)">
                <path d="M163.708,173.259C164.001,173.259 164.283,173.129 164.491,172.898C164.699,172.668 164.815,172.355 164.815,172.029C164.815,169.831 164.815,165.046 164.815,160.665C164.815,158.273 163.96,155.98 162.436,154.289C160.913,152.599 158.847,151.649 156.692,151.649L130.846,151.649C128.692,151.649 126.626,152.599 125.102,154.289C123.579,155.98 122.723,158.273 122.723,160.665L122.723,172.029C122.723,172.355 122.84,172.668 123.048,172.898C123.255,173.129 123.537,173.259 123.831,173.259C129.768,173.259 157.771,173.259 163.708,173.259Z" style="fill:rgb(187,101,43);"/>
            </g>
            <g id="Bottom-glyph3" serif:id="Bottom glyph" transform="matrix(0.798712,0,0,0.798712,64.6676,32.6105)">
                <g transform="matrix(1.04522,0,0,1.04522,-2111.09,-464.696)">
                    <g transform="matrix(100,0,0,100,2317.06,606.497)">
                        <path d="M0.047,0.156L0.095,-0L0.044,-0L0.044,-0.113L0.157,-0.113L0.157,-0.014L0.097,0.156L0.047,0.156Z" style="fill:rgb(230,230,230);fill-rule:nonzero;"/>
                    </g>
                </g>
                <g transform="matrix(1.79181,0,0,1.79181,-3863.38,-771.061)">
                    <g transform="matrix(58.3333,0,0,58.3333,2329.57,511.767)">
                        <rect x="0.044" y="-0.113" width="0.113" height="0.113" style="fill:rgb(230,230,230);fill-rule:nonzero;"/>
                    </g>
                </g>
            </g>
            <g id="Top-glyph2" serif:id="Top glyph" transform="matrix(1.43114,0,0,1.43114,-138.519,-36.6688)">
                <g transform="matrix(1,0,0,1,-2014.16,-415.164)">
                    <g transform="matrix(58.3333,0,0,58.3333,2329.57,511.767)">
                        <rect x="0.044" y="-0.113" width="0.113" height="0.113" style="fill:rgb(230,230,230);fill-rule:nonzero;"/>
                    </g>
                </g>
                <g transform="matrix(1,0,0,1,-2014.16,-429.337)">
                    <g transform="matrix(58.3333,0,0,58.3333,2329.57,511.767)">
                        <rect x="0.044" y="-0.113" width="0.113" height="0.113" style="fill:rgb(230,230,230);fill-rule:nonzero;"/>
                    </g>
                </g>
            </g>
        </g>
        <g id="Fuji" transform="matrix(1,0,0,1,227.953,213.78)">
            <g id="Global-background4" serif:id="Global background" transform="matrix(3.19882,0,0,2.88209,-351.23,-381.554)">
                <path d="M119.769,160.665C119.769,157.404 120.936,154.277 123.014,151.971C125.091,149.666 127.908,148.37 130.846,148.37L156.692,148.37C159.63,148.37 162.448,149.666 164.525,151.971C166.602,154.277 167.769,157.404 167.769,160.665L167.769,189.351C167.769,192.612 166.602,195.739 164.525,198.044C162.448,200.35 159.63,201.645 156.692,201.645L130.846,201.645C127.908,201.645 125.091,200.35 123.014,198.044C120.936,195.739 119.769,192.612 119.769,189.351L119.769,160.665Z" style="fill:rgb(230,230,230);"/>
            </g>
            <g id="Bottom-background4" serif:id="Bottom background" transform="matrix(3.19882,0,0,2.88209,-351.23,-381.554)">
                <path d="M156.614,151.649C158.769,151.649 160.835,152.599 162.358,154.289C163.882,155.98 164.737,158.273 164.737,160.665L164.737,189.351C164.737,191.742 163.882,194.035 162.358,195.726C160.835,197.417 158.769,198.367 156.614,198.367L130.895,198.367C128.741,198.367 126.675,197.417 125.151,195.726C123.628,194.035 122.772,191.742 122.772,189.351L122.772,160.665C122.772,158.273 123.628,155.98 125.151,154.289C126.675,152.599 128.741,151.649 130.895,151.649L156.614,151.649Z" style="fill:rgb(92,60,28);"/>
                <clipPath id="_clip1">
                    <path d="M156.614,151.649C158.769,151.649 160.835,152.599 162.358,154.289C163.882,155.98 164.737,158.273 164.737,160.665L164.737,189.351C164.737,191.742 163.882,194.035 162.358,195.726C160.835,197.417 158.769,198.367 156.614,198.367L130.895,198.367C128.741,198.367 126.675,197.417 125.151,195.726C123.628,194.035 122.772,191.742 122.772,189.351L122.772,160.665C122.772,158.273 123.628,155.98 125.151,154.289C126.675,152.599 128.741,151.649 130.895,151.649L156.614,151.649Z"/>
                </clipPath>
                <g clip-path="url(#_clip1)">
                    <g id="Space-2" serif:id="Space 2">
                    </g>
                </g>
            </g>
            <g id="Glyph" transform="matrix(1,0,0,1,108.661,123.052)">
                <g transform="matrix(1,0,0,1,-50,-40.225)">
                    <clipPath id="_clip2">
                        <rect x="0" y="0" width="100" height="80.45"/>
                    </clipPath>
                    <g clip-path="url(#_clip2)">
                        <g transform="matrix(4.16667,0,0,4.16667,0,-9.775)">
                            <path d="M0,21.653C0,21.653 3.154,21.298 5.612,19.269C7.951,17.339 8.797,15.677 9.382,13.793C9.966,11.908 10.053,7.374 10.053,6.029L10.053,2.346L8.598,2.346L8.598,3.711C8.574,5.752 8.398,9.629 7.463,12.155C5.203,18.242 -0,18.775 -0,18.775L0,21.653ZM24,21.653C24,21.653 20.846,21.298 18.39,19.269C16.048,17.339 15.203,15.677 14.618,13.793C14.035,11.908 13.947,7.374 13.947,6.029L13.947,2.346L15.4,2.346L15.401,3.711C15.425,5.752 15.603,9.629 16.539,12.155C18.797,18.242 23.999,18.775 23.999,18.775L24,21.653ZM10.659,2.348L13.344,2.348L13.344,21.654L10.66,21.654L10.659,2.348Z" style="fill:rgb(230,230,230);fill-rule:nonzero;"/>
                        </g>
                    </g>
                </g>
            </g>
        </g>
        <g id="Select" transform="matrix(1,0,0,1,-8.26772,213.78)">
            <g id="Global-background5" serif:id="Global background" transform="matrix(4.18307,0,0,3.76889,-492.736,-536.75)">
                <path d="M119.769,151.504C119.769,150.673 120.067,149.876 120.596,149.288C121.126,148.7 121.844,148.37 122.593,148.37L164.946,148.37C165.695,148.37 166.413,148.7 166.942,149.288C167.472,149.876 167.769,150.673 167.769,151.504L167.769,198.512C167.769,199.343 167.472,200.14 166.942,200.727C166.413,201.315 165.695,201.645 164.946,201.645L122.593,201.645C121.844,201.645 121.126,201.315 120.596,200.727C120.067,200.14 119.769,199.343 119.769,198.512L119.769,151.504Z" style="fill:rgb(255,168,2);"/>
            </g>
            <g id="Glyph1" serif:id="Glyph" transform="matrix(1,0,0,1,-52.8343,12.4951)">
                <g transform="matrix(33.3333,0,0,33.3333,100.746,122.173)">
                    <path d="M0.336,0.016C0.281,0.016 0.234,0.006 0.193,-0.015C0.152,-0.036 0.12,-0.064 0.097,-0.101C0.073,-0.137 0.059,-0.179 0.055,-0.227L0.145,-0.233C0.15,-0.198 0.16,-0.168 0.176,-0.143C0.192,-0.118 0.214,-0.1 0.241,-0.087C0.268,-0.074 0.3,-0.068 0.338,-0.068C0.371,-0.068 0.4,-0.072 0.423,-0.081C0.446,-0.09 0.464,-0.102 0.477,-0.119C0.489,-0.136 0.495,-0.156 0.495,-0.18C0.495,-0.202 0.49,-0.222 0.48,-0.239C0.469,-0.256 0.45,-0.271 0.421,-0.286C0.392,-0.3 0.349,-0.314 0.292,-0.328C0.237,-0.342 0.194,-0.357 0.162,-0.374C0.129,-0.391 0.106,-0.411 0.092,-0.435C0.077,-0.459 0.07,-0.489 0.07,-0.524C0.07,-0.564 0.08,-0.599 0.099,-0.63C0.118,-0.66 0.145,-0.684 0.18,-0.701C0.215,-0.717 0.257,-0.726 0.306,-0.726C0.358,-0.726 0.403,-0.716 0.44,-0.697C0.477,-0.677 0.507,-0.65 0.529,-0.616C0.551,-0.582 0.565,-0.543 0.57,-0.5L0.48,-0.494C0.476,-0.523 0.467,-0.548 0.453,-0.571C0.438,-0.593 0.419,-0.61 0.394,-0.623C0.369,-0.636 0.339,-0.642 0.304,-0.642C0.26,-0.642 0.225,-0.632 0.199,-0.611C0.173,-0.59 0.16,-0.562 0.16,-0.528C0.16,-0.506 0.165,-0.488 0.176,-0.474C0.186,-0.459 0.204,-0.447 0.231,-0.436C0.258,-0.424 0.296,-0.413 0.346,-0.4C0.405,-0.385 0.452,-0.368 0.488,-0.348C0.523,-0.327 0.548,-0.304 0.563,-0.277C0.578,-0.25 0.585,-0.22 0.585,-0.186C0.585,-0.145 0.574,-0.109 0.553,-0.079C0.532,-0.048 0.502,-0.025 0.465,-0.009C0.428,0.008 0.385,0.016 0.336,0.016Z" style="fill-rule:nonzero;"/>
                </g>
                <g transform="matrix(33.3333,0,0,33.3333,121.612,122.173)">
                    <path d="M0.092,-0L0.092,-0.71L0.538,-0.71L0.538,-0.626L0.178,-0.626L0.178,-0.397L0.526,-0.397L0.526,-0.315L0.178,-0.315L0.178,-0.084L0.546,-0.084L0.546,-0L0.092,-0Z" style="fill-rule:nonzero;"/>
                </g>
                <g transform="matrix(33.3333,0,0,33.3333,141.712,122.173)">
                    <path d="M0.092,-0L0.092,-0.71L0.178,-0.71L0.178,-0.04L0.135,-0.084L0.533,-0.084L0.533,-0L0.092,-0Z" style="fill-rule:nonzero;"/>
                </g>
                <g transform="matrix(33.3333,0,0,33.3333,159.379,122.173)">
                    <path d="M0.092,-0L0.092,-0.71L0.538,-0.71L0.538,-0.626L0.178,-0.626L0.178,-0.397L0.526,-0.397L0.526,-0.315L0.178,-0.315L0.178,-0.084L0.546,-0.084L0.546,-0L0.092,-0Z" style="fill-rule:nonzero;"/>
                </g>
                <g transform="matrix(33.3333,0,0,33.3333,179.479,122.173)">
                    <path d="M0.364,0.016C0.301,0.016 0.245,0.001 0.197,-0.029C0.149,-0.058 0.112,-0.101 0.085,-0.156C0.058,-0.211 0.045,-0.277 0.045,-0.354C0.045,-0.431 0.058,-0.497 0.085,-0.553C0.112,-0.608 0.149,-0.651 0.197,-0.681C0.245,-0.711 0.301,-0.726 0.364,-0.726C0.45,-0.726 0.517,-0.704 0.564,-0.661C0.611,-0.618 0.642,-0.559 0.657,-0.484L0.566,-0.478C0.556,-0.529 0.535,-0.569 0.502,-0.598C0.469,-0.627 0.423,-0.642 0.364,-0.642C0.319,-0.642 0.279,-0.631 0.245,-0.608C0.21,-0.585 0.183,-0.552 0.164,-0.509C0.145,-0.466 0.135,-0.414 0.135,-0.354C0.135,-0.294 0.145,-0.243 0.164,-0.2C0.183,-0.157 0.21,-0.125 0.245,-0.102C0.279,-0.079 0.319,-0.068 0.364,-0.068C0.426,-0.068 0.474,-0.084 0.508,-0.117C0.542,-0.149 0.563,-0.193 0.572,-0.248L0.663,-0.242C0.654,-0.191 0.637,-0.146 0.612,-0.107C0.587,-0.068 0.553,-0.038 0.512,-0.017C0.47,0.005 0.421,0.016 0.364,0.016Z" style="fill-rule:nonzero;"/>
                </g>
                <g transform="matrix(33.3333,0,0,33.3333,202.412,122.173)">
                    <path d="M0.233,-0L0.233,-0.626L0.012,-0.626L0.012,-0.71L0.54,-0.71L0.54,-0.626L0.319,-0.626L0.319,-0L0.233,-0Z" style="fill-rule:nonzero;"/>
                </g>
            </g>
        </g>
        <g id="Start" transform="matrix(1,0,0,1,464.173,-22.4409)">
            <g id="Global-background6" serif:id="Global background" transform="matrix(4.18307,0,0,3.76889,-492.736,-536.75)">
                <path d="M119.769,151.504C119.769,150.673 120.067,149.876 120.596,149.288C121.126,148.7 121.844,148.37 122.593,148.37L164.946,148.37C165.695,148.37 166.413,148.7 166.942,149.288C167.472,149.876 167.769,150.673 167.769,151.504L167.769,198.512C167.769,199.343 167.472,200.14 166.942,200.727C166.413,201.315 165.695,201.645 164.946,201.645L122.593,201.645C121.844,201.645 121.126,201.315 120.596,200.727C120.067,200.14 119.769,199.343 119.769,198.512L119.769,151.504Z" style="fill:rgb(255,168,2);"/>
            </g>
            <g id="Glyph2" serif:id="Glyph" transform="matrix(1,0,0,1,-52.8343,12.4951)">
                <g transform="matrix(33.3333,0,0,33.3333,112.212,122.173)">
                    <path d="M0.336,0.016C0.281,0.016 0.234,0.006 0.193,-0.015C0.152,-0.036 0.12,-0.064 0.097,-0.101C0.073,-0.137 0.059,-0.179 0.055,-0.227L0.145,-0.233C0.15,-0.198 0.16,-0.168 0.176,-0.143C0.192,-0.118 0.214,-0.1 0.241,-0.087C0.268,-0.074 0.3,-0.068 0.338,-0.068C0.371,-0.068 0.4,-0.072 0.423,-0.081C0.446,-0.09 0.464,-0.102 0.477,-0.119C0.489,-0.136 0.495,-0.156 0.495,-0.18C0.495,-0.202 0.49,-0.222 0.48,-0.239C0.469,-0.256 0.45,-0.271 0.421,-0.286C0.392,-0.3 0.349,-0.314 0.292,-0.328C0.237,-0.342 0.194,-0.357 0.162,-0.374C0.129,-0.391 0.106,-0.411 0.092,-0.435C0.077,-0.459 0.07,-0.489 0.07,-0.524C0.07,-0.564 0.08,-0.599 0.099,-0.63C0.118,-0.66 0.145,-0.684 0.18,-0.701C0.215,-0.717 0.257,-0.726 0.306,-0.726C0.358,-0.726 0.403,-0.716 0.44,-0.697C0.477,-0.677 0.507,-0.65 0.529,-0.616C0.551,-0.582 0.565,-0.543 0.57,-0.5L0.48,-0.494C0.476,-0.523 0.467,-0.548 0.453,-0.571C0.438,-0.593 0.419,-0.61 0.394,-0.623C0.369,-0.636 0.339,-0.642 0.304,-0.642C0.26,-0.642 0.225,-0.632 0.199,-0.611C0.173,-0.59 0.16,-0.562 0.16,-0.528C0.16,-0.506 0.165,-0.488 0.176,-0.474C0.186,-0.459 0.204,-0.447 0.231,-0.436C0.258,-0.424 0.296,-0.413 0.346,-0.4C0.405,-0.385 0.452,-0.368 0.488,-0.348C0.523,-0.327 0.548,-0.304 0.563,-0.277C0.578,-0.25 0.585,-0.22 0.585,-0.186C0.585,-0.145 0.574,-0.109 0.553,-0.079C0.532,-0.048 0.502,-0.025 0.465,-0.009C0.428,0.008 0.385,0.016 0.336,0.016Z" style="fill-rule:nonzero;"/>
                </g>
                <g transform="matrix(33.3333,0,0,33.3333,132.212,122.173)">
                    <path d="M0.233,-0L0.233,-0.626L0.012,-0.626L0.012,-0.71L0.54,-0.71L0.54,-0.626L0.319,-0.626L0.319,-0L0.233,-0Z" style="fill-rule:nonzero;"/>
                </g>
                <g transform="matrix(33.3333,0,0,33.3333,147.612,122.173)">
                    <path d="M0.02,-0L0.276,-0.71L0.392,-0.71L0.648,-0L0.554,-0L0.483,-0.202L0.185,-0.202L0.114,-0L0.02,-0ZM0.214,-0.286L0.454,-0.286L0.334,-0.635L0.214,-0.286Z" style="fill-rule:nonzero;"/>
                </g>
                <g transform="matrix(33.3333,0,0,33.3333,169.212,122.173)">
                    <path d="M0.092,-0L0.092,-0.71L0.361,-0.71C0.411,-0.71 0.454,-0.701 0.49,-0.684C0.526,-0.667 0.554,-0.642 0.574,-0.61C0.593,-0.577 0.603,-0.539 0.603,-0.495C0.603,-0.463 0.596,-0.435 0.581,-0.41C0.566,-0.385 0.546,-0.365 0.523,-0.35C0.5,-0.335 0.475,-0.327 0.45,-0.326L0.444,-0.335C0.487,-0.335 0.522,-0.325 0.547,-0.305C0.572,-0.285 0.586,-0.253 0.59,-0.209L0.61,-0L0.523,-0L0.505,-0.2C0.502,-0.229 0.492,-0.251 0.474,-0.265C0.455,-0.279 0.425,-0.286 0.384,-0.286L0.178,-0.286L0.178,-0L0.092,-0ZM0.178,-0.37L0.372,-0.37C0.415,-0.37 0.45,-0.381 0.475,-0.403C0.5,-0.425 0.513,-0.456 0.513,-0.497C0.513,-0.538 0.5,-0.57 0.474,-0.593C0.448,-0.615 0.41,-0.626 0.361,-0.626L0.178,-0.626L0.178,-0.37Z" style="fill-rule:nonzero;"/>
                </g>
                <g transform="matrix(33.3333,0,0,33.3333,190.946,122.173)">
                    <path d="M0.233,-0L0.233,-0.626L0.012,-0.626L0.012,-0.71L0.54,-0.71L0.54,-0.626L0.319,-0.626L0.319,-0L0.233,-0Z" style="fill-rule:nonzero;"/>
                </g>
            </g>
        </g>
        <g id="System-reset" serif:id="System reset" transform="matrix(1,0,0,1,227.953,-22.4409)">
            <g id="Global-background7" serif:id="Global background" transform="matrix(4.18307,0,0,3.76889,-492.736,-536.75)">
                <path d="M119.769,151.504C119.769,150.673 120.067,149.876 120.596,149.288C121.126,148.7 121.844,148.37 122.593,148.37L164.946,148.37C165.695,148.37 166.413,148.7 166.942,149.288C167.472,149.876 167.769,150.673 167.769,151.504L167.769,198.512C167.769,199.343 167.472,200.14 166.942,200.727C166.413,201.315 165.695,201.645 164.946,201.645L122.593,201.645C121.844,201.645 121.126,201.315 120.596,200.727C120.067,200.14 119.769,199.343 119.769,198.512L119.769,151.504Z" style="fill:rgb(255,168,2);"/>
            </g>
            <g id="Glyph3" serif:id="Glyph" transform="matrix(1,0,0,1,-51.5009,-4.1716)">
                <g transform="matrix(33.3333,0,0,33.3333,98.6457,122.173)">
                    <path d="M0.336,0.016C0.281,0.016 0.234,0.006 0.193,-0.015C0.152,-0.036 0.12,-0.064 0.097,-0.101C0.073,-0.137 0.059,-0.179 0.055,-0.227L0.145,-0.233C0.15,-0.198 0.16,-0.168 0.176,-0.143C0.192,-0.118 0.214,-0.1 0.241,-0.087C0.268,-0.074 0.3,-0.068 0.338,-0.068C0.371,-0.068 0.4,-0.072 0.423,-0.081C0.446,-0.09 0.464,-0.102 0.477,-0.119C0.489,-0.136 0.495,-0.156 0.495,-0.18C0.495,-0.202 0.49,-0.222 0.48,-0.239C0.469,-0.256 0.45,-0.271 0.421,-0.286C0.392,-0.3 0.349,-0.314 0.292,-0.328C0.237,-0.342 0.194,-0.357 0.162,-0.374C0.129,-0.391 0.106,-0.411 0.092,-0.435C0.077,-0.459 0.07,-0.489 0.07,-0.524C0.07,-0.564 0.08,-0.599 0.099,-0.63C0.118,-0.66 0.145,-0.684 0.18,-0.701C0.215,-0.717 0.257,-0.726 0.306,-0.726C0.358,-0.726 0.403,-0.716 0.44,-0.697C0.477,-0.677 0.507,-0.65 0.529,-0.616C0.551,-0.582 0.565,-0.543 0.57,-0.5L0.48,-0.494C0.476,-0.523 0.467,-0.548 0.453,-0.571C0.438,-0.593 0.419,-0.61 0.394,-0.623C0.369,-0.636 0.339,-0.642 0.304,-0.642C0.26,-0.642 0.225,-0.632 0.199,-0.611C0.173,-0.59 0.16,-0.562 0.16,-0.528C0.16,-0.506 0.165,-0.488 0.176,-0.474C0.186,-0.459 0.204,-0.447 0.231,-0.436C0.258,-0.424 0.296,-0.413 0.346,-0.4C0.405,-0.385 0.452,-0.368 0.488,-0.348C0.523,-0.327 0.548,-0.304 0.563,-0.277C0.578,-0.25 0.585,-0.22 0.585,-0.186C0.585,-0.145 0.574,-0.109 0.553,-0.079C0.532,-0.048 0.502,-0.025 0.465,-0.009C0.428,0.008 0.385,0.016 0.336,0.016Z" style="fill-rule:nonzero;"/>
                </g>
                <g transform="matrix(33.3333,0,0,33.3333,118.646,122.173)">
                    <path d="M0.245,-0L0.245,-0.29L-0.006,-0.71L0.096,-0.71L0.288,-0.378L0.48,-0.71L0.582,-0.71L0.331,-0.29L0.331,-0L0.245,-0Z" style="fill-rule:nonzero;"/>
                </g>
                <g transform="matrix(33.3333,0,0,33.3333,136.512,122.173)">
                    <path d="M0.336,0.016C0.281,0.016 0.234,0.006 0.193,-0.015C0.152,-0.036 0.12,-0.064 0.097,-0.101C0.073,-0.137 0.059,-0.179 0.055,-0.227L0.145,-0.233C0.15,-0.198 0.16,-0.168 0.176,-0.143C0.192,-0.118 0.214,-0.1 0.241,-0.087C0.268,-0.074 0.3,-0.068 0.338,-0.068C0.371,-0.068 0.4,-0.072 0.423,-0.081C0.446,-0.09 0.464,-0.102 0.477,-0.119C0.489,-0.136 0.495,-0.156 0.495,-0.18C0.495,-0.202 0.49,-0.222 0.48,-0.239C0.469,-0.256 0.45,-0.271 0.421,-0.286C0.392,-0.3 0.349,-0.314 0.292,-0.328C0.237,-0.342 0.194,-0.357 0.162,-0.374C0.129,-0.391 0.106,-0.411 0.092,-0.435C0.077,-0.459 0.07,-0.489 0.07,-0.524C0.07,-0.564 0.08,-0.599 0.099,-0.63C0.118,-0.66 0.145,-0.684 0.18,-0.701C0.215,-0.717 0.257,-0.726 0.306,-0.726C0.358,-0.726 0.403,-0.716 0.44,-0.697C0.477,-0.677 0.507,-0.65 0.529,-0.616C0.551,-0.582 0.565,-0.543 0.57,-0.5L0.48,-0.494C0.476,-0.523 0.467,-0.548 0.453,-0.571C0.438,-0.593 0.419,-0.61 0.394,-0.623C0.369,-0.636 0.339,-0.642 0.304,-0.642C0.26,-0.642 0.225,-0.632 0.199,-0.611C0.173,-0.59 0.16,-0.562 0.16,-0.528C0.16,-0.506 0.165,-0.488 0.176,-0.474C0.186,-0.459 0.204,-0.447 0.231,-0.436C0.258,-0.424 0.296,-0.413 0.346,-0.4C0.405,-0.385 0.452,-0.368 0.488,-0.348C0.523,-0.327 0.548,-0.304 0.563,-0.277C0.578,-0.25 0.585,-0.22 0.585,-0.186C0.585,-0.145 0.574,-0.109 0.553,-0.079C0.532,-0.048 0.502,-0.025 0.465,-0.009C0.428,0.008 0.385,0.016 0.336,0.016Z" style="fill-rule:nonzero;"/>
                </g>
                <g transform="matrix(33.3333,0,0,33.3333,156.512,122.173)">
                    <path d="M0.233,-0L0.233,-0.626L0.012,-0.626L0.012,-0.71L0.54,-0.71L0.54,-0.626L0.319,-0.626L0.319,-0L0.233,-0Z" style="fill-rule:nonzero;"/>
                </g>
                <g transform="matrix(33.3333,0,0,33.3333,173.912,122.173)">
                    <path d="M0.092,-0L0.092,-0.71L0.538,-0.71L0.538,-0.626L0.178,-0.626L0.178,-0.397L0.526,-0.397L0.526,-0.315L0.178,-0.315L0.178,-0.084L0.546,-0.084L0.546,-0L0.092,-0Z" style="fill-rule:nonzero;"/>
                </g>
                <g transform="matrix(33.3333,0,0,33.3333,193.679,122.173)">
                    <path d="M0.092,-0L0.092,-0.71L0.212,-0.71L0.439,-0.094L0.665,-0.71L0.785,-0.71L0.785,-0L0.699,-0L0.699,-0.55L0.496,-0L0.381,-0L0.178,-0.55L0.178,-0L0.092,-0Z" style="fill-rule:nonzero;"/>
                </g>
                <g transform="matrix(33.3333,0,0,33.3333,109.846,155.506)">
                    <path d="M0.092,-0L0.092,-0.71L0.361,-0.71C0.411,-0.71 0.454,-0.701 0.49,-0.684C0.526,-0.667 0.554,-0.642 0.574,-0.61C0.593,-0.577 0.603,-0.539 0.603,-0.495C0.603,-0.463 0.596,-0.435 0.581,-0.41C0.566,-0.385 0.546,-0.365 0.523,-0.35C0.5,-0.335 0.475,-0.327 0.45,-0.326L0.444,-0.335C0.487,-0.335 0.522,-0.325 0.547,-0.305C0.572,-0.285 0.586,-0.253 0.59,-0.209L0.61,-0L0.523,-0L0.505,-0.2C0.502,-0.229 0.492,-0.251 0.474,-0.265C0.455,-0.279 0.425,-0.286 0.384,-0.286L0.178,-0.286L0.178,-0L0.092,-0ZM0.178,-0.37L0.372,-0.37C0.415,-0.37 0.45,-0.381 0.475,-0.403C0.5,-0.425 0.513,-0.456 0.513,-0.497C0.513,-0.538 0.5,-0.57 0.474,-0.593C0.448,-0.615 0.41,-0.626 0.361,-0.626L0.178,-0.626L0.178,-0.37Z" style="fill-rule:nonzero;"/>
                </g>
                <g transform="matrix(33.3333,0,0,33.3333,132.246,155.506)">
                    <path d="M0.092,-0L0.092,-0.71L0.538,-0.71L0.538,-0.626L0.178,-0.626L0.178,-0.397L0.526,-0.397L0.526,-0.315L0.178,-0.315L0.178,-0.084L0.546,-0.084L0.546,-0L0.092,-0Z" style="fill-rule:nonzero;"/>
                </g>
                <g transform="matrix(33.3333,0,0,33.3333,152.346,155.506)">
                    <path d="M0.336,0.016C0.281,0.016 0.234,0.006 0.193,-0.015C0.152,-0.036 0.12,-0.064 0.097,-0.101C0.073,-0.137 0.059,-0.179 0.055,-0.227L0.145,-0.233C0.15,-0.198 0.16,-0.168 0.176,-0.143C0.192,-0.118 0.214,-0.1 0.241,-0.087C0.268,-0.074 0.3,-0.068 0.338,-0.068C0.371,-0.068 0.4,-0.072 0.423,-0.081C0.446,-0.09 0.464,-0.102 0.477,-0.119C0.489,-0.136 0.495,-0.156 0.495,-0.18C0.495,-0.202 0.49,-0.222 0.48,-0.239C0.469,-0.256 0.45,-0.271 0.421,-0.286C0.392,-0.3 0.349,-0.314 0.292,-0.328C0.237,-0.342 0.194,-0.357 0.162,-0.374C0.129,-0.391 0.106,-0.411 0.092,-0.435C0.077,-0.459 0.07,-0.489 0.07,-0.524C0.07,-0.564 0.08,-0.599 0.099,-0.63C0.118,-0.66 0.145,-0.684 0.18,-0.701C0.215,-0.717 0.257,-0.726 0.306,-0.726C0.358,-0.726 0.403,-0.716 0.44,-0.697C0.477,-0.677 0.507,-0.65 0.529,-0.616C0.551,-0.582 0.565,-0.543 0.57,-0.5L0.48,-0.494C0.476,-0.523 0.467,-0.548 0.453,-0.571C0.438,-0.593 0.419,-0.61 0.394,-0.623C0.369,-0.636 0.339,-0.642 0.304,-0.642C0.26,-0.642 0.225,-0.632 0.199,-0.611C0.173,-0.59 0.16,-0.562 0.16,-0.528C0.16,-0.506 0.165,-0.488 0.176,-0.474C0.186,-0.459 0.204,-0.447 0.231,-0.436C0.258,-0.424 0.296,-0.413 0.346,-0.4C0.405,-0.385 0.452,-0.368 0.488,-0.348C0.523,-0.327 0.548,-0.304 0.563,-0.277C0.578,-0.25 0.585,-0.22 0.585,-0.186C0.585,-0.145 0.574,-0.109 0.553,-0.079C0.532,-0.048 0.502,-0.025 0.465,-0.009C0.428,0.008 0.385,0.016 0.336,0.016Z" style="fill-rule:nonzero;"/>
                </g>
                <g transform="matrix(33.3333,0,0,33.3333,173.212,155.506)">
                    <path d="M0.092,-0L0.092,-0.71L0.538,-0.71L0.538,-0.626L0.178,-0.626L0.178,-0.397L0.526,-0.397L0.526,-0.315L0.178,-0.315L0.178,-0.084L0.546,-0.084L0.546,-0L0.092,-0Z" style="fill-rule:nonzero;"/>
                </g>
                <g transform="matrix(33.3333,0,0,33.3333,193.312,155.506)">
                    <path d="M0.233,-0L0.233,-0.626L0.012,-0.626L0.012,-0.71L0.54,-0.71L0.54,-0.626L0.319,-0.626L0.319,-0L0.233,-0Z" style="fill-rule:nonzero;"/>
                </g>
            </g>
        </g>
        <g id="Option" transform="matrix(1,0,0,1,-8.26772,-22.4409)">
            <g id="Global-background8" serif:id="Global background" transform="matrix(4.18307,0,0,3.76889,-492.736,-536.75)">
                <path d="M119.769,151.504C119.769,150.673 120.067,149.876 120.596,149.288C121.126,148.7 121.844,148.37 122.593,148.37L164.946,148.37C165.695,148.37 166.413,148.7 166.942,149.288C167.472,149.876 167.769,150.673 167.769,151.504L167.769,198.512C167.769,199.343 167.472,200.14 166.942,200.727C166.413,201.315 165.695,201.645 164.946,201.645L122.593,201.645C121.844,201.645 121.126,201.315 120.596,200.727C120.067,200.14 119.769,199.343 119.769,198.512L119.769,151.504Z" style="fill:rgb(255,168,2);"/>
            </g>
            <g id="Glyph4" serif:id="Glyph" transform="matrix(1,0,0,1,-51.5009,12.4951)">
                <g transform="matrix(33.3333,0,0,33.3333,100.429,122.173)">
                    <path d="M0.369,0.016C0.302,0.016 0.244,0.001 0.196,-0.029C0.147,-0.058 0.11,-0.101 0.084,-0.156C0.058,-0.211 0.045,-0.277 0.045,-0.354C0.045,-0.431 0.058,-0.497 0.084,-0.553C0.11,-0.608 0.147,-0.651 0.196,-0.681C0.244,-0.711 0.302,-0.726 0.369,-0.726C0.437,-0.726 0.495,-0.711 0.544,-0.681C0.592,-0.651 0.629,-0.608 0.655,-0.553C0.681,-0.497 0.694,-0.431 0.694,-0.354C0.694,-0.277 0.681,-0.211 0.655,-0.156C0.629,-0.101 0.592,-0.058 0.544,-0.029C0.495,0.001 0.437,0.016 0.369,0.016ZM0.369,-0.068C0.418,-0.068 0.46,-0.079 0.496,-0.102C0.531,-0.125 0.557,-0.157 0.576,-0.2C0.595,-0.243 0.604,-0.294 0.604,-0.354C0.604,-0.414 0.595,-0.466 0.576,-0.509C0.557,-0.552 0.531,-0.585 0.496,-0.608C0.46,-0.631 0.418,-0.642 0.369,-0.642C0.32,-0.642 0.278,-0.631 0.244,-0.608C0.209,-0.585 0.182,-0.552 0.163,-0.509C0.144,-0.466 0.135,-0.414 0.135,-0.354C0.135,-0.294 0.144,-0.243 0.163,-0.2C0.182,-0.157 0.209,-0.125 0.244,-0.102C0.278,-0.079 0.32,-0.068 0.369,-0.068Z" style="fill-rule:nonzero;"/>
                </g>
                <g transform="matrix(33.3333,0,0,33.3333,124.596,122.173)">
                    <path d="M0.092,-0L0.092,-0.71L0.347,-0.71C0.426,-0.71 0.488,-0.691 0.532,-0.653C0.576,-0.615 0.598,-0.562 0.598,-0.495C0.598,-0.45 0.588,-0.411 0.568,-0.378C0.548,-0.345 0.519,-0.319 0.482,-0.302C0.445,-0.285 0.4,-0.276 0.347,-0.276L0.178,-0.276L0.178,-0L0.092,-0ZM0.178,-0.36L0.347,-0.36C0.4,-0.36 0.44,-0.371 0.468,-0.394C0.495,-0.417 0.508,-0.45 0.508,-0.495C0.508,-0.538 0.495,-0.571 0.468,-0.593C0.44,-0.615 0.4,-0.626 0.347,-0.626L0.178,-0.626L0.178,-0.36Z" style="fill-rule:nonzero;"/>
                </g>
                <g transform="matrix(33.3333,0,0,33.3333,146.262,122.173)">
                    <path d="M0.233,-0L0.233,-0.626L0.012,-0.626L0.012,-0.71L0.54,-0.71L0.54,-0.626L0.319,-0.626L0.319,-0L0.233,-0Z" style="fill-rule:nonzero;"/>
                </g>
                <g transform="matrix(33.3333,0,0,33.3333,163.662,122.173)">
                    <rect x="0.092" y="-0.71" width="0.086" height="0.71" style="fill-rule:nonzero;"/>
                </g>
                <g transform="matrix(33.3333,0,0,33.3333,172.196,122.173)">
                    <path d="M0.369,0.016C0.302,0.016 0.244,0.001 0.196,-0.029C0.147,-0.058 0.11,-0.101 0.084,-0.156C0.058,-0.211 0.045,-0.277 0.045,-0.354C0.045,-0.431 0.058,-0.497 0.084,-0.553C0.11,-0.608 0.147,-0.651 0.196,-0.681C0.244,-0.711 0.302,-0.726 0.369,-0.726C0.437,-0.726 0.495,-0.711 0.544,-0.681C0.592,-0.651 0.629,-0.608 0.655,-0.553C0.681,-0.497 0.694,-0.431 0.694,-0.354C0.694,-0.277 0.681,-0.211 0.655,-0.156C0.629,-0.101 0.592,-0.058 0.544,-0.029C0.495,0.001 0.437,0.016 0.369,0.016ZM0.369,-0.068C0.418,-0.068 0.46,-0.079 0.496,-0.102C0.531,-0.125 0.557,-0.157 0.576,-0.2C0.595,-0.243 0.604,-0.294 0.604,-0.354C0.604,-0.414 0.595,-0.466 0.576,-0.509C0.557,-0.552 0.531,-0.585 0.496,-0.608C0.46,-0.631 0.418,-0.642 0.369,-0.642C0.32,-0.642 0.278,-0.631 0.244,-0.608C0.209,-0.585 0.182,-0.552 0.163,-0.509C0.144,-0.466 0.135,-0.414 0.135,-0.354C0.135,-0.294 0.144,-0.243 0.163,-0.2C0.182,-0.157 0.209,-0.125 0.244,-0.102C0.278,-0.079 0.32,-0.068 0.369,-0.068Z" style="fill-rule:nonzero;"/>
                </g>
                <g transform="matrix(33.3333,0,0,33.3333,196.362,122.173)">
                    <path d="M0.092,-0L0.092,-0.71L0.214,-0.71L0.565,-0.086L0.565,-0.71L0.651,-0.71L0.651,-0L0.523,-0L0.178,-0.612L0.178,-0L0.092,-0Z" style="fill-rule:nonzero;"/>
                </g>
            </g>
        </g>
    </g>
</svg>
