<?xml version="1.0" encoding="UTF-8" standalone="no"?>
<!DOCTYPE svg PUBLIC "-//W3C//DTD SVG 1.1//EN" "http://www.w3.org/Graphics/SVG/1.1/DTD/svg11.dtd">
<svg width="100%" height="100%" viewBox="0 0 151 151" version="1.1" xmlns="http://www.w3.org/2000/svg" xmlns:xlink="http://www.w3.org/1999/xlink" xml:space="preserve" xmlns:serif="http://www.serif.com/" style="fill-rule:evenodd;clip-rule:evenodd;stroke-linejoin:round;stroke-miterlimit:2;">
    <g transform="matrix(0.24,0,0,0.24,0,0)">
        <g id="_.--" serif:id=".-]" transform="matrix(1,0,0,1,227.953,426.378)">
            <g id="Global-background" serif:id="Global background" transform="matrix(3.19882,0,0,2.88209,-138.632,-381.554)">
                <path d="M119.769,160.665C119.769,157.404 120.936,154.277 123.014,151.971C125.091,149.666 127.908,148.37 130.846,148.37L156.692,148.37C159.63,148.37 162.448,149.666 164.525,151.971C166.602,154.277 167.769,157.404 167.769,160.665L167.769,189.351C167.769,192.612 166.602,195.739 164.525,198.044C162.448,200.35 159.63,201.645 156.692,201.645L130.846,201.645C127.908,201.645 125.091,200.35 123.014,198.044C120.936,195.739 119.769,192.612 119.769,189.351L119.769,160.665Z" style="fill:rgb(230,230,230);"/>
            </g>
            <g id="Bottom-background" serif:id="Bottom background" transform="matrix(3.19882,0,0,2.88209,-138.632,-381.554)">
                <path d="M163.63,176.259C164.241,176.259 164.737,176.809 164.737,177.488C164.737,179.758 164.737,184.794 164.737,189.351C164.737,191.742 163.882,194.035 162.358,195.726C160.835,197.417 158.769,198.367 156.614,198.367L130.895,198.367C128.741,198.367 126.675,197.417 125.151,195.726C123.628,194.035 122.772,191.742 122.772,189.351L122.772,177.488C122.772,176.809 123.268,176.259 123.88,176.259C129.805,176.259 157.705,176.259 163.63,176.259Z" style="fill:rgb(92,60,28);"/>
            </g>
            <g id="Top-background" serif:id="Top background" transform="matrix(3.19882,0,0,2.88209,-138.632,-381.554)">
                <path d="M163.708,173.259C164.001,173.259 164.283,173.129 164.491,172.898C164.699,172.668 164.815,172.355 164.815,172.029C164.815,169.831 164.815,165.046 164.815,160.665C164.815,158.273 163.96,155.98 162.436,154.289C160.913,152.599 158.847,151.649 156.692,151.649L130.846,151.649C128.692,151.649 126.626,152.599 125.102,154.289C123.579,155.98 122.723,158.273 122.723,160.665L122.723,172.029C122.723,172.355 122.84,172.668 123.048,172.898C123.255,173.129 123.537,173.259 123.831,173.259C129.768,173.259 157.771,173.259 163.708,173.259Z" style="fill:rgb(187,101,43);"/>
            </g>
            <g id="Bottom-glyph" serif:id="Bottom glyph" transform="matrix(0.834833,0,0,0.834833,-1621.49,-338.548)">
                <path d="M2332.76,606.427L2321.46,606.497L2321.46,595.197L2332.76,595.197L2332.76,606.427Z" style="fill:rgb(230,230,230);fill-rule:nonzero;"/>
            </g>
            <g id="Top-glyph" serif:id="Top glyph" transform="matrix(-0.843645,0,0,0.843645,1940.94,-524.938)">
                <path d="M1933.86,749.51L1905.86,749.51L1905.86,699.343L1933.86,699.343L1933.86,703.426L1910.41,703.426L1910.41,745.426L1933.86,745.426L1933.86,749.51Z" style="fill:rgb(230,230,230);fill-rule:nonzero;"/>
            </g>
        </g>
        <g id="_---" serif:id=",-]" transform="matrix(1,0,0,1,-8.26772,426.378)">
            <g id="Global-background1" serif:id="Global background" transform="matrix(3.19882,0,0,2.88209,-138.632,-381.554)">
                <path d="M119.769,160.665C119.769,157.404 120.936,154.277 123.014,151.971C125.091,149.666 127.908,148.37 130.846,148.37L156.692,148.37C159.63,148.37 162.448,149.666 164.525,151.971C166.602,154.277 167.769,157.404 167.769,160.665L167.769,189.351C167.769,192.612 166.602,195.739 164.525,198.044C162.448,200.35 159.63,201.645 156.692,201.645L130.846,201.645C127.908,201.645 125.091,200.35 123.014,198.044C120.936,195.739 119.769,192.612 119.769,189.351L119.769,160.665Z" style="fill:rgb(230,230,230);"/>
            </g>
            <g id="Bottom-background1" serif:id="Bottom background" transform="matrix(3.19882,0,0,2.88209,-138.632,-381.554)">
                <path d="M163.63,176.259C164.241,176.259 164.737,176.809 164.737,177.488C164.737,179.758 164.737,184.794 164.737,189.351C164.737,191.742 163.882,194.035 162.358,195.726C160.835,197.417 158.769,198.367 156.614,198.367L130.895,198.367C128.741,198.367 126.675,197.417 125.151,195.726C123.628,194.035 122.772,191.742 122.772,189.351L122.772,177.488C122.772,176.809 123.268,176.259 123.88,176.259C129.805,176.259 157.705,176.259 163.63,176.259Z" style="fill:rgb(92,60,28);"/>
            </g>
            <g id="Top-background1" serif:id="Top background" transform="matrix(3.19882,0,0,2.88209,-138.632,-381.554)">
                <path d="M163.708,173.259C164.001,173.259 164.283,173.129 164.491,172.898C164.699,172.668 164.815,172.355 164.815,172.029C164.815,169.831 164.815,165.046 164.815,160.665C164.815,158.273 163.96,155.98 162.436,154.289C160.913,152.599 158.847,151.649 156.692,151.649L130.846,151.649C128.692,151.649 126.626,152.599 125.102,154.289C123.579,155.98 122.723,158.273 122.723,160.665L122.723,172.029C122.723,172.355 122.84,172.668 123.048,172.898C123.255,173.129 123.537,173.259 123.831,173.259C129.768,173.259 157.771,173.259 163.708,173.259Z" style="fill:rgb(187,101,43);"/>
            </g>
            <g id="Bottom-glyph1" serif:id="Bottom glyph" transform="matrix(0.834833,0,0,0.834833,-1621.49,-338.548)">
                <g transform="matrix(100,0,0,100,2317.06,606.497)">
                    <path d="M0.047,0.156L0.095,-0L0.044,-0L0.044,-0.113L0.157,-0.113L0.157,-0.014L0.097,0.156L0.047,0.156Z" style="fill:rgb(230,230,230);fill-rule:nonzero;"/>
                </g>
            </g>
            <g id="Top-glyph1" serif:id="Top glyph" transform="matrix(0.843645,0,0,0.843645,-1298.42,-524.938)">
                <path d="M1933.86,749.51L1905.86,749.51L1905.86,699.343L1933.86,699.343L1933.86,703.426L1910.41,703.426L1910.41,745.426L1933.86,745.426L1933.86,749.51Z" style="fill:rgb(230,230,230);fill-rule:nonzero;"/>
            </g>
        </g>
        <g id="M" transform="matrix(1,0,0,1,-31.8898,426.378)">
            <g id="Global-background2" serif:id="Global background" transform="matrix(3.19882,0,0,2.88209,-351.23,-381.554)">
                <path d="M119.769,160.665C119.769,157.404 120.936,154.277 123.014,151.971C125.091,149.666 127.908,148.37 130.846,148.37L156.692,148.37C159.63,148.37 162.448,149.666 164.525,151.971C166.602,154.277 167.769,157.404 167.769,160.665L167.769,189.351C167.769,192.612 166.602,195.739 164.525,198.044C162.448,200.35 159.63,201.645 156.692,201.645L130.846,201.645C127.908,201.645 125.091,200.35 123.014,198.044C120.936,195.739 119.769,192.612 119.769,189.351L119.769,160.665Z" style="fill:rgb(230,230,230);"/>
            </g>
            <g id="Bottom-background2" serif:id="Bottom background" transform="matrix(3.19882,0,0,2.88209,-351.23,-381.554)">
                <path d="M156.614,151.649C158.769,151.649 160.835,152.599 162.358,154.289C163.882,155.98 164.737,158.273 164.737,160.665L164.737,189.351C164.737,191.742 163.882,194.035 162.358,195.726C160.835,197.417 158.769,198.367 156.614,198.367L130.895,198.367C128.741,198.367 126.675,197.417 125.151,195.726C123.628,194.035 122.772,191.742 122.772,189.351L122.772,160.665C122.772,158.273 123.628,155.98 125.151,154.289C126.675,152.599 128.741,151.649 130.895,151.649L156.614,151.649Z" style="fill:rgb(92,60,28);"/>
                <clipPath id="_clip1">
                    <path d="M156.614,151.649C158.769,151.649 160.835,152.599 162.358,154.289C163.882,155.98 164.737,158.273 164.737,160.665L164.737,189.351C164.737,191.742 163.882,194.035 162.358,195.726C160.835,197.417 158.769,198.367 156.614,198.367L130.895,198.367C128.741,198.367 126.675,197.417 125.151,195.726C123.628,194.035 122.772,191.742 122.772,189.351L122.772,160.665C122.772,158.273 123.628,155.98 125.151,154.289C126.675,152.599 128.741,151.649 130.895,151.649L156.614,151.649Z"/>
                </clipPath>
                <g clip-path="url(#_clip1)">
                    <g id="Space-2" serif:id="Space 2">
                    </g>
                </g>
            </g>
            <g id="Glyph" transform="matrix(1,0,0,1,-43.9843,27.2867)">
                <g transform="matrix(75,0,0,75,119.758,122.173)">
                    <path d="M0.092,-0L0.092,-0.71L0.212,-0.71L0.439,-0.094L0.665,-0.71L0.785,-0.71L0.785,-0L0.699,-0L0.699,-0.55L0.496,-0L0.381,-0L0.178,-0.55L0.178,-0L0.092,-0Z" style="fill:rgb(230,230,230);fill-rule:nonzero;"/>
                </g>
            </g>
        </g>
        <g id="N" transform="matrix(1,0,0,1,440.551,190.157)">
            <g id="Global-background3" serif:id="Global background" transform="matrix(3.19882,0,0,2.88209,-351.23,-381.554)">
                <path d="M119.769,160.665C119.769,157.404 120.936,154.277 123.014,151.971C125.091,149.666 127.908,148.37 130.846,148.37L156.692,148.37C159.63,148.37 162.448,149.666 164.525,151.971C166.602,154.277 167.769,157.404 167.769,160.665L167.769,189.351C167.769,192.612 166.602,195.739 164.525,198.044C162.448,200.35 159.63,201.645 156.692,201.645L130.846,201.645C127.908,201.645 125.091,200.35 123.014,198.044C120.936,195.739 119.769,192.612 119.769,189.351L119.769,160.665Z" style="fill:rgb(230,230,230);"/>
            </g>
            <g id="Bottom-background3" serif:id="Bottom background" transform="matrix(3.19882,0,0,2.88209,-351.23,-381.554)">
                <path d="M156.614,151.649C158.769,151.649 160.835,152.599 162.358,154.289C163.882,155.98 164.737,158.273 164.737,160.665L164.737,189.351C164.737,191.742 163.882,194.035 162.358,195.726C160.835,197.417 158.769,198.367 156.614,198.367L130.895,198.367C128.741,198.367 126.675,197.417 125.151,195.726C123.628,194.035 122.772,191.742 122.772,189.351L122.772,160.665C122.772,158.273 123.628,155.98 125.151,154.289C126.675,152.599 128.741,151.649 130.895,151.649L156.614,151.649Z" style="fill:rgb(92,60,28);"/>
                <clipPath id="_clip2">
                    <path d="M156.614,151.649C158.769,151.649 160.835,152.599 162.358,154.289C163.882,155.98 164.737,158.273 164.737,160.665L164.737,189.351C164.737,191.742 163.882,194.035 162.358,195.726C160.835,197.417 158.769,198.367 156.614,198.367L130.895,198.367C128.741,198.367 126.675,197.417 125.151,195.726C123.628,194.035 122.772,191.742 122.772,189.351L122.772,160.665C122.772,158.273 123.628,155.98 125.151,154.289C126.675,152.599 128.741,151.649 130.895,151.649L156.614,151.649Z"/>
                </clipPath>
                <g clip-path="url(#_clip2)">
                    <g id="Space-21" serif:id="Space 2">
                    </g>
                </g>
            </g>
            <g id="Glyph1" serif:id="Glyph" transform="matrix(1,0,0,1,-43.9843,27.2867)">
                <g transform="matrix(75,0,0,75,124.783,122.173)">
                    <path d="M0.092,-0L0.092,-0.71L0.214,-0.71L0.565,-0.086L0.565,-0.71L0.651,-0.71L0.651,-0L0.523,-0L0.178,-0.612L0.178,-0L0.092,-0Z" style="fill:rgb(230,230,230);fill-rule:nonzero;"/>
                </g>
            </g>
        </g>
        <g id="B" transform="matrix(1,0,0,1,204.331,190.157)">
            <g id="Global-background4" serif:id="Global background" transform="matrix(3.19882,0,0,2.88209,-351.23,-381.554)">
                <path d="M119.769,160.665C119.769,157.404 120.936,154.277 123.014,151.971C125.091,149.666 127.908,148.37 130.846,148.37L156.692,148.37C159.63,148.37 162.448,149.666 164.525,151.971C166.602,154.277 167.769,157.404 167.769,160.665L167.769,189.351C167.769,192.612 166.602,195.739 164.525,198.044C162.448,200.35 159.63,201.645 156.692,201.645L130.846,201.645C127.908,201.645 125.091,200.35 123.014,198.044C120.936,195.739 119.769,192.612 119.769,189.351L119.769,160.665Z" style="fill:rgb(230,230,230);"/>
            </g>
            <g id="Bottom-background4" serif:id="Bottom background" transform="matrix(3.19882,0,0,2.88209,-351.23,-381.554)">
                <path d="M156.614,151.649C158.769,151.649 160.835,152.599 162.358,154.289C163.882,155.98 164.737,158.273 164.737,160.665L164.737,189.351C164.737,191.742 163.882,194.035 162.358,195.726C160.835,197.417 158.769,198.367 156.614,198.367L130.895,198.367C128.741,198.367 126.675,197.417 125.151,195.726C123.628,194.035 122.772,191.742 122.772,189.351L122.772,160.665C122.772,158.273 123.628,155.98 125.151,154.289C126.675,152.599 128.741,151.649 130.895,151.649L156.614,151.649Z" style="fill:rgb(92,60,28);"/>
                <clipPath id="_clip3">
                    <path d="M156.614,151.649C158.769,151.649 160.835,152.599 162.358,154.289C163.882,155.98 164.737,158.273 164.737,160.665L164.737,189.351C164.737,191.742 163.882,194.035 162.358,195.726C160.835,197.417 158.769,198.367 156.614,198.367L130.895,198.367C128.741,198.367 126.675,197.417 125.151,195.726C123.628,194.035 122.772,191.742 122.772,189.351L122.772,160.665C122.772,158.273 123.628,155.98 125.151,154.289C126.675,152.599 128.741,151.649 130.895,151.649L156.614,151.649Z"/>
                </clipPath>
                <g clip-path="url(#_clip3)">
                    <g id="Space-22" serif:id="Space 2">
                    </g>
                </g>
            </g>
            <g id="Glyph2" serif:id="Glyph" transform="matrix(1,0,0,1,-45.1093,27.2867)">
                <g transform="matrix(75,0,0,75,127.146,122.173)">
                    <path d="M0.092,-0L0.092,-0.71L0.336,-0.71C0.42,-0.71 0.483,-0.695 0.525,-0.664C0.567,-0.633 0.588,-0.585 0.588,-0.519C0.588,-0.488 0.581,-0.461 0.568,-0.438C0.555,-0.415 0.536,-0.397 0.511,-0.384C0.486,-0.371 0.457,-0.364 0.423,-0.364L0.422,-0.37C0.483,-0.37 0.531,-0.354 0.566,-0.322C0.6,-0.289 0.618,-0.247 0.618,-0.195C0.618,-0.13 0.597,-0.082 0.555,-0.049C0.513,-0.016 0.453,-0 0.376,-0L0.092,-0ZM0.178,-0.084L0.376,-0.084C0.425,-0.084 0.462,-0.094 0.489,-0.114C0.515,-0.134 0.528,-0.163 0.528,-0.2C0.528,-0.237 0.515,-0.267 0.489,-0.288C0.462,-0.309 0.425,-0.319 0.376,-0.319L0.178,-0.319L0.178,-0.084ZM0.178,-0.403L0.336,-0.403C0.388,-0.403 0.428,-0.413 0.456,-0.433C0.484,-0.452 0.498,-0.48 0.498,-0.515C0.498,-0.552 0.485,-0.58 0.458,-0.599C0.431,-0.617 0.39,-0.626 0.336,-0.626L0.178,-0.626L0.178,-0.403Z" style="fill:rgb(230,230,230);fill-rule:nonzero;"/>
                </g>
            </g>
        </g>
        <g id="V" transform="matrix(1,0,0,1,-31.8898,190.157)">
            <g id="Global-background5" serif:id="Global background" transform="matrix(3.19882,0,0,2.88209,-351.23,-381.554)">
                <path d="M119.769,160.665C119.769,157.404 120.936,154.277 123.014,151.971C125.091,149.666 127.908,148.37 130.846,148.37L156.692,148.37C159.63,148.37 162.448,149.666 164.525,151.971C166.602,154.277 167.769,157.404 167.769,160.665L167.769,189.351C167.769,192.612 166.602,195.739 164.525,198.044C162.448,200.35 159.63,201.645 156.692,201.645L130.846,201.645C127.908,201.645 125.091,200.35 123.014,198.044C120.936,195.739 119.769,192.612 119.769,189.351L119.769,160.665Z" style="fill:rgb(230,230,230);"/>
            </g>
            <g id="Bottom-background5" serif:id="Bottom background" transform="matrix(3.19882,0,0,2.88209,-351.23,-381.554)">
                <path d="M156.614,151.649C158.769,151.649 160.835,152.599 162.358,154.289C163.882,155.98 164.737,158.273 164.737,160.665L164.737,189.351C164.737,191.742 163.882,194.035 162.358,195.726C160.835,197.417 158.769,198.367 156.614,198.367L130.895,198.367C128.741,198.367 126.675,197.417 125.151,195.726C123.628,194.035 122.772,191.742 122.772,189.351L122.772,160.665C122.772,158.273 123.628,155.98 125.151,154.289C126.675,152.599 128.741,151.649 130.895,151.649L156.614,151.649Z" style="fill:rgb(92,60,28);"/>
                <clipPath id="_clip4">
                    <path d="M156.614,151.649C158.769,151.649 160.835,152.599 162.358,154.289C163.882,155.98 164.737,158.273 164.737,160.665L164.737,189.351C164.737,191.742 163.882,194.035 162.358,195.726C160.835,197.417 158.769,198.367 156.614,198.367L130.895,198.367C128.741,198.367 126.675,197.417 125.151,195.726C123.628,194.035 122.772,191.742 122.772,189.351L122.772,160.665C122.772,158.273 123.628,155.98 125.151,154.289C126.675,152.599 128.741,151.649 130.895,151.649L156.614,151.649Z"/>
                </clipPath>
                <g clip-path="url(#_clip4)">
                    <g id="Space-23" serif:id="Space 2">
                    </g>
                </g>
            </g>
            <g id="Glyph3" serif:id="Glyph" transform="matrix(1,0,0,1,-43.9843,27.2867)">
                <g transform="matrix(75,0,0,75,127.633,122.173)">
                    <path d="M0.277,-0L0.02,-0.71L0.114,-0.71L0.334,-0.094L0.553,-0.71L0.647,-0.71L0.39,-0L0.277,-0Z" style="fill:rgb(230,230,230);fill-rule:nonzero;"/>
                </g>
            </g>
        </g>
        <g id="C" transform="matrix(1,0,0,1,440.551,-46.063)">
            <g id="Global-background6" serif:id="Global background" transform="matrix(3.19882,0,0,2.88209,-351.23,-381.554)">
                <path d="M119.769,160.665C119.769,157.404 120.936,154.277 123.014,151.971C125.091,149.666 127.908,148.37 130.846,148.37L156.692,148.37C159.63,148.37 162.448,149.666 164.525,151.971C166.602,154.277 167.769,157.404 167.769,160.665L167.769,189.351C167.769,192.612 166.602,195.739 164.525,198.044C162.448,200.35 159.63,201.645 156.692,201.645L130.846,201.645C127.908,201.645 125.091,200.35 123.014,198.044C120.936,195.739 119.769,192.612 119.769,189.351L119.769,160.665Z" style="fill:rgb(230,230,230);"/>
            </g>
            <g id="Bottom-background6" serif:id="Bottom background" transform="matrix(3.19882,0,0,2.88209,-351.23,-381.554)">
                <path d="M156.614,151.649C158.769,151.649 160.835,152.599 162.358,154.289C163.882,155.98 164.737,158.273 164.737,160.665L164.737,189.351C164.737,191.742 163.882,194.035 162.358,195.726C160.835,197.417 158.769,198.367 156.614,198.367L130.895,198.367C128.741,198.367 126.675,197.417 125.151,195.726C123.628,194.035 122.772,191.742 122.772,189.351L122.772,160.665C122.772,158.273 123.628,155.98 125.151,154.289C126.675,152.599 128.741,151.649 130.895,151.649L156.614,151.649Z" style="fill:rgb(92,60,28);"/>
                <clipPath id="_clip5">
                    <path d="M156.614,151.649C158.769,151.649 160.835,152.599 162.358,154.289C163.882,155.98 164.737,158.273 164.737,160.665L164.737,189.351C164.737,191.742 163.882,194.035 162.358,195.726C160.835,197.417 158.769,198.367 156.614,198.367L130.895,198.367C128.741,198.367 126.675,197.417 125.151,195.726C123.628,194.035 122.772,191.742 122.772,189.351L122.772,160.665C122.772,158.273 123.628,155.98 125.151,154.289C126.675,152.599 128.741,151.649 130.895,151.649L156.614,151.649Z"/>
                </clipPath>
                <g clip-path="url(#_clip5)">
                    <g id="Space-24" serif:id="Space 2">
                    </g>
                </g>
            </g>
            <g id="Glyph4" serif:id="Glyph" transform="matrix(1,0,0,1,-43.9843,27.2867)">
                <g transform="matrix(75,0,0,75,126.283,122.173)">
                    <path d="M0.364,0.016C0.301,0.016 0.245,0.001 0.197,-0.029C0.149,-0.058 0.112,-0.101 0.085,-0.156C0.058,-0.211 0.045,-0.277 0.045,-0.354C0.045,-0.431 0.058,-0.497 0.085,-0.553C0.112,-0.608 0.149,-0.651 0.197,-0.681C0.245,-0.711 0.301,-0.726 0.364,-0.726C0.45,-0.726 0.517,-0.704 0.564,-0.661C0.611,-0.618 0.642,-0.559 0.657,-0.484L0.566,-0.478C0.556,-0.529 0.535,-0.569 0.502,-0.598C0.469,-0.627 0.423,-0.642 0.364,-0.642C0.319,-0.642 0.279,-0.631 0.245,-0.608C0.21,-0.585 0.183,-0.552 0.164,-0.509C0.145,-0.466 0.135,-0.414 0.135,-0.354C0.135,-0.294 0.145,-0.243 0.164,-0.2C0.183,-0.157 0.21,-0.125 0.245,-0.102C0.279,-0.079 0.319,-0.068 0.364,-0.068C0.426,-0.068 0.474,-0.084 0.508,-0.117C0.542,-0.149 0.563,-0.193 0.572,-0.248L0.663,-0.242C0.654,-0.191 0.637,-0.146 0.612,-0.107C0.587,-0.068 0.553,-0.038 0.512,-0.017C0.47,0.005 0.421,0.016 0.364,0.016Z" style="fill:rgb(230,230,230);fill-rule:nonzero;"/>
                </g>
            </g>
        </g>
        <g id="X" transform="matrix(1,0,0,1,204.331,-46.063)">
            <g id="Global-background7" serif:id="Global background" transform="matrix(3.19882,0,0,2.88209,-351.23,-381.554)">
                <path d="M119.769,160.665C119.769,157.404 120.936,154.277 123.014,151.971C125.091,149.666 127.908,148.37 130.846,148.37L156.692,148.37C159.63,148.37 162.448,149.666 164.525,151.971C166.602,154.277 167.769,157.404 167.769,160.665L167.769,189.351C167.769,192.612 166.602,195.739 164.525,198.044C162.448,200.35 159.63,201.645 156.692,201.645L130.846,201.645C127.908,201.645 125.091,200.35 123.014,198.044C120.936,195.739 119.769,192.612 119.769,189.351L119.769,160.665Z" style="fill:rgb(230,230,230);"/>
            </g>
            <g id="Bottom-background7" serif:id="Bottom background" transform="matrix(3.19882,0,0,2.88209,-351.23,-381.554)">
                <path d="M156.614,151.649C158.769,151.649 160.835,152.599 162.358,154.289C163.882,155.98 164.737,158.273 164.737,160.665L164.737,189.351C164.737,191.742 163.882,194.035 162.358,195.726C160.835,197.417 158.769,198.367 156.614,198.367L130.895,198.367C128.741,198.367 126.675,197.417 125.151,195.726C123.628,194.035 122.772,191.742 122.772,189.351L122.772,160.665C122.772,158.273 123.628,155.98 125.151,154.289C126.675,152.599 128.741,151.649 130.895,151.649L156.614,151.649Z" style="fill:rgb(92,60,28);"/>
                <clipPath id="_clip6">
                    <path d="M156.614,151.649C158.769,151.649 160.835,152.599 162.358,154.289C163.882,155.98 164.737,158.273 164.737,160.665L164.737,189.351C164.737,191.742 163.882,194.035 162.358,195.726C160.835,197.417 158.769,198.367 156.614,198.367L130.895,198.367C128.741,198.367 126.675,197.417 125.151,195.726C123.628,194.035 122.772,191.742 122.772,189.351L122.772,160.665C122.772,158.273 123.628,155.98 125.151,154.289C126.675,152.599 128.741,151.649 130.895,151.649L156.614,151.649Z"/>
                </clipPath>
                <g clip-path="url(#_clip6)">
                    <g id="Space-25" serif:id="Space 2">
                    </g>
                </g>
            </g>
            <g id="Glyph5" serif:id="Glyph" transform="matrix(1,0,0,1,-43.9843,27.2867)">
                <g transform="matrix(75,0,0,75,129.921,122.173)">
                    <path d="M0.015,-0L0.248,-0.356L0.017,-0.71L0.119,-0.71L0.304,-0.424L0.487,-0.71L0.587,-0.71L0.356,-0.358L0.591,-0L0.489,-0L0.302,-0.29L0.115,-0L0.015,-0Z" style="fill:rgb(230,230,230);fill-rule:nonzero;"/>
                </g>
            </g>
        </g>
        <g id="Z" transform="matrix(1,0,0,1,-31.8898,-46.063)">
            <g id="Global-background8" serif:id="Global background" transform="matrix(3.19882,0,0,2.88209,-351.23,-381.554)">
                <path d="M119.769,160.665C119.769,157.404 120.936,154.277 123.014,151.971C125.091,149.666 127.908,148.37 130.846,148.37L156.692,148.37C159.63,148.37 162.448,149.666 164.525,151.971C166.602,154.277 167.769,157.404 167.769,160.665L167.769,189.351C167.769,192.612 166.602,195.739 164.525,198.044C162.448,200.35 159.63,201.645 156.692,201.645L130.846,201.645C127.908,201.645 125.091,200.35 123.014,198.044C120.936,195.739 119.769,192.612 119.769,189.351L119.769,160.665Z" style="fill:rgb(230,230,230);"/>
            </g>
            <g id="Bottom-background8" serif:id="Bottom background" transform="matrix(3.19882,0,0,2.88209,-351.23,-381.554)">
                <path d="M156.614,151.649C158.769,151.649 160.835,152.599 162.358,154.289C163.882,155.98 164.737,158.273 164.737,160.665L164.737,189.351C164.737,191.742 163.882,194.035 162.358,195.726C160.835,197.417 158.769,198.367 156.614,198.367L130.895,198.367C128.741,198.367 126.675,197.417 125.151,195.726C123.628,194.035 122.772,191.742 122.772,189.351L122.772,160.665C122.772,158.273 123.628,155.98 125.151,154.289C126.675,152.599 128.741,151.649 130.895,151.649L156.614,151.649Z" style="fill:rgb(92,60,28);"/>
                <clipPath id="_clip7">
                    <path d="M156.614,151.649C158.769,151.649 160.835,152.599 162.358,154.289C163.882,155.98 164.737,158.273 164.737,160.665L164.737,189.351C164.737,191.742 163.882,194.035 162.358,195.726C160.835,197.417 158.769,198.367 156.614,198.367L130.895,198.367C128.741,198.367 126.675,197.417 125.151,195.726C123.628,194.035 122.772,191.742 122.772,189.351L122.772,160.665C122.772,158.273 123.628,155.98 125.151,154.289C126.675,152.599 128.741,151.649 130.895,151.649L156.614,151.649Z"/>
                </clipPath>
                <g clip-path="url(#_clip7)">
                    <g id="Space-26" serif:id="Space 2">
                    </g>
                </g>
            </g>
            <g id="Glyph6" serif:id="Glyph" transform="matrix(1,0,0,1,-43.9843,27.2867)">
                <g transform="matrix(75,0,0,75,132.246,122.173)">
                    <path d="M0.028,-0L0.028,-0.088L0.408,-0.626L0.041,-0.626L0.041,-0.71L0.506,-0.71L0.506,-0.622L0.126,-0.084L0.516,-0.084L0.516,-0L0.028,-0Z" style="fill:rgb(230,230,230);fill-rule:nonzero;"/>
                </g>
            </g>
        </g>
    </g>
</svg>
