<?xml version="1.0" encoding="UTF-8" standalone="no"?>
<!DOCTYPE svg PUBLIC "-//W3C//DTD SVG 1.1//EN" "http://www.w3.org/Graphics/SVG/1.1/DTD/svg11.dtd">
<svg width="100%" height="100%" viewBox="0 0 879 369" version="1.1" xmlns="http://www.w3.org/2000/svg" xmlns:xlink="http://www.w3.org/1999/xlink" xml:space="preserve" xmlns:serif="http://www.serif.com/" style="fill-rule:evenodd;clip-rule:evenodd;stroke-linecap:round;stroke-linejoin:round;">
    <g id="Mounting-holes" serif:id="Mounting holes">
        <g transform="matrix(0.463767,0,0,0.463767,-35.39,147.082)">
            <circle cx="105.505" cy="403.484" r="9.78" style="fill:none;stroke:black;stroke-width:0.65px;"/>
        </g>
        <g transform="matrix(0.463767,0,0,0.463767,420.195,150.535)">
            <circle cx="955.109" cy="396.284" r="9.78" style="fill:none;stroke:black;stroke-width:0.65px;"/>
        </g>
        <g transform="matrix(0.463767,0,0,0.463767,420.195,-0.0392305)">
            <circle cx="955.109" cy="115.484" r="9.78" style="fill:none;stroke:black;stroke-width:0.65px;"/>
        </g>
        <g transform="matrix(0.463767,0,0,0.463767,190.471,5.75208)">
            <circle cx="526.705" cy="126.284" r="9.78" style="fill:none;stroke:black;stroke-width:0.65px;"/>
        </g>
        <g transform="matrix(0.463767,0,0,0.463767,-35.39,17.3347)">
            <circle cx="105.505" cy="147.884" r="9.78" style="fill:none;stroke:black;stroke-width:0.65px;"/>
        </g>
    </g>
    <g id="Keys">
        <g id="Space-bar" serif:id="Space bar">
            <g transform="matrix(0.528168,0,0,1.0412,416.028,-20.468)">
                <rect x="325.153" y="316.681" width="17.711" height="38.659" style="fill:none;stroke:black;stroke-width:0.36px;stroke-miterlimit:1.5;"/>
            </g>
            <g transform="matrix(1,0,0,1,66.2641,1.4441)">
                <path d="M200.193,337.323L200.193,310.367L186.019,310.367L186.019,337.323L180.634,337.323L180.634,347.244L186.019,347.244L186.019,355.721L200.193,355.721L200.193,347.244L205.578,347.244L205.578,337.323L200.193,337.323Z" style="fill:none;stroke:black;stroke-width:0.3px;stroke-miterlimit:1.5;"/>
            </g>
            <g transform="matrix(1,0,0,1,422.863,1.4441)">
                <path d="M200.193,337.323L200.193,310.367L186.019,310.367L186.019,337.323L180.634,337.323L180.634,347.244L186.019,347.244L186.019,355.721L200.193,355.721L200.193,347.244L205.578,347.244L205.578,337.323L200.193,337.323Z" style="fill:none;stroke:black;stroke-width:0.3px;stroke-miterlimit:1.5;"/>
            </g>
            <g transform="matrix(0.528168,0,0,1.0412,107.052,-20.468)">
                <rect x="325.153" y="316.681" width="17.711" height="38.659" style="fill:none;stroke:black;stroke-width:0.36px;stroke-miterlimit:1.5;"/>
            </g>
            <g>
                <g transform="matrix(1.06058,0,0,1.06058,-124.051,-86.0699)">
                    <path d="M548.388,379.217L548.388,416.635L548.388,379.217Z" style="fill:none;fill-rule:nonzero;stroke:black;stroke-width:0.3px;"/>
                </g>
                <g transform="matrix(1.06058,0,0,1.06058,-124.051,-86.0699)">
                    <path d="M510.97,416.635L510.97,379.217L510.97,416.635Z" style="fill:none;fill-rule:nonzero;stroke:black;stroke-width:0.3px;"/>
                </g>
                <g transform="matrix(1.06058,0,0,1.06058,-124.051,-86.0699)">
                    <path d="M548.388,416.635L510.97,416.635L548.388,416.635Z" style="fill:none;fill-rule:nonzero;stroke:black;stroke-width:0.3px;"/>
                </g>
                <g transform="matrix(1.06058,0,0,1.06058,-124.051,-86.0699)">
                    <path d="M510.97,379.217L548.388,379.217L510.97,379.217Z" style="fill:none;fill-rule:nonzero;stroke:black;stroke-width:0.3px;"/>
                </g>
            </g>
        </g>
        <g id="Control">
            <g>
                <g transform="matrix(1.06058,0,0,1.06058,-102.405,-79.519)">
                    <path d="M153.634,271.073L191.052,271.073L153.634,271.073Z" style="fill:none;fill-rule:nonzero;stroke:black;stroke-width:0.3px;"/>
                </g>
                <g transform="matrix(1.06058,0,0,1.06058,-102.405,-79.519)">
                    <path d="M191.052,271.073L191.052,308.491L191.052,271.073Z" style="fill:none;fill-rule:nonzero;stroke:black;stroke-width:0.3px;"/>
                </g>
                <g transform="matrix(1.06058,0,0,1.06058,-102.405,-79.519)">
                    <path d="M191.052,308.491L153.634,308.491L191.052,308.491Z" style="fill:none;fill-rule:nonzero;stroke:black;stroke-width:0.3px;"/>
                </g>
                <g transform="matrix(1.06058,0,0,1.06058,-102.405,-79.519)">
                    <path d="M153.634,308.491L153.634,271.073L153.634,308.491Z" style="fill:none;fill-rule:nonzero;stroke:black;stroke-width:0.3px;"/>
                </g>
            </g>
            <g transform="matrix(1,0,0,1,70.2296,-53.8798)">
                <rect x="33.518" y="278.008" width="19.843" height="13.89" style="fill:none;stroke:black;stroke-width:0.3px;stroke-miterlimit:1.5;"/>
            </g>
            <g transform="matrix(1,0,0,1,3.89892,-53.8798)">
                <rect x="33.518" y="278.008" width="19.843" height="13.89" style="fill:none;stroke:black;stroke-width:0.3px;stroke-miterlimit:1.5;"/>
            </g>
        </g>
        <g id="Right-Shift" serif:id="Right Shift" transform="matrix(1,0,0,1,659.622,54.2306)">
            <g transform="matrix(1,0,0,1,70.2296,-53.8798)">
                <rect x="33.518" y="278.008" width="19.843" height="13.89" style="fill:none;stroke:black;stroke-width:0.3px;stroke-miterlimit:1.5;"/>
            </g>
            <g transform="matrix(1,0,0,1,-659.622,-54.2306)">
                <g transform="matrix(1.06058,0,0,1.06058,-142.377,-82.7989)">
                    <path d="M813.499,325.217L850.918,325.217L813.499,325.217Z" style="fill:none;fill-rule:nonzero;stroke:black;stroke-width:0.3px;"/>
                </g>
                <g transform="matrix(1.06058,0,0,1.06058,-142.377,-82.7989)">
                    <path d="M850.918,325.217L850.918,362.635L850.918,325.217Z" style="fill:none;fill-rule:nonzero;stroke:black;stroke-width:0.3px;"/>
                </g>
                <g transform="matrix(1.06058,0,0,1.06058,-142.377,-82.7989)">
                    <path d="M850.918,362.635L813.499,362.635L850.918,362.635Z" style="fill:none;fill-rule:nonzero;stroke:black;stroke-width:0.3px;"/>
                </g>
                <g transform="matrix(1.06058,0,0,1.06058,-142.377,-82.7989)">
                    <path d="M813.499,362.635L813.499,325.217L813.499,362.635Z" style="fill:none;fill-rule:nonzero;stroke:black;stroke-width:0.3px;"/>
                </g>
            </g>
            <g transform="matrix(1,0,0,1,3.89892,-53.8798)">
                <rect x="33.518" y="278.008" width="19.843" height="13.89" style="fill:none;stroke:black;stroke-width:0.3px;stroke-miterlimit:1.5;"/>
            </g>
        </g>
        <g id="Left-Shift" serif:id="Left Shift">
            <g>
                <g transform="matrix(1.06058,0,0,1.06058,-103.231,-82.7989)">
                    <path d="M167.27,362.635L167.27,325.217" style="fill:none;fill-rule:nonzero;stroke:black;stroke-width:0.3px;"/>
                </g>
                <g transform="matrix(1.06058,0,0,1.06058,-103.231,-82.7989)">
                    <path d="M204.689,362.635L167.27,362.635" style="fill:none;fill-rule:nonzero;stroke:black;stroke-width:0.3px;"/>
                </g>
                <g transform="matrix(1.06058,0,0,1.06058,-103.231,-82.7989)">
                    <path d="M204.689,325.217L204.689,362.635" style="fill:none;fill-rule:nonzero;stroke:black;stroke-width:0.3px;"/>
                </g>
                <g transform="matrix(1.06058,0,0,1.06058,-103.231,-82.7989)">
                    <path d="M167.27,325.217L204.689,325.217" style="fill:none;fill-rule:nonzero;stroke:black;stroke-width:0.3px;"/>
                </g>
            </g>
            <path d="M130.961,295.654L130.961,293.293L135.921,293.293L135.921,303.591L145.843,303.591L145.843,293.293L150.803,293.293L150.803,279.404L145.843,279.404L145.843,262.488L135.921,262.488L135.921,279.404L130.961,279.404L130.961,255.402L121.606,255.402L121.606,295.654L130.961,295.654Z" style="fill:none;stroke:black;stroke-width:0.3px;stroke-miterlimit:1.5;"/>
            <g transform="matrix(1,0,0,1,0,1)">
                <path d="M57.26,292.301L57.26,294.654L66.614,294.654L66.614,254.402L57.26,254.402L57.26,278.412L52.299,278.412L52.299,261.496L42.378,261.496L42.378,278.412L37.417,278.412L37.417,292.301L42.378,292.301L42.378,302.598L52.299,302.598L52.299,292.301L57.26,292.301Z" style="fill:none;stroke:black;stroke-width:0.3px;stroke-miterlimit:1.5;"/>
            </g>
        </g>
        <g>
            <g transform="matrix(0.267776,-0.267776,0.427105,0.427105,647.247,142.205)">
                <path d="M482.263,59.727C482.263,55.194 476.393,51.514 469.163,51.514L461.678,51.514C454.448,51.514 448.578,55.194 448.578,59.727C448.578,64.26 454.448,67.94 461.678,67.94L469.163,67.94C476.393,67.94 482.263,64.26 482.263,59.727Z" style="fill:none;stroke:black;stroke-width:0.6px;stroke-miterlimit:1.5;"/>
            </g>
            <g transform="matrix(1.06058,0,0,1.06058,-147.799,-67.5648)">
                <path d="M940.421,73.728L940.421,111.146L903.002,111.146L903.002,73.728L940.421,73.728Z" style="fill:none;fill-rule:nonzero;stroke:black;stroke-width:0.28px;"/>
            </g>
        </g>
        <g>
            <g transform="matrix(0.267776,-0.267776,0.427105,0.427105,566.46,142.205)">
                <path d="M482.263,59.727C482.263,55.194 476.393,51.514 469.163,51.514L461.678,51.514C454.448,51.514 448.578,55.194 448.578,59.727C448.578,64.26 454.448,67.94 461.678,67.94L469.163,67.94C476.393,67.94 482.263,64.26 482.263,59.727Z" style="fill:none;stroke:black;stroke-width:0.6px;stroke-miterlimit:1.5;"/>
            </g>
            <g transform="matrix(1.06058,0,0,1.06058,-142.905,-67.5648)">
                <path d="M859.63,73.728L859.63,111.146L822.211,111.146L822.211,73.728L859.63,73.728Z" style="fill:none;fill-rule:nonzero;stroke:black;stroke-width:0.28px;"/>
            </g>
        </g>
        <g>
            <g transform="matrix(0.267776,-0.267776,0.427105,0.427105,485.673,142.205)">
                <path d="M482.263,59.727C482.263,55.194 476.393,51.514 469.163,51.514L461.678,51.514C454.448,51.514 448.578,55.194 448.578,59.727C448.578,64.26 454.448,67.94 461.678,67.94L469.163,67.94C476.393,67.94 482.263,64.26 482.263,59.727Z" style="fill:none;stroke:black;stroke-width:0.6px;stroke-miterlimit:1.5;"/>
            </g>
            <g transform="matrix(1.06058,0,0,1.06058,-138.011,-67.5648)">
                <path d="M778.846,73.728L778.846,111.146L741.427,111.146L741.427,73.728L778.846,73.728Z" style="fill:none;fill-rule:nonzero;stroke:black;stroke-width:0.28px;"/>
            </g>
        </g>
        <g>
            <g transform="matrix(1.06058,0,0,1.06058,-133.117,-67.5648)">
                <path d="M698.054,73.728L698.054,111.146L660.636,111.146L660.636,73.728L698.054,73.728Z" style="fill:none;fill-rule:nonzero;stroke:black;stroke-width:0.28px;"/>
            </g>
            <g transform="matrix(0.267776,-0.267776,0.427105,0.427105,404.885,142.205)">
                <path d="M482.263,59.727C482.263,55.194 476.393,51.514 469.163,51.514L461.678,51.514C454.448,51.514 448.578,55.194 448.578,59.727C448.578,64.26 454.448,67.94 461.678,67.94L469.163,67.94C476.393,67.94 482.263,64.26 482.263,59.727Z" style="fill:none;stroke:black;stroke-width:0.6px;stroke-miterlimit:1.5;"/>
            </g>
        </g>
        <g>
            <g transform="matrix(1.06058,0,0,1.06058,-128.224,-67.5648)">
                <path d="M617.27,73.728L617.27,111.146L579.852,111.146L579.852,73.728L617.27,73.728Z" style="fill:none;fill-rule:nonzero;stroke:black;stroke-width:0.28px;"/>
            </g>
            <g transform="matrix(0.267776,-0.267776,0.427105,0.427105,324.098,142.205)">
                <path d="M482.263,59.727C482.263,55.194 476.393,51.514 469.163,51.514L461.678,51.514C454.448,51.514 448.578,55.194 448.578,59.727C448.578,64.26 454.448,67.94 461.678,67.94L469.163,67.94C476.393,67.94 482.263,64.26 482.263,59.727Z" style="fill:none;stroke:black;stroke-width:0.6px;stroke-miterlimit:1.5;"/>
            </g>
        </g>
        <g>
            <g transform="matrix(1.06058,0,0,1.06058,-108.528,-82.7989)">
                <path d="M254.714,362.635L254.714,325.217L254.714,362.635Z" style="fill:none;fill-rule:nonzero;stroke:black;stroke-width:0.3px;"/>
            </g>
            <g transform="matrix(1.06058,0,0,1.06058,-108.528,-82.7989)">
                <path d="M292.133,362.635L254.714,362.635L292.133,362.635Z" style="fill:none;fill-rule:nonzero;stroke:black;stroke-width:0.3px;"/>
            </g>
            <g transform="matrix(1.06058,0,0,1.06058,-108.528,-82.7989)">
                <path d="M292.133,325.217L292.133,362.635L292.133,325.217Z" style="fill:none;fill-rule:nonzero;stroke:black;stroke-width:0.3px;"/>
            </g>
            <g transform="matrix(1.06058,0,0,1.06058,-108.528,-82.7989)">
                <path d="M254.714,325.217L292.133,325.217L254.714,325.217Z" style="fill:none;fill-rule:nonzero;stroke:black;stroke-width:0.3px;"/>
            </g>
        </g>
        <g>
            <g transform="matrix(1.06058,0,0,1.06058,-122.396,-76.2445)">
                <path d="M483.646,254.434L483.646,217.015L483.646,254.434Z" style="fill:none;fill-rule:nonzero;stroke:black;stroke-width:0.3px;"/>
            </g>
            <g transform="matrix(1.06058,0,0,1.06058,-122.396,-76.2445)">
                <path d="M521.064,254.434L483.646,254.434L521.064,254.434Z" style="fill:none;fill-rule:nonzero;stroke:black;stroke-width:0.3px;"/>
            </g>
            <g transform="matrix(1.06058,0,0,1.06058,-122.396,-76.2445)">
                <path d="M521.064,217.015L521.064,254.434L521.064,217.015Z" style="fill:none;fill-rule:nonzero;stroke:black;stroke-width:0.3px;"/>
            </g>
            <g transform="matrix(1.06058,0,0,1.06058,-122.396,-76.2445)">
                <path d="M483.646,217.015L521.064,217.015L483.646,217.015Z" style="fill:none;fill-rule:nonzero;stroke:black;stroke-width:0.3px;"/>
            </g>
        </g>
        <g>
            <g transform="matrix(1.06058,0,0,1.06058,-111.791,-82.7989)">
                <path d="M308.578,362.635L308.578,325.217L308.578,362.635Z" style="fill:none;fill-rule:nonzero;stroke:black;stroke-width:0.3px;"/>
            </g>
            <g transform="matrix(1.06058,0,0,1.06058,-111.791,-82.7989)">
                <path d="M345.996,362.635L308.578,362.635L345.996,362.635Z" style="fill:none;fill-rule:nonzero;stroke:black;stroke-width:0.3px;"/>
            </g>
            <g transform="matrix(1.06058,0,0,1.06058,-111.791,-82.7989)">
                <path d="M345.996,325.217L345.996,362.635L345.996,325.217Z" style="fill:none;fill-rule:nonzero;stroke:black;stroke-width:0.3px;"/>
            </g>
            <g transform="matrix(1.06058,0,0,1.06058,-111.791,-82.7989)">
                <path d="M308.578,325.217L345.996,325.217L308.578,325.217Z" style="fill:none;fill-rule:nonzero;stroke:black;stroke-width:0.3px;"/>
            </g>
        </g>
        <g>
            <g transform="matrix(1.06058,0,0,1.06058,-109.345,-76.2445)">
                <path d="M268.207,254.434L268.207,217.015L268.207,254.434Z" style="fill:none;fill-rule:nonzero;stroke:black;stroke-width:0.3px;"/>
            </g>
            <g transform="matrix(1.06058,0,0,1.06058,-109.345,-76.2445)">
                <path d="M305.626,254.434L268.207,254.434L305.626,254.434Z" style="fill:none;fill-rule:nonzero;stroke:black;stroke-width:0.3px;"/>
            </g>
            <g transform="matrix(1.06058,0,0,1.06058,-109.345,-76.2445)">
                <path d="M305.626,217.015L305.626,254.434L305.626,217.015Z" style="fill:none;fill-rule:nonzero;stroke:black;stroke-width:0.3px;"/>
            </g>
            <g transform="matrix(1.06058,0,0,1.06058,-109.345,-76.2445)">
                <path d="M268.207,217.015L305.626,217.015L268.207,217.015Z" style="fill:none;fill-rule:nonzero;stroke:black;stroke-width:0.3px;"/>
            </g>
        </g>
        <g>
            <g transform="matrix(1.06058,0,0,1.06058,-118.316,-82.7989)">
                <path d="M416.29,362.635L416.29,325.217L416.29,362.635Z" style="fill:none;fill-rule:nonzero;stroke:black;stroke-width:0.3px;"/>
            </g>
            <g transform="matrix(1.06058,0,0,1.06058,-118.316,-82.7989)">
                <path d="M453.708,362.635L416.29,362.635L453.708,362.635Z" style="fill:none;fill-rule:nonzero;stroke:black;stroke-width:0.3px;"/>
            </g>
            <g transform="matrix(1.06058,0,0,1.06058,-118.316,-82.7989)">
                <path d="M453.708,325.217L453.708,362.635L453.708,325.217Z" style="fill:none;fill-rule:nonzero;stroke:black;stroke-width:0.3px;"/>
            </g>
            <g transform="matrix(1.06058,0,0,1.06058,-118.316,-82.7989)">
                <path d="M416.29,325.217L453.708,325.217L416.29,325.217Z" style="fill:none;fill-rule:nonzero;stroke:black;stroke-width:0.3px;"/>
            </g>
        </g>
        <g>
            <g transform="matrix(1.06058,0,0,1.06058,-125.658,-76.2445)">
                <path d="M537.502,254.434L537.502,217.015L537.502,254.434Z" style="fill:none;fill-rule:nonzero;stroke:black;stroke-width:0.3px;"/>
            </g>
            <g transform="matrix(1.06058,0,0,1.06058,-125.658,-76.2445)">
                <path d="M574.92,254.434L537.502,254.434L574.92,254.434Z" style="fill:none;fill-rule:nonzero;stroke:black;stroke-width:0.3px;"/>
            </g>
            <g transform="matrix(1.06058,0,0,1.06058,-125.658,-76.2445)">
                <path d="M574.92,217.015L574.92,254.434L574.92,217.015Z" style="fill:none;fill-rule:nonzero;stroke:black;stroke-width:0.3px;"/>
            </g>
            <g transform="matrix(1.06058,0,0,1.06058,-125.658,-76.2445)">
                <path d="M537.502,217.015L574.92,217.015L537.502,217.015Z" style="fill:none;fill-rule:nonzero;stroke:black;stroke-width:0.3px;"/>
            </g>
        </g>
        <g>
            <g transform="matrix(1.06058,0,0,1.06058,-102.013,-76.2445)">
                <path d="M147.168,217.015L184.586,217.015L147.168,217.015Z" style="fill:none;fill-rule:nonzero;stroke:black;stroke-width:0.3px;"/>
            </g>
            <g transform="matrix(1.06058,0,0,1.06058,-102.013,-76.2445)">
                <path d="M184.586,217.015L184.586,254.434L184.586,217.015Z" style="fill:none;fill-rule:nonzero;stroke:black;stroke-width:0.3px;"/>
            </g>
            <g transform="matrix(1.06058,0,0,1.06058,-102.013,-76.2445)">
                <path d="M184.586,254.434L147.168,254.434L184.586,254.434Z" style="fill:none;fill-rule:nonzero;stroke:black;stroke-width:0.3px;"/>
            </g>
            <g transform="matrix(1.06058,0,0,1.06058,-102.013,-76.2445)">
                <path d="M147.168,254.434L147.168,217.015L147.168,254.434Z" style="fill:none;fill-rule:nonzero;stroke:black;stroke-width:0.3px;"/>
            </g>
        </g>
        <g>
            <g transform="matrix(1.06058,0,0,1.06058,-119.133,-76.2445)">
                <path d="M429.782,254.434L429.782,217.015L429.782,254.434Z" style="fill:none;fill-rule:nonzero;stroke:black;stroke-width:0.3px;"/>
            </g>
            <g transform="matrix(1.06058,0,0,1.06058,-119.133,-76.2445)">
                <path d="M467.201,254.434L429.782,254.434L467.201,254.434Z" style="fill:none;fill-rule:nonzero;stroke:black;stroke-width:0.3px;"/>
            </g>
            <g transform="matrix(1.06058,0,0,1.06058,-119.133,-76.2445)">
                <path d="M467.201,217.015L467.201,254.434L467.201,217.015Z" style="fill:none;fill-rule:nonzero;stroke:black;stroke-width:0.3px;"/>
            </g>
            <g transform="matrix(1.06058,0,0,1.06058,-119.133,-76.2445)">
                <path d="M429.782,217.015L467.201,217.015L429.782,217.015Z" style="fill:none;fill-rule:nonzero;stroke:black;stroke-width:0.3px;"/>
            </g>
        </g>
        <g>
            <g transform="matrix(1.06078,0,0,1.06078,-142.963,-79.5782)">
                <path d="M820.346,308.491L820.346,271.073L820.346,308.491Z" style="fill:none;fill-rule:nonzero;stroke:black;stroke-width:0.3px;"/>
            </g>
            <g transform="matrix(1.06078,0,0,1.06078,-142.963,-79.5782)">
                <path d="M857.758,308.491L820.346,308.491L857.758,308.491Z" style="fill:none;fill-rule:nonzero;stroke:black;stroke-width:0.3px;"/>
            </g>
            <g transform="matrix(1.06078,0,0,1.06078,-142.963,-79.5782)">
                <path d="M857.758,271.073L857.758,308.491L857.758,271.073Z" style="fill:none;fill-rule:nonzero;stroke:black;stroke-width:0.3px;"/>
            </g>
            <g transform="matrix(1.06078,0,0,1.06078,-142.963,-79.5782)">
                <path d="M820.346,271.073L857.758,271.073L820.346,271.073Z" style="fill:none;fill-rule:nonzero;stroke:black;stroke-width:0.3px;"/>
            </g>
        </g>
        <g>
            <g transform="matrix(1.06058,0,0,1.06058,-137.891,-82.7989)">
                <path d="M739.44,362.635L739.44,325.217L739.44,362.635Z" style="fill:none;fill-rule:nonzero;stroke:black;stroke-width:0.3px;"/>
            </g>
            <g transform="matrix(1.06058,0,0,1.06058,-137.891,-82.7989)">
                <path d="M776.858,362.635L739.44,362.635L776.858,362.635Z" style="fill:none;fill-rule:nonzero;stroke:black;stroke-width:0.3px;"/>
            </g>
            <g transform="matrix(1.06058,0,0,1.06058,-137.891,-82.7989)">
                <path d="M776.858,325.217L776.858,362.635L776.858,325.217Z" style="fill:none;fill-rule:nonzero;stroke:black;stroke-width:0.3px;"/>
            </g>
            <g transform="matrix(1.06058,0,0,1.06058,-137.891,-82.7989)">
                <path d="M739.44,325.217L776.858,325.217L739.44,325.217Z" style="fill:none;fill-rule:nonzero;stroke:black;stroke-width:0.3px;"/>
            </g>
        </g>
        <g>
            <g transform="matrix(1.06058,0,0,1.06058,-136.266,-79.519)">
                <path d="M712.627,308.491L712.627,271.073L712.627,308.491Z" style="fill:none;fill-rule:nonzero;stroke:black;stroke-width:0.3px;"/>
            </g>
            <g transform="matrix(1.06058,0,0,1.06058,-136.266,-79.519)">
                <path d="M750.046,308.491L712.627,308.491L750.046,308.491Z" style="fill:none;fill-rule:nonzero;stroke:black;stroke-width:0.3px;"/>
            </g>
            <g transform="matrix(1.06058,0,0,1.06058,-136.266,-79.519)">
                <path d="M750.046,271.073L750.046,308.491L750.046,271.073Z" style="fill:none;fill-rule:nonzero;stroke:black;stroke-width:0.3px;"/>
            </g>
            <g transform="matrix(1.06058,0,0,1.06058,-136.266,-79.519)">
                <path d="M712.627,271.073L750.046,271.073L712.627,271.073Z" style="fill:none;fill-rule:nonzero;stroke:black;stroke-width:0.3px;"/>
            </g>
        </g>
        <g>
            <g transform="matrix(1.06058,0,0,1.06058,-110.166,-79.519)">
                <path d="M281.758,308.491L281.758,271.073L281.758,308.491Z" style="fill:none;fill-rule:nonzero;stroke:black;stroke-width:0.3px;"/>
            </g>
            <g transform="matrix(1.06058,0,0,1.06058,-110.166,-79.519)">
                <path d="M319.176,308.491L281.758,308.491L319.176,308.491Z" style="fill:none;fill-rule:nonzero;stroke:black;stroke-width:0.3px;"/>
            </g>
            <g transform="matrix(1.06058,0,0,1.06058,-110.166,-79.519)">
                <path d="M319.176,271.073L319.176,308.491L319.176,271.073Z" style="fill:none;fill-rule:nonzero;stroke:black;stroke-width:0.3px;"/>
            </g>
            <g transform="matrix(1.06058,0,0,1.06058,-110.166,-79.519)">
                <path d="M281.758,271.073L319.176,271.073L281.758,271.073Z" style="fill:none;fill-rule:nonzero;stroke:black;stroke-width:0.3px;"/>
            </g>
        </g>
        <g>
            <g transform="matrix(1.06058,0,0,1.06058,-146.057,-76.2445)">
                <path d="M874.26,217.015L911.678,217.015L874.26,217.015Z" style="fill:none;fill-rule:nonzero;stroke:black;stroke-width:0.3px;"/>
            </g>
            <g transform="matrix(1.06058,0,0,1.06058,-146.057,-76.2445)">
                <path d="M911.678,217.015L911.678,254.434L911.678,217.015Z" style="fill:none;fill-rule:nonzero;stroke:black;stroke-width:0.3px;"/>
            </g>
            <g transform="matrix(1.06058,0,0,1.06058,-146.057,-76.2445)">
                <path d="M911.678,254.434L874.26,254.434L911.678,254.434Z" style="fill:none;fill-rule:nonzero;stroke:black;stroke-width:0.3px;"/>
            </g>
            <g transform="matrix(1.06058,0,0,1.06058,-146.057,-76.2445)">
                <path d="M874.26,254.434L874.26,217.015L874.26,254.434Z" style="fill:none;fill-rule:nonzero;stroke:black;stroke-width:0.3px;"/>
            </g>
        </g>
        <g>
            <g transform="matrix(1.06058,0,0,1.06058,-115.871,-76.2445)">
                <path d="M375.926,254.434L375.926,217.015L375.926,254.434Z" style="fill:none;fill-rule:nonzero;stroke:black;stroke-width:0.3px;"/>
            </g>
            <g transform="matrix(1.06058,0,0,1.06058,-115.871,-76.2445)">
                <path d="M413.345,254.434L375.926,254.434L413.345,254.434Z" style="fill:none;fill-rule:nonzero;stroke:black;stroke-width:0.3px;"/>
            </g>
            <g transform="matrix(1.06058,0,0,1.06058,-115.871,-76.2445)">
                <path d="M413.345,217.015L413.345,254.434L413.345,217.015Z" style="fill:none;fill-rule:nonzero;stroke:black;stroke-width:0.3px;"/>
            </g>
            <g transform="matrix(1.06058,0,0,1.06058,-115.871,-76.2445)">
                <path d="M375.926,217.015L413.345,217.015L375.926,217.015Z" style="fill:none;fill-rule:nonzero;stroke:black;stroke-width:0.3px;"/>
            </g>
        </g>
        <g>
            <g transform="matrix(1.06058,0,0,1.06058,-106.083,-76.2445)">
                <path d="M214.351,254.434L214.351,217.015L214.351,254.434Z" style="fill:none;fill-rule:nonzero;stroke:black;stroke-width:0.3px;"/>
            </g>
            <g transform="matrix(1.06058,0,0,1.06058,-106.083,-76.2445)">
                <path d="M251.77,254.434L214.351,254.434L251.77,254.434Z" style="fill:none;fill-rule:nonzero;stroke:black;stroke-width:0.3px;"/>
            </g>
            <g transform="matrix(1.06058,0,0,1.06058,-106.083,-76.2445)">
                <path d="M251.77,217.015L251.77,254.434L251.77,217.015Z" style="fill:none;fill-rule:nonzero;stroke:black;stroke-width:0.3px;"/>
            </g>
            <g transform="matrix(1.06058,0,0,1.06058,-106.083,-76.2445)">
                <path d="M214.351,217.015L251.77,217.015L214.351,217.015Z" style="fill:none;fill-rule:nonzero;stroke:black;stroke-width:0.3px;"/>
            </g>
        </g>
        <g>
            <g transform="matrix(1.06058,0,0,1.06058,-139.529,-79.519)">
                <path d="M766.483,308.491L766.483,271.073L766.483,308.491Z" style="fill:none;fill-rule:nonzero;stroke:black;stroke-width:0.3px;"/>
            </g>
            <g transform="matrix(1.06058,0,0,1.06058,-139.529,-79.519)">
                <path d="M803.902,308.491L766.483,308.491L803.902,308.491Z" style="fill:none;fill-rule:nonzero;stroke:black;stroke-width:0.3px;"/>
            </g>
            <g transform="matrix(1.06058,0,0,1.06058,-139.529,-79.519)">
                <path d="M803.902,271.073L803.902,308.491L803.902,271.073Z" style="fill:none;fill-rule:nonzero;stroke:black;stroke-width:0.3px;"/>
            </g>
            <g transform="matrix(1.06058,0,0,1.06058,-139.529,-79.519)">
                <path d="M766.483,271.073L803.902,271.073L766.483,271.073Z" style="fill:none;fill-rule:nonzero;stroke:black;stroke-width:0.3px;"/>
            </g>
        </g>
        <g>
            <g transform="matrix(1.06058,0,0,1.06058,-134.628,-82.7989)">
                <path d="M685.584,362.635L685.584,325.217L685.584,362.635Z" style="fill:none;fill-rule:nonzero;stroke:black;stroke-width:0.3px;"/>
            </g>
            <g transform="matrix(1.06058,0,0,1.06058,-134.628,-82.7989)">
                <path d="M723.002,362.635L685.584,362.635L723.002,362.635Z" style="fill:none;fill-rule:nonzero;stroke:black;stroke-width:0.3px;"/>
            </g>
            <g transform="matrix(1.06058,0,0,1.06058,-134.628,-82.7989)">
                <path d="M723.002,325.217L723.002,362.635L723.002,325.217Z" style="fill:none;fill-rule:nonzero;stroke:black;stroke-width:0.3px;"/>
            </g>
            <g transform="matrix(1.06058,0,0,1.06058,-134.628,-82.7989)">
                <path d="M685.584,325.217L723.002,325.217L685.584,325.217Z" style="fill:none;fill-rule:nonzero;stroke:black;stroke-width:0.3px;"/>
            </g>
        </g>
        <g>
            <g transform="matrix(1.06058,0,0,1.06058,-135.446,-76.2445)">
                <path d="M699.077,254.434L699.077,217.015L699.077,254.434Z" style="fill:none;fill-rule:nonzero;stroke:black;stroke-width:0.3px;"/>
            </g>
            <g transform="matrix(1.06058,0,0,1.06058,-135.446,-76.2445)">
                <path d="M736.495,254.434L699.077,254.434L736.495,254.434Z" style="fill:none;fill-rule:nonzero;stroke:black;stroke-width:0.3px;"/>
            </g>
            <g transform="matrix(1.06058,0,0,1.06058,-135.446,-76.2445)">
                <path d="M736.495,217.015L736.495,254.434L736.495,217.015Z" style="fill:none;fill-rule:nonzero;stroke:black;stroke-width:0.3px;"/>
            </g>
            <g transform="matrix(1.06058,0,0,1.06058,-135.446,-76.2445)">
                <path d="M699.077,217.015L736.495,217.015L699.077,217.015Z" style="fill:none;fill-rule:nonzero;stroke:black;stroke-width:0.3px;"/>
            </g>
        </g>
        <g>
            <g transform="matrix(1.06058,0,0,1.06058,-132.183,-76.2445)">
                <path d="M645.221,254.434L645.221,217.015L645.221,254.434Z" style="fill:none;fill-rule:nonzero;stroke:black;stroke-width:0.3px;"/>
            </g>
            <g transform="matrix(1.06058,0,0,1.06058,-132.183,-76.2445)">
                <path d="M682.639,254.434L645.221,254.434L682.639,254.434Z" style="fill:none;fill-rule:nonzero;stroke:black;stroke-width:0.3px;"/>
            </g>
            <g transform="matrix(1.06058,0,0,1.06058,-132.183,-76.2445)">
                <path d="M682.639,217.015L682.639,254.434L682.639,217.015Z" style="fill:none;fill-rule:nonzero;stroke:black;stroke-width:0.3px;"/>
            </g>
            <g transform="matrix(1.06058,0,0,1.06058,-132.183,-76.2445)">
                <path d="M645.221,217.015L682.639,217.015L645.221,217.015Z" style="fill:none;fill-rule:nonzero;stroke:black;stroke-width:0.3px;"/>
            </g>
        </g>
        <g>
            <g transform="matrix(1.06058,0,0,1.06058,-124.841,-82.7989)">
                <path d="M524.009,362.635L524.009,325.217L524.009,362.635Z" style="fill:none;fill-rule:nonzero;stroke:black;stroke-width:0.3px;"/>
            </g>
            <g transform="matrix(1.06058,0,0,1.06058,-124.841,-82.7989)">
                <path d="M561.427,362.635L524.009,362.635L561.427,362.635Z" style="fill:none;fill-rule:nonzero;stroke:black;stroke-width:0.3px;"/>
            </g>
            <g transform="matrix(1.06058,0,0,1.06058,-124.841,-82.7989)">
                <path d="M561.427,325.217L561.427,362.635L561.427,325.217Z" style="fill:none;fill-rule:nonzero;stroke:black;stroke-width:0.3px;"/>
            </g>
            <g transform="matrix(1.06058,0,0,1.06058,-124.841,-82.7989)">
                <path d="M524.009,325.217L561.427,325.217L524.009,325.217Z" style="fill:none;fill-rule:nonzero;stroke:black;stroke-width:0.3px;"/>
            </g>
        </g>
        <g>
            <g transform="matrix(1.06058,0,0,1.06058,-128.103,-82.7989)">
                <path d="M577.865,362.635L577.865,325.217L577.865,362.635Z" style="fill:none;fill-rule:nonzero;stroke:black;stroke-width:0.3px;"/>
            </g>
            <g transform="matrix(1.06058,0,0,1.06058,-128.103,-82.7989)">
                <path d="M615.283,362.635L577.865,362.635L615.283,362.635Z" style="fill:none;fill-rule:nonzero;stroke:black;stroke-width:0.3px;"/>
            </g>
            <g transform="matrix(1.06058,0,0,1.06058,-128.103,-82.7989)">
                <path d="M615.283,325.217L615.283,362.635L615.283,325.217Z" style="fill:none;fill-rule:nonzero;stroke:black;stroke-width:0.3px;"/>
            </g>
            <g transform="matrix(1.06058,0,0,1.06058,-128.103,-82.7989)">
                <path d="M577.865,325.217L615.283,325.217L577.865,325.217Z" style="fill:none;fill-rule:nonzero;stroke:black;stroke-width:0.3px;"/>
            </g>
        </g>
        <g>
            <g transform="matrix(1.06058,0,0,1.06058,-137.084,-72.9649)">
                <path d="M726.12,200.29L726.12,162.878L726.12,200.29Z" style="fill:none;fill-rule:nonzero;stroke:black;stroke-width:0.3px;"/>
            </g>
            <g transform="matrix(1.06058,0,0,1.06058,-137.084,-72.9649)">
                <path d="M763.538,200.29L726.12,200.29L763.538,200.29Z" style="fill:none;fill-rule:nonzero;stroke:black;stroke-width:0.3px;"/>
            </g>
            <g transform="matrix(1.06058,0,0,1.06058,-137.084,-72.9649)">
                <path d="M763.538,162.878L763.538,200.29L763.538,162.878Z" style="fill:none;fill-rule:nonzero;stroke:black;stroke-width:0.3px;"/>
            </g>
            <g transform="matrix(1.06058,0,0,1.06058,-137.084,-72.9649)">
                <path d="M726.12,162.878L763.538,162.878L726.12,162.878Z" style="fill:none;fill-rule:nonzero;stroke:black;stroke-width:0.3px;"/>
            </g>
        </g>
        <g>
            <g transform="matrix(1.06078,0,0,1.06078,-133.142,-79.5782)">
                <path d="M658.771,308.491L658.771,271.073L658.771,308.491Z" style="fill:none;fill-rule:nonzero;stroke:black;stroke-width:0.3px;"/>
            </g>
            <g transform="matrix(1.06078,0,0,1.06078,-133.142,-79.5782)">
                <path d="M696.182,308.491L658.771,308.491L696.182,308.491Z" style="fill:none;fill-rule:nonzero;stroke:black;stroke-width:0.3px;"/>
            </g>
            <g transform="matrix(1.06078,0,0,1.06078,-133.142,-79.5782)">
                <path d="M696.182,271.073L696.182,308.491L696.182,271.073Z" style="fill:none;fill-rule:nonzero;stroke:black;stroke-width:0.3px;"/>
            </g>
            <g transform="matrix(1.06078,0,0,1.06078,-133.142,-79.5782)">
                <path d="M658.771,271.073L696.182,271.073L658.771,271.073Z" style="fill:none;fill-rule:nonzero;stroke:black;stroke-width:0.3px;"/>
            </g>
        </g>
        <g>
            <g transform="matrix(1.06058,0,0,1.06058,-129.741,-79.519)">
                <path d="M604.908,308.491L604.908,271.073L604.908,308.491Z" style="fill:none;fill-rule:nonzero;stroke:black;stroke-width:0.3px;"/>
            </g>
            <g transform="matrix(1.06058,0,0,1.06058,-129.741,-79.519)">
                <path d="M642.326,308.491L604.908,308.491L642.326,308.491Z" style="fill:none;fill-rule:nonzero;stroke:black;stroke-width:0.3px;"/>
            </g>
            <g transform="matrix(1.06058,0,0,1.06058,-129.741,-79.519)">
                <path d="M642.326,271.073L642.326,308.491L642.326,271.073Z" style="fill:none;fill-rule:nonzero;stroke:black;stroke-width:0.3px;"/>
            </g>
            <g transform="matrix(1.06058,0,0,1.06058,-129.741,-79.519)">
                <path d="M604.908,271.073L642.326,271.073L604.908,271.073Z" style="fill:none;fill-rule:nonzero;stroke:black;stroke-width:0.3px;"/>
            </g>
        </g>
        <g>
            <g transform="matrix(1.06058,0,0,1.06058,-126.479,-79.519)">
                <path d="M551.052,308.491L551.052,271.073L551.052,308.491Z" style="fill:none;fill-rule:nonzero;stroke:black;stroke-width:0.3px;"/>
            </g>
            <g transform="matrix(1.06058,0,0,1.06058,-126.479,-79.519)">
                <path d="M588.47,308.491L551.052,308.491L588.47,308.491Z" style="fill:none;fill-rule:nonzero;stroke:black;stroke-width:0.3px;"/>
            </g>
            <g transform="matrix(1.06058,0,0,1.06058,-126.479,-79.519)">
                <path d="M588.47,271.073L588.47,308.491L588.47,271.073Z" style="fill:none;fill-rule:nonzero;stroke:black;stroke-width:0.3px;"/>
            </g>
            <g transform="matrix(1.06058,0,0,1.06058,-126.479,-79.519)">
                <path d="M551.052,271.073L588.47,271.073L551.052,271.073Z" style="fill:none;fill-rule:nonzero;stroke:black;stroke-width:0.3px;"/>
            </g>
        </g>
        <g>
            <g transform="matrix(1.06058,0,0,1.06058,-146.871,-82.7989)">
                <path d="M887.695,362.635L887.695,325.217L887.695,362.635Z" style="fill:none;fill-rule:nonzero;stroke:black;stroke-width:0.3px;"/>
            </g>
            <g transform="matrix(1.06058,0,0,1.06058,-146.871,-82.7989)">
                <path d="M925.114,362.635L887.695,362.635L925.114,362.635Z" style="fill:none;fill-rule:nonzero;stroke:black;stroke-width:0.3px;"/>
            </g>
            <g transform="matrix(1.06058,0,0,1.06058,-146.871,-82.7989)">
                <path d="M925.114,325.217L925.114,362.635L925.114,325.217Z" style="fill:none;fill-rule:nonzero;stroke:black;stroke-width:0.3px;"/>
            </g>
            <g transform="matrix(1.06058,0,0,1.06058,-146.871,-82.7989)">
                <path d="M887.695,325.217L925.114,325.217L887.695,325.217Z" style="fill:none;fill-rule:nonzero;stroke:black;stroke-width:0.3px;"/>
            </g>
        </g>
        <g>
            <g transform="matrix(1.06058,0,0,1.06058,-128.92,-76.2445)">
                <path d="M591.358,254.434L591.358,217.015L591.358,254.434Z" style="fill:none;fill-rule:nonzero;stroke:black;stroke-width:0.3px;"/>
            </g>
            <g transform="matrix(1.06058,0,0,1.06058,-128.92,-76.2445)">
                <path d="M628.776,254.434L591.358,254.434L628.776,254.434Z" style="fill:none;fill-rule:nonzero;stroke:black;stroke-width:0.3px;"/>
            </g>
            <g transform="matrix(1.06058,0,0,1.06058,-128.92,-76.2445)">
                <path d="M628.776,217.015L628.776,254.434L628.776,217.015Z" style="fill:none;fill-rule:nonzero;stroke:black;stroke-width:0.3px;"/>
            </g>
            <g transform="matrix(1.06058,0,0,1.06058,-128.92,-76.2445)">
                <path d="M591.358,217.015L628.776,217.015L591.358,217.015Z" style="fill:none;fill-rule:nonzero;stroke:black;stroke-width:0.3px;"/>
            </g>
        </g>
        <g>
            <g transform="matrix(1.06078,0,0,1.06078,-123.322,-79.5782)">
                <path d="M497.196,308.491L497.196,271.073L497.196,308.491Z" style="fill:none;fill-rule:nonzero;stroke:black;stroke-width:0.3px;"/>
            </g>
            <g transform="matrix(1.06078,0,0,1.06078,-123.322,-79.5782)">
                <path d="M534.607,308.491L497.196,308.491L534.607,308.491Z" style="fill:none;fill-rule:nonzero;stroke:black;stroke-width:0.3px;"/>
            </g>
            <g transform="matrix(1.06078,0,0,1.06078,-123.322,-79.5782)">
                <path d="M534.607,271.073L534.607,308.491L534.607,271.073Z" style="fill:none;fill-rule:nonzero;stroke:black;stroke-width:0.3px;"/>
            </g>
            <g transform="matrix(1.06078,0,0,1.06078,-123.322,-79.5782)">
                <path d="M497.196,271.073L534.607,271.073L497.196,271.073Z" style="fill:none;fill-rule:nonzero;stroke:black;stroke-width:0.3px;"/>
            </g>
        </g>
        <g>
            <g transform="matrix(1.06058,0,0,1.06058,-140.346,-72.9649)">
                <path d="M779.976,200.29L779.976,162.878L779.976,200.29Z" style="fill:none;fill-rule:nonzero;stroke:black;stroke-width:0.3px;"/>
            </g>
            <g transform="matrix(1.06058,0,0,1.06058,-140.346,-72.9649)">
                <path d="M817.394,200.29L779.976,200.29L817.394,200.29Z" style="fill:none;fill-rule:nonzero;stroke:black;stroke-width:0.3px;"/>
            </g>
            <g transform="matrix(1.06058,0,0,1.06058,-140.346,-72.9649)">
                <path d="M817.394,162.878L817.394,200.29L817.394,162.878Z" style="fill:none;fill-rule:nonzero;stroke:black;stroke-width:0.3px;"/>
            </g>
            <g transform="matrix(1.06058,0,0,1.06058,-140.346,-72.9649)">
                <path d="M779.976,162.878L817.394,162.878L779.976,162.878Z" style="fill:none;fill-rule:nonzero;stroke:black;stroke-width:0.3px;"/>
            </g>
        </g>
        <g>
            <g transform="matrix(1.06058,0,0,1.06058,-119.954,-79.519)">
                <path d="M443.333,308.491L443.333,271.073L443.333,308.491Z" style="fill:none;fill-rule:nonzero;stroke:black;stroke-width:0.3px;"/>
            </g>
            <g transform="matrix(1.06058,0,0,1.06058,-119.954,-79.519)">
                <path d="M480.751,308.491L443.333,308.491L480.751,308.491Z" style="fill:none;fill-rule:nonzero;stroke:black;stroke-width:0.3px;"/>
            </g>
            <g transform="matrix(1.06058,0,0,1.06058,-119.954,-79.519)">
                <path d="M480.751,271.073L480.751,308.491L480.751,271.073Z" style="fill:none;fill-rule:nonzero;stroke:black;stroke-width:0.3px;"/>
            </g>
            <g transform="matrix(1.06058,0,0,1.06058,-119.954,-79.519)">
                <path d="M443.333,271.073L480.751,271.073L443.333,271.073Z" style="fill:none;fill-rule:nonzero;stroke:black;stroke-width:0.3px;"/>
            </g>
        </g>
        <g>
            <g transform="matrix(1.06058,0,0,1.06058,-116.691,-79.519)">
                <path d="M389.477,308.491L389.477,271.073L389.477,308.491Z" style="fill:none;fill-rule:nonzero;stroke:black;stroke-width:0.3px;"/>
            </g>
            <g transform="matrix(1.06058,0,0,1.06058,-116.691,-79.519)">
                <path d="M426.895,308.491L389.477,308.491L426.895,308.491Z" style="fill:none;fill-rule:nonzero;stroke:black;stroke-width:0.3px;"/>
            </g>
            <g transform="matrix(1.06058,0,0,1.06058,-116.691,-79.519)">
                <path d="M426.895,271.073L426.895,308.491L426.895,271.073Z" style="fill:none;fill-rule:nonzero;stroke:black;stroke-width:0.3px;"/>
            </g>
            <g transform="matrix(1.06058,0,0,1.06058,-116.691,-79.519)">
                <path d="M389.477,271.073L426.895,271.073L389.477,271.073Z" style="fill:none;fill-rule:nonzero;stroke:black;stroke-width:0.3px;"/>
            </g>
        </g>
        <g>
            <g transform="matrix(1.06058,0,0,1.06058,-101.196,-72.9649)">
                <path d="M133.675,200.29L133.675,162.878L133.675,200.29Z" style="fill:none;fill-rule:nonzero;stroke:black;stroke-width:0.28px;"/>
            </g>
            <g transform="matrix(1.06058,0,0,1.06058,-101.196,-72.9649)">
                <path d="M171.094,200.29L133.675,200.29L171.094,200.29Z" style="fill:none;fill-rule:nonzero;stroke:black;stroke-width:0.28px;"/>
            </g>
            <g transform="matrix(1.06058,0,0,1.06058,-101.196,-72.9649)">
                <path d="M171.094,162.878L171.094,200.29L171.094,162.878Z" style="fill:none;fill-rule:nonzero;stroke:black;stroke-width:0.28px;"/>
            </g>
            <g transform="matrix(1.06058,0,0,1.06058,-101.196,-72.9649)">
                <path d="M133.675,162.878L171.094,162.878L133.675,162.878Z" style="fill:none;fill-rule:nonzero;stroke:black;stroke-width:0.28px;"/>
            </g>
        </g>
        <g>
            <g transform="matrix(1.06078,0,0,1.06078,-142.139,-76.2926)">
                <path d="M806.796,254.434L806.796,217.015L806.796,254.434Z" style="fill:none;fill-rule:nonzero;stroke:black;stroke-width:0.3px;"/>
            </g>
            <g transform="matrix(1.06078,0,0,1.06078,-142.139,-76.2926)">
                <path d="M844.207,254.434L806.796,254.434L844.207,254.434Z" style="fill:none;fill-rule:nonzero;stroke:black;stroke-width:0.3px;"/>
            </g>
            <g transform="matrix(1.06078,0,0,1.06078,-142.139,-76.2926)">
                <path d="M844.207,217.015L844.207,254.434L844.207,217.015Z" style="fill:none;fill-rule:nonzero;stroke:black;stroke-width:0.3px;"/>
            </g>
            <g transform="matrix(1.06078,0,0,1.06078,-142.139,-76.2926)">
                <path d="M806.796,217.015L844.207,217.015L806.796,217.015Z" style="fill:none;fill-rule:nonzero;stroke:black;stroke-width:0.3px;"/>
            </g>
        </g>
        <g>
            <g transform="matrix(1.06058,0,0,1.06058,-112.608,-76.2445)">
                <path d="M322.07,254.434L322.07,217.015L322.07,254.434Z" style="fill:none;fill-rule:nonzero;stroke:black;stroke-width:0.3px;"/>
            </g>
            <g transform="matrix(1.06058,0,0,1.06058,-112.608,-76.2445)">
                <path d="M359.489,254.434L322.07,254.434L359.489,254.434Z" style="fill:none;fill-rule:nonzero;stroke:black;stroke-width:0.3px;"/>
            </g>
            <g transform="matrix(1.06058,0,0,1.06058,-112.608,-76.2445)">
                <path d="M359.489,217.015L359.489,254.434L359.489,217.015Z" style="fill:none;fill-rule:nonzero;stroke:black;stroke-width:0.3px;"/>
            </g>
            <g transform="matrix(1.06058,0,0,1.06058,-112.608,-76.2445)">
                <path d="M322.07,217.015L359.489,217.015L322.07,217.015Z" style="fill:none;fill-rule:nonzero;stroke:black;stroke-width:0.3px;"/>
            </g>
        </g>
        <g>
            <g transform="matrix(1.06078,0,0,1.06078,-143.783,-73.002)">
                <path d="M833.839,200.29L833.839,162.878L833.839,200.29Z" style="fill:none;fill-rule:nonzero;stroke:black;stroke-width:0.3px;"/>
            </g>
            <g transform="matrix(1.06078,0,0,1.06078,-143.783,-73.002)">
                <path d="M871.25,200.29L833.839,200.29L871.25,200.29Z" style="fill:none;fill-rule:nonzero;stroke:black;stroke-width:0.3px;"/>
            </g>
            <g transform="matrix(1.06078,0,0,1.06078,-143.783,-73.002)">
                <path d="M871.25,162.878L871.25,200.29L871.25,162.878Z" style="fill:none;fill-rule:nonzero;stroke:black;stroke-width:0.3px;"/>
            </g>
            <g transform="matrix(1.06078,0,0,1.06078,-143.783,-73.002)">
                <path d="M833.839,162.878L871.25,162.878L833.839,162.878Z" style="fill:none;fill-rule:nonzero;stroke:black;stroke-width:0.3px;"/>
            </g>
        </g>
        <g>
            <g transform="matrix(1.06058,0,0,1.06058,-138.708,-76.2445)">
                <path d="M752.933,254.434L752.933,217.015L752.933,254.434Z" style="fill:none;fill-rule:nonzero;stroke:black;stroke-width:0.3px;"/>
            </g>
            <g transform="matrix(1.06058,0,0,1.06058,-138.708,-76.2445)">
                <path d="M790.351,254.434L752.933,254.434L790.351,254.434Z" style="fill:none;fill-rule:nonzero;stroke:black;stroke-width:0.3px;"/>
            </g>
            <g transform="matrix(1.06058,0,0,1.06058,-138.708,-76.2445)">
                <path d="M790.351,217.015L790.351,254.434L790.351,217.015Z" style="fill:none;fill-rule:nonzero;stroke:black;stroke-width:0.3px;"/>
            </g>
            <g transform="matrix(1.06058,0,0,1.06058,-138.708,-76.2445)">
                <path d="M752.933,217.015L790.351,217.015L752.933,217.015Z" style="fill:none;fill-rule:nonzero;stroke:black;stroke-width:0.3px;"/>
            </g>
        </g>
        <g>
            <g transform="matrix(1.06058,0,0,1.06058,-113.429,-79.519)">
                <path d="M335.621,308.491L335.621,271.073L335.621,308.491Z" style="fill:none;fill-rule:nonzero;stroke:black;stroke-width:0.3px;"/>
            </g>
            <g transform="matrix(1.06058,0,0,1.06058,-113.429,-79.519)">
                <path d="M373.039,308.491L335.621,308.491L373.039,308.491Z" style="fill:none;fill-rule:nonzero;stroke:black;stroke-width:0.3px;"/>
            </g>
            <g transform="matrix(1.06058,0,0,1.06058,-113.429,-79.519)">
                <path d="M373.039,271.073L373.039,308.491L373.039,271.073Z" style="fill:none;fill-rule:nonzero;stroke:black;stroke-width:0.3px;"/>
            </g>
            <g transform="matrix(1.06058,0,0,1.06058,-113.429,-79.519)">
                <path d="M335.621,271.073L373.039,271.073L335.621,271.073Z" style="fill:none;fill-rule:nonzero;stroke:black;stroke-width:0.3px;"/>
            </g>
        </g>
        <g>
            <g transform="matrix(1.06058,0,0,1.06058,-146.466,-79.519)">
                <path d="M881.006,271.073L918.425,271.073L881.006,271.073Z" style="fill:none;fill-rule:nonzero;stroke:black;stroke-width:0.3px;"/>
            </g>
            <g transform="matrix(1.06058,0,0,1.06058,-146.466,-79.519)">
                <path d="M918.425,271.073L918.425,308.491L918.425,271.073Z" style="fill:none;fill-rule:nonzero;stroke:black;stroke-width:0.3px;"/>
            </g>
            <g transform="matrix(1.06058,0,0,1.06058,-146.466,-79.519)">
                <path d="M918.425,308.491L881.006,308.491L918.425,308.491Z" style="fill:none;fill-rule:nonzero;stroke:black;stroke-width:0.3px;"/>
            </g>
            <g transform="matrix(1.06058,0,0,1.06058,-146.466,-79.519)">
                <path d="M881.006,308.491L881.006,271.073L881.006,308.491Z" style="fill:none;fill-rule:nonzero;stroke:black;stroke-width:0.3px;"/>
            </g>
        </g>
        <g>
            <g transform="matrix(1.06058,0,0,1.06058,-131.366,-82.7989)">
                <path d="M631.728,362.635L631.728,325.217L631.728,362.635Z" style="fill:none;fill-rule:nonzero;stroke:black;stroke-width:0.3px;"/>
            </g>
            <g transform="matrix(1.06058,0,0,1.06058,-131.366,-82.7989)">
                <path d="M669.146,362.635L631.728,362.635L669.146,362.635Z" style="fill:none;fill-rule:nonzero;stroke:black;stroke-width:0.3px;"/>
            </g>
            <g transform="matrix(1.06058,0,0,1.06058,-131.366,-82.7989)">
                <path d="M669.146,325.217L669.146,362.635L669.146,325.217Z" style="fill:none;fill-rule:nonzero;stroke:black;stroke-width:0.3px;"/>
            </g>
            <g transform="matrix(1.06058,0,0,1.06058,-131.366,-82.7989)">
                <path d="M631.728,325.217L669.146,325.217L631.728,325.217Z" style="fill:none;fill-rule:nonzero;stroke:black;stroke-width:0.3px;"/>
            </g>
        </g>
        <g>
            <g transform="matrix(1.06058,0,0,1.06058,-115.053,-82.7989)">
                <path d="M362.434,362.635L362.434,325.217L362.434,362.635Z" style="fill:none;fill-rule:nonzero;stroke:black;stroke-width:0.3px;"/>
            </g>
            <g transform="matrix(1.06058,0,0,1.06058,-115.053,-82.7989)">
                <path d="M399.852,362.635L362.434,362.635L399.852,362.635Z" style="fill:none;fill-rule:nonzero;stroke:black;stroke-width:0.3px;"/>
            </g>
            <g transform="matrix(1.06058,0,0,1.06058,-115.053,-82.7989)">
                <path d="M399.852,325.217L399.852,362.635L399.852,325.217Z" style="fill:none;fill-rule:nonzero;stroke:black;stroke-width:0.3px;"/>
            </g>
            <g transform="matrix(1.06058,0,0,1.06058,-115.053,-82.7989)">
                <path d="M362.434,325.217L399.852,325.217L362.434,325.217Z" style="fill:none;fill-rule:nonzero;stroke:black;stroke-width:0.3px;"/>
            </g>
        </g>
        <g>
            <g transform="matrix(1.06058,0,0,1.06058,-146.871,-72.9649)">
                <path d="M887.695,200.29L887.695,162.878L887.695,200.29Z" style="fill:none;fill-rule:nonzero;stroke:black;stroke-width:0.3px;"/>
            </g>
            <g transform="matrix(1.06058,0,0,1.06058,-146.871,-72.9649)">
                <path d="M925.114,200.29L887.695,200.29L925.114,200.29Z" style="fill:none;fill-rule:nonzero;stroke:black;stroke-width:0.3px;"/>
            </g>
            <g transform="matrix(1.06058,0,0,1.06058,-146.871,-72.9649)">
                <path d="M925.114,162.878L925.114,200.29L925.114,162.878Z" style="fill:none;fill-rule:nonzero;stroke:black;stroke-width:0.3px;"/>
            </g>
            <g transform="matrix(1.06058,0,0,1.06058,-146.871,-72.9649)">
                <path d="M887.695,162.878L925.114,162.878L887.695,162.878Z" style="fill:none;fill-rule:nonzero;stroke:black;stroke-width:0.3px;"/>
            </g>
        </g>
        <g>
            <g transform="matrix(1.06058,0,0,1.06058,-121.578,-82.7989)">
                <path d="M470.153,362.635L470.153,325.217L470.153,362.635Z" style="fill:none;fill-rule:nonzero;stroke:black;stroke-width:0.3px;"/>
            </g>
            <g transform="matrix(1.06058,0,0,1.06058,-121.578,-82.7989)">
                <path d="M507.571,362.635L470.153,362.635L507.571,362.635Z" style="fill:none;fill-rule:nonzero;stroke:black;stroke-width:0.3px;"/>
            </g>
            <g transform="matrix(1.06058,0,0,1.06058,-121.578,-82.7989)">
                <path d="M507.571,325.217L507.571,362.635L507.571,325.217Z" style="fill:none;fill-rule:nonzero;stroke:black;stroke-width:0.3px;"/>
            </g>
            <g transform="matrix(1.06058,0,0,1.06058,-121.578,-82.7989)">
                <path d="M470.153,325.217L507.571,325.217L470.153,325.217Z" style="fill:none;fill-rule:nonzero;stroke:black;stroke-width:0.3px;"/>
            </g>
        </g>
        <g>
            <g transform="matrix(1.06058,0,0,1.06058,-106.904,-79.519)">
                <path d="M227.902,308.491L227.902,271.073L227.902,308.491Z" style="fill:none;fill-rule:nonzero;stroke:black;stroke-width:0.3px;"/>
            </g>
            <g transform="matrix(1.06058,0,0,1.06058,-106.904,-79.519)">
                <path d="M265.32,308.491L227.902,308.491L265.32,308.491Z" style="fill:none;fill-rule:nonzero;stroke:black;stroke-width:0.3px;"/>
            </g>
            <g transform="matrix(1.06058,0,0,1.06058,-106.904,-79.519)">
                <path d="M265.32,271.073L265.32,308.491L265.32,271.073Z" style="fill:none;fill-rule:nonzero;stroke:black;stroke-width:0.3px;"/>
            </g>
            <g transform="matrix(1.06058,0,0,1.06058,-106.904,-79.519)">
                <path d="M227.902,271.073L265.32,271.073L227.902,271.073Z" style="fill:none;fill-rule:nonzero;stroke:black;stroke-width:0.3px;"/>
            </g>
        </g>
        <g>
            <g transform="matrix(1.06058,0,0,1.06058,-130.559,-72.9649)">
                <path d="M618.401,200.29L618.401,162.878L618.401,200.29Z" style="fill:none;fill-rule:nonzero;stroke:black;stroke-width:0.3px;"/>
            </g>
            <g transform="matrix(1.06058,0,0,1.06058,-130.559,-72.9649)">
                <path d="M655.819,200.29L618.401,200.29L655.819,200.29Z" style="fill:none;fill-rule:nonzero;stroke:black;stroke-width:0.3px;"/>
            </g>
            <g transform="matrix(1.06058,0,0,1.06058,-130.559,-72.9649)">
                <path d="M655.819,162.878L655.819,200.29L655.819,162.878Z" style="fill:none;fill-rule:nonzero;stroke:black;stroke-width:0.3px;"/>
            </g>
            <g transform="matrix(1.06058,0,0,1.06058,-130.559,-72.9649)">
                <path d="M618.401,162.878L655.819,162.878L618.401,162.878Z" style="fill:none;fill-rule:nonzero;stroke:black;stroke-width:0.3px;"/>
            </g>
        </g>
        <g>
            <g transform="matrix(1.06058,0,0,1.06058,-127.296,-72.9649)">
                <path d="M564.545,200.29L564.545,162.878L564.545,200.29Z" style="fill:none;fill-rule:nonzero;stroke:black;stroke-width:0.3px;"/>
            </g>
            <g transform="matrix(1.06058,0,0,1.06058,-127.296,-72.9649)">
                <path d="M601.963,200.29L564.545,200.29L601.963,200.29Z" style="fill:none;fill-rule:nonzero;stroke:black;stroke-width:0.3px;"/>
            </g>
            <g transform="matrix(1.06058,0,0,1.06058,-127.296,-72.9649)">
                <path d="M601.963,162.878L601.963,200.29L601.963,162.878Z" style="fill:none;fill-rule:nonzero;stroke:black;stroke-width:0.3px;"/>
            </g>
            <g transform="matrix(1.06058,0,0,1.06058,-127.296,-72.9649)">
                <path d="M564.545,162.878L601.963,162.878L564.545,162.878Z" style="fill:none;fill-rule:nonzero;stroke:black;stroke-width:0.3px;"/>
            </g>
        </g>
        <g>
            <g transform="matrix(1.06078,0,0,1.06078,-124.142,-73.002)">
                <path d="M510.689,200.29L510.689,162.878L510.689,200.29Z" style="fill:none;fill-rule:nonzero;stroke:black;stroke-width:0.3px;"/>
            </g>
            <g transform="matrix(1.06078,0,0,1.06078,-124.142,-73.002)">
                <path d="M548.1,200.29L510.689,200.29L548.1,200.29Z" style="fill:none;fill-rule:nonzero;stroke:black;stroke-width:0.3px;"/>
            </g>
            <g transform="matrix(1.06078,0,0,1.06078,-124.142,-73.002)">
                <path d="M548.1,162.878L548.1,200.29L548.1,162.878Z" style="fill:none;fill-rule:nonzero;stroke:black;stroke-width:0.3px;"/>
            </g>
            <g transform="matrix(1.06078,0,0,1.06078,-124.142,-73.002)">
                <path d="M510.689,162.878L548.1,162.878L510.689,162.878Z" style="fill:none;fill-rule:nonzero;stroke:black;stroke-width:0.3px;"/>
            </g>
        </g>
        <g>
            <g transform="matrix(1.06058,0,0,1.06058,-120.771,-72.9649)">
                <path d="M456.826,200.29L456.826,162.878L456.826,200.29Z" style="fill:none;fill-rule:nonzero;stroke:black;stroke-width:0.3px;"/>
            </g>
            <g transform="matrix(1.06058,0,0,1.06058,-120.771,-72.9649)">
                <path d="M494.244,200.29L456.826,200.29L494.244,200.29Z" style="fill:none;fill-rule:nonzero;stroke:black;stroke-width:0.3px;"/>
            </g>
            <g transform="matrix(1.06058,0,0,1.06058,-120.771,-72.9649)">
                <path d="M494.244,162.878L494.244,200.29L494.244,162.878Z" style="fill:none;fill-rule:nonzero;stroke:black;stroke-width:0.3px;"/>
            </g>
            <g transform="matrix(1.06058,0,0,1.06058,-120.771,-72.9649)">
                <path d="M456.826,162.878L494.244,162.878L456.826,162.878Z" style="fill:none;fill-rule:nonzero;stroke:black;stroke-width:0.3px;"/>
            </g>
        </g>
        <g>
            <g transform="matrix(1.06058,0,0,1.06058,-117.509,-72.9649)">
                <path d="M402.97,200.29L402.97,162.878L402.97,200.29Z" style="fill:none;fill-rule:nonzero;stroke:black;stroke-width:0.3px;"/>
            </g>
            <g transform="matrix(1.06058,0,0,1.06058,-117.509,-72.9649)">
                <path d="M440.388,200.29L402.97,200.29L440.388,200.29Z" style="fill:none;fill-rule:nonzero;stroke:black;stroke-width:0.3px;"/>
            </g>
            <g transform="matrix(1.06058,0,0,1.06058,-117.509,-72.9649)">
                <path d="M440.388,162.878L440.388,200.29L440.388,162.878Z" style="fill:none;fill-rule:nonzero;stroke:black;stroke-width:0.3px;"/>
            </g>
            <g transform="matrix(1.06058,0,0,1.06058,-117.509,-72.9649)">
                <path d="M402.97,162.878L440.388,162.878L402.97,162.878Z" style="fill:none;fill-rule:nonzero;stroke:black;stroke-width:0.3px;"/>
            </g>
        </g>
        <g>
            <g transform="matrix(1.06058,0,0,1.06058,-114.246,-72.9649)">
                <path d="M349.114,200.29L349.114,162.878L349.114,200.29Z" style="fill:none;fill-rule:nonzero;stroke:black;stroke-width:0.3px;"/>
            </g>
            <g transform="matrix(1.06058,0,0,1.06058,-114.246,-72.9649)">
                <path d="M386.532,200.29L349.114,200.29L386.532,200.29Z" style="fill:none;fill-rule:nonzero;stroke:black;stroke-width:0.3px;"/>
            </g>
            <g transform="matrix(1.06058,0,0,1.06058,-114.246,-72.9649)">
                <path d="M386.532,162.878L386.532,200.29L386.532,162.878Z" style="fill:none;fill-rule:nonzero;stroke:black;stroke-width:0.3px;"/>
            </g>
            <g transform="matrix(1.06058,0,0,1.06058,-114.246,-72.9649)">
                <path d="M349.114,162.878L386.532,162.878L349.114,162.878Z" style="fill:none;fill-rule:nonzero;stroke:black;stroke-width:0.3px;"/>
            </g>
        </g>
        <g>
            <g transform="matrix(1.06058,0,0,1.06058,-110.984,-72.9649)">
                <path d="M295.25,200.29L295.25,162.878L295.25,200.29Z" style="fill:none;fill-rule:nonzero;stroke:black;stroke-width:0.3px;"/>
            </g>
            <g transform="matrix(1.06058,0,0,1.06058,-110.984,-72.9649)">
                <path d="M332.669,200.29L295.25,200.29L332.669,200.29Z" style="fill:none;fill-rule:nonzero;stroke:black;stroke-width:0.3px;"/>
            </g>
            <g transform="matrix(1.06058,0,0,1.06058,-110.984,-72.9649)">
                <path d="M332.669,162.878L332.669,200.29L332.669,162.878Z" style="fill:none;fill-rule:nonzero;stroke:black;stroke-width:0.3px;"/>
            </g>
            <g transform="matrix(1.06058,0,0,1.06058,-110.984,-72.9649)">
                <path d="M295.25,162.878L332.669,162.878L295.25,162.878Z" style="fill:none;fill-rule:nonzero;stroke:black;stroke-width:0.3px;"/>
            </g>
        </g>
        <g>
            <g transform="matrix(1.06058,0,0,1.06058,-107.721,-72.9649)">
                <path d="M241.394,200.29L241.394,162.878L241.394,200.29Z" style="fill:none;fill-rule:nonzero;stroke:black;stroke-width:0.28px;"/>
            </g>
            <g transform="matrix(1.06058,0,0,1.06058,-107.721,-72.9649)">
                <path d="M278.813,200.29L241.394,200.29L278.813,200.29Z" style="fill:none;fill-rule:nonzero;stroke:black;stroke-width:0.28px;"/>
            </g>
            <g transform="matrix(1.06058,0,0,1.06058,-107.721,-72.9649)">
                <path d="M278.813,162.878L278.813,200.29L278.813,162.878Z" style="fill:none;fill-rule:nonzero;stroke:black;stroke-width:0.28px;"/>
            </g>
            <g transform="matrix(1.06058,0,0,1.06058,-107.721,-72.9649)">
                <path d="M241.394,162.878L278.813,162.878L241.394,162.878Z" style="fill:none;fill-rule:nonzero;stroke:black;stroke-width:0.28px;"/>
            </g>
        </g>
        <g>
            <g transform="matrix(1.06058,0,0,1.06058,-104.459,-72.9649)">
                <path d="M187.538,200.29L187.538,162.878L187.538,200.29Z" style="fill:none;fill-rule:nonzero;stroke:black;stroke-width:0.28px;"/>
            </g>
            <g transform="matrix(1.06058,0,0,1.06058,-104.459,-72.9649)">
                <path d="M224.957,200.29L187.538,200.29L224.957,200.29Z" style="fill:none;fill-rule:nonzero;stroke:black;stroke-width:0.28px;"/>
            </g>
            <g transform="matrix(1.06058,0,0,1.06058,-104.459,-72.9649)">
                <path d="M224.957,162.878L224.957,200.29L224.957,162.878Z" style="fill:none;fill-rule:nonzero;stroke:black;stroke-width:0.28px;"/>
            </g>
            <g transform="matrix(1.06058,0,0,1.06058,-104.459,-72.9649)">
                <path d="M187.538,162.878L224.957,162.878L187.538,162.878Z" style="fill:none;fill-rule:nonzero;stroke:black;stroke-width:0.28px;"/>
            </g>
        </g>
        <g>
            <g transform="matrix(1.06078,0,0,1.06078,-133.962,-73.002)">
                <path d="M672.264,200.29L672.264,162.878L672.264,200.29Z" style="fill:none;fill-rule:nonzero;stroke:black;stroke-width:0.3px;"/>
            </g>
            <g transform="matrix(1.06078,0,0,1.06078,-133.962,-73.002)">
                <path d="M709.675,200.29L672.264,200.29L709.675,200.29Z" style="fill:none;fill-rule:nonzero;stroke:black;stroke-width:0.3px;"/>
            </g>
            <g transform="matrix(1.06078,0,0,1.06078,-133.962,-73.002)">
                <path d="M709.675,162.878L709.675,200.29L709.675,162.878Z" style="fill:none;fill-rule:nonzero;stroke:black;stroke-width:0.3px;"/>
            </g>
            <g transform="matrix(1.06078,0,0,1.06078,-133.962,-73.002)">
                <path d="M672.264,162.878L709.675,162.878L672.264,162.878Z" style="fill:none;fill-rule:nonzero;stroke:black;stroke-width:0.3px;"/>
            </g>
        </g>
    </g>
    <g id="Outline" transform="matrix(1,0,0,2.4279,-91.9654,-649.107)">
        <path d="M94.828,301.942C94.828,300.008 98.634,298.44 103.331,298.439C157.853,298.439 457.209,298.439 492.74,298.437C494.969,298.429 497.1,298.06 498.676,297.41C509.826,292.814 555.109,274.146 566.262,269.548C567.857,268.89 570.021,268.521 572.277,268.521C607.949,268.521 903.474,268.521 957.622,268.521C962.319,268.521 966.126,270.089 966.126,272.023C966.126,291.674 966.126,388.039 966.126,407.69C966.126,408.619 965.23,409.51 963.636,410.167C962.041,410.824 959.878,411.193 957.622,411.193C935.821,411.192 878.227,411.192 857.901,411.192C853.903,411.192 850.656,412.522 850.635,414.169C850.635,414.169 850.635,414.169 850.635,414.17C850.614,415.816 847.367,417.147 843.369,417.147C777.328,417.147 279.515,417.147 213.472,417.147C211.555,417.147 209.716,416.833 208.361,416.275C207.005,415.716 206.244,414.959 206.244,414.17C206.244,414.169 206.244,414.169 206.244,414.169C206.244,413.38 205.482,412.622 204.127,412.064C202.771,411.506 200.933,411.192 199.016,411.192C179.275,411.192 124.512,411.192 103.346,411.192C98.649,411.192 94.842,409.624 94.842,407.69C94.84,390.896 94.83,318.737 94.828,301.942Z" style="fill:none;fill-rule:nonzero;stroke:black;stroke-width:0.16px;"/>
    </g>
</svg>
