<?xml version="1.0" encoding="UTF-8" standalone="no"?>
<!DOCTYPE svg PUBLIC "-//W3C//DTD SVG 1.1//EN" "http://www.w3.org/Graphics/SVG/1.1/DTD/svg11.dtd">
<svg width="100%" height="100%" viewBox="0 0 1526 205" version="1.1" xmlns="http://www.w3.org/2000/svg" xmlns:xlink="http://www.w3.org/1999/xlink" xml:space="preserve" xmlns:serif="http://www.serif.com/" style="fill-rule:evenodd;clip-rule:evenodd;stroke-linejoin:round;stroke-miterlimit:2;">
    <path d="M0,204.331L203.848,-0L1525.18,-0L1320.38,204.331L0,204.331ZM262.044,35.281C258.158,35.271 254.207,35.603 250.246,36.303C234.067,39.164 220.283,47.662 210.551,59.42L228.197,159.688C241.352,167.403 257.203,170.666 273.388,167.805C309.621,161.398 333.813,126.771 327.427,90.458C321.738,58.116 293.712,35.351 262.047,35.281L262.044,35.281ZM211.702,61.416C227.052,70.779 238.473,86.452 241.84,105.578C245.205,124.705 239.83,143.358 228.599,157.419L211.702,61.416Z"/>
    <g transform="matrix(1.24126,0,0,0.316364,-163.76,-66.678)">
        <path d="M534.475,525.249C534.011,403.847 508.352,309.154 477.401,308.55L468.582,308.55C461.627,308.55 456.372,314.01 451.736,334.648C447.563,352.859 446.79,369.248 446.79,394.135L446.79,675.18C446.79,697.032 447.717,712.207 451.272,728.596C455.754,749.779 461.318,752.192 468.273,752.192L478.484,752.192C509.59,752.799 535.094,647.864 534.475,525.249ZM510.055,528.891C510.055,607.802 491.019,673.966 470.901,663.647L470.901,395.349C490.865,385.03 509.9,449.98 510.055,528.891Z" style="fill:white;fill-rule:nonzero;"/>
        <path d="M608.877,398.978L608.877,308.626L572.22,308.626C565.574,308.626 560.783,314.69 556.301,334.701C552.9,349.861 551.355,363.807 551.355,385.031L551.355,677.605C551.355,697.009 552.437,709.744 555.528,724.903C560.01,746.733 566.501,750.978 572.22,750.978L608.722,750.978L608.722,661.233L575.311,661.233L575.311,563.448L607.021,563.448L607.021,474.916L575.311,474.916L575.311,398.978L608.877,398.978Z" style="fill:white;fill-rule:nonzero;"/>
        <path d="M695.035,752.192L695.035,662.446L683.588,662.446C663.634,662.446 648.476,605.989 648.476,527.07C648.476,452.4 664.408,400.192 683.588,400.192L694.725,400.192L694.725,308.626L683.588,308.626C649.094,308.626 625.138,408.084 625.138,527.07C625.138,650.306 650.022,752.192 683.588,752.192L695.035,752.192Z" style="fill:white;fill-rule:nonzero;"/>
        <path d="M769.901,398.978L769.901,308.626L733.244,308.626C726.598,308.626 721.806,314.69 717.324,334.701C713.924,349.861 712.378,363.807 712.378,385.031L712.378,677.605C712.378,697.009 713.46,709.744 716.551,724.903C721.034,746.733 727.525,750.978 733.244,750.978L769.746,750.978L769.746,661.233L736.335,661.233L736.335,563.448L768.044,563.448L768.044,474.916L736.335,474.916L736.335,398.978L769.901,398.978Z" style="fill:white;fill-rule:nonzero;"/>
        <path d="M868.433,699.46L868.433,308.553L844.322,308.553L844.322,561.672L818.476,349.829C814.607,316.444 806.099,292.217 797.135,303.697C789.098,314.016 786.007,344.366 786.007,377.144L786.007,751.608L809.19,751.608L809.19,475.478L838.131,711.6C841.381,738.308 846.64,757.047 854.059,755.226C861.941,752.211 868.433,729.81 868.433,699.46Z" style="fill:white;fill-rule:nonzero;"/>
        <path d="M951.188,398.371L951.188,308.626L884.848,308.626L884.848,397.765L906.04,397.765L906.04,750.978L930.615,750.978L930.615,398.371L951.188,398.371Z" style="fill:white;fill-rule:nonzero;"/>
        <path d="M1098.61,750.985L1067.21,511.895L1093.66,307.943L1066.28,307.943L1053.91,412.345L1041.22,307.943L1013.69,307.943L1040.45,511.895L1009.82,752.192L1037.97,752.192L1054.06,619.942L1069.68,750.985L1098.61,750.985Z" style="fill:white;fill-rule:nonzero;stroke:white;stroke-width:5.85px;"/>
        <path d="M1171.92,750.978L1171.92,663.052L1138.51,663.052L1138.51,308.55L1114.4,308.55L1114.4,669.116C1114.4,692.158 1115.17,709.137 1118.88,726.116C1123.67,748.552 1129.54,750.978 1136.96,750.978L1171.92,750.978Z" style="fill:white;fill-rule:nonzero;stroke:white;stroke-width:5.85px;"/>
    </g>
</svg>
